<?xml version="1.0" encoding="utf-8"?>
<svg version="1.1" xmlns:xlink="http://www.w3.org/1999/xlink" width="290px" height="8px" xmlns="http://www.w3.org/2000/svg">
  <g transform="matrix(1 0 0 1 -144 -10382 )">
    <path d="M 7.739650201806632 6.690909090909091  C 8.77300866922459 5.235874493539919  10.476712420163869 4.39133006473538  12.274418604651144 4.44297520661157  L 128.23874687680183 4.44297520661157  C 135.89033250048047 4.575206611570247  140.90666922929077 6.056198347107439  143.3813953488372 8  C 145.8561214683836 6.016528925619834  150.85908129925042 4.56198347107438  158.5106669229291 4.44297520661157  L 277.80584278300984 4.44297520661157  C 279.56894849154844 4.444823035787732  281.2247395724582 5.280405708215314  282.2603497981934 6.6909090909090905  C 283.12984816452047 4.760330578512396  287.7983855467999 4.482644628099173  288.60099942340963 4.44297520661157  L 288.73476840284457 4.44297520661157  L 288.73476840284457 3.5173553719008255  C 288.73476840284457 3.5173553719008255  283.21010955218145 3.385123966942148  282.2603497981934 1.2958677685950404  C 281.20610759640647 2.783225679316969  279.453630296789 3.6319195121835026  277.6185662118009 3.543801652892561  L 157.77493753603687 3.543801652892561  C 150.52465885066306 3.3454545454545443  145.73572938689216 1.89090909090909  143.3278877570632 0  C 140.9200461272343 1.8909090909090898  136.11773976551987 3.345454545454544  128.88083797808955 3.543801652892561  L 12.394810686142595 3.543801652892561  C 10.56016332588494 3.642485015484471  8.802605748963561 2.8037615423915896  7.739650201806632 1.322314049586777  C 6.789890447818548 3.3983471074380165  1.2652315971554695 3.543801652892562  1.2652315971554695 3.543801652892562  L 1.2652315971554695 4.442975206611571  L 1.3454929848164343 4.442975206611571  C 2.0143378819911413 4.442975206611571  6.856774937536019 4.733884297520662  7.739650201806632 6.690909090909091  Z M 143.64893330770707 5.976859504132231  C 142.55202767634054 4.866115702479339  139.5020949452239 3.9669421487603302  136.96048433596002 3.9669421487603302  C 139.5020949452239 3.9669421487603302  142.55202767634054 3.094214876033058  143.64893330770707 1.9702479338842975  C 144.7190851431866 3.067768595041322  146.16379012108396 3.9669421487603302  150.33738227945412 3.9669421487603302  C 146.16379012108396 3.9669421487603302  144.7190851431866 4.839669421487604  143.64893330770707 5.976859504132231  Z " fill-rule="nonzero" fill="#ffad00" stroke="none" transform="matrix(1 0 0 1 144 10382 )" />
  </g>
</svg>