<?xml version="1.0" encoding="utf-8"?>
<svg version="1.1" xmlns:xlink="http://www.w3.org/1999/xlink" width="192px" height="5px" xmlns="http://www.w3.org/2000/svg">
  <g transform="matrix(1 0 0 1 -66 -7049 )">
    <path d="M 5.124182202575425 4.181818181818182  C 5.808336774107314 3.272421558462449  6.936306154039528 2.744581290459612  8.126511627906964 2.7768595041322315  L 84.90289448395156 2.7768595041322315  C 89.96877186238706 2.8595041322314048  93.28993273111665 3.7851239669421495  94.92837209302326 5  C 96.56681145492985 3.7603305785123964  99.87911589467615 2.8512396694214877  104.94499327311166 2.7768595041322315  L 183.9266269459927 2.7768595041322315  C 185.09392451854242 2.7780143973673326  186.190172406593 3.300253567634571  186.87581779742456 4.181818181818182  C 187.45148568133772 2.9752066115702474  190.542379396502 2.8016528925619832  191.07376513549877 2.7768595041322315  L 191.16232942533156 2.7768595041322315  L 191.16232942533156 2.198347107438016  C 191.16232942533156 2.198347107438016  187.5046242552374 2.115702479338842  186.87581779742456 0.8099173553719002  C 186.1778367534829 1.7395160495731057  185.01757592063274 2.269949695114689  183.8026369402268 2.2148760330578505  L 104.45788967903133 2.2148760330578505  C 99.65770517009416 2.0909090909090904  96.48710359408034 1.1818181818181812  94.89294637709013 0  C 93.29878916009994 1.1818181818181812  90.11933115510281 2.09090909090909  85.32800307514896 2.2148760330578505  L 8.206219488756476 2.2148760330578505  C 6.991556408861753 2.276553134677794  5.827932082072427 1.7523509639947434  5.124182202575425 0.8264462809917356  C 4.495375744762625 2.12396694214876  0.8376705746684487 2.2148760330578514  0.8376705746684487 2.2148760330578514  L 0.8376705746684487 2.776859504132232  L 0.890809148568122 2.776859504132232  C 1.333630597732066 2.776859504132232  4.539657889679019 2.9586776859504136  5.124182202575425 4.181818181818182  Z M 95.10550067268882 3.7355371900826446  C 94.37927349605995 3.0413223140495873  92.36000768787237 2.4793388429752063  90.67728618104938 2.4793388429752063  C 92.36000768787237 2.4793388429752063  94.37927349605995 1.9338842975206614  95.10550067268882 1.231404958677686  C 95.81401499135112 1.9173553719008263  96.77050932154523 2.4793388429752063  99.53371516432824 2.4793388429752063  C 96.77050932154523 2.4793388429752063  95.81401499135112 3.024793388429752  95.10550067268882 3.7355371900826446  Z " fill-rule="nonzero" fill="#ffad00" stroke="none" transform="matrix(1 0 0 1 66 7049 )" />
  </g>
</svg>