<?xml version="1.0" encoding="utf-8"?>
<svg version="1.1" xmlns:xlink="http://www.w3.org/1999/xlink" width="18px" height="13px" xmlns="http://www.w3.org/2000/svg">
  <defs>
    <mask fill="white" id="clip28">
      <path d="M 0.15689637350518146 6.799599198397011  C 0.052298791168444346 6.712758851035901  0 6.612892451569303  0 6.5  C 0 6.387107548430696  0.052298791168444346 6.287241148964099  0.15689637350518146 6.200400801602989  L 7.468267378844379 0.13026052104236013  C 7.572864961181116 0.043420173681250375  7.693152180868386 0  7.829129037906114 0  C 7.8778302153248205 0  7.924518772530367 0.005569811287460545  7.9691947095304085 0.016709433862642446  C 8.022805833921211 0.005569811287460545  8.078832102567882 0  8.13727351547027 0  C 8.300445743915589 0  8.444790407540344 0.043420173681250375  8.570307506344458 0.13026052104236013  L 17.343952712751463 6.200400801602989  C 17.46946981155558 6.287241148964099  17.53222836095764 6.387107548430696  17.53222836095764 6.5  C 17.53222836095764 6.612892451569303  17.46946981155558 6.712758851035901  17.343952712751463 6.799599198397011  L 8.570307506344458 12.86973947895764  C 8.444790407540344 12.95657982631875  8.300445743915589 13  8.13727351547027 13  C 8.078832102567882 13  8.022805833921211 12.99443018871254  7.969194709522677 12.983290566137358  C 7.924518772530367 12.99443018871254  7.8778302153248205 13  7.829129037906114 13  C 7.693152180868386 13  7.572864961181116 12.95657982631875  7.468267378844379 12.86973947895764  L 0.15689637350518146 6.799599198397011  Z " fill-rule="evenodd" />
    </mask>
  </defs>
  <g transform="matrix(1 0 0 1 -456 -516 )">
    <path d="M 0.15689637350518146 6.799599198397011  C 0.052298791168444346 6.712758851035901  0 6.612892451569303  0 6.5  C 0 6.387107548430696  0.052298791168444346 6.287241148964099  0.15689637350518146 6.200400801602989  L 7.468267378844379 0.13026052104236013  C 7.572864961181116 0.043420173681250375  7.693152180868386 0  7.829129037906114 0  C 7.8778302153248205 0  7.924518772530367 0.005569811287460545  7.9691947095304085 0.016709433862642446  C 8.022805833921211 0.005569811287460545  8.078832102567882 0  8.13727351547027 0  C 8.300445743915589 0  8.444790407540344 0.043420173681250375  8.570307506344458 0.13026052104236013  L 17.343952712751463 6.200400801602989  C 17.46946981155558 6.287241148964099  17.53222836095764 6.387107548430696  17.53222836095764 6.5  C 17.53222836095764 6.612892451569303  17.46946981155558 6.712758851035901  17.343952712751463 6.799599198397011  L 8.570307506344458 12.86973947895764  C 8.444790407540344 12.95657982631875  8.300445743915589 13  8.13727351547027 13  C 8.078832102567882 13  8.022805833921211 12.99443018871254  7.969194709522677 12.983290566137358  C 7.924518772530367 12.99443018871254  7.8778302153248205 13  7.829129037906114 13  C 7.693152180868386 13  7.572864961181116 12.95657982631875  7.468267378844379 12.86973947895764  L 0.15689637350518146 6.799599198397011  Z " fill-rule="nonzero" fill="#ffffff" stroke="none" fill-opacity="0" transform="matrix(1 0 0 1 456 516 )" />
    <path d="M 0.15689637350518146 6.799599198397011  C 0.052298791168444346 6.712758851035901  0 6.612892451569303  0 6.5  C 0 6.387107548430696  0.052298791168444346 6.287241148964099  0.15689637350518146 6.200400801602989  L 7.468267378844379 0.13026052104236013  C 7.572864961181116 0.043420173681250375  7.693152180868386 0  7.829129037906114 0  C 7.8778302153248205 0  7.924518772530367 0.005569811287460545  7.9691947095304085 0.016709433862642446  C 8.022805833921211 0.005569811287460545  8.078832102567882 0  8.13727351547027 0  C 8.300445743915589 0  8.444790407540344 0.043420173681250375  8.570307506344458 0.13026052104236013  L 17.343952712751463 6.200400801602989  C 17.46946981155558 6.287241148964099  17.53222836095764 6.387107548430696  17.53222836095764 6.5  C 17.53222836095764 6.612892451569303  17.46946981155558 6.712758851035901  17.343952712751463 6.799599198397011  L 8.570307506344458 12.86973947895764  C 8.444790407540344 12.95657982631875  8.300445743915589 13  8.13727351547027 13  C 8.078832102567882 13  8.022805833921211 12.99443018871254  7.969194709522677 12.983290566137358  C 7.924518772530367 12.99443018871254  7.8778302153248205 13  7.829129037906114 13  C 7.693152180868386 13  7.572864961181116 12.95657982631875  7.468267378844379 12.86973947895764  L 0.15689637350518146 6.799599198397011  Z " stroke-width="4" stroke="#ffffff" fill="none" transform="matrix(1 0 0 1 456 516 )" mask="url(#clip28)" />
  </g>
</svg>