<?xml version="1.0" encoding="utf-8"?>
<svg version="1.1" xmlns:xlink="http://www.w3.org/1999/xlink" width="4px" height="4px" xmlns="http://www.w3.org/2000/svg">
  <g transform="matrix(1 0 0 1 -37 -1764 )">
    <path d="M 39 1764  C 40.12 1764  41 1764.88  41 1766  C 41 1767.12  40.12 1768  39 1768  C 37.88 1768  37 1767.12  37 1766  C 37 1764.88  37.88 1764  39 1764  Z " fill-rule="nonzero" fill="#ffffff" stroke="none" fill-opacity="0.0196078431372549" />
    <path d="M 39 1764.5  C 39.84 1764.5  40.5 1765.16  40.5 1766  C 40.5 1766.84  39.84 1767.5  39 1767.5  C 38.16 1767.5  37.5 1766.84  37.5 1766  C 37.5 1765.16  38.16 1764.5  39 1764.5  Z " stroke-width="1" stroke="#ffffff" fill="none" />
  </g>
</svg>