<?xml version="1.0" encoding="utf-8"?>
<svg version="1.1" xmlns:xlink="http://www.w3.org/1999/xlink" width="12px" height="6px" xmlns="http://www.w3.org/2000/svg">
  <g transform="matrix(1 0 0 1 -237 -10051 )">
    <path d="M 6.641323024054984 6  C 6.607989319006663 6  6.576033159473987 5.997429317867373  6.545454545451683 5.992287953602172  C 6.508760208631237 5.997429317867373  6.470412817192013 6  6.430412371134018 6  C 6.3187285223367695 6  6.2199312714776624 5.979959919839657  6.1340206185567006 5.939879759519026  L 0.12886597938144462 3.138276553106207  C 0.04295532646048272 3.0981963927855762  0 3.052104208416859  0 3  C 0 2.947895791583141  0.04295532646048272 2.9018036072144238  0.12886597938144462 2.861723446893793  L 6.1340206185567006 0.06012024048097374  C 6.2199312714776624 0.02004008016034277  6.3187285223367695 0  6.430412371134018 0  C 6.470412817192013 0  6.508760208631237 0.002570682132627553  6.545454545456952 0.007712046397828089  C 6.576033159473987 0.002570682132627553  6.607989319006663 0  6.641323024054984 0  C 6.734392898052693 0  6.816723940435281 0.02004008016034277  6.888316151202748 0.06012024048097374  L 11.892611683848799 2.861723446893793  C 11.964203894616269 2.9018036072144238  12 2.947895791583141  12 3  C 12 3.052104208416859  11.964203894616269 3.0981963927855762  11.892611683848799 3.138276553106207  L 6.888316151202748 5.939879759519026  C 6.816723940435281 5.979959919839657  6.734392898052693 6  6.641323024054984 6  Z M 10.07774914089347 3  L 6.5454774622782494 1.0224706348329162  L 2.3067010309278366 3  L 6.545466800395349 4.977511812908943  L 10.07774914089347 3  Z " fill-rule="nonzero" fill="#ffffff" stroke="none" transform="matrix(1 0 0 1 237 10051 )" />
  </g>
</svg>