<?xml version="1.0" encoding="utf-8"?>
<svg version="1.1" xmlns:xlink="http://www.w3.org/1999/xlink" width="80px" height="43px" xmlns="http://www.w3.org/2000/svg">
  <g transform="matrix(1 0 0 1 -504 -10169 )">
    <path d="M 75.6408966571135 33.305437728475404  L 75.63812315439706 33.305437728475404  L 76.32040482263177 33.305437728475404  L 76.32040482263177 34.555242677791796  L 76.57556707254068 34.555242677791796  L 76.57556707254068 33.305437728475404  L 77.26062224349178 33.305437728475404  L 77.26062224349178 33.17251424489053  L 75.6408966571135 33.17251424489053  L 75.6408966571135 33.305437728475404  Z M 79.45723639488152 33.17251424489052  L 78.7194846723188 34.15323019085215  L 77.93735690629367 33.17251424489052  L 77.68496815910116 33.17251424489052  L 77.68496815910116 34.55524267779179  L 77.93735690629367 34.55524267779179  L 77.93735690629367 33.504822953852724  L 78.59467705008076 34.33802625339698  L 78.81101026196005 34.33802625339698  L 79.45723639488152 33.504822953852724  L 79.45723639488152 34.55524267779179  L 79.70962514207402 34.55524267779179  L 79.70962514207402 33.17251424489052  L 79.45723639488152 33.17251424489052  Z M 75.91824692875362 34.5503796235143  L 72.26554385125326 32.645683364828486  L 61.20758852096169 21.69570615000072  L 70.72624984365058 13.266412069008208  L 75.57710609463626 12  L 61.57369087952666 12  L 63.320997590859406 12.968144739988478  L 55.422061854548815 19.97418493576725  L 55.422061854548815 26.81488128611117  L 56.88092428337584 25.51806681211233  C 56.88092428337584 25.51806681211233  64.61067635398597 33.136851846855556  66.01961573391777 34.5503796235143  L 75.91824692875362 34.5503796235143  Z M 53 0  L 53 34.59090507582676  L 45 42.56631409091967  L 45 9.463503624006593  L 40.578275316369655 9.463503624006593  L 53 0  Z M 35 42.58252427184466  L 34.78997514724036 42.58738732612215  L 27 34.58604202154927  L 27 9.460261587821599  L 22.164990782182137 9.460261587821599  L 35 0  L 35 42.58252427184466  Z M 18.479005672084966 34.58604202154927  L 25 24.431984690138286  L 25 14.308726702484785  C 22.420153032091047 18.400176367951147  18.490099682950568 25.381901292342445  18.490099682950568 25.381901292342445  C 18.490099682950568 25.381901292342445  11.373291712665115 13.167529965365802  10.663275017266411 11.55785899951473  C 10.623695794685801 11.469758815529044  10.486279556425561 11.408853181513084  10.330454691298263 12  L 0.27928084706035505 12  L 2.97512548740231 12.98759695709846  C 2.97512548740231 14.122309621847453  2.97512548740231 32.9715080014207  2.944616957521897 33.029864652750646  L 0.27928084706035505 34  L 13.592093885786067 34  L 13.592093885786067 34.58442100345677  L 10.901796250876911 33.02013854419565  C 10.882381731862106 32.9650239290507  10.871287720996499 22.196600740582774  10.871287720996499 22.196600740582774  L 18.479005672084966 34.58604202154927  Z " fill-rule="nonzero" fill="#fda90f" stroke="none" transform="matrix(1 0 0 1 504 10169 )" />
  </g>
</svg>