<?xml version="1.0" encoding="utf-8"?>
<svg version="1.1" xmlns:xlink="http://www.w3.org/1999/xlink" width="112px" height="86px" xmlns="http://www.w3.org/2000/svg">
  <g transform="matrix(1 0 0 1 -885 -15023 )">
    <path d="M 105.8972553199589 66.61087545695081  L 105.8933724161559 66.61087545695081  L 106.84856675168447 66.61087545695081  L 106.84856675168447 69.11048535558359  L 107.20579390155694 69.11048535558359  L 107.20579390155694 66.61087545695081  L 108.1648711408885 66.61087545695081  L 108.1648711408885 66.34502848978106  L 105.8972553199589 66.34502848978106  L 105.8972553199589 66.61087545695081  Z M 111.24013095283414 66.34502848978104  L 110.20727854124632 68.3064603817043  L 109.11229966881115 66.34502848978104  L 108.75895542274162 66.34502848978104  L 108.75895542274162 69.11048535558358  L 109.11229966881115 69.11048535558358  L 109.11229966881115 67.00964590770545  L 110.03254787011306 68.67605250679397  L 110.33541436674406 68.67605250679397  L 111.24013095283414 67.00964590770545  L 111.24013095283414 69.11048535558358  L 111.59347519890363 69.11048535558358  L 111.59347519890363 66.34502848978104  L 111.24013095283414 66.34502848978104  Z M 106.28554570025506 69  L 101.17176139175456 65.29136672965697  L 85.69062392934637 43.39141230000144  L 99.0167497811108 26.532824138016416  L 105.80794853249077 23  L 86.20316723133732 23  L 88.64939662720316 25.936289479976956  L 77 39.9483698715345  L 77 53.62976257222234  L 79.63329399672618 51.03613362422466  C 79.63329399672618 51.03613362422466  90.45494689558035 66.27370369371111  92.42746202748488 69  L 106.28554570025506 69  Z M 74 0  L 74 69.18181015165352  L 63 85.13262818183934  L 63 18.927007248013187  L 56.80958544291751 18.927007248013187  L 74 0  Z M 49 85.16504854368932  L 48.70596520613651 85.1747746522443  L 38 69.17208404309854  L 38 18.920523175643197  L 31.030987095054996 18.920523175643197  L 49 0  L 49 85.16504854368932  Z M 25.87060794091895 69.17208404309854  L 35 48.86396938027657  L 35 28.61745340496957  C 31.388214244927468 36.800352735902294  25.886139556130793 50.76380258468489  25.886139556130793 50.76380258468489  C 25.886139556130793 50.76380258468489  15.92260839773116 26.335059930731603  14.928585024172977 23.11571799902946  C 14.873174112560122 22.939517631058088  14.680791378995787 22.81770636302617  14.462636567817569 23  L 0.39099318588449705 23  L 4.165175682363234 25.97519391419692  C 4.165175682363234 28.244619243694906  4.165175682363234 65.9430160028414  4.122463740530655 66.05972930550129  L 0.39099318588449705 69  L 19.028931440100493 69  L 19.028931440100493 69.16884200691354  L 15.262514751227677 66.0402770883913  C 15.235334424606947 65.9300478581014  15.219802809395098 44.39320148116555  15.219802809395098 44.39320148116555  L 25.87060794091895 69.17208404309854  Z " fill-rule="nonzero" fill="#fda90f" stroke="none" transform="matrix(1 0 0 1 885 15023 )" />
  </g>
</svg>