<?xml version="1.0" encoding="utf-8"?>
<svg version="1.1" xmlns:xlink="http://www.w3.org/1999/xlink" width="9px" height="7px" xmlns="http://www.w3.org/2000/svg">
  <defs>
    <mask fill="white" id="clip29">
      <path d="M 8.921551813247408 3.3386773547093016  C 8.973850604415778 3.3854375417498996  9 3.439211756847298  9 3.5  C 9 3.5607882431527016  8.973850604415778 3.6145624582501004  8.921551813247408 3.6613226452906984  L 5.2658663105778105 6.9298597194387295  C 5.213567519409443 6.976619906479327  5.153423909565808 7  5.085435481046943 7  C 5.06108489233759 7  5.037740613734817 6.997000870845214  5.015402645234795 6.9910026125355  C 4.988597083039394 6.997000870845214  4.960583948716059 7  4.931363242264865 7  C 4.849777128042206 7  4.777604796229828 6.976619906479327  4.71484624682777 6.9298597194387295  L 0.3280236436242679 3.6613226452906984  C 0.26526509422221045 3.6145624582501004  0.2338858195211818 3.5607882431527016  0.2338858195211818 3.5  C 0.2338858195211818 3.439211756847298  0.26526509422221045 3.3854375417498996  0.3280236436242679 3.3386773547093016  L 4.71484624682777 0.07014028056127085  C 4.777604796229828 0.02338009352067328  4.849777128042206 0  4.931363242264865 0  C 4.960583948716059 0  4.988597083039394 0.0029991291547864477  5.0154026452386615 0.00899738746449978  C 5.037740613734817 0.0029991291547864477  5.06108489233759 0  5.085435481046943 0  C 5.153423909565808 0  5.213567519409443 0.02338009352067328  5.2658663105778105 0.07014028056127085  L 8.921551813247408 3.3386773547093016  Z " fill-rule="evenodd" />
    </mask>
  </defs>
  <g transform="matrix(1 0 0 1 -34 -1750 )">
    <path d="M 8.921551813247408 3.3386773547093016  C 8.973850604415778 3.3854375417498996  9 3.439211756847298  9 3.5  C 9 3.5607882431527016  8.973850604415778 3.6145624582501004  8.921551813247408 3.6613226452906984  L 5.2658663105778105 6.9298597194387295  C 5.213567519409443 6.976619906479327  5.153423909565808 7  5.085435481046943 7  C 5.06108489233759 7  5.037740613734817 6.997000870845214  5.015402645234795 6.9910026125355  C 4.988597083039394 6.997000870845214  4.960583948716059 7  4.931363242264865 7  C 4.849777128042206 7  4.777604796229828 6.976619906479327  4.71484624682777 6.9298597194387295  L 0.3280236436242679 3.6613226452906984  C 0.26526509422221045 3.6145624582501004  0.2338858195211818 3.5607882431527016  0.2338858195211818 3.5  C 0.2338858195211818 3.439211756847298  0.26526509422221045 3.3854375417498996  0.3280236436242679 3.3386773547093016  L 4.71484624682777 0.07014028056127085  C 4.777604796229828 0.02338009352067328  4.849777128042206 0  4.931363242264865 0  C 4.960583948716059 0  4.988597083039394 0.0029991291547864477  5.0154026452386615 0.00899738746449978  C 5.037740613734817 0.0029991291547864477  5.06108489233759 0  5.085435481046943 0  C 5.153423909565808 0  5.213567519409443 0.02338009352067328  5.2658663105778105 0.07014028056127085  L 8.921551813247408 3.3386773547093016  Z " fill-rule="nonzero" fill="#ffffff" stroke="none" fill-opacity="0" transform="matrix(1 0 0 1 34 1750 )" />
    <path d="M 8.921551813247408 3.3386773547093016  C 8.973850604415778 3.3854375417498996  9 3.439211756847298  9 3.5  C 9 3.5607882431527016  8.973850604415778 3.6145624582501004  8.921551813247408 3.6613226452906984  L 5.2658663105778105 6.9298597194387295  C 5.213567519409443 6.976619906479327  5.153423909565808 7  5.085435481046943 7  C 5.06108489233759 7  5.037740613734817 6.997000870845214  5.015402645234795 6.9910026125355  C 4.988597083039394 6.997000870845214  4.960583948716059 7  4.931363242264865 7  C 4.849777128042206 7  4.777604796229828 6.976619906479327  4.71484624682777 6.9298597194387295  L 0.3280236436242679 3.6613226452906984  C 0.26526509422221045 3.6145624582501004  0.2338858195211818 3.5607882431527016  0.2338858195211818 3.5  C 0.2338858195211818 3.439211756847298  0.26526509422221045 3.3854375417498996  0.3280236436242679 3.3386773547093016  L 4.71484624682777 0.07014028056127085  C 4.777604796229828 0.02338009352067328  4.849777128042206 0  4.931363242264865 0  C 4.960583948716059 0  4.988597083039394 0.0029991291547864477  5.0154026452386615 0.00899738746449978  C 5.037740613734817 0.0029991291547864477  5.06108489233759 0  5.085435481046943 0  C 5.153423909565808 0  5.213567519409443 0.02338009352067328  5.2658663105778105 0.07014028056127085  L 8.921551813247408 3.3386773547093016  Z " stroke-width="2" stroke="#ffffff" fill="none" transform="matrix(1 0 0 1 34 1750 )" mask="url(#clip29)" />
  </g>
</svg>