<?xml version="1.0" encoding="utf-8"?>
<svg version="1.1" xmlns:xlink="http://www.w3.org/1999/xlink" width="13px" height="8px" xmlns="http://www.w3.org/2000/svg">
  <defs>
    <mask fill="white" id="clip20">
      <path d="M 12.88668595246848 3.8156312625249162  C 12.96222865082279 3.8690714762855993  13 3.9305277221111976  13 4  C 13 4.069472277888802  12.96222865082279 4.130928523714401  12.88668595246848 4.184368737475084  L 7.606251337501282 7.919839679358548  C 7.530708639146972 7.973279893119231  7.4438345360395 8  7.345629028178918 8  C 7.310455955598741 8  7.276736442061402 7.9965724238231015  7.2444704875613715 7.989717271469143  C 7.205751342168014 7.9965724238231015  7.165287925923196 8  7.123080238827027 8  C 7.005233629394297 8  6.900984705665308 7.973279893119231  6.810333467640113 7.919839679358548  L 0.47381192967949803 4.184368737475084  C 0.383160691654304 4.130928523714401  0.33783507264170703 4.069472277888802  0.33783507264170703 4  C 0.33783507264170703 3.9305277221111976  0.383160691654304 3.8690714762855993  0.47381192967949803 3.8156312625249162  L 6.810333467640113 0.0801603206414524  C 6.900984705665308 0.02672010688076946  7.005233629394297 0  7.123080238827027 0  C 7.165287925923196 0  7.205751342168014 0.003427576176898797  7.244470487566955 0.010282728530856891  C 7.276736442061402 0.003427576176898797  7.310455955598741 0  7.345629028178918 0  C 7.4438345360395 0  7.530708639146972 0.02672010688076946  7.606251337501282 0.0801603206414524  L 12.88668595246848 3.8156312625249162  Z " fill-rule="evenodd" />
    </mask>
  </defs>
  <g transform="matrix(1 0 0 1 -121 -2594 )">
    <path d="M 12.88668595246848 3.8156312625249162  C 12.96222865082279 3.8690714762855993  13 3.9305277221111976  13 4  C 13 4.069472277888802  12.96222865082279 4.130928523714401  12.88668595246848 4.184368737475084  L 7.606251337501282 7.919839679358548  C 7.530708639146972 7.973279893119231  7.4438345360395 8  7.345629028178918 8  C 7.310455955598741 8  7.276736442061402 7.9965724238231015  7.2444704875613715 7.989717271469143  C 7.205751342168014 7.9965724238231015  7.165287925923196 8  7.123080238827027 8  C 7.005233629394297 8  6.900984705665308 7.973279893119231  6.810333467640113 7.919839679358548  L 0.47381192967949803 4.184368737475084  C 0.383160691654304 4.130928523714401  0.33783507264170703 4.069472277888802  0.33783507264170703 4  C 0.33783507264170703 3.9305277221111976  0.383160691654304 3.8690714762855993  0.47381192967949803 3.8156312625249162  L 6.810333467640113 0.0801603206414524  C 6.900984705665308 0.02672010688076946  7.005233629394297 0  7.123080238827027 0  C 7.165287925923196 0  7.205751342168014 0.003427576176898797  7.244470487566955 0.010282728530856891  C 7.276736442061402 0.003427576176898797  7.310455955598741 0  7.345629028178918 0  C 7.4438345360395 0  7.530708639146972 0.02672010688076946  7.606251337501282 0.0801603206414524  L 12.88668595246848 3.8156312625249162  Z " fill-rule="nonzero" fill="#ffffff" stroke="none" fill-opacity="0" transform="matrix(1 0 0 1 121 2594 )" />
    <path d="M 12.88668595246848 3.8156312625249162  C 12.96222865082279 3.8690714762855993  13 3.9305277221111976  13 4  C 13 4.069472277888802  12.96222865082279 4.130928523714401  12.88668595246848 4.184368737475084  L 7.606251337501282 7.919839679358548  C 7.530708639146972 7.973279893119231  7.4438345360395 8  7.345629028178918 8  C 7.310455955598741 8  7.276736442061402 7.9965724238231015  7.2444704875613715 7.989717271469143  C 7.205751342168014 7.9965724238231015  7.165287925923196 8  7.123080238827027 8  C 7.005233629394297 8  6.900984705665308 7.973279893119231  6.810333467640113 7.919839679358548  L 0.47381192967949803 4.184368737475084  C 0.383160691654304 4.130928523714401  0.33783507264170703 4.069472277888802  0.33783507264170703 4  C 0.33783507264170703 3.9305277221111976  0.383160691654304 3.8690714762855993  0.47381192967949803 3.8156312625249162  L 6.810333467640113 0.0801603206414524  C 6.900984705665308 0.02672010688076946  7.005233629394297 0  7.123080238827027 0  C 7.165287925923196 0  7.205751342168014 0.003427576176898797  7.244470487566955 0.010282728530856891  C 7.276736442061402 0.003427576176898797  7.310455955598741 0  7.345629028178918 0  C 7.4438345360395 0  7.530708639146972 0.02672010688076946  7.606251337501282 0.0801603206414524  L 12.88668595246848 3.8156312625249162  Z " stroke-width="2" stroke="#ffffff" fill="none" transform="matrix(1 0 0 1 121 2594 )" mask="url(#clip20)" />
  </g>
</svg>