<?xml version="1.0" encoding="utf-8"?>
<svg version="1.1" xmlns:xlink="http://www.w3.org/1999/xlink" width="10px" height="5px" xmlns="http://www.w3.org/2000/svg">
  <g transform="matrix(1 0 0 1 -874 -2567 )">
    <path d="M 5.5344358533791524 5  C 5.506657765838886 5  5.4800276328949895 4.997857764889478  5.454545454543069 4.993573294668476  C 5.423966840526031 4.997857764889478  5.392010680993344 5  5.358676975945015 5  C 5.2656071019473085 5  5.183276059564719 4.983299933199714  5.1116838487972505 4.949899799599188  L 0.10738831615120384 2.615230460921839  C 0.0357961053837356 2.5818303273213132  0 2.5434201736807154  0 2.5  C 0 2.4565798263192846  0.0357961053837356 2.4181696726786868  0.10738831615120384 2.384769539078161  L 5.1116838487972505 0.050100200400811444  C 5.183276059564719 0.01670006680028564  5.2656071019473085 0  5.358676975945015 0  C 5.392010680993344 0  5.423966840526031 0.0021422351105229607  5.4545454545474605 0.006426705331523407  C 5.4800276328949895 0.0021422351105229607  5.506657765838886 0  5.5344358533791524 0  C 5.611994081710577 0  5.680603283696067 0.01670006680028564  5.7402634593356225 0.050100200400811444  L 9.910509736540666 2.384769539078161  C 9.970169912180223 2.4181696726786868  10 2.4565798263192846  10 2.5  C 10 2.5434201736807154  9.970169912180223 2.5818303273213132  9.910509736540666 2.615230460921839  L 5.7402634593356225 4.949899799599188  C 5.680603283696067 4.983299933199714  5.611994081710577 5  5.5344358533791524 5  Z M 8.398124284077891 2.5  L 5.454564551898541 0.8520588623607637  L 1.9222508591065304 2.5  L 5.454555666996125 4.147926510757452  L 8.398124284077891 2.5  Z " fill-rule="nonzero" fill="#ffffff" stroke="none" transform="matrix(1 0 0 1 874 2567 )" />
  </g>
</svg>