<?xml version="1.0" encoding="utf-8"?>
<svg version="1.1" xmlns:xlink="http://www.w3.org/1999/xlink" width="7px" height="4px" xmlns="http://www.w3.org/2000/svg">
  <g transform="matrix(1 0 0 1 -486 -1733 )">
    <path d="M 3.874105097365407 4  C 3.85466043608722 4  3.8360193430264924 3.998286211911582  3.8181818181801486 3.994858635734781  C 3.7967767883682217 3.998286211911582  3.774407476695341 4  3.7510738831615105 4  C 3.6859249713631157 4  3.628293241695303 3.9866399465597713  3.5781786941580753 3.9599198396793507  L 0.07517182130584268 2.0921843687374713  C 0.02505727376861492 2.0654642618570507  0 2.0347361389445724  0 2  C 0 1.9652638610554276  0.02505727376861492 1.9345357381429493  0.07517182130584268 1.9078156312625287  L 3.5781786941580753 0.04008016032064916  C 3.628293241695303 0.013360053440228512  3.6859249713631157 0  3.7510738831615105 0  C 3.774407476695341 0  3.7967767883682217 0.0017137880884183687  3.818181818183222 0.005141364265218726  C 3.8360193430264924 0.0017137880884183687  3.85466043608722 0  3.874105097365407 0  C 3.9283958571974043 0  3.9764222985872473 0.013360053440228512  4.018184421534936 0.04008016032064916  L 6.937356815578466 1.9078156312625287  C 6.979118938526156 1.9345357381429493  7 1.9652638610554276  7 2  C 7 2.0347361389445724  6.979118938526156 2.0654642618570507  6.937356815578466 2.0921843687374713  L 4.018184421534936 3.9599198396793507  C 3.9764222985872473 3.9866399465597713  3.9283958571974043 4  3.874105097365407 4  Z M 5.878686998854524 2  L 3.8181951863289787 0.6816470898886109  L 1.3455756013745712 2  L 3.8181889668972873 3.3183412086059616  L 5.878686998854524 2  Z " fill-rule="nonzero" fill="#ffffff" stroke="none" transform="matrix(1 0 0 1 486 1733 )" />
  </g>
</svg>