<?xml version="1.0" encoding="utf-8"?>
<svg version="1.1" xmlns:xlink="http://www.w3.org/1999/xlink" width="15px" height="15px" xmlns="http://www.w3.org/2000/svg">
  <g transform="matrix(1 0 0 1 -1057 -967 )">
    <path d="M 2.8125 0  L 12.1875 0  C 12.962239583333336 0  13.624674479166668 0.27506510416666574  14.1748046875 0.8251953125000006  C 14.724934895833332 1.3753255208333321  15 2.0377604166666647  15 2.8125  L 15 12.1875  C 15 12.962239583333332  14.724934895833332 13.624674479166668  14.1748046875 14.1748046875  C 13.624674479166668 14.724934895833332  12.962239583333336 15  12.1875 15  L 10.3515625 15  L 10.3515625 9.189453124999998  L 12.294921875 9.189453124999998  L 12.587890625 6.923828124999999  L 10.3515625 6.923828124999999  L 10.3515625 5.478515625  C 10.3515625 5.113932291666664  10.428059895833336 4.840494791666665  10.5810546875 4.658203125  C 10.734049479166668 4.475911458333333  11.031901041666668 4.384765625000001  11.474609375 4.384765625000001  L 12.666015625 4.374999999999999  L 12.666015625 2.3535156249999996  C 12.255859375 2.2949218749999996  11.676432291666668 2.2656249999999996  10.927734375 2.2656249999999996  C 10.042317708333336 2.2656249999999996  9.334309895833334 2.526041666666665  8.8037109375 3.046875  C 8.273111979166668 3.567708333333333  8.0078125 4.303385416666666  8.0078125 5.253906249999999  L 8.0078125 6.923828124999999  L 6.0546875 6.923828124999999  L 6.0546875 9.189453124999998  L 8.0078125 9.189453124999998  L 8.0078125 15  L 2.8125 15  C 2.0377604166666665 15  1.3753255208333335 14.724934895833332  0.8251953125 14.1748046875  C 0.27506510416666663 13.624674479166668  0 12.962239583333332  0 12.1875  L 0 2.8125  C 0 2.0377604166666647  0.27506510416666663 1.3753255208333321  0.8251953125 0.8251953125000006  C 1.3753255208333335 0.27506510416666574  2.0377604166666665 0  2.8125 0  Z " fill-rule="nonzero" fill="#ffffff" stroke="none" transform="matrix(1 0 0 1 1057 967 )" />
  </g>
</svg>