<?xml version="1.0" encoding="utf-8"?>
<svg version="1.1" xmlns:xlink="http://www.w3.org/1999/xlink" width="9px" height="10px" xmlns="http://www.w3.org/2000/svg">
  <g transform="matrix(1 0 0 1 -113 -2262 )">
    <path d="M 1.6875 0  L 7.3125 0  C 7.777343750000001 0  8.1748046875 0.1833767361111105  8.5048828125 0.5501302083333337  C 8.8349609375 0.9168836805555547  9 1.358506944444443  9 1.875  L 9 8.125  C 9 8.641493055555555  8.8349609375 9.083116319444445  8.5048828125 9.449869791666666  C 8.1748046875 9.81662326388889  7.777343750000001 10  7.3125 10  L 6.2109375 10  L 6.2109375 6.126302083333332  L 7.376953125 6.126302083333332  L 7.552734375 4.615885416666666  L 6.2109375 4.615885416666666  L 6.2109375 3.65234375  C 6.2109375 3.409288194444443  6.256835937500001 3.226996527777777  6.3486328125 3.10546875  C 6.4404296875 2.9839409722222223  6.619140625000001 2.923177083333334  6.884765625 2.923177083333334  L 7.599609375 2.916666666666666  L 7.599609375 1.5690104166666663  C 7.353515625 1.5299479166666663  7.005859375000001 1.5104166666666663  6.556640625 1.5104166666666663  C 6.025390625000001 1.5104166666666663  5.600585937500001 1.6840277777777768  5.2822265625 2.03125  C 4.9638671875 2.3784722222222223  4.8046875 2.8689236111111107  4.8046875 3.502604166666666  L 4.8046875 4.615885416666666  L 3.6328125 4.615885416666666  L 3.6328125 6.126302083333332  L 4.8046875 6.126302083333332  L 4.8046875 10  L 1.6875 10  C 1.22265625 10  0.8251953125000001 9.81662326388889  0.4951171875 9.449869791666666  C 0.16503906249999997 9.083116319444445  0 8.641493055555555  0 8.125  L 0 1.875  C 0 1.358506944444443  0.16503906249999997 0.9168836805555547  0.4951171875 0.5501302083333337  C 0.8251953125000001 0.1833767361111105  1.22265625 0  1.6875 0  Z " fill-rule="nonzero" fill="#ffffff" stroke="none" transform="matrix(1 0 0 1 113 2262 )" />
  </g>
</svg>