<?xml version="1.0" encoding="utf-8"?>
<svg version="1.1" xmlns:xlink="http://www.w3.org/1999/xlink" width="11px" height="12px" xmlns="http://www.w3.org/2000/svg">
  <g transform="matrix(1 0 0 1 -267 -3215 )">
    <path d="M 2.0625 0  L 8.9375 0  C 9.505642361111112 0  9.99142795138889 0.2200520833333326  10.394856770833332 0.6601562500000004  C 10.798285590277777 1.1002604166666656  11 1.6302083333333317  11 2.25  L 11 9.75  C 11 10.369791666666666  10.798285590277777 10.899739583333334  10.394856770833332 11.33984375  C 9.99142795138889 11.779947916666666  9.505642361111112 12  8.9375 12  L 7.591145833333333 12  L 7.591145833333333 7.351562499999999  L 9.016276041666668 7.351562499999999  L 9.231119791666668 5.5390625  L 7.591145833333333 5.5390625  L 7.591145833333333 4.3828125  C 7.591145833333333 4.091145833333332  7.6472439236111125 3.872395833333332  7.759440104166667 3.7265625  C 7.871636284722223 3.5807291666666665  8.09006076388889 3.5078125000000004  8.414713541666668 3.5078125000000004  L 9.288411458333332 3.4999999999999996  L 9.288411458333332 1.8828124999999996  C 8.987630208333332 1.8359374999999996  8.56271701388889 1.8124999999999996  8.013671875 1.8124999999999996  C 7.3643663194444455 1.8124999999999996  6.845160590277779 2.020833333333332  6.4560546875 2.4375  C 6.066948784722223 2.8541666666666665  5.872395833333333 3.4427083333333326  5.872395833333333 4.203125  L 5.872395833333333 5.5390625  L 4.440104166666666 5.5390625  L 4.440104166666666 7.351562499999999  L 5.872395833333333 7.351562499999999  L 5.872395833333333 12  L 2.0625 12  C 1.4943576388888888 12  1.0085720486111112 11.779947916666666  0.6051432291666667 11.33984375  C 0.20171440972222218 10.899739583333334  0 10.369791666666666  0 9.75  L 0 2.25  C 0 1.6302083333333317  0.20171440972222218 1.1002604166666656  0.6051432291666667 0.6601562500000004  C 1.0085720486111112 0.2200520833333326  1.4943576388888888 0  2.0625 0  Z " fill-rule="nonzero" fill="#ffffff" stroke="none" transform="matrix(1 0 0 1 267 3215 )" />
  </g>
</svg>