<?xml version="1.0" encoding="utf-8"?>
<svg version="1.1" xmlns:xlink="http://www.w3.org/1999/xlink" width="11px" height="12px" xmlns="http://www.w3.org/2000/svg">
  <g transform="matrix(1 0 0 1 -285 -3215 )">
    <path d="M 8.414713541666668 4.6171875  C 8.715494791666668 4.3828125  8.966145833333332 4.098958333333332  9.166666666666668 3.7656250000000004  C 8.899305555555555 3.895833333333332  8.610460069444446 3.984375  8.300130208333332 4.03125  C 8.624782986111112 3.822916666666666  8.846788194444446 3.518229166666666  8.966145833333332 3.1171875  C 8.655815972222223 3.3151041666666656  8.3359375 3.447916666666666  8.006510416666668 3.515625  C 7.715277777777779 3.1718749999999996  7.350043402777779 3  6.910807291666667 3  C 6.495442708333333 3  6.140950520833333 3.1601562499999996  5.847330729166667 3.48046875  C 5.5537109375 3.8007812500000004  5.406901041666666 4.1875  5.406901041666666 4.640625  C 5.406901041666666 4.791666666666666  5.418836805555556 4.916666666666666  5.442708333333334 5.015625  C 4.826822916666666 4.979166666666666  4.249131944444445 4.809895833333334  3.7096354166666665 4.5078125  C 3.1701388888888893 4.205729166666666  2.711805555555556 3.802083333333332  2.334635416666667 3.2968750000000004  C 2.196180555555556 3.5572916666666665  2.126953125 3.8333333333333317  2.126953125 4.125  C 2.126953125 4.71875  2.344184027777778 5.174479166666666  2.7786458333333335 5.4921875  C 2.5542534722222223 5.486979166666666  2.3155381944444446 5.419270833333334  2.0625 5.2890625  L 2.0625 5.3046875  C 2.0625 5.6953125  2.181857638888889 6.042968750000001  2.420572916666667 6.347656250000001  C 2.6592881944444446 6.652343750000001  2.9529079861111116 6.841145833333334  3.3014322916666665 6.9140625  C 3.1629774305555562 6.955729166666665  3.0412326388888893 6.976562499999999  2.9361979166666665 6.976562499999999  C 2.874131944444445 6.976562499999999  2.7810329861111116 6.966145833333332  2.656901041666667 6.945312500000001  C 2.7571614583333335 7.273437500000001  2.9350043402777777 7.544270833333331  3.1904296875 7.7578125  C 3.4458550347222223 7.971354166666666  3.7358940972222228 8.080729166666664  4.060546875 8.0859375  C 3.506727430555556 8.5546875  2.883680555555556 8.7890625  2.19140625 8.7890625  C 2.067274305555556 8.7890625  1.9479166666666667 8.78125  1.8333333333333333 8.765625  C 2.539930555555556 9.255208333333334  3.30859375 9.5  4.139322916666666 9.5  C 4.674045138888889 9.5  5.175347222222223 9.407552083333334  5.643229166666667 9.22265625  C 6.111111111111112 9.037760416666666  6.512152777777779 8.790364583333332  6.846354166666667 8.48046875  C 7.180555555555555 8.170572916666666  7.468207465277779 7.813802083333331  7.709309895833333 7.410156249999999  C 7.95041232638889 7.006510416666667  8.129448784722223 6.584635416666667  8.246419270833332 6.144531249999999  C 8.363389756944446 5.704427083333332  8.421875 5.265625  8.421875 4.828125  C 8.421875 4.734375  8.419487847222223 4.6640625  8.414713541666668 4.6171875  Z M 10.394856770833332 0.6601562500000004  C 10.798285590277777 1.1002604166666656  11 1.6302083333333317  11 2.25  L 11 9.75  C 11 10.369791666666666  10.798285590277777 10.899739583333334  10.394856770833332 11.33984375  C 9.99142795138889 11.779947916666666  9.505642361111112 12  8.9375 12  L 2.0625 12  C 1.4943576388888888 12  1.0085720486111112 11.779947916666666  0.6051432291666667 11.33984375  C 0.20171440972222218 10.899739583333334  0 10.369791666666666  0 9.75  L 0 2.25  C 0 1.6302083333333317  0.20171440972222218 1.1002604166666656  0.6051432291666667 0.6601562500000004  C 1.0085720486111112 0.2200520833333326  1.4943576388888888 0  2.0625 0  L 8.9375 0  C 9.505642361111112 0  9.99142795138889 0.2200520833333326  10.394856770833332 0.6601562500000004  Z " fill-rule="nonzero" fill="#ffffff" stroke="none" transform="matrix(1 0 0 1 285 3215 )" />
  </g>
</svg>