<?xml version="1.0" encoding="utf-8"?>
<svg version="1.1" xmlns:xlink="http://www.w3.org/1999/xlink" width="9px" height="10px" xmlns="http://www.w3.org/2000/svg">
  <g transform="matrix(1 0 0 1 -129 -2262 )">
    <path d="M 6.884765625 3.84765625  C 7.130859375 3.65234375  7.3359375 3.4157986111111107  7.5 3.138020833333334  C 7.28125 3.246527777777777  7.044921875000001 3.3203125  6.791015625 3.359375  C 7.056640625000001 3.1857638888888884  7.238281250000001 2.9318576388888884  7.3359375 2.59765625  C 7.08203125 2.7625868055555545  6.8203125 2.8732638888888884  6.55078125 2.9296875  C 6.312500000000001 2.643229166666666  6.013671875000001 2.5  5.654296875 2.5  C 5.314453125 2.5  5.0244140625 2.633463541666666  4.7841796875 2.900390625  C 4.5439453125 3.167317708333334  4.423828125 3.489583333333334  4.423828125 3.8671875  C 4.423828125 3.9930555555555545  4.433593750000001 4.097222222222222  4.453125 4.1796875  C 3.94921875 4.1493055555555545  3.4765625000000004 4.008246527777778  3.03515625 3.756510416666666  C 2.5937500000000004 3.5047743055555545  2.2187500000000004 3.168402777777777  1.91015625 2.747395833333334  C 1.796875 2.9644097222222223  1.740234375 3.194444444444443  1.740234375 3.4375  C 1.740234375 3.932291666666666  1.9179687500000002 4.312065972222222  2.2734375 4.576822916666666  C 2.08984375 4.572482638888888  1.8945312500000002 4.516059027777778  1.6875 4.407552083333334  L 1.6875 4.420572916666666  C 1.6875 4.74609375  1.78515625 5.035807291666668  1.98046875 5.289713541666668  C 2.17578125 5.543619791666668  2.416015625 5.700954861111112  2.701171875 5.76171875  C 2.5878906250000004 5.796440972222221  2.4882812500000004 5.813802083333332  2.40234375 5.813802083333332  C 2.3515625000000004 5.813802083333332  2.275390625 5.805121527777777  2.173828125 5.787760416666668  C 2.255859375 6.061197916666668  2.4013671875 6.286892361111109  2.6103515625 6.46484375  C 2.8193359375 6.642795138888888  3.0566406250000004 6.733940972222221  3.322265625 6.73828125  C 2.869140625 7.12890625  2.359375 7.32421875  1.79296875 7.32421875  C 1.69140625 7.32421875  1.59375 7.317708333333332  1.5 7.3046875  C 2.078125 7.712673611111112  2.70703125 7.916666666666666  3.38671875 7.916666666666666  C 3.8242187500000004 7.916666666666666  4.234375 7.839626736111112  4.6171875 7.685546875  C 5 7.531467013888888  5.328125000000001 7.325303819444445  5.6015625 7.067057291666668  C 5.875 6.808810763888888  6.110351562500001 6.511501736111109  6.3076171875 6.175130208333332  C 6.504882812500001 5.838758680555555  6.6513671875 5.487196180555555  6.7470703125 5.120442708333332  C 6.842773437500001 4.753689236111111  6.890625 4.388020833333334  6.890625 4.0234375  C 6.890625 3.9453125  6.888671875 3.88671875  6.884765625 3.84765625  Z M 8.5048828125 0.5501302083333337  C 8.8349609375 0.9168836805555547  9 1.358506944444443  9 1.875  L 9 8.125  C 9 8.641493055555555  8.8349609375 9.083116319444445  8.5048828125 9.449869791666666  C 8.1748046875 9.81662326388889  7.777343750000001 10  7.3125 10  L 1.6875 10  C 1.22265625 10  0.8251953125000001 9.81662326388889  0.4951171875 9.449869791666666  C 0.16503906249999997 9.083116319444445  0 8.641493055555555  0 8.125  L 0 1.875  C 0 1.358506944444443  0.16503906249999997 0.9168836805555547  0.4951171875 0.5501302083333337  C 0.8251953125000001 0.1833767361111105  1.22265625 0  1.6875 0  L 7.3125 0  C 7.777343750000001 0  8.1748046875 0.1833767361111105  8.5048828125 0.5501302083333337  Z " fill-rule="nonzero" fill="#ffffff" stroke="none" transform="matrix(1 0 0 1 129 2262 )" />
  </g>
</svg>