<?xml version="1.0" encoding="utf-8"?>
<svg version="1.1" xmlns:xlink="http://www.w3.org/1999/xlink" width="9px" height="10px" xmlns="http://www.w3.org/2000/svg">
  <g transform="matrix(1 0 0 1 -159 -2262 )">
    <path d="M 3.57190635451505 2.849206349206349  L 3.57190635451505 6.841269841269842  L 6 4.857142857142858  L 3.57190635451505 2.849206349206349  Z M 1.3545150501672243 0.14285714285714235  C 2.193979933110368 0.04761904761904745  3.2424749163879594 0  4.5 0  C 5.061872909698996 0  5.604515050167224 0.011904761904761862  6.127926421404682 0.03571428571428559  C 6.651337792642142 0.05952380952380931  7.035117056856188 0.08465608465608399  7.2792642140468224 0.11111111111111072  L 7.645484949832776 0.14285714285714235  C 7.648829431438127 0.14285714285714235  7.677257525083613 0.1468253968253963  7.73076923076923 0.1547619047619042  C 7.7842809364548495 0.16269841269841323  7.822742474916389 0.17063492063492114  7.846153846153847 0.17857142857142905  C 7.869565217391305 0.18650793650793696  7.908862876254181 0.19841269841269882  7.964046822742475 0.21428571428571463  C 8.01923076923077 0.23015873015873045  8.066889632107022 0.25132275132275006  8.107023411371237 0.2777777777777779  C 8.14715719063545 0.3042328042328035  8.193979933110368 0.33862433862433705  8.247491638795987 0.3809523809523807  C 8.301003344481607 0.42328042328042215  8.35284280936455 0.47486772486772466  8.403010033444815 0.535714285714286  C 8.453177257525084 0.5965608465608452  8.501672240802677 0.6666666666666665  8.548494983277592 0.7460317460317456  C 8.568561872909699 0.7777777777777772  8.594481605351172 0.8267195767195756  8.626254180602007 0.892857142857143  C 8.658026755852845 0.9589947089947082  8.706521739130435 1.1137566137566135  8.771739130434783 1.3571428571428568  C 8.836956521739133 1.600529100529099  8.881270903010034 1.867724867724867  8.904682274247492 2.158730158730159  C 8.931438127090303 2.4973544973544968  8.952341137123746 2.858465608465608  8.967391304347826 3.2420634920634916  C 8.982441471571907 3.6256613756613754  8.991638795986622 3.9259259259259247  8.994983277591974 4.142857142857142  L 8.994983277591974 4.4603174603174605  L 8.994983277591974 5.5396825396825395  C 8.998327759197325 6.306878306878305  8.968227424749164 7.0740740740740735  8.904682274247492 7.841269841269841  C 8.881270903010034 8.132275132275133  8.839464882943146 8.395502645502646  8.779264214046822 8.630952380952381  C 8.719063545150503 8.866402116402117  8.665551839464884 9.02910052910053  8.618729096989966 9.119047619047619  L 8.548494983277592 9.253968253968255  C 8.501672240802677 9.333333333333334  8.453177257525084 9.403439153439152  8.403010033444815 9.464285714285714  C 8.35284280936455 9.525132275132275  8.301003344481607 9.575396825396826  8.247491638795987 9.615079365079366  C 8.193979933110368 9.654761904761905  8.14715719063545 9.687830687830688  8.107023411371237 9.714285714285714  C 8.066889632107022 9.74074074074074  8.01923076923077 9.761904761904761  7.964046822742475 9.777777777777777  C 7.908862876254181 9.793650793650793  7.868729096989966 9.805555555555555  7.843645484949833 9.813492063492063  C 7.818561872909699 9.821428571428571  7.780100334448161 9.829365079365079  7.728260869565218 9.837301587301587  C 7.676421404682275 9.845238095238095  7.648829431438127 9.84920634920635  7.645484949832776 9.84920634920635  C 6.806020066889632 9.949735449735451  5.75752508361204 10  4.5 10  C 3.8076923076923075 9.98941798941799  3.206521739130435 9.972222222222221  2.6964882943143813 9.9484126984127  C 2.1864548494983276 9.924603174603174  1.851170568561873 9.904761904761905  1.6906354515050166 9.88888888888889  L 1.4448160535117056 9.857142857142858  L 1.2642140468227423 9.825396825396824  C 1.1438127090301002 9.798941798941799  1.052675585284281 9.772486772486772  0.9908026755852843 9.746031746031745  C 0.9289297658862877 9.71957671957672  0.8436454849498328 9.664021164021165  0.7349498327759197 9.579365079365079  C 0.6262541806020067 9.494708994708994  0.5317725752508361 9.386243386243386  0.45150501672240806 9.253968253968255  C 0.431438127090301 9.222222222222223  0.40551839464882944 9.173280423280424  0.37374581939799334 9.107142857142858  C 0.3419732441471572 9.041005291005291  0.2934782608695652 8.886243386243386  0.2282608695652174 8.642857142857142  C 0.16304347826086957 8.399470899470899  0.11872909698996656 8.132275132275133  0.09531772575250837 7.841269841269841  C 0.068561872909699 7.5026455026455015  0.04765886287625419 7.141534391534391  0.03260869565217391 6.757936507936508  C 0.017558528428093648 6.374338624338622  0.008361204013377928 6.074074074074074  0.005016722408026756 5.857142857142856  L 0.005016722408026756 5.5396825396825395  L 0.005016722408026756 4.4603174603174605  C 0.0016722408026755848 3.6931216931216926  0.03177257525083612 2.925925925925925  0.09531772575250837 2.158730158730159  C 0.11872909698996656 1.867724867724867  0.1605351170568562 1.6044973544973529  0.22073578595317725 1.3690476190476186  C 0.28093645484949836 1.1335978835978833  0.33444816053511706 0.97089947089947  0.38127090301003347 0.8809523809523812  L 0.45150501672240806 0.7460317460317456  C 0.49832775919732447 0.6666666666666665  0.5468227424749164 0.5965608465608452  0.596989966555184 0.535714285714286  C 0.6471571906354514 0.47486772486772466  0.6989966555183946 0.42328042328042215  0.7525083612040133 0.3809523809523807  C 0.8060200668896322 0.33862433862433705  0.8528428093645485 0.3042328042328035  0.8929765886287625 0.2777777777777779  C 0.9331103678929766 0.25132275132275006  0.9807692307692308 0.23015873015873045  1.035953177257525 0.21428571428571463  C 1.0911371237458196 0.19841269841269882  1.130434782608696 0.18650793650793696  1.1538461538461537 0.17857142857142905  C 1.1772575250836121 0.17063492063492114  1.2157190635451507 0.16269841269841323  1.2692307692307692 0.1547619047619042  C 1.322742474916388 0.1468253968253963  1.3511705685618731 0.14285714285714235  1.3545150501672243 0.14285714285714235  Z " fill-rule="nonzero" fill="#ffffff" stroke="none" transform="matrix(1 0 0 1 159 2262 )" />
  </g>
</svg>