<?xml version="1.0" encoding="utf-8"?>
<svg version="1.1" xmlns:xlink="http://www.w3.org/1999/xlink" width="11px" height="12px" xmlns="http://www.w3.org/2000/svg">
  <g transform="matrix(1 0 0 1 -320 -3215 )">
    <path d="M 4.365663322185061 3.419047619047619  L 4.365663322185061 8.209523809523809  L 7.333333333333333 5.828571428571429  L 4.365663322185061 3.419047619047619  Z M 1.6555183946488294 0.17142857142857082  C 2.6815310293571164 0.05714285714285694  3.963024897807506 0  5.5 0  C 6.1867335562987735 0  6.849962839093274 0.014285714285714235  7.4896878483835 0.042857142857142705  C 8.129412857673728 0.07142857142857117  8.598476402824229 0.10158730158730078  8.896878483835005 0.13333333333333286  L 9.34448160535117 0.17142857142857082  C 9.348569305091045 0.17142857142857082  9.38331475287997 0.17619047619047556  9.448717948717949 0.18571428571428505  C 9.514121144555928 0.19523809523809588  9.561129691564476 0.20476190476190537  9.58974358974359 0.21428571428571486  C 9.618357487922705 0.22380952380952435  9.66638795986622 0.23809523809523858  9.733835005574136 0.25714285714285756  C 9.801282051282051 0.27619047619047654  9.85953177257525 0.30158730158730007  9.908584169453736 0.3333333333333335  C 9.95763656633222 0.3650793650793642  10.014864362690451 0.40634920634920446  10.080267558528428 0.45714285714285685  C 10.145670754366408 0.5079365079365066  10.20903010033445 0.5698412698412696  10.270345596432552 0.6428571428571432  C 10.33166109253066 0.7158730158730142  10.390932738758828 0.7999999999999998  10.448160535117058 0.8952380952380947  C 10.472686733556298 0.9333333333333327  10.50436640654032 0.9920634920634908  10.543199554069119 1.0714285714285716  C 10.582032701597921 1.1507936507936498  10.641304347826088 1.3365079365079362  10.721014492753623 1.6285714285714281  C 10.80072463768116 1.9206349206349187  10.854886659234486 2.2412698412698404  10.883500557413601 2.5904761904761906  C 10.916202155332591 2.9968253968253964  10.941750278706802 3.4301587301587295  10.960144927536232 3.89047619047619  C 10.978539576365664 4.35079365079365  10.989780750650317 4.71111111111111  10.993868450390188 4.9714285714285715  L 10.993868450390188 5.352380952380952  L 10.993868450390188 6.647619047619048  C 10.997956150130063 7.568253968253966  10.9611668524712 8.488888888888889  10.883500557413601 9.40952380952381  C 10.854886659234486 9.75873015873016  10.803790412486066 10.074603174603174  10.730211817168339 10.357142857142858  C 10.656633221850615 10.63968253968254  10.591230026012635 10.834920634920636  10.534002229654403 10.942857142857143  L 10.448160535117058 11.104761904761904  C 10.390932738758828 11.2  10.33166109253066 11.284126984126983  10.270345596432552 11.357142857142858  C 10.20903010033445 11.43015873015873  10.145670754366408 11.49047619047619  10.080267558528428 11.538095238095238  C 10.014864362690451 11.585714285714285  9.95763656633222 11.625396825396827  9.908584169453736 11.657142857142857  C 9.85953177257525 11.688888888888888  9.801282051282051 11.714285714285714  9.733835005574136 11.733333333333333  C 9.66638795986622 11.752380952380951  9.617335562987737 11.766666666666666  9.586677814938685 11.776190476190475  C 9.556020066889632 11.785714285714285  9.509011519881085 11.795238095238094  9.445652173913043 11.804761904761904  C 9.382292827945003 11.814285714285715  9.348569305091045 11.81904761904762  9.34448160535117 11.81904761904762  C 8.318468970642884 11.93968253968254  7.036975102192494 12  5.5 12  C 4.653846153846154 11.987301587301587  3.919082125603865 11.966666666666667  3.2957079152731326 11.938095238095238  C 2.6723337049424005 11.90952380952381  2.262541806020067 11.885714285714286  2.0663322185061315 11.866666666666667  L 1.7658862876254182 11.82857142857143  L 1.5451505016722407 11.79047619047619  C 1.3979933110367893 11.75873015873016  1.2866034931252324 11.726984126984126  1.2109810479375698 11.695238095238095  C 1.1353586027499072 11.663492063492065  1.031122259383129 11.596825396825398  0.8982720178372352 11.495238095238095  C 0.7654217762913414 11.393650793650792  0.6499442586399108 11.263492063492064  0.5518394648829431 11.104761904761904  C 0.5273132664437012 11.066666666666666  0.49563359345968044 11.007936507936508  0.45680044593088076 10.928571428571429  C 0.417967298402081 10.84920634920635  0.358695652173913 10.663492063492065  0.27898550724637683 10.371428571428572  C 0.19927536231884058 10.079365079365079  0.1451133407655147 9.75873015873016  0.11649944258639912 9.40952380952381  C 0.08379784466740989 9.003174603174603  0.058249721293199566 8.56984126984127  0.03985507246376812 8.109523809523811  C 0.02146042363433668 7.649206349206347  0.010219249349684132 7.288888888888889  0.006131549609810479 7.028571428571428  L 0.006131549609810479 6.647619047619048  L 0.006131549609810479 5.352380952380952  C 0.002043849869936826 4.431746031746031  0.038833147528799704 3.51111111111111  0.11649944258639912 2.5904761904761906  C 0.1451133407655147 2.2412698412698404  0.19620958751393533 1.9253968253968234  0.26978818283166106 1.6428571428571423  C 0.3433667781493869 1.36031746031746  0.4087699739873653 1.165079365079364  0.4659977703455965 1.0571428571428574  L 0.5518394648829431 0.8952380952380947  C 0.6090672612411744 0.7999999999999998  0.6683389074693422 0.7158730158730142  0.729654403567447 0.6428571428571432  C 0.7909698996655518 0.5698412698412696  0.8543292456335935 0.5079365079365066  0.919732441471572 0.45714285714285685  C 0.9851356373095504 0.40634920634920446  1.0423634336677814 0.3650793650793642  1.0914158305462653 0.3333333333333335  C 1.140468227424749 0.30158730158730007  1.1987179487179487 0.27619047619047654  1.266164994425864 0.25714285714285756  C 1.3336120401337794 0.23809523809523858  1.381642512077295 0.22380952380952435  1.4102564102564101 0.21428571428571486  C 1.4388703084355259 0.20476190476190537  1.485878855444073 0.19523809523809588  1.5512820512820513 0.18571428571428505  C 1.61668524712003 0.17619047619047556  1.651430694908956 0.17142857142857082  1.6555183946488294 0.17142857142857082  Z " fill-rule="nonzero" fill="#ffffff" stroke="none" transform="matrix(1 0 0 1 320 3215 )" />
  </g>
</svg>