<?xml version="1.0" encoding="utf-8"?>
<svg version="1.1" xmlns:xlink="http://www.w3.org/1999/xlink" width="11px" height="12px" xmlns="http://www.w3.org/2000/svg">
  <g transform="matrix(1 0 0 1 -303 -3215 )">
    <path d="M 6.796223958333333 7.414062500000001  C 7.154296875 7.023437499999999  7.333333333333333 6.552083333333333  7.333333333333333 6  C 7.333333333333333 5.447916666666666  7.154296875 4.9765625  6.796223958333333 4.5859375  C 6.438151041666667 4.1953125  6.00607638888889 4  5.5 4  C 4.993923611111112 4  4.561848958333334 4.1953125  4.203776041666666 4.5859375  C 3.845703125 4.9765625  3.6666666666666665 5.447916666666666  3.6666666666666665 6  C 3.6666666666666665 6.552083333333333  3.845703125 7.023437499999999  4.203776041666666 7.414062500000001  C 4.561848958333334 7.8046875  4.993923611111112 8  5.5 8  C 6.00607638888889 8  6.438151041666667 7.8046875  6.796223958333333 7.414062500000001  Z M 7.498046875 3.8203125  C 8.04709201388889 4.419270833333332  8.321614583333332 5.145833333333332  8.321614583333332 6  C 8.321614583333332 6.854166666666667  8.04709201388889 7.580729166666667  7.498046875 8.1796875  C 6.949001736111112 8.778645833333332  6.282986111111112 9.078125  5.5 9.078125  C 4.717013888888889 9.078125  4.050998263888889 8.778645833333332  3.501953125 8.1796875  C 2.9529079861111116 7.580729166666667  2.678385416666667 6.854166666666667  2.678385416666667 6  C 2.678385416666667 5.145833333333332  2.9529079861111116 4.419270833333332  3.501953125 3.8203125  C 4.050998263888889 3.2213541666666656  4.717013888888889 2.9218750000000004  5.5 2.9218750000000004  C 6.282986111111112 2.9218750000000004  6.949001736111112 3.2213541666666656  7.498046875 3.8203125  Z M 8.901692708333332 2.2890625000000004  C 9.030598958333332 2.4296875000000004  9.095052083333332 2.5989583333333326  9.095052083333332 2.7968749999999996  C 9.095052083333332 2.9947916666666665  9.030598958333332 3.1640625  8.901692708333332 3.3046875  C 8.772786458333332 3.4453125  8.617621527777779 3.515625  8.436197916666668 3.515625  C 8.254774305555555 3.515625  8.099609375 3.4453125  7.970703125 3.3046875  C 7.841796875 3.1640625  7.77734375 2.9947916666666665  7.77734375 2.7968749999999996  C 7.77734375 2.5989583333333326  7.841796875 2.4296875000000004  7.970703125 2.2890625000000004  C 8.099609375 2.1484375000000004  8.254774305555555 2.0781250000000004  8.436197916666668 2.0781250000000004  C 8.617621527777779 2.0781250000000004  8.772786458333332 2.1484375000000004  8.901692708333332 2.2890625000000004  Z M 6.0478515625 1.0742187499999996  C 5.71603732638889 1.0768229166666656  5.53342013888889 1.078125  5.5 1.078125  C 5.466579861111112 1.078125  5.283962673611112 1.0768229166666656  4.9521484375 1.0742187499999996  C 4.620334201388889 1.0716145833333321  4.368489583333334 1.0716145833333321  4.196614583333334 1.0742187499999996  C 4.024739583333334 1.0768229166666656  3.7943793402777777 1.0846354166666665  3.5055338541666665 1.0976562499999996  C 3.2166883680555562 1.1106770833333326  2.970811631944445 1.13671875  2.7679036458333335 1.1757812500000004  C 2.5649956597222223 1.2148437499999996  2.3943142361111116 1.2630208333333326  2.255859375 1.3203124999999996  C 2.0171440972222223 1.4244791666666665  1.807074652777778 1.5755208333333321  1.6256510416666667 1.7734375000000004  C 1.4442274305555558 1.971354166666666  1.3057725694444444 2.2005208333333326  1.2102864583333335 2.4609375  C 1.1577690972222223 2.6119791666666656  1.1136067708333335 2.7981770833333326  1.0777994791666665 3.0195312499999996  C 1.0419921875 3.2408854166666665  1.0181206597222223 3.509114583333332  1.0061848958333335 3.8242187500000004  C 0.9942491319444444 4.139322916666666  0.9870876736111113 4.390625  0.9847005208333334 4.578125  C 0.9823133680555557 4.765625  0.9823133680555557 5.040364583333332  0.9847005208333334 5.40234375  C 0.9870876736111113 5.764322916666666  0.98828125 5.963541666666666  0.98828125 6  C 0.98828125 6.036458333333333  0.9870876736111113 6.235677083333333  0.9847005208333334 6.59765625  C 0.9823133680555557 6.959635416666667  0.9823133680555557 7.234374999999999  0.9847005208333334 7.421874999999999  C 0.9870876736111113 7.609374999999999  0.9942491319444444 7.860677083333331  1.0061848958333335 8.17578125  C 1.0181206597222223 8.490885416666664  1.0419921875 8.759114583333332  1.0777994791666665 8.98046875  C 1.1136067708333335 9.201822916666666  1.1577690972222223 9.388020833333332  1.2102864583333335 9.5390625  C 1.3057725694444444 9.799479166666666  1.4442274305555558 10.028645833333334  1.6256510416666667 10.2265625  C 1.807074652777778 10.424479166666666  2.0171440972222223 10.575520833333334  2.255859375 10.6796875  C 2.3943142361111116 10.736979166666666  2.5649956597222223 10.78515625  2.7679036458333335 10.82421875  C 2.970811631944445 10.86328125  3.2166883680555562 10.889322916666666  3.5055338541666665 10.90234375  C 3.7943793402777777 10.915364583333334  4.024739583333334 10.923177083333334  4.196614583333334 10.92578125  C 4.368489583333334 10.928385416666666  4.620334201388889 10.928385416666666  4.9521484375 10.92578125  C 5.283962673611112 10.923177083333334  5.466579861111112 10.921875  5.5 10.921875  C 5.53342013888889 10.921875  5.71603732638889 10.923177083333334  6.0478515625 10.92578125  C 6.379665798611112 10.928385416666666  6.631510416666667 10.928385416666666  6.803385416666667 10.92578125  C 6.975260416666667 10.923177083333334  7.205620659722223 10.915364583333334  7.494466145833333 10.90234375  C 7.7833116319444455 10.889322916666666  8.029188368055555 10.86328125  8.232096354166668 10.82421875  C 8.435004340277779 10.78515625  8.60568576388889 10.736979166666666  8.744140625 10.6796875  C 8.982855902777779 10.575520833333334  9.192925347222223 10.424479166666666  9.374348958333332 10.2265625  C 9.555772569444446 10.028645833333334  9.694227430555555 9.799479166666666  9.789713541666668 9.5390625  C 9.842230902777779 9.388020833333332  9.886393229166668 9.201822916666666  9.922200520833332 8.98046875  C 9.9580078125 8.759114583333332  9.981879340277779 8.490885416666664  9.993815104166668 8.17578125  C 10.005750868055555 7.860677083333331  10.01291232638889 7.609374999999999  10.015299479166668 7.421874999999999  C 10.017686631944446 7.234374999999999  10.017686631944446 6.959635416666667  10.015299479166668 6.59765625  C 10.01291232638889 6.235677083333333  10.01171875 6.036458333333333  10.01171875 6  C 10.01171875 5.963541666666666  10.01291232638889 5.764322916666666  10.015299479166668 5.40234375  C 10.017686631944446 5.040364583333332  10.017686631944446 4.765625  10.015299479166668 4.578125  C 10.01291232638889 4.390625  10.005750868055555 4.139322916666666  9.993815104166668 3.8242187500000004  C 9.981879340277779 3.509114583333332  9.9580078125 3.2408854166666665  9.922200520833332 3.0195312499999996  C 9.886393229166668 2.7981770833333326  9.842230902777779 2.6119791666666656  9.789713541666668 2.4609375  C 9.694227430555555 2.2005208333333326  9.555772569444446 1.971354166666666  9.374348958333332 1.7734375000000004  C 9.192925347222223 1.5755208333333321  8.982855902777779 1.4244791666666665  8.744140625 1.3203124999999996  C 8.60568576388889 1.2630208333333326  8.435004340277779 1.2148437499999996  8.232096354166668 1.1757812500000004  C 8.029188368055555 1.13671875  7.7833116319444455 1.1106770833333326  7.494466145833333 1.0976562499999996  C 7.205620659722223 1.0846354166666665  6.975260416666667 1.0768229166666656  6.803385416666667 1.0742187499999996  C 6.631510416666667 1.0716145833333321  6.379665798611112 1.0716145833333321  6.0478515625 1.0742187499999996  Z M 10.964192708333332 3.5234374999999996  C 10.98806423611111 3.9817708333333326  11 4.807291666666666  11 6  C 11 7.192708333333334  10.98806423611111 8.018229166666666  10.964192708333332 8.4765625  C 10.916449652777779 9.559895833333334  10.620442708333332 10.3984375  10.076171875 10.9921875  C 9.531901041666668 11.5859375  8.763237847222223 11.908854166666666  7.770182291666667 11.9609375  C 7.350043402777779 11.986979166666666  6.593315972222223 12  5.5 12  C 4.406684027777778 12  3.6499565972222223 11.986979166666666  3.2298177083333335 11.9609375  C 2.236762152777778 11.908854166666666  1.4680989583333335 11.5859375  0.923828125 10.9921875  C 0.3795572916666667 10.3984375  0.08355034722222224 9.559895833333334  0.03580729166666667 8.4765625  C 0.011935763888888886 8.018229166666666  0 7.192708333333334  0 6  C 0 4.807291666666666  0.011935763888888886 3.9817708333333326  0.03580729166666667 3.5234374999999996  C 0.08355034722222224 2.440104166666666  0.3795572916666667 1.6015624999999996  0.923828125 1.0078125  C 1.4680989583333335 0.41406250000000044  2.236762152777778 0.0911458333333326  3.2298177083333335 0.039062500000000444  C 3.6499565972222223 0.013020833333331705  4.406684027777778 0  5.5 0  C 6.593315972222223 0  7.350043402777779 0.013020833333331705  7.770182291666667 0.039062500000000444  C 8.763237847222223 0.0911458333333326  9.531901041666668 0.41406250000000044  10.076171875 1.0078125  C 10.620442708333332 1.6015624999999996  10.916449652777779 2.440104166666666  10.964192708333332 3.5234374999999996  Z " fill-rule="nonzero" fill="#ffffff" stroke="none" transform="matrix(1 0 0 1 303 3215 )" />
  </g>
</svg>