<?xml version="1.0" encoding="utf-8"?>
<svg version="1.1" xmlns:xlink="http://www.w3.org/1999/xlink" width="9px" height="10px" xmlns="http://www.w3.org/2000/svg">
  <g transform="matrix(1 0 0 1 -144 -2262 )">
    <path d="M 5.560546875 6.178385416666668  C 5.853515625 5.852864583333332  6 5.460069444444445  6 5  C 6 4.5399305555555545  5.853515625 4.147135416666666  5.560546875 3.821614583333334  C 5.267578125 3.49609375  4.914062500000001 3.333333333333334  4.5 3.333333333333334  C 4.0859375 3.333333333333334  3.732421875 3.49609375  3.439453125 3.821614583333334  C 3.146484375 4.147135416666666  3 4.5399305555555545  3 5  C 3 5.460069444444445  3.146484375 5.852864583333332  3.439453125 6.178385416666668  C 3.732421875 6.50390625  4.0859375 6.666666666666668  4.5 6.666666666666668  C 4.914062500000001 6.666666666666668  5.267578125 6.50390625  5.560546875 6.178385416666668  Z M 6.134765625 3.18359375  C 6.583984375000001 3.682725694444443  6.80859375 4.288194444444443  6.80859375 5  C 6.80859375 5.711805555555555  6.583984375000001 6.317274305555555  6.134765625 6.81640625  C 5.685546875 7.315538194444445  5.140625 7.565104166666666  4.5 7.565104166666666  C 3.8593750000000004 7.565104166666666  3.3144531250000004 7.315538194444445  2.865234375 6.81640625  C 2.416015625 6.317274305555555  2.19140625 5.711805555555555  2.19140625 5  C 2.19140625 4.288194444444443  2.416015625 3.682725694444443  2.865234375 3.18359375  C 3.3144531250000004 2.6844618055555545  3.8593750000000004 2.434895833333334  4.5 2.434895833333334  C 5.140625 2.434895833333334  5.685546875 2.6844618055555545  6.134765625 3.18359375  Z M 7.283203125 1.9075520833333337  C 7.388671875 2.024739583333334  7.44140625 2.1657986111111107  7.44140625 2.330729166666666  C 7.44140625 2.4956597222222223  7.388671875 2.63671875  7.283203125 2.75390625  C 7.177734375 2.87109375  7.050781250000001 2.9296875  6.90234375 2.9296875  C 6.75390625 2.9296875  6.626953125 2.87109375  6.521484375 2.75390625  C 6.416015625 2.63671875  6.36328125 2.4956597222222223  6.36328125 2.330729166666666  C 6.36328125 2.1657986111111107  6.416015625 2.024739583333334  6.521484375 1.9075520833333337  C 6.626953125 1.7903645833333337  6.75390625 1.7317708333333337  6.90234375 1.7317708333333337  C 7.050781250000001 1.7317708333333337  7.177734375 1.7903645833333337  7.283203125 1.9075520833333337  Z M 4.9482421875 0.8951822916666663  C 4.676757812500001 0.8973524305555547  4.527343750000001 0.8984375  4.5 0.8984375  C 4.47265625 0.8984375  4.3232421875 0.8973524305555547  4.0517578125 0.8951822916666663  C 3.7802734375000004 0.8930121527777768  3.57421875 0.8930121527777768  3.43359375 0.8951822916666663  C 3.29296875 0.8973524305555547  3.1044921875 0.9038628472222221  2.8681640625 0.9147135416666663  C 2.6318359375000004 0.9255642361111105  2.4306640625000004 0.947265625  2.2646484375 0.9798177083333337  C 2.0986328125 1.0123697916666663  1.9589843750000002 1.0525173611111105  1.845703125 1.1002604166666663  C 1.6503906250000002 1.187065972222222  1.478515625 1.3129340277777768  1.330078125 1.4778645833333337  C 1.181640625 1.6427951388888884  1.068359375 1.8337673611111105  0.990234375 2.05078125  C 0.9472656250000001 2.1766493055555545  0.9111328125 2.3318142361111107  0.8818359375 2.516276041666666  C 0.8525390625 2.7007378472222223  0.8330078125000001 2.924262152777777  0.8232421875 3.186848958333334  C 0.8134765625 3.4494357638888884  0.8076171875000001 3.658854166666666  0.8056640625 3.815104166666666  C 0.8037109375000001 3.971354166666666  0.8037109375000001 4.200303819444443  0.8056640625 4.501953125  C 0.8076171875000001 4.8036024305555545  0.80859375 4.9696180555555545  0.80859375 5  C 0.80859375 5.030381944444445  0.8076171875000001 5.196397569444445  0.8056640625 5.498046875  C 0.8037109375000001 5.799696180555555  0.8037109375000001 6.028645833333332  0.8056640625 6.184895833333332  C 0.8076171875000001 6.341145833333332  0.8134765625 6.550564236111109  0.8232421875 6.813151041666668  C 0.8330078125000001 7.075737847222221  0.8525390625 7.299262152777777  0.8818359375 7.483723958333332  C 0.9111328125 7.668185763888888  0.9472656250000001 7.823350694444443  0.990234375 7.94921875  C 1.068359375 8.16623263888889  1.181640625 8.35720486111111  1.330078125 8.522135416666666  C 1.478515625 8.687065972222221  1.6503906250000002 8.812934027777779  1.845703125 8.899739583333334  C 1.9589843750000002 8.94748263888889  2.0986328125 8.987630208333334  2.2646484375 9.020182291666666  C 2.4306640625000004 9.052734375  2.6318359375000004 9.07443576388889  2.8681640625 9.085286458333334  C 3.1044921875 9.096137152777779  3.29296875 9.102647569444445  3.43359375 9.104817708333334  C 3.57421875 9.106987847222221  3.7802734375000004 9.106987847222221  4.0517578125 9.104817708333334  C 4.3232421875 9.102647569444445  4.47265625 9.1015625  4.5 9.1015625  C 4.527343750000001 9.1015625  4.676757812500001 9.102647569444445  4.9482421875 9.104817708333334  C 5.2197265625 9.106987847222221  5.42578125 9.106987847222221  5.56640625 9.104817708333334  C 5.70703125 9.102647569444445  5.8955078125 9.096137152777779  6.1318359375 9.085286458333334  C 6.368164062500001 9.07443576388889  6.5693359375 9.052734375  6.7353515625 9.020182291666666  C 6.901367187500001 8.987630208333334  7.041015625000001 8.94748263888889  7.154296875 8.899739583333334  C 7.349609375000001 8.812934027777779  7.521484375 8.687065972222221  7.669921875 8.522135416666666  C 7.818359375000001 8.35720486111111  7.931640625 8.16623263888889  8.009765625 7.94921875  C 8.052734375 7.823350694444443  8.0888671875 7.668185763888888  8.1181640625 7.483723958333332  C 8.1474609375 7.299262152777777  8.1669921875 7.075737847222221  8.1767578125 6.813151041666668  C 8.1865234375 6.550564236111109  8.1923828125 6.341145833333332  8.1943359375 6.184895833333332  C 8.1962890625 6.028645833333332  8.1962890625 5.799696180555555  8.1943359375 5.498046875  C 8.1923828125 5.196397569444445  8.19140625 5.030381944444445  8.19140625 5  C 8.19140625 4.9696180555555545  8.1923828125 4.8036024305555545  8.1943359375 4.501953125  C 8.1962890625 4.200303819444443  8.1962890625 3.971354166666666  8.1943359375 3.815104166666666  C 8.1923828125 3.658854166666666  8.1865234375 3.4494357638888884  8.1767578125 3.186848958333334  C 8.1669921875 2.924262152777777  8.1474609375 2.7007378472222223  8.1181640625 2.516276041666666  C 8.0888671875 2.3318142361111107  8.052734375 2.1766493055555545  8.009765625 2.05078125  C 7.931640625 1.8337673611111105  7.818359375000001 1.6427951388888884  7.669921875 1.4778645833333337  C 7.521484375 1.3129340277777768  7.349609375000001 1.187065972222222  7.154296875 1.1002604166666663  C 7.041015625000001 1.0525173611111105  6.901367187500001 1.0123697916666663  6.7353515625 0.9798177083333337  C 6.5693359375 0.947265625  6.368164062500001 0.9255642361111105  6.1318359375 0.9147135416666663  C 5.8955078125 0.9038628472222221  5.70703125 0.8973524305555547  5.56640625 0.8951822916666663  C 5.42578125 0.8930121527777768  5.2197265625 0.8930121527777768  4.9482421875 0.8951822916666663  Z M 8.970703125 2.936197916666666  C 8.990234375 3.3181423611111107  9 4.006076388888888  9 5  C 9 5.993923611111112  8.990234375 6.681857638888888  8.970703125 7.063802083333332  C 8.931640625 7.966579861111112  8.689453125 8.665364583333334  8.244140625 9.16015625  C 7.798828125 9.654947916666666  7.169921875 9.92404513888889  6.357421875 9.967447916666666  C 6.013671875000001 9.989149305555555  5.39453125 10  4.5 10  C 3.60546875 10  2.986328125 9.989149305555555  2.642578125 9.967447916666666  C 1.8300781250000002 9.92404513888889  1.2011718750000002 9.654947916666666  0.755859375 9.16015625  C 0.310546875 8.665364583333334  0.068359375 7.966579861111112  0.029296875 7.063802083333332  C 0.009765624999999998 6.681857638888888  0 5.993923611111112  0 5  C 0 4.006076388888888  0.009765624999999998 3.3181423611111107  0.029296875 2.936197916666666  C 0.068359375 2.0334201388888884  0.310546875 1.3346354166666663  0.755859375 0.83984375  C 1.2011718750000002 0.3450520833333337  1.8300781250000002 0.0759548611111105  2.642578125 0.0325520833333337  C 2.986328125 0.010850694444443088  3.60546875 0  4.5 0  C 5.39453125 0  6.013671875000001 0.010850694444443088  6.357421875 0.0325520833333337  C 7.169921875 0.0759548611111105  7.798828125 0.3450520833333337  8.244140625 0.83984375  C 8.689453125 1.3346354166666663  8.931640625 2.0334201388888884  8.970703125 2.936197916666666  Z " fill-rule="nonzero" fill="#ffffff" stroke="none" transform="matrix(1 0 0 1 144 2262 )" />
  </g>
</svg>