<?xml version="1.0" encoding="utf-8"?>
<svg version="1.1" xmlns:xlink="http://www.w3.org/1999/xlink" width="27px" height="17px" xmlns="http://www.w3.org/2000/svg">
  <defs>
    <mask fill="white" id="clip22">
      <path d="M 26.764655439742228 8.108216432865447  C 26.921551813247333 8.221776887106898  27 8.352371409486295  27 8.5  C 27 8.647628590513705  26.921551813247333 8.778223112893102  26.764655439742228 8.891783567134553  L 15.797598931733432 16.829659318636914  C 15.640702558228327 16.943219772878365  15.460271728697421 17  15.256306443140828 17  C 15.18325467701277 17  15.11322184120445 16.99271640062409  15.046207935704386 16.97814920187193  C 14.965791249118183 16.99271640062409  14.881751846148177 17  14.794089726794594 17  C 14.549331384126617 17  14.332814388689485 16.943219772878365  14.144538740483313 16.829659318636914  L 0.9840709308728036 8.891783567134553  C 0.7957952826666315 8.778223112893102  0.7016574585635453 8.647628590513705  0.7016574585635453 8.5  C 0.7016574585635453 8.352371409486295  0.7957952826666315 8.221776887106898  0.9840709308728036 8.108216432865447  L 14.144538740483313 0.17034068136308633  C 14.332814388689485 0.05678022712163511  14.549331384126617 0  14.794089726794594 0  C 14.881751846148177 0  14.965791249118183 0.007283599375909944  15.046207935715984 0.021850798128070892  C 15.11322184120445 0.007283599375909944  15.18325467701277 0  15.256306443140828 0  C 15.460271728697421 0  15.640702558228327 0.05678022712163511  15.797598931733432 0.17034068136308633  L 26.764655439742228 8.108216432865447  Z " fill-rule="evenodd" />
    </mask>
  </defs>
  <g transform="matrix(1 0 0 1 -288 -3009 )">
    <path d="M 26.764655439742228 8.108216432865447  C 26.921551813247333 8.221776887106898  27 8.352371409486295  27 8.5  C 27 8.647628590513705  26.921551813247333 8.778223112893102  26.764655439742228 8.891783567134553  L 15.797598931733432 16.829659318636914  C 15.640702558228327 16.943219772878365  15.460271728697421 17  15.256306443140828 17  C 15.18325467701277 17  15.11322184120445 16.99271640062409  15.046207935704386 16.97814920187193  C 14.965791249118183 16.99271640062409  14.881751846148177 17  14.794089726794594 17  C 14.549331384126617 17  14.332814388689485 16.943219772878365  14.144538740483313 16.829659318636914  L 0.9840709308728036 8.891783567134553  C 0.7957952826666315 8.778223112893102  0.7016574585635453 8.647628590513705  0.7016574585635453 8.5  C 0.7016574585635453 8.352371409486295  0.7957952826666315 8.221776887106898  0.9840709308728036 8.108216432865447  L 14.144538740483313 0.17034068136308633  C 14.332814388689485 0.05678022712163511  14.549331384126617 0  14.794089726794594 0  C 14.881751846148177 0  14.965791249118183 0.007283599375909944  15.046207935715984 0.021850798128070892  C 15.11322184120445 0.007283599375909944  15.18325467701277 0  15.256306443140828 0  C 15.460271728697421 0  15.640702558228327 0.05678022712163511  15.797598931733432 0.17034068136308633  L 26.764655439742228 8.108216432865447  Z " fill-rule="nonzero" fill="#ffffff" stroke="none" fill-opacity="0" transform="matrix(1 0 0 1 288 3009 )" />
    <path d="M 26.764655439742228 8.108216432865447  C 26.921551813247333 8.221776887106898  27 8.352371409486295  27 8.5  C 27 8.647628590513705  26.921551813247333 8.778223112893102  26.764655439742228 8.891783567134553  L 15.797598931733432 16.829659318636914  C 15.640702558228327 16.943219772878365  15.460271728697421 17  15.256306443140828 17  C 15.18325467701277 17  15.11322184120445 16.99271640062409  15.046207935704386 16.97814920187193  C 14.965791249118183 16.99271640062409  14.881751846148177 17  14.794089726794594 17  C 14.549331384126617 17  14.332814388689485 16.943219772878365  14.144538740483313 16.829659318636914  L 0.9840709308728036 8.891783567134553  C 0.7957952826666315 8.778223112893102  0.7016574585635453 8.647628590513705  0.7016574585635453 8.5  C 0.7016574585635453 8.352371409486295  0.7957952826666315 8.221776887106898  0.9840709308728036 8.108216432865447  L 14.144538740483313 0.17034068136308633  C 14.332814388689485 0.05678022712163511  14.549331384126617 0  14.794089726794594 0  C 14.881751846148177 0  14.965791249118183 0.007283599375909944  15.046207935715984 0.021850798128070892  C 15.11322184120445 0.007283599375909944  15.18325467701277 0  15.256306443140828 0  C 15.460271728697421 0  15.640702558228327 0.05678022712163511  15.797598931733432 0.17034068136308633  L 26.764655439742228 8.108216432865447  Z " stroke-width="4" stroke="#ffffff" fill="none" transform="matrix(1 0 0 1 288 3009 )" mask="url(#clip22)" />
  </g>
</svg>