<?xml version="1.0" encoding="utf-8"?>
<svg version="1.1" xmlns:xlink="http://www.w3.org/1999/xlink" width="27px" height="17px" xmlns="http://www.w3.org/2000/svg">
  <defs>
    <mask fill="white" id="clip23">
      <path d="M 0.23534456025777217 8.891783567134553  C 0.07844818675266652 8.778223112893102  0 8.647628590513705  0 8.5  C 0 8.352371409486295  0.07844818675266652 8.221776887106898  0.23534456025777217 8.108216432865447  L 11.202401068266568 0.17034068136308633  C 11.359297441771673 0.05678022712163511  11.539728271302579 0  11.74369355685917 0  C 11.81674532298723 0  11.88677815879555 0.007283599375909944  11.953792064295612 0.021850798128070892  C 12.034208750881817 0.007283599375909944  12.118248153851823 0  12.205910273205404 0  C 12.450668615873383 0  12.667185611310515 0.05678022712163511  12.855461259516687 0.17034068136308633  L 26.015929069127196 8.108216432865447  C 26.20420471733337 8.221776887106898  26.298342541436455 8.352371409486295  26.298342541436455 8.5  C 26.298342541436455 8.647628590513705  26.20420471733337 8.778223112893102  26.015929069127196 8.891783567134553  L 12.855461259516687 16.829659318636914  C 12.667185611310515 16.943219772878365  12.450668615873383 17  12.205910273205404 17  C 12.118248153851823 17  12.034208750881817 16.99271640062409  11.953792064284016 16.97814920187193  C 11.88677815879555 16.99271640062409  11.81674532298723 17  11.74369355685917 17  C 11.539728271302579 17  11.359297441771673 16.943219772878365  11.202401068266568 16.829659318636914  L 0.23534456025777217 8.891783567134553  Z " fill-rule="evenodd" />
    </mask>
  </defs>
  <g transform="matrix(1 0 0 1 -418 -3009 )">
    <path d="M 0.23534456025777217 8.891783567134553  C 0.07844818675266652 8.778223112893102  0 8.647628590513705  0 8.5  C 0 8.352371409486295  0.07844818675266652 8.221776887106898  0.23534456025777217 8.108216432865447  L 11.202401068266568 0.17034068136308633  C 11.359297441771673 0.05678022712163511  11.539728271302579 0  11.74369355685917 0  C 11.81674532298723 0  11.88677815879555 0.007283599375909944  11.953792064295612 0.021850798128070892  C 12.034208750881817 0.007283599375909944  12.118248153851823 0  12.205910273205404 0  C 12.450668615873383 0  12.667185611310515 0.05678022712163511  12.855461259516687 0.17034068136308633  L 26.015929069127196 8.108216432865447  C 26.20420471733337 8.221776887106898  26.298342541436455 8.352371409486295  26.298342541436455 8.5  C 26.298342541436455 8.647628590513705  26.20420471733337 8.778223112893102  26.015929069127196 8.891783567134553  L 12.855461259516687 16.829659318636914  C 12.667185611310515 16.943219772878365  12.450668615873383 17  12.205910273205404 17  C 12.118248153851823 17  12.034208750881817 16.99271640062409  11.953792064284016 16.97814920187193  C 11.88677815879555 16.99271640062409  11.81674532298723 17  11.74369355685917 17  C 11.539728271302579 17  11.359297441771673 16.943219772878365  11.202401068266568 16.829659318636914  L 0.23534456025777217 8.891783567134553  Z " fill-rule="nonzero" fill="#ffffff" stroke="none" fill-opacity="0" transform="matrix(1 0 0 1 418 3009 )" />
    <path d="M 0.23534456025777217 8.891783567134553  C 0.07844818675266652 8.778223112893102  0 8.647628590513705  0 8.5  C 0 8.352371409486295  0.07844818675266652 8.221776887106898  0.23534456025777217 8.108216432865447  L 11.202401068266568 0.17034068136308633  C 11.359297441771673 0.05678022712163511  11.539728271302579 0  11.74369355685917 0  C 11.81674532298723 0  11.88677815879555 0.007283599375909944  11.953792064295612 0.021850798128070892  C 12.034208750881817 0.007283599375909944  12.118248153851823 0  12.205910273205404 0  C 12.450668615873383 0  12.667185611310515 0.05678022712163511  12.855461259516687 0.17034068136308633  L 26.015929069127196 8.108216432865447  C 26.20420471733337 8.221776887106898  26.298342541436455 8.352371409486295  26.298342541436455 8.5  C 26.298342541436455 8.647628590513705  26.20420471733337 8.778223112893102  26.015929069127196 8.891783567134553  L 12.855461259516687 16.829659318636914  C 12.667185611310515 16.943219772878365  12.450668615873383 17  12.205910273205404 17  C 12.118248153851823 17  12.034208750881817 16.99271640062409  11.953792064284016 16.97814920187193  C 11.88677815879555 16.99271640062409  11.81674532298723 17  11.74369355685917 17  C 11.539728271302579 17  11.359297441771673 16.943219772878365  11.202401068266568 16.829659318636914  L 0.23534456025777217 8.891783567134553  Z " stroke-width="4" stroke="#ffffff" fill="none" transform="matrix(1 0 0 1 418 3009 )" mask="url(#clip23)" />
  </g>
</svg>