<?xml version="1.0" encoding="utf-8"?>
<svg version="1.1" xmlns:xlink="http://www.w3.org/1999/xlink" width="15px" height="15px" xmlns="http://www.w3.org/2000/svg">
  <g transform="matrix(1 0 0 1 -1083 -967 )">
    <path d="M 11.474609375 5.771484375  C 11.884765625 5.478515625  12.2265625 5.123697916666666  12.5 4.707031250000001  C 12.135416666666666 4.869791666666665  11.741536458333336 4.98046875  11.318359375 5.0390625  C 11.761067708333336 4.778645833333332  12.063802083333336 4.397786458333332  12.2265625 3.896484375  C 11.803385416666668 4.143880208333332  11.3671875 4.309895833333332  10.91796875 4.39453125  C 10.520833333333334 3.9648437499999996  10.022786458333334 3.75  9.423828125 3.75  C 8.857421875 3.75  8.3740234375 3.9501953124999996  7.973632812500001 4.3505859375  C 7.5732421875 4.750976562500001  7.373046875 5.234375000000001  7.373046875 5.80078125  C 7.373046875 5.989583333333332  7.389322916666668 6.145833333333333  7.421875 6.26953125  C 6.58203125 6.223958333333332  5.794270833333334 6.012369791666667  5.05859375 5.634765624999999  C 4.322916666666667 5.257161458333332  3.6979166666666674 4.752604166666665  3.18359375 4.121093750000001  C 2.994791666666667 4.446614583333333  2.900390625 4.791666666666664  2.900390625 5.15625  C 2.900390625 5.898437499999999  3.196614583333334 6.468098958333333  3.7890625000000004 6.865234374999999  C 3.483072916666667 6.858723958333332  3.1575520833333335 6.774088541666667  2.8125 6.611328125000001  L 2.8125 6.630859374999999  C 2.8125 7.119140625  2.9752604166666665 7.553710937500001  3.30078125 7.934570312500001  C 3.6263020833333335 8.315429687500002  4.026692708333334 8.551432291666668  4.501953125 8.642578125  C 4.313151041666668 8.694661458333332  4.147135416666667 8.720703124999998  4.00390625 8.720703124999998  C 3.919270833333334 8.720703124999998  3.792317708333334 8.707682291666664  3.623046875 8.681640625000002  C 3.7597656250000004 9.091796875000002  4.002278645833333 9.430338541666664  4.3505859375 9.697265625  C 4.698893229166667 9.964192708333332  5.094401041666668 10.100911458333332  5.537109375 10.107421875  C 4.781901041666667 10.693359375  3.932291666666667 10.986328125  2.98828125 10.986328125  C 2.819010416666667 10.986328125  2.65625 10.976562499999998  2.5 10.95703125  C 3.463541666666667 11.569010416666668  4.51171875 11.875  5.64453125 11.875  C 6.373697916666667 11.875  7.057291666666668 11.759440104166668  7.695312500000001 11.5283203125  C 8.333333333333334 11.297200520833332  8.880208333333334 10.987955729166666  9.3359375 10.600585937500002  C 9.791666666666666 10.213216145833332  10.183919270833334 9.767252604166664  10.5126953125 9.262695312499998  C 10.841471354166668 8.758138020833334  11.085611979166668 8.230794270833334  11.2451171875 7.680664062499999  C 11.404622395833336 7.130533854166666  11.484375 6.582031250000001  11.484375 6.03515625  C 11.484375 5.91796875  11.481119791666668 5.830078125  11.474609375 5.771484375  Z M 14.1748046875 0.8251953125000006  C 14.724934895833332 1.3753255208333321  15 2.0377604166666647  15 2.8125  L 15 12.1875  C 15 12.962239583333332  14.724934895833332 13.624674479166668  14.1748046875 14.1748046875  C 13.624674479166668 14.724934895833332  12.962239583333336 15  12.1875 15  L 2.8125 15  C 2.0377604166666665 15  1.3753255208333335 14.724934895833332  0.8251953125 14.1748046875  C 0.27506510416666663 13.624674479166668  0 12.962239583333332  0 12.1875  L 0 2.8125  C 0 2.0377604166666647  0.27506510416666663 1.3753255208333321  0.8251953125 0.8251953125000006  C 1.3753255208333335 0.27506510416666574  2.0377604166666665 0  2.8125 0  L 12.1875 0  C 12.962239583333336 0  13.624674479166668 0.27506510416666574  14.1748046875 0.8251953125000006  Z " fill-rule="nonzero" fill="#ffffff" stroke="none" transform="matrix(1 0 0 1 1083 967 )" />
  </g>
</svg>