<?xml version="1.0" encoding="utf-8"?>
<svg version="1.1" xmlns:xlink="http://www.w3.org/1999/xlink" width="15px" height="15px" xmlns="http://www.w3.org/2000/svg">
  <g transform="matrix(1 0 0 1 -1135 -967 )">
    <path d="M 5.953177257525083 4.273809523809524  L 5.953177257525083 10.261904761904763  L 10 7.2857142857142865  L 5.953177257525083 4.273809523809524  Z M 2.25752508361204 0.21428571428571352  C 3.6566332218506137 0.07142857142857117  5.404124860646599 0  7.5 0  C 8.436454849498327 0  9.340858416945373 0.017857142857142794  10.213210702341136 0.05357142857142838  C 11.085562987736903 0.08928571428571397  11.725195094760313 0.12698412698412598  12.13210702341137 0.16666666666666607  L 12.742474916387959 0.21428571428571352  C 12.74804905239688 0.21428571428571352  12.795429208472688 0.22023809523809446  12.884615384615383 0.23214285714285632  C 12.973801560758083 0.24404761904761985  13.037904124860649 0.2559523809523817  13.076923076923077 0.26785714285714357  C 13.115942028985508 0.27976190476190543  13.181438127090301 0.2976190476190482  13.273411371237458 0.32142857142857195  C 13.365384615384617 0.3452380952380957  13.444816053511705 0.3769841269841251  13.511705685618729 0.41666666666666685  C 13.578595317725753 0.4563492063492053  13.656633221850614 0.5079365079365056  13.74581939799331 0.5714285714285711  C 13.83500557413601 0.6349206349206332  13.92140468227425 0.712301587301587  14.005016722408026 0.803571428571429  C 14.088628762541807 0.8948412698412678  14.169453734671128 0.9999999999999998  14.247491638795987 1.1190476190476184  C 14.280936454849497 1.1666666666666659  14.324136008918618 1.2400793650793633  14.377090301003346 1.3392857142857144  C 14.430044593088073 1.4384920634920624  14.510869565217392 1.6706349206349203  14.619565217391305 2.035714285714285  C 14.728260869565219 2.4007936507936485  14.802118171683391 2.8015873015873005  14.841137123745819 3.238095238095238  C 14.88573021181717 3.7460317460317456  14.920568561872912 4.287698412698412  14.945652173913043 4.863095238095237  C 14.97073578595318 5.438492063492063  14.986064659977705 5.8888888888888875  14.99163879598662 6.2142857142857135  L 14.99163879598662 6.69047619047619  L 14.99163879598662 8.30952380952381  C 14.997212931995541 9.460317460317459  14.947045707915274 10.61111111111111  14.841137123745819 11.761904761904761  C 14.802118171683391 12.1984126984127  14.732441471571908 12.593253968253967  14.632107023411372 12.946428571428573  C 14.531772575250839 13.299603174603176  14.442586399108139 13.543650793650794  14.364548494983277 13.678571428571429  L 14.247491638795987 13.880952380952381  C 14.169453734671128 14  14.088628762541807 14.10515873015873  14.005016722408026 14.196428571428571  C 13.92140468227425 14.287698412698413  13.83500557413601 14.363095238095239  13.74581939799331 14.422619047619047  C 13.656633221850614 14.482142857142858  13.578595317725753 14.531746031746033  13.511705685618729 14.571428571428571  C 13.444816053511705 14.611111111111109  13.365384615384617 14.642857142857142  13.273411371237458 14.666666666666666  C 13.181438127090301 14.69047619047619  13.114548494983277 14.708333333333332  13.072742474916389 14.720238095238095  C 13.030936454849499 14.732142857142856  12.966833890746935 14.744047619047619  12.880434782608695 14.75595238095238  C 12.794035674470457 14.767857142857144  12.74804905239688 14.773809523809526  12.742474916387959 14.773809523809526  C 11.343366778149386 14.924603174603176  9.5958751393534 15  7.5 15  C 6.346153846153846 14.984126984126986  5.344202898550725 14.958333333333334  4.4941471571906355 14.922619047619047  C 3.6440914158305464 14.886904761904763  3.0852842809364547 14.857142857142858  2.817725752508361 14.833333333333334  L 2.408026755852843 14.785714285714286  L 2.1070234113712374 14.738095238095237  C 1.9063545150501673 14.6984126984127  1.754459308807135 14.658730158730156  1.6513377926421406 14.619047619047619  C 1.548216276477146 14.57936507936508  1.4060758082497213 14.496031746031747  1.2249163879598661 14.36904761904762  C 1.0437569676700111 14.24206349206349  0.8862876254180602 14.07936507936508  0.7525083612040134 13.880952380952381  C 0.7190635451505016 13.833333333333334  0.6758639910813824 13.759920634920634  0.6229096989966556 13.660714285714285  C 0.5699554069119287 13.561507936507939  0.4891304347826087 13.329365079365079  0.3804347826086957 12.964285714285715  C 0.2717391304347826 12.599206349206348  0.19788182831661094 12.1984126984127  0.1588628762541806 11.761904761904761  C 0.11426978818283168 11.253968253968253  0.07943143812709032 10.712301587301587  0.05434782608695652 10.136904761904763  C 0.029264214046822744 9.561507936507933  0.013935340022296544 9.11111111111111  0.008361204013377926 8.785714285714285  L 0.008361204013377926 8.30952380952381  L 0.008361204013377926 6.69047619047619  C 0.002787068004459308 5.539682539682539  0.052954292084726864 4.3888888888888875  0.1588628762541806 3.238095238095238  C 0.19788182831661094 2.8015873015873005  0.26755852842809363 2.4067460317460294  0.36789297658862874 2.053571428571428  C 0.4682274247491639 1.700396825396825  0.5574136008918618 1.4563492063492052  0.6354515050167224 1.3214285714285716  L 0.7525083612040134 1.1190476190476184  C 0.8305462653288741 0.9999999999999998  0.9113712374581939 0.8948412698412678  0.9949832775919732 0.803571428571429  C 1.0785953177257523 0.712301587301587  1.164994425863991 0.6349206349206332  1.254180602006689 0.5714285714285711  C 1.343366778149387 0.5079365079365056  1.4214046822742474 0.4563492063492053  1.4882943143812708 0.41666666666666685  C 1.5551839464882944 0.3769841269841251  1.6346153846153846 0.3452380952380957  1.7265886287625418 0.32142857142857195  C 1.8185618729096993 0.2976190476190482  1.8840579710144931 0.27976190476190543  1.923076923076923 0.26785714285714357  C 1.9620958751393534 0.2559523809523817  2.026198439241918 0.24404761904761985  2.1153846153846154 0.23214285714285632  C 2.2045707915273134 0.22023809523809446  2.251950947603122 0.21428571428571352  2.25752508361204 0.21428571428571352  Z " fill-rule="nonzero" fill="#ffffff" stroke="none" transform="matrix(1 0 0 1 1135 967 )" />
  </g>
</svg>