<?xml version="1.0" encoding="utf-8"?>
<svg version="1.1" xmlns:xlink="http://www.w3.org/1999/xlink" width="15px" height="15px" xmlns="http://www.w3.org/2000/svg">
  <g transform="matrix(1 0 0 1 -1109 -967 )">
    <path d="M 9.267578125 9.267578125000002  C 9.755859375 8.779296874999998  10 8.190104166666666  10 7.5  C 10 6.809895833333332  9.755859375 6.220703124999999  9.267578125 5.732421875000001  C 8.779296875 5.244140625  8.190104166666668 5.000000000000001  7.5 5.000000000000001  C 6.809895833333334 5.000000000000001  6.220703125 5.244140625  5.732421875 5.732421875000001  C 5.244140625 6.220703124999999  5 6.809895833333332  5 7.5  C 5 8.190104166666666  5.244140625 8.779296874999998  5.732421875 9.267578125000002  C 6.220703125 9.755859375  6.809895833333334 10.000000000000002  7.5 10.000000000000002  C 8.190104166666668 10.000000000000002  8.779296875 9.755859375  9.267578125 9.267578125000002  Z M 10.224609375 4.775390625  C 10.973307291666668 5.524088541666664  11.34765625 6.432291666666664  11.34765625 7.5  C 11.34765625 8.567708333333334  10.973307291666668 9.475911458333334  10.224609375 10.224609375  C 9.475911458333334 10.973307291666666  8.567708333333334 11.34765625  7.5 11.34765625  C 6.432291666666667 11.34765625  5.524088541666667 10.973307291666666  4.775390625 10.224609375  C 4.026692708333334 9.475911458333334  3.65234375 8.567708333333334  3.65234375 7.5  C 3.65234375 6.432291666666664  4.026692708333334 5.524088541666664  4.775390625 4.775390625  C 5.524088541666667 4.026692708333332  6.432291666666667 3.6523437500000004  7.5 3.6523437500000004  C 8.567708333333334 3.6523437500000004  9.475911458333334 4.026692708333332  10.224609375 4.775390625  Z M 12.138671875 2.8613281250000004  C 12.314453125 3.0371093750000004  12.40234375 3.2486979166666656  12.40234375 3.4960937499999996  C 12.40234375 3.743489583333333  12.314453125 3.955078125  12.138671875 4.130859375  C 11.962890625 4.306640625  11.751302083333334 4.39453125  11.50390625 4.39453125  C 11.256510416666666 4.39453125  11.044921875 4.306640625  10.869140625 4.130859375  C 10.693359375 3.955078125  10.60546875 3.743489583333333  10.60546875 3.4960937499999996  C 10.60546875 3.2486979166666656  10.693359375 3.0371093750000004  10.869140625 2.8613281250000004  C 11.044921875 2.6855468750000004  11.256510416666666 2.5976562500000004  11.50390625 2.5976562500000004  C 11.751302083333334 2.5976562500000004  11.962890625 2.6855468750000004  12.138671875 2.8613281250000004  Z M 8.2470703125 1.3427734374999996  C 7.794596354166668 1.3460286458333321  7.545572916666668 1.34765625  7.5 1.34765625  C 7.454427083333334 1.34765625  7.205403645833334 1.3460286458333321  6.7529296875 1.3427734374999996  C 6.300455729166667 1.3395182291666652  5.95703125 1.3395182291666652  5.72265625 1.3427734374999996  C 5.48828125 1.3460286458333321  5.174153645833333 1.355794270833333  4.7802734375 1.3720703124999996  C 4.386393229166668 1.3883463541666656  4.051106770833334 1.4208984375  3.7744140625000004 1.4697265625000004  C 3.497721354166667 1.5185546874999996  3.264973958333334 1.5787760416666656  3.076171875 1.6503906249999996  C 2.750651041666667 1.780598958333333  2.4641927083333335 1.9694010416666652  2.216796875 2.2167968750000004  C 1.969401041666667 2.4641927083333326  1.7805989583333333 2.7506510416666656  1.650390625 3.076171875  C 1.5787760416666667 3.264973958333332  1.5185546875 3.4977213541666656  1.4697265625 3.7744140624999996  C 1.4208984375 4.051106770833333  1.3883463541666667 4.386393229166665  1.3720703125 4.780273437500001  C 1.3557942708333333 5.174153645833332  1.3460286458333335 5.488281249999999  1.3427734375 5.722656249999999  C 1.339518229166667 5.957031249999999  1.339518229166667 6.300455729166664  1.3427734375 6.7529296875  C 1.3460286458333335 7.205403645833332  1.34765625 7.454427083333332  1.34765625 7.5  C 1.34765625 7.545572916666666  1.3460286458333335 7.794596354166666  1.3427734375 8.2470703125  C 1.339518229166667 8.699544270833334  1.339518229166667 9.042968749999998  1.3427734375 9.277343749999998  C 1.3460286458333335 9.511718749999998  1.3557942708333333 9.825846354166664  1.3720703125 10.219726562500002  C 1.3883463541666667 10.613606770833332  1.4208984375 10.948893229166664  1.4697265625 11.225585937499998  C 1.5185546875 11.502278645833332  1.5787760416666667 11.735026041666664  1.650390625 11.923828125  C 1.7805989583333333 12.249348958333332  1.969401041666667 12.535807291666668  2.216796875 12.783203125  C 2.4641927083333335 13.030598958333334  2.750651041666667 13.219401041666666  3.076171875 13.349609375  C 3.264973958333334 13.421223958333332  3.497721354166667 13.4814453125  3.7744140625000004 13.5302734375  C 4.051106770833334 13.5791015625  4.386393229166668 13.611653645833332  4.7802734375 13.6279296875  C 5.174153645833333 13.644205729166666  5.48828125 13.653971354166668  5.72265625 13.6572265625  C 5.95703125 13.660481770833334  6.300455729166667 13.660481770833334  6.7529296875 13.6572265625  C 7.205403645833334 13.653971354166668  7.454427083333334 13.65234375  7.5 13.65234375  C 7.545572916666668 13.65234375  7.794596354166668 13.653971354166668  8.2470703125 13.6572265625  C 8.699544270833334 13.660481770833334  9.04296875 13.660481770833334  9.27734375 13.6572265625  C 9.51171875 13.653971354166668  9.825846354166668 13.644205729166666  10.2197265625 13.6279296875  C 10.613606770833336 13.611653645833332  10.948893229166666 13.5791015625  11.2255859375 13.5302734375  C 11.502278645833334 13.4814453125  11.735026041666668 13.421223958333332  11.923828125 13.349609375  C 12.249348958333334 13.219401041666666  12.535807291666668 13.030598958333334  12.783203125 12.783203125  C 13.030598958333336 12.535807291666668  13.219401041666666 12.249348958333332  13.349609375 11.923828125  C 13.421223958333334 11.735026041666664  13.4814453125 11.502278645833332  13.5302734375 11.225585937499998  C 13.5791015625 10.948893229166664  13.611653645833334 10.613606770833332  13.6279296875 10.219726562500002  C 13.644205729166666 9.825846354166664  13.653971354166668 9.511718749999998  13.6572265625 9.277343749999998  C 13.660481770833336 9.042968749999998  13.660481770833336 8.699544270833334  13.6572265625 8.2470703125  C 13.653971354166668 7.794596354166666  13.65234375 7.545572916666666  13.65234375 7.5  C 13.65234375 7.454427083333332  13.653971354166668 7.205403645833332  13.6572265625 6.7529296875  C 13.660481770833336 6.300455729166664  13.660481770833336 5.957031249999999  13.6572265625 5.722656249999999  C 13.653971354166668 5.488281249999999  13.644205729166666 5.174153645833332  13.6279296875 4.780273437500001  C 13.611653645833334 4.386393229166665  13.5791015625 4.051106770833333  13.5302734375 3.7744140624999996  C 13.4814453125 3.4977213541666656  13.421223958333334 3.264973958333332  13.349609375 3.076171875  C 13.219401041666666 2.7506510416666656  13.030598958333336 2.4641927083333326  12.783203125 2.2167968750000004  C 12.535807291666668 1.9694010416666652  12.249348958333334 1.780598958333333  11.923828125 1.6503906249999996  C 11.735026041666668 1.5787760416666656  11.502278645833334 1.5185546874999996  11.2255859375 1.4697265625000004  C 10.948893229166666 1.4208984375  10.613606770833336 1.3883463541666656  10.2197265625 1.3720703124999996  C 9.825846354166668 1.355794270833333  9.51171875 1.3460286458333321  9.27734375 1.3427734374999996  C 9.04296875 1.3395182291666652  8.699544270833334 1.3395182291666652  8.2470703125 1.3427734374999996  Z M 14.951171875 4.404296874999999  C 14.983723958333332 4.977213541666666  15 6.009114583333332  15 7.5  C 15 8.990885416666668  14.983723958333332 10.022786458333332  14.951171875 10.595703124999998  C 14.886067708333334 11.949869791666668  14.482421875 12.998046875  13.740234375 13.740234375  C 12.998046875 14.482421875  11.949869791666668 14.886067708333332  10.595703125 14.951171875  C 10.022786458333334 14.983723958333332  8.990885416666668 15  7.5 15  C 6.009114583333333 15  4.977213541666667 14.983723958333332  4.404296875 14.951171875  C 3.050130208333334 14.886067708333332  2.0019531250000004 14.482421875  1.259765625 13.740234375  C 0.517578125 12.998046875  0.11393229166666669 11.949869791666668  0.048828125 10.595703124999998  C 0.016276041666666664 10.022786458333332  0 8.990885416666668  0 7.5  C 0 6.009114583333332  0.016276041666666664 4.977213541666666  0.048828125 4.404296874999999  C 0.11393229166666669 3.0501302083333326  0.517578125 2.0019531249999996  1.259765625 1.259765625  C 2.0019531250000004 0.5175781250000006  3.050130208333334 0.11393229166666574  4.404296875 0.048828125000000555  C 4.977213541666667 0.01627604166666463  6.009114583333333 0  7.5 0  C 8.990885416666668 0  10.022786458333334 0.01627604166666463  10.595703125 0.048828125000000555  C 11.949869791666668 0.11393229166666574  12.998046875 0.5175781250000006  13.740234375 1.259765625  C 14.482421875 2.0019531249999996  14.886067708333334 3.0501302083333326  14.951171875 4.404296874999999  Z " fill-rule="nonzero" fill="#ffffff" stroke="none" transform="matrix(1 0 0 1 1109 967 )" />
  </g>
</svg>