<?xml version="1.0" encoding="utf-8"?>
<svg version="1.1" xmlns:xlink="http://www.w3.org/1999/xlink" width="22px" height="20px" xmlns="http://www.w3.org/2000/svg">
  <g transform="matrix(1 0 0 1 -984 -2920 )">
    <path d="M 995 2920  C 1001.16 2920  1006 2924.4  1006 2930  C 1006 2935.6  1001.16 2940  995 2940  C 988.84 2940  984 2935.6  984 2930  C 984 2924.4  988.84 2920  995 2920  Z " fill-rule="nonzero" fill="#ffffff" stroke="none" fill-opacity="0.20392156862745098" />
    <path d="M 995 2920.5  C 1000.88 2920.5  1005.5 2924.68  1005.5 2930  C 1005.5 2935.32  1000.88 2939.5  995 2939.5  C 989.12 2939.5  984.5 2935.32  984.5 2930  C 984.5 2924.68  989.12 2920.5  995 2920.5  Z " stroke-width="1" stroke="#ffffff" fill="none" />
  </g>
</svg>