<?xml version="1.0" encoding="utf-8"?>
<svg version="1.1" xmlns:xlink="http://www.w3.org/1999/xlink" width="19px" height="17px" xmlns="http://www.w3.org/2000/svg">
  <g transform="matrix(1 0 0 1 -549 -2010 )">
    <path d="M 558.5 2010  C 563.82 2010  568 2013.74  568 2018.5  C 568 2023.26  563.82 2027  558.5 2027  C 553.18 2027  549 2023.26  549 2018.5  C 549 2013.74  553.18 2010  558.5 2010  Z " fill-rule="nonzero" fill="#ffffff" stroke="none" fill-opacity="0.20392156862745098" />
    <path d="M 558.5 2010.5  C 563.54 2010.5  567.5 2014.02  567.5 2018.5  C 567.5 2022.98  563.54 2026.5  558.5 2026.5  C 553.46 2026.5  549.5 2022.98  549.5 2018.5  C 549.5 2014.02  553.46 2010.5  558.5 2010.5  Z " stroke-width="1" stroke="#ffffff" fill="none" />
  </g>
</svg>