<?xml version="1.0" encoding="utf-8"?>
<svg version="1.1" xmlns:xlink="http://www.w3.org/1999/xlink" width="9px" height="9px" xmlns="http://www.w3.org/2000/svg">
  <defs>
    <mask fill="white" id="clip31">
      <path d="M 8.47724184782609 1.6983311938382508  L 8.47724184782609 7.307445442875477  C 8.704738451086959 7.446084724005134  8.81848675271739 7.619383825417198  8.81848675271739 7.827342747111677  C 8.81848675271739 8.035301668806158  8.704738451086959 8.208600770218233  8.47724184782609 8.34724005134788  L 7.8037321671195645 8.786264441591783  C 7.582222316576088 8.928754813863927  7.3128184442934785 9  6.995520550271738 9  C 6.684209408967392 9  6.411812160326087 8.928754813863927  6.178328804347826 8.786264441591783  L 0.33226477581521774 5.019897304236202  C 0.11075492527173858 4.877406931964056  0 4.704107830551992  0 4.5  C 0 4.299743260590496  0.11075492527173858 4.124518613607184  0.33226477581521774 3.9743260590500613  L 6.178328804347826 0.21951219512195622  C 6.405825407608696 0.07317073170731192  6.678222656250002 0  6.995520550271738 0  C 7.306831691576086 0  7.576235563858697 0.07317073170731192  7.8037321671195645 0.21951219512195622  L 8.47724184782609 0.6469833119383827  C 8.704738451086959 0.7933247753530167  8.81848675271739 0.9685494223363298  8.81848675271739 1.172657252888322  C 8.81848675271739 1.3767650834403036  8.704738451086959 1.5519897304236168  8.47724184782609 1.6983311938382508  Z " fill-rule="evenodd" />
    </mask>
  </defs>
  <g transform="matrix(1 0 0 1 -489 -2014 )">
    <path d="M 8.47724184782609 1.6983311938382508  L 8.47724184782609 7.307445442875477  C 8.704738451086959 7.446084724005134  8.81848675271739 7.619383825417198  8.81848675271739 7.827342747111677  C 8.81848675271739 8.035301668806158  8.704738451086959 8.208600770218233  8.47724184782609 8.34724005134788  L 7.8037321671195645 8.786264441591783  C 7.582222316576088 8.928754813863927  7.3128184442934785 9  6.995520550271738 9  C 6.684209408967392 9  6.411812160326087 8.928754813863927  6.178328804347826 8.786264441591783  L 0.33226477581521774 5.019897304236202  C 0.11075492527173858 4.877406931964056  0 4.704107830551992  0 4.5  C 0 4.299743260590496  0.11075492527173858 4.124518613607184  0.33226477581521774 3.9743260590500613  L 6.178328804347826 0.21951219512195622  C 6.405825407608696 0.07317073170731192  6.678222656250002 0  6.995520550271738 0  C 7.306831691576086 0  7.576235563858697 0.07317073170731192  7.8037321671195645 0.21951219512195622  L 8.47724184782609 0.6469833119383827  C 8.704738451086959 0.7933247753530167  8.81848675271739 0.9685494223363298  8.81848675271739 1.172657252888322  C 8.81848675271739 1.3767650834403036  8.704738451086959 1.5519897304236168  8.47724184782609 1.6983311938382508  Z " fill-rule="nonzero" fill="#000000" stroke="none" fill-opacity="0" transform="matrix(1 0 0 1 489 2014 )" />
    <path d="M 8.47724184782609 1.6983311938382508  L 8.47724184782609 7.307445442875477  C 8.704738451086959 7.446084724005134  8.81848675271739 7.619383825417198  8.81848675271739 7.827342747111677  C 8.81848675271739 8.035301668806158  8.704738451086959 8.208600770218233  8.47724184782609 8.34724005134788  L 7.8037321671195645 8.786264441591783  C 7.582222316576088 8.928754813863927  7.3128184442934785 9  6.995520550271738 9  C 6.684209408967392 9  6.411812160326087 8.928754813863927  6.178328804347826 8.786264441591783  L 0.33226477581521774 5.019897304236202  C 0.11075492527173858 4.877406931964056  0 4.704107830551992  0 4.5  C 0 4.299743260590496  0.11075492527173858 4.124518613607184  0.33226477581521774 3.9743260590500613  L 6.178328804347826 0.21951219512195622  C 6.405825407608696 0.07317073170731192  6.678222656250002 0  6.995520550271738 0  C 7.306831691576086 0  7.576235563858697 0.07317073170731192  7.8037321671195645 0.21951219512195622  L 8.47724184782609 0.6469833119383827  C 8.704738451086959 0.7933247753530167  8.81848675271739 0.9685494223363298  8.81848675271739 1.172657252888322  C 8.81848675271739 1.3767650834403036  8.704738451086959 1.5519897304236168  8.47724184782609 1.6983311938382508  Z " stroke-width="2" stroke="#ffffff" fill="none" transform="matrix(1 0 0 1 489 2014 )" mask="url(#clip31)" />
  </g>
</svg>