<?xml version="1.0" encoding="utf-8"?>
<svg version="1.1" xmlns:xlink="http://www.w3.org/1999/xlink" width="11px" height="11px" xmlns="http://www.w3.org/2000/svg">
  <defs>
    <mask fill="white" id="clip24">
      <path d="M 10.361073369565219 2.0757381258023067  L 10.361073369565219 8.931322207958917  C 10.639124773550726 9.100770218228497  10.778150475543478 9.312580231065464  10.778150475543478 9.566752246469829  C 10.778150475543478 9.820924261874193  10.639124773550726 10.032734274711173  10.361073369565219 10.202182284980742  L 9.537894870923912 10.7387676508344  C 9.26716060914855 10.912922550278134  8.93788920969203 11  8.550080672554346 11  C 8.169589277626812 11  7.836659307065217 10.912922550278134  7.551290760869566 10.7387676508344  L 0.4061013926630439 6.135430038510913  C 0.1353671308876805 5.96127513906718  0 5.749465126230213  0 5.5  C 0 5.255241762943941  0.1353671308876805 5.041078305519891  0.4061013926630439 4.857509627727852  L 7.551290760869566 0.2682926829268354  C 7.829342164855073 0.08943089430893678  8.162272135416668 0  8.550080672554346 0  C 8.930572067481883 0  9.259843466938408 0.08943089430893678  9.537894870923912 0.2682926829268354  L 10.361073369565219 0.7907573812580233  C 10.639124773550726 0.9696191698759093  10.778150475543478 1.1837826272999588  10.778150475543478 1.433247753530171  C 10.778150475543478 1.682712879760371  10.639124773550726 1.8968763371844206  10.361073369565219 2.0757381258023067  Z " fill-rule="evenodd" />
    </mask>
  </defs>
  <g transform="matrix(1 0 0 1 -914 -2925 )">
    <path d="M 10.361073369565219 2.0757381258023067  L 10.361073369565219 8.931322207958917  C 10.639124773550726 9.100770218228497  10.778150475543478 9.312580231065464  10.778150475543478 9.566752246469829  C 10.778150475543478 9.820924261874193  10.639124773550726 10.032734274711173  10.361073369565219 10.202182284980742  L 9.537894870923912 10.7387676508344  C 9.26716060914855 10.912922550278134  8.93788920969203 11  8.550080672554346 11  C 8.169589277626812 11  7.836659307065217 10.912922550278134  7.551290760869566 10.7387676508344  L 0.4061013926630439 6.135430038510913  C 0.1353671308876805 5.96127513906718  0 5.749465126230213  0 5.5  C 0 5.255241762943941  0.1353671308876805 5.041078305519891  0.4061013926630439 4.857509627727852  L 7.551290760869566 0.2682926829268354  C 7.829342164855073 0.08943089430893678  8.162272135416668 0  8.550080672554346 0  C 8.930572067481883 0  9.259843466938408 0.08943089430893678  9.537894870923912 0.2682926829268354  L 10.361073369565219 0.7907573812580233  C 10.639124773550726 0.9696191698759093  10.778150475543478 1.1837826272999588  10.778150475543478 1.433247753530171  C 10.778150475543478 1.682712879760371  10.639124773550726 1.8968763371844206  10.361073369565219 2.0757381258023067  Z " fill-rule="nonzero" fill="#000000" stroke="none" fill-opacity="0" transform="matrix(1 0 0 1 914 2925 )" />
    <path d="M 10.361073369565219 2.0757381258023067  L 10.361073369565219 8.931322207958917  C 10.639124773550726 9.100770218228497  10.778150475543478 9.312580231065464  10.778150475543478 9.566752246469829  C 10.778150475543478 9.820924261874193  10.639124773550726 10.032734274711173  10.361073369565219 10.202182284980742  L 9.537894870923912 10.7387676508344  C 9.26716060914855 10.912922550278134  8.93788920969203 11  8.550080672554346 11  C 8.169589277626812 11  7.836659307065217 10.912922550278134  7.551290760869566 10.7387676508344  L 0.4061013926630439 6.135430038510913  C 0.1353671308876805 5.96127513906718  0 5.749465126230213  0 5.5  C 0 5.255241762943941  0.1353671308876805 5.041078305519891  0.4061013926630439 4.857509627727852  L 7.551290760869566 0.2682926829268354  C 7.829342164855073 0.08943089430893678  8.162272135416668 0  8.550080672554346 0  C 8.930572067481883 0  9.259843466938408 0.08943089430893678  9.537894870923912 0.2682926829268354  L 10.361073369565219 0.7907573812580233  C 10.639124773550726 0.9696191698759093  10.778150475543478 1.1837826272999588  10.778150475543478 1.433247753530171  C 10.778150475543478 1.682712879760371  10.639124773550726 1.8968763371844206  10.361073369565219 2.0757381258023067  Z " stroke-width="2" stroke="#ffffff" fill="none" transform="matrix(1 0 0 1 914 2925 )" mask="url(#clip24)" />
  </g>
</svg>