<?xml version="1.0" encoding="utf-8"?>
<svg version="1.1" xmlns:xlink="http://www.w3.org/1999/xlink" width="166px" height="132px" xmlns="http://www.w3.org/2000/svg">
  <g transform="matrix(1 0 0 1 -927 -2949 )">
    <path d="M 927 2949  L 1093 2949  L 1093 3081  L 927 3081  L 927 2949  " fill-rule="nonzero" fill="#cccccc" stroke="none" />
    <path d="M 936 2958  L 1084 2958  L 1084 3072  L 936 3072  L 936 2958  " fill-rule="nonzero" fill="#ffffff" stroke="none" />
    <path d="M 1023.22 2988.6000000000004  C 1017.676 2988.6000000000004  1013.32 2984.244  1013.32 2978.7000000000003  C 1013.32 2973.1560000000004  1017.676 2968.8  1023.22 2968.8  C 1028.7640000000001 2968.8  1033.1200000000001 2973.1560000000004  1033.1200000000001 2978.7000000000003  C 1033.1200000000001 2984.244  1028.7640000000001 2988.6000000000004  1023.22 2988.6000000000004  " fill-rule="nonzero" fill="#cccccc" stroke="none" />
    <path d="M 940 3069  L 940 3010.15  L 975.25 2983.4  L 1024.6 3017.9493975903615  L 1052.8 2999.45  L 1081 3017.9493975903615  L 1081 3069  L 940 3069  " fill-rule="nonzero" fill="#169bd5" stroke="none" />
  </g>
</svg>