<?xml version="1.0" encoding="utf-8"?>
<svg version="1.1" xmlns:xlink="http://www.w3.org/1999/xlink" width="140px" height="102px" xmlns="http://www.w3.org/2000/svg">
  <g transform="matrix(1 0 0 1 -500 -2043 )">
    <path d="M 500 2043  L 640 2043  L 640 2145  L 500 2145  L 500 2043  " fill-rule="nonzero" fill="#cccccc" stroke="none" />
    <path d="M 507 2050  L 633 2050  L 633 2138  L 507 2138  L 507 2050  " fill-rule="nonzero" fill="#ffffff" stroke="none" />
    <path d="M 580.4499999999999 2073.6000000000004  C 576.1659999999999 2073.6000000000004  572.8 2070.2340000000004  572.8 2065.9500000000003  C 572.8 2061.666  576.1659999999999 2058.3  580.4499999999999 2058.3  C 584.7339999999999 2058.3  588.0999999999999 2061.666  588.0999999999999 2065.9500000000003  C 588.0999999999999 2070.2340000000004  584.7339999999999 2073.6000000000004  580.4499999999999 2073.6000000000004  " fill-rule="nonzero" fill="#cccccc" stroke="none" />
    <path d="M 510 2136  L 510 2090.35  L 540.25 2069.6  L 582.6 2099.717142857143  L 606.8 2082.05  L 631 2099.717142857143  L 631 2136  L 510 2136  " fill-rule="nonzero" fill="#169bd5" stroke="none" />
  </g>
</svg>