<?xml version="1.0" encoding="utf-8"?>
<svg version="1.1" xmlns:xlink="http://www.w3.org/1999/xlink" width="22px" height="8px" xmlns="http://www.w3.org/2000/svg">
  <g transform="matrix(1 0 0 1 -174 -3388 )">
    <path d="M 9.442611683848796 0.08016032064129831  L 13.013348031124092 2.072823660407012  L 15.679230157993047 0.8641282565130678  C 15.773523764314145 0.8213760855043801  15.881961411583404 0.8  16.004543099800834 0.8  C 16.05231610359959 0.8  16.097940844605837 0.8032466993914568  16.14141732284605 0.8097400981744431  C 16.17681959796321 0.8032466993914568  16.213971172782866 0.8  16.252872047305033 0.8  C 16.352688564853516 0.8  16.440987791915624 0.8213760855043801  16.517769728491377 0.8641282565130678  L 21.88482709513638 3.8525050100200313  C 21.961609031712122 3.895257181028719  22 3.9444221776886845  22 4  C 22 4.0555778223113155  21.961609031712122 4.104742818971281  21.88482709513638 4.147494989979968  L 16.517769728491377 7.135871743486932  C 16.440987791915624 7.17862391449562  16.352688564853516 7.2  16.252872047305033 7.2  C 16.213971172782866 7.2  16.17681959796321 7.196753300608544  16.141417322819567 7.190259901825702  C 16.097940844605837 7.196753300608544  16.05231610359959 7.2  16.004543099800834 7.2  C 15.881961411583404 7.2  15.773523764314145 7.17862391449562  15.679230157993047 7.135871743486932  L 13.01334805618539 5.927176296420657  L 9.442611683848796 7.919839679358701  C 9.346849942726234 7.9732798931195425  9.236723940435281 8  9.112233676975944 8  C 9.063716855942676 8  9.017381745774337 7.995941625760679  8.973228346437887 7.98782487728211  C 8.919004873609527 7.995941625760679  8.862102106736568 8  8.802520045819014 8  C 8.649637266132112 8  8.514394807178316 7.9732798931195425  8.39679266895762 7.919839679358701  L 0.17640320733104278 4.1843687374749425  C 0.05880106911034621 4.130928523714101  0 4.069472277889145  0 4  C 0 3.930527722110855  0.05880106911034621 3.8690714762858986  0.17640320733104278 3.8156312625250575  L 8.39679266895762 0.08016032064129831  C 8.514394807178316 0.026720106880457024  8.649637266132112 0  8.802520045819014 0  C 8.862102106736568 0  8.919004873609527 0.004058374239320983  8.973228346470918 0.012175122718035709  C 9.017381745774337 0.004058374239320983  9.063716855942676 0  9.112233676975944 0  C 9.236723940435281 0  9.346849942726234 0.026720106880457024  9.442611683848796 0.08016032064129831  Z M 8.97323824428415 6.642697204769938  L 11.491690000965072 5.237265465884702  L 9.088107076148315 4.147494989979968  C 8.993813469827217 4.104742818971281  8.946666666666667 4.0555778223113155  8.946666666666667 4  C 8.946666666666667 3.9444221776886845  8.993813469827217 3.895257181028719  9.088107076148315 3.8525050100200313  L 11.491697398031324 2.762731242876616  L 8.97324421575783 1.357290060455125  L 3.157617411225657 4  L 8.97323824428415 6.642697204769938  Z M 16.141430046868894 1.8858320483641  L 14.230673524204583 2.7521569369237113  L 16.136357388316153 3.8156312625250575  C 16.232119129438715 3.8690714762858986  16.28 3.930527722110855  16.28 4  C 16.28 4.069472277889145  16.232119129438715 4.130928523714101  16.136357388316153 4.1843687374749425  L 14.230677612254063 5.247839213004772  L 16.141425258930536 6.114157763815965  L 19.93840500294109 4  L 16.141430046868894 1.8858320483641  Z M 13.708797250859105 4  L 12.709048174131736 3.442053965369414  L 11.478449996388141 4  L 12.709036213481433 4.557920552831783  L 13.708797250859105 4  Z " fill-rule="nonzero" fill="#ffffff" stroke="none" transform="matrix(1 0 0 1 174 3388 )" />
  </g>
</svg>