<?xml version="1.0" encoding="utf-8"?>
<svg version="1.1" xmlns:xlink="http://www.w3.org/1999/xlink" width="33px" height="12px" xmlns="http://www.w3.org/2000/svg">
  <g transform="matrix(1 0 0 1 -184 -743 )">
    <path d="M 14.163917525773194 0.12024048096194748  L 19.520022046686137 3.1092354906105175  L 23.51884523698957 1.2961923847696017  C 23.660285646471216 1.23206412825657  23.822942117375106 1.2000000000000002  24.006814649701248 1.2000000000000002  C 24.078474155399384 1.2000000000000002  24.146911266908756 1.204870049087185  24.212125984269072 1.2146101472616646  C 24.26522939694481 1.204870049087185  24.3209567591743 1.2000000000000002  24.379308070957553 1.2000000000000002  C 24.52903284728027 1.2000000000000002  24.66148168787344 1.23206412825657  24.776654592737067 1.2961923847696017  L 32.82724064270457 5.778757515030047  C 32.94241354756818 5.842885771543079  33 5.916633266533027  33 6  C 33 6.083366733466973  32.94241354756818 6.157114228456921  32.82724064270457 6.221242484969952  L 24.776654592737067 10.7038076152304  C 24.66148168787344 10.767935871743429  24.52903284728027 10.8  24.379308070957553 10.8  C 24.3209567591743 10.8  24.26522939694481 10.795129950912816  24.21212598422935 10.785389852738554  C 24.146911266908756 10.795129950912816  24.078474155399384 10.8  24.006814649701248 10.8  C 23.822942117375106 10.8  23.660285646471216 10.767935871743429  23.51884523698957 10.7038076152304  L 19.520022084278086 8.890764444630985  L 14.163917525773194 11.879759519038052  C 14.02027491408935 11.959919839679314  13.855085910652921 12  13.668350515463915 12  C 13.595575283914016 12  13.526072618661505 11.993912438641019  13.459842519656831 11.981737315923166  C 13.37850731041429 11.993912438641019  13.293153160104852 12  13.203780068728522 12  C 12.974455899198169 12  12.771592210767475 11.959919839679314  12.59518900343643 11.879759519038052  L 0.2646048109965642 6.276553106212414  C 0.08820160366551931 6.1963927855711525  0 6.104208416833718  0 6  C 0 5.895791583166282  0.08820160366551931 5.8036072144288475  0.2646048109965642 5.723446893787586  L 12.59518900343643 0.12024048096194748  C 12.771592210767475 0.04008016032068554  12.974455899198169 0  13.203780068728522 0  C 13.293153160104852 0  13.37850731041429 0.006087561358981475  13.459842519706378 0.018262684077053563  C 13.526072618661505 0.006087561358981475  13.595575283914016 0  13.668350515463915 0  C 13.855085910652921 0  14.02027491408935 0.04008016032068554  14.163917525773194 0.12024048096194748  Z M 13.459857366426226 9.964045807154907  L 17.237535001447608 7.855898198827053  L 13.632160614222473 6.221242484969952  C 13.490720204740825 6.157114228456921  13.42 6.083366733466973  13.42 6  C 13.42 5.916633266533027  13.490720204740825 5.842885771543079  13.632160614222473 5.778757515030047  L 17.237546097046987 4.144096864314925  L 13.459866323636746 2.0359350906826874  L 4.736426116838485 6  L 13.459857366426226 9.964045807154907  Z M 24.212145070303343 2.82874807254615  L 21.346010286306875 4.128235405385567  L 24.204536082474227 5.723446893787586  C 24.348178694158072 5.8036072144288475  24.419999999999998 5.895791583166282  24.419999999999998 6  C 24.419999999999998 6.104208416833718  24.348178694158072 6.1963927855711525  24.204536082474227 6.276553106212414  L 21.346016418381094 7.871758819507158  L 24.212137888395805 9.171236645723948  L 29.907607504411633 6  L 24.212145070303343 2.82874807254615  Z M 20.563195876288656 6  L 19.063572261197603 5.163080948054121  L 17.21767499458221 6  L 19.06355432022215 6.836880829247675  L 20.563195876288656 6  Z " fill-rule="nonzero" fill="#ffffff" stroke="none" transform="matrix(1 0 0 1 184 743 )" />
  </g>
</svg>