<?xml version="1.0" encoding="utf-8"?>
<svg version="1.1" xmlns:xlink="http://www.w3.org/1999/xlink" width="24px" height="12px" xmlns="http://www.w3.org/2000/svg">
  <g transform="matrix(1 0 0 1 -663 -936 )">
    <path d="M 13.282646048109967 12  C 13.215978638013326 12  13.152066318947973 11.994858635734746  13.090909090903367 11.984575907204343  C 13.017520417262475 11.994858635734746  12.940825634384026 12  12.860824742268036 12  C 12.637457044673539 12  12.439862542955325 11.959919839679314  12.268041237113401 11.879759519038052  L 0.25773195876288924 6.276553106212414  C 0.08591065292096545 6.1963927855711525  0 6.104208416833718  0 6  C 0 5.895791583166282  0.08591065292096545 5.8036072144288475  0.25773195876288924 5.723446893787586  L 12.268041237113401 0.12024048096194748  C 12.439862542955325 0.04008016032068554  12.637457044673539 0  12.860824742268036 0  C 12.940825634384026 0  13.017520417262475 0.005141364265255106  13.090909090913904 0.015424092795656178  C 13.152066318947973 0.005141364265255106  13.215978638013326 0  13.282646048109967 0  C 13.468785796105387 0  13.633447880870563 0.04008016032068554  13.776632302405496 0.12024048096194748  L 23.785223367697597 5.723446893787586  C 23.928407789232537 5.8036072144288475  24 5.895791583166282  24 6  C 24 6.104208416833718  23.928407789232537 6.1963927855711525  23.785223367697597 6.276553106212414  L 13.776632302405496 11.879759519038052  C 13.633447880870563 11.959919839679314  13.468785796105387 12  13.282646048109967 12  Z M 20.15549828178694 6  L 13.090954924556499 2.0449412696658325  L 4.613402061855673 6  L 13.090933600790699 9.955023625817885  L 20.15549828178694 6  Z " fill-rule="nonzero" fill="#ffffff" stroke="none" transform="matrix(1 0 0 1 663 936 )" />
  </g>
</svg>