<?xml version="1.0" encoding="utf-8"?>
<svg version="1.1" xmlns:xlink="http://www.w3.org/1999/xlink" width="19px" height="13px" xmlns="http://www.w3.org/2000/svg">
  <defs>
    <mask fill="white" id="clip26">
      <path d="M 18.834387161300086 6.200400801602989  C 18.94479572043331 6.287241148964099  19 6.387107548430696  19 6.5  C 19 6.612892451569303  18.94479572043331 6.712758851035901  18.834387161300086 6.799599198397011  L 11.116828877886489 12.86973947895764  C 11.006420318753268 12.95657982631875  10.879450475750037 13  10.735919348876878 13  C 10.684512550490467 13  10.635230184551279 12.99443018871254  10.588072251051235 12.983290566137358  C 10.531482730860944 12.99443018871254  10.472343891733901 13  10.41065573367027 13  C 10.238418381422434 13  10.086054569818527 12.95657982631875  9.953564298858627 12.86973947895764  L 0.6924943587623433 6.799599198397011  C 0.5600040878024444 6.712758851035901  0.49375895232249484 6.612892451569303  0.49375895232249484 6.5  C 0.49375895232249484 6.387107548430696  0.5600040878024444 6.287241148964099  0.6924943587623433 6.200400801602989  L 9.953564298858627 0.13026052104236013  C 10.086054569818527 0.043420173681250375  10.238418381422434 0  10.41065573367027 0  C 10.472343891733901 0  10.531482730860944 0.005569811287460545  10.588072251059396 0.016709433862642446  C 10.635230184551279 0.005569811287460545  10.684512550490467 0  10.735919348876878 0  C 10.879450475750037 0  11.006420318753268 0.043420173681250375  11.116828877886489 0.13026052104236013  L 18.834387161300086 6.200400801602989  Z " fill-rule="evenodd" />
    </mask>
  </defs>
  <g transform="matrix(1 0 0 1 -191 -5602 )">
    <path d="M 18.834387161300086 6.200400801602989  C 18.94479572043331 6.287241148964099  19 6.387107548430696  19 6.5  C 19 6.612892451569303  18.94479572043331 6.712758851035901  18.834387161300086 6.799599198397011  L 11.116828877886489 12.86973947895764  C 11.006420318753268 12.95657982631875  10.879450475750037 13  10.735919348876878 13  C 10.684512550490467 13  10.635230184551279 12.99443018871254  10.588072251051235 12.983290566137358  C 10.531482730860944 12.99443018871254  10.472343891733901 13  10.41065573367027 13  C 10.238418381422434 13  10.086054569818527 12.95657982631875  9.953564298858627 12.86973947895764  L 0.6924943587623433 6.799599198397011  C 0.5600040878024444 6.712758851035901  0.49375895232249484 6.612892451569303  0.49375895232249484 6.5  C 0.49375895232249484 6.387107548430696  0.5600040878024444 6.287241148964099  0.6924943587623433 6.200400801602989  L 9.953564298858627 0.13026052104236013  C 10.086054569818527 0.043420173681250375  10.238418381422434 0  10.41065573367027 0  C 10.472343891733901 0  10.531482730860944 0.005569811287460545  10.588072251059396 0.016709433862642446  C 10.635230184551279 0.005569811287460545  10.684512550490467 0  10.735919348876878 0  C 10.879450475750037 0  11.006420318753268 0.043420173681250375  11.116828877886489 0.13026052104236013  L 18.834387161300086 6.200400801602989  Z " fill-rule="nonzero" fill="#ffffff" stroke="none" fill-opacity="0" transform="matrix(1 0 0 1 191 5602 )" />
    <path d="M 18.834387161300086 6.200400801602989  C 18.94479572043331 6.287241148964099  19 6.387107548430696  19 6.5  C 19 6.612892451569303  18.94479572043331 6.712758851035901  18.834387161300086 6.799599198397011  L 11.116828877886489 12.86973947895764  C 11.006420318753268 12.95657982631875  10.879450475750037 13  10.735919348876878 13  C 10.684512550490467 13  10.635230184551279 12.99443018871254  10.588072251051235 12.983290566137358  C 10.531482730860944 12.99443018871254  10.472343891733901 13  10.41065573367027 13  C 10.238418381422434 13  10.086054569818527 12.95657982631875  9.953564298858627 12.86973947895764  L 0.6924943587623433 6.799599198397011  C 0.5600040878024444 6.712758851035901  0.49375895232249484 6.612892451569303  0.49375895232249484 6.5  C 0.49375895232249484 6.387107548430696  0.5600040878024444 6.287241148964099  0.6924943587623433 6.200400801602989  L 9.953564298858627 0.13026052104236013  C 10.086054569818527 0.043420173681250375  10.238418381422434 0  10.41065573367027 0  C 10.472343891733901 0  10.531482730860944 0.005569811287460545  10.588072251059396 0.016709433862642446  C 10.635230184551279 0.005569811287460545  10.684512550490467 0  10.735919348876878 0  C 10.879450475750037 0  11.006420318753268 0.043420173681250375  11.116828877886489 0.13026052104236013  L 18.834387161300086 6.200400801602989  Z " stroke-width="2" stroke="#ffffff" fill="none" transform="matrix(1 0 0 1 191 5602 )" mask="url(#clip26)" />
  </g>
</svg>