<?xml version="1.0" encoding="utf-8"?>
<svg version="1.1" xmlns:xlink="http://www.w3.org/1999/xlink" width="15px" height="11px" xmlns="http://www.w3.org/2000/svg">
  <defs>
    <mask fill="white" id="clip34">
      <path d="M 14.869253022079015 5.24649298597176  C 14.956417674026296 5.319973279892699  15 5.4044756179028965  15 5.5  C 15 5.595524382097103  14.956417674026296 5.680026720107301  14.869253022079015 5.75350701402824  L 8.776443850963018 10.889779559118002  C 8.689279199015738 10.963259853038942  8.589039849276345 11  8.475725801744904 11  C 8.435141487229316 11  8.396234356224694 10.995287082756764  8.359004408724658 10.985861248270071  C 8.314328471732324 10.995287082756764  8.267639914526764 11  8.218938737108108 11  C 8.082961880070343 11  7.962674660383048 10.963259853038942  7.858077078046285 10.889779559118002  L 0.5467060727071131 5.75350701402824  C 0.4421084903703508 5.680026720107301  0.3898096992019696 5.595524382097103  0.3898096992019696 5.5  C 0.3898096992019696 5.4044756179028965  0.4421084903703508 5.319973279892699  0.5467060727071131 5.24649298597176  L 7.858077078046285 0.11022044088199705  C 7.962674660383048 0.03674014696105801  8.082961880070343 0  8.218938737108108 0  C 8.267639914526764 0  8.314328471732324 0.004712917243235846  8.359004408731103 0.014138751729928225  C 8.396234356224694 0.004712917243235846  8.435141487229316 0  8.475725801744904 0  C 8.589039849276345 0  8.689279199015738 0.03674014696105801  8.776443850963018 0.11022044088199705  L 14.869253022079015 5.24649298597176  Z " fill-rule="evenodd" />
    </mask>
  </defs>
  <g transform="matrix(1 0 0 1 -68 -3864 )">
    <path d="M 14.869253022079015 5.24649298597176  C 14.956417674026296 5.319973279892699  15 5.4044756179028965  15 5.5  C 15 5.595524382097103  14.956417674026296 5.680026720107301  14.869253022079015 5.75350701402824  L 8.776443850963018 10.889779559118002  C 8.689279199015738 10.963259853038942  8.589039849276345 11  8.475725801744904 11  C 8.435141487229316 11  8.396234356224694 10.995287082756764  8.359004408724658 10.985861248270071  C 8.314328471732324 10.995287082756764  8.267639914526764 11  8.218938737108108 11  C 8.082961880070343 11  7.962674660383048 10.963259853038942  7.858077078046285 10.889779559118002  L 0.5467060727071131 5.75350701402824  C 0.4421084903703508 5.680026720107301  0.3898096992019696 5.595524382097103  0.3898096992019696 5.5  C 0.3898096992019696 5.4044756179028965  0.4421084903703508 5.319973279892699  0.5467060727071131 5.24649298597176  L 7.858077078046285 0.11022044088199705  C 7.962674660383048 0.03674014696105801  8.082961880070343 0  8.218938737108108 0  C 8.267639914526764 0  8.314328471732324 0.004712917243235846  8.359004408731103 0.014138751729928225  C 8.396234356224694 0.004712917243235846  8.435141487229316 0  8.475725801744904 0  C 8.589039849276345 0  8.689279199015738 0.03674014696105801  8.776443850963018 0.11022044088199705  L 14.869253022079015 5.24649298597176  Z " fill-rule="nonzero" fill="#ffffff" stroke="none" fill-opacity="0" transform="matrix(1 0 0 1 68 3864 )" />
    <path d="M 14.869253022079015 5.24649298597176  C 14.956417674026296 5.319973279892699  15 5.4044756179028965  15 5.5  C 15 5.595524382097103  14.956417674026296 5.680026720107301  14.869253022079015 5.75350701402824  L 8.776443850963018 10.889779559118002  C 8.689279199015738 10.963259853038942  8.589039849276345 11  8.475725801744904 11  C 8.435141487229316 11  8.396234356224694 10.995287082756764  8.359004408724658 10.985861248270071  C 8.314328471732324 10.995287082756764  8.267639914526764 11  8.218938737108108 11  C 8.082961880070343 11  7.962674660383048 10.963259853038942  7.858077078046285 10.889779559118002  L 0.5467060727071131 5.75350701402824  C 0.4421084903703508 5.680026720107301  0.3898096992019696 5.595524382097103  0.3898096992019696 5.5  C 0.3898096992019696 5.4044756179028965  0.4421084903703508 5.319973279892699  0.5467060727071131 5.24649298597176  L 7.858077078046285 0.11022044088199705  C 7.962674660383048 0.03674014696105801  8.082961880070343 0  8.218938737108108 0  C 8.267639914526764 0  8.314328471732324 0.004712917243235846  8.359004408731103 0.014138751729928225  C 8.396234356224694 0.004712917243235846  8.435141487229316 0  8.475725801744904 0  C 8.589039849276345 0  8.689279199015738 0.03674014696105801  8.776443850963018 0.11022044088199705  L 14.869253022079015 5.24649298597176  Z " stroke-width="2" stroke="#ffffff" fill="none" transform="matrix(1 0 0 1 68 3864 )" mask="url(#clip34)" />
  </g>
</svg>