<?xml version="1.0" encoding="utf-8"?>
<svg version="1.1" xmlns:xlink="http://www.w3.org/1999/xlink" width="230px" height="7px" xmlns="http://www.w3.org/2000/svg">
  <g transform="matrix(1 0 0 1 -424 -3901 )">
    <path d="M 6.138343263501811 5.854545454545455  C 6.957903427316054 4.581390181847429  8.309116747026517 3.8424138066434574  9.734883720930219 3.887603305785124  L 101.70659235056696 3.887603305785124  C 107.77509129348451 4.003305785123967  111.75356525081682 5.299173553719009  113.71627906976744 7  C 115.67899288871804 5.2644628099173545  119.64685758216413 3.9917355371900825  125.71535652508169 3.887603305785124  L 220.3287718623871 3.887603305785124  C 221.72709707950395 3.889220156314266  223.04031069539786 4.6203549946884  223.8616567364982 5.8545454545454545  C 224.55125888910246 4.165289256198347  228.25389198539304 3.9223140495867765  228.89044781856623 3.887603305785124  L 228.99654045742844 3.887603305785124  L 228.99654045742844 3.077685950413222  C 228.99654045742844 3.077685950413222  224.61491447241977 2.9619834710743795  223.8616567364982 1.1338842975206602  C 223.02553361094306 2.435322469402348  221.63563782159127 3.177929573160565  220.18024216798 3  L 125.1318470113396 3  C 119.38162598500863 2.9272727272727264  115.58350951374206 1.6545454545454537  113.67384201422254 0  C 111.76417451470304 1.6545454545454534  107.95544877955024 2.927272727272726  102.21583701710551 3  L 9.830367095906196 3  C 8.375301948115641 3.187174388548912  6.981376973315928 2.4532913495926407  6.138343263501811 1.15702479338843  C 5.3850855275802285 2.9735537190082644  1.0034595425715793 3.100826446280992  1.0034595425715793 3.100826446280992  L 1.0034595425715793 3.8876033057851247  L 1.0671151258888962 3.8876033057851247  C 1.5975783201998706 3.8876033057851247  5.438131847011325 4.1421487603305795  6.138343263501811 5.854545454545455  Z M 113.92846434749181 5.229752066115703  C 113.05850470882181 4.257851239669422  110.63959254276378 3.471074380165289  108.62383240438207 3.471074380165289  C 110.63959254276378 3.471074380165289  113.05850470882181 2.707438016528926  113.92846434749181 1.7239669421487602  C 114.77720545838936 2.684297520661157  115.92300595810107 3.471074380165289  119.23309629060155 3.471074380165289  C 115.92300595810107 3.471074380165289  114.77720545838936 4.234710743801653  113.92846434749181 5.229752066115703  Z " fill-rule="nonzero" fill="#ffad00" stroke="none" transform="matrix(1 0 0 1 424 3901 )" />
  </g>
</svg>