<?xml version="1.0" encoding="utf-8"?>
<svg version="1.1" xmlns:xlink="http://www.w3.org/1999/xlink" width="354px" height="10px" xmlns="http://www.w3.org/2000/svg">
  <g transform="matrix(1 0 0 1 -736 -5646 )">
    <path d="M 9.44771093599844 8.363636363636363  C 10.709120927260361 6.544843116924898  12.78881447151038 5.489162580919224  14.983255813953466 5.553719008264463  L 156.53971170478567 5.553719008264463  C 165.87992312127616 5.7190082644628095  172.00331347299633 7.570247933884299  175.02418604651163 10  C 178.0450586200269 7.520661157024793  184.15211993080914 5.702479338842975  193.49233134729965 5.553719008264463  L 339.114718431674 5.553719008264463  C 341.26692333106257 5.556028794734665  343.28813037465585 6.600507135269142  344.55228906400157 8.363636363636363  C 345.6136767249664 5.950413223140495  351.3125120123006 5.6033057851239665  352.2922544685759 5.553719008264463  L 352.45554487795505 5.553719008264463  L 352.45554487795505 4.396694214876032  C 352.45554487795505 4.396694214876032  345.7116509705939 4.231404958677684  344.55228906400157 1.6198347107438005  C 343.2653865142341 3.4790320991462114  341.1261556036666 4.539899390229378  338.88611185854313 4.429752066115701  L 192.594234095714 4.429752066115701  C 183.7438939073611 4.181818181818181  177.8980972515856 2.3636363636363624  174.95886988275993 0  C 172.01964251393426 2.3636363636363624  166.15751681722082 4.18181818181818  157.32350566980588 4.429752066115701  L 15.130217182394754 4.429752066115701  C 12.890682128838858 4.553106269355588  10.745249776321037 3.504701927989487  9.44771093599844 1.6528925619834711  C 8.28834902940609 4.24793388429752  1.5444551220449525 4.429752066115703  1.5444551220449525 4.429752066115703  L 1.5444551220449525 5.553719008264464  L 1.642429367672475 5.553719008264464  C 2.4588814145684963 5.553719008264464  8.369994234095692 5.917355371900827  9.44771093599844 8.363636363636363  Z M 175.35076686527 7.471074380165289  C 174.01178550836053 6.082644628099175  170.28876417451468 4.958677685950413  167.1862463963098 4.958677685950413  C 170.28876417451468 4.958677685950413  174.01178550836053 3.8677685950413228  175.35076686527 2.462809917355372  C 176.65709014030364 3.8347107438016526  178.42062656159905 4.958677685950413  183.5152873342302 4.958677685950413  C 178.42062656159905 4.958677685950413  176.65709014030364 6.049586776859504  175.35076686527 7.471074380165289  Z " fill-rule="nonzero" fill="#ffad00" stroke="none" transform="matrix(1 0 0 1 736 5646 )" />
  </g>
</svg>