<?xml version="1.0" encoding="utf-8"?>
<svg version="1.1" xmlns:xlink="http://www.w3.org/1999/xlink" width="10px" height="10px" xmlns="http://www.w3.org/2000/svg">
  <g transform="matrix(1 0 0 1 -525 -2440 )">
    <path d="M 1.875 0  L 8.125 0  C 8.641493055555557 0  9.083116319444445 0.1833767361111105  9.449869791666666 0.5501302083333337  C 9.81662326388889 0.9168836805555547  10 1.358506944444443  10 1.875  L 10 8.125  C 10 8.641493055555555  9.81662326388889 9.083116319444445  9.449869791666666 9.449869791666666  C 9.083116319444445 9.81662326388889  8.641493055555557 10  8.125 10  L 6.901041666666666 10  L 6.901041666666666 6.126302083333332  L 8.196614583333334 6.126302083333332  L 8.391927083333334 4.615885416666666  L 6.901041666666666 4.615885416666666  L 6.901041666666666 3.65234375  C 6.901041666666666 3.409288194444443  6.952039930555557 3.226996527777777  7.054036458333334 3.10546875  C 7.156032986111112 2.9839409722222223  7.3546006944444455 2.923177083333334  7.649739583333334 2.923177083333334  L 8.444010416666666 2.916666666666666  L 8.444010416666666 1.5690104166666663  C 8.170572916666666 1.5299479166666663  7.7842881944444455 1.5104166666666663  7.28515625 1.5104166666666663  C 6.694878472222223 1.5104166666666663  6.222873263888889 1.6840277777777768  5.869140625 2.03125  C 5.515407986111112 2.3784722222222223  5.338541666666666 2.8689236111111107  5.338541666666666 3.502604166666666  L 5.338541666666666 4.615885416666666  L 4.036458333333333 4.615885416666666  L 4.036458333333333 6.126302083333332  L 5.338541666666666 6.126302083333332  L 5.338541666666666 10  L 1.875 10  C 1.3585069444444444 10  0.9168836805555557 9.81662326388889  0.5501302083333334 9.449869791666666  C 0.18337673611111108 9.083116319444445  0 8.641493055555555  0 8.125  L 0 1.875  C 0 1.358506944444443  0.18337673611111108 0.9168836805555547  0.5501302083333334 0.5501302083333337  C 0.9168836805555557 0.1833767361111105  1.3585069444444444 0  1.875 0  Z " fill-rule="nonzero" fill="#ffffff" stroke="none" transform="matrix(1 0 0 1 525 2440 )" />
  </g>
</svg>