<?xml version="1.0" encoding="utf-8"?>
<svg version="1.1" xmlns:xlink="http://www.w3.org/1999/xlink" width="7px" height="7px" xmlns="http://www.w3.org/2000/svg">
  <g transform="matrix(1 0 0 1 -316 -1623 )">
    <path d="M 1.3125 0  L 5.6875 0  C 6.04904513888889 0  6.358181423611112 0.12836371527777735  6.614908854166666 0.3850911458333336  C 6.871636284722221 0.6418185763888883  7 0.9509548611111102  7 1.3125  L 7 5.6875  C 7 6.049045138888888  6.871636284722221 6.358181423611112  6.614908854166666 6.614908854166666  C 6.358181423611112 6.871636284722221  6.04904513888889 7  5.6875 7  L 4.830729166666666 7  L 4.830729166666666 4.288411458333333  L 5.737630208333334 4.288411458333333  L 5.874348958333334 3.2311197916666665  L 4.830729166666666 3.2311197916666665  L 4.830729166666666 2.556640625  C 4.830729166666666 2.3865017361111103  4.86642795138889 2.2588975694444438  4.937825520833334 2.173828125  C 5.009223090277779 2.0887586805555554  5.148220486111112 2.0462239583333335  5.354817708333334 2.0462239583333335  L 5.910807291666666 2.0416666666666665  L 5.910807291666666 1.0983072916666665  C 5.719401041666666 1.0709635416666665  5.449001736111112 1.0572916666666665  5.099609375 1.0572916666666665  C 4.686414930555556 1.0572916666666665  4.356011284722222 1.1788194444444438  4.1083984375 1.421875  C 3.860785590277778 1.6649305555555554  3.7369791666666665 2.0082465277777772  3.7369791666666665 2.4518229166666665  L 3.7369791666666665 3.2311197916666665  L 2.825520833333333 3.2311197916666665  L 2.825520833333333 4.288411458333333  L 3.7369791666666665 4.288411458333333  L 3.7369791666666665 7  L 1.3125 7  C 0.9509548611111112 7  0.641818576388889 6.871636284722221  0.38509114583333337 6.614908854166666  C 0.12836371527777776 6.358181423611112  0 6.049045138888888  0 5.6875  L 0 1.3125  C 0 0.9509548611111102  0.12836371527777776 0.6418185763888883  0.38509114583333337 0.3850911458333336  C 0.641818576388889 0.12836371527777735  0.9509548611111112 0  1.3125 0  Z " fill-rule="nonzero" fill="#ffffff" stroke="none" transform="matrix(1 0 0 1 316 1623 )" />
  </g>
</svg>