<?xml version="1.0" encoding="utf-8"?>
<svg version="1.1" xmlns:xlink="http://www.w3.org/1999/xlink" width="10px" height="10px" xmlns="http://www.w3.org/2000/svg">
  <g transform="matrix(1 0 0 1 -541 -2440 )">
    <path d="M 7.649739583333334 3.84765625  C 7.923177083333334 3.65234375  8.151041666666666 3.4157986111111107  8.333333333333334 3.138020833333334  C 8.090277777777779 3.246527777777777  7.827690972222223 3.3203125  7.545572916666666 3.359375  C 7.840711805555557 3.1857638888888884  8.042534722222223 2.9318576388888884  8.151041666666666 2.59765625  C 7.868923611111112 2.7625868055555545  7.578125 2.8732638888888884  7.278645833333334 2.9296875  C 7.013888888888889 2.643229166666666  6.681857638888889 2.5  6.282552083333334 2.5  C 5.904947916666666 2.5  5.582682291666666 2.633463541666666  5.315755208333334 2.900390625  C 5.048828125 3.167317708333334  4.915364583333333 3.489583333333334  4.915364583333333 3.8671875  C 4.915364583333333 3.9930555555555545  4.926215277777779 4.097222222222222  4.947916666666667 4.1796875  C 4.388020833333333 4.1493055555555545  3.8628472222222228 4.008246527777778  3.372395833333333 3.756510416666666  C 2.8819444444444446 3.5047743055555545  2.465277777777778 3.168402777777777  2.1223958333333335 2.747395833333334  C 1.996527777777778 2.9644097222222223  1.93359375 3.194444444444443  1.93359375 3.4375  C 1.93359375 3.932291666666666  2.1310763888888893 4.312065972222222  2.526041666666667 4.576822916666666  C 2.322048611111111 4.572482638888888  2.1050347222222223 4.516059027777778  1.875 4.407552083333334  L 1.875 4.420572916666666  C 1.875 4.74609375  1.9835069444444444 5.035807291666668  2.2005208333333335 5.289713541666668  C 2.4175347222222223 5.543619791666668  2.684461805555556 5.700954861111112  3.001302083333333 5.76171875  C 2.8754340277777786 5.796440972222221  2.7647569444444446 5.813802083333332  2.669270833333333 5.813802083333332  C 2.6128472222222228 5.813802083333332  2.528211805555556 5.805121527777777  2.4153645833333335 5.787760416666668  C 2.506510416666667 6.061197916666668  2.668185763888889 6.286892361111109  2.900390625 6.46484375  C 3.132595486111111 6.642795138888888  3.3962673611111116 6.733940972222221  3.69140625 6.73828125  C 3.1879340277777777 7.12890625  2.6215277777777777 7.32421875  1.9921875 7.32421875  C 1.879340277777778 7.32421875  1.7708333333333335 7.317708333333332  1.6666666666666665 7.3046875  C 2.3090277777777777 7.712673611111112  3.0078125 7.916666666666666  3.763020833333333 7.916666666666666  C 4.249131944444445 7.916666666666666  4.704861111111112 7.839626736111112  5.130208333333334 7.685546875  C 5.555555555555555 7.531467013888888  5.920138888888889 7.325303819444445  6.223958333333334 7.067057291666668  C 6.527777777777778 6.808810763888888  6.789279513888889 6.511501736111109  7.008463541666666 6.175130208333332  C 7.2276475694444455 5.838758680555555  7.390407986111112 5.487196180555555  7.496744791666666 5.120442708333332  C 7.603081597222223 4.753689236111111  7.65625 4.388020833333334  7.65625 4.0234375  C 7.65625 3.9453125  7.654079861111112 3.88671875  7.649739583333334 3.84765625  Z M 9.449869791666666 0.5501302083333337  C 9.81662326388889 0.9168836805555547  10 1.358506944444443  10 1.875  L 10 8.125  C 10 8.641493055555555  9.81662326388889 9.083116319444445  9.449869791666666 9.449869791666666  C 9.083116319444445 9.81662326388889  8.641493055555557 10  8.125 10  L 1.875 10  C 1.3585069444444444 10  0.9168836805555557 9.81662326388889  0.5501302083333334 9.449869791666666  C 0.18337673611111108 9.083116319444445  0 8.641493055555555  0 8.125  L 0 1.875  C 0 1.358506944444443  0.18337673611111108 0.9168836805555547  0.5501302083333334 0.5501302083333337  C 0.9168836805555557 0.1833767361111105  1.3585069444444444 0  1.875 0  L 8.125 0  C 8.641493055555557 0  9.083116319444445 0.1833767361111105  9.449869791666666 0.5501302083333337  Z " fill-rule="nonzero" fill="#ffffff" stroke="none" transform="matrix(1 0 0 1 541 2440 )" />
  </g>
</svg>