<?xml version="1.0" encoding="utf-8"?>
<svg version="1.1" xmlns:xlink="http://www.w3.org/1999/xlink" width="7px" height="7px" xmlns="http://www.w3.org/2000/svg">
  <g transform="matrix(1 0 0 1 -328 -1623 )">
    <path d="M 5.354817708333334 2.693359375  C 5.546223958333334 2.556640625  5.705729166666666 2.3910590277777772  5.833333333333334 2.1966145833333335  C 5.663194444444445 2.2725694444444438  5.479383680555556 2.32421875  5.281901041666666 2.3515625  C 5.48849826388889 2.230034722222222  5.629774305555556 2.052300347222222  5.705729166666666 1.818359375  C 5.508246527777779 1.9338107638888884  5.3046875 2.011284722222222  5.095052083333334 2.05078125  C 4.909722222222222 1.8502604166666665  4.677300347222222 1.75  4.397786458333334 1.75  C 4.133463541666666 1.75  3.9078776041666665 1.8434244791666665  3.7210286458333335 2.0302734375  C 3.5341796875 2.2171223958333335  3.440755208333333 2.4427083333333335  3.440755208333333 2.70703125  C 3.440755208333333 2.7951388888888884  3.448350694444445 2.8680555555555554  3.463541666666667 2.92578125  C 3.071614583333333 2.9045138888888884  2.703993055555556 2.8057725694444446  2.360677083333333 2.6295572916666665  C 2.017361111111111 2.4533420138888884  1.7256944444444446 2.2178819444444438  1.4856770833333335 1.9231770833333335  C 1.3975694444444446 2.0750868055555554  1.353515625 2.2361111111111103  1.353515625 2.40625  C 1.353515625 2.7526041666666665  1.4917534722222225 3.0184461805555554  1.7682291666666667 3.2037760416666665  C 1.625434027777778 3.200737847222222  1.4735243055555556 3.1612413194444446  1.3125 3.0852864583333335  L 1.3125 3.0944010416666665  C 1.3125 3.322265625  1.3884548611111112 3.525065104166667  1.5403645833333335 3.702799479166667  C 1.6922743055555556 3.880533854166667  1.879123263888889 3.990668402777778  2.100911458333333 4.033203125  C 2.012803819444445 4.0575086805555545  1.9353298611111114 4.069661458333333  1.8684895833333333 4.069661458333333  C 1.8289930555555558 4.069661458333333  1.769748263888889 4.063585069444444  1.6907552083333335 4.051432291666667  C 1.7545572916666667 4.242838541666667  1.8677300347222223 4.400824652777777  2.0302734375 4.525390625  C 2.1928168402777777 4.649956597222221  2.377387152777778 4.7137586805555545  2.583984375 4.716796875  C 2.2315538194444446 4.990234375  1.8350694444444446 5.126953125  1.39453125 5.126953125  C 1.3155381944444446 5.126953125  1.2395833333333335 5.122395833333333  1.1666666666666665 5.11328125  C 1.6163194444444446 5.398871527777779  2.10546875 5.541666666666666  2.634114583333333 5.541666666666666  C 2.974392361111111 5.541666666666666  3.293402777777778 5.487738715277779  3.5911458333333335 5.3798828125  C 3.8888888888888893 5.272026909722221  4.144097222222222 5.127712673611111  4.356770833333334 4.946940104166667  C 4.569444444444445 4.766167534722221  4.752495659722222 4.558051215277777  4.905924479166666 4.322591145833333  C 5.059353298611112 4.087131076388889  5.173285590277779 3.8410373263888893  5.247721354166666 3.584309895833333  C 5.322157118055556 3.3275824652777772  5.359375 3.0716145833333335  5.359375 2.81640625  C 5.359375 2.76171875  5.357855902777779 2.720703125  5.354817708333334 2.693359375  Z M 6.614908854166666 0.3850911458333336  C 6.871636284722221 0.6418185763888883  7 0.9509548611111102  7 1.3125  L 7 5.6875  C 7 6.049045138888888  6.871636284722221 6.358181423611112  6.614908854166666 6.614908854166666  C 6.358181423611112 6.871636284722221  6.04904513888889 7  5.6875 7  L 1.3125 7  C 0.9509548611111112 7  0.641818576388889 6.871636284722221  0.38509114583333337 6.614908854166666  C 0.12836371527777776 6.358181423611112  0 6.049045138888888  0 5.6875  L 0 1.3125  C 0 0.9509548611111102  0.12836371527777776 0.6418185763888883  0.38509114583333337 0.3850911458333336  C 0.641818576388889 0.12836371527777735  0.9509548611111112 0  1.3125 0  L 5.6875 0  C 6.04904513888889 0  6.358181423611112 0.12836371527777735  6.614908854166666 0.3850911458333336  Z " fill-rule="nonzero" fill="#ffffff" stroke="none" transform="matrix(1 0 0 1 328 1623 )" />
  </g>
</svg>