<?xml version="1.0" encoding="utf-8"?>
<svg version="1.1" xmlns:xlink="http://www.w3.org/1999/xlink" width="10px" height="10px" xmlns="http://www.w3.org/2000/svg">
  <g transform="matrix(1 0 0 1 -574 -2440 )">
    <path d="M 3.9687848383500555 2.849206349206349  L 3.9687848383500555 6.841269841269842  L 6.666666666666666 4.857142857142858  L 3.9687848383500555 2.849206349206349  Z M 1.5050167224080269 0.14285714285714235  C 2.4377554812337423 0.04761904761904745  3.6027499070977327 0  5 0  C 5.624303232998885 0  6.227238944630249 0.011904761904761862  6.808807134894091 0.03571428571428559  C 7.390375325157935 0.05952380952380931  7.816796729840209 0.08465608465608399  8.088071348940915 0.11111111111111072  L 8.494983277591974 0.14285714285714235  C 8.498699368264585 0.14285714285714235  8.530286138981792 0.1468253968253963  8.58974358974359 0.1547619047619042  C 8.649201040505389 0.16269841269841323  8.691936083240432 0.17063492063492114  8.717948717948719 0.17857142857142905  C 8.743961352657005 0.18650793650793696  8.787625418060202 0.19841269841269882  8.848940914158305 0.21428571428571463  C 8.91025641025641 0.23015873015873045  8.963210702341136 0.25132275132275006  9.007803790412487 0.2777777777777779  C 9.052396878483835 0.3042328042328035  9.10442214790041 0.33862433862433705  9.163879598662207 0.3809523809523807  C 9.223337049424007 0.42328042328042215  9.280936454849499 0.47486772486772466  9.336677814938684 0.535714285714286  C 9.392419175027872 0.5965608465608452  9.446302489780752 0.6666666666666665  9.498327759197325 0.7460317460317456  C 9.520624303233 0.7777777777777772  9.549424005945745 0.8267195767195756  9.584726867335563 0.892857142857143  C 9.620029728725383 0.9589947089947082  9.673913043478262 1.1137566137566135  9.746376811594203 1.3571428571428568  C 9.818840579710146 1.600529100529099  9.86807878112226 1.867724867724867  9.894091415830546 2.158730158730159  C 9.923820141211447 2.4973544973544968  9.947045707915274 2.858465608465608  9.96376811594203 3.2420634920634916  C 9.980490523968786 3.6256613756613754  9.99070977331847 3.9259259259259247  9.994425863991081 4.142857142857142  L 9.994425863991081 4.4603174603174605  L 9.994425863991081 5.5396825396825395  C 9.998141954663694 6.306878306878305  9.964697138610182 7.0740740740740735  9.894091415830546 7.841269841269841  C 9.86807878112226 8.132275132275133  9.821627647714607 8.395502645502646  9.75473801560758 8.630952380952381  C 9.687848383500558 8.866402116402117  9.62839093273876 9.02910052910053  9.576365663322186 9.119047619047619  L 9.498327759197325 9.253968253968255  C 9.446302489780752 9.333333333333334  9.392419175027872 9.403439153439152  9.336677814938684 9.464285714285714  C 9.280936454849499 9.525132275132275  9.223337049424007 9.575396825396826  9.163879598662207 9.615079365079366  C 9.10442214790041 9.654761904761905  9.052396878483835 9.687830687830688  9.007803790412487 9.714285714285714  C 8.963210702341136 9.74074074074074  8.91025641025641 9.761904761904761  8.848940914158305 9.777777777777777  C 8.787625418060202 9.793650793650793  8.743032329988852 9.805555555555555  8.715161649944259 9.813492063492063  C 8.687290969899665 9.821428571428571  8.644555927164623 9.829365079365079  8.58695652173913 9.837301587301587  C 8.529357116313639 9.845238095238095  8.498699368264585 9.84920634920635  8.494983277591974 9.84920634920635  C 7.562244518766258 9.949735449735451  6.397250092902267 10  5 10  C 4.230769230769231 9.98941798941799  3.56280193236715 9.972222222222221  2.9960981047937567 9.9484126984127  C 2.4293942772203643 9.924603174603174  2.05685618729097 9.904761904761905  1.8784838350055741 9.88888888888889  L 1.605351170568562 9.857142857142858  L 1.4046822742474916 9.825396825396824  C 1.2709030100334449 9.798941798941799  1.1696395392047567 9.772486772486772  1.100891861761427 9.746031746031745  C 1.0321441843180974 9.71957671957672  0.9373838721664809 9.664021164021165  0.8166109253065774 9.579365079365079  C 0.695837978446674 9.494708994708994  0.5908584169453734 9.386243386243386  0.5016722408026756 9.253968253968255  C 0.4793756967670011 9.222222222222223  0.45057599405425497 9.173280423280424  0.41527313266443705 9.107142857142858  C 0.37997027127461913 9.041005291005291  0.32608695652173914 8.886243386243386  0.2536231884057971 8.642857142857142  C 0.18115942028985507 8.399470899470899  0.1319212188777406 8.132275132275133  0.10590858416945374 7.841269841269841  C 0.07617985878855445 7.5026455026455015  0.05295429208472688 7.141534391534391  0.036231884057971016 6.757936507936508  C 0.019509476031215164 6.374338624338622  0.00929022668153103 6.074074074074074  0.005574136008918618 5.857142857142856  L 0.005574136008918618 5.5396825396825395  L 0.005574136008918618 4.4603174603174605  C 0.0018580453363062053 3.6931216931216926  0.03530286138981791 2.925925925925925  0.10590858416945374 2.158730158730159  C 0.1319212188777406 1.867724867724867  0.17837235228539577 1.6044973544973529  0.24526198439241917 1.3690476190476186  C 0.3121516164994426 1.1335978835978833  0.3716090672612412 0.97089947089947  0.42363433667781497 0.8809523809523812  L 0.5016722408026756 0.7460317460317456  C 0.5536975102192494 0.6666666666666665  0.6075808249721293 0.5965608465608452  0.6633221850613156 0.535714285714286  C 0.7190635451505016 0.47486772486772466  0.7766629505759941 0.42328042328042215  0.8361204013377926 0.3809523809523807  C 0.8955778520995914 0.33862433862433705  0.947603121516165 0.3042328042328035  0.9921962095875139 0.2777777777777779  C 1.0367892976588629 0.25132275132275006  1.0897435897435899 0.23015873015873045  1.1510590858416945 0.21428571428571463  C 1.2123745819397995 0.19841269841269882  1.2560386473429954 0.18650793650793696  1.282051282051282 0.17857142857142905  C 1.308063916759569 0.17063492063492114  1.350798959494612 0.16269841269841323  1.4102564102564101 0.1547619047619042  C 1.469713861018209 0.1468253968253963  1.5013006317354147 0.14285714285714235  1.5050167224080269 0.14285714285714235  Z " fill-rule="nonzero" fill="#ffffff" stroke="none" transform="matrix(1 0 0 1 574 2440 )" />
  </g>
</svg>