<?xml version="1.0" encoding="utf-8"?>
<svg version="1.1" xmlns:xlink="http://www.w3.org/1999/xlink" width="7px" height="7px" xmlns="http://www.w3.org/2000/svg">
  <g transform="matrix(1 0 0 1 -351 -1623 )">
    <path d="M 2.778149386845039 1.9944444444444445  L 2.778149386845039 4.788888888888889  L 4.666666666666666 3.4000000000000004  L 2.778149386845039 1.9944444444444445  Z M 1.0535117056856187 0.09999999999999964  C 1.7064288368636196 0.033333333333333215  2.5219249349684127 0  3.5 0  C 3.9370122630992195 0  4.359067261241174 0.008333333333333304  4.766164994425864 0.02499999999999991  C 5.173262727610554 0.04166666666666652  5.471757710888146 0.05925925925925879  5.66164994425864 0.0777777777777775  L 5.946488294314381 0.09999999999999964  C 5.949089557785211 0.09999999999999964  5.971200297287254 0.10277777777777741  6.012820512820513 0.10833333333333295  C 6.0544407283537724 0.11388888888888926  6.084355258268303 0.1194444444444448  6.102564102564102 0.12500000000000033  C 6.120772946859903 0.13055555555555587  6.15133779264214 0.13888888888888917  6.194258639910814 0.15000000000000024  C 6.237179487179487 0.16111111111111132  6.274247491638795 0.17592592592592504  6.305462653288741 0.19444444444444453  C 6.336677814938684 0.21296296296296247  6.373095503530287 0.23703703703703594  6.414715719063545 0.2666666666666665  C 6.456335934596805 0.2962962962962955  6.49665551839465 0.33240740740740726  6.535674470457079 0.3750000000000002  C 6.57469342251951 0.4175925925925916  6.612411742846526 0.46666666666666656  6.648829431438127 0.5222222222222219  C 6.6644370122630985 0.5444444444444441  6.684596804162022 0.5787037037037029  6.709308807134894 0.6250000000000001  C 6.734020810107768 0.6712962962962957  6.771739130434783 0.7796296296296295  6.822463768115942 0.9499999999999997  C 6.873188405797102 1.1203703703703694  6.907655146785582 1.307407407407407  6.925863991081382 1.511111111111111  C 6.946674098848013 1.748148148148148  6.962931995540692 2.0009259259259258  6.97463768115942 2.269444444444444  C 6.98634336677815 2.537962962962963  6.993496841322929 2.7481481481481476  6.996098104793757 2.9  L 6.996098104793757 3.122222222222222  L 6.996098104793757 3.877777777777778  C 6.998699368264586 4.414814814814814  6.975287997027127 4.951851851851852  6.925863991081382 5.488888888888889  C 6.907655146785582 5.692592592592593  6.875139353400224 5.8768518518518515  6.828316610925307 6.041666666666667  C 6.781493868450392 6.2064814814814815  6.739873652917131 6.320370370370371  6.70345596432553 6.383333333333333  L 6.648829431438127 6.477777777777778  C 6.612411742846526 6.533333333333333  6.57469342251951 6.582407407407407  6.535674470457079 6.625  C 6.49665551839465 6.667592592592593  6.456335934596805 6.702777777777778  6.414715719063545 6.730555555555556  C 6.373095503530287 6.758333333333334  6.336677814938684 6.781481481481482  6.305462653288741 6.8  C 6.274247491638795 6.818518518518518  6.237179487179487 6.833333333333333  6.194258639910814 6.844444444444444  C 6.15133779264214 6.855555555555555  6.120122630992196 6.863888888888889  6.100613154960981 6.8694444444444445  C 6.081103678929766 6.875  6.0511891490152365 6.8805555555555555  6.010869565217392 6.886111111111111  C 5.970549981419547 6.8916666666666675  5.949089557785211 6.894444444444445  5.946488294314381 6.894444444444445  C 5.293571163136381 6.964814814814815  4.478075065031587 7  3.5 7  C 2.9615384615384617 6.992592592592593  2.493961352657005 6.980555555555556  2.0972686733556296 6.963888888888889  C 1.7005759940542549 6.947222222222223  1.439799331103679 6.933333333333334  1.314938684503902 6.9222222222222225  L 1.1237458193979935 6.9  L 0.983277591973244 6.877777777777777  C 0.8896321070234113 6.859259259259259  0.8187476774433297 6.84074074074074  0.7706243032329989 6.822222222222222  C 0.7225009290226682 6.803703703703704  0.6561687105165367 6.764814814814815  0.5716276477146042 6.705555555555556  C 0.48708658491267187 6.6462962962962955  0.4136008918617614 6.570370370370371  0.3511705685618729 6.477777777777778  C 0.3355629877369008 6.455555555555556  0.3154031958379785 6.421296296296296  0.2906911928651059 6.375  C 0.2659791898922334 6.328703703703704  0.22826086956521738 6.220370370370371  0.17753623188405798 6.050000000000001  C 0.12681159420289856 5.879629629629629  0.09234485321441843 5.692592592592593  0.07413600891861762 5.488888888888889  C 0.05332590115198811 5.2518518518518515  0.037068004459308815 4.999074074074073  0.025362318840579712 4.730555555555556  C 0.013656633221850614 4.462037037037035  0.006503158677071721 4.2518518518518515  0.003901895206243032 4.1  L 0.003901895206243032 3.877777777777778  L 0.003901895206243032 3.122222222222222  C 0.0013006317354143438 2.5851851851851846  0.024712002972872536 2.0481481481481474  0.07413600891861762 1.511111111111111  C 0.09234485321441843 1.307407407407407  0.12486064659977703 1.1231481481481471  0.1716833890746934 0.958333333333333  C 0.21850613154960982 0.7935185185185183  0.26012634708286886 0.679629629629629  0.29654403567447046 0.6166666666666668  L 0.3511705685618729 0.5222222222222219  C 0.3875882571534746 0.46666666666666656  0.4253065774804905 0.4175925925925916  0.46432552954292083 0.3750000000000002  C 0.5033444816053512 0.33240740740740726  0.5436640654031959 0.2962962962962955  0.5852842809364549 0.2666666666666665  C 0.6269044964697139 0.23703703703703594  0.6633221850613155 0.21296296296296247  0.6945373467112598 0.19444444444444453  C 0.725752508361204 0.17592592592592504  0.7628205128205128 0.16111111111111132  0.8057413600891862 0.15000000000000024  C 0.8486622073578597 0.13888888888888917  0.8792270531400969 0.13055555555555587  0.8974358974358974 0.12500000000000033  C 0.9156447417316983 0.1194444444444448  0.9455592716462282 0.11388888888888926  0.9871794871794872 0.10833333333333295  C 1.0287997027127462 0.10277777777777741  1.0509104422147904 0.09999999999999964  1.0535117056856187 0.09999999999999964  Z " fill-rule="nonzero" fill="#ffffff" stroke="none" transform="matrix(1 0 0 1 351 1623 )" />
  </g>
</svg>