<?xml version="1.0" encoding="utf-8"?>
<svg version="1.1" xmlns:xlink="http://www.w3.org/1999/xlink" width="10px" height="10px" xmlns="http://www.w3.org/2000/svg">
  <g transform="matrix(1 0 0 1 -557 -2440 )">
    <path d="M 6.178385416666666 6.178385416666668  C 6.50390625 5.852864583333332  6.666666666666666 5.460069444444445  6.666666666666666 5  C 6.666666666666666 4.5399305555555545  6.50390625 4.147135416666666  6.178385416666666 3.821614583333334  C 5.852864583333334 3.49609375  5.4600694444444455 3.333333333333334  5 3.333333333333334  C 4.539930555555555 3.333333333333334  4.147135416666667 3.49609375  3.821614583333333 3.821614583333334  C 3.49609375 4.147135416666666  3.333333333333333 4.5399305555555545  3.333333333333333 5  C 3.333333333333333 5.460069444444445  3.49609375 5.852864583333332  3.821614583333333 6.178385416666668  C 4.147135416666667 6.50390625  4.539930555555555 6.666666666666668  5 6.666666666666668  C 5.4600694444444455 6.666666666666668  5.852864583333334 6.50390625  6.178385416666666 6.178385416666668  Z M 6.81640625 3.18359375  C 7.3155381944444455 3.682725694444443  7.565104166666666 4.288194444444443  7.565104166666666 5  C 7.565104166666666 5.711805555555555  7.3155381944444455 6.317274305555555  6.81640625 6.81640625  C 6.317274305555555 7.315538194444445  5.711805555555555 7.565104166666666  5 7.565104166666666  C 4.288194444444445 7.565104166666666  3.6827256944444446 7.315538194444445  3.18359375 6.81640625  C 2.684461805555556 6.317274305555555  2.4348958333333335 5.711805555555555  2.4348958333333335 5  C 2.4348958333333335 4.288194444444443  2.684461805555556 3.682725694444443  3.18359375 3.18359375  C 3.6827256944444446 2.6844618055555545  4.288194444444445 2.434895833333334  5 2.434895833333334  C 5.711805555555555 2.434895833333334  6.317274305555555 2.6844618055555545  6.81640625 3.18359375  Z M 8.092447916666666 1.9075520833333337  C 8.209635416666666 2.024739583333334  8.268229166666666 2.1657986111111107  8.268229166666666 2.330729166666666  C 8.268229166666666 2.4956597222222223  8.209635416666666 2.63671875  8.092447916666666 2.75390625  C 7.975260416666666 2.87109375  7.834201388888889 2.9296875  7.669270833333334 2.9296875  C 7.504340277777778 2.9296875  7.36328125 2.87109375  7.24609375 2.75390625  C 7.12890625 2.63671875  7.0703125 2.4956597222222223  7.0703125 2.330729166666666  C 7.0703125 2.1657986111111107  7.12890625 2.024739583333334  7.24609375 1.9075520833333337  C 7.36328125 1.7903645833333337  7.504340277777778 1.7317708333333337  7.669270833333334 1.7317708333333337  C 7.834201388888889 1.7317708333333337  7.975260416666666 1.7903645833333337  8.092447916666666 1.9075520833333337  Z M 5.498046875 0.8951822916666663  C 5.1963975694444455 0.8973524305555547  5.0303819444444455 0.8984375  5 0.8984375  C 4.969618055555555 0.8984375  4.803602430555555 0.8973524305555547  4.501953125 0.8951822916666663  C 4.200303819444445 0.8930121527777768  3.971354166666667 0.8930121527777768  3.815104166666667 0.8951822916666663  C 3.658854166666667 0.8973524305555547  3.449435763888889 0.9038628472222221  3.186848958333333 0.9147135416666663  C 2.9242621527777786 0.9255642361111105  2.7007378472222228 0.947265625  2.516276041666667 0.9798177083333337  C 2.331814236111111 1.0123697916666663  2.176649305555556 1.0525173611111105  2.05078125 1.1002604166666663  C 1.8337673611111114 1.187065972222222  1.6427951388888888 1.3129340277777768  1.4778645833333335 1.4778645833333337  C 1.312934027777778 1.6427951388888884  1.1870659722222223 1.8337673611111105  1.1002604166666667 2.05078125  C 1.0525173611111112 2.1766493055555545  1.0123697916666667 2.3318142361111107  0.9798177083333333 2.516276041666666  C 0.947265625 2.7007378472222223  0.9255642361111112 2.924262152777777  0.9147135416666667 3.186848958333334  C 0.9038628472222222 3.4494357638888884  0.8973524305555557 3.658854166666666  0.8951822916666667 3.815104166666666  C 0.8930121527777779 3.971354166666666  0.8930121527777779 4.200303819444443  0.8951822916666667 4.501953125  C 0.8973524305555557 4.8036024305555545  0.8984375 4.9696180555555545  0.8984375 5  C 0.8984375 5.030381944444445  0.8973524305555557 5.196397569444445  0.8951822916666667 5.498046875  C 0.8930121527777779 5.799696180555555  0.8930121527777779 6.028645833333332  0.8951822916666667 6.184895833333332  C 0.8973524305555557 6.341145833333332  0.9038628472222222 6.550564236111109  0.9147135416666667 6.813151041666668  C 0.9255642361111112 7.075737847222221  0.947265625 7.299262152777777  0.9798177083333333 7.483723958333332  C 1.0123697916666667 7.668185763888888  1.0525173611111112 7.823350694444443  1.1002604166666667 7.94921875  C 1.1870659722222223 8.16623263888889  1.312934027777778 8.35720486111111  1.4778645833333335 8.522135416666666  C 1.6427951388888888 8.687065972222221  1.8337673611111114 8.812934027777779  2.05078125 8.899739583333334  C 2.176649305555556 8.94748263888889  2.331814236111111 8.987630208333334  2.516276041666667 9.020182291666666  C 2.7007378472222228 9.052734375  2.9242621527777786 9.07443576388889  3.186848958333333 9.085286458333334  C 3.449435763888889 9.096137152777779  3.658854166666667 9.102647569444445  3.815104166666667 9.104817708333334  C 3.971354166666667 9.106987847222221  4.200303819444445 9.106987847222221  4.501953125 9.104817708333334  C 4.803602430555555 9.102647569444445  4.969618055555555 9.1015625  5 9.1015625  C 5.0303819444444455 9.1015625  5.1963975694444455 9.102647569444445  5.498046875 9.104817708333334  C 5.799696180555555 9.106987847222221  6.028645833333334 9.106987847222221  6.184895833333334 9.104817708333334  C 6.341145833333334 9.102647569444445  6.550564236111112 9.096137152777779  6.813151041666666 9.085286458333334  C 7.075737847222223 9.07443576388889  7.299262152777778 9.052734375  7.483723958333334 9.020182291666666  C 7.668185763888889 8.987630208333334  7.8233506944444455 8.94748263888889  7.94921875 8.899739583333334  C 8.16623263888889 8.812934027777779  8.35720486111111 8.687065972222221  8.522135416666666 8.522135416666666  C 8.687065972222223 8.35720486111111  8.812934027777779 8.16623263888889  8.899739583333334 7.94921875  C 8.94748263888889 7.823350694444443  8.987630208333334 7.668185763888888  9.020182291666666 7.483723958333332  C 9.052734375 7.299262152777777  9.07443576388889 7.075737847222221  9.085286458333334 6.813151041666668  C 9.096137152777779 6.550564236111109  9.102647569444445 6.341145833333332  9.104817708333334 6.184895833333332  C 9.106987847222223 6.028645833333332  9.106987847222223 5.799696180555555  9.104817708333334 5.498046875  C 9.102647569444445 5.196397569444445  9.1015625 5.030381944444445  9.1015625 5  C 9.1015625 4.9696180555555545  9.102647569444445 4.8036024305555545  9.104817708333334 4.501953125  C 9.106987847222223 4.200303819444443  9.106987847222223 3.971354166666666  9.104817708333334 3.815104166666666  C 9.102647569444445 3.658854166666666  9.096137152777779 3.4494357638888884  9.085286458333334 3.186848958333334  C 9.07443576388889 2.924262152777777  9.052734375 2.7007378472222223  9.020182291666666 2.516276041666666  C 8.987630208333334 2.3318142361111107  8.94748263888889 2.1766493055555545  8.899739583333334 2.05078125  C 8.812934027777779 1.8337673611111105  8.687065972222223 1.6427951388888884  8.522135416666666 1.4778645833333337  C 8.35720486111111 1.3129340277777768  8.16623263888889 1.187065972222222  7.94921875 1.1002604166666663  C 7.8233506944444455 1.0525173611111105  7.668185763888889 1.0123697916666663  7.483723958333334 0.9798177083333337  C 7.299262152777778 0.947265625  7.075737847222223 0.9255642361111105  6.813151041666666 0.9147135416666663  C 6.550564236111112 0.9038628472222221  6.341145833333334 0.8973524305555547  6.184895833333334 0.8951822916666663  C 6.028645833333334 0.8930121527777768  5.799696180555555 0.8930121527777768  5.498046875 0.8951822916666663  Z M 9.967447916666666 2.936197916666666  C 9.989149305555555 3.3181423611111107  10 4.006076388888888  10 5  C 10 5.993923611111112  9.989149305555555 6.681857638888888  9.967447916666666 7.063802083333332  C 9.92404513888889 7.966579861111112  9.654947916666666 8.665364583333334  9.16015625 9.16015625  C 8.665364583333334 9.654947916666666  7.966579861111112 9.92404513888889  7.063802083333334 9.967447916666666  C 6.681857638888889 9.989149305555555  5.993923611111112 10  5 10  C 4.006076388888889 10  3.318142361111111 9.989149305555555  2.936197916666667 9.967447916666666  C 2.0334201388888893 9.92404513888889  1.334635416666667 9.654947916666666  0.83984375 9.16015625  C 0.34505208333333337 8.665364583333334  0.07595486111111112 7.966579861111112  0.032552083333333336 7.063802083333332  C 0.010850694444444442 6.681857638888888  0 5.993923611111112  0 5  C 0 4.006076388888888  0.010850694444444442 3.3181423611111107  0.032552083333333336 2.936197916666666  C 0.07595486111111112 2.0334201388888884  0.34505208333333337 1.3346354166666663  0.83984375 0.83984375  C 1.334635416666667 0.3450520833333337  2.0334201388888893 0.0759548611111105  2.936197916666667 0.0325520833333337  C 3.318142361111111 0.010850694444443088  4.006076388888889 0  5 0  C 5.993923611111112 0  6.681857638888889 0.010850694444443088  7.063802083333334 0.0325520833333337  C 7.966579861111112 0.0759548611111105  8.665364583333334 0.3450520833333337  9.16015625 0.83984375  C 9.654947916666666 1.3346354166666663  9.92404513888889 2.0334201388888884  9.967447916666666 2.936197916666666  Z " fill-rule="nonzero" fill="#ffffff" stroke="none" transform="matrix(1 0 0 1 557 2440 )" />
  </g>
</svg>