<?xml version="1.0" encoding="utf-8"?>
<svg version="1.1" xmlns:xlink="http://www.w3.org/1999/xlink" width="7px" height="7px" xmlns="http://www.w3.org/2000/svg">
  <g transform="matrix(1 0 0 1 -339 -1623 )">
    <path d="M 4.324869791666666 4.324869791666667  C 4.552734375 4.097005208333333  4.666666666666666 3.8220486111111107  4.666666666666666 3.5  C 4.666666666666666 3.1779513888888884  4.552734375 2.9029947916666665  4.324869791666666 2.6751302083333335  C 4.097005208333334 2.447265625  3.8220486111111116 2.3333333333333335  3.5 2.3333333333333335  C 3.1779513888888893 2.3333333333333335  2.902994791666667 2.447265625  2.675130208333333 2.6751302083333335  C 2.447265625 2.9029947916666665  2.333333333333333 3.1779513888888884  2.333333333333333 3.5  C 2.333333333333333 3.8220486111111107  2.447265625 4.097005208333333  2.675130208333333 4.324869791666667  C 2.902994791666667 4.552734375  3.1779513888888893 4.666666666666667  3.5 4.666666666666667  C 3.8220486111111116 4.666666666666667  4.097005208333334 4.552734375  4.324869791666666 4.324869791666667  Z M 4.771484375 2.228515625  C 5.120876736111112 2.5779079861111103  5.295572916666666 3.0017361111111103  5.295572916666666 3.5  C 5.295572916666666 3.9982638888888893  5.120876736111112 4.422092013888889  4.771484375 4.771484375  C 4.422092013888889 5.120876736111111  3.9982638888888893 5.295572916666666  3.5 5.295572916666666  C 3.001736111111111 5.295572916666666  2.577907986111111 5.120876736111111  2.228515625 4.771484375  C 1.879123263888889 4.422092013888889  1.7044270833333335 3.9982638888888893  1.7044270833333335 3.5  C 1.7044270833333335 3.0017361111111103  1.879123263888889 2.5779079861111103  2.228515625 2.228515625  C 2.577907986111111 1.8791232638888884  3.001736111111111 1.7044270833333335  3.5 1.7044270833333335  C 3.9982638888888893 1.7044270833333335  4.422092013888889 1.8791232638888884  4.771484375 2.228515625  Z M 5.664713541666666 1.3352864583333335  C 5.746744791666666 1.4173177083333335  5.787760416666666 1.5160590277777772  5.787760416666666 1.6315104166666665  C 5.787760416666666 1.7469618055555554  5.746744791666666 1.845703125  5.664713541666666 1.927734375  C 5.582682291666666 2.009765625  5.483940972222222 2.05078125  5.368489583333334 2.05078125  C 5.253038194444445 2.05078125  5.154296875 2.009765625  5.072265625 1.927734375  C 4.990234375 1.845703125  4.94921875 1.7469618055555554  4.94921875 1.6315104166666665  C 4.94921875 1.5160590277777772  4.990234375 1.4173177083333335  5.072265625 1.3352864583333335  C 5.154296875 1.2532552083333335  5.253038194444445 1.2122395833333335  5.368489583333334 1.2122395833333335  C 5.483940972222222 1.2122395833333335  5.582682291666666 1.2532552083333335  5.664713541666666 1.3352864583333335  Z M 3.8486328125 0.6266276041666664  C 3.6374782986111116 0.6281467013888883  3.5212673611111116 0.62890625  3.5 0.62890625  C 3.4787326388888893 0.62890625  3.3625217013888893 0.6281467013888883  3.1513671875 0.6266276041666664  C 2.940212673611111 0.6251085069444438  2.779947916666667 0.6251085069444438  2.670572916666667 0.6266276041666664  C 2.561197916666667 0.6281467013888883  2.4146050347222223 0.6327039930555555  2.230794270833333 0.6402994791666664  C 2.046983506944445 0.6478949652777773  1.8905164930555558 0.6630859375  1.7613932291666667 0.6858723958333336  C 1.632269965277778 0.7086588541666664  1.523654513888889 0.7367621527777773  1.435546875 0.7701822916666664  C 1.283637152777778 0.8309461805555555  1.1499565972222223 0.9190538194444438  1.0345052083333335 1.0345052083333335  C 0.9190538194444445 1.1499565972222219  0.8309461805555556 1.2836371527777772  0.7701822916666667 1.435546875  C 0.7367621527777778 1.5236545138888884  0.7086588541666667 1.6322699652777772  0.6858723958333333 1.7613932291666665  C 0.6630859375 1.8905164930555554  0.6478949652777778 2.0469835069444438  0.6402994791666667 2.2307942708333335  C 0.6327039930555556 2.414605034722222  0.628146701388889 2.5611979166666665  0.6266276041666667 2.6705729166666665  C 0.6251085069444445 2.7799479166666665  0.6251085069444445 2.9402126736111103  0.6266276041666667 3.1513671875  C 0.628146701388889 3.3625217013888884  0.62890625 3.4787326388888884  0.62890625 3.5  C 0.62890625 3.5212673611111107  0.628146701388889 3.6374782986111107  0.6266276041666667 3.8486328125  C 0.6251085069444445 4.059787326388889  0.6251085069444445 4.220052083333333  0.6266276041666667 4.329427083333333  C 0.628146701388889 4.438802083333333  0.6327039930555556 4.585394965277777  0.6402994791666667 4.769205729166667  C 0.6478949652777778 4.9530164930555545  0.6630859375 5.109483506944444  0.6858723958333333 5.238606770833333  C 0.7086588541666667 5.367730034722221  0.7367621527777778 5.47634548611111  0.7701822916666667 5.564453125  C 0.8309461805555556 5.716362847222221  0.9190538194444445 5.850043402777779  1.0345052083333335 5.965494791666666  C 1.1499565972222223 6.080946180555555  1.283637152777778 6.169053819444445  1.435546875 6.229817708333334  C 1.523654513888889 6.263237847222221  1.632269965277778 6.291341145833334  1.7613932291666667 6.314127604166666  C 1.8905164930555558 6.3369140625  2.046983506944445 6.352105034722221  2.230794270833333 6.359700520833334  C 2.4146050347222223 6.367296006944445  2.561197916666667 6.371853298611112  2.670572916666667 6.373372395833334  C 2.779947916666667 6.374891493055555  2.940212673611111 6.374891493055555  3.1513671875 6.373372395833334  C 3.3625217013888893 6.371853298611112  3.4787326388888893 6.37109375  3.5 6.37109375  C 3.5212673611111116 6.37109375  3.6374782986111116 6.371853298611112  3.8486328125 6.373372395833334  C 4.059787326388889 6.374891493055555  4.220052083333334 6.374891493055555  4.329427083333334 6.373372395833334  C 4.438802083333334 6.371853298611112  4.585394965277779 6.367296006944445  4.769205729166666 6.359700520833334  C 4.953016493055556 6.352105034722221  5.109483506944445 6.3369140625  5.238606770833334 6.314127604166666  C 5.367730034722222 6.291341145833334  5.476345486111112 6.263237847222221  5.564453125 6.229817708333334  C 5.716362847222222 6.169053819444445  5.850043402777779 6.080946180555555  5.965494791666666 5.965494791666666  C 6.080946180555556 5.850043402777779  6.169053819444445 5.716362847222221  6.229817708333334 5.564453125  C 6.263237847222222 5.47634548611111  6.291341145833334 5.367730034722221  6.314127604166666 5.238606770833333  C 6.3369140625 5.109483506944444  6.352105034722222 4.9530164930555545  6.359700520833334 4.769205729166667  C 6.367296006944445 4.585394965277777  6.371853298611112 4.438802083333333  6.373372395833334 4.329427083333333  C 6.374891493055556 4.220052083333333  6.374891493055556 4.059787326388889  6.373372395833334 3.8486328125  C 6.371853298611112 3.6374782986111107  6.37109375 3.5212673611111107  6.37109375 3.5  C 6.37109375 3.4787326388888884  6.371853298611112 3.3625217013888884  6.373372395833334 3.1513671875  C 6.374891493055556 2.9402126736111103  6.374891493055556 2.7799479166666665  6.373372395833334 2.6705729166666665  C 6.371853298611112 2.5611979166666665  6.367296006944445 2.414605034722222  6.359700520833334 2.2307942708333335  C 6.352105034722222 2.0469835069444438  6.3369140625 1.8905164930555554  6.314127604166666 1.7613932291666665  C 6.291341145833334 1.6322699652777772  6.263237847222222 1.5236545138888884  6.229817708333334 1.435546875  C 6.169053819444445 1.2836371527777772  6.080946180555556 1.1499565972222219  5.965494791666666 1.0345052083333335  C 5.850043402777779 0.9190538194444438  5.716362847222222 0.8309461805555555  5.564453125 0.7701822916666664  C 5.476345486111112 0.7367621527777773  5.367730034722222 0.7086588541666664  5.238606770833334 0.6858723958333336  C 5.109483506944445 0.6630859375  4.953016493055556 0.6478949652777773  4.769205729166666 0.6402994791666664  C 4.585394965277779 0.6327039930555555  4.438802083333334 0.6281467013888883  4.329427083333334 0.6266276041666664  C 4.220052083333334 0.6251085069444438  4.059787326388889 0.6251085069444438  3.8486328125 0.6266276041666664  Z M 6.977213541666666 2.0553385416666665  C 6.992404513888888 2.3226996527777772  7 2.804253472222222  7 3.5  C 7 4.195746527777779  6.992404513888888 4.677300347222221  6.977213541666666 4.944661458333333  C 6.946831597222222 5.576605902777779  6.758463541666666 6.065755208333334  6.412109375 6.412109375  C 6.065755208333334 6.758463541666666  5.576605902777779 6.946831597222221  4.944661458333334 6.977213541666666  C 4.677300347222222 6.992404513888888  4.195746527777779 7  3.5 7  C 2.8042534722222223 7  2.3226996527777777 6.992404513888888  2.055338541666667 6.977213541666666  C 1.4233940972222225 6.946831597222221  0.9342447916666667 6.758463541666666  0.587890625 6.412109375  C 0.24153645833333334 6.065755208333334  0.05316840277777778 5.576605902777779  0.022786458333333336 4.944661458333333  C 0.00759548611111111 4.677300347222221  0 4.195746527777779  0 3.5  C 0 2.804253472222222  0.00759548611111111 2.3226996527777772  0.022786458333333336 2.0553385416666665  C 0.05316840277777778 1.4233940972222219  0.24153645833333334 0.9342447916666664  0.587890625 0.587890625  C 0.9342447916666667 0.2415364583333336  1.4233940972222225 0.053168402777777346  2.055338541666667 0.022786458333333592  C 2.3226996527777777 0.007595486111110161  2.8042534722222223 0  3.5 0  C 4.195746527777779 0  4.677300347222222 0.007595486111110161  4.944661458333334 0.022786458333333592  C 5.576605902777779 0.053168402777777346  6.065755208333334 0.2415364583333336  6.412109375 0.587890625  C 6.758463541666666 0.9342447916666664  6.946831597222222 1.4233940972222219  6.977213541666666 2.0553385416666665  Z " fill-rule="nonzero" fill="#ffffff" stroke="none" transform="matrix(1 0 0 1 339 1623 )" />
  </g>
</svg>