<?xml version="1.0" encoding="utf-8"?>
<svg version="1.1" xmlns:xlink="http://www.w3.org/1999/xlink" width="25px" height="9px" xmlns="http://www.w3.org/2000/svg">
  <g transform="matrix(1 0 0 1 -115 -2315 )">
    <path d="M 10.730240549828176 0.0901803607214606  L 14.78789548991374 2.331926617957888  L 17.81730699771937 0.9721442885772013  C 17.924458823084255 0.9240480961924277  18.04768342225387 0.9  18.18698079522822 0.9  C 18.241268299544988 0.9  18.293114596143 0.9036525368153888  18.342519685052327 0.9109576104462486  C 18.382749543140008 0.9036525368153888  18.42496724179871 0.9  18.469172781028448 0.9  C 18.582600641878994 0.9  18.682940672631393 0.9240480961924277  18.77019287328566 0.9721442885772013  L 24.869121699018613 4.334068136272535  C 24.956373899672865 4.382164328657309  25 4.43747494989977  25 4.5  C 25 4.56252505010023  24.956373899672865 4.617835671342691  24.869121699018613 4.665931863727464  L 18.77019287328566 8.027855711422799  C 18.682940672631393 8.075951903807573  18.582600641878994 8.1  18.469172781028448 8.1  C 18.42496724179871 8.1  18.382749543140008 8.096347463184612  18.342519685022236 8.089042389553915  C 18.293114596143 8.096347463184612  18.241268299544988 8.1  18.18698079522822 8.1  C 18.04768342225387 8.1  17.924458823084255 8.075951903807573  17.81730699771937 8.027855711422799  L 14.787895518392489 6.668073333473239  L 10.730240549828176 8.909819639278538  C 10.62142038946163 8.969939879759485  10.49627720504009 9  10.354810996563572 9  C 10.299678245389405 9  10.247024711107201 8.995434328980764  10.196850393679417 8.986302986942373  C 10.135232810919916 8.995434328980764  10.07057057583701 9  10.002863688430699 9  C 9.82913325696831 9  9.675448644520813 8.969939879759485  9.541809851088203 8.909819639278538  L 0.20045819014891225 4.70741482965931  C 0.0668193967163025 4.647294589178364  0 4.578156312625288  0 4.5  C 0 4.421843687374712  0.0668193967163025 4.352705410821636  0.20045819014891225 4.29258517034069  L 9.541809851088203 0.0901803607214606  C 9.675448644520813 0.030060120240514153  9.82913325696831 0  10.002863688430699 0  C 10.07057057583701 0  10.135232810919916 0.004565671019236106  10.196850393716952 0.013697013057790173  C 10.247024711107201 0.004565671019236106  10.299678245389405 0  10.354810996563572 0  C 10.49627720504009 0  10.62142038946163 0.030060120240514153  10.730240549828176 0.0901803607214606  Z M 10.19686164123199 7.47303435536618  L 13.05873863746031 5.89192364912029  L 10.327394404713996 4.665931863727464  C 10.22024257934911 4.617835671342691  10.166666666666666 4.56252505010023  10.166666666666666 4.5  C 10.166666666666666 4.43747494989977  10.22024257934911 4.382164328657309  10.327394404713996 4.334068136272535  L 13.058747043217414 3.108072648236193  L 10.196868426997534 1.5269513180120156  L 3.5882016036655195 4.5  L 10.19686164123199 7.47303435536618  Z M 18.3425341441692 2.1215610544096126  L 16.171219913868846 3.0961765540391752  L 18.33676975945017 4.29258517034069  C 18.445589919816722 4.352705410821636  18.5 4.421843687374712  18.5 4.5  C 18.5 4.578156312625288  18.445589919816722 4.647294589178364  18.33676975945017 4.70741482965931  L 16.171224559379617 5.903819114630369  L 18.342528703330157 6.878427484292961  L 22.657278412433055 4.5  L 18.3425341441692 2.1215610544096126  Z M 15.578178694158073 4.5  L 14.442100197876972 3.872310711040591  L 13.043693177713797 4.5  L 14.442086606228902 5.127660621935756  L 15.578178694158073 4.5  Z " fill-rule="nonzero" fill="#ffffff" stroke="none" transform="matrix(1 0 0 1 115 2315 )" />
  </g>
</svg>