<?xml version="1.0" encoding="utf-8"?>
<svg version="1.1" xmlns:xlink="http://www.w3.org/1999/xlink" width="20px" height="7px" xmlns="http://www.w3.org/2000/svg">
  <g transform="matrix(1 0 0 1 -29 -1535 )">
    <path d="M 8.58419243986254 0.07014028056113603  L 11.830316391930992 1.8137207028561353  L 14.253845598175497 0.7561122244489343  C 14.339567058467404 0.7187040748163326  14.438146737803095 0.7000000000000001  14.549584636182576 0.7000000000000001  C 14.59301463963599 0.7000000000000001  14.634491676914399 0.7028408619675247  14.674015748041862 0.7085225859026377  C 14.706199634512007 0.7028408619675247  14.73997379343897 0.7000000000000001  14.775338224822757 0.7000000000000001  C 14.866080513503196 0.7000000000000001  14.946352538105113 0.7187040748163326  15.016154298628525 0.7561122244489343  L 19.89529735921489 3.3709418837675273  C 19.96509911973829 3.4083500334001293  20 3.4513694054775987  20 3.5  C 20 3.5486305945224013  19.96509911973829 3.5916499665998707  19.89529735921489 3.629058116232472  L 15.016154298628525 6.243887775551066  C 14.946352538105113 6.2812959251836675  14.866080513503196 6.3  14.775338224822757 6.3  C 14.73997379343897 6.3  14.706199634512007 6.297159138032476  14.674015748017787 6.291477414097489  C 14.634491676914399 6.297159138032476  14.59301463963599 6.3  14.549584636182576 6.3  C 14.438146737803095 6.3  14.339567058467404 6.2812959251836675  14.253845598175497 6.243887775551066  L 11.830316414713991 5.186279259368075  L 8.58419243986254 6.929859719438864  C 8.497136311569303 6.9766199064796  8.397021764032074 7  8.283848797250858 7  C 8.239742596311524 7  8.197619768885762 6.996448922540594  8.157480314943534 6.989346767621846  C 8.108186248735933 6.996448922540594  8.056456460669608 7  8.002290950744559 7  C 7.863306605574648 7  7.740358915616651 6.9766199064796  7.633447880870563 6.929859719438864  L 0.1603665521191298 3.661322645290575  C 0.05345551737304201 3.614562458249839  0 3.560788243153002  0 3.5  C 0 3.439211756846998  0.05345551737304201 3.385437541750161  0.1603665521191298 3.338677354709425  L 7.633447880870563 0.07014028056113603  C 7.740358915616651 0.023380093520399894  7.863306605574648 0  8.002290950744559 0  C 8.056456460669608 0  8.108186248735933 0.0035510774594058603  8.157480314973562 0.010653232378281245  C 8.197619768885762 0.0035510774594058603  8.239742596311524 0  8.283848797250858 0  C 8.397021764032074 0  8.497136311569303 0.023380093520399894  8.58419243986254 0.07014028056113603  Z M 8.157489312985591 5.812360054173696  L 10.446990909968248 4.582607282649114  L 8.261915523771195 3.629058116232472  C 8.176194063479286 3.5916499665998707  8.133333333333333 3.5486305945224013  8.133333333333333 3.5  C 8.133333333333333 3.4513694054775987  8.176194063479286 3.4083500334001293  8.261915523771195 3.3709418837675273  L 10.44699763457393 2.4173898375170393  L 8.157494741598029 1.1876288028982345  L 2.8705612829324156 3.5  L 8.157489312985591 5.812360054173696  Z M 14.674027315335358 1.6501030423185874  L 12.936975931095077 2.4081373198082474  L 14.669415807560139 3.338677354709425  C 14.756471935853376 3.385437541750161  14.8 3.439211756846998  14.8 3.5  C 14.8 3.560788243153002  14.756471935853376 3.614562458249839  14.669415807560139 3.661322645290575  L 12.936979647503692 4.591859311379175  L 14.674022962664123 5.349888043338969  L 18.125822729946442 3.5  L 14.674027315335358 1.6501030423185874  Z M 12.462542955326459 3.5  L 11.553680158301578 3.0117972196982374  L 10.434954542171038 3.5  L 11.55366928498312 3.9881804837278105  L 12.462542955326459 3.5  Z " fill-rule="nonzero" fill="#ffffff" stroke="none" transform="matrix(1 0 0 1 29 1535 )" />
  </g>
</svg>