<?xml version="1.0" encoding="utf-8"?>
<svg version="1.1" xmlns:xlink="http://www.w3.org/1999/xlink" width="18px" height="9px" xmlns="http://www.w3.org/2000/svg">
  <g transform="matrix(1 0 0 1 -347 -2420 )">
    <path d="M 9.961984536082475 9  C 9.911983978509994 9  9.86404973921098 8.99614397680106  9.818181818177525 8.988431930403257  C 9.763140312946856 8.99614397680106  9.70561922578802 9  9.645618556701027 9  C 9.478092783505154 9  9.329896907216494 8.969939879759485  9.20103092783505 8.909819639278538  L 0.19329896907216693 4.70741482965931  C 0.06443298969072409 4.647294589178364  0 4.578156312625288  0 4.5  C 0 4.421843687374712  0.06443298969072409 4.352705410821636  0.19329896907216693 4.29258517034069  L 9.20103092783505 0.0901803607214606  C 9.329896907216494 0.030060120240514153  9.478092783505154 0  9.645618556701027 0  C 9.70561922578802 0  9.763140312946856 0.0038560231989413296  9.818181818185428 0.011568069596742133  C 9.86404973921098 0.0038560231989413296  9.911983978509994 0  9.961984536082475 0  C 10.10158934707904 0  10.225085910652922 0.030060120240514153  10.332474226804122 0.0901803607214606  L 17.838917525773198 4.29258517034069  C 17.946305841924403 4.352705410821636  18 4.421843687374712  18 4.5  C 18 4.578156312625288  17.946305841924403 4.647294589178364  17.838917525773198 4.70741482965931  L 10.332474226804122 8.909819639278538  C 10.225085910652922 8.969939879759485  10.10158934707904 9  9.961984536082475 9  Z M 15.116623711340205 4.5  L 9.818216193417374 1.5337059522493746  L 3.460051546391755 4.5  L 9.818200200593024 7.4662677193634135  L 15.116623711340205 4.5  Z " fill-rule="nonzero" fill="#ffffff" stroke="none" transform="matrix(1 0 0 1 347 2420 )" />
  </g>
</svg>