<?xml version="1.0" encoding="utf-8"?>
<svg version="1.1" xmlns:xlink="http://www.w3.org/1999/xlink" width="13px" height="7px" xmlns="http://www.w3.org/2000/svg">
  <g transform="matrix(1 0 0 1 -192 -1607 )">
    <path d="M 7.194766609392898 7  C 7.158655095590552 7  7.124035922763486 6.997000870845268  7.09090909090599 6.991002612535867  C 7.05115689268384 6.997000870845268  7.009613885291348 7  6.966280068728519 7  C 6.845289232531501 7  6.738258877434134 6.9766199064796  6.645189003436426 6.929859719438864  L 0.139604810996565 3.661322645290575  C 0.04653493699885628 3.614562458249839  0 3.560788243153002  0 3.5  C 0 3.439211756846998  0.04653493699885628 3.385437541750161  0.139604810996565 3.338677354709425  L 6.645189003436426 0.07014028056113603  C 6.738258877434134 0.023380093520399894  6.845289232531501 0  6.966280068728519 0  C 7.009613885291348 0  7.05115689268384 0.002999129154732145  7.0909090909116985 0.008997387464132771  C 7.124035922763486 0.002999129154732145  7.158655095590552 0  7.194766609392898 0  C 7.29559230622375 0  7.3847842688048875 0.023380093520399894  7.4623424971363095 0.07014028056113603  L 12.883662657502866 3.338677354709425  C 12.96122088583429 3.385437541750161  13 3.439211756846998  13 3.5  C 13 3.560788243153002  12.96122088583429 3.614562458249839  12.883662657502866 3.661322645290575  L 7.4623424971363095 6.929859719438864  C 7.3847842688048875 6.9766199064796  7.29559230622375 7  7.194766609392898 7  Z M 10.91756156930126 3.5  L 7.090933917468103 1.192882407305069  L 2.4989261168384895 3.5  L 7.090922367094962 5.807097115060433  L 10.91756156930126 3.5  Z " fill-rule="nonzero" fill="#ffffff" stroke="none" transform="matrix(1 0 0 1 192 1607 )" />
  </g>
</svg>