<?xml version="1.0" encoding="utf-8"?>
<svg version="1.1" xmlns:xlink="http://www.w3.org/1999/xlink" width="18px" height="13px" xmlns="http://www.w3.org/2000/svg">
  <defs>
    <mask fill="white" id="clip27">
      <path d="M 17.843103626494816 6.200400801602989  C 17.947701208831557 6.287241148964099  18 6.387107548430696  18 6.5  C 18 6.612892451569303  17.947701208831557 6.712758851035901  17.843103626494816 6.799599198397011  L 10.531732621155621 12.86973947895764  C 10.427135038818886 12.95657982631875  10.306847819131615 13  10.170870962093886 13  C 10.12216978467518 13  10.075481227469634 12.99443018871254  10.03080529046959 12.983290566137358  C 9.977194166078789 12.99443018871254  9.921167897432118 13  9.86272648452973 13  C 9.699554256084411 13  9.555209592459656 12.95657982631875  9.42969249365554 12.86973947895764  L 0.6560472872485358 6.799599198397011  C 0.5305301884444209 6.712758851035901  0.4677716390423636 6.612892451569303  0.4677716390423636 6.5  C 0.4677716390423636 6.387107548430696  0.5305301884444209 6.287241148964099  0.6560472872485358 6.200400801602989  L 9.42969249365554 0.13026052104236013  C 9.555209592459656 0.043420173681250375  9.699554256084411 0  9.86272648452973 0  C 9.921167897432118 0  9.977194166078789 0.005569811287460545  10.030805290477323 0.016709433862642446  C 10.075481227469634 0.005569811287460545  10.12216978467518 0  10.170870962093886 0  C 10.306847819131615 0  10.427135038818886 0.043420173681250375  10.531732621155621 0.13026052104236013  L 17.843103626494816 6.200400801602989  Z " fill-rule="evenodd" />
    </mask>
  </defs>
  <g transform="matrix(1 0 0 1 -295 -516 )">
    <path d="M 17.843103626494816 6.200400801602989  C 17.947701208831557 6.287241148964099  18 6.387107548430696  18 6.5  C 18 6.612892451569303  17.947701208831557 6.712758851035901  17.843103626494816 6.799599198397011  L 10.531732621155621 12.86973947895764  C 10.427135038818886 12.95657982631875  10.306847819131615 13  10.170870962093886 13  C 10.12216978467518 13  10.075481227469634 12.99443018871254  10.03080529046959 12.983290566137358  C 9.977194166078789 12.99443018871254  9.921167897432118 13  9.86272648452973 13  C 9.699554256084411 13  9.555209592459656 12.95657982631875  9.42969249365554 12.86973947895764  L 0.6560472872485358 6.799599198397011  C 0.5305301884444209 6.712758851035901  0.4677716390423636 6.612892451569303  0.4677716390423636 6.5  C 0.4677716390423636 6.387107548430696  0.5305301884444209 6.287241148964099  0.6560472872485358 6.200400801602989  L 9.42969249365554 0.13026052104236013  C 9.555209592459656 0.043420173681250375  9.699554256084411 0  9.86272648452973 0  C 9.921167897432118 0  9.977194166078789 0.005569811287460545  10.030805290477323 0.016709433862642446  C 10.075481227469634 0.005569811287460545  10.12216978467518 0  10.170870962093886 0  C 10.306847819131615 0  10.427135038818886 0.043420173681250375  10.531732621155621 0.13026052104236013  L 17.843103626494816 6.200400801602989  Z " fill-rule="nonzero" fill="#ffffff" stroke="none" fill-opacity="0" transform="matrix(1 0 0 1 295 516 )" />
    <path d="M 17.843103626494816 6.200400801602989  C 17.947701208831557 6.287241148964099  18 6.387107548430696  18 6.5  C 18 6.612892451569303  17.947701208831557 6.712758851035901  17.843103626494816 6.799599198397011  L 10.531732621155621 12.86973947895764  C 10.427135038818886 12.95657982631875  10.306847819131615 13  10.170870962093886 13  C 10.12216978467518 13  10.075481227469634 12.99443018871254  10.03080529046959 12.983290566137358  C 9.977194166078789 12.99443018871254  9.921167897432118 13  9.86272648452973 13  C 9.699554256084411 13  9.555209592459656 12.95657982631875  9.42969249365554 12.86973947895764  L 0.6560472872485358 6.799599198397011  C 0.5305301884444209 6.712758851035901  0.4677716390423636 6.612892451569303  0.4677716390423636 6.5  C 0.4677716390423636 6.387107548430696  0.5305301884444209 6.287241148964099  0.6560472872485358 6.200400801602989  L 9.42969249365554 0.13026052104236013  C 9.555209592459656 0.043420173681250375  9.699554256084411 0  9.86272648452973 0  C 9.921167897432118 0  9.977194166078789 0.005569811287460545  10.030805290477323 0.016709433862642446  C 10.075481227469634 0.005569811287460545  10.12216978467518 0  10.170870962093886 0  C 10.306847819131615 0  10.427135038818886 0.043420173681250375  10.531732621155621 0.13026052104236013  L 17.843103626494816 6.200400801602989  Z " stroke-width="4" stroke="#ffffff" fill="none" transform="matrix(1 0 0 1 295 516 )" mask="url(#clip27)" />
  </g>
</svg>