<?xml version="1.0" encoding="utf-8"?>
<svg version="1.1" xmlns:xlink="http://www.w3.org/1999/xlink" width="233px" height="481px" xmlns="http://www.w3.org/2000/svg">
  <defs>
    <linearGradient gradientUnits="userSpaceOnUse" x1="116.5" y1="0" x2="116.5" y2="481" id="LinearGradient204">
      <stop id="Stop205" stop-color="#3594dd" offset="0" />
      <stop id="Stop206" stop-color="#4563db" offset="0.36" />
      <stop id="Stop207" stop-color="#5036d5" offset="0.72" />
      <stop id="Stop208" stop-color="#5b16d0" offset="1" />
    </linearGradient>
  </defs>
  <g transform="matrix(1 0 0 1 -131 -4322 )">
    <path d="M 211.36488146522754 0.3844571014793235  C 222.98545925825474 0.3844571014793235  232.4060765252224 9.236985625473809  232 20.157741937492176  L 232 460.6307978517917  C 232.40027334910388 471.5568618671449  222.97433896143644 480.41124439984475  211.348111516271 480  L 21.073514033329563 480  C 21.062641374086223 480.4128364519098  21.051768703431673 480.4128443773739  21.040896031105714 480.4128443773739  C 9.441018538602103 480.4128443773739  0.03244841675378666 471.5845088970014  0 460.6832191845081  L 0 20.17523759375074  C 0.01455843431008835 20.174943441187537  0.014558427331464258 20.17464928818884  0.014558427331464258 20.174355135625323  C 0.014558427331464258 9.24469970284029  9.442574442099758 0.38446335220453504  21.072621585120178 0.38446335220453504  C 21.07291906775413 0.38446335220453504  21.073216550695832 0.3844633581286255  21.073514033329563 1  L 49.55194700585786 1  L 49.551947005857905 3.8183450858246677  C 49.552032721602046 12.818189197347209  57.315355246198074 20.113984232738378  66.89192533484639 21  L 163.66090318224204 21  C 173.2374773412376 20.113996315568837  181.00080517821655 12.818193022597129  181.0008737509934 3.8183450858246677  L 181.0008737509934 1  L 211.34812703674527 1  C 211.35371184513215 0.3844591909786573  211.35929665507032 0.3844571014793235  211.36488146522754 0.3844571014793235  Z " fill-rule="nonzero" fill="url(#LinearGradient204)" stroke="none" transform="matrix(1 0 0 1 131 4322 )" />
  </g>
</svg>