<?xml version="1.0" encoding="utf-8"?>
<svg version="1.1" xmlns:xlink="http://www.w3.org/1999/xlink" width="233px" height="505px" xmlns="http://www.w3.org/2000/svg">
  <defs>
    <linearGradient gradientUnits="userSpaceOnUse" x1="116.5" y1="0" x2="116.5" y2="505" id="LinearGradient209">
      <stop id="Stop210" stop-color="#3594dd" offset="0" />
      <stop id="Stop211" stop-color="#4563db" offset="0.36" />
      <stop id="Stop212" stop-color="#5036d5" offset="0.72" />
      <stop id="Stop213" stop-color="#5b16d0" offset="1" />
    </linearGradient>
  </defs>
  <g transform="matrix(1 0 0 1 -559 -4311 )">
    <path d="M 211.36488146522754 0.40363999219762653  C 222.98545925825474 0.40363999219762653  232.4060765252224 9.697874721131546  232 21.163533634996984  L 232 483.614455125062  C 232.40027334910388 495.0856865756927  222.97433896143644 504.3818678210428  211.348111516271 504  L 21.073514033329563 504  C 21.062641374086223 504.38353931021715  21.051768703431673 504.38354763113057  21.040896031105714 504.38354763113057  C 9.441018538602103 504.38354763113057  0.03244841675378666 495.11471308313037  0 483.6694920752112  L 0 21.181902255393187  C 0.01455843431008835 21.181593425779013  0.014558427331464258 21.181284595707616  0.014558427331464258 21.180975766093113  C 0.014558427331464258 9.705973700487206  9.442574442099758 0.40364655480933515  21.072621585120178 0.40364655480933515  C 21.07291906775413 0.40364655480933515  21.073216550695832 0.4036465610290143  21.073514033329563 1  L 49.55194700585786 1  L 49.551947005857905 4.008865422747312  C 49.552032721602046 13.457766205115052  57.315355246198074 21.117592593623453  66.89192533484639 22  L 163.66090318224204 22  C 173.2374773412376 21.117605279339426  181.00080517821655 13.457770221229834  181.0008737509934 4.008865422747312  L 181.0008737509934 1  L 211.34812703674527 1  C 211.35371184513215 0.40364218595472334  211.35929665507032 0.40363999219762653  211.36488146522754 0.40363999219762653  Z " fill-rule="nonzero" fill="url(#LinearGradient209)" stroke="none" transform="matrix(1 0 0 1 559 4311 )" />
  </g>
</svg>