<?xml version="1.0" encoding="utf-8"?>
<svg version="1.1" xmlns:xlink="http://www.w3.org/1999/xlink" width="17px" height="15px" xmlns="http://www.w3.org/2000/svg">
  <defs>
    <mask fill="white" id="clip197">
      <path d="M 2.55 14.855769230769232  L 6.800000000000001 14.855769230769232  L 6.800000000000001 9.663461538461538  L 10.2 9.663461538461538  L 10.2 14.855769230769232  L 14.45 14.855769230769232  L 14.45 7.9326923076923075  L 17 7.9326923076923075  L 8.5 0.14423076923076872  L 0 7.9326923076923075  L 2.55 7.9326923076923075  L 2.55 14.855769230769232  Z " fill-rule="evenodd" />
    </mask>
  </defs>
  <g transform="matrix(1 0 0 1 -368 -3535 )">
    <path d="M 2.55 14.855769230769232  L 6.800000000000001 14.855769230769232  L 6.800000000000001 9.663461538461538  L 10.2 9.663461538461538  L 10.2 14.855769230769232  L 14.45 14.855769230769232  L 14.45 7.9326923076923075  L 17 7.9326923076923075  L 8.5 0.14423076923076872  L 0 7.9326923076923075  L 2.55 7.9326923076923075  L 2.55 14.855769230769232  Z " fill-rule="nonzero" fill="#000000" stroke="none" fill-opacity="0" transform="matrix(1 0 0 1 368 3535 )" />
    <path d="M 2.55 14.855769230769232  L 6.800000000000001 14.855769230769232  L 6.800000000000001 9.663461538461538  L 10.2 9.663461538461538  L 10.2 14.855769230769232  L 14.45 14.855769230769232  L 14.45 7.9326923076923075  L 17 7.9326923076923075  L 8.5 0.14423076923076872  L 0 7.9326923076923075  L 2.55 7.9326923076923075  L 2.55 14.855769230769232  Z " stroke-width="2" stroke="#000000" fill="none" transform="matrix(1 0 0 1 368 3535 )" mask="url(#clip197)" />
  </g>
</svg>