<?xml version="1.0" encoding="utf-8"?>
<svg version="1.1" xmlns:xlink="http://www.w3.org/1999/xlink" width="20px" height="20px" xmlns="http://www.w3.org/2000/svg">
  <defs>
    <mask fill="white" id="clip189">
      <path d="M 19.999351680767607 9.999675840383809  C 19.999351680767607 4.4770073704884075  15.522344310279205 0  9.999675840383809 0  C 4.477007370488407 0  0 4.477007370488406  0 9.999675840383805  C 0 15.522344310279202  4.477007370488407 19.999351680767607  9.999675840383805 19.999351680767607  C 15.522344310279204 19.999351680767607  19.999351680767607 15.522344310279202  19.999351680767607 9.999675840383805  Z M 10.000324159616197 18.748743881487247  L 9.999675840383809 18.750040519952027  C 8.80930323537232 18.751057695027157  7.631325372447909 18.508357629618494  6.538299458653442 18.03688936432299  L 11.092093746961005 12.91516742844176  C 11.193602328312844 12.800791423090313  11.249653291230723 12.653167487833343  11.249635320431778 12.500243119712145  L 11.249635320431778 10.624655580407792  C 11.249635320431778 10.27948880103933  10.969822359776256 9.999675840383809  10.624655580407794 9.999675840383805  C 8.420370190281695 9.999675840383805  6.0864209536775915 7.705274076955493  6.066323057473502 7.682582903821843  C 5.949024119971371 7.565403982609221  5.789970203168645 7.499636820529502  5.624169340983501 7.499756880287855  L 3.124898700119939 7.499756880287855  C 2.779731920751477 7.499756880287855  2.4999189600959517 7.77956984094338  2.4999189600959513 8.124736620311841  L 2.4999189600959517 11.874615060455769  C 2.4999888805065407 12.111303156917177  2.633758846096791 12.327644076877391  2.845473110959836 12.433466238775972  L 4.9998379201919025 13.5109728030082  L 4.9998379201919025 17.180459658335764  C 1.4907286530371788 14.736247670575366  0.2617218385739426 10.114107386870225  2.093422801387403 6.249797400239878  L 4.374858180167915 6.249797400239878  C 4.5404344085251145 6.24974557306424  4.6992235510227855 6.183991478814103  4.816363577425524 6.06697137670589  L 7.316930856753866 3.567052416609939  C 7.434109777966488 3.4497534791078093  7.4998769400462075 3.2906995623050816  7.499756880287855 3.124898700119939  L 7.499756880287853 1.6130182501863919  C 9.601549601906823 0.9885039812710197  11.861000932310457 1.1735342877837542  13.833187461506046 2.131673636098415  C 13.752147557457292 2.199747155499369  13.673700930338102 2.2717105902946617  13.59784758014847 2.346915621251905  C 12.894729417131085 3.0502436282429386  12.499739381801184 4.004035175082887  12.499739381801184 4.998542810339105  C 12.499739381801184 7.068579282232338  14.176844335491058 8.747199100727697  16.246879963694123 8.74906804110344  C 16.308686397181976 8.74906804110344  16.37070893708062 8.747555296227864  16.43294758339006 8.744529806476711  C 16.989363835364884 11.143955148381888  16.932956508599332 13.644828604228403  16.268922817595385 16.016726636195664  C 16.260718204659536 16.050149463035567  16.255296999067916 16.08419463415094  16.252714836785632 16.1185127556809  C 14.60880816702009 17.802907402771787  12.35396114256367 18.751467583010243  10.000324159616197 18.748743881487247  Z " fill-rule="evenodd" />
    </mask>
  </defs>
  <g transform="matrix(1 0 0 1 -1276 -603 )">
    <path d="M 19.999351680767607 9.999675840383809  C 19.999351680767607 4.4770073704884075  15.522344310279205 0  9.999675840383809 0  C 4.477007370488407 0  0 4.477007370488406  0 9.999675840383805  C 0 15.522344310279202  4.477007370488407 19.999351680767607  9.999675840383805 19.999351680767607  C 15.522344310279204 19.999351680767607  19.999351680767607 15.522344310279202  19.999351680767607 9.999675840383805  Z M 10.000324159616197 18.748743881487247  L 9.999675840383809 18.750040519952027  C 8.80930323537232 18.751057695027157  7.631325372447909 18.508357629618494  6.538299458653442 18.03688936432299  L 11.092093746961005 12.91516742844176  C 11.193602328312844 12.800791423090313  11.249653291230723 12.653167487833343  11.249635320431778 12.500243119712145  L 11.249635320431778 10.624655580407792  C 11.249635320431778 10.27948880103933  10.969822359776256 9.999675840383809  10.624655580407794 9.999675840383805  C 8.420370190281695 9.999675840383805  6.0864209536775915 7.705274076955493  6.066323057473502 7.682582903821843  C 5.949024119971371 7.565403982609221  5.789970203168645 7.499636820529502  5.624169340983501 7.499756880287855  L 3.124898700119939 7.499756880287855  C 2.779731920751477 7.499756880287855  2.4999189600959517 7.77956984094338  2.4999189600959513 8.124736620311841  L 2.4999189600959517 11.874615060455769  C 2.4999888805065407 12.111303156917177  2.633758846096791 12.327644076877391  2.845473110959836 12.433466238775972  L 4.9998379201919025 13.5109728030082  L 4.9998379201919025 17.180459658335764  C 1.4907286530371788 14.736247670575366  0.2617218385739426 10.114107386870225  2.093422801387403 6.249797400239878  L 4.374858180167915 6.249797400239878  C 4.5404344085251145 6.24974557306424  4.6992235510227855 6.183991478814103  4.816363577425524 6.06697137670589  L 7.316930856753866 3.567052416609939  C 7.434109777966488 3.4497534791078093  7.4998769400462075 3.2906995623050816  7.499756880287855 3.124898700119939  L 7.499756880287853 1.6130182501863919  C 9.601549601906823 0.9885039812710197  11.861000932310457 1.1735342877837542  13.833187461506046 2.131673636098415  C 13.752147557457292 2.199747155499369  13.673700930338102 2.2717105902946617  13.59784758014847 2.346915621251905  C 12.894729417131085 3.0502436282429386  12.499739381801184 4.004035175082887  12.499739381801184 4.998542810339105  C 12.499739381801184 7.068579282232338  14.176844335491058 8.747199100727697  16.246879963694123 8.74906804110344  C 16.308686397181976 8.74906804110344  16.37070893708062 8.747555296227864  16.43294758339006 8.744529806476711  C 16.989363835364884 11.143955148381888  16.932956508599332 13.644828604228403  16.268922817595385 16.016726636195664  C 16.260718204659536 16.050149463035567  16.255296999067916 16.08419463415094  16.252714836785632 16.1185127556809  C 14.60880816702009 17.802907402771787  12.35396114256367 18.751467583010243  10.000324159616197 18.748743881487247  Z " fill-rule="nonzero" fill="#000000" stroke="none" fill-opacity="0.996078431372549" transform="matrix(1 0 0 1 1276 603 )" />
    <path d="M 19.999351680767607 9.999675840383809  C 19.999351680767607 4.4770073704884075  15.522344310279205 0  9.999675840383809 0  C 4.477007370488407 0  0 4.477007370488406  0 9.999675840383805  C 0 15.522344310279202  4.477007370488407 19.999351680767607  9.999675840383805 19.999351680767607  C 15.522344310279204 19.999351680767607  19.999351680767607 15.522344310279202  19.999351680767607 9.999675840383805  Z " stroke-width="2" stroke="#ffffff" fill="none" transform="matrix(1 0 0 1 1276 603 )" mask="url(#clip189)" />
    <path d="M 10.000324159616197 18.748743881487247  L 9.999675840383809 18.750040519952027  C 8.80930323537232 18.751057695027157  7.631325372447909 18.508357629618494  6.538299458653442 18.03688936432299  L 11.092093746961005 12.91516742844176  C 11.193602328312844 12.800791423090313  11.249653291230723 12.653167487833343  11.249635320431778 12.500243119712145  L 11.249635320431778 10.624655580407792  C 11.249635320431778 10.27948880103933  10.969822359776256 9.999675840383809  10.624655580407794 9.999675840383805  C 8.420370190281695 9.999675840383805  6.0864209536775915 7.705274076955493  6.066323057473502 7.682582903821843  C 5.949024119971371 7.565403982609221  5.789970203168645 7.499636820529502  5.624169340983501 7.499756880287855  L 3.124898700119939 7.499756880287855  C 2.779731920751477 7.499756880287855  2.4999189600959517 7.77956984094338  2.4999189600959513 8.124736620311841  L 2.4999189600959517 11.874615060455769  C 2.4999888805065407 12.111303156917177  2.633758846096791 12.327644076877391  2.845473110959836 12.433466238775972  L 4.9998379201919025 13.5109728030082  L 4.9998379201919025 17.180459658335764  C 1.4907286530371788 14.736247670575366  0.2617218385739426 10.114107386870225  2.093422801387403 6.249797400239878  L 4.374858180167915 6.249797400239878  C 4.5404344085251145 6.24974557306424  4.6992235510227855 6.183991478814103  4.816363577425524 6.06697137670589  L 7.316930856753866 3.567052416609939  C 7.434109777966488 3.4497534791078093  7.4998769400462075 3.2906995623050816  7.499756880287855 3.124898700119939  L 7.499756880287853 1.6130182501863919  C 9.601549601906823 0.9885039812710197  11.861000932310457 1.1735342877837542  13.833187461506046 2.131673636098415  C 13.752147557457292 2.199747155499369  13.673700930338102 2.2717105902946617  13.59784758014847 2.346915621251905  C 12.894729417131085 3.0502436282429386  12.499739381801184 4.004035175082887  12.499739381801184 4.998542810339105  C 12.499739381801184 7.068579282232338  14.176844335491058 8.747199100727697  16.246879963694123 8.74906804110344  C 16.308686397181976 8.74906804110344  16.37070893708062 8.747555296227864  16.43294758339006 8.744529806476711  C 16.989363835364884 11.143955148381888  16.932956508599332 13.644828604228403  16.268922817595385 16.016726636195664  C 16.260718204659536 16.050149463035567  16.255296999067916 16.08419463415094  16.252714836785632 16.1185127556809  C 14.60880816702009 17.802907402771787  12.35396114256367 18.751467583010243  10.000324159616197 18.748743881487247  Z " stroke-width="2" stroke="#ffffff" fill="none" transform="matrix(1 0 0 1 1276 603 )" mask="url(#clip189)" />
  </g>
</svg>