<?xml version="1.0" encoding="utf-8"?>
<svg version="1.1" xmlns:xlink="http://www.w3.org/1999/xlink" width="23px" height="20px" xmlns="http://www.w3.org/2000/svg">
  <defs>
    <mask fill="white" id="clip215">
      <path d="M 3.4499999999999997 19.807692307692307  L 9.200000000000001 19.807692307692307  L 9.200000000000001 12.884615384615385  L 13.799999999999999 12.884615384615385  L 13.799999999999999 19.807692307692307  L 19.55 19.807692307692307  L 19.55 10.576923076923077  L 23 10.576923076923077  L 11.5 0.19230769230769162  L 0 10.576923076923077  L 3.4499999999999997 10.576923076923077  L 3.4499999999999997 19.807692307692307  Z " fill-rule="evenodd" />
    </mask>
  </defs>
  <g transform="matrix(1 0 0 1 -579 -4793 )">
    <path d="M 3.4499999999999997 19.807692307692307  L 9.200000000000001 19.807692307692307  L 9.200000000000001 12.884615384615385  L 13.799999999999999 12.884615384615385  L 13.799999999999999 19.807692307692307  L 19.55 19.807692307692307  L 19.55 10.576923076923077  L 23 10.576923076923077  L 11.5 0.19230769230769162  L 0 10.576923076923077  L 3.4499999999999997 10.576923076923077  L 3.4499999999999997 19.807692307692307  Z " fill-rule="nonzero" fill="#ffffff" stroke="none" transform="matrix(1 0 0 1 579 4793 )" />
    <path d="M 3.4499999999999997 19.807692307692307  L 9.200000000000001 19.807692307692307  L 9.200000000000001 12.884615384615385  L 13.799999999999999 12.884615384615385  L 13.799999999999999 19.807692307692307  L 19.55 19.807692307692307  L 19.55 10.576923076923077  L 23 10.576923076923077  L 11.5 0.19230769230769162  L 0 10.576923076923077  L 3.4499999999999997 10.576923076923077  L 3.4499999999999997 19.807692307692307  Z " stroke-width="2" stroke="#ffffff" fill="none" transform="matrix(1 0 0 1 579 4793 )" mask="url(#clip215)" />
  </g>
</svg>