<?xml version="1.0" encoding="utf-8"?>
<svg version="1.1" xmlns:xlink="http://www.w3.org/1999/xlink" width="15px" height="15px" xmlns="http://www.w3.org/2000/svg">
  <defs>
    <mask fill="white" id="clip196">
      <path d="M 14.999513760575706 7.4997568802878565  C 14.999513760575706 3.357755527866306  11.641758232709405 0  7.4997568802878565 0  C 3.3577555278663045 0  0 3.357755527866304  0 7.499756880287855  C 0 11.641758232709401  3.3577555278663045 14.999513760575706  7.499756880287855 14.999513760575706  C 11.641758232709403 14.999513760575706  14.999513760575706 11.641758232709401  14.999513760575706 7.499756880287855  Z M 7.500243119712147 14.061557911115434  L 7.4997568802878565 14.06253038996402  C 6.60697742652924 14.063293271270368  5.7234940293359315 13.881268222213869  4.9037245939900815 13.527667023242245  L 8.319070310220754 9.68637557133132  C 8.395201746234633 9.600593567317736  8.437239968423043 9.489875615875007  8.437226490323834 9.375182339784109  L 8.437226490323834 7.968491685305843  C 8.437226490323834 7.709616600779497  8.22736676983219 7.4997568802878565  7.968491685305845 7.499756880287855  C 6.315277642711271 7.499756880287855  4.564815715258193 5.778955557716619  4.549742293105126 5.761937177866383  C 4.461768089978529 5.674052986956916  4.342477652376484 5.624727615397126  4.218127005737626 5.624817660215891  L 2.343674025089954 5.624817660215891  C 2.0847989405636076 5.624817660215891  1.874939220071964 5.834677380707535  1.8749392200719635 6.0935524652338815  L 1.874939220071964 8.905961295341827  C 1.8749916603799055 9.083477367687882  1.9753191345725931 9.245733057658043  2.1341048332198773 9.32509967908198  L 3.7498784401439273 10.133229602256149  L 3.7498784401439273 12.885344743751823  C 1.1180464897778841 11.052185752931525  0.19629137893045695 7.5855805401526695  1.5700671010405525 4.687348050179908  L 3.281143635125936 4.687348050179908  C 3.405325806393836 4.687309179798181  3.5244176632670894 4.637993609110577  3.6122726830691434 4.550228532529418  L 5.4876981425653995 2.675289312457454  C 5.575582333474866 2.587315109330857  5.624907705034656 2.468024671728811  5.624817660215891 2.343674025089954  L 5.62481766021589 1.209763687639794  C 7.201162201430118 0.7413779859532648  8.895750699232842 0.8801507158378157  10.374890596129536 1.5987552270738112  C 10.314110668092969 1.6498103666245267  10.255275697753577 1.7037829427209963  10.198385685111353 1.7601867159389286  C 9.671047062848315 2.287682721182204  9.374804536350888 3.0030263813121656  9.374804536350888 3.7489071077543286  C 9.374804536350888 5.301434461674253  10.632633251618294 6.560399325545773  12.185159972770592 6.56180103082758  C 12.231514797886481 6.5618010308275805  12.278031702810464 6.560666472170897  12.324710687542545 6.558397354857533  C 12.742022876523663 8.357966361286415  12.6997173814495 10.233621453171303  12.201692113196538 12.012544977146748  C 12.195538653494653 12.037612097276675  12.191472749300937 12.063145975613207  12.189536127589225 12.088884566760676  C 10.956606125265068 13.352180552078842  9.265470856922752 14.063600687257683  7.500243119712147 14.061557911115434  Z " fill-rule="evenodd" />
    </mask>
  </defs>
  <g transform="matrix(1 0 0 1 -729 -3365 )">
    <path d="M 14.999513760575706 7.4997568802878565  C 14.999513760575706 3.357755527866306  11.641758232709405 0  7.4997568802878565 0  C 3.3577555278663045 0  0 3.357755527866304  0 7.499756880287855  C 0 11.641758232709401  3.3577555278663045 14.999513760575706  7.499756880287855 14.999513760575706  C 11.641758232709403 14.999513760575706  14.999513760575706 11.641758232709401  14.999513760575706 7.499756880287855  Z M 7.500243119712147 14.061557911115434  L 7.4997568802878565 14.06253038996402  C 6.60697742652924 14.063293271270368  5.7234940293359315 13.881268222213869  4.9037245939900815 13.527667023242245  L 8.319070310220754 9.68637557133132  C 8.395201746234633 9.600593567317736  8.437239968423043 9.489875615875007  8.437226490323834 9.375182339784109  L 8.437226490323834 7.968491685305843  C 8.437226490323834 7.709616600779497  8.22736676983219 7.4997568802878565  7.968491685305845 7.499756880287855  C 6.315277642711271 7.499756880287855  4.564815715258193 5.778955557716619  4.549742293105126 5.761937177866383  C 4.461768089978529 5.674052986956916  4.342477652376484 5.624727615397126  4.218127005737626 5.624817660215891  L 2.343674025089954 5.624817660215891  C 2.0847989405636076 5.624817660215891  1.874939220071964 5.834677380707535  1.8749392200719635 6.0935524652338815  L 1.874939220071964 8.905961295341827  C 1.8749916603799055 9.083477367687882  1.9753191345725931 9.245733057658043  2.1341048332198773 9.32509967908198  L 3.7498784401439273 10.133229602256149  L 3.7498784401439273 12.885344743751823  C 1.1180464897778841 11.052185752931525  0.19629137893045695 7.5855805401526695  1.5700671010405525 4.687348050179908  L 3.281143635125936 4.687348050179908  C 3.405325806393836 4.687309179798181  3.5244176632670894 4.637993609110577  3.6122726830691434 4.550228532529418  L 5.4876981425653995 2.675289312457454  C 5.575582333474866 2.587315109330857  5.624907705034656 2.468024671728811  5.624817660215891 2.343674025089954  L 5.62481766021589 1.209763687639794  C 7.201162201430118 0.7413779859532648  8.895750699232842 0.8801507158378157  10.374890596129536 1.5987552270738112  C 10.314110668092969 1.6498103666245267  10.255275697753577 1.7037829427209963  10.198385685111353 1.7601867159389286  C 9.671047062848315 2.287682721182204  9.374804536350888 3.0030263813121656  9.374804536350888 3.7489071077543286  C 9.374804536350888 5.301434461674253  10.632633251618294 6.560399325545773  12.185159972770592 6.56180103082758  C 12.231514797886481 6.5618010308275805  12.278031702810464 6.560666472170897  12.324710687542545 6.558397354857533  C 12.742022876523663 8.357966361286415  12.6997173814495 10.233621453171303  12.201692113196538 12.012544977146748  C 12.195538653494653 12.037612097276675  12.191472749300937 12.063145975613207  12.189536127589225 12.088884566760676  C 10.956606125265068 13.352180552078842  9.265470856922752 14.063600687257683  7.500243119712147 14.061557911115434  Z " fill-rule="nonzero" fill="#ffffff" stroke="none" transform="matrix(1 0 0 1 729 3365 )" />
    <path d="M 14.999513760575706 7.4997568802878565  C 14.999513760575706 3.357755527866306  11.641758232709405 0  7.4997568802878565 0  C 3.3577555278663045 0  0 3.357755527866304  0 7.499756880287855  C 0 11.641758232709401  3.3577555278663045 14.999513760575706  7.499756880287855 14.999513760575706  C 11.641758232709403 14.999513760575706  14.999513760575706 11.641758232709401  14.999513760575706 7.499756880287855  Z " stroke-width="2" stroke="#000000" fill="none" transform="matrix(1 0 0 1 729 3365 )" mask="url(#clip196)" />
    <path d="M 7.500243119712147 14.061557911115434  L 7.4997568802878565 14.06253038996402  C 6.60697742652924 14.063293271270368  5.7234940293359315 13.881268222213869  4.9037245939900815 13.527667023242245  L 8.319070310220754 9.68637557133132  C 8.395201746234633 9.600593567317736  8.437239968423043 9.489875615875007  8.437226490323834 9.375182339784109  L 8.437226490323834 7.968491685305843  C 8.437226490323834 7.709616600779497  8.22736676983219 7.4997568802878565  7.968491685305845 7.499756880287855  C 6.315277642711271 7.499756880287855  4.564815715258193 5.778955557716619  4.549742293105126 5.761937177866383  C 4.461768089978529 5.674052986956916  4.342477652376484 5.624727615397126  4.218127005737626 5.624817660215891  L 2.343674025089954 5.624817660215891  C 2.0847989405636076 5.624817660215891  1.874939220071964 5.834677380707535  1.8749392200719635 6.0935524652338815  L 1.874939220071964 8.905961295341827  C 1.8749916603799055 9.083477367687882  1.9753191345725931 9.245733057658043  2.1341048332198773 9.32509967908198  L 3.7498784401439273 10.133229602256149  L 3.7498784401439273 12.885344743751823  C 1.1180464897778841 11.052185752931525  0.19629137893045695 7.5855805401526695  1.5700671010405525 4.687348050179908  L 3.281143635125936 4.687348050179908  C 3.405325806393836 4.687309179798181  3.5244176632670894 4.637993609110577  3.6122726830691434 4.550228532529418  L 5.4876981425653995 2.675289312457454  C 5.575582333474866 2.587315109330857  5.624907705034656 2.468024671728811  5.624817660215891 2.343674025089954  L 5.62481766021589 1.209763687639794  C 7.201162201430118 0.7413779859532648  8.895750699232842 0.8801507158378157  10.374890596129536 1.5987552270738112  C 10.314110668092969 1.6498103666245267  10.255275697753577 1.7037829427209963  10.198385685111353 1.7601867159389286  C 9.671047062848315 2.287682721182204  9.374804536350888 3.0030263813121656  9.374804536350888 3.7489071077543286  C 9.374804536350888 5.301434461674253  10.632633251618294 6.560399325545773  12.185159972770592 6.56180103082758  C 12.231514797886481 6.5618010308275805  12.278031702810464 6.560666472170897  12.324710687542545 6.558397354857533  C 12.742022876523663 8.357966361286415  12.6997173814495 10.233621453171303  12.201692113196538 12.012544977146748  C 12.195538653494653 12.037612097276675  12.191472749300937 12.063145975613207  12.189536127589225 12.088884566760676  C 10.956606125265068 13.352180552078842  9.265470856922752 14.063600687257683  7.500243119712147 14.061557911115434  Z " stroke-width="2" stroke="#000000" fill="none" transform="matrix(1 0 0 1 729 3365 )" mask="url(#clip196)" />
  </g>
</svg>