<?xml version="1.0" encoding="utf-8"?>
<svg version="1.1" xmlns:xlink="http://www.w3.org/1999/xlink" width="15px" height="15px" xmlns="http://www.w3.org/2000/svg">
  <g transform="matrix(1 0 0 1 -487 -3253 )">
    <path d="M 15 7.5  C 14.987917531644399 3.3628794337922057  11.637120566207795 0.012082468355601783  7.5 0  C 3.3578643762690508 0  0 3.3578643762690494  0 7.5  C 0 11.642135623730951  3.3578643762690508 15  7.500000000000002 15  C 11.642135623730953 15  15 11.642135623730951  15 7.5  Z M 8.25 6.75  L 8.250000000000002 1.552500000000001  C 10.964638246745709 1.8987740996755733  13.10242051209128 4.035528585085883  13.45 6.75  L 8.25 6.75  Z M 7 13.455000000000002  C 3.755523236454272 13.065060630834552  1.511535031004898 10.519736866367694  1.5 7.5  C 1.508112488825799 4.479917741546162  3.7544304425552406 1.934090727319462  7 1.5500000000000003  L 7 13.455000000000002  Z M 13.449999999999998 8.25  C 13.106489168076713 10.9669235366466  10.9669235366466 13.106489168076713  8.25 13.45  L 8.25 8.25  L 13.449999999999998 8.25  Z " fill-rule="nonzero" fill="#d7d7d7" stroke="none" transform="matrix(1 0 0 1 487 3253 )" />
  </g>
</svg>