<?xml version="1.0" encoding="utf-8"?>
<svg version="1.1" xmlns:xlink="http://www.w3.org/1999/xlink" width="63px" height="177px" xmlns="http://www.w3.org/2000/svg">
  <g transform="matrix(1 0 0 1 -178 -786 )">
    <path d="M 61.10336629726505 122.46347402371396  L 62.71437668243713 175.96027375171343  C 42.99753316242085 179.36399669386935  24.93978988982059 169.6050367725737  24.93978988982059 169.6050367725737  L 25.11291339389878 166.29856305733648  C 25.11291339389878 166.29856305733648  25.56014911276745 128.81384854150772  24.319430666873757 125.94013388605894  C 23.07871222098006 123.06641923061017  22.112105989876824 108.4936225768368  22.814217978638357 106.2568903577057  C 23.51632996739992 104.02015813857464  20.251028321036266 70.47889977430086  20.251028321036266 70.47889977430086  L 19.722039836352888 56.864008005677086  L 0.3610612969417748 48.93333355045376  L 9.017236500851347 30.68937858049788  C 10.186407422689697 28.131499587190223  11.19195082753618 25.500358526186645  12.027661877322117 22.812191200079887  C 13.532874565557515 18.07615384913718  20.520331549602318 13.422778341075432  20.520331549602318 13.422778341075432  C 20.520331549602318 13.422778341075432  27.685721023949686 8.774265294359603  30.51821391011789 8.949313902813333  C 33.35070679628609 9.12436251126709  37.06324416151842 4.835671604150595  37.06324416151842 4.835671604150595  C 39.80436630942311 -2.2294847314959334  42.28580320121053 0.9700148341306413  42.28580320121053 0.9700148341306413  C 42.28580320121053 1.3055246670003056  42.28580320121053 0.9700148341306413  42.15115158692752 2.015444023507096  C 41.18935434204866 9.771069870276698  57.70341303661841 34.27787505379946  57.939053361613695 34.71063411358787  L 59.51159185699057 73.44500119532248  L 61.10336629726505 122.46347402371396  Z " fill-rule="nonzero" fill="#000000" stroke="none" transform="matrix(1 0 0 1 178 786 )" />
  </g>
</svg>