<?xml version="1.0" encoding="utf-8"?>
<svg version="1.1" xmlns:xlink="http://www.w3.org/1999/xlink" width="63px" height="177px" xmlns="http://www.w3.org/2000/svg">
  <g transform="matrix(1 0 0 1 -178 -786 )">
    <path d="M 61.074529788013685 122.43429925563827  L 62.666304228288105 175.96027375171343  C 42.94946070827183 179.36399669386935  24.886908449447187 169.6050367725737  24.886908449447187 169.6050367725737  L 25.064840939749754 166.29856305733648  C 25.064840939749754 166.29856305733648  25.512076658618426 128.81384854150772  24.266549226500324 125.94013388605894  C 23.021021794382193 123.06641923061017  22.05922454950339 108.4936225768368  22.766145524489307 106.2568903577057  C 23.473066499475248 104.02015813857464  20.202955866887212 70.47889977430086  20.202955866887212 70.47889977430086  L 19.669158395979455 56.864008005677086  L 0.29856188411955703 48.90415878237812  L 8.954737088029159 30.66020381242229  C 10.121364047420242 28.101235504646997  11.126844043729836 25.47026036070315  11.965162464499928 22.78301643200427  C 13.465566166510918 18.046979081061565  20.457832136780127 13.393603572999815  20.457832136780127 13.393603572999815  C 20.457832136780127 13.393603572999815  27.623221611127466 8.745090526283988  30.45090551107129 8.920139134737717  C 33.27858941101511 9.095187743191447  36.995935762471824 4.806496836074977  36.995935762471824 4.806496836074977  C 39.74186689660092 -2.2586594995715505  42.76671923174488 0.9408400660550242  42.76671923174488 0.9408400660550242  C 42.76671923174488 1.2763498989246884  42.47818005828123 1.4270862006487235  42.63206761746187 1.986269255431479  C 44.74802155619532 9.508496957596117  57.655340582469385 34.24870028572387  57.8909809074647 34.68145934551225  L 59.4827553477392 73.41582642724686  L 61.074529788013685 122.43429925563827  Z " fill-rule="nonzero" fill="#ffffff" stroke="none" transform="matrix(1 0 0 1 178 786 )" />
  </g>
</svg>