<?xml version="1.0" encoding="utf-8"?>
<svg version="1.1" xmlns:xlink="http://www.w3.org/1999/xlink" width="36px" height="173px" xmlns="http://www.w3.org/2000/svg">
  <g transform="matrix(1 0 0 1 -238 -788 )">
    <path d="M 19.910869649298004 78.9215755366194  C 19.63964659061496 79.6427888659693  25.162734331069892 95.75800832651012  25.162734331069892 95.75800832651012  C 25.162734331069892 95.75800832651012  26.070098745573205 97.10297372448694  25.162734331069892 97.73159885615  C 24.25536991656658 98.36022398781306  25.251498241184358 99.88061965509117  25.251498241184358 99.88061965509117  C 25.251498241184358 99.88061965509117  22.98801853326578 101.19147361181494  23.98414685788353 102.37075486656269  C 24.98027518250128 103.55003612131046  24.34906515502075 108.87629401982007  24.34906515502075 108.87629401982007  L 21.62697191151081 113.33027363485917  C 21.62697191151081 113.33027363485917  21.789705746720628 116.2005077631502  21.799568403400038 120.07946593992392  C 21.799568403400038 126.13181023081948  21.439581434602523 134.64017829193358  19.447324785366995 138.51913646870727  L 19.723479172389748 170.34511115778864  C 19.723479172389748 170.34511115778864  10.191221491765283 173.785493661309  2.212332238143782 172.73778510853725  L 1.0288134366177168 121.66808448970806  C 1.0288134366177168 121.66808448970806  2.7547783555099046 92.70747086588158  3.39091971133017 87.15217900467309  C 3.763192993206633 84.26809766406456  3.914850375325835 81.36038118652841  3.844601918581827 78.45376148514919  C 3.844601918581827 78.45376148514919  3.5733788598987797 69.7602170286615  2.6610831170557896 65.72532083473111  C 2.6610831170557896 65.72532083473111  1.6748174491173924 48.245643724068856  1.5761908823235724 43.40669212917406  C 1.5318089272663393 41.09198718700384  1.6550921357586565 34.337921818902956  1.7931693292700048 27.91522473726012  C 1.946040507800468 20.893140902171115  2.118636999689695 14.270648236046213  2.118636999689695 14.270648236046213  L 0.3187021557021562 0.19724218765131984  C 0.3187021557021562 0.19724218765131984  2.118636999689695 0.016938855313842108  2.6610831170558176 0.7332791216275922  C 2.9040610449114928 0.9575767882389183  3.1682783901783917 1.1582939757218944  3.4500956514065186 1.3326658750737885  C 6.55683250541244 3.408590728472738  17.533969389566632 9.792303305826401  17.533969389566632 9.792303305826401  C 17.533969389566632 9.792303305826401  23.609365904067072 12.180104193538837  25.064107764276187 15.600994444914615  C 26.51884962448527 19.02188469629042  27.529771934122135 21.448670088292005  28.234951886698074 22.423282695521554  C 28.940131839274013 23.397895302751134  29.32477544976997 27.97857455673007  29.32477544976997 27.97857455673007  C 29.32477544976997 27.97857455673007  31.415658665799345 36.40897360926581  33.04792834623736 37.836781078857115  C 34.680198026675406 39.26458854844843  35.87357948488074 48.347978047827986  35.87357948488074 48.347978047827986  L 21.449444091281904 59.55602303096796  C 21.449444091281904 59.55602303096796  20.18209270798108 78.20036220726954  19.910869649298004 78.9215755366194  Z " fill-rule="nonzero" fill="#ffffff" stroke="none" transform="matrix(1 0 0 1 238 788 )" />
  </g>
</svg>