<?xml version="1.0" encoding="utf-8"?>
<svg version="1.1" xmlns:xlink="http://www.w3.org/1999/xlink" width="36px" height="173px" xmlns="http://www.w3.org/2000/svg">
  <g transform="matrix(1 0 0 1 -238 -788 )">
    <path d="M 20.162325541352594 78.9167024735833  C 19.88990297037069 79.63791580293318  25.362677833846288 95.75800832651012  25.362677833846288 95.75800832651012  C 25.362677833846288 95.75800832651012  26.25291587830501 97.10297372448694  25.362677833846288 97.73159885615  C 24.472439789387597 98.36022398781306  25.44537754289439 99.88061965509117  25.44537754289439 99.88061965509117  C 25.44537754289439 99.88061965509117  23.227079464898924 101.2060928009234  24.20001721840569 102.3853740556712  C 25.172954971912485 103.56465531041901  24.56000418720322 108.89091320892852  24.56000418720322 108.89091320892852  L 21.874695987524493 113.34489282396763  C 21.874695987524493 113.34489282396763  22.035230716853125 116.2151269522587  22.04982478315574 120.09408512903238  C 22.04982478315574 126.146429419928  21.694702503125757 134.6547974810421  19.72936824104206 138.53375565781576  L 19.996926123256447 170.3597303468972  C 19.996926123256447 170.3597303468972  10.578888669310754 173.8001128504175  2.717551620975932 172.75240429764568  L 1.554891005535333 121.68270367881658  C 1.554891005535333 121.68270367881658  3.257532074172193 92.72209005499008  3.885076925184077 87.1667981937816  C 4.252737850960702 84.28277609037082  4.400727520804785 81.37490467407925  4.327763603029679 78.46838067425767  C 4.327763603029679 78.46838067425767  4.060205720815321 69.77483621776999  3.16510298758908 65.73994002383958  C 3.16510298758908 65.73994002383958  2.1921652340823106 48.260262913177336  2.0900067699641034 43.42131131828254  C 2.0462245710562925 41.106606376112325  2.1727064790121786 34.35254100801144  2.3040530757355837 27.929843926368605  C 2.4548584275291487 20.9077600912796  2.625122534392846 14.285267425154723  2.625122534392846 14.285267425154723  L 0.280342548441489 0.021811918350058284  C 0.280342548441489 0.021811918350058284  2.625122534392846 0.021811918350058284  3.16510298758908 0.747898310736047  C 3.402547505803746 0.9748393158677411  3.663472602811358 1.1757707811957236  3.9434531903945564 1.347285064182271  C 7.008207113940911 3.4232099175812203  17.841868999238944 9.806922494934883  17.841868999238944 9.806922494934883  C 17.841868999238944 9.806922494934883  23.830300872073185 12.194723382647318  25.265384058495687 15.615613634023097  C 26.70046724491819 19.0365038853989  27.697728442262637 21.463289277400484  28.39824362478753 22.43790188463006  C 29.098758807312397 23.412514491859618  29.468475153644988 27.993193745838557  29.468475153644988 27.993193745838557  C 29.468475153644988 27.993193745838557  31.531103191079374 36.42359279837429  33.141315173133094 37.851400267965595  C 34.75152715518681 39.27920773755694  35.91418777062741 48.34310498479185  35.91418777062741 48.34310498479185  L 21.68497312559072 59.55114996793185  C 21.68497312559072 59.55114996793185  20.4347481123345 78.19548914423342  20.162325541352594 78.9167024735833  Z " fill-rule="nonzero" fill="#ffffff" stroke="none" transform="matrix(1 0 0 1 238 788 )" />
  </g>
</svg>