<?xml version="1.0" encoding="utf-8"?>
<svg version="1.1" xmlns:xlink="http://www.w3.org/1999/xlink" width="35px" height="23px" xmlns="http://www.w3.org/2000/svg">
  <g transform="matrix(1 0 0 1 -213 -750 )">
    <path d="M 34.50285057554481 16.965485035232497  L 34.49785075653372 16.965485035232497  C 34.5018405433043 18.69210827290869  34.21828518249325 20.408279272380906  33.65788116267288 22.049259340536683  C 33.46704228899168 22.077804669548602  33.272270807301965 22.031140668727108  33.1179007094766 21.91988902362509  C 32.98790541518861 17.607545126571594  30.772985593281703 13.558733356560246  28.048084232245003 10.113649732136418  C 27.283054552833505 9.07348336458389  26.35556899660014 8.152321573506656  25.29818377615294 7.382498597335852  C 24.22917165550922 6.61305610862482  22.899501927045236 6.252640157315852  21.568318793889834 6.37149352813775  C 20.068373090566894 6.56794475011465  18.74342105263162 7.545409366780094  17.228475892275412 7.669988190472754  C 15.228548287844802 7.828107466698034  13.438613081879424 6.500863845049357  11.453684934482027 6.4337829399840665  C 9.821252601449345 6.4486406607533056  8.274568420042925 7.1365112954168755  7.20883859407806 8.321631268249716  C 6.166059469474703 9.5038377046963  5.391338150280973 10.881025456361906  4.933920944038249 12.365651545042127  C 4.147794887544421 14.616898777918838  3.719682615594337 16.968707138001868  3.6639669152247905 19.3420656718309  C 3.6389678201693982 20.68368377313643  3.503972706870343 22.365497892987296  2.2040197639904022 22.854230201320018  C 2.4018682166504277 20.85936068383603  1.7181692499237045 18.876346538852605  0.3190879968146021 17.387136438499954  L 0.2890890827481485 17.35838747918627  C 0.2890890827481485 17.224225669055716  0.2890890827481485 17.099646845363026  0.2890890827481769 16.965485035232497  C 0.2874225068514136 16.872066275498845  0.2865891732426178 16.778635570598492  0.2865891732426178 16.685203159139018  C 0.2865891732426178 7.629671894471061  7.946719813840787 0.2887133638978027  17.39596982914648 0.2887133638978027  C 26.845219844452146 0.2887133638978027  34.50535048505034 7.629671894471061  34.50535048505034 16.685203159139018  C 34.50535048505034 16.778635570598492  34.50451715144155 16.872066275498845  34.50285057554481 16.965485035232497  Z " fill-rule="nonzero" fill="#000000" stroke="none" transform="matrix(1 0 0 1 213 750 )" />
  </g>
</svg>