<?xml version="1.0" encoding="utf-8"?>
<svg version="1.1" xmlns:xlink="http://www.w3.org/1999/xlink" width="45px" height="35px" xmlns="http://www.w3.org/2000/svg">
  <g transform="matrix(1 0 0 1 -208 -740 )">
    <path d="M 32.06186410237849 3.6106050853165894  C 31.79978567729237 3.3468465171960506  29.154277046706273 1.6729940656617281  29.154277046706273 1.561403902226113  C 26.584709531978813 0.3215502689087987  23.662148177845317 0.08706055206317637  20.935893226081802 0.9020074819247085  C 19.566162589311073 1.3179344547302003  18.27554996766066 1.992547715500096  16.886039827109823 2.3323904859631184  C 13.919114260097393 3.067871108606978  10.457701098582868 2.27152312408914  7.911089986897195 4.051893458902899  C 6.496855466621271 5.066349490135817  5.64633680407772 6.6691900194838345  4.85515665287438 8.22638002742635  L 2.8772062748660843 12.091457506423776  C 1.7992233188515658 14.206598331544393  0.7113506109470072 16.357245117758186  0.26136689995010476 18.685421709437723  C -0.18861681104679778 21.01359830111726  0.08335136592936292 23.620750301385865  1.522310265930399 25.492421679010615  C 2.570623966274799 26.85686504101888  4.118370137066299 27.714080387410696  5.255691604421056 28.997367266920346  C 6.633084624590677 30.575344220739282  7.306876585344536 32.670858688054565  7.114964959748847 34.779766644947976  C 8.405577581399289 34.2725386293315  8.529199480024799 32.487096014361576  8.558868735694945 31.06685757063549  C 8.613972175620816 28.554417534824044  9.037379917109966 26.064790537382624  9.814867225730206 23.681617663259857  C 10.266180903627689 22.10953594160527  11.032503383086532 20.651425407420756  12.064785780714635 19.400613211456957  C 13.119596470363907 18.147119908790575  14.648781627544476 17.419178478446547  16.26298545803724 17.4021348299281  C 18.240935836045537 17.473146752114392  20.016146300307977 18.873096075215823  21.974317174536193 18.705710830062404  C 23.457779958042423 18.57890382615827  24.773116959417948 17.539086394144533  26.266469494814217 17.336195187897943  C 27.5832004788692 17.208396050016493  28.898943546156087 17.590131550668023  29.95534694979968 18.406446300848707  C 31.000781279877792 19.22013447572965  31.91661723823892 20.19550142345584  32.670083843616055 21.297645989862506  C 35.369986109597356 24.94461542214485  37.560566153241545 29.220547593791608  37.689132927812096 33.795744294652025  C 38.24790390959943 34.21674354761368  39.053918688637815 33.66893729074793  39.33083174155899 33.019685430758855  C 39.60774479448012 32.370433570769826  39.61763454637016 31.609591547345133  39.968720738466665 30.990773368293024  C 40.374200565958354 30.275581866273818  41.15054608932662 29.89516085456147  41.75876583056415 29.35749915800804  C 43.30156712541065 27.99305579599974  43.68726744912225 25.69531288525719  43.62792893778199 23.610605741073567  C 43.56859042644175 21.52589859688994  43.17300035084008 19.410757771769283  43.55870067455171 17.36155658867879  C 43.79110984396771 16.103631109949976  44.315266694139865 14.926862113719777  44.6020694989511 13.684153475459464  C 44.888872303762305 12.44144483719914  44.923486435377434 11.046567794253875  44.24603843090959 9.976316681303143  C 43.25706324190543 8.403909832892122  41.17527046905173 8.094500743366082  39.3605009972291 7.947404618837306  C 37.29848772815546 7.764802533215372  35.45404900066274 7.998127420398958  34.13871199928724 6.217757085585183  C 33.521287869989884 5.288692968365694  32.826396252434556 4.416367135850028  32.06186410237849 3.6106050853165894  Z " fill-rule="nonzero" fill="#512e4e" stroke="none" transform="matrix(1 0 0 1 208 740 )" />
  </g>
</svg>