<?xml version="1.0" encoding="utf-8"?>
<svg version="1.1" xmlns:xlink="http://www.w3.org/1999/xlink" width="41px" height="56px" xmlns="http://www.w3.org/2000/svg">
  <g transform="matrix(1 0 0 1 -177 -834 )">
    <path d="M 22.78671720110012 6.939505003163409  L 7.049214595295693 9.71505670461663  L 1.8873532572336604 0.30739725337506296  L 0.2523522018283781 14.823045713080631  C 0.2523522018283781 14.823045713080631  1.1612349637455186 21.270116682772073  0.9784704953165482 22.258602639605396  C 0.7957060268875779 23.24708859643875  4.7029139870857115 32.109376485289545  4.7029139870857115 32.109376485289545  C 4.7029139870857115 32.109376485289545  17.610037122354647 54.77151265820791  22.88056922542849 55.94016600618824  L 40.687755946685506 43.39662007119948  L 35.965517248898635 37.485181885999026  C 35.965517248898635 37.485181885999026  34.33051619349332 36.8570307114596  33.92053103458505 37.485181885999026  C 33.92053103458505 37.485181885999026  25.152776130221344 22.614068032949444  24.24389336830423 21.537933075017552  C 23.33501060638709 20.461798117085692  23.512835494588266 18.314397590171847  23.512835494588266 18.314397590171847  C 23.512835494588266 18.314397590171847  22.149511351712558 16.88279723889594  22.603952732671125 15.538845888718571  C 23.058394113629724 14.194894538541227  19.97115647124813 9.534889313469684  19.97115647124813 9.534889313469684  L 22.78671720110012 6.939505003163409  Z " fill-rule="nonzero" fill="#000000" stroke="none" transform="matrix(1 0 0 1 177 834 )" />
  </g>
</svg>