<?xml version="1.0" encoding="utf-8"?>
<svg version="1.1" xmlns:xlink="http://www.w3.org/1999/xlink" width="41px" height="57px" xmlns="http://www.w3.org/2000/svg">
  <g transform="matrix(1 0 0 1 -177 -833 )">
    <path d="M 22.68302177798293 7.917041406553136  L 3.1469819769921763 0.21014090219731485  L 1.7836578341164655 1.281896977392176  L 0.148656778711183 15.804191796282591  C 0.148656778711183 15.804191796282591  1.0575395406282952 22.254214721546237  0.8747750721993531 23.24315328183965  C 0.6920106037703827 24.23209184213309  4.604158144196312 33.098437555108816  4.604158144196312 33.098437555108816  C 4.604158144196312 33.098437555108816  17.506341699237424 55.7709501640038  22.7768738023113 56.940138609670925  L 40.58900010379611 44.3908492928438  L 35.861821825781405 38.4767044051776  C 35.861821825781405 38.4767044051776  34.22682077037612 37.84826561563151  33.81683561146786 38.4767044051776  C 33.81683561146786 38.4767044051776  25.049080707104146 23.59878143406343  24.140197945187033 22.522153740344944  C 23.231315183269896 21.445526046626483  23.414079651698863 19.297142277713135  23.414079651698863 19.297142277713135  C 23.414079651698863 19.297142277713135  22.050755508823155 17.86488643177089  22.505196889781725 16.5203197192537  C 22.95963827074032 15.175753006736532  19.867461048130906 10.513614079638854  19.867461048130906 10.513614079638854  L 22.68302177798293 7.917041406553136  Z " fill-rule="nonzero" fill="#ffffff" stroke="none" transform="matrix(1 0 0 1 177 833 )" />
  </g>
</svg>