<?xml version="1.0" encoding="utf-8"?>
<svg version="1.1" xmlns:xlink="http://www.w3.org/1999/xlink" width="12px" height="29px" xmlns="http://www.w3.org/2000/svg">
  <g transform="matrix(1 0 0 1 -252 -881 )">
    <path d="M 11.61812495475283 6.548649822630864  C 11.61812495475283 6.548649822630864  9.415004705712025 7.8886013175993535  10.384569608339971 9.103557337290965  C 11.34453485846665 10.318513356982578  10.739756750886862 15.773315898067096  10.739756750886862 15.773315898067096  L 8.090252660537189 20.34315047419102  C 8.090252660537189 20.34315047419102  8.248646926808078 23.293043690726165  8.25824657930937 27.26789980453202  L 3.804007818721548 28.71784731774426  C 3.5487850718280423 28.800880193194985  3.282950093099908 28.843116866880052  3.0155691225756707 28.843116866880052  C 1.554939289701324 28.843116866880052  0.37086485847664336 27.60970600102104  0.37086485847664336 26.08821659177687  C 0.37086485847664336 26.05978781795119  0.3712873060937909 26.03136074711273  0.37213204951861373 26.00294559472968  L 1.1401042496199898 0.19887967856371347  L 11.531728082241417 4.338729819735079  C 10.648560052124859 4.978706653152869  11.61812495475283 6.548649822630864  11.61812495475283 6.548649822630864  Z " fill-rule="nonzero" fill="#000000" stroke="none" transform="matrix(1 0 0 1 252 881 )" />
  </g>
</svg>