<?xml version="1.0" encoding="utf-8"?>
<svg version="1.1" xmlns:xlink="http://www.w3.org/1999/xlink" width="12px" height="29px" xmlns="http://www.w3.org/2000/svg">
  <g transform="matrix(1 0 0 1 -252 -881 )">
    <path d="M 11.670905668573141 6.493669912401344  C 11.670905668573141 6.493669912401344  9.477385072033602 7.838621226380952  10.437350322160283 9.048577427061502  C 11.397315572286988 10.263533446753058  10.792537464707173 15.723335806848638  10.792537464707173 15.723335806848638  L 8.1430333743575 20.293170382972562  C 8.1430333743575 20.293170382972562  8.301427640628416 23.238063780496645  8.315827119380328 27.217919713313563  L 3.7799913125317106 28.692866321581164  C 3.530939785750352 28.773484149660874  3.271633908634576 28.814485691777918  3.010834450746352 28.814485691777918  C 1.5793641971126817 28.814485691777918  0.4189282754042961 27.60569827333171  0.4189282754042961 26.11458342579664  C 0.4189282754042961 26.087371822317607  0.41932320775941656 26.060161773778987  0.4201129370882791 26.032962607688432  L 1.192884963440274 0.14889958734528363  L 11.589308622312373 4.2887497285166205  C 10.70134076594517 4.928726561934411  11.670905668573141 6.493669912401344  11.670905668573141 6.493669912401344  Z " fill-rule="nonzero" fill="#ffffff" stroke="none" transform="matrix(1 0 0 1 252 881 )" />
  </g>
</svg>