<?xml version="1.0" encoding="utf-8"?>
<svg version="1.1" xmlns:xlink="http://www.w3.org/1999/xlink" width="23px" height="51px" xmlns="http://www.w3.org/2000/svg">
  <g transform="matrix(1 0 0 1 -256 -836 )">
    <path d="M 5.192318830087629 4.426820885165587  L 14.871968435531755 6.8275830363521335  L 18.341842829218848 0.09197780256226155  C 18.341842829218848 0.09197780256226155  19.72179287627597 5.225471220029261  19.72179287627597 7.967824779500843  C 19.72179287627597 10.710178338972451  21.65172301455152 10.979602548324053  21.65172301455152 10.979602548324053  C 21.65172301455152 10.979602548324053  23.766646456236884 13.385175846106145  22.651686816766812 15.136433206891493  C 21.53672717729674 16.88769056767687  21.08674346629988 21.246589383258026  21.08674346629988 21.246589383258026  C 21.08674346629988 21.246589383258026  21.45173025410847 29.56506184698854  19.796790161442146 30.71492588332838  C 18.141850068775824 31.864789919668215  17.796862557011536 34.6119546257354  17.796862557011536 34.6119546257354  C 17.796862557011536 34.6119546257354  14.756972598277002 39.832048681922565  14.851969159487453 41.07332450357813  C 14.946965720697934 42.31460032523368  10.622122276116727 50.719673427684334  10.622122276116727 50.719673427684334  C 10.622122276116727 50.719673427684334  12.737045717802118 40.27467416871445  0.4124918554984731 35.76181866207524  C 0.4124918554984731 35.76181866207524  0.3174952942880225 32.2160036211444  1.2374619923260752 31.244152008840455  C 2.1574286903641564 30.272300396536497  3.592376746543124 29.829674909744593  2.6924093245493737 24.917494235673534  C 1.7924419025556233 20.0053135616025  2.4324187359733855 14.13571471501416  2.4324187359733855 12.956983799100945  C 2.4324187359733855 11.7782528831877  5.192318830087629 4.426820885165587  5.192318830087629 4.426820885165587  Z " fill-rule="nonzero" fill="#000000" stroke="none" transform="matrix(1 0 0 1 256 836 )" />
  </g>
</svg>