<?xml version="1.0" encoding="utf-8"?>
<svg version="1.1" xmlns:xlink="http://www.w3.org/1999/xlink" width="23px" height="53px" xmlns="http://www.w3.org/2000/svg">
  <g transform="matrix(1 0 0 1 -258 -834 )">
    <path d="M 5.130742932575087 5.496710191151102  L 15.044852135900364 0.0938502142372494  L 18.0102767051082 1.0752961682633961  C 18.0102767051082 1.0752961682633961  19.365759552749427 6.311310332992809  19.365759552749427 9.108431301967272  C 19.365759552749427 11.905552270941765  21.25462734765739 12.180357138069086  21.25462734765739 12.180357138069086  C 21.25462734765739 12.180357138069086  23.32455241824309 14.63397202313441  22.23331532429366 16.42020365946195  C 21.142078230344225 18.206435295789515  20.7065620807411 22.652385467527886  20.7065620807411 22.652385467527886  C 20.7065620807411 22.652385467527886  21.06378319221334 31.13698574008381  19.444054590880313 32.30981365514503  C 17.82432598954732 33.482641570206255  17.462211438191915 36.284669768950884  17.462211438191915 36.284669768950884  C 17.462211438191915 36.284669768950884  14.491893429100884 41.60901406954266  14.584868786881326 42.87507935023636  C 14.677844144661766 44.141144630930064  10.440125205826755 52.71407503934832  10.440125205826755 52.71407503934832  C 10.440125205826755 52.71407503934832  12.514943716295624 42.06047920839466  0.44772096437059117 37.45749768401211  C 0.44772096437059117 37.45749768401211  0.35963904647331657 33.840869343425794  1.2600319849787005 32.849608929859414  C 2.1604249234840567 31.85834851629304  3.5648421699570605 31.406883377441012  2.684022990984454 26.3966017821376  C 1.8032038120118472 21.38632018683421  2.4295641170590465 15.399499867274791  2.4295641170590465 14.197228573592792  C 2.4295641170590465 12.994957279910766  5.130742932575087 5.496710191151102  5.130742932575087 5.496710191151102  Z " fill-rule="nonzero" fill="#ffffff" stroke="none" transform="matrix(1 0 0 1 258 834 )" />
  </g>
</svg>