<?xml version="1.0" encoding="utf-8"?>
<svg version="1.1" xmlns:xlink="http://www.w3.org/1999/xlink" width="36px" height="18px" xmlns="http://www.w3.org/2000/svg">
  <g transform="matrix(1 0 0 1 -216 -755 )">
    <path d="M 35.647375660609605 7.198406249642849  C 35.55617896184754 8.884660998220589  35.100195468037356 10.604072441292896  33.82344168536887 11.693506688969586  C 33.23306305654094 12.19559377702926  32.47469050894088 12.555580745826783  32.08110475638893 13.223451306359001  C 31.745116918844595 13.796588454049763  31.735517266343304 14.502352379718582  31.46672699630785 15.118119563188001  C 31.197936726272403 15.733886746657447  30.41556504741914 16.23597383471712  29.873184681097563 15.847566842067192  C 29.748389198581087 11.584563264201924  27.617266343299846 7.582076571650691  25.001361036704584 4.171673709358503  C 24.26999611841854 3.1424529939622308  23.38102468150264 2.231621603679523  22.36625642510685 1.4717714433771938  C 21.338947254389684 0.7095738570854929  20.060365877127396 0.353173689834464  18.78078621588362 0.4723339378998796  C 17.340838340693573 0.666537434224843  16.073684210526352 1.6328182452076292  14.619336856584395 1.7512350112594466  C 12.69940635633101 1.9122818130899086  10.976268732353628 0.6002240452358268  9.070737710852155 0.5339106562468107  C 7.504095641819776 0.5492976102881403  6.0204360726404875 1.2312957287237285  5.000485050314937 2.4048955598654516  C 3.9984804800691474 3.5711588379417067  3.254596573295094 4.931253112256011  2.8165641062766644 6.3979089111325695  C 2.062307765478463 8.623504184416317  1.6513312755725382 10.948340109495508  1.5974082386157988 13.294501365990119  C 1.5686092811120034 14.616032475128355  1.443813798595529 16.26439385856955  0.20545862593213313 16.75700760534513  C 0.23428394649060463 17.106944096101508  0.23428394649060463 17.45861199712885  0.20545862593210587 17.808548487885222  C 1.4534134510968215 17.334881423677977  1.5782089336132685 15.667573357668445  1.6070078911171184 14.341305577888146  C 1.660494963471856 11.995102176025124  2.0714827445439368 9.670202378414468  2.826163758777957 7.4447131230306  C 3.264238902123807 5.97664883859827  4.00808258885183 4.615014790886116  5.010084702816257 3.446963101121424  C 6.032083431954852 2.276637050512462  7.514882810614317 1.5967599148467015  9.080337363353392 1.5807148681448546  C 11.000267863606778 1.6470282571338573  12.728205313834831 2.9543493543458674  14.628936509085689 2.7980392231574904  C 16.068884384275734 2.6796224571056597  17.345638166944244 1.708604975480802  18.790385868384938 1.5191381497979237  C 20.06996552962869 1.3999779017325078  21.348546906891006 1.7563780689835369  22.375856077608088 2.5185756552752245  C 23.39062433400393 3.2784258155775534  24.279595770919776 4.189257205860234  25.010960689205874 5.218477921256533  C 27.62686599580111 8.624144112906663  29.75798885108238 12.617157464173781  29.882784333598828 16.889634383323163  C 30.425164699920433 17.28277804661515  31.207536378773668 16.771217617271336  31.476326648809145 16.164923775086088  C 31.745116918844623 15.55862993290081  31.754716571345888 14.848129336589931  32.090704408890225 14.270255518257088  C 32.484290161442146 13.60238495772484  33.242662709042236 13.2471346595694  33.83304133787016 12.745047571509728  C 35.3305871280678 11.470883168792232  35.704973575617196 9.32517136793337  35.647375660609605 7.378399734041598  C 35.647375660609605 7.316823015694653  35.647375660609605 7.255246297347708  35.647375660609605 7.198406249642849  Z " fill-rule="nonzero" fill="#000000" stroke="none" transform="matrix(1 0 0 1 216 755 )" />
  </g>
</svg>