<?xml version="1.0" encoding="utf-8"?>
<svg version="1.1" xmlns:xlink="http://www.w3.org/1999/xlink" width="45px" height="41px" xmlns="http://www.w3.org/2000/svg">
  <g transform="matrix(1 0 0 1 -1091 -733 )">
    <path d="M 41.60691233477261 32.89349433953288  L 39.28199002506299 35.410393359600384  L 8.24412876481798 40.718528187309886  C 6.655890415357918 40.99218754137156  5.120101583694941 40.008120159167625  4.688721373263958 38.440376157328934  C 2.44628165118192 30.266748985031857  -2.242046039626011 19.60394984277786  2.3098327790488002 14.25125615398934  C 2.7916041641624134 9.573140571708999  6.832943425518501 6.106001385811731  11.48212050654574 6.38218203085856  C 17.026793122441227 -2.3830724313740146  26.26222653779822 -1.0670253334546689  32.504245271183265 4.407264360628273  C 38.78624844880186 6.5963579353911435  41.15464699496408 10.485419967762839  40.326432026240425 15.763047138092011  C 43.040273478821526 18.16208397008697  44.46310056062989 20.864305772715912  44.76310126354852 23.830211130448944  C 45.05087189707154 27.169147734544367  43.90085929476781 30.47151338625342  41.60691233477261 32.89349433953288  Z " fill-rule="nonzero" fill="#2f2e41" stroke="none" transform="matrix(1 0 0 1 1091 733 )" />
  </g>
</svg>