<?xml version="1.0" encoding="utf-8"?>
<svg version="1.1" xmlns:xlink="http://www.w3.org/1999/xlink" width="72px" height="112px" xmlns="http://www.w3.org/2000/svg">
  <g transform="matrix(1 0 0 1 -1077 -784 )">
    <path d="M 71.86585966882154 106.44099593862494  C 67.35390243207513 96.94551690005562  63.78137915217502 87.06458538471001  61.69890292823114 77.25003900143432  L 59.6856223999784 59.98922790979235  C 59.57812732934894 50.87845643232608  61.126576797660235 42.07004768730869  64.81892060108459 33.95382627095899  L 66.69586722279101 8.590367781904728  L 46.04931332714044 0.13588648761653097  C 45.98598851607593 0.5570316232271559  45.93216802030605 0.9778992412339428  45.87177621953971 1.39898108335597  L 36.195274250749314 6.2419067063834355  L 26.758209039732957 4.095074341856853  L 26.810463317731717 1.0752981827124486  L 8.040865771848233 9.529784345730558  C 14.24797163211798 38.41498504573795  10.862489775113186 68.41101568285949  0.18847732715439663 103.84146420006122  L 24.91570461690108 110.60933956027213  L 25.121292587502673 98.72454593366241  L 47.15860895170273 97.14895190984012  C 47.38559865582336 101.00483018451368  47.567999793769275 104.79223951072379  47.673870278263436 108.49570219614549  C 60.10888059255916 113.07815076998023  60.53600082523402 113.00219858367359  71.86585966882154 106.44099593862494  Z " fill-rule="nonzero" fill="#6c63ff" stroke="none" transform="matrix(1 0 0 1 1077 784 )" />
  </g>
</svg>