<?xml version="1.0" encoding="utf-8"?>
<svg version="1.1" xmlns:xlink="http://www.w3.org/1999/xlink" width="40px" height="43px" xmlns="http://www.w3.org/2000/svg">
  <g transform="matrix(1 0 0 1 -1057 -815 )">
    <path d="M 1.4666989124427547 0.34233799424238864  C 1.403829655874438 0.3312922819095024  1.340092699502975 0.3256527273762914  1.276218012923616 0.3254839195967474  C 0.7238155320948813 0.3336194404343071  0.28036507707722114 0.7740584907474353  0.28036507707722114 1.3145741693706237  C 0.28036507707722114 1.5077175371256397  0.33815748686779273 1.6966357776146586  0.446612199895787 1.8580212075381253  L 25.844402859785617 39.55929641111848  C 25.986127917780824 39.770063751642155  26.20503996474785 39.91966118542923  26.456085567961658 39.97730064936332  L 38.27292729320082 42.69742946362501  C 38.34871900707433 42.71488311435767  38.426320412531666 42.723697869455314  38.50418331664931 42.723697869455314  C 39.06163072174814 42.723697869455314  39.5135311309238 42.28157171070289  39.5135311309238 41.73618145453457  C 39.5135311309238 41.532809163651756  39.44935239506674 41.33439652926934  39.32976325624989 41.16805140893622  L 11.444542573559167 2.3763721619233786  C 11.291815580207437 2.1629244336704807  11.058631264616263 2.017625962228037  10.79634761125664 1.9724781994136342  L 1.4666989124427547 0.34233799424238864  Z " fill-rule="nonzero" fill="#3f3d56" stroke="none" transform="matrix(1 0 0 1 1057 815 )" />
  </g>
</svg>