<?xml version="1.0" encoding="utf-8"?>
<svg version="1.1" xmlns:xlink="http://www.w3.org/1999/xlink" width="273px" height="540px" xmlns="http://www.w3.org/2000/svg">
  <g transform="matrix(1 0 0 1 -1064 -109 )">
    <path d="M 270.39633841658014 122.64188815653957  C 271.572621273733 122.64496382872964  272.5254347216738 123.59675986259305  272 124.77183367168989  L 272 185.86272258438643  C 272.52542649518915 187.03778059114074  271.57265969578117 187.98957859244928  270.3963928159536 187.9927224430013  L 268 187.9927224430013  L 268 506.2364666539733  C 268.8778111272177 524.575032120628  253.9964100836139 539.4411110107148  235.6389777781731 539  L 36.58208023246903 539  C 18.22762384700883 539.4403606609835  3.3498084714591223 524.5750170985675  4 506.2394244911184  L 4 199.1543033485318  L 2.25281934965486 199.1543033485318  C 1.4228698606181573 199.15556149220416  0.7483179094618195 198.48584125877244  1 197.6567527310107  L 1 162.88858041080084  C 0.7444645801735734 162.88846653920905  0.7444645672496537 162.8883526675271  0.7444645672496537 162.88823879593244  C 0.7444645672496537 162.05632014261136  1.4194775203263879 161.3818723684984  2.252252041902403 161.38171377077563  L 4 161.38171377077563  L 4 148.28555986870833  L 2.2435015141046186 148.28555986870833  C 1.3722177131572393 148.28221730803222  0.6681869026483646 147.57472092073303  1 146.70432807904476  L 1 112.41048880797918  C 0.672235970909589 111.54328121347619  1.375401808014222 110.84081376929478  2.2435015141046186 110.8385652774676  L 4 110.8385652774676  L 4 92.96145967974573  L 2.2248580716650834 92.96145967974573  C 2.2242359566575245 92.9614605113503  2.2236138411526745 92.96146092715271  2.2229917255881384 92.96146092715271  C 1.453408170200444 92.96146092715271  0.8292517179632203 92.33877168321241  1 91.56997974178495  L 1 72.85206429631494  C 0.8264759419149136 72.07928773500775  1.4512918799649634 71.45095313980985  2.2248580716650834 71.44757298025684  L 4 71.44757298025684  L 4 33.55410024715891  C 3.3522463565382803 15.22054491832292  18.229663219919303 0.3584461140774544  36.582080232468954 1  L 235.63893115013872 1  C 253.99316231039876 0.3577037185146444  268.873676735824 15.218733340905876  268 33.554100247158885  L 268 122.64188815653957  L 270.39633841658014 122.64188815653957  Z " fill-rule="nonzero" fill="#000000" stroke="none" transform="matrix(1 0 0 1 1064 109 )" />
  </g>
</svg>