<?xml version="1.0" encoding="utf-8"?>
<svg version="1.1" xmlns:xlink="http://www.w3.org/1999/xlink" width="16px" height="25px" xmlns="http://www.w3.org/2000/svg">
  <g transform="matrix(1 0 0 1 -1140 -2570 )">
    <path d="M 16 12.5  C 16 12.768817204301076  15.902187902187903 13.001447477253928  15.706563706563706 13.19789081885856  L 4.2471042471042475 24.70533498759305  C 4.051480051480052 24.901778329197686  3.8198198198198203 25  3.552123552123552 25  C 3.284427284427285 25  3.052767052767053 24.901778329197686  2.857142857142857 24.70533498759305  L 0.29343629343629346 22.13089330024814  C 0.09781209781209796 21.934449958643505  0 21.70181968569065  0 21.43300248138958  C 0 21.164185277088503  0.09781209781209796 20.93155500413565  0.29343629343629346 20.73511166253102  L 8.494208494208495 12.5  L 0.29343629343629346 4.264888337468983  C 0.09781209781209796 4.068444995864348  0 3.835814722911496  0 3.566997518610421  C 0 3.298180314309343  0.09781209781209796 3.0655500413564907  0.29343629343629346 2.8691066997518613  L 2.857142857142857 0.2946650124069472  C 3.052767052767053 0.09822167080231481  3.284427284427285 0  3.552123552123552 0  C 3.8198198198198203 0  4.051480051480052 0.09822167080231481  4.2471042471042475 0.2946650124069472  L 15.706563706563706 11.80210918114144  C 15.902187902187903 11.99855252274607  16 12.231182795698924  16 12.5  Z " fill-rule="nonzero" fill="#000000" stroke="none" transform="matrix(1 0 0 1 1140 2570 )" />
  </g>
</svg>