<?xml version="1.0" encoding="utf-8"?>
<svg version="1.1" xmlns:xlink="http://www.w3.org/1999/xlink" width="12px" height="13px" xmlns="http://www.w3.org/2000/svg">
  <g transform="matrix(1 0 0 1 -711 -3252 )">
    <path d="M 11.69836956521739 5.749037227214377  C 11.89945652173913 5.943731279418057  12 6.194052203679931  12 6.5  C 12 6.8003851091142495  11.89945652173913 7.0534873769790325  11.69836956521739 7.2593068035943515  L 6.391304347826088 12.69127086007702  C 6.179347826086957 12.897090286692341  5.932065217391305 13  5.649456521739131 13  C 5.372282608695652 13  5.127717391304348 12.897090286692341  4.915760869565217 12.69127086007702  L 4.304347826086956 12.065468549422336  C 4.0978260869565215 11.854086435601198  3.9945652173913047 11.600984167736414  3.9945652173913047 11.306161745827985  C 3.9945652173913047 11.011339323919556  4.0978260869565215 10.75823705605477  4.304347826086956 10.546854942233633  L 6.692934782608696 8.102053915275995  L 0.953804347826087 8.102053915275995  C 0.6711956521739131 8.102053915275995  0.4415760869565218 7.9977535301668805  0.2649456521739131 7.789152759948652  C 0.08831521739130434 7.580551989730424  0 7.328840393667094  0 7.034017971758665  L 0 5.965982028241335  C 0 5.671159606332905  0.08831521739130434 5.419448010269576  0.2649456521739131 5.210847240051348  C 0.4415760869565218 5.0022464698331195  0.6711956521739131 4.897946084724006  0.953804347826087 4.897946084724006  L 6.692934782608696 4.897946084724006  L 4.304347826086956 2.4448010269576383  C 4.0978260869565215 2.2445442875481385  3.9945652173913047 1.9942233632862651  3.9945652173913047 1.6938382541720154  C 3.9945652173913047 1.3934531450577672  4.0978260869565215 1.1431322207958923  4.304347826086956 0.9428754813863924  L 4.915760869565217 0.3170731707317076  C 5.122282608695652 0.10569105691056824  5.366847826086957 0  5.649456521739131 0  C 5.9375 0  6.184782608695652 0.10569105691056824  6.391304347826088 0.3170731707317076  L 11.69836956521739 5.749037227214377  Z " fill-rule="nonzero" fill="#d7d7d7" stroke="none" transform="matrix(1 0 0 1 711 3252 )" />
  </g>
</svg>