<?xml version="1.0" encoding="utf-8"?>
<svg version="1.1" xmlns:xlink="http://www.w3.org/1999/xlink" width="9px" height="10px" xmlns="http://www.w3.org/2000/svg">
  <g transform="matrix(1 0 0 1 -855 -3256 )">
    <path d="M 8.801290760869566 4.008344030808729  C 8.93376358695652 4.168806161745828  9 4.3624304664099265  9 4.589216944801027  L 9 5.410783055198973  C 9 5.637569533590073  8.93376358695652 5.831193838254172  8.801290760869566 5.991655969191271  C 8.66881793478261 6.152118100128369  8.496603260869566 6.23234916559692  8.284646739130434 6.23234916559692  L 3.9802989130434785 6.23234916559692  L 5.771739130434782 8.119383825417202  C 5.926630434782609 8.273427471116817  6.004076086956522 8.465982028241335  6.004076086956522 8.697047496790757  C 6.004076086956522 8.92811296534018  5.926630434782609 9.120667522464698  5.771739130434782 9.274711168164313  L 5.313179347826087 9.762516046213094  C 5.162364130434783 9.920838682071032  4.978940217391304 10  4.762907608695652 10  C 4.5509510869565215 10  4.365489130434783 9.920838682071032  4.206521739130435 9.762516046213094  L 0.22622282608695654 5.577663671373556  C 0.07540760869565223 5.419341035515618  0 5.226786478391099  0 5  C 0 4.777492511767223  0.07540760869565223 4.582798459563543  0.22622282608695654 4.41591784338896  L 4.206521739130435 0.24390243902439046  C 4.361413043478262 0.08130081300812941  4.546875 0  4.762907608695652 0  C 4.974864130434782 0  5.158288043478262 0.08130081300812941  5.313179347826087 0.24390243902439046  L 5.771739130434782 0.7188703465982027  C 5.926630434782609 0.8814719726144626  6.004076086956522 1.0761660248181415  6.004076086956522 1.3029525032092426  C 6.004076086956522 1.5297389816003415  5.926630434782609 1.7244330338040215  5.771739130434782 1.8870346598202825  L 3.9802989130434785 3.7676508344030815  L 8.284646739130434 3.7676508344030815  C 8.496603260869566 3.7676508344030815  8.66881793478261 3.84788189987163  8.801290760869566 4.008344030808729  Z " fill-rule="nonzero" fill="#d7d7d7" stroke="none" transform="matrix(1 0 0 1 855 3256 )" />
  </g>
</svg>