<?xml version="1.0" encoding="utf-8"?>
<svg version="1.1" xmlns:xlink="http://www.w3.org/1999/xlink" width="100px" height="100px" xmlns="http://www.w3.org/2000/svg">
  <defs>
    <mask fill="white" id="clip199">
      <path d="M 100 50  C 100 78  78 100  50 100  C 22 100  0 78  0 50  C 0 22  22 0  50 0  C 78 0  100 22  100 50  Z M 5 50  C 5 75.19999999999982  24.799999999999955 95  50 95  C 75.20000000000005 95  95 75.19999999999982  95 50  C 95 24.800000000000182  75.20000000000005 5  50 5  C 24.799999999999955 5  5 24.800000000000182  5 50  Z " fill-rule="evenodd" />
    </mask>
  </defs>
  <g transform="matrix(1 0 0 1 -880 -3282 )">
    <path d="M 100 50  C 100 78  78 100  50 100  C 22 100  0 78  0 50  C 0 22  22 0  50 0  C 78 0  100 22  100 50  Z M 5 50  C 5 75.19999999999982  24.799999999999955 95  50 95  C 75.20000000000005 95  95 75.19999999999982  95 50  C 95 24.800000000000182  75.20000000000005 5  50 5  C 24.799999999999955 5  5 24.800000000000182  5 50  Z " fill-rule="nonzero" fill="#d7d7d7" stroke="none" transform="matrix(1 0 0 1 880 3282 )" />
    <path d="M 100 50  C 100 78  78 100  50 100  C 22 100  0 78  0 50  C 0 22  22 0  50 0  C 78 0  100 22  100 50  Z " stroke-width="2" stroke="#797979" fill="none" transform="matrix(1 0 0 1 880 3282 )" mask="url(#clip199)" />
    <path d="M 5 50  C 5 75.19999999999982  24.799999999999955 95  50 95  C 75.20000000000005 95  95 75.19999999999982  95 50  C 95 24.800000000000182  75.20000000000005 5  50 5  C 24.799999999999955 5  5 24.800000000000182  5 50  Z " stroke-width="2" stroke="#797979" fill="none" transform="matrix(1 0 0 1 880 3282 )" mask="url(#clip199)" />
  </g>
</svg>