<?xml version="1.0" encoding="utf-8"?>
<svg version="1.1" xmlns:xlink="http://www.w3.org/1999/xlink" width="10px" height="10px" xmlns="http://www.w3.org/2000/svg">
  <defs>
    <mask fill="white" id="clip200">
      <path d="M 10 5  C 10 7.800000000000182  7.7999999999999545 10  5 10  C 2.2000000000000455 10  0 7.800000000000182  0 5  C 0 2.199999999999818  2.2000000000000455 0  5 0  C 7.7999999999999545 0  10 2.199999999999818  10 5  Z M 2 5  C 2 6.679999999999836  3.32000000000005 8  5 8  C 6.67999999999995 8  8 6.679999999999836  8 5  C 8 3.3200000000001637  6.67999999999995 2  5 2  C 3.32000000000005 2  2 3.3200000000001637  2 5  Z " fill-rule="evenodd" />
    </mask>
  </defs>
  <g transform="matrix(1 0 0 1 -854 -3399 )">
    <path d="M 10 5  C 10 7.800000000000182  7.7999999999999545 10  5 10  C 2.2000000000000455 10  0 7.800000000000182  0 5  C 0 2.199999999999818  2.2000000000000455 0  5 0  C 7.7999999999999545 0  10 2.199999999999818  10 5  Z M 2 5  C 2 6.679999999999836  3.32000000000005 8  5 8  C 6.67999999999995 8  8 6.679999999999836  8 5  C 8 3.3200000000001637  6.67999999999995 2  5 2  C 3.32000000000005 2  2 3.3200000000001637  2 5  Z " fill-rule="nonzero" fill="#ffffff" stroke="none" transform="matrix(1 0 0 1 854 3399 )" />
    <path d="M 10 5  C 10 7.800000000000182  7.7999999999999545 10  5 10  C 2.2000000000000455 10  0 7.800000000000182  0 5  C 0 2.199999999999818  2.2000000000000455 0  5 0  C 7.7999999999999545 0  10 2.199999999999818  10 5  Z " stroke-width="2" stroke="#797979" fill="none" transform="matrix(1 0 0 1 854 3399 )" mask="url(#clip200)" />
    <path d="M 2 5  C 2 6.679999999999836  3.32000000000005 8  5 8  C 6.67999999999995 8  8 6.679999999999836  8 5  C 8 3.3200000000001637  6.67999999999995 2  5 2  C 3.32000000000005 2  2 3.3200000000001637  2 5  Z " stroke-width="2" stroke="#797979" fill="none" transform="matrix(1 0 0 1 854 3399 )" mask="url(#clip200)" />
  </g>
</svg>