<?xml version="1.0" encoding="utf-8"?>
<svg version="1.1" xmlns:xlink="http://www.w3.org/1999/xlink" width="7px" height="12px" xmlns="http://www.w3.org/2000/svg">
  <g transform="matrix(1 0 0 1 -226 -3466 )">
    <path d="M 6.8797250859106525 5.7234468937875755  C 6.959908361970219 5.803607214428857  7 5.895791583166332  7 6  C 7 6.104208416833666  6.959908361970219 6.196392785571142  6.8797250859106525 6.2765531062124245  L 1.274914089347079 11.879759519038076  C 1.1947308132875143 11.959919839679358  1.102520045819015 12  0.9982817869415808 12  C 0.8940435280641468 12  0.8018327605956472 11.959919839679358  0.7216494845360825 11.879759519038076  L 0.1202749140893471 11.278557114228457  C 0.040091638029782384 11.198396793587174  0 11.1062124248497  0 11.002004008016032  C 0 10.897795591182364  0.040091638029782384 10.80561122244489  0.1202749140893471 10.725450901803608  L 4.847079037800687 6  L 0.1202749140893471 1.2745490981963927  C 0.040091638029782384 1.1943887775551096  0 1.1022044088176348  0 0.9979959919839683  C 0 0.893787575150299  0.040091638029782384 0.8016032064128242  0.1202749140893471 0.7214428857715425  L 0.7216494845360825 0.12024048096192397  C 0.8018327605956472 0.04008016032064088  0.8940435280641468 0  0.9982817869415808 0  C 1.102520045819015 0  1.1947308132875143 0.04008016032064088  1.274914089347079 0.12024048096192397  L 6.8797250859106525 5.7234468937875755  Z " fill-rule="nonzero" fill="#d7d7d7" stroke="none" transform="matrix(1 0 0 1 226 3466 )" />
  </g>
</svg>