<?xml version="1.0" encoding="utf-8"?>
<svg version="1.1" xmlns:xlink="http://www.w3.org/1999/xlink" width="14px" height="15px" xmlns="http://www.w3.org/2000/svg">
  <defs>
    <mask fill="white" id="clip203">
      <path d="M 0 4  L 4.344827586206897 4  L 4.344827586206897 15  L 0 15  L 0 4  Z M 4.827586206896552 7.5  L 9.172413793103448 7.5  L 9.172413793103448 15  L 4.827586206896552 15  L 4.827586206896552 7.5  Z M 14 0  L 14 15  L 9.655172413793103 15  L 9.655172413793103 0  L 14 0  Z " fill-rule="evenodd" />
    </mask>
  </defs>
  <g transform="matrix(1 0 0 1 -1171 -3700 )">
    <path d="M 0 4  L 4.344827586206897 4  L 4.344827586206897 15  L 0 15  L 0 4  Z M 4.827586206896552 7.5  L 9.172413793103448 7.5  L 9.172413793103448 15  L 4.827586206896552 15  L 4.827586206896552 7.5  Z M 14 0  L 14 15  L 9.655172413793103 15  L 9.655172413793103 0  L 14 0  Z " fill-rule="nonzero" fill="#000000" stroke="none" fill-opacity="0" transform="matrix(1 0 0 1 1171 3700 )" />
    <path d="M 0 4  L 4.344827586206897 4  L 4.344827586206897 15  L 0 15  L 0 4  Z " stroke-width="2" stroke="#000000" fill="none" transform="matrix(1 0 0 1 1171 3700 )" mask="url(#clip203)" />
    <path d="M 4.827586206896552 7.5  L 9.172413793103448 7.5  L 9.172413793103448 15  L 4.827586206896552 15  L 4.827586206896552 7.5  Z " stroke-width="2" stroke="#000000" fill="none" transform="matrix(1 0 0 1 1171 3700 )" mask="url(#clip203)" />
    <path d="M 14 0  L 14 15  L 9.655172413793103 15  L 9.655172413793103 0  L 14 0  Z " stroke-width="2" stroke="#000000" fill="none" transform="matrix(1 0 0 1 1171 3700 )" mask="url(#clip203)" />
  </g>
</svg>