<?xml version="1.0" encoding="utf-8"?>
<svg version="1.1" xmlns:xlink="http://www.w3.org/1999/xlink" width="57px" height="69px" xmlns="http://www.w3.org/2000/svg">
  <g transform="matrix(1 0 0 1 -251 -4408 )">
    <path d="M 56.40743516571498 0.2704879259673199  L 56.727516176034015 68.74125846261595  L 56.727516176034015 68.74764986025329  L 51.35016173166834 68.73169060844091  L 49.36245373116335 68.72529921080356  L 47.72684552581933 68.72210203180943  L 45.37744307528326 68.71571063417207  L 44.43960933567284 68.71253417763438  L 42.768797976580146 68.70933699864024  L 41.90137054446697 68.70614277999701  L 41.53967906216088 68.70614277999701  L 41.005147276843495 68.70294560100288  L 40.99553778334849 68.70294560100288  L 36.95932200061129 68.69337774682782  L 36.22955842728567 68  L 25.88134179720416 68  L 24.021673323366777 68.65504416275834  L 16.43255061000279 68.63271127541411  L 15.411492958693419 68.6295170567709  L 15.001798524786913 68.6295170567709  C 15.003627444272805 68.6278590072103  15.004770364130396 68.62557990287104  15.005003667768591 68.62312565913356  L 14.617688847959128 68.62312565913356  L 13.062099411332373 68.6167313011453  L 8.670581658177538 68.60716344697023  L 8.670581658177538 68.61036062596438  L 6.551649762098195 68.60396922832703  L 5.095286210278831 68.60077204933289  L 4.768797881721418 68.60077204933289  L 1 68.58800701616371  L 1 5.050202434128534  L 56.40743516571498 0.10127722770270946  L 56.40743516571498 0.2704879259673199  Z " fill-rule="nonzero" fill="#e6e6e6" stroke="none" transform="matrix(1 0 0 1 251 4408 )" />
  </g>
</svg>