<?xml version="1.0" encoding="utf-8"?>
<svg version="1.1" xmlns:xlink="http://www.w3.org/1999/xlink" width="43px" height="27px" xmlns="http://www.w3.org/2000/svg">
  <g transform="matrix(1 0 0 1 -259 -4450 )">
    <path d="M 42.78425048268166 26.721509656585333  C 42.33343701588718 23.706064199124782  41.08968383484919 15.586751991428525  40.39906064376233 12.992129338941124  C 38.51903825703684 5.942325670475395  37.518269772659046 5.398067455149287  37.518269772659046 5.398067455149287  L 26.915937209695215 0.1170509120879964  L 26.845604605190076 0.0917295490905016  L 20.885804980259415 4.442509450061439  L 18.318343268294832 0.5315749143319294  L 18.190457990075803 0.42082512251693216  C 18.190457990075803 0.42082512251693216  18.136104004676373 0.4429750808799249  18.030597686685315 0.4841035929714418  C 17.109766765236134 0.8511474725469502  12.368118956854218 2.790794389355744  8.847869085228995 5.097485185740029  L 8.739181865883543 5.081657500260782  L 4.585849618911958 7.125731936000844  L 3.8408724424256344 9.850088801570385  L 2.980801776484819 12.992126405171788  L 0.020070377959661826 26.604449326963845  L 0.020070377959661826 26.607617797829032  L 2.136686013703038 26.6139576733287  L 2.136686013703038 26.610789202463515  L 6.52342764384471 26.620279946212428  L 7.214050834931605 23.26624817157653  L 8.077326118173593 26.626587550249585  L 8.464192499118532 26.626587550249585  C 8.463959762664173 26.62902152398688  8.46281815993698 26.631282112375242  8.460990846310699 26.63292742574925  L 8.870236187483645 26.63292742574925  L 9.890187908268318 26.63609589661442  L 17.471049568651896 26.658228252361507  L 19.328690030656006 26.664568127861177  L 29.6656411497716 26.69305502795452  L 30.394610062218824 26.69620882997308  L 34.42642476266691 26.705696639952677  L 34.43602972109038 26.705696639952677  L 34.96997943912796 26.70886804458716  L 34.96997943912796 26.699359698222324  L 35.2449332319729 23.73452176152493  L 35.41119684097899 22.905514829807483  L 36.1945523482524 26.70569663995266  L 36.19775400106024 26.71203651545233  L 37.86676375180361 26.715204986317495  L 38.80357032786517 26.718341185720167  L 41.15041444542423 26.724678127450503  L 42.78425048268166 26.72784659831567  L 42.78425048268166 26.721509656585333  Z " fill-rule="nonzero" fill="#ffff80" stroke="none" transform="matrix(1 0 0 1 259 4450 )" />
  </g>
</svg>