<?xml version="1.0" encoding="utf-8"?>
<svg version="1.1" xmlns:xlink="http://www.w3.org/1999/xlink" width="15px" height="18px" xmlns="http://www.w3.org/2000/svg">
  <g transform="matrix(1 0 0 1 -275 -4436 )">
    <path d="M 14.975673524289148 5.334649742215105  C 14.85647939840755 5.602324709814029  14.773322825582913 5.776379754558307  14.764099540607795 5.824887516682197  L 14.768189304522469 5.838882037979386  C 14.763417423261842 5.839752705003271  14.762197256457675 5.8349843519358116  14.764099540607795 5.824887516682197  C 14.72224928930538 5.681900773573445  14.191176833073854 3.994223032267645  12.670919558946423 4.862710486366642  C 11.084338133569915 5.769074858227928  9.188163637964339 0.07850547462407573  9.188163637964339 0.07850547462407573  C 9.188163637964339 0.07850547462407573  4.412124989717504 1.3761998470394259  1.4966584278433421 1.1774323699339622  C 1.2988811060001506 1.1634079111151363  1.1047944988292484 1.1173228978538394  0.922192135798124 1.04102786952577  C -0.4453897769406514 3.836714842732871  0.11548854959235823 7.179231402030176  2.3232200021121896 9.39035894840527  L 1.8085477637930414 13.919342433213847  L 4.454692640297504 17.982455211330407  L 10.33501458808525 13.629120091919802  C 10.33501458808525 13.629120091919802  10.409485925393017 14.737116435395118  10.650455638491412 10.942224242879098  C 12.96523498898789 9.921671828538907  14.59497411614689 7.808741610110027  14.975673524289148 5.334649742215105  Z " fill-rule="nonzero" fill="#ffb8b8" stroke="none" transform="matrix(1 0 0 1 275 4436 )" />
  </g>
</svg>