<?xml version="1.0" encoding="utf-8"?>
<svg version="1.1" xmlns:xlink="http://www.w3.org/1999/xlink" width="17px" height="11px" xmlns="http://www.w3.org/2000/svg">
  <g transform="matrix(1 0 0 1 -275 -4431 )">
    <path d="M 15.845955872983975 9.435286167779672  C 15.846052523620951 9.801533057226154  15.817523513521738 10.167277518312465  15.760605887569904 10.52948061442926  C 16.43103343699662 9.075105569882046  18.228235561862206 4.794055509537106  15.072398229181745 2.214578009389095  C 12.461444307383 0.08046405438106026  3.251423732004185 -1.8241331203664297  0.3078886083755076 3.8417930938806055  C 0.18250694854939553 4.084242929230389  0.11729386614200925 4.350946274225168  0.11729386614200925 4.6212725083718835  C 0.11729386614200925 5.333036524679986  0.5662736365394768 5.974936016692019  1.255405454448778 6.248413191660061  C 1.2979514738445093 6.164642388258911  1.346072174954221 6.084069164662181  1.391819767136138 6.002115628335401  C 1.5391596746534748 6.051713059378908  1.692602034095323 6.0829510025404225  1.8483367344525925 6.095053791755029  C 4.857511686863705 6.293240077406967  9.787068897756049 4.9993401329811435  9.787068897756049 4.9993401329811435  C 9.787068897756049 4.9993401329811435  11.744191859291806 10.673267531082686  13.3817705447697 9.769556241180604  C 14.950893231279798 8.903608224081887  15.49903587360448 10.586351235149952  15.542231311555902 10.728919888366573  C 15.551751059262363 10.680542386854937  15.637580521927793 10.506996274990028  15.760605887569904 10.240106876472346  C 15.81023184948645 9.916406730816373  15.837209967275392 9.589915998842457  15.841361388435805 9.262799163795679  C 15.842769473528486 9.320323769164139  15.845955872983941 9.377443251299454  15.845955872983975 9.435286167779672  Z " fill-rule="nonzero" fill="#2f2e41" stroke="none" transform="matrix(1 0 0 1 275 4431 )" />
  </g>
</svg>