<?xml version="1.0" encoding="utf-8"?>
<svg version="1.1" xmlns:xlink="http://www.w3.org/1999/xlink" width="43px" height="4px" xmlns="http://www.w3.org/2000/svg">
  <g transform="matrix(1 0 0 1 -249 -4502 )">
    <path d="M 28.470436277450368 1.0920556675571658  L 42.91544104840524 1.4339861402599061  L 39.58124757075524 3.744331031706029  L 30.24233729757287 3.525612288848866  C 30.24233729757287 3.528694081577084  30.23916051808245 3.525612288848866  30.23916051808245 3.525612288848866  L 30.223285453196205 3.525612288848866  L 29.51196948944959 3.5102118936767965  L 29.50881037509074 3.5102118936767965  L 28.918167869150803 3.4948143546611328  L 27.05420207176683 3.451686393404056  L 26.898607593074452 3.4486017445194324  L 25.250562698626133 3.411637368718857  L 25.19023038600571 3.408555575990639  L 23.142079094515687 3.362360102787209  L 23.00870735131322 3.3592754539025855  L 21.494025367501596 3.32231107810201  L 21.249531114283883 3.3192292853737593  L 19.47128242355771 3.2761013241167154  L 18.899709427125945 3.2637884339856424  L 15.70205563960306 3.1898596823844594  L 14.895504007481865 3.171377494484172  L 6.39807227568364 2.974222732255547  C 6.39807227568364 2.974222732255547  0.342535840870524 3.2668702267138934  0.05676111940901821 1.560273950520988  C 0.050308993210936015 1.5184700482998974  0.04712118203468857 1.4762530578418591  0.04722489256063686 1.4339832841035332  C 0.04722489256063686 0.4636270050706831  1.10146816671017 0.2572468577519495  2.098555907729637 0.28188691879596  C 2.6911200069163184 0.3030428347825754  3.280218391443315 0.3793777478975114  3.8577321447590096 0.5098396152123509  L 6.296453606442317 0.5683708277978374  L 7.817474428291802 0.6022505547138215  L 12.590145456435321 0.7162283310002034  L 16.670555309397514 0.8117210632299248  L 18.115389363060462 0.8486854390305  L 20.182571889606987 0.8979826980567915  L 21.00183652806699 0.9164648859570791  L 24.043898781086117 0.9873118448300114  L 25.466480657373225 1.0211915717459956  L 28.470436277450368 1.0920556675571658  Z " fill-rule="nonzero" fill="#cccccc" stroke="none" transform="matrix(1 0 0 1 249 4502 )" />
  </g>
</svg>