<?xml version="1.0" encoding="utf-8"?>
<svg version="1.1" xmlns:xlink="http://www.w3.org/1999/xlink" width="9px" height="3px" xmlns="http://www.w3.org/2000/svg">
  <g transform="matrix(1 0 0 1 -268 -4495 )">
    <path d="M 8.681244643205837 0.16106504127981225  L 8.201334881098752 2.0644326407080253  L 4.040582300470609 1.084113231393519  C 3.7850155195504 1.587737130275741  3.2219400255264508 1.8738588739651958  2.6478850457060443 1.7917998048528148  L 2.31699795086991 1.743747401582391  C 1.642931691237144 1.644518516171547  1.1548035481020322 1.0698415999872166  1.1853005498544598 0.41139158146476124  L 0.47673941638886036 0.2444362458555588  C 0.3737796663221815 0.43161442534850497  0.29503807703554424 0.6303284968197089  0.24228970288128032 0.8360988926016604  L 1.1853005498544247 1.0582921496886  C 1.1548035481019971 1.7167421682110557  1.642931691237144 2.2914190843953524  2.3169979508698746 2.3906479698062295  L 2.6478850457060443 2.438700373076654  C 3.2219400255264157 2.520759442189001  3.7850155195503645 2.234637698499614  4.040582300470573 1.731013799617358  L 8.201334881098717 2.7113332089318645  L 8.835209396642362 0.1973315152702753  L 8.681244643205837 0.16106504127981225  Z " fill-rule="nonzero" fill="#000000" stroke="none" transform="matrix(1 0 0 1 268 4495 )" />
  </g>
</svg>