<?xml version="1.0" encoding="utf-8"?>
<svg version="1.1" xmlns:xlink="http://www.w3.org/1999/xlink" width="5px" height="4px" xmlns="http://www.w3.org/2000/svg">
  <g transform="matrix(1 0 0 1 -259 -4500 )">
    <path d="M 3.6621902832256374 1.213319544666471  C 3.661401830730226 1.213319544666471  3.6606133784151744 1.2133202124640472  3.659824927295875 1.2133215480583204  C 2.98573298195668 1.2142187707414147  2.430783399304162 1.6941280626644282  2.3979342987493624 2.304579307250545  C 2.327007762645424 2.245487530406323  2.2465788071929014 2.196522736849935  2.159407859420275 2.1593654623885414  C 2.5075468789318522 1.9445933351228935  2.7159133514417904 1.5875450957864208  2.7159133514417904 1.2057604811559637  C 2.7159133514417904 0.5687455176508592  2.146351594374126 0.05234285790947979  1.4437615610964372 0.05234285790947979  C 0.7411715278187483 0.05234285790947979  0.17160977075105044 0.5687455176508592  0.17160977075105044 1.2057604811559637  C 0.17160977075105044 1.722951312051858  0.5513195868585834 2.176913955367945  1.1006059099845213 2.3164232165049117  C 0.9128531785190617 2.47896999623199  0.8066324551167187 2.704091056191252  0.8066324551167187 2.939461863201541  C 0.8066324551167187 3.4152314985134278  1.2320230738184785 3.800918992802993  1.7567689951183205 3.800918992802993  C 2.214353608829707 3.800918992802993  2.606940089007323 3.5052045973800583  2.690809613680856 3.097356158204851  C 2.931354752765371 3.358274941392756  3.2871193814841937 3.5090599565169214  3.6621902832256374 3.5090599565169214  C 4.361401176076005 3.5090599565169214  4.928223598584359 2.995140960109317  4.928223598584359 2.3611897505916812  C 4.928223598584359 1.7272385410740754  4.361401176076005 1.213319544666471  3.6621902832256374 1.213319544666471  Z " fill-rule="nonzero" fill="#ffffff" stroke="none" transform="matrix(1 0 0 1 259 4500 )" />
  </g>
</svg>