<?xml version="1.0" encoding="utf-8"?>
<svg version="1.1" xmlns:xlink="http://www.w3.org/1999/xlink" width="5px" height="4px" xmlns="http://www.w3.org/2000/svg">
  <g transform="matrix(1 0 0 1 -261 -4500 )">
    <path d="M 3.528997619828277 1.2550062720810273  C 3.5282090067335545 1.2550062720810273  3.5274203938085607 1.255006940150694  3.5266317820908206 1.255008276289118  C 2.8525403765579305 1.2559055679447737  2.297591677740159 1.7358152137178573  2.26474409370528 2.3462660354813427  C 2.193816827815771 2.287174553760542  2.1133868008386885 2.2382106102889034  2.0262147142152203 2.201054856365287  C 2.374354230272552 1.9862827992371421  2.582721063684199 1.6292342935466877  2.582721063684199 1.2474493461610716  C 2.582721063684199 0.6104343826559671  2.013159306616568 0.09403172291461791  1.3105692733388792 0.09403172291461791  C 0.6079792400611903 0.09403172291461791  0.038417482993492395 0.6104343826559671  0.038417482993492395 1.2474493461610716  C 0.038417482993492395 1.7646409046579115  0.41812834745346594 2.218603999802781  0.967415704940439 2.3581126104816574  C 0.7796629734750127 2.5206593902087358  0.6734422500726698 2.745780450167998  0.6734422500726698 2.9811512571782868  C 0.6734422500726698 3.4569208924901735  1.0988328687743627 3.8426083867797387  1.623578790074238 3.8426083867797387  C 2.0811634037856246 3.8426083867797387  2.4737498839632406 3.546893991356804  2.5576194086367403 3.1390455521815968  C 2.798164559122072 3.399962742305767  3.1539280588973595 3.550746683931478  3.528997619828277 3.550746683931478  C 4.228208512678611 3.550746683931478  4.795030935186965 3.0368276875239038  4.795030935186965 2.402876478006268  C 4.795030935186965 1.7689252684886319  4.228208512678611 1.2550062720810273  3.528997619828277 1.2550062720810273  Z " fill-rule="nonzero" fill="#ffffff" stroke="none" transform="matrix(1 0 0 1 261 4500 )" />
  </g>
</svg>