<?xml version="1.0" encoding="utf-8"?>
<svg version="1.1" xmlns:xlink="http://www.w3.org/1999/xlink" width="10px" height="4px" xmlns="http://www.w3.org/2000/svg">
  <g transform="matrix(1 0 0 1 -268 -4501 )">
    <path d="M 9.583375350337048 3.0011521134892  C 9.715714276453832 2.8030420021366678  9.78620495827822 2.571960049521327  9.786340542686807 2.335793349078618  C 9.787198764744808 1.9632294055321446  9.613277873703325 1.6105818470775506  9.313856674182077 1.3777699532714516  C 9.08834023135761 1.2011399106843978  8.807595782406047 1.1044358366700635  8.517910996134404 1.1036017905570523  C 8.502060588324161 1.1036017905570523  8.489362033077926 1.1066864394416436  8.473514565428623 1.1066864394416436  C 8.332199502128102 0.5615446022404414  7.82754925793017 0.17945828241304948  7.248854347069967 0.17945828241304948  C 6.75293542168666 0.17945828241304948  6.302916842210443 0.46141429110921955  6.098379026692806 0.9002805867155855  C 5.68270391049424 0.6882070902754549  5.1696903440000765 0.8065539084217822  4.896547066360062 1.1775305421582354  C 3.962883775952548 1.0619432364313914  3.0484322112655726 0.8300274746987141  2.175757383050405 0.48750601129625337  C 1.6898748622170956 0.4870420018227963  1.246971921838886 0.7578930331897027  1.0373270539586636 1.1836969837710447  C 0.9508618159790672 1.3498251419317902  0.9063011504551021 1.5335451901672255  0.9073219561759895 1.719697569817819  C 0.9083908777224579 1.941556194112471  0.9720020129936348 2.1588914917039608  1.0912496062198664 2.3481090953660635  C 0.6229065497104483 2.4118437887158444  0.2741517805313599 2.800533772524107  0.2731057128193182 3.2599370179698  C 0.2729364233190816 3.362836882922823  0.2911760675155506 3.4649826424418473  0.3270106241146878 3.5618156098309686  L 2.1028266900929413 3.6049435710880453  C 2.1274284368769427 3.5485316264945204  2.145506509683611 3.4896405902829235  2.1567286612273384 3.429352789487926  C 2.2137542560632624 3.495016825274953  2.2775009526132055 3.554881836762011  2.3469864778480134 3.6080253638162634  L 3.8595963932822954 3.6449897396168387  L 3.9452227013250214 3.58029208541851  C 3.959226642065918 3.60405847357697  3.975126725513242 3.626721983853843  3.992776864916787 3.6480743885014624  L 6.038126307854839 3.694269861704892  C 6.050725475201827 3.680662812949712  6.062376711318256 3.6662548725344744  6.073002497327141 3.651141900447848  C 6.080214758970143 3.667161595119686  6.088698182811524 3.6826123520262564  6.098376086531867 3.697354510589516  L 7.744166473600674 3.7343188863901235  C 7.810127307937094 3.6288707519124404  7.853288909088944 3.5114770275935308  7.871019718819308 3.3892951963335753  C 7.879812689763041 3.3955869836878327  7.8893967166432075 3.400762301743498  7.899539280266064 3.404695591505645  C 7.88955469015302 3.458592947725817  7.884251571034527 3.5132102413663233  7.883685932294848 3.5679706268183184  C 7.884105328386899 3.624774737033996  7.88940821194379 3.681445567853026  7.899539280266064 3.7373921106492225  L 9.760955192838294 3.780520071906267  C 9.777570522795028 3.71081428410324  9.78608163397103 3.6395174623561224  9.786328782043018 3.5679677706619453  C 9.785075547040462 3.3624236321961365  9.713700249779452 3.1630841301102595  9.583375350337048 3.0011521134892  Z M 6.529633017860556 2.42511963969553  C 6.480313071087664 2.3905008022975704  6.433679011458048 2.352407506377728  6.390107678844473 2.311144719565488  C 6.335717708329983 2.375392181162072  6.272810242626042 2.4323610555570667  6.203025236075582 2.4805662033963927  C 6.222051017737643 2.5267816696944334  6.2315447975223375 2.5760617917824544  6.247421666781396 2.622274401924155  C 6.327478750248524 2.539441884564472  6.423320354065839 2.472486290680828  6.529633017860556 2.42511963969553  Z " fill-rule="nonzero" fill="#ffffff" stroke="none" transform="matrix(1 0 0 1 268 4501 )" />
  </g>
</svg>