<?xml version="1.0" encoding="utf-8"?>
<svg version="1.1" xmlns:xlink="http://www.w3.org/1999/xlink" width="10px" height="4px" xmlns="http://www.w3.org/2000/svg">
  <g transform="matrix(1 0 0 1 -277 -4502 )">
    <path d="M 9.604249016458496 3.023488573561703  C 9.740599165112354 2.825378875903035  9.813226013547478 2.5942966517446036  9.81336466918249 2.3581298091511207  C 9.814249787295628 1.9855656760960625  9.635058390816473 1.6329177724430468  9.326563107692804 1.4001064133439545  C 9.094214242059902 1.22347597274266  8.804963175805145 1.1267718057077738  8.50650089290041 1.1259382506295228  C 8.49017016970198 1.1259382506295228  8.477086809751313 1.1290228995141465  8.46075911580964 1.1290228995141465  C 8.315161777863615 0.5838810623128795  7.795219102023321 0.20179474248548754  7.198987981743078 0.20179474248548754  C 6.688041210135999 0.20179474248548754  6.224385704009058 0.4837507511816576  6.013649772869675 0.922617046788056  C 5.585378441028728 0.7105435503479255  5.056819008883226 0.8288903684942852  4.775398662223817 1.1998670022307059  C 3.8134422695854697 1.0842810382252668  2.8712798711779897 0.8523652321247742  1.9721608066926204 0.5098424713687564  C 1.4715545731067867 0.5093784618952993  1.0152303315050293 0.7802294932622057  0.7992325888405578 1.2060334438435478  C 0.7101471921343071 1.3721616020042933  0.664236203412646 1.5558816502397284  0.6652879426402271 1.7420340298903543  C 0.6663892557487094 1.9638926541849742  0.7319280011796536 2.1812279517764637  0.8547891578369486 2.370445555438567  C 0.37225388749391186 2.4341802487883797  0.012930791976097653 2.8228702325966424  0.011853025242444484 3.2822734780423355  C 0.011679354959434904 3.3851730367239594  0.030470638640167635 3.487318513549423  0.06738838944148606 3.5841520699034715  L 1.8970170634796522 3.627280031160516  C 1.9223670711749141 3.5708697718399827  1.9409940429434611 3.51197949564341  1.9525554569355907 3.4516921057168344  C 2.011308804808926 3.517355417554979  2.0769861333863644 3.577220364248725  2.1485756326819168 3.6303646800451395  L 3.7070252414770613 3.667329055845715  L 3.795243256870349 3.602631401647386  C 3.8096743835469242 3.6263967931693384  3.826057206114039 3.649060172794634  3.8442414849792312 3.6704137047303385  L 5.95157121406692 3.716609177933768  C 5.964551266706191 3.7030014095470443  5.976555521788472 3.6885935276974515  5.987504257765657 3.673481216676724  C 5.9949350727917805 3.6895009113485946  6.003675570082932 3.704951668255132  6.0136467436129495 3.719693826818392  L 7.709309566653505 3.756658202618967  C 7.777268304446507 3.651209914445352  7.8217368089689145 3.5338161722742956  7.840003820349242 3.4116345125624514  C 7.849063352401679 3.4179261422502805  7.858937782201341 3.4231014487033917  7.869387610930781 3.427034907734521  C 7.859098954425749 3.4809320699435893  7.853635122761506 3.5355494832027228  7.853053858475592 3.5903099430471945  C 7.853484453349152 3.6471141229542354  7.858948041771827 3.7037850722750654  7.869387610930816 3.759731426878066  L 9.78721006630823 3.802859388135143  C 9.804328714897954 3.7331535715563535  9.813097736225856 3.6618567685744177  9.813352552155525 3.5903070868908538  C 9.81206132418532 3.3847620795307387  9.738523177449668 3.185421676860252  9.604249016458496 3.023488573561703  Z M 6.314215657950994 2.3334811796379915  C 6.258176753418862 2.3977279739519872  6.193363100742955 2.4546967605671006  6.121464050249714 2.502902663468863  C 6.14106637075002 2.549118129766904  6.150847840831254 2.5983953956985846  6.16720582734052 2.6446108619966253  C 6.249687255044229 2.561776595214529  6.348433536968049 2.494820738866435  6.457969037543325 2.4474560997680004  C 6.407150269467486 2.4128367966228716  6.359098991086743 2.37474253378254  6.314203540923993 2.3334811796379915  Z " fill-rule="nonzero" fill="#ffffff" stroke="none" transform="matrix(1 0 0 1 277 4502 )" />
  </g>
</svg>