<?xml version="1.0" encoding="utf-8"?>
<svg version="1.1" xmlns:xlink="http://www.w3.org/1999/xlink" width="7px" height="3px" xmlns="http://www.w3.org/2000/svg">
  <g transform="matrix(1 0 0 1 -266 -4502 )">
    <path d="M 6.732437203880906 2.234015558196337  C 6.826922042707973 2.092185149362763  6.8772474763242535 1.9267516517334633  6.877340356052375 1.7576791700387688  C 6.877951419566401 1.490957021956526  6.7537710353025275 1.2384937588553426  6.539984074906744 1.0718215116767893  C 6.378965009611518 0.9453718250491338  6.178513871460762 0.8761415133133554  5.971679560539016 0.8755447578828146  C 5.960363069120815 0.8755447578828146  5.951297000433299 0.8777503597304881  5.939980509015065 0.8777503597304572  C 5.839081751866136 0.48747810424176596  5.478761351488999 0.21393876335826628  5.065572976236556 0.21393876335826628  C 4.711486369129996 0.21393876335826628  4.390172750563754 0.41579419023831965  4.244133034599429 0.7299832149297923  C 3.9473430584493485 0.5781569927443736  3.581052545096675 0.6628785021742839  3.386025014921786 0.928460117909305  C 2.7193899770908025 0.8457073376672601  2.0664719210533145 0.6796768273543421  1.443381181038683 0.43446528331496254  C 1.0964610734230404 0.43413247189557136  0.7802281657762137 0.6280370500378054  0.6305419260672193 0.9328740479357356  C 0.5688056743410038 1.0518069524612201  0.5369891316230974 1.183333987881869  0.5377175864920787 1.316602421802  C 0.5384800909083174 1.4754323627325077  0.58389877275328 1.6310240409042494  0.66904262838171 1.7664852194429632  C 0.33464454049951425 1.812113379800735  0.0856323431191754 2.0903804311654994  0.08488438970215384 2.4192724817452556  C 0.08476343123719061 2.492939764441706  0.09778605003355778 2.566067227105526  0.1233710968504488 2.6353914731750736  L 1.3913023684422912 2.666269899042473  C 1.4088694797528365 2.6258840606343585  1.421777498152494 2.5837228454946626  1.429789075590586 2.540561499049566  C 1.47050581832151 2.5875712279487804  1.5160214259338705 2.6304293597826867  1.5656345561743705 2.668475500890116  L 2.645638735552759 2.694939996731085  L 2.7067752197369623 2.6486223579300012  C 2.716772658774937 2.665638312242012  2.7281248939105467 2.681864299015181  2.740727493024844 2.697151051240925  L 4.201109094557539 2.7302241736316337  C 4.210108543107124 2.720482329356152  4.218430815655331 2.710166621759392  4.226020490457178 2.6993457477642653  C 4.231171536419899 2.7108148174510545  4.237229124383532 2.7218769849048594  4.244138632665951 2.7324325018103908  L 5.419231569516426 2.7588942713202456  C 5.466326431104319 2.6834023876623507  5.497143946352578 2.599359442460344  5.509805486360849 2.511888675029809  C 5.516085395734092 2.516393452453475  5.522930299019529 2.5200985242353435  5.530174051300371 2.5229139579370936  C 5.5230449977673315 2.5614990989237287  5.519258569957271 2.600599667810622  5.5188547608488925 2.639802676870359  C 5.5191541187257895 2.680469711848394  5.5229403779784905 2.721041335006703  5.530174051300371 2.7610944205057524  L 6.859230610943467 2.791972846373152  C 6.87109301931481 2.7420690158756584  6.877169476039992 2.6910263477412855  6.877345954118994 2.63980267687039  C 6.8764510990267285 2.4926521830980266  6.825489124834991 2.349943667323518  6.732437203880906 2.234015558196337  Z M 4.452431490785586 1.74003435525738  C 4.413596767461347 1.7860303179421844  4.368680350663342 1.826815325639359  4.318853227131992 1.8613260988927736  C 4.332436935480416 1.894410126607816  4.339224591104728 1.929688850846198  4.350555077689157 1.9627756048923857  C 4.407715148391691 1.9034739895697301  4.476146509418438 1.8555397183384188  4.552054682118022 1.8216307182968463  C 4.516843319699817 1.7968455034884157  4.4835496525624805 1.7695732643849582  4.452442686918569 1.7400343552574111  Z " fill-rule="nonzero" fill="#ffffff" stroke="none" transform="matrix(1 0 0 1 266 4502 )" />
  </g>
</svg>