<?xml version="1.0" encoding="utf-8"?>
<svg version="1.1" xmlns:xlink="http://www.w3.org/1999/xlink" width="8px" height="3px" xmlns="http://www.w3.org/2000/svg">
  <g transform="matrix(1 0 0 1 -256 -4502 )">
    <path d="M 7.551727669528768 2.234015558196337  C 7.655558247248494 2.0921854454388513  7.710861997044101 1.9267519261714638  7.710964978544903 1.7576791700387688  C 7.711636476911963 1.490957021956526  7.575174516182432 1.2384937588553426  7.340243790472746 1.0718215116768202  C 7.1632995195397005 0.9453722106451428  6.943023701459372 0.8761419485385369  6.715733335123664 0.8755447578828146  C 6.703294554407753 0.8755447578828146  6.693334917425073 0.8777503597304881  6.680896136709127 0.8777503597304572  C 6.570018381600414 0.48747810424176596  6.174061897669494 0.21393876335826628  5.720008738051424 0.21393876335826628  C 5.3309025763958635 0.21393876335826628  4.977810687861533 0.41579419023831965  4.817327483505131 0.7299832149298233  C 4.4911848310911795 0.5781557358219722  4.088666807939804 0.6628774505768227  3.8743516377055935 0.928460117909305  C 3.141785662067115 0.845707337667291  2.4242932927951153 0.6796768273543421  1.7395781938779726 0.43446528331496254  C 1.3583475218826362 0.43413313506619033  1.0108391981413416 0.6280375089968918  0.8463482433598458 0.9328740479357356  C 0.7785062084959079 1.0518069524612201  0.7435429747399317 1.183333987881869  0.7443434745959551 1.316602421802  C 0.7451829598268642 1.4754321656371407  0.7950934816056255 1.6310234771667536  0.8886567074417389 1.7664852194429632  C 0.5211862811975327 1.812113379800735  0.24754650385646598 2.0903804311654994  0.24672457702460912 2.4192724817452866  C 0.24659315324437067 2.492939651233304  0.2609036788797906 2.56606688665179  0.28901766180295524 2.6353914731750736  L 1.6823518053470077 2.666269899042473  C 1.701656323270719 2.6258840606343585  1.7158409588747383 2.5837228454946626  1.724644890125354 2.540561499049535  C 1.769388279113645 2.5875705240742324  1.8194043260327641 2.630428592735918  1.8739225621589133 2.668475500890116  L 3.060740341695604 2.694939996731085  L 3.1279232913485746 2.6486223579300012  C 3.1389105375765736 2.665638369229069  3.151386548340847 2.681864354257155  3.165236557635528 2.697151051240925  L 4.770048428514044 2.7302241736316337  C 4.779938765591589 2.7204829506046675  4.789084164913342 2.7101671923921704  4.797423588843317 2.699345747764234  C 4.803081715449987 2.7108153221020177  4.809737431530423 2.7218775799531367  4.8173305593658755 2.7324325018103908  L 6.10864455484249 2.7588942713202456  C 6.160397474415294 2.6834027679137247  6.194261930322105 2.599359571836565  6.208173255733895 2.51188867502984  C 6.215074904180588 2.516394081815726  6.222597886284365 2.520099191378418  6.230559369989613 2.5229139579370625  C 6.222723805239132 2.5614989241848165  6.218562884092517 2.6005996008121985  6.218120589273772 2.639802676870359  C 6.218448020348642 2.6804697783755955  6.222608756404655 2.721041514671335  6.230559369989648 2.7610944205057524  L 7.69105800802238 2.791972846373152  C 7.704096165027732 2.742069351404759  7.710774641669157 2.6910265309620316  7.710968054405717 2.63980267687039  C 7.709984697161469 2.4926521830980266  7.65398252772 2.349943667323549  7.551727669528768 2.234015558196337  Z M 5.155702920338749 1.8216307182968463  C 5.117005484905226 1.7968452422279388  5.080414967773759 1.7695730347976242  5.046226885907467 1.74003435525738  C 5.003552445264194 1.7860302465042381  4.954194771976413 1.8268152606339072  4.899440661049941 1.8613260988927736  C 4.914367813081176 1.894410126607816  4.921823699444985 1.929688850846198  4.934277859464443 1.9627756048923546  C 4.997089390787883 1.90347344107705  5.072287814643057 1.8555390610872773  5.155702920338749 1.8216307182968463  Z " fill-rule="nonzero" fill="#ffffff" stroke="none" transform="matrix(1 0 0 1 256 4502 )" />
  </g>
</svg>