<?xml version="1.0" encoding="utf-8"?>
<svg version="1.1" xmlns:xlink="http://www.w3.org/1999/xlink" width="38px" height="38px" xmlns="http://www.w3.org/2000/svg">
  <g transform="matrix(1 0 0 1 -734 -4355 )">
    <path d="M 35.24418953125003 37.78076923076923  L 2.624903437499958 37.78076923076923  C 1.2312013354123508 37.78076923292348  0.10146773338084891 36.668416147846315  0.10146773338084891 35.29625907907733  C 0.10146773338084891 35.19320839238046  0.1079792962805417 35.090257524518094  0.12096468750000433 34.988003076923086  L 4.277214687500004 2.2495415384615525  C 4.436744459980366 1.0070433918971051  5.509198697360231 0.07484858510459144  6.7811534374999916 0  L 31.087939531249994 0  C 32.35989490439677 0.07484840961323015  33.43235009126033 1.0070429364729119  33.59188124999997 2.2495415384615445  L 37.74813124999997 34.988003076923086  C 37.76111664122983 35.09025752455856  37.767628204134795 35.19320839246251  37.767628204134795 35.296259079200766  C 37.767628204134795 36.668416147969765  36.63789460210326 37.78076923304692  35.244297579134795 37.78076923304692  Z " fill-rule="nonzero" fill="#f2f2f2" stroke="none" transform="matrix(1 0 0 1 734 4355 )" />
  </g>
</svg>