<?xml version="1.0" encoding="utf-8"?>
<svg version="1.1" xmlns:xlink="http://www.w3.org/1999/xlink" width="25px" height="18px" xmlns="http://www.w3.org/2000/svg">
  <g transform="matrix(1 0 0 1 -693 -4441 )">
    <path d="M 6.358261904761926 2.6082958064516277  C 6.38181158670086 2.7672940643557866  6.392472601369074 2.927856162325323  6.390145833333316 3.0884893548387065  L 18.543104166666645 11.259296129032254  L 21.784005952380912 9.762654193548398  L 24.73874107142853 14.238621290322605  L 19.265321428571404 17.43203032258066  C 18.357042704796537 17.96196094952154  17.199197465409945 17.843439043188592  16.423476190476176 17.14112709677422  L 4.115610119047611 5.997864193548422  C 3.8401841245667514 6.07347423106336  3.555415723368767 6.111816897330784  3.2692910591791926 6.111816897330784  C 1.5438778902956227 6.111816897330784  0.14515415441727392 4.747384453041744  0.14515415441727392 3.0642717360404648  C 0.14515415441727392 1.3811590190391854  1.5438778902956227 0.016726574750145294  3.2692910591791926 0.016726574750145294  C 4.814195990102783 0.016726574750145294  6.127115045796148 1.118235271964326  6.358261904761858 2.608301612903242  Z " fill-rule="nonzero" fill="#ffb8b8" stroke="none" transform="matrix(1 0 0 1 693 4441 )" />
  </g>
</svg>