<?xml version="1.0" encoding="utf-8"?>
<svg version="1.1" xmlns:xlink="http://www.w3.org/1999/xlink" width="13px" height="12px" xmlns="http://www.w3.org/2000/svg">
  <g transform="matrix(1 0 0 1 -711 -4447 )">
    <path d="M 0.4852220454545463 5.420123999999976  C 0.27413294816390343 5.0911583110408625  0.21472912849390013 4.685112875327604  0.3225270454545482 4.308047999999985  C 0.42993354969892095 3.9309331415718023  0.6938466676121803 3.620059993353072  1.045356590909098 3.4565999999999804  L 7.111836136363637 0.6341999999999757  C 7.711254457020252 0.23797052074349948  8.411106335804567 0.027040876246729795  9.126353604941835 0.027040876246729795  C 11.165620609873521 0.027040876246729795  12.81877315039639 1.705626532777626  12.81877315039639 3.776266876246723  C 12.81877315039639 5.036864725039663  12.19487033883373 6.213080827123668  11.158251590909092 6.906773999999984  L 6.143090909090884 11.409623999999987  C 5.900054714790315 11.627806331945305  5.586842762206903 11.748237013960125  5.262437893611111 11.748237013960125  C 4.812703200276941 11.748237013960125  4.393452954150025 11.517381382881275  4.148125681818178 11.134652999999993  L 0.4852220454545463 5.420123999999976  Z " fill-rule="nonzero" fill="#6c63ff" stroke="none" transform="matrix(1 0 0 1 711 4447 )" />
  </g>
</svg>