<?xml version="1.0" encoding="utf-8"?>
<svg version="1.1" xmlns:xlink="http://www.w3.org/1999/xlink" width="6px" height="15px" xmlns="http://www.w3.org/2000/svg">
  <g transform="matrix(1 0 0 1 -694 -4441 )">
    <path d="M 4.20632857142862 0.293402941176436  C 4.589628571428582 0.26486764705882637  4.931339999999993 0.6825558823529451  4.969568571428583 1.2263529411764713  L 5.846711428571455 13.70519999999999  C 5.884931428571463 14.248999999999995  5.605191428571451 14.712976470588213  5.221891428571455 14.741538235294108  L 1.8037657142857435 14.996138235294104  C 1.420465714285748 15.024667647058802  1.0787542857143047 14.606991176470588  1.0405228571428973 14.063197058823508  L 0.16338000000002595 1.5843499999999722  C 0.12516285714286823 1.0405499999999661  0.4049028571428802 0.5765735294117329  0.7882028571428756 0.5480117647058544  L 1.2028628571428532 0.5171294117646392  C 1.1439817516200037 0.7449243654866009  1.2344896347719245 0.98581962806062  1.426945714285791 1.1135470588235188  C 1.4663081108975737 1.1330378455057861  1.5098899581290814 1.1417439455804284  1.553477142857186 1.1388235294117355  L 3.502334285714336 0.993661764705845  C 3.6845142857143207 0.9798970588234865  3.8173628571429226 0.7592058823529074  3.799060000000054 0.5007205882352603  C 3.794949380130772 0.44113377584795566  3.782588251331812 0.3824573793172155  3.762351428571492 0.3264705882352647  L 4.20632857142862 0.293402941176436  Z " fill-rule="nonzero" fill="#ffffff" stroke="none" transform="matrix(1 0 0 1 694 4441 )" />
  </g>
</svg>