<?xml version="1.0" encoding="utf-8"?>
<svg version="1.1" xmlns:xlink="http://www.w3.org/1999/xlink" width="53px" height="20px" xmlns="http://www.w3.org/2000/svg">
  <g transform="matrix(1 0 0 1 -656 -4454 )">
    <path d="M 52.85967005524862 13.92296363636364  C 49.891781325966846 18.160606060606046  46.37123729281769 19.593969696969715  43.27921436464088 19.82550303030304  C 40.58539199866643 19.98207400758502  37.899354373332905 19.400098668768006  35.492466077348055 18.138372727272728  L 20.723128839779 7.7404545454545435  L 3.477605248618785 14.349160606060597  C 2.527771601182604 14.683504996269082  1.4899181844130494 14.200020399334964  1.102022265193369 13.242493939393915  L 0.256792320441964 11.138527272727252  C -0.14422316468132587 10.154003143397341  0.2906840294953281 9.018489165239247  1.2345661878453211 8.585624242424226  L 17.710538563535977 0.928587878787849  C 19.688697567959856 0.012657471360756917  21.907572775585294 -0.18595321891783703  24.008320662983458 0.36487575757574275  L 46.88101237569064 6.39679393939394  L 52.926868784530406 13.827139393939385  L 52.85967005524862 13.92296363636364  Z " fill-rule="nonzero" fill="#2f2e41" stroke="none" transform="matrix(1 0 0 1 656 4454 )" />
  </g>
</svg>