<?xml version="1.0" encoding="utf-8"?>
<svg version="1.1" xmlns:xlink="http://www.w3.org/1999/xlink" width="26px" height="26px" xmlns="http://www.w3.org/2000/svg">
  <g transform="matrix(1 0 0 1 -699 -4445 )">
    <path d="M 12.158371034482713 25.804329318181807  L 12.06906252873564 25.870590909090915  L 0.255705517241385 17.179124772727267  L 8.31222988505746 11.51834863636364  C 8.081759310344804 10.785154545454548  7.0595229885057496 6.59321886363637  12.650419540229878 3.7358040909091006  C 14.420060229885035 2.8314709090909247  15.695109195402289 2.0529215909090923  16.440080919540225 1.4220729545454587  C 17.49705057303081 0.5205757549749538  18.850968726381662 0.032285278355952976  20.246812643678105 0.04917545454546128  C 23.34299166579454 0.09777917211745675  25.827178040987782 2.5930424165727883  25.827178040987782 5.654423436574978  C 25.827178040987782 6.214164234617264  25.74238396230718 6.770748774182757  25.57561724137929 7.305657272727284  C 24.40980114942528 11.052115454545481  22.552830344827584 16.016434318181823  20.326306896551657 18.390612500000024  C 17.80767547448923 21.072921931676976  15.076343912525084 23.55204506375251  12.158371034482713 25.804329318181807  Z " fill-rule="nonzero" fill="#ec808d" stroke="none" transform="matrix(1 0 0 1 699 4445 )" />
  </g>
</svg>