<?xml version="1.0" encoding="utf-8"?>
<svg version="1.1" xmlns:xlink="http://www.w3.org/1999/xlink" width="54px" height="20px" xmlns="http://www.w3.org/2000/svg">
  <g transform="matrix(1 0 0 1 -658 -4457 )">
    <path d="M 53.640585494505494 14.009457575757551  C 50.633307692307696 18.24712121212122  47.066043956043956 19.6804909090909  43.93300252747251 19.91202727272728  C 41.203433910150444 20.068596952765066  38.48175356571594 19.486621683722973  36.04292604395602 18.224896969696967  L 21.077603406593393 7.826969696969682  L 3.6032360439560347 14.435678787878757  C 2.640792868696684 14.770018014640362  1.5891666520783474 14.2865257276293  1.1961267032966996 13.328993939393905  L 0.33968373626373455 11.225030303030266  C -0.06665483967831554 10.240506192591283  0.3740239424832495 9.104990981132122  1.330432417582425 8.67212727272724  L 18.025036813186837 1.0150909090908624  C 20.029445078238563 0.09915887316124512  22.277764749438266 -0.09945186537107255  24.406388901098925 0.45137878787875596  L 47.58260439560439 6.483303030303032  L 53.708675934065944 13.913636363636353  L 53.640585494505494 14.009457575757551  Z " fill-rule="nonzero" fill="#2f2e41" stroke="none" transform="matrix(1 0 0 1 658 4457 )" />
  </g>
</svg>