<?xml version="1.0" encoding="utf-8"?>
<svg version="1.1" xmlns:xlink="http://www.w3.org/1999/xlink" width="28px" height="11px" xmlns="http://www.w3.org/2000/svg">
  <g transform="matrix(1 0 0 1 -692 -4451 )">
    <path d="M 5.94125075268813 1.6194229729729626  C 6.033378944640532 1.7564933765528241  6.114418609780822 1.9005234064275776  6.183616344085999 2.0501740540540454  L 20.921777634408564 4.413916486486488  L 23.220095913978447 1.642808378378372  L 27.908686881720378 4.521240810810809  L 24.32277204301071 9.817392972972984  C 23.72771061315234 10.696258113729755  22.61657829420461 11.081766798333234  21.59558107526877 10.763595135135146  L 5.396009462365523 5.715341351351354  C 4.820545405235432 6.210489743258232  4.083050296109025 6.483259274189178  3.3197668909518887 6.483259274189178  C 1.5743166659135421 6.483259274189178  0.15934968665079952 5.0860476720793795  0.15934968665079952 3.3624998147297047  C 0.15934968665079952 1.6389519573800633  1.5743166659135421 0.24174035527026544  3.3197668909518887 0.24174035527026544  C 4.371285215773208 0.24174035527026544  5.353939082942703 0.758158580140051  5.941256774193525 1.6194229729729626  Z " fill-rule="nonzero" fill="#ffb8b8" stroke="none" transform="matrix(1 0 0 1 692 4451 )" />
  </g>
</svg>