<?xml version="1.0" encoding="utf-8"?>
<svg version="1.1" xmlns:xlink="http://www.w3.org/1999/xlink" width="12px" height="13px" xmlns="http://www.w3.org/2000/svg">
  <g transform="matrix(1 0 0 1 -712 -4446 )">
    <path d="M 0.6920000000000422 8.992297954545457  C 0.34888075036577415 8.789890145347446  0.1146720186157626 8.453936494907781  0.050550769230749915 8.07219045454547  C -0.013966597739314378 7.690567094255946  0.09789897197574995 7.300891490532243  0.35693846153848285 7.004911136363639  L 4.826935384615458 1.8955565909091066  C 5.526610179953807 0.8027884109642671  6.766794159122198 0.13701768702896996  8.10270540112424 0.13701768702896996  C 10.22643908673357 0.13701768702896996  11.948065401124214 1.7901702275518057  11.948065401124214 3.8294372324835084  C 11.948065401124214 4.505247738711233  11.754909720721116 5.168097136132295  11.389643076923116 5.745766590909103  L 8.647015384615386 11.900613636363635  C 8.428991419893359 12.389806318055792  7.928216242450547 12.70706188525525  7.374069196461593 12.70706188525525  C 7.117964344853415 12.70706188525525  6.866877566884096 12.638856776335233  6.6487261538461375 12.510029999999995  L 0.6920000000000422 8.992297954545457  Z " fill-rule="nonzero" fill="#ec808d" stroke="none" transform="matrix(1 0 0 1 712 4446 )" />
  </g>
</svg>