<?xml version="1.0" encoding="utf-8"?>
<svg version="1.1" xmlns:xlink="http://www.w3.org/1999/xlink" width="20px" height="19px" xmlns="http://www.w3.org/2000/svg">
  <g transform="matrix(1 0 0 1 -710 -4427 )">
    <path d="M 12.26443823529417 17.517283846153845  C 10.07691176470587 18.303042000000005  6.479614705882367 18.547449230769228  6.479614705882367 18.547449230769228  C 8.578653176097745 15.863420644259003  9.742659384033713 12.573858928501375  9.796085294117647 9.174874923076915  C 8.807972946085355 9.904610131636128  7.689571502379522 10.441479668681563  6.500164705882345 10.757025384615378  C 5.237938235294116 11.091133076923063  3.850282352941175 11.158334615384614  2.6615735294117657 10.620187384615386  C 0.9884588235294199 9.862742153846163  -0.0011382352941194875 7.930979999999996  0.18875000000000056 6.113542307692315  C 0.37863823529412055 4.2961046153846345  1.6424147058823486 2.672557538461543  3.2878941176470695 1.8575043076922944  C 4.972265422531617 1.0746761319870248  6.8934744138210675 0.9590962984582995  8.66055882352946 1.5342850769230802  C 10.57005021480764 -0.08183054215557446  13.254454400612673 -0.4378662079216558  15.523547058823544 0.6240389230769333  C 18.080508823529424 1.8713158461538553  19.494664705882368 4.759654923076939  19.739894117647086 7.57996230769232  C 19.98512352941181 10.4002696923077  19.256091176470605 13.204453384615388  18.533279411764738 15.942593076923083  L 18.45161176470593 16.2519656923077  C 18.226582352941236 17.10442553846155  17.572458823529473 18.739966  17.572458823529473 18.739966  C 17.572458823529473 18.739966  13.773635294117692 17.994897076923074  12.26443823529417 17.517283846153845  Z " fill-rule="nonzero" fill="#2f2e41" stroke="none" transform="matrix(1 0 0 1 710 4427 )" />
  </g>
</svg>