<?xml version="1.0" encoding="utf-8"?>
<svg version="1.1" xmlns:xlink="http://www.w3.org/1999/xlink" width="35px" height="31px" xmlns="http://www.w3.org/2000/svg">
  <g transform="matrix(1 0 0 1 -631 -4376 )">
    <path d="M 35 28.294811320754732  C 34.93403751277836 29.74777698314785  33.75975609072004 30.925223584241387  32.31069625000001 31  L 2.8523629166666735 31  C 1.403302410560509 30.92522519235282  0.22902005009974857 29.747777650327475  0.22736291666667324 28.294811320754718  L 0.22736291666667324 2.8514150943396226  C 0.22902005009971543 1.3984487647668649  1.403302410560509 0.22100122274150366  2.8523629166666735 0.21933962264150944  L 32.31069625000004 0.21933962264150944  C 33.75975609072004 0.2210028308529715  34.93403751277836 1.3984494319465048  35 2.8514150943396226  L 35 28.294811320754732  Z M 32.31069624999997 1  L 2.8523629166666398 1  C 1.7253052838123135 0.8055120863867804  0.8119596479825049 1.7213195702915687  1 2.8514150943396226  L 1 28.2948113207547  C 0.8119596479825049 29.424906844802756  1.7253052838122802 30.34071432870754  2.8523629166666735 30  L 32.31069624999997 30  C 33.437753217432096 30.340712720457745  34.35109791475757 29.42490617758691  34 28.294811320754718  L 34 2.8514150943396226  C 34.35109791475757 1.7213202375074323  33.437753217432096 0.8055136946365767  32.31069624999997 1  Z " fill-rule="nonzero" fill="#f2f2f2" stroke="none" transform="matrix(1 0 0 1 631 4376 )" />
  </g>
</svg>