<?xml version="1.0" encoding="utf-8"?>
<svg version="1.1" xmlns:xlink="http://www.w3.org/1999/xlink" width="13px" height="13px" xmlns="http://www.w3.org/2000/svg">
  <g transform="matrix(1 0 0 1 -639 -4383 )">
    <path d="M 6.839886444444465 12.76430133333332  C 6.706154000000005 12.774022444444437  6.572430222222222 12.783333333333333  6.436308666666673 12.783333333333333  C 6.435553617928594 12.78333360243584  6.43479856913258 12.783333736987112  6.434043520346551 12.783333736987112  C 2.9239671103108322 12.783333736987112  0.07848796479099494 9.937854591467273  0.07848796479099494 6.427778181431555  C 0.07848796479099494 2.9177017713958535  2.9239671103108322 0.07222262587599997  6.434043520346551 0.07222262587599997  C 9.41943249447694 0.07222262587599997  12.002419839957858 2.150066303592641  12.642023333333334 5.066134666666659  L 12.718654000000004 5.41666666666665  L 8.025197555555563 5.41666666666665  C 7.546771866970893 5.417200015823492  7.159064238045721 5.804907644748647  7.158530888888896 6.283333333333317  L 7.158530888888896 12.741733333333315  L 6.839886444444465 12.76430133333332  Z M 11.989203777777805 4.838888888888889  C 11.270526038623428 2.3666806259880064  9.010831162177086 0.6620543777296954  6.436308666666673 0.6499999999999836  C 3.245330355603869 0.6499999999999836  0.6585311324040201 3.236799223199849  0.6585311324040201 6.427777777777761  C 0.6585311324040201 9.618756332355673  3.245330355603869 12.20555555555554  6.436308910181765 12.20555555555554  C 6.484761111111126 12.205555555555556  6.5328640000000195 12.204145777777773  6.580753111111117 12.201886666666669  L 6.580753111111117 6.283333333333333  C 6.581676445206503 5.485971465357506  7.227835687579701 4.839812222984273  8.025197555555563 4.838888888888889  L 11.989203777777805 4.838888888888889  Z " fill-rule="nonzero" fill="#ffffff" stroke="none" transform="matrix(1 0 0 1 639 4383 )" />
  </g>
</svg>