<?xml version="1.0" encoding="utf-8"?>
<svg version="1.1" xmlns:xlink="http://www.w3.org/1999/xlink" width="11px" height="11px" xmlns="http://www.w3.org/2000/svg">
  <g transform="matrix(1 0 0 1 -646 -4388 )">
    <path d="M 10.93071257142857 9.35  C 10.929708061681144 10.217460839965288  10.226741699115419 10.920425796601064  9.359280857142863 10.92142857142857  L 1.8164237142857211 10.92142857142857  C 0.9489640996746208 10.920424065105038  0.2459996491807 10.217459614611101  0.2449951428571499 9.35  L 0.2449951428571499 8.24769942857143  L 0.5370671428571379 8.226981714285715  C 3.8235418139798574 8.00008395340356  6.373576411985537 5.267925167612609  6.373576411985537 1.9736273125569093  C 6.373576411985537 1.5174328876904852  6.323774988420327 1.0626016696758207  6.225057142857148 0.6172162857142812  L 6.14165199999999 0.2357142857142857  L 9.359283999999999 0.2357142857142857  C 10.2267436146111 0.23671879203783583  10.92970806510502 0.9396832425317923  10.93071257142857 1.8071428571428572  L 10.93071257142857 9.35  Z M 7.002138000000007 1.9642857142857144  C 6.990159978245661 5.4730841881912236  4.358676175526684 8.419798158813938  0.8735665714285785 8.827009714285712  L 0.8735665714285785 9.35  C 0.8741468084234028 9.870485089778926  1.2959386245067954 10.292276905862318  1.8164237142857211 10.292857142857143  L 9.359280857142863 10.292857142857143  C 9.879765229886301 10.292275177515048  10.301556034657947 9.870484372743437  10.302138000000006 9.35  L 10.302138000000042 1.8071428571428572  C 10.301556034657947 1.2866584843994198  9.879765229886301 0.8648676796278275  9.359280857142863 0.8642857142857143  L 6.911865714285714 0.8642857142857143  C 6.9714708026435765 1.2279303548833176  7.001659370227081 1.5957888186311755  7.002138000000007 1.9642857142857144  Z " fill-rule="nonzero" fill="#ffffff" stroke="none" transform="matrix(1 0 0 1 646 4388 )" />
  </g>
</svg>