<?xml version="1.0" encoding="utf-8"?>
<svg version="1.1" xmlns:xlink="http://www.w3.org/1999/xlink" width="55px" height="48px" xmlns="http://www.w3.org/2000/svg">
  <g transform="matrix(1 0 0 1 -104 -826 )">
    <path d="M 54.77609818451267 25.816326604460823  C 55.16191475386623 27.289163314615813  54.394124449693 28.819879706025333  52.986492945628775 29.384199314525866  L 16.861550535922635 43.83990097405565  L 14.136140940317881 44.93062293025758  C 14.049313731962348 44.964556502228305  13.962486523606813 44.99364242106036  13.870835581453756 45.02272833989242  L 4.739507502728461 47.72287113813457  C 3.5721639237261007 48.06705451098051  1.9562131015533317 46.48671958777234  1.010761277237358 45.39599763157039  C 0.04341926920706859 44.30978239437718  0.010624919415613675 42.67635274707942  0.9335815364768782 41.551808692600886  C 1.0597517989100176 41.40561894566858  1.1985849631655223 41.27097221311771  1.3484467617334814 41.149453482090834  C 1.7003521033355609 40.874207506508796  2.114703787707178 40.69098872534665  2.554380211116109 40.61621163683655  L 11.67606082224635 38.81288466924933  C 12.00325526406947 38.74835539179669  12.317737402224001 38.630453879529675  12.607041445169745 38.463853643264684  L 16.86157465459168 35.972159929985565  L 38.94945171348402 23.048316662277212  C 40.21807467484739 22.307294238744884  40.767042948401695 20.752716743747882  40.2470361050197 19.37379558316129  L 36.03109276597798 8.199955098514693  C 35.49623832260762 6.78566269662268  36.08879670841389 5.192138448044357  37.41550436586925 4.476957488012059  L 44.40027090469353 0.7151786524000272  C 44.83563757218705 0.4802904468297956  45.32209235308222 0.35736222996156086  45.81623148569317 0.35736222996156086  C 47.178265151788075 0.35736222996156086  48.36860427597379 1.2813736862182408  48.71268891968584 2.605763376483386  L 54.77609818451267 25.816326604460823  Z " fill-rule="nonzero" fill="#ffb9b9" stroke="none" transform="matrix(1 0 0 1 104 826 )" />
  </g>
</svg>