<?xml version="1.0" encoding="utf-8"?>
<svg version="1.1" xmlns:xlink="http://www.w3.org/1999/xlink" width="23px" height="34px" xmlns="http://www.w3.org/2000/svg">
  <g transform="matrix(1 0 0 1 -1120 -4527 )">
    <path d="M 18.70666666666665 5.909200000000017  C 19.95424242424242 13.137599999999996  21.18787878787879 20.4  22.442424242424234 27.61480000000001  C 22.62421831458817 28.354528932774496  22.650299925121303 29.12255298415978  22.51909090909093 29.872400000000024  C 22.21626944836615 30.857100110854926  21.547703934061094 31.69610174473044  20.644242424242428 32.22520000000001  C 17.410303030303044 34.374  13.116969696969692 33.877600000000015  9.255757575757576 33.29280000000001  C 8.152318802747393 33.22430327899348  7.090320407853409 32.856944182046675  6.189090909090906 32.232  C 5.539289950151708 31.585576705778678  5.060827116425044 30.794328155732604  4.795151515151512 29.926800000000014  C 2.6054699507815826 24.380386362178154  1.1305377102501926 18.5900405736672  0.40424242424241313 12.688800000000017  C -0.0627272727272751 8.942000000000023  0.15333333333331273 4.399600000000018  3.4360606060605914 2.40040000000001  C 4.674959985442209 1.743959503822798  6.0391586002435 1.3435071237477842  7.443636363636349 1.2240000000000173  C 9.813333333333322 0.877200000000014  14.232121212121204 -0.33319999999998684  16.462424242424227 0.8568000000000131  C 18.309393939393924 1.842800000000015  18.386060606060585 4.10040000000002  18.70666666666665 5.909200000000017  Z " fill-rule="nonzero" fill="#f0966a" stroke="none" transform="matrix(1 0 0 1 1120 4527 )" />
  </g>
</svg>