<?xml version="1.0" encoding="utf-8"?>
<svg version="1.1" xmlns:xlink="http://www.w3.org/1999/xlink" width="35px" height="44px" xmlns="http://www.w3.org/2000/svg">
  <g transform="matrix(1 0 0 1 -1081 -4452 )">
    <path d="M 25.90686274509802 41.889375000000015  C 23.799999999999986 43.099375000000016  19.757843137254895 43.429375  17.266666666666666 43.49125  C 12.38039215686274 43.61500000000001  8.708823529411763 40.878750000000004  6.23823529411765 36.657500000000006  C 4.234313725490207 33.220000000000006  3.273529411764713 29.308125000000008  2.3264705882352943 25.45125000000001  C 0.8921568627450961 19.573125000000008  -0.9333333333333329 14.51312500000001  2.285294117647058 8.88250000000001  C 4.801478500516476 4.564018413956306  9.128519261657123 1.613547213640068  14.061764705882359 0.8525000000000063  L 14.940196078431379 0.7150000000000067  C 23.73823529411765 -0.6599999999999933  32.00784313725491 5.121875000000006  33.3186274509804 13.557500000000008  C 33.442156862745115 14.33437500000001  33.400980392156875 15.180000000000009  33.58627450980392 15.93625000000001  C 33.77156862745097 16.69250000000001  34.03235294117647 17.31125000000001  34.1970588235294 17.99875000000001  C 34.62116601502213 19.600394873717967  34.83570757309285 21.250461679621583  34.83529411764705 22.90750000000001  C 34.7735294117647 25.22437500000001  33.97745098039215 27.63062500000001  32.20686274509802 29.095000000000006  C 31.860013949938914 29.347665629607253  31.544397967116755 29.640766410735147  31.26666666666665 29.96812500000002  C 31.08907719800726 30.23681826283124  30.94827855649928 30.528167582902473  30.848039215686246 30.834375000000016  C 30.235041703463935 32.48395490830011  29.705931036898598 34.16361132022335  29.262745098039186 35.86687500000001  C 28.679411764705858 38.10125000000001  28.013725490196055 40.67937500000001  25.90686274509802 41.889375000000015  Z " fill-rule="nonzero" fill="#faa87d" stroke="none" transform="matrix(1 0 0 1 1081 4452 )" />
  </g>
</svg>