<?xml version="1.0" encoding="utf-8"?>
<svg version="1.1" xmlns:xlink="http://www.w3.org/1999/xlink" width="69px" height="66px" xmlns="http://www.w3.org/2000/svg">
  <g transform="matrix(1 0 0 1 -1071 -4447 )">
    <path d="M 42.02235294117646 24.576494845360823  C 41.67735294117648 24.222680412371137  41.034705882352945 24.33154639175258  40.432647058823534 24.494845360824744  C 39.69995598500936 24.769148587285777  39.17891376686939 25.429487273640643  39.079705882352954 26.209484536082474  C 38.924117647058836 26.794639175257732  38.66705882352941 27.468247422680417  38.08529411764709 27.631546391752583  C 37.60720988195948 27.70657726249386  37.12433473331524 27.529262284002975  36.806764705882394 27.162061855670107  C 36.505433335317406 26.80869660612682  36.18711246543363 26.470354887497745  35.852941176470594 26.148247422680413  C 35.122352941176466 25.563092783505155  33.87088235294117 25.81484536082474  33.004999999999974 25.780824742268045  C 31.864467342069606 25.74718064758485  30.73068827322794 25.59208820861337  29.62264705882352 25.318144329896914  C 27.517708117322165 24.808614862027813  25.560272140854355 23.811378952877334  23.906470588235297 22.4059793814433  C 22.07323529411764 20.83422680412371  20.67294117647059 18.820206185567006  18.941176470588218 17.139587628865975  C 18.013596219711886 16.201384285568366  16.939594312096432 15.422217958900983  15.76176470588236 14.832989690721648  C 12.636470588235298 13.349690721649482  11.493235294117653 15.091546391752575  11.270000000000007 18.12618556701031  C 11.005566285150046 23.212757809577315  11.661089550085002 28.30537550459574  13.204705882352949 33.15649484536082  C 13.98264705882354 35.63999999999999  15.518235294117646 37.74247422680413  16.363823529411764 40.144329896907216  C 17.121470588235297 42.267216494845364  17.432647058823537 43.696082474226806  19.455294117647053 45.090927835051545  C 21.25640619162922 46.28147791495476  23.332414802633945 46.98454373271621  25.482647058823524 47.13216494845361  C 25.930092954004287 47.11752422933839  26.36913587881459 47.25672461410909  26.727352941176466 47.52680412371134  C 26.97972180717772 47.85313251236851  27.113408826733057 48.25653054717193  27.10617647058823 48.6698969072165  C 27.250477555657838 50.353315085329434  27.27986017813057 52.044703769004386  27.194117647058814 53.73216494845361  C 27.20139169574155 54.7235415290163  26.969252570144484 55.70187215606645  26.517647058823524 56.58309278350515  C 25.957861466865012 57.4079111389196  25.195948314974096 58.07348972375831  24.305588235294124 58.51546391752577  C 19.388195370686947 61.33617255038944  13.650909056569372 62.35566595530597  8.070294117647064 61.400412371134  C 6.818814581363946 61.22132201965766  5.606555729523586 60.8302185236367  4.4850000000000065 60.24371134020618  C 1.7250000000000079 58.68556701030927  0.2502941176470619 55.37876288659793  0.27058823529412146 52.201237113402065  C 0.27058823529412146 48.418144329896904  2.0835294117647143 45.66927835051547  4.065588235294121 42.67546391752577  C 5.844705882352942 40.01505154639175  5.526764705882354 37.422680412371136  5.35764705882354 34.43567010309279  C 5.2121978190324105 31.095441827510857  5.2460706019822325 27.749752204449262  5.459117647058819 24.41319587628865  C 5.551552536323557 20.795634173621597  6.325117284855 17.228507468502745  7.738823529411773 13.900824742268039  C 9.375882352941185 10.32865979381443  12.298235294117651 8.226185567010306  15.07852941176472 5.545360824742266  C 16.06906743032639 4.497513753083699  17.190005956374353 3.5827306161676256  18.413529411764724 2.8237113402061835  C 19.27512007302069 2.3717781955944868  20.182222173712855 2.013665996030779  21.1194117647059 1.755463917525771  C 25.692352941176484 0.39463917525772957  31.070294117647084 -0.8845360824742292  35.65676470588238 0.9729896907216469  C 39.86050964240503 2.7008937499332903  43.248585659440835 5.979701766281378  45.1273529411765 10.138144329896909  C 45.936705444420944 12.101735914345346  46.56617946977804 14.135533649368972  47.00794117647061 16.214226804123708  C 48.39470588235297 21.84123711340206  48.902058823529444 27.78123711340206  51.932647058823555 32.755051546391755  C 55.14588235294121 37.98061855670103  59.2994117647059 41.60041237113402  63.547647058823564 45.90061855670104  C 70.3123529411765 51.262268041237114  71.11058823529416 59.22309278350515  62.71558823529416 63.22391752577321  C 60.43588235294122 64.31257731958763  58.04117647058828 65.31278350515464  55.51794117647062 65.44886597938145  C 50.28205882352944 65.72103092783506  46.46676470588239 62.264536082474244  42.313235294117675 59.9579381443299  C 41.41352941176472 59.46123711340206  40.378529411764724 59.23670103092784  39.45176470588238 58.787628865979386  C 37.32764705882357 57.753402061855674  35.9273529411765 55.57608247422681  35.277941176470634 53.2898969072165  C 34.73540101495134 50.973030228103475  34.5190723443861 48.591000936455586  34.63529411764709 46.21360824742267  C 34.60414538936663 45.390840774412105  34.67918258184008 44.567483324053704  34.85852941176475 43.76412371134022  C 35.12513877801846 42.965399766665605  35.49592259380725 42.205783019290536  35.961176470588256 41.50515463917526  C 36.78531054469121 40.353912154216935  37.51384797982569 39.13640067372836  38.13941176470588 37.86494845360824  C 38.58588235294117 36.73546391752577  38.680588235294124 35.388247422680415  39.03235294117646 34.21113402061856  C 39.04648371564811 34.14771398692254  39.076792134718424 34.08908893745026  39.12029411764705 34.04103092783506  C 39.19484874513565 33.98068728919559  39.28847751249984 33.94929584231598  39.3841176470588 33.952577319587625  C 42.590588235294106 33.57835051546392  42.76647058823527 29.237319587628864  42.69882352941175 26.808247422680413  C 42.772787765768356 26.003911788076582  42.52987494633376 25.20251506770867  42.02235294117646 24.576494845360823  Z " fill-rule="nonzero" fill="#12174a" stroke="none" transform="matrix(1 0 0 1 1071 4447 )" />
  </g>
</svg>