<?xml version="1.0" encoding="utf-8"?>
<svg version="1.1" xmlns:xlink="http://www.w3.org/1999/xlink" width="8px" height="4px" xmlns="http://www.w3.org/2000/svg">
  <g transform="matrix(1 0 0 1 -1080 -4473 )">
    <path d="M 6.7133333333333285 1.3360000000000014  C 6.315570796885595 1.1933504013134666  5.9017269541281125 1.1258758617334421  5.48666666666666 1.1360000000000015  L 5.333333333333333 1.136000000000007  C 4.820441353999191 1.0647376237775859  4.315356216109706 0.9279623563490986  3.826666666666663 0.728000000000003  L 2.2866666666666617 0.16800000000000068  C 1.758466495130487 -0.09205105996797443  1.1550648199098912 0.0022621430496997164  0.6999999999999981 0.4160000000000025  C -0.29333333333333184 1.4480000000000017  2.633333333333335 2.2160000000000024  3.1599999999999966 2.360000000000002  L 5.826666666666672 3.087999999999994  C 6.099632676423975 3.180487951887284  6.383439836680168 3.218328906588107  6.666666666666667 3.1999999999999944  C 6.946330807793477 3.167748074474923  7.19523447394054 2.9736032148802165  7.333333333333333 2.680000000000001  C 7.533333333333341 2.1600000000000024  7.160000000000006 1.5439999999999998  6.7133333333333285 1.3360000000000014  Z " fill-rule="nonzero" fill="#12174a" stroke="none" transform="matrix(1 0 0 1 1080 4473 )" />
  </g>
</svg>