<?xml version="1.0" encoding="utf-8"?>
<svg version="1.1" xmlns:xlink="http://www.w3.org/1999/xlink" width="8px" height="4px" xmlns="http://www.w3.org/2000/svg">
  <g transform="matrix(1 0 0 1 -1090 -4472 )">
    <path d="M 6.840000000000032 0.22666666666665947  L 6.7133333333333285 0.30666666666666725  L 3.8333333333333335 0.9733333333333339  C 3.4073379220248703 1.0631493449565188  2.9866844396067145 1.1766590148153853  2.5733333333333426 1.3133333333333326  C 2.1718146593196934 1.419232525694999  1.764454644718948 1.5015949330186469  1.3533333333333342 1.5599999999999976  C 0.7600000000000099 1.6999999999999982  -0.12000000000000455 2.37333333333333  0.45999999999999847 3.046666666666662  C 0.6856879227830746 3.2773122085645525  1.0066845957761454 3.3884264415236864  1.3266666666666727 3.346666666666669  C 1.6419043394425519 3.30235941288313  1.9480064425086046 3.207827881053911  2.2333333333333485 3.066666666666663  C 3.853333333333353 2.3999999999999964  5.4266666666666765 1.5133333333333308  7.073333333333342 0.8866666666666608  C 7.300000000000011 0.7999999999999924  7.573333333333342 0.6066666666666597  7.4799999999999995 0.3866666666666608  C 7.442774345010984 0.3070671382744763  7.371823577107061 0.24834926138845978  7.28666666666669 0.22666666666665947  C 7.139972325203075 0.1905145586914898  6.986694341463647 0.1905145586914898  6.840000000000032 0.22666666666665947  Z " fill-rule="nonzero" fill="#12174a" stroke="none" transform="matrix(1 0 0 1 1090 4472 )" />
  </g>
</svg>