<?xml version="1.0" encoding="utf-8"?>
<svg version="1.1" xmlns:xlink="http://www.w3.org/1999/xlink" width="23px" height="35px" xmlns="http://www.w3.org/2000/svg">
  <g transform="matrix(1 0 0 1 -1091 -4483 )">
    <path d="M 18.253636363636364 17.07596153846154  C 18.492508704762773 17.42597043672007  18.763064228368044 17.754823639533726  19.06212121212121 18.058653846153856  C 19.524498574257052 18.553399371539385  20.065641600821966 18.97374522075145  20.665151515151518 19.30384615384615  C 21.104242424242425 19.546153846153842  21.968484848484856 19.61346153846153  22.316969696969707 19.889423076923077  C 22.88151515151516 20.32692307692308  22.686363636363645 20.670192307692304  22.52606060606062 21.484615384615388  C 22.067214138799834 24.204761333964438  20.97582594356455 26.789069708044035  19.3339393939394 29.043269230769237  C 16.336969696969696 32.96057692307692  11.109696969696968 35.275961538461544  6.161212121212124 34.42788461538462  C 4.996568009833545 34.30481370929483  3.8896261252039426 33.87395520637254  2.962121212121212 33.182692307692314  C 2.478844970897978 32.72987220605512  2.0844993820601045 32.19625825188046  1.798181818181827 31.607692307692314  C 0.7457575757575907 29.62884615384616  -0.17424242424242425 26.89615384615385  0.2300000000000087 24.627884615384616  C 0.31363636363637554 24.13653846153846  0.5436363636363645 23.68557692307692  0.6551515151515335 23.20769230769231  C 0.7192704987494044 22.730203900900847  0.7449030844710969 22.248628481865758  0.7318181818182095 21.767307692307696  C 0.7923895540668977 20.720440348344162  0.9298053424460677 19.67904311926724  1.1430303030303333 18.650961538461544  C 1.1430303030303333 18.536538461538466  1.2057575757576082 18.395192307692316  1.3172727272727576 18.348076923076924  C 1.4014740879111487 18.324332234216435  1.490950154513177 18.324332234216435  1.5751515151515685 18.348076923076924  C 2.3635981697440696 18.545144804810086  3.173374480563766 18.10970384335864  3.415151515151539 17.35865384615385  C 3.661903427019123 16.593009828127418  3.7402446687308224 15.7860164352446  3.6451515151515474 14.989423076923083  C 3.5893939393939633 13.750961538461542  3.575454545454582 12.519230769230775  3.5963636363636735 11.280769230769234  C 3.5963636363636735 9.806730769230775  5.26909090909095 9.180769230769231  5.610606060606089 7.693269230769235  C 5.734197897616129 6.677090204358438  5.773818019780599 5.653021509666492  5.729090909090928 4.630769230769237  C 5.729090909090928 2.456730769230778  7.820000000000018 0.6730769230769279  10.384848484848508 0.6663461538461599  L 11.221212121212137 0.6663461538461599  C 13.786060606060627 0.6663461538461599  15.883939393939409 2.4365384615384693  15.8909090909091 4.610576923076929  C 16.01636363636365 7.026923076923085  15.730606060606076 9.69903846153847  16.309090909090912 12.014423076923082  C 16.66384017230353 13.793606665587708  17.320890219171844 15.503869635067637  18.253636363636364 17.07596153846154  Z " fill-rule="nonzero" fill="#faa87d" stroke="none" transform="matrix(1 0 0 1 1091 4483 )" />
  </g>
</svg>