<?xml version="1.0" encoding="utf-8"?>
<svg version="1.1" xmlns:xlink="http://www.w3.org/1999/xlink" width="67px" height="79px" xmlns="http://www.w3.org/2000/svg">
  <g transform="matrix(1 0 0 1 -1074 -4500 )">
    <path d="M 58.07122448979588 7.2462068965517155  C 54.87163265306118 4.644655172413788  41.79295918367347 0.6810344827586207  38.730102040816334 4.767241379310345  C 38.08106031895803 5.761176049731941  37.693161622887885 6.901645645579365  37.60204081632653 8.08387931034483  C 37.15451305552665 11.368012064726932  35.269330115706346 14.285874154624986  32.453979591836735 16.051982758620696  C 30.817026856380874 17.102016295746125  28.87648429479339 17.58108743510798  26.936734693877554 17.414051724137938  C 23.791836734693884 17.053103448275866  20.59908163265306 17.31189655172414  19.31377551020408 13.777327586206898  C 18.028469387755106 10.242758620689658  19.0061224489796 6.047586206896558  19.812857142857133 2.533448275862068  C 19.812857142857133 2.4312931034482714  19.84704081632653 2.3087068965517243  19.765 2.247413793103456  C 19.727981863373156 2.223909442623134  19.685710542259347 2.209873391496733  19.641938775510198 2.2065517241379276  C 18.315428311575793 2.001381133805034  17.030057408440157 1.5876043214542601  15.833877551020407 0.9806896551724122  C 15.425889431293525 0.7142872605154043  14.953790692785494 0.5614474199470827  14.466530612244895 0.5380172413793048  C 14.288775510204086 3.18724137931034  12.244591836734692 5.8160344827586155  10.781530612244895 7.899999999999996  C 9.61244897959184 9.56172413793103  8.395510204081633 11.209827586206892  7.089693877551014 12.762586206896547  C 5.284795918367339 14.901034482758616  4.286632653061222 17.482155172413783  3.3089795918367275 20.063275862068963  C 2.468061224489786 22.30387931034483  0.6631632653061119 24.72155172413793  0.5127551020408067 27.13241379310345  C 0.5047909761366969 27.972788214926982  0.6388392561146328 28.808507169447353  0.9092857142857035 29.60456896551723  C 3.0765306122448886 37.29344827586206  5.154897959183658 44.02887931034481  4.772040816326514 52.0787068965517  C 4.597148324010591 55.64136633188543  4.139943280018692 59.184691304293125  3.404693877551013 62.675603448275844  C 3.02867346938775 64.4803448275862  2.584285714285705 66.27146551724135  2.0373469387755034 68.04215517241377  C 1.6408163265306064 69.40422413793101  0.5195918367346877 70.6981896551724  0.3144897959183631 72.1283620689655  C 0.15040816326530534 73.23163793103447  8.901428571428568 76.02387931034481  9.940612244897954 76.33034482758616  C 21.080905438356314 79.43938667757696  32.81400367710033 79.79703361335532  44.124285714285705 77.37232758620686  C 48.16479591836734 76.69129310344825  52.76591836734695 75.24068965517239  55.96551020408162 72.63913793103447  C 56.07489795918366 72.55060344827584  56.19112244897959 72.44163793103446  56.18428571428569 72.30543103448271  C 56.17558371158233 72.2345171428708  56.149781150646334 72.16675478643717  56.10908163265304 72.10793103448273  C 55.172448979591806 70.46663793103447  53.791428571428554 68.65508620689654  53.791428571428554 66.71413793103447  C 53.791428571428554 63.4383620689655  54.741734693877525 60.1830172413793  54.399897959183654 56.920862068965505  C 53.955510204081605 52.62353448275861  53.08040816326528 48.40793103448275  52.246326530612215 44.165086206896554  C 52.02755102040814 43.041379310344816  49.6005102040816 31.436551724137928  50.13377551020405 31.266293103448273  C 54.07173469387751 30.03362068965517  57.373877551020385 29.161896551724134  61.56479591836732 29.29129310344827  C 62.59714285714282 29.29129310344827  63.82091836734691 29.543275862068963  64.23795918367344 30.483103448275855  C 64.48408163265304 31.027931034482748  64.42255102040814 31.75663793103448  64.9216326530612 32.10396551724137  C 65.68734693877548 31.708965517241364  66.5282653061224 31.232241379310334  66.76071428571424 30.40137931034482  C 67.17775510204079 28.95077586206896  65.94714285714282 26.315172413793096  65.74204081632648 24.74198275862068  C 65.32241596962734 22.392064450616623  64.74222338109004 20.07342607692484  64.0055102040816 17.802241379310335  C 62.88428571428569 13.859051724137919  61.27081632653057 9.84775862068964  58.07122448979588 7.2462068965517155  Z " fill-rule="nonzero" fill="#72bf98" stroke="none" transform="matrix(1 0 0 1 1074 4500 )" />
  </g>
</svg>