<?xml version="1.0" encoding="utf-8"?>
<svg version="1.1" xmlns:xlink="http://www.w3.org/1999/xlink" width="14px" height="4px" xmlns="http://www.w3.org/2000/svg">
  <g transform="matrix(1 0 0 1 -1094 -4494 )">
    <path d="M 12.348000000000011 0.8571428571428571  C 12.648999999999996 0.7771428571428568  13.131999999999993 0.42857142857142855  13.432999999999998 0.4342857142857172  L 0.5739999999999953 0.2285714285714318  L 0.734999999999988 1.8342857142857187  C 0.734999999999988 2.468571428571433  0.8189999999999912 2.777142857142865  0.8609999999999928 3.40571428571429  C 0.8609999999999928 3.6000000000000063  0.8609999999999928 3.702857142857145  1.098999999999995 3.7828571428571456  C 1.4647483708103037 3.870927037569199  1.8447160368254687 3.9133115661651345  2.226000000000005 3.9085714285714306  C 2.970934664075966 3.9476483758168763  3.7189329211574886 3.90924517945792  4.45200000000001 3.7942857142857145  C 6.123294910802506 3.519101418169214  7.734782560291224 3.041438123493021  9.232999999999999 2.377142857142847  C 9.996467642257471 2.0477538774712634  10.735119662456588 1.6813855285220793  11.444999999999995 1.279999999999989  C 11.718494840900712 1.1030893022270578  12.022860775649475 0.9605607202216301  12.348000000000011 0.8571428571428571  Z " fill-rule="nonzero" fill="#d8846a" stroke="none" transform="matrix(1 0 0 1 1094 4494 )" />
  </g>
</svg>