<?xml version="1.0" encoding="utf-8"?>
<svg version="1.1" xmlns:xlink="http://www.w3.org/1999/xlink" width="61px" height="40px" xmlns="http://www.w3.org/2000/svg">
  <g transform="matrix(1 0 0 1 -1082 -4527 )">
    <path d="M 23.64766666666662 11.85084745762715  C 22.191366610203122 11.080251583633638  21.02730722109288 9.85395882939184  20.333333333333332 8.359322033898312  C 20.02155555555555 7.681355932203399  19.72333333333333 7.003389830508483  19.323444444444437 6.088135593220352  C 18.82188888888888 4.9898305084745855  15.514333333333324 -1.1661016949152438  13.609777777777767 0.6101694915254372  C 13.609777777777767 0.6101694915254372  12.884555555555549 1.2881355932203524  13.548777777777765 2.8135593220339117  C 13.548777777777765 2.8135593220339117  14.965333333333323 4.786440677966122  13.663999999999978 4.766101694915274  C 12.362666666666634 4.745762711864426  11.813666666666652 4.467796610169513  9.407555555555533 3.2813559322034114  C 6.696444444444421 1.925423728813581  4.554666666666646 -0.24406779661014982  3.178777777777757 0.4135593220339172  C 1.8028888888888674 1.0711864406779843  1.6605555555555382 2.4474576271186628  5.537444444444416 4.38644067796612  C 5.537444444444416 4.38644067796612  7.055666666666645 5.213559322033916  7.123444444444418 5.552542372881374  C 7.313222222222198 6.454237288135619  2.975444444444416 4.50847457627121  1.7486666666666366 4.766101694915274  C 1.7486666666666366 4.766101694915274  -1.5588888888889159 5.708474576271198  2.0401111111110857 7.837288135593241  C 2.0401111111110857 7.837288135593241  -1.8571111111111365 8.69830508474579  1.9248888888888624 10.901694915254264  C 5.706888888888861 13.10508474576274  5.354444444444409 12.257627118644097  5.354444444444409 12.257627118644097  C 4.86230790114253 12.138013992248682  4.348692098857396 12.138013992248682  3.8565555555555155 12.257627118644097  C 2.69755555555551 12.406779661016976  1.823222222222182 13.01016949152546  2.0672222222221914 13.776271186440711  C 3.022888888888856 16.61016949152546  7.5436666666666445 16.569491525423764  9.915888888888865 16.888135593220376  C 14.341777777777757 17.484745762711896  19.370888888888857 17.9254237288136  22.48188888888886 21.50508474576275  C 25.721666666666643 25.233898305084782  29.198666666666636 27.898305084745804  33.25177777777775 30.86779661016953  C 36.53899999999996 33.267796610169526  39.8533333333333 35.69491525423733  43.55399999999996 37.39661016949156  C 47.86466666666663 39.38305084745767  56.03866666666663 41.54576271186444  59.57666666666661 36.813559322033925  C 61.53544444444438 34.1898305084746  59.57666666666661 29.159322033898334  58.776888888888834 26.37966101694917  C 58.670829561545254 25.887455723200294  58.457960199274176 25.424567659984724  58.15333333333326 25.02372881355932  C 57.5725934021795 24.5162903089399  56.836210615680926 24.222133654799336  56.06577777777772 24.1898305084746  C 54.35777777777771 23.92542372881359  52.480333333333284 23.8440677966102  50.846888888888834 23.281355932203414  C 49.49133333333328 22.800000000000015  47.96633333333329 21.308474576271212  46.41422222222218 21.308474576271212  C 38.741777777777735 18.562711864406797  30.649111111111072 16.122033898305105  23.64766666666662 11.85084745762715  Z " fill-rule="nonzero" fill="#f0966a" stroke="none" transform="matrix(1 0 0 1 1082 4527 )" />
  </g>
</svg>