<?xml version="1.0" encoding="utf-8"?>
<svg version="1.1" xmlns:xlink="http://www.w3.org/1999/xlink" width="23px" height="19px" xmlns="http://www.w3.org/2000/svg">
  <g transform="matrix(1 0 0 1 -1118 -4488 )">
    <path d="M 0.5993939393939292 9.995357142857147  L 8.30787878787878 0.3053571428571448  C 8.30787878787878 0.3053571428571448  22.13575757575757 3.250357142857147  22.5121212121212 6.331071428571427  C 22.88848484848483 9.411785714285708  20.246969696969686 8.651785714285714  20.246969696969686 8.651785714285714  C 20.246969696969686 8.651785714285714  22.5260606060606 10.348214285714285  20.83242424242423 12.146428571428574  C 19.138787878787863 13.944642857142865  18.23272727272727 12.336428571428577  18.23272727272727 12.336428571428577  C 18.23272727272727 12.336428571428577  20.9160606060606 14.141428571428575  19.24333333333332 15.641071428571436  C 17.570606060606046 17.1407142857143  14.894242424242407 15.444285714285718  14.894242424242407 15.444285714285718  C 14.894242424242407 15.444285714285718  16.60181818181816 19.305357142857147  13.758181818181805 18.558928571428577  C 10.914545454545452 17.81250000000001  0.5993939393939292 9.995357142857147  0.5993939393939292 9.995357142857147  Z " fill-rule="nonzero" fill="#f0966a" stroke="none" transform="matrix(1 0 0 1 1118 4488 )" />
  </g>
</svg>