<?xml version="1.0" encoding="utf-8"?>
<svg version="1.1" xmlns:xlink="http://www.w3.org/1999/xlink" width="18px" height="26px" xmlns="http://www.w3.org/2000/svg">
  <g transform="matrix(1 0 0 1 -1069 -4482 )">
    <path d="M 0.7466666666666508 16.339999999999993  L 1.3999999999999964 20.226666666666667  L 1.4533333333333283 20.54  C 1.6266666666666652 21.580000000000002  1.6599999999999966 23.020000000000003  2.3066666666666626 23.873333333333346  C 2.4947820691524116 24.085173237005726  2.740225463830645 24.23799648274877  3.01333333333334 24.313333333333333  C 7.794987167277242 26.041062854505178  13.091444064629837 25.60557099202187  17.52666666666666 23.119999999999994  L 17.280000000000012 11.419999999999996  C 17.324355934294108 9.880894232746433  17.137840764763116 8.343829462153536  16.72666666666665 6.859999999999994  C 15.49999999999998 3.1866666666666625  10.726666666666649 2.3133333333333277  7.773333333333312 0.6599999999999966  C 7.22181298154364 0.28778500724763967  6.5527517011628245 0.13119619694575135  5.893333333333317 0.21999999999999886  C 4.359999999999985 0.2733333333333311  2.5999999999999845 0.09333333333333371  1.6466666666666565 1.5533333333333321  C 1.1651430342703957 2.4100517634785206  0.8740796852356614 3.3605555126700652  0.7933333333333129 4.339999999999999  C 0.12869833316047638 8.311135584451495  0.11293791234323673 12.363815223169903  0.7466666666666508 16.339999999999993  Z " fill-rule="nonzero" fill="#f0966a" stroke="none" transform="matrix(1 0 0 1 1069 4482 )" />
  </g>
</svg>