<?xml version="1.0" encoding="utf-8"?>
<svg version="1.1" xmlns:xlink="http://www.w3.org/1999/xlink" width="21px" height="28px" xmlns="http://www.w3.org/2000/svg">
  <g transform="matrix(1 0 0 1 -1069 -4497 )">
    <path d="M 1.8358064516128991 15.755121951219508  C 2.7096774193548385 19.729756097560973  4.010322580645163 23.533658536585364  5.094193548387094 27.392195121951218  C 5.14838709677419 27.562926829268292  5.222903225806447 27.760975609756102  5.392258064516124 27.808780487804878  C 6.747096774193544 24.216585365853653  10.276451612903218 21.49170731707317  12.457741935483863 18.316097560975603  C 13.853225806451606 16.267317073170727  15.167419354838701 14.218536585365847  16.691612903225796 12.231219512195121  C 17.369032258064507 11.322926829268292  18.229354838709675 10.551219512195123  18.94064516129031 9.65658536585366  C 19.226673886364434 9.234274750587788  19.454557843575408 8.77480140596728  19.618064516129017 8.290731707317075  C 19.868709677419343 7.751219512195118  20.329354838709673 7.341463414634147  20.60709677419354 6.815609756097573  C 21.115178679525357 5.702155046618543  20.716376816720373 4.381572057803822  19.679032258064506 3.742439024390237  C 19.067804588109755 3.4033653596832374  18.53454417603338 2.937914396409581  18.114193548387085 2.3765853658536615  C 17.843225806451596 1.9121951219512177  17.79580645161289 1.3453658536585358  17.558709677419348 0.8604878048780522  C 17.530991430532772 0.7914980903502363  17.48390555309823 0.7321622285424816  17.42322580645161 0.6897560975609791  C 17.22677419354839 0.560000000000005  16.874516129032255 0.8195121951219531  16.678064516129034 0.8741463414634154  C 16.33935483870968 0.9697560975609769  16.000645161290326 1.038048780487802  15.621290322580645 1.1268292682926868  C 14.86258064516129 1.324878048780496  14.09709677419355 1.5092682926829322  13.331612903225812 1.6868292682926822  C 11.773548387096781 2.0419512195122014  10.20870967741936 2.3538211382113863  8.637096774193548 2.6224390243902462  C 6.351926332636787 3.0406816547212348  4.0235757590293595 3.166879517789403  1.7070967741935457 2.9980487804878053  C 1.1990322580645134 2.9502439024390292  0.5758064516128993 2.9229268292682935  0.29129032258063053 3.353170731707305  C 0.17787887506200295 3.561972453403537  0.12395592244771726 3.798326151677565  0.13548387096773423 4.036097560975607  C 0.13548387096773423 6.002926829268287  0.8467741935483775 7.82634146341463  0.9619354838709689 9.759024390243898  C 1.0968637559828371 11.777726938663463  1.3890548024634948 13.782606475591873  1.8358064516128991 15.755121951219508  Z " fill-rule="nonzero" fill="#72bf98" stroke="none" transform="matrix(1 0 0 1 1069 4497 )" />
  </g>
</svg>