<?xml version="1.0" encoding="utf-8"?>
<svg version="1.1" xmlns:xlink="http://www.w3.org/1999/xlink" width="21px" height="37px" xmlns="http://www.w3.org/2000/svg">
  <g transform="matrix(1 0 0 1 -1068 -4497 )">
    <path d="M 16.40689655172413 9.563773584905668  L 18.05517241379311 6.710943396226412  C 15.296551724137936 12.178867924528298  10.813793103448281 16.818113207547164  8.813793103448287 22.67320754716981  C 7.295531670364113 26.833847304193345  6.643491085474977 31.253004352531104  6.8965517241379315 35.66716981132075  C 6.372413793103445 35.15094339622641  6.144827586206895 33.93509433962264  5.937931034482759 33.2354716981132  C 5.613793103448276 32.107924528301886  5.358620689655169 30.96  5.082758620689658 29.83924528301886  C 4.544827586206899 27.61584905660377  4.039080459770117 25.383396226415098  3.565517241379311 23.141886792452823  C 2.7586206896551726 19.0188679245283  1.7103448275862096 14.848301886792452  1.158620689655177 10.664150943396228  C 0.9793103448275874 9.305660377358492  0.820689655172422 7.947169811320757  0.7793103448275929 6.52754716981132  C 0.7793103448275929 5.630943396226419  0.26206896551724806 3.3418867924528315  1.3241379310344839 2.8460377358490554  C 1.519513943282671 2.7722433799098027  1.7307994009238545 2.748861779551797  1.9379310344827698 2.7781132075471717  C 3.779310344827599 2.873207547169814  5.593103448275871 2.880000000000006  7.4551724137931155 2.818867924528296  C 8.874218126542491 2.7081375588490113  10.281402665372148 2.4809336215557543  11.66206896551725 2.1396226415094377  C 14.043678160919548 1.686792452830199  16.411494252873574 1.1592452830188753  18.765517241379314 0.5569811320754767  C 17.677925866957736 0.9326874599464463  16.619893909187557 1.386744829910713  15.600000000000003 1.9154716981132125  C 14.395402298850575 2.4498113207547187  13.209195402298853 2.943396226415101  12.041379310344825 3.3962264150943398  C 10.986206896551721 3.8037735849056564  9.765517241379309 3.8037735849056564  8.751724137931033 4.2724528301886835  C 7.737931034482758 4.74113207547171  6.682758620689654 5.433962264150943  5.696551724137925 5.9637735849056615  C 4.027586206896544 6.840000000000005  3.972413793103442 7.750188679245281  3.910344827586208 9.50943396226415  C 3.850568007343954 11.258441540282101  3.928965220152467 13.009379335029037  4.144827586206881 14.746415094339618  C 4.239864194850797 16.04787331160019  4.470972654479971 17.336202681682447  4.834482758620683 18.590943396226407  C 5.075862068965506 19.27018867924528  5.289655172413784 20.947924528301883  6.151724137931026 20.003773584905655  L 11.427586206896548 14.203018867924525  C 14.186206896551719 11.153207547169812  17.041379310344812 7.994716981132072  18.393103448275852 4.129811320754716  C 18.441357788698465 3.8703641471384236  18.571715854884804 3.6326041522073456  18.765517241379296 3.4505660377358476  C 18.972413793103442 3.3011320754716977  19.331034482758604 3.335094339622639  19.406896551724127 3.572830188679249  C 19.81379310344827 4.809056603773584  16.97931034482757 8.510943396226416  16.40689655172413 9.563773584905668  Z " fill-rule="nonzero" fill="#53a076" stroke="none" transform="matrix(1 0 0 1 1068 4497 )" />
  </g>
</svg>