<?xml version="1.0" encoding="utf-8"?>
<svg version="1.1" xmlns:xlink="http://www.w3.org/1999/xlink" width="59px" height="20px" xmlns="http://www.w3.org/2000/svg">
  <g transform="matrix(1 0 0 1 -1071 -4480 )">
    <path d="M 14.866627906976756 0.8758620689655144  C 18.033420152040435 1.0185084075773432  21.181184061086345 1.445495613910085  24.272325581395346 2.151724137931033  C 33.266395348837214 4.137931034482759  42.198720930232554 7.586206896551724  51.288837209302294 8.062068965517229  C 52.95624274964037 8.209937663489512  54.63652658056656 8.067622113844251  56.25581395348837 7.641379310344827  C 58.039534883720926 7.096551724137925  60.104534883720945 7.641379310344827  58.16988372093023 9.213793103448275  C 56.35186046511627 10.668965517241379  55.000348837209295 10.903448275862072  54.053604651162786 13.220689655172414  C 53.49790697674418 14.524137931034485  52.763837209302324 15.358620689655169  52.50999999999999 16.75862068965517  C 52.317906976744176 17.848275862068963  52.02976744186047 19.517241379310345  50.513604651162765 19.441379310344814  C 50.05839521805285 19.37433150962694  49.63331444915024 19.17267642425389  49.29244186046511 18.862068965517228  C 48.495653784824206 18.117827748309466  47.60813853501868 17.478236350573386  46.651162790697676 16.958620689655174  C 45.791393166007545 16.647149505008812  44.88249348737735 16.49525887394718  43.968720930232564 16.510344827586206  C 37.7943023255814 16.241379310344826  31.544418604651177 16.07586206896552  25.33569767441861 16.2551724137931  C 19.394534883720937 16.43448275862069  12.403720930232566 15.565517241379306  7.011395348837208 13.041379310344825  C 5.426627906976742 12.28965517241379  3.780116279069771 11.482758620689651  2.72360465116279 10.075862068965517  C 1.769999999999999 8.806896551724135  1.2143023255813925 7.0206896551724185  0.665465116279069 5.544827586206896  C -0.49395348837209224 2.4896551724137925  3.2175581395348822 1.1724137931034502  5.666744186046515 0.8758620689655144  C 8.65790697674419 0.5034482758620669  11.841162790697677 0.7517241379310319  14.866627906976756 0.8758620689655144  Z " fill-rule="nonzero" fill="#f0966a" stroke="none" transform="matrix(1 0 0 1 1071 4480 )" />
  </g>
</svg>