<?xml version="1.0" encoding="utf-8"?>
<svg version="1.1" xmlns:xlink="http://www.w3.org/1999/xlink" width="17px" height="12px" xmlns="http://www.w3.org/2000/svg">
  <g transform="matrix(1 0 0 1 -1071 -4486 )">
    <path d="M 0.4216000000000128 0.4866666666666693  C 0.5480523197126559 1.209181101908039  0.8084870632356308 1.9028603163931734  1.1899999999999904 2.533333333333322  C 2.62890408867546 5.044621384534746  4.922884515999922 6.9797529097554705  7.670400000000001 7.99999999999999  C 10.399079918936877 8.995142789706488  13.314443142316607 9.402157637527296  16.217999999999996 9.193333333333337  C 16.48435201205839 9.610653242303659  16.390944946811164 10.157244831219725  16.0004 10.466666666666669  C 15.611192823958763 10.752164405829253  15.155386534757774 10.937786876544598  14.67440000000001 11.00666666666667  C 13.124000000000008 11.366666666666674  11.498800000000008 11.719999999999999  9.95520000000001 11.340000000000003  C 8.647950000565153 10.938552585382912  7.449006378158266 10.255160187750173  6.446400000000022 9.340000000000003  C 4.8981817496966915 8.156161225570894  3.5250779548221782 6.767351995134088  2.3664000000000125 5.213333333333338  C 1.3124000000000142 3.706666666666668  1.2240000000000077 2  0.4216000000000128 0.4866666666666693  Z " fill-rule="nonzero" fill="#e5815a" stroke="none" transform="matrix(1 0 0 1 1071 4486 )" />
  </g>
</svg>