<?xml version="1.0" encoding="utf-8"?>
<svg version="1.1" xmlns:xlink="http://www.w3.org/1999/xlink" width="19px" height="14px" xmlns="http://www.w3.org/2000/svg">
  <g transform="matrix(1 0 0 1 -103 -861 )">
    <path d="M 14.179617873602071 3.2573391574905486  L 18.975179460092587 0.38914625214056286  L 18.975179460092587 9.445857396019903  L 15.903177547809296 10.701411981047983  C 15.80531510725782 10.740475278974401  15.70744779574715 10.773954534952509  15.604144493810168 10.80743879007295  L 5.3116519108940095 13.915590525787309  C 3.9958694540083455 14.311767553861273  2.1744083715764018 12.492639660868548  1.1087496677303488 11.237090074982746  C 0.018391953851453133 9.986732665213935  -0.018581385718022876 8.106463087055914  1.021734853235671 6.811974290236293  C 1.1639458571592292 6.643688650585744  1.320430585899407 6.488690269392407  1.4893469329202553 6.348803756209975  C 1.8860011947596207 6.031957789842323  2.353043224844861 5.821044502113438  2.848631926094034 5.73495907328396  L 13.13025252815752 3.6591302223665707  C 13.49905546534907 3.584848489580907  13.853528221415079 3.4491245620206996  14.179617873602071 3.2573391574905486  Z " fill-rule="nonzero" fill="#ffffff" stroke="none" transform="matrix(1 0 0 1 103 861 )" />
  </g>
</svg>