<?xml version="1.0" encoding="utf-8"?>
<svg version="1.1" xmlns:xlink="http://www.w3.org/1999/xlink" width="10px" height="10px" xmlns="http://www.w3.org/2000/svg">
  <g transform="matrix(1 0 0 1 -821 -5675 )">
    <path d="M 826 5676  C 828.24 5676  830 5677.76  830 5680  C 830 5682.24  828.24 5684  826 5684  C 823.76 5684  822 5682.24  822 5680  C 822 5677.76  823.76 5676  826 5676  Z " fill-rule="nonzero" fill="#ffffff" stroke="none" fill-opacity="0" />
    <path d="M 826 5676  C 828.24 5676  830 5677.76  830 5680  C 830 5682.24  828.24 5684  826 5684  C 823.76 5684  822 5682.24  822 5680  C 822 5677.76  823.76 5676  826 5676  Z " stroke-width="2" stroke="#e69707" fill="none" />
  </g>
</svg>