<?xml version="1.0" encoding="utf-8"?>
<svg version="1.1" xmlns:xlink="http://www.w3.org/1999/xlink" width="10px" height="10px" xmlns="http://www.w3.org/2000/svg">
  <g transform="matrix(1 0 0 1 -821 -5707 )">
    <path d="M 826 5708  C 828.24 5708  830 5709.76  830 5712  C 830 5714.24  828.24 5716  826 5716  C 823.76 5716  822 5714.24  822 5712  C 822 5709.76  823.76 5708  826 5708  Z " fill-rule="nonzero" fill="#ffffff" stroke="none" fill-opacity="0" />
    <path d="M 826 5708  C 828.24 5708  830 5709.76  830 5712  C 830 5714.24  828.24 5716  826 5716  C 823.76 5716  822 5714.24  822 5712  C 822 5709.76  823.76 5708  826 5708  Z " stroke-width="2" stroke="#fdf392" fill="none" />
  </g>
</svg>