<?xml version="1.0" encoding="utf-8"?>
<svg version="1.1" xmlns:xlink="http://www.w3.org/1999/xlink" width="10px" height="10px" xmlns="http://www.w3.org/2000/svg">
  <g transform="matrix(1 0 0 1 -821 -5739 )">
    <path d="M 826 5740  C 828.24 5740  830 5741.76  830 5744  C 830 5746.24  828.24 5748  826 5748  C 823.76 5748  822 5746.24  822 5744  C 822 5741.76  823.76 5740  826 5740  Z " fill-rule="nonzero" fill="#ffffff" stroke="none" fill-opacity="0" />
    <path d="M 826 5740  C 828.24 5740  830 5741.76  830 5744  C 830 5746.24  828.24 5748  826 5748  C 823.76 5748  822 5746.24  822 5744  C 822 5741.76  823.76 5740  826 5740  Z " stroke-width="2" stroke="#70a901" fill="none" />
  </g>
</svg>