<?xml version="1.0" encoding="utf-8"?>
<svg version="1.1" xmlns:xlink="http://www.w3.org/1999/xlink" width="12px" height="12px" xmlns="http://www.w3.org/2000/svg">
  <g transform="matrix(1 0 0 1 -521 -6197 )">
    <path d="M 7.359375 7.359375  C 7.991586538461539 6.727163461538461  8.307692307692307 5.966346153846153  8.307692307692307 5.0769230769230775  C 8.307692307692307 4.187499999999999  7.991586538461539 3.4266826923076916  7.359375 2.7944711538461537  C 6.727163461538462 2.1622596153846145  5.966346153846154 1.8461538461538463  5.076923076923077 1.8461538461538463  C 4.1875 1.8461538461538463  3.426682692307693 2.1622596153846145  2.7944711538461537 2.7944711538461537  C 2.1622596153846154 3.4266826923076916  1.8461538461538463 4.187499999999999  1.8461538461538463 5.0769230769230775  C 1.8461538461538463 5.966346153846153  2.1622596153846154 6.727163461538461  2.7944711538461537 7.359375  C 3.426682692307693 7.9915865384615365  4.1875 8.307692307692307  5.076923076923077 8.307692307692307  C 5.966346153846154 8.307692307692307  6.727163461538462 7.9915865384615365  7.359375 7.359375  Z M 11.733173076923077 10.427884615384615  C 11.911057692307693 10.605769230769232  12 10.822115384615385  12 11.076923076923077  C 12 11.326923076923078  11.908653846153847 11.543269230769232  11.725961538461538 11.725961538461538  C 11.543269230769232 11.908653846153847  11.326923076923078 12  11.076923076923077 12  C 10.817307692307693 12  10.600961538461538 11.908653846153847  10.427884615384615 11.725961538461538  L 7.9543269230769225 9.259615384615385  C 7.09375 9.855769230769232  6.134615384615385 10.153846153846153  5.076923076923077 10.153846153846153  C 4.3894230769230775 10.153846153846153  3.7319711538461537 10.020432692307693  3.1045673076923075 9.75360576923077  C 2.4771634615384617 9.486778846153847  1.9362980769230769 9.126201923076923  1.481971153846154 8.671875  C 1.0276442307692308 8.217548076923077  0.6670673076923078 7.6766826923076925  0.4002403846153846 7.049278846153847  C 0.13341346153846154 6.421875  0 5.764423076923076  0 5.0769230769230775  C 0 4.389423076923075  0.13341346153846154 3.7319711538461537  0.4002403846153846 3.1045673076923075  C 0.6670673076923078 2.4771634615384612  1.0276442307692308 1.9362980769230775  1.481971153846154 1.4819711538461537  C 1.9362980769230769 1.0276442307692313  2.4771634615384617 0.6670673076923075  3.1045673076923075 0.400240384615385  C 3.7319711538461537 0.13341346153846123  4.3894230769230775 0  5.076923076923077 0  C 5.764423076923077 0  6.421875 0.13341346153846123  7.049278846153847 0.400240384615385  C 7.6766826923076925 0.6670673076923075  8.217548076923077 1.0276442307692313  8.671875 1.4819711538461537  C 9.126201923076923 1.9362980769230775  9.486778846153847 2.4771634615384612  9.753605769230768 3.1045673076923075  C 10.020432692307693 3.7319711538461537  10.153846153846153 4.389423076923075  10.153846153846153 5.0769230769230775  C 10.153846153846153 6.134615384615384  9.855769230769232 7.093749999999999  9.259615384615385 7.9543269230769225  L 11.733173076923077 10.427884615384615  Z " fill-rule="nonzero" fill="#ffffff" stroke="none" transform="matrix(1 0 0 1 521 6197 )" />
  </g>
</svg>