<?xml version="1.0" encoding="utf-8"?>
<svg version="1.1" xmlns:xlink="http://www.w3.org/1999/xlink" width="6px" height="10px" xmlns="http://www.w3.org/2000/svg">
  <g transform="matrix(1 0 0 1 -504 -6252 )">
    <path d="M 5.896907216494845 4.769539078156313  C 5.965635738831616 4.836339345357381  6 4.91315965263861  6 5  C 6 5.086840347361389  5.965635738831616 5.163660654642618  5.896907216494845 5.230460921843687  L 1.092783505154639 9.899799599198397  C 1.0240549828178693 9.966599866399466  0.9450171821305842 10  0.8556701030927835 10  C 0.766323024054983 10  0.6872852233676976 9.966599866399466  0.6185567010309279 9.899799599198397  L 0.10309278350515465 9.39879759519038  C 0.0343642611683849 9.331997327989312  0 9.255177020708082  0 9.168336673346694  C 0 9.081496325985302  0.0343642611683849 9.004676018704075  0.10309278350515465 8.937875751503006  L 4.154639175257731 5  L 0.10309278350515465 1.062124248496994  C 0.0343642611683849 0.9953239812959247  0 0.9185036740146957  0 0.8316633266533069  C 0 0.7448229792919159  0.0343642611683849 0.6680026720106869  0.10309278350515465 0.6012024048096187  L 0.6185567010309279 0.1002004008016033  C 0.6872852233676976 0.033400133600534065  0.766323024054983 0  0.8556701030927835 0  C 0.9450171821305842 0  1.0240549828178693 0.033400133600534065  1.092783505154639 0.1002004008016033  L 5.896907216494845 4.769539078156313  Z " fill-rule="nonzero" fill="#ffffff" stroke="none" transform="matrix(1 0 0 1 504 6252 )" />
  </g>
</svg>