<?xml version="1.0" encoding="utf-8"?>
<svg version="1.1" xmlns:xlink="http://www.w3.org/1999/xlink" width="105px" height="300px" xmlns="http://www.w3.org/2000/svg">
  <defs>
    <linearGradient gradientUnits="userSpaceOnUse" x1="52.411500795183606" y1="299.9932393585565" x2="52.411500795183606" y2="0.3255156303914819" id="LinearGradient190">
      <stop id="Stop191" stop-color="#808080" stop-opacity="0.25098039215686274" offset="0" />
      <stop id="Stop192" stop-color="#808080" stop-opacity="0.12156862745098039" offset="0.54" />
      <stop id="Stop193" stop-color="#808080" stop-opacity="0.10196078431372549" offset="1" />
    </linearGradient>
  </defs>
  <g transform="matrix(1 0 0 1 -175 -738 )">
    <path d="M 104.33865333731899 111.76466345227205  C 105.42732360585985 109.96278062685163  103.34675375931508 107.53267378932513  103.34675375931508 107.53267378932513  C 103.34675375931508 107.53267378932513  101.4403711557369 107.2648263423032  101.4403711557369 104.46947298611039  C 101.4403711557369 101.6741196299176  100.07590441916568 96.45352938978057  100.07590441916568 96.45352938978057  C 100.07590441916568 96.42917962186948  98.89530199461471 87.36132605178071  97.26471585906684 85.91981979144437  C 95.63412972351898 84.478313531108  93.53904427339369 76.01433420521418  93.53904427339369 76.01433420521418  C 93.53904427339369 76.01433420521418  93.18099271840693 71.42196797718319  92.45037400485285 70.43336739999306  C 91.71975529129875 69.44476682280296  90.7326942478217 67.02439989244091  89.27629535524038 63.57160280264879  C 87.81989646265906 60.11880571285667  81.74753563146452 57.72765850398791  81.74753563146452 57.72765850398791  C 81.74753563146452 57.72765850398791  70.76890079004585 51.31879958978982  67.6577230892824 49.229589503018566  C 67.37494027930336 49.05793283378915  67.11062950618829 48.85718847519468  66.86904196140617 48.63058521240582  C 66.32712609439915 47.914702035819836  63.9659212452972 47.900092175073205  63.9659212452972 47.900092175073205  C 63.71915598442794 46.331967121599185  63.48206779261238 44.53008429617878  63.404651240182794 42.89864984613596  C 63.404651240182794 42.72333151717611  63.404651240182794 42.54801318821629  63.38045856754857 42.37269485925649  C 66.84964306410703 40.308713578472094  69.4626964712904 37.05447290713723  70.73986958288474 33.207442217523365  C 70.7979319972069 33.022383981399116  70.8463173424754 32.82758583811042  70.89954122227071 32.64252760198614  C 71.31986062408492 32.5031739783806  71.66238629066349 32.19201513108578  71.84305545500612 31.785415771515872  C 72.1236904575633 31.157191759409823  72.12852899209017 30.421828768495004  72.47690347802323 29.837434338628913  C 72.88334037827848 29.145900929954035  73.6575059025742 28.775784457705527  74.26716125295708 28.254699424408262  C 75.80581523249484 26.93981195720959  76.20257506369639 24.723983077300655  76.12999704579367 22.707822294262666  C 76.08161170052519 21.07638784421982  75.8203308360754 19.43034353343034  75.92194006113921 17.80864899055197  L 75.9509712683003 17.399572889645704  C 75.98000247546138 17.156075210534837  76.01387221714931 16.912577531423956  76.05741902789096 16.678819759477538  C 76.29450721970652 15.471071271087625  76.81223041407928 14.331502132848756  77.10254248569018 13.133493551623264  C 77.3928545573011 11.935484970397786  77.42188576446219 10.58650782812358  76.74449093070342 9.55407766869349  C 75.75259135269953 8.03952210462387  73.68653710973531 7.737584982526406  71.87208666216723 7.581746467895436  C 69.81570948825674 7.406428138935614  67.97706636805438 7.635315957299845  66.66098497675172 5.916222342777118  C 66.04504118065329 5.0177257234498835  65.35209604531838 4.175251539385336  64.59009219926062 3.3984563407707196  C 64.31913426575716 3.1452187544954064  61.686971483151694 1.5283941651992394  61.68697148315172 1.421255186390449  C 59.117985298945776 0.22369103057482842  56.20603998345178 -0.0010942358972514128  53.485655460143924 0.78816122070218  C 52.12118872357273 1.1874974144440016  50.83413853943108 1.8400711944611368  49.45031766475249 2.166358084469711  C 46.46494186168711 2.877371307473458  43.02958234762488 2.1079186414830993  40.4941902555564 3.8270122560058404  C 39.081338173716695 4.80100297244932  38.234594631518256 6.349648211594456  37.44107496911515 7.859333822081845  C 36.79593703220206 9.10279530340804  36.14112202623525 10.344633466873468  35.47662995121477 11.584848312478156  C 34.4073138207813 13.625358863427241  33.31864355224047 15.699959089451841  32.86865984124359 17.959617551600726  C 32.774038498651635 18.45132994506211  32.71581608336631 18.949434049857075  32.69447259827703 19.449823347759235  L 32.69447259827703 19.47417311567033  C 32.69447259827703 19.654361398212355  32.69447259827703 19.834549680754407  32.69447259827703 20.014737963296458  L 32.69447259827703 20.243625781660676  C 32.69447259827703 20.414074157038296  32.69447259827703 20.579652578833684  32.72350380543811 20.730621139882434  C 32.752535012599196 20.881589700931162  32.74769647807236 20.930289236753353  32.76221208165289 21.032558261979915  C 32.77672768523342 21.134827287206473  32.800920357867675 21.36371510557069  32.82995156502876 21.519553620201645  C 32.85898277218984 21.675392134832602  32.917045186512034 21.94810953543678  32.97510760083421 22.162387493054336  C 32.99930027346846 22.25491661111646  33.0331700151564 22.342575775596384  33.06220122231748 22.430234940076314  C 33.11058656758598 22.595813361871674  33.168648981908156 22.756521830084882  33.23154993075718 22.917230298298044  C 33.2654196724451 23.000019509195738  33.29928941413304 23.087678673675665  33.33799769034785 23.170467884573327  C 33.410575708250576 23.340916259950948  33.49766932973383 23.506494681746336  33.58476295121711 23.65746324279509  C 33.623471227431885 23.72564259294612  33.65250243459297 23.788951989514945  33.69121071080778 23.85226138608375  C 33.826204413371705 24.078736753761053  33.97486494159996 24.29667006624698  34.136355887277816 24.504835166100868  C 35.17180227602334 25.805112772552935  36.69594065198055 26.63300488152988  37.823319196736186 27.850493277084226  C 37.823319196736186 27.899192812906417  37.823319196736186 27.947892348728583  37.823319196736186 27.991721930968545  C 37.823319196736186 28.128080631270606  37.823319196736186 28.25956937799049  37.823319196736186 28.395928078292584  C 37.94473565169054 33.9087493511525  40.76686955744953 39.004438802007115  45.36175598956569 42.00744834059014  C 45.36175598956569 42.192506576714386  45.385948662199944 42.38243476642085  45.39562573125364 42.56749300254513  C 45.48997460304744 44.01306279034296  45.472179366088874 45.46383681641126  45.34240185145828 46.90662164430081  C 44.94331102908703 46.433518114396655  44.35238476433221 46.1683826013025  43.736008388544676 46.185868514132636  C 43.52811088354859 46.17565278796127  43.31979352351769 46.193671309615716  43.11667596910814 46.23943800353703  L 43.07312915836649 46.20534832846153  L 43.07312915836649 46.24917791070147  C 42.00865156245988 46.51215540414121  40.69740870568399 47.62737477446896  39.444228263230315 50.7977145564925  C 39.444228263230315 50.7977145564925  35.63146305607391 55.12223333750155  32.72834233996495 54.94204505495949  C 29.82522162385601 54.76185677241745  22.475487677573515 59.44188216492837  22.475487677573515 59.44188216492837  C 22.475487677573515 59.44188216492837  15.304779508784412 64.1267775110215  13.766125529246679 68.89933202159455  C 12.906086937835585 71.60561953722743  11.874988082501334 74.25378430898814  10.679140501117487 76.82761645344446  L 1.814945247931482 95.21169122631512  L 0.17952057785677308 109.79720220505622  C 0.17952057785677308 109.79720220505622  1.0843265343774073 116.2839803765698  0.9053007568840141 117.27258095375991  C 0.7262749793906206 118.26118153095008  4.626133808030305 127.1780665399901  4.626133808030305 127.1780665399901  C 4.626133808030305 127.1780665399901  17.511151253027194 149.96457935118528  22.77547681823808 151.13336821091738  L 23.1528825113322 150.8655207638954  C 23.378114304100354 150.98392683054976  23.61700974375035 151.07388988483967  23.86414708677894 151.13336821091738  L 24.94797882079294 150.36391554492704  C 25.013060894327353 151.22149853980653  24.98548106358126 152.08365795472614  24.86572373383652 152.9352510363378  C 24.139943554809282 155.18516959132225  25.136681667340028 169.86807964170768  26.40437771337426 172.74622220879817  C 27.672073759408512 175.62436477588864  27.22209004841161 213.36163508449118  27.22209004841161 213.36163508449118  L 27.043064270918247 216.6926833347279  C 27.043064270918247 216.6926833347279  27.043064270918247 216.7998223135367  27.086611081659854 216.98488054966094  L 27.043064270918247 217.77381302998015  L 27.173704703143112 217.84199238013113  C 27.309362147199742 218.89857077324848  27.26518329907646 219.97068877947305  27.043064270918247 221.0123321621547  C 26.58824202539451 222.47331823681992  26.40437771337426 226.6030388745403  26.40437771337426 226.6030388745403  C 26.40437771337426 226.6030388745403  22.780315352764912 249.92037662619714  24.49799510979607 254.60527197229027  C 26.215674866827197 259.29016731838345  27.676912293935345 264.42309839404055  27.676912293935345 264.42309839404055  C 27.676912293935345 264.42309839404055  29.491362741503448 270.2670426927014  27.764005915418625 271.2653831770559  C 26.036649089333803 272.2637236614105  21.125536544582843 273.93898769369343  22.136790260694116 276.3739644848021  C 23.05611182079528 278.62388303978656  26.54469521465287 284.65288557457166  27.062418409025632 285.534347172953  L 27.018871598284022 285.9969927632637  L 26.307607022837278 293.7548288197359  C 26.42278197098664 294.7791406446273  26.69878764523945 295.7785556427671  27.125319357874666 296.71576059772417  C 27.904323416697242 298.4056344907536  29.41878472360072 300.15881778035185  32.29771276707544 299.96888959064535  C 32.78156621976025 299.93479991556984  33.34283622487466 299.87636047258314  33.884752091881644 299.80331116885  C 39.15391619161939 299.09229794584616  45.64239099212289 296.72550050488854  45.64239099212289 296.72550050488854  C 45.305532810336715 296.5101371476503  44.996704337642285 296.2532902275198  44.72306943202173 295.9609177924804  C 44.199661400128925 295.45062761450276  43.907513619678 294.7463285870528  43.91503416603807 294.0129363595934  C 43.99245071846765 292.60064982075033  41.36512647038906 285.8703739701259  40.71192430926454 284.214589752172  C 40.610315084200735 283.9759620266433  40.5570912044054 283.83960332634126  40.5570912044054 283.83960332634126  C 40.5570912044054 283.83960332634126  46.547196948643524 277.53788339095195  45.55045883611278 271.95204663214867  C 45.55045883611278 271.95204663214867  38.92166653433069 268.05608376637474  41.10384560593925 265.9181741437813  C 43.28602467754781 263.78026452118786  47.185883506187494 257.6392530540117  47.185883506187494 257.6392530540117  C 47.185883506187494 257.6392530540117  47.36490928368088 234.67742191385676  47.185883506187494 231.2489745919757  C 46.99915777659153 228.86937763684833  47.11132901276983 226.47557842999925  47.519742388540024 224.1242325011917  C 47.592320406442724 223.7687258896898  47.679414027926 223.42295918535234  47.77134618393612 223.08206243459716  C 50.78924582776392 223.53549517347145  53.835822256265274 223.76823901269765  56.88714523251824 223.77846579685428  C 58.00000817369332 223.77846579685428  59.13222525297579 223.77846579685428  60.27411940131199 223.71028644670324  C 60.27411940131202 224.03495001885113  60.288635004892555 224.38558667677069  60.31766621205364 224.76219642046217  C 60.56927000744973 230.45030220449206  61.03860785655401 240.4239671408733  61.420852084174996 244.13000181694076  C 61.962767951182 249.44312117513988  64.95782082330109 263.76078470685906  64.95782082330109 263.76078470685906  C 64.95782082330109 263.76078470685906  59.243511547093306 267.4522095221798  65.95455893583181 276.54928281376186  C 65.95455893583181 276.54928281376186  65.95455893583181 279.8462413889231  65.50941375936178 280.3234968399804  C 65.03418188085959 281.8836542005978  64.65126590210525 283.4707967636412  64.36268107649873 285.07657153622455  C 64.08204607394154 286.79079519716504  63.96592124529717 288.52449867243445  64.4207434908209 289.42544008514466  C 65.50941375936178 291.5779595684847  72.0414353706069 291.4026412395248  72.0414353706069 291.4026412395248  L 72.2011070099929 291.37342151803165  C 74.69200674613909 291.11424493437914  77.18225048750415 291.8702032975151  79.11537284885904 293.4723715119673  C 81.59754106113219 295.4787923878408  91.01816778490574 294.5973307894595  96.11798317620378 293.959366870189  C 98.1162979357921 293.7061292839137  99.45173346520222 293.4723715119673  99.45173346520222 293.4723715119673  C 99.51647679843168 293.24470120120844  99.53943204170417 293.0070569387587  99.5194729485781 292.771098196128  C 99.46624906878276 291.5097802183336  98.48402655983257 288.7436465836342  91.82620305088939 286.27458011744994  C 91.82620305088939 286.27458011744994  85.56513937314776 282.0377205009207  85.65223299463102 278.3462956856  L 85.52159256240614 278.3462956856  L 84.79581238337893 278.3462956856  C 85.32321264680536 278.3170759641067  85.66191006368476 278.3462956856  85.66191006368476 278.3462956856  C 85.66191006368476 278.3462956856  83.2087730585727 269.33688155849785  84.21034970563028 268.60638852116523  C 85.21192635268788 267.8758954838326  82.21203494604198 257.89249064028695  82.21203494604198 257.89249064028695  C 82.21203494604198 257.89249064028695  80.49435518901083 241.1398503174592  80.40242303300074 239.96619150414486  C 80.40626938146673 238.95906867352818  80.55790043340077 237.95804116617137  80.8524067439976 236.99551981899216  L 80.4024230330007 227.81078736293014  C 80.4024230330007 227.81078736293014  80.31532941151745 224.75732646687985  80.40242303300074 223.76385593610752  C 80.38775530963021 222.90153231095402  80.31826090055421 222.0410378874892  80.19436604834623 221.18765049111457  C 80.15081923760462 220.84675374035933  80.10727242686298 220.49124712885748  80.0588870815945 220.14061047093784  C 82.40557632711592 219.5416061803251  83.9297147030731 218.9864314719523  83.9297147030731 218.9864314719523  L 83.65875676956959 187.0151862046951  C 85.65223299463106 183.1192233389212  86.01996161867154 174.5724548021297  86.01028454961785 168.50936259226907  C 86.01028454961785 164.61339972649515  85.83609730665133 161.7303872058224  85.83609730665133 161.7303872058224  L 88.56019224526686 157.25489986376462  C 88.56019224526686 157.25489986376462  89.18920173375716 151.89795092332548  88.19246362122641 150.72429211001116  C 87.7521569792832 150.19346716954942  87.95053689488398 149.64316241475885  88.31342698439764 149.19025673161266  C 88.5018967638316 149.03983723807693  88.70078076774789 148.90313204691498  88.90856673119993 148.78118063070644  C 88.90856673119993 148.78118063070644  88.87953552403884 148.7373510484665  88.84566578235093 148.67404165189762  C 89.03587403959054 148.51409648742253  89.23808200137681 148.36918953506705  89.45048259820695 148.24061578308033  C 89.45048259820695 148.24061578308033  88.48277569283728 146.7309301725929  89.34887337314314 146.0929662533225  C 90.16174717365365 146.64814096169525  90.88752735268086 147.06695696976595  91.43912028874158 147.4078537205212  C 91.4004120125268 147.763360332023  91.361703736312 147.96789838247614  91.361703736312 147.96789838247614  L 91.59395339360073 147.48090302425445  C 92.12619219155404 147.7828401463519  92.45037400485285 147.96789838247614  92.45037400485285 147.96789838247614  C 92.45037400485285 147.96789838247614  96.717961457533 139.4113899385202  96.62602930152288 138.1500719607259  C 96.53409714551277 136.88875398293155  99.52915001763182 131.5756346247324  99.52915001763182 131.5756346247324  C 99.52915001763182 131.5756346247324  99.89204010714543 128.78515122212184  101.52746477722015 127.61636236238967  C 103.16288944729484 126.4475735026575  102.79516082325439 117.97872422318144  102.79516082325439 117.97872422318144  C 102.79516082325439 117.97872422318144  103.24998306877814 113.56654627769248  104.33865333731899 111.76466345227205  Z M 20.94167223256259 104.4694729861104  L 21.691645084224078 103.77793957743553  L 21.773900171180497 105.81845012838463  C 21.290046718495677 105.03438760164761  20.94167223256259 104.4694729861104  20.94167223256259 104.4694729861104  Z " fill-rule="nonzero" fill="url(#LinearGradient190)" stroke="none" transform="matrix(1 0 0 1 175 738 )" />
  </g>
</svg>