<?xml version="1.0" encoding="utf-8"?>
<svg version="1.1" xmlns:xlink="http://www.w3.org/1999/xlink" width="20px" height="21px" xmlns="http://www.w3.org/2000/svg">
  <g transform="matrix(1 0 0 1 -202 -1017 )">
    <path d="M 18.818834612321723 17.06078965467306  C 19.087115597163972 17.349644277710937  19.392906436173746 17.6046481766754  19.728801672337653 17.819625821854263  C 19.728801672337653 17.819625821854263  11.729091254615213 20.62588787407124  6.229290342431028 20.979056907853607  C 3.3093960399623654 21.16518653376599  1.7744516035618574 19.456612018980803  0.9844801998117703 17.810080712833148  C 0.5529266364686407 16.894742257779857  0.274549424066322 15.920422014371699  0.15951006298413972 14.922685233936459  L 0.874484181568107 7.358186334678125  L 1.2544704264099096 3.330150327754459  L 12.939047455295736 0.43320973983659883  L 14.593987547962058 5.263034904536498  L 14.748981937305444 5.630521601850596  C 15.413957865778627 7.243645026424286  18.07886139868242 13.80590747846222  17.998864294505182 15.175630622996717  C 17.99225445100373 15.88430721921111  18.288322208493724 16.56498406188824  18.818834612321723 17.06078965467306  Z " fill-rule="nonzero" fill="#000000" stroke="none" transform="matrix(1 0 0 1 202 1017 )" />
  </g>
</svg>