<?xml version="1.0" encoding="utf-8"?>
<svg version="1.1" xmlns:xlink="http://www.w3.org/1999/xlink" width="36px" height="17px" xmlns="http://www.w3.org/2000/svg">
  <g transform="matrix(1 0 0 1 -238 -1016 )">
    <path d="M 28.160981961602527 8.280034336184398  C 34.813343891847 10.708517855850078  35.79467823144566 13.452704233072394  35.87357948488074 14.705801729219878  C 35.8933191835514 14.939523638379692  35.86992903552081 15.174834627039452  35.80454088812507 15.400348015844276  C 35.80454088812507 15.400348015844276  18.929535309699315 18.173676195302548  15.477605471914993 15.400348015844276  C 13.509593186583793 13.762053248236551  10.931025707617643 13.017784649322634  8.376492662758631 13.350707925246411  C 8.376492662758631 13.350707925246411  1.8474139410065356 13.525558738662367  0.7575903779346416 11.407921109513845  C 0.3039081706829851 10.519096141316114  0.4222600508355972 8.794872842353469  0.7033457661980544 7.094934378587569  C 0.9901008772244277 5.50208315984536  1.3721220691984055 3.9273029923516916  1.8474139410065356 2.3788193833965647  L 2.108774343010201 2.1748267677447073  L 3.6621427700131335 0.9460141067938074  L 21.848881686796922 0.41660469950667706  L 21.98695888030827 0.41660469950667706  C 21.898194970193803 4.078757847162628  28.160981961602527 8.280034336184398  28.160981961602527 8.280034336184398  Z " fill-rule="nonzero" fill="#000000" stroke="none" transform="matrix(1 0 0 1 238 1016 )" />
  </g>
</svg>