<?xml version="1.0" encoding="utf-8"?>
<svg version="1.1" xmlns:xlink="http://www.w3.org/1999/xlink" width="36px" height="11px" xmlns="http://www.w3.org/2000/svg">
  <g transform="matrix(1 0 0 1 -238 -1023 )">
    <path d="M 17.548763374585608 7.8501747835889715  C 19.467050098725757 7.981122424355281  30.942251145188816 8.368727441023458  35.87357948488074 8.525864609943007  C 35.89086296950114 8.778220570270687  35.86581748849825 9.03183146428152  35.79960955978537 9.274885115126182  C 35.79960955978537 9.274885115126182  18.929535309699343 12.26572923022824  15.47760547191505 9.274885115126182  C 13.510810688967926 7.50953148418273  10.934329402347199 6.706980929461744  8.381423991098336 7.064488938991228  C 8.381423991098336 7.064488938991228  1.8474139410065356 7.253053541694709  0.7625217062743185 4.969326686730618  C 0.30883949902266206 4.005552050690664  0.4222600508355972 2.1513334574400136  0.7033457661980265 0.31806648671196547  C 3.218323219440915 0.5851996738752221  7.188042532892888 1.2504136889679265  8.746342288235526 2.83749909505538  C 11.103517234608246 5.252173590785782  15.097893189758716 7.661610180885489  17.548763374585608 7.8501747835889715  Z " fill-rule="nonzero" fill="#000000" stroke="none" transform="matrix(1 0 0 1 238 1023 )" />
  </g>
</svg>