<?xml version="1.0" encoding="utf-8"?>
<svg version="1.1" xmlns:xlink="http://www.w3.org/1999/xlink" width="100px" height="115px" xmlns="http://www.w3.org/2000/svg">
  <g transform="matrix(1 0 0 1 -850 -7278 )">
    <path d="M 33.096590909090914 23.73948317307692  C 33.61742424242424 24.269330929487165  34.25662878787879 24.534254807692307  35.01420454545455 24.534254807692307  C 35.771780303030305 24.534254807692307  36.42282196969697 24.269330929487165  36.96732954545455 23.73948317307692  C 37.511837121212125 23.20963541666666  37.784090909090914 22.576121794871778  37.784090909090914 21.838942307692307  C 37.784090909090914 21.10176282051281  37.511837121212125 20.46824919871794  36.96732954545455 19.938401442307693  C 36.42282196969697 19.408553685897434  35.771780303030305 19.143629807692307  35.01420454545455 19.143629807692307  C 34.25662878787879 19.143629807692307  33.61742424242424 19.408553685897434  33.096590909090914 19.938401442307693  C 32.57575757575758 20.46824919871794  32.315340909090914 21.10176282051281  32.315340909090914 21.838942307692307  C 32.315340909090914 22.576121794871778  32.57575757575758 23.20963541666666  33.096590909090914 23.73948317307692  Z M 63.03267045454546 23.73948317307692  C 63.57717803030304 24.269330929487165  64.2282196969697 24.534254807692307  64.98579545454545 24.534254807692307  C 65.74337121212122 24.534254807692307  66.38257575757576 24.269330929487165  66.9034090909091 23.73948317307692  C 67.42424242424244 23.20963541666666  67.6846590909091 22.576121794871778  67.6846590909091 21.838942307692307  C 67.6846590909091 21.10176282051281  67.42424242424244 20.46824919871794  66.9034090909091 19.938401442307693  C 66.38257575757576 19.408553685897434  65.74337121212122 19.143629807692307  64.98579545454545 19.143629807692307  C 64.2282196969697 19.143629807692307  63.57717803030304 19.408553685897434  63.03267045454546 19.938401442307693  C 62.48816287878789 20.46824919871794  62.21590909090909 21.10176282051281  62.21590909090909 21.838942307692307  C 62.21590909090909 22.576121794871778  62.48816287878789 23.20963541666666  63.03267045454546 23.73948317307692  Z M 2.130681818181818 39.323918269230774  C 3.5511363636363638 37.941706730769226  5.279356060606061 37.25060096153847  7.315340909090909 37.25060096153847  C 9.303977272727272 37.25060096153847  11.008522727272728 37.941706730769226  12.428977272727272 39.323918269230774  C 13.849431818181818 40.70612980769231  14.559659090909092 42.36478365384616  15 44.29987980769231  L 15 74.01742788461539  C 14.559659090909092 75.99859775641025  13.861268939393941 77.68028846153845  12.464488636363637 79.0625  C 11.067708333333334 80.44471153846155  9.351325757575758 81.1358173076923  7.315340909090909 81.1358173076923  C 5.279356060606061 81.1358173076923  3.5511363636363638 80.44471153846155  2.130681818181818 79.0625  C 0.7102272727272727 77.68028846153845  0 75.99859775641025  0 74.01742788461539  L 0 44.29987980769231  C 0 42.36478365384616  0.7102272727272727 40.70612980769231  2.130681818181818 39.323918269230774  Z M 18 39  L 82 39  L 82 84.59134615384616  C 82.59943181818183 86.7107371794872  81.84185606060606 88.5076121794872  80.32670454545455 89.98197115384616  C 78.81155303030305 91.45633012820512  76.98863636363636 92.19350961538461  74.85795454545455 92.19350961538461  L 69 92.19350961538461  L 69 107.88161057692308  C 69.53125 109.86278044871796  68.82102272727273 111.54447115384616  67.40056818181817 112.9266826923077  C 65.98011363636364 114.30889423076923  64.25189393939394 115  62.21590909090909 115  C 60.17992424242424 115  58.45170454545454 114.30889423076923  57.03125 112.9266826923077  C 55.61079545454546 111.54447115384616  54.90056818181818 109.86278044871796  55 107.88161057692308  L 55 92.19350961538461  L 45 92.19350961538461  L 45 107.88161057692308  C 45.09943181818182 109.86278044871796  44.38920454545455 111.54447115384616  42.96875 112.9266826923077  C 41.54829545454545 114.30889423076923  39.820075757575765 115  37.784090909090914 115  C 35.79545454545455 115  34.090909090909086 114.30889423076923  32.67045454545455 112.9266826923077  C 31.25 111.54447115384616  30.53977272727273 109.86278044871796  31 107.88161057692308  L 31 92.19350961538461  L 25.213068181818183 92.19350961538461  C 23.035037878787882 92.19350961538461  21.188446969696972 91.45633012820512  19.673295454545457 89.98197115384616  C 18.15814393939394 88.5076121794872  17.400568181818183 86.7107371794872  18 84.59134615384616  L 18 39  Z M 71.16477272727273 1.5204326923076934  L 66.1221590909091 10.573918269230774  C 71.18844696969698 13.107972756410245  75.23674242424244 16.644130608974354  78.26704545454545 21.18239182692308  C 81.29734848484848 25.720653044871778  82.8125 30.68509615384616  82.8125 36  L 17.116477272727273 36  C 17.116477272727273 30.68509615384616  18.63162878787879 25.720653044871778  21.661931818181817 21.18239182692308  C 24.69223484848485 16.644130608974354  28.764204545454547 13.107972756410245  33.877840909090914 10.573918269230774  L 28.83522727272727 1.5204326923076934  C 28.503787878787882 0.9214743589743557  28.622159090909093 0.4607371794871651  29.19034090909091 0.13822115384615974  C 29.805871212121215 -0.13822115384615974  30.279356060606062 0  30.610795454545453 0.5528846153846134  L 35.72443181818182 9.675480769230774  C 40.22253787878788 7.740384615384613  44.98106060606061 6.772836538461534  50 6.772836538461534  C 55.018939393939405 6.772836538461534  59.777462121212125 7.740384615384613  64.27556818181817 9.675480769230774  L 69.38920454545455 0.5528846153846134  C 69.72064393939394 0  70.1941287878788 -0.13822115384615974  70.8096590909091 0.13822115384615974  C 71.3778409090909 0.4607371794871651  71.49621212121212 0.9214743589743557  71.16477272727273 1.5204326923076934  Z M 97.86931818181817 39.289362980769226  C 99.28977272727273 40.6485376602564  100 42.31870993589744  100 44.29987980769231  L 100 74.01742788461539  C 100 75.99859775641025  99.28977272727273 77.68028846153845  97.86931818181817 79.0625  C 96.44886363636364 80.44471153846155  94.72064393939394 81.1358173076923  92.6846590909091 81.1358173076923  C 90.69602272727273 81.1358173076923  88.99147727272727 80.44471153846155  87.57102272727273 79.0625  C 86.15056818181817 77.68028846153845  85.4403409090909 75.99859775641025  85 74.01742788461539  L 85 44.29987980769231  C 85.4403409090909 42.31870993589744  86.15056818181817 40.6485376602564  87.57102272727273 39.289362980769226  C 88.99147727272727 37.93018830128205  90.69602272727273 37.25060096153847  92.6846590909091 37.25060096153847  C 94.72064393939394 37.25060096153847  96.44886363636364 37.93018830128205  97.86931818181817 39.289362980769226  Z " fill-rule="nonzero" fill="#ffffff" stroke="none" transform="matrix(1 0 0 1 850 7278 )" />
  </g>
</svg>