<?xml version="1.0" encoding="utf-8"?>
<svg version="1.1" xmlns:xlink="http://www.w3.org/1999/xlink" width="21px" height="30px" xmlns="http://www.w3.org/2000/svg">
  <g transform="matrix(1 0 0 1 -220 -774 )">
    <path d="M 18.60519391910889 18.50047611763579  C 17.88242938485652 18.592408273645958  22.53156341599335 32.81286124805291  13.28213079522324 29.275892508926848  C 6.835852516756202 26.7937242966537  -1.45640545054457 18.592408273645933  0.6142172692054537 14.760288928382138  C 1.0740878724734848 13.793258841697364  1.347380071802595 12.749550551339494  1.4200020540138372 11.682980969306614  C 1.5532195831435331 10.235108962164654  1.5728125995010513 8.779176295043065  1.4786045838180997 7.328299895143197  C 1.3334322035383828 4.952117999309207  1.044786580194198 2.5866803049197253  0.6142172692054537 0.24468534783734744  C 0.6142172692054537 0.24468534783734744  20.73930271281351 0.6946690588342478  19.567252116728593 3.6316595166311294  C 19.225404026203833 4.492918662410096  19.17168504054994 5.988025831206218  19.264472379406655 7.662158777495705  C 19.35725971826338 9.336291723785195  19.601436925781076 11.228158723782881  19.85538122159946 12.829713652169644  C 20.20699640042495 15.026408327358755  20.558611579250414 16.700541273648245  20.558611579250414 16.700541273648245  C 20.558611579250414 16.700541273648245  19.32795845336126 18.40854396162565  18.60519391910889 18.50047611763579  Z " fill-rule="nonzero" fill="#cf6f80" stroke="none" transform="matrix(1 0 0 1 220 774 )" />
  </g>
</svg>