<?xml version="1.0" encoding="utf-8"?>
<svg version="1.1" xmlns:xlink="http://www.w3.org/1999/xlink" width="26px" height="74px" xmlns="http://www.w3.org/2000/svg">
  <g transform="matrix(1 0 0 1 -198 -950 )">
    <path d="M 7.645339803352225 0.07479780780449227  C 7.645339803352225 0.07479780780449227  27.057970417025288 6.876670791456179  25.902456690020962 9.753255403418365  C 25.579727150813508 10.565360462803993  25.334652240269307 11.407235852782085  25.170631329584843 12.267204135848514  C 24.76912322923962 14.62229250221211  24.657526612048276 17.019129493152697  24.83842113307111 19.402310089880764  C 25.016562832650955 22.832649490857744  24.83842113307111 45.820823962262175  24.83842113307111 45.820823962262175  C 24.83842113307111 45.820823962262175  21.030040474485936 51.951330520293936  18.90678400111546 54.11244434290943  C 16.783527527744962 56.273558165524975  23.23996047738178 60.154742173487534  23.23996047738178 60.154742173487534  C 24.202888583218726 65.74129491222149  18.367544261846756 72.05311941001918  18.367544261846756 72.05311941001918  C 12.435907129891081 64.75139697079673  5.262092741405737 73.85649783796138  5.262092741405737 73.85649783796138  C 5.262092741405737 73.85649783796138  1.3622339127660565 66.99581903600736  0.3896765258707146 64.54557660673807  C -0.5828808610245999 62.09533417746879  4.198057184455915 60.399766416414394  5.878366729141388 59.40496799013112  C 7.55867627382686 58.41016956384779  5.796517840145247 52.54428918817709  5.796517840145247 52.54428918817709  C 5.796517840145247 52.54428918817709  4.376198884035733 47.403680571570135  2.6910746988210352 42.71391656194871  C 1.005950513606365 38.02415255232732  4.5495259430863815 14.678242686249495  4.5495259430863815 14.678242686249495  C 4.5495259430863815 14.678242686249495  4.732482283195397 10.53243249592587  5.170614571351229 9.08678946265702  C 5.39167460129215 8.04359199378219  5.435641411127834 6.969574436349263  5.300609865639208 5.911275274323993  C 5.271722022464105 5.553539879650644  5.238019538759803 5.254610303279804  5.213946336113898 5.053690424079718  C 5.189873133467965 4.852770544879687  5.170614571351229 4.7596613325674015  5.170614571351229 4.7596613325674015  L 5.238019538759803 4.642049695962497  L 7.645339803352225 0.07479780780449227  Z " fill-rule="nonzero" fill="#6c63ff" stroke="none" transform="matrix(1 0 0 1 198 950 )" />
  </g>
</svg>