<?xml version="1.0" encoding="utf-8"?>
<svg version="1.1" xmlns:xlink="http://www.w3.org/1999/xlink" width="26px" height="65px" xmlns="http://www.w3.org/2000/svg">
  <g transform="matrix(1 0 0 1 -235 -956 )">
    <path d="M 24.358945087277657 52.238710509713776  C 23.34351014699035 52.95710555709482  25.801157031453858 61.97369645789709  25.801157031453858 61.97369645789709  C 25.801157031453858 61.97369645789709  21.38622250846551 61.880842676262816  19.03159076287175 63.92851291335562  C 16.676959017277962 65.9761831504484  5.296238913574731 64.37812069811103  5.78678719390676 63.92851291335562  C 6.2773354742387895 63.47890512860019  6.2380916118122345 60.150830113182074  6.2380916118122345 60.150830113182074  C -0.43827048350676107 51.07070767757737  5.256995051148175 47.38587865903809  5.256995051148175 47.38587865903809  C 5.256995051148175 47.38587865903809  2.274461506729415 33.09128332849792  1.734858398364163 27.78884369306676  C 1.357136222508495 24.08446650997291  0.891115356193049 14.129563710550507  0.6409357332237149 8.445934866304981  C 0.5330151115506311 6.002414296981874  0.46924383510746415 4.321272145287549  0.46924383510746415 4.321272145287549  L 5.9241407123997325 3.2265749302307736  L 6.625624753274541 3.0848507372100733  L 19.782129631779753 0.4556226046183607  C 19.782129631779753 0.4556226046183607  20.14513535922545 2.8991431739414675  20.39040949939145 4.897942999647836  C 20.512693542644133 5.751339047893607  20.581503520150314 6.611494562449578  20.59643977713092 7.473413679714381  C 20.50814108667117 8.450821907443613  20.59643977713092 11.51010966023617  20.59643977713092 11.51010966023617  L 21.042838712233088 20.68308587747504  C 20.75119810290973 21.645271121166378  20.600840691106143 22.64443419956289  20.59643977713092 23.64951984863338  C 20.6847384675907 24.817522680769848  22.396751965949512 41.54097745721723  22.396751965949512 41.54097745721723  C 22.396751965949512 41.54097745721723  25.374380027564968 51.52031546233279  24.358945087277657 52.238710509713776  Z " fill-rule="nonzero" fill="#6c63ff" stroke="none" transform="matrix(1 0 0 1 235 956 )" />
  </g>
</svg>