<?xml version="1.0" encoding="utf-8"?>
<svg version="1.1" xmlns:xlink="http://www.w3.org/1999/xlink" width="35px" height="35px" xmlns="http://www.w3.org/2000/svg">
  <g transform="matrix(1 0 0 1 -213 -750 )">
    <path d="M 34.50285057554481 17.703114819373038  L 34.49785075653372 17.703114819373038  C 34.5018405433043 19.504808632600373  34.21828518249325 21.295595762484425  33.65788116267288 23.007922790125264  C 31.3601371245328 30.0455912256038  24.79669620937301 34.80708537712786  17.393426345823627 34.80708537712786  C 8.10600928564179 34.80708537712786  0.5145764381763058 27.397779353590863  0.2890890827481485 18.113099978281326  C 0.2890890827481485 17.97310504597118  0.2890890827481485 17.843109751683155  0.2890890827481769 17.703114819373038  C 0.2874225068514136 17.605634374433578  0.2865891732426178 17.50814146497234  0.2865891732426178 17.410646774753758  C 0.2865891732426178 7.961396759448064  7.946719813840787 0.3012661188498811  17.39596982914648 0.3012661188498811  C 26.845219844452146 0.3012661188498811  34.50535048505034 7.961396759448064  34.50535048505034 17.410646774753758  C 34.50535048505034 17.50814146497234  34.50451715144155 17.605634374433578  34.50285057554481 17.703114819373038  Z " fill-rule="nonzero" fill="#cf6f80" stroke="none" transform="matrix(1 0 0 1 213 750 )" />
  </g>
</svg>