<?xml version="1.0" encoding="utf-8"?>
<svg version="1.1" xmlns:xlink="http://www.w3.org/1999/xlink" width="22px" height="22px" xmlns="http://www.w3.org/2000/svg">
  <g transform="matrix(1 0 0 1 -76 -2381 )">
    <path d="M 77 2392  A 10 10 0 0 1 87 2382 A 10 10 0 0 1 97 2392 A 10 10 0 0 1 87 2402 A 10 10 0 0 1 77 2392 Z " fill-rule="nonzero" fill="#ffffff" stroke="none" fill-opacity="0" />
    <path d="M 76.5 2392  A 10.5 10.5 0 0 1 87 2381.5 A 10.5 10.5 0 0 1 97.5 2392 A 10.5 10.5 0 0 1 87 2402.5 A 10.5 10.5 0 0 1 76.5 2392 Z " stroke-width="1" stroke-dasharray="9,4,2,4" stroke="#797979" fill="none" stroke-dashoffset="0.5" />
  </g>
</svg>