<?xml version="1.0" encoding="utf-8"?>
<svg version="1.1" xmlns:xlink="http://www.w3.org/1999/xlink" width="40px" height="40px" xmlns="http://www.w3.org/2000/svg">
  <g transform="matrix(1 0 0 1 -106 -3580 )">
    <path d="M 107 3600  A 19 19 0 0 1 126 3581 A 19 19 0 0 1 145 3600 A 19 19 0 0 1 126 3619 A 19 19 0 0 1 107 3600 Z " fill-rule="nonzero" fill="#ffffff" stroke="none" fill-opacity="0" />
    <path d="M 106.5 3600  A 19.5 19.5 0 0 1 126 3580.5 A 19.5 19.5 0 0 1 145.5 3600 A 19.5 19.5 0 0 1 126 3619.5 A 19.5 19.5 0 0 1 106.5 3600 Z " stroke-width="1" stroke-dasharray="9,4,2,4" stroke="#797979" fill="none" stroke-dashoffset="0.5" />
  </g>
</svg>