<?xml version="1.0" encoding="utf-8"?>
<svg version="1.1" xmlns:xlink="http://www.w3.org/1999/xlink" width="15px" height="15px" xmlns="http://www.w3.org/2000/svg">
  <defs>
    <mask fill="white" id="clip360">
      <path d="M 14.128736413043441 2.830551989730452  L 14.128736413043441 8.214285714285552  L 14.128736413043441 12.179075738125675  C 14.507897418478258 12.41014120667517  14.697477921195668 12.698973042361915  14.697477921195668 13.045571245186158  C 14.697477921195668 13.392169448010156  14.507897418478258 13.681001283697144  14.128736413043441 13.912066752246396  L 13.00622027853255 14.643774069319631  C 12.637037194293482 14.881258023106462  12.188030740489149 15  11.659200917119556 15  C 11.140349014945707 15  10.686353600543441 14.881258023106462  10.297214673912997 14.643774069319631  L 0.5537746263586638 8.366495507060238  C 0.18459154211959525 8.129011553273408  0 7.84017971758666  0 7.5  C 0 7.1662387676509205  0.18459154211959525 6.874197689345383  0.5537746263586638 6.623876765083391  L 10.297214673912997 0.3658536585364962  C 10.676375679347814 0.12195121951208421  11.13037109374996 0  11.659200917119556 0  C 12.178052819293521 0  12.627059273097855 0.12195121951208421  13.00622027853255 0.3658536585364962  L 14.128736413043441 1.078305519897234  C 14.507897418478258 1.3222079589216458  14.697477921195668 1.6142490372271823  14.697477921195668 1.954428754813843  C 14.697477921195668 2.2946084724005034  14.507897418478258 2.5866495507060403  14.128736413043441 2.830551989730452  Z " fill-rule="evenodd" />
    </mask>
  </defs>
  <g transform="matrix(1 0 0 1 -177 -13196 )">
    <path d="M 14.128736413043441 2.830551989730452  L 14.128736413043441 8.214285714285552  L 14.128736413043441 12.179075738125675  C 14.507897418478258 12.41014120667517  14.697477921195668 12.698973042361915  14.697477921195668 13.045571245186158  C 14.697477921195668 13.392169448010156  14.507897418478258 13.681001283697144  14.128736413043441 13.912066752246396  L 13.00622027853255 14.643774069319631  C 12.637037194293482 14.881258023106462  12.188030740489149 15  11.659200917119556 15  C 11.140349014945707 15  10.686353600543441 14.881258023106462  10.297214673912997 14.643774069319631  L 0.5537746263586638 8.366495507060238  C 0.18459154211959525 8.129011553273408  0 7.84017971758666  0 7.5  C 0 7.1662387676509205  0.18459154211959525 6.874197689345383  0.5537746263586638 6.623876765083391  L 10.297214673912997 0.3658536585364962  C 10.676375679347814 0.12195121951208421  11.13037109374996 0  11.659200917119556 0  C 12.178052819293521 0  12.627059273097855 0.12195121951208421  13.00622027853255 0.3658536585364962  L 14.128736413043441 1.078305519897234  C 14.507897418478258 1.3222079589216458  14.697477921195668 1.6142490372271823  14.697477921195668 1.954428754813843  C 14.697477921195668 2.2946084724005034  14.507897418478258 2.5866495507060403  14.128736413043441 2.830551989730452  Z " fill-rule="nonzero" fill="#000000" stroke="none" fill-opacity="0" transform="matrix(1 0 0 1 177 13196 )" />
    <path d="M 14.128736413043441 2.830551989730452  L 14.128736413043441 8.214285714285552  L 14.128736413043441 12.179075738125675  C 14.507897418478258 12.41014120667517  14.697477921195668 12.698973042361915  14.697477921195668 13.045571245186158  C 14.697477921195668 13.392169448010156  14.507897418478258 13.681001283697144  14.128736413043441 13.912066752246396  L 13.00622027853255 14.643774069319631  C 12.637037194293482 14.881258023106462  12.188030740489149 15  11.659200917119556 15  C 11.140349014945707 15  10.686353600543441 14.881258023106462  10.297214673912997 14.643774069319631  L 0.5537746263586638 8.366495507060238  C 0.18459154211959525 8.129011553273408  0 7.84017971758666  0 7.5  C 0 7.1662387676509205  0.18459154211959525 6.874197689345383  0.5537746263586638 6.623876765083391  L 10.297214673912997 0.3658536585364962  C 10.676375679347814 0.12195121951208421  11.13037109374996 0  11.659200917119556 0  C 12.178052819293521 0  12.627059273097855 0.12195121951208421  13.00622027853255 0.3658536585364962  L 14.128736413043441 1.078305519897234  C 14.507897418478258 1.3222079589216458  14.697477921195668 1.6142490372271823  14.697477921195668 1.954428754813843  C 14.697477921195668 2.2946084724005034  14.507897418478258 2.5866495507060403  14.128736413043441 2.830551989730452  Z " stroke-width="2" stroke="#ffffff" fill="none" transform="matrix(1 0 0 1 177 13196 )" mask="url(#clip360)" />
  </g>
</svg>