<?xml version="1.0" encoding="utf-8"?>
<svg version="1.1" xmlns:xlink="http://www.w3.org/1999/xlink" width="8px" height="8px" xmlns="http://www.w3.org/2000/svg">
  <defs>
    <mask fill="white" id="clip429">
      <path d="M 7.535326086956523 1.509627727856223  L 7.535326086956523 6.4955070603337575  C 7.737545289855074 6.618741976893452  7.838654891304348 6.772785622593065  7.838654891304348 6.957637997432602  C 7.838654891304348 7.142490372272141  7.737545289855074 7.296534017971762  7.535326086956523 7.419768934531448  L 6.936650815217391 7.810012836970473  C 6.739753170289855 7.936670945656824  6.500283061594203 8  6.218240489130434 8  C 5.941519474637682 8  5.6993885869565215 7.936670945656824  5.491847826086957 7.810012836970473  L 0.29534646739130466 4.462130937098846  C 0.09844882246376763 4.335472828412494  0 4.181429182712882  0 4  C 0 3.8219940094137748  0.09844882246376763 3.66623876765083  0.29534646739130466 3.5327342747111654  L 5.491847826086957 0.19512195121951664  C 5.694067028985508 0.06504065040649948  5.936197916666668 0  6.218240489130434 0  C 6.494961503623188 0  6.734431612318842 0.06504065040649948  6.936650815217391 0.19512195121951664  L 7.535326086956523 0.5750962772785624  C 7.737545289855074 0.7051775780915704  7.838654891304348 0.8609328198545154  7.838654891304348 1.0423620025673972  C 7.838654891304348 1.2237911852802699  7.737545289855074 1.379546427043215  7.535326086956523 1.509627727856223  Z " fill-rule="evenodd" />
    </mask>
  </defs>
  <g transform="matrix(1 0 0 1 -205 -1429 )">
    <path d="M 7.535326086956523 1.509627727856223  L 7.535326086956523 6.4955070603337575  C 7.737545289855074 6.618741976893452  7.838654891304348 6.772785622593065  7.838654891304348 6.957637997432602  C 7.838654891304348 7.142490372272141  7.737545289855074 7.296534017971762  7.535326086956523 7.419768934531448  L 6.936650815217391 7.810012836970473  C 6.739753170289855 7.936670945656824  6.500283061594203 8  6.218240489130434 8  C 5.941519474637682 8  5.6993885869565215 7.936670945656824  5.491847826086957 7.810012836970473  L 0.29534646739130466 4.462130937098846  C 0.09844882246376763 4.335472828412494  0 4.181429182712882  0 4  C 0 3.8219940094137748  0.09844882246376763 3.66623876765083  0.29534646739130466 3.5327342747111654  L 5.491847826086957 0.19512195121951664  C 5.694067028985508 0.06504065040649948  5.936197916666668 0  6.218240489130434 0  C 6.494961503623188 0  6.734431612318842 0.06504065040649948  6.936650815217391 0.19512195121951664  L 7.535326086956523 0.5750962772785624  C 7.737545289855074 0.7051775780915704  7.838654891304348 0.8609328198545154  7.838654891304348 1.0423620025673972  C 7.838654891304348 1.2237911852802699  7.737545289855074 1.379546427043215  7.535326086956523 1.509627727856223  Z " fill-rule="nonzero" fill="#000000" stroke="none" fill-opacity="0.24705882352941178" transform="matrix(1 0 0 1 205 1429 )" />
    <path d="M 7.535326086956523 1.509627727856223  L 7.535326086956523 6.4955070603337575  C 7.737545289855074 6.618741976893452  7.838654891304348 6.772785622593065  7.838654891304348 6.957637997432602  C 7.838654891304348 7.142490372272141  7.737545289855074 7.296534017971762  7.535326086956523 7.419768934531448  L 6.936650815217391 7.810012836970473  C 6.739753170289855 7.936670945656824  6.500283061594203 8  6.218240489130434 8  C 5.941519474637682 8  5.6993885869565215 7.936670945656824  5.491847826086957 7.810012836970473  L 0.29534646739130466 4.462130937098846  C 0.09844882246376763 4.335472828412494  0 4.181429182712882  0 4  C 0 3.8219940094137748  0.09844882246376763 3.66623876765083  0.29534646739130466 3.5327342747111654  L 5.491847826086957 0.19512195121951664  C 5.694067028985508 0.06504065040649948  5.936197916666668 0  6.218240489130434 0  C 6.494961503623188 0  6.734431612318842 0.06504065040649948  6.936650815217391 0.19512195121951664  L 7.535326086956523 0.5750962772785624  C 7.737545289855074 0.7051775780915704  7.838654891304348 0.8609328198545154  7.838654891304348 1.0423620025673972  C 7.838654891304348 1.2237911852802699  7.737545289855074 1.379546427043215  7.535326086956523 1.509627727856223  Z " stroke-width="2" stroke="#ffffff" fill="none" transform="matrix(1 0 0 1 205 1429 )" mask="url(#clip429)" />
  </g>
</svg>