<?xml version="1.0" encoding="utf-8"?>
<svg version="1.1" xmlns:xlink="http://www.w3.org/1999/xlink" width="10px" height="10px" xmlns="http://www.w3.org/2000/svg">
  <defs>
    <mask fill="white" id="clip350">
      <path d="M 9.419157608695654 1.8870346598202787  L 9.419157608695654 8.119383825417197  C 9.671931612318843 8.273427471116815  9.798318614130434 8.465982028241331  9.798318614130434 8.697047496790752  C 9.798318614130434 8.928112965340176  9.671931612318843 9.120667522464704  9.419157608695654 9.27471116816431  L 8.670813519021738 9.762516046213092  C 8.42469146286232 9.92083868207103  8.125353826992754 10  7.772800611413042 10  C 7.4268993432971016 10  7.124235733695652 9.92083868207103  6.864809782608696 9.762516046213092  L 0.3691830842391308 5.577663671373557  C 0.12306102807970953 5.419341035515618  0 5.226786478391102  0 5  C 0 4.7774925117672185  0.12306102807970953 4.582798459563538  0.3691830842391308 4.415917843388957  L 6.864809782608696 0.2439024390243958  C 7.117583786231885 0.08130081300812435  7.420247395833335 0  7.772800611413042 0  C 8.118701879528984 0  8.418039515398553 0.08130081300812435  8.670813519021738 0.2439024390243958  L 9.419157608695654 0.7188703465982029  C 9.671931612318843 0.8814719726144631  9.798318614130434 1.0761660248181442  9.798318614130434 1.3029525032092466  C 9.798318614130434 1.5297389816003373  9.671931612318843 1.7244330338040186  9.419157608695654 1.8870346598202787  Z " fill-rule="evenodd" />
    </mask>
  </defs>
  <g transform="matrix(1 0 0 1 -397 -2223 )">
    <path d="M 9.419157608695654 1.8870346598202787  L 9.419157608695654 8.119383825417197  C 9.671931612318843 8.273427471116815  9.798318614130434 8.465982028241331  9.798318614130434 8.697047496790752  C 9.798318614130434 8.928112965340176  9.671931612318843 9.120667522464704  9.419157608695654 9.27471116816431  L 8.670813519021738 9.762516046213092  C 8.42469146286232 9.92083868207103  8.125353826992754 10  7.772800611413042 10  C 7.4268993432971016 10  7.124235733695652 9.92083868207103  6.864809782608696 9.762516046213092  L 0.3691830842391308 5.577663671373557  C 0.12306102807970953 5.419341035515618  0 5.226786478391102  0 5  C 0 4.7774925117672185  0.12306102807970953 4.582798459563538  0.3691830842391308 4.415917843388957  L 6.864809782608696 0.2439024390243958  C 7.117583786231885 0.08130081300812435  7.420247395833335 0  7.772800611413042 0  C 8.118701879528984 0  8.418039515398553 0.08130081300812435  8.670813519021738 0.2439024390243958  L 9.419157608695654 0.7188703465982029  C 9.671931612318843 0.8814719726144631  9.798318614130434 1.0761660248181442  9.798318614130434 1.3029525032092466  C 9.798318614130434 1.5297389816003373  9.671931612318843 1.7244330338040186  9.419157608695654 1.8870346598202787  Z " fill-rule="nonzero" fill="#000000" stroke="none" fill-opacity="0.24705882352941178" transform="matrix(1 0 0 1 397 2223 )" />
    <path d="M 9.419157608695654 1.8870346598202787  L 9.419157608695654 8.119383825417197  C 9.671931612318843 8.273427471116815  9.798318614130434 8.465982028241331  9.798318614130434 8.697047496790752  C 9.798318614130434 8.928112965340176  9.671931612318843 9.120667522464704  9.419157608695654 9.27471116816431  L 8.670813519021738 9.762516046213092  C 8.42469146286232 9.92083868207103  8.125353826992754 10  7.772800611413042 10  C 7.4268993432971016 10  7.124235733695652 9.92083868207103  6.864809782608696 9.762516046213092  L 0.3691830842391308 5.577663671373557  C 0.12306102807970953 5.419341035515618  0 5.226786478391102  0 5  C 0 4.7774925117672185  0.12306102807970953 4.582798459563538  0.3691830842391308 4.415917843388957  L 6.864809782608696 0.2439024390243958  C 7.117583786231885 0.08130081300812435  7.420247395833335 0  7.772800611413042 0  C 8.118701879528984 0  8.418039515398553 0.08130081300812435  8.670813519021738 0.2439024390243958  L 9.419157608695654 0.7188703465982029  C 9.671931612318843 0.8814719726144631  9.798318614130434 1.0761660248181442  9.798318614130434 1.3029525032092466  C 9.798318614130434 1.5297389816003373  9.671931612318843 1.7244330338040186  9.419157608695654 1.8870346598202787  Z " stroke-width="2" stroke="#ffffff" fill="none" transform="matrix(1 0 0 1 397 2223 )" mask="url(#clip350)" />
  </g>
</svg>