<?xml version="1.0" encoding="utf-8"?>
<svg version="1.1" xmlns:xlink="http://www.w3.org/1999/xlink" width="10px" height="9px" xmlns="http://www.w3.org/2000/svg">
  <defs>
    <mask fill="white" id="clip442">
      <path d="M 9.419157608695627 1.6983311938382712  L 9.419157608695627 4.928571428571331  L 9.419157608695627 7.307445442875405  C 9.67193161231884 7.446084724005102  9.798318614130446 7.619383825417149  9.798318614130446 7.827342747111695  C 9.798318614130446 8.035301668806094  9.67193161231884 8.208600770218286  9.419157608695627 8.347240051347837  L 8.670813519021701 8.78626444159178  C 8.424691462862322 8.928754813863877  8.125353826992766 9  7.772800611413037 9  C 7.426899343297139 9  7.1242357336956275 8.928754813863877  6.864809782608664 8.78626444159178  L 0.3691830842391092 5.019897304236142  C 0.12306102807973016 4.877406931964044  0 4.704107830551996  0 4.5  C 0 4.299743260590552  0.12306102807973016 4.12451861360723  0.3691830842391092 3.9743260590500347  L 6.864809782608664 0.21951219512189774  C 7.117583786231876 0.07317073170725052  7.4202473958333055 0  7.772800611413037 0  C 8.118701879529015 0  8.41803951539857 0.07317073170725052  8.670813519021701 0.21951219512189774  L 9.419157608695627 0.6469833119383404  C 9.67193161231884 0.7933247753529875  9.798318614130446 0.9685494223363094  9.798318614130446 1.172657252888306  C 9.798318614130446 1.376765083440302  9.67193161231884 1.551989730423624  9.419157608695627 1.6983311938382712  Z " fill-rule="evenodd" />
    </mask>
  </defs>
  <g transform="matrix(1 0 0 1 -648 -9838 )">
    <path d="M 9.419157608695627 1.6983311938382712  L 9.419157608695627 4.928571428571331  L 9.419157608695627 7.307445442875405  C 9.67193161231884 7.446084724005102  9.798318614130446 7.619383825417149  9.798318614130446 7.827342747111695  C 9.798318614130446 8.035301668806094  9.67193161231884 8.208600770218286  9.419157608695627 8.347240051347837  L 8.670813519021701 8.78626444159178  C 8.424691462862322 8.928754813863877  8.125353826992766 9  7.772800611413037 9  C 7.426899343297139 9  7.1242357336956275 8.928754813863877  6.864809782608664 8.78626444159178  L 0.3691830842391092 5.019897304236142  C 0.12306102807973016 4.877406931964044  0 4.704107830551996  0 4.5  C 0 4.299743260590552  0.12306102807973016 4.12451861360723  0.3691830842391092 3.9743260590500347  L 6.864809782608664 0.21951219512189774  C 7.117583786231876 0.07317073170725052  7.4202473958333055 0  7.772800611413037 0  C 8.118701879529015 0  8.41803951539857 0.07317073170725052  8.670813519021701 0.21951219512189774  L 9.419157608695627 0.6469833119383404  C 9.67193161231884 0.7933247753529875  9.798318614130446 0.9685494223363094  9.798318614130446 1.172657252888306  C 9.798318614130446 1.376765083440302  9.67193161231884 1.551989730423624  9.419157608695627 1.6983311938382712  Z " fill-rule="nonzero" fill="#ffffff" stroke="none" fill-opacity="0" transform="matrix(1 0 0 1 648 9838 )" />
    <path d="M 9.419157608695627 1.6983311938382712  L 9.419157608695627 4.928571428571331  L 9.419157608695627 7.307445442875405  C 9.67193161231884 7.446084724005102  9.798318614130446 7.619383825417149  9.798318614130446 7.827342747111695  C 9.798318614130446 8.035301668806094  9.67193161231884 8.208600770218286  9.419157608695627 8.347240051347837  L 8.670813519021701 8.78626444159178  C 8.424691462862322 8.928754813863877  8.125353826992766 9  7.772800611413037 9  C 7.426899343297139 9  7.1242357336956275 8.928754813863877  6.864809782608664 8.78626444159178  L 0.3691830842391092 5.019897304236142  C 0.12306102807973016 4.877406931964044  0 4.704107830551996  0 4.5  C 0 4.299743260590552  0.12306102807973016 4.12451861360723  0.3691830842391092 3.9743260590500347  L 6.864809782608664 0.21951219512189774  C 7.117583786231876 0.07317073170725052  7.4202473958333055 0  7.772800611413037 0  C 8.118701879529015 0  8.41803951539857 0.07317073170725052  8.670813519021701 0.21951219512189774  L 9.419157608695627 0.6469833119383404  C 9.67193161231884 0.7933247753529875  9.798318614130446 0.9685494223363094  9.798318614130446 1.172657252888306  C 9.798318614130446 1.376765083440302  9.67193161231884 1.551989730423624  9.419157608695627 1.6983311938382712  Z " stroke-width="2" stroke="#ffffff" fill="none" transform="matrix(1 0 0 1 648 9838 )" mask="url(#clip442)" />
  </g>
</svg>