<?xml version="1.0" encoding="utf-8"?>
<svg version="1.1" xmlns:xlink="http://www.w3.org/1999/xlink" width="16px" height="8px" preserveAspectRatio="xMinYMid meet" viewBox="694 18011  16 6" xmlns="http://www.w3.org/2000/svg">
  <g transform="matrix(0.22495105434376217 0.9743700647850153 -0.9743700647852427 0.22495105434376217 18096.38670689204 13277.723921572386 )">
    <path d="M 71.63555555555558 113.72711811023623  C 69.11466666666668 109.98845669291345  66.52800000000005 106.28749606299213  64.11022222222225 102.47881889763786  C 62.10844444444446 99.32541732283468  60.20355555555559 96.10918110236227  58.37333333333335 92.85075590551189  C 55.5528888888889 87.83026771653553  52.73155555555559 82.80888188976384  49.910222222222224 77.7883937007875  C 47.74488888888891 73.93393700787412  45.606222222222236 70.06242519685051  43.412444444444446 66.22322834645678  C 41.08533333333334 62.15064566929139  38.67644444444446 58.12833070866147  36.26666666666668 54.10601574803155  C 34.48977777777777 51.13842519685042  32.656 48.20045669291349  30.784000000000006 45.29300787401583  C 27.543111111111102 40.26085039370086  24.30222222222225 35.22959055118117  21.061333333333348 30.19743307086621  C 18.951111111111107 26.921055118110328  16.824888888888886 23.653653543307186  14.740444444444467 20.361118110236315  C 12.230222222222235 16.395354330708752  9.71200000000004 12.431385826771796  7.416888888888934 8.332771653543423  C 6.332444444444466 6.396566929133939  5.365333333333385 4.397527559055221  4.302222222222251 2.4496535433072264  C 4.010666666666718 1.9146614173229708  3.5191111111111644 0.6866929133859676  2.85600000000002 0.4443307086615745  C 1.7617777777778025 0.044881889763942806  1.5200000000000322 3.0609448818899394  1.4382222222222178 3.553748031496219  C 1.071111111111097 5.775401574803326  0.8355555555555536 8.03026771653556  0.5884444444444247 10.268078740157652  C 0.4471111111110986 11.548110236220685  0.40088888888885776 12.825448818897852  0.6737777777777613 14.090220472441152  C 1.0062222222222268 15.634157480315192  1.8666666666666365 16.944708661417486  2.6657777777777483 18.276803149606497  C 4.263999999999972 20.94188976377977  5.862222222222195 23.60697637795294  7.46044444444442 26.272062992126216  C 10.14399999999998 30.746787401575048  12.827555555555541 35.22240944881913  15.5111111111111 39.69713385826797  C 18.839999999999996 45.248125984252184  22.168888888888887 50.79911811023651  25.49777777777778 56.350110236220736  C 29.03111111111113 62.243102362205036  32.565333333333356 68.13519685039398  36.09866666666666 74.02818897637819  C 39.397333333333336 79.52801574803168  42.695111111111096 85.02874015748053  45.99377777777777 90.52856692913404  C 48.61688888888891 94.90185826771668  51.23999999999998 99.27604724409467  53.8622222222222 103.64933858267732  C 55.368888888888854 106.16272440944893  56.87644444444443 108.67521259842538  58.383999999999965 111.188598425197  C 58.5822222222222 111.51892913385846  58.77955555555552 111.84836220472458  58.97777777777775 112.17869291338593  " stroke-width="1" stroke="#ffffff" fill="none" transform="matrix(1 0 0 1 701 18009 )" />
  </g>
</svg>