<?xml version="1.0" encoding="utf-8"?>
<svg version="1.1" xmlns:xlink="http://www.w3.org/1999/xlink" width="80px" height="87px" xmlns="http://www.w3.org/2000/svg">
  <defs>
    <mask fill="white" id="clip349">
      <path d="M 72.50977060322855 1.1591417517653024  C 73.37977909940527 0.25552587451638414  74.44010195412065 -0.12494396853578896  75.5819881053526 0.06529095299030338  C 77.49872557349192 0.3846138569805236  79.50382327952421 2.300551280921822  79.89804587935429 4.1961063918424655  C 80.17672047578588 5.54813315554572  79.85046728971963 6.560454702238112  78.77655055225149 7.627129083652245  C 78.04927782497876 8.347304143715283  77.25403568394222 8.897626595272891  76.00339847068818 9.52947829891311  C 75.20815632965166 9.930330454985938  74.94307561597282 10.106977167831586  74.55564995751912 10.473858802203328  C 74.1750212404418 10.840740436575055  74.08666100254885 10.963034314698973  74.08666100254885 11.13288692320441  C 74.08666100254885 11.309533636050059  74.04587935429058 11.363886470771801  73.8623619371283 11.431827514173975  C 73.74681393372983 11.479386244555496  73.46813933729821 11.69000347910223  73.25743415463042 11.893826609308757  C 72.93118096856415 12.213149513298966  72.8768054375531 12.294678765381585  72.910790144435 12.450943165206578  C 72.9855564995752 12.845001216939183  72.57774001699235 13.259441581692444  71.86406117247239 13.51082344228049  C 71.55140186915888 13.619529111723962  71.3338997451147 13.802969928909834  70.05607476635515 15.093849753551135  C 68.49277824978759 16.670081960481568  67.81308411214953 17.383462916204394  66.27017841971113 19.081989001258737  C 64.61852166525064 20.88242665141634  64.29906542056075 21.2561023901283  64.29906542056075 21.358013955231563  C 64.29906542056075 21.52107245939678  63.98640611724724 22.12574774567612  63.83687340696687 22.26162983248047  C 63.7553101104503 22.32957087588265  63.59218351741716 22.404306023625033  63.46983857264231 22.431482440985906  C 63.2999150382328 22.465452962686992  63.184367034834324 22.567364527790247  62.98045879354291 22.859511014419603  C 62.83772302463891 23.070128248966338  62.71537807986406 23.32151010955438  62.71537807986406 23.41662757031742  C 62.722175021240446 23.55250965712177  62.65420560747664 23.627244804864155  62.46389124893798 23.735950474307643  C 62.32115548003399 23.817479726390253  62.17162276975362 23.960155917534813  62.13084112149532 24.04847927395764  C 62.05607476635514 24.204743673782637  62.09005947323704 24.252302404164165  62.54545454545455 24.727889707979376  C 62.817332200509775 25.00644798592829  63.42905692438403 25.577152750506556  63.90484282073068 25.984799010919595  C 64.38742565845371 26.39244527133263  64.77485131690739 26.75253280136415  64.77485131690739 26.779709218725028  C 64.77485131690739 26.806885636085894  65.36618521665251 27.24850241820002  66.07986406117247 27.751266139376106  C 68.29566694987255 29.307116033285887  69.05692438402718 30.020496989008713  69.45794392523365 30.86296592719567  C 70.08326253186067 32.187816273538054  69.0501274426508 33.87275414991197  67.50722175021241 34.02901854973697  C 66.68479184367035 34.117341906159794  65.66525063721326 33.770842584808705  65.08071367884453 33.20013782023045  C 64.71367884451996 32.84684439453914  64.57094307561597 32.547903803569575  64.57094307561597 32.11987523013588  C 64.57094307561597 31.72581717840328  64.7000849617672 31.42687658743371  65.01274426508073 31.08037726608263  C 65.25743415463042 30.801818988133718  65.7875955819881 30.536848918865235  65.92353440951572 30.625172275288058  C 66.0730671197961 30.713495631710884  65.99150382327952 30.536848918865235  65.68564146134239 30.115614449771755  C 65.35938827527613 29.660409458977195  63.73491928632116 28.009442104304362  63.619371282922685 28.009442104304362  C 63.578589634664404 28.009442104304362  63.42905692438403 27.921118747881547  63.27272727272728 27.81241307843806  C 63.123194562446905 27.69691330465437  62.858113848768056 27.561031217850026  62.68139337298216 27.50667838312829  C 62.423109600679695 27.418355026705456  60.778249787595584 27.105826227055456  59.77909940526763 26.949561827230465  C 59.58198810535259 26.915591305529375  59.55480033984707 26.949561827230465  59.0518266779949 27.71729561767502  C 58.44689889549703 28.654882016625013  57.977909940526764 29.470174537451104  57.48173322005098 30.441731458102186  C 57.14868309260833 31.10755368344349  57.11469838572643 31.14152420514458  56.85641461342396 31.209465248546756  C 56.70688190314358 31.25022987458806  56.23789294817332 31.392906065732625  55.8232795242141 31.528788152536976  L 55.05522514868309 31.78017001312501  L 50.35174171622771 36.97765983339131  C 34.30416312659304 54.71706626569888  25.31860662701785 64.56851755901407  15.986406117247247 74.65096839989666  C 11.989804587935433 78.9720187602749  10.83432455395073 79.91639926356513  4.723874256584546 83.91812671995316  C 3.452846219201371 84.75380155379989  1.9303313508921072 85.7661231004923  1.3457943925233717 86.17376936090533  C 0.7544604927782572 86.58141562131836  0.22429906542056344 86.93470904700968  0.1699235344095218 86.95509136003032  C -0.10875106202208329 87.0637970294738  0.04757858963467143 86.7105036037825  0.7680543755310154 85.6166528050075  C 1.1962616822429961 84.96441878834663  2.270178419711142 83.2726868076325  3.1605777400170076 81.85271900052707  C 5.831775700934587 77.57922737053033  7.578589634664414 75.05182055596947  9.087510620220911 73.2581770101521  C 9.624468988954975 72.61953120217166  15.510620220900595 65.98848536611949  18.344944774851328 62.82922684791842  C 25.841971112999154 54.47927261379126  33.64485981308412 45.891524727756504  46.9124893797791 31.399700170072837  C 50.501274426508076 27.479501965767408  50.562446898895494 27.404766818025024  50.664401019541216 27.01750287063263  C 50.71877655055225 26.793297427405463  50.80033984706881 26.378857062652198  50.84791843670349 26.086710576022853  L 50.92948173322006 25.5567704374859  L 51.81308411214953 24.979271568567423  C 52.78504672897196 24.340625760586985  53.49192863211555 23.817479726390253  54.3891248937978 23.063334144626115  C 54.93288020390825 22.608129153831555  54.97366185216652 22.553776319109815  54.91928632115549 22.404306023625033  C 54.88530161427357 22.30918856286199  54.71537807986407 21.745277902623947  54.54545454545455 21.147396720684817  C 54.198810535259135 19.910869730765256  54.05607476635515 19.577958618094602  53.72302463891249 19.19069467070222  C 53.59388275276126 19.041224375217435  53.49192863211555 18.884959975392434  53.49192863211555 18.850989453691344  C 53.49192863211555 18.76266609726853  52.465590484282075 17.852256115679396  51.84027187765507 17.383462916204394  C 51.41206457094307 17.064140012214175  50.548853016142736 16.527405769337008  50.45369583687341 16.527405769337008  C 50.44010195412065 16.527405769337008  50.44010195412065 16.58855270839896  50.467289719626166 16.656493751801136  C 50.53525913338998 16.873905090688094  50.23619371282923 17.458198063946778  49.91673746813934 17.74355044623591  C 49.638062871707746 17.988138202483736  49.24384027187766 18.157990810989173  48.95836873406967 18.157990810989173  C 48.38742565845371 18.157990810989173  47.63976210705182 17.566903733390266  47.25913338997451 16.799169942945696  C 46.53865760407817 15.365613927159835  46.93967714528462 13.891293285332663  48.22429906542057 13.259441581692444  C 48.781648258283774 12.987677408083757  49.16227697536109 12.940118677702236  49.72642310960069 13.096383077527229  C 50.61682242990655 13.33417672943484  51.561597281223456 14.15626335460114  53.42395921835174 16.316788534790263  C 54.0016992353441 16.98940486447179  54.50467289719626 17.53972731602939  54.53865760407817 17.53972731602939  C 54.57264231096006 17.54652142036961  54.88530161427357 17.811491489638087  55.23874256584538 18.137608497968518  C 56.795242141036525 19.591546826775037  57.352591333899746 20.026369504548953  57.570093457943926 19.958428461146777  C 57.64485981308411 19.93125204378591  57.76720475785897 19.795369956981563  57.84197111299916 19.652693765837004  C 57.91673746813934 19.51001757469243  58.03908241291418 19.37413548788809  58.113848768054375 19.346959070527213  C 58.188615123194566 19.326576757506558  58.40611724723875 19.183900566362  58.603228547153776 19.034430270877216  C 58.90909090909091 18.810224827650046  58.96346644010195 18.73548967990765  58.97026338147833 18.531666549701125  C 58.97706032285471 18.225931854391348  59.2965165675446 17.879432533040266  59.745114698385734 17.68919761151417  C 60.105352591333904 17.53293321168918  60.47918436703483 17.14566926429678  62.67459643160578 14.652232971437009  C 63.79609175870858 13.381735459816362  66.43330501274427 10.256447463316368  66.82752761257434 9.733301429119624  C 66.92268479184366 9.604213446655496  67.05862361937129 9.312066960026153  67.11979609175872 9.087861516798972  C 67.35768903993203 8.265774891632674  67.6839422259983 7.858128631219635  68.05777400169924 7.919275570281589  C 68.22769753610875 7.939657883302243  68.29566694987255 7.892099152920723  68.55395072217503 7.572776248930503  C 68.74426508071367 7.334982597022891  68.85301614273577 7.137953571156587  68.85301614273577 7.015659693032681  C 68.85301614273577 6.805042458485935  68.94137638062871 6.7099249977228945  69.19966015293119 6.641983954320718  C 69.6142735768904 6.540072389217456  70.06966864910791 5.819897329154419  70.51826677994902 4.556193921873983  C 71.08241291418862 2.959579401922905  71.5446049277825 2.164669194117472  72.50977060322855 1.1591417517653024  Z " fill-rule="evenodd" />
    </mask>
  </defs>
  <g transform="matrix(1 0 0 1 -610 -11766 )">
    <path d="M 72.50977060322855 1.1591417517653024  C 73.37977909940527 0.25552587451638414  74.44010195412065 -0.12494396853578896  75.5819881053526 0.06529095299030338  C 77.49872557349192 0.3846138569805236  79.50382327952421 2.300551280921822  79.89804587935429 4.1961063918424655  C 80.17672047578588 5.54813315554572  79.85046728971963 6.560454702238112  78.77655055225149 7.627129083652245  C 78.04927782497876 8.347304143715283  77.25403568394222 8.897626595272891  76.00339847068818 9.52947829891311  C 75.20815632965166 9.930330454985938  74.94307561597282 10.106977167831586  74.55564995751912 10.473858802203328  C 74.1750212404418 10.840740436575055  74.08666100254885 10.963034314698973  74.08666100254885 11.13288692320441  C 74.08666100254885 11.309533636050059  74.04587935429058 11.363886470771801  73.8623619371283 11.431827514173975  C 73.74681393372983 11.479386244555496  73.46813933729821 11.69000347910223  73.25743415463042 11.893826609308757  C 72.93118096856415 12.213149513298966  72.8768054375531 12.294678765381585  72.910790144435 12.450943165206578  C 72.9855564995752 12.845001216939183  72.57774001699235 13.259441581692444  71.86406117247239 13.51082344228049  C 71.55140186915888 13.619529111723962  71.3338997451147 13.802969928909834  70.05607476635515 15.093849753551135  C 68.49277824978759 16.670081960481568  67.81308411214953 17.383462916204394  66.27017841971113 19.081989001258737  C 64.61852166525064 20.88242665141634  64.29906542056075 21.2561023901283  64.29906542056075 21.358013955231563  C 64.29906542056075 21.52107245939678  63.98640611724724 22.12574774567612  63.83687340696687 22.26162983248047  C 63.7553101104503 22.32957087588265  63.59218351741716 22.404306023625033  63.46983857264231 22.431482440985906  C 63.2999150382328 22.465452962686992  63.184367034834324 22.567364527790247  62.98045879354291 22.859511014419603  C 62.83772302463891 23.070128248966338  62.71537807986406 23.32151010955438  62.71537807986406 23.41662757031742  C 62.722175021240446 23.55250965712177  62.65420560747664 23.627244804864155  62.46389124893798 23.735950474307643  C 62.32115548003399 23.817479726390253  62.17162276975362 23.960155917534813  62.13084112149532 24.04847927395764  C 62.05607476635514 24.204743673782637  62.09005947323704 24.252302404164165  62.54545454545455 24.727889707979376  C 62.817332200509775 25.00644798592829  63.42905692438403 25.577152750506556  63.90484282073068 25.984799010919595  C 64.38742565845371 26.39244527133263  64.77485131690739 26.75253280136415  64.77485131690739 26.779709218725028  C 64.77485131690739 26.806885636085894  65.36618521665251 27.24850241820002  66.07986406117247 27.751266139376106  C 68.29566694987255 29.307116033285887  69.05692438402718 30.020496989008713  69.45794392523365 30.86296592719567  C 70.08326253186067 32.187816273538054  69.0501274426508 33.87275414991197  67.50722175021241 34.02901854973697  C 66.68479184367035 34.117341906159794  65.66525063721326 33.770842584808705  65.08071367884453 33.20013782023045  C 64.71367884451996 32.84684439453914  64.57094307561597 32.547903803569575  64.57094307561597 32.11987523013588  C 64.57094307561597 31.72581717840328  64.7000849617672 31.42687658743371  65.01274426508073 31.08037726608263  C 65.25743415463042 30.801818988133718  65.7875955819881 30.536848918865235  65.92353440951572 30.625172275288058  C 66.0730671197961 30.713495631710884  65.99150382327952 30.536848918865235  65.68564146134239 30.115614449771755  C 65.35938827527613 29.660409458977195  63.73491928632116 28.009442104304362  63.619371282922685 28.009442104304362  C 63.578589634664404 28.009442104304362  63.42905692438403 27.921118747881547  63.27272727272728 27.81241307843806  C 63.123194562446905 27.69691330465437  62.858113848768056 27.561031217850026  62.68139337298216 27.50667838312829  C 62.423109600679695 27.418355026705456  60.778249787595584 27.105826227055456  59.77909940526763 26.949561827230465  C 59.58198810535259 26.915591305529375  59.55480033984707 26.949561827230465  59.0518266779949 27.71729561767502  C 58.44689889549703 28.654882016625013  57.977909940526764 29.470174537451104  57.48173322005098 30.441731458102186  C 57.14868309260833 31.10755368344349  57.11469838572643 31.14152420514458  56.85641461342396 31.209465248546756  C 56.70688190314358 31.25022987458806  56.23789294817332 31.392906065732625  55.8232795242141 31.528788152536976  L 55.05522514868309 31.78017001312501  L 50.35174171622771 36.97765983339131  C 34.30416312659304 54.71706626569888  25.31860662701785 64.56851755901407  15.986406117247247 74.65096839989666  C 11.989804587935433 78.9720187602749  10.83432455395073 79.91639926356513  4.723874256584546 83.91812671995316  C 3.452846219201371 84.75380155379989  1.9303313508921072 85.7661231004923  1.3457943925233717 86.17376936090533  C 0.7544604927782572 86.58141562131836  0.22429906542056344 86.93470904700968  0.1699235344095218 86.95509136003032  C -0.10875106202208329 87.0637970294738  0.04757858963467143 86.7105036037825  0.7680543755310154 85.6166528050075  C 1.1962616822429961 84.96441878834663  2.270178419711142 83.2726868076325  3.1605777400170076 81.85271900052707  C 5.831775700934587 77.57922737053033  7.578589634664414 75.05182055596947  9.087510620220911 73.2581770101521  C 9.624468988954975 72.61953120217166  15.510620220900595 65.98848536611949  18.344944774851328 62.82922684791842  C 25.841971112999154 54.47927261379126  33.64485981308412 45.891524727756504  46.9124893797791 31.399700170072837  C 50.501274426508076 27.479501965767408  50.562446898895494 27.404766818025024  50.664401019541216 27.01750287063263  C 50.71877655055225 26.793297427405463  50.80033984706881 26.378857062652198  50.84791843670349 26.086710576022853  L 50.92948173322006 25.5567704374859  L 51.81308411214953 24.979271568567423  C 52.78504672897196 24.340625760586985  53.49192863211555 23.817479726390253  54.3891248937978 23.063334144626115  C 54.93288020390825 22.608129153831555  54.97366185216652 22.553776319109815  54.91928632115549 22.404306023625033  C 54.88530161427357 22.30918856286199  54.71537807986407 21.745277902623947  54.54545454545455 21.147396720684817  C 54.198810535259135 19.910869730765256  54.05607476635515 19.577958618094602  53.72302463891249 19.19069467070222  C 53.59388275276126 19.041224375217435  53.49192863211555 18.884959975392434  53.49192863211555 18.850989453691344  C 53.49192863211555 18.76266609726853  52.465590484282075 17.852256115679396  51.84027187765507 17.383462916204394  C 51.41206457094307 17.064140012214175  50.548853016142736 16.527405769337008  50.45369583687341 16.527405769337008  C 50.44010195412065 16.527405769337008  50.44010195412065 16.58855270839896  50.467289719626166 16.656493751801136  C 50.53525913338998 16.873905090688094  50.23619371282923 17.458198063946778  49.91673746813934 17.74355044623591  C 49.638062871707746 17.988138202483736  49.24384027187766 18.157990810989173  48.95836873406967 18.157990810989173  C 48.38742565845371 18.157990810989173  47.63976210705182 17.566903733390266  47.25913338997451 16.799169942945696  C 46.53865760407817 15.365613927159835  46.93967714528462 13.891293285332663  48.22429906542057 13.259441581692444  C 48.781648258283774 12.987677408083757  49.16227697536109 12.940118677702236  49.72642310960069 13.096383077527229  C 50.61682242990655 13.33417672943484  51.561597281223456 14.15626335460114  53.42395921835174 16.316788534790263  C 54.0016992353441 16.98940486447179  54.50467289719626 17.53972731602939  54.53865760407817 17.53972731602939  C 54.57264231096006 17.54652142036961  54.88530161427357 17.811491489638087  55.23874256584538 18.137608497968518  C 56.795242141036525 19.591546826775037  57.352591333899746 20.026369504548953  57.570093457943926 19.958428461146777  C 57.64485981308411 19.93125204378591  57.76720475785897 19.795369956981563  57.84197111299916 19.652693765837004  C 57.91673746813934 19.51001757469243  58.03908241291418 19.37413548788809  58.113848768054375 19.346959070527213  C 58.188615123194566 19.326576757506558  58.40611724723875 19.183900566362  58.603228547153776 19.034430270877216  C 58.90909090909091 18.810224827650046  58.96346644010195 18.73548967990765  58.97026338147833 18.531666549701125  C 58.97706032285471 18.225931854391348  59.2965165675446 17.879432533040266  59.745114698385734 17.68919761151417  C 60.105352591333904 17.53293321168918  60.47918436703483 17.14566926429678  62.67459643160578 14.652232971437009  C 63.79609175870858 13.381735459816362  66.43330501274427 10.256447463316368  66.82752761257434 9.733301429119624  C 66.92268479184366 9.604213446655496  67.05862361937129 9.312066960026153  67.11979609175872 9.087861516798972  C 67.35768903993203 8.265774891632674  67.6839422259983 7.858128631219635  68.05777400169924 7.919275570281589  C 68.22769753610875 7.939657883302243  68.29566694987255 7.892099152920723  68.55395072217503 7.572776248930503  C 68.74426508071367 7.334982597022891  68.85301614273577 7.137953571156587  68.85301614273577 7.015659693032681  C 68.85301614273577 6.805042458485935  68.94137638062871 6.7099249977228945  69.19966015293119 6.641983954320718  C 69.6142735768904 6.540072389217456  70.06966864910791 5.819897329154419  70.51826677994902 4.556193921873983  C 71.08241291418862 2.959579401922905  71.5446049277825 2.164669194117472  72.50977060322855 1.1591417517653024  Z " fill-rule="nonzero" fill="#ffffff" stroke="none" fill-opacity="0" transform="matrix(1 0 0 1 610 11766 )" />
    <path d="M 72.50977060322855 1.1591417517653024  C 73.37977909940527 0.25552587451638414  74.44010195412065 -0.12494396853578896  75.5819881053526 0.06529095299030338  C 77.49872557349192 0.3846138569805236  79.50382327952421 2.300551280921822  79.89804587935429 4.1961063918424655  C 80.17672047578588 5.54813315554572  79.85046728971963 6.560454702238112  78.77655055225149 7.627129083652245  C 78.04927782497876 8.347304143715283  77.25403568394222 8.897626595272891  76.00339847068818 9.52947829891311  C 75.20815632965166 9.930330454985938  74.94307561597282 10.106977167831586  74.55564995751912 10.473858802203328  C 74.1750212404418 10.840740436575055  74.08666100254885 10.963034314698973  74.08666100254885 11.13288692320441  C 74.08666100254885 11.309533636050059  74.04587935429058 11.363886470771801  73.8623619371283 11.431827514173975  C 73.74681393372983 11.479386244555496  73.46813933729821 11.69000347910223  73.25743415463042 11.893826609308757  C 72.93118096856415 12.213149513298966  72.8768054375531 12.294678765381585  72.910790144435 12.450943165206578  C 72.9855564995752 12.845001216939183  72.57774001699235 13.259441581692444  71.86406117247239 13.51082344228049  C 71.55140186915888 13.619529111723962  71.3338997451147 13.802969928909834  70.05607476635515 15.093849753551135  C 68.49277824978759 16.670081960481568  67.81308411214953 17.383462916204394  66.27017841971113 19.081989001258737  C 64.61852166525064 20.88242665141634  64.29906542056075 21.2561023901283  64.29906542056075 21.358013955231563  C 64.29906542056075 21.52107245939678  63.98640611724724 22.12574774567612  63.83687340696687 22.26162983248047  C 63.7553101104503 22.32957087588265  63.59218351741716 22.404306023625033  63.46983857264231 22.431482440985906  C 63.2999150382328 22.465452962686992  63.184367034834324 22.567364527790247  62.98045879354291 22.859511014419603  C 62.83772302463891 23.070128248966338  62.71537807986406 23.32151010955438  62.71537807986406 23.41662757031742  C 62.722175021240446 23.55250965712177  62.65420560747664 23.627244804864155  62.46389124893798 23.735950474307643  C 62.32115548003399 23.817479726390253  62.17162276975362 23.960155917534813  62.13084112149532 24.04847927395764  C 62.05607476635514 24.204743673782637  62.09005947323704 24.252302404164165  62.54545454545455 24.727889707979376  C 62.817332200509775 25.00644798592829  63.42905692438403 25.577152750506556  63.90484282073068 25.984799010919595  C 64.38742565845371 26.39244527133263  64.77485131690739 26.75253280136415  64.77485131690739 26.779709218725028  C 64.77485131690739 26.806885636085894  65.36618521665251 27.24850241820002  66.07986406117247 27.751266139376106  C 68.29566694987255 29.307116033285887  69.05692438402718 30.020496989008713  69.45794392523365 30.86296592719567  C 70.08326253186067 32.187816273538054  69.0501274426508 33.87275414991197  67.50722175021241 34.02901854973697  C 66.68479184367035 34.117341906159794  65.66525063721326 33.770842584808705  65.08071367884453 33.20013782023045  C 64.71367884451996 32.84684439453914  64.57094307561597 32.547903803569575  64.57094307561597 32.11987523013588  C 64.57094307561597 31.72581717840328  64.7000849617672 31.42687658743371  65.01274426508073 31.08037726608263  C 65.25743415463042 30.801818988133718  65.7875955819881 30.536848918865235  65.92353440951572 30.625172275288058  C 66.0730671197961 30.713495631710884  65.99150382327952 30.536848918865235  65.68564146134239 30.115614449771755  C 65.35938827527613 29.660409458977195  63.73491928632116 28.009442104304362  63.619371282922685 28.009442104304362  C 63.578589634664404 28.009442104304362  63.42905692438403 27.921118747881547  63.27272727272728 27.81241307843806  C 63.123194562446905 27.69691330465437  62.858113848768056 27.561031217850026  62.68139337298216 27.50667838312829  C 62.423109600679695 27.418355026705456  60.778249787595584 27.105826227055456  59.77909940526763 26.949561827230465  C 59.58198810535259 26.915591305529375  59.55480033984707 26.949561827230465  59.0518266779949 27.71729561767502  C 58.44689889549703 28.654882016625013  57.977909940526764 29.470174537451104  57.48173322005098 30.441731458102186  C 57.14868309260833 31.10755368344349  57.11469838572643 31.14152420514458  56.85641461342396 31.209465248546756  C 56.70688190314358 31.25022987458806  56.23789294817332 31.392906065732625  55.8232795242141 31.528788152536976  L 55.05522514868309 31.78017001312501  L 50.35174171622771 36.97765983339131  C 34.30416312659304 54.71706626569888  25.31860662701785 64.56851755901407  15.986406117247247 74.65096839989666  C 11.989804587935433 78.9720187602749  10.83432455395073 79.91639926356513  4.723874256584546 83.91812671995316  C 3.452846219201371 84.75380155379989  1.9303313508921072 85.7661231004923  1.3457943925233717 86.17376936090533  C 0.7544604927782572 86.58141562131836  0.22429906542056344 86.93470904700968  0.1699235344095218 86.95509136003032  C -0.10875106202208329 87.0637970294738  0.04757858963467143 86.7105036037825  0.7680543755310154 85.6166528050075  C 1.1962616822429961 84.96441878834663  2.270178419711142 83.2726868076325  3.1605777400170076 81.85271900052707  C 5.831775700934587 77.57922737053033  7.578589634664414 75.05182055596947  9.087510620220911 73.2581770101521  C 9.624468988954975 72.61953120217166  15.510620220900595 65.98848536611949  18.344944774851328 62.82922684791842  C 25.841971112999154 54.47927261379126  33.64485981308412 45.891524727756504  46.9124893797791 31.399700170072837  C 50.501274426508076 27.479501965767408  50.562446898895494 27.404766818025024  50.664401019541216 27.01750287063263  C 50.71877655055225 26.793297427405463  50.80033984706881 26.378857062652198  50.84791843670349 26.086710576022853  L 50.92948173322006 25.5567704374859  L 51.81308411214953 24.979271568567423  C 52.78504672897196 24.340625760586985  53.49192863211555 23.817479726390253  54.3891248937978 23.063334144626115  C 54.93288020390825 22.608129153831555  54.97366185216652 22.553776319109815  54.91928632115549 22.404306023625033  C 54.88530161427357 22.30918856286199  54.71537807986407 21.745277902623947  54.54545454545455 21.147396720684817  C 54.198810535259135 19.910869730765256  54.05607476635515 19.577958618094602  53.72302463891249 19.19069467070222  C 53.59388275276126 19.041224375217435  53.49192863211555 18.884959975392434  53.49192863211555 18.850989453691344  C 53.49192863211555 18.76266609726853  52.465590484282075 17.852256115679396  51.84027187765507 17.383462916204394  C 51.41206457094307 17.064140012214175  50.548853016142736 16.527405769337008  50.45369583687341 16.527405769337008  C 50.44010195412065 16.527405769337008  50.44010195412065 16.58855270839896  50.467289719626166 16.656493751801136  C 50.53525913338998 16.873905090688094  50.23619371282923 17.458198063946778  49.91673746813934 17.74355044623591  C 49.638062871707746 17.988138202483736  49.24384027187766 18.157990810989173  48.95836873406967 18.157990810989173  C 48.38742565845371 18.157990810989173  47.63976210705182 17.566903733390266  47.25913338997451 16.799169942945696  C 46.53865760407817 15.365613927159835  46.93967714528462 13.891293285332663  48.22429906542057 13.259441581692444  C 48.781648258283774 12.987677408083757  49.16227697536109 12.940118677702236  49.72642310960069 13.096383077527229  C 50.61682242990655 13.33417672943484  51.561597281223456 14.15626335460114  53.42395921835174 16.316788534790263  C 54.0016992353441 16.98940486447179  54.50467289719626 17.53972731602939  54.53865760407817 17.53972731602939  C 54.57264231096006 17.54652142036961  54.88530161427357 17.811491489638087  55.23874256584538 18.137608497968518  C 56.795242141036525 19.591546826775037  57.352591333899746 20.026369504548953  57.570093457943926 19.958428461146777  C 57.64485981308411 19.93125204378591  57.76720475785897 19.795369956981563  57.84197111299916 19.652693765837004  C 57.91673746813934 19.51001757469243  58.03908241291418 19.37413548788809  58.113848768054375 19.346959070527213  C 58.188615123194566 19.326576757506558  58.40611724723875 19.183900566362  58.603228547153776 19.034430270877216  C 58.90909090909091 18.810224827650046  58.96346644010195 18.73548967990765  58.97026338147833 18.531666549701125  C 58.97706032285471 18.225931854391348  59.2965165675446 17.879432533040266  59.745114698385734 17.68919761151417  C 60.105352591333904 17.53293321168918  60.47918436703483 17.14566926429678  62.67459643160578 14.652232971437009  C 63.79609175870858 13.381735459816362  66.43330501274427 10.256447463316368  66.82752761257434 9.733301429119624  C 66.92268479184366 9.604213446655496  67.05862361937129 9.312066960026153  67.11979609175872 9.087861516798972  C 67.35768903993203 8.265774891632674  67.6839422259983 7.858128631219635  68.05777400169924 7.919275570281589  C 68.22769753610875 7.939657883302243  68.29566694987255 7.892099152920723  68.55395072217503 7.572776248930503  C 68.74426508071367 7.334982597022891  68.85301614273577 7.137953571156587  68.85301614273577 7.015659693032681  C 68.85301614273577 6.805042458485935  68.94137638062871 6.7099249977228945  69.19966015293119 6.641983954320718  C 69.6142735768904 6.540072389217456  70.06966864910791 5.819897329154419  70.51826677994902 4.556193921873983  C 71.08241291418862 2.959579401922905  71.5446049277825 2.164669194117472  72.50977060322855 1.1591417517653024  Z " stroke-width="2" stroke="#ffffff" fill="none" transform="matrix(1 0 0 1 610 11766 )" mask="url(#clip349)" />
  </g>
</svg>