<?xml version="1.0" encoding="utf-8"?>
<svg version="1.1" xmlns:xlink="http://www.w3.org/1999/xlink" width="45px" height="53px" xmlns="http://www.w3.org/2000/svg">
  <g transform="matrix(1 0 0 1 -475 -18112 )">
    <path d="M 43.452244897959176 10.417034482758645  C 40.898448979591834 14.317931034482783  38.268326530612235 18.15965517241379  35.37061224489795 21.815793103448353  C 32.54204081632651 25.385862068965565  29.520408163265305 28.80889655172417  26.402693877551012 32.12972413793113  C 23.1269387755102 35.619103448276  19.756000000000004 39.02958620689667  16.231510204081626 42.26882758620696  C 13.040163265306113 45.20144827586209  9.726693877551014 48.3626896551725  5.906775510204084 50.47227586206901  C 4.20514285714285 51.41186206896556  2.368816326530617 51.82158620689659  0.92669387755103 50.215862068965606  C -0.0709387755101855 49.10503448275869  0.46514285714285775 47.938620689655295  1.3137142857143056 46.90041379310356  C 2.6902857142857224 45.21579310344837  4.444897959183689 43.81268965517256  6.029795918367375 42.33606896551734  C 7.584163265306147 40.88724137931047  9.069387755102062 39.36400000000006  10.507918367346964 37.8013103448277  C 13.671428571428592 34.36572413793115  16.64816326530614 30.757103448276002  19.53240816326534 27.086620689655266  C 22.397795918367382 23.44034482758629  25.210204081632693 19.745655172413894  27.941795918367387 15.998068965517287  C 31.069387755102085 11.707172413793199  34.179918367346986 7.408206896551755  37.25183673469392 3.077862068965613  C 37.82293877551024 2.2727586206897286  38.39493877551024 1.4667586206897276  38.96604081632656 0.6607586206897269  " stroke-width="1" stroke="#ffffff" fill="none" transform="matrix(1 0 0 1 475 18112 )" />
  </g>
</svg>