<?xml version="1.0" encoding="utf-8"?>
<svg version="1.1" xmlns:xlink="http://www.w3.org/1999/xlink" width="390px" height="5px" xmlns="http://www.w3.org/2000/svg">
  <g transform="matrix(1 0 0 1 -481 -18161 )">
    <path d="M 0.23965977011494313 0.8940000000000055  C 0.8835218390804593 1.865000000000009  1.9968666666666703 2.157000000000039  3.004689655172426 2.366999999999962  C 6.065717241379324 3.0049999999999955  9.270719540229901 2.9470000000000027  12.372882758620701 2.9829999999999472  C 13.569393103448283 2.9969999999999573  14.76679770114943 2.988999999999919  15.96330804597701 2.9899999999998954  C 19.183512643678156 2.992999999999938  22.40282298850574 2.995999999999867  25.62302758620689 2.99899999999991  C 30.655882758620695 3.0039999999999054  35.68784367816091 3.0079999999999245  40.72069885057471 3.01299999999992  C 47.27646666666666 3.0189999999998918  53.831340229885065 3.0249999999998636  60.387108045977 3.030999999999949  C 68.16889655172413 3.0379999999998972  75.95068505747126 3.044999999999959  83.73336781609194 3.0519999999999072  C 92.44607356321838 3.0599999999999454  101.15788505747128 3.06799999999987  109.8705908045977 3.074999999999932  C 119.21732183908045 3.08299999999997  128.56315862068968 3.0919999999999845  137.90988965517244 3.099999999999909  C 147.59375402298852 3.1089999999999236  157.27851264367817 3.116999999999962  166.96237701149428 3.1259999999998627  C 176.7177816091954 3.134999999999877  186.47318620689657 3.1439999999998918  196.22769655172414 3.1519999999998163  C 205.72555632183906 3.160999999999831  215.22341609195408 3.168999999999869  224.72217011494251 3.17799999999977  C 233.63787126436785 3.185999999999808  242.5535724137931 3.1939999999997326  251.4692735632184 3.201999999999771  C 259.5363287356322 3.208999999999719  267.6024896551724 3.215999999999781  275.6695448275862 3.223999999999819  C 282.5910620689656 3.229999999999791  289.5125793103449 3.2359999999997626  296.4340965517242 3.2429999999998245  C 301.9140781609196 3.24799999999982  307.394059770115 3.2529999999998154  312.8731471264368 3.257999999999811  C 316.61470114942534 3.2609999999998536  320.3571494252874 3.264999999999759  324.09870344827596 3.2679999999998017  C 325.8067264367817 3.2699999999997544  327.51385517241386 3.27499999999975  329.2218781609197 3.272999999999797  C 334.7268988505748 3.265999999999849  340.2337080459771 3.1909999999998035  345.7387287356323 3.147999999999797  C 351.57909425287363 3.102999999999838  357.4176712643679 3.0039999999997917  363.2553540229886 2.8339999999998327  C 369.79144827586214 2.643999999999778  376.3472160919541 2.4849999999997863  382.874367816092 2.046999999999798  C 384.3221632183909 1.949999999999818  385.7771126436782 1.8639999999998054  387.21507126436796 1.639999999999759  C 387.68365977011507 1.56699999999978  388.24256781609205 1.5259999999997262  388.658395402299 1.2449999999997772  " stroke-width="1" stroke="#ffffff" fill="none" transform="matrix(1 0 0 1 481 18161 )" />
  </g>
</svg>