<?xml version="1.0" encoding="utf-8"?>
<svg version="1.1" xmlns:xlink="http://www.w3.org/1999/xlink" width="6px" height="6px" xmlns="http://www.w3.org/2000/svg">
  <defs>
    <mask fill="white" id="clip254">
      <path d="M 5.910999999999973 3.7524999999999693  C 5.925000000000011 3.6670000000000016  5.979500000000002 2.5834999999999866  5.939999999999998 2.5049999999999955  C 5.9395000000000095 1.4780000000000086  5.277500000000003 0.5374999999999943  4.3104999999999905 0.1910000000000025  C 3.343999999999994 -0.15500000000000114  1.3589999999999804 0.15200000000001523  0.7074999999999818 0.9449999999999932  C 0.055999999999983174 1.7384999999999877  -0.029000000000024784 3.761499999999984  0.4984999999999786 4.642499999999984  C 1.025999999999982 5.523499999999984  2.9529999999999745 5.990499999999997  3.9599999999999795 5.79049999999998  C 4.963499999999982 5.591499999999968  5.755999999999972 4.763499999999993  5.910999999999973 3.7524999999999693  Z " fill-rule="evenodd" />
    </mask>
  </defs>
  <g transform="matrix(1 0 0 1 -365 -11185 )">
    <path d="M 5.910999999999973 3.7524999999999693  C 5.925000000000011 3.6670000000000016  5.979500000000002 2.5834999999999866  5.939999999999998 2.5049999999999955  C 5.9395000000000095 1.4780000000000086  5.277500000000003 0.5374999999999943  4.3104999999999905 0.1910000000000025  C 3.343999999999994 -0.15500000000000114  1.3589999999999804 0.15200000000001523  0.7074999999999818 0.9449999999999932  C 0.055999999999983174 1.7384999999999877  -0.029000000000024784 3.761499999999984  0.4984999999999786 4.642499999999984  C 1.025999999999982 5.523499999999984  2.9529999999999745 5.990499999999997  3.9599999999999795 5.79049999999998  C 4.963499999999982 5.591499999999968  5.755999999999972 4.763499999999993  5.910999999999973 3.7524999999999693  Z " fill-rule="nonzero" fill="#ffffff" stroke="none" fill-opacity="0" transform="matrix(1 0 0 1 365 11185 )" />
    <path d="M 5.910999999999973 3.7524999999999693  C 5.925000000000011 3.6670000000000016  5.979500000000002 2.5834999999999866  5.939999999999998 2.5049999999999955  C 5.9395000000000095 1.4780000000000086  5.277500000000003 0.5374999999999943  4.3104999999999905 0.1910000000000025  C 3.343999999999994 -0.15500000000000114  1.3589999999999804 0.15200000000001523  0.7074999999999818 0.9449999999999932  C 0.055999999999983174 1.7384999999999877  -0.029000000000024784 3.761499999999984  0.4984999999999786 4.642499999999984  C 1.025999999999982 5.523499999999984  2.9529999999999745 5.990499999999997  3.9599999999999795 5.79049999999998  C 4.963499999999982 5.591499999999968  5.755999999999972 4.763499999999993  5.910999999999973 3.7524999999999693  Z " stroke-width="4" stroke="#ffffff" fill="none" transform="matrix(1 0 0 1 365 11185 )" mask="url(#clip254)" />
  </g>
</svg>