<?xml version="1.0" encoding="utf-8"?>
<svg version="1.1" xmlns:xlink="http://www.w3.org/1999/xlink" width="224px" height="5px" xmlns="http://www.w3.org/2000/svg">
  <g transform="matrix(1 0 0 1 -274 -11289 )">
    <path d="M 0.1361563218390808 0.44700000000000273  C 0.5019494252873561 0.9325000000000045  1.1344666666666687 1.0785000000000196  1.7070344827586277 1.183499999999981  C 3.4460758620689735 1.5024999999999977  5.266912643678171 1.4735000000000014  7.029324137931041 1.4914999999999736  C 7.709089655172418 1.4984999999999786  8.389363218390807 1.4944999999999595  9.069128735632182 1.4949999999999477  C 10.898602298850573 1.496499999999969  12.72756781609195 1.4979999999999336  14.557041379310341 1.499499999999955  C 17.41632413793104 1.5019999999999527  20.275098850574707 1.5039999999999623  23.134381609195405 1.50649999999996  C 26.85886666666666 1.5094999999999459  30.582843678160923 1.5124999999999318  34.307328735632176 1.5154999999999745  C 38.728344827586206 1.5189999999999486  43.14936091954023 1.5224999999999795  47.57088505747126 1.5259999999999536  C 52.520777011494246 1.5299999999999727  57.47016091954024 1.533999999999935  62.420052873563215 1.537499999999966  C 67.73014942528735 1.541499999999985  73.0397379310345 1.5459999999999923  78.34983448275864 1.5499999999999545  C 83.8514643678161 1.5544999999999618  89.35360229885059 1.558499999999981  94.85523218390806 1.5629999999999313  C 100.39750574712644 1.5674999999999386  105.93977931034483 1.5719999999999459  111.4815448275862 1.5759999999999081  C 116.87750114942527 1.5804999999999154  122.2734574712644 1.5844999999999345  127.66992183908044 1.588999999999885  C 132.73514022988508 1.592999999999904  137.80035862068965 1.5969999999998663  142.86557701149425 1.6009999999998854  C 147.44865977011497 1.6044999999998595  152.0312344827586 1.6079999999998904  156.61431724137933 1.6119999999999095  C 160.5465931034483 1.6149999999998954  164.47886896551728 1.6179999999998813  168.41114482758624 1.6214999999999122  C 171.52445057471266 1.62399999999991  174.6377563218391 1.6264999999999077  177.75055402298852 1.6289999999999054  C 179.87621839080464 1.6304999999999268  182.0023908045977 1.6324999999998795  184.12805517241384 1.6339999999999009  C 185.09842298850577 1.6349999999998772  186.0682827586207 1.637499999999875  187.03865057471273 1.6364999999998986  C 190.16618160919543 1.6329999999999245  193.29472873563225 1.5954999999999018  196.422259770115 1.5739999999998986  C 199.74030804597706 1.551499999999919  203.0573402298851 1.5019999999998959  206.37386436781614 1.4169999999999163  C 210.08717241379316 1.321999999999889  213.81165747126443 1.2424999999998931  217.5198850574713 1.023499999999899  C 218.34241149425293 0.974999999999909  219.16900229885061 0.9319999999999027  219.98594022988513 0.8199999999998795  C 220.25215632183915 0.78349999999989  220.56968505747133 0.7629999999998631  220.8059264367817 0.6224999999998886  " stroke-width="2" stroke="#ffffff" fill="none" transform="matrix(1 0 0 1 275 11290 )" />
  </g>
</svg>