<?xml version="1.0" encoding="utf-8"?>
<svg version="1.1" xmlns:xlink="http://www.w3.org/1999/xlink" width="57px" height="106px" xmlns="http://www.w3.org/2000/svg">
  <g transform="matrix(1 0 0 1 -558 -17997 )">
    <path d="M 0.5884444444444499 104.14743589743586  C 1.8488888888889 101.87782051282048  3.10933333333335 99.60820512820509  4.369777777777775 97.33858974358971  C 7.392888888888896 91.89384615384611  10.416888888888883 86.44999999999993  13.440000000000005 81.00525641025634  C 17.089777777777776 74.43333333333328  20.73955555555555 67.86141025641022  24.389333333333322 61.28948717948706  C 27.527999999999995 55.63743589743578  30.667555555555534 49.98448717948708  33.8062222222222 44.33243589743579  C 35.29777777777775 41.64730769230762  36.80888888888886 38.97205128205122  38.28088888888887 36.275256410256354  C 40.40799999999995 32.377692307692286  42.426666666666634 28.402948717948615  44.231111111111105 24.3420512820512  C 46.20533333333333 19.89794871794864  47.58311111111112 15.309358974358846  49.01955555555555 10.669615384615293  C 49.737777777777765 8.35064102564093  50.47377777777779 5.997564102563994  51.58133333333333 3.8320512820511636  C 52.107555555555535 2.8035897435896118  52.78311111111109 1.5723076923075987  53.792000000000016 0.9432051282050151  C 54.25866666666666 0.6524358974357733  54.70844444444447 0.5824358974357963  55.06933333333336 1.0410256410255105  C 55.59911111111114 1.713205128205019  55.64266666666668 2.905897435897282  55.704888888888895 3.6974358974357484  C 55.88977777777781 6.018205128204991  55.752 8.367692307692165  55.53955555555558 10.68217948717935  C 55.43200000000004 11.858717948717794  55.29155555555558 13.032564102563992  55.14933333333334 14.205512820512673  " stroke-width="1" stroke="#ffffff" fill="none" transform="matrix(1 0 0 1 558 17997 )" />
  </g>
</svg>