<?xml version="1.0" encoding="utf-8"?>
<svg version="1.1" xmlns:xlink="http://www.w3.org/1999/xlink" width="28px" height="32px" xmlns="http://www.w3.org/2000/svg">
  <g transform="matrix(1 0 0 1 -270 -11261 )">
    <path d="M 24.688775510204074 5.809500000000014  C 23.237755102040815 7.985000000000014  21.743367346938772 10.127499999999998  20.096938775510196 12.166500000000042  C 18.48979591836734 14.157500000000027  16.772959183673468 16.06650000000002  15.001530612244892 17.91850000000005  C 13.140306122448978 19.864500000000078  11.225000000000003 21.766500000000065  9.222448979591833 23.573000000000036  C 7.409183673469383 25.208500000000015  5.526530612244895 26.97150000000005  3.3561224489795936 28.148000000000025  C 2.3892857142857107 28.672000000000025  1.3459183673469415 28.900500000000022  0.5265306122449034 28.005000000000052  C -0.040306122448969035 27.385500000000036  0.2642857142857146 26.73500000000007  0.7464285714285828 26.156000000000063  C 1.5285714285714334 25.216500000000053  2.5255102040816415 24.434000000000083  3.4260204081632812 23.61050000000006  C 4.309183673469401 22.802500000000066  5.153061224489807 21.95300000000003  5.97040816326532 21.081500000000062  C 7.767857142857154 19.165500000000065  9.459183673469399 17.153000000000077  11.097959183673488 15.106000000000051  C 12.726020408163286 13.072500000000048  14.323979591836759 11.012000000000057  15.876020408163289 8.922000000000025  C 17.65306122448982 6.529000000000053  19.420408163265332 4.131500000000017  21.165816326530635 1.7165000000000532  C 21.490306122449 1.267500000000041  21.815306122448998 0.8180000000000405  22.139795918367362 0.36850000000004  " stroke-width="2" stroke="#ffffff" fill="none" transform="matrix(1 0 0 1 271 11262 )" />
  </g>
</svg>