<?xml version="1.0" encoding="utf-8"?>
<svg version="1.1" xmlns:xlink="http://www.w3.org/1999/xlink" width="35px" height="62px" xmlns="http://www.w3.org/2000/svg">
  <g transform="matrix(1 0 0 1 -317 -11196 )">
    <path d="M 0.33625396825397136 58.52094017094014  C 1.0565079365079428 57.24563247863246  1.7767619047619143 55.97032478632477  2.4970158730158714 54.695017094017075  C 4.2245079365079405 51.63558974358972  5.952507936507933 48.57666666666663  7.680000000000002 45.51723931623928  C 9.765587301587301 41.82444444444441  11.8511746031746 38.13164957264956  13.936761904761898 34.438854700854634  C 15.730285714285712 31.2629401709401  17.524317460317448 28.08652136752131  19.31784126984126 24.91060683760678  C 20.170158730158718 23.401820512820475  21.03365079365078 21.898581196581162  21.874793650793638 20.383239316239283  C 23.090285714285688 18.193179487179474  24.243809523809503 15.95975213675208  25.27492063492063 13.677914529914483  C 26.403047619047616 11.180752136752092  27.19034920634921 8.602401709401637  28.0111746031746 5.99530769230764  C 28.421587301587294 4.692264957264904  28.842158730158737 3.3700598290597683  29.47504761904762 2.1532478632477967  C 29.77574603174602 1.5753504273503531  30.161777777777765 0.883487179487127  30.738285714285723 0.5299914529913895  C 31.00495238095238 0.3666068376067679  31.261968253968266 0.3272735042734474  31.468190476190493 0.5849572649571916  C 31.770920634920653 0.9626581196580583  31.79580952380953 1.6328376068375205  31.83136507936508 2.077606837606754  C 31.93701587301589 3.3816581196580424  31.858285714285717 4.701846153846074  31.736888888888902 6.002367521367445  C 31.675428571428593 6.663470085469999  31.59517460317462 7.323059829059767  31.513904761904765 7.982145299145216  " stroke-width="2" stroke="#ffffff" fill="none" transform="matrix(1 0 0 1 318 11197 )" />
  </g>
</svg>