<?xml version="1.0" encoding="utf-8"?>
<svg version="1.1" xmlns:xlink="http://www.w3.org/1999/xlink" width="11px" height="11px" xmlns="http://www.w3.org/2000/svg">
  <defs>
    <mask fill="white" id="clip366">
      <path d="M 10.836833333333285 6.879583333333277  C 10.862500000000022 6.7228333333333365  10.96241666666667 4.736416666666642  10.889999999999997 4.592499999999992  C 10.88908333333335 2.709666666666682  9.675416666666674 0.9854166666666563  7.9025833333333155 0.35016666666667123  C 6.130666666666656 -0.2841666666666688  2.491499999999964 0.2786666666666946  1.2970833333332998 1.7324999999999875  C 0.10266666666663582 3.1872499999999775  -0.053166666666712104 6.896083333333304  0.9139166666666275 8.511249999999972  C 1.8809999999999671 10.126416666666639  5.413833333333287 10.982583333333327  7.2599999999999625 10.615916666666632  C 9.099749999999968 10.251083333333273  10.552666666666614 8.733083333333322  10.836833333333285 6.879583333333277  Z " fill-rule="evenodd" />
    </mask>
  </defs>
  <g transform="matrix(1 0 0 1 -641 -17976 )">
    <path d="M 10.836833333333285 6.879583333333277  C 10.862500000000022 6.7228333333333365  10.96241666666667 4.736416666666642  10.889999999999997 4.592499999999992  C 10.88908333333335 2.709666666666682  9.675416666666674 0.9854166666666563  7.9025833333333155 0.35016666666667123  C 6.130666666666656 -0.2841666666666688  2.491499999999964 0.2786666666666946  1.2970833333332998 1.7324999999999875  C 0.10266666666663582 3.1872499999999775  -0.053166666666712104 6.896083333333304  0.9139166666666275 8.511249999999972  C 1.8809999999999671 10.126416666666639  5.413833333333287 10.982583333333327  7.2599999999999625 10.615916666666632  C 9.099749999999968 10.251083333333273  10.552666666666614 8.733083333333322  10.836833333333285 6.879583333333277  Z " fill-rule="nonzero" fill="#ffffff" stroke="none" fill-opacity="0" transform="matrix(1 0 0 1 641 17976 )" />
    <path d="M 10.836833333333285 6.879583333333277  C 10.862500000000022 6.7228333333333365  10.96241666666667 4.736416666666642  10.889999999999997 4.592499999999992  C 10.88908333333335 2.709666666666682  9.675416666666674 0.9854166666666563  7.9025833333333155 0.35016666666667123  C 6.130666666666656 -0.2841666666666688  2.491499999999964 0.2786666666666946  1.2970833333332998 1.7324999999999875  C 0.10266666666663582 3.1872499999999775  -0.053166666666712104 6.896083333333304  0.9139166666666275 8.511249999999972  C 1.8809999999999671 10.126416666666639  5.413833333333287 10.982583333333327  7.2599999999999625 10.615916666666632  C 9.099749999999968 10.251083333333273  10.552666666666614 8.733083333333322  10.836833333333285 6.879583333333277  Z " stroke-width="2" stroke="#ffffff" fill="none" transform="matrix(1 0 0 1 641 17976 )" mask="url(#clip366)" />
  </g>
</svg>