<?xml version="1.0" encoding="utf-8"?>
<svg version="1.1" xmlns:xlink="http://www.w3.org/1999/xlink" width="26px" height="47px" xmlns="http://www.w3.org/2000/svg">
  <g transform="matrix(1 0 0 1 -691 -17912 )">
    <path d="M 24.485714285714266 2.9142352941176424  C 23.25892857142853 6.818823529411767  21.978571428571417 10.698156862745089  20.591964285714276 14.548627450980387  C 19.286607142857143 18.17450980392155  17.83392857142856 21.756196078431355  16.22589285714286 25.25670588235295  C 14.581250000000015 28.837490196078466  12.769642857142877 32.34431372549021  10.803571428571448 35.7555294117647  C 9.80446428571428 37.489098039215705  8.784821428571428 39.21003921568626  7.716071428571425 40.9003137254902  C 6.953571428571438 42.10623529411764  6.1928571428571235 43.400549019607844  5.151785714285698 44.38819607843139  C 4.312499999999986 45.1837254901961  3.469642857142828 45.33164705882354  2.3874999999999806 44.939294117647066  C 1.4499999999999704 44.60015686274513  0.3616071428571185 44.03192156862749  0.1053571428571384 42.97301960784314  C -0.08482142857145293 42.18470588235292  0.08839285714284781 41.27913725490198  0.2482142857143036 40.50345098039216  C 0.6267857142857126 38.66435294117649  1.2089285714286089 36.85772549019611  1.7660714285714363 35.06823529411764  C 2.9580357142857037 31.23850980392158  4.304464285714309 27.45839215686273  5.81785714285716 23.74592156862745  C 7.272321428571463 20.179568627450973  8.89910714285718 16.675450980392156  10.679464285714298 13.263333333333318  C 12.529464285714301 9.716823529411736  14.457142857142863 6.215411764705848  16.492857142857176 2.7735294117646956  C 17.03839285714288 1.8508235294117323  17.592857142857202 0.9326274509803848  18.14285714285719 0.01262745098040118  " stroke-width="1" stroke="#ffffff" fill="none" transform="matrix(1 0 0 1 691 17912 )" />
  </g>
</svg>