<?xml version="1.0" encoding="utf-8"?>
<svg version="1.1" xmlns:xlink="http://www.w3.org/1999/xlink" width="37px" height="23px" xmlns="http://www.w3.org/2000/svg">
  <g transform="matrix(1 0 0 1 -583 -17854 )">
    <path d="M 0.7100999999999885 21.68319999999999  C 5.235300000000007 18.516959999999976  9.761400000000004 15.349839999999986  14.28659999999997 12.183599999999975  C 15.368399999999967 11.426799999999963  16.523999999999962 10.77911999999997  17.656199999999995 10.09799999999997  C 20.667599999999997 8.286079999999947  23.679000000000002 6.474159999999974  26.690400000000007 4.663119999999981  C 29.054700000000015 3.2401599999999644  31.419900000000002 1.8180799999999773  33.784200000000006 0.3951199999999608  C 33.86430000000001 0.3467199999999548  34.16490000000001 0.09415999999997439  34.26210000000001 0.10735999999996239  C 34.48890000000002 0.13815999999998438  35.1711 1.3939199999999528  35.29350000000003 1.6130399999999736  C 35.51760000000005 2.0116799999999513  35.50770000000003 1.790799999999972  35.328600000000016 2.0486399999999776  C 35.17379999999999 2.2721599999999946  34.72200000000004 2.472800000000002  34.5006 2.6285599999999705  C 29.254499999999997 6.299039999999964  24.00839999999999 9.970399999999987  18.762299999999982 13.640879999999978  C 14.936400000000004 16.317839999999954  10.818899999999962 18.593519999999966  6.813899999999973 21.002959999999966  C 6.596099999999956 21.134079999999965  6.37739999999996 21.265199999999968  6.159599999999995 21.396319999999967  " stroke-width="1" stroke="#ffffff" fill="none" transform="matrix(1 0 0 1 583 17854 )" />
  </g>
</svg>