<?xml version="1.0" encoding="utf-8"?>
<svg version="1.1" xmlns:xlink="http://www.w3.org/1999/xlink" width="17px" height="29px" xmlns="http://www.w3.org/2000/svg">
  <g transform="matrix(1 0 0 1 -392 -11148 )">
    <path d="M 13.711999999999989 1.6471764705882326  C 13.024999999999977 3.8541176470588248  12.307999999999993 6.046784313725485  11.531499999999994 8.223137254901959  C 10.8005 10.272549019607832  9.986999999999995 12.296980392156854  9.086500000000001 14.27552941176471  C 8.165500000000009 16.299450980392177  7.1510000000000105 18.281568627450987  6.050000000000011 20.209647058823528  C 5.490499999999997 21.18949019607844  4.919499999999999 22.162196078431364  4.320999999999998 23.117568627450982  C 3.8940000000000055 23.799176470588232  3.4679999999999893 24.530745098039215  2.884999999999991 25.088980392156873  C 2.414999999999992 25.538627450980403  1.9429999999999836 25.622235294117655  1.336999999999989 25.4004705882353  C 0.8119999999999834 25.208784313725506  0.20249999999998636 24.887607843137275  0.058999999999997506 24.289098039215688  C -0.04750000000001364 23.843529411764695  0.04949999999999477 23.331686274509813  0.13900000000001 22.893254901960788  C 0.3509999999999991 21.853764705882362  0.6770000000000209 20.83262745098041  0.9890000000000043 19.82117647058823  C 1.656499999999994 17.65654901960785  2.410500000000013 15.519960784313716  3.2580000000000098 13.421607843137254  C 4.072500000000019 11.405843137254898  4.983500000000021 9.425254901960784  5.980500000000006 7.496666666666658  C 7.016500000000009 5.492117647058808  8.096000000000004 3.5130588235293922  9.236000000000018 1.5676470588235236  C 9.541500000000013 1.0461176470588052  9.852000000000032 0.5271372549019566  10.160000000000025 0.007137254901965885  " stroke-width="2" stroke="#ffffff" fill="none" transform="matrix(1 0 0 1 393 11149 )" />
  </g>
</svg>