<?xml version="1.0" encoding="utf-8"?>
<svg version="1.1" xmlns:xlink="http://www.w3.org/1999/xlink" width="23px" height="16px" xmlns="http://www.w3.org/2000/svg">
  <g transform="matrix(1 0 0 1 -331 -11115 )">
    <path d="M 0.39449999999999363 12.812799999999994  C 2.9085000000000036 10.941839999999985  5.423000000000002 9.070359999999992  7.936999999999983 7.199399999999985  C 8.537999999999982 6.752199999999978  9.179999999999978 6.3694799999999825  9.808999999999997 5.966999999999982  C 11.482 4.896319999999968  13.155000000000001 3.825639999999985  14.828000000000003 2.7554799999999884  C 16.141500000000008 1.914639999999979  17.4555 1.0743199999999866  18.769000000000005 0.23347999999997682  C 18.813500000000005 0.2048799999999733  18.980500000000006 0.05563999999998487  19.03450000000001 0.06343999999997778  C 19.160500000000013 0.08163999999999078  19.539500000000004 0.823679999999972  19.607500000000016 0.9531599999999845  C 19.732000000000028 1.1887199999999711  19.726500000000016 1.0581999999999834  19.62700000000001 1.2105599999999868  C 19.540999999999997 1.3426399999999967  19.29000000000002 1.4612000000000012  19.167 1.5532399999999826  C 16.252499999999998 3.7221599999999784  13.337999999999994 5.8915999999999915  10.42349999999999 8.060519999999988  C 8.298000000000002 9.642359999999973  6.010499999999979 10.98707999999998  3.7854999999999848 12.410839999999979  C 3.6644999999999754 12.48831999999998  3.542999999999978 12.565799999999982  3.421999999999997 12.643279999999981  " stroke-width="2" stroke="#ffffff" fill="none" transform="matrix(1 0 0 1 332 11116 )" />
  </g>
</svg>