<?xml version="1.0" encoding="utf-8"?>
<svg version="1.1" xmlns:xlink="http://www.w3.org/1999/xlink" width="37px" height="17px" xmlns="http://www.w3.org/2000/svg">
  <defs>
    <mask fill="white" id="clip367">
      <path d="M 16.19697560975608 7.3395263157894  C 16.412658536585376 7.550684210526335  17.49468292682929 9.922631578947346  17.49468292682929 10.194631578947373  C 20.516951219512208 9.939631578947353  24.64921951219514 9.625578947368405  27.257268292682934 11.384631578947358  C 29.545853658536593 12.928052631578959  31.576341463414643 15.68473684210524  34.41902439024389 16.259157894736813  C 35.11751219512194 16.40052631578946  36.50546341463414 16.454210526315777  36.725658536585335 15.53084210526311  C 36.823121951219484 15.121947368421012  36.60021951219508 14.676368421052599  36.40078048780484 14.339052631578905  C 35.640024390243845 13.049736842105245  34.392853658536524 11.999315789473634  33.28736585365851 11.014210526315741  C 30.181170731707283 8.245894736842061  26.55878048780483 4.591789473684164  22.68821951219509 3.056421052631525  C 18.855560975609713 1.536263157894672  13.228853658536579 0.44736842105258073  9.095682926829223 0.19684210526308057  C 7.080536585365805 0.07426315789465913  5.006731707317023 0.10021052631570851  3.0051219512194467 0.3847368421051675  C 2.30212195121945 0.4849473684209778  1.3897560975608916 0.5967894736841356  0.8239268292682512 1.0754736842104229  C 0.24095121951214013 1.5684736842104121  0.4376829268292293 2.2028421052630462  0.8934146341462984 2.7155263157893943  C 2.4898292682926444 4.512157894736746  5.622195121951185 4.187368421052536  7.7411219512194895 4.2016842105262375  C 10.577487804878 4.221368421052546  13.056487804878014 4.436105263157817  15.215121951219473 6.400947368420998  C 15.549926829268237 6.706052631578901  15.874804878048737 7.021894736842066  16.19697560975608 7.3395263157894  Z " fill-rule="evenodd" />
    </mask>
  </defs>
  <g transform="matrix(1 0 0 1 -709 -17799 )">
    <path d="M 16.19697560975608 7.3395263157894  C 16.412658536585376 7.550684210526335  17.49468292682929 9.922631578947346  17.49468292682929 10.194631578947373  C 20.516951219512208 9.939631578947353  24.64921951219514 9.625578947368405  27.257268292682934 11.384631578947358  C 29.545853658536593 12.928052631578959  31.576341463414643 15.68473684210524  34.41902439024389 16.259157894736813  C 35.11751219512194 16.40052631578946  36.50546341463414 16.454210526315777  36.725658536585335 15.53084210526311  C 36.823121951219484 15.121947368421012  36.60021951219508 14.676368421052599  36.40078048780484 14.339052631578905  C 35.640024390243845 13.049736842105245  34.392853658536524 11.999315789473634  33.28736585365851 11.014210526315741  C 30.181170731707283 8.245894736842061  26.55878048780483 4.591789473684164  22.68821951219509 3.056421052631525  C 18.855560975609713 1.536263157894672  13.228853658536579 0.44736842105258073  9.095682926829223 0.19684210526308057  C 7.080536585365805 0.07426315789465913  5.006731707317023 0.10021052631570851  3.0051219512194467 0.3847368421051675  C 2.30212195121945 0.4849473684209778  1.3897560975608916 0.5967894736841356  0.8239268292682512 1.0754736842104229  C 0.24095121951214013 1.5684736842104121  0.4376829268292293 2.2028421052630462  0.8934146341462984 2.7155263157893943  C 2.4898292682926444 4.512157894736746  5.622195121951185 4.187368421052536  7.7411219512194895 4.2016842105262375  C 10.577487804878 4.221368421052546  13.056487804878014 4.436105263157817  15.215121951219473 6.400947368420998  C 15.549926829268237 6.706052631578901  15.874804878048737 7.021894736842066  16.19697560975608 7.3395263157894  Z " fill-rule="nonzero" fill="#ffffff" stroke="none" fill-opacity="0" transform="matrix(1 0 0 1 709 17799 )" />
    <path d="M 16.19697560975608 7.3395263157894  C 16.412658536585376 7.550684210526335  17.49468292682929 9.922631578947346  17.49468292682929 10.194631578947373  C 20.516951219512208 9.939631578947353  24.64921951219514 9.625578947368405  27.257268292682934 11.384631578947358  C 29.545853658536593 12.928052631578959  31.576341463414643 15.68473684210524  34.41902439024389 16.259157894736813  C 35.11751219512194 16.40052631578946  36.50546341463414 16.454210526315777  36.725658536585335 15.53084210526311  C 36.823121951219484 15.121947368421012  36.60021951219508 14.676368421052599  36.40078048780484 14.339052631578905  C 35.640024390243845 13.049736842105245  34.392853658536524 11.999315789473634  33.28736585365851 11.014210526315741  C 30.181170731707283 8.245894736842061  26.55878048780483 4.591789473684164  22.68821951219509 3.056421052631525  C 18.855560975609713 1.536263157894672  13.228853658536579 0.44736842105258073  9.095682926829223 0.19684210526308057  C 7.080536585365805 0.07426315789465913  5.006731707317023 0.10021052631570851  3.0051219512194467 0.3847368421051675  C 2.30212195121945 0.4849473684209778  1.3897560975608916 0.5967894736841356  0.8239268292682512 1.0754736842104229  C 0.24095121951214013 1.5684736842104121  0.4376829268292293 2.2028421052630462  0.8934146341462984 2.7155263157893943  C 2.4898292682926444 4.512157894736746  5.622195121951185 4.187368421052536  7.7411219512194895 4.2016842105262375  C 10.577487804878 4.221368421052546  13.056487804878014 4.436105263157817  15.215121951219473 6.400947368420998  C 15.549926829268237 6.706052631578901  15.874804878048737 7.021894736842066  16.19697560975608 7.3395263157894  Z " stroke-width="2" stroke="#ffffff" fill="none" transform="matrix(1 0 0 1 709 17799 )" mask="url(#clip367)" />
  </g>
</svg>