<?xml version="1.0" encoding="utf-8"?>
<svg version="1.1" xmlns:xlink="http://www.w3.org/1999/xlink" width="21px" height="10px" xmlns="http://www.w3.org/2000/svg">
  <defs>
    <mask fill="white" id="clip255">
      <path d="M 9.192878048780477 4.3173684210525884  C 9.315292682926835 4.441578947368432  9.929414634146355 5.836842105263145  9.929414634146355 5.996842105263161  C 11.644756097560984 5.846842105263148  13.99009756097562 5.662105263157885  15.470341463414638 6.696842105263152  C 16.76926829268293 7.60473684210527  17.921707317073174 9.22631578947367  19.535121951219505 9.564210526315772  C 19.93156097560975 9.647368421052624  20.719317073170732 9.678947368421046  20.844292682926813 9.135789473684182  C 20.899609756097547 8.895263157894712  20.77309756097559 8.633157894736822  20.659902439024368 8.434736842105238  C 20.22812195121948 7.676315789473673  19.520268292682893 7.05842105263155  18.892829268292665 6.478947368421024  C 17.129853658536565 4.850526315789448  15.073902439024364 2.70105263157892  12.87709756097559 1.7978947368420737  C 10.701804878048755 0.9036842105262777  7.508268292682923 0.26315789473681217  5.162414634146316 0.11578947368416505  C 4.018682926829241 0.04368421052627008  2.8416585365853373 0.05894736842100501  1.7056097560975236 0.22631578947362796  C 1.3066097560975256 0.2852631578946928  0.7887804878048303 0.3510526315789033  0.46763414634143985 0.6326315789473076  C 0.1367560975609444 0.9226315789473012  0.24841463414631934 1.2957894736841449  0.5070731707316829 1.597368421052585  C 1.413146341463393 2.6542105263157327  3.1909756097560775 2.463157894736786  4.393609756097548 2.471578947368375  C 6.003439024390216 2.4831578947367916  7.410439024390223 2.6094736842104806  8.635609756097539 3.765263157894705  C 8.825634146341432 3.944736842105236  9.010024390243878 4.13052631578945  9.192878048780477 4.3173684210525884  Z " fill-rule="evenodd" />
    </mask>
  </defs>
  <g transform="matrix(1 0 0 1 -404 -11085 )">
    <path d="M 9.192878048780477 4.3173684210525884  C 9.315292682926835 4.441578947368432  9.929414634146355 5.836842105263145  9.929414634146355 5.996842105263161  C 11.644756097560984 5.846842105263148  13.99009756097562 5.662105263157885  15.470341463414638 6.696842105263152  C 16.76926829268293 7.60473684210527  17.921707317073174 9.22631578947367  19.535121951219505 9.564210526315772  C 19.93156097560975 9.647368421052624  20.719317073170732 9.678947368421046  20.844292682926813 9.135789473684182  C 20.899609756097547 8.895263157894712  20.77309756097559 8.633157894736822  20.659902439024368 8.434736842105238  C 20.22812195121948 7.676315789473673  19.520268292682893 7.05842105263155  18.892829268292665 6.478947368421024  C 17.129853658536565 4.850526315789448  15.073902439024364 2.70105263157892  12.87709756097559 1.7978947368420737  C 10.701804878048755 0.9036842105262777  7.508268292682923 0.26315789473681217  5.162414634146316 0.11578947368416505  C 4.018682926829241 0.04368421052627008  2.8416585365853373 0.05894736842100501  1.7056097560975236 0.22631578947362796  C 1.3066097560975256 0.2852631578946928  0.7887804878048303 0.3510526315789033  0.46763414634143985 0.6326315789473076  C 0.1367560975609444 0.9226315789473012  0.24841463414631934 1.2957894736841449  0.5070731707316829 1.597368421052585  C 1.413146341463393 2.6542105263157327  3.1909756097560775 2.463157894736786  4.393609756097548 2.471578947368375  C 6.003439024390216 2.4831578947367916  7.410439024390223 2.6094736842104806  8.635609756097539 3.765263157894705  C 8.825634146341432 3.944736842105236  9.010024390243878 4.13052631578945  9.192878048780477 4.3173684210525884  Z " fill-rule="nonzero" fill="#ffffff" stroke="none" fill-opacity="0" transform="matrix(1 0 0 1 404 11085 )" />
    <path d="M 9.192878048780477 4.3173684210525884  C 9.315292682926835 4.441578947368432  9.929414634146355 5.836842105263145  9.929414634146355 5.996842105263161  C 11.644756097560984 5.846842105263148  13.99009756097562 5.662105263157885  15.470341463414638 6.696842105263152  C 16.76926829268293 7.60473684210527  17.921707317073174 9.22631578947367  19.535121951219505 9.564210526315772  C 19.93156097560975 9.647368421052624  20.719317073170732 9.678947368421046  20.844292682926813 9.135789473684182  C 20.899609756097547 8.895263157894712  20.77309756097559 8.633157894736822  20.659902439024368 8.434736842105238  C 20.22812195121948 7.676315789473673  19.520268292682893 7.05842105263155  18.892829268292665 6.478947368421024  C 17.129853658536565 4.850526315789448  15.073902439024364 2.70105263157892  12.87709756097559 1.7978947368420737  C 10.701804878048755 0.9036842105262777  7.508268292682923 0.26315789473681217  5.162414634146316 0.11578947368416505  C 4.018682926829241 0.04368421052627008  2.8416585365853373 0.05894736842100501  1.7056097560975236 0.22631578947362796  C 1.3066097560975256 0.2852631578946928  0.7887804878048303 0.3510526315789033  0.46763414634143985 0.6326315789473076  C 0.1367560975609444 0.9226315789473012  0.24841463414631934 1.2957894736841449  0.5070731707316829 1.597368421052585  C 1.413146341463393 2.6542105263157327  3.1909756097560775 2.463157894736786  4.393609756097548 2.471578947368375  C 6.003439024390216 2.4831578947367916  7.410439024390223 2.6094736842104806  8.635609756097539 3.765263157894705  C 8.825634146341432 3.944736842105236  9.010024390243878 4.13052631578945  9.192878048780477 4.3173684210525884  Z " stroke-width="4" stroke="#ffffff" fill="none" transform="matrix(1 0 0 1 404 11085 )" mask="url(#clip255)" />
  </g>
</svg>