<?xml version="1.0" encoding="utf-8"?>
<svg version="1.1" xmlns:xlink="http://www.w3.org/1999/xlink" width="31px" height="29px" xmlns="http://www.w3.org/2000/svg">
  <g transform="matrix(1 0 0 1 -745 -17849 )">
    <path d="M 5.448181818181814 8.706193548387107  C 8.458181818181794 10.193806451612904  11.130909090909064 12.156516129032262  13.66636363636365 14.337806451612925  C 16.166363636363652 16.48838709677419  18.58454545454549 18.802451612903234  20.521818181818194 21.47690322580647  C 22.223636363636388 23.826193548387117  24.780909090909102 29.661032258064512  28.722727272727298 27.420129032258068  C 31.337272727272733 25.9334193548387  29.15636363636364 22.292516129032244  27.933636363636396 20.6468387096774  C 26.05636363636367 18.120516129032218  23.5736363636364 16.01148387096772  21.22454545454549 13.93496774193548  C 18.245454545454592 11.30025806451615  15.289090909090946 8.63212903225808  12.24272727272731 6.073290322580636  C 9.945454545454595 4.143999999999969  7.553636363636387 2.0701935483870724  4.684545454545473 1.035096774193562  C 3.58363636363637 0.6376774193548542  2.146363636363679 0.2619354838709862  1.020909090909134 0.789419354838731  C 0.8163636363636587 0.885161290322597  0.6272727272727769 1.0116129032258105  0.46272727272733766 1.1660645161290295  " stroke-width="1" stroke="#ffffff" fill="none" transform="matrix(1 0 0 1 745 17849 )" />
  </g>
</svg>