<?xml version="1.0" encoding="utf-8"?>
<svg version="1.1" xmlns:xlink="http://www.w3.org/1999/xlink" width="23px" height="28px" xmlns="http://www.w3.org/2000/svg">
  <g transform="matrix(1 0 0 1 -322 -11126 )">
    <path d="M 16.129999999999995 24.78800000000001  C 13.895999999999987 20.883499999999998  11.698999999999984 16.955000000000013  9.427500000000009 13.07250000000002  C 8.911500000000018 12.190500000000014  8.350000000000023 11.009000000000015  7.385999999999996 10.51600000000002  C 6.7394999999999925 10.185500000000019  5.996000000000009 10.25200000000001  5.311000000000007 10.409500000000008  C 4.455500000000001 10.606500000000011  3.6270000000000095 10.944000000000017  2.849500000000006 11.347499999999997  C 2.281000000000006 11.642499999999984  1.7055000000000007 12.159500000000008  1.0745000000000005 12.30449999999999  C 0.8804999999999978 12.34899999999999  0.758499999999998 12.332499999999982  0.6400000000000006 12.16549999999998  C 0.4724999999999966 11.929999999999978  0.46649999999999636 11.525499999999994  0.4435000000000002 11.25249999999997  C 0.40049999999999386 10.746499999999969  0.4134999999999991 10.226499999999959  0.5204999999999984 9.728999999999957  C 0.8185000000000002 8.343999999999966  1.8529999999999944 7.209499999999963  2.5564999999999998 6.021499999999946  C 3.065499999999986 5.161499999999933  3.662000000000006 4.113499999999959  3.475500000000011 3.07499999999996  C 3.3255000000000052 2.241999999999962  2.9775000000000205 1.3739999999999668  3.7050000000000125 0.7144999999999584  C 4.232500000000016 0.23549999999994495  4.953000000000003 0.08449999999996294  5.579000000000008 0.44849999999996726  C 6.049000000000007 0.7214999999999634  6.381 1.178499999999957  6.849999999999994 1.4514999999999532  C 7.219999999999999 1.666999999999945  7.6544999999999845 1.7429999999999664  8.073999999999984 1.7919999999999447  C 9.737999999999971 1.9844999999999402  11.392999999999972 1.508499999999941  13.049999999999983 1.6679999999999493  C 13.970999999999975 1.7564999999999598  14.865499999999969 2.1679999999999495  15.579499999999996 2.750999999999948  C 15.741500000000002 2.882999999999953  15.986500000000007 3.067999999999955  15.944500000000005 3.309499999999957  C 15.928500000000014 3.4004999999999654  15.859000000000009 3.4719999999999516  15.799499999999995 3.536499999999961  C 15.335999999999984 4.039999999999964  14.584000000000003 4.311499999999967  14.024000000000001 4.699499999999972  C 12.563500000000005 5.7114999999999725  10.669000000000011 7.267999999999971  11.442000000000007 9.24449999999996  C 12 10.672499999999957  12.986999999999995 12.00249999999997  13.790999999999997 13.299499999999966  C 15.400000000000006 15.894499999999963  17.009500000000003 18.489999999999952  18.618499999999983 21.08499999999998  C 18.95349999999999 21.625499999999988  19.288999999999987 22.16599999999997  19.623999999999995 22.706999999999994  " stroke-width="2" stroke="#ffffff" fill="none" transform="matrix(1 0 0 1 323 11127 )" />
  </g>
</svg>