<?xml version="1.0" encoding="utf-8"?>
<svg version="1.1" xmlns:xlink="http://www.w3.org/1999/xlink" width="20px" height="19px" xmlns="http://www.w3.org/2000/svg">
  <g transform="matrix(1 0 0 1 -423 -11112 )">
    <path d="M 3.087303030303028 4.974967741935489  C 4.792969696969684 5.825032258064517  6.307515151515137 6.946580645161292  7.744272727272736 8.193032258064529  C 9.160939393939403 9.421935483870966  10.531242424242446 10.744258064516133  11.62903030303031 12.272516129032269  C 12.593393939393952 13.614967741935494  14.04251515151516 16.94916129032258  16.276212121212136 15.668645161290325  C 17.75778787878788 14.819096774193543  16.521939393939395 12.738580645161282  15.829060606060622 11.798193548387086  C 14.765272727272745 10.354580645161267  13.358393939393961 9.149419354838697  12.027242424242443 7.962838709677418  C 10.339090909090935 6.457290322580658  8.663818181818202 4.932645161290331  6.937545454545476 3.4704516129032204  C 5.635757575757603 2.367999999999982  4.280393939393953 1.18296774193547  2.654575757575768 0.5914838709677497  C 2.0307272727272765 0.36438709677420245  1.2162727272727514 0.14967741935484927  0.5785151515151759 0.4510967741935606  C 0.4626060606060733 0.5058064516129126  0.35545454545457356 0.5780645161290346  0.262212121212158 0.6663225806451597  " stroke-width="2" stroke="#ffffff" fill="none" transform="matrix(1 0 0 1 424 11113 )" />
  </g>
</svg>