<?xml version="1.0" encoding="utf-8"?>
<svg version="1.1" xmlns:xlink="http://www.w3.org/1999/xlink" width="20px" height="36px" xmlns="http://www.w3.org/2000/svg">
  <g transform="matrix(1 0 0 1 -725 -17769 )">
    <path d="M 7.902190476190459 34.425641025641035  C 10.436428571428543 27.80256410256412  12.970666666666625 21.178589743589733  15.505809523809504 14.555512820512815  C 16.327333333333325 12.407948717948711  17.14704761904762 10.258589743589729  17.864523809523813 8.073333333333316  C 18.31147619047622 6.711025641025623  19.158333333333346 4.78423076923076  18.627238095238116 3.31961538461537  C 18.31238095238096 2.4508974358974314  17.461000000000034 1.9626923076922926  16.652142857142884 1.608205128205104  C 15.603523809523843 1.1496153846153645  14.178523809523854 0.5815384615384325  13.02133333333338 0.9817948717948409  C 11.981761904761951 1.340769230769205  11.420809523809567 2.449999999999965  10.975666666666692 3.3680769230768846  C 9.922523809523845 5.538974358974331  9.104619047619089 7.840897435897405  8.297571428571473 10.110512820512788  C 5.800428571428624 17.128461538461497  3.303285714285775 24.145512820512796  0.8061428571429263 31.163461538461508  C 0.7337619047619883 31.365384615384606  0.6622857142857907 31.56820512820512  0.5899047619048529 31.770128205128163  " stroke-width="1" stroke="#ffffff" fill="none" transform="matrix(1 0 0 1 725 17769 )" />
  </g>
</svg>