<?xml version="1.0" encoding="utf-8"?>
<svg version="1.1" xmlns:xlink="http://www.w3.org/1999/xlink" width="37px" height="46px" xmlns="http://www.w3.org/2000/svg">
  <g transform="matrix(1 0 0 1 -566 -17873 )">
    <path d="M 29.033999999999992 44.618400000000015  C 25.012799999999974 37.5903  21.05819999999997 30.51900000000002  16.969500000000014 23.530500000000035  C 16.040700000000033 21.942900000000026  15.030000000000042 19.816200000000027  13.294799999999993 18.928800000000034  C 12.131099999999988 18.333900000000035  10.792800000000016 18.453600000000016  9.559800000000012 18.737100000000016  C 8.019900000000002 19.09170000000002  6.528600000000018 19.69920000000003  5.129100000000011 20.425499999999992  C 4.10580000000001 20.95649999999997  3.069900000000001 21.887100000000014  1.9341000000000008 22.14809999999998  C 1.584899999999996 22.22819999999998  1.3652999999999962 22.198499999999967  1.152000000000001 21.897899999999964  C 0.8504999999999939 21.47399999999996  0.8396999999999935 20.74589999999999  0.7983000000000003 20.254499999999943  C 0.7208999999999889 19.343699999999945  0.7442999999999983 18.407699999999927  0.9368999999999971 17.512199999999922  C 1.4733000000000003 15.019199999999937  3.3353999999999897 12.977099999999934  4.6017 10.838699999999903  C 5.517899999999975 9.290699999999879  6.591600000000011 7.404299999999927  6.255900000000019 5.534999999999928  C 5.985900000000009 4.035599999999931  5.359500000000037 2.4731999999999403  6.669000000000023 1.2860999999999252  C 7.6185000000000285 0.4238999999999009  8.915400000000005 0.1520999999999333  10.042200000000014 0.8072999999999411  C 10.888200000000012 1.298699999999934  11.4858 2.1212999999999225  12.32999999999999 2.612699999999916  C 12.995999999999997 3.000599999999901  13.778099999999972 3.1373999999999396  14.53319999999997 3.2255999999999005  C 17.528399999999948 3.5720999999998924  20.50739999999995 2.715299999999894  23.48999999999997 3.0023999999999087  C 25.147799999999958 3.161699999999928  26.757899999999946 3.902399999999909  28.043099999999992 4.951799999999906  C 28.3347 5.189399999999916  28.77570000000001 5.522399999999919  28.70010000000001 5.957099999999922  C 28.671300000000027 6.120899999999938  28.546200000000017 6.249599999999913  28.439099999999993 6.36569999999993  C 27.604799999999972 7.2719999999999345  26.251200000000008 7.76069999999994  25.2432 8.45909999999995  C 22.61430000000001 10.28069999999995  19.204200000000018 13.082399999999948  20.595600000000015 16.640099999999926  C 21.599999999999998 19.21049999999992  23.376599999999993 21.604499999999945  24.823799999999995 23.93909999999994  C 27.72000000000001 28.610099999999935  30.617100000000004 33.28199999999991  33.513299999999965 37.95299999999996  C 34.11629999999999 38.92589999999998  34.72019999999998 39.898799999999945  35.32319999999999 40.87259999999999  " stroke-width="1" stroke="#ffffff" fill="none" transform="matrix(1 0 0 1 566 17873 )" />
  </g>
</svg>