<?xml version="1.0" encoding="utf-8"?>
<svg version="1.1" xmlns:xlink="http://www.w3.org/1999/xlink" width="14px" height="23px" xmlns="http://www.w3.org/2000/svg">
  <g transform="matrix(1 0 0 1 -412 -11067 )">
    <path d="M 4.574952380952371 19.67179487179488  C 6.042142857142841 15.887179487179496  7.50933333333331 12.102051282051276  8.977047619047607 8.317435897435894  C 9.452666666666662 7.090256410256407  9.927238095238096 5.862051282051274  10.34261904761905 4.6133333333333235  C 10.60138095238097 3.834871794871785  11.091666666666674 2.7338461538461485  10.784190476190489 1.8969230769230685  C 10.601904761904766 1.400512820512818  10.10900000000002 1.121538461538453  9.640714285714301 0.9189743589743451  C 9.033619047619068 0.6569230769230654  8.208619047619074 0.3323076923076757  7.5386666666666935 0.5610256410256234  C 6.936809523809551 0.7661538461538314  6.612047619047644 1.3999999999999801  6.354333333333348 1.9246153846153626  C 5.744619047619069 3.1651282051281893  5.271095238095262 4.4805128205128035  4.803857142857169 5.777435897435879  C 3.3581428571428873 9.787692307692286  1.9124285714286067 13.797435897435884  0.46671428571432577 17.807692307692292  C 0.42480952380957215 17.923076923076916  0.3834285714286157 18.038974358974354  0.3415238095238622 18.15435897435895  " stroke-width="2" stroke="#ffffff" fill="none" transform="matrix(1 0 0 1 413 11068 )" />
  </g>
</svg>