<?xml version="1.0" encoding="utf-8"?>
<svg version="1.1" xmlns:xlink="http://www.w3.org/1999/xlink" width="30px" height="39px" xmlns="http://www.w3.org/2000/svg">
  <g transform="matrix(1 0 0 1 -573 -17831 )">
    <path d="M 22.967093750000018 37.68876190476191  C 18.777500000000025 31.93176190476191  14.57975000000002 26.184714285714314  10.224312500000035 20.550761904761902  C 7.839968750000061 17.465523809523784  5.440218750000039 14.397476190476201  3.0114687500000326 11.346619047619045  C 2.163218750000052 10.281714285714266  1.1491250000000264 9.241238095238094  0.4340937500000379 8.077714285714283  C 0.17581250000001525 7.6560952380952285  0.027187500000026787 7.172047619047638  0.010875000000051926 6.678047619047593  C -0.043499999999950134 5.019619047618998  1.4173750000000709 3.8995238095237603  2.5973125000000383 2.9721428571428286  C 3.9077500000000622 1.9416190476190096  5.452906250000048 1.005190476190467  7.053343750000014 0.5048571428571362  C 7.509187500000001 0.3619047619047413  7.981343750000015 0.3166666666666358  8.454406250000007 0.3999047619047685  C 9.616218749999991 0.6043809523809581  10.226124999999993 1.4123333333333656  10.757187500000004 2.379523809523805  C 12.530718749999998 5.611333333333331  14.287937500000018 8.852190476190469  16.1076875 12.057761904761904  C 19.952906249999998 18.833523809523786  23.899625000000015 25.540523809523798  27.938781250000005 32.2022857142857  C 28.25415625000002 32.722523809523786  28.569531250000033 33.24276190476187  28.884906249999993 33.763000000000005  " stroke-width="1" stroke="#ffffff" fill="none" transform="matrix(1 0 0 1 573 17831 )" />
  </g>
</svg>