<?xml version="1.0" encoding="utf-8"?>
<svg version="1.1" xmlns:xlink="http://www.w3.org/1999/xlink" width="19px" height="24px" xmlns="http://www.w3.org/2000/svg">
  <g transform="matrix(1 0 0 1 -325 -11102 )">
    <path d="M 12.671500000000009 20.828000000000003  C 10.360000000000014 17.646500000000003  8.044000000000011 14.470500000000015  5.6410000000000196 11.357  C 4.325500000000034 9.651999999999987  3.0015000000000214 7.9565000000000055  1.661500000000018 6.270499999999998  C 1.1935000000000286 5.681999999999988  0.6340000000000146 5.106999999999999  0.23950000000002092 4.463999999999999  C 0.09700000000000841 4.2309999999999945  0.01500000000001478 3.9635000000000105  0.006000000000028649 3.6904999999999855  C -0.023999999999972488 2.7739999999999725  0.7820000000000391 2.1549999999999727  1.4330000000000211 1.642499999999984  C 2.1560000000000343 1.072999999999979  3.0085000000000264 0.555499999999995  3.8915000000000077 0.27899999999999636  C 4.143000000000001 0.1999999999999886  4.403500000000008 0.17499999999998295  4.664500000000004 0.22100000000000364  C 5.305499999999995 0.3340000000000032  5.641999999999996 0.7805000000000177  5.935000000000002 1.3149999999999975  C 6.913499999999999 3.100999999999999  7.88300000000001 4.891999999999996  8.887 6.663499999999999  C 11.008499999999998 10.407999999999987  13.186000000000007 14.114499999999992  15.414500000000004 17.795999999999992  C 15.58850000000001 18.083499999999987  15.762500000000017 18.37099999999998  15.936499999999995 18.658500000000004  " stroke-width="2" stroke="#ffffff" fill="none" transform="matrix(1 0 0 1 326 11103 )" />
  </g>
</svg>