<?xml version="1.0" encoding="utf-8"?>
<svg version="1.1" xmlns:xlink="http://www.w3.org/1999/xlink" width="31px" height="37px" xmlns="http://www.w3.org/2000/svg">
  <g transform="matrix(1 0 0 1 -756 -17879 )">
    <path d="M 20.798181818181803 0.05939999999997667  C 19.717272727272697 0.30509999999999876  17.723636363636345 0.6191999999999894  17.41000000000001 1.9394999999999756  C 17.223636363636388 2.7242999999999884  17.358181818181812 3.56489999999996  17.16454545454548 4.364099999999991  C 16.842727272727313 5.695199999999978  16.17181818181822 6.9273000000000025  15.465454545454545 8.092799999999967  C 13.380909090909086 11.531699999999988  10.895454545454559 14.748299999999949  8.481818181818168 17.96489999999996  C 6.620909090909054 20.443499999999975  4.759999999999991 22.922999999999973  2.8981818181818078 25.40159999999994  C 2.151818181818147 26.396099999999958  1.2409090909090992 27.40409999999996  0.817272727272728 28.587599999999956  C 0.16181818181817934 30.422699999999946  1.3354545454545401 31.812299999999983  2.7409090909090787 32.91209999999996  C 4.155454545454518 34.01909999999998  6.464545454545445 35.80289999999996  8.42272727272726 35.06849999999998  C 9.33727272727269 34.72560000000001  9.992727272727238 33.935399999999966  10.535454545454545 33.1659  C 11.84181818181819 31.311899999999998  13.030000000000024 29.368800000000004  14.270909090909072 27.4716  C 16.770909090909072 23.646600000000003  19.232727272727278 19.78830000000002  21.895454545454527 16.071300000000026  C 23.435454545454544 13.921200000000015  25.125454545454524 11.39670000000001  27.640909090909066 10.273500000000018  C 28.92545454545453 9.700200000000018  29.49181818181816 9.493200000000002  29.541818181818165 7.979400000000038  C 29.56363636363635 7.308900000000034  29.489090909090898 6.634800000000013  29.400909090909096 5.971500000000042  " stroke-width="1" stroke="#ffffff" fill="none" transform="matrix(1 0 0 1 756 17879 )" />
  </g>
</svg>