<?xml version="1.0" encoding="utf-8"?>
<svg version="1.1" xmlns:xlink="http://www.w3.org/1999/xlink" width="83px" height="116px" xmlns="http://www.w3.org/2000/svg">
  <g transform="matrix(1 0 0 1 -676 -17918 )">
    <path d="M 81.69160869565216 7.121914062500019  C 79.51504347826086 10.235898437500026  77.33936956521741 13.349882812500034  75.1628043478261 16.463867187500043  C 71.66086956521742 21.475351562500016  68.1580434782609 26.486835937500047  64.65610869565216 31.498320312500024  C 63.076717391304356 33.75789062500001  61.49197826086956 36.012968750000006  59.89476086956523 38.259062500000006  C 56.91334782608695 42.45027343750002  53.94976086956521 46.655859375000006  50.95052173913042 50.83449218750002  C 48.20708695652175 54.65734375000001  45.422652173913036 58.45054687499999  42.65960869565214 62.25812499999999  C 40.58643478260865 65.11515625  38.49454347826084 67.95242187500001  36.3812608695652 70.7798046875  C 33.6413913043478 74.4454296875  30.947869565217374 78.15058593750001  28.154521739130402 81.77488281250001  C 25.188260869565212 85.62468750000002  22.210413043478248 89.46011718749997  19.19513043478256 93.27039062500002  C 16.550630434782573 96.61078125000003  13.84106521739125 99.89636718750008  11.091391304347791 103.14960937500005  C 8.340826086956474 106.40375000000002  5.498456521739115 109.58960937500007  2.5152608695651693 112.62992187500006  C 1.8334130434782248 113.3244140625001  1.1364130434781898 114.00363281250007  0.4358478260868843 114.68015625000011  C 0.4358478260868843 114.28394531250008  0.8467391304347218 113.71613281250012  1.0134130434782107 113.3369921875001  C 1.231782608695606 112.84105468750009  1.4546086956521278 112.34601562500015  1.6818913043477757 111.85367187500015  C 2.150717391304307 110.83574218750012  2.633804347826022 109.82589843750019  3.1266956521738454 108.81875000000011  C 4.036717391304294 106.95808593750009  4.989521739130345 105.11808593750008  5.967282608695596 103.29246093750015  C 8.104630434782575 99.30339843750009  10.322195652173878 95.36015625000019  12.602152173913002 91.45285156250014  C 14.77336956521733 87.73332031250017  17.00519565217387 84.04972656250014  19.25395652173911 80.37781250000015  C 21.504499999999958 76.70320312500017  23.806739130434764 73.06363281250013  26.110760869565183 69.42226562500014  C 28.197304347826055 66.12500000000013  30.25710869565213 62.809765625000125  32.38910869565212 59.54304687500015  C 35.434695652173836 54.87656250000014  38.4793913043478 50.21097656250015  41.52497826086952 45.54449218750014  C 43.72828260869558 42.16816406250015  45.988630434782536 38.829570312500145  48.22402173913041 35.47480468750011  C 50.02980434782606 32.765117187500095  51.824891304347815 30.048242187500097  53.6529565217391 27.354726562500105  C 56.748456521739115 22.791562500000097  59.844847826086934 18.22839843750009  62.94034782608695 13.665234375000084  C 65.7978695652174 9.453359375000094  68.65539130434779 5.242382812500084  71.51202173913043 1.0305078125000944  C 71.66978260869567 0.7978125000000813  71.82754347826086 0.5651171875001193  71.9853043478261 0.3324218750001062  " stroke-width="1" stroke="#ffffff" fill="none" transform="matrix(1 0 0 1 676 17918 )" />
  </g>
</svg>