<?xml version="1.0" encoding="utf-8"?>
<svg version="1.1" xmlns:xlink="http://www.w3.org/1999/xlink" width="18px" height="8px" xmlns="http://www.w3.org/2000/svg">
  <defs>
    <mask fill="white" id="clip256">
      <path d="M 15.11897142857153 7.365866666666686  C 15.787028571428573 7.5615999999999985  16.455600000000008 7.757866666666662  17.12417142857144 7.954133333333327  C 17.307257142857154 7.282666666666652  17.490342857142863 6.611733333333329  17.67394285714288 5.940266666666655  C 17.67394285714288 5.847466666666666  15.824057142857175 5.397333333333336  15.701657142857174 5.361599999999998  C 14.177828571428593 4.914133333333333  12.653485714285736 3.533866666666654  11.129657142857182 3.0863999999999883  C 8.16222857142862 2.2154666666666647  4.294800000000029 1.344533333333311  1.3273714285714666 0.47359999999998764  C 1.2276000000000293 0.44426666666665066  0.7385142857143332 0.2186666666666497  0.6397714285714724 0.27199999999999513  C 0.516857142857199 0.3381333333333411  0.41502857142860905 1.094399999999981  0.37851428571433904 1.2282666666666653  C 0.2823428571429044 1.5807999999999993  0.18617142857146973 1.9328000000000125  0.0900000000000643 2.2853333333333468  C 0.0900000000000643 2.363733333333342  1.593257142857208 2.7264000000000124  1.705371428571503 2.759466666666685  C 2.9972571428572174 3.1386666666666923  4.288628571428658 4.451200000000032  5.580514285714373 4.830400000000009  C 8.46000000000008 5.675733333333331  12.23948571428579 6.520533333333333  15.11897142857153 7.365866666666686  Z " fill-rule="evenodd" />
    </mask>
  </defs>
  <g transform="matrix(1 0 0 1 -410 -11130 )">
    <path d="M 15.11897142857153 7.365866666666686  C 15.787028571428573 7.5615999999999985  16.455600000000008 7.757866666666662  17.12417142857144 7.954133333333327  C 17.307257142857154 7.282666666666652  17.490342857142863 6.611733333333329  17.67394285714288 5.940266666666655  C 17.67394285714288 5.847466666666666  15.824057142857175 5.397333333333336  15.701657142857174 5.361599999999998  C 14.177828571428593 4.914133333333333  12.653485714285736 3.533866666666654  11.129657142857182 3.0863999999999883  C 8.16222857142862 2.2154666666666647  4.294800000000029 1.344533333333311  1.3273714285714666 0.47359999999998764  C 1.2276000000000293 0.44426666666665066  0.7385142857143332 0.2186666666666497  0.6397714285714724 0.27199999999999513  C 0.516857142857199 0.3381333333333411  0.41502857142860905 1.094399999999981  0.37851428571433904 1.2282666666666653  C 0.2823428571429044 1.5807999999999993  0.18617142857146973 1.9328000000000125  0.0900000000000643 2.2853333333333468  C 0.0900000000000643 2.363733333333342  1.593257142857208 2.7264000000000124  1.705371428571503 2.759466666666685  C 2.9972571428572174 3.1386666666666923  4.288628571428658 4.451200000000032  5.580514285714373 4.830400000000009  C 8.46000000000008 5.675733333333331  12.23948571428579 6.520533333333333  15.11897142857153 7.365866666666686  Z " fill-rule="nonzero" fill="#ffffff" stroke="none" fill-opacity="0" transform="matrix(1 0 0 1 410 11130 )" />
    <path d="M 15.11897142857153 7.365866666666686  C 15.787028571428573 7.5615999999999985  16.455600000000008 7.757866666666662  17.12417142857144 7.954133333333327  C 17.307257142857154 7.282666666666652  17.490342857142863 6.611733333333329  17.67394285714288 5.940266666666655  C 17.67394285714288 5.847466666666666  15.824057142857175 5.397333333333336  15.701657142857174 5.361599999999998  C 14.177828571428593 4.914133333333333  12.653485714285736 3.533866666666654  11.129657142857182 3.0863999999999883  C 8.16222857142862 2.2154666666666647  4.294800000000029 1.344533333333311  1.3273714285714666 0.47359999999998764  C 1.2276000000000293 0.44426666666665066  0.7385142857143332 0.2186666666666497  0.6397714285714724 0.27199999999999513  C 0.516857142857199 0.3381333333333411  0.41502857142860905 1.094399999999981  0.37851428571433904 1.2282666666666653  C 0.2823428571429044 1.5807999999999993  0.18617142857146973 1.9328000000000125  0.0900000000000643 2.2853333333333468  C 0.0900000000000643 2.363733333333342  1.593257142857208 2.7264000000000124  1.705371428571503 2.759466666666685  C 2.9972571428572174 3.1386666666666923  4.288628571428658 4.451200000000032  5.580514285714373 4.830400000000009  C 8.46000000000008 5.675733333333331  12.23948571428579 6.520533333333333  15.11897142857153 7.365866666666686  Z " stroke-width="4" stroke="#ffffff" fill="none" transform="matrix(1 0 0 1 410 11130 )" mask="url(#clip256)" />
  </g>
</svg>