<?xml version="1.0" encoding="utf-8"?>
<svg version="1.1" xmlns:xlink="http://www.w3.org/1999/xlink" width="31px" height="13px" xmlns="http://www.w3.org/2000/svg">
  <defs>
    <mask fill="white" id="clip368">
      <path d="M 26.038228571428746 11.969533333333365  C 27.18877142857143 12.287599999999998  28.340200000000014 12.606533333333326  29.491628571428592 12.925466666666656  C 29.806942857142875 11.83433333333331  30.122257142857155 10.74406666666666  30.438457142857178 9.652933333333314  C 30.438457142857178 9.502133333333331  27.252542857142913 8.77066666666667  27.04174285714291 8.712599999999997  C 24.417371428571467 7.9854666666666665  21.792114285714323 5.742533333333313  19.167742857142926 5.015399999999981  C 14.057171428571513 3.6001333333333303  7.396600000000049 2.1848666666666303  2.2860285714286372 0.76959999999998  C 2.1142000000000505 0.7219333333333073  1.271885714285796 0.35533333333330575  1.1018285714286469 0.44199999999999207  C 0.8901428571429538 0.5494666666666793  0.7147714285714933 1.7783999999999691  0.6518857142858061 1.9959333333333311  C 0.48625714285722427 2.568799999999999  0.3206285714286423 3.1408000000000205  0.15500000000011074 3.7136666666666884  C 0.15500000000011074 3.841066666666681  2.743942857142969 4.43040000000002  2.9370285714286997 4.4841333333333635  C 5.161942857142986 5.100333333333375  7.385971428571579 7.233200000000052  9.610885714285864 7.849400000000014  C 14.57000000000014 9.223066666666663  21.079114285714414 10.595866666666666  26.038228571428746 11.969533333333365  Z " fill-rule="evenodd" />
    </mask>
  </defs>
  <g transform="matrix(1 0 0 1 -719 -17879 )">
    <path d="M 26.038228571428746 11.969533333333365  C 27.18877142857143 12.287599999999998  28.340200000000014 12.606533333333326  29.491628571428592 12.925466666666656  C 29.806942857142875 11.83433333333331  30.122257142857155 10.74406666666666  30.438457142857178 9.652933333333314  C 30.438457142857178 9.502133333333331  27.252542857142913 8.77066666666667  27.04174285714291 8.712599999999997  C 24.417371428571467 7.9854666666666665  21.792114285714323 5.742533333333313  19.167742857142926 5.015399999999981  C 14.057171428571513 3.6001333333333303  7.396600000000049 2.1848666666666303  2.2860285714286372 0.76959999999998  C 2.1142000000000505 0.7219333333333073  1.271885714285796 0.35533333333330575  1.1018285714286469 0.44199999999999207  C 0.8901428571429538 0.5494666666666793  0.7147714285714933 1.7783999999999691  0.6518857142858061 1.9959333333333311  C 0.48625714285722427 2.568799999999999  0.3206285714286423 3.1408000000000205  0.15500000000011074 3.7136666666666884  C 0.15500000000011074 3.841066666666681  2.743942857142969 4.43040000000002  2.9370285714286997 4.4841333333333635  C 5.161942857142986 5.100333333333375  7.385971428571579 7.233200000000052  9.610885714285864 7.849400000000014  C 14.57000000000014 9.223066666666663  21.079114285714414 10.595866666666666  26.038228571428746 11.969533333333365  Z " fill-rule="nonzero" fill="#ffffff" stroke="none" fill-opacity="0" transform="matrix(1 0 0 1 719 17879 )" />
    <path d="M 26.038228571428746 11.969533333333365  C 27.18877142857143 12.287599999999998  28.340200000000014 12.606533333333326  29.491628571428592 12.925466666666656  C 29.806942857142875 11.83433333333331  30.122257142857155 10.74406666666666  30.438457142857178 9.652933333333314  C 30.438457142857178 9.502133333333331  27.252542857142913 8.77066666666667  27.04174285714291 8.712599999999997  C 24.417371428571467 7.9854666666666665  21.792114285714323 5.742533333333313  19.167742857142926 5.015399999999981  C 14.057171428571513 3.6001333333333303  7.396600000000049 2.1848666666666303  2.2860285714286372 0.76959999999998  C 2.1142000000000505 0.7219333333333073  1.271885714285796 0.35533333333330575  1.1018285714286469 0.44199999999999207  C 0.8901428571429538 0.5494666666666793  0.7147714285714933 1.7783999999999691  0.6518857142858061 1.9959333333333311  C 0.48625714285722427 2.568799999999999  0.3206285714286423 3.1408000000000205  0.15500000000011074 3.7136666666666884  C 0.15500000000011074 3.841066666666681  2.743942857142969 4.43040000000002  2.9370285714286997 4.4841333333333635  C 5.161942857142986 5.100333333333375  7.385971428571579 7.233200000000052  9.610885714285864 7.849400000000014  C 14.57000000000014 9.223066666666663  21.079114285714414 10.595866666666666  26.038228571428746 11.969533333333365  Z " stroke-width="2" stroke="#ffffff" fill="none" transform="matrix(1 0 0 1 719 17879 )" mask="url(#clip368)" />
  </g>
</svg>