<?xml version="1.0" encoding="utf-8"?>
<svg version="1.1" xmlns:xlink="http://www.w3.org/1999/xlink" width="18px" height="14px" xmlns="http://www.w3.org/2000/svg">
  <g transform="matrix(1 0 0 1 -422 -11145 )">
    <path d="M 7.390500000000003 1.4085000000000036  C 6.6815 2.094999999999999  5.672500000000014 2.765500000000003  4.63900000000001 2.426000000000016  C 3.7735000000000123 2.1420000000000243  3.0645000000000095 1.325000000000017  2.349500000000006 0.7975000000000136  C 1.9675000000000011 0.515500000000003  1.4664999999999964 0.09150000000002478  0.958500000000015 0.083500000000015  C 0.45750000000001023 0.07550000000000523  0.05700000000001637 0.5800000000000125  0.043500000000022965 1.0550000000000068  C 0.031000000000034337 1.498500000000007  0.3055000000000234 1.9184999999999945  0.5595000000000141 2.2590000000000146  C 1.0915000000000248 2.9735000000000014  1.809500000000014 3.560500000000019  2.2005000000000052 4.373500000000007  C 2.5655000000000143 5.131500000000017  2.719999999999999 5.972000000000008  3.1450000000000102 6.7050000000000125  C 3.5075000000000216 7.3300000000000125  4.00800000000001 7.860500000000002  4.5685 8.312000000000012  C 5.836000000000013 9.332000000000022  7.2394999999999925 9.993500000000012  8.881 9.97150000000002  C 9.703499999999991 9.960500000000025  10.437000000000012 9.923500000000018  11.222000000000008 10.189000000000021  C 11.987500000000011 10.448000000000008  12.778999999999996 10.893000000000029  13.609000000000009 10.908500000000032  C 14.1935 10.919500000000028  14.80850000000001 10.507500000000022  14.767500000000013 9.857500000000044  C 14.752500000000026 9.623500000000035  14.616000000000014 9.431500000000057  14.45950000000002 9.266000000000048  C 13.753000000000014 8.518500000000046  12.710500000000025 8.091500000000053  11.863000000000028 7.534500000000037  C 10.91500000000002 6.911500000000046  10.657000000000039 5.942500000000024  10.939000000000021 4.8720000000000425  C 11.011500000000012 4.597000000000037  11.111000000000018 4.329500000000053  11.224500000000035 4.069500000000033  " stroke-width="2" stroke="#ffffff" fill="none" transform="matrix(1 0 0 1 423 11146 )" />
  </g>
</svg>