<?xml version="1.0" encoding="utf-8"?>
<svg version="1.1" xmlns:xlink="http://www.w3.org/1999/xlink" width="20px" height="23px" xmlns="http://www.w3.org/2000/svg">
  <g transform="matrix(1 0 0 1 -429 -11129 )">
    <path d="M 11.785636363636357 0.03299999999998704  C 11.173121212121194 0.16949999999999932  10.04339393939393 0.3439999999999941  9.865666666666673 1.0774999999999864  C 9.76006060606062 1.5134999999999934  9.836303030303029 1.980499999999978  9.726575757575771 2.4244999999999948  C 9.544212121212142 3.1639999999999873  9.164030303030325 3.8485000000000014  8.763757575757575 4.495999999999981  C 7.582515151515148 6.406499999999994  6.174090909090916 8.193499999999972  4.806363636363629 9.980499999999978  C 3.7518484848484634 11.357499999999987  2.6973333333333285 12.734999999999985  1.6423030303030242 14.111999999999966  C 1.2193636363636167 14.664499999999975  0.7031818181818228 15.224499999999978  0.4631212121212126 15.881999999999977  C 0.09169696969696829 16.90149999999997  0.7567575757575726 17.67349999999999  1.5531818181818111 18.28449999999998  C 2.35475757575756 18.89949999999999  3.663242424242419 19.890499999999975  4.77287878787878 19.482499999999987  C 5.29112121212119 19.292  5.662545454545435 18.85299999999998  5.970090909090908 18.4255  C 6.710363636363642 17.3955  7.38366666666668 16.316000000000003  8.086848484848474 15.262  C 9.503515151515142 13.137  10.898545454545458 10.993500000000012  12.40742424242423 8.928500000000014  C 13.280090909090907 7.734000000000009  14.237757575757563 6.3315000000000055  15.663181818181803 5.70750000000001  C 16.391090909090902 5.38900000000001  16.71203030303029 5.274000000000001  16.740363636363625 4.433000000000021  C 16.752727272727263 4.060500000000019  16.710484848484843 3.686000000000007  16.660515151515156 3.317500000000024  " stroke-width="2" stroke="#ffffff" fill="none" transform="matrix(1 0 0 1 430 11130 )" />
  </g>
</svg>