<?xml version="1.0" encoding="utf-8"?>
<svg version="1.1" xmlns:xlink="http://www.w3.org/1999/xlink" width="28px" height="21px" xmlns="http://www.w3.org/2000/svg">
  <g transform="matrix(1 0 0 1 -743 -17907 )">
    <path d="M 13.302900000000005 2.5609090909090977  C 12.026699999999998 3.809090909090907  10.210500000000025 5.028181818181824  8.350200000000019 4.41090909090912  C 6.792300000000022 3.894545454545499  5.5161000000000175 2.4090909090909403  4.2291000000000105 1.4500000000000248  C 3.541500000000002 0.9372727272727327  2.6396999999999933 0.16636363636368143  1.725300000000027 0.1518181818182091  C 0.8235000000000184 0.13727272727273676  0.10260000000002947 1.0545454545454773  0.07830000000004134 1.9181818181818304  C 0.05580000000006181 2.724545454545467  0.5499000000000422 3.488181818181808  1.0071000000000252 4.107272727272754  C 1.9647000000000447 5.406363636363639  3.257100000000025 6.473636363636398  3.96090000000001 7.9518181818181946  C 4.617900000000025 9.33000000000003  4.895999999999998 10.858181818181833  5.661000000000019 12.190909090909114  C 6.313500000000039 13.32727272727275  7.214400000000018 14.291818181818186  8.223300000000002 15.112727272727293  C 10.504800000000023 16.967272727272768  13.031099999999988 18.170000000000023  15.9858 18.130000000000038  C 17.466299999999983 18.110000000000042  18.78660000000002 18.042727272727305  20.199600000000014 18.525454545454586  C 21.577500000000022 18.99636363636365  23.002199999999995 19.805454545454598  24.496200000000016 19.833636363636423  C 25.5483 19.85363636363641  26.655300000000018 19.104545454545494  26.581500000000023 17.922727272727354  C 26.554500000000047 17.497272727272794  26.308800000000026 17.14818181818192  26.027100000000036 16.847272727272816  C 24.755400000000026 15.4881818181819  22.878900000000044 14.711818181818279  21.35340000000005 13.699090909090977  C 19.647000000000038 12.56636363636372  19.18260000000007 10.804545454545497  19.690200000000036 8.858181818181896  C 19.820700000000024 8.358181818181885  19.999800000000032 7.871818181818277  20.20410000000006 7.39909090909097  " stroke-width="1" stroke="#ffffff" fill="none" transform="matrix(1 0 0 1 743 17907 )" />
  </g>
</svg>