<?xml version="1.0" encoding="utf-8"?>
<svg version="1.1" xmlns:xlink="http://www.w3.org/1999/xlink" width="50px" height="68px" xmlns="http://www.w3.org/2000/svg">
  <g transform="matrix(1 0 0 1 -384 -11151 )">
    <path d="M 46.82323913043478 4.025429687500011  C 45.575695652173906 5.785507812500015  44.32866304347827 7.545585937500019  43.0811195652174 9.305664062500023  C 41.07391304347828 12.13824218750001  39.066195652173924 14.970820312500026  37.05898913043478 17.803398437500014  C 36.15372826086957 19.080546875000007  35.245402173913035 20.35515625  34.32992391304349 21.6246875  C 32.6210652173913 23.99363281250001  30.922423913043474 26.370703125000002  29.20334782608695 28.73253906250001  C 27.63089130434783 30.89328125000001  26.03493478260869 33.037265624999996  24.451239130434764 35.189375  C 23.262956521739103 36.80421875  22.063945652173896 38.40789062500001  20.85267391304347 40.0059765625  C 19.282260869565203 42.077851562499994  17.73841304347825 44.172070312500004  16.137347826086938 46.220585937500005  C 14.437173913043475 48.396562500000016  12.730358695652166 50.56441406249999  11.00208695652171 52.71804687500001  C 9.486336956521718 54.60609375000002  7.933293478260839 56.46316406250004  6.357260869565197 58.30195312500003  C 4.780717391304321 60.14125000000001  3.151554347826078 61.94195312500003  1.4416739130434506 63.66039062500004  C 1.0508586956521533 64.05292968750005  0.6513586956521332 64.43683593750004  0.24981521739126297 64.81921875000006  C 0.24981521739126297 64.59527343750004  0.4853260869564869 64.27433593750007  0.5808586956521451 64.06003906250005  C 0.7060217391304083 63.779726562500045  0.8337391304347561 63.499921875000084  0.9640108695651886 63.221640625000084  C 1.2327282608695418 62.64628906250006  1.509619565217354 62.075507812500106  1.79213043478257 61.50625000000006  C 2.313728260869534 60.454570312500046  2.8598478260869054 59.41457031250005  3.4202717391304027 58.38269531250008  C 4.645336956521719 56.12800781250006  5.916380434782589 53.89921875000011  7.223184782608672 51.690742187500085  C 8.467663043478225 49.58839843750009  9.746880434782584 47.50636718750008  11.035804347826074 45.430937500000084  C 12.325749999999976 43.353984375000095  13.64532608695651 41.29683593750008  14.965923913043458 39.23867187500008  C 16.161869565217373 37.37500000000007  17.342489130434757 35.50117187500007  18.56448913043475 33.65476562500009  C 20.310130434782565 31.017187500000077  22.055260869565203 28.380117187500087  23.800902173913016 25.74253906250008  C 25.063771739130395 23.83417968750009  26.359336956521698 21.947148437500083  27.64059782608694 20.050976562500065  C 28.675619565217374 18.519414062500054  29.704510869565212 16.983789062500055  30.75230434782607 15.46136718750006  C 32.52655434782608 12.882187500000056  34.30131521739129 10.303007812500052  36.0755652173913 7.723828125000047  C 37.71341304347826 5.343203125000054  39.351260869565195 2.9630859375000473  40.98859782608696 0.5824609375000533  C 41.07902173913045 0.45093750000004595  41.169445652173906 0.31941406250006743  41.2598695652174 0.18789062500006004  " stroke-width="2" stroke="#ffffff" fill="none" transform="matrix(1 0 0 1 385 11152 )" />
  </g>
</svg>