<?xml version="1.0" encoding="utf-8"?>
<svg version="1.1" xmlns:xlink="http://www.w3.org/1999/xlink" width="9px" height="9px" xmlns="http://www.w3.org/2000/svg">
  <defs>
    <mask fill="white" id="clip264">
      <path d="M 8.715499999999992 5.664500000000018  C 8.744499999999988 5.475499999999997  8.758999999999986 4.409499999999994  8.758999999999986 4.218500000000006  C 8.756499999999988 2.646000000000001  7.745499999999993 1.2050000000000125  6.263499999999993 0.674500000000009  C 4.783500000000004 0.14450000000000784  2.2084999999999866 0.6145000000000067  1.2109999999999843 1.8295000000000101  C 0.21299999999999386 3.0445000000000135  0.08299999999999841 5.6780000000000115  0.8909999999999911 7.027000000000015  C 1.6984999999999957 8.375500000000017  4.1854999999999905 9.09150000000001  5.727499999999992 8.785500000000013  C 7.264499999999998 8.480500000000006  8.477499999999992 7.21250000000002  8.715499999999992 5.664500000000018  Z " fill-rule="evenodd" />
    </mask>
  </defs>
  <g transform="matrix(1 0 0 1 -371 -11061 )">
    <path d="M 8.715499999999992 5.664500000000018  C 8.744499999999988 5.475499999999997  8.758999999999986 4.409499999999994  8.758999999999986 4.218500000000006  C 8.756499999999988 2.646000000000001  7.745499999999993 1.2050000000000125  6.263499999999993 0.674500000000009  C 4.783500000000004 0.14450000000000784  2.2084999999999866 0.6145000000000067  1.2109999999999843 1.8295000000000101  C 0.21299999999999386 3.0445000000000135  0.08299999999999841 5.6780000000000115  0.8909999999999911 7.027000000000015  C 1.6984999999999957 8.375500000000017  4.1854999999999905 9.09150000000001  5.727499999999992 8.785500000000013  C 7.264499999999998 8.480500000000006  8.477499999999992 7.21250000000002  8.715499999999992 5.664500000000018  Z " fill-rule="nonzero" fill="#ffffff" stroke="none" fill-opacity="0" transform="matrix(1 0 0 1 371 11061 )" />
    <path d="M 8.715499999999992 5.664500000000018  C 8.744499999999988 5.475499999999997  8.758999999999986 4.409499999999994  8.758999999999986 4.218500000000006  C 8.756499999999988 2.646000000000001  7.745499999999993 1.2050000000000125  6.263499999999993 0.674500000000009  C 4.783500000000004 0.14450000000000784  2.2084999999999866 0.6145000000000067  1.2109999999999843 1.8295000000000101  C 0.21299999999999386 3.0445000000000135  0.08299999999999841 5.6780000000000115  0.8909999999999911 7.027000000000015  C 1.6984999999999957 8.375500000000017  4.1854999999999905 9.09150000000001  5.727499999999992 8.785500000000013  C 7.264499999999998 8.480500000000006  8.477499999999992 7.21250000000002  8.715499999999992 5.664500000000018  Z " stroke-width="4" stroke="#ffffff" fill="none" transform="matrix(1 0 0 1 371 11061 )" mask="url(#clip264)" />
  </g>
</svg>