<?xml version="1.0" encoding="utf-8"?>
<svg version="1.1" xmlns:xlink="http://www.w3.org/1999/xlink" width="9px" height="9px" xmlns="http://www.w3.org/2000/svg">
  <defs>
    <mask fill="white" id="clip263">
      <path d="M 8.448000000000008 5.316500000000019  C 8.45750000000001 5.2535000000000025  8.540999999999997 3.894999999999996  8.491500000000002 3.870500000000007  C 8.489000000000004 2.298000000000002  7.478000000000009 0.8570000000000135  5.996000000000009 0.32650000000001  C 4.5160000000000196 -0.20349999999999113  1.9410000000000025 0.26650000000000773  0.9435000000000002 1.4815000000000111  C -0.05449999999999022 2.6965000000000146  -0.18449999999998568 5.3300000000000125  0.623500000000007 6.679000000000016  C 1.4310000000000116 8.027500000000018  3.9180000000000064 8.743500000000012  5.460000000000008 8.437500000000014  C 6.997000000000014 8.132500000000007  8.210000000000008 6.864500000000021  8.448000000000008 5.316500000000019  Z " fill-rule="evenodd" />
    </mask>
  </defs>
  <g transform="matrix(1 0 0 1 -394 -11061 )">
    <path d="M 8.448000000000008 5.316500000000019  C 8.45750000000001 5.2535000000000025  8.540999999999997 3.894999999999996  8.491500000000002 3.870500000000007  C 8.489000000000004 2.298000000000002  7.478000000000009 0.8570000000000135  5.996000000000009 0.32650000000001  C 4.5160000000000196 -0.20349999999999113  1.9410000000000025 0.26650000000000773  0.9435000000000002 1.4815000000000111  C -0.05449999999999022 2.6965000000000146  -0.18449999999998568 5.3300000000000125  0.623500000000007 6.679000000000016  C 1.4310000000000116 8.027500000000018  3.9180000000000064 8.743500000000012  5.460000000000008 8.437500000000014  C 6.997000000000014 8.132500000000007  8.210000000000008 6.864500000000021  8.448000000000008 5.316500000000019  Z " fill-rule="nonzero" fill="#ffffff" stroke="none" fill-opacity="0" transform="matrix(1 0 0 1 394 11061 )" />
    <path d="M 8.448000000000008 5.316500000000019  C 8.45750000000001 5.2535000000000025  8.540999999999997 3.894999999999996  8.491500000000002 3.870500000000007  C 8.489000000000004 2.298000000000002  7.478000000000009 0.8570000000000135  5.996000000000009 0.32650000000001  C 4.5160000000000196 -0.20349999999999113  1.9410000000000025 0.26650000000000773  0.9435000000000002 1.4815000000000111  C -0.05449999999999022 2.6965000000000146  -0.18449999999998568 5.3300000000000125  0.623500000000007 6.679000000000016  C 1.4310000000000116 8.027500000000018  3.9180000000000064 8.743500000000012  5.460000000000008 8.437500000000014  C 6.997000000000014 8.132500000000007  8.210000000000008 6.864500000000021  8.448000000000008 5.316500000000019  Z " stroke-width="4" stroke="#ffffff" fill="none" transform="matrix(1 0 0 1 394 11061 )" mask="url(#clip263)" />
  </g>
</svg>