<?xml version="1.0" encoding="utf-8"?>
<svg version="1.1" xmlns:xlink="http://www.w3.org/1999/xlink" width="14px" height="13px" xmlns="http://www.w3.org/2000/svg">
  <defs>
    <mask fill="white" id="clip369">
      <path d="M 13.297375000000002 7.790466666666646  C 13.339375000000004 7.516600000000002  13.360375000000005 5.724333333333349  13.360375000000005 5.4487333333333146  C 13.358625000000046 3.1789333333332896  11.881624999999957 1.0989333333333093  9.72387500000005 0.3336666666666588  C 7.5670000000000215 -0.4307333333333455  3.5586250000000064 0.24699999999997238  2.105250000000055 2.0011333333333066  C 0.6510000000000247 3.7552666666666408  0.4620000000000175 7.809533333333304  1.6388750000000414 9.756933333333317  C 2.8157500000000653 11.703466666666634  6.695500000000038 12.736533333333307  8.943375000000003 12.29539999999996  C 11.182499999999976 11.855133333333312  12.950875000000039 10.02473333333329  13.297375000000002 7.790466666666646  Z " fill-rule="evenodd" />
    </mask>
  </defs>
  <g transform="matrix(1 0 0 1 -813 -17840 )">
    <path d="M 13.297375000000002 7.790466666666646  C 13.339375000000004 7.516600000000002  13.360375000000005 5.724333333333349  13.360375000000005 5.4487333333333146  C 13.358625000000046 3.1789333333332896  11.881624999999957 1.0989333333333093  9.72387500000005 0.3336666666666588  C 7.5670000000000215 -0.4307333333333455  3.5586250000000064 0.24699999999997238  2.105250000000055 2.0011333333333066  C 0.6510000000000247 3.7552666666666408  0.4620000000000175 7.809533333333304  1.6388750000000414 9.756933333333317  C 2.8157500000000653 11.703466666666634  6.695500000000038 12.736533333333307  8.943375000000003 12.29539999999996  C 11.182499999999976 11.855133333333312  12.950875000000039 10.02473333333329  13.297375000000002 7.790466666666646  Z " fill-rule="nonzero" fill="#ffffff" stroke="none" fill-opacity="0" transform="matrix(1 0 0 1 813 17840 )" />
    <path d="M 13.297375000000002 7.790466666666646  C 13.339375000000004 7.516600000000002  13.360375000000005 5.724333333333349  13.360375000000005 5.4487333333333146  C 13.358625000000046 3.1789333333332896  11.881624999999957 1.0989333333333093  9.72387500000005 0.3336666666666588  C 7.5670000000000215 -0.4307333333333455  3.5586250000000064 0.24699999999997238  2.105250000000055 2.0011333333333066  C 0.6510000000000247 3.7552666666666408  0.4620000000000175 7.809533333333304  1.6388750000000414 9.756933333333317  C 2.8157500000000653 11.703466666666634  6.695500000000038 12.736533333333307  8.943375000000003 12.29539999999996  C 11.182499999999976 11.855133333333312  12.950875000000039 10.02473333333329  13.297375000000002 7.790466666666646  Z " stroke-width="2" stroke="#ffffff" fill="none" transform="matrix(1 0 0 1 813 17840 )" mask="url(#clip369)" />
  </g>
</svg>