<?xml version="1.0" encoding="utf-8"?>
<svg version="1.1" xmlns:xlink="http://www.w3.org/1999/xlink" width="17px" height="18px" xmlns="http://www.w3.org/2000/svg">
  <defs>
    <mask fill="white" id="clip378">
      <path d="M 16.82731578947375 10.716299999999984  C 16.886368421052623 10.330200000000007  16.91589473684211 8.36460000000001  16.91589473684211 7.9731000000000085  C 16.912315789473674 4.7583000000000055  14.855315789473691 1.8117000000000048  11.84363157894739 0.7280999999999977  C 8.834631578947391 -0.3546000000000049  3.815157894736851 0.6047999999999973  1.7867894736842231 3.0896999999999935  C -0.24157894736840477 5.57459999999999  -0.5055263157894716 10.743299999999985  1.1363157894737186 13.501799999999983  C 2.777263157894774 16.259399999999975  7.620473684210574 17.722800000000007  10.753842105263214 17.097299999999986  C 13.875578947368455 16.47449999999998  16.345052631579023 13.88159999999998  16.82731578947375 10.716299999999984  Z " fill-rule="evenodd" />
    </mask>
  </defs>
  <g transform="matrix(1 0 0 1 -609 -17766 )">
    <path d="M 16.82731578947375 10.716299999999984  C 16.886368421052623 10.330200000000007  16.91589473684211 8.36460000000001  16.91589473684211 7.9731000000000085  C 16.912315789473674 4.7583000000000055  14.855315789473691 1.8117000000000048  11.84363157894739 0.7280999999999977  C 8.834631578947391 -0.3546000000000049  3.815157894736851 0.6047999999999973  1.7867894736842231 3.0896999999999935  C -0.24157894736840477 5.57459999999999  -0.5055263157894716 10.743299999999985  1.1363157894737186 13.501799999999983  C 2.777263157894774 16.259399999999975  7.620473684210574 17.722800000000007  10.753842105263214 17.097299999999986  C 13.875578947368455 16.47449999999998  16.345052631579023 13.88159999999998  16.82731578947375 10.716299999999984  Z " fill-rule="nonzero" fill="#ffffff" stroke="none" fill-opacity="0" transform="matrix(1 0 0 1 609 17766 )" />
    <path d="M 16.82731578947375 10.716299999999984  C 16.886368421052623 10.330200000000007  16.91589473684211 8.36460000000001  16.91589473684211 7.9731000000000085  C 16.912315789473674 4.7583000000000055  14.855315789473691 1.8117000000000048  11.84363157894739 0.7280999999999977  C 8.834631578947391 -0.3546000000000049  3.815157894736851 0.6047999999999973  1.7867894736842231 3.0896999999999935  C -0.24157894736840477 5.57459999999999  -0.5055263157894716 10.743299999999985  1.1363157894737186 13.501799999999983  C 2.777263157894774 16.259399999999975  7.620473684210574 17.722800000000007  10.753842105263214 17.097299999999986  C 13.875578947368455 16.47449999999998  16.345052631579023 13.88159999999998  16.82731578947375 10.716299999999984  Z " stroke-width="2" stroke="#ffffff" fill="none" transform="matrix(1 0 0 1 609 17766 )" mask="url(#clip378)" />
  </g>
</svg>