<?xml version="1.0" encoding="utf-8"?>
<svg version="1.1" xmlns:xlink="http://www.w3.org/1999/xlink" width="9px" height="9px" xmlns="http://www.w3.org/2000/svg">
  <defs>
    <mask fill="white" id="clip260">
      <path d="M 8.796000000000006 5.399999999999977  C 8.810500000000005 5.303500000000014  8.784499999999994 4.008999999999986  8.839500000000001 3.9540000000000077  C 8.837000000000003 2.381500000000017  7.826000000000008 0.9405000000000143  6.343999999999994 0.4099999999999966  C 4.86399999999999 -0.12000000000000455  2.2889999999999873 0.3499999999999943  1.2914999999999992 1.5649999999999977  C 0.29349999999999454 2.780000000000001  0.1634999999999991 5.413499999999999  0.971500000000006 6.762499999999989  C 1.7790000000000106 8.11099999999999  4.266000000000005 8.826999999999998  5.808000000000007 8.520999999999987  C 7.345000000000013 8.21599999999998  8.558000000000007 6.947999999999979  8.796000000000006 5.399999999999977  Z " fill-rule="evenodd" />
    </mask>
  </defs>
  <g transform="matrix(1 0 0 1 -300 -11106 )">
    <path d="M 8.796000000000006 5.399999999999977  C 8.810500000000005 5.303500000000014  8.784499999999994 4.008999999999986  8.839500000000001 3.9540000000000077  C 8.837000000000003 2.381500000000017  7.826000000000008 0.9405000000000143  6.343999999999994 0.4099999999999966  C 4.86399999999999 -0.12000000000000455  2.2889999999999873 0.3499999999999943  1.2914999999999992 1.5649999999999977  C 0.29349999999999454 2.780000000000001  0.1634999999999991 5.413499999999999  0.971500000000006 6.762499999999989  C 1.7790000000000106 8.11099999999999  4.266000000000005 8.826999999999998  5.808000000000007 8.520999999999987  C 7.345000000000013 8.21599999999998  8.558000000000007 6.947999999999979  8.796000000000006 5.399999999999977  Z " fill-rule="nonzero" fill="#ffffff" stroke="none" fill-opacity="0" transform="matrix(1 0 0 1 300 11106 )" />
    <path d="M 8.796000000000006 5.399999999999977  C 8.810500000000005 5.303500000000014  8.784499999999994 4.008999999999986  8.839500000000001 3.9540000000000077  C 8.837000000000003 2.381500000000017  7.826000000000008 0.9405000000000143  6.343999999999994 0.4099999999999966  C 4.86399999999999 -0.12000000000000455  2.2889999999999873 0.3499999999999943  1.2914999999999992 1.5649999999999977  C 0.29349999999999454 2.780000000000001  0.1634999999999991 5.413499999999999  0.971500000000006 6.762499999999989  C 1.7790000000000106 8.11099999999999  4.266000000000005 8.826999999999998  5.808000000000007 8.520999999999987  C 7.345000000000013 8.21599999999998  8.558000000000007 6.947999999999979  8.796000000000006 5.399999999999977  Z " stroke-width="4" stroke="#ffffff" fill="none" transform="matrix(1 0 0 1 300 11106 )" mask="url(#clip260)" />
  </g>
</svg>