<?xml version="1.0" encoding="utf-8"?>
<svg version="1.1" xmlns:xlink="http://www.w3.org/1999/xlink" width="16px" height="16px" xmlns="http://www.w3.org/2000/svg">
  <defs>
    <mask fill="white" id="clip373">
      <path d="M 15.60977777777781 10.09688888888882  C 15.66044444444444 9.760888888888884  15.687111111111133 7.865777777777769  15.687111111111133 7.526222222222208  C 15.682666666666693 4.730666666666669  13.885333333333367 2.168888888888887  11.250666666666701 1.2257777777777443  C 8.619555555555609 0.28355555555552  4.0417777777778 1.1191111111110734  2.268444444444463 3.27911111111108  C 0.4942222222222578 5.439111111111085  0.26311111111115476 10.12088888888886  1.6995555555555864 12.519111111111064  C 3.13511111111115 14.9164444444444  7.556444444444474 16.189333333333302  10.29777777777781 15.645333333333282  C 13.030222222222266 15.103111111111048  15.1866666666667 12.848888888888824  15.60977777777781 10.09688888888882  Z " fill-rule="evenodd" />
    </mask>
  </defs>
  <g transform="matrix(1 0 0 1 -675 -17822 )">
    <path d="M 15.60977777777781 10.09688888888882  C 15.66044444444444 9.760888888888884  15.687111111111133 7.865777777777769  15.687111111111133 7.526222222222208  C 15.682666666666693 4.730666666666669  13.885333333333367 2.168888888888887  11.250666666666701 1.2257777777777443  C 8.619555555555609 0.28355555555552  4.0417777777778 1.1191111111110734  2.268444444444463 3.27911111111108  C 0.4942222222222578 5.439111111111085  0.26311111111115476 10.12088888888886  1.6995555555555864 12.519111111111064  C 3.13511111111115 14.9164444444444  7.556444444444474 16.189333333333302  10.29777777777781 15.645333333333282  C 13.030222222222266 15.103111111111048  15.1866666666667 12.848888888888824  15.60977777777781 10.09688888888882  Z " fill-rule="nonzero" fill="#ffffff" stroke="none" fill-opacity="0" transform="matrix(1 0 0 1 675 17822 )" />
    <path d="M 15.60977777777781 10.09688888888882  C 15.66044444444444 9.760888888888884  15.687111111111133 7.865777777777769  15.687111111111133 7.526222222222208  C 15.682666666666693 4.730666666666669  13.885333333333367 2.168888888888887  11.250666666666701 1.2257777777777443  C 8.619555555555609 0.28355555555552  4.0417777777778 1.1191111111110734  2.268444444444463 3.27911111111108  C 0.4942222222222578 5.439111111111085  0.26311111111115476 10.12088888888886  1.6995555555555864 12.519111111111064  C 3.13511111111115 14.9164444444444  7.556444444444474 16.189333333333302  10.29777777777781 15.645333333333282  C 13.030222222222266 15.103111111111048  15.1866666666667 12.848888888888824  15.60977777777781 10.09688888888882  Z " stroke-width="2" stroke="#ffffff" fill="none" transform="matrix(1 0 0 1 675 17822 )" mask="url(#clip373)" />
  </g>
</svg>