<?xml version="1.0" encoding="utf-8"?>
<svg version="1.1" xmlns:xlink="http://www.w3.org/1999/xlink" width="16px" height="16px" xmlns="http://www.w3.org/2000/svg">
  <defs>
    <mask fill="white" id="clip376">
      <path d="M 15.494222222222207 10.070222222222254  C 15.545777777777756 9.734222222222217  15.57155555555553 7.839111111111101  15.57155555555553 7.499555555555566  C 15.56711111111109 4.7040000000000015  13.769777777777765 2.1422222222222445  11.1351111111111 1.199111111111127  C 8.504000000000007 0.2568888888889028  3.9262222222221985 1.0924444444444563  2.152888888888861 3.2524444444444622  C 0.37866666666665577 5.412444444444469  0.14755555555555272 10.094222222222243  1.5839999999999843 12.492444444444471  C 3.0195555555555478 14.889777777777807  7.440888888888872 16.162666666666684  10.182222222222208 15.618666666666691  C 12.914666666666664 15.076444444444455  15.071111111111097 12.822222222222258  15.494222222222207 10.070222222222254  Z " fill-rule="evenodd" />
    </mask>
  </defs>
  <g transform="matrix(1 0 0 1 -651 -17757 )">
    <path d="M 15.494222222222207 10.070222222222254  C 15.545777777777756 9.734222222222217  15.57155555555553 7.839111111111101  15.57155555555553 7.499555555555566  C 15.56711111111109 4.7040000000000015  13.769777777777765 2.1422222222222445  11.1351111111111 1.199111111111127  C 8.504000000000007 0.2568888888889028  3.9262222222221985 1.0924444444444563  2.152888888888861 3.2524444444444622  C 0.37866666666665577 5.412444444444469  0.14755555555555272 10.094222222222243  1.5839999999999843 12.492444444444471  C 3.0195555555555478 14.889777777777807  7.440888888888872 16.162666666666684  10.182222222222208 15.618666666666691  C 12.914666666666664 15.076444444444455  15.071111111111097 12.822222222222258  15.494222222222207 10.070222222222254  Z " fill-rule="nonzero" fill="#ffffff" stroke="none" fill-opacity="0" transform="matrix(1 0 0 1 651 17757 )" />
    <path d="M 15.494222222222207 10.070222222222254  C 15.545777777777756 9.734222222222217  15.57155555555553 7.839111111111101  15.57155555555553 7.499555555555566  C 15.56711111111109 4.7040000000000015  13.769777777777765 2.1422222222222445  11.1351111111111 1.199111111111127  C 8.504000000000007 0.2568888888889028  3.9262222222221985 1.0924444444444563  2.152888888888861 3.2524444444444622  C 0.37866666666665577 5.412444444444469  0.14755555555555272 10.094222222222243  1.5839999999999843 12.492444444444471  C 3.0195555555555478 14.889777777777807  7.440888888888872 16.162666666666684  10.182222222222208 15.618666666666691  C 12.914666666666664 15.076444444444455  15.071111111111097 12.822222222222258  15.494222222222207 10.070222222222254  Z " stroke-width="2" stroke="#ffffff" fill="none" transform="matrix(1 0 0 1 651 17757 )" mask="url(#clip376)" />
  </g>
</svg>