<?xml version="1.0" encoding="utf-8"?>
<svg version="1.1" xmlns:xlink="http://www.w3.org/1999/xlink" width="18px" height="18px" xmlns="http://www.w3.org/2000/svg">
  <defs>
    <mask fill="white" id="clip370">
      <path d="M 17.687700000000067 10.61010000000004  C 17.746200000000016 10.223099999999983  17.77680000000001 8.25750000000001  17.77680000000001 7.866899999999987  C 17.773199999999992 4.652099999999984  15.704100000000011 1.7054999999999836  12.674700000000025 0.6218999999999767  C 9.648000000000025 -0.4608000000000004  4.599000000000012 0.49859999999997623  2.558700000000016 2.983499999999998  C 0.5184000000000196 5.4684000000000195  0.2529000000000053 10.637100000000016  1.904400000000038 13.395600000000014  C 3.555000000000041 16.15320000000003  8.426700000000052 17.61660000000001  11.57850000000006 16.991100000000017  C 14.718600000000038 16.36830000000001  17.20260000000008 13.775400000000035  17.687700000000067 10.61010000000004  Z " fill-rule="evenodd" />
    </mask>
  </defs>
  <g transform="matrix(1 0 0 1 -755 -17790 )">
    <path d="M 17.687700000000067 10.61010000000004  C 17.746200000000016 10.223099999999983  17.77680000000001 8.25750000000001  17.77680000000001 7.866899999999987  C 17.773199999999992 4.652099999999984  15.704100000000011 1.7054999999999836  12.674700000000025 0.6218999999999767  C 9.648000000000025 -0.4608000000000004  4.599000000000012 0.49859999999997623  2.558700000000016 2.983499999999998  C 0.5184000000000196 5.4684000000000195  0.2529000000000053 10.637100000000016  1.904400000000038 13.395600000000014  C 3.555000000000041 16.15320000000003  8.426700000000052 17.61660000000001  11.57850000000006 16.991100000000017  C 14.718600000000038 16.36830000000001  17.20260000000008 13.775400000000035  17.687700000000067 10.61010000000004  Z " fill-rule="nonzero" fill="#ffffff" stroke="none" fill-opacity="0" transform="matrix(1 0 0 1 755 17790 )" />
    <path d="M 17.687700000000067 10.61010000000004  C 17.746200000000016 10.223099999999983  17.77680000000001 8.25750000000001  17.77680000000001 7.866899999999987  C 17.773199999999992 4.652099999999984  15.704100000000011 1.7054999999999836  12.674700000000025 0.6218999999999767  C 9.648000000000025 -0.4608000000000004  4.599000000000012 0.49859999999997623  2.558700000000016 2.983499999999998  C 0.5184000000000196 5.4684000000000195  0.2529000000000053 10.637100000000016  1.904400000000038 13.395600000000014  C 3.555000000000041 16.15320000000003  8.426700000000052 17.61660000000001  11.57850000000006 16.991100000000017  C 14.718600000000038 16.36830000000001  17.20260000000008 13.775400000000035  17.687700000000067 10.61010000000004  Z " stroke-width="2" stroke="#ffffff" fill="none" transform="matrix(1 0 0 1 755 17790 )" mask="url(#clip370)" />
  </g>
</svg>