<?xml version="1.0" encoding="utf-8"?>
<svg version="1.1" xmlns:xlink="http://www.w3.org/1999/xlink" width="16px" height="16px" xmlns="http://www.w3.org/2000/svg">
  <defs>
    <mask fill="white" id="clip374">
      <path d="M 15.672888888888894 9.509333333333265  C 15.724444444444442 9.174222222222246  15.750222222222217 7.278222222222212  15.750222222222217 6.938666666666652  C 15.745777777777777 4.142222222222194  13.948444444444451 1.5813333333333301  11.313777777777785 0.6382222222221875  C 8.682666666666693 -0.3040000000000368  4.104888888888884 0.5315555555555167  2.331555555555547 2.6915555555555226  C 0.5573333333333418 4.851555555555529  0.3262222222222388 9.533333333333303  1.7626666666666704 11.931555555555507  C 3.198222222222234 14.328888888888843  7.619555555555558 15.601777777777746  10.360888888888894 15.057777777777725  C 13.09333333333335 14.51555555555549  15.249777777777783 12.261333333333267  15.672888888888894 9.509333333333265  Z " fill-rule="evenodd" />
    </mask>
  </defs>
  <g transform="matrix(1 0 0 1 -772 -17832 )">
    <path d="M 15.672888888888894 9.509333333333265  C 15.724444444444442 9.174222222222246  15.750222222222217 7.278222222222212  15.750222222222217 6.938666666666652  C 15.745777777777777 4.142222222222194  13.948444444444451 1.5813333333333301  11.313777777777785 0.6382222222221875  C 8.682666666666693 -0.3040000000000368  4.104888888888884 0.5315555555555167  2.331555555555547 2.6915555555555226  C 0.5573333333333418 4.851555555555529  0.3262222222222388 9.533333333333303  1.7626666666666704 11.931555555555507  C 3.198222222222234 14.328888888888843  7.619555555555558 15.601777777777746  10.360888888888894 15.057777777777725  C 13.09333333333335 14.51555555555549  15.249777777777783 12.261333333333267  15.672888888888894 9.509333333333265  Z " fill-rule="nonzero" fill="#ffffff" stroke="none" fill-opacity="0" transform="matrix(1 0 0 1 772 17832 )" />
    <path d="M 15.672888888888894 9.509333333333265  C 15.724444444444442 9.174222222222246  15.750222222222217 7.278222222222212  15.750222222222217 6.938666666666652  C 15.745777777777777 4.142222222222194  13.948444444444451 1.5813333333333301  11.313777777777785 0.6382222222221875  C 8.682666666666693 -0.3040000000000368  4.104888888888884 0.5315555555555167  2.331555555555547 2.6915555555555226  C 0.5573333333333418 4.851555555555529  0.3262222222222388 9.533333333333303  1.7626666666666704 11.931555555555507  C 3.198222222222234 14.328888888888843  7.619555555555558 15.601777777777746  10.360888888888894 15.057777777777725  C 13.09333333333335 14.51555555555549  15.249777777777783 12.261333333333267  15.672888888888894 9.509333333333265  Z " stroke-width="2" stroke="#ffffff" fill="none" transform="matrix(1 0 0 1 772 17832 )" mask="url(#clip374)" />
  </g>
</svg>