<?xml version="1.0" encoding="utf-8"?>
<svg version="1.1" xmlns:xlink="http://www.w3.org/1999/xlink" width="8px" height="8px" xmlns="http://www.w3.org/2000/svg">
  <defs>
    <mask fill="white" id="clip257">
      <path d="M 7.598500000000001 4.7941333333333205  C 7.622500000000002 4.625600000000001  7.634500000000003 3.522666666666676  7.634500000000003 3.353066666666655  C 7.633500000000026 1.9562666666666397  6.789499999999975 0.6762666666666519  5.556500000000028 0.20533333333332848  C 4.324000000000012 -0.26506666666667417  2.0335000000000036 0.151999999999983  1.2030000000000314 1.2314666666666503  C 0.3720000000000141 2.3109333333333173  0.26400000000001 4.805866666666649  0.9365000000000236 6.004266666666656  C 1.6090000000000373 7.202133333333313  3.826000000000022 7.837866666666651  5.110500000000002 7.566399999999976  C 6.389999999999986 7.295466666666653  7.400500000000022 6.16906666666664  7.598500000000001 4.7941333333333205  Z " fill-rule="evenodd" />
    </mask>
  </defs>
  <g transform="matrix(1 0 0 1 -463 -11108 )">
    <path d="M 7.598500000000001 4.7941333333333205  C 7.622500000000002 4.625600000000001  7.634500000000003 3.522666666666676  7.634500000000003 3.353066666666655  C 7.633500000000026 1.9562666666666397  6.789499999999975 0.6762666666666519  5.556500000000028 0.20533333333332848  C 4.324000000000012 -0.26506666666667417  2.0335000000000036 0.151999999999983  1.2030000000000314 1.2314666666666503  C 0.3720000000000141 2.3109333333333173  0.26400000000001 4.805866666666649  0.9365000000000236 6.004266666666656  C 1.6090000000000373 7.202133333333313  3.826000000000022 7.837866666666651  5.110500000000002 7.566399999999976  C 6.389999999999986 7.295466666666653  7.400500000000022 6.16906666666664  7.598500000000001 4.7941333333333205  Z " fill-rule="nonzero" fill="#ffffff" stroke="none" fill-opacity="0" transform="matrix(1 0 0 1 463 11108 )" />
    <path d="M 7.598500000000001 4.7941333333333205  C 7.622500000000002 4.625600000000001  7.634500000000003 3.522666666666676  7.634500000000003 3.353066666666655  C 7.633500000000026 1.9562666666666397  6.789499999999975 0.6762666666666519  5.556500000000028 0.20533333333332848  C 4.324000000000012 -0.26506666666667417  2.0335000000000036 0.151999999999983  1.2030000000000314 1.2314666666666503  C 0.3720000000000141 2.3109333333333173  0.26400000000001 4.805866666666649  0.9365000000000236 6.004266666666656  C 1.6090000000000373 7.202133333333313  3.826000000000022 7.837866666666651  5.110500000000002 7.566399999999976  C 6.389999999999986 7.295466666666653  7.400500000000022 6.16906666666664  7.598500000000001 4.7941333333333205  Z " stroke-width="4" stroke="#ffffff" fill="none" transform="matrix(1 0 0 1 463 11108 )" mask="url(#clip257)" />
  </g>
</svg>