<?xml version="1.0" encoding="utf-8"?>
<svg version="1.1" xmlns:xlink="http://www.w3.org/1999/xlink" width="10px" height="10px" xmlns="http://www.w3.org/2000/svg">
  <defs>
    <mask fill="white" id="clip258">
      <path d="M 9.826500000000038 5.894500000000022  C 9.859000000000009 5.67949999999999  9.876000000000005 4.587500000000006  9.876000000000005 4.370499999999993  C 9.873999999999995 2.5844999999999914  8.724500000000006 0.9474999999999909  7.041500000000013 0.34549999999998704  C 5.360000000000014 -0.2560000000000002  2.555000000000007 0.2769999999999868  1.4215000000000089 1.6574999999999989  C 0.2880000000000109 3.038000000000011  0.14050000000000296 5.909500000000008  1.0580000000000211 7.442000000000007  C 1.9750000000000227 8.974000000000018  4.681500000000028 9.787000000000006  6.432500000000033 9.43950000000001  C 8.177000000000021 9.093500000000006  9.557000000000045 7.65300000000002  9.826500000000038 5.894500000000022  Z " fill-rule="evenodd" />
    </mask>
  </defs>
  <g transform="matrix(1 0 0 1 -430 -11080 )">
    <path d="M 9.826500000000038 5.894500000000022  C 9.859000000000009 5.67949999999999  9.876000000000005 4.587500000000006  9.876000000000005 4.370499999999993  C 9.873999999999995 2.5844999999999914  8.724500000000006 0.9474999999999909  7.041500000000013 0.34549999999998704  C 5.360000000000014 -0.2560000000000002  2.555000000000007 0.2769999999999868  1.4215000000000089 1.6574999999999989  C 0.2880000000000109 3.038000000000011  0.14050000000000296 5.909500000000008  1.0580000000000211 7.442000000000007  C 1.9750000000000227 8.974000000000018  4.681500000000028 9.787000000000006  6.432500000000033 9.43950000000001  C 8.177000000000021 9.093500000000006  9.557000000000045 7.65300000000002  9.826500000000038 5.894500000000022  Z " fill-rule="nonzero" fill="#ffffff" stroke="none" fill-opacity="0" transform="matrix(1 0 0 1 430 11080 )" />
    <path d="M 9.826500000000038 5.894500000000022  C 9.859000000000009 5.67949999999999  9.876000000000005 4.587500000000006  9.876000000000005 4.370499999999993  C 9.873999999999995 2.5844999999999914  8.724500000000006 0.9474999999999909  7.041500000000013 0.34549999999998704  C 5.360000000000014 -0.2560000000000002  2.555000000000007 0.2769999999999868  1.4215000000000089 1.6574999999999989  C 0.2880000000000109 3.038000000000011  0.14050000000000296 5.909500000000008  1.0580000000000211 7.442000000000007  C 1.9750000000000227 8.974000000000018  4.681500000000028 9.787000000000006  6.432500000000033 9.43950000000001  C 8.177000000000021 9.093500000000006  9.557000000000045 7.65300000000002  9.826500000000038 5.894500000000022  Z " stroke-width="4" stroke="#ffffff" fill="none" transform="matrix(1 0 0 1 430 11080 )" mask="url(#clip258)" />
  </g>
</svg>