<?xml version="1.0" encoding="utf-8"?>
<svg version="1.1" xmlns:xlink="http://www.w3.org/1999/xlink" width="16px" height="15px" xmlns="http://www.w3.org/2000/svg">
  <defs>
    <mask fill="white" id="clip377">
      <path d="M 15.165333333333365 9.285882352941126  C 15.216888888888914 8.952352941176486  15.242666666666688 7.071176470588243  15.242666666666688 6.734117647058827  C 15.238222222222248 3.9591176470588443  13.440888888888923 1.4161764705882511  10.806222222222257 0.4799999999999847  C 8.175111111111164 -0.45529411764707606  3.597333333333356 0.37411764705880424  1.8240000000000185 2.518235294117634  C 0.04977777777781335 4.662352941176463  -0.1813333333332897 9.30970588235293  1.255111111111142 11.690294117647028  C 2.6906666666667056 14.069999999999972  7.112000000000029 15.333529411764694  9.853333333333365 14.793529411764673  C 12.585777777777821 14.255294117647015  14.742222222222255 12.017647058823485  15.165333333333365 9.285882352941126  Z " fill-rule="evenodd" />
    </mask>
  </defs>
  <g transform="matrix(1 0 0 1 -583 -17788 )">
    <path d="M 15.165333333333365 9.285882352941126  C 15.216888888888914 8.952352941176486  15.242666666666688 7.071176470588243  15.242666666666688 6.734117647058827  C 15.238222222222248 3.9591176470588443  13.440888888888923 1.4161764705882511  10.806222222222257 0.4799999999999847  C 8.175111111111164 -0.45529411764707606  3.597333333333356 0.37411764705880424  1.8240000000000185 2.518235294117634  C 0.04977777777781335 4.662352941176463  -0.1813333333332897 9.30970588235293  1.255111111111142 11.690294117647028  C 2.6906666666667056 14.069999999999972  7.112000000000029 15.333529411764694  9.853333333333365 14.793529411764673  C 12.585777777777821 14.255294117647015  14.742222222222255 12.017647058823485  15.165333333333365 9.285882352941126  Z " fill-rule="nonzero" fill="#ffffff" stroke="none" fill-opacity="0" transform="matrix(1 0 0 1 583 17788 )" />
    <path d="M 15.165333333333365 9.285882352941126  C 15.216888888888914 8.952352941176486  15.242666666666688 7.071176470588243  15.242666666666688 6.734117647058827  C 15.238222222222248 3.9591176470588443  13.440888888888923 1.4161764705882511  10.806222222222257 0.4799999999999847  C 8.175111111111164 -0.45529411764707606  3.597333333333356 0.37411764705880424  1.8240000000000185 2.518235294117634  C 0.04977777777781335 4.662352941176463  -0.1813333333332897 9.30970588235293  1.255111111111142 11.690294117647028  C 2.6906666666667056 14.069999999999972  7.112000000000029 15.333529411764694  9.853333333333365 14.793529411764673  C 12.585777777777821 14.255294117647015  14.742222222222255 12.017647058823485  15.165333333333365 9.285882352941126  Z " stroke-width="2" stroke="#ffffff" fill="none" transform="matrix(1 0 0 1 583 17788 )" mask="url(#clip377)" />
  </g>
</svg>