<?xml version="1.0" encoding="utf-8"?>
<svg version="1.1" xmlns:xlink="http://www.w3.org/1999/xlink" width="16px" height="16px" xmlns="http://www.w3.org/2000/svg">
  <defs>
    <mask fill="white" id="clip375">
      <path d="M 15.01866666666668 9.45155555555559  C 15.035555555555574 9.33955555555556  15.183999999999994 6.924444444444437  15.096000000000004 6.880888888888901  C 15.091555555555564 4.085333333333336  13.294222222222238 1.5235555555555795  10.659555555555572 0.5804444444444622  C 8.02844444444448 -0.361777777777762  3.450666666666671 0.4737777777777915  1.6773333333333338 2.6337777777777975  C -0.09688888888887151 4.7937777777778035  -0.32799999999997453 9.475555555555578  1.108444444444457 11.873777777777807  C 2.5440000000000205 14.271111111111143  6.965333333333344 15.54400000000002  9.706666666666681 15.000000000000025  C 12.439111111111137 14.45777777777779  14.59555555555557 12.203555555555592  15.01866666666668 9.45155555555559  Z " fill-rule="evenodd" />
    </mask>
  </defs>
  <g transform="matrix(1 0 0 1 -692 -17757 )">
    <path d="M 15.01866666666668 9.45155555555559  C 15.035555555555574 9.33955555555556  15.183999999999994 6.924444444444437  15.096000000000004 6.880888888888901  C 15.091555555555564 4.085333333333336  13.294222222222238 1.5235555555555795  10.659555555555572 0.5804444444444622  C 8.02844444444448 -0.361777777777762  3.450666666666671 0.4737777777777915  1.6773333333333338 2.6337777777777975  C -0.09688888888887151 4.7937777777778035  -0.32799999999997453 9.475555555555578  1.108444444444457 11.873777777777807  C 2.5440000000000205 14.271111111111143  6.965333333333344 15.54400000000002  9.706666666666681 15.000000000000025  C 12.439111111111137 14.45777777777779  14.59555555555557 12.203555555555592  15.01866666666668 9.45155555555559  Z " fill-rule="nonzero" fill="#ffffff" stroke="none" fill-opacity="0" transform="matrix(1 0 0 1 692 17757 )" />
    <path d="M 15.01866666666668 9.45155555555559  C 15.035555555555574 9.33955555555556  15.183999999999994 6.924444444444437  15.096000000000004 6.880888888888901  C 15.091555555555564 4.085333333333336  13.294222222222238 1.5235555555555795  10.659555555555572 0.5804444444444622  C 8.02844444444448 -0.361777777777762  3.450666666666671 0.4737777777777915  1.6773333333333338 2.6337777777777975  C -0.09688888888887151 4.7937777777778035  -0.32799999999997453 9.475555555555578  1.108444444444457 11.873777777777807  C 2.5440000000000205 14.271111111111143  6.965333333333344 15.54400000000002  9.706666666666681 15.000000000000025  C 12.439111111111137 14.45777777777779  14.59555555555557 12.203555555555592  15.01866666666668 9.45155555555559  Z " stroke-width="2" stroke="#ffffff" fill="none" transform="matrix(1 0 0 1 692 17757 )" mask="url(#clip375)" />
  </g>
</svg>