<?xml version="1.0" encoding="utf-8"?>
<svg version="1.1" xmlns:xlink="http://www.w3.org/1999/xlink" width="9px" height="9px" xmlns="http://www.w3.org/2000/svg">
  <defs>
    <mask fill="white" id="clip262">
      <path d="M 8.816000000000003 5.348999999999961  C 8.844999999999999 5.160500000000013  8.859499999999997 4.093999999999994  8.859499999999997 3.9029999999999916  C 8.857 2.329999999999984  7.846000000000004 0.8894999999999982  6.364000000000004 0.35899999999998045  C 4.8840000000000146 -0.1710000000000207  2.3089999999999975 0.29899999999997817  1.3114999999999952 1.5139999999999816  C 0.3135000000000048 2.728999999999985  0.18350000000000932 5.362499999999983  0.991500000000002 6.7114999999999725  C 1.7990000000000066 8.059999999999974  4.286000000000001 8.775999999999982  5.828000000000003 8.46999999999997  C 7.365000000000009 8.164999999999964  8.578000000000003 6.896999999999963  8.816000000000003 5.348999999999961  Z " fill-rule="evenodd" />
    </mask>
  </defs>
  <g transform="matrix(1 0 0 1 -440 -11103 )">
    <path d="M 8.816000000000003 5.348999999999961  C 8.844999999999999 5.160500000000013  8.859499999999997 4.093999999999994  8.859499999999997 3.9029999999999916  C 8.857 2.329999999999984  7.846000000000004 0.8894999999999982  6.364000000000004 0.35899999999998045  C 4.8840000000000146 -0.1710000000000207  2.3089999999999975 0.29899999999997817  1.3114999999999952 1.5139999999999816  C 0.3135000000000048 2.728999999999985  0.18350000000000932 5.362499999999983  0.991500000000002 6.7114999999999725  C 1.7990000000000066 8.059999999999974  4.286000000000001 8.775999999999982  5.828000000000003 8.46999999999997  C 7.365000000000009 8.164999999999964  8.578000000000003 6.896999999999963  8.816000000000003 5.348999999999961  Z " fill-rule="nonzero" fill="#ffffff" stroke="none" fill-opacity="0" transform="matrix(1 0 0 1 440 11103 )" />
    <path d="M 8.816000000000003 5.348999999999961  C 8.844999999999999 5.160500000000013  8.859499999999997 4.093999999999994  8.859499999999997 3.9029999999999916  C 8.857 2.329999999999984  7.846000000000004 0.8894999999999982  6.364000000000004 0.35899999999998045  C 4.8840000000000146 -0.1710000000000207  2.3089999999999975 0.29899999999997817  1.3114999999999952 1.5139999999999816  C 0.3135000000000048 2.728999999999985  0.18350000000000932 5.362499999999983  0.991500000000002 6.7114999999999725  C 1.7990000000000066 8.059999999999974  4.286000000000001 8.775999999999982  5.828000000000003 8.46999999999997  C 7.365000000000009 8.164999999999964  8.578000000000003 6.896999999999963  8.816000000000003 5.348999999999961  Z " stroke-width="4" stroke="#ffffff" fill="none" transform="matrix(1 0 0 1 440 11103 )" mask="url(#clip262)" />
  </g>
</svg>