<?xml version="1.0" encoding="utf-8"?>
<svg version="1.1" xmlns:xlink="http://www.w3.org/1999/xlink" width="16px" height="16px" xmlns="http://www.w3.org/2000/svg">
  <defs>
    <mask fill="white" id="clip372">
      <path d="M 15.637333333333345 9.599999999999959  C 15.66311111111112 9.42844444444447  15.616888888888878 7.127111111111087  15.714666666666668 7.029333333333347  C 15.710222222222228 4.233777777777807  13.912888888888903 1.6720000000000255  11.278222222222212 0.7288888888888828  C 8.647111111111094 -0.21333333333334142  4.069333333333311 0.6222222222222121  2.2959999999999985 2.7822222222222184  C 0.5217777777777681 4.942222222222224  0.2906666666666651 9.623999999999999  1.727111111111122 12.022222222222203  C 3.1626666666666856 14.419555555555538  7.584000000000009 15.69244444444444  10.325333333333345 15.14844444444442  C 13.057777777777801 14.606222222222186  15.214222222222235 12.351999999999963  15.637333333333345 9.599999999999959  Z " fill-rule="evenodd" />
    </mask>
  </defs>
  <g transform="matrix(1 0 0 1 -526 -17837 )">
    <path d="M 15.637333333333345 9.599999999999959  C 15.66311111111112 9.42844444444447  15.616888888888878 7.127111111111087  15.714666666666668 7.029333333333347  C 15.710222222222228 4.233777777777807  13.912888888888903 1.6720000000000255  11.278222222222212 0.7288888888888828  C 8.647111111111094 -0.21333333333334142  4.069333333333311 0.6222222222222121  2.2959999999999985 2.7822222222222184  C 0.5217777777777681 4.942222222222224  0.2906666666666651 9.623999999999999  1.727111111111122 12.022222222222203  C 3.1626666666666856 14.419555555555538  7.584000000000009 15.69244444444444  10.325333333333345 15.14844444444442  C 13.057777777777801 14.606222222222186  15.214222222222235 12.351999999999963  15.637333333333345 9.599999999999959  Z " fill-rule="nonzero" fill="#ffffff" stroke="none" fill-opacity="0" transform="matrix(1 0 0 1 526 17837 )" />
    <path d="M 15.637333333333345 9.599999999999959  C 15.66311111111112 9.42844444444447  15.616888888888878 7.127111111111087  15.714666666666668 7.029333333333347  C 15.710222222222228 4.233777777777807  13.912888888888903 1.6720000000000255  11.278222222222212 0.7288888888888828  C 8.647111111111094 -0.21333333333334142  4.069333333333311 0.6222222222222121  2.2959999999999985 2.7822222222222184  C 0.5217777777777681 4.942222222222224  0.2906666666666651 9.623999999999999  1.727111111111122 12.022222222222203  C 3.1626666666666856 14.419555555555538  7.584000000000009 15.69244444444444  10.325333333333345 15.14844444444442  C 13.057777777777801 14.606222222222186  15.214222222222235 12.351999999999963  15.637333333333345 9.599999999999959  Z " stroke-width="2" stroke="#ffffff" fill="none" transform="matrix(1 0 0 1 526 17837 )" mask="url(#clip372)" />
  </g>
</svg>