<?xml version="1.0" encoding="utf-8"?>
<svg version="1.1" xmlns:xlink="http://www.w3.org/1999/xlink" width="9px" height="9px" xmlns="http://www.w3.org/2000/svg">
  <defs>
    <mask fill="white" id="clip261">
      <path d="M 8.780500000000018 5.679499999999962  C 8.808999999999997 5.490499999999997  8.824000000000012 4.424499999999995  8.824000000000012 4.233499999999992  C 8.821500000000015 2.6610000000000014  7.810500000000019 1.2199999999999989  6.3285000000000196 0.6894999999999811  C 4.84850000000003 0.15949999999998  2.2735000000000127 0.6294999999999789  1.2760000000000105 1.8444999999999823  C 0.27800000000002 3.0594999999999857  0.14800000000002456 5.692999999999984  0.9560000000000173 7.041999999999973  C 1.7635000000000218 8.390499999999975  4.250500000000017 9.106499999999983  5.792500000000018 8.800499999999971  C 7.329500000000024 8.495499999999964  8.542500000000018 7.227499999999964  8.780500000000018 5.679499999999962  Z " fill-rule="evenodd" />
    </mask>
  </defs>
  <g transform="matrix(1 0 0 1 -384 -11098 )">
    <path d="M 8.780500000000018 5.679499999999962  C 8.808999999999997 5.490499999999997  8.824000000000012 4.424499999999995  8.824000000000012 4.233499999999992  C 8.821500000000015 2.6610000000000014  7.810500000000019 1.2199999999999989  6.3285000000000196 0.6894999999999811  C 4.84850000000003 0.15949999999998  2.2735000000000127 0.6294999999999789  1.2760000000000105 1.8444999999999823  C 0.27800000000002 3.0594999999999857  0.14800000000002456 5.692999999999984  0.9560000000000173 7.041999999999973  C 1.7635000000000218 8.390499999999975  4.250500000000017 9.106499999999983  5.792500000000018 8.800499999999971  C 7.329500000000024 8.495499999999964  8.542500000000018 7.227499999999964  8.780500000000018 5.679499999999962  Z " fill-rule="nonzero" fill="#ffffff" stroke="none" fill-opacity="0" transform="matrix(1 0 0 1 384 11098 )" />
    <path d="M 8.780500000000018 5.679499999999962  C 8.808999999999997 5.490499999999997  8.824000000000012 4.424499999999995  8.824000000000012 4.233499999999992  C 8.821500000000015 2.6610000000000014  7.810500000000019 1.2199999999999989  6.3285000000000196 0.6894999999999811  C 4.84850000000003 0.15949999999998  2.2735000000000127 0.6294999999999789  1.2760000000000105 1.8444999999999823  C 0.27800000000002 3.0594999999999857  0.14800000000002456 5.692999999999984  0.9560000000000173 7.041999999999973  C 1.7635000000000218 8.390499999999975  4.250500000000017 9.106499999999983  5.792500000000018 8.800499999999971  C 7.329500000000024 8.495499999999964  8.542500000000018 7.227499999999964  8.780500000000018 5.679499999999962  Z " stroke-width="4" stroke="#ffffff" fill="none" transform="matrix(1 0 0 1 384 11098 )" mask="url(#clip261)" />
  </g>
</svg>