<?xml version="1.0" encoding="utf-8"?>
<svg version="1.1" xmlns:xlink="http://www.w3.org/1999/xlink" width="10px" height="10px" xmlns="http://www.w3.org/2000/svg">
  <defs>
    <mask fill="white" id="clip266">
      <path d="M 9.898421052631617 5.953499999999991  C 9.933157894736837 5.739000000000004  9.950526315789476 4.647000000000006  9.950526315789476 4.429500000000004  C 9.948421052631572 2.643500000000003  8.738421052631583 1.0065000000000026  6.96684210526317 0.40449999999999875  C 5.196842105263171 -0.19700000000000273  2.2442105263157948 0.3359999999999985  1.0510526315789548 1.7164999999999964  C -0.14210526315788516 3.096999999999994  -0.2973684210526304 5.968499999999992  0.6684210526315992 7.500999999999991  C 1.6336842105263378 9.032999999999987  4.482631578947396 9.846000000000004  6.325789473684243 9.498499999999993  C 8.162105263157915 9.15249999999999  9.614736842105309 7.711999999999989  9.898421052631617 5.953499999999991  Z " fill-rule="evenodd" />
    </mask>
  </defs>
  <g transform="matrix(1 0 0 1 -347 -11066 )">
    <path d="M 9.898421052631617 5.953499999999991  C 9.933157894736837 5.739000000000004  9.950526315789476 4.647000000000006  9.950526315789476 4.429500000000004  C 9.948421052631572 2.643500000000003  8.738421052631583 1.0065000000000026  6.96684210526317 0.40449999999999875  C 5.196842105263171 -0.19700000000000273  2.2442105263157948 0.3359999999999985  1.0510526315789548 1.7164999999999964  C -0.14210526315788516 3.096999999999994  -0.2973684210526304 5.968499999999992  0.6684210526315992 7.500999999999991  C 1.6336842105263378 9.032999999999987  4.482631578947396 9.846000000000004  6.325789473684243 9.498499999999993  C 8.162105263157915 9.15249999999999  9.614736842105309 7.711999999999989  9.898421052631617 5.953499999999991  Z " fill-rule="nonzero" fill="#ffffff" stroke="none" fill-opacity="0" transform="matrix(1 0 0 1 347 11066 )" />
    <path d="M 9.898421052631617 5.953499999999991  C 9.933157894736837 5.739000000000004  9.950526315789476 4.647000000000006  9.950526315789476 4.429500000000004  C 9.948421052631572 2.643500000000003  8.738421052631583 1.0065000000000026  6.96684210526317 0.40449999999999875  C 5.196842105263171 -0.19700000000000273  2.2442105263157948 0.3359999999999985  1.0510526315789548 1.7164999999999964  C -0.14210526315788516 3.096999999999994  -0.2973684210526304 5.968499999999992  0.6684210526315992 7.500999999999991  C 1.6336842105263378 9.032999999999987  4.482631578947396 9.846000000000004  6.325789473684243 9.498499999999993  C 8.162105263157915 9.15249999999999  9.614736842105309 7.711999999999989  9.898421052631617 5.953499999999991  Z " stroke-width="4" stroke="#ffffff" fill="none" transform="matrix(1 0 0 1 347 11066 )" mask="url(#clip266)" />
  </g>
</svg>