<?xml version="1.0" encoding="utf-8"?>
<svg version="1.1" xmlns:xlink="http://www.w3.org/1999/xlink" width="9px" height="9px" xmlns="http://www.w3.org/2000/svg">
  <defs>
    <mask fill="white" id="clip265">
      <path d="M 8.530500000000018 5.571529411764676  C 8.559500000000014 5.371411764705891  8.574000000000012 4.242705882352946  8.574000000000012 4.040470588235297  C 8.571500000000015 2.3754705882353067  7.560500000000019 0.8497058823529507  6.0785000000000196 0.2879999999999908  C 4.59850000000003 -0.2731764705882456  2.0235000000000127 0.22447058823528254  1.0260000000000105 1.5109411764705802  C 0.02800000000002001 2.797411764705878  -0.10199999999997544 5.585823529411758  0.7060000000000173 7.014176470588217  C 1.5135000000000218 8.441999999999984  4.000500000000017 9.200117647058816  5.542500000000018 8.876117647058804  C 7.079500000000024 8.553176470588209  8.292500000000018 7.21058823529409  8.530500000000018 5.571529411764676  Z " fill-rule="evenodd" />
    </mask>
  </defs>
  <g transform="matrix(1 0 0 1 -332 -11079 )">
    <path d="M 8.530500000000018 5.571529411764676  C 8.559500000000014 5.371411764705891  8.574000000000012 4.242705882352946  8.574000000000012 4.040470588235297  C 8.571500000000015 2.3754705882353067  7.560500000000019 0.8497058823529507  6.0785000000000196 0.2879999999999908  C 4.59850000000003 -0.2731764705882456  2.0235000000000127 0.22447058823528254  1.0260000000000105 1.5109411764705802  C 0.02800000000002001 2.797411764705878  -0.10199999999997544 5.585823529411758  0.7060000000000173 7.014176470588217  C 1.5135000000000218 8.441999999999984  4.000500000000017 9.200117647058816  5.542500000000018 8.876117647058804  C 7.079500000000024 8.553176470588209  8.292500000000018 7.21058823529409  8.530500000000018 5.571529411764676  Z " fill-rule="nonzero" fill="#ffffff" stroke="none" fill-opacity="0" transform="matrix(1 0 0 1 332 11079 )" />
    <path d="M 8.530500000000018 5.571529411764676  C 8.559500000000014 5.371411764705891  8.574000000000012 4.242705882352946  8.574000000000012 4.040470588235297  C 8.571500000000015 2.3754705882353067  7.560500000000019 0.8497058823529507  6.0785000000000196 0.2879999999999908  C 4.59850000000003 -0.2731764705882456  2.0235000000000127 0.22447058823528254  1.0260000000000105 1.5109411764705802  C 0.02800000000002001 2.797411764705878  -0.10199999999997544 5.585823529411758  0.7060000000000173 7.014176470588217  C 1.5135000000000218 8.441999999999984  4.000500000000017 9.200117647058816  5.542500000000018 8.876117647058804  C 7.079500000000024 8.553176470588209  8.292500000000018 7.21058823529409  8.530500000000018 5.571529411764676  Z " stroke-width="4" stroke="#ffffff" fill="none" transform="matrix(1 0 0 1 332 11079 )" mask="url(#clip265)" />
  </g>
</svg>