<?xml version="1.0" encoding="utf-8"?>
<svg version="1.1" xmlns:xlink="http://www.w3.org/1999/xlink" width="8px" height="8px" xmlns="http://www.w3.org/2000/svg">
  <defs>
    <mask fill="white" id="clip259">
      <path d="M 7.791466666666656 4.906666666666661  C 7.8170666666666575 4.738133333333341  7.829866666666658 3.635199999999986  7.829866666666658 3.465599999999995  C 7.828799999999986 2.06879999999998  6.928533333333325 0.788799999999992  5.613333333333321 0.31786666666666863  C 4.2986666666666675 -0.15253333333333405  1.8554666666666586 0.26453333333332313  0.9695999999999912 1.3439999999999903  C 0.08320000000000315 2.4234666666666573  -0.032000000000001215 4.9183999999999894  0.6853333333333164 6.116799999999997  C 1.4026666666666643 7.314666666666653  3.767466666666648 7.95039999999999  5.13759999999999 7.678933333333316  C 6.502400000000004 7.407999999999992  7.580266666666648 6.2815999999999805  7.791466666666656 4.906666666666661  Z " fill-rule="evenodd" />
    </mask>
  </defs>
  <g transform="matrix(1 0 0 1 -395 -11087 )">
    <path d="M 7.791466666666656 4.906666666666661  C 7.8170666666666575 4.738133333333341  7.829866666666658 3.635199999999986  7.829866666666658 3.465599999999995  C 7.828799999999986 2.06879999999998  6.928533333333325 0.788799999999992  5.613333333333321 0.31786666666666863  C 4.2986666666666675 -0.15253333333333405  1.8554666666666586 0.26453333333332313  0.9695999999999912 1.3439999999999903  C 0.08320000000000315 2.4234666666666573  -0.032000000000001215 4.9183999999999894  0.6853333333333164 6.116799999999997  C 1.4026666666666643 7.314666666666653  3.767466666666648 7.95039999999999  5.13759999999999 7.678933333333316  C 6.502400000000004 7.407999999999992  7.580266666666648 6.2815999999999805  7.791466666666656 4.906666666666661  Z " fill-rule="nonzero" fill="#ffffff" stroke="none" fill-opacity="0" transform="matrix(1 0 0 1 395 11087 )" />
    <path d="M 7.791466666666656 4.906666666666661  C 7.8170666666666575 4.738133333333341  7.829866666666658 3.635199999999986  7.829866666666658 3.465599999999995  C 7.828799999999986 2.06879999999998  6.928533333333325 0.788799999999992  5.613333333333321 0.31786666666666863  C 4.2986666666666675 -0.15253333333333405  1.8554666666666586 0.26453333333332313  0.9695999999999912 1.3439999999999903  C 0.08320000000000315 2.4234666666666573  -0.032000000000001215 4.9183999999999894  0.6853333333333164 6.116799999999997  C 1.4026666666666643 7.314666666666653  3.767466666666648 7.95039999999999  5.13759999999999 7.678933333333316  C 6.502400000000004 7.407999999999992  7.580266666666648 6.2815999999999805  7.791466666666656 4.906666666666661  Z " stroke-width="4" stroke="#ffffff" fill="none" transform="matrix(1 0 0 1 395 11087 )" mask="url(#clip259)" />
  </g>
</svg>