<?xml version="1.0" encoding="utf-8"?>
<svg version="1.1" xmlns:xlink="http://www.w3.org/1999/xlink" width="13px" height="13px" xmlns="http://www.w3.org/2000/svg">
  <defs>
    <mask fill="white" id="clip371">
      <path d="M 12.661133333333316 7.973333333333324  C 12.702733333333319 7.6994666666666784  12.72353333333332 5.907199999999977  12.72353333333332 5.631599999999992  C 12.721799999999977 3.3617999999999677  11.258866666666654 1.281799999999987  9.121666666666647 0.5165333333333365  C 6.985333333333335 -0.24786666666666782  3.01513333333332 0.4298666666666501  1.5755999999999857 2.183999999999984  C 0.13520000000000512 3.938133333333318  -0.052000000000001975 7.992399999999983  1.113666666666639 9.939799999999995  C 2.2793333333333297 11.886333333333312  6.122133333333303 12.919399999999984  8.348599999999983 12.47826666666664  C 10.566400000000007 12.037999999999988  12.317933333333302 10.20759999999997  12.661133333333316 7.973333333333324  Z " fill-rule="evenodd" />
    </mask>
  </defs>
  <g transform="matrix(1 0 0 1 -694 -17803 )">
    <path d="M 12.661133333333316 7.973333333333324  C 12.702733333333319 7.6994666666666784  12.72353333333332 5.907199999999977  12.72353333333332 5.631599999999992  C 12.721799999999977 3.3617999999999677  11.258866666666654 1.281799999999987  9.121666666666647 0.5165333333333365  C 6.985333333333335 -0.24786666666666782  3.01513333333332 0.4298666666666501  1.5755999999999857 2.183999999999984  C 0.13520000000000512 3.938133333333318  -0.052000000000001975 7.992399999999983  1.113666666666639 9.939799999999995  C 2.2793333333333297 11.886333333333312  6.122133333333303 12.919399999999984  8.348599999999983 12.47826666666664  C 10.566400000000007 12.037999999999988  12.317933333333302 10.20759999999997  12.661133333333316 7.973333333333324  Z " fill-rule="nonzero" fill="#ffffff" stroke="none" fill-opacity="0" transform="matrix(1 0 0 1 694 17803 )" />
    <path d="M 12.661133333333316 7.973333333333324  C 12.702733333333319 7.6994666666666784  12.72353333333332 5.907199999999977  12.72353333333332 5.631599999999992  C 12.721799999999977 3.3617999999999677  11.258866666666654 1.281799999999987  9.121666666666647 0.5165333333333365  C 6.985333333333335 -0.24786666666666782  3.01513333333332 0.4298666666666501  1.5755999999999857 2.183999999999984  C 0.13520000000000512 3.938133333333318  -0.052000000000001975 7.992399999999983  1.113666666666639 9.939799999999995  C 2.2793333333333297 11.886333333333312  6.122133333333303 12.919399999999984  8.348599999999983 12.47826666666664  C 10.566400000000007 12.037999999999988  12.317933333333302 10.20759999999997  12.661133333333316 7.973333333333324  Z " stroke-width="2" stroke="#ffffff" fill="none" transform="matrix(1 0 0 1 694 17803 )" mask="url(#clip371)" />
  </g>
</svg>