<?xml version="1.0" encoding="utf-8"?>
<svg version="1.1" xmlns:xlink="http://www.w3.org/1999/xlink" width="18px" height="18px" xmlns="http://www.w3.org/2000/svg">
  <defs>
    <mask fill="white" id="clip381">
      <path d="M 17.58600000000007 11.098800000000045  C 17.64450000000002 10.711799999999988  17.67419999999998 8.746200000000016  17.67510000000001 8.355599999999994  C 17.67149999999999 5.140799999999991  15.602400000000012 2.1941999999999893  12.573000000000023 1.1105999999999823  C 9.546300000000025 0.02790000000000532  4.4973000000000125 0.987299999999982  2.4570000000000163 3.472200000000004  C 0.41670000000002005 5.957100000000025  0.15120000000000575 11.125800000000021  1.8027000000000386 13.88430000000002  C 3.4533000000000413 16.64190000000004  8.32500000000005 18.105300000000017  11.47680000000006 17.479800000000022  C 14.616900000000038 16.857000000000017  17.10090000000008 14.264100000000042  17.58600000000007 11.098800000000045  Z " fill-rule="evenodd" />
    </mask>
  </defs>
  <g transform="matrix(1 0 0 1 -775 -17869 )">
    <path d="M 17.58600000000007 11.098800000000045  C 17.64450000000002 10.711799999999988  17.67419999999998 8.746200000000016  17.67510000000001 8.355599999999994  C 17.67149999999999 5.140799999999991  15.602400000000012 2.1941999999999893  12.573000000000023 1.1105999999999823  C 9.546300000000025 0.02790000000000532  4.4973000000000125 0.987299999999982  2.4570000000000163 3.472200000000004  C 0.41670000000002005 5.957100000000025  0.15120000000000575 11.125800000000021  1.8027000000000386 13.88430000000002  C 3.4533000000000413 16.64190000000004  8.32500000000005 18.105300000000017  11.47680000000006 17.479800000000022  C 14.616900000000038 16.857000000000017  17.10090000000008 14.264100000000042  17.58600000000007 11.098800000000045  Z " fill-rule="nonzero" fill="#ffffff" stroke="none" fill-opacity="0" transform="matrix(1 0 0 1 775 17869 )" />
    <path d="M 17.58600000000007 11.098800000000045  C 17.64450000000002 10.711799999999988  17.67419999999998 8.746200000000016  17.67510000000001 8.355599999999994  C 17.67149999999999 5.140799999999991  15.602400000000012 2.1941999999999893  12.573000000000023 1.1105999999999823  C 9.546300000000025 0.02790000000000532  4.4973000000000125 0.987299999999982  2.4570000000000163 3.472200000000004  C 0.41670000000002005 5.957100000000025  0.15120000000000575 11.125800000000021  1.8027000000000386 13.88430000000002  C 3.4533000000000413 16.64190000000004  8.32500000000005 18.105300000000017  11.47680000000006 17.479800000000022  C 14.616900000000038 16.857000000000017  17.10090000000008 14.264100000000042  17.58600000000007 11.098800000000045  Z " stroke-width="2" stroke="#ffffff" fill="none" transform="matrix(1 0 0 1 775 17869 )" mask="url(#clip381)" />
  </g>
</svg>