<?xml version="1.0" encoding="utf-8"?>
<svg version="1.1" xmlns:xlink="http://www.w3.org/1999/xlink" width="18px" height="18px" xmlns="http://www.w3.org/2000/svg">
  <defs>
    <mask fill="white" id="clip379">
      <path d="M 17.468100000000046 10.827900000000056  C 17.52750000000002 10.4409  17.557199999999984 8.475299999999976  17.557199999999984 8.084700000000003  C 17.553599999999964 4.869900000000001  15.484499999999985 1.9233000000000005  12.4551 0.8396999999999935  C 9.428399999999998 -0.24299999999998365  4.379399999999987 0.716399999999993  2.339099999999991 3.2013000000000145  C 0.29879999999999424 5.686200000000036  0.03329999999997995 10.85490000000003  1.6848000000000127 13.613400000000029  C 3.3354000000000155 16.37100000000005  8.207100000000025 17.834400000000027  11.358900000000034 17.208900000000032  C 14.499000000000011 16.586100000000027  16.983000000000057 13.993200000000053  17.468100000000046 10.827900000000056  Z " fill-rule="evenodd" />
    </mask>
  </defs>
  <g transform="matrix(1 0 0 1 -621 -17819 )">
    <path d="M 17.468100000000046 10.827900000000056  C 17.52750000000002 10.4409  17.557199999999984 8.475299999999976  17.557199999999984 8.084700000000003  C 17.553599999999964 4.869900000000001  15.484499999999985 1.9233000000000005  12.4551 0.8396999999999935  C 9.428399999999998 -0.24299999999998365  4.379399999999987 0.716399999999993  2.339099999999991 3.2013000000000145  C 0.29879999999999424 5.686200000000036  0.03329999999997995 10.85490000000003  1.6848000000000127 13.613400000000029  C 3.3354000000000155 16.37100000000005  8.207100000000025 17.834400000000027  11.358900000000034 17.208900000000032  C 14.499000000000011 16.586100000000027  16.983000000000057 13.993200000000053  17.468100000000046 10.827900000000056  Z " fill-rule="nonzero" fill="#ffffff" stroke="none" fill-opacity="0" transform="matrix(1 0 0 1 621 17819 )" />
    <path d="M 17.468100000000046 10.827900000000056  C 17.52750000000002 10.4409  17.557199999999984 8.475299999999976  17.557199999999984 8.084700000000003  C 17.553599999999964 4.869900000000001  15.484499999999985 1.9233000000000005  12.4551 0.8396999999999935  C 9.428399999999998 -0.24299999999998365  4.379399999999987 0.716399999999993  2.339099999999991 3.2013000000000145  C 0.29879999999999424 5.686200000000036  0.03329999999997995 10.85490000000003  1.6848000000000127 13.613400000000029  C 3.3354000000000155 16.37100000000005  8.207100000000025 17.834400000000027  11.358900000000034 17.208900000000032  C 14.499000000000011 16.586100000000027  16.983000000000057 13.993200000000053  17.468100000000046 10.827900000000056  Z " stroke-width="2" stroke="#ffffff" fill="none" transform="matrix(1 0 0 1 621 17819 )" mask="url(#clip379)" />
  </g>
</svg>