<?xml version="1.0" encoding="utf-8"?>
<svg version="1.1" xmlns:xlink="http://www.w3.org/1999/xlink" width="10px" height="10px" xmlns="http://www.w3.org/2000/svg">
  <defs>
    <mask fill="white" id="clip270">
      <path d="M 9.669500000000028 5.931500000000028  C 9.701999999999998 5.717000000000013  9.718999999999994 4.625  9.718999999999994 4.407499999999999  C 9.716999999999985 2.6214999999999975  8.567499999999995 0.984499999999997  6.884500000000003 0.3824999999999932  C 5.203000000000003 -0.2189999999999941  2.397999999999996 0.31399999999999295  1.2644999999999982 1.694500000000005  C 0.13100000000000023 3.075000000000017  -0.01650000000000773 5.9465000000000146  0.9010000000000105 7.479000000000013  C 1.818000000000012 9.011000000000024  4.5245000000000175 9.824000000000012  6.275500000000022 9.476500000000016  C 8.02000000000001 9.130500000000012  9.400000000000034 7.690000000000026  9.669500000000028 5.931500000000028  Z " fill-rule="evenodd" />
    </mask>
  </defs>
  <g transform="matrix(1 0 0 1 -402 -11141 )">
    <path d="M 9.669500000000028 5.931500000000028  C 9.701999999999998 5.717000000000013  9.718999999999994 4.625  9.718999999999994 4.407499999999999  C 9.716999999999985 2.6214999999999975  8.567499999999995 0.984499999999997  6.884500000000003 0.3824999999999932  C 5.203000000000003 -0.2189999999999941  2.397999999999996 0.31399999999999295  1.2644999999999982 1.694500000000005  C 0.13100000000000023 3.075000000000017  -0.01650000000000773 5.9465000000000146  0.9010000000000105 7.479000000000013  C 1.818000000000012 9.011000000000024  4.5245000000000175 9.824000000000012  6.275500000000022 9.476500000000016  C 8.02000000000001 9.130500000000012  9.400000000000034 7.690000000000026  9.669500000000028 5.931500000000028  Z " fill-rule="nonzero" fill="#ffffff" stroke="none" fill-opacity="0" transform="matrix(1 0 0 1 402 11141 )" />
    <path d="M 9.669500000000028 5.931500000000028  C 9.701999999999998 5.717000000000013  9.718999999999994 4.625  9.718999999999994 4.407499999999999  C 9.716999999999985 2.6214999999999975  8.567499999999995 0.984499999999997  6.884500000000003 0.3824999999999932  C 5.203000000000003 -0.2189999999999941  2.397999999999996 0.31399999999999295  1.2644999999999982 1.694500000000005  C 0.13100000000000023 3.075000000000017  -0.01650000000000773 5.9465000000000146  0.9010000000000105 7.479000000000013  C 1.818000000000012 9.011000000000024  4.5245000000000175 9.824000000000012  6.275500000000022 9.476500000000016  C 8.02000000000001 9.130500000000012  9.400000000000034 7.690000000000026  9.669500000000028 5.931500000000028  Z " stroke-width="4" stroke="#ffffff" fill="none" transform="matrix(1 0 0 1 402 11141 )" mask="url(#clip270)" />
  </g>
</svg>