<?xml version="1.0" encoding="utf-8"?>
<svg version="1.1" xmlns:xlink="http://www.w3.org/1999/xlink" width="10px" height="10px" xmlns="http://www.w3.org/2000/svg">
  <defs>
    <mask fill="white" id="clip271">
      <path d="M 9.88210526315793 6.225000000000023  C 9.91684210526315 6.009999999999991  9.93421052631579 4.918000000000006  9.93421052631579 4.700999999999993  C 9.932105263157885 2.914999999999992  8.722105263157896 1.2779999999999916  6.9505263157894825 0.6759999999999877  C 5.180526315789483 0.07450000000000045  2.2278947368421074 0.6074999999999875  1.0347368421052674 1.9879999999999995  C -0.15842105263157247 3.3685000000000116  -0.3136842105263177 6.240000000000009  0.6521052631579121 7.772500000000008  C 1.6173684210526504 9.304500000000019  4.466315789473708 10.117500000000007  6.309473684210555 9.77000000000001  C 8.145789473684227 9.424000000000007  9.598421052631622 7.983500000000021  9.88210526315793 6.225000000000023  Z " fill-rule="evenodd" />
    </mask>
  </defs>
  <g transform="matrix(1 0 0 1 -418 -11113 )">
    <path d="M 9.88210526315793 6.225000000000023  C 9.91684210526315 6.009999999999991  9.93421052631579 4.918000000000006  9.93421052631579 4.700999999999993  C 9.932105263157885 2.914999999999992  8.722105263157896 1.2779999999999916  6.9505263157894825 0.6759999999999877  C 5.180526315789483 0.07450000000000045  2.2278947368421074 0.6074999999999875  1.0347368421052674 1.9879999999999995  C -0.15842105263157247 3.3685000000000116  -0.3136842105263177 6.240000000000009  0.6521052631579121 7.772500000000008  C 1.6173684210526504 9.304500000000019  4.466315789473708 10.117500000000007  6.309473684210555 9.77000000000001  C 8.145789473684227 9.424000000000007  9.598421052631622 7.983500000000021  9.88210526315793 6.225000000000023  Z " fill-rule="nonzero" fill="#ffffff" stroke="none" fill-opacity="0" transform="matrix(1 0 0 1 418 11113 )" />
    <path d="M 9.88210526315793 6.225000000000023  C 9.91684210526315 6.009999999999991  9.93421052631579 4.918000000000006  9.93421052631579 4.700999999999993  C 9.932105263157885 2.914999999999992  8.722105263157896 1.2779999999999916  6.9505263157894825 0.6759999999999877  C 5.180526315789483 0.07450000000000045  2.2278947368421074 0.6074999999999875  1.0347368421052674 1.9879999999999995  C -0.15842105263157247 3.3685000000000116  -0.3136842105263177 6.240000000000009  0.6521052631579121 7.772500000000008  C 1.6173684210526504 9.304500000000019  4.466315789473708 10.117500000000007  6.309473684210555 9.77000000000001  C 8.145789473684227 9.424000000000007  9.598421052631622 7.983500000000021  9.88210526315793 6.225000000000023  Z " stroke-width="4" stroke="#ffffff" fill="none" transform="matrix(1 0 0 1 418 11113 )" mask="url(#clip271)" />
  </g>
</svg>