<?xml version="1.0" encoding="utf-8"?>
<svg version="1.1" xmlns:xlink="http://www.w3.org/1999/xlink" width="17px" height="18px" xmlns="http://www.w3.org/2000/svg">
  <defs>
    <mask fill="white" id="clip383">
      <path d="M 16.79957894736848 11.205000000000041  C 16.858631578947353 10.817999999999984  16.888157894736842 8.852400000000012  16.888157894736842 8.461799999999988  C 16.884578947368404 5.246999999999986  14.827578947368425 2.300399999999985  11.81589473684212 1.216799999999978  C 8.806894736842121 0.1341000000000008  3.7874210526315824 1.0934999999999775  1.7590526315789548 3.578399999999999  C -0.26931578947367324 6.06330000000002  -0.53326315789474 11.232000000000015  1.1085789473684504 13.990500000000013  C 2.7495263157895056 16.748100000000033  7.592736842105305 18.21150000000001  10.726105263157946 17.586000000000016  C 13.847842105263187 16.96320000000001  16.317315789473756 14.370300000000038  16.79957894736848 11.205000000000041  Z " fill-rule="evenodd" />
    </mask>
  </defs>
  <g transform="matrix(1 0 0 1 -735 -17848 )">
    <path d="M 16.79957894736848 11.205000000000041  C 16.858631578947353 10.817999999999984  16.888157894736842 8.852400000000012  16.888157894736842 8.461799999999988  C 16.884578947368404 5.246999999999986  14.827578947368425 2.300399999999985  11.81589473684212 1.216799999999978  C 8.806894736842121 0.1341000000000008  3.7874210526315824 1.0934999999999775  1.7590526315789548 3.578399999999999  C -0.26931578947367324 6.06330000000002  -0.53326315789474 11.232000000000015  1.1085789473684504 13.990500000000013  C 2.7495263157895056 16.748100000000033  7.592736842105305 18.21150000000001  10.726105263157946 17.586000000000016  C 13.847842105263187 16.96320000000001  16.317315789473756 14.370300000000038  16.79957894736848 11.205000000000041  Z " fill-rule="nonzero" fill="#ffffff" stroke="none" fill-opacity="0" transform="matrix(1 0 0 1 735 17848 )" />
    <path d="M 16.79957894736848 11.205000000000041  C 16.858631578947353 10.817999999999984  16.888157894736842 8.852400000000012  16.888157894736842 8.461799999999988  C 16.884578947368404 5.246999999999986  14.827578947368425 2.300399999999985  11.81589473684212 1.216799999999978  C 8.806894736842121 0.1341000000000008  3.7874210526315824 1.0934999999999775  1.7590526315789548 3.578399999999999  C -0.26931578947367324 6.06330000000002  -0.53326315789474 11.232000000000015  1.1085789473684504 13.990500000000013  C 2.7495263157895056 16.748100000000033  7.592736842105305 18.21150000000001  10.726105263157946 17.586000000000016  C 13.847842105263187 16.96320000000001  16.317315789473756 14.370300000000038  16.79957894736848 11.205000000000041  Z " stroke-width="2" stroke="#ffffff" fill="none" transform="matrix(1 0 0 1 735 17848 )" mask="url(#clip383)" />
  </g>
</svg>