<?xml version="1.0" encoding="utf-8"?>
<svg version="1.1" xmlns:xlink="http://www.w3.org/1999/xlink" width="10px" height="10px" xmlns="http://www.w3.org/2000/svg">
  <defs>
    <mask fill="white" id="clip268">
      <path d="M 9.818500000000029 6.220000000000027  C 9.850999999999999 6.0049999999999955  9.867999999999995 4.913000000000011  9.867999999999995 4.695999999999998  C 9.865999999999985 2.9099999999999966  8.716499999999996 1.2729999999999961  7.033500000000004 0.6709999999999923  C 5.352000000000004 0.069500000000005  2.546999999999997 0.602499999999992  1.413499999999999 1.983000000000004  C 0.28000000000000114 3.363500000000016  0.13249999999999318 6.235000000000014  1.0500000000000114 7.7675000000000125  C 1.967000000000013 9.299500000000023  4.673500000000018 10.112500000000011  6.424500000000023 9.765000000000015  C 8.169000000000011 9.419000000000011  9.549000000000035 7.978500000000025  9.818500000000029 6.220000000000027  Z " fill-rule="evenodd" />
    </mask>
  </defs>
  <g transform="matrix(1 0 0 1 -353 -11113 )">
    <path d="M 9.818500000000029 6.220000000000027  C 9.850999999999999 6.0049999999999955  9.867999999999995 4.913000000000011  9.867999999999995 4.695999999999998  C 9.865999999999985 2.9099999999999966  8.716499999999996 1.2729999999999961  7.033500000000004 0.6709999999999923  C 5.352000000000004 0.069500000000005  2.546999999999997 0.602499999999992  1.413499999999999 1.983000000000004  C 0.28000000000000114 3.363500000000016  0.13249999999999318 6.235000000000014  1.0500000000000114 7.7675000000000125  C 1.967000000000013 9.299500000000023  4.673500000000018 10.112500000000011  6.424500000000023 9.765000000000015  C 8.169000000000011 9.419000000000011  9.549000000000035 7.978500000000025  9.818500000000029 6.220000000000027  Z " fill-rule="nonzero" fill="#ffffff" stroke="none" fill-opacity="0" transform="matrix(1 0 0 1 353 11113 )" />
    <path d="M 9.818500000000029 6.220000000000027  C 9.850999999999999 6.0049999999999955  9.867999999999995 4.913000000000011  9.867999999999995 4.695999999999998  C 9.865999999999985 2.9099999999999966  8.716499999999996 1.2729999999999961  7.033500000000004 0.6709999999999923  C 5.352000000000004 0.069500000000005  2.546999999999997 0.602499999999992  1.413499999999999 1.983000000000004  C 0.28000000000000114 3.363500000000016  0.13249999999999318 6.235000000000014  1.0500000000000114 7.7675000000000125  C 1.967000000000013 9.299500000000023  4.673500000000018 10.112500000000011  6.424500000000023 9.765000000000015  C 8.169000000000011 9.419000000000011  9.549000000000035 7.978500000000025  9.818500000000029 6.220000000000027  Z " stroke-width="4" stroke="#ffffff" fill="none" transform="matrix(1 0 0 1 353 11113 )" mask="url(#clip268)" />
  </g>
</svg>