<?xml version="1.0" encoding="utf-8"?>
<svg version="1.1" xmlns:xlink="http://www.w3.org/1999/xlink" width="18px" height="18px" xmlns="http://www.w3.org/2000/svg">
  <defs>
    <mask fill="white" id="clip384">
      <path d="M 17.32860000000007 11.210400000000066  C 17.387100000000014 10.823400000000008  17.416799999999977 8.857799999999985  17.417700000000007 8.467200000000014  C 17.41409999999999 5.252400000000011  15.345000000000011 2.3058000000000107  12.315600000000023 1.2222000000000037  C 9.288900000000025 0.1395000000000266  4.239900000000012 1.0989000000000033  2.199600000000015 3.583800000000025  C 0.15930000000001884 6.068700000000047  -0.1061999999999955 11.237400000000042  1.5453000000000372 13.99590000000004  C 3.1959000000000404 16.75350000000006  8.06760000000005 18.216900000000038  11.219400000000059 17.591400000000046  C 14.359500000000038 16.968600000000038  16.84350000000008 14.375700000000064  17.32860000000007 11.210400000000066  Z " fill-rule="evenodd" />
    </mask>
  </defs>
  <g transform="matrix(1 0 0 1 -656 -17871 )">
    <path d="M 17.32860000000007 11.210400000000066  C 17.387100000000014 10.823400000000008  17.416799999999977 8.857799999999985  17.417700000000007 8.467200000000014  C 17.41409999999999 5.252400000000011  15.345000000000011 2.3058000000000107  12.315600000000023 1.2222000000000037  C 9.288900000000025 0.1395000000000266  4.239900000000012 1.0989000000000033  2.199600000000015 3.583800000000025  C 0.15930000000001884 6.068700000000047  -0.1061999999999955 11.237400000000042  1.5453000000000372 13.99590000000004  C 3.1959000000000404 16.75350000000006  8.06760000000005 18.216900000000038  11.219400000000059 17.591400000000046  C 14.359500000000038 16.968600000000038  16.84350000000008 14.375700000000064  17.32860000000007 11.210400000000066  Z " fill-rule="nonzero" fill="#ffffff" stroke="none" fill-opacity="0" transform="matrix(1 0 0 1 656 17871 )" />
    <path d="M 17.32860000000007 11.210400000000066  C 17.387100000000014 10.823400000000008  17.416799999999977 8.857799999999985  17.417700000000007 8.467200000000014  C 17.41409999999999 5.252400000000011  15.345000000000011 2.3058000000000107  12.315600000000023 1.2222000000000037  C 9.288900000000025 0.1395000000000266  4.239900000000012 1.0989000000000033  2.199600000000015 3.583800000000025  C 0.15930000000001884 6.068700000000047  -0.1061999999999955 11.237400000000042  1.5453000000000372 13.99590000000004  C 3.1959000000000404 16.75350000000006  8.06760000000005 18.216900000000038  11.219400000000059 17.591400000000046  C 14.359500000000038 16.968600000000038  16.84350000000008 14.375700000000064  17.32860000000007 11.210400000000066  Z " stroke-width="2" stroke="#ffffff" fill="none" transform="matrix(1 0 0 1 656 17871 )" mask="url(#clip384)" />
  </g>
</svg>