<?xml version="1.0" encoding="utf-8"?>
<svg version="1.1" xmlns:xlink="http://www.w3.org/1999/xlink" width="18px" height="18px" xmlns="http://www.w3.org/2000/svg">
  <defs>
    <mask fill="white" id="clip380">
      <path d="M 17.67330000000005 11.19600000000005  C 17.731799999999996 10.808999999999992  17.76239999999999 8.843400000000019  17.76239999999999 8.452799999999996  C 17.758799999999976 5.237999999999993  15.689699999999993 2.2913999999999928  12.660300000000007 1.2077999999999862  C 9.633600000000007 0.125100000000009  4.584599999999995 1.0844999999999858  2.5442999999999985 3.5694000000000075  C 0.5040000000000021 6.054300000000029  0.23849999999998772 11.223000000000026  1.8900000000000203 13.981500000000024  C 3.540600000000023 16.73910000000004  8.412300000000032 18.20250000000002  11.56410000000004 17.577000000000027  C 14.70420000000002 16.954200000000018  17.188200000000062 14.361300000000044  17.67330000000005 11.19600000000005  Z " fill-rule="evenodd" />
    </mask>
  </defs>
  <g transform="matrix(1 0 0 1 -619 -17849 )">
    <path d="M 17.67330000000005 11.19600000000005  C 17.731799999999996 10.808999999999992  17.76239999999999 8.843400000000019  17.76239999999999 8.452799999999996  C 17.758799999999976 5.237999999999993  15.689699999999993 2.2913999999999928  12.660300000000007 1.2077999999999862  C 9.633600000000007 0.125100000000009  4.584599999999995 1.0844999999999858  2.5442999999999985 3.5694000000000075  C 0.5040000000000021 6.054300000000029  0.23849999999998772 11.223000000000026  1.8900000000000203 13.981500000000024  C 3.540600000000023 16.73910000000004  8.412300000000032 18.20250000000002  11.56410000000004 17.577000000000027  C 14.70420000000002 16.954200000000018  17.188200000000062 14.361300000000044  17.67330000000005 11.19600000000005  Z " fill-rule="nonzero" fill="#ffffff" stroke="none" fill-opacity="0" transform="matrix(1 0 0 1 619 17849 )" />
    <path d="M 17.67330000000005 11.19600000000005  C 17.731799999999996 10.808999999999992  17.76239999999999 8.843400000000019  17.76239999999999 8.452799999999996  C 17.758799999999976 5.237999999999993  15.689699999999993 2.2913999999999928  12.660300000000007 1.2077999999999862  C 9.633600000000007 0.125100000000009  4.584599999999995 1.0844999999999858  2.5442999999999985 3.5694000000000075  C 0.5040000000000021 6.054300000000029  0.23849999999998772 11.223000000000026  1.8900000000000203 13.981500000000024  C 3.540600000000023 16.73910000000004  8.412300000000032 18.20250000000002  11.56410000000004 17.577000000000027  C 14.70420000000002 16.954200000000018  17.188200000000062 14.361300000000044  17.67330000000005 11.19600000000005  Z " stroke-width="2" stroke="#ffffff" fill="none" transform="matrix(1 0 0 1 619 17849 )" mask="url(#clip380)" />
  </g>
</svg>