<?xml version="1.0" encoding="utf-8"?>
<svg version="1.1" xmlns:xlink="http://www.w3.org/1999/xlink" width="18px" height="18px" xmlns="http://www.w3.org/2000/svg">
  <defs>
    <mask fill="white" id="clip382">
      <path d="M 17.40510000000005 10.676700000000052  C 17.463599999999996 10.290600000000024  17.49419999999999 8.325000000000001  17.49419999999999 7.933499999999998  C 17.490599999999972 4.718699999999996  15.421499999999993 1.7720999999999947  12.392100000000005 0.6884999999999878  C 9.365400000000006 -0.3941999999999894  4.316399999999994 0.5651999999999874  2.2760999999999965 3.050100000000009  C 0.23580000000000043 5.535000000000031  -0.029700000000013913 10.703700000000026  1.6218000000000188 13.462200000000024  C 3.272400000000022 16.219800000000046  8.144100000000032 17.683200000000024  11.29590000000004 17.05770000000003  C 14.43600000000002 16.434900000000024  16.920000000000062 13.842000000000047  17.40510000000005 10.676700000000052  Z " fill-rule="evenodd" />
    </mask>
  </defs>
  <g transform="matrix(1 0 0 1 -706 -17898 )">
    <path d="M 17.40510000000005 10.676700000000052  C 17.463599999999996 10.290600000000024  17.49419999999999 8.325000000000001  17.49419999999999 7.933499999999998  C 17.490599999999972 4.718699999999996  15.421499999999993 1.7720999999999947  12.392100000000005 0.6884999999999878  C 9.365400000000006 -0.3941999999999894  4.316399999999994 0.5651999999999874  2.2760999999999965 3.050100000000009  C 0.23580000000000043 5.535000000000031  -0.029700000000013913 10.703700000000026  1.6218000000000188 13.462200000000024  C 3.272400000000022 16.219800000000046  8.144100000000032 17.683200000000024  11.29590000000004 17.05770000000003  C 14.43600000000002 16.434900000000024  16.920000000000062 13.842000000000047  17.40510000000005 10.676700000000052  Z " fill-rule="nonzero" fill="#ffffff" stroke="none" fill-opacity="0" transform="matrix(1 0 0 1 706 17898 )" />
    <path d="M 17.40510000000005 10.676700000000052  C 17.463599999999996 10.290600000000024  17.49419999999999 8.325000000000001  17.49419999999999 7.933499999999998  C 17.490599999999972 4.718699999999996  15.421499999999993 1.7720999999999947  12.392100000000005 0.6884999999999878  C 9.365400000000006 -0.3941999999999894  4.316399999999994 0.5651999999999874  2.2760999999999965 3.050100000000009  C 0.23580000000000043 5.535000000000031  -0.029700000000013913 10.703700000000026  1.6218000000000188 13.462200000000024  C 3.272400000000022 16.219800000000046  8.144100000000032 17.683200000000024  11.29590000000004 17.05770000000003  C 14.43600000000002 16.434900000000024  16.920000000000062 13.842000000000047  17.40510000000005 10.676700000000052  Z " stroke-width="2" stroke="#ffffff" fill="none" transform="matrix(1 0 0 1 706 17898 )" mask="url(#clip382)" />
  </g>
</svg>