<?xml version="1.0" encoding="utf-8"?>
<svg version="1.1" xmlns:xlink="http://www.w3.org/1999/xlink" width="10px" height="10px" xmlns="http://www.w3.org/2000/svg">
  <defs>
    <mask fill="white" id="clip269">
      <path d="M 9.770000000000039 6.166000000000025  C 9.802500000000009 5.950999999999993  9.818999999999988 4.859000000000009  9.819500000000005 4.641999999999996  C 9.817499999999995 2.8559999999999945  8.668000000000006 1.218999999999994  6.985000000000014 0.6169999999999902  C 5.303500000000014 0.015500000000002956  2.498500000000007 0.54849999999999  1.365000000000009 1.929000000000002  C 0.23150000000001114 3.309500000000014  0.08400000000000318 6.181000000000012  1.0015000000000214 7.7135000000000105  C 1.918500000000023 9.245500000000021  4.625000000000028 10.05850000000001  6.376000000000033 9.711000000000013  C 8.120500000000021 9.365000000000009  9.500500000000045 7.924500000000023  9.770000000000039 6.166000000000025  Z " fill-rule="evenodd" />
    </mask>
  </defs>
  <g transform="matrix(1 0 0 1 -441 -11124 )">
    <path d="M 9.770000000000039 6.166000000000025  C 9.802500000000009 5.950999999999993  9.818999999999988 4.859000000000009  9.819500000000005 4.641999999999996  C 9.817499999999995 2.8559999999999945  8.668000000000006 1.218999999999994  6.985000000000014 0.6169999999999902  C 5.303500000000014 0.015500000000002956  2.498500000000007 0.54849999999999  1.365000000000009 1.929000000000002  C 0.23150000000001114 3.309500000000014  0.08400000000000318 6.181000000000012  1.0015000000000214 7.7135000000000105  C 1.918500000000023 9.245500000000021  4.625000000000028 10.05850000000001  6.376000000000033 9.711000000000013  C 8.120500000000021 9.365000000000009  9.500500000000045 7.924500000000023  9.770000000000039 6.166000000000025  Z " fill-rule="nonzero" fill="#ffffff" stroke="none" fill-opacity="0" transform="matrix(1 0 0 1 441 11124 )" />
    <path d="M 9.770000000000039 6.166000000000025  C 9.802500000000009 5.950999999999993  9.818999999999988 4.859000000000009  9.819500000000005 4.641999999999996  C 9.817499999999995 2.8559999999999945  8.668000000000006 1.218999999999994  6.985000000000014 0.6169999999999902  C 5.303500000000014 0.015500000000002956  2.498500000000007 0.54849999999999  1.365000000000009 1.929000000000002  C 0.23150000000001114 3.309500000000014  0.08400000000000318 6.181000000000012  1.0015000000000214 7.7135000000000105  C 1.918500000000023 9.245500000000021  4.625000000000028 10.05850000000001  6.376000000000033 9.711000000000013  C 8.120500000000021 9.365000000000009  9.500500000000045 7.924500000000023  9.770000000000039 6.166000000000025  Z " stroke-width="4" stroke="#ffffff" fill="none" transform="matrix(1 0 0 1 441 11124 )" mask="url(#clip269)" />
  </g>
</svg>