<?xml version="1.0" encoding="utf-8"?>
<svg version="1.1" xmlns:xlink="http://www.w3.org/1999/xlink" width="10px" height="10px" xmlns="http://www.w3.org/2000/svg">
  <defs>
    <mask fill="white" id="clip267">
      <path d="M 9.704500000000024 6.015500000000031  C 9.737500000000011 5.8004999999999995  9.75399999999999 4.708499999999987  9.75399999999999 4.491500000000002  C 9.751999999999981 2.7055000000000007  8.602499999999992 1.0685000000000002  6.919499999999999 0.46649999999999636  C 5.2379999999999995 -0.1349999999999909  2.4329999999999927 0.39799999999999613  1.2994999999999948 1.7785000000000082  C 0.16599999999999682 3.1590000000000202  0.01849999999998886 6.030500000000018  0.936000000000007 7.563000000000017  C 1.8530000000000086 9.095000000000027  4.559500000000014 9.908000000000015  6.310500000000019 9.560500000000019  C 8.055000000000007 9.214500000000015  9.43500000000003 7.774000000000029  9.704500000000024 6.015500000000031  Z " fill-rule="evenodd" />
    </mask>
  </defs>
  <g transform="matrix(1 0 0 1 -354 -11096 )">
    <path d="M 9.704500000000024 6.015500000000031  C 9.737500000000011 5.8004999999999995  9.75399999999999 4.708499999999987  9.75399999999999 4.491500000000002  C 9.751999999999981 2.7055000000000007  8.602499999999992 1.0685000000000002  6.919499999999999 0.46649999999999636  C 5.2379999999999995 -0.1349999999999909  2.4329999999999927 0.39799999999999613  1.2994999999999948 1.7785000000000082  C 0.16599999999999682 3.1590000000000202  0.01849999999998886 6.030500000000018  0.936000000000007 7.563000000000017  C 1.8530000000000086 9.095000000000027  4.559500000000014 9.908000000000015  6.310500000000019 9.560500000000019  C 8.055000000000007 9.214500000000015  9.43500000000003 7.774000000000029  9.704500000000024 6.015500000000031  Z " fill-rule="nonzero" fill="#ffffff" stroke="none" fill-opacity="0" transform="matrix(1 0 0 1 354 11096 )" />
    <path d="M 9.704500000000024 6.015500000000031  C 9.737500000000011 5.8004999999999995  9.75399999999999 4.708499999999987  9.75399999999999 4.491500000000002  C 9.751999999999981 2.7055000000000007  8.602499999999992 1.0685000000000002  6.919499999999999 0.46649999999999636  C 5.2379999999999995 -0.1349999999999909  2.4329999999999927 0.39799999999999613  1.2994999999999948 1.7785000000000082  C 0.16599999999999682 3.1590000000000202  0.01849999999998886 6.030500000000018  0.936000000000007 7.563000000000017  C 1.8530000000000086 9.095000000000027  4.559500000000014 9.908000000000015  6.310500000000019 9.560500000000019  C 8.055000000000007 9.214500000000015  9.43500000000003 7.774000000000029  9.704500000000024 6.015500000000031  Z " stroke-width="4" stroke="#ffffff" fill="none" transform="matrix(1 0 0 1 354 11096 )" mask="url(#clip267)" />
  </g>
</svg>