<?xml version="1.0" encoding="utf-8"?>
<svg version="1.1" xmlns:xlink="http://www.w3.org/1999/xlink" width="10px" height="10px" xmlns="http://www.w3.org/2000/svg">
  <defs>
    <mask fill="white" id="clip272">
      <path d="M 9.627000000000038 6.228000000000037  C 9.659500000000008 6.013000000000005  9.675999999999988 4.920999999999992  9.676500000000004 4.704000000000008  C 9.674499999999995 2.9180000000000064  8.525000000000006 1.281000000000006  6.842000000000013 0.679000000000002  C 5.160500000000013 0.07750000000001478  2.3555000000000064 0.6105000000000018  1.2220000000000084 1.9910000000000139  C 0.08850000000001046 3.371500000000026  -0.0589999999999975 6.243000000000023  0.8585000000000207 7.775500000000022  C 1.7755000000000223 9.307500000000033  4.482000000000028 10.120500000000021  6.2330000000000325 9.773000000000025  C 7.9775000000000205 9.427000000000021  9.357500000000044 7.986500000000035  9.627000000000038 6.228000000000037  Z " fill-rule="evenodd" />
    </mask>
  </defs>
  <g transform="matrix(1 0 0 1 -374 -11126 )">
    <path d="M 9.627000000000038 6.228000000000037  C 9.659500000000008 6.013000000000005  9.675999999999988 4.920999999999992  9.676500000000004 4.704000000000008  C 9.674499999999995 2.9180000000000064  8.525000000000006 1.281000000000006  6.842000000000013 0.679000000000002  C 5.160500000000013 0.07750000000001478  2.3555000000000064 0.6105000000000018  1.2220000000000084 1.9910000000000139  C 0.08850000000001046 3.371500000000026  -0.0589999999999975 6.243000000000023  0.8585000000000207 7.775500000000022  C 1.7755000000000223 9.307500000000033  4.482000000000028 10.120500000000021  6.2330000000000325 9.773000000000025  C 7.9775000000000205 9.427000000000021  9.357500000000044 7.986500000000035  9.627000000000038 6.228000000000037  Z " fill-rule="nonzero" fill="#ffffff" stroke="none" fill-opacity="0" transform="matrix(1 0 0 1 374 11126 )" />
    <path d="M 9.627000000000038 6.228000000000037  C 9.659500000000008 6.013000000000005  9.675999999999988 4.920999999999992  9.676500000000004 4.704000000000008  C 9.674499999999995 2.9180000000000064  8.525000000000006 1.281000000000006  6.842000000000013 0.679000000000002  C 5.160500000000013 0.07750000000001478  2.3555000000000064 0.6105000000000018  1.2220000000000084 1.9910000000000139  C 0.08850000000001046 3.371500000000026  -0.0589999999999975 6.243000000000023  0.8585000000000207 7.775500000000022  C 1.7755000000000223 9.307500000000033  4.482000000000028 10.120500000000021  6.2330000000000325 9.773000000000025  C 7.9775000000000205 9.427000000000021  9.357500000000044 7.986500000000035  9.627000000000038 6.228000000000037  Z " stroke-width="4" stroke="#ffffff" fill="none" transform="matrix(1 0 0 1 374 11126 )" mask="url(#clip272)" />
  </g>
</svg>