<?xml version="1.0" encoding="utf-8"?>
<svg version="1.1" xmlns:xlink="http://www.w3.org/1999/xlink" width="17px" height="7px" xmlns="http://www.w3.org/2000/svg">
  <g transform="matrix(1 0 0 1 -380 -11073 )">
    <path d="M 13.629259259259273 3.5874285714285827  C 11.125333333333343 3.7822857142857305  8.580962962962982 3.684571428571449  6.0780740740740935 3.5085714285714533  C 4.870962962962995 3.4234285714285955  3.650370370370381 3.316000000000031  2.4655555555555826 3.0331428571428853  C 1.909185185185223 2.9005714285714412  1.255333333333359 2.7405714285714566  0.7840000000000298 2.3617142857143074  C 0.5133333333333675 2.144571428571453  0.3852592592592861 1.8742857142857312  0.6585185185185385 1.593714285714311  C 1.0432592592592889 1.200000000000013  1.7484444444444518 1.0971428571428825  2.235851851851858 0.9937142857143044  C 3.431037037037047 0.7405714285714404  4.656296296296306 0.6400000000000189  5.871185185185205 0.5862857142857365  C 8.28281481481484 0.4800000000000182  10.7265925925926 0.5925714285714483  13.115925925925936 0.9782857142857405  C 13.395925925925944 1.023428571428602  13.674888888888884 1.0748571428571754  13.953851851851853 1.1285714285714579  " stroke-width="2" stroke="#ffffff" fill="none" transform="matrix(1 0 0 1 381 11074 )" />
  </g>
</svg>