<?xml version="1.0" encoding="utf-8"?>
<svg version="1.1" xmlns:xlink="http://www.w3.org/1999/xlink" width="25px" height="7px" xmlns="http://www.w3.org/2000/svg">
  <g transform="matrix(1 0 0 1 -669 -17781 )">
    <path d="M 23.364444444444466 5.3811428571428745  C 19.072000000000017 5.6734285714285955  14.710222222222253 5.526857142857174  10.419555555555588 5.26285714285718  C 8.350222222222278 5.135142857142894  6.257777777777796 4.974000000000046  4.226666666666713 4.5497142857143285  C 3.272888888888954 4.350857142857162  2.1520000000000437 4.110857142857185  1.344000000000051 3.542571428571461  C 0.8800000000000586 3.2168571428571795  0.6604444444444905 2.8114285714285967  1.1288888888889232 2.3905714285714663  C 1.7884444444444951 1.8000000000000196  2.997333333333346 1.6457142857143237  3.8328888888889 1.4905714285714566  C 5.881777777777795 1.1108571428571605  7.982222222222239 0.9600000000000284  10.064888888888921 0.8794285714286048  C 14.199111111111154 0.7200000000000273  18.388444444444456 0.8888571428571724  22.48444444444446 1.4674285714286108  C 22.964444444444474 1.5351428571429029  23.442666666666657 1.612285714285763  23.92088888888889 1.6928571428571868  " stroke-width="1" stroke="#ffffff" fill="none" transform="matrix(1 0 0 1 669 17781 )" />
  </g>
</svg>