<?xml version="1.0" encoding="utf-8"?>
<svg version="1.1" xmlns:xlink="http://www.w3.org/1999/xlink" width="118px" height="8px" preserveAspectRatio="xMinYMid meet" viewBox="332 11325  118 6" xmlns="http://www.w3.org/2000/svg">
  <g transform="matrix(0.5877852522924887 0.8090169943750755 -0.809016994374929 0.5877852522925464 9325.720478632833 4353.24301722938 )">
    <path d="M 65.86532432432432 0.3149313725490273  C 61.462945945945954 5.7276470588235435  57.03648648648648 11.1198431372549  52.71705405405403 16.598578431372566  C 47.68767567567564 22.977499999999996  42.72072972972968 29.393892156862748  37.78589189189188 35.84597058823532  C 33.78754054054052 41.07311764705883  29.852513513513518 46.35825490196083  25.99954054054055 51.69424509803925  C 21.672972972972982 57.685970588235335  17.372270270270278 63.697323529411804  13.236567567567574 69.82376470588241  C 9.121378378378406 75.92076470588242  5.073972972972992 82.06772549019612  1.4350540540540873 88.46359803921573  C 1.0399459459459939 89.15769607843143  0.6582162162162665 89.85893137254902  0.27737837837841 90.56195098039217  C 4.495135135135153 86.68374509803924  8.508648648648666 82.5807156862745  12.383918918918962 78.36081372549017  C 16.52408108108112 73.85185294117647  20.603594594594647 69.29203921568623  24.604621621621664 64.65906862745095  C 28.300621621621666 60.38028431372547  31.97789189189193 56.07741176470588  35.56240540540544 51.70495098039214  C 39.68740540540544 46.673186274509796  43.802594594594616 41.63874509803919  47.86337837837839 36.55523529411764  C 51.86083783783788 31.550235294117623  55.794972972972964 26.498843137254898  59.730000000000025 21.4447745098039  C 59.9297837837838 21.188725490196077  60.1286756756757 20.932676470588206  60.328459459459474 20.676627450980384  " stroke-width="1" stroke="#ffffff" fill="none" transform="matrix(1 0 0 1 359 11284 )" />
  </g>
</svg>