<?xml version="1.0" encoding="utf-8"?>
<svg version="1.1" xmlns:xlink="http://www.w3.org/1999/xlink" width="41px" height="55px" xmlns="http://www.w3.org/2000/svg">
  <g transform="matrix(1 0 0 1 -370 -11160 )">
    <path d="M 37.92245945945945 0.1799607843137299  C 35.387756756756765 3.2729411764705962  32.839189189189185 6.354196078431372  30.35224324324323 9.484901960784322  C 27.456540540540523 13.129999999999997  24.596783783783756 16.79650980392157  21.755513513513506 20.483411764705895  C 19.45343243243242 23.470352941176476  17.187810810810813 26.490431372549043  14.969432432432438 29.539568627450997  C 12.478378378378384 32.96341176470591  10.00221621621622 36.39847058823532  7.621054054054058 39.899294117647095  C 5.251702702702719 43.3832941176471  2.9213783783783898 46.89584313725493  0.8262432432432624 50.550627450980414  C 0.5987567567567844 50.94725490196081  0.3789729729730019 51.34796078431373  0.1597027027027209 51.749686274509806  C 2.5881081081081185 49.533568627451  4.898918918918929 47.18898039215686  7.130135135135159 44.77760784313724  C 9.513864864864889 42.201058823529415  11.862675675675705 39.59545098039214  14.166297297297321 36.94803921568626  C 16.294297297297323 34.50301960784312  18.411513513513533 32.04423529411764  20.475324324324347 29.545686274509794  C 22.850324324324347 26.670392156862743  25.21967567567569 23.793568627450966  27.557702702702713 20.888705882352937  C 29.859270270270294 18.028705882352927  32.124378378378374 15.142196078431372  34.390000000000015 12.254156862745086  C 34.50502702702703 12.107843137254902  34.619540540540555 11.961529411764689  34.734567567567574 11.815215686274504  " stroke-width="2" stroke="#ffffff" fill="none" transform="matrix(1 0 0 1 371 11161 )" />
  </g>
</svg>