<?xml version="1.0" encoding="utf-8"?>
<svg version="1.1" xmlns:xlink="http://www.w3.org/1999/xlink" width="57px" height="29px" xmlns="http://www.w3.org/2000/svg">
  <g transform="matrix(1 0 0 1 -654 -17837 )">
    <path d="M 31.25422222222222 0.2547096774193388  C 31.86222222222225 0.8734193548386957  32.513777777777754 1.4686451612903013  33.14666666666669 2.0620645161289946  C 33.397333333333336 2.296903225806406  33.65511111111113 2.482967741935454  33.9777777777778 2.60129032258059  C 34.64444444444447 2.8451612903225088  35.41600000000001 2.838838709677343  36.10933333333338 2.8912258064515814  C 37.302222222222255 2.9815483870967627  38.48977777777782 3.0917419354838214  39.664000000000065 3.33470967741931  C 44.22755555555563 4.2767741935483485  48.44266666666671 7.065032258064468  51.96088888888896 10.070967741935464  C 53.19911111111115 11.129548387096776  54.552000000000085 12.301032258064492  55.37688888888897 13.741677419354836  C 55.5822222222223 14.101161290322601  55.849777777777845 14.604258064516113  55.69244444444454 15.03419354838708  C 55.382222222222325 15.87961290322577  54.109333333333424 15.563483870967739  53.52533333333344 15.34580645161291  C 50.40088888888901 14.180645161290315  47.93155555555566 11.231612903225807  44.4177777777779 11.226193548387124  C 42.84177777777788 11.223483870967783  41.27288888888901 11.76451612903229  39.696888888889035 11.516129032258117  C 38.11022222222234 11.265935483871031  36.7715555555557 10.26606451612907  35.26488888888904 9.770193548387153  C 33.54666666666683 9.204774193548467  32.10844444444461 9.972516129032307  31.012444444444604 11.329161290322638  C 30.0195555555557 12.557548387096842  29.175111111111267 14.281806451612965  29.984000000000176 15.826322580645204  C 31.05688888888906 17.873935483871005  33.371555555555716 18.90541935483875  33.198222222222384 21.494064516129058  C 33.04266666666682 23.821677419354863  31.81688888888908 26.208000000000016  29.527111111111275 26.9197419354839  C 27.06222222222237 27.685677419354878  24.26666666666683 26.69754838709682  23.216000000000147 24.22270967741939  C 22.468444444444582 22.460516129032275  22.120000000000143 20.27832258064518  23.365333333333485 18.672387096774244  C 24.65688888888902 17.007741935483907  26.953777777777912 15.8525161290323  26.390222222222395 13.406580645161357  C 26.0391111111113 11.885548387096817  24.920888888889042 10.222709677419443  23.523555555555706 9.515483870967815  C 21.208000000000133 8.343096774193622  18.816888888889025 10.66348387096783  16.509333333333466 10.83148387096781  C 14.91733333333347 10.947096774193604  13.384888888889034 10.30761290322589  11.802666666666784 10.241677419354888  C 10.50755555555568 10.187483870967789  9.314666666666804 10.55509677419358  8.14044444444456 11.086193548387149  C 6.243555555555657 11.943354838709741  4.480000000000119 13.296387096774248  2.4631111111112256 13.854580645161342  C 1.9582222222223513 13.994580645161317  1.2044444444445617 14.130967741935521  0.7386666666667832 13.767870967741983  C 0.138666666666773 13.300000000000072  0.5591111111112291 12.51961290322585  0.9048888888890159 12.014709677419425  C 1.8871111111112542 10.580387096774244  3.371555555555662 9.451354838709728  4.74488888888901 8.435225806451662  C 6.715555555555662 6.978322580645212  8.822222222222333 5.690322580645224  11.024888888889008 4.629935483870998  C 13.059555555555663 3.650838709677447  15.183111111111227 2.906580645161306  17.424000000000127 2.618451612903278  C 18.65600000000015 2.4594838709678055  19.892444444444564 2.4441290322581315  21.133333333333464 2.422451612903292  C 21.714666666666794 2.4125161290323023  22.34933333333346 2.434193548387142  22.912000000000113 2.250838709677488  C 23.235555555555646 2.1460645161291136  23.49511111111123 1.9672258064516617  23.75377777777789 1.7477419354839243  C 24.403555555555663 1.195870967741998  25.079111111111214 0.6611612903226571  25.71200000000009 0.08941935483875157  " stroke-width="1" stroke="#ffffff" fill="none" transform="matrix(1 0 0 1 654 17837 )" />
  </g>
</svg>