<?xml version="1.0" encoding="utf-8"?>
<svg version="1.1" xmlns:xlink="http://www.w3.org/1999/xlink" width="35px" height="19px" xmlns="http://www.w3.org/2000/svg">
  <g transform="matrix(1 0 0 1 -372 -11105 )">
    <path d="M 17.859555555555556 0.14554838709676504  C 18.206984126984143 0.4990967741935404  18.579301587301575 0.8392258064516007  18.940952380952393 1.1783225806451398  C 19.08419047619048 1.312516129032232  19.231492063492077 1.4188387096774022  19.41587301587303 1.4864516129031942  C 19.796825396825408 1.625806451612862  20.237714285714294 1.622193548387053  20.633904761904788 1.6521290322580464  C 21.315555555555573 1.7037419354838645  21.994158730158752 1.7667096774193265  22.665142857142893 1.9055483870967487  C 25.272888888888932 2.4438709677419133  27.681523809523835 4.037161290322553  29.691936507936546 5.754838709677408  C 30.399492063492087 6.359741935483872  31.172571428571477 7.029161290322566  31.643936507936555 7.852387096774192  C 31.761269841269886 8.057806451612915  31.914158730158768 8.345290322580636  31.824253968254023 8.590967741935474  C 31.646984126984187 9.074064516129011  30.9196190476191 8.893419354838707  30.585904761904825 8.76903225806452  C 28.800507936508005 8.103225806451608  27.389460317460376 6.418064516129033  25.381587301587373 6.4149677419355  C 24.48101587301593 6.413419354838733  23.584507936508004 6.722580645161308  22.68393650793659 6.580645161290352  C 21.77726984126991 6.437677419354875  21.012317460317544 5.866322580645183  20.151365079365167 5.582967741935517  C 19.169523809523902 5.259870967741981  18.347682539682634 5.698580645161318  17.721396825396916 6.473806451612936  C 17.15403174603183 7.17574193548391  16.671492063492153 8.161032258064552  17.133714285714387 9.043612903225831  C 17.746793650793748 10.21367741935486  19.069460317460408 10.80309677419357  18.97041269841279 12.282322580645175  C 18.881523809523898 13.612387096774206  18.181079365079473 14.97600000000001  16.872634920635015 15.38270967741937  C 15.464126984127068 15.820387096774216  13.86666666666676 15.255741935483897  13.266285714285798 13.841548387096795  C 12.83911111111119 12.8345806451613  12.640000000000082 11.587612903225818  13.351619047619135 10.669935483870997  C 14.089650793650868 9.718709677419376  15.402158730158806 9.058580645161314  15.080126984127082 7.66090322580649  C 14.87949206349217 6.791741935483896  14.240507936508024 5.841548387096824  13.442031746031832 5.4374193548387515  C 12.11885714285722 4.767483870967784  10.752507936508014 6.09341935483876  9.433904761904838 6.189419354838749  C 8.524190476190554 6.255483870967773  7.648507936508019 5.89006451612908  6.74438095238102 5.852387096774222  C 6.004317460317531 5.821419354838737  5.322666666666746 6.03148387096776  4.651682539682605 6.334967741935514  C 3.56774603174609 6.824774193548423  2.560000000000068 7.597935483870999  1.4074920634921289 7.916903225806481  C 1.1189841269842007 7.9969032258064665  0.6882539682540353 8.07483870967744  0.42209523809530464 7.867354838709704  C 0.07923809523815599 7.600000000000041  0.31949206349213094 7.154064516129057  0.5170793650794376 6.865548387096815  C 1.078349206349288 6.045935483870997  1.9266031746032355 5.400774193548416  2.7113650793651485 4.820129032258093  C 3.8374603174603785 3.9876129032258354  5.041269841269905 3.251612903225842  6.299936507936576 2.645677419354856  C 7.462603174603236 2.0861935483871124  8.676063492063559 1.6609032258064607  9.956571428571502 1.496258064516159  C 10.660571428571515 1.405419354838746  11.367111111111178 1.3966451612903608  12.07619047619055 1.3842580645161668  C 12.408380952381025 1.3785806451613156  12.77104761904769 1.3909677419355098  13.092571428571492 1.2861935483871358  C 13.277460317460369 1.2263225806452078  13.425777777777844 1.1241290322580924  13.573587301587366 0.9987096774193853  C 13.94488888888895 0.6833548387097131  14.330920634920693 0.3778064516129469  14.69257142857148 0.05109677419357233  " stroke-width="2" stroke="#ffffff" fill="none" transform="matrix(1 0 0 1 373 11106 )" />
  </g>
</svg>