<?xml version="1.0" encoding="utf-8"?>
<svg version="1.1" xmlns:xlink="http://www.w3.org/1999/xlink" width="19px" height="13px" xmlns="http://www.w3.org/2000/svg">
  <defs>
    <mask fill="white" id="clip273">
      <path d="M 10.091054054054059 2.5251200000000265  C 10.228675675675667 2.449199999999989  11.804135135135148 1.725880000000009  11.804135135135148 1.6094000000000142  C 13.069432432432443 0.9599200000000019  14.510864864864883 0.08008000000002767  15.991837837837837 0.2090400000000227  C 16.89716216216215 0.2880800000000159  18.33962162162162 0.9230000000000178  18.534756756756753 1.9557200000000126  C 18.65235135135134 2.578160000000014  18.015594594594578 3.114280000000017  17.495405405405403 3.2952400000000237  C 16.94697297297298 3.4866000000000215  16.341540540540528 3.3269600000000126  15.779756756756749 3.324360000000015  C 15.137351351351356 3.32124000000003  14.525756756756746 3.45540000000002  13.92802702702702 3.688360000000009  C 12.766972972972956 4.140760000000012  11.667540540540543 4.781399999999997  10.580945945945954 5.389280000000017  C 9.30127027027027 6.1048000000000044  7.122432432432435 7.734480000000012  5.870999999999997 8.499400000000014  C 5.097648648648659 8.97208000000001  4.288864864864852 9.460360000000021  3.66700000000001 10.134800000000006  C 3.172486486486485 10.670920000000008  2.9239459459459543 11.316760000000016  2.5424054054054164 11.927240000000007  C 2.200405405405418 12.474280000000016  1.4316756756756814 12.982320000000003  0.7666756756756732 12.746760000000018  C -0.0441621621621687 12.459200000000019  -0.060081081081090656 11.115520000000018  0.0472432432432353 10.431720000000018  C 0.24391891891890138 9.17540000000002  1.1179189189189005 8.348600000000033  2.102324324324321 7.648160000000014  C 4.335081081081085 6.058520000000005  7.6950000000000065 3.8402000000000243  10.091054054054059 2.5251200000000265  Z " fill-rule="evenodd" />
    </mask>
  </defs>
  <g transform="matrix(1 0 0 1 -361 -11114 )">
    <path d="M 10.091054054054059 2.5251200000000265  C 10.228675675675667 2.449199999999989  11.804135135135148 1.725880000000009  11.804135135135148 1.6094000000000142  C 13.069432432432443 0.9599200000000019  14.510864864864883 0.08008000000002767  15.991837837837837 0.2090400000000227  C 16.89716216216215 0.2880800000000159  18.33962162162162 0.9230000000000178  18.534756756756753 1.9557200000000126  C 18.65235135135134 2.578160000000014  18.015594594594578 3.114280000000017  17.495405405405403 3.2952400000000237  C 16.94697297297298 3.4866000000000215  16.341540540540528 3.3269600000000126  15.779756756756749 3.324360000000015  C 15.137351351351356 3.32124000000003  14.525756756756746 3.45540000000002  13.92802702702702 3.688360000000009  C 12.766972972972956 4.140760000000012  11.667540540540543 4.781399999999997  10.580945945945954 5.389280000000017  C 9.30127027027027 6.1048000000000044  7.122432432432435 7.734480000000012  5.870999999999997 8.499400000000014  C 5.097648648648659 8.97208000000001  4.288864864864852 9.460360000000021  3.66700000000001 10.134800000000006  C 3.172486486486485 10.670920000000008  2.9239459459459543 11.316760000000016  2.5424054054054164 11.927240000000007  C 2.200405405405418 12.474280000000016  1.4316756756756814 12.982320000000003  0.7666756756756732 12.746760000000018  C -0.0441621621621687 12.459200000000019  -0.060081081081090656 11.115520000000018  0.0472432432432353 10.431720000000018  C 0.24391891891890138 9.17540000000002  1.1179189189189005 8.348600000000033  2.102324324324321 7.648160000000014  C 4.335081081081085 6.058520000000005  7.6950000000000065 3.8402000000000243  10.091054054054059 2.5251200000000265  Z " fill-rule="nonzero" fill="#ffffff" stroke="none" fill-opacity="0" transform="matrix(1 0 0 1 361 11114 )" />
    <path d="M 10.091054054054059 2.5251200000000265  C 10.228675675675667 2.449199999999989  11.804135135135148 1.725880000000009  11.804135135135148 1.6094000000000142  C 13.069432432432443 0.9599200000000019  14.510864864864883 0.08008000000002767  15.991837837837837 0.2090400000000227  C 16.89716216216215 0.2880800000000159  18.33962162162162 0.9230000000000178  18.534756756756753 1.9557200000000126  C 18.65235135135134 2.578160000000014  18.015594594594578 3.114280000000017  17.495405405405403 3.2952400000000237  C 16.94697297297298 3.4866000000000215  16.341540540540528 3.3269600000000126  15.779756756756749 3.324360000000015  C 15.137351351351356 3.32124000000003  14.525756756756746 3.45540000000002  13.92802702702702 3.688360000000009  C 12.766972972972956 4.140760000000012  11.667540540540543 4.781399999999997  10.580945945945954 5.389280000000017  C 9.30127027027027 6.1048000000000044  7.122432432432435 7.734480000000012  5.870999999999997 8.499400000000014  C 5.097648648648659 8.97208000000001  4.288864864864852 9.460360000000021  3.66700000000001 10.134800000000006  C 3.172486486486485 10.670920000000008  2.9239459459459543 11.316760000000016  2.5424054054054164 11.927240000000007  C 2.200405405405418 12.474280000000016  1.4316756756756814 12.982320000000003  0.7666756756756732 12.746760000000018  C -0.0441621621621687 12.459200000000019  -0.060081081081090656 11.115520000000018  0.0472432432432353 10.431720000000018  C 0.24391891891890138 9.17540000000002  1.1179189189189005 8.348600000000033  2.102324324324321 7.648160000000014  C 4.335081081081085 6.058520000000005  7.6950000000000065 3.8402000000000243  10.091054054054059 2.5251200000000265  Z " stroke-width="4" stroke="#ffffff" fill="none" transform="matrix(1 0 0 1 361 11114 )" mask="url(#clip273)" />
  </g>
</svg>