<?xml version="1.0" encoding="utf-8"?>
<svg version="1.1" xmlns:xlink="http://www.w3.org/1999/xlink" width="42px" height="21px" xmlns="http://www.w3.org/2000/svg">
  <defs>
    <mask fill="white" id="clip386">
      <path d="M 26.78170212765955 3.9068750000000776  C 27.187404255319127 3.749375000000022  29.753872340425524 2.9478750000000247  29.753872340425524 2.7886250000000103  C 31.80025531914895 2.060625000000016  33.86093617021276 1.35625000000001  35.97612765957448 0.8443750000000279  C 37.379106382978726 0.5048750000000481  38.93310638297876 0.15050000000002228  40.391489361702114 0.2817500000000521  C 41.07063829787232 0.34300000000004616  41.634510638297876 0.5932500000000474  41.76944680851061 1.2941250000000366  C 42.00804255319145 2.53750000000003  40.96876595744676 3.243625000000044  39.94378723404252 3.6662500000000477  C 37.89651063829784 4.511500000000055  35.74110638297871 5.138875000000041  33.65987234042551 5.904500000000041  C 31.767191489361682 6.601000000000035  29.887914893616994 7.32812500000005  28.00953191489361 8.05962500000006  C 25.982808510638318 8.84887500000005  23.87119148936167 11.066125000000042  21.90791489361704 11.99712500000006  C 19.446000000000023 13.164375000000064  15.425617021276596 14.343000000000046  12.972638297872338 15.526875000000054  C 10.928042553191476 16.513000000000062  8.903106382978743 17.537625000000055  6.869234042553202 18.544750000000064  C 5.711999999999997 19.11787500000004  4.524382978723394 19.846750000000064  3.259021276595737 20.173125000000056  C 2.2554893617021285 20.43212500000005  0.7515319148936243 20.188000000000052  0.37263829787231645 19.059250000000034  C 0.041106382978716494 18.070500000000038  1.2599999999999716 17.18237500000005  1.900723404255277 16.650375000000047  C 5.011404255319102 14.069125000000057  8.953148936170166 10.833375000000025  12.62770212765955 9.180500000000066  C 16.77676595744676 7.314125000000082  22.53612765957446 5.551875000000074  26.78170212765955 3.9068750000000776  Z " fill-rule="evenodd" />
    </mask>
  </defs>
  <g transform="matrix(1 0 0 1 -657 -17901 )">
    <path d="M 26.78170212765955 3.9068750000000776  C 27.187404255319127 3.749375000000022  29.753872340425524 2.9478750000000247  29.753872340425524 2.7886250000000103  C 31.80025531914895 2.060625000000016  33.86093617021276 1.35625000000001  35.97612765957448 0.8443750000000279  C 37.379106382978726 0.5048750000000481  38.93310638297876 0.15050000000002228  40.391489361702114 0.2817500000000521  C 41.07063829787232 0.34300000000004616  41.634510638297876 0.5932500000000474  41.76944680851061 1.2941250000000366  C 42.00804255319145 2.53750000000003  40.96876595744676 3.243625000000044  39.94378723404252 3.6662500000000477  C 37.89651063829784 4.511500000000055  35.74110638297871 5.138875000000041  33.65987234042551 5.904500000000041  C 31.767191489361682 6.601000000000035  29.887914893616994 7.32812500000005  28.00953191489361 8.05962500000006  C 25.982808510638318 8.84887500000005  23.87119148936167 11.066125000000042  21.90791489361704 11.99712500000006  C 19.446000000000023 13.164375000000064  15.425617021276596 14.343000000000046  12.972638297872338 15.526875000000054  C 10.928042553191476 16.513000000000062  8.903106382978743 17.537625000000055  6.869234042553202 18.544750000000064  C 5.711999999999997 19.11787500000004  4.524382978723394 19.846750000000064  3.259021276595737 20.173125000000056  C 2.2554893617021285 20.43212500000005  0.7515319148936243 20.188000000000052  0.37263829787231645 19.059250000000034  C 0.041106382978716494 18.070500000000038  1.2599999999999716 17.18237500000005  1.900723404255277 16.650375000000047  C 5.011404255319102 14.069125000000057  8.953148936170166 10.833375000000025  12.62770212765955 9.180500000000066  C 16.77676595744676 7.314125000000082  22.53612765957446 5.551875000000074  26.78170212765955 3.9068750000000776  Z " fill-rule="nonzero" fill="#ffffff" stroke="none" fill-opacity="0" transform="matrix(1 0 0 1 657 17901 )" />
    <path d="M 26.78170212765955 3.9068750000000776  C 27.187404255319127 3.749375000000022  29.753872340425524 2.9478750000000247  29.753872340425524 2.7886250000000103  C 31.80025531914895 2.060625000000016  33.86093617021276 1.35625000000001  35.97612765957448 0.8443750000000279  C 37.379106382978726 0.5048750000000481  38.93310638297876 0.15050000000002228  40.391489361702114 0.2817500000000521  C 41.07063829787232 0.34300000000004616  41.634510638297876 0.5932500000000474  41.76944680851061 1.2941250000000366  C 42.00804255319145 2.53750000000003  40.96876595744676 3.243625000000044  39.94378723404252 3.6662500000000477  C 37.89651063829784 4.511500000000055  35.74110638297871 5.138875000000041  33.65987234042551 5.904500000000041  C 31.767191489361682 6.601000000000035  29.887914893616994 7.32812500000005  28.00953191489361 8.05962500000006  C 25.982808510638318 8.84887500000005  23.87119148936167 11.066125000000042  21.90791489361704 11.99712500000006  C 19.446000000000023 13.164375000000064  15.425617021276596 14.343000000000046  12.972638297872338 15.526875000000054  C 10.928042553191476 16.513000000000062  8.903106382978743 17.537625000000055  6.869234042553202 18.544750000000064  C 5.711999999999997 19.11787500000004  4.524382978723394 19.846750000000064  3.259021276595737 20.173125000000056  C 2.2554893617021285 20.43212500000005  0.7515319148936243 20.188000000000052  0.37263829787231645 19.059250000000034  C 0.041106382978716494 18.070500000000038  1.2599999999999716 17.18237500000005  1.900723404255277 16.650375000000047  C 5.011404255319102 14.069125000000057  8.953148936170166 10.833375000000025  12.62770212765955 9.180500000000066  C 16.77676595744676 7.314125000000082  22.53612765957446 5.551875000000074  26.78170212765955 3.9068750000000776  Z " stroke-width="2" stroke="#ffffff" fill="none" transform="matrix(1 0 0 1 657 17901 )" mask="url(#clip386)" />
  </g>
</svg>