<?xml version="1.0" encoding="utf-8"?>
<svg version="1.1" xmlns:xlink="http://www.w3.org/1999/xlink" width="33px" height="22px" xmlns="http://www.w3.org/2000/svg">
  <defs>
    <mask fill="white" id="clip385">
      <path d="M 17.526567567567575 4.273280000000045  C 17.76559459459458 4.144799999999982  20.50191891891894 2.920720000000015  20.50191891891894 2.723600000000024  C 22.69954054054056 1.624480000000003  25.203081081081116 0.13552000000004683  27.775297297297293 0.3537600000000384  C 29.34770270270268 0.4875200000000268  31.853027027027025 1.56200000000003  32.19194594594594 3.309680000000021  C 32.39618918918917 4.363040000000024  31.290243243243218 5.270320000000028  30.38675675675675 5.57656000000004  C 29.434216216216225 5.900400000000037  28.382675675675657 5.630240000000022  27.40694594594593 5.625840000000026  C 26.291189189189197 5.620560000000051  25.228945945945927 5.847600000000034  24.190783783783775 6.241840000000015  C 22.174216216216188 7.00744000000002  20.26467567567568 8.091599999999994  18.37743243243245 9.12032000000003  C 16.15483783783784 10.331200000000008  12.370540540540544 13.08912000000002  10.196999999999994 14.383600000000023  C 8.85381081081083 15.183520000000017  7.44908108108106 16.009840000000036  6.3690000000000175 17.15120000000001  C 5.510108108108105 18.058480000000014  5.0784324324324475 19.15144000000003  4.415756756756776 20.184560000000012  C 3.821756756756779 21.11032000000003  2.4865945945946044 21.970080000000006  1.3315945945945902 21.57144000000003  C -0.07670270270271405 21.084800000000033  -0.10435135135136799 18.81088000000003  0.08205405405404026 17.65368000000003  C 0.42364864864861823 15.527600000000033  1.9416486486486166 14.128400000000056  3.6514054054054 12.943040000000023  C 7.529351351351358 10.252880000000008  13.365000000000013 6.498800000000042  17.526567567567575 4.273280000000045  Z " fill-rule="evenodd" />
    </mask>
  </defs>
  <g transform="matrix(1 0 0 1 -633 -17851 )">
    <path d="M 17.526567567567575 4.273280000000045  C 17.76559459459458 4.144799999999982  20.50191891891894 2.920720000000015  20.50191891891894 2.723600000000024  C 22.69954054054056 1.624480000000003  25.203081081081116 0.13552000000004683  27.775297297297293 0.3537600000000384  C 29.34770270270268 0.4875200000000268  31.853027027027025 1.56200000000003  32.19194594594594 3.309680000000021  C 32.39618918918917 4.363040000000024  31.290243243243218 5.270320000000028  30.38675675675675 5.57656000000004  C 29.434216216216225 5.900400000000037  28.382675675675657 5.630240000000022  27.40694594594593 5.625840000000026  C 26.291189189189197 5.620560000000051  25.228945945945927 5.847600000000034  24.190783783783775 6.241840000000015  C 22.174216216216188 7.00744000000002  20.26467567567568 8.091599999999994  18.37743243243245 9.12032000000003  C 16.15483783783784 10.331200000000008  12.370540540540544 13.08912000000002  10.196999999999994 14.383600000000023  C 8.85381081081083 15.183520000000017  7.44908108108106 16.009840000000036  6.3690000000000175 17.15120000000001  C 5.510108108108105 18.058480000000014  5.0784324324324475 19.15144000000003  4.415756756756776 20.184560000000012  C 3.821756756756779 21.11032000000003  2.4865945945946044 21.970080000000006  1.3315945945945902 21.57144000000003  C -0.07670270270271405 21.084800000000033  -0.10435135135136799 18.81088000000003  0.08205405405404026 17.65368000000003  C 0.42364864864861823 15.527600000000033  1.9416486486486166 14.128400000000056  3.6514054054054 12.943040000000023  C 7.529351351351358 10.252880000000008  13.365000000000013 6.498800000000042  17.526567567567575 4.273280000000045  Z " fill-rule="nonzero" fill="#ffffff" stroke="none" fill-opacity="0" transform="matrix(1 0 0 1 633 17851 )" />
    <path d="M 17.526567567567575 4.273280000000045  C 17.76559459459458 4.144799999999982  20.50191891891894 2.920720000000015  20.50191891891894 2.723600000000024  C 22.69954054054056 1.624480000000003  25.203081081081116 0.13552000000004683  27.775297297297293 0.3537600000000384  C 29.34770270270268 0.4875200000000268  31.853027027027025 1.56200000000003  32.19194594594594 3.309680000000021  C 32.39618918918917 4.363040000000024  31.290243243243218 5.270320000000028  30.38675675675675 5.57656000000004  C 29.434216216216225 5.900400000000037  28.382675675675657 5.630240000000022  27.40694594594593 5.625840000000026  C 26.291189189189197 5.620560000000051  25.228945945945927 5.847600000000034  24.190783783783775 6.241840000000015  C 22.174216216216188 7.00744000000002  20.26467567567568 8.091599999999994  18.37743243243245 9.12032000000003  C 16.15483783783784 10.331200000000008  12.370540540540544 13.08912000000002  10.196999999999994 14.383600000000023  C 8.85381081081083 15.183520000000017  7.44908108108106 16.009840000000036  6.3690000000000175 17.15120000000001  C 5.510108108108105 18.058480000000014  5.0784324324324475 19.15144000000003  4.415756756756776 20.184560000000012  C 3.821756756756779 21.11032000000003  2.4865945945946044 21.970080000000006  1.3315945945945902 21.57144000000003  C -0.07670270270271405 21.084800000000033  -0.10435135135136799 18.81088000000003  0.08205405405404026 17.65368000000003  C 0.42364864864861823 15.527600000000033  1.9416486486486166 14.128400000000056  3.6514054054054 12.943040000000023  C 7.529351351351358 10.252880000000008  13.365000000000013 6.498800000000042  17.526567567567575 4.273280000000045  Z " stroke-width="2" stroke="#ffffff" fill="none" transform="matrix(1 0 0 1 633 17851 )" mask="url(#clip385)" />
  </g>
</svg>