<?xml version="1.0" encoding="utf-8"?>
<svg version="1.1" xmlns:xlink="http://www.w3.org/1999/xlink" width="24px" height="12px" xmlns="http://www.w3.org/2000/svg">
  <defs>
    <mask fill="white" id="clip274">
      <path d="M 15.30382978723403 2.2325000000000443  C 15.535659574468074 2.1425000000000125  17.00221276595744 1.684500000000014  17.00221276595744 1.593500000000006  C 18.17157446808511 1.177500000000009  19.34910638297872 0.7750000000000057  20.55778723404256 0.4825000000000159  C 21.35948936170213 0.2885000000000275  22.247489361702147 0.08600000000001273  23.08085106382978 0.16100000000002979  C 23.468936170212757 0.19600000000002638  23.791148936170217 0.33900000000002706  23.86825531914892 0.7395000000000209  C 24.004595744680827 1.450000000000017  23.410723404255293 1.8535000000000252  22.825021276595724 2.0950000000000273  C 21.655148936170193 2.5780000000000314  20.423489361702117 2.9365000000000236  19.234212765957434 3.3740000000000236  C 18.152680851063817 3.77200000000002  17.078808510638282 4.187500000000028  16.005446808510634 4.605500000000035  C 14.847319148936183 5.056500000000028  13.640680851063811 6.323500000000024  12.518808510638308 6.855500000000035  C 11.112000000000013 7.522500000000036  8.81463829787234 8.196000000000026  7.412936170212765 8.87250000000003  C 6.2445957446808436 9.436000000000035  5.087489361702139 10.021500000000032  3.9252765957446867 10.597000000000037  C 3.2639999999999985 10.924500000000023  2.5853617021276536 11.341000000000037  1.862297872340421 11.527500000000032  C 1.2888510638297876 11.675500000000028  0.42944680851064243 11.53600000000003  0.21293617021275224 10.89100000000002  C 0.023489361702123714 10.326000000000022  0.7199999999999838 9.818500000000029  1.086127659574444 9.514500000000027  C 2.863659574468058 8.039500000000032  5.116085106382952 6.190500000000014  7.2158297872340285 5.246000000000038  C 9.586723404255292 4.179500000000047  12.87778723404255 3.172500000000042  15.30382978723403 2.2325000000000443  Z " fill-rule="evenodd" />
    </mask>
  </defs>
  <g transform="matrix(1 0 0 1 -374 -11143 )">
    <path d="M 15.30382978723403 2.2325000000000443  C 15.535659574468074 2.1425000000000125  17.00221276595744 1.684500000000014  17.00221276595744 1.593500000000006  C 18.17157446808511 1.177500000000009  19.34910638297872 0.7750000000000057  20.55778723404256 0.4825000000000159  C 21.35948936170213 0.2885000000000275  22.247489361702147 0.08600000000001273  23.08085106382978 0.16100000000002979  C 23.468936170212757 0.19600000000002638  23.791148936170217 0.33900000000002706  23.86825531914892 0.7395000000000209  C 24.004595744680827 1.450000000000017  23.410723404255293 1.8535000000000252  22.825021276595724 2.0950000000000273  C 21.655148936170193 2.5780000000000314  20.423489361702117 2.9365000000000236  19.234212765957434 3.3740000000000236  C 18.152680851063817 3.77200000000002  17.078808510638282 4.187500000000028  16.005446808510634 4.605500000000035  C 14.847319148936183 5.056500000000028  13.640680851063811 6.323500000000024  12.518808510638308 6.855500000000035  C 11.112000000000013 7.522500000000036  8.81463829787234 8.196000000000026  7.412936170212765 8.87250000000003  C 6.2445957446808436 9.436000000000035  5.087489361702139 10.021500000000032  3.9252765957446867 10.597000000000037  C 3.2639999999999985 10.924500000000023  2.5853617021276536 11.341000000000037  1.862297872340421 11.527500000000032  C 1.2888510638297876 11.675500000000028  0.42944680851064243 11.53600000000003  0.21293617021275224 10.89100000000002  C 0.023489361702123714 10.326000000000022  0.7199999999999838 9.818500000000029  1.086127659574444 9.514500000000027  C 2.863659574468058 8.039500000000032  5.116085106382952 6.190500000000014  7.2158297872340285 5.246000000000038  C 9.586723404255292 4.179500000000047  12.87778723404255 3.172500000000042  15.30382978723403 2.2325000000000443  Z " fill-rule="nonzero" fill="#ffffff" stroke="none" fill-opacity="0" transform="matrix(1 0 0 1 374 11143 )" />
    <path d="M 15.30382978723403 2.2325000000000443  C 15.535659574468074 2.1425000000000125  17.00221276595744 1.684500000000014  17.00221276595744 1.593500000000006  C 18.17157446808511 1.177500000000009  19.34910638297872 0.7750000000000057  20.55778723404256 0.4825000000000159  C 21.35948936170213 0.2885000000000275  22.247489361702147 0.08600000000001273  23.08085106382978 0.16100000000002979  C 23.468936170212757 0.19600000000002638  23.791148936170217 0.33900000000002706  23.86825531914892 0.7395000000000209  C 24.004595744680827 1.450000000000017  23.410723404255293 1.8535000000000252  22.825021276595724 2.0950000000000273  C 21.655148936170193 2.5780000000000314  20.423489361702117 2.9365000000000236  19.234212765957434 3.3740000000000236  C 18.152680851063817 3.77200000000002  17.078808510638282 4.187500000000028  16.005446808510634 4.605500000000035  C 14.847319148936183 5.056500000000028  13.640680851063811 6.323500000000024  12.518808510638308 6.855500000000035  C 11.112000000000013 7.522500000000036  8.81463829787234 8.196000000000026  7.412936170212765 8.87250000000003  C 6.2445957446808436 9.436000000000035  5.087489361702139 10.021500000000032  3.9252765957446867 10.597000000000037  C 3.2639999999999985 10.924500000000023  2.5853617021276536 11.341000000000037  1.862297872340421 11.527500000000032  C 1.2888510638297876 11.675500000000028  0.42944680851064243 11.53600000000003  0.21293617021275224 10.89100000000002  C 0.023489361702123714 10.326000000000022  0.7199999999999838 9.818500000000029  1.086127659574444 9.514500000000027  C 2.863659574468058 8.039500000000032  5.116085106382952 6.190500000000014  7.2158297872340285 5.246000000000038  C 9.586723404255292 4.179500000000047  12.87778723404255 3.172500000000042  15.30382978723403 2.2325000000000443  Z " stroke-width="4" stroke="#ffffff" fill="none" transform="matrix(1 0 0 1 374 11143 )" mask="url(#clip274)" />
  </g>
</svg>