<?xml version="1.0" encoding="utf-8"?>
<svg version="1.1" xmlns:xlink="http://www.w3.org/1999/xlink" width="16px" height="15px" xmlns="http://www.w3.org/2000/svg">
  <defs>
    <mask fill="white" id="clip387">
      <path d="M 15.323555555555535 9.305294117647101  C 15.37244444444443 8.980588235294114  15.398222222222204 7.107352941176476  15.398222222222204 6.778235294117662  C 15.393777777777764 4.068529411764697  13.639111111111106 1.5873529411765013  11.067555555555524 0.6732352941176767  C 8.498666666666647 -0.2391176470587866  3.993777777777723 0.5700000000000132  2.262222222222186 2.662941176470614  C 0.5306666666666237 4.75676470588237  0.3048888888888541 9.330000000000013  1.7066666666666304 11.653235294117692  C 3.1084444444444066 13.976470588235323  7.461333333333288 15.21000000000005  10.137777777777753 14.682352941176507  C 12.804444444444421 14.15647058823533  14.910222222222224 11.972647058823544  15.323555555555535 9.305294117647101  Z " fill-rule="evenodd" />
    </mask>
  </defs>
  <g transform="matrix(1 0 0 1 -567 -17930 )">
    <path d="M 15.323555555555535 9.305294117647101  C 15.37244444444443 8.980588235294114  15.398222222222204 7.107352941176476  15.398222222222204 6.778235294117662  C 15.393777777777764 4.068529411764697  13.639111111111106 1.5873529411765013  11.067555555555524 0.6732352941176767  C 8.498666666666647 -0.2391176470587866  3.993777777777723 0.5700000000000132  2.262222222222186 2.662941176470614  C 0.5306666666666237 4.75676470588237  0.3048888888888541 9.330000000000013  1.7066666666666304 11.653235294117692  C 3.1084444444444066 13.976470588235323  7.461333333333288 15.21000000000005  10.137777777777753 14.682352941176507  C 12.804444444444421 14.15647058823533  14.910222222222224 11.972647058823544  15.323555555555535 9.305294117647101  Z " fill-rule="nonzero" fill="#ffffff" stroke="none" fill-opacity="0" transform="matrix(1 0 0 1 567 17930 )" />
    <path d="M 15.323555555555535 9.305294117647101  C 15.37244444444443 8.980588235294114  15.398222222222204 7.107352941176476  15.398222222222204 6.778235294117662  C 15.393777777777764 4.068529411764697  13.639111111111106 1.5873529411765013  11.067555555555524 0.6732352941176767  C 8.498666666666647 -0.2391176470587866  3.993777777777723 0.5700000000000132  2.262222222222186 2.662941176470614  C 0.5306666666666237 4.75676470588237  0.3048888888888541 9.330000000000013  1.7066666666666304 11.653235294117692  C 3.1084444444444066 13.976470588235323  7.461333333333288 15.21000000000005  10.137777777777753 14.682352941176507  C 12.804444444444421 14.15647058823533  14.910222222222224 11.972647058823544  15.323555555555535 9.305294117647101  Z " stroke-width="2" stroke="#ffffff" fill="none" transform="matrix(1 0 0 1 567 17930 )" mask="url(#clip387)" />
  </g>
</svg>