<?xml version="1.0" encoding="utf-8"?>
<svg version="1.1" xmlns:xlink="http://www.w3.org/1999/xlink" width="17px" height="13px" xmlns="http://www.w3.org/2000/svg">
  <g transform="matrix(1 0 0 1 -315 -11278 )">
    <path d="M 13.669185185185198 3.0389999999999873  C 11.224888888888902 4.530499999999961  8.791481481481487 6.040500000000009  6.331629629629637 7.5084999999999695  C 5.218370370370382 8.172999999999945  4.094740740740751 8.952999999999975  2.882962962962964 9.445499999999981  C 2.5900000000000025 9.56450000000001  2.260222222222227 9.668999999999983  1.9434074074074026 9.579000000000008  C 1.2356296296296199 9.377499999999998  0.5045185185185106 8.196000000000026  0.5164444444444345 7.514499999999998  C 0.5205925925925878 7.267499999999984  0.6331111111110983 7.0625  0.7974814814814724 6.877499999999998  C 1.4160740740740712 6.180999999999983  2.407999999999988 5.7099999999999795  3.2034074074073913 5.236499999999978  C 5.9531111111110935 3.599999999999966  8.731333333333318 2.0084999999999695  11.500222222222208 0.402499999999975  C 11.617407407407393 0.33449999999999136  11.734592592592579 0.2664999999999509  11.851777777777762 0.19849999999996726  " stroke-width="2" stroke="#ffffff" fill="none" transform="matrix(1 0 0 1 316 11279 )" />
  </g>
</svg>