<?xml version="1.0" encoding="utf-8"?>
<svg version="1.1" xmlns:xlink="http://www.w3.org/1999/xlink" width="9px" height="9px" xmlns="http://www.w3.org/2000/svg">
  <defs>
    <mask fill="white" id="clip275">
      <path d="M 8.619499999999988 5.583176470588261  C 8.646999999999991 5.388352941176469  8.66149999999999 4.264411764705886  8.66149999999999 4.066941176470597  C 8.658999999999992 2.4411176470588183  7.671999999999997 0.9524117647059008  6.2254999999999825 0.403941176470606  C 4.780499999999989 -0.14347058823527195  2.246499999999969 0.3420000000000079  1.2724999999999795 1.5977647058823683  C 0.2984999999999758 2.854058823529422  0.17149999999998045 5.598000000000007  0.9599999999999795 6.991941176470615  C 1.7484999999999786 8.385882352941193  4.196999999999974 9.12600000000003  5.702499999999986 8.809411764705905  C 7.202499999999986 8.493882352941197  8.387 7.183588235294127  8.619499999999988 5.583176470588261  Z " fill-rule="evenodd" />
    </mask>
  </defs>
  <g transform="matrix(1 0 0 1 -323 -11159 )">
    <path d="M 8.619499999999988 5.583176470588261  C 8.646999999999991 5.388352941176469  8.66149999999999 4.264411764705886  8.66149999999999 4.066941176470597  C 8.658999999999992 2.4411176470588183  7.671999999999997 0.9524117647059008  6.2254999999999825 0.403941176470606  C 4.780499999999989 -0.14347058823527195  2.246499999999969 0.3420000000000079  1.2724999999999795 1.5977647058823683  C 0.2984999999999758 2.854058823529422  0.17149999999998045 5.598000000000007  0.9599999999999795 6.991941176470615  C 1.7484999999999786 8.385882352941193  4.196999999999974 9.12600000000003  5.702499999999986 8.809411764705905  C 7.202499999999986 8.493882352941197  8.387 7.183588235294127  8.619499999999988 5.583176470588261  Z " fill-rule="nonzero" fill="#ffffff" stroke="none" fill-opacity="0" transform="matrix(1 0 0 1 323 11159 )" />
    <path d="M 8.619499999999988 5.583176470588261  C 8.646999999999991 5.388352941176469  8.66149999999999 4.264411764705886  8.66149999999999 4.066941176470597  C 8.658999999999992 2.4411176470588183  7.671999999999997 0.9524117647059008  6.2254999999999825 0.403941176470606  C 4.780499999999989 -0.14347058823527195  2.246499999999969 0.3420000000000079  1.2724999999999795 1.5977647058823683  C 0.2984999999999758 2.854058823529422  0.17149999999998045 5.598000000000007  0.9599999999999795 6.991941176470615  C 1.7484999999999786 8.385882352941193  4.196999999999974 9.12600000000003  5.702499999999986 8.809411764705905  C 7.202499999999986 8.493882352941197  8.387 7.183588235294127  8.619499999999988 5.583176470588261  Z " stroke-width="4" stroke="#ffffff" fill="none" transform="matrix(1 0 0 1 323 11159 )" mask="url(#clip275)" />
  </g>
</svg>