<?xml version="1.0" encoding="utf-8"?>
<svg version="1.1" xmlns:xlink="http://www.w3.org/1999/xlink" width="25px" height="19px" xmlns="http://www.w3.org/2000/svg">
  <g transform="matrix(1 0 0 1 -554 -18142 )">
    <path d="M 23.43288888888891 5.470199999999977  C 19.24266666666669 8.154899999999929  15.071111111111122 10.872900000000016  10.854222222222234 13.515299999999945  C 8.945777777777797 14.7113999999999  7.0195555555555735 16.115399999999955  4.942222222222224 17.001899999999967  C 4.440000000000004 17.216100000000015  3.8746666666666747 17.40419999999997  3.331555555555547 17.242200000000015  C 2.1182222222222054 16.879499999999997  0.8648888888888753 14.752800000000049  0.8853333333333163 13.526099999999998  C 0.8924444444444362 13.081499999999972  1.0853333333333113 12.7125  1.3671111111110954 12.379499999999995  C 2.427555555555551 11.12579999999997  4.12799999999998 10.277999999999963  5.491555555555528 9.425699999999962  C 10.205333333333304 6.479999999999939  14.967999999999975 3.615299999999945  19.71466666666664 0.724499999999955  C 19.91555555555553 0.6020999999999844  20.11644444444442 0.4796999999999116  20.31733333333331 0.35729999999994105  " stroke-width="1" stroke="#ffffff" fill="none" transform="matrix(1 0 0 1 554 18142 )" />
  </g>
</svg>