<?xml version="1.0" encoding="utf-8"?>
<svg version="1.1" xmlns:xlink="http://www.w3.org/1999/xlink" width="19px" height="7px" xmlns="http://www.w3.org/2000/svg">
  <defs>
    <mask fill="white" id="clip277">
      <path d="M 11.89862162162159 1.37199999999994  C 11.806189189189196 1.393538461538443  10.46694594594595 1.6482307692307883  10.46694594594595 1.699923076923098  C 8.376945945945954 2.1920769230769372  5.374945945945952 3.5872307692307874  3.3095945945946057 4.186000000000001  C 2.472054054054065 4.428846153846166  1.601135135135147 4.672230769230781  0.8180270270270361 5.076615384615383  C 0.5946486486486566 5.191846153846182  0.3194054054054126 5.331307692307667  0.18229729729730665 5.562846153846163  C 0.07240540540541546 5.748615384615409  0.06932432432433425 5.952692307692342  0.1627837837837875 6.146538461538443  C 0.47808108108108704 6.79915384615382  1.3911081081081096 6.766846153846158  1.9652162162162155 6.710846153846136  C 4.014135135135138 6.509999999999956  6.081540540540535 5.856307692307679  8.08321621621621 5.397538461538462  C 10.17578378378377 4.9183076923077005  13.18137837837837 3.5360769230769273  15.25597297297296 2.9755384615384366  C 16.20545945945944 2.719230769230745  17.16624324324323 2.448923076923078  18.073621621621605 2.0547692307691863  C 18.32627027027025 1.9449230769230588  18.65748648648647 1.824846153846098  18.83670270270268 1.5916923076922558  C 19.04108108108106 1.3262307692306894  18.981513513513498 0.9487692307692004  18.82386486486484 0.6698461538461078  C 18.596891891891865 0.2686923076922592  18.20970270270268 0.20999999999993144  17.790162162162133 0.22238461538456003  C 16.91564864864862 0.24876923076916369  16.031378378378346 0.4630769230768692  15.175351351351317 0.6375384615383837  C 14.078999999999972 0.8609999999999025  12.989837837837804 1.1226923076922048  11.89862162162159 1.37199999999994  Z " fill-rule="evenodd" />
    </mask>
  </defs>
  <g transform="matrix(1 0 0 1 -299 -11269 )">
    <path d="M 11.89862162162159 1.37199999999994  C 11.806189189189196 1.393538461538443  10.46694594594595 1.6482307692307883  10.46694594594595 1.699923076923098  C 8.376945945945954 2.1920769230769372  5.374945945945952 3.5872307692307874  3.3095945945946057 4.186000000000001  C 2.472054054054065 4.428846153846166  1.601135135135147 4.672230769230781  0.8180270270270361 5.076615384615383  C 0.5946486486486566 5.191846153846182  0.3194054054054126 5.331307692307667  0.18229729729730665 5.562846153846163  C 0.07240540540541546 5.748615384615409  0.06932432432433425 5.952692307692342  0.1627837837837875 6.146538461538443  C 0.47808108108108704 6.79915384615382  1.3911081081081096 6.766846153846158  1.9652162162162155 6.710846153846136  C 4.014135135135138 6.509999999999956  6.081540540540535 5.856307692307679  8.08321621621621 5.397538461538462  C 10.17578378378377 4.9183076923077005  13.18137837837837 3.5360769230769273  15.25597297297296 2.9755384615384366  C 16.20545945945944 2.719230769230745  17.16624324324323 2.448923076923078  18.073621621621605 2.0547692307691863  C 18.32627027027025 1.9449230769230588  18.65748648648647 1.824846153846098  18.83670270270268 1.5916923076922558  C 19.04108108108106 1.3262307692306894  18.981513513513498 0.9487692307692004  18.82386486486484 0.6698461538461078  C 18.596891891891865 0.2686923076922592  18.20970270270268 0.20999999999993144  17.790162162162133 0.22238461538456003  C 16.91564864864862 0.24876923076916369  16.031378378378346 0.4630769230768692  15.175351351351317 0.6375384615383837  C 14.078999999999972 0.8609999999999025  12.989837837837804 1.1226923076922048  11.89862162162159 1.37199999999994  Z " fill-rule="nonzero" fill="#ffffff" stroke="none" fill-opacity="0" transform="matrix(1 0 0 1 299 11269 )" />
    <path d="M 11.89862162162159 1.37199999999994  C 11.806189189189196 1.393538461538443  10.46694594594595 1.6482307692307883  10.46694594594595 1.699923076923098  C 8.376945945945954 2.1920769230769372  5.374945945945952 3.5872307692307874  3.3095945945946057 4.186000000000001  C 2.472054054054065 4.428846153846166  1.601135135135147 4.672230769230781  0.8180270270270361 5.076615384615383  C 0.5946486486486566 5.191846153846182  0.3194054054054126 5.331307692307667  0.18229729729730665 5.562846153846163  C 0.07240540540541546 5.748615384615409  0.06932432432433425 5.952692307692342  0.1627837837837875 6.146538461538443  C 0.47808108108108704 6.79915384615382  1.3911081081081096 6.766846153846158  1.9652162162162155 6.710846153846136  C 4.014135135135138 6.509999999999956  6.081540540540535 5.856307692307679  8.08321621621621 5.397538461538462  C 10.17578378378377 4.9183076923077005  13.18137837837837 3.5360769230769273  15.25597297297296 2.9755384615384366  C 16.20545945945944 2.719230769230745  17.16624324324323 2.448923076923078  18.073621621621605 2.0547692307691863  C 18.32627027027025 1.9449230769230588  18.65748648648647 1.824846153846098  18.83670270270268 1.5916923076922558  C 19.04108108108106 1.3262307692306894  18.981513513513498 0.9487692307692004  18.82386486486484 0.6698461538461078  C 18.596891891891865 0.2686923076922592  18.20970270270268 0.20999999999993144  17.790162162162133 0.22238461538456003  C 16.91564864864862 0.24876923076916369  16.031378378378346 0.4630769230768692  15.175351351351317 0.6375384615383837  C 14.078999999999972 0.8609999999999025  12.989837837837804 1.1226923076922048  11.89862162162159 1.37199999999994  Z " stroke-width="4" stroke="#ffffff" fill="none" transform="matrix(1 0 0 1 299 11269 )" mask="url(#clip277)" />
  </g>
</svg>