<?xml version="1.0" encoding="utf-8"?>
<svg version="1.1" xmlns:xlink="http://www.w3.org/1999/xlink" width="33px" height="12px" xmlns="http://www.w3.org/2000/svg">
  <defs>
    <mask fill="white" id="clip389">
      <path d="M 20.66602702702697 2.351999999999897  C 20.505486486486497 2.388923076923045  18.179432432432442 2.8255384615384944  18.179432432432442 2.9141538461538823  C 14.549432432432447 3.7578461538461783  9.335432432432444 6.1495384615384925  5.748243243243262 7.176000000000001  C 4.293567567567587 7.592307692307713  2.78091891891894 8.009538461538481  1.4207837837837995 8.702769230769228  C 1.0328108108108247 8.900307692307742  0.5547567567567693 9.139384615384571  0.31662162162163787 9.536307692307709  C 0.1257567567567742 9.854769230769271  0.12040540540542263 10.204615384615444  0.2827297297297362 10.536923076923044  C 0.8303513513513617 11.655692307692263  2.416135135135138 11.6003076923077  3.4132702702702686 11.50430769230766  C 6.9719189189189255 11.159999999999926  10.562675675675667 10.039384615384593  14.039270270270258 9.252923076923077  C 17.673729729729708 8.43138461538463  22.893972972972957 6.061846153846161  26.497216216216195 5.100923076923034  C 28.14632432432429 4.66153846153842  29.81505405405403 4.198153846153848  31.391027027027 3.5224615384614624  C 31.829837837837804 3.334153846153815  32.40510810810808 3.1283076923075965  32.716378378378344 2.7286153846152956  C 33.07135135135131 2.2735384615383247  32.96789189189187 1.6264615384614864  32.69408108108104 1.1483076923076134  C 32.299864864864816 0.4606153846153015  31.62737837837834 0.35999999999988247  30.898702702702657 0.38123076923067434  C 29.37981081081076 0.4264615384614235  27.843972972972917 0.7938461538460615  26.357189189189132 1.0929230769229434  C 24.452999999999953 1.475999999999833  22.561297297297237 1.9246153846152083  20.66602702702697 2.351999999999897  Z " fill-rule="evenodd" />
    </mask>
  </defs>
  <g transform="matrix(1 0 0 1 -524 -18124 )">
    <path d="M 20.66602702702697 2.351999999999897  C 20.505486486486497 2.388923076923045  18.179432432432442 2.8255384615384944  18.179432432432442 2.9141538461538823  C 14.549432432432447 3.7578461538461783  9.335432432432444 6.1495384615384925  5.748243243243262 7.176000000000001  C 4.293567567567587 7.592307692307713  2.78091891891894 8.009538461538481  1.4207837837837995 8.702769230769228  C 1.0328108108108247 8.900307692307742  0.5547567567567693 9.139384615384571  0.31662162162163787 9.536307692307709  C 0.1257567567567742 9.854769230769271  0.12040540540542263 10.204615384615444  0.2827297297297362 10.536923076923044  C 0.8303513513513617 11.655692307692263  2.416135135135138 11.6003076923077  3.4132702702702686 11.50430769230766  C 6.9719189189189255 11.159999999999926  10.562675675675667 10.039384615384593  14.039270270270258 9.252923076923077  C 17.673729729729708 8.43138461538463  22.893972972972957 6.061846153846161  26.497216216216195 5.100923076923034  C 28.14632432432429 4.66153846153842  29.81505405405403 4.198153846153848  31.391027027027 3.5224615384614624  C 31.829837837837804 3.334153846153815  32.40510810810808 3.1283076923075965  32.716378378378344 2.7286153846152956  C 33.07135135135131 2.2735384615383247  32.96789189189187 1.6264615384614864  32.69408108108104 1.1483076923076134  C 32.299864864864816 0.4606153846153015  31.62737837837834 0.35999999999988247  30.898702702702657 0.38123076923067434  C 29.37981081081076 0.4264615384614235  27.843972972972917 0.7938461538460615  26.357189189189132 1.0929230769229434  C 24.452999999999953 1.475999999999833  22.561297297297237 1.9246153846152083  20.66602702702697 2.351999999999897  Z " fill-rule="nonzero" fill="#ffffff" stroke="none" fill-opacity="0" transform="matrix(1 0 0 1 524 18124 )" />
    <path d="M 20.66602702702697 2.351999999999897  C 20.505486486486497 2.388923076923045  18.179432432432442 2.8255384615384944  18.179432432432442 2.9141538461538823  C 14.549432432432447 3.7578461538461783  9.335432432432444 6.1495384615384925  5.748243243243262 7.176000000000001  C 4.293567567567587 7.592307692307713  2.78091891891894 8.009538461538481  1.4207837837837995 8.702769230769228  C 1.0328108108108247 8.900307692307742  0.5547567567567693 9.139384615384571  0.31662162162163787 9.536307692307709  C 0.1257567567567742 9.854769230769271  0.12040540540542263 10.204615384615444  0.2827297297297362 10.536923076923044  C 0.8303513513513617 11.655692307692263  2.416135135135138 11.6003076923077  3.4132702702702686 11.50430769230766  C 6.9719189189189255 11.159999999999926  10.562675675675667 10.039384615384593  14.039270270270258 9.252923076923077  C 17.673729729729708 8.43138461538463  22.893972972972957 6.061846153846161  26.497216216216195 5.100923076923034  C 28.14632432432429 4.66153846153842  29.81505405405403 4.198153846153848  31.391027027027 3.5224615384614624  C 31.829837837837804 3.334153846153815  32.40510810810808 3.1283076923075965  32.716378378378344 2.7286153846152956  C 33.07135135135131 2.2735384615383247  32.96789189189187 1.6264615384614864  32.69408108108104 1.1483076923076134  C 32.299864864864816 0.4606153846153015  31.62737837837834 0.35999999999988247  30.898702702702657 0.38123076923067434  C 29.37981081081076 0.4264615384614235  27.843972972972917 0.7938461538460615  26.357189189189132 1.0929230769229434  C 24.452999999999953 1.475999999999833  22.561297297297237 1.9246153846152083  20.66602702702697 2.351999999999897  Z " stroke-width="2" stroke="#ffffff" fill="none" transform="matrix(1 0 0 1 524 18124 )" mask="url(#clip389)" />
  </g>
</svg>