<?xml version="1.0" encoding="utf-8"?>
<svg version="1.1" xmlns:xlink="http://www.w3.org/1999/xlink" width="6px" height="6px" xmlns="http://www.w3.org/2000/svg">
  <defs>
    <mask fill="white" id="clip276">
      <path d="M 5.864181818181836 3.9774545454545622  C 5.882181818181814 3.8596363636363753  5.890909090909097 2.785636363636348  5.890909090909097 2.6661818181818364  C 5.890363636363656 1.6843636363636796  5.257636363636369 0.7849090909091336  4.333090909090918 0.45381818181817835  C 3.409090909090909 0.12327272727272678  1.3936363636363673 0.4161818181818365  0.7707272727272787 1.174909090909089  C 0.14781818181819 1.9336363636363414  0.06654545454546223 3.985636363636373  0.571090909090923 4.827818181818182  C 1.075090909090911 5.66999999999999  3.0360000000000165 6.116727272727303  3.9987272727272822 5.9258181818182  C 4.958181818181836 5.735454545454538  5.715818181818205 4.944000000000043  5.864181818181836 3.9774545454545622  Z " fill-rule="evenodd" />
    </mask>
  </defs>
  <g transform="matrix(1 0 0 1 -328 -11286 )">
    <path d="M 5.864181818181836 3.9774545454545622  C 5.882181818181814 3.8596363636363753  5.890909090909097 2.785636363636348  5.890909090909097 2.6661818181818364  C 5.890363636363656 1.6843636363636796  5.257636363636369 0.7849090909091336  4.333090909090918 0.45381818181817835  C 3.409090909090909 0.12327272727272678  1.3936363636363673 0.4161818181818365  0.7707272727272787 1.174909090909089  C 0.14781818181819 1.9336363636363414  0.06654545454546223 3.985636363636373  0.571090909090923 4.827818181818182  C 1.075090909090911 5.66999999999999  3.0360000000000165 6.116727272727303  3.9987272727272822 5.9258181818182  C 4.958181818181836 5.735454545454538  5.715818181818205 4.944000000000043  5.864181818181836 3.9774545454545622  Z " fill-rule="nonzero" fill="#ffffff" stroke="none" fill-opacity="0" transform="matrix(1 0 0 1 328 11286 )" />
    <path d="M 5.864181818181836 3.9774545454545622  C 5.882181818181814 3.8596363636363753  5.890909090909097 2.785636363636348  5.890909090909097 2.6661818181818364  C 5.890363636363656 1.6843636363636796  5.257636363636369 0.7849090909091336  4.333090909090918 0.45381818181817835  C 3.409090909090909 0.12327272727272678  1.3936363636363673 0.4161818181818365  0.7707272727272787 1.174909090909089  C 0.14781818181819 1.9336363636363414  0.06654545454546223 3.985636363636373  0.571090909090923 4.827818181818182  C 1.075090909090911 5.66999999999999  3.0360000000000165 6.116727272727303  3.9987272727272822 5.9258181818182  C 4.958181818181836 5.735454545454538  5.715818181818205 4.944000000000043  5.864181818181836 3.9774545454545622  Z " stroke-width="4" stroke="#ffffff" fill="none" transform="matrix(1 0 0 1 328 11286 )" mask="url(#clip276)" />
  </g>
</svg>