<?xml version="1.0" encoding="utf-8"?>
<svg version="1.1" xmlns:xlink="http://www.w3.org/1999/xlink" width="10px" height="10px" xmlns="http://www.w3.org/2000/svg">
  <defs>
    <mask fill="white" id="clip388">
      <path d="M 9.773636363636394 6.6290909090909365  C 9.803636363636357 6.432727272727292  9.818181818181827 4.642727272727246  9.818181818181827 4.443636363636394  C 9.817272727272758 2.8072727272727995  8.762727272727282 1.3081818181818894  7.221818181818197 0.7563636363636306  C 5.6818181818181825 0.20545454545454464  2.322727272727279 0.6936363636363941  1.2845454545454646 1.9581818181818147  C 0.24636363636365 3.2227272727272354  0.11090909090910372 6.642727272727288  0.9518181818182049 8.046363636363637  C 1.7918181818181853 9.449999999999983  5.060000000000028 10.194545454545505  6.664545454545471 9.876363636363667  C 8.263636363636394 9.559090909090898  9.526363636363675 8.240000000000071  9.773636363636394 6.6290909090909365  Z " fill-rule="evenodd" />
    </mask>
  </defs>
  <g transform="matrix(1 0 0 1 -576 -18154 )">
    <path d="M 9.773636363636394 6.6290909090909365  C 9.803636363636357 6.432727272727292  9.818181818181827 4.642727272727246  9.818181818181827 4.443636363636394  C 9.817272727272758 2.8072727272727995  8.762727272727282 1.3081818181818894  7.221818181818197 0.7563636363636306  C 5.6818181818181825 0.20545454545454464  2.322727272727279 0.6936363636363941  1.2845454545454646 1.9581818181818147  C 0.24636363636365 3.2227272727272354  0.11090909090910372 6.642727272727288  0.9518181818182049 8.046363636363637  C 1.7918181818181853 9.449999999999983  5.060000000000028 10.194545454545505  6.664545454545471 9.876363636363667  C 8.263636363636394 9.559090909090898  9.526363636363675 8.240000000000071  9.773636363636394 6.6290909090909365  Z " fill-rule="nonzero" fill="#ffffff" stroke="none" fill-opacity="0" transform="matrix(1 0 0 1 576 18154 )" />
    <path d="M 9.773636363636394 6.6290909090909365  C 9.803636363636357 6.432727272727292  9.818181818181827 4.642727272727246  9.818181818181827 4.443636363636394  C 9.817272727272758 2.8072727272727995  8.762727272727282 1.3081818181818894  7.221818181818197 0.7563636363636306  C 5.6818181818181825 0.20545454545454464  2.322727272727279 0.6936363636363941  1.2845454545454646 1.9581818181818147  C 0.24636363636365 3.2227272727272354  0.11090909090910372 6.642727272727288  0.9518181818182049 8.046363636363637  C 1.7918181818181853 9.449999999999983  5.060000000000028 10.194545454545505  6.664545454545471 9.876363636363667  C 8.263636363636394 9.559090909090898  9.526363636363675 8.240000000000071  9.773636363636394 6.6290909090909365  Z " stroke-width="2" stroke="#ffffff" fill="none" transform="matrix(1 0 0 1 576 18154 )" mask="url(#clip388)" />
  </g>
</svg>