<?xml version="1.0" encoding="utf-8"?>
<svg version="1.1" xmlns:xlink="http://www.w3.org/1999/xlink" width="17px" height="17px" xmlns="http://www.w3.org/2000/svg">
  <defs>
    <mask fill="white" id="clip390">
      <path d="M 16.685052631578944 10.53463157894737  C 16.74142105263159 10.162421052631531  16.77094736842105 8.219052631578979  16.77094736842105 7.84236842105262  C 16.76826315789475 4.739421052631601  14.769421052631584 1.8968421052631619  11.847210526315775 0.8508947368421247  C 8.926789473684188 -0.19415789473682826  4.00752631578946 0.7318947368420907  2.0391052631578916 3.1297894736842524  C 0.0706842105263227 5.52678947368423  -0.1861052631578933 10.562368421052689  1.4074210526315858 13.22331578947368  C 3.000947368421065 15.884263157894775  7.746631578947381 17.296157894736858  10.789631578947366 16.692210526315744  C 13.821000000000003 16.090947368420984  16.216210526315784 13.588368421052541  16.685052631578944 10.53463157894737  Z " fill-rule="evenodd" />
    </mask>
  </defs>
  <g transform="matrix(1 0 0 1 -504 -18097 )">
    <path d="M 16.685052631578944 10.53463157894737  C 16.74142105263159 10.162421052631531  16.77094736842105 8.219052631578979  16.77094736842105 7.84236842105262  C 16.76826315789475 4.739421052631601  14.769421052631584 1.8968421052631619  11.847210526315775 0.8508947368421247  C 8.926789473684188 -0.19415789473682826  4.00752631578946 0.7318947368420907  2.0391052631578916 3.1297894736842524  C 0.0706842105263227 5.52678947368423  -0.1861052631578933 10.562368421052689  1.4074210526315858 13.22331578947368  C 3.000947368421065 15.884263157894775  7.746631578947381 17.296157894736858  10.789631578947366 16.692210526315744  C 13.821000000000003 16.090947368420984  16.216210526315784 13.588368421052541  16.685052631578944 10.53463157894737  Z " fill-rule="nonzero" fill="#ffffff" stroke="none" fill-opacity="0" transform="matrix(1 0 0 1 504 18097 )" />
    <path d="M 16.685052631578944 10.53463157894737  C 16.74142105263159 10.162421052631531  16.77094736842105 8.219052631578979  16.77094736842105 7.84236842105262  C 16.76826315789475 4.739421052631601  14.769421052631584 1.8968421052631619  11.847210526315775 0.8508947368421247  C 8.926789473684188 -0.19415789473682826  4.00752631578946 0.7318947368420907  2.0391052631578916 3.1297894736842524  C 0.0706842105263227 5.52678947368423  -0.1861052631578933 10.562368421052689  1.4074210526315858 13.22331578947368  C 3.000947368421065 15.884263157894775  7.746631578947381 17.296157894736858  10.789631578947366 16.692210526315744  C 13.821000000000003 16.090947368420984  16.216210526315784 13.588368421052541  16.685052631578944 10.53463157894737  Z " stroke-width="2" stroke="#ffffff" fill="none" transform="matrix(1 0 0 1 504 18097 )" mask="url(#clip390)" />
  </g>
</svg>