<?xml version="1.0" encoding="utf-8"?>
<svg version="1.1" xmlns:xlink="http://www.w3.org/1999/xlink" width="10px" height="10px" xmlns="http://www.w3.org/2000/svg">
  <defs>
    <mask fill="white" id="clip278">
      <path d="M 9.814736842105262 6.196842105263158  C 9.847894736842113 5.977894736842078  9.865263157894738 4.834736842105282  9.865263157894738 4.613157894736835  C 9.863684210526323 2.7878947368421185  8.687894736842107 1.1157894736842129  6.968947368421045 0.5005263157894851  C 5.2510526315789345 -0.11421052631578132  2.3573684210526236 0.4305263157894651  1.1994736842105245 1.8410526315789721  C 0.04157894736842512 3.2510526315789585  -0.10947368421052547 6.2131578947368755  0.8278947368421092 7.778421052631577  C 1.765263157894744 9.34368421052634  4.556842105263166 10.174210526315798  6.346842105263156 9.818947368421027  C 8.130000000000003 9.465263157894697  9.53894736842105 7.993157894736789  9.814736842105262 6.196842105263158  Z " fill-rule="evenodd" />
    </mask>
  </defs>
  <g transform="matrix(1 0 0 1 -287 -11254 )">
    <path d="M 9.814736842105262 6.196842105263158  C 9.847894736842113 5.977894736842078  9.865263157894738 4.834736842105282  9.865263157894738 4.613157894736835  C 9.863684210526323 2.7878947368421185  8.687894736842107 1.1157894736842129  6.968947368421045 0.5005263157894851  C 5.2510526315789345 -0.11421052631578132  2.3573684210526236 0.4305263157894651  1.1994736842105245 1.8410526315789721  C 0.04157894736842512 3.2510526315789585  -0.10947368421052547 6.2131578947368755  0.8278947368421092 7.778421052631577  C 1.765263157894744 9.34368421052634  4.556842105263166 10.174210526315798  6.346842105263156 9.818947368421027  C 8.130000000000003 9.465263157894697  9.53894736842105 7.993157894736789  9.814736842105262 6.196842105263158  Z " fill-rule="nonzero" fill="#ffffff" stroke="none" fill-opacity="0" transform="matrix(1 0 0 1 287 11254 )" />
    <path d="M 9.814736842105262 6.196842105263158  C 9.847894736842113 5.977894736842078  9.865263157894738 4.834736842105282  9.865263157894738 4.613157894736835  C 9.863684210526323 2.7878947368421185  8.687894736842107 1.1157894736842129  6.968947368421045 0.5005263157894851  C 5.2510526315789345 -0.11421052631578132  2.3573684210526236 0.4305263157894651  1.1994736842105245 1.8410526315789721  C 0.04157894736842512 3.2510526315789585  -0.10947368421052547 6.2131578947368755  0.8278947368421092 7.778421052631577  C 1.765263157894744 9.34368421052634  4.556842105263166 10.174210526315798  6.346842105263156 9.818947368421027  C 8.130000000000003 9.465263157894697  9.53894736842105 7.993157894736789  9.814736842105262 6.196842105263158  Z " stroke-width="4" stroke="#ffffff" fill="none" transform="matrix(1 0 0 1 287 11254 )" mask="url(#clip278)" />
  </g>
</svg>