<?xml version="1.0" encoding="utf-8"?>
<svg version="1.1" xmlns:xlink="http://www.w3.org/1999/xlink" width="15px" height="22px" xmlns="http://www.w3.org/2000/svg">
  <g transform="matrix(1 0 0 1 -298 -11272 )">
    <path d="M 7.275999999999996 1.285000000000025  C 5.54249999999999 4.476500000000044  3.8389999999999986 7.661500000000046  2.3204999999999956 10.962500000000034  C 1.9449999999999932 11.778500000000008  1.5769999999999982 12.598500000000058  1.2164999999999964 13.421500000000037  C 0.984499999999997 13.950500000000034  0.6774999999999949 14.496000000000038  0.5499999999999972 15.066000000000031  C 0.3669999999999902 15.880500000000039  0.582499999999996 16.84650000000005  0.9099999999999966 17.600000000000023  C 1.4924999999999926 18.94150000000002  2.6809999999999974 18.888000000000034  3.80149999999999 18.133500000000026  C 4.488499999999988 17.67100000000005  5.024499999999989 17.03800000000001  5.375499999999988 16.289500000000032  C 5.719999999999985 15.555000000000007  5.9269999999999925 14.75550000000004  6.164999999999992 13.982500000000016  C 6.427999999999997 13.128500000000031  6.720999999999989 12.285000000000025  7.025999999999996 11.444999999999993  C 8.230499999999992 8.134000000000015  9.572499999999991 4.850500000000011  11.073999999999998 1.663000000000011  C 11.282499999999999 1.2205000000000155  11.491 0.7775000000000318  11.6995 0.3350000000000364  " stroke-width="2" stroke="#ffffff" fill="none" transform="matrix(1 0 0 1 299 11273 )" />
  </g>
</svg>