<?xml version="1.0" encoding="utf-8"?>
<svg version="1.1" xmlns:xlink="http://www.w3.org/1999/xlink" width="22px" height="35px" xmlns="http://www.w3.org/2000/svg">
  <g transform="matrix(1 0 0 1 -524 -18130 )">
    <path d="M 12.732999999999993 2.299473684210571  C 9.699374999999982 8.0105789473685  6.718249999999998 13.71005263157903  4.060874999999992 19.617105263157956  C 3.403749999999988 21.077315789473698  2.759749999999997 22.54468421052642  2.1288749999999936 24.017421052631644  C 1.7228749999999948 24.96405263157901  1.185624999999991 25.940210526315855  0.962499999999995 26.960210526315844  C 0.6422499999999829 28.417736842105334  1.019374999999993 30.146368421052717  1.592499999999994 31.494736842105304  C 2.611874999999987 33.89531578947372  4.691749999999995 33.79957894736848  6.652624999999983 32.44942105263163  C 7.8548749999999785 31.621789473684295  8.792874999999981 30.489052631578968  9.40712499999998 29.149631578947425  C 10.009999999999973 27.835263157894747  10.372249999999987 26.404578947368496  10.788749999999986 25.021315789473714  C 11.248999999999995 23.49310526315795  11.761749999999981 21.98368421052636  12.295499999999993 20.48052631578946  C 14.403374999999986 14.555578947368447  16.751874999999984 8.679842105263178  19.379499999999997 2.975894736842125  C 19.744374999999998 2.184052631578975  20.10925 1.3913157894737411  20.474125 0.5994736842105914  " stroke-width="1" stroke="#ffffff" fill="none" transform="matrix(1 0 0 1 524 18130 )" />
  </g>
</svg>