<?xml version="1.0" encoding="utf-8"?>
<svg version="1.1" xmlns:xlink="http://www.w3.org/1999/xlink" width="41px" height="112px" xmlns="http://www.w3.org/2000/svg">
  <g transform="matrix(1 0 0 1 -576 -17666 )">
    <path d="M 33.35999999999998 110.49512903225806  C 31.792888888888882 102.87551612903226  30.32622222222219 95.22904838709678  28.525333333333293 87.66045967741937  C 26.69777777777775 79.97997580645162  24.522666666666634 72.4149677419355  22.11644444444442 64.89919354838713  C 20.115555555555552 58.649177419354864  17.900444444444425 52.477935483870986  15.711999999999989 46.29326612903229  C 12.268444444444413 36.561072580645174  8.824888888888886 26.827983870967767  5.38133333333331 17.095790322580683  C 4.456888888888847 14.481919354838757  3.548444444444411 11.862677419354872  2.6542222222222134 9.238064516129077  C 2.1075555555555385 7.633040322580684  1.5875555555555567 6.015483870967792  1.1146666666666332 4.386290322580701  C 0.7822222222221676 3.23958870967747  0.2968888888888412 1.9263870967742454  0.3315555555555471 0.709862903225863  C 0.3573333333333216 -0.2202096774192996  0.9386666666666517 0.1593387096774805  1.4204444444444562 0.6149758064516744  C 2.4480000000000173 1.5853306451613547  3.279999999999998 2.805435483871032  4.098666666666658 3.952137096774263  C 5.248888888888866 5.565217741935546  6.347555555555521 7.214104838709752  7.426666666666683 8.876419354838783  C 11.541333333333366 15.213266129032338  15.088000000000042 21.942193548387174  18.10044444444444 28.87700806451619  C 21.15288888888891 35.90223387096781  23.752000000000002 43.113653225806516  26.058666666666642 50.41995967741942  C 28.444444444444446 57.97959677419361  30.64444444444441 65.59294354838715  32.70844444444442 73.24746774193555  C 34.735999999999976 80.76771774193557  36.68355555555551 88.3175080645162  38.420444444444406 95.91116129032267  C 38.84622222222217 97.77220161290332  39.252444444444386 99.63592741935491  39.65333333333329 101.50323387096782  " stroke-width="1" stroke="#ffffff" fill="none" transform="matrix(1 0 0 1 576 17666 )" />
  </g>
</svg>