<?xml version="1.0" encoding="utf-8"?>
<svg version="1.1" xmlns:xlink="http://www.w3.org/1999/xlink" width="13px" height="13px" xmlns="http://www.w3.org/2000/svg">
  <defs>
    <mask fill="white" id="clip391">
      <path d="M 12.388071428571436 7.908642857142801  C 12.427071428571411 7.6579285714285845  12.446571428571426 5.77757142857141  12.446571428571426 5.523142857142838  C 12.445642857142875 3.428285714285721  11.09457142857141 1.5098571428571208  9.122285714285725 0.8032142857142414  C 7.150928571428591 0.0974999999999641  3.26207142857146 0.7233571428570867  1.9332857142857085 2.3418571428570822  C 0.6045000000000097 3.9603571428570774  0.43085714285714155 7.928142857142814  1.5070714285714197 9.72399999999993  C 2.5832857142856978 11.520785714285646  6.354214285714302 12.473499999999941  8.408214285714292 12.065857142857064  C 10.453857142857126 11.660071428571339  12.072357142857173 9.970999999999947  12.388071428571436 7.908642857142801  Z " fill-rule="evenodd" />
    </mask>
  </defs>
  <g transform="matrix(1 0 0 1 -653 -17802 )">
    <path d="M 12.388071428571436 7.908642857142801  C 12.427071428571411 7.6579285714285845  12.446571428571426 5.77757142857141  12.446571428571426 5.523142857142838  C 12.445642857142875 3.428285714285721  11.09457142857141 1.5098571428571208  9.122285714285725 0.8032142857142414  C 7.150928571428591 0.0974999999999641  3.26207142857146 0.7233571428570867  1.9332857142857085 2.3418571428570822  C 0.6045000000000097 3.9603571428570774  0.43085714285714155 7.928142857142814  1.5070714285714197 9.72399999999993  C 2.5832857142856978 11.520785714285646  6.354214285714302 12.473499999999941  8.408214285714292 12.065857142857064  C 10.453857142857126 11.660071428571339  12.072357142857173 9.970999999999947  12.388071428571436 7.908642857142801  Z " fill-rule="nonzero" fill="#ffffff" stroke="none" fill-opacity="0" transform="matrix(1 0 0 1 653 17802 )" />
    <path d="M 12.388071428571436 7.908642857142801  C 12.427071428571411 7.6579285714285845  12.446571428571426 5.77757142857141  12.446571428571426 5.523142857142838  C 12.445642857142875 3.428285714285721  11.09457142857141 1.5098571428571208  9.122285714285725 0.8032142857142414  C 7.150928571428591 0.0974999999999641  3.26207142857146 0.7233571428570867  1.9332857142857085 2.3418571428570822  C 0.6045000000000097 3.9603571428570774  0.43085714285714155 7.928142857142814  1.5070714285714197 9.72399999999993  C 2.5832857142856978 11.520785714285646  6.354214285714302 12.473499999999941  8.408214285714292 12.065857142857064  C 10.453857142857126 11.660071428571339  12.072357142857173 9.970999999999947  12.388071428571436 7.908642857142801  Z " stroke-width="2" stroke="#ffffff" fill="none" transform="matrix(1 0 0 1 653 17802 )" mask="url(#clip391)" />
  </g>
</svg>