<?xml version="1.0" encoding="utf-8"?>
<svg version="1.1" xmlns:xlink="http://www.w3.org/1999/xlink" width="24px" height="37px" xmlns="http://www.w3.org/2000/svg">
  <g transform="matrix(1 0 0 1 -334 -11066 )">
    <path d="M 20.501634146341456 30.35692537313434  C 19.278512195121955 28.11850746268658  18.016463414634153 25.9049552238806  16.69960975609755 23.719313432835843  C 15.331024390243881 21.448417910447773  13.923512195121935 19.201373134328367  12.476048780487806 16.979194029850778  C 10.94356097560975 14.625582089552282  9.357804878048771 12.3069850746269  7.78126829268293 9.982298507462712  C 6.442902439024394 8.008776119403004  5.087121951219521 6.042865671641813  3.6770487804878202 4.119582089552265  C 2.908756097560991 3.071671641791072  2.1558292682926847 1.9943283582089875  1.2784390243902632 1.0311641791044974  C 1.1959756097561163 0.9403283582089741  0.7298780487804937 0.34355223880599517  0.5321707317073396 0.4592537313432986  C 0.40360975609759564 0.5343582089552369  0.5121951219512486 0.8789253731343425  0.5296097560975859 0.9575820895522534  C 0.7529268292683066 1.9791044776119577  1.221585365853683 2.977283582089562  1.6282682926829426 3.936895522388079  C 2.622951219512214 6.285432835820908  3.7461951219512306 8.584746268656732  4.9088780487804895 10.855641791044803  C 6.227780487804874 13.432029850746293  7.599439024390238 15.978985074626895  8.969048780487817 18.528985074626885  C 10.005219512195147 20.458358208955254  11.07724390243903 22.368447761194034  12.135439024390264 24.285641791044792  C 13.758585365853671 27.226388059701517  15.382243902439045 30.167134328358213  17.00539024390245 33.10838805970152  C 17.108853658536596 33.295641791044815  17.21231707317074 33.482895522388084  17.315780487804886 33.67065671641794  " stroke-width="2" stroke="#ffffff" fill="none" transform="matrix(1 0 0 1 335 11067 )" />
  </g>
</svg>