<?xml version="1.0" encoding="utf-8"?>
<svg version="1.1" xmlns:xlink="http://www.w3.org/1999/xlink" width="7px" height="7px" xmlns="http://www.w3.org/2000/svg">
  <defs>
    <mask fill="white" id="clip279">
      <path d="M 6.670500000000004 4.2584999999999695  C 6.691499999999991 4.123500000000007  6.701999999999998 3.11099999999999  6.701999999999998 2.9739999999999895  C 6.70150000000001 1.8460000000000036  5.9739999999999895 0.8129999999999882  4.912000000000006 0.4324999999999761  C 3.850500000000011 0.05249999999998067  1.7565000000000168 0.38949999999996976  1.0409999999999968 1.2609999999999673  C 0.32550000000000523 2.1324999999999648  0.23199999999999932 4.268999999999977  0.8114999999999952 5.235999999999962  C 1.3909999999999911 6.203499999999963  3.421500000000009 6.716499999999968  4.527500000000003 6.496999999999957  C 5.628999999999991 6.278499999999951  6.500500000000017 5.368999999999971  6.670500000000004 4.2584999999999695  Z " fill-rule="evenodd" />
    </mask>
  </defs>
  <g transform="matrix(1 0 0 1 -372 -11086 )">
    <path d="M 6.670500000000004 4.2584999999999695  C 6.691499999999991 4.123500000000007  6.701999999999998 3.11099999999999  6.701999999999998 2.9739999999999895  C 6.70150000000001 1.8460000000000036  5.9739999999999895 0.8129999999999882  4.912000000000006 0.4324999999999761  C 3.850500000000011 0.05249999999998067  1.7565000000000168 0.38949999999996976  1.0409999999999968 1.2609999999999673  C 0.32550000000000523 2.1324999999999648  0.23199999999999932 4.268999999999977  0.8114999999999952 5.235999999999962  C 1.3909999999999911 6.203499999999963  3.421500000000009 6.716499999999968  4.527500000000003 6.496999999999957  C 5.628999999999991 6.278499999999951  6.500500000000017 5.368999999999971  6.670500000000004 4.2584999999999695  Z " fill-rule="nonzero" fill="#ffffff" stroke="none" fill-opacity="0" transform="matrix(1 0 0 1 372 11086 )" />
    <path d="M 6.670500000000004 4.2584999999999695  C 6.691499999999991 4.123500000000007  6.701999999999998 3.11099999999999  6.701999999999998 2.9739999999999895  C 6.70150000000001 1.8460000000000036  5.9739999999999895 0.8129999999999882  4.912000000000006 0.4324999999999761  C 3.850500000000011 0.05249999999998067  1.7565000000000168 0.38949999999996976  1.0409999999999968 1.2609999999999673  C 0.32550000000000523 2.1324999999999648  0.23199999999999932 4.268999999999977  0.8114999999999952 5.235999999999962  C 1.3909999999999911 6.203499999999963  3.421500000000009 6.716499999999968  4.527500000000003 6.496999999999957  C 5.628999999999991 6.278499999999951  6.500500000000017 5.368999999999971  6.670500000000004 4.2584999999999695  Z " stroke-width="4" stroke="#ffffff" fill="none" transform="matrix(1 0 0 1 372 11086 )" mask="url(#clip279)" />
  </g>
</svg>