<?xml version="1.0" encoding="utf-8"?>
<svg version="1.1" xmlns:xlink="http://www.w3.org/1999/xlink" width="26px" height="66px" xmlns="http://www.w3.org/2000/svg">
  <g transform="matrix(1 0 0 1 -327 -11008 )">
    <path d="M 19.181999999999988 62.71345161290323  C 18.28091111111111 58.38880645161291  17.437577777777758 54.048919354838716  16.40206666666664 49.75323387096775  C 15.351222222222205 45.39404032258065  14.100533333333315 41.100387096774206  12.71695555555554 36.834677419354854  C 11.566444444444443 33.28737096774195  10.292755555555543 29.7847741935484  9.034399999999993 26.27455645161292  C 7.054355555555538 20.750879032258073  5.074311111111109 15.22669354838711  3.094266666666653 9.703016129032278  C 2.562711111111087 8.21946774193551  2.040355555555536 6.732870967741954  1.5261777777777727 5.243225806451638  C 1.2118444444444347 4.33226612903228  0.9128444444444451 3.414193548387125  0.640933333333314 2.48951612903229  C 0.4497777777777464 1.8386854838709965  0.1707111111110837 1.093354838709707  0.1906444444444396 0.4028951612903547  C 0.20546666666665991 -0.12498387096771058  0.5397333333333247 0.09043548387100245  0.8167555555555622 0.34904032258068  C 1.4076000000000097 0.8997822580645527  1.8859999999999988 1.5922741935484233  2.3567333333333282 2.243104838709717  C 3.0181111111110974 3.1586370967742288  3.649844444444425 4.094491935483913  4.270333333333342 5.0379677419355255  C 6.636266666666685 8.634556451612948  8.675600000000024 12.453677419354882  10.407755555555555 16.389653225806487  C 12.162911111111123 20.37694354838714  13.657400000000003 24.469911290322617  14.98373333333332 28.61673387096778  C 16.355555555555558 32.907338709677454  17.620555555555537 37.228427419354865  18.80735555555554 41.57288709677424  C 19.973199999999984 45.84113709677424  21.093044444444416 50.12615322580649  22.091755555555533 54.43606451612908  C 22.336577777777748 55.492330645161346  22.570155555555523 56.55012096774198  22.800666666666647 57.609943548387136  " stroke-width="2" stroke="#ffffff" fill="none" transform="matrix(1 0 0 1 328 11009 )" />
  </g>
</svg>