<?xml version="1.0" encoding="utf-8"?>
<svg version="1.1" xmlns:xlink="http://www.w3.org/1999/xlink" width="38px" height="61px" xmlns="http://www.w3.org/2000/svg">
  <g transform="matrix(1 0 0 1 -589 -17768 )">
    <path d="M 36.12192682926828 53.57104477611943  C 33.9669024390244 49.62089552238808  31.743292682926842 45.71462686567165  29.423121951219496 41.85761194029855  C 27.011804878048743 37.85014925373136  24.531902439024364 33.88477611940301  21.981609756097566 29.963283582089606  C 19.28151219512194 25.80985074626873  16.48756097560974 21.71820895522394  13.709853658536591 17.615820895522432  C 11.351780487804884 14.133134328358244  8.963024390243918 10.663880597014966  6.478609756097589 7.269850746268703  C 5.124951219512222 5.420597014925422  3.7983658536585394 3.519402985074684  2.2524878048780828 1.8197014925373485  C 2.1071951219512526 1.65940298507466  1.285975609756108 0.6062686567164621  0.9376341463415032 0.8104477611940564  C 0.7111219512195733 0.9429850746268886  0.9024390243902951 1.551044776119428  0.9331219512195561 1.6898507462686825  C 1.326585365853683 3.4925373134328663  2.152317073170775 5.254029850746286  2.868853658536613 6.9474626865671985  C 4.621390243902473 11.091940298507485  6.600439024390263 15.149552238805997  8.6489756097561 19.157014925373183  C 10.97275609756097 23.703582089552285  13.389487804878039 28.198208955223933  15.802609756097583 32.69820895522391  C 17.62824390243907 36.102985074626915  19.517048780487816 39.47373134328359  21.381487804878084 42.85701492537316  C 24.24131707317075 48.046567164179145  27.10204878048784 53.236119402985075  29.961878048780505 58.42656716417915  C 30.144170731707337 58.757014925373205  30.326463414634162 59.08746268656721  30.50875609756099 59.41880597014931  " stroke-width="1" stroke="#ffffff" fill="none" transform="matrix(1 0 0 1 589 17768 )" />
  </g>
</svg>