<?xml version="1.0" encoding="utf-8"?>
<svg version="1.1" xmlns:xlink="http://www.w3.org/1999/xlink" width="68px" height="120px" xmlns="http://www.w3.org/2000/svg">
  <g transform="matrix(1 0 0 1 -560 -17692 )">
    <path d="M 38.361520000000006 80.10847368421051  C 35.00616000000004 73.13936842105264  31.580226666666665 66.20068421052629  28.293653333333356 59.199368421052625  C 24.89273333333334 51.95557894736841  21.636533333333357 44.640210526315784  18.30797333333336 37.363315789473674  C 15.179520000000018 30.521263157894733  12.122533333333378 23.643421052631563  8.850253333333368 16.86936842105262  C 7.160066666666705 13.371842105263152  5.336773333333375 9.949473684210504  3.5277733333333696 6.511894736842097  C 2.740746666666703 5.01678947368421  1.8849333333333709 3.537789473684192  1.1979600000000328 1.9916842105263148  C 1.104160000000042 1.7814210526315661  0.6137200000000359 0.933210526315795  0.8182933333333559 0.6692631578947283  C 1.279253333333348 0.07605263157892907  3.7832666666666785 2.8354210526315633  3.9896266666666995 3.0438947368420934  C 6.5284800000000445 5.602842105263158  8.828813333333368 8.414105263157891  10.904026666666683 11.361368421052612  C 15.230440000000032 17.506421052631556  18.7778666666667 24.173105263157865  22.380679999999998 30.757473684210506  C 26.064786666666688 37.49126315789472  29.69261333333333 44.253684210526295  33.251653333333316 51.0545789473684  C 36.80354666666665 57.84205263157894  40.31702666666664 64.65010526315787  43.710800000000006 71.51810526315788  C 46.784759999999984 77.73831578947367  49.80958666666667 83.9817894736842  52.84245333333332 90.2225789473684  C 57.141173333333334 99.06973684210524  61.44078666666666 107.91689473684211  65.73950666666667 116.76405263157893  C 66.00929333333335 117.31968421052628  66.27907999999998 117.87442105263155  66.54886666666667 118.43005263157895  " stroke-width="1" stroke="#ffffff" fill="none" transform="matrix(1 0 0 1 560 17692 )" />
  </g>
</svg>