<?xml version="1.0" encoding="utf-8"?>
<svg version="1.1" xmlns:xlink="http://www.w3.org/1999/xlink" width="40px" height="6px" preserveAspectRatio="xMinYMid meet" viewBox="594 17829  40 4" xmlns="http://www.w3.org/2000/svg">
  <g transform="matrix(-0.43837114678895533 0.8987940462990172 -0.89879404629929 -0.4383711467890463 16909.556523691062 25095.736373967888 )">
    <path d="M 42.94200000000001 89.53299999999999  C 39.186000000000035 81.744  35.351 73.98899999999998  31.672000000000025 66.16399999999999  C 27.86500000000001 58.067999999999984  24.220000000000027 49.891999999999996  20.49400000000003 41.758999999999986  C 16.99200000000002 34.111999999999995  13.57000000000005 26.424999999999983  9.90700000000004 18.853999999999985  C 8.015000000000043 14.944999999999993  5.974000000000046 11.119999999999976  3.9490000000000407 7.277999999999992  C 3.0680000000000405 5.606999999999999  2.110000000000042 3.9539999999999793  1.3410000000000366 2.225999999999999  C 1.236000000000047 1.9909999999999854  0.6870000000000401 1.0430000000000064  0.9160000000000252 0.7479999999999905  C 1.4320000000000164 0.08499999999997954  4.235000000000014 3.1689999999999827  4.466000000000037 3.401999999999987  C 7.30800000000005 6.2620000000000005  9.883000000000038 9.403999999999996  12.206000000000017 12.697999999999979  C 17.049000000000035 19.565999999999974  21.02000000000004 27.016999999999967  25.052999999999997 34.375999999999976  C 29.17700000000002 41.90199999999999  33.238 49.45999999999998  37.22199999999998 57.06099999999998  C 41.19799999999998 64.64699999999999  45.13099999999997 72.25599999999997  48.93000000000001 79.93199999999999  C 52.37099999999998 86.88399999999999  55.757 93.862  59.15199999999999 100.83699999999999  C 63.964 110.72499999999997  68.77699999999999 120.613  73.589 130.50099999999998  C 73.89100000000002 131.12199999999996  74.19299999999998 131.74199999999996  74.495 132.363  " stroke-width="2" stroke="#ffffff" fill="none" transform="matrix(1 0 0 1 547 17715 )" />
  </g>
</svg>