<?xml version="1.0" encoding="utf-8"?>
<svg version="1.1" xmlns:xlink="http://www.w3.org/1999/xlink" width="72px" height="8px" preserveAspectRatio="xMinYMid meet" viewBox="300 11061  72 6" xmlns="http://www.w3.org/2000/svg">
  <g transform="matrix(-0.6018150231520879 0.7986355100473135 -0.7986355100472377 -0.6018150231520626 9374.31313094174 17454.139884778528 )">
    <path d="M 40.729703703703706 53.94599999999999  C 38.59162962962964 50.702971962616814  36.47683950617285 47.44328971962616  34.31446913580248 44.21590654205605  C 31.83270370370371 40.51110280373828  29.313481481481496 36.83052336448595  26.812987654321006 33.13833644859811  C 24.648592592592607 29.94224299065418  22.513049382716066 26.725457943925214  20.292469135802484 23.567719626168202  C 18.01266666666667 20.325700934579412  15.689333333333353 17.108915887850443  13.226802469135817 14.001644859813071  C 10.70504938271605 10.819177570093437  8.08509876543212 7.721495327102795  5.301148148148169 4.762598130841113  C 4.006358024691383 3.3863551401869056  2.6887901234568106 1.977308411214942  1.211777777777795 0.7913271028037301  C 1.0624567901234803 0.67121495327102  0.17361728395064063 -0.1413084112149682  0.1128765432098976 0.39263551401868735  C 0.07390123456792322 0.73530841121495  0.4282222222222385 1.2561308411214975  0.5745061728395303 1.5347102803738302  C 0.99665432098768 2.3386542056074697  1.4810617283950842 3.111813084112148  1.97053086419756 3.8758878504672936  C 2.9418765432099114 5.393439252336454  3.978012345679046 6.86557009345795  5.012629629629655 8.339719626168227  C 7.489839506172867 11.869401869158882  10.010580246913603 15.372841121495332  12.334419753086447 19.00598130841121  C 14.345444444444478 22.150093457943917  16.175259259259295 25.417345794392524  17.865370370370407 28.74314018691589  C 20.053555555555583 33.04850467289721  22.216938271604967 37.36648598130841  24.392469135802497 41.678411214953286  C 24.60607407407411 42.10183177570095  24.819679012345702 42.52474766355143  25.03328395061732 42.948168224299096  " stroke-width="2" stroke="#ffffff" fill="none" transform="matrix(1 0 0 1 315 11038 )" />
  </g>
</svg>