<?xml version="1.0" encoding="utf-8"?>
<svg version="1.1" xmlns:xlink="http://www.w3.org/1999/xlink" width="27px" height="16px" xmlns="http://www.w3.org/2000/svg">
  <g transform="matrix(1 0 0 1 -353 -11083 )">
    <path d="M 1.5600000000000034 12.508999999999986  C 3.2936170212765896 11.197999999999979  5.066553191489374 9.935999999999979  6.885446808510629 8.741499999999974  C 8.660425531914884 7.575999999999965  10.494127659574461 6.655499999999961  12.470808510638282 5.864999999999981  C 14.48731914893616 5.058499999999981  16.53140425531913 4.305999999999983  18.603063829787224 3.6444999999999936  C 19.666212765957432 3.305000000000007  20.738553191489363 2.992999999999995  21.800170212765963 2.649499999999989  C 22.32051063829788 2.4809999999999945  22.89702127659576 2.3174999999999955  23.347914893617027 1.9949999999999761  C 23.70587234042555 1.739499999999964  23.87540425531916 1.4084999999999752  23.74978723404255 0.9814999999999826  C 23.599659574468088 0.4724999999999966  23.147744680851073 0.2744999999999891  22.640680851063813 0.18649999999999523  C 21.161361702127646 -0.06999999999999318  19.49872340425529 0.38649999999998386  18.06638297872337 0.7059999999999889  C 16.040170212765915 1.157999999999987  14.042553191489333 1.7439999999999996  12.104680851063794 2.480499999999978  C 8.15999999999995 3.980499999999978  4.445617021276546 6.149499999999989  1.197446808510594 8.800499999999971  C 0.7981276595744331 9.126499999999965  0.40697872340421026 9.460999999999984  0.017872340425486632 9.797999999999973  " stroke-width="2" stroke="#ffffff" fill="none" transform="matrix(1 0 0 1 354 11084 )" />
  </g>
</svg>