<?xml version="1.0" encoding="utf-8"?>
<svg version="1.1" xmlns:xlink="http://www.w3.org/1999/xlink" width="73px" height="97px" xmlns="http://www.w3.org/2000/svg">
  <g transform="matrix(1 0 0 1 -553 -17717 )">
    <path d="M 71.52533333333334 95.90399999999998  C 67.77066666666668 90.1386168224299  64.0568888888889 84.34362616822429  60.25955555555558 78.60605607476631  C 55.90133333333334 72.01973831775695  51.47733333333336 65.47648598130834  47.086222222222254 58.91259813084108  C 43.285333333333355 53.230654205607436  39.535111111111135 47.511925233644824  35.635555555555584 41.89816822429903  C 31.63200000000001 36.13457943925229  27.552000000000035 30.415850467289676  23.227555555555583 24.891813084112126  C 18.79911111111111 19.23409345794389  14.19822222222226 13.727102803738301  9.30933333333337 8.466841121495312  C 7.035555555555598 6.020186915887832  4.721777777777814 3.515214953271008  2.1280000000000303 1.4068037383177423  C 1.865777777777819 1.1932710280373688  0.3048888888889299 -0.2512149532710546  0.19822222222225921 0.6980186915887775  C 0.12977777777781638 1.3072149532710222  0.7520000000000285 2.233121495327107  1.0088888888889314 2.728373831775698  C 1.7502222222222674 4.157607476635501  2.6008888888889286 5.532112149532708  3.4604444444444957 6.890467289719632  C 5.1662222222222836 9.588336448598142  6.9857777777778365 12.205457943925245  8.80266666666671 14.82616822429907  C 13.152888888888937 21.101158878504677  17.579555555555594 27.329495327102812  21.660444444444494 33.788411214953264  C 25.192000000000057 39.37794392523363  28.4053333333334 45.18639252336449  31.3733333333334 51.09891588785047  C 35.21600000000005 58.7528971962617  39.01511111111116 66.42930841121495  42.8355555555556 74.09495327102806  C 43.21066666666673 74.84770093457948  43.58577777777782 75.5995514018692  43.96088888888896 76.35229906542061  " stroke-width="1" stroke="#ffffff" fill="none" transform="matrix(1 0 0 1 553 17717 )" />
  </g>
</svg>