<?xml version="1.0" encoding="utf-8"?>
<svg version="1.1" xmlns:xlink="http://www.w3.org/1999/xlink" width="41px" height="71px" xmlns="http://www.w3.org/2000/svg">
  <g transform="matrix(1 0 0 1 -318 -11023 )">
    <path d="M 21.75728 45.77627067669172  C 19.85424000000002 41.79392481203008  17.91117333333333 37.82896240601502  16.04714666666668 33.828210526315786  C 14.11826666666667 29.68890225563909  12.27146666666668 25.508691729323306  10.383626666666682 21.35046616541353  C 8.60928000000001 17.440721804511277  6.875466666666692 13.510526315789464  5.019546666666687 9.639639097744354  C 4.060933333333355 7.641052631578944  3.02682666666669 5.685413533834574  2.000826666666687 3.721082706766913  C 1.554453333333354 2.866736842105263  1.069066666666688 2.0215939849623954  0.6794400000000186 1.1381052631578943  C 0.6262400000000238 1.0179548872180377  0.3480800000000204 0.53326315789474  0.46410666666667943 0.382436090225559  C 0.725546666666675 0.04345864661653089  2.14573333333334 1.6202406015037505  2.262773333333352 1.739368421052625  C 3.702720000000025 3.201624060150376  5.007386666666687 4.808060150375938  6.184373333333342 6.4922105263157786  C 8.638160000000017 10.003669172932318  10.650133333333352 13.81320300751878  12.693519999999998 17.57569924812029  C 14.783013333333345 21.423578947368412  16.840586666666667 25.28781954887217  18.859146666666657 29.174045112781943  C 20.873653333333323 33.05260150375939  22.86637333333332 36.942917293233066  24.791200000000003 40.867488721804506  C 26.534639999999992 44.4218947368421  28.250213333333335 47.989593984962404  29.97034666666666 51.555759398496235  C 32.40842666666667 56.61127819548871  34.84701333333333 61.6667969924812  37.285093333333336 66.72231578947367  C 37.43810666666668 67.03981954887216  37.59111999999999 67.35681203007518  37.74413333333334 67.67431578947368  " stroke-width="2" stroke="#ffffff" fill="none" transform="matrix(1 0 0 1 319 11024 )" />
  </g>
</svg>