<?xml version="1.0" encoding="utf-8"?>
<svg version="1.1" xmlns:xlink="http://www.w3.org/1999/xlink" width="43px" height="24px" xmlns="http://www.w3.org/2000/svg">
  <g transform="matrix(1 0 0 1 -621 -17798 )">
    <path d="M 2.7300000000000058 22.131307692307665  C 5.763829787234032 19.811846153846115  8.866468085106405 17.579076923076887  12.0495319148936 15.465730769230722  C 15.155744680851047 13.403692307692245  18.364723404255308 11.775115384615315  21.82391489361699 10.376538461538427  C 25.35280851063828 8.949653846153812  28.92995744680848 7.6183076923076625  32.55536170212764 6.447961538461527  C 34.41587234042551 5.847307692307704  36.292468085106385 5.295307692307683  38.15029787234043 4.687576923076904  C 39.060893617021286 4.3894615384615285  40.06978723404258 4.1001923076923  40.858851063829796 3.5296153846153424  C 41.485276595744715 3.0775769230768595  41.78195744680853 2.491961538461495  41.56212765957446 1.7364999999999693  C 41.29940425531915 0.8359615384615324  40.508553191489376 0.48565384615382684  39.62119148936167 0.32996153846153004  C 37.03238297872338 -0.12384615384614177  34.12276595744676 0.6838076923076637  31.6161702127659 1.2490769230769034  C 28.070297872340355 2.048769230769208  24.574468085106332 3.085538461538461  21.18319148936164 4.388576923076885  C 14.279999999999914 7.042423076923038  7.779829787233956 10.879884615384595  2.09553191489354 15.570115384615335  C 1.3967234042552579 16.146884615384554  0.7122127659573679 16.738692307692283  0.03127659574460161 17.33492307692303  " stroke-width="1" stroke="#ffffff" fill="none" transform="matrix(1 0 0 1 621 17798 )" />
  </g>
</svg>