<?xml version="1.0" encoding="utf-8"?>
<svg version="1.1" xmlns:xlink="http://www.w3.org/1999/xlink" width="104px" height="8px" preserveAspectRatio="xMinYMid meet" viewBox="478 17781  104 6" xmlns="http://www.w3.org/2000/svg">
  <g transform="matrix(-0.4999999999999634 0.866025403784365 -0.86602540378447 -0.49999999999996336 16196.39578090299 26217.006535993634 )">
    <path d="M 80.46600000000001 106.89299999999997  C 76.24200000000002 100.46699999999998  72.06400000000002 94.00799999999998  67.79200000000003 87.61299999999994  C 62.88900000000001 80.27199999999993  57.912000000000035 72.97899999999993  52.97200000000004 65.66299999999995  C 48.696000000000026 59.32999999999995  44.47700000000003 52.95599999999996  40.09000000000003 46.698999999999955  C 35.58600000000001 40.27499999999995  30.996000000000038 33.900999999999954  26.13100000000003 27.743999999999975  C 21.149 21.43799999999996  15.973000000000043 15.299999999999981  10.47300000000004 9.436999999999983  C 7.915000000000049 6.7099999999999795  5.31200000000004 3.9179999999999775  2.394000000000034 1.5679999999999836  C 2.0990000000000464 1.329999999999984  0.34300000000004616 -0.28000000000002956  0.2230000000000416 0.7779999999999916  C 0.14600000000004343 1.4569999999999936  0.8460000000000322 2.4890000000000043  1.1350000000000477 3.040999999999997  C 1.969000000000051 4.633999999999986  2.9260000000000446 6.165999999999997  3.8930000000000575 7.680000000000008  C 5.812000000000069 10.687000000000012  7.859000000000067 13.604000000000012  9.903000000000048 16.525000000000006  C 14.797000000000054 23.519000000000005  19.777000000000044 30.461000000000013  24.368000000000052 37.66  C 28.341000000000065 43.889999999999986  31.956000000000074 50.364000000000004  35.29500000000007 56.954  C 39.61800000000005 65.48500000000001  43.89200000000005 74.041  48.190000000000055 82.58500000000004  C 48.61200000000008 83.42400000000004  49.03400000000004 84.26200000000006  49.456000000000074 85.10100000000006  " stroke-width="2" stroke="#ffffff" fill="none" transform="matrix(1 0 0 1 504 17742 )" />
  </g>
</svg>