<?xml version="1.0" encoding="utf-8"?>
<svg version="1.1" xmlns:xlink="http://www.w3.org/1999/xlink" width="30px" height="91px" xmlns="http://www.w3.org/2000/svg">
  <g transform="matrix(1 0 0 1 -341 -10997 )">
    <path d="M 20.6167924528302 87.50082758620688  C 19.952490566037763 84.08349425287355  19.288188679245295 80.6661609195402  18.623886792452854 77.24832183908045  C 18.07930188679247 74.448  17.497528301886813 71.65526436781609  16.92645283018871 68.85999999999999  C 16.35130188679247 66.0455172413793  15.752716981132115 63.239632183908036  15.138339622641542 60.433241379310324  C 14.433792452830232 57.21618390804597  13.716000000000047 54.00519540229883  12.970188679245302 50.79774712643677  C 12.363452830188711 48.18910344827586  11.715452830188687 45.58956321839079  11.051660377358498 42.99457471264367  C 10.389905660377378 40.40666666666666  9.745471698113207 37.81370114942527  9.058754716981152 35.23236781609193  C 8.164698113207569 31.87117241379309  7.27115094339624 28.50997701149423  6.377094339622656 25.14827586206895  C 5.290981132075483 21.063862068965506  4.204867924528312 16.979954022988483  3.1187547169811394 12.895540229885038  C 2.5232264150943555 10.65710344827584  1.9434905660377348 8.417655172413774  1.3953396226415262 6.167080459770094  C 1.0657358490566249 4.813701149425266  0.7503962264151011 3.4507126436781435  0.5114716981132172 2.0786206896551507  C 0.42232075471698505 1.565793103448256  0.3229811320754791 1.0388045977011289  0.32145283018869386 0.5163678160919329  C 0.32094339622644175 0.4121839080459543  0.2959811320754805 0.14312643678158826  0.3902264150943496 0.06068965517239454  C 0.8538113207547396 -0.3459310344827789  2.7687735849056616 3.6272183908045816  2.9577735849056808 4.002482758620669  C 4.337320754717015 6.741103448275844  5.594094339622668 9.53485057471262  6.741849056603792 12.376643678160896  C 7.8463018867924745 15.111218390804577  8.833584905660395 17.89131034482756  9.768396226415101 20.687080459770087  C 10.730207547169805 23.563770114942493  11.662471698113222 26.44905747126434  12.54837735849057 29.350022988505714  C 13.434792452830195 32.253517241379285  14.321716981132075 35.15802298850572  15.151584905660386 38.07820689655169  C 16.080283018867924 41.34634482758617  16.994716981132083 44.6165057471264  17.8938679245283 47.89273563218388  C 18.678396226415106 50.75172413793101  19.410452830188667 53.624873563218365  20.13741509433962 56.49852873563215  C 20.907679245283017 59.54363218390801  21.628528301886803 62.599356321839046  22.331037735849044 65.66013793103446  C 22.965283018867915 68.4230344827586  23.553679245282996 71.2005977011494  24.09724528301885 73.98271264367813  C 24.68003773584904 76.96308045977008  25.24092452830187 79.9454712643678  25.76156603773583 82.93696551724133  C 26.03666037735848 84.51944827586203  26.312264150943385 86.10142528735628  26.587358490566007 87.68390804597698  " stroke-width="2" stroke="#ffffff" fill="none" transform="matrix(1 0 0 1 342 10998 )" />
  </g>
</svg>