<?xml version="1.0" encoding="utf-8"?>
<svg version="1.1" xmlns:xlink="http://www.w3.org/1999/xlink" width="12px" height="36px" xmlns="http://www.w3.org/2000/svg">
  <g transform="matrix(1 0 0 1 -349 -11045 )">
    <path d="M 2.4522352941176497 20.44070769230769  C 2.2452352941176392 16.05576923076923  1.9095882352941325 11.683015384615386  1.3335882352941204 7.327015384615393  C 1.0651764705882356 5.2992923076923155  0.5887058823529535 3.252276923076926  0.531529411764716 1.2057692307692454  C 0.5241176470588284 0.9504000000000216  0.43888235294118055 0.1980000000000075  0.8227058823529574 0.08935384615385435  C 1.1652352941176585 -0.007615384615377689  1.5622941176470704 0.5066769230769327  1.7200588235294243 0.7016307692307718  C 2.840823529411787 2.0830615384615427  3.3432352941176458 3.985892307692307  3.843000000000008 5.6348769230769316  C 5.109882352941169 9.81318461538462  6.119470588235307 14.08693846153847  6.966000000000008 18.360692307692318  C 7.814647058823542 22.644600000000004  8.376352941176473 26.96252307692309  8.672823529411767 31.312938461538472  C 8.706176470588233 31.80083076923079  8.733705882352949 32.289230769230784  8.763882352941193 32.777630769230775  " stroke-width="2" stroke="#ffffff" fill="none" transform="matrix(1 0 0 1 350 11046 )" />
  </g>
</svg>