<?xml version="1.0" encoding="utf-8"?>
<svg version="1.1" xmlns:xlink="http://www.w3.org/1999/xlink" width="15px" height="72px" xmlns="http://www.w3.org/2000/svg">
  <g transform="matrix(1 0 0 1 -640 -17731 )">
    <path d="M 6.79262499999998 70.27562025316458  C 6.5292499999999905 67.37720253164557  6.265875000000001 64.4796835443038  6.003374999999991 61.58126582278484  C 5.399624999999993 54.933329113924096  4.795874999999995 48.28629113924054  4.192124999999997 41.639253164557005  C 3.5367499999999765 34.419721518987394  2.8804999999999765 27.20018987341776  2.2251250000000056 19.979759493670933  C 1.798125000000006 15.281177215189912  1.3719999999999857 10.582594936708917  0.9449999999999861 5.884012658227896  C 0.8531249999999702 4.867544303797517  0.7603749999999749 3.8528734177215753  0.6973749999999725 2.833708860759537  C 0.6754999999999924 2.478708860759528  0.3149999999999622 0.3630886075949845  0.7804999999999964 0.06920253164561907  C 1.4507500000000135 -0.35410126582273865  3.2917500000000004 5.7384177215190295  3.4711249999999865 6.317202531645618  C 4.916624999999975 10.96905063291143  6.062874999999977 15.716164556962072  7.027125000000005 20.495632911392462  C 8.004500000000021 25.3434050632912  8.797250000000027 30.22622784810132  9.501624999999983 35.12343037974691  C 10.163124999999958 39.721354430379805  10.765124999999998 44.330063291139304  11.283999999999963 48.94775949367096  C 11.864124999999973 54.10469620253171  12.463499999999975 59.258037974683596  12.921999999999976 64.42755696202538  C 13.042749999999955 65.78913924050637  13.163499999999985 67.15162025316462  13.284249999999965 68.51320253164563  " stroke-width="1" stroke="#ffffff" fill="none" transform="matrix(1 0 0 1 640 17731 )" />
  </g>
</svg>