<?xml version="1.0" encoding="utf-8"?>
<svg version="1.1" xmlns:xlink="http://www.w3.org/1999/xlink" width="16px" height="59px" xmlns="http://www.w3.org/2000/svg">
  <g transform="matrix(1 0 0 1 -615 -17731 )">
    <path d="M 4.087058823529416 35.92609230769231  C 3.7420588235293986 28.21923076923077  3.1826470588235543 20.53378461538462  2.222647058823534 12.87778461538463  C 1.7752941176470594 9.313907692307707  0.9811764705882559 5.716123076923082  0.8858823529411932 2.1192307692307946  C 0.8735294117647139 1.670400000000038  0.731470588235301 0.3480000000000132  1.3711764705882623 0.15704615384616827  C 1.942058823529431 -0.013384615384603211  2.603823529411784 0.8905230769230937  2.8667647058823738 1.2331692307692352  C 4.734705882352978 3.6611384615384694  5.57205882352941 7.005507692307691  6.405000000000014 9.903723076923093  C 8.516470588235283 17.24741538461539  10.199117647058845 24.758861538461552  11.610000000000014 32.27030769230771  C 13.024411764705903 39.799600000000005  13.960588235294122 47.38867692307695  14.454705882352947 55.034861538461556  C 14.510294117647053 55.89236923076926  14.556176470588248 56.75076923076925  14.606470588235322 57.60916923076924  " stroke-width="1" stroke="#ffffff" fill="none" transform="matrix(1 0 0 1 615 17731 )" />
  </g>
</svg>