<?xml version="1.0" encoding="utf-8"?>
<svg version="1.1" xmlns:xlink="http://www.w3.org/1999/xlink" width="48px" height="157px" xmlns="http://www.w3.org/2000/svg">
  <g transform="matrix(1 0 0 1 -599 -17646 )">
    <path d="M 35.88849056603776 155.11510344827585  C 34.732113207547215 149.05710344827583  33.57573584905663 142.99910344827583  32.41935849056608 136.9402068965517  C 31.471377358490596 131.97599999999997  30.458660377358527 127.02524137931033  29.464566037735896 122.06999999999998  C 28.4633773584906 117.08068965517239  27.421396226415165 112.10662068965514  26.351924528301943 107.13165517241376  C 25.12549056603781 101.4286896551724  23.876000000000083 95.73648275862065  22.577735849056637 90.0505517241379  C 21.521566037735905 85.42613793103448  20.393566037735862 80.8178620689655  19.238075471698128 76.21765517241377  C 18.08613207547173 71.62999999999998  16.964339622641507 67.0333793103448  15.768943396226451 62.457379310344784  C 14.212622641509473 56.49889655172411  12.657188679245305 50.54041379310341  11.100867924528327 44.58103448275859  C 9.210226415094361 37.34048275862067  7.3195849056603945 30.100827586206858  5.428943396226428 22.86027586206893  C 4.3922830188679525 18.892137931034448  3.383113207547168 14.92220689655169  2.428924528301916 10.932551724137895  C 1.8551698113207915 8.53337931034479  1.3062452830188795 6.117172413793073  0.8903396226415263 3.684827586206858  C 0.7351509433962332 2.7757241379309994  0.5622264150943526 1.841517241379274  0.5595660377358744 0.9153793103447901  C 0.5586792452830652 0.7306896551723735  0.515226415094355 0.2537241379309974  0.6792830188679418 0.10758620689651759  C 1.4862641509434356 -0.6132413793103808  4.8197169811320775 6.430068965517213  5.148716981132111 7.09531034482755  C 7.550150943396285 11.950137931034451  9.737867924528349 16.90268965517237  11.735811320754749 21.940413793103406  C 13.658377358490604 26.788068965517205  15.376981132075501 31.716413793103403  17.00424528301888 36.672551724137875  C 18.678509433962255 41.77213793103442  20.301339622641535 46.88696551724133  21.843471698113213 52.02958620689649  C 23.386490566037747 57.17668965517236  24.930396226415095 62.3255862068965  26.374981132075487 67.50227586206891  C 27.991603773584906 73.29579310344822  29.583396226415104 79.09289655172408  31.14858490566038 84.9007586206896  C 32.51424528301889 89.96896551724133  33.788566037735826 95.06227586206893  35.054018867924526 100.15648275862063  C 36.39484905660377 105.55462068965511  37.64966037735851 110.97158620689649  38.8725471698113 116.39751724137926  C 39.97660377358489 121.29537931034477  41.000849056603734 126.2192413793103  41.947056603773554 131.15117241379303  C 42.9615471698113 136.43455172413786  43.93790566037733 141.72151724137927  44.84420754716977 147.0246206896551  C 45.3230754716981 149.8299310344827  45.80283018867923 152.63434482758615  46.2816981132075 155.43965517241375  " stroke-width="1" stroke="#ffffff" fill="none" transform="matrix(1 0 0 1 599 17646 )" />
  </g>
</svg>