<?xml version="1.0" encoding="utf-8"?>
<svg version="1.1" xmlns:xlink="http://www.w3.org/1999/xlink" width="11px" height="43px" xmlns="http://www.w3.org/2000/svg">
  <g transform="matrix(1 0 0 1 -363 -11045 )">
    <path d="M 3.8814999999999884 39.59189873417722  C 3.7309999999999945 37.95898734177215  3.5805000000000007 36.32658227848101  3.430499999999995 34.69367088607597  C 3.085499999999996 30.948354430379773  2.7404999999999973 27.203544303797486  2.3954999999999984 23.458734177215213  C 2.0209999999999866 19.39139240506332  1.6459999999999866 15.324050632911415  1.2715000000000032 11.256202531645595  C 1.0275000000000034 8.609113924050654  0.7839999999999918 5.962025316455728  0.539999999999992 3.314936708860787  C 0.48749999999998295 2.7422784810126855  0.4344999999999857 2.170632911392437  0.3984999999999843 1.5964556962025562  C 0.3859999999999957 1.396455696202551  0.1799999999999784 0.2045569620253434  0.44599999999999795 0.03898734177217976  C 0.8290000000000077 -0.19949367088604994  1.8810000000000002 3.232911392405087  1.9834999999999923 3.558987341772179  C 2.8094999999999857 6.1797468354430585  3.464499999999987 8.8541772151899  4.015500000000003 11.546835443038006  C 4.574000000000012 14.27797468354434  5.027000000000015 17.028860759493703  5.42949999999999 19.787848101265862  C 5.807499999999976 22.378227848101297  6.151499999999999 24.974683544303833  6.447999999999979 27.57620253164561  C 6.7794999999999845 30.48151898734181  7.121999999999986 33.38481012658231  7.383999999999986 36.29721518987345  C 7.4529999999999745 37.06430379746838  7.521999999999991 37.83189873417725  7.59099999999998 38.59898734177219  " stroke-width="2" stroke="#ffffff" fill="none" transform="matrix(1 0 0 1 364 11046 )" />
  </g>
</svg>