<?xml version="1.0" encoding="utf-8"?>
<svg version="1.1" xmlns:xlink="http://www.w3.org/1999/xlink" width="9px" height="34px" xmlns="http://www.w3.org/2000/svg">
  <g transform="matrix(1 0 0 1 -378 -11044 )">
    <path d="M 0.7800000000000037 29.934819672131145  C 0.5956363636363552 25.90126229508196  0.5050909090909024 21.8687213114754  0.547636363636374 17.831098360655734  C 0.5972727272727422 13.12468852459016  0.5858181818181886 8.41065573770491  0.7581818181818417 3.7062786885245793  C 0.79200000000003 2.7839016393442524  0.7990909090909264 1.8340819672131048  0.9790909090909177 0.9239016393442541  C 0.9976363636363679 0.8288688524590021  1.0385454545454527 0.4151967213114647  1.2070909090909212 0.3969016393442509  C 1.3478181818181838 0.38114754098359216  1.445454545454564 0.6540491803278575  1.48145454545455 0.7307868852458956  C 1.8512727272727303 1.5210327868852433  1.9974545454545642 2.4307049180327804  2.1774545454545557 3.269737704918031  C 3.0910909090909255 7.538590163934428  3.6060000000000256 11.87960655737705  4.159090909090909 16.198262295081967  C 4.750909090909079 20.821836065573773  5.251090909090914 25.45506557377049  5.7796363636363655 30.08524590163934  C 5.802545454545442 30.284459016393434  5.824909090909108 30.483163934426216  5.847818181818184 30.682377049180328  " stroke-width="2" stroke="#ffffff" fill="none" transform="matrix(1 0 0 1 379 11045 )" />
  </g>
</svg>