<?xml version="1.0" encoding="utf-8"?>
<svg version="1.1" xmlns:xlink="http://www.w3.org/1999/xlink" width="11px" height="56px" xmlns="http://www.w3.org/2000/svg">
  <g transform="matrix(1 0 0 1 -666 -17728 )">
    <path d="M 1.300000000000006 53.110163934426225  C 0.9927272727272586 45.95385245901638  0.8418181818181707 38.799344262295065  0.91272727272729 31.635819672131138  C 0.9954545454545703 23.285737704918027  0.9763636363636475 14.92213114754097  1.2636363636364027 6.575655737704898  C 1.32000000000005 4.939180327868835  1.3318181818182107 3.254016393442605  1.6318181818181963 1.6391803278688377  C 1.66272727272728 1.4705737704917778  1.7309090909090876 0.736639344262276  2.011818181818202 0.7041803278688322  C 2.2463636363636397 0.6762295081966957  2.4090909090909403 1.1604098360655537  2.4690909090909168 1.2965573770491696  C 3.085454545454551 2.698606557377045  3.32909090909094 4.312540983606546  3.6290909090909262 5.801147540983604  C 5.15181818181821 13.374918032786889  6.010000000000043 21.076721311475414  6.9318181818181825 28.738852459016393  C 7.9181818181818 36.94196721311476  8.75181818181819 45.162213114754095  9.632727272727276 53.37704918032786  C 9.67090909090907 53.730491803278674  9.708181818181846 54.08303278688522  9.74636363636364 54.43647540983606  " stroke-width="1" stroke="#ffffff" fill="none" transform="matrix(1 0 0 1 666 17728 )" />
  </g>
</svg>