<?xml version="1.0" encoding="utf-8"?>
<svg version="1.1" xmlns:xlink="http://www.w3.org/1999/xlink" width="26px" height="10px" xmlns="http://www.w3.org/2000/svg">
  <g transform="matrix(1 0 0 1 -662 -17797 )">
    <path d="M 1.6339285714285574 8.24850000000002  C 6.536607142857116 7.259400000000028  11.49196428571427 6.045300000000037  16.47946428571428 5.592599999999998  C 17.554464285714285 5.494500000000016  18.63303571428569 5.4684000000000195  19.708928571428583 5.560199999999997  C 20.723214285714317 5.6466  21.71874999999999 5.898599999999976  22.73214285714289 5.972400000000022  C 23.323214285714297 6.015600000000023  24.022321428571455 5.975100000000009  24.496428571428602 5.563800000000015  C 25.452678571428628 4.7358  24.661607142857175 3.324600000000015  23.990178571428597 2.605500000000035  C 22.30000000000005 0.7938000000000557  19.4919642857143 0.7155000000000143  17.208035714285735 0.8127000000000181  C 12.239285714285739 1.0242000000000304  7.225000000000037 2.0700000000000105  2.3714285714285768 3.1077000000000283  C 1.7491071428571456 3.24090000000005  1.1276785714286015 3.373200000000043  0.5053571428571705 3.5064000000000135  " stroke-width="1" stroke="#ffffff" fill="none" transform="matrix(1 0 0 1 662 17797 )" />
  </g>
</svg>