<?xml version="1.0" encoding="utf-8"?>
<svg version="1.1" xmlns:xlink="http://www.w3.org/1999/xlink" width="17px" height="8px" xmlns="http://www.w3.org/2000/svg">
  <g transform="matrix(1 0 0 1 -376 -11083 )">
    <path d="M 0.9149999999999922 4.58250000000001  C 3.660499999999985 4.0330000000000155  6.4354999999999905 3.3585000000000207  9.228499999999997 3.1069999999999993  C 9.8305 3.052500000000009  10.434499999999986 3.038000000000011  11.037000000000006 3.0889999999999986  C 11.605000000000018 3.1370000000000005  12.162499999999994 3.276999999999987  12.730000000000018 3.318000000000012  C 13.061000000000007 3.342000000000013  13.452500000000015 3.319500000000005  13.718000000000018 3.091000000000008  C 14.253500000000031 2.6310000000000002  13.810500000000019 1.8470000000000084  13.434500000000014 1.4475000000000193  C 12.488000000000028 0.4410000000000309  10.915500000000009 0.39750000000000796  9.636500000000012 0.45150000000001  C 6.854000000000013 0.5690000000000168  4.046000000000021 1.1500000000000057  1.328000000000003 1.7265000000000157  C 0.9795000000000016 1.800500000000028  0.6315000000000168 1.8740000000000236  0.28300000000001546 1.9480000000000075  " stroke-width="2" stroke="#ffffff" fill="none" transform="matrix(1 0 0 1 377 11084 )" />
  </g>
</svg>