<?xml version="1.0" encoding="utf-8"?>
<svg version="1.1" xmlns:xlink="http://www.w3.org/1999/xlink" width="31px" height="129px" xmlns="http://www.w3.org/2000/svg">
  <g transform="matrix(1 0 0 1 -624 -17635 )">
    <path d="M 18.09363636363638 118.69448951048952  C 17.779999999999994 116.84699300699303  17.466363636363656 115.00039160839161  17.153636363636387 113.15289510489511  C 16.367272727272745 108.52072727272727  15.581818181818223 103.88945454545457  14.795454545454577 99.25728671328672  C 13.768181818181853 93.20458741258741  12.740909090909131 87.15188811188813  11.714545454545476 81.09918881118882  C 10.678181818181853 74.98920279720281  9.640909090909107 68.8792167832168  8.604545454545484 62.76923076923077  C 7.792727272727327 57.98310489510489  6.980000000000049 53.19697902097903  6.168181818181841 48.41174825174826  C 5.803636363636377 46.263496503496505  5.425454545454562 44.11793006993008  5.0745454545455 41.96788811188811  C 4.465454545454577 38.2370909090909  3.9100000000000406 34.49734265734265  3.3709090909091155 30.755804195804195  C 2.7409090909091303 26.383216783216778  2.1445454545454883 22.00794405594406  1.6045454545454938 17.623720279720274  C 1.1109090909091244 13.611860139860134  0.6536363636364099 9.584783216783215  0.4018181818182401 5.5496503496503395  C 0.30454545454548765 3.9984335664335524  0.099090909090943 2.3174265734265593  0.36363636363644636 0.7724755244755114  C 0.43272727272737527 0.3705734265734152  0.5027272727273736 -0.04296503496504931  0.9200000000001037 0.2577902097901941  C 1.1163636363637475 0.4001118881118778  1.245454545454653 0.7572587412587318  1.3481818181819252 0.9640279720279576  C 1.704545454545558 1.682797202797186  1.9763636363637198 2.44542657342656  2.242727272727362 3.19999999999999  C 2.9100000000000716 5.083300699300689  3.4854545454546515 7.001510489510479  4.039090909090997 8.91972027972027  C 5.246363636363702 13.098965034965023  6.352727272727376 17.307748251748237  7.430000000000105 21.521902097902082  C 8.496363636363743 25.691300699300687  9.47818181818191 29.878601398601383  10.452727272727367 34.069482517482506  C 11.293636363636468 37.6883916083916  12.066363636363711 41.31893706293704  12.842727272727386 44.9521678321678  C 13.855454545454634 49.69443356643354  14.889090909091 54.433118881118865  15.880909090909189 59.179860139860125  C 16.57909090909098 62.52039160839159  17.23818181818191 65.8698741258741  17.915454545454644 69.213986013986  C 19.096363636363716 75.03753846153845  20.277272727272837 80.86198601398601  21.457272727272837 86.68553846153846  C 21.88727272727285 88.80872727272728  22.32090909090919 90.93012587412586  22.72636363636376 93.0577902097902  C 23.708181818181927 98.20106293706294  24.690000000000147 103.34344055944057  25.670909090909195 108.48671328671328  C 26.700909090909178 113.88240559440558  27.73090909090921 119.2780979020979  28.760909090909195 124.6746853146853  C 28.933636363636467 125.58053146853146  29.106363636363735 126.48548251748251  29.279090909091007 127.39132867132867  " stroke-width="1" stroke="#ffffff" fill="none" transform="matrix(1 0 0 1 624 17635 )" />
  </g>
</svg>