<?xml version="1.0" encoding="utf-8"?>
<svg version="1.1" xmlns:xlink="http://www.w3.org/1999/xlink" width="21px" height="136px" xmlns="http://www.w3.org/2000/svg">
  <g transform="matrix(1 0 0 1 -648 -17618 )">
    <path d="M 8.890909090909066 134.5798013245033  C 8.618181818181782 131.228940397351  8.34454545454543 127.87807947019866  8.071818181818148 124.52721854304636  C 7.5418181818181225 118.02397350993378  7.01181818181815 111.52162251655629  6.482727272727247 105.01837748344371  C 6.1299999999999955 100.68675496688743  5.776363636363623 96.35602649006623  5.423636363636319 92.02440397350995  C 5.18636363636357 89.1026821192053  4.986363636363597 86.17649006622517  4.7699999999999605 83.25298013245033  C 4.297272727272706 76.88026490066227  3.8236363636363273 70.50754966887418  3.3509090909090715 64.13572847682119  C 3.130909090909055 61.17288079470198  2.9081818181817773 58.21182119205297  2.7172727272727055 55.24718543046356  C 2.4045454545454383 50.39433774834436  2.060909090909087 45.54327814569535  1.7818181818181633 40.688642384105954  C 1.5036363636363603 35.85188741721854  1.2618181818181606 31.014238410596025  1.0509090909090961 26.17390728476821  C 0.8636363636363532 21.86999999999999  0.7663636363636526 17.55804635761589  0.7345454545454478 13.24966887417218  C 0.7190909090909061 11.12185430463576  0.725454545454547 8.993145695364236  0.7754545454545534 6.865331125827804  C 0.8218181818181786 4.893973509933765  0.7854545454545753 2.8510927152317818  1.0900000000000112 0.8976158940397267  C 1.1127272727272632 0.7500993377483305  1.152727272727299 0.06258278145694754  1.4300000000000326 0.025033112582773936  C 1.847272727272763 -0.031291390728486475  2.2627272727273025 1.3938079470198652  2.3345454545454913 1.5842384105960188  C 3.9063636363636594 5.786225165562908  4.773636363636394 10.286821192052969  5.7263636363636685 14.653311258278134  C 6.65909090909095 18.928609271523165  7.404545454545489 23.245927152317872  8.056363636363656 27.57129139072846  C 8.616363636363644 31.283344370860917  9.098181818181853 35.012384105960244  9.495454545454592 38.74499999999999  C 10.107272727272774 44.506192052980126  10.720000000000027 50.26738410596026  11.331818181818212 56.02857615894038  C 11.524545454545475 57.84258278145693  11.723636363636379 59.65569536423839  11.92272727272728 61.46880794701986  C 12.442727272727282 66.20185430463577  12.963636363636354 70.93579470198674  13.483636363636357 75.66884105960266  C 14.199090909090884 82.17298013245035  14.913636363636337 88.67622516556293  15.629090909090914 95.1803642384106  C 16.31909090909093 101.45652317880796  17.00909090909089 107.73268211920531  17.699090909090906 114.00884105960266  C 18.144545454545458 118.05884105960267  18.59000000000001 122.10884105960267  19.034545454545444 126.15884105960266  C 19.09727272727273 126.72566225165563  19.1590909090909 127.29158940397352  19.221818181818186 127.85841059602652  " stroke-width="1" stroke="#ffffff" fill="none" transform="matrix(1 0 0 1 648 17618 )" />
  </g>
</svg>