<?xml version="1.0" encoding="utf-8"?>
<svg version="1.1" xmlns:xlink="http://www.w3.org/1999/xlink" width="8px" height="35px" xmlns="http://www.w3.org/2000/svg">
  <g transform="matrix(1 0 0 1 -389 -11043 )">
    <path d="M 0.2775000000000034 31.530158730158725  C 0.2295000000000016 27.481904761904758  0.2634999999999934 23.437206349206345  0.4089999999999918 19.390984126984122  C 0.5449999999999875 15.608888888888883  0.7775000000000034 11.81968253968253  1.150999999999982 8.053333333333327  C 1.3654999999999688 5.892571428571428  1.5374999999999943 3.7221587301587316  1.815499999999986 1.5685079365079333  C 1.8349999999999795 1.417650793650792  1.8809999999999718 0.10920634920635094  2.2159999999999798 0.0878730158730168  C 2.6019999999999754 0.06298412698412456  2.8364999999999725 1.7102222222222172  2.875499999999988 1.8880000000000066  C 3.2819999999999823 3.7440000000000047  3.509999999999991 5.639619047619052  3.704499999999996 7.528634920634922  C 4.122500000000002 11.593650793650788  4.323499999999996 15.6784761904762  4.5190000000000055 19.759746031746026  C 4.539000000000016 20.174730158730156  4.5589999999999975 20.589206349206346  4.5785000000000196 21.004190476190463  " stroke-width="2" stroke="#ffffff" fill="none" transform="matrix(1 0 0 1 390 11044 )" />
  </g>
</svg>