<?xml version="1.0" encoding="utf-8"?>
<svg version="1.1" xmlns:xlink="http://www.w3.org/1999/xlink" width="10px" height="101px" xmlns="http://www.w3.org/2000/svg">
  <g transform="matrix(1 0 0 1 -383 -10977 )">
    <path d="M 1.2643076923076992 97.59677083333334  C 1.150692307692308 94.53325  1.0187692307692287 91.46972916666667  0.9240000000000044 88.40569791666667  C 0.8286923076923008 85.31920833333334  0.735000000000005 82.23067708333332  0.6800769230769412 79.14316666666667  C 0.6170769230769311 75.59270833333335  0.5890769230769506 72.04122916666668  0.5438461538461795 68.49077083333334  C 0.5088461538461808 65.76259375000001  0.45284615384618887 63.03390625  0.45338461538463765 60.305729166666666  C 0.4539230769230864 56.849187500000006  0.46038461538462516 53.39417708333333  0.4932307692307981 49.93763541666667  C 0.5244615384615634 46.646468750000004  0.5917692307692557 43.35683333333334  0.6563846153846428 40.066177083333336  C 0.7102307692308089 37.33697916666667  0.7926153846154045 34.60573958333333  0.9008461538461855 31.878072916666675  C 1.0397692307692523 28.378656250000006  1.1760000000000446 24.87975000000001  1.3531538461538644 21.381864583333343  C 1.5076923076923139 18.331104166666677  1.719846153846163 15.282385416666676  1.98476923076925 12.238770833333346  C 2.249692307692337 9.202812500000014  2.53938461538462 6.1479687500000075  3.159153846153856 3.1553958333333414  C 3.205461538461555 2.9328541666666714  3.6911538461538558 -0.04236458333332527  4.38092307692309 0.3771979166666761  C 4.817076923076938 0.6426145833333408  4.903769230769246 1.7410312500000078  4.978076923076925 2.119760416666677  C 5.266153846153862 3.5861875000000123  5.409923076923091 5.080687500000011  5.524615384615379 6.56702083333334  C 5.7685384615384425 9.720885416666675  5.837461538461543 12.88700000000001  5.898846153846145 16.048010416666678  C 5.920384615384618 17.172968750000006  5.9289999999999825 18.298437500000013  5.943538461538468 19.42339583333334  C 5.983384615384628 22.430260416666677  6.023230769230788 25.43712500000001  6.06253846153847 28.443989583333344  C 6.118000000000013 32.63451041666667  6.173461538461556 36.82503125000001  6.228923076923099 41.01555208333335  C 6.29084615384618 45.71648958333335  6.353307692307711 50.417937500000015  6.415230769230793 55.11887500000002  C 6.475000000000018 59.64984375000002  6.534769230769244 64.18081250000002  6.595076923076949 68.71178125000002  C 6.643538461538474 72.39188541666668  6.6925384615384775 76.07147916666669  6.741000000000033 79.75158333333334  C 6.7695384615384935 81.89941666666667  6.797538461538505 84.04776041666668  6.826076923076965 86.19559375  C 6.829846153846199 86.48244791666669  6.833615384615432 86.7698125  6.837384615384666 87.05666666666669  " stroke-width="2" stroke="#ffffff" fill="none" transform="matrix(1 0 0 1 384 10978 )" />
  </g>
</svg>