<?xml version="1.0" encoding="utf-8"?>
<svg version="1.1" xmlns:xlink="http://www.w3.org/1999/xlink" width="20px" height="76px" xmlns="http://www.w3.org/2000/svg">
  <g transform="matrix(1 0 0 1 -355 -10991 )">
    <path d="M 10.253060606060616 67.69295104895106  C 10.07533333333333 66.63930069930072  9.897606060606071 65.58616083916084  9.720393939393954 64.53251048951049  C 9.274787878787889 61.89072727272727  8.829696969696993 59.24945454545456  8.384090909090927 56.60767132867133  C 7.801969696969716 53.15574125874126  7.219848484848507 49.703811188811194  6.638242424242437 46.25188111888113  C 6.050969696969717 42.767279720279724  5.463181818181828 39.28267832167833  4.875909090909108 35.79807692307692  C 4.415878787878818 33.068489510489506  3.955333333333361 30.338902097902103  3.4953030303030435 27.60982517482518  C 3.2887272727272805 26.38465034965035  3.074424242424252 25.161006993007  2.875575757575784 23.934811188811185  C 2.5304242424242602 21.807090909090906  2.2156666666666895 19.67426573426573  1.910181818181832 17.54041958041958  C 1.5531818181818404 15.046678321678318  1.2152424242424433 12.551405594405596  0.9092424242424465 10.051027972027969  C 0.6295151515151706 7.763013986013982  0.37039393939396564 5.466321678321678  0.22769696969700273 3.1650349650349594  C 0.1725757575757763 2.2803566433566353  0.05615151515153436 1.3216573426573346  0.2060606060606529 0.4405524475524401  C 0.2452121212121793 0.21134265734265084  0.2848787878788451 -0.024503496503504685  0.5213333333333922 0.14702097902097008  C 0.6326060606061236 0.22818881118880532  0.7057575757576366 0.4318741258741205  0.7639696969697576 0.5497972027971946  C 0.9659090909091494 0.9597202797202702  1.1199393939394413 1.394657342657335  1.2708787878788383 1.8249999999999942  C 1.6490000000000407 2.899069930069924  1.9750909090909692 3.993048951048945  2.288818181818232 5.0870279720279665  C 2.9729393939394306 7.47050349650349  3.5998787878788465 9.870825174825166  4.210333333333393 12.274209790209781  C 4.8146060606061205 14.652069930069922  5.370969696969749 17.040139860139853  5.923212121212175 19.43025174825174  C 6.399727272727332 21.494160839160834  6.837606060606102 23.56470629370628  7.2775454545455185 25.6367832167832  C 7.851424242424294 28.341356643356626  8.437151515151566 31.0438881118881  8.999181818181873 33.75101398601398  C 9.394818181818223 35.656160839160826  9.768303030303082 37.56641258741258  10.152090909090965 39.47360139860139  C 10.821272727272772 42.794846153846144  11.490454545454607 46.1166013986014  12.159121212121274 49.43784615384615  C 12.402787878787947 50.64872727272728  12.648515151515209 51.858587412587404  12.8782727272728 53.07202097902097  C 13.434636363636425 56.00529370629371  13.991000000000085 58.93805594405595  14.546848484848544 61.87132867132867  C 15.130515151515201 64.94855944055944  15.714181818181887 68.0257902097902  16.297848484848544 71.10353146853146  C 16.39572727272733 71.62014685314685  16.493606060606115 72.13625174825174  16.591484848484903 72.65286713286713  " stroke-width="2" stroke="#ffffff" fill="none" transform="matrix(1 0 0 1 356 10992 )" />
  </g>
</svg>