<?xml version="1.0" encoding="utf-8"?>
<svg version="1.1" xmlns:xlink="http://www.w3.org/1999/xlink" width="14px" height="80px" xmlns="http://www.w3.org/2000/svg">
  <g transform="matrix(1 0 0 1 -368 -10981 )">
    <path d="M 4.889999999999986 76.76033112582782  C 4.739999999999981 74.84909933774834  4.589499999999987 72.93786754966887  4.439499999999981 71.0266357615894  C 4.147999999999968 67.3173774834437  3.8564999999999827 63.608629139072846  3.565499999999986 59.89937086092716  C 3.3714999999999975 57.42874172185431  3.1769999999999925 54.9586225165563  2.9829999999999757 52.48799337748345  C 2.8524999999999636 50.82152980132451  2.7424999999999784 49.152516556291395  2.6234999999999786 47.48503311258278  C 2.3634999999999877 43.85022516556292  2.10299999999998 40.215417218543045  1.8429999999999893 36.58111920529801  C 1.7219999999999802 34.89119867549669  1.5994999999999777 33.20229801324503  1.494499999999988 31.51135761589403  C 1.322499999999991 28.74343708609271  1.133499999999998 25.976536423841054  0.9799999999999898 23.207596026490062  C 0.8269999999999982 20.448854304635763  0.6939999999999884 17.68960264900662  0.578000000000003 14.928821192052979  C 0.47499999999999426 12.473999999999993  0.42150000000000887 10.014589403973508  0.4039999999999963 7.557218543046354  C 0.3954999999999984 6.343576158940396  0.39900000000000085 5.129423841059602  0.4265000000000043 3.915781456953636  C 0.4519999999999982 2.7913774834437035  0.43200000000001637 1.6261788079470163  0.5995000000000061 0.5119735099337701  C 0.6119999999999948 0.42783443708608476  0.6340000000000146 0.03569536423840712  0.786500000000018 0.014278145695359947  C 1.0160000000000196 -0.017847682119210805  1.2445000000000164 0.7949867549668861  1.2840000000000202 0.903602649006618  C 2.1485000000000127 3.3002913907284737  2.6255000000000166 5.867298013245026  3.1495000000000175 8.357814569536417  C 3.6625000000000227 10.796317880794694  4.072500000000019 13.258788079470193  4.431000000000012 15.725847682119197  C 4.739000000000004 17.84309271523178  5.004000000000019 19.970026490066214  5.222500000000025 22.098999999999993  C 5.559000000000026 25.38501324503311  5.896000000000015 28.67102649006622  6.232500000000017 31.95703973509933  C 6.3385000000000105 32.9916953642384  6.448000000000008 34.025841059602634  6.5575000000000045 35.059986754966886  C 6.843500000000006 37.7595761589404  7.1299999999999955 40.45967549668873  7.415999999999997 43.15926490066226  C 7.809499999999986 46.86903311258279  8.202499999999986 50.57829139072848  8.596000000000004 54.288059602649014  C 8.975500000000011 57.86779470198676  9.35499999999999 61.44752980132451  9.734499999999997 65.02726490066226  C 9.979500000000002 67.33726490066226  10.224500000000006 69.64726490066226  10.468999999999994 71.95726490066227  C 10.503500000000003 72.28056291390729  10.537499999999994 72.60335099337749  10.572000000000003 72.92664900662253  " stroke-width="2" stroke="#ffffff" fill="none" transform="matrix(1 0 0 1 369 10982 )" />
  </g>
</svg>