<?xml version="1.0" encoding="utf-8"?>
<svg version="1.1" xmlns:xlink="http://www.w3.org/1999/xlink" width="10px" height="57px" xmlns="http://www.w3.org/2000/svg">
  <g transform="matrix(1 0 0 1 -685 -17726 )">
    <path d="M 0.4995000000000061 55.17777777777777  C 0.41310000000000285 48.09333333333333  0.4742999999999881 41.0151111111111  0.7361999999999852 33.93422222222222  C 0.9809999999999776 27.315555555555544  1.3995000000000062 20.684444444444427  2.0717999999999677 14.093333333333323  C 2.457899999999944 10.312  2.76749999999999 6.51377777777778  3.2678999999999747 2.7448888888888834  C 3.302999999999963 2.4808888888888863  3.3857999999999495 0.19111111111111415  3.9887999999999635 0.1537777777777794  C 4.683599999999956 0.11022222222221797  5.10569999999995 2.99288888888888  5.175899999999978 3.3040000000000114  C 5.9075999999999675 6.5520000000000085  6.317999999999984 9.869333333333342  6.668099999999993 13.175111111111114  C 7.420500000000004 20.288888888888877  7.782299999999992 27.43733333333335  8.134200000000009 34.579555555555544  C 8.170200000000028 35.30577777777778  8.206199999999995 36.03111111111111  8.241300000000036 36.75733333333331  " stroke-width="1" stroke="#ffffff" fill="none" transform="matrix(1 0 0 1 685 17726 )" />
  </g>
</svg>