<?xml version="1.0" encoding="utf-8"?>
<svg version="1.1" xmlns:xlink="http://www.w3.org/1999/xlink" width="13px" height="173px" xmlns="http://www.w3.org/2000/svg">
  <g transform="matrix(1 0 0 1 -675 -17611 )">
    <path d="M 2.1673846153846275 171.29229166666667  C 1.9726153846153849 165.91549999999998  1.7464615384615347 160.53870833333335  1.5840000000000074 155.16102083333334  C 1.4206153846153728 149.74391666666668  1.2600000000000084 144.32322916666666  1.1658461538461848 138.90433333333334  C 1.0578461538461676 132.67291666666668  1.009846153846201 126.43970833333336  0.9323076923077364 120.20829166666667  C 0.8723076923077384 115.4200625  0.7763076923077523 110.6309375  0.7772307692308074 105.84270833333333  C 0.7781538461538624 99.77612500000001  0.789230769230786 93.71222916666667  0.8455384615385111 87.64564583333335  C 0.899076923076966 81.8693125  1.0144615384615812 76.09566666666667  1.125230769230816 70.32022916666668  C 1.2175384615385294 65.53020833333335  1.3587692307692647 60.736604166666666  1.5443076923077466 55.94927083333335  C 1.7824615384615754 49.80743750000001  2.0160000000000764 43.66650000000001  2.319692307692339 37.52735416666668  C 2.584615384615395 32.17295833333335  2.948307692307708 26.82214583333335  3.4024615384615715 21.480291666666687  C 3.8566153846154343 16.151875000000025  4.353230769230777 10.790312500000013  5.415692307692325 5.538041666666681  C 5.495076923076952 5.147458333333342  6.327692307692324 -0.07435416666665251  7.510153846153869 0.6620208333333499  C 8.25784615384618 1.1278541666666797  8.406461538461564 3.0556875000000137  8.533846153846158 3.7203958333333516  C 9.027692307692334 6.2941250000000215  9.27415384615387 8.91712500000002  9.470769230769221 11.525791666666679  C 9.888923076923044 17.06114583333335  10.00707692307693 22.618000000000016  10.112307692307677 28.16589583333335  C 10.149230769230774 30.140312500000007  10.16399999999997 32.11562500000002  10.188923076923087 34.09004166666668  C 10.257230769230791 39.367395833333354  10.325538461538494 44.644750000000016  10.39292307692309 49.922104166666685  C 10.48800000000002 57.27689583333335  10.583076923076952 64.63168750000001  10.678153846153883 71.98647916666668  C 10.784307692307738 80.2371041666667  10.891384615384647 88.48862500000003  10.997538461538502 96.73925000000003  C 11.100000000000032 104.69156250000003  11.202461538461561 112.64387500000002  11.305846153846197 120.59618750000003  C 11.388923076923097 127.05514583333337  11.472923076923104 133.51320833333338  11.556000000000058 139.97216666666668  C 11.604923076923132 143.74183333333335  11.652923076923152 147.51239583333336  11.701846153846226 151.28206250000002  C 11.70830769230777 151.78552083333338  11.714769230769312 152.28987500000002  11.721230769230855 152.79333333333338  " stroke-width="1" stroke="#ffffff" fill="none" transform="matrix(1 0 0 1 675 17611 )" />
  </g>
</svg>