<?xml version="1.0" encoding="utf-8"?>
<svg version="1.1" xmlns:xlink="http://www.w3.org/1999/xlink" width="12px" height="44px" xmlns="http://www.w3.org/2000/svg">
  <g transform="matrix(1 0 0 1 -399 -11047 )">
    <path d="M 0.47541176470589536 40.52901250000001  C 0.8798823529411948 37.9952125  1.25258823529414 35.454750000000004  1.6941176470588475 32.927099999999996  C 2.156294117647078 30.282087499999992  2.5898823529412045 27.63041249999999  3.094411764705897 24.992574999999995  C 3.627 22.208675  4.127823529411778 19.4170875  4.6964117647059025 16.639849999999996  C 5.302058823529435 13.680674999999994  5.894470588235302 10.718937499999996  6.513882352941192 7.762324999999993  C 6.801882352941183 6.3877999999999995  7.096235294117675 5.013787499999993  7.408588235294133 3.644387499999995  C 7.659000000000022 2.546612499999997  7.84694117647059 1.3201999999999965  8.326588235294123 0.2880249999999915  C 8.423470588235295 0.07943749999998602  8.50076470588236 -0.11223750000001154  8.64688235294119 0.1347874999999881  C 8.781352941176495 0.36233749999998216  8.741117647058836 0.8061624999999893  8.751705882352944 1.0449874999999935  C 8.779235294117662 1.677412499999998  8.76811764705883 2.3103499999999904  8.755941176470582 2.9427749999999953  C 8.70141176470587 5.770749999999995  8.476411764705865 8.594112499999987  8.273117647058829 11.414912499999998  C 8.082529411764703 14.06146249999999  7.818352941176486 16.70339999999999  7.529294117647079 19.341750000000005  C 7.214823529411787 22.216875000000012  6.819352941176486 25.080725000000008  6.431823529411796 27.94765000000002  C 6.045352941176492 30.80586250000002  5.569941176470626 33.653825000000026  5.1342352941176665 36.50537500000001  C 5.076529411764735 36.884625000000014  5.018294117647081 37.264387500000005  4.96058823529415 37.64363750000001  " stroke-width="2" stroke="#ffffff" fill="none" transform="matrix(1 0 0 1 400 11048 )" />
  </g>
</svg>