<?xml version="1.0" encoding="utf-8"?>
<svg version="1.1" xmlns:xlink="http://www.w3.org/1999/xlink" width="48px" height="142px" xmlns="http://www.w3.org/2000/svg">
  <g transform="matrix(1 0 0 1 -715 -17646 )">
    <path d="M 0.19332075471699686 129.8003164556962  C 1.3106792452830265 125.39629746835442  2.4049811320755126 120.9869240506329  3.5870754716981277 116.59986075949367  C 4.970471698113224 111.46585443037972  6.3902264150943555 106.34701898734177  7.844566037735853 101.23264556962023  C 9.083415094339617 96.87681645569619  10.371924528301909 92.53258860759492  11.696792452830186 88.20263924050631  C 13.033188679245285 83.83520886075948  14.383773584905633 79.46599367088606  15.805301886792433 75.12533544303797  C 17.308415094339598 70.53480379746836  18.824830188679204 65.94962658227847  20.42460377358489 61.39122151898735  C 21.999547169811315 56.902424050632916  23.601094339622623 52.423443037974685  25.280679245283004 47.973018987341774  C 26.952283018867902 43.54133544303797  28.640735849056576 39.11589873417721  30.413433962264147 34.723481012658226  C 32.255301886792445 30.161506329113923  34.11401886792452 25.607563291139236  36.04988679245282 21.08574683544304  C 37.97600000000001 16.586240506329112  39.9349245283019 12.10101265822785  42.040169811320744 7.682715189873413  C 42.369169811320724 6.99199367088607  45.611283018867894 -0.1418924050632965  46.494528301886795 0.45780379746834643  C 46.97162264150945 0.7817468354430296  46.53975471698113 2.5165822784810064  46.484773584905646 2.888715189873413  C 46.16818867924525 5.051905063291141  45.652962264150936 7.191892405063289  45.13330188679244 9.313139240506324  C 44.07713207547171 13.627917721518976  42.87907547169812 17.912354430379736  41.618056603773574 22.170018987341763  C 40.38630188679243 26.33041139240506  39.10577358490563 30.47652531645568  37.849188679245266 34.62977848101264  C 35.86277358490564 41.19787974683543  33.8754716981132 47.76598101265821  31.889056603773568 54.334974683544274  C 30.936641509433933 57.482487341772114  29.97003773584905 60.62553797468352  29.063735849056606 63.786436708860734  C 27.590773584905662 68.92847468354428  26.14530188679246 74.07586708860758  24.7184528301887 79.23129113924048  C 23.449452830188715 83.81646835443036  22.26913207547172 88.42752531645567  21.053339622641545 93.0269810126582  C 20.055698113207587 96.80006962025314  19.058943396226432 100.5704810126582  18.108301886792468 104.3551708860759  C 16.732886792452856 109.83096835443034  15.334415094339649 115.30051898734172  13.98294339622644 120.78256329113921  C 12.761830188679264 125.73541139240506  11.594811320754758 130.7025379746835  10.401188679245319 135.66252531645569  C 9.973754716981144 137.43751898734175  9.54632075471702 139.21340506329113  9.118886792452845 140.9883987341772  " stroke-width="1" stroke="#ffffff" fill="none" transform="matrix(1 0 0 1 715 17646 )" />
  </g>
</svg>