<?xml version="1.0" encoding="utf-8"?>
<svg version="1.1" xmlns:xlink="http://www.w3.org/1999/xlink" width="22px" height="59px" xmlns="http://www.w3.org/2000/svg">
  <g transform="matrix(1 0 0 1 -719 -17743 )">
    <path d="M 0.756875000000008 57.34504615384617  C 2.9505000000000123 50.15036923076926  5.123999999999995 42.95123076923076  7.4086249999999865 35.786000000000016  C 9.536625 29.111538461538487  11.780999999999999 22.470092307692322  14.158374999999985 15.883076923076933  C 15.431499999999971 12.355784615384623  16.719500000000004 8.830276923076937  18.126500000000007 5.355630769230778  C 18.29800000000003 4.931784615384629  20.036625 0.356923076923082  20.51700000000003 0.654061538461542  C 20.706875000000018 0.771846153846162  20.53012500000002 1.6391692307692463  20.514375000000044 1.775692307692316  C 20.35600000000006 3.187323076923079  20.067250000000023 4.586461538461552  19.800375000000066 5.980246153846152  C 19.037375000000054 9.969753846153848  18.28575000000007 13.96104615384614  17.480750000000057 17.94252307692308  C 16.05712500000005 24.983723076923074  14.461125000000038 31.999046153846145  12.43550000000004 38.88766153846155  C 12.20625000000004 39.66664615384616  11.962125000000043 40.44027692307695  11.723250000000021 41.21658461538465  " stroke-width="1" stroke="#ffffff" fill="none" transform="matrix(1 0 0 1 719 17743 )" />
  </g>
</svg>