<?xml version="1.0" encoding="utf-8"?>
<svg version="1.1" xmlns:xlink="http://www.w3.org/1999/xlink" width="16px" height="73px" xmlns="http://www.w3.org/2000/svg">
  <g transform="matrix(1 0 0 1 -703 -17734 )">
    <path d="M 0.7923529411764922 71.17290000000001  C 1.4664705882353246 66.72330000000001  2.087647058823567 62.26200000000001  2.8235294117647456 57.82319999999999  C 3.5938235294117966 53.178299999999986  4.31647058823534 48.52169999999999  5.1573529411764945 43.88939999999999  C 6.045 39.0006  6.8797058823529635 34.0983  7.827352941176503 29.221199999999993  C 8.836764705882391 24.02459999999999  9.824117647058838 18.823499999999992  10.856470588235322 13.631399999999987  C 11.336470588235304 11.2176  11.827058823529459 8.804699999999988  12.347647058823554 6.399899999999991  C 12.765000000000036 4.472099999999995  13.07823529411765 2.318399999999994  13.877647058823538 0.505799999999985  C 14.039117647058823 0.13949999999997545  14.167941176470602 -0.19710000000002026  14.411470588235318 0.23669999999997912  C 14.635588235294158 0.6362999999999687  14.568529411764729 1.4156999999999813  14.586176470588242 1.8350999999999884  C 14.632058823529434 2.9456999999999964  14.613529411764716 4.057199999999983  14.593235294117637 5.167799999999992  C 14.50235294117645 10.133999999999991  14.12735294117644 15.092099999999979  13.788529411764713 20.045699999999997  C 13.470882352941175 24.693299999999983  13.030588235294143 29.332799999999988  12.548823529411798 33.96600000000001  C 12.024705882352979 39.01500000000002  11.365588235294144 44.04420000000001  10.719705882352994 49.07880000000004  C 10.075588235294152 54.09810000000004  9.28323529411771 59.09940000000005  8.557058823529445 64.10700000000001  C 8.460882352941226 64.77300000000002  8.363823529411803 65.43990000000001  8.267647058823584 66.10590000000002  " stroke-width="1" stroke="#ffffff" fill="none" transform="matrix(1 0 0 1 703 17734 )" />
  </g>
</svg>