<?xml version="1.0" encoding="utf-8"?>
<svg version="1.1" xmlns:xlink="http://www.w3.org/1999/xlink" width="24px" height="74px" xmlns="http://www.w3.org/2000/svg">
  <g transform="matrix(1 0 0 1 -401 -10987 )">
    <path d="M 0.28273170731708386 70.2751870503597  C 0.8953170731707559 67.6313309352518  1.5073902439024598 64.98747482014387  2.1199756097561027 62.343618705035965  C 2.6275609756097538 60.15283453237411  3.1459024390243884 57.96715827338129  3.6847317073170816 55.78403597122301  C 4.314219512195123 53.23314388489208  4.96521951219513 50.688381294964024  5.619804878048799 48.14361870503596  C 6.22112195121952 45.80674820143884  6.852146341463437 43.47805035971221  7.47651219512197 41.14730935251798  C 8.034804878048787 39.06225899280575  8.60129268292686 36.98078417266186  9.183658536585398 34.90237410071942  C 9.83721951219516 32.57061151079136  10.46312195121954 30.22914388489208  11.151000000000037 27.907086330935247  C 11.99509756097566 25.05687050359711  12.838682926829312 22.20665467625899  13.682780487804907 19.355928057553953  C 14.30202439024393 17.26474820143885  14.973000000000033 15.18735971223021  15.650121951219544 13.114057553956831  C 16.41687804878053 10.76697122302158  17.18517073170736 8.419884892086328  18.039000000000026 6.102424460431649  C 18.47231707317076 4.926071942446039  18.90717073170734 3.750741007194239  19.393243902439053 2.5943093525179823  C 19.676487804878075 1.9205755395683406  19.944365853658578 1.0665323741007162  20.44580487804881 0.5118129496402855  C 20.57948780487809 0.36368345323740453  20.659902439024425 0.28399999999999864  20.78334146341466 0.4546043165467629  C 20.867853658536625 0.5715755395683452  20.843268292682964 0.829014388489211  20.846341463414657 0.9577338129496402  C 20.85658536585367 1.4256187050359697  20.806902439024412 1.8960575539568363  20.75670731707319 2.360366906474818  C 20.50419512195124 4.699280575539563  20.045780487804908 7.023892086330931  19.579170731707347 9.328071942446044  C 19.20270731707319 11.186841726618702  18.802682926829288 13.041525179856114  18.37039024390246 14.888035971223024  C 17.684560975609777 17.818956834532376  16.998219512195156 20.75038848920864  16.312390243902474 23.681309352517985  C 15.57841463414638 26.817057553956836  14.844439024390287 29.952805755395676  14.110463414634193 33.08906474820144  C 13.678170731707366 34.93659712230215  13.263804878048818 36.78770503597123  12.858658536585406 38.64136690647482  C 12.328536585365878 41.06711510791367  11.83682926829272 43.50052517985612  11.347170731707344 45.93495683453237  C 10.903609756097596 48.14004316546763  10.4877073170732 50.351258992805754  10.089731707317108 52.56502877697841  C 9.623634146341486 55.157294964028765  9.164707317073216 57.75109352517985  8.736512195121989 60.34999999999999  C 8.304731707317101 62.970359712230206  7.914951219512241 65.59838129496403  7.504682926829319 68.22180575539566  C 7.360243902439085 69.14582733812948  7.215804878048821 70.0698489208633  7.071365853658586 70.99438129496401  " stroke-width="2" stroke="#ffffff" fill="none" transform="matrix(1 0 0 1 402 10988 )" />
  </g>
</svg>