<?xml version="1.0" encoding="utf-8"?>
<svg version="1.1" xmlns:xlink="http://www.w3.org/1999/xlink" width="15px" height="36px" xmlns="http://www.w3.org/2000/svg">
  <g transform="matrix(1 0 0 1 -409 -11052 )">
    <path d="M 0.43250000000000455 32.62735384615386  C 1.686000000000007 28.533830769230786  2.9279999999999973 24.437769230769224  4.233499999999992 20.36100000000001  C 5.4495000000000005 16.563461538461553  6.731999999999999 12.784707692307702  8.090499999999992 9.036923076923083  C 8.817999999999984 7.030015384615389  9.554000000000002 5.024123076923085  10.358000000000004 3.0471692307692355  C 10.456000000000017 2.8060153846153923  11.4495 0.20307692307692596  11.724000000000018 0.3721384615384636  C 11.83250000000001 0.4391538461538508  11.731500000000011 0.9326307692307781  11.722500000000025 1.010307692307697  C 11.632000000000033 1.8134769230769243  11.467000000000013 2.6095384615384694  11.314500000000038 3.402553846153845  C 10.878500000000031 5.672446153846155  10.44900000000004 7.9433538461538395  9.989000000000033 10.208676923076924  C 9.175500000000028 14.214876923076922  8.263500000000022 18.20635384615384  7.106000000000023 22.125738461538468  C 6.975000000000023 22.56895384615385  6.835500000000025 23.009123076923093  6.699000000000012 23.4508153846154  " stroke-width="2" stroke="#ffffff" fill="none" transform="matrix(1 0 0 1 410 11053 )" />
  </g>
</svg>