<?xml version="1.0" encoding="utf-8"?>
<svg version="1.1" xmlns:xlink="http://www.w3.org/1999/xlink" width="30px" height="83px" xmlns="http://www.w3.org/2000/svg">
  <g transform="matrix(1 0 0 1 -406 -10997 )">
    <path d="M 0.11105660377359394 73.64556962025316  C 0.7529433962264195 71.14683544303797  1.3815849056604008 68.64506329113924  2.0606603773584986 66.15594936708861  C 2.8553773584905753 63.24303797468353  3.6709811320754806 60.33873417721519  4.506452830188682 57.43696202531645  C 5.218132075471695 54.965569620253156  5.958339622641523 52.50075949367088  6.71943396226415 50.044050632911386  C 7.4871509433962276 47.566075949367075  8.263018867924513 45.087088607594936  9.079641509433952 42.62430379746835  C 9.943132075471684 40.01974683544304  10.814264150943373 37.41822784810126  11.733283018867915 34.83189873417722  C 12.638037735849053 32.285063291139245  13.558075471698102 29.74379746835443  14.522943396226406 27.21873417721519  C 15.483226415094327 24.704303797468352  16.453188679245265 22.193417721518983  17.471547169811316 19.70126582278481  C 18.529641509433958 17.112911392405064  19.59741509433962 14.52911392405063  20.709509433962257 11.96354430379747  C 21.816000000000006 9.410632911392405  22.941339622641518 6.865822784810128  24.150735849056595 4.358987341772149  C 24.339735849056584 3.9670886075949334  26.202226415094323 -0.0805063291139271  26.709622641509437 0.25974683544303345  C 26.983698113207556 0.44354430379746357  26.735603773584902 1.4278481012658193  26.70401886792452 1.6389873417721492  C 26.522150943396205 2.8663291139240514  26.22616981132075 4.0805063291139225  25.927641509433954 5.284050632911389  C 25.320905660377363 7.732151898734171  24.632660377358494 10.163037974683537  23.90824528301886 12.578734177215185  C 23.20064150943395 14.939240506329112  22.465018867924506 17.291645569620243  21.743150943396216 19.648101265822774  C 20.602018867924514 23.374683544303792  19.46037735849056 27.1012658227848  18.31924528301886 30.828354430379733  C 17.772113207547154 32.614177215189855  17.216830188679243 34.397468354430366  16.696188679245285 36.19088607594935  C 15.850018867924529 39.108354430379734  15.019641509433965 42.02886075949366  14.199962264150955 44.95392405063289  C 13.470962264150964 47.55544303797467  12.792905660377372 50.17164556962024  12.094471698113228 52.78126582278479  C 11.52135849056606 54.92202531645568  10.948754716981142 57.0612658227848  10.40264150943397 59.20860759493668  C 9.612509433962279 62.31544303797466  8.809132075471712 65.41873417721516  8.032754716981147 68.52911392405062  C 7.331264150943406 71.3392405063291  6.660849056603797 74.15746835443036  5.9751509433962475 76.97164556962024  C 5.729603773584913 77.97873417721517  5.484056603773607 78.98632911392404  5.238509433962272 79.99341772151897  " stroke-width="2" stroke="#ffffff" fill="none" transform="matrix(1 0 0 1 407 10998 )" />
  </g>
</svg>