<?xml version="1.0" encoding="utf-8"?>
<svg version="1.1" xmlns:xlink="http://www.w3.org/1999/xlink" width="38px" height="125px" xmlns="http://www.w3.org/2000/svg">
  <g transform="matrix(1 0 0 1 -705 -17628 )">
    <path d="M 0.4981463414634335 122.73412949640287  C 1.577463414634189 118.11669064748202  2.6558780487805245 113.49925179856113  3.7351951219512283 108.88181294964028  C 4.629512195121947 105.055654676259  5.542780487804874 101.23841726618703  6.49214634146343 97.42564028776977  C 7.601243902439026 92.97056115107912  8.74824390243904 88.52618705035971  9.90156097560979 84.08181294964027  C 10.961024390243916 80.00051798561151  12.072829268292722 75.93349640287768  13.172902439024423 71.86290647482012  C 14.156560975609766 68.22141007194243  15.154658536585423 64.58615827338127  16.18073170731713 60.95625899280574  C 17.332243902439092 56.883884892086314  18.435024390243953 52.79456115107912  19.647000000000066 48.73913669064747  C 21.13421951219521 43.76129496402876  22.620536585365933 38.783453237410065  24.107756097561026 33.80471942446043  C 25.198804878048833 30.15251798561151  26.381000000000057 26.52440287769783  27.57402439024396 22.90342446043165  C 28.924975609756167 18.804287769784167  30.278634146341535 14.705151079136686  31.783000000000044 10.657755395683443  C 32.5464634146342 8.60328057553956  33.3126341463415 6.550589928057544  34.169048780487856 4.530906474820138  C 34.66809756097566 3.3542446043165386  35.14007317073178 1.8626762589928  36.02356097560981 0.8938705035971182  C 36.25909756097569 0.6351654676258895  36.40078048780494 0.49599999999999766  36.61826829268298 0.7939568345323746  C 36.76717073170739 0.9982446043165465  36.72385365853665 1.447856115107918  36.72926829268297 1.672661870503597  C 36.747317073170755 2.489812949640285  36.659780487804916 3.3114244604316574  36.57134146341467 4.122330935251795  C 36.12643902439028 8.207194244604306  35.31875609756103 12.26707913669064  34.49663414634151 16.29128057553957  C 33.83334146341467 19.537582733812943  33.128536585365886 22.77674820143885  32.36687804878053 26.00164028776979  C 31.15851219512199 31.120431654676263  29.949243902439086 36.240115107913674  28.74087804878055 41.358906474820145  C 27.447682926829337 46.83542446043166  26.154487804878126 52.311942446043155  24.861292682926912 57.78935251798561  C 24.09963414634155 61.01602877697841  23.369560975609822 64.24894964028779  22.65573170731714 67.4863309352518  C 21.721707317073214 71.72284892086331  20.8553658536586 75.97274820143886  19.99263414634151 80.22443165467625  C 19.211121951219575 84.07556834532375  18.478341463414687 87.93741007194244  17.777146341463478 91.80371223021581  C 16.955926829268332 96.33105035971221  16.147341463414712 100.86106474820143  15.392902439024457 105.39999999999998  C 14.632146341463464 109.97640287769782  13.94539024390252 114.5661870503597  13.222536585365944 119.14794244604315  C 12.96804878048791 120.76172661870501  12.713560975609827 122.37551079136688  12.459073170731795 123.9901870503597  " stroke-width="1" stroke="#ffffff" fill="none" transform="matrix(1 0 0 1 705 17628 )" />
  </g>
</svg>