<?xml version="1.0" encoding="utf-8"?>
<svg version="1.1" xmlns:xlink="http://www.w3.org/1999/xlink" width="12px" height="16px" xmlns="http://www.w3.org/2000/svg">
  <g transform="matrix(1 0 0 1 -415 -11121 )">
    <path d="M 8.6749411764706 0.16015999999999622  C 7.52029411764708 4.167799999999993  6.36564705882353 8.174920000000002  5.211000000000009 12.182559999999999  C 5.193000000000014 12.245479999999988  5.152764705882356 12.543959999999995  5.0945294117647 12.577759999999994  C 4.960058823529397 12.654720000000006  4.206705882352925 12.330759999999982  4.061117647058819 12.290719999999983  C 2.8180588235294004 11.94543999999999  1.5755294117647054 11.59963999999998  0.3324705882352867 11.254359999999986  C 0.12176470588233249 11.195599999999985  0.03970588235293516 11.229919999999971  0.015352941176468661 11.07495999999997  C -0.017470588235302304 10.867479999999972  0.19217647058823506 10.46083999999998  0.2493529411764725 10.262719999999966  C 0.580235294117649 9.114039999999964  0.9111176470588255 7.965359999999961  1.2425294117646954 6.8161599999999725  C 1.8783529411764717 4.609279999999958  2.5141764705882177 2.401879999999985  3.1505294117646874 0.19499999999997045  " stroke-width="2" stroke="#ffffff" fill="none" transform="matrix(1 0 0 1 416 11122 )" />
  </g>
</svg>