<?xml version="1.0" encoding="utf-8"?>
<svg version="1.1" xmlns:xlink="http://www.w3.org/1999/xlink" width="27px" height="120px" xmlns="http://www.w3.org/2000/svg">
  <g transform="matrix(1 0 0 1 -691 -17616 )">
    <path d="M 0.6517931034482539 118.29136842105262  C 1.1780689655172096 114.2561052631579  1.676551724137884 110.21547368421051  2.2315172413792888 106.18468421052631  C 2.7927586206896127 102.10736842105264  3.390758620689639 98.03273684210527  4.004896551724125 93.96347368421053  C 4.585862068965525 90.1152105263158  5.223310344827555 86.275  5.8329655172413535 82.43210526315788  C 6.436344827586183 78.62947368421052  7.019103448275819 74.82415789473686  7.643103448275842 71.0251052631579  C 8.326275862068947 66.8636842105263  9.040827586206898 62.70852631578949  9.793931034482739 58.558736842105276  C 10.521034482758582 54.551210526315785  11.301034482758586 50.556210526315795  12.136620689655151 46.570157894736845  C 12.867310344827565 43.08336842105263  13.638344827586195 39.59747368421053  14.470344827586194 36.133052631578956  C 15.431448275862058 32.13178947368423  16.357586206896556 28.118894736842122  17.3751724137931 24.13105263157896  C 18.388275862068955 20.161105263157907  19.389724137931044 16.187578947368433  20.491586206896546 12.240894736842115  C 21.5253103448276 8.539368421052641  22.417379310344845 4.629368421052638  24.02579310344828 1.1246842105263202  C 24.17462068965517 0.7998947368421101  24.558344827586204 -0.26931578947368595  24.960896551724147 0.2514210526315842  C 25.136620689655203 0.4786842105263254  25.10434482758624 1.0191052631579038  25.119586206896578 1.2848421052631642  C 25.164413793103485 2.092789473684222  25.13034482758623 2.9061052631578987  25.093586206896582 3.713157894736847  C 24.923241379310376 7.46836842105264  24.504551724137976 11.225368421052638  24.067034482758668 14.957315789473695  C 23.772965517241445 17.467052631578962  23.473517241379376 19.974105263157906  23.14179310344834 22.47936842105264  C 22.573379310344876 26.776789473684214  22.0040689655173 31.07421052631579  21.435655172413835 35.37073684210527  C 20.663724137931087 41.205315789473694  19.890896551724172 47.03900000000001  19.11896551724142 52.87357894736844  C 18.412482758620722 58.20889473684212  17.70600000000002 63.5442105263158  17.00041379310349 68.8795263157895  C 16.64179310344834 71.58700000000003  16.267931034482793 74.29357894736845  15.925448275862099 77.0028421052632  C 15.496896551724161 80.39657894736847  15.126620689655187 83.801052631579  14.758137931034495 87.20194736842109  C 14.37172413793106 90.76836842105266  13.987103448275862 94.33836842105266  13.66524137931036 97.91105263157897  C 13.20710344827586 102.99852631578952  12.748965517241404 108.08689473684213  12.290827586206898 113.17436842105266  C 12.167103448275887 114.54600000000002  12.04337931034482 115.91763157894741  11.920551724137924 117.28926315789475  " stroke-width="1" stroke="#ffffff" fill="none" transform="matrix(1 0 0 1 691 17616 )" />
  </g>
</svg>