<?xml version="1.0" encoding="utf-8"?>
<svg version="1.1" xmlns:xlink="http://www.w3.org/1999/xlink" width="17px" height="16px" xmlns="http://www.w3.org/2000/svg">
  <defs>
    <mask fill="white" id="clip392">
      <path d="M 16.24215789473686 9.741333333333337  C 16.295842105263176 9.390222222222242  16.323578947368446 7.4791111111110995  16.323578947368446 7.123555555555565  C 16.320894736842142 4.197333333333366  14.423157894736846 1.5155555555555413  11.64947368421056 0.5288888888889132  C 8.87668421052636 -0.45688888888884727  4.12742105263163 0.41688888888893416  2.25921052631582 2.678222222222252  C 0.3901052631579265 4.93955555555557  0.14673684210530263 9.767111111111161  1.6597368421052794 12.277333333333344  C 3.172736842105256 14.787555555555578  7.757368421052646 16.119111111111124  10.645578947368444 15.54933333333333  C 13.523052631578976 14.982222222222239  15.797473684210532 12.622222222222213  16.24215789473686 9.741333333333337  Z " fill-rule="evenodd" />
    </mask>
  </defs>
  <g transform="matrix(1 0 0 1 -700 -17870 )">
    <path d="M 16.24215789473686 9.741333333333337  C 16.295842105263176 9.390222222222242  16.323578947368446 7.4791111111110995  16.323578947368446 7.123555555555565  C 16.320894736842142 4.197333333333366  14.423157894736846 1.5155555555555413  11.64947368421056 0.5288888888889132  C 8.87668421052636 -0.45688888888884727  4.12742105263163 0.41688888888893416  2.25921052631582 2.678222222222252  C 0.3901052631579265 4.93955555555557  0.14673684210530263 9.767111111111161  1.6597368421052794 12.277333333333344  C 3.172736842105256 14.787555555555578  7.757368421052646 16.119111111111124  10.645578947368444 15.54933333333333  C 13.523052631578976 14.982222222222239  15.797473684210532 12.622222222222213  16.24215789473686 9.741333333333337  Z " fill-rule="nonzero" fill="#ffffff" stroke="none" fill-opacity="0" transform="matrix(1 0 0 1 700 17870 )" />
    <path d="M 16.24215789473686 9.741333333333337  C 16.295842105263176 9.390222222222242  16.323578947368446 7.4791111111110995  16.323578947368446 7.123555555555565  C 16.320894736842142 4.197333333333366  14.423157894736846 1.5155555555555413  11.64947368421056 0.5288888888889132  C 8.87668421052636 -0.45688888888884727  4.12742105263163 0.41688888888893416  2.25921052631582 2.678222222222252  C 0.3901052631579265 4.93955555555557  0.14673684210530263 9.767111111111161  1.6597368421052794 12.277333333333344  C 3.172736842105256 14.787555555555578  7.757368421052646 16.119111111111124  10.645578947368444 15.54933333333333  C 13.523052631578976 14.982222222222239  15.797473684210532 12.622222222222213  16.24215789473686 9.741333333333337  Z " stroke-width="2" stroke="#ffffff" fill="none" transform="matrix(1 0 0 1 700 17870 )" mask="url(#clip392)" />
  </g>
</svg>