<?xml version="1.0" encoding="utf-8"?>
<svg version="1.1" xmlns:xlink="http://www.w3.org/1999/xlink" width="18px" height="71px" xmlns="http://www.w3.org/2000/svg">
  <g transform="matrix(1 0 0 1 -392 -10980 )">
    <path d="M 0.376034482758608 67.59506766917293  C 0.6796551724137747 65.28920300751881  0.9672413793103177 62.980270676691724  1.2874137931034357 60.676962406015036  C 1.6112068965516995 58.34706766917294  1.956206896551715 56.0187067669173  2.3105172413793027 53.69341353383459  C 2.6456896551724185 51.4944060150376  3.013448275862051 49.300000000000004  3.3651724137930885 47.104060150375936  C 3.7132758620689517 44.93112781954887  4.049482758620664 42.75666165413534  4.409482758620678 40.585774436090226  C 4.803620689655161 38.20781954887217  5.215862068965518 35.83344360902257  5.650344827586196 33.46213533834587  C 6.069827586206874 31.172120300751878  6.519827586206876 28.88926315789474  7.001896551724126 26.611518796992485  C 7.423448275862056 24.61906766917293  7.868275862068959 22.627127819548875  8.348275862068958 20.647458646616546  C 8.90275862068965 18.361022556390985  9.437068965517243 16.06793984962407  10.024137931034481 13.789172932330834  C 10.608620689655167 11.520631578947375  11.186379310344833 9.250045112781962  11.82206896551724 6.994796992481208  C 12.418448275862076 4.879639097744366  12.933103448275872 2.64535338345865  13.861034482758622 0.6426766917293258  C 13.946896551724137 0.4570827067669201  14.168275862068963 -0.15389473684210625  14.400517241379315 0.14366917293233383  C 14.501896551724156 0.2735338345864717  14.483275862068984 0.5823458646616593  14.492068965517257 0.7341954887218081  C 14.51793103448278 1.1958796992481269  14.49827586206898 1.660631578947371  14.477068965517258 2.1218045112781985  C 14.378793103448293 4.2676390977443655  14.137241379310371 6.414496240601507  13.884827586206924 8.547037593984967  C 13.715172413793143 9.981172932330836  13.542413793103487 11.413774436090232  13.351034482758656 12.845353383458653  C 13.02310344827589 15.30102255639098  12.694655172413826 17.75669172932331  12.366724137931058 20.211849624060157  C 11.921379310344857 23.54589473684211  11.475517241379329 26.879428571428576  11.030172413793126 30.213473684210538  C 10.622586206896571 33.26222556390978  10.215000000000012 36.310977443609026  9.807931034482781 39.35972932330829  C 9.601034482758656 40.90685714285716  9.385344827586227 42.453473684210536  9.187758620689673 44.0016240601504  C 8.940517241379323 45.94090225563912  8.726896551724145 47.88631578947371  8.514310344827592 49.82968421052634  C 8.291379310344842 51.86763909774438  8.06948275862069 53.90763909774438  7.883793103448285 55.949172932330846  C 7.619482758620688 58.85630075187972  7.355172413793118 61.76393984962407  7.090862068965518 64.67106766917296  C 7.019482758620704 65.45485714285715  6.948103448275858 66.23864661654137  6.877241379310341 67.02243609022557  " stroke-width="2" stroke="#ffffff" fill="none" transform="matrix(1 0 0 1 393 10981 )" />
  </g>
</svg>