<?xml version="1.0" encoding="utf-8"?>
<svg version="1.1" xmlns:xlink="http://www.w3.org/1999/xlink" width="16px" height="23px" xmlns="http://www.w3.org/2000/svg">
  <g transform="matrix(1 0 0 1 -731 -17864 )">
    <path d="M 14.458235294117667 0.2710399999999936  C 12.533823529411801 7.053199999999988  10.609411764705882 13.834480000000005  8.685000000000016 20.616639999999997  C 8.655000000000022 20.72311999999998  8.587941176470594 21.228239999999992  8.490882352941167 21.285439999999987  C 8.266764705882327 21.415680000000012  7.011176470588209 20.86743999999997  6.7685294117647 20.799679999999974  C 4.696764705882334 20.215359999999983  2.6258823529411757 19.630159999999965  0.5541176470588112 19.045839999999977  C 0.20294117647055415 18.946399999999976  0.06617647058822526 19.00447999999995  0.025588235294114435 18.742239999999953  C -0.029117647058837175 18.39111999999995  0.3202941176470584 17.70295999999997  0.4155882352941208 17.367679999999943  C 0.9670588235294151 15.423759999999938  1.518529411764709 13.479839999999935  2.070882352941159 11.535039999999954  C 3.1305882352941197 7.800319999999929  4.19029411764703 4.064719999999975  5.2508823529411455 0.32999999999995  " stroke-width="1" stroke="#ffffff" fill="none" transform="matrix(1 0 0 1 731 17864 )" />
  </g>
</svg>