<?xml version="1.0" encoding="utf-8"?>
<svg version="1.1" xmlns:xlink="http://www.w3.org/1999/xlink" width="10px" height="9px" xmlns="http://www.w3.org/2000/svg">
  <defs>
    <mask fill="white" id="clip280">
      <path d="M 9.5542105263158 5.479500000000002  C 9.585789473684223 5.282000000000011  9.60210526315791 4.206999999999994  9.60210526315791 4.007000000000005  C 9.600526315789496 2.3610000000000184  8.484210526315792 0.852499999999992  6.852631578947389 0.29750000000001364  C 5.221578947368447 -0.2569999999999766  2.427894736842135 0.23450000000002547  1.3289473684210706 1.5065000000000168  C 0.22947368421054498 2.778500000000008  0.08631578947370744 5.494000000000028  0.9763157894736938 6.906000000000006  C 1.8663157894736802 8.318000000000012  4.56315789473685 9.067000000000007  6.262105263157908 8.746499999999997  C 7.95473684210528 8.427500000000009  9.292631578947372 7.099999999999994  9.5542105263158 5.479500000000002  Z " fill-rule="evenodd" />
    </mask>
  </defs>
  <g transform="matrix(1 0 0 1 -398 -11125 )">
    <path d="M 9.5542105263158 5.479500000000002  C 9.585789473684223 5.282000000000011  9.60210526315791 4.206999999999994  9.60210526315791 4.007000000000005  C 9.600526315789496 2.3610000000000184  8.484210526315792 0.852499999999992  6.852631578947389 0.29750000000001364  C 5.221578947368447 -0.2569999999999766  2.427894736842135 0.23450000000002547  1.3289473684210706 1.5065000000000168  C 0.22947368421054498 2.778500000000008  0.08631578947370744 5.494000000000028  0.9763157894736938 6.906000000000006  C 1.8663157894736802 8.318000000000012  4.56315789473685 9.067000000000007  6.262105263157908 8.746499999999997  C 7.95473684210528 8.427500000000009  9.292631578947372 7.099999999999994  9.5542105263158 5.479500000000002  Z " fill-rule="nonzero" fill="#ffffff" stroke="none" fill-opacity="0" transform="matrix(1 0 0 1 398 11125 )" />
    <path d="M 9.5542105263158 5.479500000000002  C 9.585789473684223 5.282000000000011  9.60210526315791 4.206999999999994  9.60210526315791 4.007000000000005  C 9.600526315789496 2.3610000000000184  8.484210526315792 0.852499999999992  6.852631578947389 0.29750000000001364  C 5.221578947368447 -0.2569999999999766  2.427894736842135 0.23450000000002547  1.3289473684210706 1.5065000000000168  C 0.22947368421054498 2.778500000000008  0.08631578947370744 5.494000000000028  0.9763157894736938 6.906000000000006  C 1.8663157894736802 8.318000000000012  4.56315789473685 9.067000000000007  6.262105263157908 8.746499999999997  C 7.95473684210528 8.427500000000009  9.292631578947372 7.099999999999994  9.5542105263158 5.479500000000002  Z " stroke-width="4" stroke="#ffffff" fill="none" transform="matrix(1 0 0 1 398 11125 )" mask="url(#clip280)" />
  </g>
</svg>