<?xml version="1.0" encoding="utf-8"?>
<svg version="1.1" xmlns:xlink="http://www.w3.org/1999/xlink" width="22px" height="17px" xmlns="http://www.w3.org/2000/svg">
  <g transform="matrix(1 0 0 1 -741 -17828 )">
    <path d="M 10.683749999999982 0.34755555555557294  C 13.665749999999996 2.9715555555555713  16.857749999999967 5.7946666666666715  18.818625000000004 9.331555555555598  C 19.51425000000002 10.585777777777821  19.95000000000001 11.937777777777834  20.10137500000001 13.370666666666693  C 20.167 13.992000000000038  20.223875 14.726222222222228  19.955250000000035 15.308444444444477  C 19.70937500000003 15.84177777777783  19.256125000000054 16.032000000000053  18.726750000000038 15.789333333333364  C 17.723125000000046 15.328000000000024  16.98725000000004 13.943111111111143  16.36075000000003 13.128888888888923  C 15.091125000000012 11.478222222222232  13.80400000000001 9.85155555555558  12.332250000000045 8.379555555555575  C 9.401875000000054 5.4488888888888845  5.9316250000000466 3.0728888888888832  2.2478750000000645 1.2311111111111535  C 1.7657500000000752 0.9902222222222513  1.2783750000000609 0.7635555555555887  0.7883750000000589 0.5395555555555802  " stroke-width="1" stroke="#ffffff" fill="none" transform="matrix(1 0 0 1 741 17828 )" />
  </g>
</svg>