<?xml version="1.0" encoding="utf-8"?>
<svg version="1.1" xmlns:xlink="http://www.w3.org/1999/xlink" width="28px" height="65px" xmlns="http://www.w3.org/2000/svg">
  <g transform="matrix(1 0 0 1 -419 -11006 )">
    <path d="M 0.009999999999990905 54.91133333333334  C 1.470499999999987 51.04263414634146  2.9279999999999973 47.17242276422764  4.468999999999994 43.33547967479675  C 6.040999999999997 39.42141463414636  7.629500000000007 35.51440650406505  9.271500000000003 31.629073170731715  C 11.063000000000017 27.3898861788618  12.87299999999999 23.16078048780488  14.734000000000009 18.951837398373993  C 16.41550000000001 15.149170731707319  18.171999999999997 11.375235772357728  20.040999999999997 7.66229268292684  C 20.376000000000005 6.996926829268308  24.005499999999984 0.042845528455295726  24.48750000000001 0.42593495934960723  C 24.638000000000005 0.5453983739837509  24.42350000000002 1.1638861788618018  24.3955 1.2767967479674946  C 24.156000000000006 2.2556910569105804  23.81450000000001 3.2098861788618005  23.49199999999999 4.163073170731729  C 23.244999999999976 4.8929593495935215  22.990499999999997 5.619317073170758  22.73399999999998 6.345674796747995  C 21.40549999999999 10.111544715447183  20.07699999999997 13.87691056910572  18.74849999999998 17.642780487804906  C 16.707499999999982 23.42843902439028  14.666499999999985 29.214097560975635  12.624999999999972 35.00026016260166  C 10.655499999999961 40.58328455284556  8.685499999999962 46.166813008130106  6.715999999999981 51.74983739837402  C 5.601999999999975 54.907804878048815  4.487999999999971 58.06577235772362  3.373999999999967 61.22373983739842  C 3.32099999999997 61.37395121951224  3.2679999999999723 61.52416260162607  3.214999999999975 61.67386991869924  " stroke-width="2" stroke="#ffffff" fill="none" transform="matrix(1 0 0 1 420 11007 )" />
  </g>
</svg>