<?xml version="1.0" encoding="utf-8"?>
<svg version="1.1" xmlns:xlink="http://www.w3.org/1999/xlink" width="22px" height="31px" xmlns="http://www.w3.org/2000/svg">
  <g transform="matrix(1 0 0 1 -405 -11093 )">
    <path d="M 0.9212432432432344 20.234499999999997  C 1.7259189189189137 20.601499999999987  2.426351351351334 20.797499999999985  3.1077837837837654 20.150000000000006  C 3.6551891891891573 19.629999999999995  4.0326216216215975 18.936000000000007  4.38694594594592 18.285500000000013  C 5.046297297297267 17.074000000000012  5.615783783783744 15.815500000000014  6.224810810810789 14.580000000000013  C 7.38329729729726 12.229500000000002  8.649108108108088 9.930500000000023  9.844567567567536 7.598000000000014  C 10.21943243243241 6.866500000000002  10.744756756756717 6.044000000000011  10.852081081081042 5.216000000000008  C 10.93989189189185 4.537000000000006  10.544999999999954 3.903500000000008  10.355513513513483 3.2735000000000127  C 10.172702702702674 2.6640000000000157  10.205054054054019 2.1480000000000246  10.852594594594573 1.880500000000012  C 11.533513513513503 1.599000000000018  12.321756756756729 1.6825000000000045  13.035540540540508 1.5425000000000182  C 13.530567567567532 1.4455000000000098  13.90594594594591 1.2320000000000277  14.290054054054012 0.9150000000000205  C 14.54270270270267 0.707000000000022  14.798945945945896 0.45800000000002683  15.14967567567562 0.45150000000001  C 15.658054054054006 0.4420000000000073  16.240891891891838 0.8385000000000105  16.64964864864859 1.059500000000014  C 17.565756756756695 1.5545000000000186  17.286918918918854 2.0145000000000266  17.3192702702702 2.941500000000019  C 17.358810810810738 4.087500000000006  18.558378378378315 4.889500000000027  18.560432432432346 6.017000000000024  C 18.56197297297288 6.84050000000002  17.501567567567477 6.989500000000021  16.874054054053975 7.159500000000037  C 16.309189189189098 7.312500000000028  15.845486486486413 7.486000000000047  15.477297297297202 7.946500000000044  C 14.906270270270163 8.660000000000053  14.497513513513411 9.51350000000005  14.066675675675574 10.31200000000004  C 12.735135135135025 12.780500000000046  11.423621621621523 15.259000000000043  10.024810810810719 17.692000000000036  C 9.38394594594586 18.807000000000045  8.700972972972894 19.91100000000003  8.16691891891883 21.08000000000004  C 7.930189189189093 21.59850000000003  7.673432432432337 22.179500000000047  7.664189189189107 22.75950000000003  C 7.644675675675589 23.971000000000032  9.380351351351262 24.49950000000004  10.223027027026946 24.966000000000037  C 11.287540540540451 25.555000000000035  12.347432432432354 26.188000000000045  13.323621621621548 26.908500000000032  C 13.444297297297231 26.99750000000003  14.185810810810723 27.450500000000034  14.101081081081013 27.686500000000024  C 13.920324324324268 28.19100000000003  9.98064864864858 26.686000000000035  9.524135135135062 26.535500000000013  C 8.469891891891818 26.188000000000017  7.180972972972905 25.405  6.187837837837756 26.2115  C 5.254783783783698 26.96950000000001  4.797243243243148 27.974999999999994  3.4677567567566623 27.78649999999999  C 2.401189189189095 27.63549999999998  1.0788918918918038 26.994499999999988  0.6305945945945115 25.970499999999987  C 0.19924324324317297 24.984499999999997  1.142054054053961 23.869499999999988  0.7887567567566698 22.865499999999997  C 0.6804054054053119 22.557999999999993  0.40875675675666523 22.33699999999999  0.15508108108100427 22.141999999999996  " stroke-width="2" stroke="#ffffff" fill="none" transform="matrix(1 0 0 1 406 11094 )" />
  </g>
</svg>