<?xml version="1.0" encoding="utf-8"?>
<svg version="1.1" xmlns:xlink="http://www.w3.org/1999/xlink" width="37px" height="72px" xmlns="http://www.w3.org/2000/svg">
  <g transform="matrix(1 0 0 1 -419 -11020 )">
    <path d="M 0.21719402985074487 68.65246323529412  C 1.3163582089552208 66.2080367647059  2.4150149253731414 63.76361029411763  3.5141791044776176 61.31918382352941  C 4.193164179104495 59.80930147058823  4.86859701492537 58.2984044117647  5.5643283582089715 56.796132352941164  C 6.917223880597029 53.8737794117647  8.270626865671671 50.95142647058821  9.62352238805973 48.02907352941175  C 10.652149253731366 45.80788235294116  11.670119402985112 43.58161764705881  12.708895522388081 41.36499264705881  C 13.775074626865692 39.09002205882351  14.875253731343307 36.830272058823525  15.958686567164198 34.56291176470586  C 16.961940298507468 32.463485294117625  17.984477611940324 30.374205882352925  19.008029850746293 28.284926470588218  C 20.060507462686598 26.13679411764704  21.150029850746296 24.00641911764705  22.243104477611965 21.879088235294102  C 23.275283582089575 19.87047794117645  24.330805970149267 17.872014705882336  25.418298507462715 15.892830882352921  C 26.564656716417943 13.806595588235277  27.716089552238845 11.720867647058798  28.91776119402989 9.666088235294099  C 30.197074626865714 7.477874999999988  31.52358208955227 5.316551470588213  32.77955223880601 3.115147058823508  C 33.17588059701497 2.4205808823529202  33.75895522388065 1.5976544117646776  33.881761194029906 0.7869044117646853  C 33.90104477611946 0.6595588235293887  33.92794029850752 0.5027867647058606  33.80513432835826 0.41958088235292584  C 33.33826865671646 0.10451470588233287  32.19444776119409 1.2430147058823326  31.940716417910508 1.4703088235293953  C 30.309731343283644 2.9304705882352704  28.978149253731395 4.750345588235279  27.703402985074675 6.517963235294108  C 26.260179104477665 8.518963235294102  24.89662686567169 10.574757352941171  23.546268656716464 12.638669117647044  C 22.220268656716463 14.665544117647048  20.9308059701493 16.71677205882352  19.662656716417946 18.780176470588216  C 18.46656716417913 20.72688970588233  17.286716417910476 22.686794117647032  16.144925373134356 24.665470588235273  C 14.928029850746285 26.774536764705864  13.716208955223907 28.886647058823502  12.555134328358232 31.02716911764703  C 11.314388059701518 33.31431617647056  10.106119402985085 35.61566911764704  8.928298507462713 37.93579411764703  C 7.906776119403022 39.94846323529409  6.922298507462725 41.98396323529409  5.981970149253766 44.03569852941173  C 4.897522388059736 46.40249999999996  3.843014925373182 48.780463235294086  2.8143880597015176 51.17263235294114  C 2.382029850746306 52.17871323529409  1.96641791044779 53.19189705882349  1.5447164179104678 54.20254411764703  " stroke-width="2" stroke="#ffffff" fill="none" transform="matrix(1 0 0 1 420 11021 )" />
  </g>
</svg>