<?xml version="1.0" encoding="utf-8"?>
<svg version="1.1" xmlns:xlink="http://www.w3.org/1999/xlink" width="15px" height="12px" xmlns="http://www.w3.org/2000/svg">
  <g transform="matrix(1 0 0 1 -421 -11100 )">
    <path d="M 6.10499999999999 0.19550000000000978  C 7.8089999999999975 1.6715000000000089  9.632999999999981 3.2595000000000027  10.753500000000003 5.249000000000024  C 11.15100000000001 5.954500000000024  11.400000000000006 6.715000000000032  11.486500000000007 7.521000000000015  C 11.524000000000001 7.870500000000021  11.5565 8.283500000000004  11.40300000000002 8.611000000000018  C 11.262500000000017 8.91100000000003  11.003500000000031 9.018000000000029  10.701000000000022 8.881500000000017  C 10.127500000000026 8.622000000000014  9.707000000000022 7.843000000000018  9.349000000000018 7.385000000000019  C 8.623500000000007 6.4565000000000055  7.888000000000005 5.541500000000013  7.0470000000000255 4.7135000000000105  C 5.372500000000031 3.0649999999999977  3.3895000000000266 1.7284999999999968  1.2845000000000368 0.6925000000000239  C 1.009000000000043 0.5570000000000164  0.7305000000000348 0.42950000000001864  0.45050000000003365 0.30350000000001387  " stroke-width="2" stroke="#ffffff" fill="none" transform="matrix(1 0 0 1 422 11101 )" />
  </g>
</svg>