<?xml version="1.0" encoding="utf-8"?>
<svg version="1.1" xmlns:xlink="http://www.w3.org/1999/xlink" width="46px" height="111px" xmlns="http://www.w3.org/2000/svg">
  <g transform="matrix(1 0 0 1 -737 -17663 )">
    <path d="M 0.01799999999998363 97.42333333333333  C 2.646899999999977 90.55951219512194  5.270399999999995 83.6930081300813  8.04419999999999 76.88552845528456  C 10.873799999999994 69.94121951219515  13.733100000000013 63.009430894308956  16.688700000000004 56.116097560975625  C 19.91340000000003 48.594959349593516  23.17139999999998 41.09170731707318  26.521200000000015 33.62422764227644  C 29.547900000000013 26.877560975609757  32.709599999999995 20.181869918699192  36.0738 13.594390243902458  C 36.67680000000001 12.413902439024417  43.20989999999997 0.07601626016262145  44.07750000000002 0.7556910569105935  C 44.348400000000005 0.9676422764227839  43.962300000000035 2.0649593495935195  43.911899999999996 2.265284552845555  C 43.48080000000001 4.002032520325224  42.86610000000002 5.694959349593517  42.28559999999998 7.3860975609756485  C 41.84099999999996 8.68105691056915  41.38289999999999 9.969756097561023  40.92119999999996 11.258455284552895  C 38.52989999999998 17.939837398374035  36.13859999999995 24.620325203252083  33.74729999999996 31.301707317073223  C 30.073499999999964 41.56658536585372  26.399699999999974 51.83146341463419  22.72499999999995 62.097235772357784  C 19.17989999999993 72.00260162601631  15.633899999999933 81.90886178861793  12.088799999999965 91.81422764227649  C 10.083599999999956 97.41707317073177  8.078399999999949 103.01991869918706  6.0731999999999395 108.62276422764236  C 5.977799999999946 108.88926829268301  5.88239999999995 109.15577235772366  5.786999999999955 109.42138211382122  " stroke-width="1" stroke="#ffffff" fill="none" transform="matrix(1 0 0 1 737 17663 )" />
  </g>
</svg>