<?xml version="1.0" encoding="utf-8"?>
<svg version="1.1" xmlns:xlink="http://www.w3.org/1999/xlink" width="34px" height="51px" xmlns="http://www.w3.org/2000/svg">
  <g transform="matrix(1 0 0 1 -713 -17815 )">
    <path d="M 1.6000540540540387 36.13303571428571  C 2.9976486486486396 36.78839285714283  4.214189189189159 37.13839285714283  5.397729729729698 35.98214285714287  C 6.348486486486431 35.05357142857142  7.004027027026984 33.814285714285724  7.619432432432387 32.652678571428595  C 8.764621621621568 30.489285714285735  9.75372972972966 28.24196428571431  10.811513513513475 26.035714285714306  C 12.823621621621559 21.83839285714286  15.0221351351351 17.733035714285755  17.098459459459402 13.567857142857168  C 17.7495405405405 12.261607142857146  18.661945945945877 10.792857142857162  18.848351351351283 9.31428571428573  C 19.00086486486479 8.101785714285725  18.31499999999992 6.970535714285729  17.98589189189184 5.845535714285737  C 17.66837837837833 4.7571428571428855  17.724567567567508 3.83571428571433  18.849243243243205 3.3580357142857356  C 20.031891891891874 2.855357142857175  21.4009459459459 3.004464285714294  22.640675675675617 2.754464285714318  C 23.5004594594594 2.5812500000000176  24.15243243243237 2.2000000000000495  24.819567567567496 1.633928571428608  C 25.25837837837832 1.2625000000000395  25.703432432432344 0.8178571428571908  26.3125945945945 0.8062500000000179  C 27.195567567567483 0.7892857142857272  28.20786486486477 1.4973214285714473  28.91781081081071 1.891964285714311  C 30.50894594594584 2.7758928571428902  30.024648648648537 3.597321428571476  30.080837837837713 5.252678571428605  C 30.14951351351339 7.299107142857153  32.23297297297286 8.731250000000047  32.23654054054039 10.744642857142901  C 32.23921621621606 12.215178571428607  30.397459459459302 12.481250000000037  29.30756756756743 12.784821428571494  C 28.326486486486324 13.058035714285765  27.52110810810798 13.367857142857225  26.881621621621456 14.19017857142865  C 25.889837837837653 15.464285714285811  25.179891891891714 16.988392857142948  24.43159459459442 18.414285714285786  C 22.118918918918727 22.82232142857151  19.841027027026858 27.24821428571436  17.411513513513352 31.592857142857206  C 16.298432432432282 33.58392857142865  15.11221621621608 35.5553571428572  14.184648648648494 37.64285714285722  C 13.77348648648632 38.56875000000005  13.327540540540374 39.60625000000008  13.311486486486345 40.641964285714344  C 13.277594594594444 42.8053571428572  16.292189189189035 43.74910714285721  17.755783783783645 44.58214285714292  C 19.60467567567552 45.63392857142863  21.445540540540403 46.7642857142858  23.1410270270269 48.05089285714291  C 23.350621621621507 48.20982142857148  24.638513513513363 49.01875000000006  24.491351351351234 49.44017857142861  C 24.177405405405306 50.34107142857148  17.33481081081069 47.65357142857149  16.54191891891879 47.38482142857145  C 14.710864864864737 46.76428571428574  12.472216216216097 45.36607142857143  10.747297297297155 46.80625  C 9.12672972972958 48.15982142857145  8.332054054053888 49.95535714285713  6.022945945945781 49.618749999999984  C 4.170486486486324 49.34910714285711  1.873864864864712 48.204464285714266  1.095243243243099 46.37589285714284  C 0.34605405405393197 44.615178571428565  1.983567567567406 42.62410714285712  1.369945945945795 40.83125  C 1.1817567567565945 40.282142857142844  0.709945945945787 39.88749999999998  0.2693513513512179 39.539285714285704  " stroke-width="1" stroke="#ffffff" fill="none" transform="matrix(1 0 0 1 713 17815 )" />
  </g>
</svg>