<?xml version="1.0" encoding="utf-8"?>
<svg version="1.1" xmlns:xlink="http://www.w3.org/1999/xlink" width="61px" height="123px" xmlns="http://www.w3.org/2000/svg">
  <g transform="matrix(1 0 0 1 -738 -17686 )">
    <path d="M 0.3832835820895498 121.38551470588236  C 2.3229850746268603 117.06348529411765  4.261791044776133 112.74145588235292  6.201492537313443 108.41942647058822  C 7.399701492537344 105.74977941176469  8.59164179104477 103.0783382352941  9.819402985074657 100.4221470588235  C 12.206865671641816 95.25508823529411  14.595223880597068 90.08802941176467  16.98268656716423 84.92097058823526  C 18.797910447761232 80.99364705882348  20.59432835820902 77.05735294117646  22.4274626865672 73.13810294117644  C 24.30895522388063 69.11569117647055  26.250447761194067 65.12019117647057  28.162388059701524 61.11123529411761  C 29.932835820895534 57.39920588235291  31.73731343283587 53.7051176470588  33.54358208955228 50.011029411764675  C 35.40089552238812 46.21288235294114  37.32358208955228 42.44613235294116  39.25253731343288 38.68476470588232  C 41.07402985074631 35.133308823529376  42.93671641791047 31.59979411764703  44.85582089552244 28.10036764705879  C 46.878805970149315 24.41166176470585  48.91074626865679 20.723852941176425  51.03134328358215 17.090764705882318  C 53.28895522388068 13.221749999999977  55.629850746268716 9.400279411764666  57.84626865671649 5.507941176470551  C 58.545671641791124 4.279867647058786  59.574626865671725 2.8248382352940675  59.791343283582194 1.391338235294081  C 59.825373134328466 1.1661764705881945  59.87283582089563 0.8889852941176085  59.65611940298516 0.7418676470587965  C 58.83223880597022 0.18479411764702333  56.81373134328369 2.1977941176470233  56.36597014925384 2.5996764705882063  C 53.48776119402996 5.181411764705841  51.137910447761286 8.399161764705857  48.88835820895531 11.524514705882336  C 46.34149253731353 15.062514705882325  43.9352238805971 18.697397058823523  41.552238805970234 22.346632352941153  C 39.21223880597023 25.930382352941155  36.93671641791053 29.55719117647057  34.698805970149316 33.20552941176467  C 32.588059701492575 36.647544117647016  30.505970149253784 40.112882352941135  28.491044776119452 43.61141176470585  C 26.343582089552264 47.34048529411762  24.20507462686572 51.074941176470546  22.156119402985112 54.85963235294113  C 19.966567164179146 58.90357352941172  17.834328358208975 62.97263235294114  15.755820895522435 67.07488235294112  C 13.953134328358276 70.6335147058823  12.215820895522457 74.23251470588231  10.556417910447822 77.86022058823524  C 8.64268656716424 82.04499999999993  6.781791044776202 86.2495147058823  4.966567164179148 90.47914705882347  C 4.203582089552305 92.2580147058823  3.4701492537313943 94.04944117647052  2.725970149253767 95.83638235294113  " stroke-width="1" stroke="#ffffff" fill="none" transform="matrix(1 0 0 1 738 17686 )" />
  </g>
</svg>