<?xml version="1.0" encoding="utf-8"?>
<svg version="1.1" xmlns:xlink="http://www.w3.org/1999/xlink" width="33px" height="62px" xmlns="http://www.w3.org/2000/svg">
  <g transform="matrix(1 0 0 1 -758 -17774 )">
    <path d="M 0.13155555555557738 60.266205882352956  C 4.2168888888889136 53.651294117647055  8.29333333333337 47.03727941176471  12.288000000000011 40.366750000000025  C 16.023999999999987 34.12860294117648  19.583111111111116 27.77294117647062  22.968888888888916 21.334750000000014  C 24.654222222222263 18.13045588235295  26.259555555555583 14.876823529411768  27.74577777777783 11.57385294117651  C 29.094222222222268 8.576779411764736  30.53511111111114 5.420926470588266  31.14400000000003 2.1663970588235735  C 31.207111111111164 1.8308970588235776  31.55822222222226 0.5418235294118022  31.011555555555585 0.3130735294118063  C 30.21422222222226 -0.020632352941147507  28.613333333333383 2.201382352941209  28.282666666666703 2.5727647058823995  C 23.504888888888924 7.926411764705919  18.808000000000042 13.554558823529476  14.877333333333354 19.577411764705943  C 14.406222222222267 20.299544117647127  13.952000000000023 21.031544117647105  13.505777777777793 21.76892647058828  " stroke-width="1" stroke="#ffffff" fill="none" transform="matrix(1 0 0 1 758 17774 )" />
  </g>
</svg>