<?xml version="1.0" encoding="utf-8"?>
<svg version="1.1" xmlns:xlink="http://www.w3.org/1999/xlink" width="80px" height="8px" preserveAspectRatio="xMinYMid meet" viewBox="728 17801  80 6" xmlns="http://www.w3.org/2000/svg">
  <g transform="matrix(0.5877852522925088 0.8090169943748257 -0.8090169943748713 0.5877852522923496 14720.31949408956 6717.7463165071385 )">
    <path d="M 0.1995189873417542 78.4245568181818  C 4.480189873417682 73.47897727272724  8.761759493670857 68.53249999999997  13.042430379746834 63.586920454545414  C 16.459417721519007 59.638715909090855  19.967177215189857 55.75245454545453  23.288898734177227 51.72345454545454  C 28.14835443037974 45.830772727272695  33.006911392405065 39.93809090909091  37.86636708860763 34.04540909090907  C 41.55656962025319 29.570238636363605  45.22160759493677 25.078011363636364  48.998088607594944 20.675556818181775  C 52.88062025316461 16.149215909090888  56.96806329113929 11.781772727272697  61.24963291139236 7.630681818181768  C 63.338291139240425 5.606306818181771  65.46739240506324 3.5711590909090476  67.80050632911387 1.8259772727272143  C 68.10158227848099 1.6006477272726645  69.83613924050626 0.10593181818176267  70.36549367088607 0.6634204545454073  C 70.91012658227845 1.2370681818181435  69.64021518987339 3.257852272727213  69.4281139240506 3.6690113636363284  C 68.04855696202533 6.346931818181786  66.36343037974684 8.865056818181793  64.70706329113918 11.376897727272679  C 61.45544303797458 16.30631818181812  57.96475949367087 21.093897727272687  54.430037974683536 25.823124999999937  C 50.26530379746833 31.394420454545404  46.00260759493674 36.89210227272719  41.76237974683541 42.40684090909085  C 37.966126582278456 47.34434090909085  34.11684810126579 52.238749999999946  30.276556962025307 57.14303409090906  C 29.662721518987336 57.92674999999996  29.04888607594937 58.711363636363615  28.435050632911402 59.495079545454516  " stroke-width="1" stroke="#ffffff" fill="none" transform="matrix(1 0 0 1 718 17774 )" />
  </g>
</svg>