<?xml version="1.0" encoding="utf-8"?>
<svg version="1.1" xmlns:xlink="http://www.w3.org/1999/xlink" width="43px" height="48px" xmlns="http://www.w3.org/2000/svg">
  <g transform="matrix(1 0 0 1 -428 -11069 )">
    <path d="M 0.11240506329112912 44.6722159090909  C 2.5240506329113703 41.85511363636362  4.936202531645552 39.03749999999999  7.347848101265822 36.220397727272704  C 9.272911392405074 33.971420454545424  11.249113924050624 31.757727272727266  13.12050632911393 29.462727272727268  C 15.858227848101263 26.106136363636345  18.595443037974682 22.749545454545455  21.333164556962046 19.392954545454533  C 23.412151898734194 16.8438068181818  25.47696202531649 14.284943181818182  27.60455696202532 11.777215909090884  C 29.79189873417724 9.198920454545442  32.09468354430383 6.711136363636347  34.50683544303795 4.34659090909088  C 35.683544303797426 3.1934659090908823  36.88303797468351 2.034204545454521  38.19746835443035 1.0401136363636032  C 38.36708860759492 0.9117613636363279  39.344303797468314 0.06034090909087747  39.64253164556961 0.3778977272727004  C 39.94936708860758 0.7046590909090691  39.23392405063289 1.8557386363636024  39.11443037974682 2.0899431818181617  C 38.33721518987342 3.615340909090891  37.387848101265824 5.049715909090895  36.45468354430376 6.480511363636336  C 34.622784810126525 9.288409090909056  32.65620253164556 12.01551136363634  30.664810126582275 14.709374999999964  C 28.318481012658214 17.8828977272727  25.916962025316472 21.01448863636359  23.528101265822766 24.155795454545423  C 21.38936708860758 26.968295454545423  19.220759493670865 29.75624999999997  17.05721518987341 32.54982954545453  C 16.711392405063286 32.996249999999975  16.365569620253165 33.443181818181806  16.019746835443044 33.88960227272726  " stroke-width="2" stroke="#ffffff" fill="none" transform="matrix(1 0 0 1 429 11070 )" />
  </g>
</svg>