<?xml version="1.0" encoding="utf-8"?>
<svg version="1.1" xmlns:xlink="http://www.w3.org/1999/xlink" width="47px" height="74px" xmlns="http://www.w3.org/2000/svg">
  <g transform="matrix(1 0 0 1 -769 -17761 )">
    <path d="M 4.287019607843124 48.12213414634147  C 7.200352941176475 43.702963414634155  10.241764705882318 39.377268292682956  13.407647058823539 35.13080487804877  C 16.518509803921585 30.95823170731705  19.71956862745098 26.845304878048754  23.039686274509787 22.83297560975607  C 26.427450980392113 18.738743902439005  29.862117647058827 14.67834146341461  33.5177647058823 10.812902439024354  C 35.29733333333324 8.930036585365809  37.11027450980382 7.080109756097513  38.99807843137252 5.302292682926795  C 40.620705882352894 3.7737439024389774  42.28482352941174 2.0947439024389816  44.20329411764699 0.9231829268292231  C 44.44050980392153 0.7780731707316524  45.09352941176461 0.31158536585360286  45.411019607843116 0.5661951219511651  C 45.86199999999998 0.9276341463414142  45.2089803921568 2.208695121951164  45.07458823529406 2.541646341463355  C 43.17956862745092 7.216317073170677  40.18325490196072 11.581182926829205  37.416039215686226 15.784914634146286  C 34.20866666666658 20.65721951219508  30.83443137254895 25.425365853658487  27.528745098039177 30.2326829268292  C 24.91215686274505 34.036695121951176  22.35329411764702 37.88343902439017  19.835019607843122 41.75154878048776  C 17.22835294117647 45.75497560975606  14.63521568627451 49.769085365853634  12.098901960784302 53.81613414634143  C 8.429725490196082 59.67215853658531  4.759647058823518 65.52818292682925  1.090470588235297 71.38420731707312  C 0.7973333333333463 71.85247560975606  0.5041960784313959 72.32074390243899  0.21015686274510173 72.78812195121947  " stroke-width="1" stroke="#ffffff" fill="none" transform="matrix(1 0 0 1 769 17761 )" />
  </g>
</svg>