<?xml version="1.0" encoding="utf-8"?>
<svg version="1.1" xmlns:xlink="http://www.w3.org/1999/xlink" width="29px" height="45px" xmlns="http://www.w3.org/2000/svg">
  <g transform="matrix(1 0 0 1 -437 -11062 )">
    <path d="M 2.423098039215679 27.686707317073175  C 4.069764705882355 25.144170731707323  5.7888235294117445 22.655414634146357  7.578235294117652 20.21224390243902  C 9.336549019607853 17.811585365853645  11.145843137254902 15.44524390243901  13.02243137254901 13.136780487804861  C 14.93725490196076 10.781195121951209  16.87858823529412 8.445073170731693  18.944823529411735 6.221121951219491  C 19.950666666666617 5.1378292682926565  20.975372549019554 4.073487804878021  22.04239215686273 3.0506341463414435  C 22.959529411764677 2.1711951219511927  23.90011764705881 1.2051951219511947  24.984470588235254 0.5311463414633887  C 25.118549019607823 0.4476585365853343  25.487647058823473 0.1792682926828948  25.667098039215677 0.32575609756094426  C 25.92199999999999 0.5337073170731425  25.55290196078428 1.2707560975609438  25.476941176470554 1.4623170731706974  C 24.405843137254866 4.151853658536553  22.712274509803887 6.663146341463379  21.148196078431344 9.081731707317042  C 19.335333333333285 11.884975609756074  17.42815686274506 14.6282926829268  15.559725490196058 17.394146341463376  C 14.080784313725463 19.58275609756095  12.634470588235274 21.795951219512155  11.21109803921568 24.021439024390215  C 9.737764705882354 26.324780487804855  8.272078431372549 28.63426829268291  6.8385098039215615 30.962707317073153  C 4.764627450980394 34.33192682926826  2.6902352941176404 37.7011463414634  0.6163529411764722 41.07036585365851  C 0.45066666666667404 41.33978048780486  0.28498039215687593 41.6091951219512  0.11878431372549228 41.87809756097558  " stroke-width="2" stroke="#ffffff" fill="none" transform="matrix(1 0 0 1 438 11063 )" />
  </g>
</svg>