<?xml version="1.0" encoding="utf-8"?>
<svg version="1.1" xmlns:xlink="http://www.w3.org/1999/xlink" width="22px" height="28px" xmlns="http://www.w3.org/2000/svg">
  <g transform="matrix(1 0 0 1 -744 -17802 )">
    <path d="M 13.560521739130413 0.6921000000000049  C 9.785999999999964 7.056000000000029  6.010565217391277 13.419900000000002  2.2360434782608287 19.783800000000024  C 1.7000869565217083 20.687400000000043  1.164130434782588 21.590100000000028  0.6281739130434156 22.493700000000047  C 0.6281739130434156 22.608900000000034  1.5932608695651698 23.049900000000044  1.7019130434781868 23.112900000000035  C 2.4889565217390777 23.566500000000055  3.2750869565216774 24.02010000000002  4.062130434782516 24.472800000000056  C 5.207086956521664 25.13250000000006  6.351130434782521 25.792200000000065  7.496086956521668 26.45190000000007  C 7.496086956521668 26.29620000000007  7.778217391304301 25.97670000000005  7.854913043478165 25.847100000000047  C 8.160782608695538 25.332300000000043  8.46573913043467 24.817500000000038  8.771608695652095 24.30270000000004  C 9.807913043478175 22.554900000000032  10.845130434782543 20.807100000000027  11.881434782608622 19.05930000000002  C 14.19417391304342 15.159599999999994  16.507826086956456 11.259900000000021  18.820565217391252 7.360199999999997  C 19.356521739130372 6.45659999999998  19.892478260869492 5.553899999999993  20.428434782608665 4.650299999999976  " stroke-width="1" stroke="#ffffff" fill="none" transform="matrix(1 0 0 1 744 17802 )" />
  </g>
</svg>