<?xml version="1.0" encoding="utf-8"?>
<svg version="1.1" xmlns:xlink="http://www.w3.org/1999/xlink" width="50px" height="58px" xmlns="http://www.w3.org/2000/svg">
  <g transform="matrix(1 0 0 1 -766 -17734 )">
    <path d="M 0.8196363636363778 56.527078124999996  C 3.381890909090902 52.84968749999998  5.995818181818198 49.213265625000005  8.628454545454547 45.58575  C 11.12478181818184 42.146156250000004  13.685254545454537 38.75376562500001  16.218999999999983 35.34178124999999  C 18.657418181818187 32.05804687499998  21.072672727272696 28.756499999999985  23.581472727272722 25.526203125000002  C 26.198072727272734 22.15696875000001  28.936727272727293 18.893718749999998  31.76714545454544 15.702609375  C 34.47729090909087 12.64687499999999  37.28009090909093 9.663281249999995  40.1586181818182 6.765187500000003  C 41.67494545454547 5.237765625  43.210872727272786 3.722812500000006  44.82252727272731 2.2960312500000026  C 45.635927272727315 1.5764062500000091  46.680072727272794 0.4043437500000069  47.767872727272795 0.09084375000000344  C 48.37903636363646 -0.08550000000000324  48.32825454545463 0.35625000000000506  48.18303636363644 0.8398593750000107  C 47.738472727272786 2.320078125000016  46.80747272727282 3.7156875000000227  46.0252545454546 5.031140625000001  C 44.2826363636364 7.961296874999993  42.413509090909166 10.813968749999997  40.52656363636366 13.652390625000006  C 37.30236363636364 18.502734375000006  34.07727272727273 23.3521875  30.853072727272757 28.202531249999996  C 28.952763636363677 31.060546875  27.050672727272776 33.91678124999999  25.08265454545459 36.728484375  C 24.428727272727336 37.66275000000001  23.77569090909097 38.596125000000015  23.121763636363664 39.530390624999995  " stroke-width="1" stroke="#ffffff" fill="none" transform="matrix(1 0 0 1 766 17734 )" />
  </g>
</svg>