<?xml version="1.0" encoding="utf-8"?>
<svg version="1.1" xmlns:xlink="http://www.w3.org/1999/xlink" width="15px" height="18px" xmlns="http://www.w3.org/2000/svg">
  <g transform="matrix(1 0 0 1 -423 -11085 )">
    <path d="M 7.74886956521738 0.38450000000000273  C 5.591999999999979 3.9200000000000164  3.4346086956521584 7.455500000000001  1.2777391304347594 10.991000000000014  C 0.9714782608695476 11.493000000000023  0.665217391304336 11.994500000000016  0.35895652173909465 12.496500000000026  C 0.35895652173909465 12.560500000000019  0.9104347826086685 12.805500000000023  0.9725217391303924 12.84050000000002  C 1.4222608695651873 13.09250000000003  1.87147826086953 13.34450000000001  2.3212173913042946 13.596000000000032  C 2.9754782608695223 13.962500000000034  3.629217391304297 14.329000000000036  4.283478260869525 14.695500000000038  C 4.283478260869525 14.609000000000037  4.444695652173886 14.431500000000028  4.4885217391303796 14.359500000000025  C 4.663304347826021 14.073500000000024  4.837565217391241 13.787500000000023  5.012347826086912 13.501500000000021  C 5.604521739130385 12.530500000000018  6.197217391304311 11.559500000000014  6.7893913043477845 10.58850000000001  C 8.110956521739098 8.421999999999997  9.433043478260831 6.255500000000012  10.754608695652143 4.088999999999999  C 11.060869565217356 3.586999999999989  11.367130434782567 3.085499999999996  11.673391304347808 2.5834999999999866  " stroke-width="2" stroke="#ffffff" fill="none" transform="matrix(1 0 0 1 424 11086 )" />
  </g>
</svg>