<?xml version="1.0" encoding="utf-8"?>
<svg version="1.1" xmlns:xlink="http://www.w3.org/1999/xlink" width="21px" height="38px" xmlns="http://www.w3.org/2000/svg">
  <g transform="matrix(1 0 0 1 -430 -11069 )">
    <path d="M 0.07400000000001228 34.5789705882353  C 2.372000000000014 30.783529411764704  4.6650000000000205 26.98860294117647  6.912000000000006 23.161250000000013  C 9.013499999999993 19.581985294117654  11.015500000000003 15.935294117647077  12.920000000000016 12.241250000000008  C 13.868000000000023 10.4027205882353  14.771000000000015 8.535882352941178  15.607000000000028 6.640735294117669  C 16.365500000000026 4.921102941176488  17.176000000000016 3.1103676470588413  17.518500000000017 1.2430147058823782  C 17.55400000000003 1.0505147058823805  17.75150000000002 0.310882352941198  17.444000000000017 0.17963235294120034  C 16.99550000000002 -0.011838235294101027  16.095000000000027 1.2630882352941362  15.90900000000002 1.476176470588262  C 13.22150000000002 4.5479411764706095  10.579500000000024 7.777205882352978  8.368500000000012 11.232941176470623  C 8.103500000000025 11.647279411764744  7.848000000000013 12.067279411764732  7.597000000000008 12.49036764705885  " stroke-width="2" stroke="#ffffff" fill="none" transform="matrix(1 0 0 1 431 11070 )" />
  </g>
</svg>