<?xml version="1.0" encoding="utf-8"?>
<svg version="1.1" xmlns:xlink="http://www.w3.org/1999/xlink" width="31px" height="36px" xmlns="http://www.w3.org/2000/svg">
  <g transform="matrix(1 0 0 1 -435 -11047 )">
    <path d="M 0.4683636363636445 32.726203125  C 1.932509090909087 30.597187499999986  3.4261818181818273 28.491890625000003  4.930545454545456 26.39175  C 6.3570181818181934 24.400406250000003  7.82014545454545 22.436390625  9.267999999999992 20.461031249999994  C 10.661381818181821 18.559921874999986  12.041527272727254 16.64849999999999  13.475127272727269 14.778328125000002  C 14.970327272727276 12.827718750000008  16.535272727272737 10.938468749999998  18.15265454545454 9.090984375  C 19.70130909090907 7.321874999999994  21.302909090909104 5.5945312499999975  22.947781818181827 3.916687500000002  C 23.814254545454556 3.032390625  24.691927272727305 2.1553125000000035  25.612872727272745 1.3292812500000015  C 26.07767272727275 0.9126562500000053  26.67432727272731 0.234093750000004  27.29592727272731 0.05259375000000199  C 27.64516363636369 -0.049500000000001876  27.616145454545503 0.20625000000000293  27.53316363636368 0.4862343750000062  C 27.279127272727305 1.3432031250000094  26.747127272727322 2.151187500000013  26.300145454545486 2.9127656250000005  C 25.304363636363657 4.609171874999996  24.23629090909095 6.260718749999998  23.15803636363638 7.904015625000004  C 21.315636363636365 10.712109375000002  19.472727272727273 13.5196875  17.63032727272729 16.327781249999997  C 16.544436363636386 17.982421875  15.457527272727301 19.636031249999995  14.33294545454548 21.263859375000003  C 13.959272727272763 21.804750000000006  13.586109090909126 22.345125000000007  13.21243636363638 22.886015624999995  " stroke-width="2" stroke="#ffffff" fill="none" transform="matrix(1 0 0 1 436 11048 )" />
  </g>
</svg>