<?xml version="1.0" encoding="utf-8"?>
<svg version="1.1" xmlns:xlink="http://www.w3.org/1999/xlink" width="13px" height="13px" xmlns="http://www.w3.org/2000/svg">
  <defs>
    <mask fill="white" id="clip394">
      <path d="M 12.555214285714273 8.183066666666674  C 12.597000000000003 7.927399999999993  12.61835714285714 6.151600000000012  12.61835714285714 5.893333333333343  C 12.61649999999999 3.7630666666666537  11.14657142857142 1.8113333333333608  8.996928571428565 1.0937333333333337  C 6.849142857142862 0.3761333333333558  2.7578571428571417 1.0122666666666722  1.309285714285711 2.6580666666666732  C -0.1383571428571437 4.303866666666674  -0.3277857142857223 8.202133333333332  0.8449999999999968 10.029066666666669  C 2.0168571428571402 11.856000000000007  5.980928571428573 12.824933333333336  8.218785714285714 12.41066666666666  C 10.449214285714273 11.998133333333328  12.209785714285715 10.28039999999997  12.555214285714273 8.183066666666674  Z " fill-rule="evenodd" />
    </mask>
  </defs>
  <g transform="matrix(1 0 0 1 -549 -17800 )">
    <path d="M 12.555214285714273 8.183066666666674  C 12.597000000000003 7.927399999999993  12.61835714285714 6.151600000000012  12.61835714285714 5.893333333333343  C 12.61649999999999 3.7630666666666537  11.14657142857142 1.8113333333333608  8.996928571428565 1.0937333333333337  C 6.849142857142862 0.3761333333333558  2.7578571428571417 1.0122666666666722  1.309285714285711 2.6580666666666732  C -0.1383571428571437 4.303866666666674  -0.3277857142857223 8.202133333333332  0.8449999999999968 10.029066666666669  C 2.0168571428571402 11.856000000000007  5.980928571428573 12.824933333333336  8.218785714285714 12.41066666666666  C 10.449214285714273 11.998133333333328  12.209785714285715 10.28039999999997  12.555214285714273 8.183066666666674  Z " fill-rule="nonzero" fill="#ffffff" stroke="none" fill-opacity="0" transform="matrix(1 0 0 1 549 17800 )" />
    <path d="M 12.555214285714273 8.183066666666674  C 12.597000000000003 7.927399999999993  12.61835714285714 6.151600000000012  12.61835714285714 5.893333333333343  C 12.61649999999999 3.7630666666666537  11.14657142857142 1.8113333333333608  8.996928571428565 1.0937333333333337  C 6.849142857142862 0.3761333333333558  2.7578571428571417 1.0122666666666722  1.309285714285711 2.6580666666666732  C -0.1383571428571437 4.303866666666674  -0.3277857142857223 8.202133333333332  0.8449999999999968 10.029066666666669  C 2.0168571428571402 11.856000000000007  5.980928571428573 12.824933333333336  8.218785714285714 12.41066666666666  C 10.449214285714273 11.998133333333328  12.209785714285715 10.28039999999997  12.555214285714273 8.183066666666674  Z " stroke-width="2" stroke="#ffffff" fill="none" transform="matrix(1 0 0 1 549 17800 )" mask="url(#clip394)" />
  </g>
</svg>