<?xml version="1.0" encoding="utf-8"?>
<svg version="1.1" xmlns:xlink="http://www.w3.org/1999/xlink" width="17px" height="17px" xmlns="http://www.w3.org/2000/svg">
  <defs>
    <mask fill="white" id="clip395">
      <path d="M 16.608105263157906 10.494368421052668  C 16.664473684210527 10.123947368421051  16.69310526315788 8.18505263157897  16.69310526315788 7.8110526315789635  C 16.690421052631574 4.73494736842108  14.708578947368391 1.91652631578947  11.811421052631548 0.8795263157894774  C 8.916052631578925 -0.1565789473684312  4.0254210526315495 0.762315789473713  2.073999999999985 3.1387368421052466  C 0.12257894736842147 5.51515789473678  -0.13242105263160092 10.521210526315752  1.4476842105263112 13.159789473684183  C 3.0277894736842237 15.798368421052565  7.745736842105248 17.197736842105268  10.762789473684206 16.599157894736862  C 13.768210526315768 16.003263157894708  16.142842105263135 13.522157894736893  16.608105263157906 10.494368421052668  Z " fill-rule="evenodd" />
    </mask>
  </defs>
  <g transform="matrix(1 0 0 1 -760 -18001 )">
    <path d="M 16.608105263157906 10.494368421052668  C 16.664473684210527 10.123947368421051  16.69310526315788 8.18505263157897  16.69310526315788 7.8110526315789635  C 16.690421052631574 4.73494736842108  14.708578947368391 1.91652631578947  11.811421052631548 0.8795263157894774  C 8.916052631578925 -0.1565789473684312  4.0254210526315495 0.762315789473713  2.073999999999985 3.1387368421052466  C 0.12257894736842147 5.51515789473678  -0.13242105263160092 10.521210526315752  1.4476842105263112 13.159789473684183  C 3.0277894736842237 15.798368421052565  7.745736842105248 17.197736842105268  10.762789473684206 16.599157894736862  C 13.768210526315768 16.003263157894708  16.142842105263135 13.522157894736893  16.608105263157906 10.494368421052668  Z " fill-rule="nonzero" fill="#ffffff" stroke="none" fill-opacity="0" transform="matrix(1 0 0 1 760 18001 )" />
    <path d="M 16.608105263157906 10.494368421052668  C 16.664473684210527 10.123947368421051  16.69310526315788 8.18505263157897  16.69310526315788 7.8110526315789635  C 16.690421052631574 4.73494736842108  14.708578947368391 1.91652631578947  11.811421052631548 0.8795263157894774  C 8.916052631578925 -0.1565789473684312  4.0254210526315495 0.762315789473713  2.073999999999985 3.1387368421052466  C 0.12257894736842147 5.51515789473678  -0.13242105263160092 10.521210526315752  1.4476842105263112 13.159789473684183  C 3.0277894736842237 15.798368421052565  7.745736842105248 17.197736842105268  10.762789473684206 16.599157894736862  C 13.768210526315768 16.003263157894708  16.142842105263135 13.522157894736893  16.608105263157906 10.494368421052668  Z " stroke-width="2" stroke="#ffffff" fill="none" transform="matrix(1 0 0 1 760 18001 )" mask="url(#clip395)" />
  </g>
</svg>