<?xml version="1.0" encoding="utf-8"?>
<svg version="1.1" xmlns:xlink="http://www.w3.org/1999/xlink" width="18px" height="15px" xmlns="http://www.w3.org/2000/svg">
  <defs>
    <mask fill="white" id="clip281">
      <path d="M 8.335499999999968 2.551000000000016  C 8.873500000000007 2.2110000000000127  10.295500000000004 1.8880000000000052  10.85499999999999 1.5860000000000127  C 12.274499999999989 0.8415000000000248  13.918999999999983 0.14850000000001273  15.55249999999998 0.4995000000000118  C 16.382499999999993 0.6780000000000257  17.350499999999982 1.1345000000000027  17.77649999999997 1.9140000000000157  C 18.08949999999996 2.4865000000000066  17.834499999999963 3.01400000000001  17.255499999999984 3.2590000000000146  C 16.533499999999975 3.5645000000000095  15.64549999999997 3.524000000000001  14.883999999999986 3.5800000000000125  C 13.777499999999975 3.661500000000018  12.676999999999992 3.7805000000000173  11.611499999999978 4.106500000000011  C 9.561499999999967 4.733500000000021  6.784999999999968 6.919000000000011  5.435999999999979 8.581500000000005  C 4.762499999999974 9.411500000000018  4.251499999999979 10.346000000000004  3.822999999999979 11.322000000000003  C 3.430999999999983 12.216000000000008  3.1684999999999803 13.229000000000013  2.6214999999999833 14.047500000000014  C 2.2924999999999898 14.539500000000004  1.7329999999999899 14.894000000000005  1.1889999999999787 14.488500000000016  C 0.5254999999999797 13.994000000000028  0.33499999999997954 12.950500000000005  0.3424999999999727 12.180500000000023  C 0.3564999999999685 10.654000000000025  1.2394999999999783 9.350000000000023  2.241999999999976 8.267500000000013  C 3.992999999999981 6.376000000000005  6.164499999999975 3.923000000000002  8.335499999999968 2.551000000000016  Z " fill-rule="evenodd" />
    </mask>
  </defs>
  <g transform="matrix(1 0 0 1 -319 -11097 )">
    <path d="M 8.335499999999968 2.551000000000016  C 8.873500000000007 2.2110000000000127  10.295500000000004 1.8880000000000052  10.85499999999999 1.5860000000000127  C 12.274499999999989 0.8415000000000248  13.918999999999983 0.14850000000001273  15.55249999999998 0.4995000000000118  C 16.382499999999993 0.6780000000000257  17.350499999999982 1.1345000000000027  17.77649999999997 1.9140000000000157  C 18.08949999999996 2.4865000000000066  17.834499999999963 3.01400000000001  17.255499999999984 3.2590000000000146  C 16.533499999999975 3.5645000000000095  15.64549999999997 3.524000000000001  14.883999999999986 3.5800000000000125  C 13.777499999999975 3.661500000000018  12.676999999999992 3.7805000000000173  11.611499999999978 4.106500000000011  C 9.561499999999967 4.733500000000021  6.784999999999968 6.919000000000011  5.435999999999979 8.581500000000005  C 4.762499999999974 9.411500000000018  4.251499999999979 10.346000000000004  3.822999999999979 11.322000000000003  C 3.430999999999983 12.216000000000008  3.1684999999999803 13.229000000000013  2.6214999999999833 14.047500000000014  C 2.2924999999999898 14.539500000000004  1.7329999999999899 14.894000000000005  1.1889999999999787 14.488500000000016  C 0.5254999999999797 13.994000000000028  0.33499999999997954 12.950500000000005  0.3424999999999727 12.180500000000023  C 0.3564999999999685 10.654000000000025  1.2394999999999783 9.350000000000023  2.241999999999976 8.267500000000013  C 3.992999999999981 6.376000000000005  6.164499999999975 3.923000000000002  8.335499999999968 2.551000000000016  Z " fill-rule="nonzero" fill="#ffffff" stroke="none" fill-opacity="0" transform="matrix(1 0 0 1 319 11097 )" />
    <path d="M 8.335499999999968 2.551000000000016  C 8.873500000000007 2.2110000000000127  10.295500000000004 1.8880000000000052  10.85499999999999 1.5860000000000127  C 12.274499999999989 0.8415000000000248  13.918999999999983 0.14850000000001273  15.55249999999998 0.4995000000000118  C 16.382499999999993 0.6780000000000257  17.350499999999982 1.1345000000000027  17.77649999999997 1.9140000000000157  C 18.08949999999996 2.4865000000000066  17.834499999999963 3.01400000000001  17.255499999999984 3.2590000000000146  C 16.533499999999975 3.5645000000000095  15.64549999999997 3.524000000000001  14.883999999999986 3.5800000000000125  C 13.777499999999975 3.661500000000018  12.676999999999992 3.7805000000000173  11.611499999999978 4.106500000000011  C 9.561499999999967 4.733500000000021  6.784999999999968 6.919000000000011  5.435999999999979 8.581500000000005  C 4.762499999999974 9.411500000000018  4.251499999999979 10.346000000000004  3.822999999999979 11.322000000000003  C 3.430999999999983 12.216000000000008  3.1684999999999803 13.229000000000013  2.6214999999999833 14.047500000000014  C 2.2924999999999898 14.539500000000004  1.7329999999999899 14.894000000000005  1.1889999999999787 14.488500000000016  C 0.5254999999999797 13.994000000000028  0.33499999999997954 12.950500000000005  0.3424999999999727 12.180500000000023  C 0.3564999999999685 10.654000000000025  1.2394999999999783 9.350000000000023  2.241999999999976 8.267500000000013  C 3.992999999999981 6.376000000000005  6.164499999999975 3.923000000000002  8.335499999999968 2.551000000000016  Z " stroke-width="4" stroke="#ffffff" fill="none" transform="matrix(1 0 0 1 319 11097 )" mask="url(#clip281)" />
  </g>
</svg>