<?xml version="1.0" encoding="utf-8"?>
<svg version="1.1" xmlns:xlink="http://www.w3.org/1999/xlink" width="7px" height="8px" xmlns="http://www.w3.org/2000/svg">
  <defs>
    <mask fill="white" id="clip282">
      <path d="M 6.760499999999993 5.035733333333337  C 6.783000000000001 4.878399999999996  6.794499999999999 3.785600000000007  6.794499999999999 3.6266666666666727  C 6.7934999999999945 2.315733333333325  6.001999999999995 1.1146666666666836  4.8444999999999965 0.6730666666666669  C 3.688000000000003 0.2314666666666805  1.4849999999999994 0.6229333333333368  0.7049999999999983 1.6357333333333373  C -0.07450000000000045 2.648533333333338  -0.17650000000000432 5.047466666666666  0.4549999999999983 6.171733333333335  C 1.0859999999999985 7.296000000000004  3.2205000000000013 7.892266666666668  4.4254999999999995 7.63733333333333  C 5.626499999999993 7.3834666666666635  6.5745000000000005 6.326399999999982  6.760499999999993 5.035733333333337  Z " fill-rule="evenodd" />
    </mask>
  </defs>
  <g transform="matrix(1 0 0 1 -313 -11085 )">
    <path d="M 6.760499999999993 5.035733333333337  C 6.783000000000001 4.878399999999996  6.794499999999999 3.785600000000007  6.794499999999999 3.6266666666666727  C 6.7934999999999945 2.315733333333325  6.001999999999995 1.1146666666666836  4.8444999999999965 0.6730666666666669  C 3.688000000000003 0.2314666666666805  1.4849999999999994 0.6229333333333368  0.7049999999999983 1.6357333333333373  C -0.07450000000000045 2.648533333333338  -0.17650000000000432 5.047466666666666  0.4549999999999983 6.171733333333335  C 1.0859999999999985 7.296000000000004  3.2205000000000013 7.892266666666668  4.4254999999999995 7.63733333333333  C 5.626499999999993 7.3834666666666635  6.5745000000000005 6.326399999999982  6.760499999999993 5.035733333333337  Z " fill-rule="nonzero" fill="#ffffff" stroke="none" fill-opacity="0" transform="matrix(1 0 0 1 313 11085 )" />
    <path d="M 6.760499999999993 5.035733333333337  C 6.783000000000001 4.878399999999996  6.794499999999999 3.785600000000007  6.794499999999999 3.6266666666666727  C 6.7934999999999945 2.315733333333325  6.001999999999995 1.1146666666666836  4.8444999999999965 0.6730666666666669  C 3.688000000000003 0.2314666666666805  1.4849999999999994 0.6229333333333368  0.7049999999999983 1.6357333333333373  C -0.07450000000000045 2.648533333333338  -0.17650000000000432 5.047466666666666  0.4549999999999983 6.171733333333335  C 1.0859999999999985 7.296000000000004  3.2205000000000013 7.892266666666668  4.4254999999999995 7.63733333333333  C 5.626499999999993 7.3834666666666635  6.5745000000000005 6.326399999999982  6.760499999999993 5.035733333333337  Z " stroke-width="4" stroke="#ffffff" fill="none" transform="matrix(1 0 0 1 313 11085 )" mask="url(#clip282)" />
  </g>
</svg>