<?xml version="1.0" encoding="utf-8"?>
<svg version="1.1" xmlns:xlink="http://www.w3.org/1999/xlink" width="42px" height="57px" xmlns="http://www.w3.org/2000/svg">
  <g transform="matrix(1 0 0 1 -419 -11034 )">
    <path d="M 0.2167792207792194 53.65429906542056  C 1.882636363636356 50.48596261682242  3.562168831168839 47.32267289719627  5.361740259740266 44.227009345794386  C 7.217532467532468 41.03444859813082  9.101688311688326 37.85904672897196  11.0775194805195 34.73865420560748  C 13.11109090909092 31.526915887850468  15.180623376623396 28.340411214953278  17.321571428571435 25.19882242990655  C 19.415415584415598 22.12637383177571  21.575610389610397 19.099850467289723  23.830012987013003 16.141962616822436  C 26.019584415584422 13.268859813084113  28.310454545454565 10.46691588785047  30.729974025974037 7.782056074766363  C 31.947584415584426 6.431046728971975  33.19153246753248 5.10325233644861  34.47701298701301 3.815831775700938  C 35.564454545454595 2.726747663551412  36.70102597402598 1.451439252336451  38.02955844155847 0.6474953271028115  C 38.28027272727276 0.4955887850467429  38.58112987012993 0.3507476635514128  38.52136363636367 0.7489345794392568  C 38.443870129870156 1.2616822429906542  38.04323376623382 1.8031962616822468  37.78948051948053 2.2362056074766414  C 37.33009090909089 3.020971962616832  36.83524675324675 3.78605607476636  36.33736363636366 4.547102803738327  C 34.07435064935066 8.009158878504689  31.674077922077952 11.386934579439261  29.336610389610417 14.799028037383183  C 27.504623376623393 17.473289719626177  25.66909090909094 20.147046728971972  23.909532467532504 22.869757009345797  C 21.920532467532492 25.947252336448607  19.99838961038966 29.068149532710287  18.125376623376653 32.217308411214944  C 17.61077922077924 33.08231775700934  17.096181818181858 33.947831775700934  16.581584415584445 34.812841121495325  " stroke-width="2" stroke="#ffffff" fill="none" transform="matrix(1 0 0 1 420 11035 )" />
  </g>
</svg>