<?xml version="1.0" encoding="utf-8"?>
<svg version="1.1" xmlns:xlink="http://www.w3.org/1999/xlink" width="70px" height="97px" xmlns="http://www.w3.org/2000/svg">
  <g transform="matrix(1 0 0 1 -738 -17712 )">
    <path d="M 0.38353246753246506 95.38542056074766  C 3.330818181818168 89.75282242990652  6.302298701298715 84.12919626168225  9.486155844155856 78.62579439252335  C 12.76948051948052 72.95013084112146  16.10298701298704 67.30497196261682  19.598688311688345 61.75760747663551  C 23.196545454545475 56.04785046728972  26.858025974026006 50.38295327102804  30.645857142857153 44.79790654205608  C 34.35035064935067 39.33577570093459  38.17223376623378 33.95528971962617  42.16079220779224 28.696822429906554  C 46.03464935064936 23.589084112149536  50.08772727272731 18.607850467289726  54.36841558441561 13.8347663551402  C 56.52264935064937 11.432971962616843  58.72348051948055 9.072448598130862  60.99779220779226 6.7837009345794455  C 62.92172727272737 4.847551401869177  64.93258441558443 2.5803364485981355  67.28306493506498 1.1511028037383317  C 67.72663636363642 0.8810467289719874  68.25892207792218 0.6235514018691782  68.15318181818188 1.3314392523364567  C 68.01607792207797 2.2429906542056073  67.30725974025984 3.205682242990661  66.8583116883117 3.9754766355140294  C 66.04554545454543 5.370616822429923  65.17005194805195 6.7307663551401955  64.28918181818186 8.083738317757026  C 60.285389610389636 14.238504672897225  56.0387532467533 20.243439252336465  51.90323376623381 26.309383177570105  C 48.662025974026 31.063626168224317  45.41454545454551 35.81697196261684  42.301480519480585 40.657345794392526  C 38.782480519480565 46.12844859813085  35.38176623376632 51.67671028037384  32.06797402597408 57.27521495327102  C 31.1575324675325 58.813009345794384  30.247090909090975 60.35170093457944  29.336649350649402 61.88949532710279  " stroke-width="1" stroke="#ffffff" fill="none" transform="matrix(1 0 0 1 738 17712 )" />
  </g>
</svg>