<?xml version="1.0" encoding="utf-8"?>
<svg version="1.1" xmlns:xlink="http://www.w3.org/1999/xlink" width="32px" height="27px" xmlns="http://www.w3.org/2000/svg">
  <defs>
    <mask fill="white" id="clip393">
      <path d="M 14.818666666666608 4.591800000000029  C 15.775111111111123 3.9798000000000227  18.303111111111118 3.3984000000000094  19.29777777777776 2.8548000000000227  C 21.821333333333314 1.5147000000000448  24.74488888888886 0.2673000000000229  27.648888888888855 0.8991000000000212  C 29.124444444444432 1.2204000000000461  30.8453333333333 2.042100000000005  31.602666666666615 3.4452000000000282  C 32.15911111111104 4.475700000000012  31.705777777777712 5.425200000000018  30.676444444444414 5.866200000000026  C 29.392888888888844 6.416100000000017  27.81422222222217 6.343200000000001  26.46044444444442 6.444000000000022  C 24.49333333333329 6.590700000000033  22.536888888888875 6.804900000000031  20.642666666666628 7.391700000000021  C 16.998222222222164 8.520300000000038  12.062222222222166 12.454200000000021  9.663999999999962 15.44670000000001  C 8.46666666666662 16.94070000000003  7.558222222222184 18.622800000000005  6.796444444444408 20.379600000000003  C 6.099555555555526 21.988800000000015  5.6328888888888535 23.812200000000026  4.660444444444415 25.285500000000024  C 4.075555555555537 26.171100000000006  3.080888888888871 26.809200000000008  2.11377777777774 26.07930000000003  C 0.9342222222221861 25.18920000000005  0.5955555555555192 23.31090000000001  0.6088888888888404 21.924900000000044  C 0.6337777777777218 19.17720000000004  2.203555555555517 16.83000000000004  3.9857777777777352 14.881500000000022  C 7.098666666666633 11.476800000000008  10.959111111111067 7.0614000000000035  14.818666666666608 4.591800000000029  Z " fill-rule="evenodd" />
    </mask>
  </defs>
  <g transform="matrix(1 0 0 1 -559 -17820 )">
    <path d="M 14.818666666666608 4.591800000000029  C 15.775111111111123 3.9798000000000227  18.303111111111118 3.3984000000000094  19.29777777777776 2.8548000000000227  C 21.821333333333314 1.5147000000000448  24.74488888888886 0.2673000000000229  27.648888888888855 0.8991000000000212  C 29.124444444444432 1.2204000000000461  30.8453333333333 2.042100000000005  31.602666666666615 3.4452000000000282  C 32.15911111111104 4.475700000000012  31.705777777777712 5.425200000000018  30.676444444444414 5.866200000000026  C 29.392888888888844 6.416100000000017  27.81422222222217 6.343200000000001  26.46044444444442 6.444000000000022  C 24.49333333333329 6.590700000000033  22.536888888888875 6.804900000000031  20.642666666666628 7.391700000000021  C 16.998222222222164 8.520300000000038  12.062222222222166 12.454200000000021  9.663999999999962 15.44670000000001  C 8.46666666666662 16.94070000000003  7.558222222222184 18.622800000000005  6.796444444444408 20.379600000000003  C 6.099555555555526 21.988800000000015  5.6328888888888535 23.812200000000026  4.660444444444415 25.285500000000024  C 4.075555555555537 26.171100000000006  3.080888888888871 26.809200000000008  2.11377777777774 26.07930000000003  C 0.9342222222221861 25.18920000000005  0.5955555555555192 23.31090000000001  0.6088888888888404 21.924900000000044  C 0.6337777777777218 19.17720000000004  2.203555555555517 16.83000000000004  3.9857777777777352 14.881500000000022  C 7.098666666666633 11.476800000000008  10.959111111111067 7.0614000000000035  14.818666666666608 4.591800000000029  Z " fill-rule="nonzero" fill="#ffffff" stroke="none" fill-opacity="0" transform="matrix(1 0 0 1 559 17820 )" />
    <path d="M 14.818666666666608 4.591800000000029  C 15.775111111111123 3.9798000000000227  18.303111111111118 3.3984000000000094  19.29777777777776 2.8548000000000227  C 21.821333333333314 1.5147000000000448  24.74488888888886 0.2673000000000229  27.648888888888855 0.8991000000000212  C 29.124444444444432 1.2204000000000461  30.8453333333333 2.042100000000005  31.602666666666615 3.4452000000000282  C 32.15911111111104 4.475700000000012  31.705777777777712 5.425200000000018  30.676444444444414 5.866200000000026  C 29.392888888888844 6.416100000000017  27.81422222222217 6.343200000000001  26.46044444444442 6.444000000000022  C 24.49333333333329 6.590700000000033  22.536888888888875 6.804900000000031  20.642666666666628 7.391700000000021  C 16.998222222222164 8.520300000000038  12.062222222222166 12.454200000000021  9.663999999999962 15.44670000000001  C 8.46666666666662 16.94070000000003  7.558222222222184 18.622800000000005  6.796444444444408 20.379600000000003  C 6.099555555555526 21.988800000000015  5.6328888888888535 23.812200000000026  4.660444444444415 25.285500000000024  C 4.075555555555537 26.171100000000006  3.080888888888871 26.809200000000008  2.11377777777774 26.07930000000003  C 0.9342222222221861 25.18920000000005  0.5955555555555192 23.31090000000001  0.6088888888888404 21.924900000000044  C 0.6337777777777218 19.17720000000004  2.203555555555517 16.83000000000004  3.9857777777777352 14.881500000000022  C 7.098666666666633 11.476800000000008  10.959111111111067 7.0614000000000035  14.818666666666608 4.591800000000029  Z " stroke-width="2" stroke="#ffffff" fill="none" transform="matrix(1 0 0 1 559 17820 )" mask="url(#clip393)" />
  </g>
</svg>