<?xml version="1.0" encoding="utf-8"?>
<svg version="1.1" xmlns:xlink="http://www.w3.org/1999/xlink" width="19px" height="19px" xmlns="http://www.w3.org/2000/svg">
  <defs>
    <mask fill="white" id="clip396">
      <path d="M 18.717714285714223 11.435285714285722  C 18.782857142857132 11.01366666666667  18.815428571428562 9.004190476190475  18.815428571428562 8.578047619047613  C 18.808190476190486 5.0693809523809605  16.555333333333333 1.8565714285714474  13.248428571428546 0.6722380952380907  C 9.946047619047613 -0.5093809523809416  4.571761904761902 0.5383333333333066  2.345142857142843 3.2490000000000077  C 0.11942857142857595 5.9596666666666565  -0.17100000000001933 11.466047619047622  1.6303809523809198 14.475285714285736  C 3.431761904761859 17.48452380952385  8.610619047618993 19.080523809523807  12.051428571428513 18.398333333333365  C 15.477761904761827 17.718857142857196  18.188428571428528 14.888761904761921  18.717714285714223 11.435285714285722  Z " fill-rule="evenodd" />
    </mask>
  </defs>
  <g transform="matrix(1 0 0 1 -758 -17975 )">
    <path d="M 18.717714285714223 11.435285714285722  C 18.782857142857132 11.01366666666667  18.815428571428562 9.004190476190475  18.815428571428562 8.578047619047613  C 18.808190476190486 5.0693809523809605  16.555333333333333 1.8565714285714474  13.248428571428546 0.6722380952380907  C 9.946047619047613 -0.5093809523809416  4.571761904761902 0.5383333333333066  2.345142857142843 3.2490000000000077  C 0.11942857142857595 5.9596666666666565  -0.17100000000001933 11.466047619047622  1.6303809523809198 14.475285714285736  C 3.431761904761859 17.48452380952385  8.610619047618993 19.080523809523807  12.051428571428513 18.398333333333365  C 15.477761904761827 17.718857142857196  18.188428571428528 14.888761904761921  18.717714285714223 11.435285714285722  Z " fill-rule="nonzero" fill="#ffffff" stroke="none" fill-opacity="0" transform="matrix(1 0 0 1 758 17975 )" />
    <path d="M 18.717714285714223 11.435285714285722  C 18.782857142857132 11.01366666666667  18.815428571428562 9.004190476190475  18.815428571428562 8.578047619047613  C 18.808190476190486 5.0693809523809605  16.555333333333333 1.8565714285714474  13.248428571428546 0.6722380952380907  C 9.946047619047613 -0.5093809523809416  4.571761904761902 0.5383333333333066  2.345142857142843 3.2490000000000077  C 0.11942857142857595 5.9596666666666565  -0.17100000000001933 11.466047619047622  1.6303809523809198 14.475285714285736  C 3.431761904761859 17.48452380952385  8.610619047618993 19.080523809523807  12.051428571428513 18.398333333333365  C 15.477761904761827 17.718857142857196  18.188428571428528 14.888761904761921  18.717714285714223 11.435285714285722  Z " stroke-width="2" stroke="#ffffff" fill="none" transform="matrix(1 0 0 1 758 17975 )" mask="url(#clip396)" />
  </g>
</svg>