<?xml version="1.0" encoding="utf-8"?>
<svg version="1.1" xmlns:xlink="http://www.w3.org/1999/xlink" width="86px" height="8px" preserveAspectRatio="xMinYMid meet" viewBox="758 17769  86 6" xmlns="http://www.w3.org/2000/svg">
  <g transform="matrix(0.5446390350152063 0.8386705679453045 -0.838670567945315 0.5446390350149525 15269.597466476958 7420.899944790075 )">
    <path d="M 0.42799999999999727 106.315  C 3.7169999999999845 100.03699999999998  7.0330000000000155 93.769  10.586000000000013 87.63499999999999  C 14.25 81.30899999999997  17.970000000000027 75.017  21.871000000000038 68.834  C 25.88600000000002 62.47  29.972000000000037 56.15600000000001  34.19900000000001 49.93100000000001  C 38.33300000000003 43.84300000000002  42.59800000000001 37.846000000000004  47.049000000000035 31.985000000000014  C 51.37200000000001 26.292  55.89500000000004 20.74000000000001  60.672000000000025 15.420000000000016  C 63.07600000000002 12.743000000000023  65.53200000000004 10.112000000000023  68.07000000000005 7.561000000000007  C 70.2170000000001 5.40300000000002  72.46100000000001 2.8760000000000048  75.08400000000006 1.2830000000000155  C 75.57900000000006 0.9820000000000276  76.17300000000012 0.6950000000000216  76.05500000000006 1.4840000000000089  C 75.90200000000004 2.5  75.1110000000001 3.5730000000000075  74.61000000000001 4.431000000000012  C 73.70299999999997 5.986000000000018  72.726 7.50200000000001  71.74300000000005 9.01000000000002  C 67.27500000000003 15.870000000000033  62.536000000000065 22.563000000000017  57.92100000000005 29.324000000000012  C 54.30400000000003 34.62300000000002  50.680000000000064 39.92100000000002  47.20600000000007 45.316  C 43.27900000000005 51.414000000000016  39.484000000000094 57.598000000000006  35.78600000000006 63.83799999999999  C 34.77000000000004 65.55199999999999  33.754000000000076 67.267  32.738000000000056 68.981  " stroke-width="2" stroke="#ffffff" fill="none" transform="matrix(1 0 0 1 746 17737 )" />
  </g>
</svg>