<?xml version="1.0" encoding="utf-8"?>
<svg version="1.1" xmlns:xlink="http://www.w3.org/1999/xlink" width="11px" height="11px" xmlns="http://www.w3.org/2000/svg">
  <defs>
    <mask fill="white" id="clip284">
      <path d="M 10.836571428571393 6.620428571428576  C 10.874285714285708 6.376333333333335  10.893142857142852 5.21295238095238  10.893142857142852 4.966238095238092  C 10.888952380952386 2.9349047619047663  9.584666666666667 1.0748571428571538  7.670142857142842 0.3891904761904736  C 5.7582380952380925 -0.2949047619047557  2.646809523809522 0.3116666666666512  1.3577142857142777 1.8810000000000044  C 0.06914285714285975 3.4503333333333277  -0.09900000000001119 6.638238095238097  0.9439047619047432 8.380428571428585  C 1.9868095238094974 10.122619047619072  4.985095238095206 11.046619047619046  6.977142857142823 10.651666666666685  C 8.960809523809479 10.258285714285746  10.530142857142831 8.619809523809533  10.836571428571393 6.620428571428576  Z " fill-rule="evenodd" />
    </mask>
  </defs>
  <g transform="matrix(1 0 0 1 -431 -11185 )">
    <path d="M 10.836571428571393 6.620428571428576  C 10.874285714285708 6.376333333333335  10.893142857142852 5.21295238095238  10.893142857142852 4.966238095238092  C 10.888952380952386 2.9349047619047663  9.584666666666667 1.0748571428571538  7.670142857142842 0.3891904761904736  C 5.7582380952380925 -0.2949047619047557  2.646809523809522 0.3116666666666512  1.3577142857142777 1.8810000000000044  C 0.06914285714285975 3.4503333333333277  -0.09900000000001119 6.638238095238097  0.9439047619047432 8.380428571428585  C 1.9868095238094974 10.122619047619072  4.985095238095206 11.046619047619046  6.977142857142823 10.651666666666685  C 8.960809523809479 10.258285714285746  10.530142857142831 8.619809523809533  10.836571428571393 6.620428571428576  Z " fill-rule="nonzero" fill="#ffffff" stroke="none" fill-opacity="0" transform="matrix(1 0 0 1 431 11185 )" />
    <path d="M 10.836571428571393 6.620428571428576  C 10.874285714285708 6.376333333333335  10.893142857142852 5.21295238095238  10.893142857142852 4.966238095238092  C 10.888952380952386 2.9349047619047663  9.584666666666667 1.0748571428571538  7.670142857142842 0.3891904761904736  C 5.7582380952380925 -0.2949047619047557  2.646809523809522 0.3116666666666512  1.3577142857142777 1.8810000000000044  C 0.06914285714285975 3.4503333333333277  -0.09900000000001119 6.638238095238097  0.9439047619047432 8.380428571428585  C 1.9868095238094974 10.122619047619072  4.985095238095206 11.046619047619046  6.977142857142823 10.651666666666685  C 8.960809523809479 10.258285714285746  10.530142857142831 8.619809523809533  10.836571428571393 6.620428571428576  Z " stroke-width="4" stroke="#ffffff" fill="none" transform="matrix(1 0 0 1 431 11185 )" mask="url(#clip284)" />
  </g>
</svg>