<?xml version="1.0" encoding="utf-8"?>
<svg version="1.1" xmlns:xlink="http://www.w3.org/1999/xlink" width="35px" height="54px" xmlns="http://www.w3.org/2000/svg">
  <g transform="matrix(1 0 0 1 -743 -17760 )">
    <path d="M 0.3999473684210551 52.21577966101695  C 3.54226315789474 46.30044067796613  6.7758421052631395 40.4372033898305  10.255473684210516 34.71320338983053  C 13.963263157894731 28.61371186440679  17.825842105263156 22.62022033898309  21.7653684210526 16.66984745762713  C 23.5995789473684 13.899474576271198  25.482999999999944 11.158745762711886  27.394157894736807 8.441372881355951  C 29.123684210526275 5.9818135593220525  30.846052631578917 3.3264237288135874  32.971052631578914 1.1866610169491763  C 33.64478947368417 0.5084406779661295  34.13689473684207 0.3287796610169616  33.875631578947356 1.432796610169516  C 33.16610526315788 4.430440677966116  31.55021052631579 7.371491525423744  30.279684210526305 10.157135593220353  C 27.437105263157864 16.385983050847468  24.435263157894738 22.536677966101713  21.315315789473665 28.629881355932238  C 20.97531578947367 29.293728813559333  20.635315789473673 29.958474576271204  20.29531578947368 30.622322033898357  " stroke-width="1" stroke="#ffffff" fill="none" transform="matrix(1 0 0 1 743 17760 )" />
  </g>
</svg>