<?xml version="1.0" encoding="utf-8"?>
<svg version="1.1" xmlns:xlink="http://www.w3.org/1999/xlink" width="10px" height="10px" xmlns="http://www.w3.org/2000/svg">
  <defs>
    <mask fill="white" id="clip283">
      <path d="M 9.769473684210531 6.173157894736864  C 9.802631578947368 5.955263157894736  9.819473684210516 4.814736842105276  9.819473684210516 4.594736842105273  C 9.817894736842103 2.785263157894753  8.652105263157877 1.1273684210526294  6.947894736842088 0.5173684210526337  C 5.24473684210525 -0.09210526315790071  2.3678947368420875 0.44842105263159593  1.2199999999999913 1.8463157894736746  C 0.07210526315789498 3.2442105263157526  -0.07789473684211819 6.18894736842103  0.8515789473684183 7.741052631578932  C 1.7810526315789552 9.293157894736803  4.556315789473675 10.116315789473687  6.331052631578945 9.7642105263158  C 8.09894736842104 9.413684210526299  9.495789473684196 7.954210526315819  9.769473684210531 6.173157894736864  Z " fill-rule="evenodd" />
    </mask>
  </defs>
  <g transform="matrix(1 0 0 1 -432 -11199 )">
    <path d="M 9.769473684210531 6.173157894736864  C 9.802631578947368 5.955263157894736  9.819473684210516 4.814736842105276  9.819473684210516 4.594736842105273  C 9.817894736842103 2.785263157894753  8.652105263157877 1.1273684210526294  6.947894736842088 0.5173684210526337  C 5.24473684210525 -0.09210526315790071  2.3678947368420875 0.44842105263159593  1.2199999999999913 1.8463157894736746  C 0.07210526315789498 3.2442105263157526  -0.07789473684211819 6.18894736842103  0.8515789473684183 7.741052631578932  C 1.7810526315789552 9.293157894736803  4.556315789473675 10.116315789473687  6.331052631578945 9.7642105263158  C 8.09894736842104 9.413684210526299  9.495789473684196 7.954210526315819  9.769473684210531 6.173157894736864  Z " fill-rule="nonzero" fill="#ffffff" stroke="none" fill-opacity="0" transform="matrix(1 0 0 1 432 11199 )" />
    <path d="M 9.769473684210531 6.173157894736864  C 9.802631578947368 5.955263157894736  9.819473684210516 4.814736842105276  9.819473684210516 4.594736842105273  C 9.817894736842103 2.785263157894753  8.652105263157877 1.1273684210526294  6.947894736842088 0.5173684210526337  C 5.24473684210525 -0.09210526315790071  2.3678947368420875 0.44842105263159593  1.2199999999999913 1.8463157894736746  C 0.07210526315789498 3.2442105263157526  -0.07789473684211819 6.18894736842103  0.8515789473684183 7.741052631578932  C 1.7810526315789552 9.293157894736803  4.556315789473675 10.116315789473687  6.331052631578945 9.7642105263158  C 8.09894736842104 9.413684210526299  9.495789473684196 7.954210526315819  9.769473684210531 6.173157894736864  Z " stroke-width="4" stroke="#ffffff" fill="none" transform="matrix(1 0 0 1 432 11199 )" mask="url(#clip283)" />
  </g>
</svg>