<?xml version="1.0" encoding="utf-8"?>
<svg version="1.1" xmlns:xlink="http://www.w3.org/1999/xlink" width="22px" height="33px" xmlns="http://www.w3.org/2000/svg">
  <g transform="matrix(1 0 0 1 -422 -11062 )">
    <path d="M 0.22350000000000136 29.556101694915256  C 1.9795000000000016 26.207796610169506  3.78649999999999 22.888983050847454  5.7309999999999945 19.648983050847473  C 7.802999999999997 16.196440677966105  9.961500000000001 12.803898305084767  12.162999999999982 9.435762711864415  C 13.187999999999988 7.867627118644074  14.240499999999969 6.316271186440691  15.308499999999981 4.778135593220349  C 16.274999999999977 3.385932203389841  17.237499999999983 1.8828813559322193  18.424999999999983 0.6716949152542506  C 18.801499999999976 0.28779661016950725  19.07649999999998 0.1861016949152613  18.930499999999995 0.8110169491525563  C 18.533999999999992 2.5077966101694997  17.631 4.172542372881365  16.920999999999992 5.749322033898314  C 15.332499999999982 9.275084745762719  13.655000000000001 12.756610169491537  11.91149999999999 16.205593220339  C 11.721499999999992 16.581355932203397  11.531499999999992 16.95762711864408  11.341499999999996 17.3333898305085  " stroke-width="2" stroke="#ffffff" fill="none" transform="matrix(1 0 0 1 423 11063 )" />
  </g>
</svg>