<?xml version="1.0" encoding="utf-8"?>
<svg version="1.1" xmlns:xlink="http://www.w3.org/1999/xlink" width="10px" height="25px" xmlns="http://www.w3.org/2000/svg">
  <g transform="matrix(1 0 0 1 -385 -11219 )">
    <path d="M 6.747500000000002 17.545999999999992  C 6.698499999999996 13.416499999999985  6.649499999999989 9.28649999999999  6.600500000000011 5.156999999999982  C 6.585500000000025 3.871499999999969  6.6410000000000196 2.5469999999999686  6.467000000000013 1.2724999999999795  C 6.435000000000002 1.0394999999999754  6.418500000000023 0.7989999999999782  6.204000000000008 0.6769999999999641  C 5.82050000000001 0.45799999999997004  5.087999999999994 0.47999999999996135  4.6650000000000205 0.45399999999995083  C 3.8375000000000337 0.402499999999975  3.0005000000000166 0.402499999999975  2.1730000000000302 0.45399999999995083  C 1.7500000000000284 0.4804999999999496  1.017500000000041 0.45799999999997004  0.634000000000043 0.6769999999999641  C 0.5795000000000528 0.70799999999997  0.5445000000000562 0.7289999999999851  0.5035000000000309 0.7784999999999513  C 0.4005000000000223 0.90199999999993  0.39150000000003615 1.1249999999999432  0.37100000000003774 1.2724999999999795  C 0.26000000000004775 2.086500000000001  0.27000000000003865 2.9304999999999946  0.2545000000000357 3.7499999999999996  C 0.22900000000004184 5.084499999999991  0.22500000000002277 6.419500000000028  0.21000000000003638 7.754000000000018  C 0.160000000000025 12.292500000000018  0.10950000000002547 16.831000000000017  0.05950000000004252 21.369000000000028  C 0.058500000000037744 21.46700000000004  0.05750000000003297 21.565000000000055  0.05600000000004001 21.66300000000001  " stroke-width="2" stroke="#ffffff" fill="none" transform="matrix(1 0 0 1 386 11220 )" />
  </g>
</svg>