<?xml version="1.0" encoding="utf-8"?>
<svg version="1.1" xmlns:xlink="http://www.w3.org/1999/xlink" width="9px" height="9px" xmlns="http://www.w3.org/2000/svg">
  <defs>
    <mask fill="white" id="clip285">
      <path d="M 8.927999999999987 5.65305882352938  C 8.957117647058814 5.463000000000009  8.97194117647059 4.343823529411757  8.97194117647059 4.151117647058828  C 8.969294117647063 2.566588235294125  7.950705882352957 1.1154705882353089  6.457764705882342 0.5807647058823424  C 4.966411764705867 0.047117647058822806  2.32782352941176 0.5204117647058846  1.3224705882352892 1.7444117647058606  C 0.31711764705881795 2.968411764705867  0.1863529411764576 5.666823529411739  1.000058823529417 7.025823529411742  C 1.8137647058823463 8.384823529411747  4.363941176470585 9.105352941176447  5.917764705882352 8.797235294117627  C 7.4652352941176465 8.490176470588224  8.689235294117653 7.212705882352924  8.927999999999987 5.65305882352938  Z " fill-rule="evenodd" />
    </mask>
  </defs>
  <g transform="matrix(1 0 0 1 -415 -11182 )">
    <path d="M 8.927999999999987 5.65305882352938  C 8.957117647058814 5.463000000000009  8.97194117647059 4.343823529411757  8.97194117647059 4.151117647058828  C 8.969294117647063 2.566588235294125  7.950705882352957 1.1154705882353089  6.457764705882342 0.5807647058823424  C 4.966411764705867 0.047117647058822806  2.32782352941176 0.5204117647058846  1.3224705882352892 1.7444117647058606  C 0.31711764705881795 2.968411764705867  0.1863529411764576 5.666823529411739  1.000058823529417 7.025823529411742  C 1.8137647058823463 8.384823529411747  4.363941176470585 9.105352941176447  5.917764705882352 8.797235294117627  C 7.4652352941176465 8.490176470588224  8.689235294117653 7.212705882352924  8.927999999999987 5.65305882352938  Z " fill-rule="nonzero" fill="#ffffff" stroke="none" fill-opacity="0" transform="matrix(1 0 0 1 415 11182 )" />
    <path d="M 8.927999999999987 5.65305882352938  C 8.957117647058814 5.463000000000009  8.97194117647059 4.343823529411757  8.97194117647059 4.151117647058828  C 8.969294117647063 2.566588235294125  7.950705882352957 1.1154705882353089  6.457764705882342 0.5807647058823424  C 4.966411764705867 0.047117647058822806  2.32782352941176 0.5204117647058846  1.3224705882352892 1.7444117647058606  C 0.31711764705881795 2.968411764705867  0.1863529411764576 5.666823529411739  1.000058823529417 7.025823529411742  C 1.8137647058823463 8.384823529411747  4.363941176470585 9.105352941176447  5.917764705882352 8.797235294117627  C 7.4652352941176465 8.490176470588224  8.689235294117653 7.212705882352924  8.927999999999987 5.65305882352938  Z " stroke-width="4" stroke="#ffffff" fill="none" transform="matrix(1 0 0 1 415 11182 )" mask="url(#clip285)" />
  </g>
</svg>