<?xml version="1.0" encoding="utf-8"?>
<svg version="1.1" xmlns:xlink="http://www.w3.org/1999/xlink" width="15px" height="15px" xmlns="http://www.w3.org/2000/svg">
  <defs>
    <mask fill="white" id="clip397">
      <path d="M 14.879999999999978 9.4217647058823  C 14.92852941176469 9.105000000000015  14.95323529411765 7.2397058823529274  14.95323529411765 6.9185294117647125  C 14.948823529411772 4.277647058823542  13.251176470588263 1.8591176470588482  10.76294117647057 0.9679411764705707  C 8.277352941176446 0.07852941176470468  3.8797058823529333 0.8673529411764742  2.2041176470588155 2.907352941176434  C 0.5285294117646966 4.947352941176446  0.31058823529409596 9.444705882352899  1.6667647058823616 11.709705882352903  C 3.022941176470577 13.974705882352911  7.273235294117642 15.175588235294079  9.862941176470585 14.662058823529378  C 12.442058823529411 14.15029411764704  14.482058823529421 12.021176470588205  14.879999999999978 9.4217647058823  Z " fill-rule="evenodd" />
    </mask>
  </defs>
  <g transform="matrix(1 0 0 1 -729 -17970 )">
    <path d="M 14.879999999999978 9.4217647058823  C 14.92852941176469 9.105000000000015  14.95323529411765 7.2397058823529274  14.95323529411765 6.9185294117647125  C 14.948823529411772 4.277647058823542  13.251176470588263 1.8591176470588482  10.76294117647057 0.9679411764705707  C 8.277352941176446 0.07852941176470468  3.8797058823529333 0.8673529411764742  2.2041176470588155 2.907352941176434  C 0.5285294117646966 4.947352941176446  0.31058823529409596 9.444705882352899  1.6667647058823616 11.709705882352903  C 3.022941176470577 13.974705882352911  7.273235294117642 15.175588235294079  9.862941176470585 14.662058823529378  C 12.442058823529411 14.15029411764704  14.482058823529421 12.021176470588205  14.879999999999978 9.4217647058823  Z " fill-rule="nonzero" fill="#ffffff" stroke="none" fill-opacity="0" transform="matrix(1 0 0 1 729 17970 )" />
    <path d="M 14.879999999999978 9.4217647058823  C 14.92852941176469 9.105000000000015  14.95323529411765 7.2397058823529274  14.95323529411765 6.9185294117647125  C 14.948823529411772 4.277647058823542  13.251176470588263 1.8591176470588482  10.76294117647057 0.9679411764705707  C 8.277352941176446 0.07852941176470468  3.8797058823529333 0.8673529411764742  2.2041176470588155 2.907352941176434  C 0.5285294117646966 4.947352941176446  0.31058823529409596 9.444705882352899  1.6667647058823616 11.709705882352903  C 3.022941176470577 13.974705882352911  7.273235294117642 15.175588235294079  9.862941176470585 14.662058823529378  C 12.442058823529411 14.15029411764704  14.482058823529421 12.021176470588205  14.879999999999978 9.4217647058823  Z " stroke-width="2" stroke="#ffffff" fill="none" transform="matrix(1 0 0 1 729 17970 )" mask="url(#clip397)" />
  </g>
</svg>