<?xml version="1.0" encoding="utf-8"?>
<svg version="1.1" xmlns:xlink="http://www.w3.org/1999/xlink" width="10px" height="10px" xmlns="http://www.w3.org/2000/svg">
  <defs>
    <mask fill="white" id="clip288">
      <path d="M 9.74631578947364 6.257368421052577  C 9.778947368421074 6.047368421052637  9.79526315789473 4.9136842105263225  9.79526315789473 4.701052631578956  C 9.793684210526287 2.951052631578932  8.666315789473689 1.3473684210526626  7.017894736842077 0.7573684210526128  C 5.370526315789448 0.16789473684208422  2.558421052631574 0.6905263157894799  1.4478947368420627 2.0426315789473537  C 0.337368421052582 3.3947368421052273  0.19263157894733085 6.272631578947372  1.0915789473683677 7.773684210526306  C 1.9905263157894346 9.274736842105241  4.705263157894706 10.071052631578944  6.421052631578911 9.730526315789444  C 8.131052631578925 9.391578947368387  9.482105263157875 7.979999999999958  9.74631578947364 6.257368421052577  Z " fill-rule="evenodd" />
    </mask>
  </defs>
  <g transform="matrix(1 0 0 1 -452 -11249 )">
    <path d="M 9.74631578947364 6.257368421052577  C 9.778947368421074 6.047368421052637  9.79526315789473 4.9136842105263225  9.79526315789473 4.701052631578956  C 9.793684210526287 2.951052631578932  8.666315789473689 1.3473684210526626  7.017894736842077 0.7573684210526128  C 5.370526315789448 0.16789473684208422  2.558421052631574 0.6905263157894799  1.4478947368420627 2.0426315789473537  C 0.337368421052582 3.3947368421052273  0.19263157894733085 6.272631578947372  1.0915789473683677 7.773684210526306  C 1.9905263157894346 9.274736842105241  4.705263157894706 10.071052631578944  6.421052631578911 9.730526315789444  C 8.131052631578925 9.391578947368387  9.482105263157875 7.979999999999958  9.74631578947364 6.257368421052577  Z " fill-rule="nonzero" fill="#ffffff" stroke="none" fill-opacity="0" transform="matrix(1 0 0 1 452 11249 )" />
    <path d="M 9.74631578947364 6.257368421052577  C 9.778947368421074 6.047368421052637  9.79526315789473 4.9136842105263225  9.79526315789473 4.701052631578956  C 9.793684210526287 2.951052631578932  8.666315789473689 1.3473684210526626  7.017894736842077 0.7573684210526128  C 5.370526315789448 0.16789473684208422  2.558421052631574 0.6905263157894799  1.4478947368420627 2.0426315789473537  C 0.337368421052582 3.3947368421052273  0.19263157894733085 6.272631578947372  1.0915789473683677 7.773684210526306  C 1.9905263157894346 9.274736842105241  4.705263157894706 10.071052631578944  6.421052631578911 9.730526315789444  C 8.131052631578925 9.391578947368387  9.482105263157875 7.979999999999958  9.74631578947364 6.257368421052577  Z " stroke-width="4" stroke="#ffffff" fill="none" transform="matrix(1 0 0 1 452 11249 )" mask="url(#clip288)" />
  </g>
</svg>