<?xml version="1.0" encoding="utf-8"?>
<svg version="1.1" xmlns:xlink="http://www.w3.org/1999/xlink" width="14px" height="40px" xmlns="http://www.w3.org/2000/svg">
  <g transform="matrix(1 0 0 1 -678 -18038 )">
    <path d="M 12.531071428571433 31.104272727272715  C 12.44007142857142 23.783795454545427  12.349071428571408 16.462431818181802  12.25807142857145 9.141954545454514  C 12.23021428571433 6.863113636363582  12.33328571428575 4.515136363636308  12.010142857142881 2.255795454545418  C 11.95071428571429 1.8427499999999564  11.920071428571472 1.4164090909090523  11.5217142857143 1.2001363636363  C 10.809500000000018 0.8119090909090377  9.449142857142846 0.8509090909090223  8.663571428571467 0.8048181818180947  C 7.126785714285777 0.7135227272726828  5.572357142857173 0.7135227272726828  4.035571428571485 0.8048181818180947  C 3.250000000000053 0.8517954545453651  1.8896428571429331 0.8119090909090377  1.1774285714286512 1.2001363636363  C 1.0762142857143837 1.255090909090856  1.01121428571439 1.2923181818181553  0.9350714285714861 1.3800681818180955  C 0.7437857142857557 1.5989999999998759  0.7270714285714958 1.994318181818081  0.6890000000000701 2.255795454545418  C 0.4828571428572315 3.698795454545456  0.5014285714286432 5.194977272727264  0.4726428571429235 6.6477272727272725  C 0.425285714285792 9.013431818181802  0.4178571428571851 11.380022727272776  0.39000000000006757 13.745727272727306  C 0.2971428571429036 21.791250000000034  0.20335714285719017 29.83677272727276  0.11050000000007897 37.88140909090914  C 0.10864285714292725 38.055136363636436  0.1067857142857755 38.228863636363734  0.10400000000007431 38.402590909090925  " stroke-width="1" stroke="#ffffff" fill="none" transform="matrix(1 0 0 1 678 18038 )" />
  </g>
</svg>