<?xml version="1.0" encoding="utf-8"?>
<svg version="1.1" xmlns:xlink="http://www.w3.org/1999/xlink" width="14px" height="14px" xmlns="http://www.w3.org/2000/svg">
  <defs>
    <mask fill="white" id="clip402">
      <path d="M 13.646500000000053 8.705374999999961  C 13.658750000000012 8.625749999999954  13.743624999999994 6.249250000000046  13.717375000000018 6.249250000000046  C 13.713000000000022 3.703000000000074  12.076750000000018 1.3711250000000064  9.677500000000002 0.5127500000000111  C 7.281750000000002 -0.3447500000000048  2.9986250000000183 0.4156250000000199  1.3833750000000151 2.382624999999962  C -0.23187499999998806 4.349625000000003  -0.44274999999997533 8.72812499999992  0.8653750000000286 10.911249999999924  C 2.1735000000000326 13.094374999999928  6.313125000000028 14.25287499999989  8.809500000000035 13.757624999999962  C 11.296250000000022 13.264124999999993  13.262375000000034 11.21137499999999  13.646500000000053 8.705374999999961  Z " fill-rule="evenodd" />
    </mask>
  </defs>
  <g transform="matrix(1 0 0 1 -677 -18151 )">
    <path d="M 13.646500000000053 8.705374999999961  C 13.658750000000012 8.625749999999954  13.743624999999994 6.249250000000046  13.717375000000018 6.249250000000046  C 13.713000000000022 3.703000000000074  12.076750000000018 1.3711250000000064  9.677500000000002 0.5127500000000111  C 7.281750000000002 -0.3447500000000048  2.9986250000000183 0.4156250000000199  1.3833750000000151 2.382624999999962  C -0.23187499999998806 4.349625000000003  -0.44274999999997533 8.72812499999992  0.8653750000000286 10.911249999999924  C 2.1735000000000326 13.094374999999928  6.313125000000028 14.25287499999989  8.809500000000035 13.757624999999962  C 11.296250000000022 13.264124999999993  13.262375000000034 11.21137499999999  13.646500000000053 8.705374999999961  Z " fill-rule="nonzero" fill="#ffffff" stroke="none" fill-opacity="0" transform="matrix(1 0 0 1 677 18151 )" />
    <path d="M 13.646500000000053 8.705374999999961  C 13.658750000000012 8.625749999999954  13.743624999999994 6.249250000000046  13.717375000000018 6.249250000000046  C 13.713000000000022 3.703000000000074  12.076750000000018 1.3711250000000064  9.677500000000002 0.5127500000000111  C 7.281750000000002 -0.3447500000000048  2.9986250000000183 0.4156250000000199  1.3833750000000151 2.382624999999962  C -0.23187499999998806 4.349625000000003  -0.44274999999997533 8.72812499999992  0.8653750000000286 10.911249999999924  C 2.1735000000000326 13.094374999999928  6.313125000000028 14.25287499999989  8.809500000000035 13.757624999999962  C 11.296250000000022 13.264124999999993  13.262375000000034 11.21137499999999  13.646500000000053 8.705374999999961  Z " stroke-width="2" stroke="#ffffff" fill="none" transform="matrix(1 0 0 1 677 18151 )" mask="url(#clip402)" />
  </g>
</svg>