<?xml version="1.0" encoding="utf-8"?>
<svg version="1.1" xmlns:xlink="http://www.w3.org/1999/xlink" width="10px" height="9px" xmlns="http://www.w3.org/2000/svg">
  <defs>
    <mask fill="white" id="clip287">
      <path d="M 9.516315789473634 5.593499999999949  C 9.548947368421038 5.3940000000000055  9.565263157894726 4.317000000000007  9.565263157894726 4.115000000000009  C 9.563684210526311 2.4524999999999864  8.436315789473682 0.9290000000000305  6.787894736842101 0.3684999999999832  C 5.140526315789472 -0.1915000000000191  2.328421052631567 0.3050000000000068  1.2178947368420865 1.5894999999999868  C 0.10736842105260573 2.873999999999967  -0.037368421052645456 5.608000000000004  0.8615789473683915 7.033999999999992  C 1.7605263157894282 8.45999999999998  4.474736842105238 9.216499999999996  6.191052631578905 8.892999999999972  C 7.901052631578917 8.57099999999997  9.252105263157839 7.229999999999961  9.516315789473634 5.593499999999949  Z " fill-rule="evenodd" />
    </mask>
  </defs>
  <g transform="matrix(1 0 0 1 -437 -11220 )">
    <path d="M 9.516315789473634 5.593499999999949  C 9.548947368421038 5.3940000000000055  9.565263157894726 4.317000000000007  9.565263157894726 4.115000000000009  C 9.563684210526311 2.4524999999999864  8.436315789473682 0.9290000000000305  6.787894736842101 0.3684999999999832  C 5.140526315789472 -0.1915000000000191  2.328421052631567 0.3050000000000068  1.2178947368420865 1.5894999999999868  C 0.10736842105260573 2.873999999999967  -0.037368421052645456 5.608000000000004  0.8615789473683915 7.033999999999992  C 1.7605263157894282 8.45999999999998  4.474736842105238 9.216499999999996  6.191052631578905 8.892999999999972  C 7.901052631578917 8.57099999999997  9.252105263157839 7.229999999999961  9.516315789473634 5.593499999999949  Z " fill-rule="nonzero" fill="#ffffff" stroke="none" fill-opacity="0" transform="matrix(1 0 0 1 437 11220 )" />
    <path d="M 9.516315789473634 5.593499999999949  C 9.548947368421038 5.3940000000000055  9.565263157894726 4.317000000000007  9.565263157894726 4.115000000000009  C 9.563684210526311 2.4524999999999864  8.436315789473682 0.9290000000000305  6.787894736842101 0.3684999999999832  C 5.140526315789472 -0.1915000000000191  2.328421052631567 0.3050000000000068  1.2178947368420865 1.5894999999999868  C 0.10736842105260573 2.873999999999967  -0.037368421052645456 5.608000000000004  0.8615789473683915 7.033999999999992  C 1.7605263157894282 8.45999999999998  4.474736842105238 9.216499999999996  6.191052631578905 8.892999999999972  C 7.901052631578917 8.57099999999997  9.252105263157839 7.229999999999961  9.516315789473634 5.593499999999949  Z " stroke-width="4" stroke="#ffffff" fill="none" transform="matrix(1 0 0 1 437 11220 )" mask="url(#clip287)" />
  </g>
</svg>