<?xml version="1.0" encoding="utf-8"?>
<svg version="1.1" xmlns:xlink="http://www.w3.org/1999/xlink" width="8px" height="8px" xmlns="http://www.w3.org/2000/svg">
  <defs>
    <mask fill="white" id="clip290">
      <path d="M 7.79800000000003 4.974499999999978  C 7.805000000000007 4.928999999999974  7.853499999999997 3.5710000000000264  7.8385000000000105 3.5710000000000264  C 7.836000000000013 2.1160000000000423  6.9010000000000105 0.7835000000000036  5.530000000000001 0.29300000000000637  C 4.161000000000001 -0.19700000000000273  1.7135000000000105 0.23750000000001137  0.7905000000000086 1.3614999999999782  C -0.13249999999999318 2.485500000000002  -0.2529999999999859 4.9874999999999545  0.49450000000001637 6.234999999999957  C 1.2420000000000186 7.482499999999959  3.607500000000016 8.144499999999937  5.03400000000002 7.861499999999978  C 6.4550000000000125 7.579499999999996  7.5785000000000196 6.406499999999994  7.79800000000003 4.974499999999978  Z " fill-rule="evenodd" />
    </mask>
  </defs>
  <g transform="matrix(1 0 0 1 -386 -11284 )">
    <path d="M 7.79800000000003 4.974499999999978  C 7.805000000000007 4.928999999999974  7.853499999999997 3.5710000000000264  7.8385000000000105 3.5710000000000264  C 7.836000000000013 2.1160000000000423  6.9010000000000105 0.7835000000000036  5.530000000000001 0.29300000000000637  C 4.161000000000001 -0.19700000000000273  1.7135000000000105 0.23750000000001137  0.7905000000000086 1.3614999999999782  C -0.13249999999999318 2.485500000000002  -0.2529999999999859 4.9874999999999545  0.49450000000001637 6.234999999999957  C 1.2420000000000186 7.482499999999959  3.607500000000016 8.144499999999937  5.03400000000002 7.861499999999978  C 6.4550000000000125 7.579499999999996  7.5785000000000196 6.406499999999994  7.79800000000003 4.974499999999978  Z " fill-rule="nonzero" fill="#ffffff" stroke="none" fill-opacity="0" transform="matrix(1 0 0 1 386 11284 )" />
    <path d="M 7.79800000000003 4.974499999999978  C 7.805000000000007 4.928999999999974  7.853499999999997 3.5710000000000264  7.8385000000000105 3.5710000000000264  C 7.836000000000013 2.1160000000000423  6.9010000000000105 0.7835000000000036  5.530000000000001 0.29300000000000637  C 4.161000000000001 -0.19700000000000273  1.7135000000000105 0.23750000000001137  0.7905000000000086 1.3614999999999782  C -0.13249999999999318 2.485500000000002  -0.2529999999999859 4.9874999999999545  0.49450000000001637 6.234999999999957  C 1.2420000000000186 7.482499999999959  3.607500000000016 8.144499999999937  5.03400000000002 7.861499999999978  C 6.4550000000000125 7.579499999999996  7.5785000000000196 6.406499999999994  7.79800000000003 4.974499999999978  Z " stroke-width="4" stroke="#ffffff" fill="none" transform="matrix(1 0 0 1 386 11284 )" mask="url(#clip290)" />
  </g>
</svg>