<?xml version="1.0" encoding="utf-8"?>
<svg version="1.1" xmlns:xlink="http://www.w3.org/1999/xlink" width="17px" height="17px" xmlns="http://www.w3.org/2000/svg">
  <defs>
    <mask fill="white" id="clip398">
      <path d="M 16.285999999999948 10.358368421052528  C 16.341473684210534 10.001368421052629  16.369210526315804 8.074105263157895  16.369210526315804 7.712631578947373  C 16.3665263157895 4.737631578947332  14.45000000000003 2.011368421052674  11.647684210526341 1.0083684210525892  C 8.84715789473687 0.006263157894690458  4.066578947368435 0.894736842105263  2.1786842105263178 3.1933157894736484  C 0.29078947368420033 5.491894736842034  0.04473684210527333 10.38431578947368  1.572947368421036 12.936105263157868  C 3.101157894736849 15.487894736842055  7.715315789473675 16.84163157894735  10.63305263157891 16.262736842105202  C 13.54005263157893 15.686526315789406  15.836842105263099 13.286842105263077  16.285999999999948 10.358368421052528  Z " fill-rule="evenodd" />
    </mask>
  </defs>
  <g transform="matrix(1 0 0 1 -780 -18056 )">
    <path d="M 16.285999999999948 10.358368421052528  C 16.341473684210534 10.001368421052629  16.369210526315804 8.074105263157895  16.369210526315804 7.712631578947373  C 16.3665263157895 4.737631578947332  14.45000000000003 2.011368421052674  11.647684210526341 1.0083684210525892  C 8.84715789473687 0.006263157894690458  4.066578947368435 0.894736842105263  2.1786842105263178 3.1933157894736484  C 0.29078947368420033 5.491894736842034  0.04473684210527333 10.38431578947368  1.572947368421036 12.936105263157868  C 3.101157894736849 15.487894736842055  7.715315789473675 16.84163157894735  10.63305263157891 16.262736842105202  C 13.54005263157893 15.686526315789406  15.836842105263099 13.286842105263077  16.285999999999948 10.358368421052528  Z " fill-rule="nonzero" fill="#ffffff" stroke="none" fill-opacity="0" transform="matrix(1 0 0 1 780 18056 )" />
    <path d="M 16.285999999999948 10.358368421052528  C 16.341473684210534 10.001368421052629  16.369210526315804 8.074105263157895  16.369210526315804 7.712631578947373  C 16.3665263157895 4.737631578947332  14.45000000000003 2.011368421052674  11.647684210526341 1.0083684210525892  C 8.84715789473687 0.006263157894690458  4.066578947368435 0.894736842105263  2.1786842105263178 3.1933157894736484  C 0.29078947368420033 5.491894736842034  0.04473684210527333 10.38431578947368  1.572947368421036 12.936105263157868  C 3.101157894736849 15.487894736842055  7.715315789473675 16.84163157894735  10.63305263157891 16.262736842105202  C 13.54005263157893 15.686526315789406  15.836842105263099 13.286842105263077  16.285999999999948 10.358368421052528  Z " stroke-width="2" stroke="#ffffff" fill="none" transform="matrix(1 0 0 1 780 18056 )" mask="url(#clip398)" />
  </g>
</svg>