<?xml version="1.0" encoding="utf-8"?>
<svg version="1.1" xmlns:xlink="http://www.w3.org/1999/xlink" width="10px" height="10px" xmlns="http://www.w3.org/2000/svg">
  <defs>
    <mask fill="white" id="clip286">
      <path d="M 9.57999999999997 6.093157894736781  C 9.612631578947374 5.88315789473684  9.628947368421061 4.7494736842105265  9.628947368421061 4.53684210526316  C 9.627368421052648 2.7868421052631365  8.500000000000018 1.183157894736867  6.851578947368436 0.5931578947368172  C 5.204210526315807 0.0036842105262885044  2.3921052631579034 0.5263157894736842  1.2815789473684223 1.878421052631558  C 0.17105263157894138 3.2305263157894313  0.026315789473690194 6.108421052631576  0.925263157894727 7.60947368421051  C 1.8242105263157937 9.110526315789444  4.538421052631573 9.906842105263147  6.254736842105241 9.566315789473649  C 7.964736842105253 9.227368421052592  9.315789473684175 7.815789473684163  9.57999999999997 6.093157894736781  Z " fill-rule="evenodd" />
    </mask>
  </defs>
  <g transform="matrix(1 0 0 1 -444 -11230 )">
    <path d="M 9.57999999999997 6.093157894736781  C 9.612631578947374 5.88315789473684  9.628947368421061 4.7494736842105265  9.628947368421061 4.53684210526316  C 9.627368421052648 2.7868421052631365  8.500000000000018 1.183157894736867  6.851578947368436 0.5931578947368172  C 5.204210526315807 0.0036842105262885044  2.3921052631579034 0.5263157894736842  1.2815789473684223 1.878421052631558  C 0.17105263157894138 3.2305263157894313  0.026315789473690194 6.108421052631576  0.925263157894727 7.60947368421051  C 1.8242105263157937 9.110526315789444  4.538421052631573 9.906842105263147  6.254736842105241 9.566315789473649  C 7.964736842105253 9.227368421052592  9.315789473684175 7.815789473684163  9.57999999999997 6.093157894736781  Z " fill-rule="nonzero" fill="#ffffff" stroke="none" fill-opacity="0" transform="matrix(1 0 0 1 444 11230 )" />
    <path d="M 9.57999999999997 6.093157894736781  C 9.612631578947374 5.88315789473684  9.628947368421061 4.7494736842105265  9.628947368421061 4.53684210526316  C 9.627368421052648 2.7868421052631365  8.500000000000018 1.183157894736867  6.851578947368436 0.5931578947368172  C 5.204210526315807 0.0036842105262885044  2.3921052631579034 0.5263157894736842  1.2815789473684223 1.878421052631558  C 0.17105263157894138 3.2305263157894313  0.026315789473690194 6.108421052631576  0.925263157894727 7.60947368421051  C 1.8242105263157937 9.110526315789444  4.538421052631573 9.906842105263147  6.254736842105241 9.566315789473649  C 7.964736842105253 9.227368421052592  9.315789473684175 7.815789473684163  9.57999999999997 6.093157894736781  Z " stroke-width="4" stroke="#ffffff" fill="none" transform="matrix(1 0 0 1 444 11230 )" mask="url(#clip286)" />
  </g>
</svg>