<?xml version="1.0" encoding="utf-8"?>
<svg version="1.1" xmlns:xlink="http://www.w3.org/1999/xlink" width="8px" height="8px" xmlns="http://www.w3.org/2000/svg">
  <defs>
    <mask fill="white" id="clip289">
      <path d="M 7.8145000000000095 4.974499999999978  C 7.841499999999996 4.799500000000023  7.855000000000018 3.7475000000000023  7.855000000000018 3.5710000000000264  C 7.8525000000000205 2.1160000000000423  6.917500000000018 0.7835000000000036  5.546500000000037 0.29300000000000637  C 4.177000000000021 -0.19700000000000273  1.7300000000000182 0.23750000000001137  0.8070000000000164 1.3614999999999782  C -0.11599999999998545 2.485500000000002  -0.23649999999997817 4.9874999999999545  0.5110000000000241 6.234999999999957  C 1.2580000000000382 7.482499999999959  3.6240000000000236 8.144499999999937  5.050500000000028 7.861499999999978  C 6.471500000000049 7.579499999999996  7.595000000000027 6.406499999999994  7.8145000000000095 4.974499999999978  Z " fill-rule="evenodd" />
    </mask>
  </defs>
  <g transform="matrix(1 0 0 1 -449 -11284 )">
    <path d="M 7.8145000000000095 4.974499999999978  C 7.841499999999996 4.799500000000023  7.855000000000018 3.7475000000000023  7.855000000000018 3.5710000000000264  C 7.8525000000000205 2.1160000000000423  6.917500000000018 0.7835000000000036  5.546500000000037 0.29300000000000637  C 4.177000000000021 -0.19700000000000273  1.7300000000000182 0.23750000000001137  0.8070000000000164 1.3614999999999782  C -0.11599999999998545 2.485500000000002  -0.23649999999997817 4.9874999999999545  0.5110000000000241 6.234999999999957  C 1.2580000000000382 7.482499999999959  3.6240000000000236 8.144499999999937  5.050500000000028 7.861499999999978  C 6.471500000000049 7.579499999999996  7.595000000000027 6.406499999999994  7.8145000000000095 4.974499999999978  Z " fill-rule="nonzero" fill="#ffffff" stroke="none" fill-opacity="0" transform="matrix(1 0 0 1 449 11284 )" />
    <path d="M 7.8145000000000095 4.974499999999978  C 7.841499999999996 4.799500000000023  7.855000000000018 3.7475000000000023  7.855000000000018 3.5710000000000264  C 7.8525000000000205 2.1160000000000423  6.917500000000018 0.7835000000000036  5.546500000000037 0.29300000000000637  C 4.177000000000021 -0.19700000000000273  1.7300000000000182 0.23750000000001137  0.8070000000000164 1.3614999999999782  C -0.11599999999998545 2.485500000000002  -0.23649999999997817 4.9874999999999545  0.5110000000000241 6.234999999999957  C 1.2580000000000382 7.482499999999959  3.6240000000000236 8.144499999999937  5.050500000000028 7.861499999999978  C 6.471500000000049 7.579499999999996  7.595000000000027 6.406499999999994  7.8145000000000095 4.974499999999978  Z " stroke-width="4" stroke="#ffffff" fill="none" transform="matrix(1 0 0 1 449 11284 )" mask="url(#clip289)" />
  </g>
</svg>