<?xml version="1.0" encoding="utf-8"?>
<svg version="1.1" xmlns:xlink="http://www.w3.org/1999/xlink" width="14px" height="14px" xmlns="http://www.w3.org/2000/svg">
  <defs>
    <mask fill="white" id="clip401">
      <path d="M 13.675375000000017 8.705374999999961  C 13.722624999999994 8.39912500000004  13.746250000000032 6.558125000000004  13.746250000000032 6.249250000000046  C 13.741875000000036 3.703000000000074  12.105625000000032 1.3711250000000064  9.706375000000065 0.5127500000000111  C 7.309750000000037 -0.3447500000000048  3.027500000000032 0.4156250000000199  1.4122500000000286 2.382624999999962  C -0.20299999999997453 4.349625000000003  -0.4138749999999618 8.72812499999992  0.8942500000000422 10.911249999999924  C 2.201500000000067 13.094374999999928  6.342000000000041 14.25287499999989  8.838375000000049 13.757624999999962  C 11.325125000000085 13.264124999999993  13.291250000000048 11.21137499999999  13.675375000000017 8.705374999999961  Z " fill-rule="evenodd" />
    </mask>
  </defs>
  <g transform="matrix(1 0 0 1 -789 -18151 )">
    <path d="M 13.675375000000017 8.705374999999961  C 13.722624999999994 8.39912500000004  13.746250000000032 6.558125000000004  13.746250000000032 6.249250000000046  C 13.741875000000036 3.703000000000074  12.105625000000032 1.3711250000000064  9.706375000000065 0.5127500000000111  C 7.309750000000037 -0.3447500000000048  3.027500000000032 0.4156250000000199  1.4122500000000286 2.382624999999962  C -0.20299999999997453 4.349625000000003  -0.4138749999999618 8.72812499999992  0.8942500000000422 10.911249999999924  C 2.201500000000067 13.094374999999928  6.342000000000041 14.25287499999989  8.838375000000049 13.757624999999962  C 11.325125000000085 13.264124999999993  13.291250000000048 11.21137499999999  13.675375000000017 8.705374999999961  Z " fill-rule="nonzero" fill="#ffffff" stroke="none" fill-opacity="0" transform="matrix(1 0 0 1 789 18151 )" />
    <path d="M 13.675375000000017 8.705374999999961  C 13.722624999999994 8.39912500000004  13.746250000000032 6.558125000000004  13.746250000000032 6.249250000000046  C 13.741875000000036 3.703000000000074  12.105625000000032 1.3711250000000064  9.706375000000065 0.5127500000000111  C 7.309750000000037 -0.3447500000000048  3.027500000000032 0.4156250000000199  1.4122500000000286 2.382624999999962  C -0.20299999999997453 4.349625000000003  -0.4138749999999618 8.72812499999992  0.8942500000000422 10.911249999999924  C 2.201500000000067 13.094374999999928  6.342000000000041 14.25287499999989  8.838375000000049 13.757624999999962  C 11.325125000000085 13.264124999999993  13.291250000000048 11.21137499999999  13.675375000000017 8.705374999999961  Z " stroke-width="2" stroke="#ffffff" fill="none" transform="matrix(1 0 0 1 789 18151 )" mask="url(#clip401)" />
  </g>
</svg>