<?xml version="1.0" encoding="utf-8"?>
<svg version="1.1" xmlns:xlink="http://www.w3.org/1999/xlink" width="17px" height="16px" xmlns="http://www.w3.org/2000/svg">
  <defs>
    <mask fill="white" id="clip399">
      <path d="M 16.177736842105176 9.94399999999991  C 16.233210526315766 9.589333333333343  16.260947368421032 7.674666666666679  16.260947368421032 7.315555555555572  C 16.25826315789473 4.3599999999999755  14.34173684210526 1.6515555555556096  11.539421052631571 0.6551111111110812  C 8.738894736842102 -0.3404444444444784  3.9583157894736645 0.5422222222222344  2.070421052631547 2.825777777777754  C 0.18252631578942974 5.109333333333274  -0.06352631578949729 9.969777777777786  1.4646842105262654 12.504888888888875  C 2.992894736842028 15.039999999999964  7.607052631578904 16.38488888888888  10.52478947368414 15.809777777777729  C 13.43178947368416 15.237333333333279  15.728578947368327 12.853333333333264  16.177736842105176 9.94399999999991  Z " fill-rule="evenodd" />
    </mask>
  </defs>
  <g transform="matrix(1 0 0 1 -767 -18037 )">
    <path d="M 16.177736842105176 9.94399999999991  C 16.233210526315766 9.589333333333343  16.260947368421032 7.674666666666679  16.260947368421032 7.315555555555572  C 16.25826315789473 4.3599999999999755  14.34173684210526 1.6515555555556096  11.539421052631571 0.6551111111110812  C 8.738894736842102 -0.3404444444444784  3.9583157894736645 0.5422222222222344  2.070421052631547 2.825777777777754  C 0.18252631578942974 5.109333333333274  -0.06352631578949729 9.969777777777786  1.4646842105262654 12.504888888888875  C 2.992894736842028 15.039999999999964  7.607052631578904 16.38488888888888  10.52478947368414 15.809777777777729  C 13.43178947368416 15.237333333333279  15.728578947368327 12.853333333333264  16.177736842105176 9.94399999999991  Z " fill-rule="nonzero" fill="#ffffff" stroke="none" fill-opacity="0" transform="matrix(1 0 0 1 767 18037 )" />
    <path d="M 16.177736842105176 9.94399999999991  C 16.233210526315766 9.589333333333343  16.260947368421032 7.674666666666679  16.260947368421032 7.315555555555572  C 16.25826315789473 4.3599999999999755  14.34173684210526 1.6515555555556096  11.539421052631571 0.6551111111110812  C 8.738894736842102 -0.3404444444444784  3.9583157894736645 0.5422222222222344  2.070421052631547 2.825777777777754  C 0.18252631578942974 5.109333333333274  -0.06352631578949729 9.969777777777786  1.4646842105262654 12.504888888888875  C 2.992894736842028 15.039999999999964  7.607052631578904 16.38488888888888  10.52478947368414 15.809777777777729  C 13.43178947368416 15.237333333333279  15.728578947368327 12.853333333333264  16.177736842105176 9.94399999999991  Z " stroke-width="2" stroke="#ffffff" fill="none" transform="matrix(1 0 0 1 767 18037 )" mask="url(#clip399)" />
  </g>
</svg>