<?xml version="1.0" encoding="utf-8"?>
<svg version="1.1" xmlns:xlink="http://www.w3.org/1999/xlink" width="17px" height="17px" xmlns="http://www.w3.org/2000/svg">
  <defs>
    <mask fill="white" id="clip400">
      <path d="M 16.56873684210519 10.637526315789382  C 16.624210526315824 10.280526315789484  16.651947368421045 8.353263157894748  16.651947368421045 7.991789473684225  C 16.64926315789469 5.0167894736841845  14.73273684210527 2.2905263157895264  11.930421052631532 1.2875263157894419  C 9.129894736842061 0.28542105263154316  4.349315789473676 1.1738947368421158  2.461421052631507 3.4724736842105015  C 0.5735263157893894 5.771052631578886  0.32747368421046247 10.663473684210532  1.855684210526225 13.21526315789472  C 3.3838947368420387 15.76705263157891  7.998947368421 17.1207894736842  10.91578947368415 16.541894736842053  C 13.822789473684171 15.965684210526259  16.11957894736839 13.56599999999993  16.56873684210519 10.637526315789382  Z " fill-rule="evenodd" />
    </mask>
  </defs>
  <g transform="matrix(1 0 0 1 -794 -18088 )">
    <path d="M 16.56873684210519 10.637526315789382  C 16.624210526315824 10.280526315789484  16.651947368421045 8.353263157894748  16.651947368421045 7.991789473684225  C 16.64926315789469 5.0167894736841845  14.73273684210527 2.2905263157895264  11.930421052631532 1.2875263157894419  C 9.129894736842061 0.28542105263154316  4.349315789473676 1.1738947368421158  2.461421052631507 3.4724736842105015  C 0.5735263157893894 5.771052631578886  0.32747368421046247 10.663473684210532  1.855684210526225 13.21526315789472  C 3.3838947368420387 15.76705263157891  7.998947368421 17.1207894736842  10.91578947368415 16.541894736842053  C 13.822789473684171 15.965684210526259  16.11957894736839 13.56599999999993  16.56873684210519 10.637526315789382  Z " fill-rule="nonzero" fill="#ffffff" stroke="none" fill-opacity="0" transform="matrix(1 0 0 1 794 18088 )" />
    <path d="M 16.56873684210519 10.637526315789382  C 16.624210526315824 10.280526315789484  16.651947368421045 8.353263157894748  16.651947368421045 7.991789473684225  C 16.64926315789469 5.0167894736841845  14.73273684210527 2.2905263157895264  11.930421052631532 1.2875263157894419  C 9.129894736842061 0.28542105263154316  4.349315789473676 1.1738947368421158  2.461421052631507 3.4724736842105015  C 0.5735263157893894 5.771052631578886  0.32747368421046247 10.663473684210532  1.855684210526225 13.21526315789472  C 3.3838947368420387 15.76705263157891  7.998947368421 17.1207894736842  10.91578947368415 16.541894736842053  C 13.822789473684171 15.965684210526259  16.11957894736839 13.56599999999993  16.56873684210519 10.637526315789382  Z " stroke-width="2" stroke="#ffffff" fill="none" transform="matrix(1 0 0 1 794 18088 )" mask="url(#clip400)" />
  </g>
</svg>