<?xml version="1.0" encoding="utf-8"?>
<svg version="1.1" xmlns:xlink="http://www.w3.org/1999/xlink" width="17px" height="16px" xmlns="http://www.w3.org/2000/svg">
  <defs>
    <mask fill="white" id="clip404">
      <path d="M 16.1016842105264 9.92088888888884  C 16.155368421052668 9.574222222222184  16.1822105263158 7.6693333333333715  16.1822105263158 7.319111111111145  C 16.17773684210528 4.437333333333401  14.312210526315772 1.797333333333376  11.578789473684237 0.8248888888888865  C 8.84894736842104 -0.14577777777776646  4.1480000000000725 0.7146666666666432  2.3075263157895316 2.941333333333306  C 0.4670526315789905 5.167999999999968  0.22726315789475393 9.945777777777746  1.7170000000000862 12.417777777777701  C 3.2067368421053173 14.888888888888788  7.7457368421054 16.200888888888787  10.590105263158007 15.639999999999922  C 13.424631578947487 15.080888888888795  15.66236842105273 12.75822222222218  16.1016842105264 9.92088888888884  Z " fill-rule="evenodd" />
    </mask>
  </defs>
  <g transform="matrix(1 0 0 1 -824 -18041 )">
    <path d="M 16.1016842105264 9.92088888888884  C 16.155368421052668 9.574222222222184  16.1822105263158 7.6693333333333715  16.1822105263158 7.319111111111145  C 16.17773684210528 4.437333333333401  14.312210526315772 1.797333333333376  11.578789473684237 0.8248888888888865  C 8.84894736842104 -0.14577777777776646  4.1480000000000725 0.7146666666666432  2.3075263157895316 2.941333333333306  C 0.4670526315789905 5.167999999999968  0.22726315789475393 9.945777777777746  1.7170000000000862 12.417777777777701  C 3.2067368421053173 14.888888888888788  7.7457368421054 16.200888888888787  10.590105263158007 15.639999999999922  C 13.424631578947487 15.080888888888795  15.66236842105273 12.75822222222218  16.1016842105264 9.92088888888884  Z " fill-rule="nonzero" fill="#ffffff" stroke="none" fill-opacity="0" transform="matrix(1 0 0 1 824 18041 )" />
    <path d="M 16.1016842105264 9.92088888888884  C 16.155368421052668 9.574222222222184  16.1822105263158 7.6693333333333715  16.1822105263158 7.319111111111145  C 16.17773684210528 4.437333333333401  14.312210526315772 1.797333333333376  11.578789473684237 0.8248888888888865  C 8.84894736842104 -0.14577777777776646  4.1480000000000725 0.7146666666666432  2.3075263157895316 2.941333333333306  C 0.4670526315789905 5.167999999999968  0.22726315789475393 9.945777777777746  1.7170000000000862 12.417777777777701  C 3.2067368421053173 14.888888888888788  7.7457368421054 16.200888888888787  10.590105263158007 15.639999999999922  C 13.424631578947487 15.080888888888795  15.66236842105273 12.75822222222218  16.1016842105264 9.92088888888884  Z " stroke-width="2" stroke="#ffffff" fill="none" transform="matrix(1 0 0 1 824 18041 )" mask="url(#clip404)" />
  </g>
</svg>