<?xml version="1.0" encoding="utf-8"?>
<svg version="1.1" xmlns:xlink="http://www.w3.org/1999/xlink" width="9px" height="9px" xmlns="http://www.w3.org/2000/svg">
  <defs>
    <mask fill="white" id="clip293">
      <path d="M 8.467411764705837 5.49423529411761  C 8.494941176470615 5.314235294117653  8.509235294117635 4.205647058823509  8.509235294117635 4.024058823529411  C 8.50817647058825 2.527941176470576  7.54358823529413 1.156764705882324  6.134823529411746 0.6522352941176316  C 4.726588235294116 0.14823529411763262  2.1827647058823176 0.5950588235294243  1.2335294117646673 1.7512941176470551  C 0.2837647058823236 2.9075294117646857  0.16041176470582072 5.506941176470611  0.9285882352940676 6.790764705882352  C 1.6967647058823145 8.074058823529398  4.1574705882352685 8.754882352941195  5.624470588235246 8.463705882352924  C 7.08617647058817 8.1735882352941  8.241882352941108 6.9670588235293955  8.467411764705837 5.49423529411761  Z " fill-rule="evenodd" />
    </mask>
  </defs>
  <g transform="matrix(1 0 0 1 -481 -11255 )">
    <path d="M 8.467411764705837 5.49423529411761  C 8.494941176470615 5.314235294117653  8.509235294117635 4.205647058823509  8.509235294117635 4.024058823529411  C 8.50817647058825 2.527941176470576  7.54358823529413 1.156764705882324  6.134823529411746 0.6522352941176316  C 4.726588235294116 0.14823529411763262  2.1827647058823176 0.5950588235294243  1.2335294117646673 1.7512941176470551  C 0.2837647058823236 2.9075294117646857  0.16041176470582072 5.506941176470611  0.9285882352940676 6.790764705882352  C 1.6967647058823145 8.074058823529398  4.1574705882352685 8.754882352941195  5.624470588235246 8.463705882352924  C 7.08617647058817 8.1735882352941  8.241882352941108 6.9670588235293955  8.467411764705837 5.49423529411761  Z " fill-rule="nonzero" fill="#ffffff" stroke="none" fill-opacity="0" transform="matrix(1 0 0 1 481 11255 )" />
    <path d="M 8.467411764705837 5.49423529411761  C 8.494941176470615 5.314235294117653  8.509235294117635 4.205647058823509  8.509235294117635 4.024058823529411  C 8.50817647058825 2.527941176470576  7.54358823529413 1.156764705882324  6.134823529411746 0.6522352941176316  C 4.726588235294116 0.14823529411763262  2.1827647058823176 0.5950588235294243  1.2335294117646673 1.7512941176470551  C 0.2837647058823236 2.9075294117646857  0.16041176470582072 5.506941176470611  0.9285882352940676 6.790764705882352  C 1.6967647058823145 8.074058823529398  4.1574705882352685 8.754882352941195  5.624470588235246 8.463705882352924  C 7.08617647058817 8.1735882352941  8.241882352941108 6.9670588235293955  8.467411764705837 5.49423529411761  Z " stroke-width="4" stroke="#ffffff" fill="none" transform="matrix(1 0 0 1 481 11255 )" mask="url(#clip293)" />
  </g>
</svg>