<?xml version="1.0" encoding="utf-8"?>
<svg version="1.1" xmlns:xlink="http://www.w3.org/1999/xlink" width="15px" height="15px" xmlns="http://www.w3.org/2000/svg">
  <defs>
    <mask fill="white" id="clip405">
      <path d="M 14.112352941176397 9.15705882352935  C 14.158235294117691 8.857058823529421  14.182058823529392 7.009411764705847  14.182058823529392 6.706764705882351  C 14.180294117647083 4.213235294117627  12.572647058823549 1.92794117647054  10.224705882352911 1.0870588235293859  C 7.877647058823527 0.24705882352938768  3.6379411764705294 0.9917647058823738  2.0558823529411123 2.9188235294117586  C 0.4729411764705393 4.845882352941143  0.2673529411763679 9.178235294117684  1.547647058823446 11.317941176470587  C 2.8279411764705245 13.456764705882332  6.929117647058781 14.591470588235325  9.374117647058743 14.106176470588206  C 11.81029411764695 13.6226470588235  13.736470588235179 11.611764705882326  14.112352941176397 9.15705882352935  Z " fill-rule="evenodd" />
    </mask>
  </defs>
  <g transform="matrix(1 0 0 1 -845 -18100 )">
    <path d="M 14.112352941176397 9.15705882352935  C 14.158235294117691 8.857058823529421  14.182058823529392 7.009411764705847  14.182058823529392 6.706764705882351  C 14.180294117647083 4.213235294117627  12.572647058823549 1.92794117647054  10.224705882352911 1.0870588235293859  C 7.877647058823527 0.24705882352938768  3.6379411764705294 0.9917647058823738  2.0558823529411123 2.9188235294117586  C 0.4729411764705393 4.845882352941143  0.2673529411763679 9.178235294117684  1.547647058823446 11.317941176470587  C 2.8279411764705245 13.456764705882332  6.929117647058781 14.591470588235325  9.374117647058743 14.106176470588206  C 11.81029411764695 13.6226470588235  13.736470588235179 11.611764705882326  14.112352941176397 9.15705882352935  Z " fill-rule="nonzero" fill="#ffffff" stroke="none" fill-opacity="0" transform="matrix(1 0 0 1 845 18100 )" />
    <path d="M 14.112352941176397 9.15705882352935  C 14.158235294117691 8.857058823529421  14.182058823529392 7.009411764705847  14.182058823529392 6.706764705882351  C 14.180294117647083 4.213235294117627  12.572647058823549 1.92794117647054  10.224705882352911 1.0870588235293859  C 7.877647058823527 0.24705882352938768  3.6379411764705294 0.9917647058823738  2.0558823529411123 2.9188235294117586  C 0.4729411764705393 4.845882352941143  0.2673529411763679 9.178235294117684  1.547647058823446 11.317941176470587  C 2.8279411764705245 13.456764705882332  6.929117647058781 14.591470588235325  9.374117647058743 14.106176470588206  C 11.81029411764695 13.6226470588235  13.736470588235179 11.611764705882326  14.112352941176397 9.15705882352935  Z " stroke-width="2" stroke="#ffffff" fill="none" transform="matrix(1 0 0 1 845 18100 )" mask="url(#clip405)" />
  </g>
</svg>