<?xml version="1.0" encoding="utf-8"?>
<svg version="1.1" xmlns:xlink="http://www.w3.org/1999/xlink" width="15px" height="24px" xmlns="http://www.w3.org/2000/svg">
  <defs>
    <mask fill="white" id="clip291">
      <path d="M 5.975689655172412 13.121872340425533  C 6.1044827586207004 12.890042553191515  6.50896551724138 11.519489361702112  6.50896551724138 11.259574468085084  C 7.851724137931038 9.011744680851018  10.06293103448275 6.743489361702078  11.22103448275863 4.3965957446808  C 11.731551724137951 3.362042553191462  12.180000000000001 2.2284255319148523  12.867413793103454 1.2888510638297297  C 13.081034482758632 0.9972765957446099  13.364999999999998 0.6311489361701497  13.732758620689662 0.5218723404254986  C 14.091724137931049 0.415659574468067  14.362758620689672 0.6270638297872094  14.5298275862069 0.9334468085106253  C 15.156724137931034 2.083404255319112  14.584137931034496 3.773617021276589  14.158965517241391 4.876595744680828  C 13.217586206896568 7.31897872340424  11.836551724137937 10.505361702127649  10.543965517241404 12.778212765957447  C 9.206379310344845 15.129702127659584  6.9667241379310605 17.4975319148936  5.451724137931045 19.743829787234024  C 4.541896551724141 21.092936170212774  3.407586206896563 22.75608510638296  1.7891379310344844 23.35302127659572  C 1.4032758620689771 23.4954893617021  0.7660344827586179 23.628765957446763  0.5017241379310486 23.20544680851062  C 0.06568965517241873 22.50842553191487  0.9491379310345015 21.281872340425483  1.288965517241389 20.751829787234048  C 2.7305172413793084 18.5024680851064  4.195862068965529 16.287829787234067  5.506551724137939 13.958808510638303  C 5.663275862068972 13.67999999999998  5.8210344827586304 13.401702127659577  5.975689655172412 13.121872340425533  Z " fill-rule="evenodd" />
    </mask>
  </defs>
  <g transform="matrix(1 0 0 1 -432 -11268 )">
    <path d="M 5.975689655172412 13.121872340425533  C 6.1044827586207004 12.890042553191515  6.50896551724138 11.519489361702112  6.50896551724138 11.259574468085084  C 7.851724137931038 9.011744680851018  10.06293103448275 6.743489361702078  11.22103448275863 4.3965957446808  C 11.731551724137951 3.362042553191462  12.180000000000001 2.2284255319148523  12.867413793103454 1.2888510638297297  C 13.081034482758632 0.9972765957446099  13.364999999999998 0.6311489361701497  13.732758620689662 0.5218723404254986  C 14.091724137931049 0.415659574468067  14.362758620689672 0.6270638297872094  14.5298275862069 0.9334468085106253  C 15.156724137931034 2.083404255319112  14.584137931034496 3.773617021276589  14.158965517241391 4.876595744680828  C 13.217586206896568 7.31897872340424  11.836551724137937 10.505361702127649  10.543965517241404 12.778212765957447  C 9.206379310344845 15.129702127659584  6.9667241379310605 17.4975319148936  5.451724137931045 19.743829787234024  C 4.541896551724141 21.092936170212774  3.407586206896563 22.75608510638296  1.7891379310344844 23.35302127659572  C 1.4032758620689771 23.4954893617021  0.7660344827586179 23.628765957446763  0.5017241379310486 23.20544680851062  C 0.06568965517241873 22.50842553191487  0.9491379310345015 21.281872340425483  1.288965517241389 20.751829787234048  C 2.7305172413793084 18.5024680851064  4.195862068965529 16.287829787234067  5.506551724137939 13.958808510638303  C 5.663275862068972 13.67999999999998  5.8210344827586304 13.401702127659577  5.975689655172412 13.121872340425533  Z " fill-rule="nonzero" fill="#ffffff" stroke="none" fill-opacity="0" transform="matrix(1 0 0 1 432 11268 )" />
    <path d="M 5.975689655172412 13.121872340425533  C 6.1044827586207004 12.890042553191515  6.50896551724138 11.519489361702112  6.50896551724138 11.259574468085084  C 7.851724137931038 9.011744680851018  10.06293103448275 6.743489361702078  11.22103448275863 4.3965957446808  C 11.731551724137951 3.362042553191462  12.180000000000001 2.2284255319148523  12.867413793103454 1.2888510638297297  C 13.081034482758632 0.9972765957446099  13.364999999999998 0.6311489361701497  13.732758620689662 0.5218723404254986  C 14.091724137931049 0.415659574468067  14.362758620689672 0.6270638297872094  14.5298275862069 0.9334468085106253  C 15.156724137931034 2.083404255319112  14.584137931034496 3.773617021276589  14.158965517241391 4.876595744680828  C 13.217586206896568 7.31897872340424  11.836551724137937 10.505361702127649  10.543965517241404 12.778212765957447  C 9.206379310344845 15.129702127659584  6.9667241379310605 17.4975319148936  5.451724137931045 19.743829787234024  C 4.541896551724141 21.092936170212774  3.407586206896563 22.75608510638296  1.7891379310344844 23.35302127659572  C 1.4032758620689771 23.4954893617021  0.7660344827586179 23.628765957446763  0.5017241379310486 23.20544680851062  C 0.06568965517241873 22.50842553191487  0.9491379310345015 21.281872340425483  1.288965517241389 20.751829787234048  C 2.7305172413793084 18.5024680851064  4.195862068965529 16.287829787234067  5.506551724137939 13.958808510638303  C 5.663275862068972 13.67999999999998  5.8210344827586304 13.401702127659577  5.975689655172412 13.121872340425533  Z " stroke-width="4" stroke="#ffffff" fill="none" transform="matrix(1 0 0 1 432 11268 )" mask="url(#clip291)" />
  </g>
</svg>