<?xml version="1.0" encoding="utf-8"?>
<svg version="1.1" xmlns:xlink="http://www.w3.org/1999/xlink" width="10px" height="9px" xmlns="http://www.w3.org/2000/svg">
  <defs>
    <mask fill="white" id="clip292">
      <path d="M 9.47157894736847 5.580499999999972  C 9.503157894736864 5.385499999999979  9.51894736842106 4.314000000000021  9.51894736842106 4.117000000000019  C 9.516315789473694 2.4960000000000377  8.418947368421042 1.011000000000024  6.8110526315789635 0.46399999999999864  C 5.20526315789473 -0.08199999999999363  2.4400000000000426 0.4019999999999868  1.3573684210526658 1.6544999999999845  C 0.27473684210528854 2.9069999999999823  0.13368421052632584 5.594499999999982  1.0100000000000506 6.984999999999957  C 1.886315789473716 8.374999999999943  4.556315789473764 9.112999999999943  6.229473684210593 8.797499999999957  C 7.896842105263228 8.482999999999947  9.2131578947369 7.176499999999976  9.47157894736847 5.580499999999972  Z " fill-rule="evenodd" />
    </mask>
  </defs>
  <g transform="matrix(1 0 0 1 -469 -11222 )">
    <path d="M 9.47157894736847 5.580499999999972  C 9.503157894736864 5.385499999999979  9.51894736842106 4.314000000000021  9.51894736842106 4.117000000000019  C 9.516315789473694 2.4960000000000377  8.418947368421042 1.011000000000024  6.8110526315789635 0.46399999999999864  C 5.20526315789473 -0.08199999999999363  2.4400000000000426 0.4019999999999868  1.3573684210526658 1.6544999999999845  C 0.27473684210528854 2.9069999999999823  0.13368421052632584 5.594499999999982  1.0100000000000506 6.984999999999957  C 1.886315789473716 8.374999999999943  4.556315789473764 9.112999999999943  6.229473684210593 8.797499999999957  C 7.896842105263228 8.482999999999947  9.2131578947369 7.176499999999976  9.47157894736847 5.580499999999972  Z " fill-rule="nonzero" fill="#ffffff" stroke="none" fill-opacity="0" transform="matrix(1 0 0 1 469 11222 )" />
    <path d="M 9.47157894736847 5.580499999999972  C 9.503157894736864 5.385499999999979  9.51894736842106 4.314000000000021  9.51894736842106 4.117000000000019  C 9.516315789473694 2.4960000000000377  8.418947368421042 1.011000000000024  6.8110526315789635 0.46399999999999864  C 5.20526315789473 -0.08199999999999363  2.4400000000000426 0.4019999999999868  1.3573684210526658 1.6544999999999845  C 0.27473684210528854 2.9069999999999823  0.13368421052632584 5.594499999999982  1.0100000000000506 6.984999999999957  C 1.886315789473716 8.374999999999943  4.556315789473764 9.112999999999943  6.229473684210593 8.797499999999957  C 7.896842105263228 8.482999999999947  9.2131578947369 7.176499999999976  9.47157894736847 5.580499999999972  Z " stroke-width="4" stroke="#ffffff" fill="none" transform="matrix(1 0 0 1 469 11222 )" mask="url(#clip292)" />
  </g>
</svg>