<?xml version="1.0" encoding="utf-8"?>
<svg version="1.1" xmlns:xlink="http://www.w3.org/1999/xlink" width="26px" height="42px" xmlns="http://www.w3.org/2000/svg">
  <defs>
    <mask fill="white" id="clip403">
      <path d="M 10.357862068965515 22.96327659574468  C 10.581103448275881 22.55757446808515  11.282206896551727 20.159106382978695  11.282206896551727 19.704255319148896  C 13.609655172413799 15.770553191489283  17.442413793103434 11.801106382978638  19.449793103448293 7.6940425531914  C 20.33468965517245 5.883574468085058  21.112000000000002 3.8997446808509917  22.30351724137932 2.255489361702027  C 22.673793103448293 1.7452340425530672  23.165999999999997 1.1045106382977619  23.80344827586208 0.9132765957446224  C 24.42565517241382 0.7274042553191172  24.895448275862094 1.0973617021276165  25.185034482758628 1.6335319148935943  C 26.271655172413794 3.6459574468084455  25.279172413793127 6.603829787234031  24.542206896551743 8.53404255319145  C 22.910482758620716 12.80821276595742  20.516689655172428 18.384382978723384  18.276206896551766 22.36187234042553  C 15.957724137931066 26.476978723404272  12.075655172413839 30.6206808510638  9.449655172413811 34.551702127659546  C 7.872620689655179 36.912638297872356  5.90648275862071 39.823148936170185  3.101172413793106 40.86778723404251  C 2.432344827586227 41.11710638297867  1.3277931034482708 41.35034042553183  0.8696551724138176 40.60953191489358  C 0.1138620689655258 39.389744680851024  1.6451724137931358 37.2432765957446  2.2342068965517408 36.315702127659584  C 4.732896551724134 32.379319148936204  7.272827586206917 28.503702127659615  9.544689655172428 24.427914893617032  C 9.816344827586219 23.939999999999966  10.089793103448292 23.45297872340426  10.357862068965515 22.96327659574468  Z " fill-rule="evenodd" />
    </mask>
  </defs>
  <g transform="matrix(1 0 0 1 -759 -18123 )">
    <path d="M 10.357862068965515 22.96327659574468  C 10.581103448275881 22.55757446808515  11.282206896551727 20.159106382978695  11.282206896551727 19.704255319148896  C 13.609655172413799 15.770553191489283  17.442413793103434 11.801106382978638  19.449793103448293 7.6940425531914  C 20.33468965517245 5.883574468085058  21.112000000000002 3.8997446808509917  22.30351724137932 2.255489361702027  C 22.673793103448293 1.7452340425530672  23.165999999999997 1.1045106382977619  23.80344827586208 0.9132765957446224  C 24.42565517241382 0.7274042553191172  24.895448275862094 1.0973617021276165  25.185034482758628 1.6335319148935943  C 26.271655172413794 3.6459574468084455  25.279172413793127 6.603829787234031  24.542206896551743 8.53404255319145  C 22.910482758620716 12.80821276595742  20.516689655172428 18.384382978723384  18.276206896551766 22.36187234042553  C 15.957724137931066 26.476978723404272  12.075655172413839 30.6206808510638  9.449655172413811 34.551702127659546  C 7.872620689655179 36.912638297872356  5.90648275862071 39.823148936170185  3.101172413793106 40.86778723404251  C 2.432344827586227 41.11710638297867  1.3277931034482708 41.35034042553183  0.8696551724138176 40.60953191489358  C 0.1138620689655258 39.389744680851024  1.6451724137931358 37.2432765957446  2.2342068965517408 36.315702127659584  C 4.732896551724134 32.379319148936204  7.272827586206917 28.503702127659615  9.544689655172428 24.427914893617032  C 9.816344827586219 23.939999999999966  10.089793103448292 23.45297872340426  10.357862068965515 22.96327659574468  Z " fill-rule="nonzero" fill="#ffffff" stroke="none" fill-opacity="0" transform="matrix(1 0 0 1 759 18123 )" />
    <path d="M 10.357862068965515 22.96327659574468  C 10.581103448275881 22.55757446808515  11.282206896551727 20.159106382978695  11.282206896551727 19.704255319148896  C 13.609655172413799 15.770553191489283  17.442413793103434 11.801106382978638  19.449793103448293 7.6940425531914  C 20.33468965517245 5.883574468085058  21.112000000000002 3.8997446808509917  22.30351724137932 2.255489361702027  C 22.673793103448293 1.7452340425530672  23.165999999999997 1.1045106382977619  23.80344827586208 0.9132765957446224  C 24.42565517241382 0.7274042553191172  24.895448275862094 1.0973617021276165  25.185034482758628 1.6335319148935943  C 26.271655172413794 3.6459574468084455  25.279172413793127 6.603829787234031  24.542206896551743 8.53404255319145  C 22.910482758620716 12.80821276595742  20.516689655172428 18.384382978723384  18.276206896551766 22.36187234042553  C 15.957724137931066 26.476978723404272  12.075655172413839 30.6206808510638  9.449655172413811 34.551702127659546  C 7.872620689655179 36.912638297872356  5.90648275862071 39.823148936170185  3.101172413793106 40.86778723404251  C 2.432344827586227 41.11710638297867  1.3277931034482708 41.35034042553183  0.8696551724138176 40.60953191489358  C 0.1138620689655258 39.389744680851024  1.6451724137931358 37.2432765957446  2.2342068965517408 36.315702127659584  C 4.732896551724134 32.379319148936204  7.272827586206917 28.503702127659615  9.544689655172428 24.427914893617032  C 9.816344827586219 23.939999999999966  10.089793103448292 23.45297872340426  10.357862068965515 22.96327659574468  Z " stroke-width="2" stroke="#ffffff" fill="none" transform="matrix(1 0 0 1 759 18123 )" mask="url(#clip403)" />
  </g>
</svg>