<?xml version="1.0" encoding="utf-8"?>
<svg version="1.1" xmlns:xlink="http://www.w3.org/1999/xlink" width="9px" height="9px" xmlns="http://www.w3.org/2000/svg">
  <defs>
    <mask fill="white" id="clip296">
      <path d="M 8.8005 5.579999999999984  C 8.830000000000013 5.388000000000005  8.844999999999999 4.319500000000005  8.844999999999999 4.125499999999988  C 8.842500000000001 2.5304999999999893  7.817000000000007 1.0694999999999766  6.313999999999993 0.5314999999999941  C 4.812999999999988 -0.006000000000000227  2.2139999999999986 0.47049999999998704  1.2019999999999982 1.703000000000003  C 0.18999999999999773 2.9354999999999905  0.057999999999992724 5.593999999999994  0.8770000000000095 6.961999999999989  C 1.695999999999998 8.329999999999984  4.206000000000017 9.055999999999983  5.77000000000001 8.745499999999993  C 7.3285000000000196 8.435999999999979  8.558999999999997 7.150499999999994  8.8005 5.579999999999984  Z " fill-rule="evenodd" />
    </mask>
  </defs>
  <g transform="matrix(1 0 0 1 -440 -11167 )">
    <path d="M 8.8005 5.579999999999984  C 8.830000000000013 5.388000000000005  8.844999999999999 4.319500000000005  8.844999999999999 4.125499999999988  C 8.842500000000001 2.5304999999999893  7.817000000000007 1.0694999999999766  6.313999999999993 0.5314999999999941  C 4.812999999999988 -0.006000000000000227  2.2139999999999986 0.47049999999998704  1.2019999999999982 1.703000000000003  C 0.18999999999999773 2.9354999999999905  0.057999999999992724 5.593999999999994  0.8770000000000095 6.961999999999989  C 1.695999999999998 8.329999999999984  4.206000000000017 9.055999999999983  5.77000000000001 8.745499999999993  C 7.3285000000000196 8.435999999999979  8.558999999999997 7.150499999999994  8.8005 5.579999999999984  Z " fill-rule="nonzero" fill="#ffffff" stroke="none" fill-opacity="0" transform="matrix(1 0 0 1 440 11167 )" />
    <path d="M 8.8005 5.579999999999984  C 8.830000000000013 5.388000000000005  8.844999999999999 4.319500000000005  8.844999999999999 4.125499999999988  C 8.842500000000001 2.5304999999999893  7.817000000000007 1.0694999999999766  6.313999999999993 0.5314999999999941  C 4.812999999999988 -0.006000000000000227  2.2139999999999986 0.47049999999998704  1.2019999999999982 1.703000000000003  C 0.18999999999999773 2.9354999999999905  0.057999999999992724 5.593999999999994  0.8770000000000095 6.961999999999989  C 1.695999999999998 8.329999999999984  4.206000000000017 9.055999999999983  5.77000000000001 8.745499999999993  C 7.3285000000000196 8.435999999999979  8.558999999999997 7.150499999999994  8.8005 5.579999999999984  Z " stroke-width="4" stroke="#ffffff" fill="none" transform="matrix(1 0 0 1 440 11167 )" mask="url(#clip296)" />
  </g>
</svg>