<?xml version="1.0" encoding="utf-8"?>
<svg version="1.1" xmlns:xlink="http://www.w3.org/1999/xlink" width="8px" height="8px" xmlns="http://www.w3.org/2000/svg">
  <defs>
    <mask fill="white" id="clip295">
      <path d="M 7.6229999999999905 4.9269999999999925  C 7.649000000000001 4.757000000000005  7.662500000000023 3.710499999999996  7.662500000000023 3.538499999999999  C 7.661500000000046 2.125499999999988  6.750500000000045 0.8305000000000007  5.420000000000016 0.353999999999985  C 4.090000000000032 -0.1220000000000141  1.6875 0.29999999999998295  0.7909999999999968 1.391999999999996  C -0.10599999999999454 2.484000000000009  -0.222500000000025 4.938999999999993  0.5029999999999859 6.151499999999999  C 1.2284999999999968 7.363499999999988  3.552500000000009 8.006500000000017  4.937999999999988 7.731499999999983  C 6.318499999999972 7.457499999999982  7.409999999999968 6.317999999999984  7.6229999999999905 4.9269999999999925  Z " fill-rule="evenodd" />
    </mask>
  </defs>
  <g transform="matrix(1 0 0 1 -457 -11199 )">
    <path d="M 7.6229999999999905 4.9269999999999925  C 7.649000000000001 4.757000000000005  7.662500000000023 3.710499999999996  7.662500000000023 3.538499999999999  C 7.661500000000046 2.125499999999988  6.750500000000045 0.8305000000000007  5.420000000000016 0.353999999999985  C 4.090000000000032 -0.1220000000000141  1.6875 0.29999999999998295  0.7909999999999968 1.391999999999996  C -0.10599999999999454 2.484000000000009  -0.222500000000025 4.938999999999993  0.5029999999999859 6.151499999999999  C 1.2284999999999968 7.363499999999988  3.552500000000009 8.006500000000017  4.937999999999988 7.731499999999983  C 6.318499999999972 7.457499999999982  7.409999999999968 6.317999999999984  7.6229999999999905 4.9269999999999925  Z " fill-rule="nonzero" fill="#ffffff" stroke="none" fill-opacity="0" transform="matrix(1 0 0 1 457 11199 )" />
    <path d="M 7.6229999999999905 4.9269999999999925  C 7.649000000000001 4.757000000000005  7.662500000000023 3.710499999999996  7.662500000000023 3.538499999999999  C 7.661500000000046 2.125499999999988  6.750500000000045 0.8305000000000007  5.420000000000016 0.353999999999985  C 4.090000000000032 -0.1220000000000141  1.6875 0.29999999999998295  0.7909999999999968 1.391999999999996  C -0.10599999999999454 2.484000000000009  -0.222500000000025 4.938999999999993  0.5029999999999859 6.151499999999999  C 1.2284999999999968 7.363499999999988  3.552500000000009 8.006500000000017  4.937999999999988 7.731499999999983  C 6.318499999999972 7.457499999999982  7.409999999999968 6.317999999999984  7.6229999999999905 4.9269999999999925  Z " stroke-width="4" stroke="#ffffff" fill="none" transform="matrix(1 0 0 1 457 11199 )" mask="url(#clip295)" />
  </g>
</svg>