<?xml version="1.0" encoding="utf-8"?>
<svg version="1.1" xmlns:xlink="http://www.w3.org/1999/xlink" width="9px" height="37px" xmlns="http://www.w3.org/2000/svg">
  <g transform="matrix(1 0 0 1 -392 -11257 )">
    <path d="M 0.7425000000000068 0.2786969696969973  C 0.758499999999998 2.8626969696969784  0.7874999999999943 5.446696969697018  0.7895000000000039 8.030181818181859  C 0.7915000000000134 10.705878787878808  0.7665000000000077 13.380545454545478  0.6965000000000146 16.05521212121215  C 0.6255000000000166 18.765424242424253  0.46350000000001046 21.47254545454546  0.3310000000000173 24.180181818181868  C 0.2185000000000059 26.48136363636368  0.09150000000002478 28.827878787878863  0.31800000000001205 31.12545454545458  C 0.3995000000000175 31.953818181818193  0.4965000000000259 33.60487878787882  1.4665000000000248 33.92890909090913  C 2.011000000000024 34.110757575757596  2.543500000000023 33.74809090909095  2.8625000000000114 33.31793939393942  C 3.20150000000001 32.86048484848485  3.396000000000015 32.29227272727276  3.552000000000021 31.747242424242458  C 3.861500000000035 30.666969696969744  4.032000000000011 29.544454545454606  4.168500000000023 28.42915151515153  C 4.4535000000000196 26.101696969696974  4.592000000000013 23.74796969696972  4.716000000000037 21.406606060606105  C 4.861000000000047 18.67115151515159  5.024000000000029 15.936212121212153  5.150500000000051 13.200242424242495  C 5.289500000000061 10.187121212121259  5.395500000000055 7.172454545454605  5.517500000000041 4.15830303030309  C 5.530500000000046 3.8409696969697644  5.543500000000051 3.5236363636364385  5.55600000000004 3.206818181818252  " stroke-width="2" stroke="#ffffff" fill="none" transform="matrix(1 0 0 1 393 11258 )" />
  </g>
</svg>