<?xml version="1.0" encoding="utf-8"?>
<svg version="1.1" xmlns:xlink="http://www.w3.org/1999/xlink" width="33px" height="47px" xmlns="http://www.w3.org/2000/svg">
  <g transform="matrix(1 0 0 1 -787 -17833 )">
    <path d="M 0.30577777777777254 38.488470588235316  C 4.40444444444443 32.439921568627454  8.792888888888886 26.625882352941215  13.381333333333309 20.953450980392205  C 17.952888888888893 15.30176470588238  22.620444444444427 9.656392156862811  27.5848888888889 4.353764705882402  C 28.600888888888928 3.2687058823530135  29.62311111111113 2.0961568627451603  30.821333333333314 1.2113333333334004  C 30.979555555555535 1.0949803921569128  31.439111111111135 0.6890980392157465  31.663111111111093 0.870392156862825  C 31.88800000000002 1.0516862745099036  31.607999999999972 1.6965882352941948  31.547555555555544 1.8769803921569297  C 31.067555555555575 3.3038823529412378  30.30577777777772 4.655921568627534  29.60533333333337 5.9800000000000475  C 26.112888888888946 12.573333333333384  22.202666666666726 18.955607843137322  18.272888888888904 25.285568627451024  C 14.421333333333374 31.48925490196082  10.275555555555558 37.529686274509835  5.792000000000018 43.279686274509835  C 5.27911111111113 43.938117647058874  4.754666666666708 44.58752941176473  4.2346666666666755 45.2414509803922  " stroke-width="1" stroke="#ffffff" fill="none" transform="matrix(1 0 0 1 787 17833 )" />
  </g>
</svg>