<?xml version="1.0" encoding="utf-8"?>
<svg version="1.1" xmlns:xlink="http://www.w3.org/1999/xlink" width="14px" height="14px" xmlns="http://www.w3.org/2000/svg">
  <defs>
    <mask fill="white" id="clip406">
      <path d="M 13.593999999999951 8.404374999999916  C 13.63949999999997 8.107749999999967  13.663125000000008 6.275500000000022  13.663125000000008 5.975374999999957  C 13.66137500000005 3.502624999999938  12.067125000000047 1.23637499999991  9.738749999999996 0.40249999999993236  C 7.411250000000024 -0.43050000000006605  3.206874999999968 0.3079999999999785  1.6379999999999626 2.2189999999999515  C 0.06824999999997772 4.129999999999924  -0.1356250000000756 8.426249999999996  1.1339999999999435 10.547249999999977  C 2.4036249999999626 12.668249999999958  6.470624999999984 13.793500000000009  8.895249999999947 13.312249999999949  C 11.311124999999919 12.832749999999947  13.221249999999912 10.83862499999995  13.593999999999951 8.404374999999916  Z " fill-rule="evenodd" />
    </mask>
  </defs>
  <g transform="matrix(1 0 0 1 -821 -18026 )">
    <path d="M 13.593999999999951 8.404374999999916  C 13.63949999999997 8.107749999999967  13.663125000000008 6.275500000000022  13.663125000000008 5.975374999999957  C 13.66137500000005 3.502624999999938  12.067125000000047 1.23637499999991  9.738749999999996 0.40249999999993236  C 7.411250000000024 -0.43050000000006605  3.206874999999968 0.3079999999999785  1.6379999999999626 2.2189999999999515  C 0.06824999999997772 4.129999999999924  -0.1356250000000756 8.426249999999996  1.1339999999999435 10.547249999999977  C 2.4036249999999626 12.668249999999958  6.470624999999984 13.793500000000009  8.895249999999947 13.312249999999949  C 11.311124999999919 12.832749999999947  13.221249999999912 10.83862499999995  13.593999999999951 8.404374999999916  Z " fill-rule="nonzero" fill="#ffffff" stroke="none" fill-opacity="0" transform="matrix(1 0 0 1 821 18026 )" />
    <path d="M 13.593999999999951 8.404374999999916  C 13.63949999999997 8.107749999999967  13.663125000000008 6.275500000000022  13.663125000000008 5.975374999999957  C 13.66137500000005 3.502624999999938  12.067125000000047 1.23637499999991  9.738749999999996 0.40249999999993236  C 7.411250000000024 -0.43050000000006605  3.206874999999968 0.3079999999999785  1.6379999999999626 2.2189999999999515  C 0.06824999999997772 4.129999999999924  -0.1356250000000756 8.426249999999996  1.1339999999999435 10.547249999999977  C 2.4036249999999626 12.668249999999958  6.470624999999984 13.793500000000009  8.895249999999947 13.312249999999949  C 11.311124999999919 12.832749999999947  13.221249999999912 10.83862499999995  13.593999999999951 8.404374999999916  Z " stroke-width="2" stroke="#ffffff" fill="none" transform="matrix(1 0 0 1 821 18026 )" mask="url(#clip406)" />
  </g>
</svg>