<?xml version="1.0" encoding="utf-8"?>
<svg version="1.1" xmlns:xlink="http://www.w3.org/1999/xlink" width="16px" height="16px" xmlns="http://www.w3.org/2000/svg">
  <defs>
    <mask fill="white" id="clip408">
      <path d="M 15.645333333333333 9.919999999999972  C 15.6977777777778 9.578666666666676  15.724444444444442 7.67911111111112  15.724444444444442 7.334222222222201  C 15.720000000000002 4.498666666666647  13.896888888888903 1.9013333333332918  11.224888888888877 0.9448888888888783  C 8.556444444444423 -0.01066666666666707  3.9359999999999977 0.8364444444444215  2.1368888888888855 3.0275555555555607  C 0.33777777777777374 5.21866666666665  0.10311111111109818 9.944888888888878  1.559111111111128 12.37688888888887  C 3.0151111111111075 14.80888888888886  7.477333333333364 16.099555555555526  10.257777777777797 15.547555555555542  C 13.02844444444448 14.997333333333295  15.215999999999996 12.711999999999989  15.645333333333333 9.919999999999972  Z " fill-rule="evenodd" />
    </mask>
  </defs>
  <g transform="matrix(1 0 0 1 -773 -17945 )">
    <path d="M 15.645333333333333 9.919999999999972  C 15.6977777777778 9.578666666666676  15.724444444444442 7.67911111111112  15.724444444444442 7.334222222222201  C 15.720000000000002 4.498666666666647  13.896888888888903 1.9013333333332918  11.224888888888877 0.9448888888888783  C 8.556444444444423 -0.01066666666666707  3.9359999999999977 0.8364444444444215  2.1368888888888855 3.0275555555555607  C 0.33777777777777374 5.21866666666665  0.10311111111109818 9.944888888888878  1.559111111111128 12.37688888888887  C 3.0151111111111075 14.80888888888886  7.477333333333364 16.099555555555526  10.257777777777797 15.547555555555542  C 13.02844444444448 14.997333333333295  15.215999999999996 12.711999999999989  15.645333333333333 9.919999999999972  Z " fill-rule="nonzero" fill="#ffffff" stroke="none" fill-opacity="0" transform="matrix(1 0 0 1 773 17945 )" />
    <path d="M 15.645333333333333 9.919999999999972  C 15.6977777777778 9.578666666666676  15.724444444444442 7.67911111111112  15.724444444444442 7.334222222222201  C 15.720000000000002 4.498666666666647  13.896888888888903 1.9013333333332918  11.224888888888877 0.9448888888888783  C 8.556444444444423 -0.01066666666666707  3.9359999999999977 0.8364444444444215  2.1368888888888855 3.0275555555555607  C 0.33777777777777374 5.21866666666665  0.10311111111109818 9.944888888888878  1.559111111111128 12.37688888888887  C 3.0151111111111075 14.80888888888886  7.477333333333364 16.099555555555526  10.257777777777797 15.547555555555542  C 13.02844444444448 14.997333333333295  15.215999999999996 12.711999999999989  15.645333333333333 9.919999999999972  Z " stroke-width="2" stroke="#ffffff" fill="none" transform="matrix(1 0 0 1 773 17945 )" mask="url(#clip408)" />
  </g>
</svg>