<?xml version="1.0" encoding="utf-8"?>
<svg version="1.1" xmlns:xlink="http://www.w3.org/1999/xlink" width="13px" height="60px" xmlns="http://www.w3.org/2000/svg">
  <g transform="matrix(1 0 0 1 -692 -18040 )">
    <path d="M 9.683999999999987 58.2982575757576  C 9.748615384615364 54.064560606060645  9.87876923076923 49.82728787878791  9.870461538461523 45.59359090909095  C 9.859384615384599 39.771363636363645  9.848307692307676 33.95003030303036  9.836307692307699 28.12780303030306  C 9.827999999999992 23.951318181818188  9.762461538461558 19.77304545454548  9.946153846153877 15.599242424242464  C 10.044923076923133 13.365287878787898  10.179692307692326 11.130439393939414  10.513846153846194 8.916151515151556  C 10.805538461538477 6.988818181818268  11.415692307692325 5.06774242424251  11.525538461538504 3.1207424242425126  C 11.604000000000024 1.738712121212166  11.079692307692348 0.785772727272846  9.68400000000004 0.37456060606069225  C 8.350153846153892 -0.017878787878669988  6.8723076923077375 -0.00536363636350953  5.496000000000059 0.047378787878887066  C 4.484307692307748 0.0858181818182867  3.3941538461539182 0.15822727272739304  2.468307692307777 0.598939393939459  C 0.19846153846162035 1.6788181818182202  0.28338461538468296 4.945272727272762  0.20400000000010832 6.998651515151573  C 0.012000000000083532 11.951075757575783  0.1430769230770553 16.924954545454643  0.14676923076932816 21.879166666666688  C 0.15046153846165347 25.694500000000044  0.15323076923087123 29.509833333333304  0.18369230769242395 33.32516666666667  C 0.23353846153855345 39.55056060606065  0.28338461538473547 45.77506060606062  0.3332307692308649 52.00045454545451  C 0.3369230769231903 52.46709090909092  0.34061538461546315 52.93372727272722  0.3443076923077884 53.40125757575755  " stroke-width="1" stroke="#ffffff" fill="none" transform="matrix(1 0 0 1 692 18040 )" />
  </g>
</svg>