<?xml version="1.0" encoding="utf-8"?>
<svg version="1.1" xmlns:xlink="http://www.w3.org/1999/xlink" width="10px" height="37px" xmlns="http://www.w3.org/2000/svg">
  <g transform="matrix(1 0 0 1 -393 -11220 )">
    <path d="M 5.648999999999992 33.59560606060608  C 5.6866923076922955 31.15584848484851  5.762615384615383 28.71403030303032  5.757769230769222 26.27427272727275  C 5.751307692307683 22.91909090909091  5.744846153846145 19.564424242424277  5.737846153846157 16.20924242424244  C 5.732999999999995 13.80245454545455  5.694769230769243 11.394636363636378  5.801923076923095 8.989393939393963  C 5.859538461538495 7.702030303030314  5.938153846153857 6.414151515151526  6.133076923076946 5.138121212121236  C 6.303230769230778 4.027454545454596  6.659153846153856 2.920393939393989  6.723230769230794 1.7983939393939905  C 6.769000000000014 1.0019696969697227  6.463153846153869 0.45281818181825023  5.649000000000023 0.21584848484853453  C 4.870923076923104 -0.010303030302962366  4.00884615384618 -0.0030909090908360004  3.2060000000000346 0.027303030303087464  C 2.615846153846187 0.04945454545460589  1.9799230769231189 0.09118181818188752  1.4398461538462033 0.3451515151515526  C 0.11576923076927853 0.9674545454545675  0.16530769230773174 2.8498181818182022  0.11900000000006318 4.033121212121245  C 0.007000000000048728 6.887060606060621  0.0834615384616156 9.75336363636369  0.08561538461544142 12.608333333333345  C 0.08776923076929785 14.807000000000027  0.08938461538467488 17.005666666666652  0.10715384615391398 19.20433333333333  C 0.13623076923082283 22.79184848484851  0.16530769230776235 26.378848484848493  0.19438461538467122 29.966363636363617  C 0.19653846153852766 30.235272727272733  0.1986923076923535 30.504181818181788  0.2008461538462099 30.773606060606046  " stroke-width="2" stroke="#ffffff" fill="none" transform="matrix(1 0 0 1 394 11221 )" />
  </g>
</svg>