<?xml version="1.0" encoding="utf-8"?>
<svg version="1.1" xmlns:xlink="http://www.w3.org/1999/xlink" width="27px" height="84px" xmlns="http://www.w3.org/2000/svg">
  <g transform="matrix(1 0 0 1 -713 -18026 )">
    <path d="M 0.3944827586206876 78.37074193548386  C 1.7518620689655244 71.63970967741932  3.1101379310344774 64.90867741935487  4.467517241379314 58.17675268817207  C 5.596275862068983 52.580946236559186  6.7904827586207 47.002096774193625  7.98737931034482 41.41967741935491  C 9.197724137931047 35.773000000000074  10.543448275862062 30.14774193548395  12.067586206896532 24.576032258064544  C 13.529862068965473 19.22654838709678  15.242275862068945 13.856537634408662  17.9848275862069 9.006838709677405  C 19.31620689655174 6.65249462365587  20.659241379310348 4.168741935483814  22.37255172413794 2.0616129032257575  C 22.695310344827607 1.6653548387096644  23.389241379310363 0.677387096774105  24.04462068965519 0.8076881720429864  C 24.380827586206912 0.8746236559139948  24.544896551724147 1.248569892473119  24.65606896551727 1.529698924731131  C 25.37779310344831 3.3521290322580395  25.219103448275877 5.7207526881720145  25.0344137931035 7.623505376344011  C 24.515310344827633 12.974774193548296  23.26641379310352 18.32693548387094  22.152896551724194 23.579139784946204  C 20.916551724137967 29.410559139784905  19.70620689655179 35.248225806451615  18.423241379310376 41.06982795698917  C 17.12593103448279 46.9547956989247  15.893172413793133 52.85850537634396  14.516068965517269 58.72651612903217  C 12.774068965517284 66.15010752688163  11.032068965517247 73.57459139784933  9.290068965517262 80.99907526881714  C 9.135862068965515 81.65682795698915  8.981655172413818 82.3136881720429  8.827448275862073 82.97054838709666  " stroke-width="1" stroke="#ffffff" fill="none" transform="matrix(1 0 0 1 713 18026 )" />
  </g>
</svg>