<?xml version="1.0" encoding="utf-8"?>
<svg version="1.1" xmlns:xlink="http://www.w3.org/1999/xlink" width="12px" height="60px" xmlns="http://www.w3.org/2000/svg">
  <g transform="matrix(1 0 0 1 -691 -18104 )">
    <path d="M 1.3612500000000125 0.48362121212126  C 1.3905833333333295 4.967621212121227  1.4437499999999897 9.451621212121296  1.4474166666666737 13.934727272727343  C 1.451083333333358 18.57784848484852  1.405250000000014 23.21918181818186  1.2769166666666933 27.860515151515198  C 1.1467500000000306 32.563530303030326  0.8497500000000192 37.26118181818183  0.6068333333333651 41.95972727272736  C 0.40058333333334417 45.952954545454624  0.16775000000004542 50.02484848484862  0.5830000000000222 54.01181818181824  C 0.7324166666666988 55.44927272727274  0.9102500000000475 58.314348484848544  2.688583333333379 58.876636363636436  C 3.6868333333333774 59.19219696969701  4.663083333333375 58.56286363636371  5.247916666666688 57.81642424242428  C 5.869416666666685 57.022606060606066  6.2260000000000275 56.03659090909096  6.512000000000039 55.09080303030309  C 7.079416666666731 53.2162121212122  7.39200000000002 51.26831818181829  7.642250000000042 49.33293939393943  C 8.164750000000037 45.29412121212122  8.418666666666692 41.20971212121216  8.646000000000068 37.146757575757654  C 8.91183333333342 32.39993939393952  9.210666666666722 27.654015151515207  9.442583333333427 22.906303030303153  C 9.69741666666678 17.6776515151516  9.891750000000101 12.446318181818285  10.115416666666743 7.215878787878892  C 10.139250000000086 6.665212121212238  10.163083333333429 6.114545454545585  10.186000000000075 5.564772727272849  " stroke-width="1" stroke="#ffffff" fill="none" transform="matrix(1 0 0 1 691 18104 )" />
  </g>
</svg>