<?xml version="1.0" encoding="utf-8"?>
<svg version="1.1" xmlns:xlink="http://www.w3.org/1999/xlink" width="18px" height="50px" xmlns="http://www.w3.org/2000/svg">
  <g transform="matrix(1 0 0 1 -405 -11213 )">
    <path d="M 0.22758620689655057 44.3786129032258  C 1.0106896551724178 40.56706451612901  1.7943103448275832 36.75551612903228  2.5774137931034504 32.943462365591415  C 3.228620689655182 29.774752688172068  3.9175862068965577 26.615645161290363  4.608103448275857 23.4545161290323  C 5.306379310344836 20.25700000000004  6.082758620689651 17.07161290322585  6.96206896551723 13.91654838709679  C 7.805689655172388 10.887322580645165  8.79362068965516 7.846473118279604  10.37586206896552 5.100258064516121  C 11.143965517241389 3.7670752688171794  11.918793103448278 2.360612903225774  12.90724137931035 1.167419354838682  C 13.09344827586208 0.9430322580645087  13.493793103448287 0.38358064516124024  13.871896551724147 0.45736559139783567  C 14.065862068965526 0.4952688172043103  14.160517241379315 0.7070215053763446  14.22465517241381 0.8662150537634115  C 14.641034482758641 1.8981935483870827  14.549482758620698 3.2394623655913817  14.44293103448279 4.316924731182754  C 14.143448275862095 7.347161290322529  13.4229310344828 10.377903225806435  12.780517241379343 13.352043010752668  C 12.067241379310365 16.65417204301073  11.368965517241419 19.959838709677424  10.628793103448293 23.256408602150493  C 9.880344827586224 26.588860215053746  9.1691379310345 29.931924731182725  8.374655172413808 33.254774193548336  C 7.369655172413817 37.45849462365586  6.364655172413797 41.662720430107456  5.359655172413805 45.8669462365591  C 5.270689655172412 46.23940860215048  5.181724137931049 46.611365591397785  5.092758620689658 46.983322580645094  " stroke-width="2" stroke="#ffffff" fill="none" transform="matrix(1 0 0 1 406 11214 )" />
  </g>
</svg>