<?xml version="1.0" encoding="utf-8"?>
<svg version="1.1" xmlns:xlink="http://www.w3.org/1999/xlink" width="21px" height="29px" xmlns="http://www.w3.org/2000/svg">
  <g transform="matrix(1 0 0 1 -447 -11103 )">
    <path d="M 0.17199999999999704 21.75435294117648  C 2.477499999999992 18.335607843137257  4.945999999999998 15.049411764705903  7.526999999999987 11.84325490196081  C 10.098500000000001 8.64882352941178  12.72399999999999 5.457960784313763  15.516500000000008 2.4608235294117926  C 16.088000000000022 1.847529411764747  16.66300000000001 1.1847843137255254  17.33699999999999 0.6846666666667046  C 17.425999999999988 0.618901960784342  17.684500000000014 0.3894901960784654  17.81049999999999 0.49196078431377066  C 17.937000000000012 0.5944313725490759  17.779499999999985 0.9589411764706319  17.745499999999993 1.0609019607843515  C 17.47550000000001 1.867411764705917  17.04699999999997 2.6316078431373016  16.65300000000002 3.380000000000027  C 14.688500000000033 7.106666666666695  12.489000000000033 10.714039215686313  10.278500000000008 14.291843137254927  C 8.112000000000023 17.79827450980394  5.780000000000001 21.212431372549037  3.2580000000000098 24.462431372549037  C 2.9695000000000107 24.834588235294145  2.674500000000023 25.201647058823543  2.382000000000005 25.57125490196081  " stroke-width="2" stroke="#ffffff" fill="none" transform="matrix(1 0 0 1 448 11104 )" />
  </g>
</svg>