<?xml version="1.0" encoding="utf-8"?>
<svg version="1.1" xmlns:xlink="http://www.w3.org/1999/xlink" width="8px" height="8px" xmlns="http://www.w3.org/2000/svg">
  <defs>
    <mask fill="white" id="clip294">
      <path d="M 7.767999999999972 4.802499999999952  C 7.793999999999983 4.632999999999981  7.8075000000000045 3.5860000000000127  7.8075000000000045 3.4144999999999754  C 7.806500000000028 2.0014999999999645  6.895500000000027 0.7064999999999486  5.564999999999998 0.22999999999996135  C 4.235000000000014 -0.24600000000003774  1.8324999999999818 0.17599999999998772  0.9359999999999786 1.2679999999999723  C 0.03899999999998727 2.359999999999957  -0.0775000000000432 4.814999999999998  0.6479999999999677 6.026999999999987  C 1.3734999999999786 7.238999999999976  3.697499999999991 7.882000000000005  5.08299999999997 7.606999999999971  C 6.463499999999954 7.33299999999997  7.55499999999995 6.193499999999972  7.767999999999972 4.802499999999952  Z " fill-rule="evenodd" />
    </mask>
  </defs>
  <g transform="matrix(1 0 0 1 -468 -11214 )">
    <path d="M 7.767999999999972 4.802499999999952  C 7.793999999999983 4.632999999999981  7.8075000000000045 3.5860000000000127  7.8075000000000045 3.4144999999999754  C 7.806500000000028 2.0014999999999645  6.895500000000027 0.7064999999999486  5.564999999999998 0.22999999999996135  C 4.235000000000014 -0.24600000000003774  1.8324999999999818 0.17599999999998772  0.9359999999999786 1.2679999999999723  C 0.03899999999998727 2.359999999999957  -0.0775000000000432 4.814999999999998  0.6479999999999677 6.026999999999987  C 1.3734999999999786 7.238999999999976  3.697499999999991 7.882000000000005  5.08299999999997 7.606999999999971  C 6.463499999999954 7.33299999999997  7.55499999999995 6.193499999999972  7.767999999999972 4.802499999999952  Z " fill-rule="nonzero" fill="#ffffff" stroke="none" fill-opacity="0" transform="matrix(1 0 0 1 468 11214 )" />
    <path d="M 7.767999999999972 4.802499999999952  C 7.793999999999983 4.632999999999981  7.8075000000000045 3.5860000000000127  7.8075000000000045 3.4144999999999754  C 7.806500000000028 2.0014999999999645  6.895500000000027 0.7064999999999486  5.564999999999998 0.22999999999996135  C 4.235000000000014 -0.24600000000003774  1.8324999999999818 0.17599999999998772  0.9359999999999786 1.2679999999999723  C 0.03899999999998727 2.359999999999957  -0.0775000000000432 4.814999999999998  0.6479999999999677 6.026999999999987  C 1.3734999999999786 7.238999999999976  3.697499999999991 7.882000000000005  5.08299999999997 7.606999999999971  C 6.463499999999954 7.33299999999997  7.55499999999995 6.193499999999972  7.767999999999972 4.802499999999952  Z " stroke-width="4" stroke="#ffffff" fill="none" transform="matrix(1 0 0 1 468 11214 )" mask="url(#clip294)" />
  </g>
</svg>