<?xml version="1.0" encoding="utf-8"?>
<svg version="1.1" xmlns:xlink="http://www.w3.org/1999/xlink" width="23px" height="31px" xmlns="http://www.w3.org/2000/svg">
  <g transform="matrix(1 0 0 1 -397 -11263 )">
    <path d="M 5.478000000000009 0.003563636363609972  C 6.831000000000017 2.110690909090888  8.191500000000019 4.214254545454498  9.486000000000018 6.359563636363617  C 10.806500000000028 8.547636363636345  12.09850000000003 10.754036363636317  13.320000000000022 13.001672727272721  C 14.603500000000025 15.363854545454533  15.816000000000031 17.76269090909089  17.04050000000001 20.156945454545422  C 17.660500000000013 21.36959999999994  18.285500000000013 22.580218181818143  18.90100000000001 23.795418181818174  C 19.246499999999997 24.47760000000001  19.638500000000022 25.183709090909073  19.8005 25.94174545454545  C 19.94149999999999 26.60305454545453  19.77000000000001 27.239927272727247  19.168499999999995 27.587127272727255  C 18.539500000000004 27.950109090909056  17.782999999999987 27.800436363636337  17.263499999999993 27.31578181818179  C 16.69149999999999 26.78225454545452  16.281499999999994 25.989599999999964  15.838999999999999 25.357309090909073  C 15.0565 24.237818181818188  14.276499999999999 23.11730909090909  13.512 21.985090909090882  C 12.139499999999998 19.952290909090856  10.81049999999999 17.885890909090868  9.497000000000014 15.813381818181766  C 8.138500000000022 13.669090909090864  6.799000000000007 11.511563636363562  5.485500000000002 9.338763636363604  C 4.122500000000002 7.083490909090903  2.755500000000012 4.832290909090889  1.4499999999999886 2.5418909090908777  C 1.1074999999999875 1.9406545454544937  0.7649999999999864 1.3394181818181674  0.42199999999999704 0.7381818181817835  " stroke-width="2" stroke="#ffffff" fill="none" transform="matrix(1 0 0 1 398 11264 )" />
  </g>
</svg>