<?xml version="1.0" encoding="utf-8"?>
<svg version="1.1" xmlns:xlink="http://www.w3.org/1999/xlink" width="14px" height="14px" xmlns="http://www.w3.org/2000/svg">
  <defs>
    <mask fill="white" id="clip407">
      <path d="M 13.340249999999983 8.622249999999987  C 13.385750000000002 8.324750000000009  13.40937500000004 6.493374999999993  13.40937500000004 6.192374999999998  C 13.407625000000081 3.7196249999999793  11.813375000000079 1.4533750000000012  9.485000000000028 0.6194999999999737  C 7.157500000000056 -0.21350000000002467  2.953125 0.5249999999999702  1.3842499999999944 2.435999999999993  C -0.18549999999999045 4.3470000000000155  -0.38937500000004377 8.643249999999988  0.8802499999999753 10.765124999999998  C 2.1498749999999944 12.886124999999979  6.216875000000016 14.01137500000003  8.64149999999998 13.53012499999997  C 11.05737499999995 13.050624999999968  12.967499999999944 11.056499999999971  13.340249999999983 8.622249999999987  Z " fill-rule="evenodd" />
    </mask>
  </defs>
  <g transform="matrix(1 0 0 1 -803 -18000 )">
    <path d="M 13.340249999999983 8.622249999999987  C 13.385750000000002 8.324750000000009  13.40937500000004 6.493374999999993  13.40937500000004 6.192374999999998  C 13.407625000000081 3.7196249999999793  11.813375000000079 1.4533750000000012  9.485000000000028 0.6194999999999737  C 7.157500000000056 -0.21350000000002467  2.953125 0.5249999999999702  1.3842499999999944 2.435999999999993  C -0.18549999999999045 4.3470000000000155  -0.38937500000004377 8.643249999999988  0.8802499999999753 10.765124999999998  C 2.1498749999999944 12.886124999999979  6.216875000000016 14.01137500000003  8.64149999999998 13.53012499999997  C 11.05737499999995 13.050624999999968  12.967499999999944 11.056499999999971  13.340249999999983 8.622249999999987  Z " fill-rule="nonzero" fill="#ffffff" stroke="none" fill-opacity="0" transform="matrix(1 0 0 1 803 18000 )" />
    <path d="M 13.340249999999983 8.622249999999987  C 13.385750000000002 8.324750000000009  13.40937500000004 6.493374999999993  13.40937500000004 6.192374999999998  C 13.407625000000081 3.7196249999999793  11.813375000000079 1.4533750000000012  9.485000000000028 0.6194999999999737  C 7.157500000000056 -0.21350000000002467  2.953125 0.5249999999999702  1.3842499999999944 2.435999999999993  C -0.18549999999999045 4.3470000000000155  -0.38937500000004377 8.643249999999988  0.8802499999999753 10.765124999999998  C 2.1498749999999944 12.886124999999979  6.216875000000016 14.01137500000003  8.64149999999998 13.53012499999997  C 11.05737499999995 13.050624999999968  12.967499999999944 11.056499999999971  13.340249999999983 8.622249999999987  Z " stroke-width="2" stroke="#ffffff" fill="none" transform="matrix(1 0 0 1 803 18000 )" mask="url(#clip407)" />
  </g>
</svg>