<?xml version="1.0" encoding="utf-8"?>
<svg version="1.1" xmlns:xlink="http://www.w3.org/1999/xlink" width="13px" height="40px" xmlns="http://www.w3.org/2000/svg">
  <g transform="matrix(1 0 0 1 -399 -11220 )">
    <path d="M 0.4242105263157806 33.691287671232864  C 0.4915789473684048 30.71101369863013  0.6278947368420966 27.735301369863016  0.8236842105263147 24.76009589041096  C 0.9994736842105267 22.084438356164384  1.2210526315789438 19.41283561643838  1.4347368421052629 16.739712328767144  C 1.7521052631578988 12.772095890410995  2.069473684210535 8.804479452054842  2.386842105263171 4.8368630136986335  C 2.454210526315795 3.9970136986301203  2.4942105263158068 3.1470273972603047  2.6305263157894987 2.314780821917812  C 2.7247368421052744 1.740013698630133  2.863684210526332 1.0968219178082128  3.308947368421071 0.6705616438356058  C 3.6578947368421293 0.336547945205473  4.1394736842105315 0.21034246575340623  4.614736842105279 0.15357534246575202  C 5.890526315789478 0.0015205479452271454  7.30789473684213 0.09731506849315438  8.581578947368424 0.23568493150686545  C 9.012631578947381 0.2828219178082155  9.776315789473678 0.33350684931507635  9.834210526315792 0.8722876712328785  C 9.853157894736844 1.046643835616466  9.784736842105268 1.2321506849315271  9.732105263157887 1.3948493150684693  C 9.553157894736849 1.9483287671232559  9.349473684210531 2.4835616438356047  9.212631578947349 3.0492054794520356  C 8.874210526315785 4.451657534246583  8.703684210526305 5.888575342465722  8.524210526315773 7.315863013698615  C 8.165263157894712 10.169424657534227  7.865789473684207 13.030589041095864  7.587894736842092 15.892767123287669  C 7.266842105263137 19.194890410958894  6.9768421052631435 22.496506849315065  6.702631578947345 25.802684931506857  C 6.444210526315775 28.91676712328768  6.2447368421052385 32.03490410958907  6.032105263157872 35.1520273972603  C 5.999473684210496 35.628465753424706  5.967368421052614 36.105410958904116  5.934736842105238 36.581849315068524  " stroke-width="2" stroke="#ffffff" fill="none" transform="matrix(1 0 0 1 400 11221 )" />
  </g>
</svg>