<?xml version="1.0" encoding="utf-8"?>
<svg version="1.1" xmlns:xlink="http://www.w3.org/1999/xlink" width="18px" height="66px" xmlns="http://www.w3.org/2000/svg">
  <g transform="matrix(1 0 0 1 -702 -18040 )">
    <path d="M 0.721157894736827 59.187397260273954  C 0.8356842105262882 53.951780821917794  1.0674210526315642 48.724178082191784  1.4002631578947349 43.497465753424656  C 1.6991052631578953 38.79698630136986  2.0757894736842046 34.10363013698634  2.4390526315789467 29.407602739726066  C 2.978578947368428 22.437465753424718  3.5181052631579095 15.467328767123371  4.057631578947391 8.497191780821924  C 4.172157894736852 7.021780821917779  4.240157894736871 5.52856164383567  4.471894736842148 4.066506849315075  C 4.632052631578966 3.0567808219178016  4.868263157894765 1.9268493150684818  5.62521052631582 1.1780136986301182  C 6.21842105263162 0.5912328767123174  7.037105263157903 0.3695205479451731  7.845052631578974 0.2697945205479428  C 10.013894736842111 0.0026712328767503906  12.423421052631621 0.17095890410959552  14.588684210526322 0.4140410958904393  C 15.321473684210547 0.4968493150684867  16.619736842105254 0.5858904109589179  16.718157894736844 1.5323972602739757  C 16.750368421052634 1.838698630137035  16.634052631578953 2.164589041095926  16.544578947368407 2.4504109589040675  C 16.24036842105264 3.4227397260273413  15.894105263157904 4.363013698630116  15.661473684210494 5.35671232876709  C 15.086157894736834 7.820479452054808  14.796263157894717 10.34479452054789  14.491157894736814 12.85219178082189  C 13.88094736842101 17.865205479452023  13.371842105263152 22.891575342465707  12.899421052631554 27.919726027397257  C 12.353631578947333 33.72075342465752  11.860631578947345 39.5208904109589  11.394473684210487 45.329041095890425  C 10.955157894736816 50.79972602739728  10.616052631578906 56.2775342465754  10.254578947368383 61.75356164383565  C 10.199105263157845 62.590547945205564  10.144526315789443 63.42842465753426  10.089052631578905 64.26541095890417  " stroke-width="1" stroke="#ffffff" fill="none" transform="matrix(1 0 0 1 702 18040 )" />
  </g>
</svg>