<?xml version="1.0" encoding="utf-8"?>
<svg version="1.1" xmlns:xlink="http://www.w3.org/1999/xlink" width="37px" height="50px" xmlns="http://www.w3.org/2000/svg">
  <g transform="matrix(1 0 0 1 -700 -18115 )">
    <path d="M 9.860400000000014 0.00623636363631745  C 12.29580000000003 3.6937090909090537  14.744700000000035 7.374945454545371  17.074800000000035 11.12923636363633  C 19.45170000000005 14.958363636363602  21.777300000000054 18.819563636363554  23.976000000000038 22.752927272727263  C 26.286300000000043 26.886745454545434  28.468800000000055 31.084709090909058  30.672900000000016 35.27465454545449  C 31.788900000000023 37.3967999999999  32.91390000000002 39.51538181818175  34.02180000000002 41.641981818181804  C 34.643699999999995 42.83580000000001  35.349300000000035 44.071490909090876  35.640899999999995 45.398054545454535  C 35.89469999999998 46.555345454545424  35.58600000000002 47.66987272727268  34.50329999999999 48.277472727272695  C 33.371100000000006 48.91269090909085  32.00939999999998 48.65076363636359  31.07429999999999 47.80261818181813  C 30.04469999999998 46.86894545454541  29.30669999999999 45.481799999999936  28.510199999999998 44.37529090909088  C 27.101699999999997 42.416181818181826  25.697699999999998 40.455290909090905  24.3216 38.473909090909046  C 21.8511 34.916509090908995  19.458899999999982 31.30030909090902  17.094600000000025 27.67341818181809  C 14.64930000000004 23.92090909090901  12.238200000000012 20.145236363636233  9.873900000000004 16.342836363636305  C 7.420500000000004 12.39610909090908  4.9599000000000215 8.456509090909057  2.6099999999999794 4.448309090909036  C 1.9934999999999776 3.3961454545453638  1.3769999999999756 2.343981818181793  0.7595999999999946 1.2918181818181211  " stroke-width="1" stroke="#ffffff" fill="none" transform="matrix(1 0 0 1 700 18115 )" />
  </g>
</svg>