<?xml version="1.0" encoding="utf-8"?>
<svg version="1.1" xmlns:xlink="http://www.w3.org/1999/xlink" width="18px" height="28px" xmlns="http://www.w3.org/2000/svg">
  <g transform="matrix(1 0 0 1 -738 -18136 )">
    <path d="M 16.789736842105253 4.835700000000042  C 15.228421052631562 9.816300000000036  13.494421052631573 14.739300000000059  11.477684210526293 19.5534  C 10.748473684210506 21.293099999999992  10.00763157894737 23.225400000000036  8.754105263157886 24.666300000000035  C 8.01505263157892 25.5159  7.013842105263157 25.92540000000004  5.936578947368412 26.155800000000013  C 4.523789473684196 26.4591  1.7975263157894867 26.857799999999987  0.7488947368420955 25.430399999999974  C 0.2809473684210209 24.7932  0.25768421052632556 23.9148  0.2898947368421162 23.155199999999954  C 0.3829473684210502 20.942100000000003  1.0978421052631868 18.727199999999993  1.8726842105263317 16.66979999999994  C 2.835421052631614 14.110199999999894  4.04957894736843 11.651399999999922  5.15815789473688 9.154799999999922  C 6.173684210526346 6.866099999999915  7.096157894736878 4.535099999999886  7.978368421052658 2.1914999999999507  C 8.228000000000023 1.5281999999999811  8.469578947368428 0.8621999999999731  8.715631578947406 0.19799999999992224  " stroke-width="1" stroke="#ffffff" fill="none" transform="matrix(1 0 0 1 738 18136 )" />
  </g>
</svg>