<?xml version="1.0" encoding="utf-8"?>
<svg version="1.1" xmlns:xlink="http://www.w3.org/1999/xlink" width="23px" height="9px" xmlns="http://www.w3.org/2000/svg">
  <g transform="matrix(1 0 0 1 -420 -11264 )">
    <path d="M 1.3009999999999877 1.9950000000000045  C 0.9879999999999995 1.7144999999999868  -0.07150000000001455 0.1605000000000132  0.8509999999999991 0.05400000000003047  C 1.1730000000000018 0.01700000000005275  1.5465000000000089 0.18250000000000455  1.836999999999989 0.2960000000000491  C 2.86099999999999 0.6975000000000477  3.826999999999998 1.2545000000000641  4.806999999999988 1.7485000000000355  C 6.438499999999976 2.5710000000000264  8.125499999999988 3.209500000000048  9.968999999999994 3.296000000000049  C 12.05249999999998 3.3940000000000623  14.120999999999981 2.865000000000066  16.144999999999982 2.4430000000000405  C 16.996999999999986 2.2655000000000314  17.860499999999973 2.0580000000000496  18.73199999999997 2.015000000000043  C 19.02249999999998 2.000500000000045  19.410999999999973 1.9755000000000678  19.667999999999978 2.143000000000029  C 20.613499999999988 2.7590000000000146  18.930999999999983 4.0715000000000146  18.448499999999967 4.323500000000024  C 16.905999999999977 5.129000000000019  15.015499999999975 5.461500000000001  13.30249999999998 5.642500000000041  C 11.480999999999995 5.835000000000036  9.628499999999974 5.7485000000000355  7.848499999999973 5.302000000000021  C 7.385999999999967 5.1860000000000355  6.929499999999962 5.046000000000049  6.480999999999966 4.8840000000000146  " stroke-width="2" stroke="#ffffff" fill="none" transform="matrix(1 0 0 1 421 11265 )" />
  </g>
</svg>