<?xml version="1.0" encoding="utf-8"?>
<svg version="1.1" xmlns:xlink="http://www.w3.org/1999/xlink" width="37px" height="12px" xmlns="http://www.w3.org/2000/svg">
  <g transform="matrix(1 0 0 1 -739 -18117 )">
    <path d="M 2.341799999999978 3.657500000000008  C 1.7783999999999993 3.1432499999999757  -0.1287000000000262 0.2942500000000242  1.5317999999999985 0.09900000000005586  C 2.1114000000000033 0.031166666666763376  2.783700000000016 0.33458333333334167  3.3065999999999804 0.5426666666667568  C 5.149799999999982 1.2787500000000875  6.888599999999997 2.2999166666667845  8.652599999999978 3.2055833333333985  C 11.589299999999957 4.713500000000048  14.625899999999978 5.884083333333422  17.94419999999999 6.042666666666757  C 21.694499999999966 6.222333333333448  25.417799999999968 5.25250000000012  29.060999999999968 4.478833333333407  C 30.594599999999975 4.153416666666724  32.14889999999995 3.7730000000000907  33.71759999999995 3.694166666666746  C 34.24049999999996 3.667583333333416  34.939799999999956 3.6217500000001244  35.402399999999965 3.9288333333333867  C 37.104299999999974 5.058166666666693  34.075799999999965 7.464416666666693  33.20729999999994 7.926416666666711  C 30.43079999999996 9.403166666666703  27.027899999999956 10.01275  23.944499999999966 10.344583333333407  C 20.66579999999999 10.697500000000066  17.331299999999953 10.538916666666733  14.12729999999995 9.720333333333372  C 13.29479999999994 9.507666666666733  12.473099999999931 9.25100000000009  11.665799999999939 8.954000000000025  " stroke-width="1" stroke="#ffffff" fill="none" transform="matrix(1 0 0 1 739 18117 )" />
  </g>
</svg>