<?xml version="1.0" encoding="utf-8"?>
<svg version="1.1" xmlns:xlink="http://www.w3.org/1999/xlink" width="13px" height="18px" xmlns="http://www.w3.org/2000/svg">
  <g transform="matrix(1 0 0 1 -419 -11275 )">
    <path d="M 9.876315789473677 2.6865000000000236  C 8.957894736842096 5.4535000000000196  7.937894736842102 8.188500000000033  6.751578947368407 10.863  C 6.322631578947356 11.829499999999996  5.88684210526316 12.90300000000002  5.1494736842105215 13.70350000000002  C 4.714736842105247 14.1755  4.12578947368421 14.40300000000002  3.4921052631578897 14.531000000000006  C 2.6610526315789382 14.6995  1.0573684210526393 14.920999999999992  0.44052631578946794 14.127999999999986  C 0.16526315789471818 13.774000000000001  0.1515789473684268 13.286000000000001  0.17052631578948013 12.863999999999976  C 0.2252631578947354 11.634500000000003  0.6457894736842275 10.403999999999996  1.1015789473684303 9.260999999999967  C 1.667894736842126 7.838999999999941  2.3821052631579 6.472999999999956  3.034210526315812 5.085999999999956  C 3.631578947368439 3.8144999999999527  4.174210526315811 2.519499999999937  4.693157894736858 1.2174999999999727  C 4.840000000000014 0.8489999999999895  4.982105263157899 0.47899999999998505  5.126842105263179 0.1099999999999568  " stroke-width="2" stroke="#ffffff" fill="none" transform="matrix(1 0 0 1 420 11276 )" />
  </g>
</svg>