<?xml version="1.0" encoding="utf-8"?>
<svg version="1.1" xmlns:xlink="http://www.w3.org/1999/xlink" width="8px" height="30px" xmlns="http://www.w3.org/2000/svg">
  <g transform="matrix(1 0 0 1 -422 -11185 )">
    <path d="M 3.180499999999995 26.81252830188677  C 3.321499999999986 24.203207547169807  3.4625000000000057 21.594396226415043  3.603499999999997 18.985584905660364  C 3.7109999999999843 16.997773584905655  3.805999999999983 15.00894339622641  3.9350000000000023 13.022660377358484  C 4.1270000000000095 10.064886792452834  4.327500000000015 7.107622641509433  4.511500000000012 4.1488301886792485  C 4.563000000000017 3.3169245283018993  4.654000000000025 2.451905660377353  4.596000000000004 1.6184716981132181  C 4.5800000000000125 1.3856603773585043  4.545999999999992 1.1390943396226654  4.391999999999996 0.9556981132075641  C 4.202499999999986 0.7300188679245536  3.883499999999998 0.6525849056603804  3.6115000000000066 0.6011320754717016  C 2.819999999999993 0.45033962264151683  1.9569999999999936 0.47886792452830074  1.1595000000000084 0.5471320754717044  C 0.9225000000000136 0.5675094339622808  0.6870000000000118 0.598075471698131  0.45300000000000296 0.6393396226415071  " stroke-width="2" stroke="#ffffff" fill="none" transform="matrix(1 0 0 1 423 11186 )" />
  </g>
</svg>