<?xml version="1.0" encoding="utf-8"?>
<svg version="1.1" xmlns:xlink="http://www.w3.org/1999/xlink" width="23px" height="28px" xmlns="http://www.w3.org/2000/svg">
  <g transform="matrix(1 0 0 1 -778 -18119 )">
    <path d="M 4.8681599999999845 26.79839999999996  C 5.839679999999971 25.45739999999995  6.973119999999981 24.17399999999991  8.29399999999996 23.18309999999991  C 9.133519999999967 22.55309999999987  10.037279999999956 22.26149999999991  11.001759999999958 21.881699999999885  C 13.180639999999958 21.02309999999993  15.148319999999948 18.811799999999938  16.301999999999982 16.798499999999866  C 17.34919999999998 14.972399999999867  16.671599999999994 12.851999999999874  17.047359999999962 10.862999999999841  C 17.563039999999972 8.137799999999821  19.66887999999995 6.179399999999885  20.82431999999999 3.760199999999793  C 21.31623999999996 2.7296999999998093  21.544159999999973 1.2410999999998125  20.45912000000002 0.4940999999997758  C 19.719040000000014 -0.015300000000252114  18.872480000000024 0.3914999999997463  18.208080000000027 0.8387999999998101  C 16.69624000000001 1.8575999999997637  15.437840000000005 3.290399999999852  14.133680000000032 4.557599999999764  C 13.308240000000042 5.35949999999973  12.407120000000042 6.338699999999801  11.315040000000053 6.764399999999761  C 10.53712000000004 7.0676999999997525  9.693200000000038 6.990299999999741  8.945200000000067 7.402499999999714  C 8.301040000000043 7.757099999999718  7.736080000000047 8.279099999999755  7.2371200000000915 8.819099999999674  C 6.210160000000114 9.930599999999686  5.463920000000103 11.212199999999665  5.279120000000071 12.743999999999666  C 5.130400000000086 13.978799999999627  5.0969600000000765 15.168599999999627  4.723840000000096 16.36109999999967  C 4.129840000000085 18.26009999999968  3.1961600000001043 20.044799999999633  2.274800000000082 21.79349999999962  C 1.8066400000000977 22.681799999999587  1.3358400000000756 23.567399999999623  0.8280800000000772 24.433199999999616  " stroke-width="1" stroke="#ffffff" fill="none" transform="matrix(1 0 0 1 778 18119 )" />
  </g>
</svg>