<?xml version="1.0" encoding="utf-8"?>
<svg version="1.1" xmlns:xlink="http://www.w3.org/1999/xlink" width="10px" height="48px" xmlns="http://www.w3.org/2000/svg">
  <g transform="matrix(1 0 0 1 -743 -17978 )">
    <path d="M 5.724899999999991 46.673660377358445  C 5.978699999999975 42.13150943396226  6.23250000000001 37.590245283018774  6.486299999999994 33.04898113207545  C 6.679799999999972 29.588716981132066  6.85079999999997 26.12667924528301  7.083000000000005 22.6690754716981  C 7.428600000000017 17.520358490566043  7.789500000000026 12.372528301886792  8.120700000000022 7.222037735849061  C 8.21340000000003 5.77390566037738  8.377200000000045 4.268132075471688  8.272800000000005 2.8173396226415277  C 8.244000000000023 2.412075471698137  8.182799999999986 1.9828679245283436  7.905599999999993 1.6636226415094635  C 7.564499999999975 1.2707735849057045  6.990299999999997 1.135981132075477  6.500700000000012 1.0464150943396286  C 5.075999999999987 0.7839245283018996  3.5225999999999886 0.8335849056603754  2.087100000000015 0.9524150943396336  C 1.6605000000000245 0.9878867924528592  1.2366000000000212 1.0410943396226726  0.8154000000000053 1.112924528301883  " stroke-width="1" stroke="#ffffff" fill="none" transform="matrix(1 0 0 1 743 17978 )" />
  </g>
</svg>