<?xml version="1.0" encoding="utf-8"?>
<svg version="1.1" xmlns:xlink="http://www.w3.org/1999/xlink" width="16px" height="18px" xmlns="http://www.w3.org/2000/svg">
  <g transform="matrix(1 0 0 1 -442 -11265 )">
    <path d="M 2.8766399999999908 14.887999999999977  C 3.4507199999999827 14.142999999999972  4.120479999999989 13.42999999999995  4.900999999999976 12.87949999999995  C 5.39707999999998 12.529499999999928  5.931119999999973 12.36749999999995  6.501039999999975 12.156499999999937  C 7.7885599999999755 11.679499999999962  8.951279999999969 10.450999999999965  9.632999999999988 9.332499999999925  C 10.251799999999987 8.317999999999927  9.851399999999996 7.1399999999999295  10.073439999999977 6.034999999999911  C 10.378159999999985 4.520999999999901  11.62251999999997 3.432999999999936  12.305279999999994 2.088999999999885  C 12.595959999999977 1.516499999999894  12.730639999999985 0.6894999999998959  12.089480000000012 0.2744999999998754  C 11.65216000000001 -0.008500000000140062  11.151920000000013 0.21749999999985903  10.759320000000017 0.4659999999998945  C 9.865960000000007 1.0319999999998686  9.122360000000002 1.8279999999999177  8.351720000000018 2.5319999999998686  C 7.8639600000000245 2.97749999999985  7.331480000000025 3.5214999999998895  6.686160000000032 3.7579999999998677  C 6.2264800000000236 3.926499999999862  5.727800000000022 3.8834999999998563  5.28580000000004 4.112499999999841  C 4.905160000000026 4.309499999999844  4.5713200000000285 4.599499999999864  4.276480000000054 4.8994999999998186  C 3.6696400000000677 5.516999999999825  3.228680000000061 6.2289999999998145  3.119480000000042 7.0799999999998136  C 3.0316000000000507 7.765999999999792  3.011840000000045 8.426999999999794  2.7913600000000565 9.089499999999816  C 2.4403600000000507 10.144499999999823  1.8886400000000616 11.135999999999797  1.3442000000000485 12.107499999999789  C 1.0675600000000578 12.600999999999772  0.7893600000000447 13.09299999999979  0.48932000000004566 13.573999999999785  " stroke-width="2" stroke="#ffffff" fill="none" transform="matrix(1 0 0 1 443 11266 )" />
  </g>
</svg>