<?xml version="1.0" encoding="utf-8"?>
<svg version="1.1" xmlns:xlink="http://www.w3.org/1999/xlink" width="22px" height="25px" xmlns="http://www.w3.org/2000/svg">
  <g transform="matrix(1 0 0 1 -455 -11269 )">
    <path d="M 0.27649999999999864 3.6960000000000233  C 1.3894999999999982 5.579813953488404  2.5194999999999936 7.453906976744223  3.605000000000018 9.354604651162786  C 4.722000000000037 11.31055813953487  5.793000000000006 13.28544186046511  6.824000000000012 15.289999999999996  C 7.378500000000031 16.367488372093018  7.909500000000037 17.46237209302324  8.497000000000014 18.521441860465128  C 8.87700000000001 19.206511627907016  9.267500000000041 19.941209302325582  9.817499999999997 20.504000000000012  C 10.870499999999993 21.58148837209303  12.856999999999971 21.552837209302314  14.218000000000018 21.428511627906996  C 15.141999999999996 21.34409302325585  16.035500000000013 21.0857209302326  16.799500000000023 20.533674418604658  C 17.653500000000008 19.916651162790696  18.405500000000018 18.99572093023258  18.769000000000005 17.984744186046534  C 19.039500000000032 17.232651162790706  18.966000000000008 16.514837209302325  18.545000000000016 15.839488372093054  C 18.184500000000014 15.261348837209336  17.687999999999988 14.77734883720932  17.21199999999999 14.30102325581401  C 16.355500000000006 13.444558139534951  15.486499999999978 12.601906976744228  14.634999999999991 11.740325581395407  C 13.120499999999993 10.208000000000057  11.703499999999963 8.575906976744273  10.367500000000007 6.878837209302409  C 9.031499999999994 5.181767441860545  7.761500000000012 3.4304651162791484  6.574999999999989 1.620837209302387  C 6.2964999999999804 1.1961860465116685  6.025499999999965 0.7664186046512451  5.754999999999996 0.33665116279076374  " stroke-width="2" stroke="#ffffff" fill="none" transform="matrix(1 0 0 1 456 11270 )" />
  </g>
</svg>