<?xml version="1.0" encoding="utf-8"?>
<svg version="1.1" xmlns:xlink="http://www.w3.org/1999/xlink" width="35px" height="39px" xmlns="http://www.w3.org/2000/svg">
  <g transform="matrix(1 0 0 1 -801 -18126 )">
    <path d="M 0.49478947368420806 6.38400000000004  C 2.486473684210523 9.637860465116335  4.5085789473684095 12.874930232558205  6.45105263157898 16.157953488372087  C 8.449894736842172 19.536418604651136  10.36642105263159 22.947581395348823  12.211368421052653 26.409999999999993  C 13.203631578947425 28.271116279069755  14.153842105263225 30.16227906976742  15.205157894736868 31.99158139534886  C 15.885157894736858 33.174883720930296  16.583947368421125 34.44390697674419  17.568157894736835 35.41600000000002  C 19.45247368421051 37.27711627906978  23.007263157894684 37.22762790697672  25.442736842105294 37.01288372093026  C 27.096210526315783 36.867069767441926  28.695105263157917 36.42079069767449  30.06226315789478 35.4672558139535  C 31.59047368421054 34.40148837209302  32.93615789473687 32.810790697674456  33.586631578947376 31.064558139534924  C 34.07068421052638 29.765488372093035  33.93915789473686 28.52562790697674  33.18578947368424 27.359116279069823  C 32.540684210526344 26.360511627907034  31.652210526315766 25.52451162790701  30.800421052631556 24.701767441860564  C 29.267736842105275 23.222418604651278  27.712684210526277 21.766930232558213  26.188947368421033 20.278744186046612  C 23.4787894736842 17.632000000000097  20.94310526315783 14.81293023255829  18.552368421052645 11.881627906976888  C 16.161631578947357 8.950325581395488  13.889000000000022 5.925348837209438  11.76578947368419 2.79962790697685  C 11.267421052631544 2.0661395348837908  10.782473684210464 1.3238139534885143  10.298421052631571 0.5814883720931374  " stroke-width="1" stroke="#ffffff" fill="none" transform="matrix(1 0 0 1 801 18126 )" />
  </g>
</svg>