<?xml version="1.0" encoding="utf-8"?>
<svg version="1.1" xmlns:xlink="http://www.w3.org/1999/xlink" width="11px" height="14px" xmlns="http://www.w3.org/2000/svg">
  <g transform="matrix(1 0 0 1 -464 -11264 )">
    <path d="M 0.3941333333333508 10.958619047619074  C 2.9178666666666686 9.542761904761944  5.441600000000047 8.126904761904814  7.965333333333365 6.711047619047625  C 7.965333333333365 6.628809523809509  7.822933333333337 6.465904761904788  7.782933333333373 6.3972857142856965  C 7.624000000000039 6.123857142857099  7.464533333333383 5.849904761904765  7.30560000000005 5.576476190476169  C 6.822400000000076 4.745714285714257  6.3392000000000435 3.914952380952346  5.85600000000007 3.084190476190434  C 5.4085333333333745 2.314714285714217  4.9610666666667385 1.5452380952380596  4.513600000000042 0.776285714285699  C 4.408000000000054 0.5945238095238048  4.294933333333392 0.2676666666666495  4.135466666666738 0.1262380952380876  C 3.98080000000009 -0.010999999999978085  4.141866666666707 0.014142857142820459  3.9098666666667365 0.08695238095234951  C 3.476266666666743 0.22261904761902382  3.029333333333428 0.5809047619047218  2.634133333333375 0.8024761904761514  C 2.310933333333378 0.9837142857142486  1.9877333333333809 1.1649523809523457  1.6645333333333838 1.34671428571424  " stroke-width="2" stroke="#ffffff" fill="none" transform="matrix(1 0 0 1 465 11265 )" />
  </g>
</svg>