<?xml version="1.0" encoding="utf-8"?>
<svg version="1.1" xmlns:xlink="http://www.w3.org/1999/xlink" width="14px" height="21px" xmlns="http://www.w3.org/2000/svg">
  <defs>
    <mask fill="white" id="clip297">
      <path d="M 11.786000000000001 20.762  C 11.879500000000007 20.805999999999983  13.649000000000001 19.845000000000027  13.649000000000001 19.732500000000016  C 12.255499999999984 17.293000000000006  10.862000000000023 14.853000000000009  9.468500000000006 12.413499999999999  C 7.531499999999995 9.021999999999991  4.718999999999994 4.755499999999984  2.7819999999999823 1.363999999999976  C 2.655499999999961 1.141999999999996  2.528500000000008 0.9205000000000041  2.401999999999987 0.6984999999999673  C 2.366999999999962 0.6374999999999886  2.284999999999968 0.41049999999995634  2.2199999999999704 0.37999999999999545  C 2.114499999999964 0.33049999999997226  1.735499999999945 0.6220000000000141  1.6204999999999927 0.6879999999999882  C 1.1995000000000005 0.9284999999999854  0.77800000000002 1.1689999999999827  0.3569999999999709 1.40949999999998  C 0.3569999999999709 1.5639999999999643  0.6234999999999786 1.8764999999999645  0.6969999999999459 2.0049999999999955  C 1.0019999999999527 2.5389999999999873  1.3069999999999595 3.072999999999979  1.6119999999999663 3.606999999999971  C 2.586999999999989 5.3139999999999645  3.562499999999943 7.021499999999946  4.537499999999966 8.728499999999997  C 6.474999999999966 12.120000000000005  9.286999999999978 16.386500000000012  11.22399999999999 19.77800000000002  C 11.350500000000011 20  11.477499999999964 20.221499999999992  11.603999999999985 20.44350000000003  C 11.63900000000001 20.504500000000007  11.721000000000004 20.73150000000004  11.786000000000001 20.762  Z " fill-rule="evenodd" />
    </mask>
  </defs>
  <g transform="matrix(1 0 0 1 -464 -11257 )">
    <path d="M 11.786000000000001 20.762  C 11.879500000000007 20.805999999999983  13.649000000000001 19.845000000000027  13.649000000000001 19.732500000000016  C 12.255499999999984 17.293000000000006  10.862000000000023 14.853000000000009  9.468500000000006 12.413499999999999  C 7.531499999999995 9.021999999999991  4.718999999999994 4.755499999999984  2.7819999999999823 1.363999999999976  C 2.655499999999961 1.141999999999996  2.528500000000008 0.9205000000000041  2.401999999999987 0.6984999999999673  C 2.366999999999962 0.6374999999999886  2.284999999999968 0.41049999999995634  2.2199999999999704 0.37999999999999545  C 2.114499999999964 0.33049999999997226  1.735499999999945 0.6220000000000141  1.6204999999999927 0.6879999999999882  C 1.1995000000000005 0.9284999999999854  0.77800000000002 1.1689999999999827  0.3569999999999709 1.40949999999998  C 0.3569999999999709 1.5639999999999643  0.6234999999999786 1.8764999999999645  0.6969999999999459 2.0049999999999955  C 1.0019999999999527 2.5389999999999873  1.3069999999999595 3.072999999999979  1.6119999999999663 3.606999999999971  C 2.586999999999989 5.3139999999999645  3.562499999999943 7.021499999999946  4.537499999999966 8.728499999999997  C 6.474999999999966 12.120000000000005  9.286999999999978 16.386500000000012  11.22399999999999 19.77800000000002  C 11.350500000000011 20  11.477499999999964 20.221499999999992  11.603999999999985 20.44350000000003  C 11.63900000000001 20.504500000000007  11.721000000000004 20.73150000000004  11.786000000000001 20.762  Z " fill-rule="nonzero" fill="#ffffff" stroke="none" fill-opacity="0" transform="matrix(1 0 0 1 464 11257 )" />
    <path d="M 11.786000000000001 20.762  C 11.879500000000007 20.805999999999983  13.649000000000001 19.845000000000027  13.649000000000001 19.732500000000016  C 12.255499999999984 17.293000000000006  10.862000000000023 14.853000000000009  9.468500000000006 12.413499999999999  C 7.531499999999995 9.021999999999991  4.718999999999994 4.755499999999984  2.7819999999999823 1.363999999999976  C 2.655499999999961 1.141999999999996  2.528500000000008 0.9205000000000041  2.401999999999987 0.6984999999999673  C 2.366999999999962 0.6374999999999886  2.284999999999968 0.41049999999995634  2.2199999999999704 0.37999999999999545  C 2.114499999999964 0.33049999999997226  1.735499999999945 0.6220000000000141  1.6204999999999927 0.6879999999999882  C 1.1995000000000005 0.9284999999999854  0.77800000000002 1.1689999999999827  0.3569999999999709 1.40949999999998  C 0.3569999999999709 1.5639999999999643  0.6234999999999786 1.8764999999999645  0.6969999999999459 2.0049999999999955  C 1.0019999999999527 2.5389999999999873  1.3069999999999595 3.072999999999979  1.6119999999999663 3.606999999999971  C 2.586999999999989 5.3139999999999645  3.562499999999943 7.021499999999946  4.537499999999966 8.728499999999997  C 6.474999999999966 12.120000000000005  9.286999999999978 16.386500000000012  11.22399999999999 19.77800000000002  C 11.350500000000011 20  11.477499999999964 20.221499999999992  11.603999999999985 20.44350000000003  C 11.63900000000001 20.504500000000007  11.721000000000004 20.73150000000004  11.786000000000001 20.762  Z " stroke-width="4" stroke="#ffffff" fill="none" transform="matrix(1 0 0 1 464 11257 )" mask="url(#clip297)" />
  </g>
</svg>