<?xml version="1.0" encoding="utf-8"?>
<svg version="1.1" xmlns:xlink="http://www.w3.org/1999/xlink" width="25px" height="38px" xmlns="http://www.w3.org/2000/svg">
  <defs>
    <mask fill="white" id="clip314">
      <path d="M 21.046428571428574 37.56933333333333  C 21.21339285714287 37.64895238095235  24.373214285714287 35.910000000000046  24.373214285714287 35.7064285714286  C 21.8848214285714 31.29209523809525  19.39642857142861 26.876857142857162  16.908035714285724 22.462523809523805  C 13.449107142857134 16.325523809523794  8.426785714285703 8.605190476190447  4.967857142857111 2.4681904761904327  C 4.741964285714216 2.066476190476183  4.515178571428586 1.6656666666666742  4.289285714285691 1.2639523809523217  C 4.226785714285646 1.153571428571408  4.080357142857086 0.7428095238094448  3.964285714285661 0.6876190476190395  C 3.775892857142793 0.5980476190475689  3.0991071428570445 1.1255238095238351  2.893749999999987 1.2449523809523597  C 2.1419642857142867 1.6801428571428307  1.38928571428575 2.115333333333302  0.637499999999948 2.550523809523773  C 0.637499999999948 2.830095238095174  1.1133928571428189 3.395571428571364  1.2446428571427606 3.62809523809523  C 1.7892857142856298 4.594380952380929  2.333928571428499 5.560666666666629  2.8785714285713686 6.526952380952328  C 4.619642857142837 9.61580952380946  6.361607142857041 12.705571428571332  8.10267857142851 15.794428571428565  C 11.56249999999994 21.931428571428583  16.583928571428533 29.651761904761926  20.042857142857123 35.78876190476194  C 20.26875000000002 36.19047619047619  20.495535714285648 36.591285714285696  20.721428571428543 36.99300000000005  C 20.78392857142859 37.10338095238097  20.93035714285715 37.51414285714293  21.046428571428574 37.56933333333333  Z " fill-rule="evenodd" />
    </mask>
  </defs>
  <g transform="matrix(1 0 0 1 -816 -18102 )">
    <path d="M 21.046428571428574 37.56933333333333  C 21.21339285714287 37.64895238095235  24.373214285714287 35.910000000000046  24.373214285714287 35.7064285714286  C 21.8848214285714 31.29209523809525  19.39642857142861 26.876857142857162  16.908035714285724 22.462523809523805  C 13.449107142857134 16.325523809523794  8.426785714285703 8.605190476190447  4.967857142857111 2.4681904761904327  C 4.741964285714216 2.066476190476183  4.515178571428586 1.6656666666666742  4.289285714285691 1.2639523809523217  C 4.226785714285646 1.153571428571408  4.080357142857086 0.7428095238094448  3.964285714285661 0.6876190476190395  C 3.775892857142793 0.5980476190475689  3.0991071428570445 1.1255238095238351  2.893749999999987 1.2449523809523597  C 2.1419642857142867 1.6801428571428307  1.38928571428575 2.115333333333302  0.637499999999948 2.550523809523773  C 0.637499999999948 2.830095238095174  1.1133928571428189 3.395571428571364  1.2446428571427606 3.62809523809523  C 1.7892857142856298 4.594380952380929  2.333928571428499 5.560666666666629  2.8785714285713686 6.526952380952328  C 4.619642857142837 9.61580952380946  6.361607142857041 12.705571428571332  8.10267857142851 15.794428571428565  C 11.56249999999994 21.931428571428583  16.583928571428533 29.651761904761926  20.042857142857123 35.78876190476194  C 20.26875000000002 36.19047619047619  20.495535714285648 36.591285714285696  20.721428571428543 36.99300000000005  C 20.78392857142859 37.10338095238097  20.93035714285715 37.51414285714293  21.046428571428574 37.56933333333333  Z " fill-rule="nonzero" fill="#ffffff" stroke="none" fill-opacity="0" transform="matrix(1 0 0 1 816 18102 )" />
    <path d="M 21.046428571428574 37.56933333333333  C 21.21339285714287 37.64895238095235  24.373214285714287 35.910000000000046  24.373214285714287 35.7064285714286  C 21.8848214285714 31.29209523809525  19.39642857142861 26.876857142857162  16.908035714285724 22.462523809523805  C 13.449107142857134 16.325523809523794  8.426785714285703 8.605190476190447  4.967857142857111 2.4681904761904327  C 4.741964285714216 2.066476190476183  4.515178571428586 1.6656666666666742  4.289285714285691 1.2639523809523217  C 4.226785714285646 1.153571428571408  4.080357142857086 0.7428095238094448  3.964285714285661 0.6876190476190395  C 3.775892857142793 0.5980476190475689  3.0991071428570445 1.1255238095238351  2.893749999999987 1.2449523809523597  C 2.1419642857142867 1.6801428571428307  1.38928571428575 2.115333333333302  0.637499999999948 2.550523809523773  C 0.637499999999948 2.830095238095174  1.1133928571428189 3.395571428571364  1.2446428571427606 3.62809523809523  C 1.7892857142856298 4.594380952380929  2.333928571428499 5.560666666666629  2.8785714285713686 6.526952380952328  C 4.619642857142837 9.61580952380946  6.361607142857041 12.705571428571332  8.10267857142851 15.794428571428565  C 11.56249999999994 21.931428571428583  16.583928571428533 29.651761904761926  20.042857142857123 35.78876190476194  C 20.26875000000002 36.19047619047619  20.495535714285648 36.591285714285696  20.721428571428543 36.99300000000005  C 20.78392857142859 37.10338095238097  20.93035714285715 37.51414285714293  21.046428571428574 37.56933333333333  Z " stroke-width="2" stroke="#ffffff" fill="none" transform="matrix(1 0 0 1 816 18102 )" mask="url(#clip314)" />
  </g>
</svg>