<?xml version="1.0" encoding="utf-8"?>
<svg version="1.1" xmlns:xlink="http://www.w3.org/1999/xlink" width="14px" height="20px" xmlns="http://www.w3.org/2000/svg">
  <g transform="matrix(1 0 0 1 -817 -18117 )">
    <path d="M 0.640466666666695 18.928523809523853  C 4.7415333333333365 16.482952380952447  8.842600000000077 14.037380952381042  12.943666666666717 11.591809523809536  C 12.943666666666717 11.449761904761878  12.712266666666672 11.168380952380998  12.64726666666673 11.049857142857112  C 12.389000000000063 10.577571428571353  12.129866666666748 10.104380952380957  11.87160000000008 9.6320952380952  C 11.086400000000124 8.197142857142808  10.30120000000007 6.7621904761904155  9.516000000000114 5.327238095238023  C 8.788866666666733 3.9981428571427386  8.06173333333345 2.669047619047557  7.334600000000068 1.3408571428571165  C 7.163000000000087 1.0269047619047538  6.979266666666763 0.46233333333330373  6.720133333333449 0.21804761904760586  C 6.468800000000146 -0.018999999999962144  6.7305333333333985 0.024428571428508065  6.353533333333447 0.1501904761904219  C 5.648933333333457 0.3845238095237684  4.92266666666682 1.0033809523808832  4.280466666666734 1.3860952380951705  C 3.7552666666667394 1.6991428571427931  3.230066666666744 2.0121904761904155  2.704866666666749 2.326142857142778  " stroke-width="1" stroke="#ffffff" fill="none" transform="matrix(1 0 0 1 817 18117 )" />
  </g>
</svg>