<?xml version="1.0" encoding="utf-8"?>
<svg version="1.1" xmlns:xlink="http://www.w3.org/1999/xlink" width="38px" height="64px" xmlns="http://www.w3.org/2000/svg">
  <g transform="matrix(1 0 0 1 -782 -17799 )">
    <path d="M 4.037512195121942 37.2159  C 6.430780487804857 33.92010000000002  8.884512195121925 30.66660000000001  11.462780487804876 27.511199999999985  C 14.129487804878032 24.246  16.836804878048763 21.0159  19.624439024390227 17.851499999999984  C 22.63317073170725 14.435099999999988  25.633780487804852 11.009700000000004  28.72373170731703 7.665299999999997  C 30.15319512195113 6.118200000000002  31.588073170731644 4.571999999999986  33.101463414634104 3.106799999999998  C 33.82341463414625 2.4083999999999888  34.801658536585336 1.1753999999999847  35.82682926829262 0.871200000000016  C 37.15792682926825 0.4760999999999967  35.3548536585365 3.9788999999999928  35.24114634146335 4.227300000000002  C 33.3938536585365 8.261100000000027  31.246048780487722 12.167999999999985  29.19299999999994 16.10010000000001  C 27.18146341463405 19.952099999999984  25.0859999999999 23.76000000000003  22.987829268292643 27.566100000000016  C 20.944707317073124 31.273200000000042  18.816756097560976 34.93260000000002  16.655414634146304 38.5722  C 14.469707317073112 42.25319999999998  12.184731707317031 45.87750000000002  9.83478048780485 49.4568  C 7.582292682926817 52.887600000000006  5.231439024390216 56.26619999999998  2.746121951219467 59.5341  C 2.0701951219511527 60.422400000000025  1.387048780487785 61.30439999999999  0.7002926829267874 62.183700000000016  " stroke-width="1" stroke="#ffffff" fill="none" transform="matrix(1 0 0 1 782 17799 )" />
  </g>
</svg>