<?xml version="1.0" encoding="utf-8"?>
<svg version="1.1" xmlns:xlink="http://www.w3.org/1999/xlink" width="24px" height="39px" xmlns="http://www.w3.org/2000/svg">
  <g transform="matrix(1 0 0 1 -444 -11084 )">
    <path d="M 2.291560975609751 21.26622857142857  C 3.649902439024378 19.3829142857143  5.0425609756097405 17.523771428571436  6.505902439024389 15.720685714285706  C 8.019439024390234 13.854857142857142  9.556024390243893 12.009085714285714  11.138195121951211 10.200857142857133  C 12.845853658536548 8.248628571428565  14.548902439024376 6.291257142857145  16.30265853658534 4.380171428571426  C 17.113975609756046 3.4961142857142864  17.9283658536585 2.61257142857142  18.787317073170705 1.7753142857142847  C 19.19707317073166 1.3762285714285651  19.75229268292681 0.6716571428571342  20.33414634146338 0.4978285714285805  C 21.08963414634144 0.272057142857141  20.066268292682878 2.2736571428571386  20.001731707317038 2.4156000000000013  C 18.95326829268288 4.720628571428588  17.734243902438976 6.953142857142848  16.568999999999967 9.200057142857148  C 15.427317073170675 11.401199999999992  14.237999999999943 13.577142857142874  13.04714634146339 15.752057142857153  C 11.887536585365828 17.870400000000025  10.679780487804878 19.961485714285725  9.453073170731686 22.041257142857145  C 8.21253658536582 24.144685714285703  6.915658536585342 26.2157142857143  5.5819024390243746 28.26102857142857  C 4.303463414634139 30.22148571428572  2.9691951219512034 32.15211428571427  1.5586097560975352 34.019485714285715  C 1.1749756097560595 34.527085714285725  0.787243902439013 35.03108571428571  0.3974634146341226 35.53354285714287  " stroke-width="2" stroke="#ffffff" fill="none" transform="matrix(1 0 0 1 445 11085 )" />
  </g>
</svg>