<?xml version="1.0" encoding="utf-8"?>
<svg version="1.1" xmlns:xlink="http://www.w3.org/1999/xlink" width="30px" height="33px" xmlns="http://www.w3.org/2000/svg">
  <defs>
    <mask fill="white" id="clip410">
      <path d="M 16.789411764705797 17.67640540540527  C 16.943823529411745 17.858351351351374  17.768823529411748 18.62181081081083  17.768823529411748 18.863513513513492  C 20.479411764705866 22.319594594594573  22.83264705882349 26.029864864864816  25.31294117647058 29.652729729729693  C 25.969411764705896 30.612405405405386  26.677058823529443 31.88870270270262  27.682941176470607 32.53889189189184  C 27.892941176470657 32.67445945945945  28.132941176470602 32.793081081081006  28.389705882353 32.771675675675596  C 28.899705882352976 32.72886486486479  29.163529411764728 32.24902702702694  29.26058823529415 31.787027027026916  C 29.385882352941252 31.190351351351254  29.265882352941183 30.553540540540393  29.10529411764705 29.97737837837827  C 28.647352941176457 28.328270270270117  27.752647058823506 26.788864864864713  26.896764705882305 25.32437837837828  C 24.72705882352941 21.609648648648584  22.245882352941166 16.489297297297245  19.45058823529405 13.227648648648563  C 16.724999999999937 10.04805405405392  12.069705882352867 7.203810810810707  8.711470588235237 4.722567567567531  C 7.149705882352899 3.5684594594594383  5.525294117647009 2.457162162162158  3.779117647058787 1.604513513513494  C 3.03264705882349 1.2397297297297176  2.095588235294067 0.7697027027026516  1.2335294117646773 0.7768378378378208  C 0.832941176470553 0.7804054054054055  0.5055882352940992 0.8829729729729812  0.489705882352897 1.328918918918927  C 0.4747058823529007 1.7552432432432084  0.8444117647058267 2.2315135135134714  1.0729411764705454 2.5525945945945647  C 2.106176470588186 4.001918918918889  3.5170588235293527 5.199729729729665  4.83441176470582 6.374351351351293  C 7.993235294117569 9.190945945945902  12.885882352941113 11.817567567567467  15.756176470588159 14.947216216216129  C 16.107352941176416 15.330729729729596  16.452352941176386 17.280405405405304  16.789411764705797 17.67640540540527  Z " fill-rule="evenodd" />
    </mask>
  </defs>
  <g transform="matrix(1 0 0 1 -777 -18015 )">
    <path d="M 16.789411764705797 17.67640540540527  C 16.943823529411745 17.858351351351374  17.768823529411748 18.62181081081083  17.768823529411748 18.863513513513492  C 20.479411764705866 22.319594594594573  22.83264705882349 26.029864864864816  25.31294117647058 29.652729729729693  C 25.969411764705896 30.612405405405386  26.677058823529443 31.88870270270262  27.682941176470607 32.53889189189184  C 27.892941176470657 32.67445945945945  28.132941176470602 32.793081081081006  28.389705882353 32.771675675675596  C 28.899705882352976 32.72886486486479  29.163529411764728 32.24902702702694  29.26058823529415 31.787027027026916  C 29.385882352941252 31.190351351351254  29.265882352941183 30.553540540540393  29.10529411764705 29.97737837837827  C 28.647352941176457 28.328270270270117  27.752647058823506 26.788864864864713  26.896764705882305 25.32437837837828  C 24.72705882352941 21.609648648648584  22.245882352941166 16.489297297297245  19.45058823529405 13.227648648648563  C 16.724999999999937 10.04805405405392  12.069705882352867 7.203810810810707  8.711470588235237 4.722567567567531  C 7.149705882352899 3.5684594594594383  5.525294117647009 2.457162162162158  3.779117647058787 1.604513513513494  C 3.03264705882349 1.2397297297297176  2.095588235294067 0.7697027027026516  1.2335294117646773 0.7768378378378208  C 0.832941176470553 0.7804054054054055  0.5055882352940992 0.8829729729729812  0.489705882352897 1.328918918918927  C 0.4747058823529007 1.7552432432432084  0.8444117647058267 2.2315135135134714  1.0729411764705454 2.5525945945945647  C 2.106176470588186 4.001918918918889  3.5170588235293527 5.199729729729665  4.83441176470582 6.374351351351293  C 7.993235294117569 9.190945945945902  12.885882352941113 11.817567567567467  15.756176470588159 14.947216216216129  C 16.107352941176416 15.330729729729596  16.452352941176386 17.280405405405304  16.789411764705797 17.67640540540527  Z " fill-rule="nonzero" fill="#ffffff" stroke="none" fill-opacity="0" transform="matrix(1 0 0 1 777 18015 )" />
    <path d="M 16.789411764705797 17.67640540540527  C 16.943823529411745 17.858351351351374  17.768823529411748 18.62181081081083  17.768823529411748 18.863513513513492  C 20.479411764705866 22.319594594594573  22.83264705882349 26.029864864864816  25.31294117647058 29.652729729729693  C 25.969411764705896 30.612405405405386  26.677058823529443 31.88870270270262  27.682941176470607 32.53889189189184  C 27.892941176470657 32.67445945945945  28.132941176470602 32.793081081081006  28.389705882353 32.771675675675596  C 28.899705882352976 32.72886486486479  29.163529411764728 32.24902702702694  29.26058823529415 31.787027027026916  C 29.385882352941252 31.190351351351254  29.265882352941183 30.553540540540393  29.10529411764705 29.97737837837827  C 28.647352941176457 28.328270270270117  27.752647058823506 26.788864864864713  26.896764705882305 25.32437837837828  C 24.72705882352941 21.609648648648584  22.245882352941166 16.489297297297245  19.45058823529405 13.227648648648563  C 16.724999999999937 10.04805405405392  12.069705882352867 7.203810810810707  8.711470588235237 4.722567567567531  C 7.149705882352899 3.5684594594594383  5.525294117647009 2.457162162162158  3.779117647058787 1.604513513513494  C 3.03264705882349 1.2397297297297176  2.095588235294067 0.7697027027026516  1.2335294117646773 0.7768378378378208  C 0.832941176470553 0.7804054054054055  0.5055882352940992 0.8829729729729812  0.489705882352897 1.328918918918927  C 0.4747058823529007 1.7552432432432084  0.8444117647058267 2.2315135135134714  1.0729411764705454 2.5525945945945647  C 2.106176470588186 4.001918918918889  3.5170588235293527 5.199729729729665  4.83441176470582 6.374351351351293  C 7.993235294117569 9.190945945945902  12.885882352941113 11.817567567567467  15.756176470588159 14.947216216216129  C 16.107352941176416 15.330729729729596  16.452352941176386 17.280405405405304  16.789411764705797 17.67640540540527  Z " stroke-width="2" stroke="#ffffff" fill="none" transform="matrix(1 0 0 1 777 18015 )" mask="url(#clip410)" />
  </g>
</svg>