<?xml version="1.0" encoding="utf-8"?>
<svg version="1.1" xmlns:xlink="http://www.w3.org/1999/xlink" width="38px" height="39px" xmlns="http://www.w3.org/2000/svg">
  <g transform="matrix(1 0 0 1 -439 -11089 )">
    <path d="M 0.4149275362318758 35.76394285714285  C 1.7312318840579766 34.21697142857143  3.0470289855072488 32.66999999999999  4.363333333333321 31.12354285714284  C 6.83210144927536 28.221942857142846  9.300869565217369 25.320857142857122  11.769637681159407 22.419257142857123  C 13.17115942028983 20.772514285714266  14.569637681159398 19.123199999999983  15.973695652173905 17.47851428571428  C 17.582173913043498 15.593657142857127  19.218550724637698 13.737599999999993  20.933550724637684 11.951485714285702  C 22.750000000000014 10.059428571428572  24.632898550724644 8.231142857142855  26.552318840579712 6.4470857142857145  C 28.38652173913043 4.742228571428573  30.24811594202896 3.0476571428571364  32.22079710144925 1.5078857142857227  C 32.66920289855071 1.1576571428571598  33.12420289855068 0.8105142857142968  33.60659420289851 0.5086285714285883  C 33.80847826086954 0.3821142857143124  34.065144927536195 0.19182857142859575  34.30710144927531 0.15582857142859927  C 34.7057971014492 0.09668571428573744  34.57949275362316 0.4551428571428817  34.4734782608695 0.7174285714285913  C 34.10826086956514 1.620514285714291  33.493478260869495 2.4510857142857243  32.94869565217387 3.2482285714285872  C 32.36586956521734 4.100400000000007  31.768840579710087 4.944342857142874  31.156594202898493 5.774914285714307  C 29.2062318840579 8.420400000000024  27.255869565217306 11.066400000000014  25.305507246376774 13.711885714285732  C 23.94253623188401 15.560228571428587  22.581594202898508 17.41011428571429  21.184637681159366 19.23222857142858  C 20.823985507246316 19.702800000000018  20.4557246376811 20.1672  20.090507246376742 20.634171428571435  " stroke-width="2" stroke="#ffffff" fill="none" transform="matrix(1 0 0 1 440 11090 )" />
  </g>
</svg>