<?xml version="1.0" encoding="utf-8"?>
<svg version="1.1" xmlns:xlink="http://www.w3.org/1999/xlink" width="63px" height="64px" xmlns="http://www.w3.org/2000/svg">
  <g transform="matrix(1 0 0 1 -773 -17809 )">
    <path d="M 0.7350144927536085 62.58689999999999  C 3.0667536231884154 59.879700000000014  5.397594202898555 57.17249999999998  7.729333333333312 54.46619999999997  C 12.102579710144923 49.38839999999998  16.475826086956484 44.31149999999996  20.849072463768092 39.23369999999997  C 23.331768115941983 36.351899999999965  25.809072463768075 33.465599999999974  28.296260869565206 30.58739999999999  C 31.145565217391336 27.288899999999973  34.04428985507249 24.04079999999999  37.08228985507247 20.915099999999978  C 40.300000000000026 17.604000000000003  43.635420289855084 14.404499999999995  47.03553623188406 11.2824  C 50.2846956521739 8.298900000000003  53.58237681159415 5.333399999999989  57.07684057971011 2.638800000000015  C 57.87115942028983 2.02590000000003  58.67715942028977 1.4184000000000196  59.53168115942022 0.8901000000000294  C 59.88930434782604 0.6687000000000467  60.34397101449269 0.3357000000000425  60.77257971014484 0.27270000000004874  C 61.47884057971001 0.1692000000000405  61.25510144927531 0.796500000000043  61.067304347825974 1.2555000000000347  C 60.420347826086825 2.8359000000000094  59.331304347825956 4.289400000000017  58.36626086956513 5.684400000000028  C 57.333826086956435 7.1757000000000115  56.276231884057864 8.652600000000028  55.191681159420185 10.106100000000037  C 51.736753623188285 14.735700000000042  48.28182608695637 19.366200000000024  44.826898550724565 23.99580000000003  C 42.412492753623106 27.230400000000028  40.001681159420215 30.467700000000008  37.52707246376802 33.65640000000001  C 36.88820289855062 34.47990000000003  36.235855072463664 35.2926  35.58889855072451 36.109800000000014  " stroke-width="1" stroke="#ffffff" fill="none" transform="matrix(1 0 0 1 773 17809 )" />
  </g>
</svg>