<?xml version="1.0" encoding="utf-8"?>
<svg version="1.1" xmlns:xlink="http://www.w3.org/1999/xlink" width="17px" height="19px" xmlns="http://www.w3.org/2000/svg">
  <defs>
    <mask fill="white" id="clip298">
      <path d="M 9.513999999999953 10.177324324324244  C 9.601499999999987 10.282081081081094  10.068999999999988 10.721648648648658  10.068999999999988 10.860810810810799  C 11.60499999999999 12.850675675675664  12.938499999999976 14.986891891891865  14.343999999999994 17.072783783783763  C 14.716000000000008 17.625324324324314  15.117000000000019 18.360162162162116  15.687000000000012 18.734513513513487  C 15.80600000000004 18.812567567567562  15.942000000000007 18.88086486486482  16.087500000000034 18.868540540540497  C 16.37650000000002 18.843891891891847  16.52600000000001 18.567621621621573  16.581000000000017 18.301621621621557  C 16.652000000000044 17.958081081081026  16.584000000000003 17.59143243243235  16.492999999999995 17.25970270270264  C 16.233499999999992 16.31021621621613  15.726499999999987 15.423891891891806  15.241499999999974 14.580702702702647  C 14.012 12.441918918918882  12.605999999999995 9.493837837837809  11.021999999999963 7.615918918918869  C 9.477499999999964 5.7852432432431655  6.839499999999958 4.147648648648589  4.936499999999967 2.719054054054033  C 4.051499999999976 2.054567567567555  3.130999999999972 1.4147297297297274  2.1414999999999793 0.9238108108107995  C 1.7184999999999775 0.7137837837837767  1.1874999999999716 0.4431621621621328  0.6989999999999839 0.44727027027026045  C 0.47199999999998 0.44932432432432434  0.28649999999998954 0.5083783783783831  0.277499999999975 0.7651351351351399  C 0.26899999999997704 1.0105945945945747  0.4784999999999684 1.2848108108107865  0.6079999999999757 1.4696756756756586  C 1.1934999999999718 2.304135135135118  1.9929999999999666 2.9937837837837464  2.739499999999964 3.6700810810810474  C 4.529499999999956 5.291756756756731  7.301999999999964 6.804054054053996  8.928499999999957 8.605972972972923  C 9.12749999999997 8.826783783783707  9.32299999999995 9.949324324324266  9.513999999999953 10.177324324324244  Z " fill-rule="evenodd" />
    </mask>
  </defs>
  <g transform="matrix(1 0 0 1 -442 -11207 )">
    <path d="M 9.513999999999953 10.177324324324244  C 9.601499999999987 10.282081081081094  10.068999999999988 10.721648648648658  10.068999999999988 10.860810810810799  C 11.60499999999999 12.850675675675664  12.938499999999976 14.986891891891865  14.343999999999994 17.072783783783763  C 14.716000000000008 17.625324324324314  15.117000000000019 18.360162162162116  15.687000000000012 18.734513513513487  C 15.80600000000004 18.812567567567562  15.942000000000007 18.88086486486482  16.087500000000034 18.868540540540497  C 16.37650000000002 18.843891891891847  16.52600000000001 18.567621621621573  16.581000000000017 18.301621621621557  C 16.652000000000044 17.958081081081026  16.584000000000003 17.59143243243235  16.492999999999995 17.25970270270264  C 16.233499999999992 16.31021621621613  15.726499999999987 15.423891891891806  15.241499999999974 14.580702702702647  C 14.012 12.441918918918882  12.605999999999995 9.493837837837809  11.021999999999963 7.615918918918869  C 9.477499999999964 5.7852432432431655  6.839499999999958 4.147648648648589  4.936499999999967 2.719054054054033  C 4.051499999999976 2.054567567567555  3.130999999999972 1.4147297297297274  2.1414999999999793 0.9238108108107995  C 1.7184999999999775 0.7137837837837767  1.1874999999999716 0.4431621621621328  0.6989999999999839 0.44727027027026045  C 0.47199999999998 0.44932432432432434  0.28649999999998954 0.5083783783783831  0.277499999999975 0.7651351351351399  C 0.26899999999997704 1.0105945945945747  0.4784999999999684 1.2848108108107865  0.6079999999999757 1.4696756756756586  C 1.1934999999999718 2.304135135135118  1.9929999999999666 2.9937837837837464  2.739499999999964 3.6700810810810474  C 4.529499999999956 5.291756756756731  7.301999999999964 6.804054054053996  8.928499999999957 8.605972972972923  C 9.12749999999997 8.826783783783707  9.32299999999995 9.949324324324266  9.513999999999953 10.177324324324244  Z " fill-rule="nonzero" fill="#ffffff" stroke="none" fill-opacity="0" transform="matrix(1 0 0 1 442 11207 )" />
    <path d="M 9.513999999999953 10.177324324324244  C 9.601499999999987 10.282081081081094  10.068999999999988 10.721648648648658  10.068999999999988 10.860810810810799  C 11.60499999999999 12.850675675675664  12.938499999999976 14.986891891891865  14.343999999999994 17.072783783783763  C 14.716000000000008 17.625324324324314  15.117000000000019 18.360162162162116  15.687000000000012 18.734513513513487  C 15.80600000000004 18.812567567567562  15.942000000000007 18.88086486486482  16.087500000000034 18.868540540540497  C 16.37650000000002 18.843891891891847  16.52600000000001 18.567621621621573  16.581000000000017 18.301621621621557  C 16.652000000000044 17.958081081081026  16.584000000000003 17.59143243243235  16.492999999999995 17.25970270270264  C 16.233499999999992 16.31021621621613  15.726499999999987 15.423891891891806  15.241499999999974 14.580702702702647  C 14.012 12.441918918918882  12.605999999999995 9.493837837837809  11.021999999999963 7.615918918918869  C 9.477499999999964 5.7852432432431655  6.839499999999958 4.147648648648589  4.936499999999967 2.719054054054033  C 4.051499999999976 2.054567567567555  3.130999999999972 1.4147297297297274  2.1414999999999793 0.9238108108107995  C 1.7184999999999775 0.7137837837837767  1.1874999999999716 0.4431621621621328  0.6989999999999839 0.44727027027026045  C 0.47199999999998 0.44932432432432434  0.28649999999998954 0.5083783783783831  0.277499999999975 0.7651351351351399  C 0.26899999999997704 1.0105945945945747  0.4784999999999684 1.2848108108107865  0.6079999999999757 1.4696756756756586  C 1.1934999999999718 2.304135135135118  1.9929999999999666 2.9937837837837464  2.739499999999964 3.6700810810810474  C 4.529499999999956 5.291756756756731  7.301999999999964 6.804054054053996  8.928499999999957 8.605972972972923  C 9.12749999999997 8.826783783783707  9.32299999999995 9.949324324324266  9.513999999999953 10.177324324324244  Z " stroke-width="4" stroke="#ffffff" fill="none" transform="matrix(1 0 0 1 442 11207 )" mask="url(#clip298)" />
  </g>
</svg>