<?xml version="1.0" encoding="utf-8"?>
<svg version="1.1" xmlns:xlink="http://www.w3.org/1999/xlink" width="37px" height="23px" xmlns="http://www.w3.org/2000/svg">
  <defs>
    <mask fill="white" id="clip316">
      <path d="M 20.211926829268233 9.813038461538529  C 20.450170731707267 9.950153846153889  22.683707317073143 12.600461538461564  22.683707317073143 12.812769230769263  C 25.92978048780483 14.780153846153919  28.9195609756097 17.075730769230766  31.955365853658506 19.335038461538538  C 33.09965853658536 20.186923076923122  34.258390243902426 21.065346153846242  35.512780487804854 21.758000000000102  C 35.687853658536525 21.854423076923215  36.373707317073105 22.31530769230779  36.636317073170716 22.14369230769244  C 37.218390243902405 21.762423076923177  35.688756097561 19.85873076923093  35.5497804878049 19.660576923077045  C 33.631195121951265 16.92003846153862  31.246048780487826 14.475846153846282  28.697560975609818 12.294384615384738  C 23.50221951219523 7.846538461538566  15.82787804878058 3.353576923077071  9.157048780487848 1.6648461538463093  C 7.602146341463498 1.2711923076924188  6.027390243902467 0.9536153846155632  4.439097560975646 0.7253846153847603  C 3.3065365853658935 0.5626153846155568  2.0196585365854167 0.3105000000000998  0.8690487804878251 0.484769230769333  C 0.38804878048781105 0.5573076923077889  0.1741707317073536 0.6838076923078147  0.5468780487804829 1.070384615384748  C 1.3319999999999992 1.886000000000155  2.831853658536564 2.3451153846155446  3.8380731707316946 2.7936153846154985  C 5.778317073170699 3.657884615384708  7.743829268292698 4.469961538461637  9.699414634146283 5.299730769230857  C 12.787560975609718 6.610730769230831  17.311487804877938 8.142884615384752  20.211926829268233 9.813038461538529  Z " fill-rule="evenodd" />
    </mask>
  </defs>
  <g transform="matrix(1 0 0 1 -791 -18054 )">
    <path d="M 20.211926829268233 9.813038461538529  C 20.450170731707267 9.950153846153889  22.683707317073143 12.600461538461564  22.683707317073143 12.812769230769263  C 25.92978048780483 14.780153846153919  28.9195609756097 17.075730769230766  31.955365853658506 19.335038461538538  C 33.09965853658536 20.186923076923122  34.258390243902426 21.065346153846242  35.512780487804854 21.758000000000102  C 35.687853658536525 21.854423076923215  36.373707317073105 22.31530769230779  36.636317073170716 22.14369230769244  C 37.218390243902405 21.762423076923177  35.688756097561 19.85873076923093  35.5497804878049 19.660576923077045  C 33.631195121951265 16.92003846153862  31.246048780487826 14.475846153846282  28.697560975609818 12.294384615384738  C 23.50221951219523 7.846538461538566  15.82787804878058 3.353576923077071  9.157048780487848 1.6648461538463093  C 7.602146341463498 1.2711923076924188  6.027390243902467 0.9536153846155632  4.439097560975646 0.7253846153847603  C 3.3065365853658935 0.5626153846155568  2.0196585365854167 0.3105000000000998  0.8690487804878251 0.484769230769333  C 0.38804878048781105 0.5573076923077889  0.1741707317073536 0.6838076923078147  0.5468780487804829 1.070384615384748  C 1.3319999999999992 1.886000000000155  2.831853658536564 2.3451153846155446  3.8380731707316946 2.7936153846154985  C 5.778317073170699 3.657884615384708  7.743829268292698 4.469961538461637  9.699414634146283 5.299730769230857  C 12.787560975609718 6.610730769230831  17.311487804877938 8.142884615384752  20.211926829268233 9.813038461538529  Z " fill-rule="nonzero" fill="#ffffff" stroke="none" fill-opacity="0" transform="matrix(1 0 0 1 791 18054 )" />
    <path d="M 20.211926829268233 9.813038461538529  C 20.450170731707267 9.950153846153889  22.683707317073143 12.600461538461564  22.683707317073143 12.812769230769263  C 25.92978048780483 14.780153846153919  28.9195609756097 17.075730769230766  31.955365853658506 19.335038461538538  C 33.09965853658536 20.186923076923122  34.258390243902426 21.065346153846242  35.512780487804854 21.758000000000102  C 35.687853658536525 21.854423076923215  36.373707317073105 22.31530769230779  36.636317073170716 22.14369230769244  C 37.218390243902405 21.762423076923177  35.688756097561 19.85873076923093  35.5497804878049 19.660576923077045  C 33.631195121951265 16.92003846153862  31.246048780487826 14.475846153846282  28.697560975609818 12.294384615384738  C 23.50221951219523 7.846538461538566  15.82787804878058 3.353576923077071  9.157048780487848 1.6648461538463093  C 7.602146341463498 1.2711923076924188  6.027390243902467 0.9536153846155632  4.439097560975646 0.7253846153847603  C 3.3065365853658935 0.5626153846155568  2.0196585365854167 0.3105000000000998  0.8690487804878251 0.484769230769333  C 0.38804878048781105 0.5573076923077889  0.1741707317073536 0.6838076923078147  0.5468780487804829 1.070384615384748  C 1.3319999999999992 1.886000000000155  2.831853658536564 2.3451153846155446  3.8380731707316946 2.7936153846154985  C 5.778317073170699 3.657884615384708  7.743829268292698 4.469961538461637  9.699414634146283 5.299730769230857  C 12.787560975609718 6.610730769230831  17.311487804877938 8.142884615384752  20.211926829268233 9.813038461538529  Z " stroke-width="2" stroke="#ffffff" fill="none" transform="matrix(1 0 0 1 791 18054 )" mask="url(#clip316)" />
  </g>
</svg>