<?xml version="1.0" encoding="utf-8"?>
<svg version="1.1" xmlns:xlink="http://www.w3.org/1999/xlink" width="21px" height="13px" xmlns="http://www.w3.org/2000/svg">
  <defs>
    <mask fill="white" id="clip299">
      <path d="M 11.47163414634143 5.546500000000037  C 11.606853658536556 5.624000000000024  12.874536585365837 7.122000000000015  12.874536585365837 7.242000000000018  C 14.716902439024363 8.354000000000042  16.413804878048747 9.651499999999999  18.136829268292665 10.928500000000042  C 18.786292682926828 11.410000000000025  19.44395121951219 11.906500000000051  20.155902439024377 12.298000000000059  C 20.255268292682892 12.352500000000077  20.644536585365817 12.613000000000056  20.793585365853648 12.516000000000076  C 21.123951219512175 12.300500000000056  20.25578048780489 11.224500000000091  20.176902439024406 11.112500000000068  C 19.087975609756125 9.56350000000009  17.734243902439037 8.182000000000073  16.287804878048817 6.949000000000069  C 13.33909756097567 4.435000000000059  8.983390243902491 1.8955000000000837  5.197243902439049 0.9410000000000878  C 4.3147317073171205 0.7185000000000628  3.420951219512211 0.539000000000101  2.519487804878069 0.41000000000008185  C 1.8766829268292908 0.3180000000000973  1.146292682926858 0.1755000000000564  0.4932439024390358 0.27400000000005775  C 0.2202439024390279 0.31500000000005457  0.09885365853660609 0.3865000000000691  0.31039024390243625 0.605000000000075  C 0.7559999999999996 1.0660000000000878  1.607268292682915 1.3255000000000905  2.1783658536585295 1.5790000000000646  C 3.27958536585364 2.0675000000000523  4.395146341463423 2.5265000000000555  5.505073170731674 2.9955000000000496  C 7.257804878048759 3.736500000000035  9.825439024390182 4.602500000000077  11.47163414634143 5.546500000000037  Z " fill-rule="evenodd" />
    </mask>
  </defs>
  <g transform="matrix(1 0 0 1 -450 -11229 )">
    <path d="M 11.47163414634143 5.546500000000037  C 11.606853658536556 5.624000000000024  12.874536585365837 7.122000000000015  12.874536585365837 7.242000000000018  C 14.716902439024363 8.354000000000042  16.413804878048747 9.651499999999999  18.136829268292665 10.928500000000042  C 18.786292682926828 11.410000000000025  19.44395121951219 11.906500000000051  20.155902439024377 12.298000000000059  C 20.255268292682892 12.352500000000077  20.644536585365817 12.613000000000056  20.793585365853648 12.516000000000076  C 21.123951219512175 12.300500000000056  20.25578048780489 11.224500000000091  20.176902439024406 11.112500000000068  C 19.087975609756125 9.56350000000009  17.734243902439037 8.182000000000073  16.287804878048817 6.949000000000069  C 13.33909756097567 4.435000000000059  8.983390243902491 1.8955000000000837  5.197243902439049 0.9410000000000878  C 4.3147317073171205 0.7185000000000628  3.420951219512211 0.539000000000101  2.519487804878069 0.41000000000008185  C 1.8766829268292908 0.3180000000000973  1.146292682926858 0.1755000000000564  0.4932439024390358 0.27400000000005775  C 0.2202439024390279 0.31500000000005457  0.09885365853660609 0.3865000000000691  0.31039024390243625 0.605000000000075  C 0.7559999999999996 1.0660000000000878  1.607268292682915 1.3255000000000905  2.1783658536585295 1.5790000000000646  C 3.27958536585364 2.0675000000000523  4.395146341463423 2.5265000000000555  5.505073170731674 2.9955000000000496  C 7.257804878048759 3.736500000000035  9.825439024390182 4.602500000000077  11.47163414634143 5.546500000000037  Z " fill-rule="nonzero" fill="#ffffff" stroke="none" fill-opacity="0" transform="matrix(1 0 0 1 450 11229 )" />
    <path d="M 11.47163414634143 5.546500000000037  C 11.606853658536556 5.624000000000024  12.874536585365837 7.122000000000015  12.874536585365837 7.242000000000018  C 14.716902439024363 8.354000000000042  16.413804878048747 9.651499999999999  18.136829268292665 10.928500000000042  C 18.786292682926828 11.410000000000025  19.44395121951219 11.906500000000051  20.155902439024377 12.298000000000059  C 20.255268292682892 12.352500000000077  20.644536585365817 12.613000000000056  20.793585365853648 12.516000000000076  C 21.123951219512175 12.300500000000056  20.25578048780489 11.224500000000091  20.176902439024406 11.112500000000068  C 19.087975609756125 9.56350000000009  17.734243902439037 8.182000000000073  16.287804878048817 6.949000000000069  C 13.33909756097567 4.435000000000059  8.983390243902491 1.8955000000000837  5.197243902439049 0.9410000000000878  C 4.3147317073171205 0.7185000000000628  3.420951219512211 0.539000000000101  2.519487804878069 0.41000000000008185  C 1.8766829268292908 0.3180000000000973  1.146292682926858 0.1755000000000564  0.4932439024390358 0.27400000000005775  C 0.2202439024390279 0.31500000000005457  0.09885365853660609 0.3865000000000691  0.31039024390243625 0.605000000000075  C 0.7559999999999996 1.0660000000000878  1.607268292682915 1.3255000000000905  2.1783658536585295 1.5790000000000646  C 3.27958536585364 2.0675000000000523  4.395146341463423 2.5265000000000555  5.505073170731674 2.9955000000000496  C 7.257804878048759 3.736500000000035  9.825439024390182 4.602500000000077  11.47163414634143 5.546500000000037  Z " stroke-width="4" stroke="#ffffff" fill="none" transform="matrix(1 0 0 1 450 11229 )" mask="url(#clip299)" />
  </g>
</svg>