<?xml version="1.0" encoding="utf-8"?>
<svg version="1.1" xmlns:xlink="http://www.w3.org/1999/xlink" width="28px" height="48px" xmlns="http://www.w3.org/2000/svg">
  <g transform="matrix(1 0 0 1 -773 -17958 )">
    <path d="M 0.6966000000000009 46.30652830188681  C 4.358700000000016 45.48358490566039  8.037899999999986 44.74045283018868  11.717100000000004 43.99732075471701  C 14.870700000000022 43.36060377358492  18.071100000000005 42.77088679245288  21.289500000000025 42.589981132075515  C 22.48650000000001 42.522584905660395  24.71580000000004 42.766452830188726  25.66620000000003 41.72801886792458  C 26.253900000000044 41.08509433962268  26.199899999999992 40.07769811320761  25.88580000000005 39.3256981132076  C 25.39080000000004 38.142716981132125  24.25950000000004 37.39426415094346  23.095800000000033 36.932245283018915  C 21.924000000000014 36.46756603773589  20.663100000000053 36.23966037735853  19.410300000000007 36.12260377358494  C 18.398699999999984 36.02860377358494  17.300700000000013 36.05875471698116  16.32599999999999 35.72532075471703  C 15.407099999999973 35.411396226415164  15.002099999999984 34.70462264150948  14.797800000000008 33.801867924528366  C 14.581799999999998 32.85033962264159  14.539500000000027 31.86067924528307  14.46660000000001 30.889641509434036  C 14.315400000000006 28.886377358490627  14.16510000000003 26.88311320754727  14.013900000000024 24.87984905660386  C 13.427100000000035 17.085830188679342  12.906000000000027 9.292698113207635  12.408300000000033 1.492471698113302  C 12.382200000000035 1.0765660377359487  12.355200000000007 0.6615471698114046  12.329100000000011 0.24564150943405139  " stroke-width="1" stroke="#ffffff" fill="none" transform="matrix(1 0 0 1 773 17958 )" />
  </g>
</svg>