<?xml version="1.0" encoding="utf-8"?>
<svg version="1.1" xmlns:xlink="http://www.w3.org/1999/xlink" width="18px" height="30px" xmlns="http://www.w3.org/2000/svg">
  <g transform="matrix(1 0 0 1 -439 -11174 )">
    <path d="M 0.38700000000000045 26.601622641509444  C 2.421500000000009 26.12886792452831  4.465499999999992 25.701962264150943  6.509500000000003 25.275056603773603  C 8.261500000000012 24.90928301886793  10.039500000000004 24.57050943396229  11.827500000000015 24.4665849056604  C 12.492500000000007 24.427867924528314  13.731000000000023 24.56796226415097  14.259000000000015 23.971415094339655  C 14.585500000000025 23.602075471698136  14.555499999999995 23.023358490566075  14.381000000000029 22.59135849056607  C 14.106000000000023 21.91177358490569  13.47750000000002 21.48181132075475  12.831000000000017 21.21639622641512  C 12.180000000000007 20.949452830188704  11.47950000000003 20.818528301886815  10.783500000000004 20.751283018867944  C 10.221499999999992 20.697283018867946  9.611500000000007 20.714603773584923  9.069999999999993 20.523056603773615  C 8.559499999999986 20.342716981132114  8.334499999999991 19.936698113207573  8.221000000000004 19.41809433962268  C 8.100999999999999 18.871471698113254  8.077500000000015 18.302943396226443  8.037000000000006 17.745113207547213  C 7.953000000000003 16.594301886792486  7.869500000000016 15.443490566037793  7.785500000000013 14.292679245283068  C 7.45950000000002 9.815264150943452  7.170000000000016 5.338358490566088  6.893500000000017 0.8573773584906204  C 6.879000000000019 0.6184528301887364  6.864000000000004 0.3800377358491048  6.849500000000006 0.141113207547221  " stroke-width="2" stroke="#ffffff" fill="none" transform="matrix(1 0 0 1 440 11175 )" />
  </g>
</svg>