<?xml version="1.0" encoding="utf-8"?>
<svg version="1.1" xmlns:xlink="http://www.w3.org/1999/xlink" width="10px" height="9px" xmlns="http://www.w3.org/2000/svg">
  <defs>
    <mask fill="white" id="clip303">
      <path d="M 9.488947368421021 5.656999999999982  C 9.521578947368425 5.459499999999991  9.537368421052621 4.384999999999991  9.537368421052621 4.1854999999999905  C 9.534736842105255 2.5434999999999945  8.423684210526298 1.0394999999999754  6.794736842105246 0.48599999999999  C 5.167894736842085 -0.06700000000000728  2.379473684210504 0.42349999999999  1.2826315789473446 1.6920000000000073  C 0.18631578947366137 2.9605000000000246  0.04315789473682379 5.6714999999999804  0.9305263157894441 7.079499999999996  C 1.8178947368420795 8.487500000000011  4.51052631578944 9.235000000000014  6.205263157894702 8.915500000000009  C 7.8942105263157565 8.597000000000037  9.227368421052592 7.273500000000013  9.488947368421021 5.656999999999982  Z " fill-rule="evenodd" />
    </mask>
  </defs>
  <g transform="matrix(1 0 0 1 -316 -11218 )">
    <path d="M 9.488947368421021 5.656999999999982  C 9.521578947368425 5.459499999999991  9.537368421052621 4.384999999999991  9.537368421052621 4.1854999999999905  C 9.534736842105255 2.5434999999999945  8.423684210526298 1.0394999999999754  6.794736842105246 0.48599999999999  C 5.167894736842085 -0.06700000000000728  2.379473684210504 0.42349999999999  1.2826315789473446 1.6920000000000073  C 0.18631578947366137 2.9605000000000246  0.04315789473682379 5.6714999999999804  0.9305263157894441 7.079499999999996  C 1.8178947368420795 8.487500000000011  4.51052631578944 9.235000000000014  6.205263157894702 8.915500000000009  C 7.8942105263157565 8.597000000000037  9.227368421052592 7.273500000000013  9.488947368421021 5.656999999999982  Z " fill-rule="nonzero" fill="#ffffff" stroke="none" fill-opacity="0" transform="matrix(1 0 0 1 316 11218 )" />
    <path d="M 9.488947368421021 5.656999999999982  C 9.521578947368425 5.459499999999991  9.537368421052621 4.384999999999991  9.537368421052621 4.1854999999999905  C 9.534736842105255 2.5434999999999945  8.423684210526298 1.0394999999999754  6.794736842105246 0.48599999999999  C 5.167894736842085 -0.06700000000000728  2.379473684210504 0.42349999999999  1.2826315789473446 1.6920000000000073  C 0.18631578947366137 2.9605000000000246  0.04315789473682379 5.6714999999999804  0.9305263157894441 7.079499999999996  C 1.8178947368420795 8.487500000000011  4.51052631578944 9.235000000000014  6.205263157894702 8.915500000000009  C 7.8942105263157565 8.597000000000037  9.227368421052592 7.273500000000013  9.488947368421021 5.656999999999982  Z " stroke-width="4" stroke="#ffffff" fill="none" transform="matrix(1 0 0 1 316 11218 )" mask="url(#clip303)" />
  </g>
</svg>