<?xml version="1.0" encoding="utf-8"?>
<svg version="1.1" xmlns:xlink="http://www.w3.org/1999/xlink" width="18px" height="18px" xmlns="http://www.w3.org/2000/svg">
  <defs>
    <mask fill="white" id="clip414">
      <path d="M 17.288999999999984 11.171699999999907  C 17.34840000000001 10.785600000000032  17.3781 8.81909999999998  17.3781 8.428500000000009  C 17.37450000000001 5.211899999999997  15.30359999999999 2.2634999999999876  12.2733 1.179000000000002  C 9.244799999999993 0.09539999999999509  4.193999999999996 1.0557000000000016  2.151899999999992 3.5415000000000023  C 0.1106999999999914 6.028199999999981  -0.15479999999999736 11.198699999999986  1.4966999999999844 13.95899999999999  C 3.1481999999999917 16.71840000000002  8.021699999999983 18.1818  11.17619999999998 17.556299999999954  C 14.318099999999992 16.93259999999997  16.803899999999995 14.338799999999912  17.288999999999984 11.171699999999907  Z " fill-rule="evenodd" />
    </mask>
  </defs>
  <g transform="matrix(1 0 0 1 -537 -18004 )">
    <path d="M 17.288999999999984 11.171699999999907  C 17.34840000000001 10.785600000000032  17.3781 8.81909999999998  17.3781 8.428500000000009  C 17.37450000000001 5.211899999999997  15.30359999999999 2.2634999999999876  12.2733 1.179000000000002  C 9.244799999999993 0.09539999999999509  4.193999999999996 1.0557000000000016  2.151899999999992 3.5415000000000023  C 0.1106999999999914 6.028199999999981  -0.15479999999999736 11.198699999999986  1.4966999999999844 13.95899999999999  C 3.1481999999999917 16.71840000000002  8.021699999999983 18.1818  11.17619999999998 17.556299999999954  C 14.318099999999992 16.93259999999997  16.803899999999995 14.338799999999912  17.288999999999984 11.171699999999907  Z " fill-rule="nonzero" fill="#ffffff" stroke="none" fill-opacity="0" transform="matrix(1 0 0 1 537 18004 )" />
    <path d="M 17.288999999999984 11.171699999999907  C 17.34840000000001 10.785600000000032  17.3781 8.81909999999998  17.3781 8.428500000000009  C 17.37450000000001 5.211899999999997  15.30359999999999 2.2634999999999876  12.2733 1.179000000000002  C 9.244799999999993 0.09539999999999509  4.193999999999996 1.0557000000000016  2.151899999999992 3.5415000000000023  C 0.1106999999999914 6.028199999999981  -0.15479999999999736 11.198699999999986  1.4966999999999844 13.95899999999999  C 3.1481999999999917 16.71840000000002  8.021699999999983 18.1818  11.17619999999998 17.556299999999954  C 14.318099999999992 16.93259999999997  16.803899999999995 14.338799999999912  17.288999999999984 11.171699999999907  Z " stroke-width="2" stroke="#ffffff" fill="none" transform="matrix(1 0 0 1 537 18004 )" mask="url(#clip414)" />
  </g>
</svg>