<?xml version="1.0" encoding="utf-8"?>
<svg version="1.1" xmlns:xlink="http://www.w3.org/1999/xlink" width="11px" height="11px" xmlns="http://www.w3.org/2000/svg">
  <defs>
    <mask fill="white" id="clip305">
      <path d="M 10.793619047619046 6.741999999999991  C 10.831333333333333 6.5049999999999955  10.850714285714272 5.389999999999986  10.850714285714272 5.150499999999994  C 10.845999999999979 3.1759999999999877  9.51866666666665 1.367999999999995  7.568523809523786 0.7014999999999816  C 5.621523809523794 0.03649999999998954  2.4697619047618917 0.6259999999999764  1.157619047619037 2.15149999999997  C -0.15452380952381786 3.676999999999964  -0.3258095238095312 6.759499999999975  0.7364761904761936 8.452999999999975  C 1.7987619047619183 10.146499999999975  4.835285714285711 11.04449999999997  6.863476190476195 10.660499999999985  C 8.883809523809543 10.277999999999992  10.481428571428566 8.68549999999999  10.793619047619046 6.741999999999991  Z " fill-rule="evenodd" />
    </mask>
  </defs>
  <g transform="matrix(1 0 0 1 -325 -11175 )">
    <path d="M 10.793619047619046 6.741999999999991  C 10.831333333333333 6.5049999999999955  10.850714285714272 5.389999999999986  10.850714285714272 5.150499999999994  C 10.845999999999979 3.1759999999999877  9.51866666666665 1.367999999999995  7.568523809523786 0.7014999999999816  C 5.621523809523794 0.03649999999998954  2.4697619047618917 0.6259999999999764  1.157619047619037 2.15149999999997  C -0.15452380952381786 3.676999999999964  -0.3258095238095312 6.759499999999975  0.7364761904761936 8.452999999999975  C 1.7987619047619183 10.146499999999975  4.835285714285711 11.04449999999997  6.863476190476195 10.660499999999985  C 8.883809523809543 10.277999999999992  10.481428571428566 8.68549999999999  10.793619047619046 6.741999999999991  Z " fill-rule="nonzero" fill="#ffffff" stroke="none" fill-opacity="0" transform="matrix(1 0 0 1 325 11175 )" />
    <path d="M 10.793619047619046 6.741999999999991  C 10.831333333333333 6.5049999999999955  10.850714285714272 5.389999999999986  10.850714285714272 5.150499999999994  C 10.845999999999979 3.1759999999999877  9.51866666666665 1.367999999999995  7.568523809523786 0.7014999999999816  C 5.621523809523794 0.03649999999998954  2.4697619047618917 0.6259999999999764  1.157619047619037 2.15149999999997  C -0.15452380952381786 3.676999999999964  -0.3258095238095312 6.759499999999975  0.7364761904761936 8.452999999999975  C 1.7987619047619183 10.146499999999975  4.835285714285711 11.04449999999997  6.863476190476195 10.660499999999985  C 8.883809523809543 10.277999999999992  10.481428571428566 8.68549999999999  10.793619047619046 6.741999999999991  Z " stroke-width="4" stroke="#ffffff" fill="none" transform="matrix(1 0 0 1 325 11175 )" mask="url(#clip305)" />
  </g>
</svg>