<?xml version="1.0" encoding="utf-8"?>
<svg version="1.1" xmlns:xlink="http://www.w3.org/1999/xlink" width="15px" height="15px" xmlns="http://www.w3.org/2000/svg">
  <defs>
    <mask fill="white" id="clip413">
      <path d="M 14.74235294117647 8.93029411764699  C 14.781176470588242 8.678823529411776  14.708823529411752 6.640588235294127  14.815588235294115 6.427058823529405  C 14.811176470588236 3.7861764705882326  13.113529411764702 1.3676470588235397  10.625294117647059 0.476470588235262  C 8.139705882352935 -0.4129411764706039  3.7420588235294243 0.3758823529411657  2.0664705882353056 2.415882352941126  C 0.3908823529411871 4.455882352941137  0.17294117647061152 8.95323529411759  1.5291176470588272 11.218235294117594  C 2.8852941176470424 13.483235294117602  7.135588235294133 14.68411764705877  9.725294117647053 14.170588235294069  C 12.304411764705875 13.65882352941173  14.344411764705885 11.529705882352896  14.74235294117647 8.93029411764699  Z " fill-rule="evenodd" />
    </mask>
  </defs>
  <g transform="matrix(1 0 0 1 -542 -17985 )">
    <path d="M 14.74235294117647 8.93029411764699  C 14.781176470588242 8.678823529411776  14.708823529411752 6.640588235294127  14.815588235294115 6.427058823529405  C 14.811176470588236 3.7861764705882326  13.113529411764702 1.3676470588235397  10.625294117647059 0.476470588235262  C 8.139705882352935 -0.4129411764706039  3.7420588235294243 0.3758823529411657  2.0664705882353056 2.415882352941126  C 0.3908823529411871 4.455882352941137  0.17294117647061152 8.95323529411759  1.5291176470588272 11.218235294117594  C 2.8852941176470424 13.483235294117602  7.135588235294133 14.68411764705877  9.725294117647053 14.170588235294069  C 12.304411764705875 13.65882352941173  14.344411764705885 11.529705882352896  14.74235294117647 8.93029411764699  Z " fill-rule="nonzero" fill="#ffffff" stroke="none" fill-opacity="0" transform="matrix(1 0 0 1 542 17985 )" />
    <path d="M 14.74235294117647 8.93029411764699  C 14.781176470588242 8.678823529411776  14.708823529411752 6.640588235294127  14.815588235294115 6.427058823529405  C 14.811176470588236 3.7861764705882326  13.113529411764702 1.3676470588235397  10.625294117647059 0.476470588235262  C 8.139705882352935 -0.4129411764706039  3.7420588235294243 0.3758823529411657  2.0664705882353056 2.415882352941126  C 0.3908823529411871 4.455882352941137  0.17294117647061152 8.95323529411759  1.5291176470588272 11.218235294117594  C 2.8852941176470424 13.483235294117602  7.135588235294133 14.68411764705877  9.725294117647053 14.170588235294069  C 12.304411764705875 13.65882352941173  14.344411764705885 11.529705882352896  14.74235294117647 8.93029411764699  Z " stroke-width="2" stroke="#ffffff" fill="none" transform="matrix(1 0 0 1 542 17985 )" mask="url(#clip413)" />
  </g>
</svg>