<?xml version="1.0" encoding="utf-8"?>
<svg version="1.1" xmlns:xlink="http://www.w3.org/1999/xlink" width="16px" height="16px" xmlns="http://www.w3.org/2000/svg">
  <defs>
    <mask fill="white" id="clip412">
      <path d="M 15.04444444444448 10.058666666666694  C 15.096000000000004 9.72088888888887  15.122666666666671 7.8231111111111  15.122666666666671 7.481777777777754  C 15.118222222222231 4.665777777777748  13.30755555555556 2.0871111111110725  10.654222222222238 1.1368888888888857  C 8.004444444444466 0.18844444444443476  3.4053333333333486 1.029333333333347  1.6195555555555832 3.2044444444444604  C -0.16711111111107535 5.380444444444442  -0.3999999999999646 10.08355555555555  1.0462222222222408 12.498666666666699  C 2.4915555555555784 14.912888888888927  6.933333333333343 16.19555555555558  9.694222222222253 15.64711111111112  C 12.445333333333362 15.100444444444443  14.617777777777796 12.831111111111113  15.04444444444448 10.058666666666694  Z " fill-rule="evenodd" />
    </mask>
  </defs>
  <g transform="matrix(1 0 0 1 -535 -17951 )">
    <path d="M 15.04444444444448 10.058666666666694  C 15.096000000000004 9.72088888888887  15.122666666666671 7.8231111111111  15.122666666666671 7.481777777777754  C 15.118222222222231 4.665777777777748  13.30755555555556 2.0871111111110725  10.654222222222238 1.1368888888888857  C 8.004444444444466 0.18844444444443476  3.4053333333333486 1.029333333333347  1.6195555555555832 3.2044444444444604  C -0.16711111111107535 5.380444444444442  -0.3999999999999646 10.08355555555555  1.0462222222222408 12.498666666666699  C 2.4915555555555784 14.912888888888927  6.933333333333343 16.19555555555558  9.694222222222253 15.64711111111112  C 12.445333333333362 15.100444444444443  14.617777777777796 12.831111111111113  15.04444444444448 10.058666666666694  Z " fill-rule="nonzero" fill="#ffffff" stroke="none" fill-opacity="0" transform="matrix(1 0 0 1 535 17951 )" />
    <path d="M 15.04444444444448 10.058666666666694  C 15.096000000000004 9.72088888888887  15.122666666666671 7.8231111111111  15.122666666666671 7.481777777777754  C 15.118222222222231 4.665777777777748  13.30755555555556 2.0871111111110725  10.654222222222238 1.1368888888888857  C 8.004444444444466 0.18844444444443476  3.4053333333333486 1.029333333333347  1.6195555555555832 3.2044444444444604  C -0.16711111111107535 5.380444444444442  -0.3999999999999646 10.08355555555555  1.0462222222222408 12.498666666666699  C 2.4915555555555784 14.912888888888927  6.933333333333343 16.19555555555558  9.694222222222253 15.64711111111112  C 12.445333333333362 15.100444444444443  14.617777777777796 12.831111111111113  15.04444444444448 10.058666666666694  Z " stroke-width="2" stroke="#ffffff" fill="none" transform="matrix(1 0 0 1 535 17951 )" mask="url(#clip412)" />
  </g>
</svg>