<?xml version="1.0" encoding="utf-8"?>
<svg version="1.1" xmlns:xlink="http://www.w3.org/1999/xlink" width="19px" height="20px" xmlns="http://www.w3.org/2000/svg">
  <defs>
    <mask fill="white" id="clip417">
      <path d="M 18.643523809523806 12.258181818181802  C 18.708666666666666 11.82727272727272  18.742142857142834 9.799999999999976  18.742142857142834 9.364545454545443  C 18.733999999999963 5.774545454545432  16.441333333333304 2.4872727272727184  13.072904761904722 1.2754545454545119  C 9.709904761904735 0.06636363636361735  4.265952380952358 1.138181818181775  1.999523809523791 3.9118181818181275  C -0.2669047619047763 6.68545454545448  -0.5627619047619176 12.289999999999955  1.2720952380952435 15.369090909090863  C 3.1069523809524044 18.448181818181773  8.351857142857138 20.080909090909035  11.855095238095245 19.382727272727244  C 15.344761904761938 18.687272727272713  18.104285714285705 15.791818181818165  18.643523809523806 12.258181818181802  Z " fill-rule="evenodd" />
    </mask>
  </defs>
  <g transform="matrix(1 0 0 1 -571 -17958 )">
    <path d="M 18.643523809523806 12.258181818181802  C 18.708666666666666 11.82727272727272  18.742142857142834 9.799999999999976  18.742142857142834 9.364545454545443  C 18.733999999999963 5.774545454545432  16.441333333333304 2.4872727272727184  13.072904761904722 1.2754545454545119  C 9.709904761904735 0.06636363636361735  4.265952380952358 1.138181818181775  1.999523809523791 3.9118181818181275  C -0.2669047619047763 6.68545454545448  -0.5627619047619176 12.289999999999955  1.2720952380952435 15.369090909090863  C 3.1069523809524044 18.448181818181773  8.351857142857138 20.080909090909035  11.855095238095245 19.382727272727244  C 15.344761904761938 18.687272727272713  18.104285714285705 15.791818181818165  18.643523809523806 12.258181818181802  Z " fill-rule="nonzero" fill="#ffffff" stroke="none" fill-opacity="0" transform="matrix(1 0 0 1 571 17958 )" />
    <path d="M 18.643523809523806 12.258181818181802  C 18.708666666666666 11.82727272727272  18.742142857142834 9.799999999999976  18.742142857142834 9.364545454545443  C 18.733999999999963 5.774545454545432  16.441333333333304 2.4872727272727184  13.072904761904722 1.2754545454545119  C 9.709904761904735 0.06636363636361735  4.265952380952358 1.138181818181775  1.999523809523791 3.9118181818181275  C -0.2669047619047763 6.68545454545448  -0.5627619047619176 12.289999999999955  1.2720952380952435 15.369090909090863  C 3.1069523809524044 18.448181818181773  8.351857142857138 20.080909090909035  11.855095238095245 19.382727272727244  C 15.344761904761938 18.687272727272713  18.104285714285705 15.791818181818165  18.643523809523806 12.258181818181802  Z " stroke-width="2" stroke="#ffffff" fill="none" transform="matrix(1 0 0 1 571 17958 )" mask="url(#clip417)" />
  </g>
</svg>