<?xml version="1.0" encoding="utf-8"?>
<svg version="1.1" xmlns:xlink="http://www.w3.org/1999/xlink" width="9px" height="9px" xmlns="http://www.w3.org/2000/svg">
  <defs>
    <mask fill="white" id="clip301">
      <path d="M 8.845411764705881 5.3581764705881945  C 8.868705882352947 5.2072941176470655  8.825294117647053 3.984352941176476  8.889352941176469 3.856235294117643  C 8.886705882352942 2.2717058823529395  7.8681176470588206 0.8205882352941237  6.375176470588236 0.2858823529411572  C 4.883823529411761 -0.24776470588236232  2.2452352941176543 0.2255294117646994  1.2398823529411833 1.4495294117646755  C 0.23452941176471226 2.6735294117646817  0.10376470588236691 5.371941176470553  0.9174705882352963 6.730941176470557  C 1.7311764705882255 8.08994117647056  4.28135294117648 8.810470588235262  5.835176470588231 8.502352941176442  C 7.382647058823526 8.195294117647038  8.606647058823532 6.917823529411738  8.845411764705881 5.3581764705881945  Z " fill-rule="evenodd" />
    </mask>
  </defs>
  <g transform="matrix(1 0 0 1 -309 -11190 )">
    <path d="M 8.845411764705881 5.3581764705881945  C 8.868705882352947 5.2072941176470655  8.825294117647053 3.984352941176476  8.889352941176469 3.856235294117643  C 8.886705882352942 2.2717058823529395  7.8681176470588206 0.8205882352941237  6.375176470588236 0.2858823529411572  C 4.883823529411761 -0.24776470588236232  2.2452352941176543 0.2255294117646994  1.2398823529411833 1.4495294117646755  C 0.23452941176471226 2.6735294117646817  0.10376470588236691 5.371941176470553  0.9174705882352963 6.730941176470557  C 1.7311764705882255 8.08994117647056  4.28135294117648 8.810470588235262  5.835176470588231 8.502352941176442  C 7.382647058823526 8.195294117647038  8.606647058823532 6.917823529411738  8.845411764705881 5.3581764705881945  Z " fill-rule="nonzero" fill="#ffffff" stroke="none" fill-opacity="0" transform="matrix(1 0 0 1 309 11190 )" />
    <path d="M 8.845411764705881 5.3581764705881945  C 8.868705882352947 5.2072941176470655  8.825294117647053 3.984352941176476  8.889352941176469 3.856235294117643  C 8.886705882352942 2.2717058823529395  7.8681176470588206 0.8205882352941237  6.375176470588236 0.2858823529411572  C 4.883823529411761 -0.24776470588236232  2.2452352941176543 0.2255294117646994  1.2398823529411833 1.4495294117646755  C 0.23452941176471226 2.6735294117646817  0.10376470588236691 5.371941176470553  0.9174705882352963 6.730941176470557  C 1.7311764705882255 8.08994117647056  4.28135294117648 8.810470588235262  5.835176470588231 8.502352941176442  C 7.382647058823526 8.195294117647038  8.606647058823532 6.917823529411738  8.845411764705881 5.3581764705881945  Z " stroke-width="4" stroke="#ffffff" fill="none" transform="matrix(1 0 0 1 309 11190 )" mask="url(#clip301)" />
  </g>
</svg>