<?xml version="1.0" encoding="utf-8"?>
<svg version="1.1" xmlns:xlink="http://www.w3.org/1999/xlink" width="17px" height="17px" xmlns="http://www.w3.org/2000/svg">
  <defs>
    <mask fill="white" id="clip416">
      <path d="M 16.8818947368421 10.540894736842109  C 16.939157894736855 10.161526315789498  16.968684210526295 8.211894736842103  16.968684210526295 7.827157894736834  C 16.96599999999999 4.666052631578925  14.929578947368402 1.7697894736842181  11.952789473684193 0.7041578947368222  C 8.977789473684203 -0.36057894736843893  3.9949999999999775 0.5833684210526198  1.9898947368420958 3.0260000000000047  C -0.016105263157895348 5.468631578947389  -0.2773684210526336 10.568631578947379  1.3465789473684169 13.280578947368436  C 2.9705263157894675 15.99163157894736  7.775263157894735 17.430368421052627  10.875526315789449 16.814789473684215  C 13.964157894736816 16.20189473684211  16.404105263157845 13.652789473684225  16.8818947368421 10.540894736842109  Z " fill-rule="evenodd" />
    </mask>
  </defs>
  <g transform="matrix(1 0 0 1 -564 -17986 )">
    <path d="M 16.8818947368421 10.540894736842109  C 16.939157894736855 10.161526315789498  16.968684210526295 8.211894736842103  16.968684210526295 7.827157894736834  C 16.96599999999999 4.666052631578925  14.929578947368402 1.7697894736842181  11.952789473684193 0.7041578947368222  C 8.977789473684203 -0.36057894736843893  3.9949999999999775 0.5833684210526198  1.9898947368420958 3.0260000000000047  C -0.016105263157895348 5.468631578947389  -0.2773684210526336 10.568631578947379  1.3465789473684169 13.280578947368436  C 2.9705263157894675 15.99163157894736  7.775263157894735 17.430368421052627  10.875526315789449 16.814789473684215  C 13.964157894736816 16.20189473684211  16.404105263157845 13.652789473684225  16.8818947368421 10.540894736842109  Z " fill-rule="nonzero" fill="#ffffff" stroke="none" fill-opacity="0" transform="matrix(1 0 0 1 564 17986 )" />
    <path d="M 16.8818947368421 10.540894736842109  C 16.939157894736855 10.161526315789498  16.968684210526295 8.211894736842103  16.968684210526295 7.827157894736834  C 16.96599999999999 4.666052631578925  14.929578947368402 1.7697894736842181  11.952789473684193 0.7041578947368222  C 8.977789473684203 -0.36057894736843893  3.9949999999999775 0.5833684210526198  1.9898947368420958 3.0260000000000047  C -0.016105263157895348 5.468631578947389  -0.2773684210526336 10.568631578947379  1.3465789473684169 13.280578947368436  C 2.9705263157894675 15.99163157894736  7.775263157894735 17.430368421052627  10.875526315789449 16.814789473684215  C 13.964157894736816 16.20189473684211  16.404105263157845 13.652789473684225  16.8818947368421 10.540894736842109  Z " stroke-width="2" stroke="#ffffff" fill="none" transform="matrix(1 0 0 1 564 17986 )" mask="url(#clip416)" />
  </g>
</svg>