<?xml version="1.0" encoding="utf-8"?>
<svg version="1.1" xmlns:xlink="http://www.w3.org/1999/xlink" width="17px" height="16px" xmlns="http://www.w3.org/2000/svg">
  <defs>
    <mask fill="white" id="clip415">
      <path d="M 16.131210526315737 10.056888888888857  C 16.186684210526323 9.705777777777762  16.213526315789455 7.79555555555554  16.213526315789455 7.440888888888872  C 16.209052631578935 4.521777777777768  14.320263157894708 1.8479999999999563  11.55105263157892 0.8639999999999822  C 8.785421052631545 -0.11911111111112405  4.045105263157858 0.7528888888888711  2.180473684210486 3.008000000000013  C 0.3167368421052243 5.263111111111154  0.07336842105260045 10.082666666666633  1.581894736842055 12.585777777777771  C 3.090421052631535 15.08888888888891  7.667894736842049 16.4177777777778  10.548947368420995 15.849777777777794  C 13.420157894736787 15.28355555555562  15.686526315789406 12.930666666666689  16.131210526315737 10.056888888888857  Z " fill-rule="evenodd" />
    </mask>
  </defs>
  <g transform="matrix(1 0 0 1 -555 -18034 )">
    <path d="M 16.131210526315737 10.056888888888857  C 16.186684210526323 9.705777777777762  16.213526315789455 7.79555555555554  16.213526315789455 7.440888888888872  C 16.209052631578935 4.521777777777768  14.320263157894708 1.8479999999999563  11.55105263157892 0.8639999999999822  C 8.785421052631545 -0.11911111111112405  4.045105263157858 0.7528888888888711  2.180473684210486 3.008000000000013  C 0.3167368421052243 5.263111111111154  0.07336842105260045 10.082666666666633  1.581894736842055 12.585777777777771  C 3.090421052631535 15.08888888888891  7.667894736842049 16.4177777777778  10.548947368420995 15.849777777777794  C 13.420157894736787 15.28355555555562  15.686526315789406 12.930666666666689  16.131210526315737 10.056888888888857  Z " fill-rule="nonzero" fill="#ffffff" stroke="none" fill-opacity="0" transform="matrix(1 0 0 1 555 18034 )" />
    <path d="M 16.131210526315737 10.056888888888857  C 16.186684210526323 9.705777777777762  16.213526315789455 7.79555555555554  16.213526315789455 7.440888888888872  C 16.209052631578935 4.521777777777768  14.320263157894708 1.8479999999999563  11.55105263157892 0.8639999999999822  C 8.785421052631545 -0.11911111111112405  4.045105263157858 0.7528888888888711  2.180473684210486 3.008000000000013  C 0.3167368421052243 5.263111111111154  0.07336842105260045 10.082666666666633  1.581894736842055 12.585777777777771  C 3.090421052631535 15.08888888888891  7.667894736842049 16.4177777777778  10.548947368420995 15.849777777777794  C 13.420157894736787 15.28355555555562  15.686526315789406 12.930666666666689  16.131210526315737 10.056888888888857  Z " stroke-width="2" stroke="#ffffff" fill="none" transform="matrix(1 0 0 1 555 18034 )" mask="url(#clip415)" />
  </g>
</svg>