<?xml version="1.0" encoding="utf-8"?>
<svg version="1.1" xmlns:xlink="http://www.w3.org/1999/xlink" width="10px" height="10px" xmlns="http://www.w3.org/2000/svg">
  <defs>
    <mask fill="white" id="clip304">
      <path d="M 9.930526315789471 6.200526315789476  C 9.964210526315798 5.977368421052645  9.981578947368408 4.830526315789473  9.981578947368408 4.604210526315785  C 9.979999999999995 2.74473684210525  8.782105263157883 1.041052631578952  7.031052631578937 0.41421052631577776  C 5.281052631578943 -0.21210526315790526  2.3499999999999868 0.34315789473683517  1.170526315789468 1.7800000000000027  C -0.009473684210526676 3.2168421052631704  -0.16315789473684328 6.216842105263164  0.7921052631578923 7.812105263157903  C 1.7473684210526281 9.406842105263152  4.573684210526315 10.25315789473684  6.397368421052617 9.891052631578951  C 8.214210526315775 9.530526315789476  9.649473684210498 8.031052631578955  9.930526315789471 6.200526315789476  Z " fill-rule="evenodd" />
    </mask>
  </defs>
  <g transform="matrix(1 0 0 1 -321 -11191 )">
    <path d="M 9.930526315789471 6.200526315789476  C 9.964210526315798 5.977368421052645  9.981578947368408 4.830526315789473  9.981578947368408 4.604210526315785  C 9.979999999999995 2.74473684210525  8.782105263157883 1.041052631578952  7.031052631578937 0.41421052631577776  C 5.281052631578943 -0.21210526315790526  2.3499999999999868 0.34315789473683517  1.170526315789468 1.7800000000000027  C -0.009473684210526676 3.2168421052631704  -0.16315789473684328 6.216842105263164  0.7921052631578923 7.812105263157903  C 1.7473684210526281 9.406842105263152  4.573684210526315 10.25315789473684  6.397368421052617 9.891052631578951  C 8.214210526315775 9.530526315789476  9.649473684210498 8.031052631578955  9.930526315789471 6.200526315789476  Z " fill-rule="nonzero" fill="#ffffff" stroke="none" fill-opacity="0" transform="matrix(1 0 0 1 321 11191 )" />
    <path d="M 9.930526315789471 6.200526315789476  C 9.964210526315798 5.977368421052645  9.981578947368408 4.830526315789473  9.981578947368408 4.604210526315785  C 9.979999999999995 2.74473684210525  8.782105263157883 1.041052631578952  7.031052631578937 0.41421052631577776  C 5.281052631578943 -0.21210526315790526  2.3499999999999868 0.34315789473683517  1.170526315789468 1.7800000000000027  C -0.009473684210526676 3.2168421052631704  -0.16315789473684328 6.216842105263164  0.7921052631578923 7.812105263157903  C 1.7473684210526281 9.406842105263152  4.573684210526315 10.25315789473684  6.397368421052617 9.891052631578951  C 8.214210526315775 9.530526315789476  9.649473684210498 8.031052631578955  9.930526315789471 6.200526315789476  Z " stroke-width="4" stroke="#ffffff" fill="none" transform="matrix(1 0 0 1 321 11191 )" mask="url(#clip304)" />
  </g>
</svg>