<?xml version="1.0" encoding="utf-8"?>
<svg version="1.1" xmlns:xlink="http://www.w3.org/1999/xlink" width="10px" height="10px" xmlns="http://www.w3.org/2000/svg">
  <defs>
    <mask fill="white" id="clip302">
      <path d="M 9.60499999999999 6.206499999999949  C 9.638000000000005 5.992000000000019  9.654499999999999 4.899499999999989  9.654499999999999 4.6825000000000045  C 9.652500000000003 2.8954999999999984  8.501999999999995 1.2574999999999932  6.8185 0.6550000000000011  C 5.135999999999996 0.05299999999999727  2.3299999999999983 0.5865000000000009  1.1954999999999956 1.9675000000000011  C 0.061499999999995225 3.3489999999999895  -0.08599999999999852 6.221499999999992  0.8314999999999912 7.7549999999999955  C 1.7489999999999952 9.288000000000011  4.456499999999991 10.100999999999999  6.208999999999989 9.753499999999974  C 7.954499999999996 9.406999999999982  9.335499999999996 7.965999999999951  9.60499999999999 6.206499999999949  Z " fill-rule="evenodd" />
    </mask>
  </defs>
  <g transform="matrix(1 0 0 1 -306 -11201 )">
    <path d="M 9.60499999999999 6.206499999999949  C 9.638000000000005 5.992000000000019  9.654499999999999 4.899499999999989  9.654499999999999 4.6825000000000045  C 9.652500000000003 2.8954999999999984  8.501999999999995 1.2574999999999932  6.8185 0.6550000000000011  C 5.135999999999996 0.05299999999999727  2.3299999999999983 0.5865000000000009  1.1954999999999956 1.9675000000000011  C 0.061499999999995225 3.3489999999999895  -0.08599999999999852 6.221499999999992  0.8314999999999912 7.7549999999999955  C 1.7489999999999952 9.288000000000011  4.456499999999991 10.100999999999999  6.208999999999989 9.753499999999974  C 7.954499999999996 9.406999999999982  9.335499999999996 7.965999999999951  9.60499999999999 6.206499999999949  Z " fill-rule="nonzero" fill="#ffffff" stroke="none" fill-opacity="0" transform="matrix(1 0 0 1 306 11201 )" />
    <path d="M 9.60499999999999 6.206499999999949  C 9.638000000000005 5.992000000000019  9.654499999999999 4.899499999999989  9.654499999999999 4.6825000000000045  C 9.652500000000003 2.8954999999999984  8.501999999999995 1.2574999999999932  6.8185 0.6550000000000011  C 5.135999999999996 0.05299999999999727  2.3299999999999983 0.5865000000000009  1.1954999999999956 1.9675000000000011  C 0.061499999999995225 3.3489999999999895  -0.08599999999999852 6.221499999999992  0.8314999999999912 7.7549999999999955  C 1.7489999999999952 9.288000000000011  4.456499999999991 10.100999999999999  6.208999999999989 9.753499999999974  C 7.954499999999996 9.406999999999982  9.335499999999996 7.965999999999951  9.60499999999999 6.206499999999949  Z " stroke-width="4" stroke="#ffffff" fill="none" transform="matrix(1 0 0 1 306 11201 )" mask="url(#clip302)" />
  </g>
</svg>