<?xml version="1.0" encoding="utf-8"?>
<svg version="1.1" xmlns:xlink="http://www.w3.org/1999/xlink" width="9px" height="9px" xmlns="http://www.w3.org/2000/svg">
  <defs>
    <mask fill="white" id="clip300">
      <path d="M 8.46250000000002 5.6580000000000155  C 8.491500000000002 5.467999999999989  8.506500000000003 4.400499999999994  8.506500000000003 4.208499999999987  C 8.504000000000005 2.6244999999999834  7.485500000000002 1.1739999999999782  5.993000000000009 0.6394999999999982  C 4.502500000000012 0.10599999999999454  1.9155000000000086 0.5790000000000077  0.9110000000000156 1.802500000000009  C -0.09399999999997988 3.0264999999999986  -0.2249999999999801 5.671999999999997  0.5885000000000105 7.030500000000018  C 1.4015000000000128 8.388500000000022  3.9000000000000057 9.110000000000014  5.453000000000017 8.801500000000004  C 7.000500000000017 8.494  8.22250000000001 7.217500000000001  8.46250000000002 5.6580000000000155  Z " fill-rule="evenodd" />
    </mask>
  </defs>
  <g transform="matrix(1 0 0 1 -305 -11171 )">
    <path d="M 8.46250000000002 5.6580000000000155  C 8.491500000000002 5.467999999999989  8.506500000000003 4.400499999999994  8.506500000000003 4.208499999999987  C 8.504000000000005 2.6244999999999834  7.485500000000002 1.1739999999999782  5.993000000000009 0.6394999999999982  C 4.502500000000012 0.10599999999999454  1.9155000000000086 0.5790000000000077  0.9110000000000156 1.802500000000009  C -0.09399999999997988 3.0264999999999986  -0.2249999999999801 5.671999999999997  0.5885000000000105 7.030500000000018  C 1.4015000000000128 8.388500000000022  3.9000000000000057 9.110000000000014  5.453000000000017 8.801500000000004  C 7.000500000000017 8.494  8.22250000000001 7.217500000000001  8.46250000000002 5.6580000000000155  Z " fill-rule="nonzero" fill="#ffffff" stroke="none" fill-opacity="0" transform="matrix(1 0 0 1 305 11171 )" />
    <path d="M 8.46250000000002 5.6580000000000155  C 8.491500000000002 5.467999999999989  8.506500000000003 4.400499999999994  8.506500000000003 4.208499999999987  C 8.504000000000005 2.6244999999999834  7.485500000000002 1.1739999999999782  5.993000000000009 0.6394999999999982  C 4.502500000000012 0.10599999999999454  1.9155000000000086 0.5790000000000077  0.9110000000000156 1.802500000000009  C -0.09399999999997988 3.0264999999999986  -0.2249999999999801 5.671999999999997  0.5885000000000105 7.030500000000018  C 1.4015000000000128 8.388500000000022  3.9000000000000057 9.110000000000014  5.453000000000017 8.801500000000004  C 7.000500000000017 8.494  8.22250000000001 7.217500000000001  8.46250000000002 5.6580000000000155  Z " stroke-width="4" stroke="#ffffff" fill="none" transform="matrix(1 0 0 1 305 11171 )" mask="url(#clip300)" />
  </g>
</svg>