<?xml version="1.0" encoding="utf-8"?>
<svg version="1.1" xmlns:xlink="http://www.w3.org/1999/xlink" width="10px" height="15px" xmlns="http://www.w3.org/2000/svg">
  <g transform="matrix(1 0 0 1 -323 -11272 )">
    <path d="M 6.396500000000003 11.588999999999999  C 5.516999999999996 10.281999999999982  4.581000000000017 8.998499999999979  3.7524999999999973 7.658999999999992  C 2.8830000000000098 6.252999999999986  2.1219999999999857 4.767499999999984  1.3100000000000023 3.3274999999999864  C 1.068000000000012 2.8979999999999677  0.8255000000000052 2.468500000000006  0.583500000000015 2.0389999999999873  C 0.458500000000015 1.8174999999999955  0.18700000000001182 1.4995000000000118  0.13800000000001944 1.2484999999999786  C 0.1320000000000192 1.218999999999994  0.06550000000001432 1.1604999999999563  0.07200000000001694 1.13149999999996  C 0.08900000000001285 1.0569999999999595  0.47200000000002257 0.8839999999999577  0.5315000000000225 0.84699999999998  C 0.6840000000000259 0.7529999999999859  1.120000000000033 0.3849999999999909  1.26400000000001 0.4449999999999932  C 1.4080000000000155 0.5049999999999955  1.6050000000000182 0.95150000000001  1.6890000000000214 1.0769999999999982  C 1.9480000000000075 1.461999999999989  2.207000000000022 1.84699999999998  2.466000000000008 2.231999999999971  C 3.100500000000011 3.1749999999999545  3.7344999999999966 4.11749999999995  4.369 5.0604999999999905  C 5.246000000000009 6.364499999999964  6.0190000000000055 7.685000000000002  6.791500000000013 9.055999999999983  " stroke-width="2" stroke="#ffffff" fill="none" transform="matrix(1 0 0 1 324 11273 )" />
  </g>
</svg>