<?xml version="1.0" encoding="utf-8"?>
<svg version="1.1" xmlns:xlink="http://www.w3.org/1999/xlink" width="16px" height="16px" xmlns="http://www.w3.org/2000/svg">
  <defs>
    <mask fill="white" id="clip419">
      <path d="M 15.122666666666646 9.59111111111108  C 15.174222222222246 9.256000000000009  15.20000000000002 7.361777777777762  15.20000000000002 7.02311111111112  C 15.195555555555579 4.2346666666666755  13.402666666666695 1.6808888888889062  10.775111111111123 0.7404444444444683  C 8.151111111111126 -0.1991111111111018  3.5822222222222484 0.6337777777777975  1.8133333333333514 2.788444444444445  C 0.04444444444445455 4.943111111111092  -0.18666666666664847 9.615999999999985  1.2453333333333427 12.007111111111094  C 2.677333333333334 14.398222222222204  7.090666666666696 15.667555555555534  9.824888888888886 15.124444444444432  C 12.54933333333333 14.583111111111116  14.700444444444454 12.335999999999988  15.122666666666646 9.59111111111108  Z " fill-rule="evenodd" />
    </mask>
  </defs>
  <g transform="matrix(1 0 0 1 -589 -17960 )">
    <path d="M 15.122666666666646 9.59111111111108  C 15.174222222222246 9.256000000000009  15.20000000000002 7.361777777777762  15.20000000000002 7.02311111111112  C 15.195555555555579 4.2346666666666755  13.402666666666695 1.6808888888889062  10.775111111111123 0.7404444444444683  C 8.151111111111126 -0.1991111111111018  3.5822222222222484 0.6337777777777975  1.8133333333333514 2.788444444444445  C 0.04444444444445455 4.943111111111092  -0.18666666666664847 9.615999999999985  1.2453333333333427 12.007111111111094  C 2.677333333333334 14.398222222222204  7.090666666666696 15.667555555555534  9.824888888888886 15.124444444444432  C 12.54933333333333 14.583111111111116  14.700444444444454 12.335999999999988  15.122666666666646 9.59111111111108  Z " fill-rule="nonzero" fill="#ffffff" stroke="none" fill-opacity="0" transform="matrix(1 0 0 1 589 17960 )" />
    <path d="M 15.122666666666646 9.59111111111108  C 15.174222222222246 9.256000000000009  15.20000000000002 7.361777777777762  15.20000000000002 7.02311111111112  C 15.195555555555579 4.2346666666666755  13.402666666666695 1.6808888888889062  10.775111111111123 0.7404444444444683  C 8.151111111111126 -0.1991111111111018  3.5822222222222484 0.6337777777777975  1.8133333333333514 2.788444444444445  C 0.04444444444445455 4.943111111111092  -0.18666666666664847 9.615999999999985  1.2453333333333427 12.007111111111094  C 2.677333333333334 14.398222222222204  7.090666666666696 15.667555555555534  9.824888888888886 15.124444444444432  C 12.54933333333333 14.583111111111116  14.700444444444454 12.335999999999988  15.122666666666646 9.59111111111108  Z " stroke-width="2" stroke="#ffffff" fill="none" transform="matrix(1 0 0 1 589 17960 )" mask="url(#clip419)" />
  </g>
</svg>