<?xml version="1.0" encoding="utf-8"?>
<svg version="1.1" xmlns:xlink="http://www.w3.org/1999/xlink" width="51px" height="31px" xmlns="http://www.w3.org/2000/svg">
  <g transform="matrix(1 0 0 1 -574 -17902 )">
    <path d="M 0.45803571428569356 28.439117647058822  C 7.297321428571431 24.084705882352935  14.136607142857116 19.729411764705894  20.97678571428569 15.375000000000009  C 26.53749999999998 11.835000000000008  32.46160714285712 8.872941176470622  38.25624999999998 5.727352941176457  C 40.36874999999997 4.5802941176470355  42.48125000000001 3.4341176470588195  44.59374999999999 2.2870588235293985  C 45.33482142857141 1.8847058823529121  46.075892857142875 1.4823529411764764  46.81785714285712 1.0799999999999907  C 47.1428571428571 0.9035294117647066  47.6598214285714 0.4755882352941064  48.031249999999964 0.42088235294115484  C 48.458035714285685 0.35823529411760213  48.58303571428567 0.9617647058823309  48.82767857142853 1.368529411764695  C 49.06964285714283 1.7691176470588195  49.632142857142824 2.3020588235293946  49.393749999999976 2.6488235294117732  C 49.18660714285709 2.948823529411751  48.5223214285714 3.20382352941179  48.21607142857139 3.3988235294117928  C 47.50535714285711 3.8514705882353018  46.794642857142826 4.304117647058861  46.083035714285664 4.75676470588237  C 41.85624999999997 7.447941176470616  37.628571428571384 10.13911764705886  33.40178571428569 12.831176470588261  C 30.982142857142847 14.371764705882363  28.601785714285704 16.013823529411816  26.124107142857106 17.461764705882374  C 23.021428571428512 19.274117647058816  19.791071428571374 20.90029411764707  16.632142857142792 22.614705882352936  C 12.744642857142807 24.725294117647053  8.85714285714277 26.835882352941162  4.969642857142783 28.94647058823528  C 4.746428571428497 29.06735294117646  4.523214285714212 29.189117647058787  4.299999999999926 29.309999999999967  " stroke-width="1" stroke="#ffffff" fill="none" transform="matrix(1 0 0 1 574 17902 )" />
  </g>
</svg>