<?xml version="1.0" encoding="utf-8"?>
<svg version="1.1" xmlns:xlink="http://www.w3.org/1999/xlink" width="9px" height="9px" xmlns="http://www.w3.org/2000/svg">
  <defs>
    <mask fill="white" id="clip307">
      <path d="M 8.506499999999988 5.394999999999982  C 8.535500000000013 5.2065000000000055  8.550000000000011 4.140999999999991  8.550000000000011 3.9505000000000052  C 8.547500000000014 2.382000000000005  7.539000000000016 0.9455000000000098  6.061000000000007 0.4165000000000134  C 4.585000000000008 -0.11199999999999477  2.015000000000015 0.35650000000001114  1.0200000000000102 1.5685000000000002  C 0.025000000000005684 2.7804999999999893  -0.10499999999998977 5.408999999999992  0.7005000000000052 6.753999999999991  C 1.5060000000000002 8.09899999999999  3.988500000000016 8.812999999999988  5.526499999999999 8.507499999999993  C 7.0589999999999975 8.203000000000003  8.269000000000005 6.938999999999993  8.506499999999988 5.394999999999982  Z " fill-rule="evenodd" />
    </mask>
  </defs>
  <g transform="matrix(1 0 0 1 -335 -11176 )">
    <path d="M 8.506499999999988 5.394999999999982  C 8.535500000000013 5.2065000000000055  8.550000000000011 4.140999999999991  8.550000000000011 3.9505000000000052  C 8.547500000000014 2.382000000000005  7.539000000000016 0.9455000000000098  6.061000000000007 0.4165000000000134  C 4.585000000000008 -0.11199999999999477  2.015000000000015 0.35650000000001114  1.0200000000000102 1.5685000000000002  C 0.025000000000005684 2.7804999999999893  -0.10499999999998977 5.408999999999992  0.7005000000000052 6.753999999999991  C 1.5060000000000002 8.09899999999999  3.988500000000016 8.812999999999988  5.526499999999999 8.507499999999993  C 7.0589999999999975 8.203000000000003  8.269000000000005 6.938999999999993  8.506499999999988 5.394999999999982  Z " fill-rule="nonzero" fill="#ffffff" stroke="none" fill-opacity="0" transform="matrix(1 0 0 1 335 11176 )" />
    <path d="M 8.506499999999988 5.394999999999982  C 8.535500000000013 5.2065000000000055  8.550000000000011 4.140999999999991  8.550000000000011 3.9505000000000052  C 8.547500000000014 2.382000000000005  7.539000000000016 0.9455000000000098  6.061000000000007 0.4165000000000134  C 4.585000000000008 -0.11199999999999477  2.015000000000015 0.35650000000001114  1.0200000000000102 1.5685000000000002  C 0.025000000000005684 2.7804999999999893  -0.10499999999998977 5.408999999999992  0.7005000000000052 6.753999999999991  C 1.5060000000000002 8.09899999999999  3.988500000000016 8.812999999999988  5.526499999999999 8.507499999999993  C 7.0589999999999975 8.203000000000003  8.269000000000005 6.938999999999993  8.506499999999988 5.394999999999982  Z " stroke-width="4" stroke="#ffffff" fill="none" transform="matrix(1 0 0 1 335 11176 )" mask="url(#clip307)" />
  </g>
</svg>