<?xml version="1.0" encoding="utf-8"?>
<svg version="1.1" xmlns:xlink="http://www.w3.org/1999/xlink" width="14px" height="22px" xmlns="http://www.w3.org/2000/svg">
  <g transform="matrix(1 0 0 1 -569 -18131 )">
    <path d="M 11.879214285714292 20.280749999999998  C 10.245857142857135 17.99349999999997  8.507571428571461 15.747374999999963  6.968928571428567 13.403249999999986  C 5.354142857142875 10.942749999999975  3.940857142857116 8.343124999999972  2.4328571428571473 5.823124999999976  C 1.983428571428594 5.0714999999999435  1.5330714285714382 4.31987500000001  1.083642857142885 3.5682499999999777  C 0.8515000000000278 3.180624999999992  0.34728571428573624 2.6241250000000207  0.25628571428575037 2.1848749999999626  C 0.24514285714289283 2.1332499999999897  0.12164285714288375 2.0308749999999236  0.13371428571431718 1.98012499999993  C 0.16528571428573816 1.8497499999999292  0.8765714285714705 1.546999999999926  0.9870714285714705 1.482249999999965  C 1.2702857142857624 1.3177499999999753  2.0800000000000614 0.6737499999999841  2.34742857142859 0.7787499999999881  C 2.6148571428571716 0.883749999999992  2.9807142857143196 1.6651250000000175  3.1367142857143255 1.8847499999999968  C 3.6177142857142996 2.558499999999981  4.098714285714327 3.232249999999965  4.579714285714301 3.905999999999949  C 5.758071428571449 5.55624999999992  6.935499999999994 7.2056249999999125  8.113857142857142 8.855874999999983  C 9.742571428571447 11.137874999999937  11.178142857142868 13.448750000000004  12.612785714285739 15.84799999999997  " stroke-width="1" stroke="#ffffff" fill="none" transform="matrix(1 0 0 1 569 18131 )" />
  </g>
</svg>