<?xml version="1.0" encoding="utf-8"?>
<svg version="1.1" xmlns:xlink="http://www.w3.org/1999/xlink" width="10px" height="10px" xmlns="http://www.w3.org/2000/svg">
  <defs>
    <mask fill="white" id="clip306">
      <path d="M 9.674000000000035 6.073000000000036  C 9.706500000000005 5.864000000000004  9.723000000000013 4.776499999999999  9.723000000000013 4.5645000000000095  C 9.72150000000002 2.819000000000017  8.597000000000008 1.2190000000000225  6.952500000000015 0.630500000000012  C 5.309500000000014 0.04250000000001819  2.5475000000000136 0.5640000000000214  1.4400000000000261 1.9125000000000227  C 0.33250000000003865 3.2615000000000123  0.1880000000000166 6.0885000000000105  1.0845000000000198 7.585500000000025  C 1.981000000000023 9.082500000000039  4.64500000000001 9.877000000000038  6.357000000000028 9.537500000000023  C 8.062500000000028 9.199000000000012  9.410000000000025 7.791500000000013  9.674000000000035 6.073000000000036  Z " fill-rule="evenodd" />
    </mask>
  </defs>
  <g transform="matrix(1 0 0 1 -343 -11183 )">
    <path d="M 9.674000000000035 6.073000000000036  C 9.706500000000005 5.864000000000004  9.723000000000013 4.776499999999999  9.723000000000013 4.5645000000000095  C 9.72150000000002 2.819000000000017  8.597000000000008 1.2190000000000225  6.952500000000015 0.630500000000012  C 5.309500000000014 0.04250000000001819  2.5475000000000136 0.5640000000000214  1.4400000000000261 1.9125000000000227  C 0.33250000000003865 3.2615000000000123  0.1880000000000166 6.0885000000000105  1.0845000000000198 7.585500000000025  C 1.981000000000023 9.082500000000039  4.64500000000001 9.877000000000038  6.357000000000028 9.537500000000023  C 8.062500000000028 9.199000000000012  9.410000000000025 7.791500000000013  9.674000000000035 6.073000000000036  Z " fill-rule="nonzero" fill="#ffffff" stroke="none" fill-opacity="0" transform="matrix(1 0 0 1 343 11183 )" />
    <path d="M 9.674000000000035 6.073000000000036  C 9.706500000000005 5.864000000000004  9.723000000000013 4.776499999999999  9.723000000000013 4.5645000000000095  C 9.72150000000002 2.819000000000017  8.597000000000008 1.2190000000000225  6.952500000000015 0.630500000000012  C 5.309500000000014 0.04250000000001819  2.5475000000000136 0.5640000000000214  1.4400000000000261 1.9125000000000227  C 0.33250000000003865 3.2615000000000123  0.1880000000000166 6.0885000000000105  1.0845000000000198 7.585500000000025  C 1.981000000000023 9.082500000000039  4.64500000000001 9.877000000000038  6.357000000000028 9.537500000000023  C 8.062500000000028 9.199000000000012  9.410000000000025 7.791500000000013  9.674000000000035 6.073000000000036  Z " stroke-width="4" stroke="#ffffff" fill="none" transform="matrix(1 0 0 1 343 11183 )" mask="url(#clip306)" />
  </g>
</svg>