<?xml version="1.0" encoding="utf-8"?>
<svg version="1.1" xmlns:xlink="http://www.w3.org/1999/xlink" width="31px" height="20px" xmlns="http://www.w3.org/2000/svg">
  <g transform="matrix(1 0 0 1 -326 -11142 )">
    <path d="M 0.2564999999999884 16.115499999999997  C 4.086500000000001 13.647999999999996  7.916499999999985 11.180000000000007  11.746999999999986 8.712500000000006  C 14.86099999999999 6.7065000000000055  18.178499999999985 5.02800000000002  21.42349999999999 3.2454999999999927  C 22.606499999999983 2.595499999999987  23.789500000000004 1.945999999999998  24.972499999999997 1.2959999999999923  C 25.38749999999999 1.0679999999999836  25.80250000000001 0.8400000000000034  26.21799999999999 0.6119999999999948  C 26.399999999999977 0.5120000000000005  26.68949999999998 0.26949999999999363  26.89749999999998 0.23849999999998772  C 27.136499999999984 0.20299999999997453  27.206499999999977 0.5449999999999875  27.343499999999977 0.7754999999999939  C 27.478999999999985 1.0024999999999977  27.793999999999983 1.3044999999999902  27.660499999999985 1.5010000000000048  C 27.54449999999997 1.6709999999999923  27.172499999999985 1.8155000000000143  27.000999999999976 1.9260000000000161  C 26.60299999999998 2.1825000000000045  26.204999999999984 2.4390000000000214  25.80649999999997 2.6955000000000098  C 23.43949999999998 4.2205000000000155  21.071999999999974 5.745500000000021  18.704999999999984 7.271000000000015  C 17.349999999999994 8.144000000000005  16.016999999999996 9.074500000000029  14.629499999999979 9.89500000000001  C 12.891999999999967 10.921999999999997  11.08299999999997 11.843500000000006  9.313999999999965 12.814999999999998  C 7.136999999999972 14.010999999999996  4.959999999999951 15.206999999999994  2.7829999999999586 16.40299999999999  C 2.6579999999999586 16.471499999999992  2.5329999999999586 16.54049999999998  2.4079999999999586 16.60899999999998  " stroke-width="2" stroke="#ffffff" fill="none" transform="matrix(1 0 0 1 327 11143 )" />
  </g>
</svg>