<?xml version="1.0" encoding="utf-8"?>
<svg version="1.1" xmlns:xlink="http://www.w3.org/1999/xlink" width="18px" height="18px" xmlns="http://www.w3.org/2000/svg">
  <defs>
    <mask fill="white" id="clip418">
      <path d="M 17.413200000000064 10.931400000000066  C 17.47170000000001 10.555200000000008  17.50140000000002 8.597699999999998  17.50140000000002 8.216100000000017  C 17.49870000000004 5.0742000000000305  15.474600000000015 2.194200000000041  12.514500000000027 1.1349000000000216  C 9.557100000000025 0.07650000000003275  4.585500000000025 1.0152000000000385  2.592000000000047 3.442500000000041  C 0.5985000000000696 5.870700000000022  0.33840000000002984 10.959300000000018  1.9521000000000355 13.653900000000045  C 3.5658000000000416 16.34850000000007  8.361000000000018 17.77860000000007  11.44260000000005 17.167500000000043  C 14.51250000000005 16.558200000000024  16.938000000000045 14.024700000000024  17.413200000000064 10.931400000000066  Z " fill-rule="evenodd" />
    </mask>
  </defs>
  <g transform="matrix(1 0 0 1 -601 -17972 )">
    <path d="M 17.413200000000064 10.931400000000066  C 17.47170000000001 10.555200000000008  17.50140000000002 8.597699999999998  17.50140000000002 8.216100000000017  C 17.49870000000004 5.0742000000000305  15.474600000000015 2.194200000000041  12.514500000000027 1.1349000000000216  C 9.557100000000025 0.07650000000003275  4.585500000000025 1.0152000000000385  2.592000000000047 3.442500000000041  C 0.5985000000000696 5.870700000000022  0.33840000000002984 10.959300000000018  1.9521000000000355 13.653900000000045  C 3.5658000000000416 16.34850000000007  8.361000000000018 17.77860000000007  11.44260000000005 17.167500000000043  C 14.51250000000005 16.558200000000024  16.938000000000045 14.024700000000024  17.413200000000064 10.931400000000066  Z " fill-rule="nonzero" fill="#ffffff" stroke="none" fill-opacity="0" transform="matrix(1 0 0 1 601 17972 )" />
    <path d="M 17.413200000000064 10.931400000000066  C 17.47170000000001 10.555200000000008  17.50140000000002 8.597699999999998  17.50140000000002 8.216100000000017  C 17.49870000000004 5.0742000000000305  15.474600000000015 2.194200000000041  12.514500000000027 1.1349000000000216  C 9.557100000000025 0.07650000000003275  4.585500000000025 1.0152000000000385  2.592000000000047 3.442500000000041  C 0.5985000000000696 5.870700000000022  0.33840000000002984 10.959300000000018  1.9521000000000355 13.653900000000045  C 3.5658000000000416 16.34850000000007  8.361000000000018 17.77860000000007  11.44260000000005 17.167500000000043  C 14.51250000000005 16.558200000000024  16.938000000000045 14.024700000000024  17.413200000000064 10.931400000000066  Z " stroke-width="2" stroke="#ffffff" fill="none" transform="matrix(1 0 0 1 601 17972 )" mask="url(#clip418)" />
  </g>
</svg>