<?xml version="1.0" encoding="utf-8"?>
<svg version="1.1" xmlns:xlink="http://www.w3.org/1999/xlink" width="23px" height="9px" xmlns="http://www.w3.org/2000/svg">
  <defs>
    <mask fill="white" id="clip308">
      <path d="M 8.09497777777776 7.743999999999971  C 8.72977777777777 7.910000000000025  9.370200000000013 8.055000000000007  10.010111111111101 8.202499999999986  C 12.440955555555561 8.595499999999959  15.652777777777779 8.836000000000013  18.081066666666654 8.277999999999963  C 19.06904444444443 8.050999999999988  20.03044444444444 7.700999999999965  20.899333333333328 7.184499999999957  C 21.56939999999998 6.7859999999999445  22.368777777777773 6.274999999999977  22.803222222222228 5.608499999999935  C 23.082288888888893 5.180499999999938  22.775622222222243 5.120499999999936  22.358555555555558 5.180499999999938  C 20.528777777777787 5.44399999999996  18.82882222222222 6.5984999999999445  16.93208888888888 6.430499999999938  C 15.079311111111103 6.266499999999951  13.706466666666671 3.9704999999999586  11.972266666666656 3.4879999999999427  C 10.334155555555553 3.0319999999999254  7.678422222222205 3.7469999999999573  6.0055555555555555 3.590499999999963  C 4.236088888888895 3.4244999999999663  3.0012444444444517 2.110499999999945  1.7142666666666588 1.044499999999971  C 1.5875111111111082 0.9394999999999527  0.260666666666662 -0.34250000000002956  0.02913333333331265 0.18399999999996908  C -0.08331111111114574 0.4399999999999409  0.19524444444441796 0.9359999999999786  0.29593333333330823 1.1549999999999727  C 0.7278222222222112 2.092999999999961  1.3585333333333123 2.951499999999953  2.106799999999978 3.672499999999957  C 3.7479777777777623 5.253499999999974  5.889022222222188 7.166999999999973  8.09497777777776 7.743999999999971  Z " fill-rule="evenodd" />
    </mask>
  </defs>
  <g transform="matrix(1 0 0 1 -325 -11261 )">
    <path d="M 8.09497777777776 7.743999999999971  C 8.72977777777777 7.910000000000025  9.370200000000013 8.055000000000007  10.010111111111101 8.202499999999986  C 12.440955555555561 8.595499999999959  15.652777777777779 8.836000000000013  18.081066666666654 8.277999999999963  C 19.06904444444443 8.050999999999988  20.03044444444444 7.700999999999965  20.899333333333328 7.184499999999957  C 21.56939999999998 6.7859999999999445  22.368777777777773 6.274999999999977  22.803222222222228 5.608499999999935  C 23.082288888888893 5.180499999999938  22.775622222222243 5.120499999999936  22.358555555555558 5.180499999999938  C 20.528777777777787 5.44399999999996  18.82882222222222 6.5984999999999445  16.93208888888888 6.430499999999938  C 15.079311111111103 6.266499999999951  13.706466666666671 3.9704999999999586  11.972266666666656 3.4879999999999427  C 10.334155555555553 3.0319999999999254  7.678422222222205 3.7469999999999573  6.0055555555555555 3.590499999999963  C 4.236088888888895 3.4244999999999663  3.0012444444444517 2.110499999999945  1.7142666666666588 1.044499999999971  C 1.5875111111111082 0.9394999999999527  0.260666666666662 -0.34250000000002956  0.02913333333331265 0.18399999999996908  C -0.08331111111114574 0.4399999999999409  0.19524444444441796 0.9359999999999786  0.29593333333330823 1.1549999999999727  C 0.7278222222222112 2.092999999999961  1.3585333333333123 2.951499999999953  2.106799999999978 3.672499999999957  C 3.7479777777777623 5.253499999999974  5.889022222222188 7.166999999999973  8.09497777777776 7.743999999999971  Z " fill-rule="nonzero" fill="#ffffff" stroke="none" fill-opacity="0" transform="matrix(1 0 0 1 325 11261 )" />
    <path d="M 8.09497777777776 7.743999999999971  C 8.72977777777777 7.910000000000025  9.370200000000013 8.055000000000007  10.010111111111101 8.202499999999986  C 12.440955555555561 8.595499999999959  15.652777777777779 8.836000000000013  18.081066666666654 8.277999999999963  C 19.06904444444443 8.050999999999988  20.03044444444444 7.700999999999965  20.899333333333328 7.184499999999957  C 21.56939999999998 6.7859999999999445  22.368777777777773 6.274999999999977  22.803222222222228 5.608499999999935  C 23.082288888888893 5.180499999999938  22.775622222222243 5.120499999999936  22.358555555555558 5.180499999999938  C 20.528777777777787 5.44399999999996  18.82882222222222 6.5984999999999445  16.93208888888888 6.430499999999938  C 15.079311111111103 6.266499999999951  13.706466666666671 3.9704999999999586  11.972266666666656 3.4879999999999427  C 10.334155555555553 3.0319999999999254  7.678422222222205 3.7469999999999573  6.0055555555555555 3.590499999999963  C 4.236088888888895 3.4244999999999663  3.0012444444444517 2.110499999999945  1.7142666666666588 1.044499999999971  C 1.5875111111111082 0.9394999999999527  0.260666666666662 -0.34250000000002956  0.02913333333331265 0.18399999999996908  C -0.08331111111114574 0.4399999999999409  0.19524444444441796 0.9359999999999786  0.29593333333330823 1.1549999999999727  C 0.7278222222222112 2.092999999999961  1.3585333333333123 2.951499999999953  2.106799999999978 3.672499999999957  C 3.7479777777777623 5.253499999999974  5.889022222222188 7.166999999999973  8.09497777777776 7.743999999999971  Z " stroke-width="4" stroke="#ffffff" fill="none" transform="matrix(1 0 0 1 325 11261 )" mask="url(#clip308)" />
  </g>
</svg>