<?xml version="1.0" encoding="utf-8"?>
<svg version="1.1" xmlns:xlink="http://www.w3.org/1999/xlink" width="8px" height="46px" xmlns="http://www.w3.org/2000/svg">
  <g transform="matrix(1 0 0 1 -378 -11248 )">
    <path d="M 0.20650000000000546 3.228583333333342  C 0.16300000000001091 6.854404761904755  0.11899999999999977 10.480226190476227  0.07550000000000523 14.10604761904764  C 0.05000000000001137 16.224821428571452  0.06100000000000705 18.34205952380953  0.06999999999999318 20.46134523809524  C 0.08949999999998681 24.991190476190503  0.10849999999999227 29.521547619047595  0.1279999999999859 34.05190476190475  C 0.1344999999999743 35.60809523809521  0.14099999999999113 37.164285714285725  0.14799999999999613 38.720476190476184  C 0.15149999999999864 39.54208333333334  0.103999999999985 40.38416666666666  0.2179999999999893 41.197583333333355  C 0.40749999999999886 42.55413095238096  1.5275000000000034 42.78397619047624  2.711999999999989 42.63654761904766  C 3.6779999999999973 42.516250000000035  4.491500000000002 42.23060714285718  4.52849999999998 41.14741666666671  C 4.592999999999989 39.26258333333337  4.559999999999974 37.36955952380957  4.575499999999977 35.483702380952444  C 4.609999999999985 31.181654761904824  4.644999999999982 26.879095238095317  4.67949999999999 22.576535714285747  C 4.716499999999996 17.98270238095239  4.7535000000000025 13.388869047619092  4.79049999999998 8.795035714285735  C 4.812499999999972 6.092178571428606  4.833999999999975 3.3898333333333692  4.855999999999966 0.6869761904761826  C 4.856999999999971 0.5569523809523632  4.857999999999976 0.42641666666665134  4.858999999999952 0.296392857142832  " stroke-width="2" stroke="#ffffff" fill="none" transform="matrix(1 0 0 1 379 11249 )" />
  </g>
</svg>