<?xml version="1.0" encoding="utf-8"?>
<svg version="1.1" xmlns:xlink="http://www.w3.org/1999/xlink" width="40px" height="16px" xmlns="http://www.w3.org/2000/svg">
  <defs>
    <mask fill="white" id="clip325">
      <path d="M 14.078222222222191 13.76711111111106  C 15.182222222222208 14.062222222222267  16.296000000000024 14.320000000000013  17.40888888888887 14.582222222222198  C 21.636444444444454 15.280888888888816  27.22222222222222 15.708444444444467  31.445333333333313 14.71644444444438  C 33.163555555555526 14.312888888888867  34.83555555555555 13.690666666666605  36.34666666666666 12.772444444444368  C 37.511999999999965 12.0639999999999  38.902222222222214 11.155555555555516  39.65777777777779 9.970666666666553  C 40.14311111111112 9.209777777777667  39.60977777777781 9.103111111110998  38.88444444444445 9.209777777777667  C 35.70222222222224 9.678222222222152  32.745777777777775 11.730666666666568  29.4471111111111 11.43199999999989  C 26.224888888888877 11.140444444444357  23.83733333333334 7.058666666666593  20.821333333333314 6.200888888888787  C 17.97244444444444 5.390222222222089  13.353777777777749 6.661333333333257  10.444444444444445 6.383111111111045  C 7.367111111111121 6.087999999999941  5.219555555555568 3.751999999999902  2.98133333333332 1.856888888888837  C 2.760888888888884 1.6702222222221381  0.45333333333332526 -0.6088888888889414  0.050666666666630694 0.3271111111110561  C -0.1448888888889491 0.7822222222221171  0.33955555555550954 1.663999999999962  0.5146666666666231 2.053333333333285  C 1.2657777777777586 3.7208888888888194  2.36266666666663 5.247111111111028  3.6639999999999615 6.528888888888812  C 6.518222222222195 9.33955555555551  10.241777777777719 12.741333333333285  14.078222222222191 13.76711111111106  Z " fill-rule="evenodd" />
    </mask>
  </defs>
  <g transform="matrix(1 0 0 1 -570 -18110 )">
    <path d="M 14.078222222222191 13.76711111111106  C 15.182222222222208 14.062222222222267  16.296000000000024 14.320000000000013  17.40888888888887 14.582222222222198  C 21.636444444444454 15.280888888888816  27.22222222222222 15.708444444444467  31.445333333333313 14.71644444444438  C 33.163555555555526 14.312888888888867  34.83555555555555 13.690666666666605  36.34666666666666 12.772444444444368  C 37.511999999999965 12.0639999999999  38.902222222222214 11.155555555555516  39.65777777777779 9.970666666666553  C 40.14311111111112 9.209777777777667  39.60977777777781 9.103111111110998  38.88444444444445 9.209777777777667  C 35.70222222222224 9.678222222222152  32.745777777777775 11.730666666666568  29.4471111111111 11.43199999999989  C 26.224888888888877 11.140444444444357  23.83733333333334 7.058666666666593  20.821333333333314 6.200888888888787  C 17.97244444444444 5.390222222222089  13.353777777777749 6.661333333333257  10.444444444444445 6.383111111111045  C 7.367111111111121 6.087999999999941  5.219555555555568 3.751999999999902  2.98133333333332 1.856888888888837  C 2.760888888888884 1.6702222222221381  0.45333333333332526 -0.6088888888889414  0.050666666666630694 0.3271111111110561  C -0.1448888888889491 0.7822222222221171  0.33955555555550954 1.663999999999962  0.5146666666666231 2.053333333333285  C 1.2657777777777586 3.7208888888888194  2.36266666666663 5.247111111111028  3.6639999999999615 6.528888888888812  C 6.518222222222195 9.33955555555551  10.241777777777719 12.741333333333285  14.078222222222191 13.76711111111106  Z " fill-rule="nonzero" fill="#ffffff" stroke="none" fill-opacity="0" transform="matrix(1 0 0 1 570 18110 )" />
    <path d="M 14.078222222222191 13.76711111111106  C 15.182222222222208 14.062222222222267  16.296000000000024 14.320000000000013  17.40888888888887 14.582222222222198  C 21.636444444444454 15.280888888888816  27.22222222222222 15.708444444444467  31.445333333333313 14.71644444444438  C 33.163555555555526 14.312888888888867  34.83555555555555 13.690666666666605  36.34666666666666 12.772444444444368  C 37.511999999999965 12.0639999999999  38.902222222222214 11.155555555555516  39.65777777777779 9.970666666666553  C 40.14311111111112 9.209777777777667  39.60977777777781 9.103111111110998  38.88444444444445 9.209777777777667  C 35.70222222222224 9.678222222222152  32.745777777777775 11.730666666666568  29.4471111111111 11.43199999999989  C 26.224888888888877 11.140444444444357  23.83733333333334 7.058666666666593  20.821333333333314 6.200888888888787  C 17.97244444444444 5.390222222222089  13.353777777777749 6.661333333333257  10.444444444444445 6.383111111111045  C 7.367111111111121 6.087999999999941  5.219555555555568 3.751999999999902  2.98133333333332 1.856888888888837  C 2.760888888888884 1.6702222222221381  0.45333333333332526 -0.6088888888889414  0.050666666666630694 0.3271111111110561  C -0.1448888888889491 0.7822222222221171  0.33955555555550954 1.663999999999962  0.5146666666666231 2.053333333333285  C 1.2657777777777586 3.7208888888888194  2.36266666666663 5.247111111111028  3.6639999999999615 6.528888888888812  C 6.518222222222195 9.33955555555551  10.241777777777719 12.741333333333285  14.078222222222191 13.76711111111106  Z " stroke-width="2" stroke="#ffffff" fill="none" transform="matrix(1 0 0 1 570 18110 )" mask="url(#clip325)" />
  </g>
</svg>