<?xml version="1.0" encoding="utf-8"?>
<svg version="1.1" xmlns:xlink="http://www.w3.org/1999/xlink" width="10px" height="76px" xmlns="http://www.w3.org/2000/svg">
  <g transform="matrix(1 0 0 1 -666 -18088 )">
    <path d="M 0.37170000000000986 5.631250000000015  C 0.29340000000001965 11.95535714285713  0.21419999999999959 18.279464285714347  0.13590000000000943 24.603571428571463  C 0.09000000000002047 28.299107142857185  0.10980000000001268 31.9919642857143  0.1259999999999877 35.68839285714286  C 0.16109999999997626 43.58928571428576  0.19529999999998607 51.49107142857139  0.23039999999997463 59.392857142857125  C 0.24209999999995377 62.10714285714281  0.25379999999998404 64.8214285714286  0.26639999999999303 67.53571428571428  C 0.27269999999999756 68.96875  0.18719999999997297 70.43749999999999  0.39239999999998076 71.85625000000003  C 0.7334999999999979 74.22232142857145  2.749500000000006 74.62321428571437  4.88159999999998 74.3660714285715  C 6.620399999999996 74.15625000000006  8.084700000000003 73.65803571428577  8.151299999999964 71.76875000000007  C 8.26739999999998 68.48125000000006  8.207999999999954 65.17946428571436  8.235899999999958 61.89017857142868  C 8.297999999999973 54.38660714285725  8.360999999999967 46.882142857142995  8.423099999999982 39.37767857142863  C 8.489699999999994 31.365178571428586  8.556300000000006 23.352678571428648  8.622899999999964 15.340178571428607  C 8.66249999999995 10.625892857142917  8.701199999999956 5.912500000000063  8.740799999999938 1.198214285714272  C 8.742599999999948 0.9714285714285406  8.744399999999956 0.7437499999999733  8.746199999999915 0.5169642857142418  " stroke-width="1" stroke="#ffffff" fill="none" transform="matrix(1 0 0 1 666 18088 )" />
  </g>
</svg>