<?xml version="1.0" encoding="utf-8"?>
<svg version="1.1" xmlns:xlink="http://www.w3.org/1999/xlink" width="10px" height="29px" xmlns="http://www.w3.org/2000/svg">
  <g transform="matrix(1 0 0 1 -378 -11220 )">
    <path d="M 5.86761538461538 22.903960784313735  C 5.996846153846154 18.40596078431375  6.156230769230765 13.912549019607825  6.348461538461519 9.41658823529412  C 6.4281538461538394 7.55478431372547  6.530461538461531 5.689411764705866  6.475538461538436 3.8255686274509904  C 6.452923076923066 3.0623921568627765  6.422769230769199 2.280352941176506  6.243461538461522 1.5324705882352798  C 6.164846153846129 1.2056862745098087  6.060384615384613 0.8294509803921327  5.795461538461526 0.5888235294117509  C 5.595153846153826 0.4073333333333222  5.327538461538434 0.3405490196078464  5.064230769230755 0.28549019607840354  C 4.2333846153845975 0.11164705882349743  3.344923076923071 0.04588235294113474  2.496307692307675 0.10858823529410003  C 1.7683076923076877 0.16211764705881518  0.9525384615384339 0.32576470588235806  0.6612307692307433 1.0374509803921406  C 0.5319999999999692 1.3525098039215788  0.5136923076922812 1.7042745098039016  0.5093846153845989 2.038196078431339  C 0.4975384615384498 2.9889803921568334  0.5879999999999916 3.9469019607842943  0.6364615384615167 4.895137254901948  C 0.7500769230769081 7.12196078431374  0.8755384615384487 9.346235294117632  0.9143076923076809 11.575607843137263  C 0.9923846153845943 16.057294117647093  0.9105384615384476 20.539490196078425  0.8577692307692097 25.021176470588255  C 0.8545384615384557 25.293411764705898  0.851307692307671 25.5661568627451  0.848076923076917 25.838392156862742  " stroke-width="2" stroke="#ffffff" fill="none" transform="matrix(1 0 0 1 379 11221 )" />
  </g>
</svg>