<?xml version="1.0" encoding="utf-8"?>
<svg version="1.1" xmlns:xlink="http://www.w3.org/1999/xlink" width="17px" height="30px" xmlns="http://www.w3.org/2000/svg">
  <g transform="matrix(1 0 0 1 -358 -11263 )">
    <path d="M 0.3714999999999975 0.32349056603773124  C 1.595499999999987 3.988867924528323  2.819500000000005 7.654754716981109  4.0434999999999945 11.320132075471701  C 5.567999999999984 15.885169811320763  7.0919999999999845 20.450207547169825  8.616500000000002 25.01524528301889  C 8.788000000000011 25.529264150943423  8.909500000000008 26.191018867924548  9.325999999999993 26.56341509433964  C 9.870499999999993 27.049924528301926  10.777500000000003 26.978603773584947  11.436999999999983 26.89403773584907  C 12.056499999999971 26.81456603773589  12.91349999999997 26.730000000000015  13.287999999999982 26.132943396226416  C 13.801999999999992 25.312754716981125  13.487999999999971 23.96937735849059  13.328499999999991 23.10333962264151  C 12.590000000000003 19.096641509433958  11.238499999999988 15.173999999999971  10.06649999999999 11.28345283018868  C 9.970499999999987 10.964547169811333  9.874499999999983 10.64615094339624  9.77849999999998 10.327245283018891  " stroke-width="2" stroke="#ffffff" fill="none" transform="matrix(1 0 0 1 359 11264 )" />
  </g>
</svg>