<?xml version="1.0" encoding="utf-8"?>
<svg version="1.1" xmlns:xlink="http://www.w3.org/1999/xlink" width="39px" height="65px" xmlns="http://www.w3.org/2000/svg">
  <g transform="matrix(1 0 0 1 -628 -18099 )">
    <path d="M 28.104976744186043 0.7454647887323927  C 25.395488372093045 5.777126760563373  22.718697674418575 10.820507042253539  20.07637209302327 15.889126760563338  C 17.810511627906973 20.235718309859116  15.586186046511628 24.603943661971794  13.403395348837236 28.99470422535206  C 10.900697674418637 34.028169014084405  8.418325581395358 39.06704225352105  6.094139534883734 44.18974647887316  C 4.006790697674411 48.78873239436609  1.8248837209302304 53.572507042253434  0.7838604651162795 58.55369014084494  C 0.6026976744186192 59.42174647887308  -0.19088372093023978 62.361239436619634  0.9809302325581516 62.999436619718196  C 2.0811627906976904 63.59977464788726  3.533116279069759 62.01239436619704  4.094279069767476 61.25521126760557  C 5.924465116279126 58.78625352112667  7.2659534883721255 55.79177464788722  8.751488372093041 53.11098591549292  C 12.129953488372092 47.01205633802817  15.508418604651194 40.91312676056331  18.887767441860507 34.81419718309855  C 22.66302325581399 27.99954929577466  26.438279069767468 21.18490140845066  30.21265116279074 14.370253521126767  C 32.49353488372098 10.251718309859198  34.77530232558144 6.134084507042311  37.05618604651164 2.015549295774639  C 37.1657674418605 1.8181408450703676  37.274465116279096 1.6207323943661989  37.3840465116279 1.4233239436619276  " stroke-width="1" stroke="#ffffff" fill="none" transform="matrix(1 0 0 1 628 18099 )" />
  </g>
</svg>