<?xml version="1.0" encoding="utf-8"?>
<svg version="1.1" xmlns:xlink="http://www.w3.org/1999/xlink" width="26px" height="48px" xmlns="http://www.w3.org/2000/svg">
  <g transform="matrix(1 0 0 1 -630 -18115 )">
    <path d="M 0.6633928571428527 0.5631132075471618  C 2.8491071428571195 6.943584905660414  5.034821428571438 13.324943396226375  7.220535714285704 19.705415094339628  C 9.942857142857113 27.651962264150956  12.664285714285686 35.59850943396229  15.386607142857148 43.545056603773624  C 15.69285714285716 44.439830188679295  15.909821428571444 45.591773584905695  16.653571428571418 46.240018867924555  C 17.625892857142844 47.086905660377425  19.24553571428572 46.9627547169812  20.423214285714256 46.815547169811346  C 21.529464285714234 46.677207547169886  23.059821428571375 46.53000000000002  23.728571428571396 45.490679245283026  C 24.646428571428558 44.0629433962264  24.085714285714236 41.72447169811325  23.80089285714284 40.21692452830189  C 22.482142857142865 33.24230188679245  20.068749999999977 26.41399999999995  17.975892857142842 19.64156603773585  C 17.804464285714264 19.086433962264174  17.633035714285686 18.532188679245305  17.46160714285711 17.977056603773626  " stroke-width="1" stroke="#ffffff" fill="none" transform="matrix(1 0 0 1 630 18115 )" />
  </g>
</svg>