<?xml version="1.0" encoding="utf-8"?>
<svg version="1.1" xmlns:xlink="http://www.w3.org/1999/xlink" width="25px" height="39px" xmlns="http://www.w3.org/2000/svg">
  <g transform="matrix(1 0 0 1 -357 -11254 )">
    <path d="M 16.271302325581395 0.4193239436619709  C 14.70265116279071 3.2496338028168976  13.152930232558123 6.086535211267615  11.623162790697684 8.937633802816878  C 10.3113488372093 11.382591549295753  9.023581395348836 13.839718309859133  7.759860465116295 16.309521126760533  C 6.310930232558158 19.14084507042248  4.87376744186047 21.97521126760559  3.5281860465116357 24.856732394366155  C 2.319720930232554 27.443661971830927  1.0565116279069755 30.134535211267558  0.45381395348837233 32.93645070422528  C 0.3489302325581479 33.42473239436611  -0.11051162790698094 35.078197183098546  0.567906976744193 35.43718309859148  C 1.2048837209302419 35.77487323943658  2.0454883720930184 34.88197183098583  2.3703720930232755 34.456056338028134  C 3.429953488372126 33.06726760563375  4.2066046511628095 31.382873239436563  5.066651162790708 29.874929577464766  C 7.02260465116279 26.444281690140844  8.978558139534902 23.013633802816862  10.935023255813977 19.582985915492934  C 13.120697674418626 15.749746478873247  15.30637209302327 11.916507042253496  17.491534883720952 8.083267605633806  C 18.812046511627937 5.766591549295799  20.13306976744189 3.4504225352113  21.453581395348845 1.1337464788732345  C 21.517023255813974 1.0227042253520817  21.57995348837211 0.9116619718309869  21.643395348837206 0.8006197183098342  " stroke-width="2" stroke="#ffffff" fill="none" transform="matrix(1 0 0 1 358 11255 )" />
  </g>
</svg>