<?xml version="1.0" encoding="utf-8"?>
<svg version="1.1" xmlns:xlink="http://www.w3.org/1999/xlink" width="13px" height="47px" xmlns="http://www.w3.org/2000/svg">
  <g transform="matrix(1 0 0 1 -665 -18039 )">
    <path d="M 10.058769230769222 40.522392156862765  C 10.280307692307693 32.56439215686278  10.553538461538455 24.614509803921536  10.88307692307689 16.660117647058826  C 11.019692307692296 13.366156862745061  11.195076923076911 10.065882352941149  11.100923076923033 6.768313725490214  C 11.062153846153828 5.418078431372605  11.010461538461485 4.034470588235357  10.703076923076896 2.7112941176470335  C 10.56830769230765 2.133137254901969  10.389230769230764 1.4674901960783886  9.9350769230769 1.0417647058823285  C 9.591692307692274 0.720666666666647  9.13292307692303 0.6025098039215744  8.681538461538437 0.505098039215637  C 7.257230769230738 0.1975294117646493  5.734153846153836 0.08117647058816146  4.279384615384585 0.19211764705879233  C 3.0313846153846074 0.28682352941174993  1.6329230769230296 0.5763529411764796  1.133538461538417 1.8354901960784027  C 0.9119999999999472 2.392901960784332  0.8806153846153393 3.0152549019607493  0.873230769230741 3.6060392156862147  C 0.8529230769230568 5.288196078431321  1.0079999999999858 6.982980392156828  1.0910769230768858 8.66062745098037  C 1.285846153846128 12.600392156862771  1.500923076923055 16.535647058823503  1.5673846153845958 20.479921568627468  C 1.7012307692307331 28.409058823529474  1.560923076923053 36.33909803921567  1.4704615384615023 44.26823529411769  C 1.4649230769230668 44.749882352941206  1.4593846153845789 45.23243137254902  1.4538461538461434 45.71407843137254  " stroke-width="1" stroke="#ffffff" fill="none" transform="matrix(1 0 0 1 665 18039 )" />
  </g>
</svg>