<?xml version="1.0" encoding="utf-8"?>
<svg version="1.1" xmlns:xlink="http://www.w3.org/1999/xlink" width="13px" height="28px" xmlns="http://www.w3.org/2000/svg">
  <g transform="matrix(1 0 0 1 -653 -18039 )">
    <path d="M 2.2347692307692237 26.916300000000035  C 2.3261538461538294 22.482000000000014  2.1267692307692063 18.051300000000015  1.7963076923076642 13.628700000000025  C 1.6329230769230296 11.44260000000005  1.4464615384614927 9.255599999999992  1.190769230769197 7.07760000000003  C 1.0744615384615266 6.084900000000072  0.9267692307691959 5.095800000000031  0.7283076923076806 4.115699999999982  C 0.6166153846153906 3.56579999999999  0.4347692307692341 2.9735999999999763  0.4689230769230597 2.4038999999999415  C 0.5446153846153615 1.1384999999999879  1.8969230769230834 0.9044999999998936  2.97138461538461 0.7730999999999313  C 4.912615384615387 0.5354999999999221  7.045846153846137 0.5039999999999508  8.994461538461513 0.6587999999999739  C 9.445846153846105 0.6947999999999411  9.857538461538438 0.7856999999999402  10.217538461538425 1.0601999999999976  C 11.659384615384589 2.1627000000000183  11.987076923076861 4.6773000000000025  11.850461538461508 6.313499999999987  C 11.82830769230766 6.580800000000011  11.791384615384564 6.847199999999952  11.739692307692271 7.110899999999959  " stroke-width="1" stroke="#ffffff" fill="none" transform="matrix(1 0 0 1 653 18039 )" />
  </g>
</svg>