<?xml version="1.0" encoding="utf-8"?>
<svg version="1.1" xmlns:xlink="http://www.w3.org/1999/xlink" width="10px" height="18px" xmlns="http://www.w3.org/2000/svg">
  <g transform="matrix(1 0 0 1 -371 -11220 )">
    <path d="M 1.3036153846153806 14.95350000000002  C 1.3569230769230671 12.490000000000009  1.2406153846153702 10.028500000000008  1.0478461538461374 7.571500000000014  C 0.9525384615384339 6.357000000000028  0.8437692307692041 5.141999999999996  0.694615384615365 3.9320000000000164  C 0.6267692307692239 3.3805000000000405  0.5406153846153643 2.8310000000000173  0.424846153846147 2.2864999999999895  C 0.35969230769231114 1.9809999999999945  0.2536153846153866 1.6519999999999868  0.2735384615384515 1.3354999999999677  C 0.31769230769229423 0.6324999999999932  1.1065384615384652 0.5024999999999409  1.733307692307689 0.4294999999999618  C 2.865692307692309 0.2974999999999568  4.110076923076913 0.2799999999999727  5.246769230769216 0.36599999999998545  C 5.510076923076895 0.38599999999996726  5.750230769230756 0.4364999999999668  5.960230769230748 0.5889999999999986  C 6.801307692307677 1.20150000000001  6.9924615384615025 2.5985000000000014  6.912769230769213 3.507499999999993  C 6.899846153846135 3.656000000000006  6.878307692307662 3.803999999999973  6.848153846153825 3.9504999999999773  " stroke-width="2" stroke="#ffffff" fill="none" transform="matrix(1 0 0 1 372 11221 )" />
  </g>
</svg>