<?xml version="1.0" encoding="utf-8"?>
<svg version="1.1" xmlns:xlink="http://www.w3.org/1999/xlink" width="14px" height="60px" xmlns="http://www.w3.org/2000/svg">
  <g transform="matrix(1 0 0 1 -654 -18103 )">
    <path d="M 1.7392142857142767 15.02801515151518  C 1.3714999999999773 19.39937878787881  1.148642857142826 23.773424242424287  1.0037857142857303 28.156409090909154  C 0.8477857142857244 32.85137878787881  0.8004285714285929 37.55171212121218  0.7010714285714243 42.24757575757585  C 0.6212142857142696 46.034303030303114  0.4401428571428474 49.813878787878934  0.30921428571425785 53.597924242424334  C 0.27021428571428274 54.72786363636374  -0.11142857142857565 57.27022727272732  1.107785714285699 58.08460606060616  C 1.5776428571428158 58.39837878787888  2.2573571428571273 58.38139393939404  2.796857142857143 58.41536363636374  C 4.146071428571405 58.50028787878801  5.563071428571415 58.57627272727279  6.888142857142864 58.25445454545469  C 8.600428571428571 57.83877272727285  9.462142857142855 56.7115151515153  9.736999999999991 55.08901515151525  C 10.00349999999997 53.51657575757584  9.953357142857138 51.88692424242435  9.98771428571426 50.297500000000085  C 10.049928571428552 47.38057575757581  10.112142857142844 44.464545454545565  10.174357142857136 41.54762121212129  C 10.267214285714301 37.19413636363644  10.432500000000013 32.8415454545455  10.569928571428553 28.488060606060653  C 10.691571428571384 24.63160606060614  10.88935714285712 20.77783333333338  11.121499999999978 16.925848484848558  C 11.40749999999997 12.179924242424345  11.785428571428525 7.441151515151576  12.14664285714282 2.699696969697055  C 12.197714285714255 2.032818181818284  12.247857142857088 1.3650454545454935  12.298928571428522 0.6981666666667228  " stroke-width="1" stroke="#ffffff" fill="none" transform="matrix(1 0 0 1 654 18103 )" />
  </g>
</svg>