<?xml version="1.0" encoding="utf-8"?>
<svg version="1.1" xmlns:xlink="http://www.w3.org/1999/xlink" width="22px" height="39px" xmlns="http://www.w3.org/2000/svg">
  <g transform="matrix(1 0 0 1 -632 -18039 )">
    <path d="M 7.259608695652195 37.182558139534926  C 9.855391304347862 30.63241860465117  12.45117391304348 24.08316279069773  15.047869565217386 17.533023255813983  C 15.931695652173923 15.304279069767427  16.80365217391304 13.070232558139603  17.698434782608707 10.845906976744208  C 18.3430434782609 9.24283720930238  19.009565217391298 7.646837209302344  19.65782608695655 6.045534883720937  C 19.944521739130483 5.338558139534931  20.242173913043494 4.618325581395348  20.376391304347834 3.866279069767442  C 20.532521739130434 2.991395348837201  20.434826086956548 1.9547906976744092  19.715347826086973 1.3211627906976784  C 18.961173913043474 0.6566046511628365  17.783347826086988 0.7299534883721123  16.840173913043493 0.730837209302324  C 14.992173913043493 0.7334883720930594  12.503217391304364 0.37646511627910917  10.782130434782633 1.2990697674418845  C 9.19617391304348 2.149209302325596  8.38265217391308 4.156139534883699  7.658608695652205 5.6443255813954  C 5.038173913043505 11.027069767441919  2.8797391304348308 16.71823255813954  1.018043478260878 22.384651162790735  C 0.7824782608695905 23.102232558139583  0.5560434782609036 23.82158139534885  0.3296086956521648 24.542697674418644  " stroke-width="1" stroke="#ffffff" fill="none" transform="matrix(1 0 0 1 632 18039 )" />
  </g>
</svg>