<?xml version="1.0" encoding="utf-8"?>
<svg version="1.1" xmlns:xlink="http://www.w3.org/1999/xlink" width="10px" height="37px" xmlns="http://www.w3.org/2000/svg">
  <g transform="matrix(1 0 0 1 -372 -11256 )">
    <path d="M 0.9364999999999951 8.660212121212139  C 0.7384999999999877 11.179303030303043  0.6184999999999832 13.69993939393942  0.5405000000000086 16.22572727272731  C 0.4565000000000054 18.93130303030304  0.4310000000000116 21.63996969696973  0.3774999999999977 24.34606060606066  C 0.33449999999999136 26.52824242424247  0.23699999999999474 28.706303030303115  0.166499999999985 30.88693939393945  C 0.1454999999999984 31.538090909090972  -0.060000000000002274 33.003181818181844  0.5964999999999918 33.4724848484849  C 0.8494999999999777 33.653303030303086  1.2154999999999916 33.6435151515152  1.5060000000000002 33.66309090909097  C 2.2324999999999875 33.712030303030375  2.9954999999999927 33.75581818181821  3.7090000000000036 33.57036363636372  C 4.631 33.33081818181825  5.094999999999999 32.681212121212205  5.242999999999995 31.746212121212178  C 5.386499999999984 30.840060606060657  5.359499999999997 29.900939393939456  5.377999999999986 28.98500000000005  C 5.4114999999999895 27.304060606060638  5.444999999999993 25.62363636363643  5.478499999999997 23.942696969697018  C 5.528500000000008 21.433909090909133  5.617500000000007 18.925636363636393  5.691499999999991 16.41684848484851  C 5.756999999999977 14.194484848484892  5.863499999999988 11.973666666666693  5.988499999999988 9.753878787878831  C 6.142499999999984 7.018939393939453  6.345999999999975 4.288121212121247  6.54049999999998 1.555757575757625  C 6.567999999999984 1.1714545454546044  6.59499999999997 0.7866363636363861  6.622499999999974 0.40233333333336563  " stroke-width="2" stroke="#ffffff" fill="none" transform="matrix(1 0 0 1 373 11257 )" />
  </g>
</svg>