<?xml version="1.0" encoding="utf-8"?>
<svg version="1.1" xmlns:xlink="http://www.w3.org/1999/xlink" width="15px" height="25px" xmlns="http://www.w3.org/2000/svg">
  <g transform="matrix(1 0 0 1 -359 -11220 )">
    <path d="M 4.148347826086968 21.526744186046535  C 5.631652173913064 17.73455813953489  7.114956521739131 13.942883720930265  8.598782608695648 10.150697674418621  C 9.103826086956527 8.860372093023248  9.602086956521736 7.5669767441860865  10.113391304347834 6.279209302325594  C 10.4817391304348 5.351116279069799  10.86260869565217 4.427116279069778  11.233043478260885 3.5000465116279114  C 11.396869565217418 3.090744186046539  11.566956521739138 2.673767441860465  11.643652173913047 2.238372093023256  C 11.73286956521739 1.7318604651162743  11.677043478260885 1.1317209302325526  11.26591304347827 0.7648837209302349  C 10.834956521739128 0.3801395348837474  10.161913043478279 0.4226046511628019  9.62295652173914 0.4231162790697665  C 8.566956521739138 0.42465116279071863  7.144695652173922 0.21795348837211584  6.161217391304362 0.7520930232558279  C 5.254956521739132 1.2442790697674502  4.79008695652176 2.406186046511615  4.376347826086974 3.2677674418604945  C 2.8789565217391457 6.384093023255848  1.645565217391332 9.67897674418605  0.5817391304347874 12.959534883720952  C 0.44713043478262315 13.374976744186075  0.31773913043480206 13.791441860465124  0.18834782608695128 14.208930232558163  " stroke-width="2" stroke="#ffffff" fill="none" transform="matrix(1 0 0 1 360 11221 )" />
  </g>
</svg>