<?xml version="1.0" encoding="utf-8"?>
<svg version="1.1" xmlns:xlink="http://www.w3.org/1999/xlink" width="231px" height="61px" xmlns="http://www.w3.org/2000/svg">
  <g transform="matrix(1 0 0 1 -425 -1113 )">
    <path d="M 58.49219185567557 31.877202930531357  C 57.11298063372412 32.14181769582139  55.8802752627813 32.57822693082492  54.7945897984647 33.185917816229335  C 53.70787622291293 33.79463434025892  53.16451943513705 34.86488824560834  54 36.39924362884046  L 54 56.470991523127026  C 53.16451943513705 56.5243247316351  53.11105765090934 56.60381172508461  53.00516219368906 56.709452503475596  C 51.72643113415333 57.66453850055386  50.321390755566526 58.438541297911755  48.830002467751775 59.00944712038606  C 47.311454551053096 59.59421185862091  45.740392994113165 60.03295497777826  44.1382168461525 60.319700464021786  C 42.534516269720235 60.60769787702388  40.91398672059067 60.79303333048258  39.28655992748766 60.874570960230734  C 37.66934095459937 60.95354513436768  36.09170426426429 60.99251940212356  34.55467796771757 60.99251940212356  C 32.22086546393093 60.99251940212356  29.86237829050071 60.91303240867404  27.47664616933907 60.75457124108756  C 23.287606941727294 60.43713608660204  19.51032626379242 59.38021548337965  16.144290079916868 57.58124533485749  C 12.776711729188595 55.78330082496049  9.91342193930056 53.44381912098157  7.555448821487925 50.56023612635782  C 5.1959335368225625 47.67819158967181  3.3802890955506557 44.398712085738175  2.108001442054626 40.72231043386949  C 0.8351997329410247 37.046934420625966  0.19879887838422253 33.17258451410233  0.19879887838422253 29.099773533611177  C 0.19879887838422253 24.392092244148976  1.0464765917639998 20.226973787393856  2.743374185376279 16.604418163345816  C 4.439757723370984 12.982375358610353  6.759690725483135 9.939818377087562  9.702145080477587 7.480849773278058  C 12.645627546707184 5.021881169468551  16.076948794014655 3.1711162703760576  20.000735322958164 1.9270166180628456  C 23.923493740666522 0.6849682429999423  28.112532968278284 0.06291841684333692  32.56631083894075 0.06291841684333692  C 34.952042960102396 0.06291841684333692  37.35011241608582 0.1952257994883515  39.76308948497889 0.45881492615322916  C 42.13921927927434 0.7198243994923091  44.511946856720414 1.0107871336813055  46.88070356591061 1.3316333961602729  C 47.9406862493485 1.491120202371901  48.98833159796464 1.6490685506457954  50.021583389288686 1.8080425375448452  C 51.055863291847885 1.9670165244438953  52.10196647361128 2.099323907088913  53.16246321266675 2.204451866167316  C 53.373740071489735 2.204451866167316  53.48066363994515 2.311118283183452  53.48066363994515 2.5218870206528377  C 53.377239413563906 4.393557011982848  53.19148645373924 6.259794297134044  52.92394140611234 8.115207262936526  C 52.656177607031765 9.952741200234817  52.391267294282166 11.790687821590925  52.1292114213427 13.629040511770686  C 52.075749637114995 13.999808874764277  52.02228785288728 14.356731116318272  51.96985417989472 14.69980723643268  C 51.91639239566701 15.044421814484814  51.862930611439296 15.373651813159617  51.810496938446725 15.69159978695772  C 51.810496938446725 15.851086593169343  51.716938816048234 15.94339406943331  51.53187879372154 15.96954785437477  C 51.34527660454212 15.99672727794138  51.22601570126491 15.930060767306298  51.17358202827236 15.771086780407241  C 50.74948614377368 13.497245948438247  49.98148705111789 11.540327451642195  48.868042583452265 9.90033129001909  C 47.75408406016908 8.261360767021138  46.388752339892136 6.899312672815078  44.772561478239 5.8146998267134915  C 43.154828449733145 4.731112619237063  41.33866995284367 3.9377811426795417  39.324600043188134 3.4341925777283566  C 37.30898796667988 2.932142470714904  35.21523943630036 2.6798353689267334  33.04181228519684 2.6798353689267334  C 29.38379251053917 2.6798353689267334  25.976117821640113 3.2890647122688996  22.822900663440254 4.505472121702926  C 19.66762728277011 5.722905169762103  16.923598396159278 7.428029384082564  14.591328059225344 9.622896041914613  C 12.258543666673841 11.818275519059242  10.416682388905649 14.462884714021833  9.064716114685629 17.55621080748981  C 7.714806062935902 20.651075358895508  7.038822925825893 24.050041762659724  7.038822925825893 27.751571560844717  C 7.038822925825893 31.771562152140373  7.780091126367821 35.56539942658933  9.265711861157122 39.13564748075446  C 10.7497904290937 42.70589553491958  12.777739840423733 45.827426690579316  15.349560095147218 48.49716403185821  C 17.92035223863556 51.16946546969998  20.968702050850283 53.28484513408251  24.495123587408976 54.84484148294351  C 28.01948890149737 56.40483783180452  31.824014527163673 57.18432318692245  35.90715829755516 57.18432318692245  C 37.65597550854244 57.18432318692245  39.432037667261135 56.985862112954926  41.23483071809369 56.58893996501988  C 43.036595657691095 56.19304345570999  44.57516412109054 55.333558287829945  46 54.01151010000495  L 46 36.16078264849189  C 45.84796583020414 34.89155484986237  45.450600837819316 34.0330953206075  44.655356797432106 33.582839964164386  C 43.86011275704489 33.134123065659004  42.95794514820225 32.74950858122582  41.95142424899206 32.43258624605287  C 41.51993942832875 32.324520235499236  41.094982469465556 32.19199776347224  40.678622539878454 32.03566409811783  C 40.253498544144634 31.877202930531357  39.83043077088111 31.66643419306197  39.40582083076485 31.401306608459354  C 39.24646358931687 31.29566583006837  39.19351586070674 31.176691749550375  39.24646358931687 31.04438436690536  C 39.29889726230943 30.913102622885496  39.40582083076485 30.84592329293783  39.564149960977694 30.84592329293783  C 42.74512612252654 30.84592329293783  45.8865200015222 30.873615535817024  48.98833159796464 30.925410286387365  C 52.09014319440708 30.978743494895436  55.23153707340271 31.08438427328642  58.412513234951575 31.242845440872888  L 58.49219185567557 31.877202930531357  Z M 98.77359004878619 54.1679199903411  C 98.02923751453879 54.27663768460754  97.3275515965501 54.302791469549  96.66544796111461 54.24945826104094  C 95.96309244996559 54.19402574098177  95.26054551026373 54.1410340905152  94.55781992906059 54.090484274141886  C 94.12197569112618 54.03642170731596  93.68444125957089 53.99691254626383  93.24594999301134 53.97202301293647  C 92.78243723614732 53.94474310408972  92.31820567260799 53.93140374786003  91.85388738062052 53.932023106555405  C 90.63351934449948 53.932023106555405  89.41469347523116 53.98535631506348  88.19586760596283 54.09150991276704  C 86.97549956984182 54.19817632978317  85.7561596449559 54.30330428886158  84.5373337756876 54.408432247939984  C 84.37746247862204 54.408432247939984  84.27053891016662 54.32894525449046  84.2191333484092 54.17048408690398  C 84.16567156418148 54.01151010000494  84.2191333484092 53.880228355985075  84.37797653423962 53.774074758281515  L 87.47978813068205 52.26741161792858  C 86.58593272798502 49.803108528408075  85.64469451901329 47.35616689395659  84.65659467896482 44.92794161631824  C 83.65837953797428 42.4773852066323  82.71723367921315 40.00407726158916  81.83391528286515 37  L 69.50686157343698 37  C 69.11719381935939 38.52611887881692  68.73284633147813 39.54425002893567  68.35383482321815 40.564362085595576  C 67.83487861059015 41.95573536450746  67.34453811256472 43.35756441307405  66.8831217013385 44.76896762941917  C 66.4327194415456 46.13601821127974  66.00837573443462 47.51147653841016  65.6103199922249 48.894598999105824  C 65.23865778071878 50.191006221301954  65.05359775839209 51.128952744006355  65.05359775839209 51.71100266378192  C 65.05359775839209 52.50382132102685  65.39750096654919 53.020230368792475  66.08787766095128 53.2576657105159  C 66.77619813288308 53.49612669086448  67.43984393517131 53.668433979890544  68.07573073411052 53.77407475828153  L 68.07573073411052 54.40843224793999  C 67.06818172366519 54.30330428886158  66.03441587672357 54.20997117397247  64.97443319328568 54.13048418052295  C 62.85672876494742 53.97277364324349  60.73018529852623 53.97277364324349  58.61248087018796 54.13048418052295  C 57.55147007551491 54.20997117397247  56.491487392077 54.30330428886158  55.431504708639096 54.40843224793999  C 55.27266152280868 54.46176545644806  55.179103400410185 54.38279128231112  55.1528865639139 54.170484086904  C 55.12564161618248 53.95971534943461  55.19246884646711 53.82689514747702  55.35182608791511 53.77407475828153  C 58.26703549517813 53.404332033913086  60.30937846380022 51.86946383136839  61.47525660445841 49.17254706652288  L 61.47525660445841 49.25152124065983  C 63.01228290100512 45.39153027488837  64.49738958017684 41.5294880318666  65.92903447512086 37.668471427469996  C 67.36615418423794 33.79255621486854  68.77128708493683 29.904912398362104  70.1442905392289 26.005934620830615  C 71.09786370982896 23.361838245180603  72.0257340995503 20.730049533032453  72.92738765277537 18.111594123011326  C 73.83891310946035 15.465089787398163  74.79329656127148 12.833469567333877  75.79016338704581 10.217766444504601  C 75.84259706003839 10.05930527691813  75.9495206284938 9.979818283468607  76.10784975870664 9.979818283468607  C 76.26720700015463 9.979818283468607  76.3731024573749 10.05930527691813  76.42605018598505 10.217766444504601  C 76.68825758417431 10.95102969472142  76.96677318473982 11.678387174754606  77.26139056454303 12.399299800209635  C 77.55468668714211 13.120668311261003  77.8330214431553 13.848001096068455  78.09621688748345 14.580833155914666  C 80.29012503883477 20.55846274597184  82.5571079041271 26.509148696187697  84.89665865237191 32.431560607427706  C 87.26042814321221 38.41994513989989  89.95512891400911 44.27301262597841  92.96835995952128 49.96382726583008  C 93.6042467584605 51.181773133201844  94.41234218928707 52.053565964583726  95.39367436323612 52.58228267585121  C 96.37397842595003 53.11048656780612  97.50130239529015 53.42792172229164  98.77359004878619 53.53356250068263  L 98.77359004878619 54.1679199903411  Z M 80.64130625009311 34  L 75.70997071070424 18.390055009740937  C 74.83063381725482 21.1216594939949  73.96922950095369 23.85897668394101  73.12581312115898 26.601830662045764  C 72.26677492325388 29.383374262572993  71.3520872734612 32.14750966585119  70.38229829016575 34  L 80.64130625009311 34  Z M 156.2419237598711 53.6956134034572  L 156.16378730599976 54.32843243517789  L 149.72215636217805 54.32843243517789  C 147.6011628840671 54.32843243517789  145.50741435368755 54.27663768460756  143.43988265980434 54.16997126759142  C 143.1216822325259 54.16997126759142  143.01475866407048 54.037663884946404  143.1216822325259 53.77356193896895  C 143.17411590551845 53.66792116057796  143.21369818807167 53.56228038218698  143.24042908018558 53.45663960379602  C 143.26833000506804 53.34700190092305  143.308148272761 53.2407313040314  143.35917592784514 53.13971726862306  L 143.83621954095398 51.711515483094495  C 143.99557678240197 51.23510634170993  144.07525540312594 50.786389443204534  144.07525540312594 50.362287871702875  C 144.07525540312594 47.34793595237185  143.92823549649972 44.37255830079672  143.6367659613352 41.43769337491522  C 143.34299607937467 38.48506571199943  143.01157472642748 35.53628687476982  142.64258239694678 32.59207305226452  C 142.45440602493593 30.99078500059289  142.25563352020163 29.390753869783595  142.04627788056075 27.79208428653835  C 141.8596756913813 26.39208756320155  141.71419795160782 24.765424703705463  141.60830249438757 22.91312134667524  C 139.60930584387734 26.74175341607774  137.6739641244743 30.603127851904475  135.80307240512266 34.4956583405525  C 133.94733162567996 38.3571877642617  132.09107679061972 42.27051193854122  130.23687817802974 46.237169321328814  C 129.60803889709052 47.5432075007197  128.98482638670166 48.851934461274155  128.36725789691255 50.1633139784228  C 127.75031685947694 51.475337857696914  127.12744646614834 52.784578882122325  126.4986657270305 54.0909970934545  C 126.44520394280279 54.19766351047063  126.3655253220788 54.24997108035354  126.2601439204761 54.24997108035354  C 126.15322035202065 54.24997108035354  126.0473248948004 54.19766351047063  125.94194349319767 54.0909970934545  C 123.50274958780832 50.70638963044245  121.3951215557543 47.25511565679533  119.6195734526532 43.73820081113827  C 117.85538196320371 40.24670565187336  116.17157967363674 36.71536064371981  114.56949106560468 33.14694354847347  C 113.80064586363397 31.473642244581164  113.04513164032996 29.794276994211806  112.30301984772028 28.109006621711313  C 111.56179526932767 26.43743538587631  110.77985601037916 24.78412817323516  109.95789812034695 23.150556688398673  C 109.80346877667088 24.433722353116806  109.64411036487789 25.71629287320661  109.479826396003 26.998239990668264  C 109.32046915455501 28.241826823668898  109.16214002434216 29.471567535229944  109.00278278289419 30.686949306038816  C 108.58193850623378 33.93392757161608  108.21074720543118 37.18711860151352  107.88933831522858 40.44538800507763  C 107.56869849363427 43.714740678142235  107.40932034887645 46.997838648539236  107.4117806465022 50.28280087825336  C 107.4117806465022 51.23459352239736  107.6503024530566 51.88279713349543  108.12786012178297 52.226386072922416  C 108.60541779050938 52.57151347028712  109.18784280522088 52.87561532264562  109.87719138838784 53.139204449310505  C 110.0884682472108 53.24535804701406  110.38045183799294 53.36381930821949  110.75159999388144 53.49510105223935  C 111.12223409415243 53.62894689282209  111.36075590070683 53.7202287304609  111.46767946916225 53.7730491196564  C 111.6275507662278 53.879202717359945  111.67895632798523 54.010997280692386  111.6275507662278 54.16945844827887  C 111.57408898200008 54.32791961586533  111.46767946916225 54.407406609314855  111.3093503389494 54.407406609314855  C 110.56653997155477 54.407406609314855  109.83812316145219 54.39561176512559  109.12255774178897 54.36791952224638  C 108.39283555471413 54.340794730719686  107.66362807526946 54.301301942826534  106.93525108901096 54.24945826104098  C 106.19371061859307 54.196791197473466  105.451299708344 54.15712704808009  104.70836215367972 54.13048418052297  C 103.96503773066749 54.104843214894096  103.22274141889042 54.09150991276709  102.4814732183485 54.09150991276709  L 100.89047108195648 54.09150991276709  C 100.41342746884769 54.09150991276709  99.88292207151115 54.14484312127515  99.29998300118207 54.25048389966613  C 99.14062575973408 54.303817108174194  99.03370219127866 54.2238172954121  98.98178257390366 54.01253573863014  C 98.92832078967594 53.80176700116075  98.98178257390366 53.66843397989058  99.14165387096922 53.616126410007666  C 99.56523569985033 53.51048563161668  99.88292207151116 53.45715242310861  100.09574109718685 53.45715242310861  C 100.60615671220211 53.368964266842255  101.11069860109293 53.24976841408741  101.60655055723728 53.100230181554615  C 102.0301323861184 52.96843561822217  102.42801143412076 52.61202619598076  102.79915959000932 52.02946345689263  C 102.9050550472296 51.86946383136843  103.04950467576793 51.18433722976478  103.23662092056493 49.96639136239302  C 103.42168094289163 48.750496772271575  103.63398591294975 47.203833725537585  103.87302177512173 45.325376583565905  C 104.11154358167613 43.44897071884452  104.37628222472684 41.31923211370983  104.66775175989136 38.93923768403729  C 104.96386428324533 36.508296336687266  105.24231838386248 34.07524672496278  105.50309213844936 31.640280408120553  C 105.76783078150004 29.155158019369594  106.03256942455074 26.709522717687104  106.29833617883658 24.301836045135357  C 106.56307482188726 21.89568783052134  106.80159662844169 19.687487870562272  107.0139015984998 17.677236165258147  C 107.22517845732277 15.932112044556636  107.38504975438833 14.38493617851007  107.49145926722618 13.036221386431029  C 107.59735472444645 11.687506594351989  107.70273612604916 10.722893467393558  107.80965969450457 10.140330728305425  C 107.80965969450457 9.981356741406374  107.87545881355406 9.890587723080143  108.0085992185058 9.862382660888377  C 108.14071151222235 9.8367416952595  108.25997241549955 9.875715963015393  108.36689598395498 9.981356741406374  C 109.00226872727661 10.66956025888549  109.90340822488412 12.031608353091544  111.07031447677744 14.066988204711969  C 112.23619261743562 16.103906514270125  113.49614293610988 18.470054822503087  114.8481092103299 21.16748440666116  C 116.27275398074256 24.013844891512367  117.67770140433329 26.869974524377803  119.0628512188204 29.735669481207406  C 120.41540439191347 32.532087713315555  121.75402174237017 35.335192674044  123.07865370330967 38.14488056885459  C 123.97979320091713 39.99718392588481  124.72157545707665 41.58384687899985  125.30554263864087 42.905382247512286  C 125.88899576458755 44.227943254649865  126.4189871063065 45.338709885692914  126.8965447750329 46.23716932132884  C 127.80249200767156 44.42033848885974  128.66413126387013 42.58185340631321  129.48070236457818 40.72333607249468  C 130.3551109700718 38.73975097144459  131.2166681851261 36.7700119918341  132.06537400974102 34.81309349503805  C 133.95851584611373 30.44567138322492  135.9203946913208 26.108222082013956  137.9502827197299 21.80235471563221  C 140.01730035799557 17.412621399968113  142.21745840121295 13.499297225688583  144.550756849382 10.060843734855895  C 144.65665230660233 9.955202956464912  144.762033708205 9.91571586939644  144.86895727666044 9.941356835025324  C 144.9748527338807 9.969049077904513  145.02831451810843 10.060843734855895  145.02831451810843 10.219304902442373  C 145.1342099753287 10.85366239210084  145.22725404210962 11.740326983547483  145.3069326628336 12.87724739953198  C 145.38661128355758 14.015706273454212  145.50587218683478 15.323908339839623  145.66471537266523 16.804417695251104  C 145.8240726141132 18.761849011359736  146.02249808249684 20.90389527999629  146.26101988905125 23.230556501160784  C 146.49954169560564 25.558243360950424  146.75091489259938 27.938750609935557  147.01668164688527 30.370539790178462  C 147.28142028993594 32.80386742835909  147.54615893298663 35.17052855590463  147.81192568727246 37.47103599212766  C 148.05095580171587 39.578579167973054  148.32927942632136 41.681502409421945  148.64675201021294 43.778713536831916  C 148.9377074897599 45.682811644432476  149.21581157886752 47.28280789967453  149.48209238877092 48.57767666393293  C 149.74683103182159 49.87459670544163  150.0115696748723 50.6807486648136  150.27733642915817 50.99715818067396  C 150.86027549948724 51.84433568505212  151.41699773332004 52.38638569844664  151.9475031306566 52.624333859482626  C 152.47646636114038 52.8627948398312  153.11338127131475 53.035102128857275  153.85619163870942 53.14074290724825  C 154.22682573898038 53.24689650495181  154.612367452161 53.313050196274325  155.00921838892825 53.33920398121578  C 155.40709743693066 53.3663834047824  155.81731381975482 53.484844665987815  156.2419237598711 53.6956134034572  Z M 182.29837490346966 46.79255263685034  C 182.04413288108162 47.96099360671226  181.83305605134794 49.138367880463626  181.6655724382359 50.322287965321806  C 181.5009214637176 51.498295173310886  181.34173386513373 52.675057189403226  181.18801476950952 53.852536113105884  C 181.18801476950952 54.012022919317516  181.08109120105408 54.09099709345446  180.8698143422311 54.09099709345446  L 180.79116383274226 54.16997126759141  C 180.3660398370084 54.328432435177874  180.02213662885134 54.40791942862741  179.75739798580062 54.40791942862741  C 178.53702994967958 54.40791942862741  177.30483863435433 54.3966374037507  176.05928187297212 54.36843234155892  C 174.8269265587751 54.3419173829219  173.59432170798522 54.32858331455176  172.36167981576128 54.328432435177874  C 171.3011830767058 54.328432435177874  170.26690317414662 54.31663759098859  169.2598682193188 54.28997098673454  C 168.22632988141712 54.26271730646714  167.19246985001305 54.249382789568024  166.15857067849396 54.249971080353504  C 164.72692578354997 54.249971080353504  163.28140138693144 54.26279156316795  161.82405371110872 54.289970986734566  C 160.36516386843323 54.31663759098859  158.92169569428503 54.35663749736964  157.49005079934102 54.40791942862741  L 157.49005079934102 53.77356193896894  C 158.28529483972827 53.77356193896894  158.93351897348927 53.602280288568025  159.43832158994707 53.25715289120331  C 159.92947783084406 52.92753725042037  160.3267114722918 52.476666895882616  160.5913483401659 51.94843800550532  C 160.85608698321656 51.42023411355041  161.0288096707215 50.82485089164784  161.1084882914455 50.163313978422764  C 161.18765285655192 49.503315523135406  161.22723513910512 48.82844530778331  161 48.141267428929346  L 161 15.137242110061344  C 161.22723513910512 14.079808687526372  160.97534788649378 13.392630808672411  160.4715733812711 13.075195654186883  C 159.95831904310504 12.753180140735184  159.41181544076875 12.487204806455496  158.84150301794347 12.28186417762937  L 157.76764083283106 11.924429116762795  C 157.37027584044625 11.793147372742933  156.95903134638692 11.594173479462833  156.53544951750584 11.329558714172801  C 156.4285259490504 11.223917935781818  156.3889436664972 11.104943855263818  156.4167026698462 10.972636472618806  C 156.4424054507249 10.841354728598944  156.53544951750584 10.774175398651282  156.6948067589538 11  L 179.3595189377982 11  C 179.5780050742462 10.665762863112084  179.80389497252284 10.57288234993324  180.0355020749082 10.496227331234229  C 180.2740238814626 10.416740337784704  180.49815213072492 10.325458500145897  180.71097115640066 10.218279263817179  C 180.97622385506892 10.113151304738777  181.1083361487855 10.218279263817179  181.1083361487855 10.535714418302705  C 180.96241647566143 11.82587351104749  180.76348090262272 13.109514774151744  180.51203163239944 14.383397720572301  C 180.27350982584505 15.573138525752292  180.02110851761614 16.776725452371878  179.75636987456542 17.993132861805897  C 179.70290809033776 18.152106848704953  179.5836471870605 18.218260540027458  179.3985871647338 18.191593935773426  C 179.21249903117194 18.165440150831966  179.11996902000863 18.073132674568  179.11996902000863 17.913645868356372  C 179.01304545155318 16.062880969263883  178.37715865261399 14.84749919845501  177.21179456757338 14.263910820741724  C 176.04437426006248 13.682373720278747  174.61272936511847 13.391605170047258  172.9173739383589 13.391605170047258  L 166 13.391605170047258  L 166 29.655669668445277  L 175.8593142377358 29.655669668445277  C 176.12456693640408 29.655669668445277  176.46847014456117 29.57669549430833  176.893594140295 29.41720868809669  C 177.31666191355853 29.258234701197644  177.74024374243962 29.100286352923753  178.16588179379104 28.9413123660247  C 178.7193221708373 28.63609873258256  179.30657576828932 28.396358173582872  179.91572711601344 28.226955063604123  C 180.18046575906413 28.12182710452572  180.31309210839828 28.226955063604123  180.31309210839828 28.543877398777067  C 180.2596303241706 29.17823488843554  180.19434526073866 29.866951225227226  180.11363852877955 30.606436673964105  C 180.04123522451602 31.296554160614907  179.94832162694715 31.984376565884666  179.83502038405436 32.66899594915115  C 179.72574722513264 33.32628978999992  179.64615955996217 33.9881534121987  179.59649857749994 34.65258105020123  C 179.5457602680244 35.316733639619244  179.46617825625583 35.978379146765874  179.35797677094553 36.63565333193874  C 179.35797677094553 36.7946273188378  179.2911495406609 36.90129373585393  179.15955130256188 36.953088486424264  C 179.0264108976102 37.006421694932335  178.90714999433303 36.98026790999088  178.8017685927303 36.87360149297474  C 178.5354877828269 36.60949954699729  178.3643072621747 36.34591042033241  178.2846286414507 36.08027001641722  C 178.19648170800318 35.78802027851473  178.10359681724148 35.49721360777377  178.0060104967255 35.20796436572276  C 177.8990869282701 34.891042030549805  177.79319147104982 34.57360687606429  177.6878100694471 34.25617172157877  C 177.58088650099165 33.938736567093244  177.395826478665 33.648480836174336  177.13108783561427 33.38386607088431  C 176.86480702571086 33.11976412490686  176.37542607778025 32.921815870251905  175.65986065811705 32.78848284898172  C 174.89605247503366 32.65012009730155  174.12666608069514 32.54438285716478  173.3538071576794 32.47156051380879  C 172.54756432758325 32.393363317916304  171.73802269936334 32.353830711268785  170.92797869834698 32.35309925260337  L 166 32.35309925260337  L 166 48.696137925138316  C 167.50796667462615 49.86075058400201  168.63323442149598 50.7463895368235  170.0921242641714 51.35408042222794  C 171.5499859956117 51.9633097655701  172.96775138888123 52.26638597930345  174.34644855521512 52.26638597930345  C 176.20218933465782 52.26638597930345  177.77879791375773 51.77766917441701  179.07833051498517 50.79869710670641  C 180.37683500497747 49.82075067762097  181.2378781644142 48.432548798473455  181.66300216014804 46.633578649951296  L 182.29837490346966 46.79255263685034  Z M 230.9784137765069 22.098251458989445  L 230.15849506647604 26.512087282344694  C 230.12713767380401 26.603369119983498  230.0597963879018 26.641830568426823  229.95287281944638 26.625933169736903  C 229.84646330660854 26.611574228984733  229.79402963361593 26.557728201164092  229.79402963361593 26.466446363525275  C 229.79402963361593 25.46491024606126  229.5205520450665 24.75978369126708  228.97256875673244 24.350041060517594  C 228.42509952401596 23.940811249080692  227.66429721000625 23.73568352404965  226.69118992593837 23.73568352404965  C 226.26452376335183 23.73568352404965  225.86201821479122 23.758760393115658  225.4811030021688 23.804401311935052  C 225.1012159007815 23.849529411441875  224.69819629660338 23.902349800637378  224.27204418963439 23.96337529883411  C 223.96772326403055 24.024913616343422  223.63358711260733 24.07055453516282  223.26860762412966 24.100810874604896  C 222.90362813565207 24.13158003335956  222.56846387299365 24.146451793424305  222.26465700300736 24.146451793424305  L 222.26465700300736 33.06694373571134  L 228.42304330154576 33.06694373571134  C 228.63586232722142 33.06694373571134  228.87952468995158 32.97566189807253  229.15300227850102 32.79412386142006  C 229.4264798670505 32.61207300545503  229.63981294834377 32.42950933017741  229.7919734111457 32.24848411283751  C 229.85211791840192 32.187971433953365  229.9210013711568 32.17258685457604  229.99656754694024 32.20233037470553  C 230.0726477783412 32.23361235277277  230.1112019496593 32.29361221234434  230.1112019496593 32.38438123067057  C 229.99586353963812 34.01886869925801  229.78266409568937 35.645014344628954  229.47274487263218 37.25411342290729  C 229.44138747996016 37.3453952605461  229.37404619405794 37.383343889676844  229.2676366812201 37.36795931029951  C 229.16071311276463 37.35360036954734  229.10776538415453 37.299241522414114  229.10776538415453 37.20847250408789  C 229.13758060997384 36.20693638662386  228.8862074129801 35.517194411207015  228.35518796002597 35.13770811989961  C 227.82262634021916 34.758734647904774  227.069534860473 34.56950432156364  226.09591352078758 34.56950432156364  L 222.26362889177227 34.56950432156364  L 222.26362889177227 43.67204711981572  C 222.26362889177227 44.03512319312064  222.33919506755566 44.414609484428055  222.49186958597517 44.80999317442537  C 222.6435159931596 45.20435122579753  222.85684907445284 45.55306835835029  223.13084071861988 45.85665739139622  C 223.40483236278692 46.16024642444214  223.7230327900653 46.40178432066619  224.08852633416052 46.584860815256384  C 224.45350582263814 46.76639885190885  224.84881459255266 46.85768068954765  225.2744526439041 46.85768068954765  L 225.2744526439041 47.22178240147774  L 224.95522410539056 47.22178240147774  C 224.6200598427322 47.22178240147774  224.30083130421863 47.206397822100406  223.99702443423234 47.17665430197091  C 223.69270350862848 47.14639796252884  223.37296091449733 47.11665444239934  223.03985287430925 47.08485964501951  C 222.72089036892535 47.056507352127404  222.40143774344494 47.0339395768959  222.08165320315103 47.017167495759274  C 221.77733227754717 47.001782916381956  221.47249729632568 46.99409062669328  221.16920448195697 46.99409062669328  C 220.86591166758822 46.99409062669328  220.56056263074913 47.00947520607061  220.25778387199796 47.039731545512694  L 219.34533515080386 47.13050056383893  C 218.64763710164218 47.19020660035085  217.9477336439181 47.22066070314528  217.24747417548375 47.22178240147774  L 216.97348253131668 47.22178240147774  C 216.88198063138853 47.22178240147774  216.82903290277835 47.16844919296967  216.81361123425114 47.06178277595353  C 216.7976755101064 46.955629178249964  216.83622968142438 46.88793702898973  216.92773158135262 46.85768068954765  C 217.47468675845153 46.76588603259626  217.90135292103804 46.65306578382919  218.20464573540679 46.51614302737099  C 218.5079385497755 46.379220270912775  218.72949652095 46.197682234260306  218.8662353152247 45.969990459475866  C 219.003488165117 45.742811504003996  219.0790543409004 45.455119869647966  219.09447600942767 45.10486427915748  C 219.10886956671973 44.75614714660472  219.11658040098334 44.308455886724495  219 43.76281613814195  L 219 24.737732460826265  C 219.11658040098334 24.039785376408165  218.97932755109105 23.607478695905275  218.70636401815915 23.440299600004973  C 218.40861070592734 23.26424998432929  218.08591549528015 23.134064644210703  217.74919245823605 23.05414665763405  C 217.5610430321064 22.980679174976707  217.3709449312839 22.912278484468928  217.1791047783463 22.849018932603023  C 216.9303935756133 22.76440868273497  216.6930150553347 22.649707680678212  216.47227830418188 22.507481270426354  C 216.38129045987128 22.4469685915422  216.34993306719923 22.378763622969373  216.38129045987128 22.302866364707896  C 216.41110568569053 22.227994745071566  216.47227830418188 22.189020477315673  216.56326614849252 22.189020477315673  C 218.4801795464265 22.27978949564191  220.4099443347999 22.325943233773888  222.35718701417076 22.325943233773888  L 225.59625146050547 22.325943233773888  C 225.74789786768991 22.325943233773888  225.90725510913788 22.33363552346255  226.07535129608462 22.34902010283988  C 226.24190531617865 22.36389186290463  226.41719828177148 22.371584152593293  226.60020208162783 22.371584152593293  C 227.29828961029355 22.402353311347944  228.02156586422035 22.402353311347944  228.76643245408533 22.371584152593293  C 229.51181309956786 22.341327813151217  230.15798101085858 22.174661536563498  230.70493618795746 21.870559684204995  C 230.7655947508312 21.80953418600826  230.833450092351 21.80953418600826  230.91055843498714 21.870559684204995  C 230.98561055515293 21.93158518240173  231.00874305794378 22.007482440663217  230.9784137765069 22.098251458989445  Z " fill-rule="nonzero" fill="#ffffff" stroke="none" transform="matrix(1 0 0 1 425 1113 )" />
  </g>
</svg>