<?xml version="1.0" encoding="utf-8"?>
<svg version="1.1" xmlns:xlink="http://www.w3.org/1999/xlink" width="6px" height="6px" xmlns="http://www.w3.org/2000/svg">
  <defs>
    <mask fill="white" id="clip309">
      <path d="M 5.603999999999985 3.921000000000049  C 5.6214999999999975 3.806500000000028  5.630500000000012 2.815499999999986  5.630500000000012 2.6990000000000123  C 5.630000000000024 1.742999999999995  5.013500000000022 0.8670000000000186  4.113500000000016 0.5450000000000159  C 3.214000000000027 0.2230000000000132  1.3055000000000234 0.5085000000000264  0.6990000000000123 1.247000000000014  C 0.09250000000000114 1.9855000000000018  0.013500000000021828 3.9295000000000186  0.5045000000000073 4.749500000000012  C 0.9955000000000211 5.569500000000005  2.8499999999999943 6.004500000000007  3.7874999999999943 5.818500000000029  C 4.721499999999992 5.633500000000026  5.459499999999991 4.862000000000023  5.603999999999985 3.921000000000049  Z " fill-rule="evenodd" />
    </mask>
  </defs>
  <g transform="matrix(1 0 0 1 -337 -11285 )">
    <path d="M 5.603999999999985 3.921000000000049  C 5.6214999999999975 3.806500000000028  5.630500000000012 2.815499999999986  5.630500000000012 2.6990000000000123  C 5.630000000000024 1.742999999999995  5.013500000000022 0.8670000000000186  4.113500000000016 0.5450000000000159  C 3.214000000000027 0.2230000000000132  1.3055000000000234 0.5085000000000264  0.6990000000000123 1.247000000000014  C 0.09250000000000114 1.9855000000000018  0.013500000000021828 3.9295000000000186  0.5045000000000073 4.749500000000012  C 0.9955000000000211 5.569500000000005  2.8499999999999943 6.004500000000007  3.7874999999999943 5.818500000000029  C 4.721499999999992 5.633500000000026  5.459499999999991 4.862000000000023  5.603999999999985 3.921000000000049  Z " fill-rule="nonzero" fill="#ffffff" stroke="none" fill-opacity="0" transform="matrix(1 0 0 1 337 11285 )" />
    <path d="M 5.603999999999985 3.921000000000049  C 5.6214999999999975 3.806500000000028  5.630500000000012 2.815499999999986  5.630500000000012 2.6990000000000123  C 5.630000000000024 1.742999999999995  5.013500000000022 0.8670000000000186  4.113500000000016 0.5450000000000159  C 3.214000000000027 0.2230000000000132  1.3055000000000234 0.5085000000000264  0.6990000000000123 1.247000000000014  C 0.09250000000000114 1.9855000000000018  0.013500000000021828 3.9295000000000186  0.5045000000000073 4.749500000000012  C 0.9955000000000211 5.569500000000005  2.8499999999999943 6.004500000000007  3.7874999999999943 5.818500000000029  C 4.721499999999992 5.633500000000026  5.459499999999991 4.862000000000023  5.603999999999985 3.921000000000049  Z " stroke-width="4" stroke="#ffffff" fill="none" transform="matrix(1 0 0 1 337 11285 )" mask="url(#clip309)" />
  </g>
</svg>