<?xml version="1.0" encoding="utf-8"?>
<svg version="1.1" xmlns:xlink="http://www.w3.org/1999/xlink" width="10px" height="8px" xmlns="http://www.w3.org/2000/svg">
  <defs>
    <mask fill="white" id="clip310">
      <path d="M 5.4900000000000055 0.6354999999999222  C 5.336315789473689 0.7024999999999864  3.9205263157894805 0.8534999999999968  3.8473684210526327 0.992999999999995  C 2.752105263157902 1.6000000000000227  1.6505263157894714 2.3704999999999927  0.8478947368420999 3.312000000000012  C 0.44368421052631013 3.7864999999999895  0.11789473684209975 5.232500000000016  0.25315789473683925 5.858499999999992  C 0.43842105263157816 6.716499999999996  1.36578947368421 7.693499999999972  2.360526315789466 7.553999999999974  C 3.2926315789473537 7.42349999999999  5.122631578947355 6.704999999999984  5.893157894736829 6.265999999999963  C 6.981578947368414 5.645999999999958  8.186315789473671 4.186999999999955  9.052631578947363 3.283999999999935  C 9.717894736842105 2.590499999999963  10.103684210526318 1.475499999999954  9.483157894736841 0.6334999999999127  C 8.662105263157894 -0.47950000000008686  6.50789473684211 0.19349999999991496  5.4900000000000055 0.6354999999999222  Z " fill-rule="evenodd" />
    </mask>
  </defs>
  <g transform="matrix(1 0 0 1 -302 -11212 )">
    <path d="M 5.4900000000000055 0.6354999999999222  C 5.336315789473689 0.7024999999999864  3.9205263157894805 0.8534999999999968  3.8473684210526327 0.992999999999995  C 2.752105263157902 1.6000000000000227  1.6505263157894714 2.3704999999999927  0.8478947368420999 3.312000000000012  C 0.44368421052631013 3.7864999999999895  0.11789473684209975 5.232500000000016  0.25315789473683925 5.858499999999992  C 0.43842105263157816 6.716499999999996  1.36578947368421 7.693499999999972  2.360526315789466 7.553999999999974  C 3.2926315789473537 7.42349999999999  5.122631578947355 6.704999999999984  5.893157894736829 6.265999999999963  C 6.981578947368414 5.645999999999958  8.186315789473671 4.186999999999955  9.052631578947363 3.283999999999935  C 9.717894736842105 2.590499999999963  10.103684210526318 1.475499999999954  9.483157894736841 0.6334999999999127  C 8.662105263157894 -0.47950000000008686  6.50789473684211 0.19349999999991496  5.4900000000000055 0.6354999999999222  Z " fill-rule="nonzero" fill="#ffffff" stroke="none" fill-opacity="0" transform="matrix(1 0 0 1 302 11212 )" />
    <path d="M 5.4900000000000055 0.6354999999999222  C 5.336315789473689 0.7024999999999864  3.9205263157894805 0.8534999999999968  3.8473684210526327 0.992999999999995  C 2.752105263157902 1.6000000000000227  1.6505263157894714 2.3704999999999927  0.8478947368420999 3.312000000000012  C 0.44368421052631013 3.7864999999999895  0.11789473684209975 5.232500000000016  0.25315789473683925 5.858499999999992  C 0.43842105263157816 6.716499999999996  1.36578947368421 7.693499999999972  2.360526315789466 7.553999999999974  C 3.2926315789473537 7.42349999999999  5.122631578947355 6.704999999999984  5.893157894736829 6.265999999999963  C 6.981578947368414 5.645999999999958  8.186315789473671 4.186999999999955  9.052631578947363 3.283999999999935  C 9.717894736842105 2.590499999999963  10.103684210526318 1.475499999999954  9.483157894736841 0.6334999999999127  C 8.662105263157894 -0.47950000000008686  6.50789473684211 0.19349999999991496  5.4900000000000055 0.6354999999999222  Z " stroke-width="4" stroke="#ffffff" fill="none" transform="matrix(1 0 0 1 302 11212 )" mask="url(#clip310)" />
  </g>
</svg>