<?xml version="1.0" encoding="utf-8"?>
<svg version="1.1" xmlns:xlink="http://www.w3.org/1999/xlink" width="17px" height="14px" xmlns="http://www.w3.org/2000/svg">
  <defs>
    <mask fill="white" id="clip422">
      <path d="M 9.33300000000001 1.112124999999864  C 9.07173684210527 1.2293749999999761  6.6648947368421165 1.4936249999999944  6.540526315789475 1.7377499999999912  C 4.678578947368433 2.80000000000004  2.8058947368421014 4.148374999999987  1.44142105263157 5.796000000000021  C 0.7542631578947273 6.626374999999982  0.20042105263156956 9.156875000000028  0.4303684210526267 10.252374999999986  C 0.7453157894736828 11.753874999999994  2.321842105263157 13.46362499999995  4.012894736842092 13.219499999999954  C 5.5974736842105015 12.991124999999982  8.708473684210505 11.733749999999972  10.01836842105261 10.965499999999935  C 11.868684210526304 9.880499999999927  13.916736842105239 7.327249999999921  15.389473684210516 5.746999999999886  C 16.520421052631576 4.5333749999999355  17.17626315789474 2.5821249999999196  16.121368421052633 1.1086249999998472  C 14.72557894736842 -0.839125000000152  11.063421052631588 0.3386249999998512  9.33300000000001 1.112124999999864  Z " fill-rule="evenodd" />
    </mask>
  </defs>
  <g transform="matrix(1 0 0 1 -530 -18024 )">
    <path d="M 9.33300000000001 1.112124999999864  C 9.07173684210527 1.2293749999999761  6.6648947368421165 1.4936249999999944  6.540526315789475 1.7377499999999912  C 4.678578947368433 2.80000000000004  2.8058947368421014 4.148374999999987  1.44142105263157 5.796000000000021  C 0.7542631578947273 6.626374999999982  0.20042105263156956 9.156875000000028  0.4303684210526267 10.252374999999986  C 0.7453157894736828 11.753874999999994  2.321842105263157 13.46362499999995  4.012894736842092 13.219499999999954  C 5.5974736842105015 12.991124999999982  8.708473684210505 11.733749999999972  10.01836842105261 10.965499999999935  C 11.868684210526304 9.880499999999927  13.916736842105239 7.327249999999921  15.389473684210516 5.746999999999886  C 16.520421052631576 4.5333749999999355  17.17626315789474 2.5821249999999196  16.121368421052633 1.1086249999998472  C 14.72557894736842 -0.839125000000152  11.063421052631588 0.3386249999998512  9.33300000000001 1.112124999999864  Z " fill-rule="nonzero" fill="#ffffff" stroke="none" fill-opacity="0" transform="matrix(1 0 0 1 530 18024 )" />
    <path d="M 9.33300000000001 1.112124999999864  C 9.07173684210527 1.2293749999999761  6.6648947368421165 1.4936249999999944  6.540526315789475 1.7377499999999912  C 4.678578947368433 2.80000000000004  2.8058947368421014 4.148374999999987  1.44142105263157 5.796000000000021  C 0.7542631578947273 6.626374999999982  0.20042105263156956 9.156875000000028  0.4303684210526267 10.252374999999986  C 0.7453157894736828 11.753874999999994  2.321842105263157 13.46362499999995  4.012894736842092 13.219499999999954  C 5.5974736842105015 12.991124999999982  8.708473684210505 11.733749999999972  10.01836842105261 10.965499999999935  C 11.868684210526304 9.880499999999927  13.916736842105239 7.327249999999921  15.389473684210516 5.746999999999886  C 16.520421052631576 4.5333749999999355  17.17626315789474 2.5821249999999196  16.121368421052633 1.1086249999998472  C 14.72557894736842 -0.839125000000152  11.063421052631588 0.3386249999998512  9.33300000000001 1.112124999999864  Z " stroke-width="2" stroke="#ffffff" fill="none" transform="matrix(1 0 0 1 530 18024 )" mask="url(#clip422)" />
  </g>
</svg>