<?xml version="1.0" encoding="utf-8"?>
<svg version="1.1" xmlns:xlink="http://www.w3.org/1999/xlink" width="10px" height="37px" xmlns="http://www.w3.org/2000/svg">
  <g transform="matrix(1 0 0 1 -605 -18126 )">
    <path d="M 0.1224000000000217 4.589100000000042  C 0.771300000000025 10.325700000000063  1.4283000000000412 16.062300000000082  2.3067000000000406 21.769200000000094  C 2.7351000000000396 24.5511000000001  3.2022000000000443 27.33660000000012  3.8583000000000314 30.07530000000013  C 4.199400000000048 31.498200000000143  4.527900000000057 33.82290000000012  5.683500000000049 34.89840000000016  C 6.354900000000032 35.52300000000013  6.91920000000004 34.899300000000146  7.215300000000048 34.229700000000115  C 8.012700000000068 32.421600000000105  7.992900000000026 30.163500000000088  8.064000000000034 28.229400000000087  C 8.167500000000041 25.415100000000134  8.119800000000042 22.595400000000097  8.047800000000057 19.781100000000038  C 7.889400000000069 13.619700000000035  7.485300000000058 7.469100000000083  7.137000000000057 1.3167000000000713  C 7.1190000000000735 0.9927000000000589  7.100100000000061 0.6696000000000254  7.082100000000076 0.3456000000001154  " stroke-width="1" stroke="#ffffff" fill="none" transform="matrix(1 0 0 1 605 18126 )" />
  </g>
</svg>