<?xml version="1.0" encoding="utf-8"?>
<svg version="1.1" xmlns:xlink="http://www.w3.org/1999/xlink" width="8px" height="23px" xmlns="http://www.w3.org/2000/svg">
  <g transform="matrix(1 0 0 1 -344 -11270 )">
    <path d="M 0.06800000000001205 2.549500000000023  C 0.42850000000001387 5.736500000000035  0.793500000000023 8.923500000000047  1.2815000000000225 12.094000000000051  C 1.519500000000022 13.639500000000055  1.7790000000000248 15.187000000000069  2.1435000000000173 16.708500000000072  C 2.333000000000027 17.49900000000008  2.5155000000000314 18.790500000000065  3.1575000000000273 19.38800000000009  C 3.5305000000000177 19.73500000000007  3.8440000000000225 19.38850000000008  4.008500000000026 19.016500000000065  C 4.451500000000038 18.012000000000057  4.440500000000014 16.75750000000005  4.480000000000018 15.68300000000005  C 4.537500000000023 14.119500000000073  4.511000000000024 12.553000000000054  4.471000000000032 10.989500000000021  C 4.383000000000038 7.566500000000019  4.158500000000032 4.149500000000046  3.965000000000032 0.7315000000000396  C 3.955000000000041 0.5515000000000327  3.9445000000000334 0.3720000000000141  3.9345000000000425 0.19200000000006412  " stroke-width="2" stroke="#ffffff" fill="none" transform="matrix(1 0 0 1 345 11271 )" />
  </g>
</svg>