<?xml version="1.0" encoding="utf-8"?>
<svg version="1.1" xmlns:xlink="http://www.w3.org/1999/xlink" width="11px" height="11px" xmlns="http://www.w3.org/2000/svg">
  <defs>
    <mask fill="white" id="clip421">
      <path d="M 10.273999999999972 7.18850000000009  C 10.30608333333333 6.978583333333385  10.322583333333355 5.161749999999975  10.322583333333355 4.948166666666689  C 10.321666666666712 3.1954999999999907  9.191416666666708 1.589500000000034  7.541416666666696 0.9991666666666958  C 5.892333333333383 0.40883333333335753  2.3934166666667096 0.9322500000000483  1.2815000000000225 2.286166666666692  C 0.16958333333333542 3.6400833333333367  0.024750000000040018 7.204083333333368  0.92491666666668 8.707416666666688  C 1.825083333333372 10.210750000000008  5.224999999999989 11.008250000000013  6.94374999999999 10.667250000000053  C 8.656083333333317 10.328083333333382  10.009083333333319 8.91366666666671  10.273999999999972 7.18850000000009  Z " fill-rule="evenodd" />
    </mask>
  </defs>
  <g transform="matrix(1 0 0 1 -591 -18152 )">
    <path d="M 10.273999999999972 7.18850000000009  C 10.30608333333333 6.978583333333385  10.322583333333355 5.161749999999975  10.322583333333355 4.948166666666689  C 10.321666666666712 3.1954999999999907  9.191416666666708 1.589500000000034  7.541416666666696 0.9991666666666958  C 5.892333333333383 0.40883333333335753  2.3934166666667096 0.9322500000000483  1.2815000000000225 2.286166666666692  C 0.16958333333333542 3.6400833333333367  0.024750000000040018 7.204083333333368  0.92491666666668 8.707416666666688  C 1.825083333333372 10.210750000000008  5.224999999999989 11.008250000000013  6.94374999999999 10.667250000000053  C 8.656083333333317 10.328083333333382  10.009083333333319 8.91366666666671  10.273999999999972 7.18850000000009  Z " fill-rule="nonzero" fill="#ffffff" stroke="none" fill-opacity="0" transform="matrix(1 0 0 1 591 18152 )" />
    <path d="M 10.273999999999972 7.18850000000009  C 10.30608333333333 6.978583333333385  10.322583333333355 5.161749999999975  10.322583333333355 4.948166666666689  C 10.321666666666712 3.1954999999999907  9.191416666666708 1.589500000000034  7.541416666666696 0.9991666666666958  C 5.892333333333383 0.40883333333335753  2.3934166666667096 0.9322500000000483  1.2815000000000225 2.286166666666692  C 0.16958333333333542 3.6400833333333367  0.024750000000040018 7.204083333333368  0.92491666666668 8.707416666666688  C 1.825083333333372 10.210750000000008  5.224999999999989 11.008250000000013  6.94374999999999 10.667250000000053  C 8.656083333333317 10.328083333333382  10.009083333333319 8.91366666666671  10.273999999999972 7.18850000000009  Z " stroke-width="2" stroke="#ffffff" fill="none" transform="matrix(1 0 0 1 591 18152 )" mask="url(#clip421)" />
  </g>
</svg>