<?xml version="1.0" encoding="utf-8"?>
<svg version="1.1" xmlns:xlink="http://www.w3.org/1999/xlink" width="19px" height="15px" xmlns="http://www.w3.org/2000/svg">
  <g transform="matrix(1 0 0 1 -303 -11224 )">
    <path d="M 13.719741935483867 0.09234782608696743  C 10.990967741935478 1.9033043478260998  8.27870967741935 3.757043478260881  5.731612903225801 5.824695652173906  C 4.517161290322571 6.810260869565216  3.3460645161290343 7.852695652173877  2.250838709677414 8.97286956521738  C 1.635096774193537 9.603130434782582  0.7390967741935421 10.372695652173899  0.47329032258064596 11.258608695652148  C 0.32000000000000234 11.769391304347822  0.7019354838709748 11.92956521739125  1.1587096774193573 11.938434782608669  C 1.9287741935483844 11.953043478260852  2.6905806451612873 11.616521739130429  3.347612903225801 11.243999999999964  C 4.579612903225802 10.54539130434776  5.666580645161282 9.60052173913041  6.765419354838712 8.711478260869507  C 9.371870967741943 6.601565217391255  11.958193548387102 4.459826086956463  14.726193548387103 2.565913043478205  C 15.072 2.3290434782608394  15.42141935483872 2.0979130434781794  15.771354838709685 1.867304347826002  " stroke-width="2" stroke="#ffffff" fill="none" transform="matrix(1 0 0 1 304 11225 )" />
  </g>
</svg>