<?xml version="1.0" encoding="utf-8"?>
<svg version="1.1" xmlns:xlink="http://www.w3.org/1999/xlink" width="29px" height="22px" xmlns="http://www.w3.org/2000/svg">
  <g transform="matrix(1 0 0 1 -533 -18046 )">
    <path d="M 24.009548387096768 0.161608695652193  C 19.234193548387086 3.3307826086956744  14.487741935483863 6.574826086956541  10.030322580645151 10.193217391304335  C 7.9050322580645 11.917956521739129  5.85561290322581 13.742217391304285  3.9389677419354747 15.702521739130415  C 2.8614193548386897 16.805478260869517  1.2934193548386987 18.152217391304323  0.8282580645161304 19.70256521739126  C 0.560000000000004 20.59643478260869  1.2283870967742059 20.876739130434686  2.027741935483875 20.89226086956517  C 3.3753548387096726 20.91782608695649  4.708516129032253 20.32891304347825  5.858322580645152 19.676999999999936  C 8.014322580645153 18.45443478260858  9.916516129032244 16.800913043478218  11.839483870967745 15.245086956521638  C 16.4007741935484 11.552739130434697  20.92683870967743 7.804695652173811  25.77083870967743 4.490347826086859  C 26.375999999999998 4.075826086956469  26.98748387096776 3.6713478260868144  27.59987096774195 3.2677826086955037  " stroke-width="1" stroke="#ffffff" fill="none" transform="matrix(1 0 0 1 533 18046 )" />
  </g>
</svg>