<?xml version="1.0" encoding="utf-8"?>
<svg version="1.1" xmlns:xlink="http://www.w3.org/1999/xlink" width="29px" height="15px" xmlns="http://www.w3.org/2000/svg">
  <g transform="matrix(1 0 0 1 -705 -17998 )">
    <path d="M 0.14722580645162278 4.140500000000024  C 2.889419354838721 4.630500000000026  5.6397419354838965 5.110000000000028  8.333161290322579 5.819625000000009  C 10.950709677419376 6.509125000000019  13.475225806451597 7.500500000000002  15.940129032258087 8.591625000000015  C 18.508903225806467 9.728249999999996  20.974709677419387 11.031125000000024  23.41070967741939 12.412750000000031  C 24.181161290322624 12.850250000000031  25.340903225806485 13.70425000000003  26.32180645161295 13.618500000000019  C 27.26387096774199 13.536250000000024  27.327096774193596 12.39175000000003  27.151870967741967 11.694375000000008  C 26.85651612903229 10.512250000000009  25.817806451612956 9.629374999999996  24.845935483871003 8.941624999999995  C 22.87419354838714 7.543374999999983  20.5881290322581 6.526625000000003  18.37522580645166 5.546624999999999  C 13.60980645161294 3.4361250000000183  8.530967741935529 1.5347500000000167  3.2913548387097338 0.9633749999999992  C 2.63200000000004 0.8916250000000048  1.9708387096774855 0.8408750000000111  1.3087741935484496 0.8067500000000223  " stroke-width="1" stroke="#ffffff" fill="none" transform="matrix(1 0 0 1 705 17998 )" />
  </g>
</svg>