<?xml version="1.0" encoding="utf-8"?>
<svg version="1.1" xmlns:xlink="http://www.w3.org/1999/xlink" width="19px" height="11px" xmlns="http://www.w3.org/2000/svg">
  <g transform="matrix(1 0 0 1 -401 -11196 )">
    <path d="M 0.08412903225807015 2.366000000000014  C 1.6510967741935547 2.646000000000015  3.2227096774193695 2.920000000000016  4.761806451612903 3.3255000000000052  C 6.2575483870967865 3.7195000000000107  7.700129032258055 4.286000000000001  9.108645161290335 4.909500000000008  C 10.576516129032267 5.5589999999999975  11.985548387096793 6.303500000000014  13.377548387096795 7.093000000000018  C 13.817806451612928 7.343000000000018  14.480516129032278 7.831000000000017  15.041032258064543 7.782000000000011  C 15.579354838709708 7.735000000000014  15.615483870967768 7.081000000000017  15.515354838709696 6.6825000000000045  C 15.346580645161309 6.007000000000005  14.753032258064547 5.502499999999998  14.197677419354859 5.109499999999997  C 13.070967741935508 4.3104999999999905  11.764645161290343 3.7295000000000016  10.50012903225809 3.1694999999999993  C 7.777032258064537 1.9635000000000105  4.874838709677445 0.8770000000000095  1.8807741935484192 0.5504999999999995  C 1.5040000000000229 0.5095000000000027  1.1261935483871346 0.48050000000000637  0.7478709677419711 0.46100000000001273  " stroke-width="2" stroke="#ffffff" fill="none" transform="matrix(1 0 0 1 402 11197 )" />
  </g>
</svg>