<?xml version="1.0" encoding="utf-8"?>
<svg version="1.1" xmlns:xlink="http://www.w3.org/1999/xlink" width="14px" height="15px" xmlns="http://www.w3.org/2000/svg">
  <defs>
    <mask fill="white" id="clip423">
      <path d="M 13.653499999999937 8.971764705882357  C 13.700750000000014 8.662941176470575  13.723499999999973 6.8064705882352925  13.724374999999952 6.49499999999999  C 13.719999999999956 3.9273529411764394  12.083749999999952 1.5758823529411776  9.684499999999936 0.7102941176470647  C 7.287874999999957 -0.1544117647058924  3.0056249999999523 0.6123529411764854  1.390374999999949 2.5958823529411825  C -0.22487500000005411 4.579411764705881  -0.4357500000000414 8.994705882352957  0.8723749999999626 11.196176470588256  C 2.1796249999999873 13.397647058823551  6.320124999999962 14.565882352941209  8.81649999999997 14.066470588235301  C 11.303250000000006 13.568823529411752  13.269374999999968 11.498823529411748  13.653499999999937 8.971764705882357  Z " fill-rule="evenodd" />
    </mask>
  </defs>
  <g transform="matrix(1 0 0 1 -788 -17928 )">
    <path d="M 13.653499999999937 8.971764705882357  C 13.700750000000014 8.662941176470575  13.723499999999973 6.8064705882352925  13.724374999999952 6.49499999999999  C 13.719999999999956 3.9273529411764394  12.083749999999952 1.5758823529411776  9.684499999999936 0.7102941176470647  C 7.287874999999957 -0.1544117647058924  3.0056249999999523 0.6123529411764854  1.390374999999949 2.5958823529411825  C -0.22487500000005411 4.579411764705881  -0.4357500000000414 8.994705882352957  0.8723749999999626 11.196176470588256  C 2.1796249999999873 13.397647058823551  6.320124999999962 14.565882352941209  8.81649999999997 14.066470588235301  C 11.303250000000006 13.568823529411752  13.269374999999968 11.498823529411748  13.653499999999937 8.971764705882357  Z " fill-rule="nonzero" fill="#ffffff" stroke="none" fill-opacity="0" transform="matrix(1 0 0 1 788 17928 )" />
    <path d="M 13.653499999999937 8.971764705882357  C 13.700750000000014 8.662941176470575  13.723499999999973 6.8064705882352925  13.724374999999952 6.49499999999999  C 13.719999999999956 3.9273529411764394  12.083749999999952 1.5758823529411776  9.684499999999936 0.7102941176470647  C 7.287874999999957 -0.1544117647058924  3.0056249999999523 0.6123529411764854  1.390374999999949 2.5958823529411825  C -0.22487500000005411 4.579411764705881  -0.4357500000000414 8.994705882352957  0.8723749999999626 11.196176470588256  C 2.1796249999999873 13.397647058823551  6.320124999999962 14.565882352941209  8.81649999999997 14.066470588235301  C 11.303250000000006 13.568823529411752  13.269374999999968 11.498823529411748  13.653499999999937 8.971764705882357  Z " stroke-width="2" stroke="#ffffff" fill="none" transform="matrix(1 0 0 1 788 17928 )" mask="url(#clip423)" />
  </g>
</svg>