<?xml version="1.0" encoding="utf-8"?>
<svg version="1.1" xmlns:xlink="http://www.w3.org/1999/xlink" width="8px" height="9px" xmlns="http://www.w3.org/2000/svg">
  <defs>
    <mask fill="white" id="clip311">
      <path d="M 7.801999999999964 5.383058823529415  C 7.829000000000008 5.197764705882345  7.8419999999999845 4.083882352941176  7.842499999999973 3.8969999999999945  C 7.839999999999975 2.3564117647058636  6.904999999999973 0.9455294117647066  5.533999999999963 0.4261764705882389  C 4.164499999999975 -0.09264705882353544  1.7174999999999727 0.36741176470589126  0.7944999999999709 1.5575294117647096  C -0.12850000000003092 2.7476470588235284  -0.24900000000002365 5.3968235294117735  0.4984999999999786 6.717705882352953  C 1.2454999999999927 8.038588235294132  3.611499999999978 8.739529411764726  5.0379999999999825 8.439882352941181  C 6.459000000000003 8.141294117647051  7.582499999999982 6.899294117647049  7.801999999999964 5.383058823529415  Z " fill-rule="evenodd" />
    </mask>
  </defs>
  <g transform="matrix(1 0 0 1 -449 -11158 )">
    <path d="M 7.801999999999964 5.383058823529415  C 7.829000000000008 5.197764705882345  7.8419999999999845 4.083882352941176  7.842499999999973 3.8969999999999945  C 7.839999999999975 2.3564117647058636  6.904999999999973 0.9455294117647066  5.533999999999963 0.4261764705882389  C 4.164499999999975 -0.09264705882353544  1.7174999999999727 0.36741176470589126  0.7944999999999709 1.5575294117647096  C -0.12850000000003092 2.7476470588235284  -0.24900000000002365 5.3968235294117735  0.4984999999999786 6.717705882352953  C 1.2454999999999927 8.038588235294132  3.611499999999978 8.739529411764726  5.0379999999999825 8.439882352941181  C 6.459000000000003 8.141294117647051  7.582499999999982 6.899294117647049  7.801999999999964 5.383058823529415  Z " fill-rule="nonzero" fill="#ffffff" stroke="none" fill-opacity="0" transform="matrix(1 0 0 1 449 11158 )" />
    <path d="M 7.801999999999964 5.383058823529415  C 7.829000000000008 5.197764705882345  7.8419999999999845 4.083882352941176  7.842499999999973 3.8969999999999945  C 7.839999999999975 2.3564117647058636  6.904999999999973 0.9455294117647066  5.533999999999963 0.4261764705882389  C 4.164499999999975 -0.09264705882353544  1.7174999999999727 0.36741176470589126  0.7944999999999709 1.5575294117647096  C -0.12850000000003092 2.7476470588235284  -0.24900000000002365 5.3968235294117735  0.4984999999999786 6.717705882352953  C 1.2454999999999927 8.038588235294132  3.611499999999978 8.739529411764726  5.0379999999999825 8.439882352941181  C 6.459000000000003 8.141294117647051  7.582499999999982 6.899294117647049  7.801999999999964 5.383058823529415  Z " stroke-width="4" stroke="#ffffff" fill="none" transform="matrix(1 0 0 1 449 11158 )" mask="url(#clip311)" />
  </g>
</svg>