<?xml version="1.0" encoding="utf-8"?>
<svg version="1.1" xmlns:xlink="http://www.w3.org/1999/xlink" width="36px" height="47px" xmlns="http://www.w3.org/2000/svg">
  <g transform="matrix(1 0 0 1 -443 -11123 )">
    <path d="M 0.30106153846154743 43.82703448275863  C 1.8972461538461656 40.8512183908046  3.53556923076923 37.902206896551746  5.297769230769232 35.01995402298852  C 7.114292307692296 32.048183908046006  9.054692307692298 29.158344827586234  11.063630769230786 26.313011494252883  C 12.969000000000037 23.61434482758621  14.953061538461526 20.973839080459772  16.962507692307724 18.35103448275863  C 19.135430769230787 15.51480459770116  21.315969230769284 12.684643678160928  23.53813846153849 9.885839080459782  C 25.613584615384624 7.271632183908068  27.702230769230795 4.629609195402297  30.01324615384619 2.2156781609195546  C 30.211753846153865 2.0083218390804616  32.222215384615424 -0.2943448275862037  32.51972307692312 0.630160919540249  C 32.73447692307697 1.2977471264367972  32.17500000000006 2.3542528735632335  31.92724615384618 2.923724137931066  C 31.308369230769234 4.34689655172418  30.507230769230787 5.692183908046004  29.689338461538483 7.00864367816095  C 28.109400000000036 9.5530574712644  26.3832461538462 12.00643678160923  24.670292307692346 14.462850574712663  C 22.412584615384652 17.69963218390805  20.133046153846188 20.922758620689688  17.896661538461586 24.174206896551745  C 16.05881538461543 26.84657471264369  14.276307692307753 29.561425287356336  12.553707692307738 32.30864367816094  C 12.063276923076964 33.09103448275865  11.572846153846191 33.872919540229915  11.082415384615416 34.6553103448276  " stroke-width="2" stroke="#ffffff" fill="none" transform="matrix(1 0 0 1 444 11124 )" />
  </g>
</svg>