<?xml version="1.0" encoding="utf-8"?>
<svg version="1.1" xmlns:xlink="http://www.w3.org/1999/xlink" width="26px" height="31px" xmlns="http://www.w3.org/2000/svg">
  <g transform="matrix(1 0 0 1 -786 -17990 )">
    <path d="M 12.491964285714273 7.1991176470588165  C 14.366071428571455 5.555294117647051  16.269642857142838 3.9326470588235236  18.318749999999945 2.503235294117637  C 19.44821428571422 1.7152941176470735  20.794642857142826 0.7067647058823421  22.222321428571338 0.5267647058823353  C 23.504464285714224 0.36529411764704756  24.133928571428445 1.3385294117647022  24.379464285714242 2.4802941176470403  C 24.73660714285708 4.140882352941162  24.338392857142768 5.597647058823524  22.9633928571428 6.632647058823526  C 21.109821428571355 8.02764705882354  19.309821428571386 9.355588235294125  17.620535714285626 10.956176470588211  C 15.822321428571332 12.659117647058807  14.091071428571361 14.437058823529384  12.408035714285605 16.25117647058819  C 8.74196428571418 20.20499999999995  5.1749999999998915 24.243529411764705  1.700892857142731 28.36323529411763  C 1.2580357142856056 28.888235294117656  0.815178571428429 29.413235294117676  0.3732142857141391 29.938235294117604  " stroke-width="1" stroke="#ffffff" fill="none" transform="matrix(1 0 0 1 786 17990 )" />
  </g>
</svg>