<?xml version="1.0" encoding="utf-8"?>
<svg version="1.1" xmlns:xlink="http://www.w3.org/1999/xlink" width="59px" height="79px" xmlns="http://www.w3.org/2000/svg">
  <g transform="matrix(1 0 0 1 -779 -17869 )">
    <path d="M 0.5291384615384773 77.69337931034484  C 3.334553846153867 72.41806896551724  6.214030769230768 67.190275862069  9.311230769230772 62.08082758620692  C 12.503907692307672 56.81268965517246  15.914307692307673 51.689793103448324  19.44516923076926 46.64579310344829  C 22.794000000000064 41.86179310344828  26.28113846153844 37.180896551724146  29.812892307692362 32.531379310344846  C 33.63196923076926 27.503517241379328  37.46443076923086 22.486413793103463  41.370061538461584 17.52489655172416  C 45.0178153846154 12.89062068965521  48.688769230769275 8.207034482758617  52.75055384615391 3.9277931034483013  C 53.09944615384619 3.5602068965517275  56.63298461538468 -0.5217931034482701  57.155876923077 1.117103448275896  C 57.53332307692315 2.300551724137959  56.550000000000104 4.173448275862095  56.114553846153896 5.182965517241435  C 55.02683076923078 7.705862068965592  53.61876923076926 10.090689655172461  52.18126153846158 12.424413793103502  C 49.40440000000007 16.934965517241437  46.37055384615393 21.284137931034543  43.35990769230776 25.638689655172445  C 39.39181538461545 31.376620689655184  35.385353846153905 37.090344827586264  31.454738461538543 42.854275862069  C 28.224584615384693 47.591655172413816  25.091692307692416 52.40434482758623  22.064092307692388 57.274413793103484  C 21.202123076923147 58.661379310344884  20.34015384615391 60.04744827586212  19.478184615384674 61.434413793103474  " stroke-width="1" stroke="#ffffff" fill="none" transform="matrix(1 0 0 1 779 17869 )" />
  </g>
</svg>