<?xml version="1.0" encoding="utf-8"?>
<svg version="1.1" xmlns:xlink="http://www.w3.org/1999/xlink" width="17px" height="20px" xmlns="http://www.w3.org/2000/svg">
  <g transform="matrix(1 0 0 1 -446 -11192 )">
    <path d="M 6.995499999999993 4.079499999999996  C 8.045000000000016 3.147999999999996  9.11099999999999 2.228499999999997  10.25849999999997 1.4184999999999945  C 10.890999999999963 0.9720000000000084  11.644999999999982 0.40049999999999386  12.444499999999948 0.29849999999999  C 13.162499999999966 0.20699999999999363  13.51499999999993 0.758499999999998  13.652499999999975 1.4054999999999893  C 13.852499999999964 2.346499999999992  13.62949999999995 3.171999999999997  12.859499999999969 3.758499999999998  C 11.821499999999958 4.549000000000007  10.813499999999976 5.301500000000004  9.86749999999995 6.208499999999987  C 8.860499999999945 7.17349999999999  7.890999999999963 8.180999999999983  6.948499999999939 9.208999999999975  C 4.895499999999942 11.449499999999972  2.8979999999999393 13.738  0.9524999999999294 16.07249999999999  C 0.7044999999999391 16.370000000000005  0.4564999999999202 16.667500000000018  0.20899999999991792 16.964999999999975  " stroke-width="2" stroke="#ffffff" fill="none" transform="matrix(1 0 0 1 447 11193 )" />
  </g>
</svg>