<?xml version="1.0" encoding="utf-8"?>
<svg version="1.1" xmlns:xlink="http://www.w3.org/1999/xlink" width="22px" height="46px" xmlns="http://www.w3.org/2000/svg">
  <g transform="matrix(1 0 0 1 -453 -11145 )">
    <path d="M 0.32550000000000523 42.5909880952381  C 1.2574999999999932 39.45813095238096  2.2524999999999977 36.35138095238095  3.2635000000000214 33.24463095238097  C 4.165999999999997 30.470107142857152  5.110000000000013 27.704285714285746  6.164500000000032 24.986071428571456  C 7.254000000000019 22.17673809523813  8.46750000000003 19.417059523809545  9.849500000000035 16.744916666666704  C 11.226500000000044 14.082500000000024  12.803500000000042 11.552154761904795  14.381000000000029 9.012083333333372  C 15.206500000000005 7.683690476190501  16.045500000000004 6.362976190476223  16.855500000000006 5.024857142857188  C 17.525000000000034 3.9186309523809966  18.269999999999982 2.7781071428571824  18.69549999999998 1.5433928571429085  C 18.830499999999972 1.1512738095238508  19.024 0.42488095238100243  18.428999999999974 0.36140476190479986  C 18.045999999999992 0.32045238095242706  17.644499999999994 0.593297619047644  17.34349999999995 0.8016428571429022  C 16.312499999999943 1.5162619047619574  15.452999999999975 2.517035714285759  14.650999999999954 3.4809523809524157  C 12.711499999999944 5.812166666666688  11.019499999999937 8.353261904761954  9.38349999999997 10.912785714285764  C 7.746999999999957 13.47333333333339  6.196999999999946 16.09121428571433  4.706999999999994 18.743904761904812  C 3.276999999999987 21.290119047619093  1.8009999999999877 23.897250000000057  0.8365000000000009 26.67330952380958  C 0.5970000000000084 27.363357142857204  0.3774999999999977 28.061083333333393  0.15149999999999864 28.756250000000065  " stroke-width="2" stroke="#ffffff" fill="none" transform="matrix(1 0 0 1 454 11146 )" />
  </g>
</svg>