<?xml version="1.0" encoding="utf-8"?>
<svg version="1.1" xmlns:xlink="http://www.w3.org/1999/xlink" width="13px" height="12px" xmlns="http://www.w3.org/2000/svg">
  <defs>
    <mask fill="white" id="clip424">
      <path d="M 12.236714285714388 7.432615384615404  C 12.27478571428576 7.1852307692307615  12.294285714285722 5.318769230769231  12.294285714285722 5.068615384615371  C 12.293357142857174 3.0046153846153807  10.954357142857166 1.1132307692307328  8.998785714285743 0.4172307692307675  C 7.0441428571428695 -0.2787692307692501  3.174785714285751 0.338769230769248  1.8580714285714592 1.9329230769230714  C 0.5404285714286183 3.5280000000000022  0.3686428571429019 7.451999999999981  1.4355714285714742 9.22153846153847  C 2.5025000000000466 10.992000000000013  6.254857142857239 11.930769230769242  8.291214285714366 11.529230769230779  C 10.319214285714338 11.129538461538477  11.923785714285827 9.46430769230768  12.236714285714388 7.432615384615404  Z " fill-rule="evenodd" />
    </mask>
  </defs>
  <g transform="matrix(1 0 0 1 -794 -17979 )">
    <path d="M 12.236714285714388 7.432615384615404  C 12.27478571428576 7.1852307692307615  12.294285714285722 5.318769230769231  12.294285714285722 5.068615384615371  C 12.293357142857174 3.0046153846153807  10.954357142857166 1.1132307692307328  8.998785714285743 0.4172307692307675  C 7.0441428571428695 -0.2787692307692501  3.174785714285751 0.338769230769248  1.8580714285714592 1.9329230769230714  C 0.5404285714286183 3.5280000000000022  0.3686428571429019 7.451999999999981  1.4355714285714742 9.22153846153847  C 2.5025000000000466 10.992000000000013  6.254857142857239 11.930769230769242  8.291214285714366 11.529230769230779  C 10.319214285714338 11.129538461538477  11.923785714285827 9.46430769230768  12.236714285714388 7.432615384615404  Z " fill-rule="nonzero" fill="#ffffff" stroke="none" fill-opacity="0" transform="matrix(1 0 0 1 794 17979 )" />
    <path d="M 12.236714285714388 7.432615384615404  C 12.27478571428576 7.1852307692307615  12.294285714285722 5.318769230769231  12.294285714285722 5.068615384615371  C 12.293357142857174 3.0046153846153807  10.954357142857166 1.1132307692307328  8.998785714285743 0.4172307692307675  C 7.0441428571428695 -0.2787692307692501  3.174785714285751 0.338769230769248  1.8580714285714592 1.9329230769230714  C 0.5404285714286183 3.5280000000000022  0.3686428571429019 7.451999999999981  1.4355714285714742 9.22153846153847  C 2.5025000000000466 10.992000000000013  6.254857142857239 11.930769230769242  8.291214285714366 11.529230769230779  C 10.319214285714338 11.129538461538477  11.923785714285827 9.46430769230768  12.236714285714388 7.432615384615404  Z " stroke-width="2" stroke="#ffffff" fill="none" transform="matrix(1 0 0 1 794 17979 )" mask="url(#clip424)" />
  </g>
</svg>