<?xml version="1.0" encoding="utf-8"?>
<svg version="1.1" xmlns:xlink="http://www.w3.org/1999/xlink" width="28px" height="42px" xmlns="http://www.w3.org/2000/svg">
  <g transform="matrix(1 0 0 1 -450 -11104 )">
    <path d="M 0.4695000000000107 38.98357894736843  C 2.9240000000000066 35.33348684210527  5.378500000000031 31.683394736842114  7.833000000000028 28.03330263157896  C 9.86650000000003 25.009776315789484  11.864000000000033 21.957000000000008  13.848500000000003 18.89909210526316  C 15.982000000000026 15.611802631578948  18.089499999999987 12.298342105263162  20.085500000000025 8.921249999999995  C 21.079000000000008 7.240657894736849  22.05600000000004 5.550315789473671  22.956000000000017 3.8153289473684224  C 23.39500000000004 2.969131578947369  23.8245 2.1121578947368347  24.18900000000002 1.2285000000000028  C 24.271000000000015 1.02939473684212  24.609500000000025 0.4238684210526428  24.525500000000022 0.17396052631578876  C 24.40300000000002 -0.1914078947368372  23.774 0.7117500000000002  23.696500000000015 0.80463157894736  C 22.324000000000012 2.4508421052631633  21.058500000000038 4.198657894736821  19.75200000000001 5.899263157894727  C 19.56600000000003 6.140960526315782  19.380499999999984 6.38317105263156  19.194500000000005 6.624868421052615  " stroke-width="2" stroke="#ffffff" fill="none" transform="matrix(1 0 0 1 451 11105 )" />
  </g>
</svg>