<?xml version="1.0" encoding="utf-8"?>
<svg version="1.1" xmlns:xlink="http://www.w3.org/1999/xlink" width="19px" height="31px" xmlns="http://www.w3.org/2000/svg">
  <g transform="matrix(1 0 0 1 -458 -11134 )">
    <path d="M 2.2174999999999727 13.505672727272724  C 4.352499999999964 10.514763636363634  6.757999999999981 7.760072727272725  9.418499999999995 5.2431272727272615  C 10.752499999999998 3.980581818181798  12.130499999999984 2.7587636363636276  13.563499999999976 1.613818181818161  C 14.14549999999997 1.1490181818181553  14.738999999999976 0.6531636363636153  15.390499999999975 0.2911999999999724  C 15.450999999999965 0.2575999999999857  15.745499999999993 0.05854545454543024  15.838499999999954 0.1435636363635984  C 16.102499999999964 0.3838545454544973  14.94599999999997 1.765018181818145  14.800499999999943 1.9711999999999492  C 13.683999999999969 3.5559999999999485  12.55499999999995 5.131636363636327  11.501999999999953 6.761236363636309  C 9.521999999999935 9.825454545454495  7.682499999999948 12.99250909090904  5.954999999999927 16.210981818181768  C 4.10349999999994 19.660072727272667  2.319499999999948 23.1422545454545  0.6179999999999382 26.670254545454505  C 0.42749999999995225 27.065818181818134  0.23649999999992133 27.461381818181763  0.04549999999994725 27.85694545454542  " stroke-width="2" stroke="#ffffff" fill="none" transform="matrix(1 0 0 1 459 11135 )" />
  </g>
</svg>