<?xml version="1.0" encoding="utf-8"?>
<svg version="1.1" xmlns:xlink="http://www.w3.org/1999/xlink" width="20px" height="6px" preserveAspectRatio="xMinYMid meet" viewBox="786 17839  20 4" xmlns="http://www.w3.org/2000/svg">
  <g transform="matrix(0.6427876096866862 0.7660444431190822 -0.7660444431190215 0.6427876096866255 13951.339972375861 5763.2548788581225 )">
    <path d="M 0.8451000000000193 67.97136842105265  C 5.263200000000012 61.60710526315791  9.681300000000055 55.24284210526317  14.099400000000049 48.87857894736844  C 17.759700000000056 43.60678947368423  21.35520000000006 38.28400000000001  24.927300000000006 32.95226315789474  C 28.767600000000048 27.220578947368423  32.561099999999975 21.44326315789474  36.15390000000004 15.55499999999999  C 37.942200000000014 12.624736842105275  39.70080000000007 9.677473684210502  41.320800000000034 6.652368421052634  C 42.11100000000007 5.176947368421054  42.884100000000004 3.68273684210525  43.54020000000004 2.142000000000005  C 43.687800000000024 1.7948421052631836  44.29710000000004 0.7390526315789668  44.14590000000004 0.303315789473683  C 43.92540000000003 -0.33373684210525456  42.7932 1.2410000000000003  42.65370000000003 1.402947368421038  C 40.18320000000002 4.273263157894746  37.90530000000007 7.3207368421052275  35.55360000000002 10.285894736842089  C 35.21880000000006 10.70731578947367  34.88489999999997 11.129631578947336  34.55010000000001 11.55105263157892  " stroke-width="1" stroke="#ffffff" fill="none" transform="matrix(1 0 0 1 757 17835 )" />
  </g>
</svg>