<?xml version="1.0" encoding="utf-8"?>
<svg version="1.1" xmlns:xlink="http://www.w3.org/1999/xlink" width="30px" height="50px" xmlns="http://www.w3.org/2000/svg">
  <g transform="matrix(1 0 0 1 -807 -17888 )">
    <path d="M 4.0192187499999505 23.634927272727268  C 7.888906249999934 18.40083636363636  12.248874999999966 13.58012727272727  17.07103124999999 9.175472727272709  C 19.488906249999996 6.966018181818146  21.98653124999997 4.827836363636348  24.583843749999957 2.8241818181817817  C 25.638718749999946 2.010781818181772  26.714437499999956 1.1430363636363268  27.895281249999954 0.5095999999999518  C 28.004937499999937 0.45079999999997494  28.538718749999987 0.10245454545450293  28.707281249999916 0.2512363636362972  C 29.185781249999934 0.6717454545453703  27.089624999999945 3.088781818181754  26.825906249999896 3.449599999999911  C 24.802249999999944 6.22299999999991  22.75593749999991 8.980363636363572  20.847374999999914 11.832163636363541  C 17.25862499999988 17.194545454545363  13.924531249999905 22.73689090909082  10.793437499999868 28.369218181818095  C 7.437593749999891 34.40512727272717  4.204093749999906 40.49894545454538  1.120124999999888 46.672945454545385  C 0.7748437499999135 47.36518181818174  0.4286562499998574 48.057418181818086  0.08246874999990439 48.74965454545449  " stroke-width="1" stroke="#ffffff" fill="none" transform="matrix(1 0 0 1 807 17888 )" />
  </g>
</svg>