<?xml version="1.0" encoding="utf-8"?>
<svg version="1.1" xmlns:xlink="http://www.w3.org/1999/xlink" width="7px" height="7px" xmlns="http://www.w3.org/2000/svg">
  <defs>
    <mask fill="white" id="clip312">
      <path d="M 6.5890000000000555 4.335692307692319  C 6.6095000000000255 4.191384615384611  6.6200000000000045 3.102615384615385  6.6200000000000045 2.9566923076922995  C 6.619500000000016 1.7526923076923053  5.898500000000013 0.6493846153845941  4.8455000000000155 0.2433846153846144  C 3.793000000000007 -0.16261538461539587  1.7095000000000198 0.19761538461539466  1.0005000000000166 1.1275384615384583  C 0.29100000000002524 2.0580000000000016  0.1985000000000241 4.346999999999989  0.7730000000000246 5.379230769230775  C 1.347500000000025 6.412000000000008  3.368000000000052 6.959615384615391  4.464500000000044 6.725384615384621  C 5.556500000000028 6.492230769230778  6.420500000000061 5.520846153846146  6.5890000000000555 4.335692307692319  Z " fill-rule="evenodd" />
    </mask>
  </defs>
  <g transform="matrix(1 0 0 1 -452 -11187 )">
    <path d="M 6.5890000000000555 4.335692307692319  C 6.6095000000000255 4.191384615384611  6.6200000000000045 3.102615384615385  6.6200000000000045 2.9566923076922995  C 6.619500000000016 1.7526923076923053  5.898500000000013 0.6493846153845941  4.8455000000000155 0.2433846153846144  C 3.793000000000007 -0.16261538461539587  1.7095000000000198 0.19761538461539466  1.0005000000000166 1.1275384615384583  C 0.29100000000002524 2.0580000000000016  0.1985000000000241 4.346999999999989  0.7730000000000246 5.379230769230775  C 1.347500000000025 6.412000000000008  3.368000000000052 6.959615384615391  4.464500000000044 6.725384615384621  C 5.556500000000028 6.492230769230778  6.420500000000061 5.520846153846146  6.5890000000000555 4.335692307692319  Z " fill-rule="nonzero" fill="#ffffff" stroke="none" fill-opacity="0" transform="matrix(1 0 0 1 452 11187 )" />
    <path d="M 6.5890000000000555 4.335692307692319  C 6.6095000000000255 4.191384615384611  6.6200000000000045 3.102615384615385  6.6200000000000045 2.9566923076922995  C 6.619500000000016 1.7526923076923053  5.898500000000013 0.6493846153845941  4.8455000000000155 0.2433846153846144  C 3.793000000000007 -0.16261538461539587  1.7095000000000198 0.19761538461539466  1.0005000000000166 1.1275384615384583  C 0.29100000000002524 2.0580000000000016  0.1985000000000241 4.346999999999989  0.7730000000000246 5.379230769230775  C 1.347500000000025 6.412000000000008  3.368000000000052 6.959615384615391  4.464500000000044 6.725384615384621  C 5.556500000000028 6.492230769230778  6.420500000000061 5.520846153846146  6.5890000000000555 4.335692307692319  Z " stroke-width="4" stroke="#ffffff" fill="none" transform="matrix(1 0 0 1 452 11187 )" mask="url(#clip312)" />
  </g>
</svg>