<?xml version="1.0" encoding="utf-8"?>
<svg version="1.1" xmlns:xlink="http://www.w3.org/1999/xlink" width="35px" height="76px" xmlns="http://www.w3.org/2000/svg">
  <g transform="matrix(1 0 0 1 -797 -17906 )">
    <path d="M 0.5824736842105357 74.28660714285716  C 2.2502631578947248 68.82232142857144  4.030789473684206 63.403571428571425  5.839947368421091 57.984821428571465  C 7.454947368421047 53.145535714285735  9.144210526315813 48.321428571428626  11.031210526315848 43.580357142857196  C 12.980842105263191 38.6803571428572  15.152368421052683 33.866964285714324  17.625421052631644 29.206250000000065  C 20.089526315789552 24.562500000000043  22.911526315789548 20.1491071428572  25.734421052631628 15.718750000000068  C 27.21163157894738 13.401785714285756  28.713000000000008 11.098214285714343  30.162473684210536 8.764285714285792  C 31.360526315789535 6.834821428571506  32.693684210526285 4.845535714285783  33.45510526315786 2.6919642857143753  C 33.696684210526264 2.008035714285786  34.04294736842105 0.7410714285715159  32.97821052631574 0.630357142857209  C 32.29284210526314 0.5589285714286518  31.574368421052622 1.034821428571472  31.035736842105173 1.3982142857143642  C 29.19078947368411 2.6446428571429488  27.652736842105217 4.390178571428649  26.217578947368338 6.0714285714286325  C 22.746894736842002 10.137500000000037  19.719105263157783 14.569642857142943  16.79152631578942 19.033928571428657  C 13.86305263157887 23.500000000000096  11.089368421052535 28.066071428571504  8.423052631578935 32.69285714285723  C 5.864105263157871 37.13392857142865  3.222842105263136 41.6812500000001  1.4968947368421068 46.52321428571438  C 1.0683157894736992 47.726785714285825  0.6755263157894696 48.94375000000011  0.2711052631578923 50.156250000000114  " stroke-width="1" stroke="#ffffff" fill="none" transform="matrix(1 0 0 1 797 17906 )" />
  </g>
</svg>