<?xml version="1.0" encoding="utf-8"?>
<svg version="1.1" xmlns:xlink="http://www.w3.org/1999/xlink" width="24px" height="20px" xmlns="http://www.w3.org/2000/svg">
  <g transform="matrix(1 0 0 1 -599 -17824 )">
    <path d="M 22.96903846153844 5.920761904761889  C 21.3342692307692 7.132238095238078  18.87061538461538 8.686619047619047  19.92861538461535 11.020904761904747  C 20.37003846153845 11.994428571428577  20.938846153846118 12.95619047619047  20.53457692307689 14.05366666666663  C 20.040961538461513 15.395428571428537  18.704307692307644 16.164476190476176  17.55873076923076 16.833999999999943  C 16.58653846153846 17.403095238095197  15.206538461538461 17.827428571428527  14.148538461538436 17.24838095238092  C 13.176346153846136 16.71728571428569  12.847269230769204 15.572761904761895  12.034307692307678 14.879714285714257  C 11.51326923076922 14.435476190476175  10.878115384615358 14.393857142857136  10.227038461538443 14.502428571428569  C 8.08449999999996 14.858904761904762  6.072884615384574 16.221476190476167  4.166538461538443 17.188666666666656  C 3.5747307692307664 17.489047619047604  0.9766153846153713 19.142047619047602  0.4785769230769203 17.77042857142854  C 0.20080769230767057 17.006809523809494  0.6802692307692355 15.963619047619  1.1128461538461374 15.37190476190472  C 2.356615384615373 13.670952380952341  4.6097307692307306 12.95619047619042  6.310846153846117 11.87499999999995  C 7.298076923076873 11.247999999999964  8.279115384615368 10.492523809523739  8.714346153846103 9.348904761904734  C 9.19823076923074 8.078619047619025  8.919576923076896 6.726904761904713  8.324230769230741 5.554333333333291  C 8.037615384615346 4.990666666666633  7.292769230769205 4.2424285714285395  7.419269230769181 3.5204285714285373  C 7.520999999999958 2.9395714285713987  8.171192307692277 2.4835714285713815  8.598461538461512 2.1659999999999533  C 9.393730769230745 1.5760952380952036  10.724192307692299 0.6315238095237392  11.798115384615375 0.7419047619047042  C 12.558884615384619 0.8206190476189801  12.828692307692316 1.6339999999999335  13.182538461538451 2.213952380952332  C 13.833615384615365 3.280666666666594  14.739461538461518 4.215285714285655  15.954038461538435 4.56271428571424  C 17.229653846153823 4.927333333333305  18.41946153846149 4.4414761904761315  19.519038461538408 3.8036190476190033  C 20.653115384615315 3.1458571428571207  21.69519230769224 2.3360952380951807  22.806269230769185 1.6394285714285308  " stroke-width="1" stroke="#ffffff" fill="none" transform="matrix(1 0 0 1 599 17824 )" />
  </g>
</svg>