<?xml version="1.0" encoding="utf-8"?>
<svg version="1.1" xmlns:xlink="http://www.w3.org/1999/xlink" width="35px" height="21px" xmlns="http://www.w3.org/2000/svg">
  <defs>
    <mask fill="white" id="clip330">
      <path d="M 4.193717948717951 8.309875000000012  C 2.9669230769230874 7.805000000000014  1.741025641025639 7.2992499999999865  0.5142307692307759 6.794374999999988  C 1.4071794871794978 4.734625000000001  2.30012820512822 2.6739999999999853  3.193076923076942 0.6142499999999984  C 3.193076923076942 0.8163749999999936  5.902435897435921 1.7307500000000076  6.116025641025664 1.8182499999999777  C 8.484358974359008 2.7938749999999857  10.852692307692324 3.7694999999999936  13.221025641025665 4.745125000000002  C 18.52038461538464 6.928250000000006  25.390256410256438 10.64262500000001  30.688717948717972 12.825750000000014  C 31.915512820512834 13.330625000000012  33.14141025641028 13.83637499999999  34.36820512820515 14.341250000000038  C 33.47525641025643 16.401000000000025  32.5823076923077 18.46162500000004  31.68935897435898 20.521375000000027  C 31.68935897435898 20.319250000000032  28.980000000000004 19.40487500000002  28.766410256410257 19.317375000000048  C 26.398076923076918 18.34175000000004  24.0297435897436 17.366125000000032  21.661410256410257 16.390500000000024  C 16.362051282051283 14.20737500000002  9.492179487179486 10.493000000000016  4.193717948717951 8.309875000000012  Z " fill-rule="evenodd" />
    </mask>
  </defs>
  <g transform="matrix(1 0 0 1 -533 -17926 )">
    <path d="M 4.193717948717951 8.309875000000012  C 2.9669230769230874 7.805000000000014  1.741025641025639 7.2992499999999865  0.5142307692307759 6.794374999999988  C 1.4071794871794978 4.734625000000001  2.30012820512822 2.6739999999999853  3.193076923076942 0.6142499999999984  C 3.193076923076942 0.8163749999999936  5.902435897435921 1.7307500000000076  6.116025641025664 1.8182499999999777  C 8.484358974359008 2.7938749999999857  10.852692307692324 3.7694999999999936  13.221025641025665 4.745125000000002  C 18.52038461538464 6.928250000000006  25.390256410256438 10.64262500000001  30.688717948717972 12.825750000000014  C 31.915512820512834 13.330625000000012  33.14141025641028 13.83637499999999  34.36820512820515 14.341250000000038  C 33.47525641025643 16.401000000000025  32.5823076923077 18.46162500000004  31.68935897435898 20.521375000000027  C 31.68935897435898 20.319250000000032  28.980000000000004 19.40487500000002  28.766410256410257 19.317375000000048  C 26.398076923076918 18.34175000000004  24.0297435897436 17.366125000000032  21.661410256410257 16.390500000000024  C 16.362051282051283 14.20737500000002  9.492179487179486 10.493000000000016  4.193717948717951 8.309875000000012  Z " fill-rule="nonzero" fill="#ffffff" stroke="none" fill-opacity="0" transform="matrix(1 0 0 1 533 17926 )" />
    <path d="M 4.193717948717951 8.309875000000012  C 2.9669230769230874 7.805000000000014  1.741025641025639 7.2992499999999865  0.5142307692307759 6.794374999999988  C 1.4071794871794978 4.734625000000001  2.30012820512822 2.6739999999999853  3.193076923076942 0.6142499999999984  C 3.193076923076942 0.8163749999999936  5.902435897435921 1.7307500000000076  6.116025641025664 1.8182499999999777  C 8.484358974359008 2.7938749999999857  10.852692307692324 3.7694999999999936  13.221025641025665 4.745125000000002  C 18.52038461538464 6.928250000000006  25.390256410256438 10.64262500000001  30.688717948717972 12.825750000000014  C 31.915512820512834 13.330625000000012  33.14141025641028 13.83637499999999  34.36820512820515 14.341250000000038  C 33.47525641025643 16.401000000000025  32.5823076923077 18.46162500000004  31.68935897435898 20.521375000000027  C 31.68935897435898 20.319250000000032  28.980000000000004 19.40487500000002  28.766410256410257 19.317375000000048  C 26.398076923076918 18.34175000000004  24.0297435897436 17.366125000000032  21.661410256410257 16.390500000000024  C 16.362051282051283 14.20737500000002  9.492179487179486 10.493000000000016  4.193717948717951 8.309875000000012  Z " stroke-width="2" stroke="#ffffff" fill="none" transform="matrix(1 0 0 1 533 17926 )" mask="url(#clip330)" />
  </g>
</svg>