<?xml version="1.0" encoding="utf-8"?>
<svg version="1.1" xmlns:xlink="http://www.w3.org/1999/xlink" width="20px" height="12px" xmlns="http://www.w3.org/2000/svg">
  <defs>
    <mask fill="white" id="clip313">
      <path d="M 2.3964102564102574 4.748500000000007  C 1.6953846153846213 4.460000000000008  0.9948717948717938 4.170999999999992  0.2938461538461577 3.882499999999993  C 0.8041025641025702 2.7055000000000007  1.3143589743589827 1.5279999999999916  1.8246153846153954 0.3509999999999991  C 1.8246153846153954 0.46649999999999636  3.3728205128205264 0.9890000000000043  3.494871794871808 1.0389999999999873  C 4.848205128205147 1.5964999999999918  6.201538461538471 2.1539999999999964  7.55487179487181 2.711500000000001  C 10.583076923076938 3.959000000000003  14.508717948717964 6.0815000000000055  17.53641025641027 7.329000000000008  C 18.237435897435905 7.617500000000007  18.937948717948736 7.906499999999994  19.63897435897437 8.195000000000022  C 19.128717948717956 9.372000000000014  18.618461538461546 10.549500000000023  18.10820512820513 11.726500000000016  C 18.10820512820513 11.611000000000018  16.560000000000002 11.08850000000001  16.437948717948718 11.038500000000028  C 15.08461538461538 10.481000000000023  13.731282051282056 9.923500000000018  12.377948717948719 9.366000000000014  C 9.34974358974359 8.118500000000012  5.424102564102563 5.996000000000009  2.3964102564102574 4.748500000000007  Z " fill-rule="evenodd" />
    </mask>
  </defs>
  <g transform="matrix(1 0 0 1 -304 -11157 )">
    <path d="M 2.3964102564102574 4.748500000000007  C 1.6953846153846213 4.460000000000008  0.9948717948717938 4.170999999999992  0.2938461538461577 3.882499999999993  C 0.8041025641025702 2.7055000000000007  1.3143589743589827 1.5279999999999916  1.8246153846153954 0.3509999999999991  C 1.8246153846153954 0.46649999999999636  3.3728205128205264 0.9890000000000043  3.494871794871808 1.0389999999999873  C 4.848205128205147 1.5964999999999918  6.201538461538471 2.1539999999999964  7.55487179487181 2.711500000000001  C 10.583076923076938 3.959000000000003  14.508717948717964 6.0815000000000055  17.53641025641027 7.329000000000008  C 18.237435897435905 7.617500000000007  18.937948717948736 7.906499999999994  19.63897435897437 8.195000000000022  C 19.128717948717956 9.372000000000014  18.618461538461546 10.549500000000023  18.10820512820513 11.726500000000016  C 18.10820512820513 11.611000000000018  16.560000000000002 11.08850000000001  16.437948717948718 11.038500000000028  C 15.08461538461538 10.481000000000023  13.731282051282056 9.923500000000018  12.377948717948719 9.366000000000014  C 9.34974358974359 8.118500000000012  5.424102564102563 5.996000000000009  2.3964102564102574 4.748500000000007  Z " fill-rule="nonzero" fill="#ffffff" stroke="none" fill-opacity="0" transform="matrix(1 0 0 1 304 11157 )" />
    <path d="M 2.3964102564102574 4.748500000000007  C 1.6953846153846213 4.460000000000008  0.9948717948717938 4.170999999999992  0.2938461538461577 3.882499999999993  C 0.8041025641025702 2.7055000000000007  1.3143589743589827 1.5279999999999916  1.8246153846153954 0.3509999999999991  C 1.8246153846153954 0.46649999999999636  3.3728205128205264 0.9890000000000043  3.494871794871808 1.0389999999999873  C 4.848205128205147 1.5964999999999918  6.201538461538471 2.1539999999999964  7.55487179487181 2.711500000000001  C 10.583076923076938 3.959000000000003  14.508717948717964 6.0815000000000055  17.53641025641027 7.329000000000008  C 18.237435897435905 7.617500000000007  18.937948717948736 7.906499999999994  19.63897435897437 8.195000000000022  C 19.128717948717956 9.372000000000014  18.618461538461546 10.549500000000023  18.10820512820513 11.726500000000016  C 18.10820512820513 11.611000000000018  16.560000000000002 11.08850000000001  16.437948717948718 11.038500000000028  C 15.08461538461538 10.481000000000023  13.731282051282056 9.923500000000018  12.377948717948719 9.366000000000014  C 9.34974358974359 8.118500000000012  5.424102564102563 5.996000000000009  2.3964102564102574 4.748500000000007  Z " stroke-width="4" stroke="#ffffff" fill="none" transform="matrix(1 0 0 1 304 11157 )" mask="url(#clip313)" />
  </g>
</svg>