<?xml version="1.0" encoding="utf-8"?>
<svg version="1.1" xmlns:xlink="http://www.w3.org/1999/xlink" width="55px" height="63px" xmlns="http://www.w3.org/2000/svg">
  <g transform="matrix(1 0 0 1 -550 -17776 )">
    <path d="M 33.36210000000001 46.528753623188386  C 30.24270000000001 42.392724637681134  27.072000000000035 38.303420289855055  23.813100000000002 34.27611594202895  C 20.231099999999987 29.84805797101446  16.60950000000001 25.452347826086925  13.007700000000003 21.040463768115888  C 10.10159999999999 17.480405797101405  7.233300000000005 13.855652173913008  4.629600000000005 10.067362318840535  C 3.3345000000000113 8.182202898550669  2.0592000000000095 6.2431304347825645  1.133100000000013 4.145913043478213  C 0.7623000000000075 3.306666666666622  0.16740000000000635 2.0648695652173417  0.3510000000000133 1.0962318840579188  C 0.5625000000000255 -0.019768115942072298  1.8603000000000065 0.6640289855071991  2.4867000000000044 1.018956521739067  C 4.408199999999996 2.1097971014492107  6.101099999999996 3.666086956521674  7.730099999999998 5.140608695652101  C 9.559799999999987 6.796637681159337  11.323799999999993 8.526347826086884  13.051800000000009 10.28750724637672  C 16.569 13.873623188405693  19.96110000000003 17.586434782608595  23.247900000000016 21.384608695652105  C 26.604000000000003 25.261855072463696  29.925 29.171449275362246  33.12810000000002 33.17539130434777  C 36.51300000000004 37.40666666666661  39.86100000000002 41.66220289855066  43.10190000000002 46.0048985507246  C 46.11869999999999 50.047478260869546  49.05090000000003 54.15655072463764  51.88140000000001 58.33121739130433  C 52.57620000000001 59.35646376811594  53.259300000000025 60.39069565217387  53.94870000000004 61.420434782608666  " stroke-width="1" stroke="#ffffff" fill="none" transform="matrix(1 0 0 1 550 17776 )" />
  </g>
</svg>