<?xml version="1.0" encoding="utf-8"?>
<svg version="1.1" xmlns:xlink="http://www.w3.org/1999/xlink" width="16px" height="14px" xmlns="http://www.w3.org/2000/svg">
  <g transform="matrix(1 0 0 1 -341 -11098 )">
    <path d="M 12.982499999999987 3.4278095238095148  C 12.058499999999981 4.129190476190466  10.665999999999997 5.029095238095238  11.263999999999982 6.380523809523801  C 11.513499999999993 6.94414285714286  11.83499999999998 7.500952380952377  11.606499999999983 8.136333333333312  C 11.327499999999986 8.913142857142837  10.571999999999974 9.358380952380944  9.924499999999995 9.745999999999967  C 9.375 10.075476190476166  8.594999999999999 10.321142857142831  7.996999999999986 9.985904761904743  C 7.447499999999991 9.678428571428558  7.261499999999984 9.01580952380952  6.801999999999992 8.614571428571413  C 6.507499999999993 8.357380952380943  6.148499999999984 8.33328571428571  5.780499999999989 8.396142857142856  C 4.569499999999977 8.60252380952381  3.4324999999999766 9.391380952380938  2.3549999999999898 9.951333333333327  C 2.0204999999999984 10.125238095238087  0.5519999999999925 11.082238095238084  0.2704999999999984 10.288142857142837  C 0.11349999999998772 9.846047619047603  0.38450000000000273 9.24209523809521  0.6289999999999907 8.899523809523785  C 1.3319999999999936 7.914761904761882  2.605499999999978 7.500952380952348  3.5669999999999793 6.874999999999971  C 4.124999999999972 6.511999999999979  4.67949999999999 6.074619047619007  4.925499999999971 5.412523809523794  C 5.198999999999984 4.677095238095225  5.041499999999985 3.894523809523781  4.704999999999984 3.2156666666666425  C 4.542999999999978 2.8893333333333135  4.121999999999986 2.4561428571428383  4.193499999999972 2.0381428571428373  C 4.250999999999976 1.7018571428571256  4.618499999999983 1.4378571428571156  4.859999999999985 1.253999999999973  C 5.309499999999986 0.9124761904761706  6.061499999999995 0.3656190476190069  6.6684999999999945 0.42952380952377617  C 7.098500000000002 0.475095238095199  7.251000000000005 0.9459999999999614  7.450999999999993 1.2817619047618765  C 7.818999999999988 1.8993333333332911  8.330999999999989 2.440428571428537  9.017499999999984 2.6415714285714023  C 9.738499999999988 2.8526666666666505  10.410999999999973 2.5713809523809186  11.03249999999997 2.2020952380952123  C 11.673499999999962 1.8212857142857013  12.26249999999996 1.3524761904761573  12.890499999999975 0.9491428571428336  " stroke-width="2" stroke="#ffffff" fill="none" transform="matrix(1 0 0 1 342 11099 )" />
  </g>
</svg>