<?xml version="1.0" encoding="utf-8"?>
<svg version="1.1" xmlns:xlink="http://www.w3.org/1999/xlink" width="33px" height="38px" xmlns="http://www.w3.org/2000/svg">
  <g transform="matrix(1 0 0 1 -313 -11070 )">
    <path d="M 18.53450000000001 26.266231884057962  C 16.801500000000004 23.931376811594188  15.040000000000019 21.622898550724628  13.229500000000002 19.34942028985505  C 11.239499999999992 16.849710144927517  9.227500000000006 14.3682608695652  7.2265000000000015 11.87768115942026  C 5.611999999999995 9.867971014492728  4.018500000000003 7.821739130434762  2.5720000000000027 5.683188405797077  C 1.8525000000000063 4.618985507246346  1.1440000000000055 3.5243478260869314  0.6295000000000073 2.340434782608669  C 0.4235000000000042 1.8666666666666414  0.09300000000000352 1.1656521739130155  0.1950000000000074 0.6188405797101155  C 0.3125000000000142 -0.011159420289879525  1.0335000000000036 0.37485507246374145  1.3815000000000026 0.5752173913043119  C 2.448999999999998 1.1910144927535866  3.389499999999998 2.0695652173912675  4.294499999999999 2.901956521739089  C 5.310999999999993 3.836811594202852  6.290999999999997 4.813260869565177  7.251000000000005 5.80746376811589  C 9.204999999999998 7.831884057970956  11.089500000000015 9.927826086956465  12.915500000000009 12.071956521739091  C 14.780000000000001 14.260724637681118  16.625 16.467753623188365  18.404500000000013 18.728043478260837  C 20.285000000000025 21.116666666666635  22.14500000000001 23.518985507246338  23.94550000000001 25.970507246376787  C 25.621499999999997 28.252608695652164  27.250500000000017 30.572246376811574  28.823000000000008 32.928913043478246  C 29.209000000000003 33.50768115942029  29.58850000000001 34.09152173913041  29.97150000000002 34.672826086956505  " stroke-width="2" stroke="#ffffff" fill="none" transform="matrix(1 0 0 1 314 11071 )" />
  </g>
</svg>