<?xml version="1.0" encoding="utf-8"?>
<svg version="1.1" xmlns:xlink="http://www.w3.org/1999/xlink" width="39px" height="49px" xmlns="http://www.w3.org/2000/svg">
  <g transform="matrix(1 0 0 1 -309 -11059 )">
    <path d="M 7.262228571428576 13.432000000000002  C 5.7204000000000095 10.888857142857141  4.3066285714285835 8.270395604395599  2.8501714285714295 5.679230769230776  C 2.324057142857146 4.743560439560447  1.7881714285714305 3.8124395604395613  1.2924000000000029 2.860593406593417  C 0.937542857142861 2.1801978021978106  0.45 1.3885934065934138  0.3666857142857111 0.6091208791208855  C 0.3013714285714205 -0.0060659340659342965  0.8135999999999967 0.11626373626374545  1.2301714285714265 0.3078461538461583  C 2.058171428571433 0.6889890109890108  2.7930857142857057 1.3056923076923068  3.4734857142857094 1.8950989010988988  C 4.3925142857142845 2.691758241758236  5.243142857142853 3.5632307692307728  6.061371428571429 4.458461538461535  C 7.891199999999997 6.4612307692307605  9.56211428571428 8.597450549450539  11.21245714285714 10.743274725274718  C 12.700799999999997 12.678307692307687  14.16137142857143 14.635582417582405  15.61011428571429 16.599934065934068  C 17.242457142857138 18.812989010989003  18.900514285714305 21.009868131868124  20.50457142857143 23.24213186813186  C 22.20737142857142 25.611890109890098  23.928685714285724 27.969516483516465  25.612971428571427 30.35191208791208  C 27.29520000000001 32.73178021978023  28.929600000000004 35.142483516483495  30.562971428571426 37.5547032967033  C 31.97211428571429 39.63582417582419  33.340628571428574 41.74929670329671  34.67005714285714 43.879956043956035  C 35.050114285714265 44.48907692307691  35.427085714285695 45.10072527472527  35.8050857142857 45.710857142857144  " stroke-width="2" stroke="#ffffff" fill="none" transform="matrix(1 0 0 1 310 11060 )" />
  </g>
</svg>