<?xml version="1.0" encoding="utf-8"?>
<svg version="1.1" xmlns:xlink="http://www.w3.org/1999/xlink" width="22px" height="65px" xmlns="http://www.w3.org/2000/svg">
  <g transform="matrix(1 0 0 1 -539 -17777 )">
    <path d="M 14.0626956521739 25.14478873239435  C 11.128173913043469 18.68709859154929  8.288608695652151 12.158197183098592  4.882956521739116 5.924056338028172  C 4.132434782608679 4.551211267605639  3.366391304347811 3.167549295774657  2.4551739130434718 1.8902535211267681  C 2.2305652173912893 1.575661971831003  1.7868260869565158 0.7725070422535205  1.3476521739130427 0.677859154929586  C 0.8226521739130531 0.5642816901408494  0.9057391304347737 1.2060845070422737  0.930391304347831 1.589183098591554  C 1.1111739130434901 4.498929577464801  2.2579565217391426 7.490704225352115  3.128999999999993 10.250816901408463  C 3.9260869565217233 12.777464788732404  4.770652173913038 15.287887323943695  5.64991304347825 17.787492957746483  C 8.582608695652153 26.122816901408466  11.515304347826083 34.45904225352113  14.448913043478251 42.7952676056338  C 16.64204347826085 49.02760563380281  18.499173913043474 55.36721126760563  20.387347826086938 61.694197183098595  C 20.555347826086937 62.25667605633806  20.723347826086933 62.820056338028195  20.891347826086932 63.3825352112676  " stroke-width="1" stroke="#ffffff" fill="none" transform="matrix(1 0 0 1 539 17777 )" />
  </g>
</svg>