<?xml version="1.0" encoding="utf-8"?>
<svg version="1.1" xmlns:xlink="http://www.w3.org/1999/xlink" width="38px" height="66px" xmlns="http://www.w3.org/2000/svg">
  <g transform="matrix(1 0 0 1 -551 -17738 )">
    <path d="M 32.479682926829256 64.25739726027398  C 30.065658536585342 60.08760273972603  27.661560975609742 55.91513698630139  25.29987804878046 51.71684931506849  C 23.165609756097524 47.92280821917805  21.09270731707316 44.096712328767126  19.008975609756064 40.275958904109594  C 16.732121951219483 36.10171232876714  14.404731707317037 31.949726027397265  12.179317073170688 27.747876712328775  C 9.852829268292638 23.353698630136993  7.566048780487766 18.945273972602752  5.432682926829226 14.45671232876714  C 3.569146341463375 10.536232876712353  1.6325121951218977 6.512465753424676  0.36819512195118215 2.3569178082191957  C 0.14348780487801574 1.6178767123287736  -0.5252195121951675 -0.6375342465753244  0.9394390243902153 0.5013013698630284  C 2.1189268292682533 1.417534246575354  3.076414634146308 2.651643835616446  4.0402195121951 3.7797945205479495  C 5.837878048780457 5.883835616438359  7.636439024390234 7.98787671232877  9.43409756097559 10.092808219178089  C 12.484341463414612 13.662465753424652  15.561658536585341 17.21075342465754  18.567682926829256 20.817808219178076  C 21.598073170731702 24.454246575342463  24.558073170731674 28.148561643835617  27.277121951219513 32.019178082191786  C 29.95556097560977 35.831027397260286  32.38853658536584 39.79513698630138  34.73578048780487 43.811780821917814  C 35.25739024390241 44.70486301369863  35.767268292682886 45.605958904109585  36.28075609756095 46.50349315068496  " stroke-width="1" stroke="#ffffff" fill="none" transform="matrix(1 0 0 1 551 17738 )" />
  </g>
</svg>