<?xml version="1.0" encoding="utf-8"?>
<svg version="1.1" xmlns:xlink="http://www.w3.org/1999/xlink" width="24px" height="40px" xmlns="http://www.w3.org/2000/svg">
  <g transform="matrix(1 0 0 1 -313 -11049 )">
    <path d="M 18.434414634146336 36.577287671232874  C 17.064292682926816 34.203712328767125  15.699804878048774 31.828616438356175  14.359390243902423 29.438821917808216  C 13.148048780487784 27.279136986301353  11.971536585365849 25.101205479452055  10.78887804878047 22.926315068493153  C 9.496609756097545 20.550205479452064  8.175658536585345 18.186767123287673  6.9125853658536345 15.794945205479456  C 5.59214634146339 13.293643835616441  4.2942439024390024 10.784232876712336  3.0834146341463176 8.229205479452064  C 2.0257317073170507 5.9975479452054925  0.9265609756097257 3.7070958904109697  0.20897560975607637 1.3416301369863113  C 0.08143902439022516 0.9209452054794557  -0.2980975609756356 -0.3629041095890308  0.5331951219512033 0.28535616438357003  C 1.202634146341441 0.8069041095890477  1.7460731707316886 1.509397260273977  2.293097560975597 2.151575342465756  C 3.3133902439024214 3.3492602739726047  4.334195121951214 4.546945205479454  5.354487804878039 5.745136986301374  C 7.085707317073158 7.777095890410956  8.832292682926814 9.796890410958909  10.538414634146335 11.850136986301367  C 12.258365853658534 13.920109589041095  13.938365853658519 16.023027397260275  15.48160975609756 18.22630136986302  C 17.001804878048787 20.396123287671237  18.38268292682926 22.652616438356173  19.71490243902438 24.93901369863014  C 20.010951219512176 25.447383561643836  20.30034146341461 25.96031506849315  20.591780487804865 26.471219178082208  " stroke-width="2" stroke="#ffffff" fill="none" transform="matrix(1 0 0 1 314 11050 )" />
  </g>
</svg>