<?xml version="1.0" encoding="utf-8"?>
<svg version="1.1" xmlns:xlink="http://www.w3.org/1999/xlink" width="36px" height="55px" xmlns="http://www.w3.org/2000/svg">
  <g transform="matrix(1 0 0 1 -525 -17809 )">
    <path d="M 12.944615384615389 30.150899999999975  C 9.844871794871795 24.083099999999963  7.065512820512837 17.874899999999993  4.393846153846168 11.607299999999993  C 3.077307692307694 8.518499999999978  1.6997435897435946 5.426099999999996  0.6452564102564304 2.233799999999974  C 0.5582051282051409 1.9700999999999682  -0.3149999999999737 -0.2727000000000487  0.6380769230769345 0.3716999999999586  C 1.4798717948717957 0.9404999999999631  2.1179487179487304 2.1392999999999573  2.689615384615397 2.948399999999958  C 3.5125641025641166 4.112999999999943  4.310384615384638 5.295599999999961  5.092948717948728 6.488099999999951  C 6.772051282051301 9.044999999999959  8.460128205128223 11.596499999999942  10.123974358974364 14.164199999999948  C 14.294358974358973 20.59829999999995  18.506923076923087 27.008099999999963  22.63602564102565 33.469199999999944  C 26.295769230769245 39.19679999999992  29.884615384615394 44.985599999999934  33.25000000000001 50.89229999999992  C 33.675384615384615 51.63839999999993  34.09179487179487 52.389899999999905  34.512692307692326 53.13779999999993  " stroke-width="1" stroke="#ffffff" fill="none" transform="matrix(1 0 0 1 525 17809 )" />
  </g>
</svg>