<?xml version="1.0" encoding="utf-8"?>
<svg version="1.1" xmlns:xlink="http://www.w3.org/1999/xlink" width="32px" height="6px" preserveAspectRatio="xMinYMid meet" viewBox="534 17765  32 4" xmlns="http://www.w3.org/2000/svg">
  <g transform="matrix(-0.4694715627860175 0.8829475928590629 -0.8829475928588355 -0.4694715627859417 16495.53924185524 25622.48007994534 )">
    <path d="M 12.708900000000009 23.652000000000005  C 10.010700000000016 19.17385714285714  7.536600000000021 14.563087912087903  4.987800000000002 10.000384615384627  C 4.067100000000005 8.35279120879122  3.1293000000000033 6.713208791208793  2.2617000000000047 5.037131868131887  C 1.6407000000000067 3.839043956043971  0.7875000000000001 2.4451318681318805  0.6416999999999944 1.0725824175824288  C 0.5273999999999859 -0.010681318681319087  1.4237999999999942 0.2047252747252909  2.1527999999999965 0.542076923076931  C 3.6018000000000083 1.21321978021978  4.887899999999985 2.2991538461538448  6.078599999999991 3.337021978021974  C 7.686899999999997 4.739835164835155  9.175499999999994 6.274384615384622  10.607400000000002 7.850769230769225  C 13.809599999999994 11.377384615384601  16.733699999999992 15.138989010988993  19.621799999999993 18.91750549450548  C 22.226399999999998 22.324846153846142  24.782400000000003 25.771351648351626  27.31770000000001 29.230318681318682  C 30.174299999999988 33.12721978021977  33.07590000000003 36.99563736263735  35.883 40.92636263736262  C 38.86289999999998 45.09919780219778  41.875200000000014 49.25067032967029  44.8227 53.44575824175823  C 47.76660000000001 57.63639560439562  50.6268 61.881329670329634  53.48519999999999 66.12893406593408  C 55.95120000000001 69.79351648351651  58.34610000000001 73.51506593406594  60.67259999999999 77.26687912087911  C 61.33769999999997 78.3394615384615  61.99739999999997 79.4164945054945  62.65889999999998 80.49085714285714  " stroke-width="1" stroke="#ffffff" fill="none" transform="matrix(1 0 0 1 543 17755 )" />
  </g>
</svg>