<?xml version="1.0" encoding="utf-8"?>
<svg version="1.1" xmlns:xlink="http://www.w3.org/1999/xlink" width="23px" height="33px" xmlns="http://www.w3.org/2000/svg">
  <g transform="matrix(1 0 0 1 -298 -11089 )">
    <path d="M 7.39692307692308 16.750499999999988  C 5.625641025641025 13.379499999999979  4.037435897435907 9.930499999999995  2.5107692307692386 6.448499999999996  C 1.7584615384615396 4.7324999999999875  0.9712820512820541 3.014499999999998  0.36871794871796026 1.2409999999999854  C 0.3189743589743662 1.0944999999999823  -0.17999999999998495 -0.15150000000002706  0.3646153846153911 0.20649999999997704  C 0.8456410256410262 0.5224999999999795  1.2102564102564173 1.1884999999999764  1.5369230769230842 1.6379999999999768  C 2.0071794871794952 2.284999999999968  2.4630769230769363 2.941999999999979  2.910256410256416 3.604499999999973  C 3.8697435897436003 5.024999999999977  4.8343589743589845 6.442499999999967  5.785128205128208 7.868999999999971  C 8.168205128205127 11.443499999999972  10.575384615384621 15.004499999999979  12.9348717948718 18.593999999999966  C 15.026153846153854 21.775999999999954  17.076923076923084 24.991999999999962  19.000000000000007 28.273499999999956  C 19.243076923076924 28.68799999999996  19.48102564102564 29.10549999999995  19.721538461538472 29.520999999999958  " stroke-width="2" stroke="#ffffff" fill="none" transform="matrix(1 0 0 1 299 11090 )" />
  </g>
</svg>