<?xml version="1.0" encoding="utf-8"?>
<svg version="1.1" xmlns:xlink="http://www.w3.org/1999/xlink" width="15px" height="39px" xmlns="http://www.w3.org/2000/svg">
  <g transform="matrix(1 0 0 1 -306 -11071 )">
    <path d="M 8.035826086956515 14.143943661971822  C 6.358956521739125 10.511492957746476  4.736347826086943 6.838985915492958  2.790260869565209 3.3322816901408467  C 2.3613913043478165 2.560056338028172  1.9236521739130348 1.7817464788732444  1.4029565217391267 1.063267605633807  C 1.2746086956521654 0.8863098591549392  1.0210434782608662 0.4345352112676053  0.7700869565217386 0.38129577464789216  C 0.4700869565217446 0.3174084507042278  0.5175652173912992 0.6784225352112789  0.5316521739130463 0.8939154929577492  C 0.6349565217391372 2.5306478873239504  1.2902608695652242 4.213521126760565  1.7879999999999958 5.76608450704226  C 2.2434782608695563 7.187323943661977  2.726086956521736 8.599436619718329  3.2285217391304286 10.005464788732397  C 4.904347826086945 14.694084507042263  6.580173913043476 19.38321126760564  8.256521739130429 24.072338028169014  C 9.50973913043477 27.57802816901408  10.570956521739129 31.144056338028168  11.64991304347825 34.70298591549296  C 11.745913043478248 35.01938028169016  11.841913043478247 35.33628169014086  11.937913043478247 35.652676056338024  " stroke-width="2" stroke="#ffffff" fill="none" transform="matrix(1 0 0 1 307 11072 )" />
  </g>
</svg>