<?xml version="1.0" encoding="utf-8"?>
<svg version="1.1" xmlns:xlink="http://www.w3.org/1999/xlink" width="139px" height="37px" xmlns="http://www.w3.org/2000/svg">
  <g transform="matrix(1 0 0 1 -234 -696 )">
    <path d="M 35.19660029410781 19.335352597207546  C 34.36668531639676 19.495856635170348  33.6249275390762 19.76056387607413  32.971636285656245 20.129163265581727  C 32.317726385216005 20.49838476376361  31.990771434995885 21.147555165368995  32 22.078229742083558  L 32 34.252896497634424  C 31.990771434995885 34.2852461486967  31.958601789941117 34.33345957095296  31.89488114685186 34.397536764403235  C 31.12542825821348 34.97685122164742  30.27997106070886 35.446328328241556  29.38255559747834 35.79261546646368  C 28.468797327257057 36.147308832278256  27.523439940180648 36.413431707832714  26.55935992041211 36.587359297849275  C 25.59436260385763 36.76204625327678  24.619238762606507 36.874462839800906  23.639964631691708 36.92392009063175  C 22.666832868784905 36.97182245855089  21.71751901615903 36.99546258817331  20.792641720834386 36.99546258817331  C 19.388312984789607 36.99546258817331  17.969136720258003 36.94724916591704  16.53356630968888 36.85113337574164  C 14.012889025541531 36.6585907410537  11.739979873017951 36.01750775221389  9.714529528607985 34.92632913753651  C 7.688151213667595 33.835772631533416  5.965219262176527 32.41674274551341  4.546352321155072 30.66768420779081  C 3.126557409603187 28.919558833079623  2.0340267717815634 26.930366347087087  1.2684510841800563 24.700417804150348  C 0.5025660730684087 22.47109136988788  0.11962356751258411 20.12107585281617  0.11962356751258411 17.650682307272355  C 0.11962356751258411 14.795203492352657  0.6296980357367791 12.268820166124142  1.6507749427155964 10.071532328586807  C 2.671542526184272 7.874555545386608  4.06751952745522 6.029070163151472  5.8380872995081585 4.537564616578495  C 7.609273718581378 3.0460590700055143  9.67400814877938 1.9234639672772809  12.035074501693442 1.1688461453823817  C 14.395522207587213 0.4154725408360306  16.916199491734552 0.038163629888581414  19.59617838360504 0.038163629888581414  C 21.031748794174167 0.038163629888581414  22.474742968986703 0.1184156488699837  23.926707525593358 0.278297578158516  C 25.35649991263694 0.43661479969205635  26.784245078286308 0.6131003925607919  28.209600847019804 0.8077120599660672  C 28.847425924932647 0.9044499588157433  29.4778272386021 1.000254694654007  30.099567493987564 1.0966815391665454  C 30.721926396393314 1.1931083836790841  31.351399739532326 1.2733604026604883  31.989534140955318 1.3371265417736178  C 32.11666610362369 1.3371265417736178  32.18100539373323 1.4018258438981592  32.18100539373323 1.5296691764615573  C 32.118771768334994 2.6649444171043504  32.00699834229331 3.7969244097370427  31.84600803224942 4.922338831617236  C 31.68488609254292 6.036908596863741  31.52548118573689 7.1517286786699055  31.367793885569853 8.266795064516646  C 31.335624240515084 8.491687350266856  31.303454595460313 8.708181168914361  31.271903597425826 8.916276520459165  C 31.239733952371058 9.125305035015378  31.207564307316286 9.325001919457472  31.176013309281796 9.517855608482552  C 31.176013309281796 9.614593507332225  31.119716430435947 9.670583288016926  31.00835996678482 9.686447059210927  C 30.89607553260327 9.702932939079197  30.824312478250313 9.662495875251361  30.792761480215834 9.566069030738818  C 30.537569584348663 8.186854099872379  30.07544026019648 6.999870749356742  29.405445537228854 6.005118979191906  C 28.73514149075109 5.010989317701346  27.91357824781388 4.184828998264884  26.941065131927363 3.5269490752196586  C 25.96762404551042 2.8696912608487106  24.874784084178653 2.3884902012974267  23.66285457144221 2.0830348422286753  C 22.44999708817534 1.7785126461713352  21.19012243136688 1.6254739122998219  19.88230263048641 1.6254739122998219  C 17.68115653231578 1.6254739122998219  15.63065098358431 1.9950064648188408  13.73326057237314 2.732827352508332  C 11.834632867121407 3.4712703488720953  10.183463969983288 4.505526019853359  8.780063204468929 5.8368385828006675  C 7.376353115444433 7.168462200085114  6.268046978605564 8.772569416701767  5.454526146932046 10.64884917831349  C 4.6422426092990925 12.526062102936619  4.235482193462334 14.587730249482128  4.235482193462334 16.8329204549386  C 4.235482193462334 19.271275403757276  4.68152669508713 21.572455389898444  5.575471639397575 23.738015685047785  C 6.468488613177595 25.903575980197118  7.688769860687874 27.796963730351386  9.236315381928414 29.416312609487765  C 10.78324225614867 31.037216760309825  12.617530671290863 32.32031590100087  14.73948995086514 33.26654319457229  C 16.860211936398848 34.212770488143725  19.14951523495996 34.685573080592306  21.60647187601804 34.685573080592306  C 22.658790457521206 34.685573080592306  23.727503185061895 34.5651950521202  24.81230073512997 34.324438995175996  C 25.89647963817776 34.08430504690606  26.822284904032834 33.562977977864065  28 32.76107989672431  L 28 21.93358947531475  C 27.58816991514448 21.16372999090013  27.3490628418047 20.643025030532417  26.870539371614992 20.369919322525938  C 26.39201590142528 20.09774677753087  25.849153141126028 19.864456024677956  25.243497708267952 19.67222444432715  C 24.983859656007343 19.60667620841757  24.7281496244836 19.5262937253848  24.4776126971563 19.431468387382942  C 24.221802154268847 19.335352597207546  23.967228905421965 19.207509264644145  23.711727686044654 19.0466941723442  C 23.615837397900624 18.98261697889393  23.583977076356003 18.910452372678098  23.615837397900624 18.830200353696693  C 23.647388395935113 18.750570443389563  23.711727686044654 18.709822325224586  23.8069993271684 18.709822325224586  C 25.72109320792723 18.709822325224586  27.611369178405134 18.72661925943  29.4778272386021 18.75803574748086  C 31.34428529879906 18.790385398543133  33.23456126927696 18.854462591993403  35.1486551500358 18.9505783821688  L 35.19660029410781 19.335352597207546  Z M 59.43519054883671 32.85595146955116  C 58.98729010615105 32.921894989024246  58.5650635148072 32.937758760218244  58.16665483374428 32.90540910915598  C 57.74402532703557 32.87178610518566  57.32128063171714 32.83964362867315  56.898428442162 32.80898226464344  C 56.63616719076424 32.776190215912955  56.37288889645175 32.752225642815766  56.10903484427954 32.73712871276474  C 55.83012457066874 32.72058188280852  55.550781768365844 32.71249079788232  55.27138677881495 32.712866474468036  C 54.53705276573778 32.712866474468036  53.803646723191044 32.745216125530305  53.070240680644304 32.80960437331771  C 52.33590666756715 32.87430367544225  51.60219130151027 32.938069814555384  50.868785258963534 33.00183595366852  C 50.77258564730936 33.00183595366852  50.708246357199826 32.95362253141225  50.677314006185625 32.85750674123684  C 50.64514436113085 32.76107989672431  50.677314006185625 32.68144998641718  50.77289497081951 32.61706173862977  L 52.639353031016476 31.703184096120616  C 52.101491987835146 30.208442877886867  51.535119212739595 28.72423237830154  50.94054831331649 27.251374423012702  C 50.33989071765552 25.76497135484254  49.77357351260012 24.264768175062276  49.24205291912665 22.751973436322785  L 41.82447514592096 22.751973436322785  C 41.58999974411669 23.3683016150201  41.358725714612376 23.985856574928196  41.13066251267239 24.604613068312073  C 40.818390159619184 25.448560794865184  40.523336786348466 26.298850545635084  40.24568795015606 27.154947578500153  C 39.97466667694735 27.984142193727056  39.719325658382736 28.818436588871737  39.47980293904442 29.657379720769107  C 39.25616204121174 30.443725085052005  39.144805577560604 31.012643467675986  39.144805577560604 31.365690140326738  C 39.144805577560604 31.846580145540877  39.35174300584562 32.15981186303806  39.767164479966354 32.3038300211326  C 40.181348660046524 32.44847028790141  40.580685311639876 32.55298454517951  40.963318493685556 32.61706173862978  L 40.963318493685556 33.00183595366852  C 40.357044413807195 32.938069814555384  39.73499483491158 32.881457925196415  39.09716975699874 32.83324450294015  C 37.822880079340656 32.737584013114905  36.54327167313916 32.737584013114905  35.26898199548107 32.83324450294015  C 34.63053827054793 32.881457925196415  33.99271319263508 32.938069814555384  33.35488811472222 33.00183595366852  C 33.25930715008834 33.034185604730794  33.20301027124249 32.98628323681166  33.187234772225246 32.857506741236854  C 33.170840626187726 32.72966340867345  33.211052682506185 32.64910033535491  33.30694297065021 32.61706173862978  C 35.06111659666563 32.392791561553835  36.290058902459876 31.461805930502138  36.99160462346199 29.825971171497486  L 36.99160462346199 29.873873539416618  C 37.91648191878663 27.53256754378475  38.81011753958693 25.19001733080433  39.671583515332465 22.848089226498193  C 40.536343859779535 20.49712426147764  41.38185673076285 18.139045225236032  42.20803629849704 15.774091491323487  C 42.7818314098105 14.170295329043972  43.34016034561685 12.573964470855751  43.88271378240596 10.985721025433099  C 44.43120745547614 9.380464297274296  45.00549013860058 7.784235639202516  45.60533641038687 6.19766161387984  C 45.636887408421366 6.1015458237044395  45.7012266985309 6.053332401448171  45.79649833965465 6.053332401448171  C 45.892388627798674 6.053332401448171  45.95610927088792 6.1015458237044395  45.98796959243256 6.19766161387984  C 46.145748070130864 6.64242784761791  46.31333970856639 7.083611892883941  46.49062029641334 7.520886764061581  C 46.667105842046546 7.958438156010772  46.83458866059995 8.399607222205455  46.99296167688398 8.844111914243323  C 48.31310554284863 12.46988723935997  49.67722077347908 16.07931970096631  51.085002392552795 19.67160233565287  C 52.50735719440043 23.30390115043108  54.12884380539942 26.85412241247871  55.94200014880285 30.305928013700214  C 56.32463333084853 31.04468206440112  56.81088988879179 31.573474437534394  57.4013884696529 31.894171459122866  C 57.99126840349374 32.214557426374206  58.669614861235196 32.407100061062145  59.43519054883671 32.47117725451241  L 59.43519054883671 32.85595146955116  Z M 48.52442237559715 21.16435209957441  L 45.55708194280472 11.1546235304986  C 45.0279571454477 12.811498381603464  44.509622946461306 14.471838316488808  44.00211265732077 16.13553663107694  C 43.485202226546704 17.822702421560667  42.93480576195284 19.49930914158187  42.35125308369281 21.16435209957441  L 48.52442237559715 21.16435209957441  Z M 94.01570304165404 32.56947042504781  L 93.9686858681124 32.95331147707511  L 90.09255296252272 32.95331147707511  C 88.81628415967674 32.95331147707511  87.55640950286826 32.92189498902425  86.31231034507707 32.857195686899715  C 86.12083909229914 32.857195686899715  86.0564998021896 32.77694366791831  86.12083909229914 32.61675068429265  C 86.15239009033361 32.55267349084237  86.17620800061455 32.4885962973921  86.19229282314197 32.42451910394185  C 86.20908169136129 32.35801754646152  86.23304160135835 32.29355833195347  86.26374655398475 32.23228752359103  L 86.55079877139656 31.366001194663877  C 86.64668905954058 31.0770317154634  86.69463420361258 30.804859170468326  86.69463420361258 30.547617233655846  C 86.69463420361258 28.71923983996325  86.60616767971196 26.91450257589309  86.43078124946143 25.134338604456772  C 86.25401062784881 23.34340051383572  86.05458392629185 21.554796956827595  85.83254958084676 19.768962343176838  C 85.71931791110863 18.797689262654703  85.59971021345467 17.827178576753983  85.473734309082 16.857493747572445  C 85.36144987490044 16.008315407187826  85.27391132153025 15.021651049788561  85.21019067844101 13.898122784048915  C 84.00733122207338 16.22040780975207  82.84277494935901 18.562552959351894  81.71700027840714 20.923596042630205  C 80.60034240679444 23.265835201273493  79.4833752116716 25.639490847967625  78.36764531058931 28.045496145724034  C 77.98925284283803 28.83768323814146  77.61424618074255 29.631501230608915  77.24263570420278 30.426928150846614  C 76.8714027855727 31.222745913685014  76.49660198612389 32.01687571538567  76.11824474483653 32.80929331898059  C 76.08607509978177 32.87399262110514  76.03812995570975 32.90572016349313  75.97471863613065 32.90572016349313  C 75.91037934602109 32.90572016349313  75.84665870293185 32.87399262110514  75.78324738335272 32.80929331898059  C 74.31550732772882 30.75633469387493  73.04728093614652 28.662939004941432  71.97887753211599 26.52972836085436  C 70.9173077614083 24.411936215070728  69.90411071270782 22.269972849469394  68.94008336848074 20.105523135959317  C 68.47744491361524 19.090569886057427  68.02282812989552 18.07193850468585  67.57627601226459 17.049725327923255  C 67.13025775946556 16.035821463564318  66.65974019672167 15.032995777208212  66.16514215899666 14.042140942143458  C 66.07221714267209 14.820454542054456  65.97632615029448 15.598407152600728  65.87747129456459 16.37598163368403  C 65.78158100642055 17.130288401241792  65.68630936529681 17.876196701696852  65.59041907715279 18.613395480712068  C 65.33718377647834 20.582874100816312  65.11382624049754 22.556121118950824  64.92042435418516 24.53244846209627  C 64.72748524075828 26.51549844411906  64.63158237443216 28.50688573763855  64.63306281326322 30.49940381139958  C 64.63306281326322 31.076720661126267  64.77658892196912 31.469893343267717  65.06395046289106 31.678299749149662  C 65.351312003813 31.88763931804301  65.70177554080391 32.07209453996538  66.11657836790437 32.23197646925391  C 66.24371033057274 32.296364717041314  66.4194060843334 32.36821826892002  66.64273765865593 32.447848179227144  C 66.86575990946834 32.52903336121996  67.00928601817424 32.584401033230385  67.07362530828378 32.61643962995552  C 67.16982491993794 32.68082787774292  67.20075727095215 32.760768842387186  67.16982491993794 32.85688463256259  C 67.13765527488317 32.95300042273799  67.07362530828378 33.00121384499426  66.97835366716004 33.00121384499426  C 66.53138119500483 33.00121384499426  66.09306978113356 32.99405959524011  65.66249145501587 32.97726266103469  C 65.22339455456824 32.96080991863325  64.78460736996733 32.93685527679642  64.34631991936158 32.905409109156004  C 63.90011158434821 32.87346351322161  63.45337947818102 32.84940493080268  63.006330473426324 32.83324450294016  C 62.55904867776096 32.8176917860833  62.11238552911588 32.80960437331774  61.666341027491086 32.80960437331774  L 60.708984763601514 32.80960437331774  C 60.42193254618973 32.80960437331774  60.10271068372315 32.84195402438001  59.75193782322211 32.906031217830275  C 59.65604753507808 32.938380868892544  59.591708244968544 32.88985639229914  59.56046657044419 32.76170200539861  C 59.52829692538941 32.63385867283521  59.56046657044419 32.55298454517953  59.65666618209836 32.521257002791536  C 59.911548754455396 32.45717980934127  60.10271068372316 32.42483015827899  60.23077061692195 32.42483015827899  C 60.53790382249391 32.37133898152727  60.841502621436874 32.299039857725155  61.139872413229355 32.20833633963149  C 61.39475498558639 32.12839537498722  61.6341713824363 31.912212610676853  61.85750295675886 31.558854883688973  C 61.92122359984812 31.46180593050216  62.00814350619802 31.046237336086833  62.12073726388972 30.307483285385928  C 62.23209372754085 29.569973452033576  62.35984433722951 28.631833571227716  62.50367976944554 27.492441534294073  C 62.64720587815144 26.354293714708973  62.80650748587459 25.062485052578097  62.98189391612511 23.618881873924256  C 63.16007417909568 22.144376466515226  63.32762881106877 20.668592275797096  63.48454462010589 19.19164549345017  C 63.64384622782902 17.684276175683195  63.803147835552174 16.200858041875787  63.9630680902956 14.740457929016527  C 64.12236969801873 13.280990979168681  64.26589580672464 11.941591003455803  64.3936464164133 10.722258001877892  C 64.52077837908166 9.663740092599927  64.61697799073583 8.725289157456928  64.68100795733523 7.907216250786035  C 64.7447286004245 7.089143344115141  64.8081399200036 6.504050135960027  64.87247921011314 6.1506924089721435  C 64.87247921011314 6.054265564459604  64.91207261941132 5.999208946786316  64.99218740853811 5.98210095824377  C 65.07168355064462 5.966548241386909  65.14344660499756 5.990188371009337  65.20778589510711 6.054265564459604  C 65.59010975364264 6.471700484897756  66.1323538669216 7.297860804334215  66.834518234944 8.53243546843185  C 67.5360639559461 9.767943295540896  68.2942158793042 11.203148007092038  69.10773671097773 12.839293820433818  C 69.9649904905767 14.5657747702616  70.81039175412263 16.298181268884896  71.64388017063219 18.036389685322526  C 72.45775415790463 19.732577793322548  73.26324252030066 21.432821785895545  74.06031543186167 23.137058705698685  C 74.60255954514061 24.26058697143833  75.04891337027556 25.222989090540896  75.4003048777969 26.024576117343518  C 75.75138706180809 26.82678525282041  76.07029960076453 27.50052894705964  76.35766114168646 28.04549614572405  C 76.90279822106643 26.943484001439515  77.42127379081363 25.828337312026044  77.91263042717041 24.70103991282464  C 78.43878971792199 23.49788173677787  78.95721592092004 22.3031220278338  79.4679090361645 21.116138677318162  C 80.60707230567017 18.467046576710196  81.78759680559997 15.836134705483875  83.00904458027037 13.224379089809702  C 84.25283441455144 10.561753963915084  85.5767390379593 8.188098317220945  86.98075845049394 6.102478986715871  C 87.0444790935832 6.038401793265603  87.10789041316231 6.014450609306037  87.17222970327185 6.030003326162902  C 87.23595034636112 6.046800260368311  87.26811999141589 6.102478986715871  87.26811999141589 6.198594776891275  C 87.33184063450514 6.583368991930018  87.38782818984085 7.121181940840277  87.43577333391285 7.8107894062734955  C 87.48371847798487 8.501330034718128  87.55548153233781 9.294829648755181  87.6510624969717 10.19284352007034  C 87.74695278511574 11.380137924923119  87.86635166003057 12.679411891145293  88.00987776873646 14.090665418736869  C 88.15340387744236 15.502541055002716  88.3046630739018 16.9464552879937  88.46458332864525 18.42147495469841  C 88.62388493636837 19.897427784414532  88.78318654409152 21.332943550302808  88.94310679883495 22.728333306700385  C 89.08693877246107 24.006679167459065  89.25441489289467 25.282222772928066  89.44544817930561 26.55430165348821  C 89.62052528604599 27.709246407278716  89.78786930503284 28.67973593914685  89.9480988832864 29.465148140418332  C 90.10740049100953 30.251804559038366  90.2667020987327 30.740781977018084  90.42662235347612 30.932702503031745  C 90.77739521397717 31.446564267982435  91.11239257546099 31.775348702336487  91.43161443792756 31.91967791476815  C 91.7499083298637 32.06431818153696  92.13316015892967 32.168832438815066  92.5801326310849 32.23290963226533  C 92.8031548818973 32.29729788005274  93.0351475145038 32.337423889543444  93.27394526433345 32.35328766073744  C 93.51336166118338 32.36977354060571  93.7602018222767 32.44162709248441  94.01570304165404 32.56947042504781  Z M 109.69469312373283 28.382367992843648  C 109.54170766437379 29.091094482759893  109.41469606552971 29.805239534051708  109.313915882748 30.523354995359128  C 109.21484018812444 31.236670842827913  109.11905197945276 31.95044452471999  109.02655434182608 32.66465305221177  C 109.02655434182608 32.76139095106144  108.96221505171653 32.80929331898058  108.83508308904815 32.80929331898058  L 108.78775659199643 32.85719568689971  C 108.53194604910895 32.953311477075104  108.32500862082397 33.00152489933138  108.1657070131008 33.00152489933138  C 107.43137300002364 33.00152489933138  106.6899245462132 32.99468170391436  105.94043368113907 32.977573715371804  C 105.19888654402486 32.96149087160837  104.4571892528569 32.95340299407238  103.71546967268752 32.953311477075104  C 103.07733527126453 32.953311477075104  102.45497636885878 32.946157227320946  101.84901161249054 32.9299824017898  C 101.22709893297395 32.91345148097187  100.60499268031089 32.90536333137732  99.98286287580373 32.90572016349311  C 99.1213969000582 32.90572016349311  98.25157918953883 32.913496521921545  97.3746470382862 32.92998240178982  C 96.49678691650311 32.946157227320946  95.62820650002433 32.97041946561765  94.7667405242788 33.00152489933138  L 94.7667405242788 32.61675068429263  C 95.24526399446852 32.61675068429263  95.63532094075761 32.5128585356888  95.93907662771707 32.30351896679545  C 96.2346208592525 32.10358816828777  96.47364889458251 31.83010942865011  96.63288926096563 31.50970829842126  C 96.79219086868876 31.18932233116992  96.89612356809648 30.82818824575361  96.9440687121685 30.426928150846592  C 96.99170453273037 30.026601218950987  97.0155224430113 29.617253711278405  97 29.200440899514522  L 97 9.181605870037208  C 97.0155224430113 8.540211826860258  96.8639539230417 8.12339901509638  96.56081688310252 7.9308563804084375  C 96.25197552810216 7.73553549520003  95.92312704011626 7.574206194079563  95.57995203244216 7.4496553208571585  L 94.93377521975549 7.232850447872514  C 94.69466814641571 7.153220537565385  94.4472093383021 7.032531454756144  94.19232676594507 6.872027416793339  C 94.12798747583552 6.80795022334307  94.10416956555459 6.735785617127233  94.12087303510225 6.655533598145833  C 94.13633921060935 6.575903687838704  94.19232676594507 6.535155569673728  94.28821705408909 7  L 107.92629061625088 7  C 108.05776062909186 6.469397146477822  108.19368571939685 6.41305978602508  108.33305103208762 6.366564118945352  C 108.47657714079352 6.318350696689083  108.61144219121543 6.262983024678659  108.73950212441424 6.197972668216978  C 108.89911305564753 6.134206529103849  108.97860919775404 6.197972668216978  108.97860919775404 6.3905153029049195  C 108.89080471912095 7.173070818176347  108.77109889811496 7.95167289579696  108.61979392598928 8.724355994445494  C 108.47626781728339 9.446002056603849  108.32438997380366 10.17604658586491  108.1650883660805 10.913867473554397  C 108.13291872102575 11.01029431806694  108.06115566667276 11.050420327557639  107.94979920302164 11.034245502026504  C 107.83782409235022 11.018381730832504  107.78214586052468 10.962391950147804  107.78214586052468 10.865654051298126  C 107.71780657041512 9.743058948569896  107.33517338836945 9.005860169554678  106.63393699087749 8.651880333892521  C 105.93146329934497 8.299144715578912  105.06999732359942 8.122776906422107  104.04984838715103 8.122776906422107  L 100.26929644619524 8.122776906422107  L 100.26929644619524 17.9878652087291  L 105.82010683569384 17.9878652087291  C 105.97971776692712 17.9878652087291  106.18665519521214 17.939962840809972  106.44246573809959 17.843224941960287  C 106.69703898694648 17.74679809744775  106.9519215593035 17.650993361609487  107.20804142570111 17.554566517096948  C 107.5410639902441 17.369436936156635  107.89443303806155 17.224020531517482  108.26097865422454 17.121267825464795  C 108.42028026194768 17.057501686351667  108.50008572756434 17.121267825464795  108.50008572756434 17.313499405815598  C 108.46791608250956 17.698273620854344  108.42863199672153 18.11601959562963  108.38006820562924 18.564559949781508  C 108.3365008493841 18.98315580234019  108.28059180149634 19.400359556356275  108.21241486313228 19.81562049374742  C 108.14666175018803 20.214306921803228  108.09877133694694 20.615765184448392  108.06888875442637 21.018778669794187  C 108.0383579101965 21.421625322392  107.99047089878599 21.822951285743237  107.92536264572047 22.221625791503826  C 107.92536264572047 22.31805263601637  107.88515058940202 22.38275193814091  107.80596377080565 22.414168426191768  C 107.72584898167887 22.446518077254037  107.65408592732592 22.430654306060042  107.59067460774679 22.3659550039355  C 107.43044502949323 22.20576202030983  107.32744030061593 22.045880091021296  107.27949515654393 21.88475394438421  C 107.22645436109282 21.70748770991877  107.17056258699812 21.531096778485733  107.11184181404695 21.355650516913805  C 107.04750252393741 21.163418936562998  106.98378188084817 20.970876301875062  106.92037056126904 20.778333667187123  C 106.85603127115948 20.58579103249918  106.74467480750837 20.409734277679515  106.58537319978521 20.249230239716713  C 106.42514362153165 20.089037256091043  106.13066763987644 19.96897028195607  105.70008931375874 19.88809615430039  C 105.24048179233627 19.80417120655996  104.77751768492047 19.740035503526176  104.31246404726163 19.695864573949592  C 103.82732225772324 19.64843348791645  103.34019547710608 19.62445469372041  102.85276640290142 19.624011022070896  L 100.31631361973683 19.624011022070896  L 100.31631361973683 29.53700169229701  C 100.79483708992656 30.243406091935647  101.47194625362745 30.780596932171633  102.3498063754105 31.14919632167924  C 103.22704785017328 31.51872887419826  104.08016209114498 31.702561987446355  104.90976774534589 31.702561987446355  C 106.0264256169586 31.702561987446355  106.97512082256416 31.40612720415458  107.75709065620319 30.81232447455963  C 108.53844184282195 30.21914385363895  109.05655872230984 29.377119763008487  109.3123692651973 28.285941148331112  L 109.69469312373283 28.382367992843648  Z M 138.98701088716217 13.403857442337861  L 138.49363988848557 16.08110212207793  C 138.47477115436692 16.136469794088352  138.4342497745383 16.159798869373645  138.36991048442877 16.150156184922384  C 138.3058805178294 16.141446663482544  138.27432951979486 16.10878595808314  138.27432951979486 16.05341828607271  C 138.27432951979486 15.445929165643717  138.10976941239932 15.018229452080034  137.78003055058792 14.769697036707393  C 137.45060101228668 14.521475675671896  136.99280221727648 14.397053940817003  136.40725281257764 14.397053940817003  C 136.15051429915977 14.397053940817003  135.90831399071854 14.411051385988186  135.6791052697033 14.438735221993394  C 135.45051519570836 14.466108003661466  135.208005563757 14.498146600386606  134.95157637384926 14.535162066505935  C 134.76845685584522 14.572488586962404  134.56739657425288 14.600172422967612  134.34777688205205 14.618524628858708  C 134.12815718985124 14.637187889086945  133.9264782612386 14.646208464863921  133.7436680667447 14.646208464863921  L 133.7436680667447 20.056998659365895  L 137.44936371824616 20.056998659365895  C 137.57742365144492 20.056998659365895  137.72404299525226 20.001630987355473  137.8886031026478 19.89151775200889  C 138.05316321004335 19.78109346232518  138.18153246675232 19.670358118304332  138.27309222575434 19.560555937294886  C 138.30928307644098 19.523851525512697  138.35073242679996 19.514519895398582  138.39620298279087 19.532561046952534  C 138.4419828622919 19.551535361517907  138.46518212555256 19.587928718962964  138.46518212555256 19.642985336636247  C 138.39577935934935 20.6343957684024  138.2674905164538 21.620746405758545  138.08100232595618 22.596757322091307  C 138.0621335918375 22.65212499410173  138.02161221200888 22.67514301504989  137.9575822454095 22.665811384935772  C 137.89324295529994 22.657101863495924  137.8613826337553 22.62413010375938  137.8613826337553 22.569073486086094  C 137.87932339734357 21.961584365657096  137.72806420088412 21.543216282207535  137.4085330149074 21.313036072725993  C 137.08807385840026 21.083166917581583  136.6349149160422 20.96838786717795  136.04905618783323 20.96838786717795  L 133.74304941972446 20.96838786717795  L 133.74304941972446 26.489602351363637  C 133.74304941972446 26.70982882205678  133.7885199757153 26.940009031538327  133.88038905822748 27.179831925471127  C 133.9716394937194 27.419032710729653  134.10000875042832 27.630549659982965  134.26487818133404 27.8146938275682  C 134.42974761223974 27.99883799515343  134.62121886501765 28.145344587945065  134.8411478807286 28.25639098630305  C 135.06076757292945 28.36650422164963  135.29863735222867 28.42187189366005  135.5547572186263 28.42187189366005  L 135.5547572186263 28.64272047302748  L 135.36266731882807 28.64272047302748  C 135.16098839021546 28.64272047302748  134.96889849041727 28.63338884291336  134.78608829592335 28.615347691359407  C 134.6029687779193 28.596995485468312  134.41056955461093 28.57895433391435  134.2101279200389 28.559668965011834  C 134.01819810078192 28.542471672601867  133.82597336077424 28.52878302205161  133.63354889713418 28.518609792509725  C 133.45042937913013 28.509278162395614  133.2670005376159 28.504612347338547  133.0844996666321 28.504612347338547  C 132.90199879564832 28.504612347338547  132.71826063062394 28.513943977452666  132.5360690831503 28.532296183343764  L 131.98701985264822 28.587352801017055  C 131.56719288800113 28.62356793791773  131.14603885932735 28.642040098629103  130.7246706077586 28.64272047302748  L 130.5598011768529 28.64272047302748  C 130.50474159204762 28.64272047302748  130.472881270503 28.61037082196521  130.46360156519873 28.545671519840667  C 130.45401253638437 28.481283272053258  130.47721179964498 28.44022409955115  130.53227138445027 28.42187189366005  C 130.8613915992414 28.36619316731249  131.11813011265926 28.297761213142294  131.30063098364303 28.214709705126666  C 131.48313185462683 28.13165819711103  131.61645028749805 28.021544961764448  131.69873034119584 27.883436836075525  C 131.78131971840372 27.745639764723734  131.8267902743946 27.571138281589747  131.8360699796989 27.35868816932503  C 131.84473103798285 27.147171220071712  131.849370890635 26.87562078375092  131 26.54465896903692  L 131 15.004854115583143  C 131.849370890635 14.58150916273938  131.76678151342708 14.319290356532708  131.60253072954166 14.217886642625967  C 131.42336315205154 14.11110244951121  131.22918724607766 14.032137571078623  131.0265703536572 13.983662726761638  C 130.91335489810731 13.939100483182592  130.79896686341326 13.897611539759842  130.6835305809097 13.859240991906752  C 130.53387319052055 13.80792002067531  130.39103503329665 13.73834728172285  130.25821075446444 13.652078803373362  C 130.2034604931693 13.615374391591171  130.18459175905062 13.574004164751916  130.2034604931693 13.52796812285561  C 130.2214012567575 13.482554189633573  130.25821075446444 13.458914060011146  130.31296101575956 13.458914060011146  C 131.46642838507915 13.513970677684437  132.62762884215232 13.541965568026784  133.79934629857027 13.541965568026784  L 135.74839373597516 13.541965568026784  C 135.83964417146709 13.541965568026784  135.9355344596111 13.546631383083843  136.03668324742753 13.555963013197958  C 136.13690406471355 13.56498358897494  136.242383381672 13.569649404031999  136.35250255128256 13.569649404031999  C 136.77256387805542 13.58831266426023  137.20778205682524 13.58831266426023  137.65599182302105 13.569649404031999  C 138.104510912727 13.551297198140903  138.4933305649755 13.450204538571302  138.8224507797666 13.265749316648932  C 138.8589509539634 13.2287338505296  138.8997816573021 13.2287338505296  138.94618018382343 13.265749316648932  C 138.99134141630415 13.302764782768262  139.00526097426055 13.348800824664574  138.98701088716217 13.403857442337861  Z " fill-rule="nonzero" fill="#ffffff" stroke="none" transform="matrix(1 0 0 1 234 696 )" />
  </g>
</svg>