<?xml version="1.0" encoding="utf-8"?>
<svg version="1.1" xmlns:xlink="http://www.w3.org/1999/xlink" width="254px" height="64px" xmlns="http://www.w3.org/2000/svg">
  <g transform="matrix(1 0 0 1 -651 -1110 )">
    <path d="M 253.96798272520604 1.909716377192402  C 253.96469165526676 3.664298589316846  253.9363689045705 5.418743063129677  253.883023214537 7.172508313942809  C 253.8268984468828 9.053962903037837  253.57562425775265 10.75058554708418  253.13023045939678 12.266000401867107  C 253.07410569174272 12.434264777611709  252.96185615643458 12.518138097213631  252.79502657184818 12.518138097213631  C 252.62768208113638 12.518138097213631  252.51543254582822 12.434264777611709  252.45982268429947 12.266000401867107  C 252.1802286582796 10.863452112968249  251.7482224191807 9.727538142557  251.16174434250192 8.856187544470338  C 250.59328455968625 8.00313495736316  249.8330140399362 7.296684116593171  248.9424989426018 6.794042902652641  C 248.0496517213891 6.288732038878083  247.04404005874304 5.939259873870063  245.92823848528977 5.7414845153025595  C 244.7663813125775 5.541946314062354  243.58959250680775 5.443384822079908  242.4109147435921 6  L 30 6  L 30 54.61581396235008  C 29.983303328009995 56.86123733959421  30.69541849925405 58.77013196534912  32.118104123366265 60.34146236653333  C 33.541819559729035 61.91382824079905  35.31309663064695 62.86698121232462  37.43450986674628 63.20454543689534  C 37.60185435745804 63.25942551021511  37.6718815904943 63.386788699240256  37.64407665972992 63.581975375104  C 37.615241916714936 63.77871526059  37.51792465903954 63.876049730251495  37.35109507445313 63.876049730251495  C 35.38540576137424 63.707413461016365  33.417401914655564 63.56726489043004  31.44769634826888 63.45564765916036  C 29.46530776599157 63.343816566357795  27.470046530582625 63.287901019956514  25.461397735916734 63.287901019956514  C 24.00884755653903 63.287901019956514  22.57277437316983 63.329319943216724  21.149058936807062 63.41371099935939  C 19.725858406569543 63.49810205550208  18.288240504824586 63.59698973478582  16.836720137697387 63.70830309104763  C 16.669375646985632 63.70830309104763  16.571028577059682 63.61096862138614  16.543738552420546 63.41371099935939  C 16.514388903280313 63.21800658695491  16.585960854692427 63.09116113447052  16.753305345404133 63.03576332460998  C 18.093605989473698 62.755150119522064  19.139380329890617 62.446061404692735  19.893717803406506 62.109532653203544  C 20.647025464671888 61.77248616517359  21.204153892210577 61.324644057422574  21.568192522774233 60.76134670108371  C 21.931201341087334 60.201155763989384  22.155185505578412 59.48564386466926  22.238600297871663 58.61481100312336  C 22.322529996290168 57.74449587811819  22.364752298562045 56.635504207826074  23 55.288871465328505  L 23 6  L 8.548791145402465 6  C 6.760522172350791 5.530248006675491  5.184394522909014 6.161368849852938  3.8173187603255716 7.424646009289335  C 2.4492131854916224 8.687405432184981  1.430728869713835 10.105485817306413  0.761350906866956 11.676298481949866  C 0.6491013715587676 11.844562857694472  0.522434464743133 11.91549276377758  0.3849545292969139 11.886499517495432  C 0.24541496934959203 11.858541744294786  0.17538773631328186 11.760171801551792  0.17538773631328186 11.591907425807188  C 0.063138201005139 11.031198752172099  0.008043245601573453 10.52640562493829  0.008043245601573453 10.076492571024263  C 0.008043245601573453 8.954557487213329  0.14706789942364243 7.860062440062287  0.4261470193182407 6.793007429571132  C 0.8629100472541623 5.140229574428467  1.3377814752926236 3.4978718001224545  1.8503773618063066 1.8672619808506858  C 2.0177218525180147 1.3350288169569922  2.1567465063400837 0.8152213300413578  2.2689960416482267 0.3093927297260458  C 2.3802157647058637 -0.02661828522240622  2.547560255417618 -0.08253383162368892  2.7715444199086505 0.14112835398144474  C 3.943985667141251 0.8711368764426419  5.087077265233616 1.3350288169569922  6.204423557062606 1.5312509659022338  C 7.321254942766343 1.7279908513882298  8.60388610080603 1.8253253210497242  10.055921374058482 2  L 248.69276947184736 2  C 249.1391930824537 1.8253253210497242  249.6262942769561 1.755430888048119  250.1581923043568 1.61512428550416  C 250.6880307072563 1.4748176829601995  251.17667662013446 1.3490077035573131  251.62413004299142 1.2366588742139935  C 251.94395214683777 1.1741857034292082  252.26497322506353 1.1180865815861254  252.58700449724034 1.068394498469391  C 252.94846859717765 1.0135144251496127  253.3264096931236 0.9560456691260726  253.71670853607577 0.9001301227247884  C 253.88405302678748 0.9001301227247884  253.96798272520604 1.0135144251496142  253.96798272520604 1.2366588742139935  L 253.96798272520604 1.909716377192402  Z " fill-rule="nonzero" fill="#ffffff" stroke="none" transform="matrix(1 0 0 1 651 1110 )" />
  </g>
</svg>