<?xml version="1.0" encoding="utf-8"?>
<svg version="1.1" xmlns:xlink="http://www.w3.org/1999/xlink" width="23px" height="40px" xmlns="http://www.w3.org/2000/svg">
  <g transform="matrix(1 0 0 1 -299 -11083 )">
    <path d="M 19.59384615384615 36.609958333333324  C 18.427692307692308 34.36683333333332  17.281538461538467 32.11137499999998  16.063589743589752 29.89548611111112  C 15.12769230769232 28.19297222222223  14.158461538461541 26.507930555555568  13.206153846153851 24.81518055555555  C 11.357948717948716 21.528861111111112  9.509743589743596 18.243055555555557  7.661538461538461 14.956736111111091  C 6.255384615384619 12.456666666666642  4.849230769230763 9.956597222222193  3.4430769230769225 7.456527777777744  C 2.516410256410262 5.808999999999957  1.6102564102564032 4.145027777777735  0.7851282051282081 2.4440555555555115  C 0.5543589743589832 1.968194444444407  0.32102564102564346 1.4856527777777293  0.14871794871794464 0.985124999999957  C 0.10820512820512015 0.8679583333332859  -0.05179487179487133 0.52108333333328  0.043076923076924706 0.4111111111110586  C 0.15179487179486784 0.2846944444444017  0.3323076923076903 0.4460555555554946  0.43333333333333274 0.5190277777777147  C 1.2005128205128248 1.0735138888888298  1.8230769230769268 1.8988194444443827  2.4323076923076896 2.613124999999931  C 3.2543589743589765 3.576666666666598  4.057435897435901 4.5566527777777  4.844615384615386 5.549486111111042  C 6.48717948717949 7.620972222222155  8.065128205128207 9.741791666666604  9.612307692307692 11.885736111111033  C 11.20205128205128 14.089291666666593  12.730256410256418 16.334472222222136  14.266666666666662 18.575541666666574  C 15.684615384615375 20.64343055555546  17.04564102564103 22.750888888888795  18.409230769230767 24.854749999999903  C 18.719999999999995 25.334208333333237  19.030769230769224 25.813666666666563  19.341538461538466 26.293124999999897  " stroke-width="2" stroke="#ffffff" fill="none" transform="matrix(1 0 0 1 300 11084 )" />
  </g>
</svg>