<?xml version="1.0" encoding="utf-8"?>
<svg version="1.1" xmlns:xlink="http://www.w3.org/1999/xlink" width="15px" height="8px" xmlns="http://www.w3.org/2000/svg">
  <g transform="matrix(1 0 0 1 -315 -11175 )">
    <path d="M 10.414434782608703 4.752999999999986  C 8.849739130434791 4.531999999999982  7.285043478260881 4.3104999999999905  5.720869565217393 4.089499999999987  C 4.561043478260864 3.9254999999999995  3.4017391304347884 3.761499999999984  2.2419130434782595 3.5974999999999966  C 1.7947826086956509 3.5345000000000084  1.3476521739130427 3.4710000000000036  0.9005217391304343 3.407999999999987  C 0.689739130434784 3.377999999999986  0.3198260869565215 3.3959999999999866  0.13043478260869565 3.298999999999978  C -0.03234782608696269 3.2154999999999916  0 3.3024999999999807  0.0370434782608685 3.0469999999999686  C 0.10904347826087121 2.554499999999962  0.18834782608695128 2.0624999999999716  0.2645217391304374 1.5704999999999814  C 0.3031304347826177 1.3184999999999718  0.34226086956522045 1.0664999999999907  0.3808695652174008 0.8144999999999811  C 0.39600000000000757 0.7144999999999868  0.38504347826088414 0.38399999999998613  0.4586086956521839 0.3084999999999809  C 0.5353043478260924 0.22949999999997317  0.5326956521739209 0.2664999999999793  0.6980869565217507 0.27899999999996794  C 2.5867826086956662 0.42099999999996385  4.491652173913048 0.8154999999999575  6.365217391304356 1.0804999999999723  C 8.160000000000007 1.334499999999963  9.954782608695673 1.5879999999999654  11.749565217391325 1.8419999999999845  " stroke-width="2" stroke="#ffffff" fill="none" transform="matrix(1 0 0 1 316 11176 )" />
  </g>
</svg>