<?xml version="1.0" encoding="utf-8"?>
<svg version="1.1" xmlns:xlink="http://www.w3.org/1999/xlink" width="22px" height="10px" xmlns="http://www.w3.org/2000/svg">
  <g transform="matrix(1 0 0 1 -554 -17959 )">
    <path d="M 18.22526086956523 8.555399999999976  C 15.487043478260887 8.157599999999968  12.74882608695654 7.758899999999983  10.011521739130439 7.361099999999976  C 7.981826086956512 7.065899999999999  5.953043478260879 6.77069999999997  3.923347826086954 6.475499999999994  C 3.140869565217389 6.362100000000015  2.358391304347825 6.247800000000006  1.5759130434782602 6.134399999999977  C 1.2070434782608719 6.080399999999975  0.5596956521739126 6.112799999999976  0.22826086956521738 5.93819999999996  C -0.0566086956521847 5.787899999999985  0 5.944499999999965  0.06482608695651987 5.4845999999999435  C 0.19082608695652464 4.598099999999931  0.3296086956521648 3.712499999999949  0.46291304347826545 2.8268999999999664  C 0.5304782608695809 2.3732999999999493  0.5989565217391358 1.919699999999983  0.6665217391304514 1.466099999999966  C 0.6930000000000133 1.2860999999999763  0.6738260869565472 0.6911999999999751  0.8025652173913217 0.5552999999999656  C 0.9367826086956617 0.4130999999999517  0.9322173913043615 0.47969999999996277  1.2216521739130637 0.5021999999999424  C 4.526869565217416 0.7577999999999349  7.860391304347834 1.4678999999999236  11.139130434782624 1.9448999999999501  C 14.280000000000012 2.4020999999999333  17.42086956521743 2.858399999999938  20.56173913043482 3.315599999999972  " stroke-width="1" stroke="#ffffff" fill="none" transform="matrix(1 0 0 1 554 17959 )" />
  </g>
</svg>