<?xml version="1.0" encoding="utf-8"?>
<svg version="1.1" xmlns:xlink="http://www.w3.org/1999/xlink" width="36px" height="65px" xmlns="http://www.w3.org/2000/svg">
  <g transform="matrix(1 0 0 1 -527 -17797 )">
    <path d="M 34.28923076923077 63.32533333333332  C 32.24846153846154 59.44533333333331  30.24269230769232 55.54399999999997  28.111282051282064 51.71111111111112  C 26.47346153846156 48.76622222222224  24.777307692307698 45.85155555555558  23.11076923076924 42.923555555555545  C 19.876410256410253 37.239111111111114  16.64205128205129 31.555555555555557  13.407692307692306 25.871111111111077  C 10.946923076923083 21.546666666666624  8.486153846153837 17.22222222222217  6.025384615384614 12.89777777777772  C 4.403717948717959 10.047999999999925  2.8179487179487057 7.169777777777704  1.3739743589743643 4.22755555555548  C 0.9701282051282206 3.4044444444443798  0.5617948717948761 2.569777777777694  0.2602564102564031 1.7039999999999256  C 0.18935897435896026 1.5013333333332513  -0.09064102564102482 0.9013333333332412  0.07538461538461824 0.7111111111110202  C 0.2656410256410187 0.49244444444437047  0.581538461538458 0.7715555555554501  0.7583333333333323 0.8977777777776687  C 2.1008974358974433 1.8568888888887867  3.190384615384622 3.2844444444443375  4.256538461538457 4.519999999999881  C 5.695128205128208 6.1866666666665475  7.100512820512826 7.881777777777643  8.478076923076925 9.599111111110991  C 11.352564102564108 13.182222222222107  14.113974358974362 16.85066666666656  16.821538461538463 20.559111111110976  C 19.60358974358974 24.37066666666654  22.277948717948732 28.254222222222072  24.96666666666666 32.13066666666651  C 27.448076923076904 35.707555555555395  29.8298717948718 39.35288888888873  32.216153846153844 42.991999999999834  C 32.75999999999999 43.821333333333165  33.30384615384614 44.65066666666649  33.84769230769231 45.47999999999982  " stroke-width="1" stroke="#ffffff" fill="none" transform="matrix(1 0 0 1 527 17797 )" />
  </g>
</svg>