<?xml version="1.0" encoding="utf-8"?>
<svg version="1.1" xmlns:xlink="http://www.w3.org/1999/xlink" width="16px" height="19px" xmlns="http://www.w3.org/2000/svg">
  <g transform="matrix(1 0 0 1 -312 -11264 )">
    <path d="M 0.40399999999999636 1.5989677419354613  C 0.8264999999999958 1.2072258064515828  1.2489999999999952 0.8149677419354585  1.671999999999997 0.42322580645158003  C 1.671999999999997 0.5300645161289961  2.0275000000000034 0.8314838709677368  2.092500000000001 0.9063225806451467  C 2.466000000000008 1.3352258064516074  2.8389999999999986 1.7641290322580678  3.2125000000000057 2.1930322580645285  C 4.3655000000000115 3.5179354838709838  5.518500000000003 4.8423225806451935  6.671500000000009 6.167225806451649  C 8.69850000000001 8.496000000000006  10.725500000000011 10.824774193548423  12.75200000000001 13.153548387096782  C 13.033000000000015 13.476129032258072  12.792500000000018 13.488516129032266  12.472000000000008 13.785806451612922  C 11.860500000000002 14.353032258064559  11.248500000000007 14.920258064516137  10.637000000000015 15.487483870967774  C 8.39200000000001 12.907870967741943  6.14700000000002 10.32825806451617  3.901500000000013 7.7491612903225855  C 3.5800000000000125 7.380129032258053  3.2585000000000126 7.010580645161275  2.937500000000014 6.641548387096801  " stroke-width="2" stroke="#ffffff" fill="none" transform="matrix(1 0 0 1 313 11265 )" />
  </g>
</svg>