<?xml version="1.0" encoding="utf-8"?>
<svg version="1.1" xmlns:xlink="http://www.w3.org/1999/xlink" width="24px" height="29px" xmlns="http://www.w3.org/2000/svg">
  <g transform="matrix(1 0 0 1 -549 -18117 )">
    <path d="M 0.7147692307692244 2.7981935483870575  C 1.4622692307692233 2.11264516129027  2.2097692307692225 1.4261935483870525  2.9581538461538406 0.740645161290265  C 2.9581538461538406 0.9276129032257432  3.587115384615391 1.4550967741935394  3.7021153846153867 1.5860645161290068  C 4.362923076923091 2.336645161290313  5.022846153846151 3.0872258064516185  5.683653846153856 3.837806451612925  C 7.723576923076943 6.156387096774221  9.763500000000004 8.474064516129088  11.803423076923092 10.792645161290386  C 15.389653846153863 14.86800000000001  18.975884615384636 18.94335483870974  22.561230769230786 23.01870967741937  C 23.058384615384643 23.583225806451626  22.632884615384647 23.604903225806467  22.06584615384617 24.125161290322612  C 20.983961538461543 25.117806451612978  19.90119230769232 26.11045161290324  18.819307692307717 27.103096774193602  C 14.847384615384632 22.5887741935484  10.875461538461574 18.074451612903296  6.90265384615387 13.561032258064525  C 6.333846153846176 12.915225806451593  5.7650384615384835 12.26851612903223  5.19711538461541 11.622709677419401  " stroke-width="1" stroke="#ffffff" fill="none" transform="matrix(1 0 0 1 549 18117 )" />
  </g>
</svg>