<?xml version="1.0" encoding="utf-8"?>
<svg version="1.1" xmlns:xlink="http://www.w3.org/1999/xlink" width="33px" height="66px" xmlns="http://www.w3.org/2000/svg">
  <g transform="matrix(1 0 0 1 -319 -11203 )">
    <path d="M 0.23799999999999955 62.569079999999985  C 1.241500000000002 60.247656  2.244500000000002 57.926232  3.2480000000000047 55.60430400000001  C 4.088999999999999 53.658864  4.9609999999999985 51.72803999999999  5.829000000000008 49.794695999999995  C 6.618500000000012 48.03623999999998  7.429000000000002 46.28383199999998  8.256 44.54301600000001  C 9.240499999999997 42.47207999999999  10.209499999999991 40.39358400000004  11.210000000000008 38.330712  C 12.27600000000001 36.13327199999999  13.34050000000002 33.93432000000002  14.423000000000002 31.74544799999998  C 15.483000000000004 29.601935999999963  16.561000000000007 27.467496000000015  17.637 25.332047999999972  C 18.642500000000013 23.336207999999953  19.686000000000007 21.358007999999973  20.721499999999992 19.377791999999992  C 21.81649999999999 17.283168000000014  22.95949999999999 15.213239999999972  24.079499999999996 13.132223999999963  C 25.00200000000001 11.41761599999994  25.926999999999992 9.704015999999953  26.739499999999992 7.932455999999959  C 27.606499999999983 6.041447999999983  28.340000000000003 4.0934879999999785  28.980500000000006 2.113271999999934  C 29.16300000000001 1.5487919999999322  29.341000000000008 0.9822959999999202  29.521500000000003 0.4168079999999418  " stroke-width="2" stroke="#ffffff" fill="none" transform="matrix(1 0 0 1 320 11204 )" />
  </g>
</svg>