<?xml version="1.0" encoding="utf-8"?>
<svg version="1.1" xmlns:xlink="http://www.w3.org/1999/xlink" width="128px" height="8px" preserveAspectRatio="xMinYMid meet" viewBox="524 18063  128 6" xmlns="http://www.w3.org/2000/svg">
  <g transform="matrix(0.4383711467889385 0.8987940462990283 -0.8987940462992556 0.4383711467890238 16567.851006130455 9617.895962885666 )">
    <path d="M 0.42839999999999917 111.23391999999998  C 2.2347000000000037 107.106944  4.040100000000004 102.979968  5.846400000000008 98.85209600000002  C 7.360199999999997 95.39353600000001  8.929799999999997 91.96095999999999  10.492200000000013 88.52390399999999  C 11.91330000000002 85.39775999999995  13.372200000000003 82.28236799999998  14.8608 79.18758400000002  C 16.632899999999992 75.50591999999999  18.377099999999984 71.81081600000007  20.178000000000015 68.14348799999999  C 22.09680000000002 64.23692799999998  24.012900000000034 60.327680000000036  25.961400000000005 56.436351999999964  C 27.869400000000006 52.62566399999993  29.809800000000013 48.831104000000025  31.746599999999997 45.034751999999955  C 33.55650000000002 41.486591999999916  35.43480000000001 37.969791999999956  37.29869999999999 34.449407999999984  C 39.269699999999986 30.725632000000026  41.32709999999999 27.04575999999995  43.34309999999999 23.346175999999936  C 45.00360000000002 20.297983999999893  46.668599999999984 17.251583999999916  48.13109999999999 14.102143999999928  C 49.69169999999997 10.74035199999997  51.01200000000001 7.277311999999962  52.16490000000001 3.756927999999883  C 52.49340000000002 2.7534079999998795  52.813800000000015 1.7463039999998582  53.13870000000001 0.7409919999998965  " stroke-width="1" stroke="#ffffff" fill="none" transform="matrix(1 0 0 1 561 18010 )" />
  </g>
</svg>