<?xml version="1.0" encoding="utf-8"?>
<svg version="1.1" xmlns:xlink="http://www.w3.org/1999/xlink" width="24px" height="21px" xmlns="http://www.w3.org/2000/svg">
  <g transform="matrix(1 0 0 1 -364 -11155 )">
    <path d="M 2.518975609756101 17.635371428571425  C 6.145317073170727 15.152400000000013  9.722487804878064 12.603085714285701  13.288390243902448 10.03371428571428  C 14.812170731707337 8.935714285714287  16.319560975609768 7.80891428571427  17.797243902439032 6.648685714285714  C 18.538902439024387 6.066514285714282  19.290804878048785 5.4858857142857005  19.978170731707316 4.8389142857142815  C 20.185097560975606 4.643999999999986  20.44324390243903 4.424914285714278  20.543121951219515 4.147199999999982  C 20.788975609756108 3.4647428571428396  20.141048780487793 2.4855428571428417  19.839878048780495 1.933714285714281  C 19.651390243902448 1.589142857142844  19.197073170731716 0.4859999999999965  18.67565853658536 0.4217142857142822  C 18.58551219512195 0.41040000000000093  18.52865853658537 0.43971428571429505  18.450292682926825 0.47931428571429413  C 18.268463414634134 0.5713714285714234  18.11531707317073 0.786857142857158  17.974463414634155 0.9210857142857126  C 17.680463414634147 1.2008571428571324  17.363926829268298 1.454399999999987  17.04278048780488 1.7017714285714127  C 15.350487804878062 3.0034285714285587  13.533219512195133 4.148228571428558  11.746170731707313 5.311028571428541  C 8.356463414634145 7.517314285714266  4.936024390243903 9.688114285714267  1.4812682926829246 11.790514285714249  C 1.0090243902438873 12.077999999999978  0.5372926829268181 12.364971428571403  0.06504878048780977 12.6524571428571  " stroke-width="2" stroke="#ffffff" fill="none" transform="matrix(1 0 0 1 365 11156 )" />
  </g>
</svg>