<?xml version="1.0" encoding="utf-8"?>
<svg version="1.1" xmlns:xlink="http://www.w3.org/1999/xlink" width="13px" height="49px" xmlns="http://www.w3.org/2000/svg">
  <g transform="matrix(1 0 0 1 -619 -17981 )">
    <path d="M 0.013846153846141254 0.040888888888882015  C 0.5953846153845985 5.859555555555542  1.226769230769238 11.67466666666668  1.744615384615372 17.498666666666647  C 2.3713846153845783 24.543111111111102  2.86153846153843 31.610666666666678  3.645230769230781 38.640888888888895  C 3.9083076923077265 41.00177777777773  4.107692307692297 43.57066666666671  5.0806153846154025 45.783999999999956  C 5.3843076923077176 46.47555555555553  5.804307692307702 47.15022222222221  6.5593846153846105 47.43555555555546  C 7.474153846153827 47.78222222222212  8.867999999999974 47.648888888888806  9.697846153846129 47.151999999999944  C 10.54246153846153 46.647111111111066  10.859999999999987 45.561777777777735  11.001230769230723 44.67288888888884  C 11.426769230769196 42.002666666666606  11.029846153846114 39.11288888888885  10.840615384615358 36.434666666666594  C 10.607999999999965 33.142222222222195  10.282153846153804 29.86044444444436  9.939692307692283 26.577777777777708  C 9.867692307692305 25.886222222222138  9.795692307692278 25.194666666666613  9.7236923076923 24.50311111111104  " stroke-width="1" stroke="#ffffff" fill="none" transform="matrix(1 0 0 1 619 17981 )" />
  </g>
</svg>