<?xml version="1.0" encoding="utf-8"?>
<svg version="1.1" xmlns:xlink="http://www.w3.org/1999/xlink" width="12px" height="12px" xmlns="http://www.w3.org/2000/svg">
  <defs>
    <mask fill="white" id="clip426">
      <path d="M 11.8716923076923 7.428923076923079  C 11.881846153846167 7.366153846153863  11.949230769230763 5.079692307692294  11.928000000000024 5.079692307692294  C 11.927076923076967 3.059999999999998  10.62461538461543 1.2083076923076639  8.722153846153859 0.5280000000000026  C 6.820615384615394 -0.1523076923077112  3.0221538461538473 0.4504615384615381  1.7409230769230992 2.0113846153846437  C 0.4596923076923513 3.5723076923076964  0.29169230769233623 7.446461538461546  1.329230769230767 9.17907692307694  C 2.366769230769198 10.911692307692332  6.0526153846154 11.83107692307693  8.033538461538438 11.437846153846172  C 10.007076923076879 11.046461538461577  11.56615384615382 9.417230769230768  11.8716923076923 7.428923076923079  Z " fill-rule="evenodd" />
    </mask>
  </defs>
  <g transform="matrix(1 0 0 1 -599 -17942 )">
    <path d="M 11.8716923076923 7.428923076923079  C 11.881846153846167 7.366153846153863  11.949230769230763 5.079692307692294  11.928000000000024 5.079692307692294  C 11.927076923076967 3.059999999999998  10.62461538461543 1.2083076923076639  8.722153846153859 0.5280000000000026  C 6.820615384615394 -0.1523076923077112  3.0221538461538473 0.4504615384615381  1.7409230769230992 2.0113846153846437  C 0.4596923076923513 3.5723076923076964  0.29169230769233623 7.446461538461546  1.329230769230767 9.17907692307694  C 2.366769230769198 10.911692307692332  6.0526153846154 11.83107692307693  8.033538461538438 11.437846153846172  C 10.007076923076879 11.046461538461577  11.56615384615382 9.417230769230768  11.8716923076923 7.428923076923079  Z " fill-rule="nonzero" fill="#ffffff" stroke="none" fill-opacity="0" transform="matrix(1 0 0 1 599 17942 )" />
    <path d="M 11.8716923076923 7.428923076923079  C 11.881846153846167 7.366153846153863  11.949230769230763 5.079692307692294  11.928000000000024 5.079692307692294  C 11.927076923076967 3.059999999999998  10.62461538461543 1.2083076923076639  8.722153846153859 0.5280000000000026  C 6.820615384615394 -0.1523076923077112  3.0221538461538473 0.4504615384615381  1.7409230769230992 2.0113846153846437  C 0.4596923076923513 3.5723076923076964  0.29169230769233623 7.446461538461546  1.329230769230767 9.17907692307694  C 2.366769230769198 10.911692307692332  6.0526153846154 11.83107692307693  8.033538461538438 11.437846153846172  C 10.007076923076879 11.046461538461577  11.56615384615382 9.417230769230768  11.8716923076923 7.428923076923079  Z " stroke-width="2" stroke="#ffffff" fill="none" transform="matrix(1 0 0 1 599 17942 )" mask="url(#clip426)" />
  </g>
</svg>