<?xml version="1.0" encoding="utf-8"?>
<svg version="1.1" xmlns:xlink="http://www.w3.org/1999/xlink" width="38px" height="32px" xmlns="http://www.w3.org/2000/svg">
  <g transform="matrix(1 0 0 1 -641 -17925 )">
    <path d="M 4.4381951219512255 30.37202857142857  C 10.827463414634137 26.095800000000022  17.130097560975635 21.705314285714262  23.412878048780506 17.280285714285707  C 26.0976341463415 15.389285714285714  28.753512195121974 13.448685714285688  31.357048780487816 11.450514285714284  C 32.66378048780487 10.447885714285707  33.988560975609765 9.447914285714262  35.19963414634146 8.333685714285707  C 35.564219512195116 7.997999999999976  36.019048780487815 7.620685714285702  36.19502439024391 7.142399999999969  C 36.62819512195124 5.967057142857112  35.48660975609754 4.280657142857116  34.95597560975611 3.330285714285706  C 34.623878048780504 2.7368571428571205  33.82341463414636 0.836999999999994  32.90473170731706 0.7262857142857082  C 32.74590243902439 0.7068000000000016  32.64573170731708 0.7572857142857304  32.50765853658536 0.8254857142857288  C 32.1872926829268 0.9840285714285626  31.917463414634142 1.3551428571428834  31.669292682926844 1.586314285714283  C 31.151292682926833 2.068142857142839  30.59358536585367 2.5047999999999777  30.027756097560978 2.930828571428544  C 27.046097560975635 5.172571428571406  23.844243902439047 7.144171428571405  20.695634146341458 9.146771428571377  C 14.723292682926829 12.94648571428568  8.69680487804878 16.685085714285684  2.6098536585365815 20.30588571428565  C 1.7778048780487539 20.800999999999963  0.9466585365853462 21.295228571428527  0.1146097560975696 21.790342857142786  " stroke-width="1" stroke="#ffffff" fill="none" transform="matrix(1 0 0 1 641 17925 )" />
  </g>
</svg>