<?xml version="1.0" encoding="utf-8"?>
<svg version="1.1" xmlns:xlink="http://www.w3.org/1999/xlink" width="10px" height="30px" xmlns="http://www.w3.org/2000/svg">
  <g transform="matrix(1 0 0 1 -352 -11187 )">
    <path d="M 0.00807692307691573 0.022999999999996135  C 0.3473076923076825 3.2959999999999923  0.7156153846153888 6.567000000000007  1.0176923076923003 9.84299999999999  C 1.3833076923076706 13.805499999999997  1.6692307692307509 17.781000000000006  2.126384615384622 21.735500000000002  C 2.279846153846174 23.063499999999976  2.39615384615384 24.508500000000026  2.963692307692318 25.753499999999974  C 3.1408461538461685 26.142499999999984  3.3858461538461597 26.52199999999999  3.8263076923076893 26.682499999999948  C 4.3599230769230655 26.87749999999994  5.172999999999984 26.802499999999952  5.657076923076908 26.522999999999968  C 6.149769230769227 26.238999999999976  6.334999999999992 25.628499999999974  6.417384615384588 25.128499999999974  C 6.665615384615364 23.626499999999965  6.4340769230768995 22.000999999999976  6.323692307692292 20.49449999999996  C 6.187999999999979 18.642499999999984  5.997923076923052 16.796499999999952  5.798153846153832 14.94999999999996  C 5.756153846153845 14.560999999999952  5.714153846153828 14.171999999999969  5.672153846153842 13.782999999999959  " stroke-width="2" stroke="#ffffff" fill="none" transform="matrix(1 0 0 1 353 11188 )" />
  </g>
</svg>