<?xml version="1.0" encoding="utf-8"?>
<svg version="1.1" xmlns:xlink="http://www.w3.org/1999/xlink" width="7px" height="7px" xmlns="http://www.w3.org/2000/svg">
  <defs>
    <mask fill="white" id="clip314">
      <path d="M 6.925153846153841 4.3335384615384624  C 6.931076923076931 4.296923076923087  6.970384615384612 2.9631538461538387  6.958000000000014 2.9631538461538387  C 6.957461538461565 1.7849999999999988  6.197692307692334 0.7048461538461372  5.087923076923084 0.3080000000000015  C 3.978692307692313 -0.08884615384616487  1.7629230769230775 0.26276923076923053  1.0155384615384746 1.1733076923077088  C 0.2681538461538716 2.083846153846156  0.1701538461538628 4.343769230769235  0.7753846153846141 5.354461538461548  C 1.3806153846153655 6.365153846153861  3.5306923076923167 6.901461538461542  4.686230769230756 6.672076923076934  C 5.837461538461513 6.443769230769253  6.746923076923062 5.493384615384615  6.925153846153841 4.3335384615384624  Z " fill-rule="evenodd" />
    </mask>
  </defs>
  <g transform="matrix(1 0 0 1 -342 -11166 )">
    <path d="M 6.925153846153841 4.3335384615384624  C 6.931076923076931 4.296923076923087  6.970384615384612 2.9631538461538387  6.958000000000014 2.9631538461538387  C 6.957461538461565 1.7849999999999988  6.197692307692334 0.7048461538461372  5.087923076923084 0.3080000000000015  C 3.978692307692313 -0.08884615384616487  1.7629230769230775 0.26276923076923053  1.0155384615384746 1.1733076923077088  C 0.2681538461538716 2.083846153846156  0.1701538461538628 4.343769230769235  0.7753846153846141 5.354461538461548  C 1.3806153846153655 6.365153846153861  3.5306923076923167 6.901461538461542  4.686230769230756 6.672076923076934  C 5.837461538461513 6.443769230769253  6.746923076923062 5.493384615384615  6.925153846153841 4.3335384615384624  Z " fill-rule="nonzero" fill="#ffffff" stroke="none" fill-opacity="0" transform="matrix(1 0 0 1 342 11166 )" />
    <path d="M 6.925153846153841 4.3335384615384624  C 6.931076923076931 4.296923076923087  6.970384615384612 2.9631538461538387  6.958000000000014 2.9631538461538387  C 6.957461538461565 1.7849999999999988  6.197692307692334 0.7048461538461372  5.087923076923084 0.3080000000000015  C 3.978692307692313 -0.08884615384616487  1.7629230769230775 0.26276923076923053  1.0155384615384746 1.1733076923077088  C 0.2681538461538716 2.083846153846156  0.1701538461538628 4.343769230769235  0.7753846153846141 5.354461538461548  C 1.3806153846153655 6.365153846153861  3.5306923076923167 6.901461538461542  4.686230769230756 6.672076923076934  C 5.837461538461513 6.443769230769253  6.746923076923062 5.493384615384615  6.925153846153841 4.3335384615384624  Z " stroke-width="4" stroke="#ffffff" fill="none" transform="matrix(1 0 0 1 342 11166 )" mask="url(#clip314)" />
  </g>
</svg>