<?xml version="1.0" encoding="utf-8"?>
<svg version="1.1" xmlns:xlink="http://www.w3.org/1999/xlink" width="35px" height="46px" xmlns="http://www.w3.org/2000/svg">
  <g transform="matrix(1 0 0 1 -293 -11123 )">
    <path d="M 21.6 37.041211764705885  C 19.709460317460316 34.00288235294119  17.823492063492065 30.962023529411766  15.902984126984126 27.94190588235293  C 13.898158730158727 24.789752941176463  11.774476190476182 21.707917647058824  9.708190476190476 18.595729411764687  C 8.031999999999995 16.07087058823528  6.472126984126979 13.481764705882341  5.013333333333335 10.826388235294095  C 3.4397460317460276 7.962082352941164  1.861079365079373 5.028470588235264  0.6872380952380996 1.9754705882352803  C 0.583619047619048 1.7068470588235127  -0.3149206349206372 -0.47654117647059197  0.751238095238102 0.18009411764705607  C 1.7569523809523826 0.7998000000000087  2.5584761904761937 1.9061647058823388  3.2812698412698453 2.8132117647058714  C 4.029968253968253 3.7536470588235087  4.735492063492067 4.726458823529391  5.4364444444444455 5.702811764705866  C 7.356952380952386 8.377917647058812  9.277460317460324 11.05302352941176  11.19796825396825 13.728635294117636  C 14.109968253968253 17.784799999999976  17.021968253968254 21.84147058823527  19.933968253968256 25.897635294117638  C 21.414095238095236 27.95910588235293  22.910984126984125 30.00995294117647  24.374349206349205 32.08305882352939  C 26.434539682539686 35.00199999999997  28.404825396825395 37.979117647058786  30.364952380952385 40.964835294117634  C 30.77485714285714 41.58959999999999  31.18526984126985 42.21385882352939  31.59517460317462 42.838623529411755  " stroke-width="2" stroke="#ffffff" fill="none" transform="matrix(1 0 0 1 294 11124 )" />
  </g>
</svg>