<?xml version="1.0" encoding="utf-8"?>
<svg version="1.1" xmlns:xlink="http://www.w3.org/1999/xlink" width="57px" height="77px" xmlns="http://www.w3.org/2000/svg">
  <g transform="matrix(1 0 0 1 -515 -17869 )">
    <path d="M 37.800000000000004 65.46818823529412  C 34.49155555555555 60.09811764705886  31.191111111111113 54.72357647058824  27.830222222222222 49.38569411764704  C 24.321777777777772 43.81444705882352  20.60533333333332 38.367482352941174  16.98933333333333 32.86687058823526  C 14.05599999999999 28.40432941176468  11.326222222222214 23.828235294117626  8.773333333333337 19.135011764705844  C 6.019555555555549 14.0725176470588  3.256888888888903 8.887529411764653  1.2026666666666743 3.491529411764682  C 1.021333333333334 3.016752941176441  -0.5511111111111151 -0.8422588235294184  1.3146666666666786 0.31830588235293633  C 3.0746666666666695 1.4136000000000155  4.477333333333339 3.369035294117622  5.742222222222229 4.972188235294098  C 7.0524444444444425 6.634352941176434  8.287111111111118 8.353741176470553  9.51377777777778 10.07938823529409  C 12.874666666666675 14.807482352941157  16.235555555555568 19.535576470588225  19.596444444444437 24.264564705882332  C 24.692444444444444 31.433599999999956  29.788444444444444 38.60352941176466  34.88444444444445 45.77256470588234  C 37.474666666666664 49.416094117647035  40.09422222222222 53.04084705882353  42.65511111111111 56.70494117647055  C 46.26044444444445 61.86399999999995  49.70844444444444 67.12588235294112  53.13866666666667 72.40296470588233  C 53.855999999999995 73.50719999999998  54.57422222222224 74.61054117647056  55.29155555555558 75.71477647058822  " stroke-width="1" stroke="#ffffff" fill="none" transform="matrix(1 0 0 1 515 17869 )" />
  </g>
</svg>