<?xml version="1.0" encoding="utf-8"?>
<svg version="1.1" xmlns:xlink="http://www.w3.org/1999/xlink" width="33px" height="19px" xmlns="http://www.w3.org/2000/svg">
  <g transform="matrix(1 0 0 1 -535 -17858 )">
    <path d="M 0.2284444444444489 15.67170000000001  C 3.9235555555555695 13.670999999999998  7.566222222222223 11.437200000000024  11.376888888888894 9.672300000000012  C 16.731555555555563 7.191900000000039  22.08622222222223 4.712399999999991  27.440888888888896 2.2320000000000166  C 28.032888888888895 1.9575000000000102  28.62488888888889 1.683900000000034  29.21688888888889 1.409400000000028  C 29.54133333333334 1.2591000000000518  29.94577777777777 0.9747000000000242  30.297777777777785 0.909000000000043  C 30.655111111111108 0.8415000000000532  30.39466666666668 0.7362000000000365  30.66133333333333 1.0449000000000523  C 31.10222222222223 1.5534000000000503  31.35111111111112 2.4534000000000504  31.650666666666666 3.066300000000035  C 31.650666666666666 3.1635000000000386  30.599111111111117 3.5937000000000467  30.511999999999993 3.637800000000027  C 29.53866666666666 4.126500000000033  28.565333333333328 4.614300000000008  27.592 5.103000000000015  C 24.858666666666675 6.474600000000016  22.125333333333327 7.845300000000037  19.392000000000003 9.216900000000038  C 16.09777777777779 10.86930000000005  12.804444444444446 12.521700000000061  9.510222222222232 14.175000000000052  C 7.149333333333339 15.359400000000027  4.788444444444445 16.543800000000058  2.427555555555576 17.728200000000033  " stroke-width="1" stroke="#ffffff" fill="none" transform="matrix(1 0 0 1 535 17858 )" />
  </g>
</svg>