<?xml version="1.0" encoding="utf-8"?>
<svg version="1.1" xmlns:xlink="http://www.w3.org/1999/xlink" width="34px" height="52px" xmlns="http://www.w3.org/2000/svg">
  <g transform="matrix(1 0 0 1 -524 -17866 )">
    <path d="M 31.757594594594593 50.404105263157895  C 29.64916216216216 47.37005263157893  27.54162162162162 44.33600000000002  25.433189189189182 41.301947368421054  C 22.109999999999992 36.5195789473684  18.7877027027027 31.737210526315792  15.464513513513513 26.954842105263136  C 13.674486486486481 24.377999999999982  11.888027027027034 21.799368421052613  10.134567567567567 19.197473684210493  C 7.817432432432421 15.760789473684166  5.5306216216216155 12.285631578947312  3.475702702702695 8.68252631578943  C 2.545459459459446 7.052315789473638  1.6330540540540441 5.387210526315752  0.9516486486486297 3.633526315789455  C 0.6359189189188881 2.8202105263157775  0.2809459459459186 1.8852105263157635  0.28808108108106245 0.9904736842105003  C 0.29164864864862167 0.5547368421052163  0.3772702702702465 0.10647368421050069  0.8571081081080941 0.01699999999995402  C 1.2495405405405244 -0.05547368421058776  1.7151081081080843 0.20668421052626004  2.0424324324324252 0.377578947368393  C 3.4739189189189026 1.1246842105262695  4.7475405405405215 2.235052631578939  5.986378378378369 3.2595263157894485  C 9.239999999999986 5.950894736842064  12.375891891891872 8.7764736842105  15.38156756756755 11.744315789473664  C 18.23383783783783 14.560947368421054  20.946972972972965 17.51715789473682  23.504918918918907 20.605789473684187  C 26.045027027027025 23.672052631578943  28.429054054054028 26.867157894736813  30.666810810810798 30.161578947368405  C 31.184108108108106 30.92299999999998  31.688918918918894 31.69157894736838  32.19372972972971 32.46105263157892  " stroke-width="1" stroke="#ffffff" fill="none" transform="matrix(1 0 0 1 524 17866 )" />
  </g>
</svg>