<?xml version="1.0" encoding="utf-8"?>
<svg version="1.1" xmlns:xlink="http://www.w3.org/1999/xlink" width="21px" height="13px" xmlns="http://www.w3.org/2000/svg">
  <g transform="matrix(1 0 0 1 -304 -11117 )">
    <path d="M 0.1285000000000025 8.706500000000005  C 2.207000000000008 7.594999999999999  4.256 6.354000000000013  6.399500000000003 5.373500000000007  C 9.411500000000004 3.995500000000021  12.423500000000004 2.617999999999995  15.435500000000005 1.240000000000009  C 15.768500000000003 1.0875000000000057  16.1015 0.9355000000000189  16.4345 0.7830000000000155  C 16.617000000000004 0.6995000000000289  16.844499999999996 0.5415000000000134  17.042500000000004 0.5050000000000239  C 17.243499999999997 0.46750000000002956  17.09700000000001 0.40900000000002024  17.247 0.5805000000000291  C 17.495000000000005 0.863000000000028  17.635000000000005 1.363000000000028  17.8035 1.7035000000000196  C 17.8035 1.7575000000000216  17.212000000000003 1.996500000000026  17.162999999999997 2.021000000000015  C 16.615499999999997 2.292500000000018  16.067999999999998 2.5635000000000048  15.520499999999998 2.835000000000008  C 13.983000000000004 3.5970000000000084  12.445499999999996 4.358500000000021  10.908000000000001 5.120500000000021  C 9.055000000000007 6.0385000000000275  7.202500000000001 6.956500000000034  5.349500000000006 7.875000000000028  C 4.021500000000003 8.533000000000015  2.6935000000000002 9.191000000000031  1.3655000000000115 9.849000000000018  " stroke-width="2" stroke="#ffffff" fill="none" transform="matrix(1 0 0 1 305 11118 )" />
  </g>
</svg>