<?xml version="1.0" encoding="utf-8"?>
<svg version="1.1" xmlns:xlink="http://www.w3.org/1999/xlink" width="22px" height="32px" xmlns="http://www.w3.org/2000/svg">
  <g transform="matrix(1 0 0 1 -298 -11122 )">
    <path d="M 18.284675675675675 28.661157894736842  C 17.070729729729727 26.935912280701746  15.857297297297295 25.21066666666668  14.643351351351347 23.48542105263158  C 12.729999999999997 20.766035087719285  10.81716216216216 18.04664912280702  8.90381081081081 15.327263157894725  C 7.873189189189186 13.86199999999999  6.844621621621626 12.395719298245602  5.835054054054053 10.91621052631577  C 4.500945945945939 8.962017543859623  3.184297297297294 6.985947368421021  2.001162162162158 4.937122807017519  C 1.46556756756756 4.010140350877167  0.9402432432432376 3.063315789473663  0.5479189189189081 2.0661228070175333  C 0.3661351351351174 1.6036491228070107  0.161756756756741 1.071982456140336  0.16586486486485413 0.5632105263157746  C 0.16791891891890337 0.31543859649120143  0.21721621621620255 0.06054385964910823  0.49348648648647847 0.009666666666640523  C 0.7194324324324232 -0.03154385964915774  0.9874864864864727 0.11752631578944199  1.1759459459459418 0.21470175438594896  C 2.000135135135126 0.6395263157894473  2.7334324324324215 1.2709122807017497  3.446702702702697 1.853456140350863  C 5.319999999999992 3.3838421052631342  7.125513513513502 4.990543859649107  8.856054054054045 6.6781403508771815  C 10.498270270270265 8.279754385964914  12.060378378378372 9.96073684210525  13.533135135135128 11.717017543859635  C 14.995621621621622 13.460578947368418  16.368243243243228 15.277403508771913  17.65664864864864 17.150701754385956  C 17.954486486486484 17.583666666666655  18.245135135135122 18.020701754385943  18.53578378378377 18.458245614035075  " stroke-width="2" stroke="#ffffff" fill="none" transform="matrix(1 0 0 1 299 11123 )" />
  </g>
</svg>