<?xml version="1.0" encoding="utf-8"?>
<svg version="1.1" xmlns:xlink="http://www.w3.org/1999/xlink" width="19px" height="29px" xmlns="http://www.w3.org/2000/svg">
  <g transform="matrix(1 0 0 1 -284 -11263 )">
    <path d="M 12.162000000000006 0.006117647058794782  C 10.300000000000011 3.689960784313697  8.433000000000007 7.371254901960756  6.625500000000002 11.083137254901906  C 4.804000000000002 14.823058823529365  2.9669999999999987 18.574705882352912  1.3605000000000018 22.417098039215617  C 1.0300000000000011 23.20831372549014  0.667500000000004 24.021450980392114  0.4754999999999967 24.86211764705878  C 0.450499999999991 24.971215686274494  0.3400000000000034 25.32145098039209  0.44599999999999795 25.437686274509772  C 0.751499999999993 25.773647058823492  1.7484999999999928 24.458862745098028  1.8619999999999948 24.32784313725486  C 4.527000000000001 21.248627450980365  6.693999999999988 17.688156862745053  8.825499999999991 14.217411764705842  C 11.041499999999985 10.609529411764667  13.130999999999986 6.9216078431371955  15.228499999999997 3.2413333333333063  C 15.408000000000001 2.9262745098038683  15.587499999999991 2.611215686274488  15.767499999999998 2.295647058823493  " stroke-width="2" stroke="#ffffff" fill="none" transform="matrix(1 0 0 1 285 11264 )" />
  </g>
</svg>