<?xml version="1.0" encoding="utf-8"?>
<svg version="1.1" xmlns:xlink="http://www.w3.org/1999/xlink" width="30px" height="47px" xmlns="http://www.w3.org/2000/svg">
  <g transform="matrix(1 0 0 1 -500 -18116 )">
    <path d="M 22.043625000000013 0.010823529411713845  C 18.66875000000002 6.528392156862694  15.284812500000012 13.041450980392106  12.008718750000003 19.608627450980297  C 8.707250000000004 26.2254117647058  5.377687499999998 32.86294117647054  2.4659062500000033 39.661019607843016  C 1.866875000000002 41.060862745097936  1.2098437500000072 42.499490196078355  0.861843749999994 43.98682352941169  C 0.8165312499999837 44.17984313725488  0.6162500000000062 44.79949019607831  0.8083749999999963 45.0051372549019  C 1.3620937499999872 45.599529411764635  3.169156249999987 43.273372549019584  3.3748749999999905 43.0415686274509  C 8.205187500000001 37.593725490196036  12.132874999999979 31.294431372548942  15.996218749999983 25.153882352941103  C 20.012718749999973 18.77070588235287  23.799937499999974 12.245921568627347  27.601656249999994 5.7346666666666195  C 27.927000000000003 5.17725490196069  28.252343749999984 4.619843137254863  28.578593749999996 4.061529411764641  " stroke-width="1" stroke="#ffffff" fill="none" transform="matrix(1 0 0 1 500 18116 )" />
  </g>
</svg>