<?xml version="1.0" encoding="utf-8"?>
<svg version="1.1" xmlns:xlink="http://www.w3.org/1999/xlink" width="152px" height="38px" xmlns="http://www.w3.org/2000/svg">
  <g transform="matrix(1 0 0 1 -370 -694 )">
    <path d="M 151.9808400560288 1.1338940989579886  C 151.97887059685254 2.1756772874068773  151.96192154919177 3.2173786937332456  151.92999814413238 4.258676811403543  C 151.89641166900074 5.375790473678715  151.7460428629071 6.383160168581232  151.47950799145005 7.282937738608594  C 151.44592151631846 7.3828447117069524  151.37874856605535 7.432644495220593  151.27891353905875 7.432644495220593  C 151.17877037926272 7.432644495220593  151.11159742899957 7.3828447117069524  151.0783190866674 7.282937738608594  C 150.91100297660827 6.4501746920748975  150.6524795579349 5.775725772143219  150.30151629944996 5.258361354529263  C 149.961335642017 4.751861380934376  149.50637060657598 4.332406194227195  148.9734639341554 4.033962973450006  C 148.43916166004388 3.733934648083862  147.83737830286984 3.52643555011035  147.1696545266301 3.4090064309608947  C 146.4743699193377 3.2905306239745227  145.7701498465936 3.2320097381099453  145.0647993741181 3.2340923765210015  L 18 3.2340923765210015  L 18 32.42813954014536  C 17.942764196289446 33.76135967038406  18.36891185782132 34.89476585442604  19.220282782486898 35.82774328012916  C 20.072269972751233 36.76133551797444  21.132246802591876 37.32727009481774  22.40175393600565 37.52769885315661  C 22.50189709580166 37.56028389669022  22.543803156516276 37.6359057901739  22.527163985350185 37.751797878968  C 22.509908548585315 37.86861218597531  22.451671449503973 37.92640452733683  22.351836422507382 37.92640452733683  C 21.175518408381436 37.82627674247847  19.99781531900648 37.743063528692836  18.819093877704212 37.67679079762647  C 17.63278260012094 37.61039108627494  16.43876800255338 37.57719123059918  15.23674195220214 37.57719123059918  C 14.367499325172963 37.57719123059918  13.508116947723677 37.60178371628493  12.656129757459343 37.651890905869635  C 11.804450699994373 37.70199809545436  10.944143924146996 37.76071265502908  10.075517562716545 37.82680496030953  C 9.975374402920535 37.82680496030953  9.91652103824044 37.769012618948025  9.900189999873714 37.651890905869635  C 9.882626430309479 37.53569141100448  9.92545688942224 37.46037692359187  10.025600049218223 37.42748447398718  C 10.827669725984261 37.26087038346623  11.453487441509346 37.077348959036314  11.90490199258972 36.8775350128396  C 12.355700278071366 36.677413660571816  12.689099966992156 36.411507409094654  12.906949856148358 36.07704960376845  C 13.124183479705806 35.744436234868694  13.25822124743275 35.31960104464737  13.308138760931074 34.802544033104496  C 13.358364407228763 34.28579442763267  13.383631296777288 33.62733062339673  14 32.8277674325388  L 14 3.2835847539635727  L 5.115812024020372 3.2835847539635727  C 4.045666811800474 3.2835847539635727  3.10247231292193 3.658312754600182  2.284379730588531 4.408383568015543  C 1.465670882656404 5.158146975359832  0.856184205498043 6.000132204025682  0.45561156631408384 6.932802223657733  C 0.388438616050916 7.032709196756093  0.31263794740533946 7.074823828492939  0.23036648997295636 7.057609088512913  C 0.14686250134306295 7.04100916067503  0.10495644062842063 6.982602007171376  0.10495644062842063 6.882695034073017  C 0.03778349036528004 6.5497742591021835  0.004813280832437657 6.25005333980711  0.004813280832437657 5.982917464045656  C 0.004813280832437657 5.316768508032914  0.08800913666296711 4.666912073786983  0.25501711392272675 4.03334816130786  C 0.5163871148922546 3.052011309816902  0.8005621426947983 2.0768613813227073  1.107312436986451 1.1086868011300948  C 1.207455596782434 0.7926733600682141  1.2906514526129635 0.48403766471205617  1.3578244028761042 0.1837019332748397  C 1.424381087540517 -0.015804606850803694  1.5245242473365272 -0.0490044625265653  1.6585620150634444 0.08379496017648282  C 2.360180399234135 0.5172375203878187  3.0442352138405893 0.7926733600682141  3.71288338847841 0.9091802610044513  C 4.381223430316867 1.0259945680117615  5.148782233553215 1.0837869093732737  6.017716727783029 1  L 148.82401952645984 1  C 149.0911706635156 1.0837869093732737  149.38266429172174 1.0422870897785708  149.70096547347336 0.958980044518095  C 150.0180341240274 0.8756729992576184  150.31045215063165 0.8009733239871547  150.5782195532862 0.7342662065645587  C 150.76960915873758 0.6971727614110924  150.96171626066794 0.663863907816762  151.15442788811234 0.6343592334662008  C 151.37073711327167 0.6017741899325825  151.59690658801097 0.5676521160436055  151.8304712499351 0.5344522603678431  C 151.93061440973108 0.5344522603678431  151.9808400560288 0.6017741899325835  151.9808400560288 0.7342662065645587  L 151.9808400560288 1.1338940989579886  Z " fill-rule="nonzero" fill="#ffffff" stroke="none" transform="matrix(1 0 0 1 370 694 )" />
  </g>
</svg>