<?xml version="1.0" encoding="utf-8"?>
<svg version="1.1" xmlns:xlink="http://www.w3.org/1999/xlink" width="310px" height="46px" xmlns="http://www.w3.org/2000/svg">
  <g transform="matrix(1 0 0 1 -615 -1123 )">
    <path d="M 116.95852130996059 44.316682683451695  L 116.876821120268 44.950364893687485  C 114.09739098474704 44.7919907869132  111.3140080659438 44.712385526305134  108.53004199216699 44.711645483849274  C 107.52292015696148 44.711645483849274  106.52915810120255 44.72496459255269  105.54926966256131 44.751602809959536  C 104.567839710907 44.77977784760138  103.54787193392588 44.81819835347663  102.48833865627604 44.869937968055304  C 102.32956281592989 44.869937968055304  102.23655819747465 44.77875330077805  102.21035247625245 44.59279805234183  C 102.18260524201723 44.40786735072896  102.25043181459222 44.28953219263319  102.41023533028049 44.23625575781951  C 104.05091901385761 43.760353758378066  105.11250764219156 43.12667154814228  105.58934900090108 42.33418458028878  C 106.0661903596106 41.54169761243529  106.30563871430745 40.30045913595886  107 38.60944460403617  L 107 23  L 82 23  L 82 38.768249361653865  C 81.90143236673109 42.09700199068556  83.62381624000086 43.92018306281911  87.0685839865405 44.23676803123117  C 87.22838750222871 44.23676803123117  87.30751850356629 44.34332090085853  87.30751850356629 44.5538652730549  C 87.30751850356629 44.765946465486294  87.22838750222871 44.87045024146697  87.0685839865405 44.87045024146697  L 84.60421851631315 44.87045024146697  C 83.86172308168459 44.87045024146697  83.0673300422827 44.89811300569715  82.21898404742339 44.94934034686415  C 81.63577829081204 44.94934034686415  80.96008175341649 44.96265945556756  80.19240827290787 44.98878539956274  C 79.42370711705713 45.01644816379292  78.74749674199059 45.028230452261326  78.16634633606334 45.028230452261326  L 76.17882222454553 45.028230452261326  C 75.48925207003236 45.028230452261326  74.79968191551926 45.00210450826615  74.11268094936123 44.94934034686415  C 73.90046599122861 44.94934034686415  73.64765785708525 44.93755805839574  73.35733957295716 44.91040756757724  C 73.10613047559606 44.88560906587739  72.85391530744691 44.87227603127494  72.60148435888193 44.87045024146697  C 72.44168084319371 44.87045024146697  72.34970390008054 44.778753300778035  72.32349817885833 44.5933103257535  C 72.29575094462311 44.40837962414062  72.36306367952714 44.290044466044854  72.52235335754432 44.23676803123117  C 73.36864400171955 44.07796327361346  74.0582141562327 43.90737622752735  74.5884946327286 43.72193325250282  C 75.11774743388254 43.53751482430162  75.51597162892548 43.27369401729157  75.78059802950247 42.92893401123766  C 76.04573826775048 42.585710825418744  76.21787388754323 42.14976615208757  76.29751872655181 41.62109999124412  C 76.3766497278894 41.093970650635704  76.4157013908872 40.40649973217456  77 39.56124860291904  L 77 5.80038168021902  C 76.4157013908872 4.638545582551445  75.95221981162423 3.7671685093007663  75.02474281542735 3.1857381870553114  C 74.0972658192305 2.6053324116331944  73.10453143881361 2.2882351698094623  72.04397048582167 2.2349587349957822  L 72.04397048582167 1.6012765247599852  C 74.26940143902321 1.7600812823776877  76.46811283333155 1.8394836611865377  78.6421600194307 1.8394836611865377  C 79.54291745673443 1.8394836611865377  80.4431610563671 1.8271890993064581  81.34546000668385 1.7995263350762776  C 82.24570360631647 1.773912664492778  83.14646104362019 1.7600812823776877  84.04773231859492 1.7600812823776877  L 85.71770474942034 1.7600812823776877  C 85.87648058976649 1.7600812823776877  85.95612542877511 1.866634152005048  85.95612542877511 2.07717852420142  C 85.95612542877511 2.289259716632803  85.87648058976653 2.3942757660251526  85.71770474942034 2.3942757660251526  C 84.76402203200124 2.3942757660251526  83.90180242002431 2.684734790442047  83.13412893951565 3.266165112687502  C 82.3649139459939 3.848107708344627  81.98159104341053 4.666208346781623  82 5.723028395056849  L 82 20  L 107 20  L 107 6.0396133634689075  C 106.30718022732034 4.7707121227623075  105.97524109183942 3.9659305930287294  105.31239049621942 3.6216828603864863  C 104.64902606292841 3.2789719479792545  103.842300919422 2.9751938148589394  102.88810436433187 2.710860734437217  C 102.68819381397569 2.6617637502138765  102.48929809254902 2.6086472459794416  102.29153882827403 2.5515437034078414  C 102.0935930820983 2.4958924743588824  101.89489046672018 2.4429525687122435  101.69548712988711 2.392738945790144  C 101.53619745186994 2.3399747843881316  101.46991239230792 2.2221518997040324  101.49714578887213 2.036196651267819  C 101.5228376724233 1.85177822306662  101.6148146155365 1.75905673555435  101.77564580656674 1.7590567355543443  C 105.30834906437497 1.9826809315282583  108.84931753803103 2.048659379396604  112.38793522620914 1.9567942724589722  C 113.47316038741015 1.9306683284638022  114.54605344450664 1.8912232757652128  115.60764207284055 1.8384591143631999  C 115.76641791318671 1.8384591143631999  115.85839485629991 1.9311806018754698  115.88614209053516 2.115599030076672  C 115.91234781175736 2.301042005101215  115.84657658986634 2.420401710020325  115.68677307417813 2.472141324598994  C 114.52036156095545 2.683710243618704  113.59288456475852 2.987488376739019  112.90485592325847 3.3829634505482633  C 112.21528576874532 3.779463071180848  111.8710145291598 4.638545582551445  112 5.958674164425046  L 112 38.451664393241806  C 111.8710145291598 40.24871952138019  112.26821104886078 41.595486320660626  113.06260408826262 42.49350161131815  C 113.85853864067757 43.39305372221068  115.15597876001111 43.9990731682163  116.95852130996059 44.316682683451695  Z M 162.33295684966532 44.553352999643224  C 161.4282230843269 44.97822012133584  160.48252982224864 45.310342041379094  159.51044652273484 45.54460205122471  C 158.56116221076445 45.778560031544735  157.5871756005582 45.89826087956416  156.60931903213782 45.90114434574703  C 155.01950527799198 45.90114434574703  153.58846736419238 45.611197594741796  152.31671912840991 45.02925499908467  C 151.04497089262745 44.448849223662556  149.90527893829798 43.70963869062275  148.89918477843455 42.81008657973022  C 147.89206294322904 41.912583562484365  146.9517400052566 40.88188945820433  146.07718828917513 39.71954108712508  C 145.20359315485288 38.558676903765885  144.36866629292695 37.36938445129691  143.57377115595003 36.153605868490175  C 142.82435356159982 35.03504547987858  142.04265110601582 33.93832210910152  141.22964370074214 32.864810565568725  C 140.40596191409193 31.782889120121688  139.50623215213025 30.804959177243646  138.52582987581803 29.932557557169623  C 137.54542759950579 29.060155937095608  136.48538048418484 28.361415003577715  135.3462023675264 27.832236569322607  C 134.20651041319695 27.304594955302505  132.92191623563892 27.039237328057432  131.49087832183923 27.039237328057432  L 130.21861624838579 27.039237328057432  C 129.84659777456494 27.039237328057432  129.44991509253504 27.092513762871118  129 27.19804208567514  L 129 38.45166439324181  C 129.0265128516119 39.984386440958474  129.48999443087487 41.292220460951995  130.41747142707172 42.374141906399046  C 131.34443458559758 43.4576001720811  132.5761034830402 44.077963273613484  134.11350579474168 44.236768031231186  L 134.11350579474168 44.87045024146698  C 132.90877899369542 44.76665170727342  131.70309011505455 44.6742675652713  130.49660242840935 44.59331032575351  C 129.29296628144385 44.51377993720505  128.08700336522662 44.4743129243584  126.88072673741894 44.47497516765774  C 125.66036226873882 44.47497516765774  124.48110481374054 44.528251602471414  123.34244053475315 44.63377992527543  C 122.20172090508157 44.74033279490279  121.02297728775434 44.871474788290314  119.80466816975832 45.029254999084685  C 119.64486465407008 45.08253143389837  119.5261681520637 45.01747271061628  119.44703715072613 44.831005188768394  C 119.36841998705957 44.64658676056719  119.40798548772838 44.5011011116529  119.56624749040353 44.39506051543722  C 120.67870604816876 43.8674189014171  121.60566920669466 43.07544420697528  122.34867847899419 42.01708733846506  C 123.08963240060963 40.960779563601506  123.46113703675944 39.8250694099291  124 38.608932330624505  L 124 6.989368268705102  C 123.46113703675944 5.774255736223847  123.02334734104767 4.704628852656875  122.14930946263715 3.779463071180848  C 121.2752715842267 2.855321836528156  120.22807041068135 2.233421914760771  119.00976129268534 1.916324672937039  C 118.85047161466817 1.8640727849466994  118.78367271743508 1.745737626850927  118.8103922763283 1.5602946518263843  C 118.83711183522156 1.375876223625182  118.9296026160057 1.2826424627012418  119.08837845635189 2  L 134.74912299379733 2  C 136.3913481903875 1.2826424627012418  138.00890917876856 1.4808922730175345  139.59872293291434 1.8768796202384461  C 141.18802284938914 2.272866967459361  142.5913135289535 2.894766889226746  143.81116415996266 3.739505745070585  C 145.02947327795863 4.584756874326092  146.00936171659993 5.693828810591654  146.75288482657052 7.067746100690608  C 147.49383874818602 8.442175664201237  147.86534338433577 10.079401487898568  147.86534338433577 11.981472665429301  C 147.86534338433577 14.517226053195822  147.16292728804706 16.9223497209865  145.7586089331406 19.192745481507966  C 144.3537767405631 21.465190335676116  142.77732276586391 23.420537948020524  141.0287331713719 25.05776377171785  C 141.61193892798326 25.69093370854198  142.24704228936793 26.497764331922227  142.93712628155214 27.474669727976934  C 143.66231467255258 28.503694696319158  144.4040495474097 29.521030379624307  145.16204339708267 30.52628244129515  C 146.37070177665103 32.16860329464162  147.60318536812196 33.79336386001505  148.85910544009468 35.400051679923585  C 150.15654555942828 37.06442799443943  151.52181225133697 38.569999551337574  152.9528501651366 39.917278624029684  C 154.38337424126522 41.26506997013347  155.8663097598382 42.32189001840869  157.4042259092107 43.08722649544368  C 158.94060054557013 43.853587519302  160.50472241616475 44.131239708427145  162.0940223326395 43.91967078940744  L 162.33295684966532 44.553352999643224  Z M 142.21826737979086 14.912701127005077  C 142.22083656814596 13.540832930552803  142.02300906480204 12.16742791386552  141.62427103208793 10.792998350354893  C 141.22810218772906 9.419593333667612  140.63102281400003 8.178354857191188  139.83662977459807 7.068258374102281  C 139.0514387507026 5.968111537625698  138.0507169737627 5.038051600391831  136.89490910799023 4.334255176019465  C 135.72849759476756 3.6206583135631485  134.37761835764752 3.2646282924524934  132.8402160459461 3.2646282924524934  C 132.20459884689043 3.2646282924524934  131.56846781016364 3.3040733451510835  130.93233677343696 3.3829634505482633  C 130.2999497360427 3.4615290851173883  129.68317806094265 3.6352884731623276  130 3.8983105026882914  L 130 23.631594593628563  C 130.00383210189804 23.79039935124627  130.87838381797957 23.896439947461953  131.7262159751678 23.948179562040615  C 132.5993784457313 24.001900775975454  133.47402060243306 24.02821050262934  134.3488434480703 24.027069667437807  C 137.3162559982294 24.027069667437807  139.36955133163812 23.222800411115895  140.50924328596764 21.609651437767052  C 141.6484214026261 19.99855155806488  142.21826737979086 17.766064030006998  142.21826737979086 14.912701127005077  Z M 201.75406913289504 24.423057014658717  C 201.75355529522403 27.488501110092027  201.12924252493085 30.32803263097887  199.88524152338368 32.94370067096591  C 198.63918517115238 35.55936871095296  196.98411403278666 37.817469909594344  194.91643124458926 39.71954108712508  C 192.84977613173385 41.62212453806747  190.45220955873958 43.10208242438212  187.72321768793532 44.15787792583401  C 184.993198141789 45.21521024752088  182.11930404775617 45.743364134952664  179.09845237981074 45.743364134952664  C 176.6058258376771 45.743364134952664  174.02276386544344 45.135807868712035  171.34772495009662 43.92018306281911  C 168.67384862550355 42.706851091877766  166.1956187944796 41.10421166028219  163.99419404008344 39.16474898228646  C 161.76824924921092 37.21145046358873  159.9266550362637 34.9917697708226  158.46889756357086 32.50826827104641  C 157.011140090878 30.02476677127023  156.2830321110381 27.515651600910555  156.2830321110381 24.979385939732353  C 156.2830321110381 21.12350397009222  156.64066313007027 17.807045902940605  157.3564390058056 15.033085378747527  C 158.072214881541 12.259124854554454  159.224238939975 9.909326715224132  160.81405269412082 7.979080500051559  C 162.4054079612797 6.050883378525654  164.4972411200152 4.4664217162303315  167.0946905470375 3.2246709663422393  C 169.69059846104676 1.983944763277488  172.8702259693384 0.9660574942891884  176.63357307191234 0.17305825302401825  L 177.66741446601102 0.09365587421516833  C 181.05874309476422 -0.1701649327948866  184.21165104416264 0.31905617534996844  187.12665215187735 1.5597823784147224  C 190.04062558425 2.801533128302814  192.58412205581484 4.5453118216275135  194.75868307958507 6.790093911565477  C 196.93118875267115 9.036412821738448  198.64021284649436 11.690501367600747  199.8862691987257 14.754408642799051  C 201.1307840379439 17.81882819140901  201.75406913289504 21.041540224225013  201.75406913289504 24.423057014658717  Z M 178 43.144088844139056  L 178 2.713422101495569  C 177.6457536499362 2.7235167204793322  176.98479232708317 2.767116108344797  176 2.84405182147142  L 176 42.85362981972217  C 176.96705372040637 42.99143136746141  177.62682129000015 43.087226495443694  178 43.144088844139056  Z M 183 42.93559356558936  L 183.04369801792689 42.935593565589365  C 184.45880696392481 42.68560414069441  185.76755151202093 42.26144175583163  186.9689039868732 41.66156959076606  C 189.0350452620575 40.63087548648602  190.76924740176085 39.258495016622064  192.17510726968032 37.539817720469195  C 193.57839794924473 35.82370179137468  194.6394727399077 33.829421399743346  195.35524861564298 31.55697654557521  C 196.06999681603625 29.28555623823041  196.4271139973974 26.88145711726308  196.4271139973974 24.345191456084876  C 196.4271139973974 21.757186180328006  196.042763419472 19.16866863115947  195.2756037766344 16.57861426175592  C 194.50690262078368 13.990608985999064  193.36721066645416 11.665399970428904  191.85755558898796 9.605036308692144  C 190.3479005115218 7.544672646955381  188.49089116844388 5.880296332439534  186.29269361180658 4.6119073651446  C 185.2727272261211 4.024550374578948  184.18084201882237 3.571184084914047  183 3.263091472217477  L 183 42.93559356558936  Z M 181 43.12103654061391  L 181 2.9567519720388193  C 181.0100619916936 2.8429994363278586  180.34873969763865 2.768925534009006  179 2.7349375847857056  L 179 43.206073926951134  L 179.81320058020395 43.206073926951134  C 180.4477901039176 43.206073926951134  181.0659368221585 43.17738661589762  181 43.12103654061391  Z M 175 42.49298933790648  L 175 3.0592066543728196  C 173.72884871761815 3.3040733451510835  172.5768246591841 3.6754715686118398  171.5054731151007 4.175450418401764  C 169.41209844335216 5.153892634691471  167.65014906941354 6.5011717073835875  166.21962499328492 8.218312183301446  C 164.7885870794853 9.935964932630974  163.68846062582455 11.916926215558886  162.92027330764486 14.161708305496846  C 162.15157215179414 16.40802721566982  161.76824924921087 18.798294954522056  161.76824924921087 21.334048342288593  C 161.76824924921087 23.976354599682477  162.1654457689118 26.592022639669526  162.96035264598473 29.179515642014714  C 163.75525952305762 31.768545464594915  164.9340031403849 34.10604904204516  166.49812501097952 36.19253864777709  C 168.06070536856112 38.28056507374402  169.95573869929473 39.970555058843374  172.18168349016722 41.26506997013347  C 173.059732064424 41.77559030826007  173.99188327967155 42.18741586818003  175 42.49298933790648  Z M 249.10832121905233 2.155556356186918  C 249.00247065882152 2.2078082441772575  248.93618559925955 2.221639626292348  248.90946604036614 2.1944891354738516  C 248.88274648147294 2.168363191478679  248.816461421911 2.18270684700544  248.71112469935127 2.2344464615841115  C 247.9178062149981 2.4631754080958808  247.13528603876256 2.7276086789148284  246.36596956880132 3.0269334294376082  C 245.54382929516422 3.3440306712613412  245.1348145090297 3.8988227760999585  245 4.691309743953458  L 245 23.790911624657934  L 245.21394551036732 27.04026187488077  C 245.21455790554765 30.065770177031936  245.16128166883402 33.091050802488304  245.0541419946791 36.114673089203244  C 244.9463489171623 39.1172727024721  244.7609632653597 42.116604496233  244.498169634632 45.10968192471687  C 244.498169634632 45.216234794344224  244.4308568997279 45.30793173503315  244.29880061827492 45.38682184043034  C 244.166230499151 45.46571194582752  244.0475339971446 45.453417383947446  243.94168343691376 45.347376787731754  C 241.39767312767788 43.1809725297793  238.85520433145498 40.84346895232907  236.31016634687708 38.33384150855771  C 233.75887961488039 35.817705343424635  231.2543515787536 33.25487804099092  228.79785959651775 30.64666669303762  C 226.33853700288753 28.03705922439336  223.9138684351457 25.39520592766095  221.5244873631842 22.721797014502624  C 219.21833817157892 20.143489229406697  216.93934307000927 17.54116828699288  214.68787715022034 14.915262494063414  C 214.0005437978209 14.18479447556294  213.3378386609168 13.431675438542534  212.7008668763736 12.657161295422032  C 212.06366669125936 11.88252392348584  211.40079199103275 11.12923609188737  210.7133427648559 10.39854782336899  C 210.55784334248668 11.766872257912478  210.47824862647514 13.142713045789868  210.47492208550105 14.519787420254172  C 210.47492208550105 16.52789919400059  210.50112780672325 18.53549869433534  210.55456692450963 20.542585921258425  C 210.606978366954 22.550697695004843  210.68610936829157 24.55829719533959  210.7929876038644 26.56538442226268  C 211.0058347484923 30.603734254027856  211.1118934057103 34.64697506411544  211.11105312222782 38.690896076491704  C 211.11105312222782 39.58993591397255  211.1906979612364 40.315315064897284  211.34947380158263 40.8701071697359  C 211.50927731727083 41.42489927457452  211.70710482061477 41.86135622131737  211.94552549996953 42.1784534631411  C 212.18394617932432 42.495038431553155  212.47426446345244 42.72043873268796  212.82007721605103 42.851580726075476  C 213.1638346179655 42.984259539698016  213.52095179932667 43.07698102721029  213.89297027314743 43.12872064178895  C 214.31688635174163 43.23527351141631  214.7397747549937 43.353608669512084  215.16574618427197 43.48526293631127  C 215.588634587524 43.6179417499338  216.09168166745576 43.895081665647275  216.67540126173807 44.31719495686337  C 216.78125182196894 44.42323555307905  216.81978964729566 44.54157071117483  216.79409776374447 44.674249524797354  C 216.7668643671803 44.806416065008214  216.67540126173807 44.87198706170197  216.5150839083789 44.87198706170197  C 215.985831107225 44.81922290029997  215.4683965725046 44.76748328572129  214.96534949257284 44.712670030672605  C 214.46127473729914 44.66093041609393  213.94486787792079 44.60765398128026  213.41407356375382 44.55437754646657  C 212.66213692489 44.44830422741959  211.90666325145804 44.368851908593044  211.1490771098835 44.31617041004002  C 210.3950362794694 44.264011616713695  209.63942036036858 44.237699390404146  208.88356681834225 44.23728030464284  C 207.89972271691664 44.23981460919842  206.91708186658585 44.306037199398226  205.9418461517343 44.43553011495913  C 204.93472431652876 44.56872120199333  203.9276024813233 44.712670030672605  202.9209944837888 44.87198706170197  C 202.76221864344268 44.925263496515655  202.64352214143628 44.87198706170197  202.5643911400987 44.712670030672605  C 202.48474630109013 44.55437754646657  202.49707840519466 44.42323555307905  202.60344280309653 44.317194956863354  C 203.02684504401964 43.94784582704928  203.411195621945 43.656874529220715  203.7564945368726 43.44581788361267  C 204.07957692604953 43.24654247135098  204.41113976829467 43.06126844433731  204.75025659263144 42.89051350536239  C 205.38535995401617 42.57392853695033  205.95520593118093 42.13747159020748  206.45928068645466 41.583191758780536  C 206.96232776638644 41.02839965394192  207.21462206285878 40.14370347198781  207 38.92756639268323  L 207 1.8389713877748506  L 207.85023926191454 0.570070147068251  C 207.9031645420299 0.46454182426422846  207.98229554336746 0.38616399227871634  208.0891737789403 0.3323752840533687  C 208.19451050150008 0.28012339606302916  208.27364150283768 0.30624934005819604  208.3275944582952 0.41126538945055396  C 213.96929076411453 6.241007718225709  219.56073534885508 12.118878225414583  225.10131139117684 18.044228492543798  C 230.64166958364524 23.976810597450964  236.12660970146933 29.960593158862963  241.55542129268207 35.994801110872444  L 241.55542129268207 35.75710624785757  C 241.55542129268207 33.32739345630674  241.54206151323552 30.922269788516054  241.5158557920133 28.54532115836724  C 241.4886223954491 26.167860254806744  241.44905689478026 23.73814746325591  241.39664545233597 21.25464596347972  C 241.3432063345495 18.98322565613492  241.2897672167631 16.56683197328751  241.23786961198974 14.003415821290798  C 241.18443049420333 11.441536489529103  241.15873861065222 9.02411825985835  241.15873861065222 6.752185679101872  C 241.15873861065222 5.854682661856024  241.064706316855 5.127766690696289  240.87972475528656 4.572974585857675  C 240.69422935604723 4.01818248101906  240.44244889724584 3.5955569163913053  240.1243833788825 3.3040733451510724  C 239.80683169819008 3.0146388675575206  239.4610189455915 2.8169013306528985  239.09105582245488 2.710348461025538  C 238.72576612034194 2.6064597989464926  238.35395647310162 2.526882163662786  237.97808342701845 2.472141324598983  C 237.5907289098877 2.4259379434667223  237.2060344133164 2.3597660533859477  236.8255455309134 2.2738915142826905  C 236.47757392184283 2.1933500996841704  236.16022513769124 2.014617888897043  235.91142831416312 1.7590567355543356  C 235.80506391626133 1.6535284127503131  235.79273181215672 1.5213618725394533  235.87237665116533 1.3625571149217508  C 235.9520214901739 1.2042646307157212  236.04399843328707 1.1525250161370493  236.15087666885995 1.2042646307157212  C 237.369185786856 1.3625571149217508  238.50733622817245 1.4419594937306006  239.56789718116434 1.4419594937306006  L 242.90681436747317 1.4419594937306006  C 243.59587068431526 1.4419594937306006  244.297772942933 1.4301772052621888  245.0140626563393 1.402514441032011  C 245.7428724025909 1.3772271631025879  246.47251369413388 1.3903939109290075  247.19992810887206 1.4419594937306006  C 247.46558218479112 1.4419594937306006  247.75641430659022 1.4557908758456912  248.0739659872826 1.4819168198408663  C 248.36478971444842 1.5074313960266088  248.65657110071805 1.5205916608185444  248.94851770336405 1.5213618725394533  L 249.10832121905233 2.155556356186918  Z M 279.63901411823826 37.18429997277024  C 279.3850430995996 38.35150182787367  279.17422710334336 39.52762307050534  279.0069937828797 40.71027786529485  C 278.8425892847964 41.885034731070284  278.6836404621466 43.06054404821247  278.5301524241702 44.23676803123117  C 278.5301524241702 44.396085062260546  278.4227603509264 44.474975167657725  278.21208690580687 44.474975167657725  L 278.13244206679826 44.5538652730549  C 277.708012150533 44.71215775726093  277.36374091094746 44.79156013606979  277.09911451037055 44.79156013606979  C 275.8797777170325 44.79156013606979  274.6475949819188 44.78029012101305  273.4025663050295 44.75211508337119  C 272.1707334782465 44.725628350153194  270.93865122066774 44.71230847602232  269.7065319373596 44.71215775726093  C 268.64648482203876 44.71215775726093  267.61264342794004 44.70037546879252  266.6070631057475 44.67373725138569  C 265.5739630282478 44.64650922211897  264.54054128177313 44.63318889934991  263.50708043646455 44.63377992527542  C 262.076042522665 44.63377992527542  260.6311309917476 44.646586760567175  259.1738873567258 44.67373725138569  C 257.71561604636196 44.70037546879252  256.27275986612887 44.740332794902784  254.84172195232912 44.79156013606979  L 254.84172195232912 44.15787792583399  C 255.63611499173106 44.15787792583399  256.28509197023334 43.98677860633621  256.789166725507 43.64201860028229  C 257.27997284939204 43.31273969403143  257.67686786169696 42.86234156484528  257.9411907839411 42.334696853700436  C 258.2063310221891 41.80705523968033  258.37898047965285 41.21230580873146  258.4581114809904 40.55147310767716  C 258.537756319999 39.892177226857854  258.5768079829968 39.21802541710013  258 38.53157904546232  L 258 5.562686817204135  C 258.5768079829968 4.506379042340586  258.32554136186644 3.8199326707027788  257.8214666065927 3.5028354288790466  C 257.30830406921007 3.181063701757342  256.76185095466275 2.9153671515859036  256.191573514107 2.7103484610255495  L 255.11868045701053 2.3532938930915543  C 254.72199777498062 2.2221518997040324  254.30989996282005 2.0233898159760724  253.887525397239 1.75905673555435  C 253.78064716166617 1.6535284127503276  253.74056782332642 1.534680981242885  253.76831505756167 1.4025144410320278  C 253.7945207787838 1.271372447644506  253.887525397239 1.2042646307157354  254.0463012375852 2  L 276.70191799066953 2  C 276.91259143578907 1.0987363079117127  277.1402215240524 1.0060148203994428  277.3771006903941 0.9266124415905901  C 277.60882356126587 0.8506144192740591  277.83465858052125 0.7578159749915139  278.0527972277896 0.6489602524654475  C 278.3179374660376 0.5439442030730982  278.44999374749057 0.6489602524654475  278.4499937474907 0.9660574942891798  C 278.30321936479623 2.254750678286473  278.1042013973794 3.5369953056520096  277.8534282114327 4.8096449020492305  C 277.61500753207787 5.998119217123642  277.36271323560544 7.200424914313147  277.09808683502854 8.415537446794396  C 277.04464771724207 8.574342204412101  276.9254373775648 8.640425474517532  276.7404558159964 8.61378725711069  C 276.554446579086 8.58766131311552  276.4619557983018 8.495452099014916  276.4619557983018 8.336135067985543  C 276.3555914004 6.487340325268497  275.7194603636732 5.2732523396105835  274.5545903634636 4.6902851971301205  C 273.3876650125699 4.109367148296333  271.95662709877024 3.818908123879441  270.26199045973567 3.818908123879441  L 264 3.818908123879441  L 264 20.06565937499366  L 273.2021696133305 20.06565937499366  C 273.46679601390747 20.06565937499366  273.8120949288351 19.986769269596486  274.23601100742917 19.8274522385671  L 275.50827308088265 19.35206251253734  C 276.06130199425553 19.047180969352933  276.6481356934584 18.80769499285285  277.25686267537463 18.638465650081017  C 277.5214890759516 18.53344960068867  277.65354535740454 18.638465650081017  277.65354535740454 18.955050618493082  C 277.6001062396181 19.58873282872888  277.5343350177272 20.276716020601693  277.4552040163896 21.015414280229834  C 277.38207197252007 21.704706303671543  277.2892007424366 22.391774510233176  277.176703998695 23.07577794196661  C 277.0671481877371 23.732308578017463  276.98776299565236 24.393490315237152  276.93879715701127 25.057251498306183  C 276.8874942295615 25.720687925702727  276.8076043429552 26.381618640658427  276.6993488023145 27.0382127812341  C 276.6993488023145 27.197017538851803  276.6325499050814 27.303570408479167  276.50049362362853 27.355310023057832  C 276.3679235045045 27.408586457871515  276.2481993271562 27.382460513876346  276.14234876692535 27.27590764424899  C 275.87720852867733 27.012086837238932  275.7055867465556 26.74877830364055  275.6264557452181 26.483420676395486  C 275.5374087400759 26.191772343703693  275.4445675774357 25.901288841230873  275.34795572752347 25.612043603144812  C 275.24056365427964 25.29545863473275  275.13574076939085 24.978361392909015  275.0298902091601 24.661264151085284  C 274.9230119735873 24.34416690926155  274.7385442496899 24.05422015825633  274.4734040114419 23.789887077834614  C 274.20723609785193 23.52606627082456  273.71857647270883 23.328328733919932  273.0028005969736 23.195137646885726  C 272.2396558702809 23.056954143661894  271.47093929388353 22.95132956435085  270.69875248010544 22.87855267847367  C 269.89267876580806 22.800451415228995  269.0833098930835 22.760960940542326  268.27343867287584 22.760217520377903  L 264 22.760217520377903  L 264 39.08585887688929  C 264.8548766475584 40.24923179479187  265.9801811470993 41.13392797674598  267.43793861979213 41.740971969574936  C 268.89518225481396 42.34955278263891  270.31234655149603 42.65230636893587  271.6899453475092 42.65230636893587  C 273.544385502232 42.65230636893587  275.1218671522732 42.16410980761435  276.41982110927785 41.186179864736324  C 277.7177750662825 40.20927446868163  278.57845316524634 38.82255034329092  279.0033969191826 37.02549521515254  L 279.63901411823826 37.18429997277024  Z M 309.80077156962966 33.29921841866487  C 309.79974389428764 35.1500622550286  309.3090289184604 36.84056451353962  308.3286266421482 38.372262014432955  C 307.348738203507 39.904984062149616  306.1037095266177 41.21230580873147  304.5930267738096 42.295764074413526  C 303.08285785867236 43.37871006668392  301.4133992655179 44.225498016174434  299.5846509943463 44.83100518876838  C 297.75538888550375 45.439586001832346  296.0196452327873 45.74233958812932  294.3779338738681 45.74233958812932  C 293.5825131591242 45.74233958812932  292.7480407813825 45.65013037402872  291.87451674064306 45.46468739900418  C 290.9994511868905 45.28026897080297  290.20454430981755 44.977515384506006  289.48876843408226 44.5538652730549  C 288.77247872067585 44.131751981838825  288.1892729640645 43.59027898570362  287.7396650019192 42.92893401123766  C 287.28954320210295 42.26861358359501  287.0644823021948 41.43719383645459  287.0644823021948 40.43262567616971  C 287.0644823021948 39.798431192522244  287.1312811994278 39.163724435463116  287.2633374808807 38.530554498638985  C 287.3959076000047 37.8968722884032  287.51460410201116 37.28982829557423  287.6214823375839 36.70686115309377  L 288.01816501961383 34.80530224897471  C 288.01816501961383 34.646497491357  288.12401557984464 34.56709511254815  288.3362305379772 34.56709511254815  C 288.5474178207677 34.56709511254815  288.65480989401163 34.646497491357  288.65480989401163 34.80530224897471  L 288.65480989401163 35.993776564049114  C 288.65480989401163 37.10336077372635  288.89271673569533 38.08180299001605  289.3695580944049 38.92602957244823  C 289.8362308279955 39.76063991394683  290.45666542332583 40.499975105175885  291.1983063655765 41.105240665692435  C 291.93977412486294 41.713821478756394  292.80096606149783 42.16257298737933  293.7813683378102 42.45354428520788  C 294.7612567764515 42.743491036213115  295.75553266988135 42.88897668512738  296.7631683427578 42.88897668512738  C 297.71685106017696 42.88897668512738  298.69725333648927 42.73068420092136  299.70488900936573 42.414099232509294  C 300.69029398444275 42.107212200031576  301.6173445852137 41.63834548287605  302.44775449728763 41.0268628337069  C 303.2621327559332 40.426507420889685  303.95048158502823 39.67272525241222  304.4738164341321 38.80820668776413  C 305.00204155994396 37.93631734110178  305.26872331120506 36.97273105375049  305.26872331120506 35.91539873206361  C 305.26872331120506 34.91236739201373  305.03030263185025 33.92163061384394  304.5529474354697 32.9437006709659  C 304.0761060767602 31.966795274911203  303.43997504003346 30.976058496741413  302.6450681629606 29.972002609868206  C 301.8031637488288 28.916827920771127  300.9005463507443 27.911252304913894  299.94176817570747 26.960347222660236  C 298.92103257673534 25.943834857442315  297.88779819520227 24.93987383687805  296.8422993440954 23.948691835452273  C 295.72252964567144 22.88577329432876  294.6095348543933 21.8157833646621  293.5033821577865 20.738786637928015  C 292.39040976235026 19.656352919069295  291.408979810696 18.547280982803738  290.5616614911787 17.41003400889632  C 289.7138293339904 16.2748361286356  289.02477301714833 15.125294592848107  288.4950063783233 13.96294622176886  C 287.96523973949843 12.801110124101289  287.7006133389214 11.613148082438542  287.7006133389214 10.39701100313395  C 287.7006133389214 8.602004968642255  288.20366041885313 7.05647608563385  289.21078225405864 5.760424354108735  C 290.216362576251 4.466933989641973  291.46293276615336 3.410113941366751  292.94689596006833 2.590476482694741  C 294.4293176409703 1.7723758442577418  296.0463647916804 1.1637950311937795  297.79598206151445 0.7678076839728618  C 299.5445716560064 0.3713080633402769  301.16110496904537 0.17305825302398714  302.64558200063146 0.17305825302398714  C 304.7646485559312 0.17305825302398714  306.7002750626756 0.4379036068573799  308.4483508194966 0.9655452208774812  C 308.60815433518485 1.0720980905048416  308.68779917419346 1.1771141398971938  308.68779917419346 1.282130189289546  C 308.4646934674454 3.9605991699367444  308.1466002513868 6.630359871712086  307.7341164567743 9.286402246633376  C 307.6806773389879 9.444694730839409  307.5737991034151 9.524609383059936  307.41605093841093 9.524609383059936  C 307.2562474227227 9.524609383059936  307.1498830248209 9.444694730839416  307.09798542004756 9.286402246633376  C 306.6735555037824 7.437607503916331  305.8658026849339 5.852633568209331  304.67318545048903 4.531480439512392  C 303.4815958913862 3.211351857638788  301.90308656600286 2.55000688317281  299.9433096887204 2.55000688317281  C 297.92906601830936 2.55000688317281  296.2472753210504 3.197520475523698  294.89639608393037 4.491523113402129  C 293.5450030091393 5.787062571515569  292.86930647174376 7.437095230504657  292.86930647174376 9.444182457427742  C 292.86930647174376 10.502027052526298  293.09436737165197 11.478932448581  293.5450030091393 12.376947739238522  C 293.9940971336136 13.276499850131051  294.578330565567 14.147876923381723  295.2925649282892 14.992103505813903  C 296.0093684793666 15.837866908481073  296.84384085710826 16.669798929033167  297.7975235745274 17.488411840881835  C 298.77262090727316 18.327076941440783  299.7532154794733 19.15936831574577  300.7392442411352 19.985232449361433  C 301.8634042585796 20.8940427071219  302.96339710910604 21.832168848155852  304.0380820891043 22.798638026253112  C 305.0928910994722 23.743487911399683  306.06356643520013 24.77771117270338  306.93920957970136 25.889695792269933  C 307.77114684210505 26.94724133104757  308.4655446865702 28.105465707323006  309.0058646925567 29.336783579397395  C 309.53408981836856 30.55292065870198  309.80077156962966 31.872536967163917  309.80077156962966 33.29921841866487  Z M 25.96506349914439 26.110997906111393  C 25.96506349914439 27.852215232377738  25.61051550613836 29.466388752549914  24.902961033139416 30.952493919804606  C 24.195406560140434 32.438086813647615  23.25456978449694 33.72184398329265  22.078909193195866 34.80376542873971  C 20.90479011490782 35.884662327363415  19.541578773683245 36.72479072250222  17.990302844864168 37.32568743439114  C 16.43799924070307 37.926584146280064  14.805536959862335 38.227288638930354  13.087777625631734 38.227288638930354  C 11.6721548419628 38.227288638930354  10.203606778178452 37.88201635946476  8.68367494729176 37.1914718005336  C 7.163876848357638 36.50195826942914  5.7553046696415535 35.59108994456159  4.504119331188956 34.48871728056266  C 3.2390509851298246 33.37862079747376  2.1918498115845133 32.116891384530525  1.3645711612371272 30.705578135379664  C 0.5362648355476998 29.294264886228802  0.12211167270302019 27.867583434727834  0.12211167270302019 26.426558327700107  C 0.12211167270302019 24.234540399164164  0.3255913904282151 22.349374244218545  0.7325508258785823 20.772596683098264  C 1.1395102613289494 19.196331395389663  1.7941394542125186 17.860322337754283  2.6974660798713535 16.76456951019214  C 3.601820380872185 15.668304409218328  4.790840751619912 14.767727751502463  6.267096380469583 14.062327263632865  C 7.742324333977212 13.356926775763265  9.549491422965847 12.77857009398783  11.688597647435463 12.327769491718222  L 12.276427943086047 12.28268943149126  C 14.203319209423082 12.133105595283622  15.996098843623045 12.410757784408764  17.65322533267291 13.115645998866697  C 19.284993020331257 13.805022029044844  20.760003743749905 14.81638597964236  21.989501438437788 16.088880880199405  C 23.22425336190657 17.365978495492726  24.195406560140434 18.874623692860887  24.903474870810427 20.61584101912724  C 25.61051550613836 22.35705834539359  25.96506349914439 24.1894603389372  25.96506349914439 26.110997906111393  Z M 13 36.750404393085724  L 13 13.770843692392633  C 12.253305247890037 13.777503246744343  11.878717585714051 13.802604643916164  12 13.84563561049645  L 12 36.58545235452797  C 11.878203748043042 36.66280563969015  12.25330524788999 36.718131168150514  13 36.750404393085724  Z M 16 36.63155696157828  L 15.330679059648007 36.63155696157828  C 16.10564081474611 36.49939035592391  16.857201465824186 36.255557485309566  17.561762227230794 35.90771463088857  C 18.736395143189853 35.32064930111474  19.722449633883393 34.54148144196466  20.520953374653484 33.56508831932163  C 21.318943277752517 32.58971974350195  21.922188703533745 31.45605868347622  22.329148138984138 30.164617412656135  C 22.735593736763516 28.87317614183606  22.939073454488714 27.50694295291215  22.939073454488714 26.06489329906109  C 22.939073454488714 24.5941563341565  22.720692444303836 23.122907095840247  22.283930423934134 21.651657857523993  C 21.847168403564385 20.18040861920774  21.19973293807513 18.85874321709913  20.341624027466413 17.6876861980215  C 19.49889761837621 16.530858530131347  18.421301144835493 15.56388687492354  17.17895316231857 14.849691497369669  C 16.598676515644907 14.516400858382667  15.9778428624593 14.25883765129657  16 14.083330473511333  L 16 36.63155696157828  Z M 15 36.736573010970645  L 15 13.909157513543535  C 14.176005757159738 13.844997900694702  13.800414857718621 13.802917459826045  14 13.78313825427272  L 14 36.785238985079296  L 13.495764736424096 36.785238985079296  C 13.856992619153429 36.785238985079296  14.208457586133312 36.769358509317506  15 36.736573010970645  Z M 11 36.38003071644831  L 11 13.96806895588558  C 10.05991973760058 14.099706612097835  9.400836364757755 14.312654585927294  8.774624215062866 14.602263439533045  C 7.58457616897312 15.158592364606676  6.583620385819876 15.924441115053334  5.770215352590151 16.899297417461348  C 4.956810319360403 17.87517826669271  4.330956036054152 19.00166749895505  3.895221691026467 20.27722829401336  C 3.457945832985709 21.553301362483346  3.240078660471866 22.912362723643877  3.240078660471866 24.353900104083255  C 3.240078660471866 25.85588574709972  3.466167235722085 27.341478640942732  3.9183443862225005 28.81221560584732  C 4.3694938613808745 30.28397711757524  5.040052022066165 31.612814347447227  5.92847735526532 32.79821502205163  C 6.797729439903823 33.968000558433225  7.896913300631438 34.948973088986584  9.158974792988209 35.68128978293042  C 9.65792245092246 35.97177145181397  10.187680704618467 36.20612099636808  11 36.38003071644831  Z " fill-rule="nonzero" fill="#ffffff" stroke="none" transform="matrix(1 0 0 1 615 1123 )" />
  </g>
</svg>