<?xml version="1.0" encoding="utf-8"?>
<svg version="1.1" xmlns:xlink="http://www.w3.org/1999/xlink" width="23px" height="31px" xmlns="http://www.w3.org/2000/svg">
  <g transform="matrix(1 0 0 1 -477 -11262 )">
    <path d="M 4.7409999999999854 0.20872727272725652  C 6.033999999999992 2.5673454545454577  7.32650000000001 4.925963636363601  8.61949999999996 7.2845818181818025  C 9.786999999999978 9.41512727272723  10.935999999999979 11.557381818181817  12.132999999999981 13.670618181818156  C 13.454000000000008 16.00225454545454  14.777499999999975 18.33338181818179  16.18349999999998 20.61359999999999  C 16.83499999999998 21.67047272727273  17.502499999999998 22.717163636363605  18.228499999999997 23.72312727272724  C 18.687000000000012 24.358472727272716  19.37149999999997 25.05134545454544  19.612000000000023 25.827199999999984  C 19.77600000000001 26.356145454545434  19.474000000000046 26.770036363636336  19.062000000000012 27.079054545454504  C 18.459000000000003 27.531636363636327  17.653500000000008 27.768363636363617  16.924000000000035 27.528581818181795  C 16.45300000000003 27.373818181818173  16.045000000000016 27.06123636363634  15.676500000000033 26.73338181818179  C 14.819500000000005 25.9717818181818  14.07200000000006 25.068145454545448  13.357500000000016 24.170109090909076  C 11.763500000000022 22.16734545454546  10.319999999999993 20.04850909090908  8.928500000000042 17.896581818181815  C 7.572500000000048 15.799127272727269  6.286000000000058 13.655854545454522  5.045500000000061 11.485600000000018  C 3.7240000000000464 9.173818181818172  2.4330000000000496 6.845745454545456  1.1720000000000823 4.4993454545454945  C 0.8695000000000732 3.936800000000031  0.5675000000001091 3.3742545454545674  0.26500000000010004 2.8117090909091034  " stroke-width="2" stroke="#ffffff" fill="none" transform="matrix(1 0 0 1 478 11263 )" />
  </g>
</svg>