<?xml version="1.0" encoding="utf-8"?>
<svg version="1.1" xmlns:xlink="http://www.w3.org/1999/xlink" width="37px" height="50px" xmlns="http://www.w3.org/2000/svg">
  <g transform="matrix(1 0 0 1 -839 -18114 )">
    <path d="M 8.533799999999973 0.3652727272726989  C 10.861199999999984 4.492854545454551  13.187700000000019 8.620436363636301  15.515099999999928 12.748018181818155  C 17.61659999999996 16.47647272727265  19.684799999999964 20.22541818181818  21.839399999999966 23.923581818181773  C 24.217200000000016 28.003945454545445  26.599499999999953 32.08341818181813  29.130299999999966 36.073799999999984  C 30.302999999999965 37.92332727272728  31.504499999999997 39.75503636363631  32.811299999999996 41.515472727272666  C 33.63660000000002 42.62732727272725  34.86869999999994 43.83985454545452  35.30160000000004 45.19759999999997  C 35.59680000000002 46.12325454545451  35.05320000000008 46.84756363636359  34.31160000000002 47.38834545454538  C 33.226200000000006 48.18036363636357  31.776300000000017 48.594636363636326  30.46320000000006 48.175018181818146  C 29.615400000000054 47.904181818181804  28.88100000000003 47.357163636363595  28.21770000000006 46.783418181818135  C 26.67510000000001 45.45061818181815  25.32960000000011 43.86925454545453  24.043500000000027 42.29769090909088  C 21.17430000000004 38.79285454545455  18.57599999999999 35.08489090909089  16.071300000000075 31.319018181818176  C 13.630500000000085 27.648472727272722  11.314800000000105 23.897745454545415  9.08190000000011 20.09980000000003  C 6.703200000000083 16.0541818181818  4.379400000000089 11.980054545454548  2.1096000000001482 7.873854545454615  C 1.5651000000001318 6.889400000000054  1.0215000000001966 5.9049454545454925  0.4770000000001801 4.9204909090909315  " stroke-width="1" stroke="#ffffff" fill="none" transform="matrix(1 0 0 1 839 18114 )" />
  </g>
</svg>