<?xml version="1.0" encoding="utf-8"?>
<svg version="1.1" xmlns:xlink="http://www.w3.org/1999/xlink" width="18px" height="26px" xmlns="http://www.w3.org/2000/svg">
  <g transform="matrix(1 0 0 1 -470 -11267 )">
    <path d="M 0.20999999999997954 4.410000000000025  C 1.9704999999999586 7.963999999999999  3.7274999999999636 11.531000000000008  5.784999999999968 14.9255  C 6.737999999999943 16.497500000000002  7.75449999999995 18.05000000000001  8.964999999999975 19.437999999999988  C 10.030499999999961 20.65949999999998  11.294499999999971 21.798999999999978  12.847999999999956 22.342499999999973  C 13.402999999999963 22.53649999999999  14.99249999999995 22.971499999999992  14.708999999999946 21.85749999999996  C 14.561999999999955 21.28049999999996  14.199499999999944 20.73849999999993  13.90199999999993 20.23199999999997  C 13.368999999999915 19.324499999999944  12.825999999999908 18.422999999999945  12.31349999999992 17.503499999999974  C 11.330999999999904 15.740499999999999  10.456499999999892 13.92149999999998  9.581999999999937 12.103499999999997  C 7.740999999999929 8.274000000000001  5.997999999999934 4.394499999999994  4.2094999999999345 0.5394999999999754  C 4.144499999999937 0.3990000000000009  4.078999999999951 0.25849999999996953  4.013999999999953 0.11849999999998317  " stroke-width="2" stroke="#ffffff" fill="none" transform="matrix(1 0 0 1 471 11268 )" />
  </g>
</svg>