<?xml version="1.0" encoding="utf-8"?>
<svg version="1.1" xmlns:xlink="http://www.w3.org/1999/xlink" width="28px" height="42px" xmlns="http://www.w3.org/2000/svg">
  <g transform="matrix(1 0 0 1 -827 -18122 )">
    <path d="M 0.37799999999996314 7.861304347826131  C 3.546899999999926 14.196695652173911  6.7094999999999345 20.55526086956523  10.412999999999943 26.60632608695652  C 12.128399999999896 29.408586956521745  13.958099999999911 32.17608695652176  16.136999999999954 34.650347826086936  C 18.05489999999993 36.82780434782605  20.330099999999945 38.8590869565217  23.12639999999992 39.827934782608644  C 24.12539999999993 40.1737608695652  26.986499999999907 40.9491956521739  26.476199999999906 38.96336956521732  C 26.21159999999992 37.93480434782602  25.559099999999898 36.96863043478248  25.023599999999874 36.06573913043473  C 24.064199999999847 34.44802173913033  23.086799999999833 32.8409999999999  22.164299999999855 31.201891304347782  C 20.395799999999824 28.05915217391304  18.821699999999808 24.816586956521704  17.24759999999989 21.57580434782608  C 13.933799999999872 14.74930434782609  10.796399999999881 7.833673913043468  7.577099999999882 0.961717391304304  C 7.460099999999886 0.711260869565219  7.342199999999912 0.46080434782603263  7.225199999999917 0.21123913043475262  " stroke-width="1" stroke="#ffffff" fill="none" transform="matrix(1 0 0 1 827 18122 )" />
  </g>
</svg>