<?xml version="1.0" encoding="utf-8"?>
<svg version="1.1" xmlns:xlink="http://www.w3.org/1999/xlink" width="110px" height="8px" preserveAspectRatio="xMinYMid meet" viewBox="480 18111  110 6" xmlns="http://www.w3.org/2000/svg">
  <g transform="matrix(0.45399049973915545 0.8910065241884638 -0.8910065241885381 0.4539904997395854 16431.80726179073 9413.727597276322 )">
    <path d="M 47.69866666666667 0.8656952380952243  C 45.25688888888888 5.651638095238085  42.80266666666666 10.427733333333356  40.30222222222223 15.183238095238128  C 37.811555555555564 19.919047619047618  35.22666666666666 24.60203809523809  32.662222222222226 29.29845714285722  C 30.906666666666673 32.51236190476201  29.151111111111124 35.72268571428584  27.35111111111112 38.91152380952394  C 23.899555555555555 45.02510476190485  20.448000000000018 51.139580952381074  16.996444444444453 57.25316190476209  C 14.545777777777781 61.59327619047633  12.06222222222224 65.91638095238115  9.644444444444463 70.27619047619068  C 7.326222222222238 74.45605714285733  5.112000000000029 78.71470476190501  3.168888888888912 83.08615238095256  C 2.2160000000000206 85.23114285714298  1.2684444444444631 87.42358095238114  0.6755555555555727 89.70196190476206  C 0.4435555555555766 90.59272380952397  0.12800000000000483 91.75295238095259  0.5422222222222344 92.64281904761918  C 1.2417777777777954 94.14502857142871  2.851555555555579 93.85139047619063  3.9093333333333553 92.96062857142873  C 5.375111111111134 91.72609523809537  6.468444444444458 90.0090285714287  7.564444444444462 88.45400000000016  C 9.058666666666694 86.33586666666685  10.491555555555578 84.17386666666687  11.905777777777782 82.00112380952399  C 14.721777777777788 77.67443809523832  17.417777777777776 73.26807619047638  20.080000000000002 68.84380952380971  C 20.70133333333335 67.81070476190494  21.323555555555558 66.7784952380954  21.944888888888904 65.74539047619065  " stroke-width="1" stroke="#ffffff" fill="none" transform="matrix(1 0 0 1 512 18067 )" />
  </g>
</svg>