<?xml version="1.0" encoding="utf-8"?>
<svg version="1.1" xmlns:xlink="http://www.w3.org/1999/xlink" width="30px" height="56px" xmlns="http://www.w3.org/2000/svg">
  <g transform="matrix(1 0 0 1 -291 -11236 )">
    <path d="M 26.8305 0.4881047619047541  C 25.456999999999994 3.186561904761899  24.076499999999996 5.879466666666679  22.67 8.560761904761923  C 21.269000000000005 11.230952380952381  19.814999999999998 13.871361904761901  18.372500000000002 16.519342857142902  C 17.385000000000005 18.331438095238155  16.397500000000008 20.141514285714354  15.385000000000005 21.939476190476263  C 13.4435 25.38649523809529  11.50200000000001 28.834019047619115  9.560500000000005 32.2810380952382  C 8.182000000000002 34.728123809523886  6.785000000000011 37.16561904761916  5.425000000000011 39.62380952380963  C 4.121000000000009 41.980542857142964  2.8755000000000166 44.381695238095375  1.782500000000013 46.846447619047716  C 1.2465000000000117 48.05585714285722  0.7135000000000105 49.292019047619156  0.38000000000000966 50.57663809523819  C 0.24950000000001185 51.07887619047628  0.07200000000000273 51.73304761904774  0.3050000000000068 52.23478095238103  C 0.6985000000000099 53.08177142857151  1.6040000000000134 52.91620952380961  2.1990000000000123 52.413971428571514  C 3.0235000000000127 51.71790476190484  3.638500000000008 50.7497714285715  4.25500000000001 49.87300000000009  C 5.0955000000000155 48.67873333333343  5.901500000000013 47.459733333333446  6.697000000000003 46.23467619047629  C 8.281000000000006 43.795161904762026  9.7975 41.310723809523914  11.295000000000002 38.81619047619058  C 11.644500000000008 38.23369523809534  11.994500000000002 37.65170476190486  12.344000000000008 37.069209523809626  " stroke-width="2" stroke="#ffffff" fill="none" transform="matrix(1 0 0 1 292 11237 )" />
  </g>
</svg>