<?xml version="1.0" encoding="utf-8"?>
<svg version="1.1" xmlns:xlink="http://www.w3.org/1999/xlink" width="80px" height="87px" xmlns="http://www.w3.org/2000/svg">
  <defs>
    <mask fill="white" id="clip445">
      <path d="M 7.490229396771452 1.1591417517653024  C 6.620220900594731 0.25552587451638414  5.559898045879353 -0.12494396853578896  4.4180118946474085 0.06529095299030338  C 2.501274426508071 0.3846138569805236  0.49617672047578587 2.300551280921822  0.10195412064570944 4.1961063918424655  C -0.17672047578589634 5.54813315554572  0.14953271028037382 6.560454702238112  1.223449447748513 7.627129083652245  C 1.9507221750212402 8.347304143715283  2.745964316057774 8.897626595272891  3.9966015293118096 9.52947829891311  C 4.791843670348343 9.930330454985938  5.056924384027187 10.106977167831586  5.444350042480883 10.473858802203328  C 5.824978759558198 10.840740436575055  5.913338997451146 10.963034314698973  5.913338997451146 11.13288692320441  C 5.913338997451146 11.309533636050059  5.9541206457094304 11.363886470771801  6.137638062871707 11.431827514173975  C 6.253186066270178 11.479386244555496  6.531860662701784 11.69000347910223  6.742565845369582 11.893826609308757  C 7.0688190314358526 12.213149513298966  7.123194562446899 12.294678765381585  7.089209855564995 12.450943165206578  C 7.014443500424808 12.845001216939183  7.422259983007646 13.259441581692444  8.13593882752761 13.51082344228049  C 8.44859813084112 13.619529111723962  8.6661002548853 13.802969928909834  9.943925233644858 15.093849753551135  C 11.507221750212404 16.670081960481568  12.186915887850468 17.383462916204394  13.729821580288867 19.081989001258737  C 15.38147833474936 20.88242665141634  15.700934579439252 21.2561023901283  15.700934579439252 21.358013955231563  C 15.700934579439252 21.52107245939678  16.013593882752758 22.12574774567612  16.163126593033134 22.26162983248047  C 16.2446898895497 22.32957087588265  16.407816482582838 22.404306023625033  16.530161427357687 22.431482440985906  C 16.700084961767203 22.465452962686992  16.815632965165676 22.567364527790247  17.019541206457095 22.859511014419603  C 17.162276975361085 23.070128248966338  17.28462192013594 23.32151010955438  17.28462192013594 23.41662757031742  C 17.277824978759554 23.55250965712177  17.345794392523363 23.627244804864155  17.53610875106202 23.735950474307643  C 17.678844519966013 23.817479726390253  17.828377230246385 23.960155917534813  17.86915887850467 24.04847927395764  C 17.94392523364486 24.204743673782637  17.909940526762956 24.252302404164165  17.454545454545453 24.727889707979376  C 17.18266779949023 25.00644798592829  16.570943075615972 25.577152750506556  16.095157179269325 25.984799010919595  C 15.612574341546303 26.39244527133263  15.225148683092609 26.75253280136415  15.225148683092609 26.779709218725028  C 15.225148683092609 26.806885636085894  14.63381478334749 27.24850241820002  13.920135938827528 27.751266139376106  C 11.70433305012744 29.307116033285887  10.94307561597281 30.020496989008713  10.542056074766354 30.86296592719567  C 9.916737468139337 32.187816273538054  10.949872557349192 33.87275414991197  12.492778249787595 34.02901854973697  C 13.31520815632965 34.117341906159794  14.334749362786745 33.770842584808705  14.919286321155475 33.20013782023045  C 15.286321155480033 32.84684439453914  15.429056924384026 32.547903803569575  15.429056924384026 32.11987523013588  C 15.429056924384026 31.72581717840328  15.299915038232792 31.42687658743371  14.987255734919284 31.08037726608263  C 14.742565845369581 30.801818988133718  14.212404418011893 30.536848918865235  14.076465590484279 30.625172275288058  C 13.926932880203907 30.713495631710884  14.008496176720476 30.536848918865235  14.314358538657604 30.115614449771755  C 14.640611724723874 29.660409458977195  16.26508071367884 28.009442104304362  16.38062871707731 28.009442104304362  C 16.421410365335596 28.009442104304362  16.570943075615972 27.921118747881547  16.727272727272723 27.81241307843806  C 16.8768054375531 27.69691330465437  17.141886151231944 27.561031217850026  17.31860662701784 27.50667838312829  C 17.576890399320305 27.418355026705456  19.221750212404412 27.105826227055456  20.22090059473237 26.949561827230465  C 20.418011894647407 26.915591305529375  20.44519966015293 26.949561827230465  20.948173322005097 27.71729561767502  C 21.55310110450297 28.654882016625013  22.022090059473236 29.470174537451104  22.518266779949023 30.441731458102186  C 22.85131690739167 31.10755368344349  22.885301614273573 31.14152420514458  23.14358538657604 31.209465248546756  C 23.293118096856414 31.25022987458806  23.76210705182668 31.392906065732625  24.176720475785896 31.528788152536976  L 24.944774851316907 31.78017001312501  L 29.648258283772297 36.97765983339131  C 45.69583687340696 54.71706626569888  54.68139337298215 64.56851755901407  64.01359388275276 74.65096839989666  C 68.01019541206456 78.9720187602749  69.16567544604928 79.91639926356513  75.27612574341545 83.91812671995316  C 76.54715378079862 84.75380155379989  78.0696686491079 85.7661231004923  78.65420560747663 86.17376936090533  C 79.24553950722174 86.58141562131836  79.77570093457943 86.93470904700968  79.83007646559048 86.95509136003032  C 80.10875106202208 87.0637970294738  79.95242141036533 86.7105036037825  79.23194562446898 85.6166528050075  C 78.80373831775701 84.96441878834663  77.72982158028886 83.2726868076325  76.839422259983 81.85271900052707  C 74.16822429906541 77.57922737053033  72.42141036533559 75.05182055596947  70.91248937977909 73.2581770101521  C 70.37553101104503 72.61953120217166  64.48937977909941 65.98848536611949  61.65505522514867 62.82922684791842  C 54.158028887000846 54.47927261379126  46.35514018691588 45.891524727756504  33.0875106202209 31.399700170072837  C 29.498725573491924 27.479501965767408  29.437553101104502 27.404766818025024  29.335598980458787 27.01750287063263  C 29.281223449447747 26.793297427405463  29.19966015293118 26.378857062652198  29.152081563296512 26.086710576022853  L 29.070518266779946 25.5567704374859  L 28.186915887850464 24.979271568567423  C 27.214953271028037 24.340625760586985  26.508071367884448 23.817479726390253  25.610875106202204 23.063334144626115  C 25.067119796091756 22.608129153831555  25.026338147833474 22.553776319109815  25.080713678844514 22.404306023625033  C 25.11469838572642 22.30918856286199  25.284621920135937 21.745277902623947  25.454545454545453 21.147396720684817  C 25.801189464740865 19.910869730765256  25.943925233644855 19.577958618094602  26.27697536108751 19.19069467070222  C 26.406117247238736 19.041224375217435  26.508071367884448 18.884959975392434  26.508071367884448 18.850989453691344  C 26.508071367884448 18.76266609726853  27.534409515717925 17.852256115679396  28.159728122344937 17.383462916204394  C 28.587935429056923 17.064140012214175  29.45114698385726 16.527405769337008  29.546304163126592 16.527405769337008  C 29.55989804587935 16.527405769337008  29.55989804587935 16.58855270839896  29.532710280373827 16.656493751801136  C 29.464740866610025 16.873905090688094  29.763806287170773 17.458198063946778  30.08326253186066 17.74355044623591  C 30.36193712829226 17.988138202483736  30.75615972812234 18.157990810989173  31.041631265930327 18.157990810989173  C 31.6125743415463 18.157990810989173  32.36023789294818 17.566903733390266  32.740866610025485 16.799169942945696  C 33.46134239592183 15.365613927159835  33.06032285471537 13.891293285332663  31.775700934579433 13.259441581692444  C 31.218351741716226 12.987677408083757  30.837723024638912 12.940118677702236  30.273576890399315 13.096383077527229  C 29.38317757009346 13.33417672943484  28.438402718776548 14.15626335460114  26.57604078164826 16.316788534790263  C 25.9983007646559 16.98940486447179  25.49532710280374 17.53972731602939  25.461342395921832 17.53972731602939  C 25.42735768903993 17.54652142036961  25.11469838572642 17.811491489638087  24.761257434154626 18.137608497968518  C 23.204757858963468 19.591546826775037  22.647408666100254 20.026369504548953  22.429906542056074 19.958428461146777  C 22.355140186915886 19.93125204378591  22.232795242141034 19.795369956981563  22.158028887000846 19.652693765837004  C 22.08326253186066 19.51001757469243  21.96091758708581 19.37413548788809  21.88615123194562 19.346959070527213  C 21.811384876805434 19.326576757506558  21.593882752761253 19.183900566362  21.39677145284622 19.034430270877216  C 21.09090909090909 18.810224827650046  21.036533559898043 18.73548967990765  21.029736618521664 18.531666549701125  C 21.02293967714528 18.225931854391348  20.703483432455393 17.879432533040266  20.254885301614273 17.68919761151417  C 19.8946474086661 17.53293321168918  19.520815632965164 17.14566926429678  17.325403568394222 14.652232971437009  C 16.20390824129142 13.381735459816362  13.566694987255731 10.256447463316368  13.172472387425657 9.733301429119624  C 13.077315208156328 9.604213446655496  12.941376380628714 9.312066960026153  12.88020390824129 9.087861516798972  C 12.642310960067968 8.265774891632674  12.316057774001699 7.858128631219635  11.942225998300763 7.919275570281589  C 11.772302463891247 7.939657883302243  11.70433305012744 7.892099152920723  11.446049277824976 7.572776248930503  C 11.25573491928632 7.334982597022891  11.14698385726423 7.137953571156587  11.14698385726423 7.015659693032681  C 11.14698385726423 6.805042458485935  11.058623619371282 6.7099249977228945  10.800339847068818 6.641983954320718  C 10.3857264231096 6.540072389217456  9.930331350892098 5.819897329154419  9.481733220050977 4.556193921873983  C 8.917587085811384 2.959579401922905  8.4553950722175 2.164669194117472  7.490229396771452 1.1591417517653024  Z " fill-rule="evenodd" />
    </mask>
  </defs>
  <g transform="matrix(1 0 0 1 -78 -11766 )">
    <path d="M 7.490229396771452 1.1591417517653024  C 6.620220900594731 0.25552587451638414  5.559898045879353 -0.12494396853578896  4.4180118946474085 0.06529095299030338  C 2.501274426508071 0.3846138569805236  0.49617672047578587 2.300551280921822  0.10195412064570944 4.1961063918424655  C -0.17672047578589634 5.54813315554572  0.14953271028037382 6.560454702238112  1.223449447748513 7.627129083652245  C 1.9507221750212402 8.347304143715283  2.745964316057774 8.897626595272891  3.9966015293118096 9.52947829891311  C 4.791843670348343 9.930330454985938  5.056924384027187 10.106977167831586  5.444350042480883 10.473858802203328  C 5.824978759558198 10.840740436575055  5.913338997451146 10.963034314698973  5.913338997451146 11.13288692320441  C 5.913338997451146 11.309533636050059  5.9541206457094304 11.363886470771801  6.137638062871707 11.431827514173975  C 6.253186066270178 11.479386244555496  6.531860662701784 11.69000347910223  6.742565845369582 11.893826609308757  C 7.0688190314358526 12.213149513298966  7.123194562446899 12.294678765381585  7.089209855564995 12.450943165206578  C 7.014443500424808 12.845001216939183  7.422259983007646 13.259441581692444  8.13593882752761 13.51082344228049  C 8.44859813084112 13.619529111723962  8.6661002548853 13.802969928909834  9.943925233644858 15.093849753551135  C 11.507221750212404 16.670081960481568  12.186915887850468 17.383462916204394  13.729821580288867 19.081989001258737  C 15.38147833474936 20.88242665141634  15.700934579439252 21.2561023901283  15.700934579439252 21.358013955231563  C 15.700934579439252 21.52107245939678  16.013593882752758 22.12574774567612  16.163126593033134 22.26162983248047  C 16.2446898895497 22.32957087588265  16.407816482582838 22.404306023625033  16.530161427357687 22.431482440985906  C 16.700084961767203 22.465452962686992  16.815632965165676 22.567364527790247  17.019541206457095 22.859511014419603  C 17.162276975361085 23.070128248966338  17.28462192013594 23.32151010955438  17.28462192013594 23.41662757031742  C 17.277824978759554 23.55250965712177  17.345794392523363 23.627244804864155  17.53610875106202 23.735950474307643  C 17.678844519966013 23.817479726390253  17.828377230246385 23.960155917534813  17.86915887850467 24.04847927395764  C 17.94392523364486 24.204743673782637  17.909940526762956 24.252302404164165  17.454545454545453 24.727889707979376  C 17.18266779949023 25.00644798592829  16.570943075615972 25.577152750506556  16.095157179269325 25.984799010919595  C 15.612574341546303 26.39244527133263  15.225148683092609 26.75253280136415  15.225148683092609 26.779709218725028  C 15.225148683092609 26.806885636085894  14.63381478334749 27.24850241820002  13.920135938827528 27.751266139376106  C 11.70433305012744 29.307116033285887  10.94307561597281 30.020496989008713  10.542056074766354 30.86296592719567  C 9.916737468139337 32.187816273538054  10.949872557349192 33.87275414991197  12.492778249787595 34.02901854973697  C 13.31520815632965 34.117341906159794  14.334749362786745 33.770842584808705  14.919286321155475 33.20013782023045  C 15.286321155480033 32.84684439453914  15.429056924384026 32.547903803569575  15.429056924384026 32.11987523013588  C 15.429056924384026 31.72581717840328  15.299915038232792 31.42687658743371  14.987255734919284 31.08037726608263  C 14.742565845369581 30.801818988133718  14.212404418011893 30.536848918865235  14.076465590484279 30.625172275288058  C 13.926932880203907 30.713495631710884  14.008496176720476 30.536848918865235  14.314358538657604 30.115614449771755  C 14.640611724723874 29.660409458977195  16.26508071367884 28.009442104304362  16.38062871707731 28.009442104304362  C 16.421410365335596 28.009442104304362  16.570943075615972 27.921118747881547  16.727272727272723 27.81241307843806  C 16.8768054375531 27.69691330465437  17.141886151231944 27.561031217850026  17.31860662701784 27.50667838312829  C 17.576890399320305 27.418355026705456  19.221750212404412 27.105826227055456  20.22090059473237 26.949561827230465  C 20.418011894647407 26.915591305529375  20.44519966015293 26.949561827230465  20.948173322005097 27.71729561767502  C 21.55310110450297 28.654882016625013  22.022090059473236 29.470174537451104  22.518266779949023 30.441731458102186  C 22.85131690739167 31.10755368344349  22.885301614273573 31.14152420514458  23.14358538657604 31.209465248546756  C 23.293118096856414 31.25022987458806  23.76210705182668 31.392906065732625  24.176720475785896 31.528788152536976  L 24.944774851316907 31.78017001312501  L 29.648258283772297 36.97765983339131  C 45.69583687340696 54.71706626569888  54.68139337298215 64.56851755901407  64.01359388275276 74.65096839989666  C 68.01019541206456 78.9720187602749  69.16567544604928 79.91639926356513  75.27612574341545 83.91812671995316  C 76.54715378079862 84.75380155379989  78.0696686491079 85.7661231004923  78.65420560747663 86.17376936090533  C 79.24553950722174 86.58141562131836  79.77570093457943 86.93470904700968  79.83007646559048 86.95509136003032  C 80.10875106202208 87.0637970294738  79.95242141036533 86.7105036037825  79.23194562446898 85.6166528050075  C 78.80373831775701 84.96441878834663  77.72982158028886 83.2726868076325  76.839422259983 81.85271900052707  C 74.16822429906541 77.57922737053033  72.42141036533559 75.05182055596947  70.91248937977909 73.2581770101521  C 70.37553101104503 72.61953120217166  64.48937977909941 65.98848536611949  61.65505522514867 62.82922684791842  C 54.158028887000846 54.47927261379126  46.35514018691588 45.891524727756504  33.0875106202209 31.399700170072837  C 29.498725573491924 27.479501965767408  29.437553101104502 27.404766818025024  29.335598980458787 27.01750287063263  C 29.281223449447747 26.793297427405463  29.19966015293118 26.378857062652198  29.152081563296512 26.086710576022853  L 29.070518266779946 25.5567704374859  L 28.186915887850464 24.979271568567423  C 27.214953271028037 24.340625760586985  26.508071367884448 23.817479726390253  25.610875106202204 23.063334144626115  C 25.067119796091756 22.608129153831555  25.026338147833474 22.553776319109815  25.080713678844514 22.404306023625033  C 25.11469838572642 22.30918856286199  25.284621920135937 21.745277902623947  25.454545454545453 21.147396720684817  C 25.801189464740865 19.910869730765256  25.943925233644855 19.577958618094602  26.27697536108751 19.19069467070222  C 26.406117247238736 19.041224375217435  26.508071367884448 18.884959975392434  26.508071367884448 18.850989453691344  C 26.508071367884448 18.76266609726853  27.534409515717925 17.852256115679396  28.159728122344937 17.383462916204394  C 28.587935429056923 17.064140012214175  29.45114698385726 16.527405769337008  29.546304163126592 16.527405769337008  C 29.55989804587935 16.527405769337008  29.55989804587935 16.58855270839896  29.532710280373827 16.656493751801136  C 29.464740866610025 16.873905090688094  29.763806287170773 17.458198063946778  30.08326253186066 17.74355044623591  C 30.36193712829226 17.988138202483736  30.75615972812234 18.157990810989173  31.041631265930327 18.157990810989173  C 31.6125743415463 18.157990810989173  32.36023789294818 17.566903733390266  32.740866610025485 16.799169942945696  C 33.46134239592183 15.365613927159835  33.06032285471537 13.891293285332663  31.775700934579433 13.259441581692444  C 31.218351741716226 12.987677408083757  30.837723024638912 12.940118677702236  30.273576890399315 13.096383077527229  C 29.38317757009346 13.33417672943484  28.438402718776548 14.15626335460114  26.57604078164826 16.316788534790263  C 25.9983007646559 16.98940486447179  25.49532710280374 17.53972731602939  25.461342395921832 17.53972731602939  C 25.42735768903993 17.54652142036961  25.11469838572642 17.811491489638087  24.761257434154626 18.137608497968518  C 23.204757858963468 19.591546826775037  22.647408666100254 20.026369504548953  22.429906542056074 19.958428461146777  C 22.355140186915886 19.93125204378591  22.232795242141034 19.795369956981563  22.158028887000846 19.652693765837004  C 22.08326253186066 19.51001757469243  21.96091758708581 19.37413548788809  21.88615123194562 19.346959070527213  C 21.811384876805434 19.326576757506558  21.593882752761253 19.183900566362  21.39677145284622 19.034430270877216  C 21.09090909090909 18.810224827650046  21.036533559898043 18.73548967990765  21.029736618521664 18.531666549701125  C 21.02293967714528 18.225931854391348  20.703483432455393 17.879432533040266  20.254885301614273 17.68919761151417  C 19.8946474086661 17.53293321168918  19.520815632965164 17.14566926429678  17.325403568394222 14.652232971437009  C 16.20390824129142 13.381735459816362  13.566694987255731 10.256447463316368  13.172472387425657 9.733301429119624  C 13.077315208156328 9.604213446655496  12.941376380628714 9.312066960026153  12.88020390824129 9.087861516798972  C 12.642310960067968 8.265774891632674  12.316057774001699 7.858128631219635  11.942225998300763 7.919275570281589  C 11.772302463891247 7.939657883302243  11.70433305012744 7.892099152920723  11.446049277824976 7.572776248930503  C 11.25573491928632 7.334982597022891  11.14698385726423 7.137953571156587  11.14698385726423 7.015659693032681  C 11.14698385726423 6.805042458485935  11.058623619371282 6.7099249977228945  10.800339847068818 6.641983954320718  C 10.3857264231096 6.540072389217456  9.930331350892098 5.819897329154419  9.481733220050977 4.556193921873983  C 8.917587085811384 2.959579401922905  8.4553950722175 2.164669194117472  7.490229396771452 1.1591417517653024  Z " fill-rule="nonzero" fill="#ffffff" stroke="none" fill-opacity="0" transform="matrix(1 0 0 1 78 11766 )" />
    <path d="M 7.490229396771452 1.1591417517653024  C 6.620220900594731 0.25552587451638414  5.559898045879353 -0.12494396853578896  4.4180118946474085 0.06529095299030338  C 2.501274426508071 0.3846138569805236  0.49617672047578587 2.300551280921822  0.10195412064570944 4.1961063918424655  C -0.17672047578589634 5.54813315554572  0.14953271028037382 6.560454702238112  1.223449447748513 7.627129083652245  C 1.9507221750212402 8.347304143715283  2.745964316057774 8.897626595272891  3.9966015293118096 9.52947829891311  C 4.791843670348343 9.930330454985938  5.056924384027187 10.106977167831586  5.444350042480883 10.473858802203328  C 5.824978759558198 10.840740436575055  5.913338997451146 10.963034314698973  5.913338997451146 11.13288692320441  C 5.913338997451146 11.309533636050059  5.9541206457094304 11.363886470771801  6.137638062871707 11.431827514173975  C 6.253186066270178 11.479386244555496  6.531860662701784 11.69000347910223  6.742565845369582 11.893826609308757  C 7.0688190314358526 12.213149513298966  7.123194562446899 12.294678765381585  7.089209855564995 12.450943165206578  C 7.014443500424808 12.845001216939183  7.422259983007646 13.259441581692444  8.13593882752761 13.51082344228049  C 8.44859813084112 13.619529111723962  8.6661002548853 13.802969928909834  9.943925233644858 15.093849753551135  C 11.507221750212404 16.670081960481568  12.186915887850468 17.383462916204394  13.729821580288867 19.081989001258737  C 15.38147833474936 20.88242665141634  15.700934579439252 21.2561023901283  15.700934579439252 21.358013955231563  C 15.700934579439252 21.52107245939678  16.013593882752758 22.12574774567612  16.163126593033134 22.26162983248047  C 16.2446898895497 22.32957087588265  16.407816482582838 22.404306023625033  16.530161427357687 22.431482440985906  C 16.700084961767203 22.465452962686992  16.815632965165676 22.567364527790247  17.019541206457095 22.859511014419603  C 17.162276975361085 23.070128248966338  17.28462192013594 23.32151010955438  17.28462192013594 23.41662757031742  C 17.277824978759554 23.55250965712177  17.345794392523363 23.627244804864155  17.53610875106202 23.735950474307643  C 17.678844519966013 23.817479726390253  17.828377230246385 23.960155917534813  17.86915887850467 24.04847927395764  C 17.94392523364486 24.204743673782637  17.909940526762956 24.252302404164165  17.454545454545453 24.727889707979376  C 17.18266779949023 25.00644798592829  16.570943075615972 25.577152750506556  16.095157179269325 25.984799010919595  C 15.612574341546303 26.39244527133263  15.225148683092609 26.75253280136415  15.225148683092609 26.779709218725028  C 15.225148683092609 26.806885636085894  14.63381478334749 27.24850241820002  13.920135938827528 27.751266139376106  C 11.70433305012744 29.307116033285887  10.94307561597281 30.020496989008713  10.542056074766354 30.86296592719567  C 9.916737468139337 32.187816273538054  10.949872557349192 33.87275414991197  12.492778249787595 34.02901854973697  C 13.31520815632965 34.117341906159794  14.334749362786745 33.770842584808705  14.919286321155475 33.20013782023045  C 15.286321155480033 32.84684439453914  15.429056924384026 32.547903803569575  15.429056924384026 32.11987523013588  C 15.429056924384026 31.72581717840328  15.299915038232792 31.42687658743371  14.987255734919284 31.08037726608263  C 14.742565845369581 30.801818988133718  14.212404418011893 30.536848918865235  14.076465590484279 30.625172275288058  C 13.926932880203907 30.713495631710884  14.008496176720476 30.536848918865235  14.314358538657604 30.115614449771755  C 14.640611724723874 29.660409458977195  16.26508071367884 28.009442104304362  16.38062871707731 28.009442104304362  C 16.421410365335596 28.009442104304362  16.570943075615972 27.921118747881547  16.727272727272723 27.81241307843806  C 16.8768054375531 27.69691330465437  17.141886151231944 27.561031217850026  17.31860662701784 27.50667838312829  C 17.576890399320305 27.418355026705456  19.221750212404412 27.105826227055456  20.22090059473237 26.949561827230465  C 20.418011894647407 26.915591305529375  20.44519966015293 26.949561827230465  20.948173322005097 27.71729561767502  C 21.55310110450297 28.654882016625013  22.022090059473236 29.470174537451104  22.518266779949023 30.441731458102186  C 22.85131690739167 31.10755368344349  22.885301614273573 31.14152420514458  23.14358538657604 31.209465248546756  C 23.293118096856414 31.25022987458806  23.76210705182668 31.392906065732625  24.176720475785896 31.528788152536976  L 24.944774851316907 31.78017001312501  L 29.648258283772297 36.97765983339131  C 45.69583687340696 54.71706626569888  54.68139337298215 64.56851755901407  64.01359388275276 74.65096839989666  C 68.01019541206456 78.9720187602749  69.16567544604928 79.91639926356513  75.27612574341545 83.91812671995316  C 76.54715378079862 84.75380155379989  78.0696686491079 85.7661231004923  78.65420560747663 86.17376936090533  C 79.24553950722174 86.58141562131836  79.77570093457943 86.93470904700968  79.83007646559048 86.95509136003032  C 80.10875106202208 87.0637970294738  79.95242141036533 86.7105036037825  79.23194562446898 85.6166528050075  C 78.80373831775701 84.96441878834663  77.72982158028886 83.2726868076325  76.839422259983 81.85271900052707  C 74.16822429906541 77.57922737053033  72.42141036533559 75.05182055596947  70.91248937977909 73.2581770101521  C 70.37553101104503 72.61953120217166  64.48937977909941 65.98848536611949  61.65505522514867 62.82922684791842  C 54.158028887000846 54.47927261379126  46.35514018691588 45.891524727756504  33.0875106202209 31.399700170072837  C 29.498725573491924 27.479501965767408  29.437553101104502 27.404766818025024  29.335598980458787 27.01750287063263  C 29.281223449447747 26.793297427405463  29.19966015293118 26.378857062652198  29.152081563296512 26.086710576022853  L 29.070518266779946 25.5567704374859  L 28.186915887850464 24.979271568567423  C 27.214953271028037 24.340625760586985  26.508071367884448 23.817479726390253  25.610875106202204 23.063334144626115  C 25.067119796091756 22.608129153831555  25.026338147833474 22.553776319109815  25.080713678844514 22.404306023625033  C 25.11469838572642 22.30918856286199  25.284621920135937 21.745277902623947  25.454545454545453 21.147396720684817  C 25.801189464740865 19.910869730765256  25.943925233644855 19.577958618094602  26.27697536108751 19.19069467070222  C 26.406117247238736 19.041224375217435  26.508071367884448 18.884959975392434  26.508071367884448 18.850989453691344  C 26.508071367884448 18.76266609726853  27.534409515717925 17.852256115679396  28.159728122344937 17.383462916204394  C 28.587935429056923 17.064140012214175  29.45114698385726 16.527405769337008  29.546304163126592 16.527405769337008  C 29.55989804587935 16.527405769337008  29.55989804587935 16.58855270839896  29.532710280373827 16.656493751801136  C 29.464740866610025 16.873905090688094  29.763806287170773 17.458198063946778  30.08326253186066 17.74355044623591  C 30.36193712829226 17.988138202483736  30.75615972812234 18.157990810989173  31.041631265930327 18.157990810989173  C 31.6125743415463 18.157990810989173  32.36023789294818 17.566903733390266  32.740866610025485 16.799169942945696  C 33.46134239592183 15.365613927159835  33.06032285471537 13.891293285332663  31.775700934579433 13.259441581692444  C 31.218351741716226 12.987677408083757  30.837723024638912 12.940118677702236  30.273576890399315 13.096383077527229  C 29.38317757009346 13.33417672943484  28.438402718776548 14.15626335460114  26.57604078164826 16.316788534790263  C 25.9983007646559 16.98940486447179  25.49532710280374 17.53972731602939  25.461342395921832 17.53972731602939  C 25.42735768903993 17.54652142036961  25.11469838572642 17.811491489638087  24.761257434154626 18.137608497968518  C 23.204757858963468 19.591546826775037  22.647408666100254 20.026369504548953  22.429906542056074 19.958428461146777  C 22.355140186915886 19.93125204378591  22.232795242141034 19.795369956981563  22.158028887000846 19.652693765837004  C 22.08326253186066 19.51001757469243  21.96091758708581 19.37413548788809  21.88615123194562 19.346959070527213  C 21.811384876805434 19.326576757506558  21.593882752761253 19.183900566362  21.39677145284622 19.034430270877216  C 21.09090909090909 18.810224827650046  21.036533559898043 18.73548967990765  21.029736618521664 18.531666549701125  C 21.02293967714528 18.225931854391348  20.703483432455393 17.879432533040266  20.254885301614273 17.68919761151417  C 19.8946474086661 17.53293321168918  19.520815632965164 17.14566926429678  17.325403568394222 14.652232971437009  C 16.20390824129142 13.381735459816362  13.566694987255731 10.256447463316368  13.172472387425657 9.733301429119624  C 13.077315208156328 9.604213446655496  12.941376380628714 9.312066960026153  12.88020390824129 9.087861516798972  C 12.642310960067968 8.265774891632674  12.316057774001699 7.858128631219635  11.942225998300763 7.919275570281589  C 11.772302463891247 7.939657883302243  11.70433305012744 7.892099152920723  11.446049277824976 7.572776248930503  C 11.25573491928632 7.334982597022891  11.14698385726423 7.137953571156587  11.14698385726423 7.015659693032681  C 11.14698385726423 6.805042458485935  11.058623619371282 6.7099249977228945  10.800339847068818 6.641983954320718  C 10.3857264231096 6.540072389217456  9.930331350892098 5.819897329154419  9.481733220050977 4.556193921873983  C 8.917587085811384 2.959579401922905  8.4553950722175 2.164669194117472  7.490229396771452 1.1591417517653024  Z " stroke-width="2" stroke="#ffffff" fill="none" transform="matrix(1 0 0 1 78 11766 )" mask="url(#clip445)" />
  </g>
</svg>