<?xml version="1.0" encoding="utf-8"?>
<svg version="1.1" xmlns:xlink="http://www.w3.org/1999/xlink" width="100px" height="109px" xmlns="http://www.w3.org/2000/svg">
  <defs>
    <mask fill="white" id="clip427">
      <path d="M 9.362786745964316 1.452258056809402  C 8.275276125743414 0.3201416128998376  6.949872557349192 -0.1565389950620804  5.52251486830926 0.08180130891888585  C 3.126593033135089 0.4818725334583571  0.6202209005947323 2.882299880695156  0.1274426508071368 5.257190766791134  C -0.22090059473237042 6.951109355798661  0.18691588785046728 8.21942025912591  1.5293118096856413 9.55582839216201  C 2.4384027187765502 10.458116685804203  3.4324553950722176 11.147601136606268  4.995751911639762 11.939231431971598  C 5.989804587935429 12.441448501074337  6.321155480033984 12.66276449762808  6.805437553101104 13.12242079816279  C 7.281223449447747 13.582077098697484  7.391673746813933 13.735295865542392  7.391673746813933 13.948099708382538  C 7.391673746813933 14.16941570493628  7.442650807136789 14.237512934645132  7.672047578589633 14.322634471781187  C 7.816482582837722 14.382219547776426  8.16482582837723 14.646096312898198  8.428207306711979 14.901460924306374  C 8.836023789294815 15.30153214884583  8.903993203058622 15.403677993409113  8.861512319456244 15.599457528822034  C 8.76805437553101 16.09316244421116  9.277824978759558 16.612403820741108  10.169923534409515 16.92735350814452  C 10.560747663551401 17.063547967562204  10.832625318606626 17.293376117829563  12.429906542056072 18.91068532341464  C 14.384027187765506 20.88550498497116  15.233644859813083 21.77928112489976  17.162276975361085 23.907319553301175  C 19.2268479184367 26.163040287406677  19.626168224299064 26.631208741654998  19.626168224299064 26.758891047359086  C 19.626168224299064 26.96318273648562  20.016992353440948 27.720764416996516  20.20390824129142 27.891007491268635  C 20.305862361937127 27.976129028404696  20.509770603228546 28.06976271925435  20.66270178419711 28.10381133410878  C 20.875106202209004 28.146372102676807  21.01954120645709 28.274054408380884  21.274426508071368 28.640077018065938  C 21.45284621920136 28.90395378318771  21.605777400169924 29.21890347059112  21.605777400169924 29.338073622581597  C 21.597281223449443 29.508316696853715  21.682242990654206 29.60195038770337  21.920135938827524 29.73814484712107  C 22.098555649957515 29.840290691684338  22.285471537807982 30.019045919670052  22.336448598130836 30.129703917946927  C 22.42990654205607 30.325483453359855  22.387425658453694 30.385068529355106  21.818181818181817 30.980919289307497  C 21.478334749362784 31.329917591565327  20.713678844519965 32.04493850350821  20.11894647408666 32.55566772632455  C 19.51571792693288 33.06639694914088  19.031435853865762 33.51754109596198  19.031435853865762 33.551589710816415  C 19.031435853865762 33.585638325670836  18.29226847918436 34.138928317055196  17.40016992353441 34.76882769186202  C 14.6304163126593 36.71811089227772  13.678844519966013 37.61188703220632  13.177570093457941 38.66739409269342  C 12.395921835174171 40.32726406684653  13.68734069668649 42.43827818782074  15.615972812234494 42.634057723233674  C 16.64401019541206 42.744715721510545  17.91843670348343 42.31059588211665  18.649107901444346 41.595574970173786  C 19.10790144435004 41.15294297706628  19.28632115548003 40.77840821366763  19.28632115548003 40.24214252971047  C 19.28632115548003 39.74843761432135  19.12489379779099 39.3739028509227  18.734069668649106 38.93978301152881  C 18.42820730671198 38.59078470927098  17.765505522514864 38.25881071444035  17.595581988105348 38.36946871271722  C 17.408666100254884 38.4801267109941  17.510620220900595 38.25881071444035  17.892948173322004 37.73105718419679  C 18.300764655904842 37.16074288538522  20.331350892098556 35.09228953297903  20.47578589634664 35.09228953297903  C 20.526762956669494 35.09228953297903  20.713678844519965 34.98163153470217  20.909090909090907 34.845437075284465  C 21.096006796941374 34.700730462153174  21.42735768903993 34.53048738788107  21.648258283772297 34.46239015817222  C 21.97111299915038 34.35173215989534  24.027187765505516 33.96017308906948  25.276125743415463 33.76439355365656  C 25.52251486830926 33.72183278508853  25.55649957519116 33.76439355365656  26.18521665250637 34.72626692329399  C 26.94137638062871 35.90094413577157  27.527612574341543 36.922402581404256  28.147833474936277 38.13964056244986  C 28.564146134239586 38.97383162638322  28.60662701784197 39.016392394951254  28.929481733220047 39.101513932087315  C 29.116397621070515 39.152586854368955  29.702633814783347 39.331342082354666  30.22090059473237 39.50158515662678  L 31.180968564146134 39.81653484403018  L 37.06032285471537 46.32833243493853  C 57.1197960917587 68.55356578116297  68.35174171622769 80.89618866589119  80.01699235344094 93.52822477688201  C 85.01274426508071 98.94195453873523  86.45709430756159 100.12514390492642  94.09515717926932 105.13880244224016  C 95.68394222599828 106.18579734901365  97.58708581138487 107.45410825234092  98.31775700934578 107.96483747515725  C 99.05692438402718 108.47556669797358  99.7196261682243 108.91819869108107  99.7875955819881 108.9437351522219  C 100.13593882752761 109.07992961163959  99.94052676295667 108.63729761853209  99.03993203058623 107.26684087064159  C 98.50467289719626 106.44967411413543  97.16227697536107 104.33014783944762  96.04927782497874 102.55110771330403  C 92.71028037383176 97.19696302744606  90.52676295666949 94.03044184598474  88.64061172472387 91.78323326559286  C 87.96941376380629 90.98309081651391  80.61172472387426 82.67522879203477  77.06881903143584 78.71707731520814  C 67.69753610875105 68.25564040118675  57.943925233644855 57.496278107189184  41.35938827527612 39.33985423606827  C 36.873406966864906 34.428341543317785  36.79694137638062 34.334707852468135  36.66949872557348 33.84951509079261  C 36.601529311809685 33.56861401824362  36.49957519116398 33.049372641713674  36.44010195412064 32.683350032028635  L 36.338147833474935 32.01940204236739  L 35.233644859813076 31.29586897671091  C 34.018691588785046 30.495726527631966  33.135089209855565 29.840290691684338  32.01359388275276 28.895441629474096  C 31.333899745114696 28.32512733066252  31.282922684791842 28.257030100953678  31.350892098555644 28.06976271925435  C 31.393372982158024 27.950592567263875  31.60577740016992 27.2440838090346  31.818181818181817 26.4950142822373  C 32.251486830926076 24.945802306361067  32.42990654205607 24.528706774394387  32.84621920135938 24.043514012718873  C 33.00764655904842 23.85624663101955  33.135089209855565 23.66046709560661  33.135089209855565 23.617906327038583  C 33.135089209855565 23.50724832876172  34.41801189464741 22.366619731138556  35.19966015293117 21.77928112489976  C 35.73491928632115 21.379209900360287  36.81393372982157 20.70674975698545  36.93288020390824 20.70674975698545  C 36.94987255734919 20.70674975698545  36.94987255734919 20.783359140407892  36.915887850467286 20.868480677543953  C 36.83092608326253 21.140869596379336  37.20475785896347 21.872914815749414  37.60407816482583 22.230425271720858  C 37.952421410365325 22.53686280541066  38.44519966015293 22.749666648250805  38.80203908241291 22.749666648250805  C 39.51571792693287 22.749666648250805  40.45029736618522 22.009109275167113  40.92608326253186 21.047235905529668  C 41.8266779949023 19.251171471958873  41.32540356839422 17.40403411610644  39.719626168224295 16.612403820741108  C 39.02293967714529 16.27191767219689  38.54715378079864 16.21233259620165  37.84197111299915 16.408112131614573  C 36.728971962616825 16.70603751159078  35.548003398470684 17.73600811093706  33.220050977060325 20.442872991863663  C 32.49787595581988 21.285576209510634  31.86915887850467 21.975060660312682  31.82667799490229 21.975060660312682  C 31.78419711129991 21.983572814026296  31.393372982158024 22.315546808856915  30.951571792693283 22.72413018710998  C 29.005947323704333 24.5457310818216  28.309260832625316 25.090508919492365  28.037383177570092 25.005387382356307  C 27.943925233644855 24.97133876750189  27.790994052676293 24.801095693229772  27.69753610875106 24.62234046524406  C 27.60407816482583 24.443585237258333  27.45114698385726 24.27334216298623  27.357689039932026 24.239293548131798  C 27.264231096006792 24.213757086990974  26.992353440951568 24.035001859005263  26.745964316057773 23.847734477305938  C 26.36363636363636 23.566833404756956  26.295666949872555 23.473199713907288  26.28717077315208 23.217835102499112  C 26.2786745964316 22.834788185386863  25.87935429056924 22.400668345992976  25.318606627017843 22.162328042012007  C 24.868309260832625 21.966548506599086  24.401019541206452 21.481355744923555  21.656754460492778 18.357395332030276  C 20.254885301614273 16.765622587586016  16.958368734069666 12.850031879327405  16.46559048428207 12.194596043379759  C 16.346644010195412 12.032865122821255  16.176720475785896 11.666842513136215  16.100254885301613 11.385941440587219  C 15.80288870008496 10.355970841240936  15.395072217502124 9.8452416184246  14.927782497875954 9.921851001847047  C 14.715378079864058 9.947387462987868  14.6304163126593 9.88780238699263  14.307561597281222 9.487731162453159  C 14.0696686491079 9.189805782476954  13.933729821580288 8.942953324782392  13.933729821580288 8.789734557937498  C 13.933729821580288 8.525857792815712  13.823279524214103 8.406687640825236  13.500424808836023 8.321566103689175  C 12.982158028887 8.19388379798509  12.412914188615122 7.291595504342894  11.852166525063721 5.708334913612232  C 11.146983857264232 3.707978790914904  10.569243840271875 2.7120568064230395  9.362786745964316 1.452258056809402  Z " fill-rule="evenodd" />
    </mask>
  </defs>
  <g transform="matrix(1 0 0 1 -99 -18537 )">
    <path d="M 9.362786745964316 1.452258056809402  C 8.275276125743414 0.3201416128998376  6.949872557349192 -0.1565389950620804  5.52251486830926 0.08180130891888585  C 3.126593033135089 0.4818725334583571  0.6202209005947323 2.882299880695156  0.1274426508071368 5.257190766791134  C -0.22090059473237042 6.951109355798661  0.18691588785046728 8.21942025912591  1.5293118096856413 9.55582839216201  C 2.4384027187765502 10.458116685804203  3.4324553950722176 11.147601136606268  4.995751911639762 11.939231431971598  C 5.989804587935429 12.441448501074337  6.321155480033984 12.66276449762808  6.805437553101104 13.12242079816279  C 7.281223449447747 13.582077098697484  7.391673746813933 13.735295865542392  7.391673746813933 13.948099708382538  C 7.391673746813933 14.16941570493628  7.442650807136789 14.237512934645132  7.672047578589633 14.322634471781187  C 7.816482582837722 14.382219547776426  8.16482582837723 14.646096312898198  8.428207306711979 14.901460924306374  C 8.836023789294815 15.30153214884583  8.903993203058622 15.403677993409113  8.861512319456244 15.599457528822034  C 8.76805437553101 16.09316244421116  9.277824978759558 16.612403820741108  10.169923534409515 16.92735350814452  C 10.560747663551401 17.063547967562204  10.832625318606626 17.293376117829563  12.429906542056072 18.91068532341464  C 14.384027187765506 20.88550498497116  15.233644859813083 21.77928112489976  17.162276975361085 23.907319553301175  C 19.2268479184367 26.163040287406677  19.626168224299064 26.631208741654998  19.626168224299064 26.758891047359086  C 19.626168224299064 26.96318273648562  20.016992353440948 27.720764416996516  20.20390824129142 27.891007491268635  C 20.305862361937127 27.976129028404696  20.509770603228546 28.06976271925435  20.66270178419711 28.10381133410878  C 20.875106202209004 28.146372102676807  21.01954120645709 28.274054408380884  21.274426508071368 28.640077018065938  C 21.45284621920136 28.90395378318771  21.605777400169924 29.21890347059112  21.605777400169924 29.338073622581597  C 21.597281223449443 29.508316696853715  21.682242990654206 29.60195038770337  21.920135938827524 29.73814484712107  C 22.098555649957515 29.840290691684338  22.285471537807982 30.019045919670052  22.336448598130836 30.129703917946927  C 22.42990654205607 30.325483453359855  22.387425658453694 30.385068529355106  21.818181818181817 30.980919289307497  C 21.478334749362784 31.329917591565327  20.713678844519965 32.04493850350821  20.11894647408666 32.55566772632455  C 19.51571792693288 33.06639694914088  19.031435853865762 33.51754109596198  19.031435853865762 33.551589710816415  C 19.031435853865762 33.585638325670836  18.29226847918436 34.138928317055196  17.40016992353441 34.76882769186202  C 14.6304163126593 36.71811089227772  13.678844519966013 37.61188703220632  13.177570093457941 38.66739409269342  C 12.395921835174171 40.32726406684653  13.68734069668649 42.43827818782074  15.615972812234494 42.634057723233674  C 16.64401019541206 42.744715721510545  17.91843670348343 42.31059588211665  18.649107901444346 41.595574970173786  C 19.10790144435004 41.15294297706628  19.28632115548003 40.77840821366763  19.28632115548003 40.24214252971047  C 19.28632115548003 39.74843761432135  19.12489379779099 39.3739028509227  18.734069668649106 38.93978301152881  C 18.42820730671198 38.59078470927098  17.765505522514864 38.25881071444035  17.595581988105348 38.36946871271722  C 17.408666100254884 38.4801267109941  17.510620220900595 38.25881071444035  17.892948173322004 37.73105718419679  C 18.300764655904842 37.16074288538522  20.331350892098556 35.09228953297903  20.47578589634664 35.09228953297903  C 20.526762956669494 35.09228953297903  20.713678844519965 34.98163153470217  20.909090909090907 34.845437075284465  C 21.096006796941374 34.700730462153174  21.42735768903993 34.53048738788107  21.648258283772297 34.46239015817222  C 21.97111299915038 34.35173215989534  24.027187765505516 33.96017308906948  25.276125743415463 33.76439355365656  C 25.52251486830926 33.72183278508853  25.55649957519116 33.76439355365656  26.18521665250637 34.72626692329399  C 26.94137638062871 35.90094413577157  27.527612574341543 36.922402581404256  28.147833474936277 38.13964056244986  C 28.564146134239586 38.97383162638322  28.60662701784197 39.016392394951254  28.929481733220047 39.101513932087315  C 29.116397621070515 39.152586854368955  29.702633814783347 39.331342082354666  30.22090059473237 39.50158515662678  L 31.180968564146134 39.81653484403018  L 37.06032285471537 46.32833243493853  C 57.1197960917587 68.55356578116297  68.35174171622769 80.89618866589119  80.01699235344094 93.52822477688201  C 85.01274426508071 98.94195453873523  86.45709430756159 100.12514390492642  94.09515717926932 105.13880244224016  C 95.68394222599828 106.18579734901365  97.58708581138487 107.45410825234092  98.31775700934578 107.96483747515725  C 99.05692438402718 108.47556669797358  99.7196261682243 108.91819869108107  99.7875955819881 108.9437351522219  C 100.13593882752761 109.07992961163959  99.94052676295667 108.63729761853209  99.03993203058623 107.26684087064159  C 98.50467289719626 106.44967411413543  97.16227697536107 104.33014783944762  96.04927782497874 102.55110771330403  C 92.71028037383176 97.19696302744606  90.52676295666949 94.03044184598474  88.64061172472387 91.78323326559286  C 87.96941376380629 90.98309081651391  80.61172472387426 82.67522879203477  77.06881903143584 78.71707731520814  C 67.69753610875105 68.25564040118675  57.943925233644855 57.496278107189184  41.35938827527612 39.33985423606827  C 36.873406966864906 34.428341543317785  36.79694137638062 34.334707852468135  36.66949872557348 33.84951509079261  C 36.601529311809685 33.56861401824362  36.49957519116398 33.049372641713674  36.44010195412064 32.683350032028635  L 36.338147833474935 32.01940204236739  L 35.233644859813076 31.29586897671091  C 34.018691588785046 30.495726527631966  33.135089209855565 29.840290691684338  32.01359388275276 28.895441629474096  C 31.333899745114696 28.32512733066252  31.282922684791842 28.257030100953678  31.350892098555644 28.06976271925435  C 31.393372982158024 27.950592567263875  31.60577740016992 27.2440838090346  31.818181818181817 26.4950142822373  C 32.251486830926076 24.945802306361067  32.42990654205607 24.528706774394387  32.84621920135938 24.043514012718873  C 33.00764655904842 23.85624663101955  33.135089209855565 23.66046709560661  33.135089209855565 23.617906327038583  C 33.135089209855565 23.50724832876172  34.41801189464741 22.366619731138556  35.19966015293117 21.77928112489976  C 35.73491928632115 21.379209900360287  36.81393372982157 20.70674975698545  36.93288020390824 20.70674975698545  C 36.94987255734919 20.70674975698545  36.94987255734919 20.783359140407892  36.915887850467286 20.868480677543953  C 36.83092608326253 21.140869596379336  37.20475785896347 21.872914815749414  37.60407816482583 22.230425271720858  C 37.952421410365325 22.53686280541066  38.44519966015293 22.749666648250805  38.80203908241291 22.749666648250805  C 39.51571792693287 22.749666648250805  40.45029736618522 22.009109275167113  40.92608326253186 21.047235905529668  C 41.8266779949023 19.251171471958873  41.32540356839422 17.40403411610644  39.719626168224295 16.612403820741108  C 39.02293967714529 16.27191767219689  38.54715378079864 16.21233259620165  37.84197111299915 16.408112131614573  C 36.728971962616825 16.70603751159078  35.548003398470684 17.73600811093706  33.220050977060325 20.442872991863663  C 32.49787595581988 21.285576209510634  31.86915887850467 21.975060660312682  31.82667799490229 21.975060660312682  C 31.78419711129991 21.983572814026296  31.393372982158024 22.315546808856915  30.951571792693283 22.72413018710998  C 29.005947323704333 24.5457310818216  28.309260832625316 25.090508919492365  28.037383177570092 25.005387382356307  C 27.943925233644855 24.97133876750189  27.790994052676293 24.801095693229772  27.69753610875106 24.62234046524406  C 27.60407816482583 24.443585237258333  27.45114698385726 24.27334216298623  27.357689039932026 24.239293548131798  C 27.264231096006792 24.213757086990974  26.992353440951568 24.035001859005263  26.745964316057773 23.847734477305938  C 26.36363636363636 23.566833404756956  26.295666949872555 23.473199713907288  26.28717077315208 23.217835102499112  C 26.2786745964316 22.834788185386863  25.87935429056924 22.400668345992976  25.318606627017843 22.162328042012007  C 24.868309260832625 21.966548506599086  24.401019541206452 21.481355744923555  21.656754460492778 18.357395332030276  C 20.254885301614273 16.765622587586016  16.958368734069666 12.850031879327405  16.46559048428207 12.194596043379759  C 16.346644010195412 12.032865122821255  16.176720475785896 11.666842513136215  16.100254885301613 11.385941440587219  C 15.80288870008496 10.355970841240936  15.395072217502124 9.8452416184246  14.927782497875954 9.921851001847047  C 14.715378079864058 9.947387462987868  14.6304163126593 9.88780238699263  14.307561597281222 9.487731162453159  C 14.0696686491079 9.189805782476954  13.933729821580288 8.942953324782392  13.933729821580288 8.789734557937498  C 13.933729821580288 8.525857792815712  13.823279524214103 8.406687640825236  13.500424808836023 8.321566103689175  C 12.982158028887 8.19388379798509  12.412914188615122 7.291595504342894  11.852166525063721 5.708334913612232  C 11.146983857264232 3.707978790914904  10.569243840271875 2.7120568064230395  9.362786745964316 1.452258056809402  Z " fill-rule="nonzero" fill="#ffffff" stroke="none" fill-opacity="0" transform="matrix(1 0 0 1 99 18537 )" />
    <path d="M 9.362786745964316 1.452258056809402  C 8.275276125743414 0.3201416128998376  6.949872557349192 -0.1565389950620804  5.52251486830926 0.08180130891888585  C 3.126593033135089 0.4818725334583571  0.6202209005947323 2.882299880695156  0.1274426508071368 5.257190766791134  C -0.22090059473237042 6.951109355798661  0.18691588785046728 8.21942025912591  1.5293118096856413 9.55582839216201  C 2.4384027187765502 10.458116685804203  3.4324553950722176 11.147601136606268  4.995751911639762 11.939231431971598  C 5.989804587935429 12.441448501074337  6.321155480033984 12.66276449762808  6.805437553101104 13.12242079816279  C 7.281223449447747 13.582077098697484  7.391673746813933 13.735295865542392  7.391673746813933 13.948099708382538  C 7.391673746813933 14.16941570493628  7.442650807136789 14.237512934645132  7.672047578589633 14.322634471781187  C 7.816482582837722 14.382219547776426  8.16482582837723 14.646096312898198  8.428207306711979 14.901460924306374  C 8.836023789294815 15.30153214884583  8.903993203058622 15.403677993409113  8.861512319456244 15.599457528822034  C 8.76805437553101 16.09316244421116  9.277824978759558 16.612403820741108  10.169923534409515 16.92735350814452  C 10.560747663551401 17.063547967562204  10.832625318606626 17.293376117829563  12.429906542056072 18.91068532341464  C 14.384027187765506 20.88550498497116  15.233644859813083 21.77928112489976  17.162276975361085 23.907319553301175  C 19.2268479184367 26.163040287406677  19.626168224299064 26.631208741654998  19.626168224299064 26.758891047359086  C 19.626168224299064 26.96318273648562  20.016992353440948 27.720764416996516  20.20390824129142 27.891007491268635  C 20.305862361937127 27.976129028404696  20.509770603228546 28.06976271925435  20.66270178419711 28.10381133410878  C 20.875106202209004 28.146372102676807  21.01954120645709 28.274054408380884  21.274426508071368 28.640077018065938  C 21.45284621920136 28.90395378318771  21.605777400169924 29.21890347059112  21.605777400169924 29.338073622581597  C 21.597281223449443 29.508316696853715  21.682242990654206 29.60195038770337  21.920135938827524 29.73814484712107  C 22.098555649957515 29.840290691684338  22.285471537807982 30.019045919670052  22.336448598130836 30.129703917946927  C 22.42990654205607 30.325483453359855  22.387425658453694 30.385068529355106  21.818181818181817 30.980919289307497  C 21.478334749362784 31.329917591565327  20.713678844519965 32.04493850350821  20.11894647408666 32.55566772632455  C 19.51571792693288 33.06639694914088  19.031435853865762 33.51754109596198  19.031435853865762 33.551589710816415  C 19.031435853865762 33.585638325670836  18.29226847918436 34.138928317055196  17.40016992353441 34.76882769186202  C 14.6304163126593 36.71811089227772  13.678844519966013 37.61188703220632  13.177570093457941 38.66739409269342  C 12.395921835174171 40.32726406684653  13.68734069668649 42.43827818782074  15.615972812234494 42.634057723233674  C 16.64401019541206 42.744715721510545  17.91843670348343 42.31059588211665  18.649107901444346 41.595574970173786  C 19.10790144435004 41.15294297706628  19.28632115548003 40.77840821366763  19.28632115548003 40.24214252971047  C 19.28632115548003 39.74843761432135  19.12489379779099 39.3739028509227  18.734069668649106 38.93978301152881  C 18.42820730671198 38.59078470927098  17.765505522514864 38.25881071444035  17.595581988105348 38.36946871271722  C 17.408666100254884 38.4801267109941  17.510620220900595 38.25881071444035  17.892948173322004 37.73105718419679  C 18.300764655904842 37.16074288538522  20.331350892098556 35.09228953297903  20.47578589634664 35.09228953297903  C 20.526762956669494 35.09228953297903  20.713678844519965 34.98163153470217  20.909090909090907 34.845437075284465  C 21.096006796941374 34.700730462153174  21.42735768903993 34.53048738788107  21.648258283772297 34.46239015817222  C 21.97111299915038 34.35173215989534  24.027187765505516 33.96017308906948  25.276125743415463 33.76439355365656  C 25.52251486830926 33.72183278508853  25.55649957519116 33.76439355365656  26.18521665250637 34.72626692329399  C 26.94137638062871 35.90094413577157  27.527612574341543 36.922402581404256  28.147833474936277 38.13964056244986  C 28.564146134239586 38.97383162638322  28.60662701784197 39.016392394951254  28.929481733220047 39.101513932087315  C 29.116397621070515 39.152586854368955  29.702633814783347 39.331342082354666  30.22090059473237 39.50158515662678  L 31.180968564146134 39.81653484403018  L 37.06032285471537 46.32833243493853  C 57.1197960917587 68.55356578116297  68.35174171622769 80.89618866589119  80.01699235344094 93.52822477688201  C 85.01274426508071 98.94195453873523  86.45709430756159 100.12514390492642  94.09515717926932 105.13880244224016  C 95.68394222599828 106.18579734901365  97.58708581138487 107.45410825234092  98.31775700934578 107.96483747515725  C 99.05692438402718 108.47556669797358  99.7196261682243 108.91819869108107  99.7875955819881 108.9437351522219  C 100.13593882752761 109.07992961163959  99.94052676295667 108.63729761853209  99.03993203058623 107.26684087064159  C 98.50467289719626 106.44967411413543  97.16227697536107 104.33014783944762  96.04927782497874 102.55110771330403  C 92.71028037383176 97.19696302744606  90.52676295666949 94.03044184598474  88.64061172472387 91.78323326559286  C 87.96941376380629 90.98309081651391  80.61172472387426 82.67522879203477  77.06881903143584 78.71707731520814  C 67.69753610875105 68.25564040118675  57.943925233644855 57.496278107189184  41.35938827527612 39.33985423606827  C 36.873406966864906 34.428341543317785  36.79694137638062 34.334707852468135  36.66949872557348 33.84951509079261  C 36.601529311809685 33.56861401824362  36.49957519116398 33.049372641713674  36.44010195412064 32.683350032028635  L 36.338147833474935 32.01940204236739  L 35.233644859813076 31.29586897671091  C 34.018691588785046 30.495726527631966  33.135089209855565 29.840290691684338  32.01359388275276 28.895441629474096  C 31.333899745114696 28.32512733066252  31.282922684791842 28.257030100953678  31.350892098555644 28.06976271925435  C 31.393372982158024 27.950592567263875  31.60577740016992 27.2440838090346  31.818181818181817 26.4950142822373  C 32.251486830926076 24.945802306361067  32.42990654205607 24.528706774394387  32.84621920135938 24.043514012718873  C 33.00764655904842 23.85624663101955  33.135089209855565 23.66046709560661  33.135089209855565 23.617906327038583  C 33.135089209855565 23.50724832876172  34.41801189464741 22.366619731138556  35.19966015293117 21.77928112489976  C 35.73491928632115 21.379209900360287  36.81393372982157 20.70674975698545  36.93288020390824 20.70674975698545  C 36.94987255734919 20.70674975698545  36.94987255734919 20.783359140407892  36.915887850467286 20.868480677543953  C 36.83092608326253 21.140869596379336  37.20475785896347 21.872914815749414  37.60407816482583 22.230425271720858  C 37.952421410365325 22.53686280541066  38.44519966015293 22.749666648250805  38.80203908241291 22.749666648250805  C 39.51571792693287 22.749666648250805  40.45029736618522 22.009109275167113  40.92608326253186 21.047235905529668  C 41.8266779949023 19.251171471958873  41.32540356839422 17.40403411610644  39.719626168224295 16.612403820741108  C 39.02293967714529 16.27191767219689  38.54715378079864 16.21233259620165  37.84197111299915 16.408112131614573  C 36.728971962616825 16.70603751159078  35.548003398470684 17.73600811093706  33.220050977060325 20.442872991863663  C 32.49787595581988 21.285576209510634  31.86915887850467 21.975060660312682  31.82667799490229 21.975060660312682  C 31.78419711129991 21.983572814026296  31.393372982158024 22.315546808856915  30.951571792693283 22.72413018710998  C 29.005947323704333 24.5457310818216  28.309260832625316 25.090508919492365  28.037383177570092 25.005387382356307  C 27.943925233644855 24.97133876750189  27.790994052676293 24.801095693229772  27.69753610875106 24.62234046524406  C 27.60407816482583 24.443585237258333  27.45114698385726 24.27334216298623  27.357689039932026 24.239293548131798  C 27.264231096006792 24.213757086990974  26.992353440951568 24.035001859005263  26.745964316057773 23.847734477305938  C 26.36363636363636 23.566833404756956  26.295666949872555 23.473199713907288  26.28717077315208 23.217835102499112  C 26.2786745964316 22.834788185386863  25.87935429056924 22.400668345992976  25.318606627017843 22.162328042012007  C 24.868309260832625 21.966548506599086  24.401019541206452 21.481355744923555  21.656754460492778 18.357395332030276  C 20.254885301614273 16.765622587586016  16.958368734069666 12.850031879327405  16.46559048428207 12.194596043379759  C 16.346644010195412 12.032865122821255  16.176720475785896 11.666842513136215  16.100254885301613 11.385941440587219  C 15.80288870008496 10.355970841240936  15.395072217502124 9.8452416184246  14.927782497875954 9.921851001847047  C 14.715378079864058 9.947387462987868  14.6304163126593 9.88780238699263  14.307561597281222 9.487731162453159  C 14.0696686491079 9.189805782476954  13.933729821580288 8.942953324782392  13.933729821580288 8.789734557937498  C 13.933729821580288 8.525857792815712  13.823279524214103 8.406687640825236  13.500424808836023 8.321566103689175  C 12.982158028887 8.19388379798509  12.412914188615122 7.291595504342894  11.852166525063721 5.708334913612232  C 11.146983857264232 3.707978790914904  10.569243840271875 2.7120568064230395  9.362786745964316 1.452258056809402  Z " stroke-width="2" stroke="#ffffff" fill="none" transform="matrix(1 0 0 1 99 18537 )" mask="url(#clip427)" />
  </g>
</svg>