<?xml version="1.0" encoding="utf-8"?>
<svg version="1.1" xmlns:xlink="http://www.w3.org/1999/xlink" width="100px" height="109px" xmlns="http://www.w3.org/2000/svg">
  <defs>
    <mask fill="white" id="clip428">
      <path d="M 90.63721325403569 1.452258056809402  C 91.72472387425658 0.3201416128998376  93.0501274426508 -0.1565389950620804  94.47748513169074 0.08180130891888585  C 96.8734069668649 0.4818725334583571  99.37977909940527 2.882299880695156  99.87255734919286 5.257190766791134  C 100.22090059473237 6.951109355798661  99.81308411214953 8.21942025912591  98.47068819031436 9.55582839216201  C 97.56159728122344 10.458116685804203  96.56754460492778 11.147601136606268  95.00424808836023 11.939231431971598  C 94.01019541206456 12.441448501074337  93.67884451996602 12.66276449762808  93.1945624468989 13.12242079816279  C 92.71877655055225 13.582077098697484  92.60832625318606 13.735295865542392  92.60832625318606 13.948099708382538  C 92.60832625318606 14.16941570493628  92.55734919286321 14.237512934645132  92.32795242141036 14.322634471781187  C 92.18351741716228 14.382219547776426  91.83517417162277 14.646096312898198  91.57179269328802 14.901460924306374  C 91.16397621070519 15.30153214884583  91.09600679694138 15.403677993409113  91.13848768054376 15.599457528822034  C 91.23194562446899 16.09316244421116  90.72217502124045 16.612403820741108  89.8300764655905 16.92735350814452  C 89.4392523364486 17.063547967562204  89.16737468139337 17.293376117829563  87.57009345794393 18.91068532341464  C 85.6159728122345 20.88550498497116  84.76635514018692 21.77928112489976  82.83772302463892 23.907319553301175  C 80.77315208156331 26.163040287406677  80.37383177570094 26.631208741654998  80.37383177570094 26.758891047359086  C 80.37383177570094 26.96318273648562  79.98300764655906 27.720764416996516  79.79609175870858 27.891007491268635  C 79.69413763806288 27.976129028404696  79.49022939677145 28.06976271925435  79.33729821580289 28.10381133410878  C 79.124893797791 28.146372102676807  78.98045879354291 28.274054408380884  78.72557349192863 28.640077018065938  C 78.54715378079864 28.90395378318771  78.39422259983007 29.21890347059112  78.39422259983007 29.338073622581597  C 78.40271877655056 29.508316696853715  78.3177570093458 29.60195038770337  78.07986406117247 29.73814484712107  C 77.90144435004248 29.840290691684338  77.71452846219202 30.019045919670052  77.66355140186916 30.129703917946927  C 77.57009345794393 30.325483453359855  77.6125743415463 30.385068529355106  78.18181818181819 30.980919289307497  C 78.52166525063721 31.329917591565327  79.28632115548004 32.04493850350821  79.88105352591334 32.55566772632455  C 80.48428207306712 33.06639694914088  80.96856414613424 33.51754109596198  80.96856414613424 33.551589710816415  C 80.96856414613424 33.585638325670836  81.70773152081564 34.138928317055196  82.59983007646558 34.76882769186202  C 85.3695836873407 36.71811089227772  86.32115548003398 37.61188703220632  86.82242990654206 38.66739409269342  C 87.60407816482582 40.32726406684653  86.31265930331351 42.43827818782074  84.38402718776551 42.634057723233674  C 83.35598980458794 42.744715721510545  82.08156329651656 42.31059588211665  81.35089209855566 41.595574970173786  C 80.89209855564997 41.15294297706628  80.71367884451996 40.77840821366763  80.71367884451996 40.24214252971047  C 80.71367884451996 39.74843761432135  80.87510620220901 39.3739028509227  81.2659303313509 38.93978301152881  C 81.57179269328803 38.59078470927098  82.23449447748513 38.25881071444035  82.40441801189465 38.36946871271722  C 82.59133389974511 38.4801267109941  82.48937977909941 38.25881071444035  82.10705182667799 37.73105718419679  C 81.69923534409516 37.16074288538522  79.66864910790144 35.09228953297903  79.52421410365335 35.09228953297903  C 79.4732370433305 35.09228953297903  79.28632115548004 34.98163153470217  79.0909090909091 34.845437075284465  C 78.90399320305863 34.700730462153174  78.57264231096008 34.53048738788107  78.35174171622769 34.46239015817222  C 78.02888700084962 34.35173215989534  75.97281223449448 33.96017308906948  74.72387425658454 33.76439355365656  C 74.47748513169074 33.72183278508853  74.44350042480885 33.76439355365656  73.81478334749363 34.72626692329399  C 73.05862361937129 35.90094413577157  72.47238742565845 36.922402581404256  71.85216652506372 38.13964056244986  C 71.43585386576041 38.97383162638322  71.39337298215803 39.016392394951254  71.07051826677994 39.101513932087315  C 70.88360237892948 39.152586854368955  70.29736618521665 39.331342082354666  69.77909940526763 39.50158515662678  L 68.81903143585386 39.81653484403018  L 62.939677145284634 46.32833243493853  C 42.8802039082413 68.55356578116297  31.648258283772314 80.89618866589119  19.98300764655906 93.52822477688201  C 14.987255734919291 98.94195453873523  13.542905692438412 100.12514390492642  5.904842820730682 105.13880244224016  C 4.316057774001713 106.18579734901365  2.412914188615134 107.45410825234092  1.6822429906542147 107.96483747515725  C 0.9430756159728215 108.47556669797358  0.2803738317757043 108.91819869108107  0.21240441801190224 108.9437351522219  C -0.1359388275276041 109.07992961163959  0.05947323704333929 108.63729761853209  0.9600679694137693 107.26684087064159  C 1.4953271028037451 106.44967411413543  2.8377230246389273 104.33014783944762  3.9507221750212596 102.55110771330403  C 7.2897196261682335 97.19696302744606  9.473237043330517 94.03044184598474  11.359388275276139 91.78323326559286  C 12.030586236193718 90.98309081651391  19.388275276125743 82.67522879203477  22.931180968564156 78.71707731520814  C 32.30246389124895 68.25564040118675  42.056074766355145 57.496278107189184  58.64061172472388 39.33985423606827  C 63.126593033135094 34.428341543317785  63.20305862361937 34.334707852468135  63.330501274426524 33.84951509079261  C 63.398470688190315 33.56861401824362  63.50042480883602 33.049372641713674  63.55989804587936 32.683350032028635  L 63.661852166525065 32.01940204236739  L 64.76635514018692 31.29586897671091  C 65.98130841121495 30.495726527631966  66.86491079014444 29.840290691684338  67.98640611724724 28.895441629474096  C 68.66610025488531 28.32512733066252  68.71707731520816 28.257030100953678  68.64910790144437 28.06976271925435  C 68.60662701784197 27.950592567263875  68.39422259983007 27.2440838090346  68.18181818181819 26.4950142822373  C 67.74851316907392 24.945802306361067  67.57009345794394 24.528706774394387  67.15378079864061 24.043514012718873  C 66.99235344095158 23.85624663101955  66.86491079014444 23.66046709560661  66.86491079014444 23.617906327038583  C 66.86491079014444 23.50724832876172  65.5819881053526 22.366619731138556  64.80033984706883 21.77928112489976  C 64.26508071367884 21.379209900360287  63.18606627017842 20.70674975698545  63.06711979609177 20.70674975698545  C 63.05012744265082 20.70674975698545  63.05012744265082 20.783359140407892  63.084112149532714 20.868480677543953  C 63.169073916737474 21.140869596379336  62.79524214103653 21.872914815749414  62.39592183517417 22.230425271720858  C 62.047578589634675 22.53686280541066  61.55480033984707 22.749666648250805  61.19796091758709 22.749666648250805  C 60.48428207306713 22.749666648250805  59.54970263381478 22.009109275167113  59.07391673746814 21.047235905529668  C 58.1733220050977 19.251171471958873  58.67459643160578 17.40403411610644  60.28037383177571 16.612403820741108  C 60.97706032285471 16.27191767219689  61.45284621920136 16.21233259620165  62.15802888700086 16.408112131614573  C 63.27102803738318 16.70603751159078  64.45199660152932 17.73600811093706  66.77994902293968 20.442872991863663  C 67.50212404418012 21.285576209510634  68.13084112149532 21.975060660312682  68.17332200509772 21.975060660312682  C 68.21580288870008 21.983572814026296  68.60662701784197 22.315546808856915  69.04842820730673 22.72413018710998  C 70.99405267629567 24.5457310818216  71.69073916737469 25.090508919492365  71.96261682242991 25.005387382356307  C 72.05607476635514 24.97133876750189  72.20900594732372 24.801095693229772  72.30246389124895 24.62234046524406  C 72.39592183517416 24.443585237258333  72.54885301614273 24.27334216298623  72.64231096006797 24.239293548131798  C 72.7357689039932 24.213757086990974  73.00764655904844 24.035001859005263  73.25403568394222 23.847734477305938  C 73.63636363636363 23.566833404756956  73.70433305012745 23.473199713907288  73.71282922684792 23.217835102499112  C 73.7213254035684 22.834788185386863  74.12064570943076 22.400668345992976  74.68139337298216 22.162328042012007  C 75.13169073916738 21.966548506599086  75.59898045879353 21.481355744923555  78.34324553950722 18.357395332030276  C 79.74511469838572 16.765622587586016  83.04163126593033 12.850031879327405  83.53440951571794 12.194596043379759  C 83.6533559898046 12.032865122821255  83.82327952421412 11.666842513136215  83.89974511469839 11.385941440587219  C 84.19711129991504 10.355970841240936  84.60492778249787 9.8452416184246  85.07221750212405 9.921851001847047  C 85.28462192013593 9.947387462987868  85.3695836873407 9.88780238699263  85.69243840271878 9.487731162453159  C 85.9303313508921 9.189805782476954  86.06627017841971 8.942953324782392  86.06627017841971 8.789734557937498  C 86.06627017841971 8.525857792815712  86.1767204757859 8.406687640825236  86.49957519116398 8.321566103689175  C 87.017841971113 8.19388379798509  87.58708581138488 7.291595504342894  88.14783347493628 5.708334913612232  C 88.85301614273577 3.707978790914904  89.43075615972812 2.7120568064230395  90.63721325403569 1.452258056809402  Z " fill-rule="evenodd" />
    </mask>
  </defs>
  <g transform="matrix(1 0 0 1 -1151 -18537 )">
    <path d="M 90.63721325403569 1.452258056809402  C 91.72472387425658 0.3201416128998376  93.0501274426508 -0.1565389950620804  94.47748513169074 0.08180130891888585  C 96.8734069668649 0.4818725334583571  99.37977909940527 2.882299880695156  99.87255734919286 5.257190766791134  C 100.22090059473237 6.951109355798661  99.81308411214953 8.21942025912591  98.47068819031436 9.55582839216201  C 97.56159728122344 10.458116685804203  96.56754460492778 11.147601136606268  95.00424808836023 11.939231431971598  C 94.01019541206456 12.441448501074337  93.67884451996602 12.66276449762808  93.1945624468989 13.12242079816279  C 92.71877655055225 13.582077098697484  92.60832625318606 13.735295865542392  92.60832625318606 13.948099708382538  C 92.60832625318606 14.16941570493628  92.55734919286321 14.237512934645132  92.32795242141036 14.322634471781187  C 92.18351741716228 14.382219547776426  91.83517417162277 14.646096312898198  91.57179269328802 14.901460924306374  C 91.16397621070519 15.30153214884583  91.09600679694138 15.403677993409113  91.13848768054376 15.599457528822034  C 91.23194562446899 16.09316244421116  90.72217502124045 16.612403820741108  89.8300764655905 16.92735350814452  C 89.4392523364486 17.063547967562204  89.16737468139337 17.293376117829563  87.57009345794393 18.91068532341464  C 85.6159728122345 20.88550498497116  84.76635514018692 21.77928112489976  82.83772302463892 23.907319553301175  C 80.77315208156331 26.163040287406677  80.37383177570094 26.631208741654998  80.37383177570094 26.758891047359086  C 80.37383177570094 26.96318273648562  79.98300764655906 27.720764416996516  79.79609175870858 27.891007491268635  C 79.69413763806288 27.976129028404696  79.49022939677145 28.06976271925435  79.33729821580289 28.10381133410878  C 79.124893797791 28.146372102676807  78.98045879354291 28.274054408380884  78.72557349192863 28.640077018065938  C 78.54715378079864 28.90395378318771  78.39422259983007 29.21890347059112  78.39422259983007 29.338073622581597  C 78.40271877655056 29.508316696853715  78.3177570093458 29.60195038770337  78.07986406117247 29.73814484712107  C 77.90144435004248 29.840290691684338  77.71452846219202 30.019045919670052  77.66355140186916 30.129703917946927  C 77.57009345794393 30.325483453359855  77.6125743415463 30.385068529355106  78.18181818181819 30.980919289307497  C 78.52166525063721 31.329917591565327  79.28632115548004 32.04493850350821  79.88105352591334 32.55566772632455  C 80.48428207306712 33.06639694914088  80.96856414613424 33.51754109596198  80.96856414613424 33.551589710816415  C 80.96856414613424 33.585638325670836  81.70773152081564 34.138928317055196  82.59983007646558 34.76882769186202  C 85.3695836873407 36.71811089227772  86.32115548003398 37.61188703220632  86.82242990654206 38.66739409269342  C 87.60407816482582 40.32726406684653  86.31265930331351 42.43827818782074  84.38402718776551 42.634057723233674  C 83.35598980458794 42.744715721510545  82.08156329651656 42.31059588211665  81.35089209855566 41.595574970173786  C 80.89209855564997 41.15294297706628  80.71367884451996 40.77840821366763  80.71367884451996 40.24214252971047  C 80.71367884451996 39.74843761432135  80.87510620220901 39.3739028509227  81.2659303313509 38.93978301152881  C 81.57179269328803 38.59078470927098  82.23449447748513 38.25881071444035  82.40441801189465 38.36946871271722  C 82.59133389974511 38.4801267109941  82.48937977909941 38.25881071444035  82.10705182667799 37.73105718419679  C 81.69923534409516 37.16074288538522  79.66864910790144 35.09228953297903  79.52421410365335 35.09228953297903  C 79.4732370433305 35.09228953297903  79.28632115548004 34.98163153470217  79.0909090909091 34.845437075284465  C 78.90399320305863 34.700730462153174  78.57264231096008 34.53048738788107  78.35174171622769 34.46239015817222  C 78.02888700084962 34.35173215989534  75.97281223449448 33.96017308906948  74.72387425658454 33.76439355365656  C 74.47748513169074 33.72183278508853  74.44350042480885 33.76439355365656  73.81478334749363 34.72626692329399  C 73.05862361937129 35.90094413577157  72.47238742565845 36.922402581404256  71.85216652506372 38.13964056244986  C 71.43585386576041 38.97383162638322  71.39337298215803 39.016392394951254  71.07051826677994 39.101513932087315  C 70.88360237892948 39.152586854368955  70.29736618521665 39.331342082354666  69.77909940526763 39.50158515662678  L 68.81903143585386 39.81653484403018  L 62.939677145284634 46.32833243493853  C 42.8802039082413 68.55356578116297  31.648258283772314 80.89618866589119  19.98300764655906 93.52822477688201  C 14.987255734919291 98.94195453873523  13.542905692438412 100.12514390492642  5.904842820730682 105.13880244224016  C 4.316057774001713 106.18579734901365  2.412914188615134 107.45410825234092  1.6822429906542147 107.96483747515725  C 0.9430756159728215 108.47556669797358  0.2803738317757043 108.91819869108107  0.21240441801190224 108.9437351522219  C -0.1359388275276041 109.07992961163959  0.05947323704333929 108.63729761853209  0.9600679694137693 107.26684087064159  C 1.4953271028037451 106.44967411413543  2.8377230246389273 104.33014783944762  3.9507221750212596 102.55110771330403  C 7.2897196261682335 97.19696302744606  9.473237043330517 94.03044184598474  11.359388275276139 91.78323326559286  C 12.030586236193718 90.98309081651391  19.388275276125743 82.67522879203477  22.931180968564156 78.71707731520814  C 32.30246389124895 68.25564040118675  42.056074766355145 57.496278107189184  58.64061172472388 39.33985423606827  C 63.126593033135094 34.428341543317785  63.20305862361937 34.334707852468135  63.330501274426524 33.84951509079261  C 63.398470688190315 33.56861401824362  63.50042480883602 33.049372641713674  63.55989804587936 32.683350032028635  L 63.661852166525065 32.01940204236739  L 64.76635514018692 31.29586897671091  C 65.98130841121495 30.495726527631966  66.86491079014444 29.840290691684338  67.98640611724724 28.895441629474096  C 68.66610025488531 28.32512733066252  68.71707731520816 28.257030100953678  68.64910790144437 28.06976271925435  C 68.60662701784197 27.950592567263875  68.39422259983007 27.2440838090346  68.18181818181819 26.4950142822373  C 67.74851316907392 24.945802306361067  67.57009345794394 24.528706774394387  67.15378079864061 24.043514012718873  C 66.99235344095158 23.85624663101955  66.86491079014444 23.66046709560661  66.86491079014444 23.617906327038583  C 66.86491079014444 23.50724832876172  65.5819881053526 22.366619731138556  64.80033984706883 21.77928112489976  C 64.26508071367884 21.379209900360287  63.18606627017842 20.70674975698545  63.06711979609177 20.70674975698545  C 63.05012744265082 20.70674975698545  63.05012744265082 20.783359140407892  63.084112149532714 20.868480677543953  C 63.169073916737474 21.140869596379336  62.79524214103653 21.872914815749414  62.39592183517417 22.230425271720858  C 62.047578589634675 22.53686280541066  61.55480033984707 22.749666648250805  61.19796091758709 22.749666648250805  C 60.48428207306713 22.749666648250805  59.54970263381478 22.009109275167113  59.07391673746814 21.047235905529668  C 58.1733220050977 19.251171471958873  58.67459643160578 17.40403411610644  60.28037383177571 16.612403820741108  C 60.97706032285471 16.27191767219689  61.45284621920136 16.21233259620165  62.15802888700086 16.408112131614573  C 63.27102803738318 16.70603751159078  64.45199660152932 17.73600811093706  66.77994902293968 20.442872991863663  C 67.50212404418012 21.285576209510634  68.13084112149532 21.975060660312682  68.17332200509772 21.975060660312682  C 68.21580288870008 21.983572814026296  68.60662701784197 22.315546808856915  69.04842820730673 22.72413018710998  C 70.99405267629567 24.5457310818216  71.69073916737469 25.090508919492365  71.96261682242991 25.005387382356307  C 72.05607476635514 24.97133876750189  72.20900594732372 24.801095693229772  72.30246389124895 24.62234046524406  C 72.39592183517416 24.443585237258333  72.54885301614273 24.27334216298623  72.64231096006797 24.239293548131798  C 72.7357689039932 24.213757086990974  73.00764655904844 24.035001859005263  73.25403568394222 23.847734477305938  C 73.63636363636363 23.566833404756956  73.70433305012745 23.473199713907288  73.71282922684792 23.217835102499112  C 73.7213254035684 22.834788185386863  74.12064570943076 22.400668345992976  74.68139337298216 22.162328042012007  C 75.13169073916738 21.966548506599086  75.59898045879353 21.481355744923555  78.34324553950722 18.357395332030276  C 79.74511469838572 16.765622587586016  83.04163126593033 12.850031879327405  83.53440951571794 12.194596043379759  C 83.6533559898046 12.032865122821255  83.82327952421412 11.666842513136215  83.89974511469839 11.385941440587219  C 84.19711129991504 10.355970841240936  84.60492778249787 9.8452416184246  85.07221750212405 9.921851001847047  C 85.28462192013593 9.947387462987868  85.3695836873407 9.88780238699263  85.69243840271878 9.487731162453159  C 85.9303313508921 9.189805782476954  86.06627017841971 8.942953324782392  86.06627017841971 8.789734557937498  C 86.06627017841971 8.525857792815712  86.1767204757859 8.406687640825236  86.49957519116398 8.321566103689175  C 87.017841971113 8.19388379798509  87.58708581138488 7.291595504342894  88.14783347493628 5.708334913612232  C 88.85301614273577 3.707978790914904  89.43075615972812 2.7120568064230395  90.63721325403569 1.452258056809402  Z " fill-rule="nonzero" fill="#ffffff" stroke="none" fill-opacity="0" transform="matrix(1 0 0 1 1151 18537 )" />
    <path d="M 90.63721325403569 1.452258056809402  C 91.72472387425658 0.3201416128998376  93.0501274426508 -0.1565389950620804  94.47748513169074 0.08180130891888585  C 96.8734069668649 0.4818725334583571  99.37977909940527 2.882299880695156  99.87255734919286 5.257190766791134  C 100.22090059473237 6.951109355798661  99.81308411214953 8.21942025912591  98.47068819031436 9.55582839216201  C 97.56159728122344 10.458116685804203  96.56754460492778 11.147601136606268  95.00424808836023 11.939231431971598  C 94.01019541206456 12.441448501074337  93.67884451996602 12.66276449762808  93.1945624468989 13.12242079816279  C 92.71877655055225 13.582077098697484  92.60832625318606 13.735295865542392  92.60832625318606 13.948099708382538  C 92.60832625318606 14.16941570493628  92.55734919286321 14.237512934645132  92.32795242141036 14.322634471781187  C 92.18351741716228 14.382219547776426  91.83517417162277 14.646096312898198  91.57179269328802 14.901460924306374  C 91.16397621070519 15.30153214884583  91.09600679694138 15.403677993409113  91.13848768054376 15.599457528822034  C 91.23194562446899 16.09316244421116  90.72217502124045 16.612403820741108  89.8300764655905 16.92735350814452  C 89.4392523364486 17.063547967562204  89.16737468139337 17.293376117829563  87.57009345794393 18.91068532341464  C 85.6159728122345 20.88550498497116  84.76635514018692 21.77928112489976  82.83772302463892 23.907319553301175  C 80.77315208156331 26.163040287406677  80.37383177570094 26.631208741654998  80.37383177570094 26.758891047359086  C 80.37383177570094 26.96318273648562  79.98300764655906 27.720764416996516  79.79609175870858 27.891007491268635  C 79.69413763806288 27.976129028404696  79.49022939677145 28.06976271925435  79.33729821580289 28.10381133410878  C 79.124893797791 28.146372102676807  78.98045879354291 28.274054408380884  78.72557349192863 28.640077018065938  C 78.54715378079864 28.90395378318771  78.39422259983007 29.21890347059112  78.39422259983007 29.338073622581597  C 78.40271877655056 29.508316696853715  78.3177570093458 29.60195038770337  78.07986406117247 29.73814484712107  C 77.90144435004248 29.840290691684338  77.71452846219202 30.019045919670052  77.66355140186916 30.129703917946927  C 77.57009345794393 30.325483453359855  77.6125743415463 30.385068529355106  78.18181818181819 30.980919289307497  C 78.52166525063721 31.329917591565327  79.28632115548004 32.04493850350821  79.88105352591334 32.55566772632455  C 80.48428207306712 33.06639694914088  80.96856414613424 33.51754109596198  80.96856414613424 33.551589710816415  C 80.96856414613424 33.585638325670836  81.70773152081564 34.138928317055196  82.59983007646558 34.76882769186202  C 85.3695836873407 36.71811089227772  86.32115548003398 37.61188703220632  86.82242990654206 38.66739409269342  C 87.60407816482582 40.32726406684653  86.31265930331351 42.43827818782074  84.38402718776551 42.634057723233674  C 83.35598980458794 42.744715721510545  82.08156329651656 42.31059588211665  81.35089209855566 41.595574970173786  C 80.89209855564997 41.15294297706628  80.71367884451996 40.77840821366763  80.71367884451996 40.24214252971047  C 80.71367884451996 39.74843761432135  80.87510620220901 39.3739028509227  81.2659303313509 38.93978301152881  C 81.57179269328803 38.59078470927098  82.23449447748513 38.25881071444035  82.40441801189465 38.36946871271722  C 82.59133389974511 38.4801267109941  82.48937977909941 38.25881071444035  82.10705182667799 37.73105718419679  C 81.69923534409516 37.16074288538522  79.66864910790144 35.09228953297903  79.52421410365335 35.09228953297903  C 79.4732370433305 35.09228953297903  79.28632115548004 34.98163153470217  79.0909090909091 34.845437075284465  C 78.90399320305863 34.700730462153174  78.57264231096008 34.53048738788107  78.35174171622769 34.46239015817222  C 78.02888700084962 34.35173215989534  75.97281223449448 33.96017308906948  74.72387425658454 33.76439355365656  C 74.47748513169074 33.72183278508853  74.44350042480885 33.76439355365656  73.81478334749363 34.72626692329399  C 73.05862361937129 35.90094413577157  72.47238742565845 36.922402581404256  71.85216652506372 38.13964056244986  C 71.43585386576041 38.97383162638322  71.39337298215803 39.016392394951254  71.07051826677994 39.101513932087315  C 70.88360237892948 39.152586854368955  70.29736618521665 39.331342082354666  69.77909940526763 39.50158515662678  L 68.81903143585386 39.81653484403018  L 62.939677145284634 46.32833243493853  C 42.8802039082413 68.55356578116297  31.648258283772314 80.89618866589119  19.98300764655906 93.52822477688201  C 14.987255734919291 98.94195453873523  13.542905692438412 100.12514390492642  5.904842820730682 105.13880244224016  C 4.316057774001713 106.18579734901365  2.412914188615134 107.45410825234092  1.6822429906542147 107.96483747515725  C 0.9430756159728215 108.47556669797358  0.2803738317757043 108.91819869108107  0.21240441801190224 108.9437351522219  C -0.1359388275276041 109.07992961163959  0.05947323704333929 108.63729761853209  0.9600679694137693 107.26684087064159  C 1.4953271028037451 106.44967411413543  2.8377230246389273 104.33014783944762  3.9507221750212596 102.55110771330403  C 7.2897196261682335 97.19696302744606  9.473237043330517 94.03044184598474  11.359388275276139 91.78323326559286  C 12.030586236193718 90.98309081651391  19.388275276125743 82.67522879203477  22.931180968564156 78.71707731520814  C 32.30246389124895 68.25564040118675  42.056074766355145 57.496278107189184  58.64061172472388 39.33985423606827  C 63.126593033135094 34.428341543317785  63.20305862361937 34.334707852468135  63.330501274426524 33.84951509079261  C 63.398470688190315 33.56861401824362  63.50042480883602 33.049372641713674  63.55989804587936 32.683350032028635  L 63.661852166525065 32.01940204236739  L 64.76635514018692 31.29586897671091  C 65.98130841121495 30.495726527631966  66.86491079014444 29.840290691684338  67.98640611724724 28.895441629474096  C 68.66610025488531 28.32512733066252  68.71707731520816 28.257030100953678  68.64910790144437 28.06976271925435  C 68.60662701784197 27.950592567263875  68.39422259983007 27.2440838090346  68.18181818181819 26.4950142822373  C 67.74851316907392 24.945802306361067  67.57009345794394 24.528706774394387  67.15378079864061 24.043514012718873  C 66.99235344095158 23.85624663101955  66.86491079014444 23.66046709560661  66.86491079014444 23.617906327038583  C 66.86491079014444 23.50724832876172  65.5819881053526 22.366619731138556  64.80033984706883 21.77928112489976  C 64.26508071367884 21.379209900360287  63.18606627017842 20.70674975698545  63.06711979609177 20.70674975698545  C 63.05012744265082 20.70674975698545  63.05012744265082 20.783359140407892  63.084112149532714 20.868480677543953  C 63.169073916737474 21.140869596379336  62.79524214103653 21.872914815749414  62.39592183517417 22.230425271720858  C 62.047578589634675 22.53686280541066  61.55480033984707 22.749666648250805  61.19796091758709 22.749666648250805  C 60.48428207306713 22.749666648250805  59.54970263381478 22.009109275167113  59.07391673746814 21.047235905529668  C 58.1733220050977 19.251171471958873  58.67459643160578 17.40403411610644  60.28037383177571 16.612403820741108  C 60.97706032285471 16.27191767219689  61.45284621920136 16.21233259620165  62.15802888700086 16.408112131614573  C 63.27102803738318 16.70603751159078  64.45199660152932 17.73600811093706  66.77994902293968 20.442872991863663  C 67.50212404418012 21.285576209510634  68.13084112149532 21.975060660312682  68.17332200509772 21.975060660312682  C 68.21580288870008 21.983572814026296  68.60662701784197 22.315546808856915  69.04842820730673 22.72413018710998  C 70.99405267629567 24.5457310818216  71.69073916737469 25.090508919492365  71.96261682242991 25.005387382356307  C 72.05607476635514 24.97133876750189  72.20900594732372 24.801095693229772  72.30246389124895 24.62234046524406  C 72.39592183517416 24.443585237258333  72.54885301614273 24.27334216298623  72.64231096006797 24.239293548131798  C 72.7357689039932 24.213757086990974  73.00764655904844 24.035001859005263  73.25403568394222 23.847734477305938  C 73.63636363636363 23.566833404756956  73.70433305012745 23.473199713907288  73.71282922684792 23.217835102499112  C 73.7213254035684 22.834788185386863  74.12064570943076 22.400668345992976  74.68139337298216 22.162328042012007  C 75.13169073916738 21.966548506599086  75.59898045879353 21.481355744923555  78.34324553950722 18.357395332030276  C 79.74511469838572 16.765622587586016  83.04163126593033 12.850031879327405  83.53440951571794 12.194596043379759  C 83.6533559898046 12.032865122821255  83.82327952421412 11.666842513136215  83.89974511469839 11.385941440587219  C 84.19711129991504 10.355970841240936  84.60492778249787 9.8452416184246  85.07221750212405 9.921851001847047  C 85.28462192013593 9.947387462987868  85.3695836873407 9.88780238699263  85.69243840271878 9.487731162453159  C 85.9303313508921 9.189805782476954  86.06627017841971 8.942953324782392  86.06627017841971 8.789734557937498  C 86.06627017841971 8.525857792815712  86.1767204757859 8.406687640825236  86.49957519116398 8.321566103689175  C 87.017841971113 8.19388379798509  87.58708581138488 7.291595504342894  88.14783347493628 5.708334913612232  C 88.85301614273577 3.707978790914904  89.43075615972812 2.7120568064230395  90.63721325403569 1.452258056809402  Z " stroke-width="2" stroke="#ffffff" fill="none" transform="matrix(1 0 0 1 1151 18537 )" mask="url(#clip428)" />
  </g>
</svg>