<?xml version="1.0" encoding="utf-8"?>
<svg version="1.1" xmlns:xlink="http://www.w3.org/1999/xlink" width="186px" height="28px" xmlns="http://www.w3.org/2000/svg">
  <g transform="matrix(1 0 0 1 -348 -702 )">
    <path d="M 70.17511278597635 26.97537206818799  L 70.12609267216081 27.36109167441847  C 68.45843459084823 27.264690044208038  66.78840483956628 27.216234668185734  65.11802519530019 27.21578420756043  C 64.51375209417688 27.21578420756043  63.91749486072153 27.223891491119026  63.32956179753679 27.240106058236236  C 62.7407038265442 27.257256081148665  62.12872316035553 27.280642476029257  61.493003193765624 27.312136154468444  C 61.397737689557935 27.312136154468444  61.34193491848479 27.256632443951855  61.32621148575147 27.14344229272981  C 61.30956314521034 27.030875778704583  61.35025908875534 26.958845682472376  61.4461411981683 26.92641654823796  C 62.430551408314564 26.636737070317086  63.067504585314936 26.25101746408661  63.35360940054065 25.768634092349693  C 63.63971421576636 25.286250720612784  63.783383228584476 24.530714256670613  64 23.501401063326366  L 64 14  L 49.14085942003865 14  L 49.14085942003865 23.59806482883279  C 49.14085942003865 25.624262081286865  50.17428974400051 26.734024473020327  52.2411503919243 26.926728366836365  C 52.33703250133723 26.926728366836365  52.38451110213977 26.991586635305193  52.38451110213977 27.11974407925081  C 52.38451110213977 27.248836978991655  52.33703250133723 27.31244797306685  52.2411503919243 27.31244797306685  L 50.76253110978789 27.31244797306685  C 50.317033849010755 27.31244797306685  49.84039802536962 27.329286177380872  49.331390428454036 27.360468037221658  C 48.98146697448722 27.360468037221658  48.576049052049896 27.368575320780256  48.11544496374472 27.384478069299057  C 47.65422427023428 27.401316273613084  47.248498045194346 27.40848810137646  46.899807801638005 27.40848810137646  L 45.70729333472732 27.40848810137646  C 45.29355124201942 27.40848810137646  44.879809149311555 27.392585352857655  44.46760856961674 27.360468037221658  C 44.34027959473717 27.360468037221658  44.188594714251145 27.353296209458275  44.014403743774295 27.336769823742667  C 43.863678285357636 27.321675083577542  43.712349184468145 27.313559323384748  43.56089061532916 27.31244797306685  C 43.465008505916224 27.31244797306685  43.40982234004832 27.256632443951847  43.394098907315 27.143754111328214  C 43.37745056677387 27.03118759730299  43.41783820771629 26.95915750107078  43.51341201452659 26.926728366836365  C 44.02118640103173 26.830064601329937  44.43492849373962 26.726229008060127  44.75309677963716 26.6133506754365  C 45.07064846032952 26.50109598000968  45.30958297735529 26.34050940182965  45.468358817701485 26.13065548510118  C 45.627442960650285 25.921737024167932  45.730724332525945 25.656379396922873  45.77851123593109 25.334582603365988  C 45.82598983673363 25.01372126560434  45.84942083453232 24.595260706541033  46 24.08076001916811  L 46 3.5306671096985336  C 45.84942083453232 2.8234625285095754  45.57133188697454 2.293059092617858  45.014845689256404 1.939144983424972  C 44.458359491538296 1.5858545114289009  43.862718863288165 1.3928387990144553  43.226382291493 1.3604096647800414  L 43.226382291493 0.9746900585495561  C 44.56164086341393 1.071353824055984  45.88086769999893 1.1196857068091968  47.18529601165843 1.1196857068091968  C 47.72575047404066 1.1196857068091968  48.26589663382026 1.1122020604474092  48.80727600401031 1.0953638561333863  C 49.34742216378988 1.0797729262129954  49.887876626172115 1.071353824055984  50.428639391156956 1.071353824055984  L 51.4306228496522 1.071353824055984  C 51.52588835385989 1.071353824055984  51.573675257265066 1.1362120925248118  51.573675257265066 1.2643695364704295  C 51.573675257265066 1.3934624362112713  51.52588835385992 1.4573852488848753  51.4306228496522 1.4573852488848753  C 50.85841321920074 1.4573852488848753  50.341081452014585 1.6341863941821158  49.88047736370939 1.988100503375001  C 49.41894836759634 2.342326431166295  49.18895462604632 2.8403007328235965  49.18895462604632 3.4835825013389514  L 49.18895462604632 12  L 63.784308136392205 12  L 63.784308136392205 3.676286395154987  C 63.784308136392205 2.903911726898796  63.58514465510365 2.414044708800096  63.187434297731656 2.204502610670035  C 62.789415637757045 1.9958959683351982  62.3053805516532 1.8109875394793544  61.732862618599114 1.6500891427009148  C 61.61291628838541 1.6202040218693161  61.49357885552941 1.5878722366831384  61.37492329696442 1.5531135585960774  C 61.256155849258974 1.5192388974358413  61.13693428003211 1.487014607042235  61.01729227793227 1.456449793089653  C 60.92171847112196 1.4243324774536452  60.88194743538475 1.3526141998198458  60.898287473323286 1.239424048597803  C 60.91370260345398 1.127169353170986  60.9688887693219 1.0707301868591697  61.06538748394004 1.070730186859166  C 63.18500943862498 1.2068492626693745  65.30959052281861 1.2470100570240201  67.43276113572549 1.1910921658445919  C 68.0838962324461 1.1751894173257926  68.72763206670398 1.1511793852483903  69.36458524370433 1.1190620696123825  C 69.45985074791203 1.1190620696123825  69.51503691377995 1.175501235924199  69.53168525432109 1.2877559313510178  C 69.54740868705441 1.4006342639746525  69.50794595391982 1.473287997403676  69.41206384450687 1.5047816758428658  C 68.71221693657327 1.633562756985298  68.15573073885511 1.818471185841142  67.74291355395508 2.059195143811986  C 67.32917146124718 2.300542738979647  67.12260871749588 2.8234625285095754  68 3.6270190566065503  L 68 23.405360935016752  C 67.12260871749588 24.499220578231416  67.36092662931647 25.3189916734456  67.83756245295757 25.86560967645453  C 68.31512318440653 26.413163135258678  69.09358725600667 26.78204453717514  70.17511278597635 26.97537206818799  Z M 97.39977410979918 27.1194322606524  C 96.85693385059614 27.378047030378333  96.28951789334918 27.58020819910032  95.70626791364091 27.72280124857156  C 95.13669732645867 27.86521045398375  94.55230536033491 27.93807183973471  93.96559141928269 27.939826993063406  C 93.01170316679519 27.939826993063406  92.15308041851543 27.76333766636457  91.39003147704595 27.40911173857328  C 90.62698253557647 27.055821266577208  89.9431673629788 26.605867029074716  89.33951086706072 26.058313570270567  C 88.73523776593741 25.51200738586005  88.17104400315395 24.884628365863502  87.64631297350508 24.177111966076133  C 87.12215589291172 23.47049898490097  86.62119977575617 22.746581839919855  86.14426269357001 22.006542702559237  C 85.69461213695989 21.3256798573174  85.2255906636095 20.65810910988788  84.73778622044529 20.004667300780966  C 84.24357714845517 19.346106420943638  83.70373929127815 18.75084471658309  83.11549792549083 18.219817643494554  C 82.52725655970347 17.688790570406024  81.89122829051091 17.26347000217774  81.20772142051582 16.941361390022458  C 80.52390624791818 16.620188233662393  79.75314974138335 16.458666199687134  78.89452699310354 16.458666199687134  L 78.13116974903147 16.458666199687134  C 77.90795866473896 16.458666199687134  77.66994905552103 16.49109533392155  77.41590771096715 16.555329965193565  L 77.41590771096715 23.40536093501676  C 77.41590771096715 24.338322181452988  77.69399665852492 25.13439506318817  78.25048285624302 25.792955943025508  C 78.80666075135855 26.452452278658065  79.54566208982413 26.830064601329944  80.46810347684502 26.92672836683637  L 80.46810347684502 27.31244797306686  C 79.74526739621726 27.24926625660121  79.02185406903273 27.193032431034702  78.2979614570456 27.14375411132822  C 77.57577976886631 27.095344309603075  76.85220201913597 27.071320910479024  76.12843604245136 27.071724015096013  C 75.3962173612433 27.071724015096013  74.68866288824432 27.10415314933043  74.00546432085189 27.168387780602437  C 73.32103254304894 27.233246049071266  72.6137863726526 27.31307161026367  71.88280090185499 27.409111738573287  C 71.78691879244205 27.441540872807703  71.71570089123823 27.401939910809908  71.66822229043568 27.288437940989457  C 71.62105199223575 27.176183245562633  71.64479129263702 27.08762676361481  71.73974849424211 27.023080313744398  C 72.40722362890126 26.701907157384326  72.96340152401679 26.219835604245823  73.40920708739651 25.575618379935253  C 73.85377944036578 24.932648430018308  74.07668222205567 24.241346597348148  74 23.50108924472796  L 74 4.254398076603105  C 74.07668222205567 3.5147643611797332  73.81400840462861 2.863687127704185  73.2895856775823 2.300542738979647  C 72.76516295053602 1.7380219874519212  72.13684224640882 1.359474208984817  71.4058567756112 1.1664584965703715  C 71.31028296880089 1.1346529995327737  71.27020363046105 1.0626229033005643  71.28623536579698 0.9497445706769295  C 71.30226710113294 0.8374898752501108  71.35776156960341 0.7807388903398863  71.45302707381114 0.7807388903398863  L 80.84947379627839 0.7807388903398863  C 81.83480891423251 0.7807388903398863  82.80534550726114 0.9014126879237165  83.7592337597486 1.1424484644929673  C 84.7128137096335 1.3834842410622197  85.5547881173721 1.762032019529324  86.28669849597759 2.2762208883038344  C 87.01768396677518 2.790721575676752  87.60561702995996 3.4658088412297023  88.05173089594231 4.302106322159501  C 88.49630324891162 5.138715621687709  88.71920603060146 6.135287862199129  88.71920603060146 7.2930703180874  C 88.71920603060146 8.836572380206153  88.29775637282823 10.300560699730912  87.45516535988436 11.682540727874414  C 86.61226604433786 13.065768030411549  85.66639365951835 14.25597962053423  84.61723990282313 15.252551861045648  C 84.96716335678995 15.637959648677725  85.34822537362076 16.129073941170052  85.76227576893127 16.723712008333788  C 86.19738880353155 17.350075032542097  86.64242972844582 17.96932283977132  87.0972260382496 18.581215399049224  C 87.82242106599062 19.58088896195577  88.56191122087317 20.569873653922205  89.3154632640568 21.547857544301312  C 90.09392733565697 22.560956170528346  90.91308735080219 23.47739103124896  91.77171009908196 24.297473945061547  C 92.63002454475914 25.117868677472547  93.51978585590292 25.761150445987898  94.44253554552643 26.2270074320092  C 95.36436032734207 26.693488055227306  96.30283344969884 26.86249373556435  97.25641339958369 26.73371265442192  L 97.39977410979918 27.1194322606524  Z M 85.33096042787452 9.077296338177003  C 85.33250194088757 8.242246131640837  85.21380543888122 7.406260469309447  84.97456261925277 6.569651169781238  C 84.73686131263743 5.73366550744985  84.37861368840002 4.97812904350768  83.90197786475885 4.3024181407579105  C 83.43086325042157 3.6327635446417292  82.83043018425762 3.066640104586332  82.13694546479414 2.638242281055327  C 81.43709855686053 2.2038789734732207  80.62657101458852 1.9871650475797786  79.70412962756767 1.9871650475797786  C 79.32275930813425 1.9871650475797786  78.94108068609819 2.0111750796571815  78.55940206406218 2.059195143811986  C 78.17996984162562 2.1070177039844973  77.80990683656559 2.2127842880118513  78 2.372884653810264  L 78 14.384448883078255  C 78.00229926113883 14.481112648584686  78.52703029078775 14.5456590984551  79.03572958510068 14.577152776894287  C 79.55962706743878 14.60985264624593  80.08441236145984 14.625867262470033  80.60930606884219 14.6251728410491  C 82.38975359893763 14.6251728410491  83.62173079898288 14.135617641548805  84.30554597158059 13.153700875162555  C 84.98905284157566 12.173031383169928  85.33096042787452 10.814125931308608  85.33096042787452 9.077296338177003  Z M 121.05244147973703 14.86620861761835  C 121.05213317713442 16.7321311104908  120.67754551495851 18.4605416014654  119.9311449140302 20.05268736493577  C 119.18351110269144 21.644833128406148  118.190468419672 23.01932951018786  116.94985874675356 24.177111966076133  C 115.7098656790403 25.33520624056281  114.27132573524375 26.236050171363026  112.63393061276119 26.878708302681567  C 110.99591888507341 27.52230188979532  109.2715824286537 27.843786864753795  107.45907142788644 27.843786864753795  C 105.96349550260626 27.843786864753795  104.41365831926606 27.47397000704211  102.80863497005797 26.734024473020327  C 101.20430917530213 25.99547457766473  99.71737127668776 25.01995492365003  98.39651642405008 23.839412424000454  C 97.06094954952654 22.650448108271405  95.95599302175822 21.299338121370276  95.08133853814252 19.787641556289117  C 94.20668405452679 18.275944991207965  93.76981926662285 16.748657496206423  93.76981926662285 15.204843615489258  C 93.76981926662285 12.857785025273525  93.98439787804216 10.839071419181238  94.41386340348336 9.150573708802844  C 94.84332892892459 7.46207599842445  95.534543363985 6.031764087527733  96.4884316164725 4.856831608727036  C 97.44324477676783 3.6831464043199635  98.69834467200911 2.7186914794445496  100.25681432822249 1.9628431969039717  C 101.81435907662805 1.20761855156021  103.72213558160304 0.5880349965238538  105.9801438431474 0.10533980618853286  L 106.60044867960661 0.05700792343531985  C 108.63524585685855 -0.10357865474471359  110.52699062649758 0.1942081067347634  112.27599129112642 0.9494327520785266  C 114.02437535055 1.7052810346191043  115.5504732334889 2.766711543599356  116.85520984775104 4.133100641822464  C 118.15871325160269 5.500425195840795  119.18412770789662 7.1159573541917585  119.93176151923541 8.980944391268988  C 120.67847042276634 10.846243246944617  121.05244147973703 12.807894049528269  121.05244147973703 14.86620861761835  Z M 107 26.261619296432468  L 107 1.651648235692955  C 106.58745218996172 1.6577927863787238  106.19087539624991 1.6843315442098763  105 1.7311619782869514  L 105 26.084818151135234  C 106.18023223224382 26.168697354106943  106.57609277400009 26.227007432009202  107 26.261619296432468  Z M 109 26.134709126880477  L 109.82621881075613 26.134709126880484  C 110.67528417835489 25.982541650857463  111.46053090721256 25.724355851375776  112.18134239212391 25.35921627264021  C 113.4210271572345 24.731837252643665  114.46154844105651 23.896475227509082  115.30506436180819 22.850323829850815  C 116.14703876954684 21.805731525184587  116.78368364394461 20.591821721582907  117.21314916938579 19.20859441904578  C 117.64199808962175 17.825990753705465  117.85626839843844 16.362626071377527  117.85626839843844 14.81881219066036  C 117.85626839843844 13.243504631504004  117.6256580516832 11.667885253749244  117.16536226598063 10.091330420199256  C 116.7041415724702 8.516022861042908  116.02032639987249 7.100678242869767  115.11453335339277 5.84654384007348  C 114.20874030691309 4.592409437277189  113.09453470106632 3.579310811050151  111.77561616708394 2.807247961392365  C 111.16363633567265 2.4497263149610986  110.50850521129342 2.1737642255998546  109 1.9862295917845512  L 109 26.134709126880477  Z M 109 26.247587459504118  L 109 1.7997620699366725  C 108.60603719501614 1.730521396025653  108.20924381858319 1.6854329337446126  107 1.6647446168260818  L 107 26.29934934683982  L 107.88792034812238 26.29934934683982  C 108.26867406235057 26.29934934683982  108.6395620932951 26.28188750532898  109 26.247587459504118  Z M 105 25.86529785785612  L 105 1.862125789618238  C 104.23730923057089 2.0111750796571815  103.54609479551046 2.237243563502859  102.90328386906043 2.5415785155488995  C 101.6472590660113 3.1371520385078515  100.59008944164813 3.9572349523204444  99.73177499597095 5.0024508941834895  C 98.87315224769118 6.0479786546449406  98.21307637549472 7.253781174688017  97.75216398458691 8.620170272911123  C 97.29094329107649 9.987494826929455  97.06094954952653 11.442440407100383  97.06094954952653 12.985942469219143  C 97.06094954952653 14.594302799806725  97.29926746134709 16.186448563277104  97.77621158759084 17.761444303835045  C 98.25315571383457 19.33737550018821  98.96040188423095 20.76020376472314  99.89887500658772 22.030240916038228  C 100.83642322113667 23.301213523148537  101.97344321957684 24.329903079295967  103.30901009410033 25.117868677472547  C 103.8358392386544 25.428620187636565  104.39512996780293 25.679296615413932  105 25.86529785785612  Z M 149.4649927314314 1.3120777820268197  C 149.40148239529293 1.3438832790644175  149.36171135955573 1.3523023812214292  149.34567962421968 1.3357759955058228  C 149.32964788888376 1.319873246987022  149.28987685314658 1.3286041677424416  149.22667481961076 1.3600978461816333  C 148.75068372899887 1.4993241614496666  148.28117162325753 1.660283543687287  147.81958174128079 1.8424812179185444  C 147.32629757709853 2.0354969303329904  147.08088870541783 2.3731964724086705  147 2.8555798441455833  L 147 14.481424467183091  L 147.12836730622038 16.459289836883947  C 147.12873474332858 18.30090358601944  147.0967690013004 20.142378749340708  147.03248519680744 21.982844489080236  C 146.9678093502974 23.81051381889606  146.85657795921583 25.636194041185306  146.6989017807792 27.45806725852331  C 146.6989017807792 27.52292552699214  146.65851413983674 27.578741056107134  146.57928037096494 27.62676112026195  C 146.4997382994906 27.67478118441675  146.42852039828676 27.667297538054967  146.36501006214826 27.602751088184547  C 144.83860387660673 26.284070235517834  143.313122598873 24.861241970982913  141.78609980812627 23.333642657382956  C 140.25532776892823 21.802081513388906  138.75261094725215 20.242099677124905  137.27871575791065 18.654492769675073  C 135.80312220173252 17.066036049630743  134.34832106108743 15.457951434228404  132.91469241791052 13.830659052305945  C 131.53100290294736 12.261254313551902  130.16360584200555 10.677232870343493  128.81272629013222 9.078855431169035  C 128.40032627869255 8.634222724255702  128.00270319655007 8.175802440851976  127.62052012582416 7.704359049387324  C 127.23820001475562 7.232840649078337  126.84047519461964 6.774317621148834  126.42800565891355 6.3295508490072105  C 126.334706005492 7.162443983077161  126.28694917588508 7.999912288741659  126.28495325130064 8.83813147319819  C 126.28495325130064 10.06046037895688  126.30067668403395 11.282477466117165  126.33274015470577 12.504182734679041  C 126.3641870201724 13.726511640437732  126.41166562097494 14.948528727598013  126.47579256231865 16.170233996159894  C 126.60350084909538 18.628359980712606  126.6671360434262 21.08946308250505  126.66663187333668 23.55098022047321  C 126.66663187333668 24.098221860678944  126.71441877674184 24.539756996024437  126.80968428094957 24.877456538100116  C 126.9055663903625 25.215156080175795  127.02426289236887 25.480825526019267  127.16731529998172 25.673841238433713  C 127.31036770759458 25.866545132249747  127.48455867807147 26.003745315549196  127.69204632963061 26.083570876741597  C 127.8983007707793 26.164331893729226  128.112571079596 26.220771060041045  128.33578216388847 26.25226473848023  C 128.59013181104498 26.31712300694906  128.84386485299623 26.38915310318127  129.09944771056317 26.46929048297208  C 129.35318075251442 26.550051499959704  129.65500900047346 26.718745361698343  130.00524075704286 26.9756838867864  C 130.06875109318136 27.040230336656812  130.0918737883774 27.112260432889027  130.07645865824668 27.193021449876653  C 130.06011862030817 27.27347064826587  130.00524075704286 27.31338342886207  129.90905034502734 27.31338342886207  C 129.591498664335 27.281266113226067  129.28103794350275 27.249772434786873  128.97920969554372 27.216407844757235  C 128.67676484237947 27.18491416631805  128.36692072675245 27.152485032083632  128.0484441382523 27.120055897849216  C 127.59728215493399 27.055489529733663  127.14399795087482 27.00712724870881  126.6894462659301 26.97506024958958  C 126.23702176768164 26.943311418869204  125.78365221622116 26.927295281115565  125.33014009100535 26.92704018543477  C 124.73983363014997 26.928582805599035  124.15024911995151 26.968892208329354  123.56510769104057 27.0477139830186  C 122.96083458991725 27.128786818604635  122.35656148879399 27.216407844757235  121.7525966902733 27.31338342886207  C 121.6573311860656 27.345812563096484  121.58611328486177 27.31338342886207  121.53863468405922 27.216407844757235  C 121.49084778065408 27.120055897849216  121.4982470431168 27.040230336656812  121.56206568185792 26.975683886786392  C 121.81610702641177 26.750862677334343  122.04671737316701 26.573749713438694  122.25389672212356 26.44528045089467  C 122.44774615562972 26.323982373865814  122.64668386097681 26.211206879161843  122.85015395557886 26.107269090220584  C 123.2312159724097 25.91456519640455  123.57312355870856 25.648895750561078  123.87556841187279 25.311508027083804  C 124.17739665983186 24.973808485008124  124.32877323771528 24.4352977655578  124 23.69504041293762  L 124 1.1193738882107787  L 124.71014355714871 0.3469992199545876  C 124.74189872521794 0.28276458868257387  124.78937732602047 0.23505634312617515  124.85350426736419 0.20231539029335485  C 124.91670630090005 0.17050989325575688  124.96418490170261 0.18641264177455413  124.99655667497711 0.2503354544481633  C 128.38157445846872 3.7988742632678227  131.73644120931303 7.376708485034964  135.0607868347061 10.983443430244051  C 138.38500175018714 14.594580363665804  141.6759658208816 18.23688279235137  144.93325277560925 21.909878937052795  L 144.93325277560925 21.765195107391566  C 144.93325277560925 20.286239495143228  144.92523690794133 18.82225117561847  144.90951347520797 17.375412879006145  C 144.89317343726947 15.92826276379541  144.86943413686816 14.449307151547076  144.83798727140157 12.937610586465919  C 144.80592380072972 11.555006921125603  144.77386033005786 10.084158592435877  144.74272176719384 8.523818326003093  C 144.710658296522 6.964413515365541  144.69524316639135 5.492941549478996  144.69524316639135 4.1100260655402705  C 144.69524316639135 3.563719881129754  144.638823790113 3.121249289989046  144.52783485317195 2.783549747913367  C 144.41653761362835 2.4458502058376883  144.26546933834751 2.188599862151229  144.0746300273295 2.0111750796571743  C 143.88409901891404 1.8349975715567517  143.6766113673549 1.7146355925713297  143.45463349347293 1.6497773241025016  C 143.23545967220517 1.5865407471848216  143.01237388386096 1.538102186577348  142.78685005621108 1.5047816758428592  C 142.55443734593263 1.476657878631918  142.32362064798983 1.4363793368436204  142.09532731854804 1.3841078782590288  C 141.8865443531057 1.3350826693729732  141.69613508261475 1.2262891497634176  141.54685698849786 1.0707301868591608  C 141.48303834975678 1.006495555587147  141.47563908729404 0.9260463571979282  141.5234259906992 0.8293825916915005  C 141.57121289410435 0.7330306447834825  141.62639905997224 0.7015369663442909  141.69052600131596 0.7330306447834825  C 142.4215114721136 0.8293825916915005  143.10440173690347 0.8777144744447134  143.7407383086986 0.8777144744447134  L 145.7440886204839 0.8777144744447134  C 146.15752241058914 0.8777144744447134  146.5786637657598 0.8705426466813323  147.00843759380356 0.853704442367311  C 147.44572344155455 0.8383121862363578  147.88350821648032 0.8463267283915697  148.31995686532323 0.8777144744447134  C 148.47934931087465 0.8777144744447134  148.65384858395413 0.8861335766017251  148.84437959236956 0.9020363251205273  C 149.01887382866906 0.9175669367118489  149.19394266043082 0.9255775326721574  149.3691106220184 0.9260463571979282  L 149.4649927314314 1.3120777820268197  Z M 167.78340847094296 22.633921722555797  C 167.63102585975977 23.344392416966578  167.504536262006 24.060292303785857  167.4041962697278 24.780169135396868  C 167.30555357087786 25.495238531955824  167.21018427728796 26.210765942390196  167.11809145450212 26.926728366836365  C 167.11809145450212 27.0237039509412  167.05365621055583 27.07172401509601  166.9272521434841 27.07172401509601  L 166.87946524007896 27.11974407925081  C 166.6248072903198 27.216096026158827  166.41824454656847 27.264427908912047  166.25946870622232 27.264427908912047  C 165.52786663021948 27.264427908912047  164.7885569891513 27.257567899747073  164.0415397830177 27.240417876834638  C 163.3024400869479 27.224295517484556  162.56319073240064 27.216187768013587  161.82391916241576 27.216096026158827  C 161.18789089322325 27.216096026158827  160.56758605676401 27.208924198395447  159.96423786344852 27.192709631278245  C 159.3443778169487 27.17613604824633  158.72432476906388 27.16802802569125  158.10424826187872 27.16838778060243  C 157.24562551359898 27.16838778060243  156.37867859504857 27.17618324556263  155.50433241403547 27.192709631278245  C 154.62936962781717 27.208924198395447  153.76365591967732 27.23324604907126  152.90503317139746 27.264427908912047  L 152.90503317139746 26.878708302681563  C 153.38166899503864 26.878708302681563  153.77105518214 26.774560890813348  154.0735000353042 26.56470697408487  C 154.36798370963524 26.364276335497394  154.60612071701817 26.090120952514518  154.76471447036468 25.76894591094809  C 154.92379861331347 25.447772754588026  155.02738828779172 25.085751361836536  155.07486688859424 24.683505369890444  C 155.1226537919994 24.28219483373956  155.14608478979807 23.871841558234863  155 23.454004636368367  L 155 3.3859832800372995  C 155.14608478979807 2.7430133301203563  154.99532481711987 2.3251764082538653  154.69287996395562 2.1321606958394197  C 154.38498244152603 1.9362996445479472  154.05711057279765 1.7745713096609848  153.7149441084642 1.6497773241025084  L 153.07120827420633 1.4324397610122503  C 152.83319866498837 1.3526141998198458  152.58593997769202 1.2316285836376093  152.3325152383434 1.0707301868591697  C 152.2683882969997 1.006495555587156  152.24434069399587 0.9341536407565387  152.260989034537 0.8537044423673213  C 152.2767124672703 0.7738788811749167  152.3325152383434 0.7330306447834911  152.42778074255114 1  L 166.02115079440173 1  C 166.14755486147345 0.6687960135114773  166.2841329144314 0.6123568471996609  166.42626041423645 0.5640249644464461  C 166.56529413675952 0.5177652986885577  166.70079514831275 0.46127928912526933  166.83167833667375 0.39501928410940285  C 166.99076247962256 0.3310964714357989  167.06999624849433 0.39501928410940285  167.0699962484944 0.5880349965238486  C 166.98193161887775 1.3724569346091573  166.86252083842766 2.1529536643099187  166.71205692685962 2.9276099403777924  C 166.56900451924673 3.651029088683956  166.41762794136326 4.382867339147133  166.2588521010171 5.122501054570502  C 166.22678863034525 5.219164820076932  166.15526242653885 5.259389419271541  166.04427348959783 5.2431748521543335  C 165.93266794745162 5.227272103635533  165.87717347898106 5.171144755922123  165.87717347898106 5.074169171817287  C 165.81335484024 3.948815850163433  165.4316762182039 3.209805771936877  164.73275421807816 2.854956206948769  C 164.03259900754196 2.5013539163542897  163.17397625926216 2.324552771057051  162.1571942758414 2.324552771057051  L 158.389119866694 2.324552771057051  L 158.389119866694 12.213879619561359  L 163.9213017679983 12.213879619561359  C 164.08007760834448 12.213879619561359  164.28725695730105 12.165859555406556  164.5416066044575 12.068883971301712  L 165.30496384852958 11.77951631197925  C 165.6367811965533 11.593936242214829  165.98888141607506 11.448162169562604  166.3541176052248 11.34515300439714  C 166.51289344557094 11.281230191723537  166.59212721444274 11.34515300439714  166.59212721444274 11.53785689821318  C 166.56006374377088 11.923576504443666  166.5206010106363 12.342348882105378  166.47312240983376 12.791991301009464  C 166.42924318351203 13.211560358756591  166.37352044546196 13.629775788837584  166.306022399217 14.046125703805762  C 166.24028891264226 14.445753047488889  166.19265779739143 14.848211496231311  166.16327829420678 15.252240042447243  C 166.13249653773693 15.656070911297311  166.0845626057731 16.058376563879044  166.01960928138868 16.458042562490323  C 166.01960928138868 16.55470632799675  165.97952994304885 16.61956459646558  165.90029617417713 16.651058274904766  C 165.8207541027027 16.683487409139182  165.74891959629372 16.667584660620385  165.6854092601552 16.602726392151556  C 165.5263251172064 16.442139813971526  165.42335204793335 16.2818650543899  165.37587344713086 16.120343020414644  C 165.32244524404555 15.942817948341379  165.26674054646142 15.766001903357921  165.20877343651406 15.589939584522929  C 165.1443381925678 15.397235690706891  165.0814444616345 15.204219978292445  165.01793412549605 15.011204265877998  C 164.95380718415237 14.818188553463553  164.84312654981392 14.641699226764725  164.68404240686516 14.480800829986286  C 164.52434165871117 14.320214251806254  164.23114588362532 14.199852272820829  163.80168035818417 14.118779437234789  C 163.34379352216854 14.034667739620284  162.8825635763301 13.970374517430951  162.41925148806325 13.926075543418758  C 161.93560725948484 13.878535644052432  161.4499859358501 13.854497963808372  160.9640632037255 13.85404544718655  L 158.43567355968872 13.85404544718655  L 158.43567355968872 23.791392359845656  C 158.91292598853505 24.499532396829835  159.58810868825958 25.03804311628016  160.46276317187528 25.407548155393442  C 161.33710935288838 25.777988650301943  162.18740793089762 25.962273441960964  163.0139672085055 25.962273441960964  C 164.1266313013392 25.962273441960964  165.0731202913639 25.6651103176783  165.8518926655667 25.06984861331776  C 166.6306650397695 24.475210546154035  167.14707189914782 23.631117600264037  167.40203815150954 22.537257957049373  L 167.78340847094296 22.633921722555797  Z M 185.88046294177778 20.269089472230792  C 185.87984633657257 21.39569006827828  185.58541735107625 22.424691443024116  184.99717598528892 23.357029052263538  C 184.4092429221042 24.289990298699767  183.66222571597064 25.085751361836547  182.75581606428574 25.745247697469104  C 181.84971471520342 26.40443221450326  180.84803955931076 26.919868357671394  179.7507905966078 27.28843794098945  C 178.65323333130223 27.658878435897947  177.61178713967237 27.843163227556975  176.62676032432083 27.843163227556975  C 176.1495078954745 27.843163227556975  175.64882446882947 27.787035879843568  175.12471004438584 27.674157547219934  C 174.5996707121343 27.561902851793114  174.12272658589055 27.37761806013409  173.69326106044934 27.11974407925081  C 173.2634872324055 26.86280555416276  172.91356377843871 26.53321329564568  172.64379900115154 26.13065548510118  C 172.37372592126175 25.728721311753485  172.23868938131687 25.222639726537576  172.23868938131687 24.611163455059824  C 172.23868938131687 24.22513203023093  172.27876871965668 23.838788786803633  172.35800248852843 23.453380999171557  C 172.43754456000283 23.067661392941076  172.5087624612067 22.698156353827795  172.57288940255035 22.343306788839687  L 172.8108990117683 21.18583615154982  C 172.8108990117683 21.089172386043394  172.87440934790678 21.040840503290177  173.0017383227863 21.040840503290177  C 173.12845069246063 21.040840503290177  173.19288593640698 21.089172386043394  173.19288593640698 21.18583615154982  L 173.19288593640698 21.90925529985598  C 173.19288593640698 22.584654384007344  173.3356300414172 23.18022790696629  173.62173485664295 23.6941049571424  C 173.90173849679732 24.202128643271987  174.2739992539955 24.65215875967228  174.7189838193459 25.020581274769306  C 175.16386447491774 25.391021769677806  175.6805796368987 25.66417486188307  176.2688210026861 25.841287825778714  C 176.8567540658709 26.01777715247755  177.4533196019288 26.106333634425365  178.0579010056547 26.106333634425365  C 178.6301106361062 26.106333634425365  179.21835200189355 26.009981687517346  179.82293340561947 25.817277793701308  C 180.41417639066566 25.63047699132357  180.9704067511282 25.345079859141944  181.46865269837258 24.9728730292129  C 181.9572796535599 24.60743929967198  182.37028895101693 24.148615371033525  182.68428986047928 23.622386679508597  C 183.0012249359664 23.091671425018472  183.16123398672303 22.50514064141334  183.16123398672303 21.861547054299585  C 183.16123398672303 21.25100623861705  183.01818157911018 20.64794906929631  182.73176846128186 20.052687364935764  C 182.44566364605612 19.458049297772035  182.06398502402007 18.854992128451293  181.58704089777638 18.24382767557195  C 181.0818982492973 17.6015474300346  180.5403278104466 16.989457924730196  179.96506090542448 16.410646135532318  C 179.3526195460412 15.791899478443149  178.73267891712138 15.180792770273595  178.10537960645723 14.577464595492689  C 177.43351778740288 13.930470700895768  176.76572091263597 13.2791724828378  176.10202929467192 12.623609257869226  C 175.43424585741016 11.964736559433483  174.8453878864176 11.289649293880537  174.33699689470723 10.597412005415153  C 173.82829760039425 9.906421991343407  173.414863810289 9.20670105651624  173.09700382699398 8.499184656728872  C 172.77914384369907 7.791980075539915  172.62036800335287 7.068872745832156  172.62036800335287 6.328615393211971  C 172.62036800335287 5.2360030243909375  172.92219625131187 4.295246312994517  173.52646935243516 3.5063452590227078  C 174.1298175457506 2.7190032980429404  174.87775965969203 2.0757215295275877  175.768137576041 1.5768117720750596  C 176.65759058458215 1.078837470417756  177.62781887500824 0.7083969755092571  178.67758923690866 0.46736119894000283  C 179.72674299360384 0.22601360377234245  180.69666298142724 0.10533980618851391  181.5873492003789 0.10533980618851391  C 182.85878913355873 0.10533980618851391  184.02016503760535 0.26655002156536167  185.06901049169798 0.5877231779254234  C 185.1648926011109 0.6525814463942514  185.21267950451605 0.7165042590678571  185.21267950451605 0.7804270717414629  C 185.07881608046722 2.410799494744105  184.8879601508321 4.03587122625953  184.64046987406456 5.652592671863794  C 184.60840640339273 5.748944618771814  184.54427946204908 5.797588320123439  184.44963056304655 5.797588320123439  C 184.3537484536336 5.797588320123439  184.28992981489253 5.748944618771818  184.25879125202854 5.652592671863794  C 184.00413330226942 4.52723935020994  183.51948161096036 3.5624726067361143  182.8039112702934 2.7582924414423258  C 182.0889575348317 1.9547359133453495  181.1418519396017 1.552178102800841  179.9659858132322 1.552178102800841  C 178.7574396109856 1.552178102800841  177.74836519263025 1.9463168111883378  176.9378376503582 2.7339705907665133  C 176.12700180548356 3.5225598261399114  175.72158388304626 4.5269275316115305  175.72158388304626 5.748632800173408  C 175.72158388304626 6.3925382058855735  175.85662042299117 6.987176273049305  176.12700180548356 7.533794276058231  C 176.39645828016816 8.081347734862378  176.7469983393402 8.611751170754092  177.17553895697353 9.125628220930201  C 177.60562108761994 9.640440726901522  178.10630451426496 10.14683413071584  178.67851414471644 10.645120250971551  C 179.2635725443639 11.155612051311781  179.851929287684 11.662224192193076  180.44354654468114 12.164924099611309  C 181.11804255514775 12.718112952161157  181.77803826546364 13.289146255399215  182.4228492534626 13.877431842067113  C 183.0557346596833 14.45255785911285  183.63813986112007 15.082085061645536  184.1635257478208 15.758945264859959  C 184.66268810526302 16.402668636289828  185.0793268119421 17.107674778370527  185.40351881553403 17.85717261354624  C 185.72045389102115 18.59742996616642  185.88046294177778 19.40067467566499  185.88046294177778 20.269089472230792  Z M 15.579038099486633 15.893650899372151  C 15.579038099486633 16.953522315360363  15.366309303683016 17.936062718943425  14.941776619883651 18.840648472924542  C 14.51724393608426 19.744922408307247  13.952741870698164 20.526339815917268  13.24734551591752 21.184900695754607  C 12.542874068944691 21.84283793839512  11.724947264209947 22.354220439783962  10.7941817069185 22.719983655716348  C 9.862799544421842 23.085746871648734  8.883322175917401 23.268784388914128  7.852666575379041 23.268784388914128  C 7.00329290517768 23.268784388914128  6.122164066907072 23.058618653587246  5.210204968375056 22.638287182933496  C 4.298326109014583 22.218583294435128  3.4531828017849318 21.664141705385315  2.7024715987133736 20.99313225773379  C 1.9434305910778948 20.317421354984027  1.3151098869507079 19.54941214710554  0.8187426967422763 18.69035190849197  C 0.3217589013286199 17.8312916698784  0.07326700362181211 16.962876873312595  0.07326700362181211 16.08573115599137  C 0.07326700362181211 14.751459373404273  0.19535483425692907 13.60396693126346  0.4395304955271494 12.64418928536416  C 0.6837061567973697 11.684723458063273  1.076483672527511 10.87150055341565  1.618479647922812 10.204520571421302  C 2.161092228523311 9.537228770828547  2.8745044509719473 8.989051674827586  3.76025782828175 8.559677464820004  C 4.645394600386328 8.130303254812421  5.729694853779508 7.778260057209983  7.013158588461278 7.503859690611092  L 7.365856765851628 7.4764196539512024  C 8.52199152565385 7.385368623216118  9.597659306173826 7.5543743035531605  10.591935199603746 7.983436694962338  C 11.570995812198754 8.403056887244688  12.456002246249943 9.018669726738828  13.193700863062674 9.793231840121376  C 13.934552017143943 10.570595605952093  14.51724393608426 11.488901378263149  14.942084922486256 12.548772794251363  C 15.366309303683016 13.608644210239577  15.579038099486633 14.72401933674438  15.579038099486633 15.893650899372151  Z M 8 22.36981136970435  L 8 8.38225268232595  C 7.351983148734021 8.386306324105252  7.127230551428431 8.401585435427231  7 8.42777819769349  L 7 22.269405781017028  C 7.126922248825825 22.31649038937661  7.351983148733995 22.350166798004658  8 22.36981136970435  Z M 10 22.297469454873738  L 9.198407435788805 22.297469454873738  C 9.663384488847667 22.217020216649335  10.114320879494512 22.0686002084493  10.537057336338476 21.856869775323474  C 11.241837085913911 21.499525661548102  11.833469780330036 21.025249573369795  12.31257202479209 20.43092332480447  C 12.791365966651512 19.83722071343597  13.153313222120246 19.147166155159436  13.397488883390483 18.3610714685733  C 13.641356242058109 17.574976781987164  13.763444072693229 16.743356580033485  13.763444072693229 15.865587225515446  C 13.763444072693229 14.970356029486567  13.632415466582302 14.07481301485928  13.37035825436048 13.179270000231995  C 13.108301042138631 12.28372698560471  12.719839762845078 11.479235001712512  12.204974416479846 10.766417685752216  C 11.699338571025725 10.062261713992994  11.052780686901295 9.473670271692589  10.307371897391143 9.038942650572842  C 9.959205909386945 8.836070087711189  9.58670571747558 8.679292483397912  10 8.572462027354725  L 10 22.297469454873738  Z M 9 22.361392267547348  L 9 8.466443703896065  C 8.505603454295843 8.42739002650982  8.280248914631173 8.401775845111505  8 8.389736328687743  L 8 22.39101503439609  L 8.097458841854458 22.39101503439609  C 8.314195571492057 22.39101503439609  8.525074551679987 22.38134865784544  9 22.361392267547348  Z M 7 22.144366523055492  L 7 8.502302842712961  C 6.0359518425603484 8.582430111711725  5.640501818854653 8.712050617520962  5.26477452903772 8.888334267541854  C 4.550745701383872 9.226969265412759  3.950172231491926 9.693138070032465  3.4621292115540907 10.28652886280256  C 2.9740861916162418 10.880543292769476  2.5985736216324913 11.566232390668292  2.33713301461588 12.342660700703785  C 2.074767499791425 13.119400829337689  1.9440471962831196 13.946655570913663  1.9440471962831196 14.824113106833284  C 1.9440471962831196 15.738365237365048  2.079700341433251 16.64263917274775  2.3510066317335006 17.53787036877663  C 2.6216963168285248 18.43372520200232  3.024031213239699 19.242582646272226  3.557086413159192 19.964130882987945  C 4.078637663942294 20.676174252959353  4.738147980378863 21.273287967209228  5.495384875792926 21.719045954827216  C 5.794753470553476 21.89586088371285  6.11260842277108 22.038508432571874  7 22.144366523055492  Z " fill-rule="nonzero" fill="#ffffff" stroke="none" transform="matrix(1 0 0 1 348 702 )" />
  </g>
</svg>