<?xml version="1.0" encoding="utf-8"?>
<svg version="1.1" xmlns:xlink="http://www.w3.org/1999/xlink" width="6px" height="6px" xmlns="http://www.w3.org/2000/svg">
  <defs>
    <mask fill="white" id="clip351">
      <path d="M 5.6514945652173925 1.132220795892167  L 5.6514945652173925 4.871630295250318  C 5.8031589673913055 4.964056482670089  5.878991168478261 5.0795892169447985  5.878991168478261 5.218228498074452  C 5.878991168478261 5.356867779204105  5.8031589673913055 5.472400513478822  5.6514945652173925 5.564826700898586  L 5.202488111413043 5.857509627727855  C 5.054814877717392 5.952503209242618  4.875212296195652 6  4.663680366847825 6  C 4.456139605978262 6  4.274541440217391 5.952503209242618  4.118885869565218 5.857509627727855  L 0.2215098505434785 3.3465982028241346  C 0.07383661684782572 3.2516046213093706  0 3.136071887034661  0 3  C 0 2.866495507060331  0.07383661684782572 2.7496790757381224  0.2215098505434785 2.649550706033374  L 4.118885869565218 0.1463414634146375  C 4.270550271739131 0.04878048780487461  4.452148437500001 0  4.663680366847825 0  C 4.871221127717391 0  5.050823709239131 0.04878048780487461  5.202488111413043 0.1463414634146375  L 5.6514945652173925 0.4313222079589218  C 5.8031589673913055 0.5288831835686778  5.878991168478261 0.6456996148908866  5.878991168478261 0.7817715019255479  C 5.878991168478261 0.9178433889602025  5.8031589673913055 1.0346598202824113  5.6514945652173925 1.132220795892167  Z " fill-rule="evenodd" />
    </mask>
  </defs>
  <g transform="matrix(1 0 0 1 -1113 -2610 )">
    <path d="M 5.6514945652173925 1.132220795892167  L 5.6514945652173925 4.871630295250318  C 5.8031589673913055 4.964056482670089  5.878991168478261 5.0795892169447985  5.878991168478261 5.218228498074452  C 5.878991168478261 5.356867779204105  5.8031589673913055 5.472400513478822  5.6514945652173925 5.564826700898586  L 5.202488111413043 5.857509627727855  C 5.054814877717392 5.952503209242618  4.875212296195652 6  4.663680366847825 6  C 4.456139605978262 6  4.274541440217391 5.952503209242618  4.118885869565218 5.857509627727855  L 0.2215098505434785 3.3465982028241346  C 0.07383661684782572 3.2516046213093706  0 3.136071887034661  0 3  C 0 2.866495507060331  0.07383661684782572 2.7496790757381224  0.2215098505434785 2.649550706033374  L 4.118885869565218 0.1463414634146375  C 4.270550271739131 0.04878048780487461  4.452148437500001 0  4.663680366847825 0  C 4.871221127717391 0  5.050823709239131 0.04878048780487461  5.202488111413043 0.1463414634146375  L 5.6514945652173925 0.4313222079589218  C 5.8031589673913055 0.5288831835686778  5.878991168478261 0.6456996148908866  5.878991168478261 0.7817715019255479  C 5.878991168478261 0.9178433889602025  5.8031589673913055 1.0346598202824113  5.6514945652173925 1.132220795892167  Z " fill-rule="nonzero" fill="#000000" stroke="none" fill-opacity="0.24705882352941178" transform="matrix(1 0 0 1 1113 2610 )" />
    <path d="M 5.6514945652173925 1.132220795892167  L 5.6514945652173925 4.871630295250318  C 5.8031589673913055 4.964056482670089  5.878991168478261 5.0795892169447985  5.878991168478261 5.218228498074452  C 5.878991168478261 5.356867779204105  5.8031589673913055 5.472400513478822  5.6514945652173925 5.564826700898586  L 5.202488111413043 5.857509627727855  C 5.054814877717392 5.952503209242618  4.875212296195652 6  4.663680366847825 6  C 4.456139605978262 6  4.274541440217391 5.952503209242618  4.118885869565218 5.857509627727855  L 0.2215098505434785 3.3465982028241346  C 0.07383661684782572 3.2516046213093706  0 3.136071887034661  0 3  C 0 2.866495507060331  0.07383661684782572 2.7496790757381224  0.2215098505434785 2.649550706033374  L 4.118885869565218 0.1463414634146375  C 4.270550271739131 0.04878048780487461  4.452148437500001 0  4.663680366847825 0  C 4.871221127717391 0  5.050823709239131 0.04878048780487461  5.202488111413043 0.1463414634146375  L 5.6514945652173925 0.4313222079589218  C 5.8031589673913055 0.5288831835686778  5.878991168478261 0.6456996148908866  5.878991168478261 0.7817715019255479  C 5.878991168478261 0.9178433889602025  5.8031589673913055 1.0346598202824113  5.6514945652173925 1.132220795892167  Z " stroke-width="2" stroke="#ffffff" fill="none" transform="matrix(1 0 0 1 1113 2610 )" mask="url(#clip351)" />
  </g>
</svg>