<?xml version="1.0" encoding="utf-8"?>
<svg version="1.1" xmlns:xlink="http://www.w3.org/1999/xlink" width="5px" height="5px" xmlns="http://www.w3.org/2000/svg">
  <defs>
    <mask fill="white" id="clip430">
      <path d="M 4.709578804347827 0.9435173299101394  L 4.709578804347827 4.059691912708598  C 4.835965806159422 4.136713735558407  4.899159307065217 4.232991014120666  4.899159307065217 4.348523748395376  C 4.899159307065217 4.464056482670088  4.835965806159422 4.560333761232352  4.709578804347827 4.637355584082155  L 4.335406759510869 4.881258023106546  C 4.21234573143116 4.960419341035515  4.062676913496377 5  3.886400305706521 5  C 3.7134496716485508 5  3.562117866847826 4.960419341035515  3.432404891304348 4.881258023106546  L 0.1845915421195654 2.7888318356867785  C 0.06153051403985477 2.709670517757809  0 2.613393239195551  0 2.5  C 0 2.3887462558836092  0.06153051403985477 2.291399229781769  0.1845915421195654 2.2079589216944786  L 3.432404891304348 0.1219512195121979  C 3.5587918931159424 0.040650406504062174  3.7101236979166674 0  3.886400305706521 0  C 4.059350939764492 0  4.209019757699276 0.040650406504062174  4.335406759510869 0.1219512195121979  L 4.709578804347827 0.35943517329910146  C 4.835965806159422 0.44073598630723154  4.899159307065217 0.5380830124090721  4.899159307065217 0.6514762516046233  C 4.899159307065217 0.7648694908001686  4.835965806159422 0.8622165169020093  4.709578804347827 0.9435173299101394  Z " fill-rule="evenodd" />
    </mask>
  </defs>
  <g transform="matrix(1 0 0 1 -659 -1692 )">
    <path d="M 4.709578804347827 0.9435173299101394  L 4.709578804347827 4.059691912708598  C 4.835965806159422 4.136713735558407  4.899159307065217 4.232991014120666  4.899159307065217 4.348523748395376  C 4.899159307065217 4.464056482670088  4.835965806159422 4.560333761232352  4.709578804347827 4.637355584082155  L 4.335406759510869 4.881258023106546  C 4.21234573143116 4.960419341035515  4.062676913496377 5  3.886400305706521 5  C 3.7134496716485508 5  3.562117866847826 4.960419341035515  3.432404891304348 4.881258023106546  L 0.1845915421195654 2.7888318356867785  C 0.06153051403985477 2.709670517757809  0 2.613393239195551  0 2.5  C 0 2.3887462558836092  0.06153051403985477 2.291399229781769  0.1845915421195654 2.2079589216944786  L 3.432404891304348 0.1219512195121979  C 3.5587918931159424 0.040650406504062174  3.7101236979166674 0  3.886400305706521 0  C 4.059350939764492 0  4.209019757699276 0.040650406504062174  4.335406759510869 0.1219512195121979  L 4.709578804347827 0.35943517329910146  C 4.835965806159422 0.44073598630723154  4.899159307065217 0.5380830124090721  4.899159307065217 0.6514762516046233  C 4.899159307065217 0.7648694908001686  4.835965806159422 0.8622165169020093  4.709578804347827 0.9435173299101394  Z " fill-rule="nonzero" fill="#000000" stroke="none" fill-opacity="0.24705882352941178" transform="matrix(1 0 0 1 659 1692 )" />
    <path d="M 4.709578804347827 0.9435173299101394  L 4.709578804347827 4.059691912708598  C 4.835965806159422 4.136713735558407  4.899159307065217 4.232991014120666  4.899159307065217 4.348523748395376  C 4.899159307065217 4.464056482670088  4.835965806159422 4.560333761232352  4.709578804347827 4.637355584082155  L 4.335406759510869 4.881258023106546  C 4.21234573143116 4.960419341035515  4.062676913496377 5  3.886400305706521 5  C 3.7134496716485508 5  3.562117866847826 4.960419341035515  3.432404891304348 4.881258023106546  L 0.1845915421195654 2.7888318356867785  C 0.06153051403985477 2.709670517757809  0 2.613393239195551  0 2.5  C 0 2.3887462558836092  0.06153051403985477 2.291399229781769  0.1845915421195654 2.2079589216944786  L 3.432404891304348 0.1219512195121979  C 3.5587918931159424 0.040650406504062174  3.7101236979166674 0  3.886400305706521 0  C 4.059350939764492 0  4.209019757699276 0.040650406504062174  4.335406759510869 0.1219512195121979  L 4.709578804347827 0.35943517329910146  C 4.835965806159422 0.44073598630723154  4.899159307065217 0.5380830124090721  4.899159307065217 0.6514762516046233  C 4.899159307065217 0.7648694908001686  4.835965806159422 0.8622165169020093  4.709578804347827 0.9435173299101394  Z " stroke-width="2" stroke="#ffffff" fill="none" transform="matrix(1 0 0 1 659 1692 )" mask="url(#clip430)" />
  </g>
</svg>