<?xml version="1.0" encoding="utf-8"?>
<svg version="1.1" xmlns:xlink="http://www.w3.org/1999/xlink" width="7px" height="7px" xmlns="http://www.w3.org/2000/svg">
  <defs>
    <mask fill="white" id="clip431">
      <path d="M 6.593410326086958 1.320924261874195  L 6.593410326086958 5.683568677792038  C 6.770352128623189 5.791399229781771  6.858823029891305 5.926187419768932  6.858823029891305 6.0879332477535275  C 6.858823029891305 6.249679075738123  6.770352128623189 6.384467265725291  6.593410326086958 6.492297817715017  L 6.069569463315217 6.833761232349164  C 5.897284024003623 6.944587077449722  5.687747678894928 7  5.440960427989129 7  C 5.198829540307972 7  4.986965013586956 6.944587077449722  4.805366847826088 6.833761232349164  L 0.2584281589673916 3.90436456996149  C 0.08614271965579667 3.7935387248609325  0 3.6587505348737714  0 3.5  C 0 3.344244758237053  0.08614271965579667 3.207958921694476  0.2584281589673916 3.0911424903722695  L 4.805366847826088 0.17073170731707707  C 4.982308650362319 0.056910569105687044  5.194173177083334 0  5.440960427989129 0  C 5.683091315670289 0  5.892627660778986 0.056910569105687044  6.069569463315217 0.17073170731707707  L 6.593410326086958 0.5032092426187421  C 6.770352128623189 0.6170303808301242  6.858823029891305 0.753316217372701  6.858823029891305 0.9120667522464725  C 6.858823029891305 1.0708172871202362  6.770352128623189 1.2071031236628131  6.593410326086958 1.320924261874195  Z " fill-rule="evenodd" />
    </mask>
  </defs>
  <g transform="matrix(1 0 0 1 -129 -2016 )">
    <path d="M 6.593410326086958 1.320924261874195  L 6.593410326086958 5.683568677792038  C 6.770352128623189 5.791399229781771  6.858823029891305 5.926187419768932  6.858823029891305 6.0879332477535275  C 6.858823029891305 6.249679075738123  6.770352128623189 6.384467265725291  6.593410326086958 6.492297817715017  L 6.069569463315217 6.833761232349164  C 5.897284024003623 6.944587077449722  5.687747678894928 7  5.440960427989129 7  C 5.198829540307972 7  4.986965013586956 6.944587077449722  4.805366847826088 6.833761232349164  L 0.2584281589673916 3.90436456996149  C 0.08614271965579667 3.7935387248609325  0 3.6587505348737714  0 3.5  C 0 3.344244758237053  0.08614271965579667 3.207958921694476  0.2584281589673916 3.0911424903722695  L 4.805366847826088 0.17073170731707707  C 4.982308650362319 0.056910569105687044  5.194173177083334 0  5.440960427989129 0  C 5.683091315670289 0  5.892627660778986 0.056910569105687044  6.069569463315217 0.17073170731707707  L 6.593410326086958 0.5032092426187421  C 6.770352128623189 0.6170303808301242  6.858823029891305 0.753316217372701  6.858823029891305 0.9120667522464725  C 6.858823029891305 1.0708172871202362  6.770352128623189 1.2071031236628131  6.593410326086958 1.320924261874195  Z " fill-rule="nonzero" fill="#000000" stroke="none" fill-opacity="0.24705882352941178" transform="matrix(1 0 0 1 129 2016 )" />
    <path d="M 6.593410326086958 1.320924261874195  L 6.593410326086958 5.683568677792038  C 6.770352128623189 5.791399229781771  6.858823029891305 5.926187419768932  6.858823029891305 6.0879332477535275  C 6.858823029891305 6.249679075738123  6.770352128623189 6.384467265725291  6.593410326086958 6.492297817715017  L 6.069569463315217 6.833761232349164  C 5.897284024003623 6.944587077449722  5.687747678894928 7  5.440960427989129 7  C 5.198829540307972 7  4.986965013586956 6.944587077449722  4.805366847826088 6.833761232349164  L 0.2584281589673916 3.90436456996149  C 0.08614271965579667 3.7935387248609325  0 3.6587505348737714  0 3.5  C 0 3.344244758237053  0.08614271965579667 3.207958921694476  0.2584281589673916 3.0911424903722695  L 4.805366847826088 0.17073170731707707  C 4.982308650362319 0.056910569105687044  5.194173177083334 0  5.440960427989129 0  C 5.683091315670289 0  5.892627660778986 0.056910569105687044  6.069569463315217 0.17073170731707707  L 6.593410326086958 0.5032092426187421  C 6.770352128623189 0.6170303808301242  6.858823029891305 0.753316217372701  6.858823029891305 0.9120667522464725  C 6.858823029891305 1.0708172871202362  6.770352128623189 1.2071031236628131  6.593410326086958 1.320924261874195  Z " stroke-width="2" stroke="#ffffff" fill="none" transform="matrix(1 0 0 1 129 2016 )" mask="url(#clip431)" />
  </g>
</svg>