<?xml version="1.0" encoding="utf-8"?>
<svg version="1.1" xmlns:xlink="http://www.w3.org/1999/xlink" width="5px" height="11px" xmlns="http://www.w3.org/2000/svg">
  <g transform="matrix(1 0 0 1 -817 -3473 )">
    <path d="M 4.914089347079009 5.246492985972054  C 4.971363115692971 5.31997327989302  5 5.404475617902335  5 5.5  C 5 5.595524382097665  4.971363115692971 5.68002672010698  4.914089347079009 5.753507014027946  L 0.9106529209622256 10.889779559118324  C 0.853379152348263 10.96325985303929  0.7875143184421063 11  0.7130584192439453 11  C 0.6386025200457841 11  0.5727376861397223 10.96325985303929  0.5154639175257595 10.889779559118324  L 0.08591065292099151 10.338677354709489  C 0.028636884307028744 10.265197060788068  0 10.180694722778753  0 10.085170340681543  C 0 9.989645958583878  0.028636884307028744 9.905143620574563  0.08591065292099151 9.831663326653143  L 3.4621993127148203 5.5  L 2.7549687846958664 4.592647326577662  L 0.08591065292099151 1.1683366733468574  C 0.028636884307028744 1.094856379425437  0 1.0103540414161216  0 0.9148296593184568  C 0 0.8193052772212468  0.028636884307028744 0.7348029392119315  0.08591065292099151 0.661322645290511  L 0.5154639175257595 0.11022044088167603  C 0.5727376861397223 0.03674014696071026  0.6386025200457841 0  0.7130584192439453 0  C 0.7875143184421063 0  0.853379152348263 0.03674014696071026  0.9106529209622256 0.11022044088167603  L 4.914089347079009 5.246492985972054  Z " fill-rule="nonzero" fill="#999ca0" stroke="none" transform="matrix(1 0 0 1 817 3473 )" />
  </g>
</svg>