<?xml version="1.0" encoding="utf-8"?>
<svg version="1.1" xmlns:xlink="http://www.w3.org/1999/xlink" width="6px" height="11px" xmlns="http://www.w3.org/2000/svg">
  <g transform="matrix(1 0 0 1 -947 -4003 )">
    <path d="M 5.89690721649481 5.246492985972054  C 5.9656357388315655 5.31997327989302  6 5.404475617902335  6 5.5  C 6 5.595524382097665  5.9656357388315655 5.68002672010698  5.89690721649481 5.753507014027946  L 1.0927835051546708 10.889779559118324  C 1.0240549828179155 10.96325985303929  0.9450171821305275 11  0.8556701030927343 11  C 0.766323024054941 11  0.6872852233676667 10.96325985303929  0.6185567010309114 10.889779559118324  L 0.1030927835051898 10.338677354709489  C 0.034364261168434496 10.265197060788068  0 10.180694722778753  0 10.085170340681543  C 0 9.989645958583878  0.034364261168434496 9.905143620574563  0.1030927835051898 9.831663326653143  L 4.154639175257785 5.5  L 3.30596254163504 4.592647326577662  L 0.1030927835051898 1.1683366733468574  C 0.034364261168434496 1.094856379425437  0 1.0103540414161216  0 0.9148296593184568  C 0 0.8193052772212468  0.034364261168434496 0.7348029392119315  0.1030927835051898 0.661322645290511  L 0.6185567010309114 0.11022044088167603  C 0.6872852233676667 0.03674014696071026  0.766323024054941 0  0.8556701030927343 0  C 0.9450171821305275 0  1.0240549828179155 0.03674014696071026  1.0927835051546708 0.11022044088167603  L 5.89690721649481 5.246492985972054  Z " fill-rule="nonzero" fill="#999ca0" stroke="none" transform="matrix(1 0 0 1 947 4003 )" />
  </g>
</svg>