<?xml version="1.0" encoding="utf-8"?>
<svg version="1.1" xmlns:xlink="http://www.w3.org/1999/xlink" width="9px" height="9px" xmlns="http://www.w3.org/2000/svg">
  <g transform="matrix(1 0 0 1 -564 -1728 )">
    <path d="M 6.287946428571429 7.917689732142858  C 6.8404017857142865 7.624720982142858  7.294084821428573 7.227120535714285  7.6489955357142865 6.724888392857142  C 7.575334821428573 6.205915178571429  7.428850446428572 5.774832589285714  7.2095424107142865 5.431640625  C 6.990234375 5.088448660714286  6.681361607142858 4.8900669642857135  6.282924107142858 4.836495535714285  C 6.05859375 5.084263392857142  5.791573660714286 5.277622767857142  5.4818638392857135 5.416573660714285  C 5.172154017857144 5.555524553571429  4.844866071428572 5.625  4.5 5.625  C 4.155133928571429 5.625  3.8278459821428577 5.555524553571429  3.5181361607142856 5.416573660714285  C 3.208426339285715 5.277622767857142  2.94140625 5.084263392857142  2.7170758928571432 4.836495535714285  C 2.318638392857143 4.8900669642857135  2.009765625 5.088448660714286  1.7904575892857144 5.431640625  C 1.5711495535714288 5.774832589285714  1.4246651785714286 6.205915178571429  1.3510044642857144 6.724888392857142  C 1.7059151785714286 7.227120535714285  2.1595982142857144 7.624720982142858  2.712053571428571 7.917689732142858  C 3.264508928571429 8.210658482142858  3.860491071428572 8.357142857142858  4.5 8.357142857142858  C 5.139508928571429 8.357142857142858  5.735491071428571 8.210658482142858  6.287946428571429 7.917689732142858  Z M 5.863560267857142 4.577845982142858  C 6.240234375 4.201171875  6.428571428571429 3.746651785714286  6.428571428571429 3.214285714285714  C 6.428571428571429 2.6819196428571423  6.240234375 2.227399553571429  5.863560267857142 1.8507254464285712  C 5.4868861607142865 1.474051339285714  5.032366071428571 1.285714285714286  4.5 1.285714285714286  C 3.967633928571429 1.285714285714286  3.5131138392857144 1.474051339285714  3.1364397321428568 1.8507254464285712  C 2.759765625 2.227399553571429  2.571428571428571 2.6819196428571423  2.571428571428571 3.214285714285714  C 2.571428571428571 3.746651785714286  2.759765625 4.201171875  3.1364397321428568 4.577845982142858  C 3.5131138392857144 4.954520089285715  3.967633928571429 5.142857142857142  4.5 5.142857142857142  C 5.032366071428571 5.142857142857142  5.4868861607142865 4.954520089285715  5.863560267857142 4.577845982142858  Z M 8.643415178571429 2.7522321428571423  C 8.881138392857144 3.3080357142857135  9 3.8906249999999996  9 4.5  C 9 5.109374999999999  8.881138392857144 5.691127232142856  8.643415178571429 6.245256696428571  C 8.405691964285715 6.799386160714286  8.08677455357143 7.278180803571429  7.686662946428571 7.681640625  C 7.286551339285715 8.085100446428571  6.808593750000001 8.405691964285715  6.252790178571429 8.643415178571429  C 5.696986607142858 8.881138392857142  5.1127232142857135 9  4.5 9  C 3.890625 9  3.3080357142857144 8.881138392857142  2.7522321428571432 8.643415178571429  C 2.1964285714285716 8.405691964285715  1.7176339285714284 8.0859375  1.3158482142857144 7.684151785714285  C 0.9140625 7.282366071428571  0.5943080357142857 6.803571428571429  0.3565848214285714 6.247767857142858  C 0.11886160714285712 5.691964285714286  0 5.109374999999999  0 4.5  C 0 3.8906249999999996  0.11886160714285712 3.3080357142857135  0.3565848214285714 2.7522321428571423  C 0.5943080357142857 2.1964285714285707  0.9140625 1.7176339285714288  1.3158482142857144 1.315848214285714  C 1.7176339285714284 0.9140625  2.1964285714285716 0.5943080357142855  2.7522321428571432 0.3565848214285713  C 3.3080357142857144 0.1188616071428571  3.890625 0  4.5 0  C 5.109375 0  5.6919642857142865 0.1188616071428571  6.247767857142858 0.3565848214285713  C 6.80357142857143 0.5943080357142855  7.282366071428571 0.9140625  7.6841517857142865 1.315848214285714  C 8.085937500000002 1.7176339285714288  8.405691964285715 2.1964285714285707  8.643415178571429 2.7522321428571423  Z " fill-rule="nonzero" fill="#ffffff" stroke="none" transform="matrix(1 0 0 1 564 1728 )" />
  </g>
</svg>