<?xml version="1.0" encoding="utf-8"?>
<svg version="1.1" xmlns:xlink="http://www.w3.org/1999/xlink" width="22px" height="23px" xmlns="http://www.w3.org/2000/svg">
  <defs>
    <mask fill="white" id="clip352">
      <path d="M 20.722146739130437 4.340179717586641  L 20.722146739130437 18.674582798459554  C 21.278249547101453 19.028883183568677  21.556300951086957 19.47175866495506  21.556300951086957 20.00320924261873  C 21.556300951086957 20.534659820282403  21.278249547101453 20.977535301668816  20.722146739130437 21.331835686777914  L 19.075789741847824 22.45378690629011  C 18.5343212182971 22.81792896876337  17.87577841938406 23  17.100161345108692 23  C 16.339178555253625 23  15.673318614130434 22.81792896876337  15.102581521739133 22.45378690629011  L 0.8122027853260878 12.828626444159182  C 0.270734261775361 12.46448438168592  0 12.021608900299535  0 11.5  C 0 10.988232777064603  0.270734261775361 10.540436456996137  0.8122027853260878 10.156611039794601  L 15.102581521739133 0.5609756097561104  C 15.658684329710146 0.186991869918686  16.324544270833336 0  17.100161345108692 0  C 17.861144134963766 0  18.519686933876816 0.186991869918686  19.075789741847824 0.5609756097561104  L 20.722146739130437 1.6534017971758668  C 21.278249547101453 2.027385537013265  21.556300951086957 2.475181857081732  21.556300951086957 2.996790757381267  C 21.556300951086957 3.5183996576807757  21.278249547101453 3.966195977749243  20.722146739130437 4.340179717586641  Z " fill-rule="evenodd" />
    </mask>
  </defs>
  <g transform="matrix(1 0 0 1 -85 -5788 )">
    <path d="M 20.722146739130437 4.340179717586641  L 20.722146739130437 18.674582798459554  C 21.278249547101453 19.028883183568677  21.556300951086957 19.47175866495506  21.556300951086957 20.00320924261873  C 21.556300951086957 20.534659820282403  21.278249547101453 20.977535301668816  20.722146739130437 21.331835686777914  L 19.075789741847824 22.45378690629011  C 18.5343212182971 22.81792896876337  17.87577841938406 23  17.100161345108692 23  C 16.339178555253625 23  15.673318614130434 22.81792896876337  15.102581521739133 22.45378690629011  L 0.8122027853260878 12.828626444159182  C 0.270734261775361 12.46448438168592  0 12.021608900299535  0 11.5  C 0 10.988232777064603  0.270734261775361 10.540436456996137  0.8122027853260878 10.156611039794601  L 15.102581521739133 0.5609756097561104  C 15.658684329710146 0.186991869918686  16.324544270833336 0  17.100161345108692 0  C 17.861144134963766 0  18.519686933876816 0.186991869918686  19.075789741847824 0.5609756097561104  L 20.722146739130437 1.6534017971758668  C 21.278249547101453 2.027385537013265  21.556300951086957 2.475181857081732  21.556300951086957 2.996790757381267  C 21.556300951086957 3.5183996576807757  21.278249547101453 3.966195977749243  20.722146739130437 4.340179717586641  Z " fill-rule="nonzero" fill="#ffffff" stroke="none" fill-opacity="0" transform="matrix(1 0 0 1 85 5788 )" />
    <path d="M 20.722146739130437 4.340179717586641  L 20.722146739130437 18.674582798459554  C 21.278249547101453 19.028883183568677  21.556300951086957 19.47175866495506  21.556300951086957 20.00320924261873  C 21.556300951086957 20.534659820282403  21.278249547101453 20.977535301668816  20.722146739130437 21.331835686777914  L 19.075789741847824 22.45378690629011  C 18.5343212182971 22.81792896876337  17.87577841938406 23  17.100161345108692 23  C 16.339178555253625 23  15.673318614130434 22.81792896876337  15.102581521739133 22.45378690629011  L 0.8122027853260878 12.828626444159182  C 0.270734261775361 12.46448438168592  0 12.021608900299535  0 11.5  C 0 10.988232777064603  0.270734261775361 10.540436456996137  0.8122027853260878 10.156611039794601  L 15.102581521739133 0.5609756097561104  C 15.658684329710146 0.186991869918686  16.324544270833336 0  17.100161345108692 0  C 17.861144134963766 0  18.519686933876816 0.186991869918686  19.075789741847824 0.5609756097561104  L 20.722146739130437 1.6534017971758668  C 21.278249547101453 2.027385537013265  21.556300951086957 2.475181857081732  21.556300951086957 2.996790757381267  C 21.556300951086957 3.5183996576807757  21.278249547101453 3.966195977749243  20.722146739130437 4.340179717586641  Z " stroke-width="2" stroke="#ffffff" fill="none" transform="matrix(1 0 0 1 85 5788 )" mask="url(#clip352)" />
  </g>
</svg>