<?xml version="1.0" encoding="utf-8"?>
<svg version="1.1" xmlns:xlink="http://www.w3.org/1999/xlink" width="5px" height="10px" xmlns="http://www.w3.org/2000/svg">
  <g transform="matrix(1 0 0 1 -1238 -8424 )">
    <path d="M 4.914089347079009 4.769539078156413  C 4.971363115692971 4.836339345357291  5 4.913159652638487  5 5  C 5 5.086840347361513  4.971363115692971 5.163660654642709  4.914089347079009 5.230460921843587  L 0.9106529209622256 9.899799599198477  C 0.853379152348263 9.966599866399354  0.7875143184421063 10  0.7130584192439453 10  C 0.6386025200457841 10  0.5727376861397223 9.966599866399354  0.5154639175257595 9.899799599198477  L 0.08591065292099151 9.398797595190445  C 0.028636884307028744 9.331997327989153  0 9.255177020707958  0 9.168336673346857  C 0 9.081496325985345  0.028636884307028744 9.00467601870415  0.08591065292099151 8.937875751502858  L 3.4621993127148203 5  L 2.7549687846958664 4.17513393325242  L 0.08591065292099151 1.0621242484971432  C 0.028636884307028744 0.9953239812958516  0 0.9185036740146559  0 0.8316633266531426  C 0 0.7448229792920426  0.028636884307028744 0.6680026720108468  0.08591065292099151 0.6012024048095554  L 0.5154639175257595 0.10020040080152366  C 0.5727376861397223 0.0334001336006457  0.6386025200457841 0  0.7130584192439453 0  C 0.7875143184421063 0  0.853379152348263 0.0334001336006457  0.9106529209622256 0.10020040080152366  L 4.914089347079009 4.769539078156413  Z " fill-rule="nonzero" fill="#ffffff" stroke="none" transform="matrix(1 0 0 1 1238 8424 )" />
  </g>
</svg>