<?xml version="1.0" encoding="utf-8"?>
<svg version="1.1" xmlns:xlink="http://www.w3.org/1999/xlink" width="14px" height="14px" xmlns="http://www.w3.org/2000/svg">
  <defs>
    <mask fill="white" id="clip353">
      <path d="M 13.186820652173916 2.64184852374839  L 13.186820652173916 11.367137355584076  C 13.540704257246379 11.582798459563541  13.71764605978261 11.852374839537864  13.71764605978261 12.175866495507055  C 13.71764605978261 12.499358151476246  13.540704257246379 12.768934531450583  13.186820652173916 12.984595635430034  L 12.139138926630434 13.667522464698328  C 11.794568048007246 13.889174154899443  11.375495357789855 14  10.881920855978258 14  C 10.397659080615943 14  9.973930027173912 13.889174154899443  9.610733695652176 13.667522464698328  L 0.5168563179347831 7.80872913992298  C 0.17228543931159335 7.587077449721865  0 7.317501069747543  0 7  C 0 6.688489516474106  0.17228543931159335 6.415917843388952  0.5168563179347831 6.182284980744539  L 9.610733695652176 0.34146341463415414  C 9.964617300724639 0.11382113821137409  10.388346354166668 0  10.881920855978258 0  C 11.366182631340578 0  11.785255321557973 0.11382113821137409  12.139138926630434 0.34146341463415414  L 13.186820652173916 1.0064184852374842  C 13.540704257246379 1.2340607616602484  13.71764605978261 1.506632434745402  13.71764605978261 1.824133504492945  C 13.71764605978261 2.1416345742404723  13.540704257246379 2.4142062473256263  13.186820652173916 2.64184852374839  Z " fill-rule="evenodd" />
    </mask>
  </defs>
  <g transform="matrix(1 0 0 1 -142 -8084 )">
    <path d="M 13.186820652173916 2.64184852374839  L 13.186820652173916 11.367137355584076  C 13.540704257246379 11.582798459563541  13.71764605978261 11.852374839537864  13.71764605978261 12.175866495507055  C 13.71764605978261 12.499358151476246  13.540704257246379 12.768934531450583  13.186820652173916 12.984595635430034  L 12.139138926630434 13.667522464698328  C 11.794568048007246 13.889174154899443  11.375495357789855 14  10.881920855978258 14  C 10.397659080615943 14  9.973930027173912 13.889174154899443  9.610733695652176 13.667522464698328  L 0.5168563179347831 7.80872913992298  C 0.17228543931159335 7.587077449721865  0 7.317501069747543  0 7  C 0 6.688489516474106  0.17228543931159335 6.415917843388952  0.5168563179347831 6.182284980744539  L 9.610733695652176 0.34146341463415414  C 9.964617300724639 0.11382113821137409  10.388346354166668 0  10.881920855978258 0  C 11.366182631340578 0  11.785255321557973 0.11382113821137409  12.139138926630434 0.34146341463415414  L 13.186820652173916 1.0064184852374842  C 13.540704257246379 1.2340607616602484  13.71764605978261 1.506632434745402  13.71764605978261 1.824133504492945  C 13.71764605978261 2.1416345742404723  13.540704257246379 2.4142062473256263  13.186820652173916 2.64184852374839  Z " fill-rule="nonzero" fill="#ffffff" stroke="none" fill-opacity="0" transform="matrix(1 0 0 1 142 8084 )" />
    <path d="M 13.186820652173916 2.64184852374839  L 13.186820652173916 11.367137355584076  C 13.540704257246379 11.582798459563541  13.71764605978261 11.852374839537864  13.71764605978261 12.175866495507055  C 13.71764605978261 12.499358151476246  13.540704257246379 12.768934531450583  13.186820652173916 12.984595635430034  L 12.139138926630434 13.667522464698328  C 11.794568048007246 13.889174154899443  11.375495357789855 14  10.881920855978258 14  C 10.397659080615943 14  9.973930027173912 13.889174154899443  9.610733695652176 13.667522464698328  L 0.5168563179347831 7.80872913992298  C 0.17228543931159335 7.587077449721865  0 7.317501069747543  0 7  C 0 6.688489516474106  0.17228543931159335 6.415917843388952  0.5168563179347831 6.182284980744539  L 9.610733695652176 0.34146341463415414  C 9.964617300724639 0.11382113821137409  10.388346354166668 0  10.881920855978258 0  C 11.366182631340578 0  11.785255321557973 0.11382113821137409  12.139138926630434 0.34146341463415414  L 13.186820652173916 1.0064184852374842  C 13.540704257246379 1.2340607616602484  13.71764605978261 1.506632434745402  13.71764605978261 1.824133504492945  C 13.71764605978261 2.1416345742404723  13.540704257246379 2.4142062473256263  13.186820652173916 2.64184852374839  Z " stroke-width="2" stroke="#ffffff" fill="none" transform="matrix(1 0 0 1 142 8084 )" mask="url(#clip353)" />
  </g>
</svg>