<?xml version="1.0" encoding="utf-8"?>
<svg version="1.1" xmlns:xlink="http://www.w3.org/1999/xlink" width="10px" height="10px" xmlns="http://www.w3.org/2000/svg">
  <defs>
    <mask fill="white" id="clip433">
      <path d="M 9.419157608695627 1.8870346598203014  L 9.419157608695627 5.476190476190368  L 9.419157608695627 8.119383825417117  C 9.67193161231884 8.27342747111678  9.798318614130446 8.465982028241276  9.798318614130446 8.697047496790772  C 9.798318614130446 8.928112965340103  9.67193161231884 9.120667522464762  9.419157608695627 9.274711168164263  L 8.670813519021701 9.762516046213088  C 8.424691462862322 9.920838682070976  8.125353826992766 10  7.772800611413037 10  C 7.426899343297139 10  7.1242357336956275 9.920838682070976  6.864809782608664 9.762516046213088  L 0.3691830842391092 5.577663671373491  C 0.12306102807973016 5.419341035515605  0 5.226786478391107  0 5  C 0 4.77749251176728  0.12306102807973016 4.582798459563589  0.3691830842391092 4.415917843388927  L 6.864809782608664 0.2439024390243308  C 7.117583786231876 0.08130081300805614  7.4202473958333055 0  7.772800611413037 0  C 8.118701879529015 0  8.41803951539857 0.08130081300805614  8.670813519021701 0.2439024390243308  L 9.419157608695627 0.718870346598156  C 9.67193161231884 0.8814719726144306  9.798318614130446 1.0761660248181215  9.798318614130446 1.3029525032092288  C 9.798318614130446 1.5297389816003357  9.67193161231884 1.7244330338040268  9.419157608695627 1.8870346598203014  Z " fill-rule="evenodd" />
    </mask>
  </defs>
  <g transform="matrix(1 0 0 1 -407 -5123 )">
    <path d="M 9.419157608695627 1.8870346598203014  L 9.419157608695627 5.476190476190368  L 9.419157608695627 8.119383825417117  C 9.67193161231884 8.27342747111678  9.798318614130446 8.465982028241276  9.798318614130446 8.697047496790772  C 9.798318614130446 8.928112965340103  9.67193161231884 9.120667522464762  9.419157608695627 9.274711168164263  L 8.670813519021701 9.762516046213088  C 8.424691462862322 9.920838682070976  8.125353826992766 10  7.772800611413037 10  C 7.426899343297139 10  7.1242357336956275 9.920838682070976  6.864809782608664 9.762516046213088  L 0.3691830842391092 5.577663671373491  C 0.12306102807973016 5.419341035515605  0 5.226786478391107  0 5  C 0 4.77749251176728  0.12306102807973016 4.582798459563589  0.3691830842391092 4.415917843388927  L 6.864809782608664 0.2439024390243308  C 7.117583786231876 0.08130081300805614  7.4202473958333055 0  7.772800611413037 0  C 8.118701879529015 0  8.41803951539857 0.08130081300805614  8.670813519021701 0.2439024390243308  L 9.419157608695627 0.718870346598156  C 9.67193161231884 0.8814719726144306  9.798318614130446 1.0761660248181215  9.798318614130446 1.3029525032092288  C 9.798318614130446 1.5297389816003357  9.67193161231884 1.7244330338040268  9.419157608695627 1.8870346598203014  Z " fill-rule="nonzero" fill="#ffffff" stroke="none" fill-opacity="0" transform="matrix(1 0 0 1 407 5123 )" />
    <path d="M 9.419157608695627 1.8870346598203014  L 9.419157608695627 5.476190476190368  L 9.419157608695627 8.119383825417117  C 9.67193161231884 8.27342747111678  9.798318614130446 8.465982028241276  9.798318614130446 8.697047496790772  C 9.798318614130446 8.928112965340103  9.67193161231884 9.120667522464762  9.419157608695627 9.274711168164263  L 8.670813519021701 9.762516046213088  C 8.424691462862322 9.920838682070976  8.125353826992766 10  7.772800611413037 10  C 7.426899343297139 10  7.1242357336956275 9.920838682070976  6.864809782608664 9.762516046213088  L 0.3691830842391092 5.577663671373491  C 0.12306102807973016 5.419341035515605  0 5.226786478391107  0 5  C 0 4.77749251176728  0.12306102807973016 4.582798459563589  0.3691830842391092 4.415917843388927  L 6.864809782608664 0.2439024390243308  C 7.117583786231876 0.08130081300805614  7.4202473958333055 0  7.772800611413037 0  C 8.118701879529015 0  8.41803951539857 0.08130081300805614  8.670813519021701 0.2439024390243308  L 9.419157608695627 0.718870346598156  C 9.67193161231884 0.8814719726144306  9.798318614130446 1.0761660248181215  9.798318614130446 1.3029525032092288  C 9.798318614130446 1.5297389816003357  9.67193161231884 1.7244330338040268  9.419157608695627 1.8870346598203014  Z " stroke-width="2" stroke="#ffffff" fill="none" transform="matrix(1 0 0 1 407 5123 )" mask="url(#clip433)" />
  </g>
</svg>