<?xml version="1.0" encoding="utf-8"?>
<svg version="1.1" xmlns:xlink="http://www.w3.org/1999/xlink" width="18px" height="18px" xmlns="http://www.w3.org/2000/svg">
  <g transform="matrix(1 0 0 1 -463 -9256 )">
    <path d="M 12.575892857142858 15.835379464285715  C 13.680803571428573 15.249441964285715  14.588169642857146 14.45424107142857  15.297991071428573 13.449776785714285  C 15.150669642857146 12.411830357142858  14.857700892857144 11.549665178571429  14.419084821428573 10.86328125  C 13.98046875 10.176897321428571  13.362723214285715 9.780133928571427  12.565848214285715 9.67299107142857  C 12.1171875 10.168526785714285  11.583147321428571 10.555245535714285  10.963727678571427 10.83314732142857  C 10.344308035714288 11.111049107142858  9.689732142857144 11.25  9 11.25  C 8.310267857142858 11.25  7.655691964285715 11.111049107142858  7.036272321428571 10.83314732142857  C 6.41685267857143 10.555245535714285  5.8828125 10.168526785714285  5.4341517857142865 9.67299107142857  C 4.637276785714286 9.780133928571427  4.01953125 10.176897321428571  3.580915178571429 10.86328125  C 3.1422991071428577 11.549665178571429  2.849330357142857 12.411830357142858  2.702008928571429 13.449776785714285  C 3.411830357142857 14.45424107142857  4.319196428571429 15.249441964285715  5.424107142857142 15.835379464285715  C 6.529017857142858 16.421316964285715  7.720982142857144 16.714285714285715  9 16.714285714285715  C 10.279017857142858 16.714285714285715  11.470982142857142 16.421316964285715  12.575892857142858 15.835379464285715  Z M 11.727120535714285 9.155691964285715  C 12.48046875 8.40234375  12.857142857142858 7.493303571428572  12.857142857142858 6.428571428571428  C 12.857142857142858 5.363839285714285  12.48046875 4.454799107142858  11.727120535714285 3.7014508928571423  C 10.973772321428573 2.948102678571428  10.064732142857142 2.571428571428572  9 2.571428571428572  C 7.935267857142858 2.571428571428572  7.026227678571429 2.948102678571428  6.2728794642857135 3.7014508928571423  C 5.51953125 4.454799107142858  5.142857142857142 5.363839285714285  5.142857142857142 6.428571428571428  C 5.142857142857142 7.493303571428572  5.51953125 8.40234375  6.2728794642857135 9.155691964285715  C 7.026227678571429 9.90904017857143  7.935267857142858 10.285714285714285  9 10.285714285714285  C 10.064732142857142 10.285714285714285  10.973772321428573 9.90904017857143  11.727120535714285 9.155691964285715  Z M 17.286830357142858 5.504464285714285  C 17.76227678571429 6.616071428571427  18 7.781249999999999  18 9  C 18 10.218749999999998  17.76227678571429 11.382254464285712  17.286830357142858 12.490513392857142  C 16.81138392857143 13.598772321428571  16.17354910714286 14.556361607142858  15.373325892857142 15.36328125  C 14.57310267857143 16.170200892857142  13.617187500000002 16.81138392857143  12.505580357142858 17.286830357142858  C 11.393973214285715 17.762276785714285  10.225446428571427 18  9 18  C 7.78125 18  6.616071428571429 17.762276785714285  5.5044642857142865 17.286830357142858  C 4.392857142857143 16.81138392857143  3.4352678571428568 16.171875  2.631696428571429 15.36830357142857  C 1.828125 14.564732142857142  1.1886160714285714 13.607142857142858  0.7131696428571428 12.495535714285715  C 0.23772321428571425 11.383928571428571  0 10.218749999999998  0 9  C 0 7.781249999999999  0.23772321428571425 6.616071428571427  0.7131696428571428 5.504464285714285  C 1.1886160714285714 4.3928571428571415  1.828125 3.4352678571428577  2.631696428571429 2.631696428571428  C 3.4352678571428568 1.828125  4.392857142857143 1.188616071428571  5.5044642857142865 0.7131696428571426  C 6.616071428571429 0.2377232142857142  7.78125 0  9 0  C 10.21875 0  11.383928571428573 0.2377232142857142  12.495535714285715 0.7131696428571426  C 13.60714285714286 1.188616071428571  14.564732142857142 1.828125  15.368303571428573 2.631696428571428  C 16.171875000000004 3.4352678571428577  16.81138392857143 4.3928571428571415  17.286830357142858 5.504464285714285  Z " fill-rule="nonzero" fill="#ffffff" stroke="none" transform="matrix(1 0 0 1 463 9256 )" />
  </g>
</svg>