<?xml version="1.0" encoding="utf-8"?>
<svg version="1.1" xmlns:xlink="http://www.w3.org/1999/xlink" width="20px" height="20px" xmlns="http://www.w3.org/2000/svg">
  <g transform="matrix(1 0 0 1 -1192 -3468 )">
    <path d="M 13.973214285714286 17.594866071428573  C 15.200892857142858 16.943824404761905  16.209077380952383 16.060267857142854  16.997767857142858 14.944196428571427  C 16.834077380952383 13.790922619047619  16.508556547619047 12.83296130952381  16.021205357142858 12.0703125  C 15.533854166666668 11.30766369047619  14.847470238095239 10.866815476190474  13.962053571428573 10.747767857142856  C 13.463541666666668 11.298363095238093  12.87016369047619 11.728050595238093  12.181919642857142 12.036830357142856  C 11.493675595238098 12.345610119047619  10.76636904761905 12.5  10 12.5  C 9.233630952380953 12.5  8.506324404761905 12.345610119047619  7.818080357142857 12.036830357142856  C 7.12983630952381 11.728050595238093  6.536458333333334 11.298363095238093  6.037946428571429 10.747767857142856  C 5.152529761904762 10.866815476190474  4.466145833333334 11.30766369047619  3.9787946428571432 12.0703125  C 3.491443452380953 12.83296130952381  3.165922619047619 13.790922619047619  3.0022321428571432 14.944196428571427  C 3.790922619047619 16.060267857142854  4.799107142857143 16.943824404761905  6.0267857142857135 17.594866071428573  C 7.2544642857142865 18.245907738095237  8.57886904761905 18.571428571428573  10 18.571428571428573  C 11.421130952380953 18.571428571428573  12.745535714285714 18.245907738095237  13.973214285714286 17.594866071428573  Z M 13.030133928571427 10.172991071428573  C 13.8671875 9.3359375  14.285714285714286 8.325892857142858  14.285714285714286 7.142857142857142  C 14.285714285714286 5.959821428571428  13.8671875 4.9497767857142865  13.030133928571427 4.1127232142857135  C 12.193080357142858 3.275669642857142  11.183035714285714 2.857142857142858  10 2.857142857142858  C 8.816964285714286 2.857142857142858  7.806919642857143 3.275669642857142  6.969866071428571 4.1127232142857135  C 6.1328125 4.9497767857142865  5.7142857142857135 5.959821428571428  5.7142857142857135 7.142857142857142  C 5.7142857142857135 8.325892857142858  6.1328125 9.3359375  6.969866071428571 10.172991071428573  C 7.806919642857143 11.010044642857144  8.816964285714286 11.428571428571427  10 11.428571428571427  C 11.183035714285714 11.428571428571427  12.193080357142858 11.010044642857144  13.030133928571427 10.172991071428573  Z M 19.207589285714285 6.116071428571428  C 19.7358630952381 7.3511904761904745  20 8.645833333333332  20 10  C 20 11.354166666666664  19.7358630952381 12.646949404761902  19.207589285714285 13.878348214285714  C 18.679315476190478 15.109747023809524  17.970610119047624 16.17373511904762  17.081473214285715 17.0703125  C 16.19233630952381 17.96688988095238  15.130208333333336 18.679315476190478  13.895089285714286 19.207589285714285  C 12.659970238095239 19.735863095238095  11.361607142857142 20  10 20  C 8.645833333333334 20  7.351190476190476 19.735863095238095  6.116071428571429 19.207589285714285  C 4.880952380952381 18.679315476190478  3.8169642857142856 17.96875  2.9241071428571432 17.075892857142854  C 2.03125 16.183035714285715  1.3206845238095237 15.119047619047619  0.7924107142857142 13.883928571428573  C 0.2641369047619047 12.648809523809524  0 11.354166666666664  0 10  C 0 8.645833333333332  0.2641369047619047 7.3511904761904745  0.7924107142857142 6.116071428571428  C 1.3206845238095237 4.88095238095238  2.03125 3.816964285714286  2.9241071428571432 2.924107142857142  C 3.8169642857142856 2.03125  4.880952380952381 1.3206845238095233  6.116071428571429 0.792410714285714  C 7.351190476190476 0.26413690476190466  8.645833333333334 0  10 0  C 11.354166666666668 0  12.648809523809526 0.26413690476190466  13.883928571428573 0.792410714285714  C 15.11904761904762 1.3206845238095233  16.183035714285715 2.03125  17.075892857142858 2.924107142857142  C 17.968750000000004 3.816964285714286  18.679315476190478 4.88095238095238  19.207589285714285 6.116071428571428  Z " fill-rule="nonzero" fill="#ffffff" stroke="none" transform="matrix(1 0 0 1 1192 3468 )" />
  </g>
</svg>