<?xml version="1.0" encoding="utf-8"?>
<svg version="1.1" xmlns:xlink="http://www.w3.org/1999/xlink" width="13px" height="13px" xmlns="http://www.w3.org/2000/svg">
  <g transform="matrix(1 0 0 1 -30 -1126 )">
    <path d="M 36.5 1126.5  C 39.86 1126.5  42.5 1129.14  42.5 1132.5  C 42.5 1135.86  39.86 1138.5  36.5 1138.5  C 33.14 1138.5  30.5 1135.86  30.5 1132.5  C 30.5 1129.14  33.14 1126.5  36.5 1126.5  Z " fill-rule="nonzero" fill="#ffffff" stroke="none" fill-opacity="0" />
    <path d="M 36.5 1126.5  C 39.86 1126.5  42.5 1129.14  42.5 1132.5  C 42.5 1135.86  39.86 1138.5  36.5 1138.5  C 33.14 1138.5  30.5 1135.86  30.5 1132.5  C 30.5 1129.14  33.14 1126.5  36.5 1126.5  Z " stroke-width="1" stroke-dasharray="9,4,2,4" stroke="#ffffff" fill="none" stroke-dashoffset="0.5" />
  </g>
</svg>