<?xml version="1.0" encoding="utf-8"?>
<svg version="1.1" xmlns:xlink="http://www.w3.org/1999/xlink" width="20px" height="20px" xmlns="http://www.w3.org/2000/svg">
  <g transform="matrix(1 0 0 1 -120 -1781 )">
    <path d="M 130 1781.5  C 135.32 1781.5  139.5 1785.68  139.5 1791  C 139.5 1796.32  135.32 1800.5  130 1800.5  C 124.68 1800.5  120.5 1796.32  120.5 1791  C 120.5 1785.68  124.68 1781.5  130 1781.5  Z " fill-rule="nonzero" fill="#ffffff" stroke="none" fill-opacity="0" />
    <path d="M 130 1781.5  C 135.32 1781.5  139.5 1785.68  139.5 1791  C 139.5 1796.32  135.32 1800.5  130 1800.5  C 124.68 1800.5  120.5 1796.32  120.5 1791  C 120.5 1785.68  124.68 1781.5  130 1781.5  Z " stroke-width="1" stroke-dasharray="9,4,2,4" stroke="#ffffff" fill="none" stroke-dashoffset="0.5" />
  </g>
</svg>