<?xml version="1.0" encoding="utf-8"?>
<svg version="1.1" xmlns:xlink="http://www.w3.org/1999/xlink" width="9px" height="8px" xmlns="http://www.w3.org/2000/svg">
  <g transform="matrix(1 0 0 1 -145 -10753 )">
    <path d="M 9 2.59375  C 8.985570281394997 2.114531735320889  8.58626588160355 1.7372494426847933  8.107 1.7499999999999998  L 1.40625 1.7499999999999998  C 1.2509199141100895 1.7499999999999998  1.125 1.6240800858899103  1.125 1.4687499999999998  C 1.125 1.3134199141100893  1.2509199141100895 1.1874999999999998  1.40625 1.1874999999999998  L 8.15625 1.1874999999999998  C 8.311580085889911 1.1874999999999998  8.4375 1.0615800858899103  8.4375 0.9062499999999996  C 8.4375 0.44025974233026743  8.059740257669732 0.06249999999999978  7.59375 0.06249999999999978  L 1.125 0.06249999999999978  C 0.5036796564403574 0.06249999999999978  0 0.5661796564403572  0 1.1874999999999998  L 0 6.8125  C 0 7.433820343559642  0.5036796564403574 7.9375  1.125 7.9375  L 8.107 7.9375  C 8.586265881603552 7.950250557315206  8.985570281394995 7.572968264679112  9 7.09375  L 9 2.59375  Z M 7.875 4.84375  C 7.875 5.154410171779821  7.623160171779821 5.40625  7.3125 5.40625  C 7.001839828220179 5.40625  6.75 5.154410171779821  6.75 4.84375  C 6.75 4.533089828220179  7.001839828220179 4.28125  7.3125 4.28125  C 7.623160171779821 4.28125  7.875 4.533089828220179  7.875 4.84375  Z " fill-rule="nonzero" fill="#ffffff" stroke="none" transform="matrix(1 0 0 1 145 10753 )" />
  </g>
</svg>