<?xml version="1.0" encoding="utf-8"?>
<svg version="1.1" xmlns:xlink="http://www.w3.org/1999/xlink" width="12px" height="11px" xmlns="http://www.w3.org/2000/svg">
  <defs>
    <mask fill="white" id="clip33">
      <path d="M 11.87105599755051 4.725639980134383  C 11.873173978751094 4.612713109053449  11.834902319000163 4.5032249117119045  11.764147542359908 4.419794502944092  L 7.452607770221887 0.0795011179240815  C 7.409199776057103 0.02720765067627077  7.34650838751547 -0.0017288319349086246  7.281380407030438 0.00046765363484778806  C 7.147092957217854 0.007014804522713423  6.977169355675068 0.10896329691947686  6.977169355675068 0.2637566500540119  L 6.977169355675068 2.440684320269308  C 6.975429748021521 2.5082082966286983  6.929221113867496 2.5648116896944986  6.867218789970915 2.575368567105398  C 2.580015901941323 3.282460862994877  0.7743060185390974 6.735147649074259  0.1354628106928225 10.319245106545798  C 0.11112592658439309 10.45954119700006  0.288437510802951 10.592354829296761  0.3705744946689009 10.4805856105682  C 1.9350884730679407 8.35977637653461  3.8385804801201058 6.973183349211656  6.84853153967337 6.9488653601995845  C 6.922037380281915 6.9598609546291605  6.977268720431386 7.026624838738103  6.9789077045399575 7.106464635143204  L 6.9789077045399575 9.24364174639646  C 6.990873694721715 9.388402545635023  7.103578245268263 9.49937346050723  7.2386345702015085 9.49937346050723  C 7.307385789782817 9.49937346050723  7.373354965630609 9.470155106754728  7.422186665086352 9.418076552194591  L 11.764147542359908 5.002023278329277  C 11.835081743594877 4.930741734661082  11.874038352768782 4.8300298114480995  11.87105599755051 4.725639980134383  Z " fill-rule="evenodd" />
    </mask>
  </defs>
  <g transform="matrix(1 0 0 1 -948 -13563 )">
    <path d="M 11.87105599755051 4.725639980134383  C 11.873173978751094 4.612713109053449  11.834902319000163 4.5032249117119045  11.764147542359908 4.419794502944092  L 7.452607770221887 0.0795011179240815  C 7.409199776057103 0.02720765067627077  7.34650838751547 -0.0017288319349086246  7.281380407030438 0.00046765363484778806  C 7.147092957217854 0.007014804522713423  6.977169355675068 0.10896329691947686  6.977169355675068 0.2637566500540119  L 6.977169355675068 2.440684320269308  C 6.975429748021521 2.5082082966286983  6.929221113867496 2.5648116896944986  6.867218789970915 2.575368567105398  C 2.580015901941323 3.282460862994877  0.7743060185390974 6.735147649074259  0.1354628106928225 10.319245106545798  C 0.11112592658439309 10.45954119700006  0.288437510802951 10.592354829296761  0.3705744946689009 10.4805856105682  C 1.9350884730679407 8.35977637653461  3.8385804801201058 6.973183349211656  6.84853153967337 6.9488653601995845  C 6.922037380281915 6.9598609546291605  6.977268720431386 7.026624838738103  6.9789077045399575 7.106464635143204  L 6.9789077045399575 9.24364174639646  C 6.990873694721715 9.388402545635023  7.103578245268263 9.49937346050723  7.2386345702015085 9.49937346050723  C 7.307385789782817 9.49937346050723  7.373354965630609 9.470155106754728  7.422186665086352 9.418076552194591  L 11.764147542359908 5.002023278329277  C 11.835081743594877 4.930741734661082  11.874038352768782 4.8300298114480995  11.87105599755051 4.725639980134383  Z " fill-rule="nonzero" fill="#ffffff" stroke="none" fill-opacity="0" transform="matrix(1 0 0 1 948 13563 )" />
    <path d="M 11.87105599755051 4.725639980134383  C 11.873173978751094 4.612713109053449  11.834902319000163 4.5032249117119045  11.764147542359908 4.419794502944092  L 7.452607770221887 0.0795011179240815  C 7.409199776057103 0.02720765067627077  7.34650838751547 -0.0017288319349086246  7.281380407030438 0.00046765363484778806  C 7.147092957217854 0.007014804522713423  6.977169355675068 0.10896329691947686  6.977169355675068 0.2637566500540119  L 6.977169355675068 2.440684320269308  C 6.975429748021521 2.5082082966286983  6.929221113867496 2.5648116896944986  6.867218789970915 2.575368567105398  C 2.580015901941323 3.282460862994877  0.7743060185390974 6.735147649074259  0.1354628106928225 10.319245106545798  C 0.11112592658439309 10.45954119700006  0.288437510802951 10.592354829296761  0.3705744946689009 10.4805856105682  C 1.9350884730679407 8.35977637653461  3.8385804801201058 6.973183349211656  6.84853153967337 6.9488653601995845  C 6.922037380281915 6.9598609546291605  6.977268720431386 7.026624838738103  6.9789077045399575 7.106464635143204  L 6.9789077045399575 9.24364174639646  C 6.990873694721715 9.388402545635023  7.103578245268263 9.49937346050723  7.2386345702015085 9.49937346050723  C 7.307385789782817 9.49937346050723  7.373354965630609 9.470155106754728  7.422186665086352 9.418076552194591  L 11.764147542359908 5.002023278329277  C 11.835081743594877 4.930741734661082  11.874038352768782 4.8300298114480995  11.87105599755051 4.725639980134383  Z " stroke-width="2" stroke="#333333" fill="none" transform="matrix(1 0 0 1 948 13563 )" mask="url(#clip33)" />
  </g>
</svg>