<?xml version="1.0" encoding="utf-8"?>
<svg version="1.1" xmlns:xlink="http://www.w3.org/1999/xlink" width="8px" height="7px" xmlns="http://www.w3.org/2000/svg">
  <defs>
    <mask fill="white" id="clip72">
      <path d="M 7.9140373317003405 3.007225441903698  C 7.915449319167395 2.9353628875794677  7.889934879333442 2.865688580180303  7.842765028239938 2.812596501873513  L 4.968405180147925 0.050591620497142775  C 4.939466517371402 0.017313959521263217  4.897672258343647 -0.0011001657767600339  4.854253604686959 0.0002975977676304106  C 4.764728638145236 0.0044639665144539965  4.651446237116712 0.06934027985784891  4.651446237116712 0.16784514094346212  L 4.651446237116712 1.553162749262287  C 4.650286498681014 1.5961325524000807  4.619480742578331 1.6321528934419538  4.5781458599806095 1.6388709063397986  C 1.7200106012942153 2.08883873099674  0.5162040123593983 4.286003049410892  0.09030854046188168 6.566792340529145  C 0.07408395105626206 6.65607167081822  0.192291673868634 6.7405894368252115  0.2470496631126006 6.669463570361581  C 1.290058982045294 5.319857694158388  2.559053653413404 4.43748031313469  4.5656876931155805 4.422005229217917  C 4.61469158685461 4.429002425673102  4.6515124802875905 4.471488533742429  4.652605136359972 4.5222956769093114  L 4.652605136359972 5.882317474979565  C 4.6605824631478106 5.974437983585924  4.735718830178842 6.045055838504601  4.825756380134339 6.045055838504601  C 4.871590526521878 6.045055838504601  4.915569977087073 6.026462340662099  4.948124443390902 5.99332144230565  L 7.842765028239938 3.1831057225731763  C 7.890054495729918 3.1377447402388703  7.916025568512522 3.0736553345578814  7.9140373317003405 3.007225441903698  Z " fill-rule="evenodd" />
    </mask>
  </defs>
  <g transform="matrix(1 0 0 1 -478 -11202 )">
    <path d="M 7.9140373317003405 3.007225441903698  C 7.915449319167395 2.9353628875794677  7.889934879333442 2.865688580180303  7.842765028239938 2.812596501873513  L 4.968405180147925 0.050591620497142775  C 4.939466517371402 0.017313959521263217  4.897672258343647 -0.0011001657767600339  4.854253604686959 0.0002975977676304106  C 4.764728638145236 0.0044639665144539965  4.651446237116712 0.06934027985784891  4.651446237116712 0.16784514094346212  L 4.651446237116712 1.553162749262287  C 4.650286498681014 1.5961325524000807  4.619480742578331 1.6321528934419538  4.5781458599806095 1.6388709063397986  C 1.7200106012942153 2.08883873099674  0.5162040123593983 4.286003049410892  0.09030854046188168 6.566792340529145  C 0.07408395105626206 6.65607167081822  0.192291673868634 6.7405894368252115  0.2470496631126006 6.669463570361581  C 1.290058982045294 5.319857694158388  2.559053653413404 4.43748031313469  4.5656876931155805 4.422005229217917  C 4.61469158685461 4.429002425673102  4.6515124802875905 4.471488533742429  4.652605136359972 4.5222956769093114  L 4.652605136359972 5.882317474979565  C 4.6605824631478106 5.974437983585924  4.735718830178842 6.045055838504601  4.825756380134339 6.045055838504601  C 4.871590526521878 6.045055838504601  4.915569977087073 6.026462340662099  4.948124443390902 5.99332144230565  L 7.842765028239938 3.1831057225731763  C 7.890054495729918 3.1377447402388703  7.916025568512522 3.0736553345578814  7.9140373317003405 3.007225441903698  Z " fill-rule="nonzero" fill="#ffffff" stroke="none" fill-opacity="0" transform="matrix(1 0 0 1 478 11202 )" />
    <path d="M 7.9140373317003405 3.007225441903698  C 7.915449319167395 2.9353628875794677  7.889934879333442 2.865688580180303  7.842765028239938 2.812596501873513  L 4.968405180147925 0.050591620497142775  C 4.939466517371402 0.017313959521263217  4.897672258343647 -0.0011001657767600339  4.854253604686959 0.0002975977676304106  C 4.764728638145236 0.0044639665144539965  4.651446237116712 0.06934027985784891  4.651446237116712 0.16784514094346212  L 4.651446237116712 1.553162749262287  C 4.650286498681014 1.5961325524000807  4.619480742578331 1.6321528934419538  4.5781458599806095 1.6388709063397986  C 1.7200106012942153 2.08883873099674  0.5162040123593983 4.286003049410892  0.09030854046188168 6.566792340529145  C 0.07408395105626206 6.65607167081822  0.192291673868634 6.7405894368252115  0.2470496631126006 6.669463570361581  C 1.290058982045294 5.319857694158388  2.559053653413404 4.43748031313469  4.5656876931155805 4.422005229217917  C 4.61469158685461 4.429002425673102  4.6515124802875905 4.471488533742429  4.652605136359972 4.5222956769093114  L 4.652605136359972 5.882317474979565  C 4.6605824631478106 5.974437983585924  4.735718830178842 6.045055838504601  4.825756380134339 6.045055838504601  C 4.871590526521878 6.045055838504601  4.915569977087073 6.026462340662099  4.948124443390902 5.99332144230565  L 7.842765028239938 3.1831057225731763  C 7.890054495729918 3.1377447402388703  7.916025568512522 3.0736553345578814  7.9140373317003405 3.007225441903698  Z " stroke-width="2" stroke="#333333" fill="none" transform="matrix(1 0 0 1 478 11202 )" mask="url(#clip72)" />
  </g>
</svg>