<?xml version="1.0" encoding="utf-8"?>
<svg version="1.1" xmlns:xlink="http://www.w3.org/1999/xlink" width="17px" height="15px" xmlns="http://www.w3.org/2000/svg">
  <g transform="matrix(1 0 0 1 -212 -13028 )">
    <path d="M 17 4.86328125  C 16.972743864857215 3.964747003726667  16.218502220806705 3.2573427050339876  15.31322222222222 3.2812499999999996  L 2.65625 3.2812499999999996  C 2.362848726652391 3.2812499999999996  2.125 3.0451501610435816  2.125 2.7539062499999996  C 2.125 2.4626623389564175  2.362848726652391 2.2265624999999996  2.65625 2.2265624999999996  L 15.40625 2.2265624999999996  C 15.69965127334761 2.2265624999999996  15.9375 1.9904626610435818  15.9375 1.6992187499999991  C 15.9375 0.8254870168692514  15.223953820042828 0.11718749999999958  14.34375 0.11718749999999958  L 2.125 0.11718749999999958  C 0.9513949066095639 0.11718749999999958  0 1.0615868558256696  0 2.2265624999999996  L 0 12.7734375  C 0 13.938413144174328  0.9513949066095639 14.8828125  2.125 14.8828125  L 15.31322222222222 14.8828125  C 16.21850222080671 14.906719794966012  16.972743864857215 14.199315496273336  17 13.30078125  L 17 4.86328125  Z M 14.875 9.08203125  C 14.875 9.664519072087165  14.399302546695218 10.13671875  13.8125 10.13671875  C 13.225697453304782 10.13671875  12.75 9.664519072087165  12.75 9.08203125  C 12.75 8.499543427912835  13.225697453304782 8.02734375  13.8125 8.02734375  C 14.399302546695218 8.02734375  14.875 8.499543427912835  14.875 9.08203125  Z " fill-rule="nonzero" fill="#ffffff" stroke="none" transform="matrix(1 0 0 1 212 13028 )" />
  </g>
</svg>