<?xml version="1.0" encoding="utf-8"?>
<svg version="1.1" xmlns:xlink="http://www.w3.org/1999/xlink" width="16px" height="11px" xmlns="http://www.w3.org/2000/svg">
  <defs>
    <mask fill="white" id="clip62">
      <path d="M 0 4.781933314430004  C 0 4.781933314430004  4.211271931056331 0.9319848020771568  4.211271931056331 0.9319848020771568  C 4.863291676957033 0.335907555251612  5.755758203015716 0  6.687443429269081 0  C 6.687443429269081 0  11.533482883036527 0  11.533482883036527 0  C 13.447987546032664 0  15 1.3900836837392885  15 3.104838693146556  C 15 3.104838693146556  15 6.895161553517898  15 6.895161553517898  C 15 8.609916351424545  13.447987546032664 9.999999911832  11.533482883036527 9.999999911832  C 11.533482883036527 9.999999911832  6.777065729789683 9.999999911832  6.777065729789683 9.999999911832  C 5.792910697996717 9.999999911832  4.855142563594427 9.625327028859274  4.197652450838973 8.969428042783756  C 4.197652450838973 8.969428042783756  0 4.781933314430004  0 4.781933314430004  Z " fill-rule="evenodd" />
    </mask>
  </defs>
  <g transform="matrix(1 0 0 1 -309 -7010 )">
    <path d="M 0 4.781933314430004  C 0 4.781933314430004  4.211271931056331 0.9319848020771568  4.211271931056331 0.9319848020771568  C 4.863291676957033 0.335907555251612  5.755758203015716 0  6.687443429269081 0  C 6.687443429269081 0  11.533482883036527 0  11.533482883036527 0  C 13.447987546032664 0  15 1.3900836837392885  15 3.104838693146556  C 15 3.104838693146556  15 6.895161553517898  15 6.895161553517898  C 15 8.609916351424545  13.447987546032664 9.999999911832  11.533482883036527 9.999999911832  C 11.533482883036527 9.999999911832  6.777065729789683 9.999999911832  6.777065729789683 9.999999911832  C 5.792910697996717 9.999999911832  4.855142563594427 9.625327028859274  4.197652450838973 8.969428042783756  C 4.197652450838973 8.969428042783756  0 4.781933314430004  0 4.781933314430004  Z " fill-rule="nonzero" fill="#ffffff" stroke="none" fill-opacity="0" transform="matrix(1 0 0 1 309 7010 )" />
    <path d="M 0 4.781933314430004  C 0 4.781933314430004  4.211271931056331 0.9319848020771568  4.211271931056331 0.9319848020771568  C 4.863291676957033 0.335907555251612  5.755758203015716 0  6.687443429269081 0  C 6.687443429269081 0  11.533482883036527 0  11.533482883036527 0  C 13.447987546032664 0  15 1.3900836837392885  15 3.104838693146556  C 15 3.104838693146556  15 6.895161553517898  15 6.895161553517898  C 15 8.609916351424545  13.447987546032664 9.999999911832  11.533482883036527 9.999999911832  C 11.533482883036527 9.999999911832  6.777065729789683 9.999999911832  6.777065729789683 9.999999911832  C 5.792910697996717 9.999999911832  4.855142563594427 9.625327028859274  4.197652450838973 8.969428042783756  C 4.197652450838973 8.969428042783756  0 4.781933314430004  0 4.781933314430004  Z " stroke-width="2" stroke="#000000" fill="none" transform="matrix(1 0 0 1 309 7010 )" mask="url(#clip62)" />
    <path d="M 11.500000131781007 2.608695652173913  L 7 6.956521857360396  M 7 2.608695652173913  L 11.500000131781007 6.956521857360396  " stroke-width="1" stroke="#000000" fill="none" transform="matrix(1 0 0 1 309 7010 )" mask="url(#clip62)" />
  </g>
</svg>