<?xml version="1.0" encoding="utf-8"?>
<svg version="1.1" xmlns:xlink="http://www.w3.org/1999/xlink" width="21px" height="16px" xmlns="http://www.w3.org/2000/svg">
  <defs>
    <mask fill="white" id="clip23">
      <path d="M 0 7.172899971645007  C 0 7.172899971645007  5.6150292414084415 1.3979772031157351  5.6150292414084415 1.3979772031157351  C 6.484388902609377 0.503861332877418  7.674344270687622 0  8.916591239025442 0  C 8.916591239025442 0  15.377977177382036 0  15.377977177382036 0  C 17.930650061376884 0  20 2.085125525608933  20 4.657258039719834  C 20 4.657258039719834  20 10.342742330276847  20 10.342742330276847  C 20 12.914874527136817  17.930650061376884 14.999999867748002  15.377977177382036 14.999999867748002  C 15.377977177382036 14.999999867748002  9.036087639719577 14.999999867748002  9.036087639719577 14.999999867748002  C 7.72388093066229 14.999999867748002  6.473523418125903 14.437990543288914  5.596869934451964 13.454142064175635  C 5.596869934451964 13.454142064175635  0 7.172899971645007  0 7.172899971645007  Z " fill-rule="evenodd" />
    </mask>
  </defs>
  <g transform="matrix(1 0 0 1 -434 -8314 )">
    <path d="M 0 7.172899971645007  C 0 7.172899971645007  5.6150292414084415 1.3979772031157351  5.6150292414084415 1.3979772031157351  C 6.484388902609377 0.503861332877418  7.674344270687622 0  8.916591239025442 0  C 8.916591239025442 0  15.377977177382036 0  15.377977177382036 0  C 17.930650061376884 0  20 2.085125525608933  20 4.657258039719834  C 20 4.657258039719834  20 10.342742330276847  20 10.342742330276847  C 20 12.914874527136817  17.930650061376884 14.999999867748002  15.377977177382036 14.999999867748002  C 15.377977177382036 14.999999867748002  9.036087639719577 14.999999867748002  9.036087639719577 14.999999867748002  C 7.72388093066229 14.999999867748002  6.473523418125903 14.437990543288914  5.596869934451964 13.454142064175635  C 5.596869934451964 13.454142064175635  0 7.172899971645007  0 7.172899971645007  Z " fill-rule="nonzero" fill="#ffffff" stroke="none" fill-opacity="0" transform="matrix(1 0 0 1 434 8314 )" />
    <path d="M 0 7.172899971645007  C 0 7.172899971645007  5.6150292414084415 1.3979772031157351  5.6150292414084415 1.3979772031157351  C 6.484388902609377 0.503861332877418  7.674344270687622 0  8.916591239025442 0  C 8.916591239025442 0  15.377977177382036 0  15.377977177382036 0  C 17.930650061376884 0  20 2.085125525608933  20 4.657258039719834  C 20 4.657258039719834  20 10.342742330276847  20 10.342742330276847  C 20 12.914874527136817  17.930650061376884 14.999999867748002  15.377977177382036 14.999999867748002  C 15.377977177382036 14.999999867748002  9.036087639719577 14.999999867748002  9.036087639719577 14.999999867748002  C 7.72388093066229 14.999999867748002  6.473523418125903 14.437990543288914  5.596869934451964 13.454142064175635  C 5.596869934451964 13.454142064175635  0 7.172899971645007  0 7.172899971645007  Z " stroke-width="2" stroke="#000000" fill="none" transform="matrix(1 0 0 1 434 8314 )" mask="url(#clip23)" />
    <path d="M 15.333333509041342 3.9130434782608696  L 9.333333333333334 10.434782786040595  M 9.333333333333334 3.9130434782608696  L 15.333333509041342 10.434782786040595  " stroke-width="1" stroke="#000000" fill="none" transform="matrix(1 0 0 1 434 8314 )" mask="url(#clip23)" />
  </g>
</svg>