<?xml version="1.0" encoding="utf-8"?>
<svg version="1.1" xmlns:xlink="http://www.w3.org/1999/xlink" width="20px" height="16px" xmlns="http://www.w3.org/2000/svg">
  <g transform="matrix(1 0 0 1 -196 -8314 )">
    <path d="M 9.519154514336465 14.99999951707197  C 9.519154514336465 14.99999951707197  13.620231894714648 14.99999951707197  13.620231894714648 14.94801762990903  C 13.620231894714648 14.89603432201082  13.620231894714648 8.496783843146067  13.620231894714648 8.496783843146067  C 13.620231894714648 8.496783843146067  19.057455157749217 8.616215880194044  18.999540327724304 8.496783843146067  C 18.941625497978123 8.377351095730454  9.500000051757675 0  9.500000051757675 0  M 9.500000421716713 14.999493470926318  C 9.500000421716713 14.999493470926318  5.279504369314489 15.007942735783294  5.229668662569296 14.955824247226271  C 5.179832585865065 14.903705758669249  5.229668662569296 8.501221297097361  5.229668662569296 8.501221297097361  C 5.229668662569296 8.501221297097361  -0.05585238635154948 8.620715707646728  0.00044658066395379556 8.501221297097361  C 0.056745547408460814 8.381726175808604  9.234943244622913 0  9.234943244622913 0  " stroke-width="1" stroke="#000000" fill="none" transform="matrix(1 0 0 1 196 8314 )" />
  </g>
</svg>