<?xml version="1.0" encoding="utf-8"?>
<svg version="1.1" xmlns:xlink="http://www.w3.org/1999/xlink" width="14px" height="11px" xmlns="http://www.w3.org/2000/svg">
  <g transform="matrix(1 0 0 1 -127 -7010 )">
    <path d="M 6.513105720335476 9.999999678047981  C 6.513105720335476 9.999999678047981  9.319106033225813 9.999999678047981  9.319106033225813 9.96534508660602  C 9.319106033225813 9.930689548007214  9.319106033225813 5.664522562097378  9.319106033225813 5.664522562097378  C 9.319106033225813 5.664522562097378  13.039311423723149 5.744143920129363  12.999685487390312 5.664522562097378  C 12.96005955124819 5.584900730486969  6.500000035413146 0  6.500000035413146 0  M 6.5000002885430135 9.999662313950878  C 6.5000002885430135 9.999662313950878  3.612292463215177 10.005295157188863  3.5781943480737284 9.970549498150849  C 3.544095979802413 9.935803839112832  3.5781943480737284 5.667480864731575  3.5781943480737284 5.667480864731575  C 3.5781943480737284 5.667480864731575  -0.038214790661586485 5.747143805097819  0.0003055551911262812 5.667480864731575  C 0.03882590085842055 5.5878174505390685  6.318645377899888 0  6.318645377899888 0  " stroke-width="1" stroke="#000000" fill="none" transform="matrix(1 0 0 1 127 7010 )" />
  </g>
</svg>