<?xml version="1.0" encoding="utf-8"?>
<svg version="1.1" xmlns:xlink="http://www.w3.org/1999/xlink" width="250px" height="512px" xmlns="http://www.w3.org/2000/svg">
  <g transform="matrix(1 0 0 1 -100 -10585 )">
    <path d="M 205.36143562083294 512  C 205.36143562083294 512  44.456203499768954 512  44.456203499768954 512  C 5.6634094359653515 512  1.4343360363050695 483.4961655148844  1.4343360363050695 469.04510765993587  C 1.4343360363050695 469.04510765993587  1.4343360363050695 194.56414462445747  1.4343360363050695 194.56414462445747  C 1.6598878450124521 194.33301820202095  1.8302347530803116 194.0479776252772  1.924528503479345 193.7298631908719  C 1.924528503479345 193.7298631908719  1.1500975809851806 193.7298631908719  1.1500975809851806 193.7298631908719  C 0.6736286204552159 193.7298631908719  0.28752439524629514 193.34152783724707  0.28752439524629514 192.86432131231788  C 0.28752439524629514 192.86432131231788  0.28752439524629514 156.54089785070275  0.28752439524629514 156.54089785070275  C 0.28752439524629514 156.06204530502114  0.6736286204552159 155.67534202282044  1.1500975809851806 155.67534202282044  C 1.1500975809851806 155.67534202282044  2.0077417752259357 155.67534202282044  2.0077417752259357 155.67534202282044  L 2.0077417752259357 147.02643757364945  C 2.0077417752259357 147.02643757364945  1.1500975809851806 147.02643757364945  1.1500975809851806 147.02643757364945  C 0.6736286204552159 147.02643757364945  0.28752439524629514 146.63973429144878  0.28752439524629514 146.16254171584805  C 0.28752439524629514 146.16254171584805  0.28752439524629514 110.1254351945261  0.28752439524629514 110.1254351945261  C 0.28752439524629514 109.64822866959697  0.6736286204552159 109.26153236206049  1.1500975809851806 109.26153236206049  C 1.1500975809851806 109.26153236206049  1.9875526974298428 109.26153236206049  1.9875526974298428 109.26153236206049  C 1.9260385875662587 108.82615289837075  1.7264509109011756 108.43532758962472  1.4343360363050695 108.13598895126006  C 1.4343360363050695 108.13598895126006  1.4343360363050695 85.62184961773936  1.4343360363050695 85.62184961773936  C 1.4343360363050695 85.62184961773936  0.8642161829049293 85.62184961773936  0.8642161829049293 85.62184961773936  C 0.38610419800608015 85.62184961773936  0 85.23350728945042  0 84.75630076452128  C 0 84.75630076452128  0 66.30661909800372  0 66.30661909800372  C 0 65.82777352698633  0.38610419800608015 65.44107024478565  0.8642161829049293 65.44107024478565  C 0.8642161829049293 65.44107024478565  1.4343360363050695 65.44107024478565  1.4343360363050695 65.44107024478565  C 1.4343360363050695 65.44107024478565  1.4343360363050695 42.95490977672465  1.4343360363050695 42.95490977672465  C 1.4343360363050695 17.720710687768367  14.343360580673421 0  44.456203499768954 0  C 44.456203499768954 0  206.22071459698194 0  206.22071459698194 0  C 225.953113716697 0  248.6708091448286 8.58801998982353  248.6708091448286 42.95490977672465  C 248.6708091448286 42.95490977672465  248.6708091448286 108.13763497201252  248.6708091448286 108.13763497201252  C 248.4104975464134 108.40438797920983  248.2236971634309 108.74286843309481  248.1425534837966 109.12123001690593  C 248.1425534837966 109.12123001690593  249.20151610823223 109.20064354354791  249.20151610823223 109.20064354354791  C 249.6516922175941 109.23520300468535  250 109.61038414161881  250 110.06290732992527  C 250 110.06290732992527  250 145.93546059865068  250 145.93546059865068  C 250 146.38797681229292  249.6516922175941 146.76480396997886  249.20151610823223 146.7993564564521  C 249.20151610823223 146.7993564564521  248.1425534837966 146.87876998309406  248.1425534837966 146.87876998309406  C 248.2237250191397 147.25710366824836  248.4105254021222 147.595639919447  248.6708091448286 147.86236502798747  C 248.6708091448286 147.86236502798747  248.6708091448286 469.04510765993587  248.6708091448286 469.04510765993587  C 248.6708091448286 483.33652940055276  244.6109788707763 512  205.36143562083294 512  Z " fill-rule="nonzero" fill="#000000" stroke="none" transform="matrix(1 0 0 1 100 10585 )" />
  </g>
</svg>