<?xml version="1.0" encoding="utf-8"?>
<svg version="1.1" xmlns:xlink="http://www.w3.org/1999/xlink" width="250px" height="511px" xmlns="http://www.w3.org/2000/svg">
  <g transform="matrix(1 0 0 1 -107 -310 )">
    <path d="M 205.36143562083294 511  C 205.36143562083294 511  44.456203499768954 511  44.456203499768954 511  C 5.6634094359653515 511  1.4343360363050695 482.55183706661313  1.4343360363050695 468.12900393403754  C 1.4343360363050695 468.12900393403754  1.4343360363050695 194.18413652948783  1.4343360363050695 194.18413652948783  C 1.6598878450124521 193.95346152584514  1.8302347530803116 193.66897766897785  1.924528503479345 193.3514845518272  C 1.924528503479345 193.3514845518272  1.1500975809851806 193.3514845518272  1.1500975809851806 193.3514845518272  C 0.6736286204552159 193.3514845518272  0.28752439524629514 192.96390766568996  0.28752439524629514 192.48763318475477  C 0.28752439524629514 192.48763318475477  0.28752439524629514 156.2351539095881  0.28752439524629514 156.2351539095881  C 0.28752439524629514 155.75723662278477  0.6736286204552159 155.37128862043213  1.1500975809851806 155.37128862043213  C 1.1500975809851806 155.37128862043213  2.0077417752259357 155.37128862043213  2.0077417752259357 155.37128862043213  L 2.0077417752259357 146.73927656276342  C 2.0077417752259357 146.73927656276342  1.1500975809851806 146.73927656276342  1.1500975809851806 146.73927656276342  C 0.6736286204552159 146.73927656276342  0.28752439524629514 146.3533285604108  0.28752439524629514 145.87706800155928  C 0.28752439524629514 145.87706800155928  0.28752439524629514 109.9103464539118  0.28752439524629514 109.9103464539118  C 0.28752439524629514 109.43407197297667  0.6736286204552159 109.04813093166584  1.1500975809851806 109.04813093166584  C 1.1500975809851806 109.04813093166584  1.9875526974298428 109.04813093166584  1.9875526974298428 109.04813093166584  C 1.9260385875662587 108.61360181849112  1.7264509109011756 108.22353984042623  1.4343360363050695 107.92478584783963  C 1.4343360363050695 107.92478584783963  1.4343360363050695 85.45461944270471  1.4343360363050695 85.45461944270471  C 1.4343360363050695 85.45461944270471  0.8642161829049293 85.45461944270471  0.8642161829049293 85.45461944270471  C 0.38610419800608015 85.45461944270471  0 85.06703559552571  0 84.59076111459058  C 0 84.59076111459058  0 66.17711398257794  0 66.17711398257794  C 0 65.69920365681644  0.38610419800608015 65.3132556544638  0.8642161829049293 65.3132556544638  C 0.8642161829049293 65.3132556544638  1.4343360363050695 65.3132556544638  1.4343360363050695 65.3132556544638  C 1.4343360363050695 65.3132556544638  1.4343360363050695 42.871013468566986  1.4343360363050695 42.871013468566986  C 1.4343360363050695 17.68609992470632  14.343360580673421 0  44.456203499768954 0  C 44.456203499768954 0  206.22071459698194 0  206.22071459698194 0  C 225.953113716697 0  248.6708091448286 8.571246513280906  248.6708091448286 42.871013468566986  C 248.6708091448286 42.871013468566986  248.6708091448286 107.9264286537078  248.6708091448286 107.9264286537078  C 248.4104975464134 108.19266065893794  248.2236971634309 108.53048001818642  248.1425534837966 108.90810261452916  C 248.1425534837966 108.90810261452916  249.20151610823223 108.98736103662692  249.20151610823223 108.98736103662692  C 249.6516922175941 109.02185299881683  250 109.39630136009221  250 109.8479407140465  C 250 109.8479407140465  250 145.65043040216895  250 145.65043040216895  C 250 146.10206279508142  249.6516922175941 146.47815396222498  249.20151610823223 146.5126389633731  C 249.20151610823223 146.5126389633731  248.1425534837966 146.59189738547082  248.1425534837966 146.59189738547082  C 248.2237250191397 146.9694921376463  248.4105254021222 147.30736718522934  248.6708091448286 147.57357134629217  C 248.6708091448286 147.57357134629217  248.6708091448286 468.12900393403754  248.6708091448286 468.12900393403754  C 248.6708091448286 482.3925127415673  244.6109788707763 511  205.36143562083294 511  Z " fill-rule="nonzero" fill="#000000" stroke="none" transform="matrix(1 0 0 1 107 310 )" />
  </g>
</svg>