<?xml version="1.0" encoding="utf-8"?>
<svg version="1.1" xmlns:xlink="http://www.w3.org/1999/xlink" width="325px" height="664px" xmlns="http://www.w3.org/2000/svg">
  <g transform="matrix(1 0 0 1 -200 -310 )">
    <path d="M 266.96986630708284 664  C 266.96986630708284 664  57.79306454969964 664  57.79306454969964 664  C 7.362432266754958 664  1.8646368471965902 627.0340896521158  1.8646368471965902 608.2928739964793  C 1.8646368471965902 608.2928739964793  1.8646368471965902 252.32537505984328  1.8646368471965902 252.32537505984328  C 2.1578541985161874 252.0256329807459  2.379305179004405 251.65597098278138  2.501887054523148 251.243416325662  C 2.501887054523148 251.243416325662  1.4951268552807349 251.243416325662  1.4951268552807349 251.243416325662  C 0.8757172065917807 251.243416325662  0.3737817138201837 250.7397939139298  0.3737817138201837 250.12091670191225  C 0.3737817138201837 250.12091670191225  0.3737817138201837 203.01397690013013  0.3737817138201837 203.01397690013013  C 0.3737817138201837 202.3929650049493  0.8757172065917807 201.89145918584526  1.4951268552807349 201.89145918584526  C 1.4951268552807349 201.89145918584526  3 201.89145918584526  3 201.89145918584526  L 3 190.67491122832664  C 3 190.67491122832664  1.4951268552807349 190.67491122832664  1.4951268552807349 190.67491122832664  C 0.8757172065917807 190.67491122832664  0.3737817138201837 190.17340540922262  0.3737817138201837 189.55454628774044  C 0.3737817138201837 189.55454628774044  0.3737817138201837 142.81892376790105  0.3737817138201837 142.81892376790105  C 0.3737817138201837 142.20004655588357  0.8757172065917807 141.6985497820472  1.4951268552807349 141.6985497820472  C 1.4951268552807349 141.6985497820472  2.5838185066587953 141.6985497820472  2.5838185066587953 141.6985497820472  C 2.503850163836136 141.13391704007458  2.2443861841715282 140.62706546779455  1.8646368471965902 140.23886067116538  C 1.8646368471965902 140.23886067116538  1.8646368471965902 111.04083622300573  1.8646368471965902 111.04083622300573  C 1.8646368471965902 111.04083622300573  1.123481037776408 111.04083622300573  1.123481037776408 111.04083622300573  C 0.5019354574079041 111.04083622300573  0 110.53720476600601  0 109.91832755398855  C 0 109.91832755398855  0 85.99139664272357  0 85.99139664272357  C 0 85.3703937928104  0.5019354574079041 84.86888797370639  1.123481037776408 84.86888797370639  C 1.123481037776408 84.86888797370639  1.8646368471965902 84.86888797370639  1.8646368471965902 84.86888797370639  C 1.8646368471965902 84.86888797370639  1.8646368471965902 55.70714861668978  1.8646368471965902 55.70714861668978  C 1.8646368471965902 22.981546673199603  18.646368754875446 0  57.79306454969964 0  C 57.79306454969964 0  268.08692897607654 0  268.08692897607654 0  C 293.7390478317061 0  323.2720518882772 11.137588424302391  323.2720518882772 55.70714861668978  C 323.2720518882772 55.70714861668978  323.2720518882772 140.24099535432873  323.2720518882772 140.24099535432873  C 322.93364681033745 140.58694066053775  322.69080631246015 141.02590749916985  322.5853195289356 141.51659517817487  C 322.5853195289356 141.51659517817487  323.9619709407019 141.6195845955387  323.9619709407019 141.6195845955387  C 324.5471998828723 141.66440389670132  325 142.1509669336619  325 142.73783294349684  C 325 142.73783294349684  325 189.2600504638751  325 189.2600504638751  C 325 189.8469074284424  324.5471998828723 190.33560514856634  323.9619709407019 190.38041540446133  C 323.9619709407019 190.38041540446133  322.5853195289356 190.4834048218251  322.5853195289356 190.4834048218251  C 322.6908425248816 190.9740563197596  322.9336830227589 191.41309552053283  323.2720518882772 191.75900464567124  C 323.2720518882772 191.75900464567124  323.2720518882772 608.2928739964793  323.2720518882772 608.2928739964793  C 323.2720518882772 626.8270615663419  317.99427253200923 664  266.96986630708284 664  Z " fill-rule="nonzero" fill="#000000" stroke="none" transform="matrix(1 0 0 1 200 310 )" />
  </g>
</svg>