<?xml version="1.0" encoding="utf-8"?>
<svg version="1.1" xmlns:xlink="http://www.w3.org/1999/xlink" width="14px" height="15px" xmlns="http://www.w3.org/2000/svg">
  <g transform="matrix(1 0 0 1 -177 -6187 )">
    <path d="M 7.144186046511627 9.003906250000002  L 7.144186046511627 6.425781249999999  L 13.888372093023255 6.425781249999999  C 13.962790697674418 6.861979166666667  14 7.278645833333332  14 7.67578125  C 14 9.088541666666664  13.717829457364342 10.349934895833332  13.153488372093022 11.4599609375  C 12.589147286821708 12.569986979166668  11.78449612403101 13.4375  10.73953488372093 14.0625  C 9.694573643410854 14.6875  8.496124031007753 15  7.144186046511627 15  C 6.170542635658915 15  5.243410852713179 14.803059895833334  4.362790697674419 14.4091796875  C 3.4821705426356595 14.015299479166668  2.722480620155039 13.483072916666666  2.083720930232558 12.8125  C 1.4449612403100773 12.141927083333332  0.9379844961240311 11.344401041666666  0.5627906976744186 10.419921874999998  C 0.18759689922480619 9.495442708333332  0 8.522135416666668  0 7.5  C 0 6.477864583333332  0.18759689922480619 5.504557291666666  0.5627906976744186 4.580078124999999  C 0.9379844961240311 3.655598958333333  1.4449612403100773 2.8580729166666647  2.083720930232558 2.1875000000000004  C 2.722480620155039 1.516927083333333  3.4821705426356595 0.9847005208333326  4.362790697674419 0.5908203125000006  C 5.243410852713179 0.1969401041666652  6.170542635658915 0  7.144186046511627 0  C 9.004651162790697 0  10.6015503875969 0.6542968749999994  11.934883720930232 1.962890625  L 9.990697674418605 3.92578125  C 9.227906976744187 3.1510416666666647  8.279069767441861 2.7636718749999996  7.144186046511627 2.7636718749999996  C 6.344186046511628 2.7636718749999996  5.604651162790698 2.9752604166666647  4.925581395348837 3.3984375  C 4.246511627906977 3.821614583333332  3.7085271317829465 4.396158854166664  3.311627906976744 5.122070312499999  C 2.914728682170543 5.847981770833332  2.7162790697674417 6.640625000000001  2.7162790697674417 7.5  C 2.7162790697674417 8.359375000000002  2.914728682170543 9.152018229166664  3.311627906976744 9.877929687499998  C 3.7085271317829465 10.603841145833334  4.246511627906977 11.178385416666666  4.925581395348837 11.6015625  C 5.604651162790698 12.024739583333332  6.344186046511628 12.236328125  7.144186046511627 12.236328125  C 7.683720930232559 12.236328125  8.179844961240311 12.158203125  8.632558139534883 12.001953125  C 9.085271317829458 11.845703125  9.457364341085272 11.650390625  9.748837209302327 11.416015625  C 10.040310077519381 11.181640624999998  10.294573643410853 10.914713541666666  10.511627906976745 10.615234375000002  C 10.728682170542637 10.315755208333332  10.888372093023255 10.032552083333334  10.990697674418605 9.765625000000002  C 11.093023255813954 9.498697916666664  11.162790697674419 9.244791666666666  11.200000000000001 9.003906250000002  L 7.144186046511627 9.003906250000002  Z " fill-rule="nonzero" fill="#ffffff" stroke="none" transform="matrix(1 0 0 1 177 6187 )" />
  </g>
</svg>