<?xml version="1.0" encoding="utf-8"?>
<svg version="1.1" xmlns:xlink="http://www.w3.org/1999/xlink" width="8px" height="15px" xmlns="http://www.w3.org/2000/svg">
  <g transform="matrix(1 0 0 1 -180 -6226 )">
    <path d="M 5.888888888888889 0  C 6.796296296296297 0  7.5 0.03605769230769218  8 0.10817307692307654  L 8 2.4879807692307687  L 6.546296296296297 2.4879807692307687  C 6.015432098765433 2.4879807692307687  5.657407407407407 2.5961538461538467  5.472222222222222 2.8125  C 5.287037037037037 3.0288461538461533  5.194444444444445 3.353365384615384  5.194444444444445 3.786057692307692  L 5.194444444444445 5.489783653846153  L 7.907407407407407 5.489783653846153  L 7.546296296296297 8.158052884615385  L 5.194444444444445 8.158052884615385  L 5.194444444444445 15  L 2.361111111111111 15  L 2.361111111111111 8.158052884615385  L 0 8.158052884615385  L 0 5.489783653846153  L 2.361111111111111 5.489783653846153  L 2.361111111111111 3.5246394230769234  C 2.361111111111111 2.406850961538461  2.682098765432099 1.5399639423076916  3.324074074074074 0.9239783653846156  C 3.96604938271605 0.30799278846153966  4.820987654320988 0  5.888888888888889 0  Z " fill-rule="nonzero" fill="#ffffff" stroke="none" transform="matrix(1 0 0 1 180 6226 )" />
  </g>
</svg>