<?xml version="1.0" encoding="utf-8"?>
<svg version="1.1" xmlns:xlink="http://www.w3.org/1999/xlink" width="8px" height="13px" xmlns="http://www.w3.org/2000/svg">
  <g transform="matrix(1 0 0 1 -451 -6304 )">
    <path d="M 7.86254295532646 0.7815631262525043  C 7.954180985108821 0.8684034736138929  8 0.9682698730794906  8 1.081162324649299  C 8 1.1940547762191045  7.954180985108821 1.293921175684702  7.86254295532646 1.3807615230460921  L 2.4604810996563575 6.5  L 7.86254295532646 11.619238476953909  C 7.954180985108821 11.706078824315298  8 11.805945223780894  8 11.918837675350701  C 8 12.031730126920507  7.954180985108821 12.131596526386105  7.86254295532646 12.218436873747496  L 7.175257731958763 12.869739478957916  C 7.083619702176404 12.956579826319306  6.9782359679266905 13  6.859106529209622 13  C 6.739977090492555 13  6.634593356242842 12.956579826319306  6.542955326460481 12.869739478957916  L 0.13745704467353953 6.799599198396793  C 0.04581901489117987 6.712758851035403  0 6.612892451569805  0 6.5  C 0 6.387107548430193  0.04581901489117987 6.287241148964595  0.13745704467353953 6.200400801603207  L 6.542955326460481 0.1302605210420843  C 6.634593356242842 0.043420173680694285  6.739977090492555 0  6.859106529209622 0  C 6.9782359679266905 0  7.083619702176404 0.043420173680694285  7.175257731958763 0.1302605210420843  L 7.86254295532646 0.7815631262525043  Z " fill-rule="nonzero" fill="#ffffff" stroke="none" transform="matrix(1 0 0 1 451 6304 )" />
  </g>
</svg>