<?xml version="1.0" encoding="utf-8"?>
<svg version="1.1" xmlns:xlink="http://www.w3.org/1999/xlink" width="8px" height="12px" xmlns="http://www.w3.org/2000/svg">
  <defs>
    <mask fill="white" id="clip64">
      <path d="M 7.868055555555555 4.752403846153847  C 7.956018518518519 4.843749999999999  8 4.951923076923075  8 5.0769230769230775  L 8 6  C 8 7.0625  7.658564814814816 7.986778846153847  6.975694444444445 8.772836538461538  C 6.292824074074074 9.55889423076923  5.449074074074074 10.009615384615385  4.444444444444445 10.125  L 4.444444444444445 11.076923076923077  L 6.222222222222222 11.076923076923077  C 6.342592592592593 11.076923076923077  6.4467592592592595 11.122596153846153  6.534722222222222 11.213942307692307  C 6.622685185185186 11.305288461538462  6.666666666666668 11.41346153846154  6.666666666666667 11.538461538461538  C 6.666666666666668 11.663461538461538  6.622685185185186 11.771634615384615  6.534722222222222 11.862980769230768  C 6.4467592592592595 11.954326923076923  6.342592592592593 12  6.222222222222222 12  L 1.7777777777777777 12  C 1.6574074074074074 12  1.553240740740741 11.954326923076923  1.4652777777777777 11.862980769230768  C 1.3773148148148147 11.771634615384615  1.3333333333333333 11.663461538461538  1.3333333333333333 11.538461538461538  C 1.3333333333333333 11.41346153846154  1.3773148148148147 11.305288461538462  1.4652777777777777 11.213942307692307  C 1.553240740740741 11.122596153846153  1.6574074074074074 11.076923076923077  1.7777777777777777 11.076923076923077  L 3.5555555555555554 11.076923076923077  L 3.5555555555555554 10.125  C 2.550925925925926 10.009615384615385  1.707175925925926 9.55889423076923  1.0243055555555556 8.772836538461538  C 0.3414351851851852 7.986778846153847  0 7.0625  0 6  L 0 5.0769230769230775  C 0 4.951923076923075  0.04398148148148148 4.843749999999999  0.13194444444444445 4.752403846153847  C 0.2199074074074074 4.661057692307692  0.3240740740740741 4.615384615384615  0.4444444444444444 4.615384615384615  C 0.5648148148148149 4.615384615384615  0.6689814814814815 4.661057692307692  0.7569444444444444 4.752403846153847  C 0.8449074074074074 4.843749999999999  0.8888888888888888 4.951923076923075  0.8888888888888888 5.0769230769230775  L 0.8888888888888888 6  C 0.8888888888888888 6.889423076923076  1.1932870370370372 7.650240384615383  1.8020833333333333 8.282451923076923  C 2.4108796296296298 8.91466346153846  3.1435185185185186 9.23076923076923  4 9.23076923076923  C 4.856481481481482 9.23076923076923  5.58912037037037 8.91466346153846  6.197916666666667 8.282451923076923  C 6.806712962962964 7.650240384615383  7.111111111111111 6.889423076923076  7.111111111111111 6  L 7.111111111111111 5.0769230769230775  C 7.111111111111111 4.951923076923075  7.1550925925925934 4.843749999999999  7.243055555555555 4.752403846153847  C 7.331018518518519 4.661057692307692  7.435185185185186 4.615384615384615  7.555555555555555 4.615384615384615  C 7.675925925925927 4.615384615384615  7.7800925925925934 4.661057692307692  7.868055555555555 4.752403846153847  Z M 5.569444444444445 0.677884615384615  C 6.00462962962963 1.1298076923076916  6.222222222222222 1.6730769230769225  6.222222222222222 2.3076923076923075  L 6.222222222222222 6  C 6.222222222222222 6.634615384615385  6.00462962962963 7.177884615384615  5.569444444444445 7.6298076923076925  C 5.1342592592592595 8.08173076923077  4.611111111111111 8.307692307692307  4 8.307692307692307  C 3.3888888888888893 8.307692307692307  2.8657407407407414 8.08173076923077  2.4305555555555554 7.6298076923076925  C 1.9953703703703707 7.177884615384615  1.7777777777777777 6.634615384615385  1.7777777777777777 6  L 1.7777777777777777 2.3076923076923075  C 1.7777777777777777 1.6730769230769225  1.9953703703703707 1.1298076923076916  2.4305555555555554 0.677884615384615  C 2.8657407407407414 0.22596153846153966  3.3888888888888893 0  4 0  C 4.611111111111111 0  5.1342592592592595 0.22596153846153966  5.569444444444445 0.677884615384615  Z " fill-rule="evenodd" />
    </mask>
  </defs>
  <g transform="matrix(1 0 0 1 -307 -7058 )">
    <path d="M 7.868055555555555 4.752403846153847  C 7.956018518518519 4.843749999999999  8 4.951923076923075  8 5.0769230769230775  L 8 6  C 8 7.0625  7.658564814814816 7.986778846153847  6.975694444444445 8.772836538461538  C 6.292824074074074 9.55889423076923  5.449074074074074 10.009615384615385  4.444444444444445 10.125  L 4.444444444444445 11.076923076923077  L 6.222222222222222 11.076923076923077  C 6.342592592592593 11.076923076923077  6.4467592592592595 11.122596153846153  6.534722222222222 11.213942307692307  C 6.622685185185186 11.305288461538462  6.666666666666668 11.41346153846154  6.666666666666667 11.538461538461538  C 6.666666666666668 11.663461538461538  6.622685185185186 11.771634615384615  6.534722222222222 11.862980769230768  C 6.4467592592592595 11.954326923076923  6.342592592592593 12  6.222222222222222 12  L 1.7777777777777777 12  C 1.6574074074074074 12  1.553240740740741 11.954326923076923  1.4652777777777777 11.862980769230768  C 1.3773148148148147 11.771634615384615  1.3333333333333333 11.663461538461538  1.3333333333333333 11.538461538461538  C 1.3333333333333333 11.41346153846154  1.3773148148148147 11.305288461538462  1.4652777777777777 11.213942307692307  C 1.553240740740741 11.122596153846153  1.6574074074074074 11.076923076923077  1.7777777777777777 11.076923076923077  L 3.5555555555555554 11.076923076923077  L 3.5555555555555554 10.125  C 2.550925925925926 10.009615384615385  1.707175925925926 9.55889423076923  1.0243055555555556 8.772836538461538  C 0.3414351851851852 7.986778846153847  0 7.0625  0 6  L 0 5.0769230769230775  C 0 4.951923076923075  0.04398148148148148 4.843749999999999  0.13194444444444445 4.752403846153847  C 0.2199074074074074 4.661057692307692  0.3240740740740741 4.615384615384615  0.4444444444444444 4.615384615384615  C 0.5648148148148149 4.615384615384615  0.6689814814814815 4.661057692307692  0.7569444444444444 4.752403846153847  C 0.8449074074074074 4.843749999999999  0.8888888888888888 4.951923076923075  0.8888888888888888 5.0769230769230775  L 0.8888888888888888 6  C 0.8888888888888888 6.889423076923076  1.1932870370370372 7.650240384615383  1.8020833333333333 8.282451923076923  C 2.4108796296296298 8.91466346153846  3.1435185185185186 9.23076923076923  4 9.23076923076923  C 4.856481481481482 9.23076923076923  5.58912037037037 8.91466346153846  6.197916666666667 8.282451923076923  C 6.806712962962964 7.650240384615383  7.111111111111111 6.889423076923076  7.111111111111111 6  L 7.111111111111111 5.0769230769230775  C 7.111111111111111 4.951923076923075  7.1550925925925934 4.843749999999999  7.243055555555555 4.752403846153847  C 7.331018518518519 4.661057692307692  7.435185185185186 4.615384615384615  7.555555555555555 4.615384615384615  C 7.675925925925927 4.615384615384615  7.7800925925925934 4.661057692307692  7.868055555555555 4.752403846153847  Z M 5.569444444444445 0.677884615384615  C 6.00462962962963 1.1298076923076916  6.222222222222222 1.6730769230769225  6.222222222222222 2.3076923076923075  L 6.222222222222222 6  C 6.222222222222222 6.634615384615385  6.00462962962963 7.177884615384615  5.569444444444445 7.6298076923076925  C 5.1342592592592595 8.08173076923077  4.611111111111111 8.307692307692307  4 8.307692307692307  C 3.3888888888888893 8.307692307692307  2.8657407407407414 8.08173076923077  2.4305555555555554 7.6298076923076925  C 1.9953703703703707 7.177884615384615  1.7777777777777777 6.634615384615385  1.7777777777777777 6  L 1.7777777777777777 2.3076923076923075  C 1.7777777777777777 1.6730769230769225  1.9953703703703707 1.1298076923076916  2.4305555555555554 0.677884615384615  C 2.8657407407407414 0.22596153846153966  3.3888888888888893 0  4 0  C 4.611111111111111 0  5.1342592592592595 0.22596153846153966  5.569444444444445 0.677884615384615  Z " fill-rule="nonzero" fill="#000000" stroke="none" fill-opacity="0" transform="matrix(1 0 0 1 307 7058 )" />
    <path d="M 7.868055555555555 4.752403846153847  C 7.956018518518519 4.843749999999999  8 4.951923076923075  8 5.0769230769230775  L 8 6  C 8 7.0625  7.658564814814816 7.986778846153847  6.975694444444445 8.772836538461538  C 6.292824074074074 9.55889423076923  5.449074074074074 10.009615384615385  4.444444444444445 10.125  L 4.444444444444445 11.076923076923077  L 6.222222222222222 11.076923076923077  C 6.342592592592593 11.076923076923077  6.4467592592592595 11.122596153846153  6.534722222222222 11.213942307692307  C 6.622685185185186 11.305288461538462  6.666666666666668 11.41346153846154  6.666666666666667 11.538461538461538  C 6.666666666666668 11.663461538461538  6.622685185185186 11.771634615384615  6.534722222222222 11.862980769230768  C 6.4467592592592595 11.954326923076923  6.342592592592593 12  6.222222222222222 12  L 1.7777777777777777 12  C 1.6574074074074074 12  1.553240740740741 11.954326923076923  1.4652777777777777 11.862980769230768  C 1.3773148148148147 11.771634615384615  1.3333333333333333 11.663461538461538  1.3333333333333333 11.538461538461538  C 1.3333333333333333 11.41346153846154  1.3773148148148147 11.305288461538462  1.4652777777777777 11.213942307692307  C 1.553240740740741 11.122596153846153  1.6574074074074074 11.076923076923077  1.7777777777777777 11.076923076923077  L 3.5555555555555554 11.076923076923077  L 3.5555555555555554 10.125  C 2.550925925925926 10.009615384615385  1.707175925925926 9.55889423076923  1.0243055555555556 8.772836538461538  C 0.3414351851851852 7.986778846153847  0 7.0625  0 6  L 0 5.0769230769230775  C 0 4.951923076923075  0.04398148148148148 4.843749999999999  0.13194444444444445 4.752403846153847  C 0.2199074074074074 4.661057692307692  0.3240740740740741 4.615384615384615  0.4444444444444444 4.615384615384615  C 0.5648148148148149 4.615384615384615  0.6689814814814815 4.661057692307692  0.7569444444444444 4.752403846153847  C 0.8449074074074074 4.843749999999999  0.8888888888888888 4.951923076923075  0.8888888888888888 5.0769230769230775  L 0.8888888888888888 6  C 0.8888888888888888 6.889423076923076  1.1932870370370372 7.650240384615383  1.8020833333333333 8.282451923076923  C 2.4108796296296298 8.91466346153846  3.1435185185185186 9.23076923076923  4 9.23076923076923  C 4.856481481481482 9.23076923076923  5.58912037037037 8.91466346153846  6.197916666666667 8.282451923076923  C 6.806712962962964 7.650240384615383  7.111111111111111 6.889423076923076  7.111111111111111 6  L 7.111111111111111 5.0769230769230775  C 7.111111111111111 4.951923076923075  7.1550925925925934 4.843749999999999  7.243055555555555 4.752403846153847  C 7.331018518518519 4.661057692307692  7.435185185185186 4.615384615384615  7.555555555555555 4.615384615384615  C 7.675925925925927 4.615384615384615  7.7800925925925934 4.661057692307692  7.868055555555555 4.752403846153847  Z " stroke-width="2" stroke="#000000" fill="none" transform="matrix(1 0 0 1 307 7058 )" mask="url(#clip64)" />
    <path d="M 5.569444444444445 0.677884615384615  C 6.00462962962963 1.1298076923076916  6.222222222222222 1.6730769230769225  6.222222222222222 2.3076923076923075  L 6.222222222222222 6  C 6.222222222222222 6.634615384615385  6.00462962962963 7.177884615384615  5.569444444444445 7.6298076923076925  C 5.1342592592592595 8.08173076923077  4.611111111111111 8.307692307692307  4 8.307692307692307  C 3.3888888888888893 8.307692307692307  2.8657407407407414 8.08173076923077  2.4305555555555554 7.6298076923076925  C 1.9953703703703707 7.177884615384615  1.7777777777777777 6.634615384615385  1.7777777777777777 6  L 1.7777777777777777 2.3076923076923075  C 1.7777777777777777 1.6730769230769225  1.9953703703703707 1.1298076923076916  2.4305555555555554 0.677884615384615  C 2.8657407407407414 0.22596153846153966  3.3888888888888893 0  4 0  C 4.611111111111111 0  5.1342592592592595 0.22596153846153966  5.569444444444445 0.677884615384615  Z " stroke-width="2" stroke="#000000" fill="none" transform="matrix(1 0 0 1 307 7058 )" mask="url(#clip64)" />
  </g>
</svg>