<?xml version="1.0" encoding="utf-8"?>
<svg version="1.1" xmlns:xlink="http://www.w3.org/1999/xlink" width="12px" height="12px" xmlns="http://www.w3.org/2000/svg">
  <defs>
    <mask fill="white" id="clip63">
      <path d="M 8.828125 7.01953125  C 8.890625 7.141927083333332  8.901041666666668 7.268229166666666  8.859375 7.398437499999999  C 8.666666666666668 8.028645833333332  8.307291666666668 8.536458333333332  7.78125 8.921875  C 7.255208333333334 9.307291666666666  6.661458333333334 9.5  6 9.5  C 5.338541666666667 9.5  4.744791666666667 9.307291666666666  4.21875 8.921875  C 3.692708333333334 8.536458333333332  3.3333333333333335 8.028645833333332  3.140625 7.398437499999999  C 3.0989583333333335 7.268229166666666  3.109375 7.141927083333332  3.171875 7.01953125  C 3.234375 6.897135416666665  3.3333333333333335 6.815104166666665  3.46875 6.7734375  C 3.598958333333334 6.731770833333332  3.725260416666667 6.742187499999999  3.84765625 6.804687500000001  C 3.970052083333334 6.8671875  4.052083333333334 6.966145833333332  4.09375 7.1015625  C 4.223958333333334 7.518229166666665  4.46484375 7.855468749999999  4.81640625 8.11328125  C 5.16796875 8.37109375  5.5625 8.5  6 8.5  C 6.4375 8.5  6.832031250000002 8.37109375  7.18359375 8.11328125  C 7.535156250000002 7.855468749999999  7.776041666666668 7.518229166666665  7.90625 7.1015625  C 7.947916666666668 6.966145833333332  8.03125 6.8671875  8.15625 6.804687500000001  C 8.28125 6.742187499999999  8.408854166666668 6.731770833333332  8.5390625 6.7734375  C 8.669270833333334 6.815104166666665  8.765625 6.897135416666665  8.828125 7.01953125  Z M 4.70703125 3.29296875  C 4.90234375 3.4882812499999996  5 3.7239583333333326  5 4  C 5 4.276041666666666  4.90234375 4.511718749999998  4.70703125 4.70703125  C 4.51171875 4.90234375  4.276041666666667 5  4 5  C 3.723958333333334 5  3.48828125 4.90234375  3.29296875 4.70703125  C 3.09765625 4.511718749999998  3 4.276041666666666  3 4  C 3 3.7239583333333326  3.09765625 3.4882812499999996  3.29296875 3.29296875  C 3.48828125 3.0976562500000004  3.723958333333334 3  4 3  C 4.276041666666667 3  4.51171875 3.0976562500000004  4.70703125 3.29296875  Z M 8.70703125 3.29296875  C 8.90234375 3.4882812499999996  9 3.7239583333333326  9 4  C 9 4.276041666666666  8.90234375 4.511718749999998  8.70703125 4.70703125  C 8.51171875 4.90234375  8.276041666666668 5  8 5  C 7.723958333333334 5  7.48828125 4.90234375  7.29296875 4.70703125  C 7.09765625 4.511718749999998  7 4.276041666666666  7 4  C 7 3.7239583333333326  7.09765625 3.4882812499999996  7.29296875 3.29296875  C 7.48828125 3.0976562500000004  7.723958333333334 3  8 3  C 8.276041666666668 3  8.51171875 3.0976562500000004  8.70703125 3.29296875  Z M 10.6015625 7.941406250000001  C 10.8671875 7.32421875  11 6.677083333333334  11 6  C 11 5.322916666666666  10.8671875 4.67578125  10.6015625 4.05859375  C 10.3359375 3.4414062499999996  9.98046875 2.9101562500000004  9.53515625 2.4648437500000004  C 9.08984375 2.0195312500000004  8.55859375 1.6640625  7.94140625 1.3984375000000004  C 7.32421875 1.1328124999999996  6.677083333333334 1.0000000000000004  6 1.0000000000000004  C 5.322916666666667 1.0000000000000004  4.67578125 1.1328124999999996  4.05859375 1.3984375000000004  C 3.44140625 1.6640625  2.91015625 2.0195312500000004  2.46484375 2.4648437500000004  C 2.01953125 2.9101562500000004  1.6640625 3.4414062499999996  1.3984375 4.05859375  C 1.1328125 4.67578125  1 5.322916666666666  1 6  C 1 6.677083333333334  1.1328125 7.32421875  1.3984375 7.941406250000001  C 1.6640625 8.55859375  2.01953125 9.08984375  2.46484375 9.53515625  C 2.91015625 9.98046875  3.44140625 10.3359375  4.05859375 10.6015625  C 4.67578125 10.8671875  5.322916666666667 11  6 11  C 6.677083333333334 11  7.32421875 10.8671875  7.94140625 10.6015625  C 8.55859375 10.3359375  9.08984375 9.98046875  9.53515625 9.53515625  C 9.98046875 9.08984375  10.3359375 8.55859375  10.6015625 7.941406250000001  Z M 11.1953125 2.98828125  C 11.731770833333332 3.907552083333332  12 4.911458333333332  12 6  C 12 7.088541666666667  11.731770833333332 8.092447916666664  11.1953125 9.01171875  C 10.658854166666668 9.930989583333334  9.930989583333334 10.658854166666666  9.01171875 11.1953125  C 8.092447916666668 11.731770833333334  7.088541666666667 12  6 12  C 4.911458333333334 12  3.9075520833333335 11.731770833333334  2.98828125 11.1953125  C 2.069010416666667 10.658854166666666  1.3411458333333335 9.930989583333334  0.8046875 9.01171875  C 0.26822916666666663 8.092447916666664  0 7.088541666666667  0 6  C 0 4.911458333333332  0.26822916666666663 3.907552083333332  0.8046875 2.98828125  C 1.3411458333333335 2.0690104166666665  2.069010416666667 1.3411458333333321  2.98828125 0.8046874999999996  C 3.9075520833333335 0.26822916666666563  4.911458333333334 0  6 0  C 7.088541666666667 0  8.092447916666668 0.26822916666666563  9.01171875 0.8046874999999996  C 9.930989583333334 1.3411458333333321  10.658854166666668 2.0690104166666665  11.1953125 2.98828125  Z " fill-rule="evenodd" />
    </mask>
  </defs>
  <g transform="matrix(1 0 0 1 -132 -7058 )">
    <path d="M 8.828125 7.01953125  C 8.890625 7.141927083333332  8.901041666666668 7.268229166666666  8.859375 7.398437499999999  C 8.666666666666668 8.028645833333332  8.307291666666668 8.536458333333332  7.78125 8.921875  C 7.255208333333334 9.307291666666666  6.661458333333334 9.5  6 9.5  C 5.338541666666667 9.5  4.744791666666667 9.307291666666666  4.21875 8.921875  C 3.692708333333334 8.536458333333332  3.3333333333333335 8.028645833333332  3.140625 7.398437499999999  C 3.0989583333333335 7.268229166666666  3.109375 7.141927083333332  3.171875 7.01953125  C 3.234375 6.897135416666665  3.3333333333333335 6.815104166666665  3.46875 6.7734375  C 3.598958333333334 6.731770833333332  3.725260416666667 6.742187499999999  3.84765625 6.804687500000001  C 3.970052083333334 6.8671875  4.052083333333334 6.966145833333332  4.09375 7.1015625  C 4.223958333333334 7.518229166666665  4.46484375 7.855468749999999  4.81640625 8.11328125  C 5.16796875 8.37109375  5.5625 8.5  6 8.5  C 6.4375 8.5  6.832031250000002 8.37109375  7.18359375 8.11328125  C 7.535156250000002 7.855468749999999  7.776041666666668 7.518229166666665  7.90625 7.1015625  C 7.947916666666668 6.966145833333332  8.03125 6.8671875  8.15625 6.804687500000001  C 8.28125 6.742187499999999  8.408854166666668 6.731770833333332  8.5390625 6.7734375  C 8.669270833333334 6.815104166666665  8.765625 6.897135416666665  8.828125 7.01953125  Z M 4.70703125 3.29296875  C 4.90234375 3.4882812499999996  5 3.7239583333333326  5 4  C 5 4.276041666666666  4.90234375 4.511718749999998  4.70703125 4.70703125  C 4.51171875 4.90234375  4.276041666666667 5  4 5  C 3.723958333333334 5  3.48828125 4.90234375  3.29296875 4.70703125  C 3.09765625 4.511718749999998  3 4.276041666666666  3 4  C 3 3.7239583333333326  3.09765625 3.4882812499999996  3.29296875 3.29296875  C 3.48828125 3.0976562500000004  3.723958333333334 3  4 3  C 4.276041666666667 3  4.51171875 3.0976562500000004  4.70703125 3.29296875  Z M 8.70703125 3.29296875  C 8.90234375 3.4882812499999996  9 3.7239583333333326  9 4  C 9 4.276041666666666  8.90234375 4.511718749999998  8.70703125 4.70703125  C 8.51171875 4.90234375  8.276041666666668 5  8 5  C 7.723958333333334 5  7.48828125 4.90234375  7.29296875 4.70703125  C 7.09765625 4.511718749999998  7 4.276041666666666  7 4  C 7 3.7239583333333326  7.09765625 3.4882812499999996  7.29296875 3.29296875  C 7.48828125 3.0976562500000004  7.723958333333334 3  8 3  C 8.276041666666668 3  8.51171875 3.0976562500000004  8.70703125 3.29296875  Z M 10.6015625 7.941406250000001  C 10.8671875 7.32421875  11 6.677083333333334  11 6  C 11 5.322916666666666  10.8671875 4.67578125  10.6015625 4.05859375  C 10.3359375 3.4414062499999996  9.98046875 2.9101562500000004  9.53515625 2.4648437500000004  C 9.08984375 2.0195312500000004  8.55859375 1.6640625  7.94140625 1.3984375000000004  C 7.32421875 1.1328124999999996  6.677083333333334 1.0000000000000004  6 1.0000000000000004  C 5.322916666666667 1.0000000000000004  4.67578125 1.1328124999999996  4.05859375 1.3984375000000004  C 3.44140625 1.6640625  2.91015625 2.0195312500000004  2.46484375 2.4648437500000004  C 2.01953125 2.9101562500000004  1.6640625 3.4414062499999996  1.3984375 4.05859375  C 1.1328125 4.67578125  1 5.322916666666666  1 6  C 1 6.677083333333334  1.1328125 7.32421875  1.3984375 7.941406250000001  C 1.6640625 8.55859375  2.01953125 9.08984375  2.46484375 9.53515625  C 2.91015625 9.98046875  3.44140625 10.3359375  4.05859375 10.6015625  C 4.67578125 10.8671875  5.322916666666667 11  6 11  C 6.677083333333334 11  7.32421875 10.8671875  7.94140625 10.6015625  C 8.55859375 10.3359375  9.08984375 9.98046875  9.53515625 9.53515625  C 9.98046875 9.08984375  10.3359375 8.55859375  10.6015625 7.941406250000001  Z M 11.1953125 2.98828125  C 11.731770833333332 3.907552083333332  12 4.911458333333332  12 6  C 12 7.088541666666667  11.731770833333332 8.092447916666664  11.1953125 9.01171875  C 10.658854166666668 9.930989583333334  9.930989583333334 10.658854166666666  9.01171875 11.1953125  C 8.092447916666668 11.731770833333334  7.088541666666667 12  6 12  C 4.911458333333334 12  3.9075520833333335 11.731770833333334  2.98828125 11.1953125  C 2.069010416666667 10.658854166666666  1.3411458333333335 9.930989583333334  0.8046875 9.01171875  C 0.26822916666666663 8.092447916666664  0 7.088541666666667  0 6  C 0 4.911458333333332  0.26822916666666663 3.907552083333332  0.8046875 2.98828125  C 1.3411458333333335 2.0690104166666665  2.069010416666667 1.3411458333333321  2.98828125 0.8046874999999996  C 3.9075520833333335 0.26822916666666563  4.911458333333334 0  6 0  C 7.088541666666667 0  8.092447916666668 0.26822916666666563  9.01171875 0.8046874999999996  C 9.930989583333334 1.3411458333333321  10.658854166666668 2.0690104166666665  11.1953125 2.98828125  Z " fill-rule="nonzero" fill="#000000" stroke="none" fill-opacity="0" transform="matrix(1 0 0 1 132 7058 )" />
    <path d="M 8.828125 7.01953125  C 8.890625 7.141927083333332  8.901041666666668 7.268229166666666  8.859375 7.398437499999999  C 8.666666666666668 8.028645833333332  8.307291666666668 8.536458333333332  7.78125 8.921875  C 7.255208333333334 9.307291666666666  6.661458333333334 9.5  6 9.5  C 5.338541666666667 9.5  4.744791666666667 9.307291666666666  4.21875 8.921875  C 3.692708333333334 8.536458333333332  3.3333333333333335 8.028645833333332  3.140625 7.398437499999999  C 3.0989583333333335 7.268229166666666  3.109375 7.141927083333332  3.171875 7.01953125  C 3.234375 6.897135416666665  3.3333333333333335 6.815104166666665  3.46875 6.7734375  C 3.598958333333334 6.731770833333332  3.725260416666667 6.742187499999999  3.84765625 6.804687500000001  C 3.970052083333334 6.8671875  4.052083333333334 6.966145833333332  4.09375 7.1015625  C 4.223958333333334 7.518229166666665  4.46484375 7.855468749999999  4.81640625 8.11328125  C 5.16796875 8.37109375  5.5625 8.5  6 8.5  C 6.4375 8.5  6.832031250000002 8.37109375  7.18359375 8.11328125  C 7.535156250000002 7.855468749999999  7.776041666666668 7.518229166666665  7.90625 7.1015625  C 7.947916666666668 6.966145833333332  8.03125 6.8671875  8.15625 6.804687500000001  C 8.28125 6.742187499999999  8.408854166666668 6.731770833333332  8.5390625 6.7734375  C 8.669270833333334 6.815104166666665  8.765625 6.897135416666665  8.828125 7.01953125  Z " stroke-width="2" stroke="#000000" fill="none" transform="matrix(1 0 0 1 132 7058 )" mask="url(#clip63)" />
    <path d="M 4.70703125 3.29296875  C 4.90234375 3.4882812499999996  5 3.7239583333333326  5 4  C 5 4.276041666666666  4.90234375 4.511718749999998  4.70703125 4.70703125  C 4.51171875 4.90234375  4.276041666666667 5  4 5  C 3.723958333333334 5  3.48828125 4.90234375  3.29296875 4.70703125  C 3.09765625 4.511718749999998  3 4.276041666666666  3 4  C 3 3.7239583333333326  3.09765625 3.4882812499999996  3.29296875 3.29296875  C 3.48828125 3.0976562500000004  3.723958333333334 3  4 3  C 4.276041666666667 3  4.51171875 3.0976562500000004  4.70703125 3.29296875  Z " stroke-width="2" stroke="#000000" fill="none" transform="matrix(1 0 0 1 132 7058 )" mask="url(#clip63)" />
    <path d="M 8.70703125 3.29296875  C 8.90234375 3.4882812499999996  9 3.7239583333333326  9 4  C 9 4.276041666666666  8.90234375 4.511718749999998  8.70703125 4.70703125  C 8.51171875 4.90234375  8.276041666666668 5  8 5  C 7.723958333333334 5  7.48828125 4.90234375  7.29296875 4.70703125  C 7.09765625 4.511718749999998  7 4.276041666666666  7 4  C 7 3.7239583333333326  7.09765625 3.4882812499999996  7.29296875 3.29296875  C 7.48828125 3.0976562500000004  7.723958333333334 3  8 3  C 8.276041666666668 3  8.51171875 3.0976562500000004  8.70703125 3.29296875  Z " stroke-width="2" stroke="#000000" fill="none" transform="matrix(1 0 0 1 132 7058 )" mask="url(#clip63)" />
    <path d="M 10.6015625 7.941406250000001  C 10.8671875 7.32421875  11 6.677083333333334  11 6  C 11 5.322916666666666  10.8671875 4.67578125  10.6015625 4.05859375  C 10.3359375 3.4414062499999996  9.98046875 2.9101562500000004  9.53515625 2.4648437500000004  C 9.08984375 2.0195312500000004  8.55859375 1.6640625  7.94140625 1.3984375000000004  C 7.32421875 1.1328124999999996  6.677083333333334 1.0000000000000004  6 1.0000000000000004  C 5.322916666666667 1.0000000000000004  4.67578125 1.1328124999999996  4.05859375 1.3984375000000004  C 3.44140625 1.6640625  2.91015625 2.0195312500000004  2.46484375 2.4648437500000004  C 2.01953125 2.9101562500000004  1.6640625 3.4414062499999996  1.3984375 4.05859375  C 1.1328125 4.67578125  1 5.322916666666666  1 6  C 1 6.677083333333334  1.1328125 7.32421875  1.3984375 7.941406250000001  C 1.6640625 8.55859375  2.01953125 9.08984375  2.46484375 9.53515625  C 2.91015625 9.98046875  3.44140625 10.3359375  4.05859375 10.6015625  C 4.67578125 10.8671875  5.322916666666667 11  6 11  C 6.677083333333334 11  7.32421875 10.8671875  7.94140625 10.6015625  C 8.55859375 10.3359375  9.08984375 9.98046875  9.53515625 9.53515625  C 9.98046875 9.08984375  10.3359375 8.55859375  10.6015625 7.941406250000001  Z " stroke-width="2" stroke="#000000" fill="none" transform="matrix(1 0 0 1 132 7058 )" mask="url(#clip63)" />
    <path d="M 11.1953125 2.98828125  C 11.731770833333332 3.907552083333332  12 4.911458333333332  12 6  C 12 7.088541666666667  11.731770833333332 8.092447916666664  11.1953125 9.01171875  C 10.658854166666668 9.930989583333334  9.930989583333334 10.658854166666666  9.01171875 11.1953125  C 8.092447916666668 11.731770833333334  7.088541666666667 12  6 12  C 4.911458333333334 12  3.9075520833333335 11.731770833333334  2.98828125 11.1953125  C 2.069010416666667 10.658854166666666  1.3411458333333335 9.930989583333334  0.8046875 9.01171875  C 0.26822916666666663 8.092447916666664  0 7.088541666666667  0 6  C 0 4.911458333333332  0.26822916666666663 3.907552083333332  0.8046875 2.98828125  C 1.3411458333333335 2.0690104166666665  2.069010416666667 1.3411458333333321  2.98828125 0.8046874999999996  C 3.9075520833333335 0.26822916666666563  4.911458333333334 0  6 0  C 7.088541666666667 0  8.092447916666668 0.26822916666666563  9.01171875 0.8046874999999996  C 9.930989583333334 1.3411458333333321  10.658854166666668 2.0690104166666665  11.1953125 2.98828125  Z " stroke-width="2" stroke="#000000" fill="none" transform="matrix(1 0 0 1 132 7058 )" mask="url(#clip63)" />
  </g>
</svg>