<?xml version="1.0" encoding="utf-8"?>
<svg version="1.1" xmlns:xlink="http://www.w3.org/1999/xlink" width="11px" height="15px" xmlns="http://www.w3.org/2000/svg">
  <defs>
    <mask fill="white" id="clip25">
      <path d="M 10.81857638888889 5.9405048076923075  C 10.939525462962964 6.054687499999999  11 6.189903846153844  11 6.346153846153847  L 11 7.5  C 11 8.828125  10.530526620370372 9.983473557692308  9.59157986111111 10.966045673076923  C 8.652633101851853 11.948617788461537  7.492476851851852 12.512019230769232  6.111111111111112 12.65625  L 6.111111111111112 13.846153846153847  L 8.555555555555555 13.846153846153847  C 8.721064814814815 13.846153846153847  8.864293981481481 13.903245192307692  8.985243055555555 14.017427884615385  C 9.106192129629632 14.131610576923077  9.166666666666668 14.266826923076923  9.166666666666668 14.423076923076923  C 9.166666666666668 14.579326923076923  9.106192129629632 14.714543269230768  8.985243055555555 14.828725961538462  C 8.864293981481481 14.942908653846155  8.721064814814815 15  8.555555555555555 15  L 2.444444444444444 15  C 2.278935185185185 15  2.1357060185185186 14.942908653846155  2.014756944444444 14.828725961538462  C 1.8938078703703702 14.714543269230768  1.8333333333333333 14.579326923076923  1.8333333333333333 14.423076923076923  C 1.8333333333333333 14.266826923076923  1.8938078703703702 14.131610576923077  2.014756944444444 14.017427884615385  C 2.1357060185185186 13.903245192307692  2.278935185185185 13.846153846153847  2.444444444444444 13.846153846153847  L 4.888888888888888 13.846153846153847  L 4.888888888888888 12.65625  C 3.5075231481481484 12.512019230769232  2.3473668981481484 11.948617788461537  1.4084201388888888 10.966045673076923  C 0.4694733796296296 9.983473557692308  0 8.828125  0 7.5  L 0 6.346153846153847  C 0 6.189903846153844  0.060474537037037035 6.054687499999999  0.1814236111111111 5.9405048076923075  C 0.3023726851851852 5.826322115384615  0.4456018518518519 5.769230769230768  0.611111111111111 5.769230769230768  C 0.7766203703703705 5.769230769230768  0.9198495370370371 5.826322115384615  1.0407986111111112 5.9405048076923075  C 1.1617476851851851 6.054687499999999  1.222222222222222 6.189903846153844  1.222222222222222 6.346153846153847  L 1.222222222222222 7.5  C 1.222222222222222 8.611778846153845  1.640769675925926 9.56280048076923  2.477864583333333 10.353064903846153  C 3.314959490740741 11.143329326923075  4.322337962962963 11.538461538461537  5.5 11.538461538461537  C 6.677662037037037 11.538461538461537  7.6850405092592595 11.143329326923075  8.522135416666668 10.353064903846153  C 9.359230324074074 9.56280048076923  9.777777777777777 8.611778846153845  9.777777777777777 7.5  L 9.777777777777777 6.346153846153847  C 9.777777777777777 6.189903846153844  9.838252314814817 6.054687499999999  9.95920138888889 5.9405048076923075  C 10.080150462962964 5.826322115384615  10.223379629629632 5.769230769230768  10.38888888888889 5.769230769230768  C 10.55439814814815 5.769230769230768  10.697627314814817 5.826322115384615  10.81857638888889 5.9405048076923075  Z M 7.657986111111112 0.8473557692307687  C 8.25636574074074 1.4122596153846145  8.555555555555555 2.0913461538461533  8.555555555555555 2.884615384615384  L 8.555555555555555 7.5  C 8.555555555555555 8.293269230769232  8.25636574074074 8.972355769230768  7.657986111111112 9.537259615384615  C 7.059606481481482 10.102163461538462  6.340277777777777 10.384615384615385  5.5 10.384615384615385  C 4.659722222222223 10.384615384615385  3.9403935185185195 10.102163461538462  3.3420138888888884 9.537259615384615  C 2.7436342592592595 8.972355769230768  2.444444444444444 8.293269230769232  2.444444444444444 7.5  L 2.444444444444444 2.884615384615384  C 2.444444444444444 2.0913461538461533  2.7436342592592595 1.4122596153846145  3.3420138888888884 0.8473557692307687  C 3.9403935185185195 0.28245192307692457  4.659722222222223 0  5.5 0  C 6.340277777777777 0  7.059606481481482 0.28245192307692457  7.657986111111112 0.8473557692307687  Z " fill-rule="evenodd" />
    </mask>
  </defs>
  <g transform="matrix(1 0 0 1 -435 -8377 )">
    <path d="M 10.81857638888889 5.9405048076923075  C 10.939525462962964 6.054687499999999  11 6.189903846153844  11 6.346153846153847  L 11 7.5  C 11 8.828125  10.530526620370372 9.983473557692308  9.59157986111111 10.966045673076923  C 8.652633101851853 11.948617788461537  7.492476851851852 12.512019230769232  6.111111111111112 12.65625  L 6.111111111111112 13.846153846153847  L 8.555555555555555 13.846153846153847  C 8.721064814814815 13.846153846153847  8.864293981481481 13.903245192307692  8.985243055555555 14.017427884615385  C 9.106192129629632 14.131610576923077  9.166666666666668 14.266826923076923  9.166666666666668 14.423076923076923  C 9.166666666666668 14.579326923076923  9.106192129629632 14.714543269230768  8.985243055555555 14.828725961538462  C 8.864293981481481 14.942908653846155  8.721064814814815 15  8.555555555555555 15  L 2.444444444444444 15  C 2.278935185185185 15  2.1357060185185186 14.942908653846155  2.014756944444444 14.828725961538462  C 1.8938078703703702 14.714543269230768  1.8333333333333333 14.579326923076923  1.8333333333333333 14.423076923076923  C 1.8333333333333333 14.266826923076923  1.8938078703703702 14.131610576923077  2.014756944444444 14.017427884615385  C 2.1357060185185186 13.903245192307692  2.278935185185185 13.846153846153847  2.444444444444444 13.846153846153847  L 4.888888888888888 13.846153846153847  L 4.888888888888888 12.65625  C 3.5075231481481484 12.512019230769232  2.3473668981481484 11.948617788461537  1.4084201388888888 10.966045673076923  C 0.4694733796296296 9.983473557692308  0 8.828125  0 7.5  L 0 6.346153846153847  C 0 6.189903846153844  0.060474537037037035 6.054687499999999  0.1814236111111111 5.9405048076923075  C 0.3023726851851852 5.826322115384615  0.4456018518518519 5.769230769230768  0.611111111111111 5.769230769230768  C 0.7766203703703705 5.769230769230768  0.9198495370370371 5.826322115384615  1.0407986111111112 5.9405048076923075  C 1.1617476851851851 6.054687499999999  1.222222222222222 6.189903846153844  1.222222222222222 6.346153846153847  L 1.222222222222222 7.5  C 1.222222222222222 8.611778846153845  1.640769675925926 9.56280048076923  2.477864583333333 10.353064903846153  C 3.314959490740741 11.143329326923075  4.322337962962963 11.538461538461537  5.5 11.538461538461537  C 6.677662037037037 11.538461538461537  7.6850405092592595 11.143329326923075  8.522135416666668 10.353064903846153  C 9.359230324074074 9.56280048076923  9.777777777777777 8.611778846153845  9.777777777777777 7.5  L 9.777777777777777 6.346153846153847  C 9.777777777777777 6.189903846153844  9.838252314814817 6.054687499999999  9.95920138888889 5.9405048076923075  C 10.080150462962964 5.826322115384615  10.223379629629632 5.769230769230768  10.38888888888889 5.769230769230768  C 10.55439814814815 5.769230769230768  10.697627314814817 5.826322115384615  10.81857638888889 5.9405048076923075  Z M 7.657986111111112 0.8473557692307687  C 8.25636574074074 1.4122596153846145  8.555555555555555 2.0913461538461533  8.555555555555555 2.884615384615384  L 8.555555555555555 7.5  C 8.555555555555555 8.293269230769232  8.25636574074074 8.972355769230768  7.657986111111112 9.537259615384615  C 7.059606481481482 10.102163461538462  6.340277777777777 10.384615384615385  5.5 10.384615384615385  C 4.659722222222223 10.384615384615385  3.9403935185185195 10.102163461538462  3.3420138888888884 9.537259615384615  C 2.7436342592592595 8.972355769230768  2.444444444444444 8.293269230769232  2.444444444444444 7.5  L 2.444444444444444 2.884615384615384  C 2.444444444444444 2.0913461538461533  2.7436342592592595 1.4122596153846145  3.3420138888888884 0.8473557692307687  C 3.9403935185185195 0.28245192307692457  4.659722222222223 0  5.5 0  C 6.340277777777777 0  7.059606481481482 0.28245192307692457  7.657986111111112 0.8473557692307687  Z " fill-rule="nonzero" fill="#000000" stroke="none" fill-opacity="0" transform="matrix(1 0 0 1 435 8377 )" />
    <path d="M 10.81857638888889 5.9405048076923075  C 10.939525462962964 6.054687499999999  11 6.189903846153844  11 6.346153846153847  L 11 7.5  C 11 8.828125  10.530526620370372 9.983473557692308  9.59157986111111 10.966045673076923  C 8.652633101851853 11.948617788461537  7.492476851851852 12.512019230769232  6.111111111111112 12.65625  L 6.111111111111112 13.846153846153847  L 8.555555555555555 13.846153846153847  C 8.721064814814815 13.846153846153847  8.864293981481481 13.903245192307692  8.985243055555555 14.017427884615385  C 9.106192129629632 14.131610576923077  9.166666666666668 14.266826923076923  9.166666666666668 14.423076923076923  C 9.166666666666668 14.579326923076923  9.106192129629632 14.714543269230768  8.985243055555555 14.828725961538462  C 8.864293981481481 14.942908653846155  8.721064814814815 15  8.555555555555555 15  L 2.444444444444444 15  C 2.278935185185185 15  2.1357060185185186 14.942908653846155  2.014756944444444 14.828725961538462  C 1.8938078703703702 14.714543269230768  1.8333333333333333 14.579326923076923  1.8333333333333333 14.423076923076923  C 1.8333333333333333 14.266826923076923  1.8938078703703702 14.131610576923077  2.014756944444444 14.017427884615385  C 2.1357060185185186 13.903245192307692  2.278935185185185 13.846153846153847  2.444444444444444 13.846153846153847  L 4.888888888888888 13.846153846153847  L 4.888888888888888 12.65625  C 3.5075231481481484 12.512019230769232  2.3473668981481484 11.948617788461537  1.4084201388888888 10.966045673076923  C 0.4694733796296296 9.983473557692308  0 8.828125  0 7.5  L 0 6.346153846153847  C 0 6.189903846153844  0.060474537037037035 6.054687499999999  0.1814236111111111 5.9405048076923075  C 0.3023726851851852 5.826322115384615  0.4456018518518519 5.769230769230768  0.611111111111111 5.769230769230768  C 0.7766203703703705 5.769230769230768  0.9198495370370371 5.826322115384615  1.0407986111111112 5.9405048076923075  C 1.1617476851851851 6.054687499999999  1.222222222222222 6.189903846153844  1.222222222222222 6.346153846153847  L 1.222222222222222 7.5  C 1.222222222222222 8.611778846153845  1.640769675925926 9.56280048076923  2.477864583333333 10.353064903846153  C 3.314959490740741 11.143329326923075  4.322337962962963 11.538461538461537  5.5 11.538461538461537  C 6.677662037037037 11.538461538461537  7.6850405092592595 11.143329326923075  8.522135416666668 10.353064903846153  C 9.359230324074074 9.56280048076923  9.777777777777777 8.611778846153845  9.777777777777777 7.5  L 9.777777777777777 6.346153846153847  C 9.777777777777777 6.189903846153844  9.838252314814817 6.054687499999999  9.95920138888889 5.9405048076923075  C 10.080150462962964 5.826322115384615  10.223379629629632 5.769230769230768  10.38888888888889 5.769230769230768  C 10.55439814814815 5.769230769230768  10.697627314814817 5.826322115384615  10.81857638888889 5.9405048076923075  Z " stroke-width="2" stroke="#000000" fill="none" transform="matrix(1 0 0 1 435 8377 )" mask="url(#clip25)" />
    <path d="M 7.657986111111112 0.8473557692307687  C 8.25636574074074 1.4122596153846145  8.555555555555555 2.0913461538461533  8.555555555555555 2.884615384615384  L 8.555555555555555 7.5  C 8.555555555555555 8.293269230769232  8.25636574074074 8.972355769230768  7.657986111111112 9.537259615384615  C 7.059606481481482 10.102163461538462  6.340277777777777 10.384615384615385  5.5 10.384615384615385  C 4.659722222222223 10.384615384615385  3.9403935185185195 10.102163461538462  3.3420138888888884 9.537259615384615  C 2.7436342592592595 8.972355769230768  2.444444444444444 8.293269230769232  2.444444444444444 7.5  L 2.444444444444444 2.884615384615384  C 2.444444444444444 2.0913461538461533  2.7436342592592595 1.4122596153846145  3.3420138888888884 0.8473557692307687  C 3.9403935185185195 0.28245192307692457  4.659722222222223 0  5.5 0  C 6.340277777777777 0  7.059606481481482 0.28245192307692457  7.657986111111112 0.8473557692307687  Z " stroke-width="2" stroke="#000000" fill="none" transform="matrix(1 0 0 1 435 8377 )" mask="url(#clip25)" />
  </g>
</svg>