<?xml version="1.0" encoding="utf-8"?>
<svg version="1.1" xmlns:xlink="http://www.w3.org/1999/xlink" width="132px" height="106px" xmlns="http://www.w3.org/2000/svg">
  <g transform="matrix(1 0 0 1 -182 -3128 )">
    <path d="M 182 3128  L 314 3128  L 314 3234  L 182 3234  L 182 3128  " fill-rule="nonzero" fill="#cccccc" stroke="none" />
    <path d="M 189 3135  L 307 3135  L 307 3227  L 189 3227  L 189 3135  " fill-rule="nonzero" fill="#ffffff" stroke="none" />
    <path d="M 258.59 3159.8  C 254.13799999999998 3159.8  250.64 3156.302  250.64 3151.8500000000004  C 250.64 3147.398  254.13799999999998 3143.9  258.59 3143.9  C 263.042 3143.9  266.53999999999996 3147.398  266.53999999999996 3151.8500000000004  C 266.53999999999996 3156.302  263.042 3159.8  258.59 3159.8  " fill-rule="nonzero" fill="#cccccc" stroke="none" />
    <path d="M 192 3225  L 192 3177.15  L 220.25 3155.4  L 259.8 3183.081818181818  L 282.4 3168.45  L 305 3183.081818181818  L 305 3225  L 192 3225  " fill-rule="nonzero" fill="#169bd5" stroke="none" />
  </g>
</svg>