<?xml version="1.0" encoding="utf-8"?>
<svg version="1.1" xmlns:xlink="http://www.w3.org/1999/xlink" width="110px" height="88px" xmlns="http://www.w3.org/2000/svg">
  <g transform="matrix(1 0 0 1 -119 -2471 )">
    <path d="M 119 2471  L 229 2471  L 229 2559  L 119 2559  L 119 2471  " fill-rule="nonzero" fill="#cccccc" stroke="none" />
    <path d="M 125 2477  L 223 2477  L 223 2553  L 125 2553  L 125 2477  " fill-rule="nonzero" fill="#ffffff" stroke="none" />
    <path d="M 182.79999999999998 2497.3999999999996  C 179.10399999999998 2497.3999999999996  176.2 2494.4959999999996  176.2 2490.7999999999997  C 176.2 2487.104  179.10399999999998 2484.2  182.79999999999998 2484.2  C 186.49599999999998 2484.2  189.39999999999998 2487.104  189.39999999999998 2490.7999999999997  C 189.39999999999998 2494.4959999999996  186.49599999999998 2497.3999999999996  182.79999999999998 2497.3999999999996  " fill-rule="nonzero" fill="#cccccc" stroke="none" />
    <path d="M 127 2551  L 127 2511.4  L 150.5 2493.4  L 183.4 2516.44  L 202.2 2504.2  L 221 2516.44  L 221 2551  L 127 2551  " fill-rule="nonzero" fill="#169bd5" stroke="none" />
  </g>
</svg>