<?xml version="1.0" encoding="utf-8"?>
<svg version="1.1" xmlns:xlink="http://www.w3.org/1999/xlink" width="9px" height="15px" xmlns="http://www.w3.org/2000/svg">
  <g transform="matrix(1 0 0 1 -927 -10058 )">
    <path d="M 8.845360824742267 0.9018036072144281  C 8.948453608247425 1.0020040080160304  9 1.1172344689378737  9 1.2474949899799603  C 9 1.3777555110220434  8.948453608247425 1.4929859719438872  8.845360824742267 1.593186372745491  L 2.768041237113402 7.5  L 8.845360824742267 13.40681362725451  C 8.948453608247425 13.507014028056114  9 13.622244488977955  9 13.75250501002004  C 9 13.882765531062125  8.948453608247425 13.997995991983966  8.845360824742267 14.098196392785573  L 8.072164948453608 14.849699398797595  C 7.969072164948455 14.9498997995992  7.850515463917527 15  7.716494845360824 15  C 7.582474226804125 15  7.463917525773198 14.9498997995992  7.360824742268041 14.849699398797595  L 0.15463917525773196 7.845691382765531  C 0.05154639175257736 7.745490981963926  0 7.630260521042083  0 7.5  C 0 7.369739478957915  0.05154639175257736 7.254509018036072  0.15463917525773196 7.154308617234469  L 7.360824742268041 0.15030060120240496  C 7.463917525773198 0.0501002004008011  7.582474226804125 0  7.716494845360824 0  C 7.850515463917527 0  7.969072164948455 0.0501002004008011  8.072164948453608 0.15030060120240496  L 8.845360824742267 0.9018036072144281  Z " fill-rule="nonzero" fill="#ffffff" stroke="none" transform="matrix(1 0 0 1 927 10058 )" />
  </g>
</svg>