<?xml version="1.0" encoding="utf-8"?>
<svg version="1.1" xmlns:xlink="http://www.w3.org/1999/xlink" width="7px" height="13px" xmlns="http://www.w3.org/2000/svg">
  <g transform="matrix(1 0 0 1 -459 -8482 )">
    <path d="M 6.8797250859106525 0.7815631262525043  C 6.959908361970219 0.8684034736138929  7 0.9682698730794906  7 1.081162324649299  C 7 1.1940547762191045  6.959908361970219 1.293921175684702  6.8797250859106525 1.3807615230460921  L 2.152920962199313 6.5  L 6.8797250859106525 11.619238476953909  C 6.959908361970219 11.706078824315298  7 11.805945223780894  7 11.918837675350701  C 7 12.031730126920507  6.959908361970219 12.131596526386105  6.8797250859106525 12.218436873747496  L 6.278350515463917 12.869739478957916  C 6.198167239404353 12.956579826319306  6.105956471935854 13  6.001718213058419 13  C 5.8974799541809855 13  5.805269186712486 12.956579826319306  5.725085910652921 12.869739478957916  L 0.1202749140893471 6.799599198396793  C 0.040091638029782384 6.712758851035403  0 6.612892451569805  0 6.5  C 0 6.387107548430193  0.040091638029782384 6.287241148964595  0.1202749140893471 6.200400801603207  L 5.725085910652921 0.1302605210420843  C 5.805269186712486 0.043420173680694285  5.8974799541809855 0  6.001718213058419 0  C 6.105956471935854 0  6.198167239404353 0.043420173680694285  6.278350515463917 0.1302605210420843  L 6.8797250859106525 0.7815631262525043  Z " fill-rule="nonzero" fill="#ffffff" stroke="none" transform="matrix(1 0 0 1 459 8482 )" />
  </g>
</svg>