<?xml version="1.0" encoding="utf-8"?>
<svg version="1.1" xmlns:xlink="http://www.w3.org/1999/xlink" width="7px" height="7px" xmlns="http://www.w3.org/2000/svg">
  <g transform="matrix(1 0 0 1 -171 -2632 )">
    <path d="M 174.5 2632  C 176.46 2632  178 2633.54  178 2635.5  C 178 2637.46  176.46 2639  174.5 2639  C 172.54 2639  171 2637.46  171 2635.5  C 171 2633.54  172.54 2632  174.5 2632  Z " fill-rule="nonzero" fill="#f2f2f2" stroke="none" />
    <path d="M 174.5 2632.5  C 176.18 2632.5  177.5 2633.82  177.5 2635.5  C 177.5 2637.18  176.18 2638.5  174.5 2638.5  C 172.82 2638.5  171.5 2637.18  171.5 2635.5  C 171.5 2633.82  172.82 2632.5  174.5 2632.5  Z " stroke-width="1" stroke="#797979" fill="none" />
  </g>
</svg>