<?xml version="1.0" encoding="utf-8"?>
<svg version="1.1" xmlns:xlink="http://www.w3.org/1999/xlink" width="6px" height="6px" xmlns="http://www.w3.org/2000/svg">
  <g transform="matrix(1 0 0 1 -260 -3325 )">
    <path d="M 263 3325  C 264.68 3325  266 3326.32  266 3328  C 266 3329.68  264.68 3331  263 3331  C 261.32 3331  260 3329.68  260 3328  C 260 3326.32  261.32 3325  263 3325  Z " fill-rule="nonzero" fill="#ffffff" stroke="none" />
    <path d="M 263 3325.5  C 264.4 3325.5  265.5 3326.6  265.5 3328  C 265.5 3329.4  264.4 3330.5  263 3330.5  C 261.6 3330.5  260.5 3329.4  260.5 3328  C 260.5 3326.6  261.6 3325.5  263 3325.5  Z " stroke-width="1" stroke="#797979" fill="none" />
  </g>
</svg>