<?xml version="1.0" encoding="utf-8"?>
<svg version="1.1" xmlns:xlink="http://www.w3.org/1999/xlink" width="5px" height="5px" xmlns="http://www.w3.org/2000/svg">
  <g transform="matrix(1 0 0 1 -184 -2633 )">
    <path d="M 186.5 2633  C 187.9 2633  189 2634.1  189 2635.5  C 189 2636.9  187.9 2638  186.5 2638  C 185.1 2638  184 2636.9  184 2635.5  C 184 2634.1  185.1 2633  186.5 2633  Z " fill-rule="nonzero" fill="#ffffff" stroke="none" />
    <path d="M 186.5 2633.5  C 187.62 2633.5  188.5 2634.38  188.5 2635.5  C 188.5 2636.62  187.62 2637.5  186.5 2637.5  C 185.38 2637.5  184.5 2636.62  184.5 2635.5  C 184.5 2634.38  185.38 2633.5  186.5 2633.5  Z " stroke-width="1" stroke="#797979" fill="none" />
  </g>
</svg>