<?xml version="1.0" encoding="utf-8"?>
<svg version="1.1" xmlns:xlink="http://www.w3.org/1999/xlink" width="19px" height="15px" xmlns="http://www.w3.org/2000/svg">
  <g transform="matrix(1 0 0 1 -212 -12994 )">
    <path d="M 16.26889714993804 8.569758378799687  C 16.276745146633623 8.58534684333593  16.280669144981413 8.608729540140295  16.280669144981413 8.639906469212782  L 16.280669144981413 14.251753702260327  C 16.280669144981413 14.454403741231488  16.2061131763734 14.629773967264224  16.057001239157373 14.777864380358533  C 15.90788930194135 14.925954793452846  15.731309376290792 15  15.527261462205699 15  L 11.006815365551425 15  L 11.006815365551425 10.510522213561964  L 7.993184634448575 10.510522213561964  L 7.993184634448575 15  L 3.4727385377943 15  C 3.2686906237092113 15  3.092110698058654 14.925954793452846  2.942998760842627 14.777864380358533  C 2.793886823626601 14.629773967264224  2.7193308550185873 14.454403741231488  2.7193308550185873 14.251753702260327  L 2.7193308550185873 8.639906469212782  C 2.7193308550185873 8.63211223694466  2.7212928541924826 8.620420888542478  2.7252168525402727 8.604832424006235  C 2.7291408508880632 8.589243959469993  2.731102850061958 8.57755261106781  2.731102850061958 8.569758378799687  L 9.5 3.0280592361652374  L 16.26889714993804 8.569758378799687  Z M 18.98822800495663 7.558456742010913  C 18.99607600165221 7.663678877630553  18.96860801321768 7.755261106780981  18.905824039653034 7.833203429462198  L 18.175960346964064 8.698363211223695  C 18.113176373399423 8.76851130163679  18.030772408095828 8.811379579111458  17.928748451053284 8.826968043647701  L 17.893432465923173 8.826968043647701  C 17.79140850888063 8.826968043647701  17.709004543577038 8.799688230709274  17.646220570012392 8.745128604832423  L 9.5 1.999220576773188  L 1.3537794299876085 8.745128604832423  C 1.2596034696406444 8.807482462977395  1.1654275092936803 8.834762275915821  1.0712515489467163 8.826968043647701  C 0.969227591904172 8.811379579111458  0.8868236266005783 8.76851130163679  0.8240396530359355 8.698363211223695  L 0.09417596034696407 7.833203429462198  C 0.03139198678232137 7.755261106780981  0.003923998347790197 7.663678877630553  0.011771995043370509 7.558456742010913  C 0.019619991738950904 7.453234606391271  0.06278397356464274 7.369446609508962  0.14126394052044608 7.3070927513639905  L 8.605328376703842 0.30397505845674244  C 8.856464270962412 0.10132501948557915  9.154688145394466 0  9.5 0  C 9.845311854605537 0  10.14353572903759 0.10132501948557915  10.394671623296158 0.30397505845674244  L 13.267038413878563 2.6890101325019478  L 13.267038413878563 0.4091971940763828  C 13.267038413878563 0.3000779423226796  13.302354399008673 0.21044427123928233  13.372986369268897 0.14029618082618933  C 13.44361833952912 0.07014809041309467  13.533870301528294 0.03507404520654733  13.64374225526642 0.03507404520654733  L 15.903965303593557 0.03507404520654733  C 16.013837257331684 0.03507404520654733  16.104089219330856 0.07014809041309467  16.17472118959108 0.14029618082618933  C 16.2453531598513 0.21044427123928233  16.280669144981413 0.3000779423226796  16.280669144981413 0.4091971940763828  L 16.280669144981413 5.1792673421667965  L 18.858736059479554 7.3070927513639905  C 18.937216026435358 7.369446609508962  18.98038000826105 7.453234606391271  18.98822800495663 7.558456742010913  Z " fill-rule="nonzero" fill="#ffffff" stroke="none" transform="matrix(1 0 0 1 212 12994 )" />
  </g>
</svg>