<?xml version="1.0" encoding="utf-8"?>
<svg version="1.1" xmlns:xlink="http://www.w3.org/1999/xlink" width="10px" height="8px" xmlns="http://www.w3.org/2000/svg">
  <g transform="matrix(1 0 0 1 -145 -10728 )">
    <path d="M 8.562577447335812 4.5705378020265  C 8.566707971912432 4.578851649779163  8.568773234200744 4.591322421408158  8.568773234200744 4.607950116913484  L 8.568773234200744 7.600935307872175  C 8.568773234200744 7.709015328656793  8.529533250722842 7.802546115874253  8.451053283767038 7.8815276695245515  C 8.372573316811236 7.960509223174851  8.279636513837259 8  8.172242874845105 8  L 5.793060718711276 8  L 5.793060718711276 5.605611847233048  L 4.206939281288723 5.605611847233048  L 4.206939281288723 8  L 1.8277571251548945 8  C 1.7203634861627428 8  1.6274266831887652 7.960509223174851  1.5489467162329615 7.8815276695245515  C 1.4704667492771584 7.802546115874253  1.4312267657992563 7.709015328656793  1.4312267657992563 7.600935307872175  L 1.4312267657992563 4.607950116913484  C 1.4312267657992563 4.603793193037152  1.4322593969434119 4.597557807222655  1.4343246592317225 4.589243959469992  C 1.4363899215200333 4.580930111717329  1.4374225526641884 4.574694725902832  1.4374225526641884 4.5705378020265  L 5 1.6149649259547934  L 8.562577447335812 4.5705378020265  Z M 9.993804213135068 4.031176929072487  C 9.99793473771169 4.087295401402962  9.983477901693515 4.136139256949857  9.950433705080545 4.177708495713173  L 9.566294919454771 4.639127045985971  C 9.533250722841801 4.676539360872955  9.489880214787279 4.699402442192778  9.436183395291202 4.707716289945441  L 9.417596034696405 4.707716289945441  C 9.36389921520033 4.707716289945441  9.320528707145808 4.69316705637828  9.287484510532838 4.664068589243959  L 5 1.0662509742790336  L 0.7125154894671624 4.664068589243959  C 0.6629491945477075 4.697323980254611  0.6133828996282529 4.711873213821772  0.563816604708798 4.707716289945441  C 0.510119785212722 4.699402442192778  0.46674927715819914 4.676539360872955  0.4337050805452292 4.639127045985971  L 0.04956629491945477 4.177708495713173  C 0.01652209830648493 4.136139256949857  0.00206526228831063 4.087295401402962  0.006195786864931847 4.031176929072487  C 0.010326311441553108 3.975058456742011  0.03304419661296986 3.930371525071447  0.07434944237918215 3.897116134060795  L 4.529120198265179 0.1621200311769293  C 4.661296984717059 0.05404001039230888  4.818256918628666 0  5 0  C 5.181743081371335 0  5.338703015282942 0.05404001039230888  5.470879801734821 0.1621200311769293  L 6.982651796778191 1.4341387373343721  L 6.982651796778191 0.21823850350740415  C 6.982651796778191 0.16004156923876245  7.001239157372986 0.11223694466095058  7.038413878562578 0.07482462977396764  C 7.075588599752169 0.03741231488698382  7.123089632383312 0.01870615744349191  7.18091697645601 0.01870615744349191  L 8.370508054522926 0.01870615744349191  C 8.428335398595623 0.01870615744349191  8.475836431226766 0.03741231488698382  8.513011152416357 0.07482462977396764  C 8.550185873605948 0.11223694466095058  8.568773234200744 0.16004156923876245  8.568773234200744 0.21823850350740415  L 8.568773234200744 2.7622759158222916  L 9.925650557620818 3.897116134060795  C 9.96695580338703 3.930371525071447  9.989673688558447 3.975058456742011  9.993804213135068 4.031176929072487  Z " fill-rule="nonzero" fill="#ffffff" stroke="none" transform="matrix(1 0 0 1 145 10728 )" />
  </g>
</svg>