<?xml version="1.0" encoding="utf-8"?>
<svg version="1.1" xmlns:xlink="http://www.w3.org/1999/xlink" width="9px" height="10px" xmlns="http://www.w3.org/2000/svg">
  <g transform="matrix(1 0 0 1 -145 -10777 )">
    <path d="M 4.5 9.553571428571429  C 4.557692307692308 9.553571428571429  4.586538461538463 9.523809523809524  4.586538461538462 9.464285714285714  C 4.586538461538463 9.404761904761905  4.557692307692308 9.375  4.5 9.375  C 4.287259615384616 9.375  4.1042668269230775 9.29594494047619  3.9510216346153846 9.137834821428571  C 3.7977764423076925 8.979724702380953  3.721153846153846 8.790922619047619  3.721153846153846 8.571428571428573  C 3.721153846153846 8.511904761904761  3.6923076923076925 8.482142857142858  3.6346153846153846 8.482142857142858  C 3.576923076923077 8.482142857142858  3.548076923076923 8.511904761904761  3.548076923076923 8.571428571428573  C 3.548076923076923 8.843005952380953  3.640925480769231 9.074590773809524  3.826622596153846 9.266183035714286  C 4.012319711538462 9.457775297619047  4.236778846153847 9.553571428571429  4.5 9.553571428571429  Z M 8.5078125 7.366071428571428  C 8.65564903846154 7.537202380952381  8.819711538461538 7.700892857142857  9 7.857142857142857  C 9.000000000000002 8.050595238095239  8.931490384615385 8.218005952380953  8.794471153846153 8.359375  C 8.657451923076923 8.500744047619047  8.495192307692308 8.571428571428573  8.307692307692308 8.571428571428573  L 5.884615384615385 8.571428571428573  C 5.884615384615385 8.96577380952381  5.749399038461538 9.302455357142858  5.478966346153846 9.581473214285714  C 5.208533653846154 9.860491071428571  4.882211538461539 10  4.5 10  C 4.117788461538462 10  3.791466346153846 9.860491071428571  3.521033653846154 9.581473214285714  C 3.2506009615384617 9.302455357142858  3.1153846153846154 8.96577380952381  3.1153846153846154 8.571428571428573  L 0.6923076923076923 8.571428571428573  C 0.5048076923076924 8.571428571428573  0.342548076923077 8.500744047619047  0.20552884615384615 8.359375  C 0.0685096153846154 8.218005952380953  0 8.050595238095239  0 7.857142857142857  C 0.1802884615384616 7.700892857142857  0.3443509615384616 7.537202380952381  0.4921875 7.366071428571428  C 0.6400240384615385 7.194940476190475  0.7932692307692308 6.97265625  0.9519230769230769 6.69921875  C 1.1105769230769234 6.42578125  1.244891826923077 6.1309523809523805  1.3548677884615385 5.814732142857143  C 1.4648437500000002 5.498511904761905  1.5549879807692308 5.115327380952381  1.6253004807692308 4.665178571428571  C 1.6956129807692308 4.215029761904762  1.7307692307692308 3.7313988095238084  1.7307692307692308 3.214285714285714  C 1.7307692307692308 2.6488095238095233  1.9417067307692308 2.1233258928571432  2.363581730769231 1.637834821428571  C 2.785456730769231 1.15234375  3.338942307692308 0.8575148809523803  4.024038461538462 0.753348214285714  C 3.995192307692308 0.6826636904761896  3.980769230769231 0.6101190476190477  3.980769230769231 0.535714285714286  C 3.980769230769231 0.38690476190476164  4.03125 0.2604166666666663  4.132211538461538 0.15625  C 4.2331730769230775 0.0520833333333337  4.355769230769231 0  4.5 0  C 4.64423076923077 0  4.766826923076924 0.0520833333333337  4.867788461538462 0.15625  C 4.96875 0.2604166666666663  5.019230769230769 0.38690476190476164  5.019230769230769 0.535714285714286  C 5.019230769230769 0.6101190476190477  5.0048076923076925 0.6826636904761896  4.975961538461538 0.753348214285714  C 5.661057692307693 0.8575148809523803  6.214543269230769 1.15234375  6.636418269230769 1.637834821428571  C 7.058293269230769 2.1233258928571432  7.269230769230769 2.6488095238095233  7.269230769230769 3.214285714285714  C 7.269230769230769 3.7313988095238084  7.304387019230769 4.215029761904762  7.374699519230769 4.665178571428571  C 7.445012019230769 5.115327380952381  7.53515625 5.498511904761905  7.645132211538462 5.814732142857143  C 7.755108173076924 6.1309523809523805  7.889423076923077 6.42578125  8.048076923076923 6.69921875  C 8.20673076923077 6.97265625  8.359975961538463 7.194940476190475  8.5078125 7.366071428571428  Z " fill-rule="nonzero" fill="#ffffff" stroke="none" transform="matrix(1 0 0 1 145 10777 )" />
  </g>
</svg>