<?xml version="1.0" encoding="utf-8"?>
<svg version="1.1" xmlns:xlink="http://www.w3.org/1999/xlink" width="7px" height="12px" xmlns="http://www.w3.org/2000/svg">
  <g transform="matrix(1 0 0 1 -145 -10855 )">
    <path d="M 4.7373046875 5.4140625  C 5.0791015625 5.0234375  5.25 4.552083333333334  5.25 4  C 5.25 3.447916666666666  5.0791015625 2.9765625  4.7373046875 2.5859374999999996  C 4.3955078125 2.1953125000000004  3.983072916666667 1.9999999999999996  3.5 1.9999999999999996  C 3.0169270833333335 1.9999999999999996  2.6044921875 2.1953125000000004  2.2626953125 2.5859374999999996  C 1.9208984375 2.9765625  1.75 3.447916666666666  1.75 4  C 1.75 4.552083333333334  1.9208984375 5.0234375  2.2626953125 5.4140625  C 2.6044921875 5.8046875  3.0169270833333335 6  3.5 6  C 3.983072916666667 6  4.3955078125 5.8046875  4.7373046875 5.4140625  Z M 5.974609375 1.171875  C 6.658203125 1.9531249999999996  7 2.8958333333333317  7 4  C 7 4.567708333333332  6.9248046875 5.033854166666666  6.7744140625 5.3984375  L 4.2861328125 11.4453125  C 4.213216145833334 11.6171875  4.10498046875 11.752604166666666  3.96142578125 11.8515625  C 3.81787109375 11.950520833333334  3.6640625 12  3.5 12  C 3.3359375 12  3.18212890625 11.950520833333334  3.03857421875 11.8515625  C 2.89501953125 11.752604166666666  2.7890625 11.6171875  2.720703125 11.4453125  L 0.2255859375 5.3984375  C 0.0751953125 5.033854166666666  0 4.567708333333332  0 4  C 0 2.8958333333333317  0.341796875 1.9531249999999996  1.025390625 1.171875  C 1.7089843750000002 0.39062500000000044  2.533854166666667 0  3.5 0  C 4.466145833333334 0  5.291015625 0.39062500000000044  5.974609375 1.171875  Z " fill-rule="nonzero" fill="#ffffff" stroke="none" transform="matrix(1 0 0 1 145 10855 )" />
  </g>
</svg>