<?xml version="1.0" encoding="utf-8"?>
<svg version="1.1" xmlns:xlink="http://www.w3.org/1999/xlink" width="9px" height="8px" xmlns="http://www.w3.org/2000/svg">
  <g transform="matrix(1 0 0 1 -145 -10803 )">
    <path d="M 4.720982142857142 7.90625  C 4.6607142857142865 7.96875  4.587053571428571 8  4.5 8  C 4.412946428571429 8  4.339285714285715 7.96875  4.279017857142857 7.90625  L 1.1450892857142856 4.770833333333334  C 1.1116071428571428 4.743055555555555  1.0655691964285716 4.697916666666666  1.0069754464285714 4.635416666666666  C 0.9483816964285715 4.572916666666666  0.8554687500000001 4.459201388888889  0.7282366071428572 4.294270833333334  C 0.6010044642857143 4.129340277777777  0.4871651785714286 3.9600694444444438  0.38671875 3.786458333333333  C 0.2862723214285714 3.6128472222222223  0.1967075892857143 3.4027777777777777  0.11802455357142858 3.15625  C 0.039341517857142856 2.9097222222222214  0 2.6701388888888884  0 2.4375  C 0 1.6736111111111107  0.2126116071428571 1.0763888888888884  0.6378348214285714 0.645833333333333  C 1.0630580357142858 0.21527777777777768  1.6506696428571428 0  2.4006696428571432 0  C 2.6082589285714284 0  2.8200334821428568 0.037326388888888395  3.035993303571429 0.11197916666666696  C 3.251953125 0.18663194444444375  3.4528459821428568 0.2873263888888884  3.638671875 0.4140625  C 3.8244977678571437 0.5407986111111107  3.984375000000001 0.6597222222222214  4.118303571428571 0.770833333333333  C 4.252232142857143 0.8819444444444438  4.379464285714286 1  4.5 1.125  C 4.6205357142857135 1  4.747767857142858 0.8819444444444438  4.881696428571429 0.770833333333333  C 5.015625000000001 0.6597222222222214  5.175502232142858 0.5407986111111107  5.361328125 0.4140625  C 5.547154017857142 0.2873263888888884  5.748046875 0.18663194444444375  5.964006696428571 0.11197916666666696  C 6.179966517857142 0.037326388888888395  6.391741071428572 0  6.599330357142858 0  C 7.349330357142858 0  7.936941964285715 0.21527777777777768  8.362165178571429 0.645833333333333  C 8.787388392857142 1.0763888888888884  9 1.6736111111111107  9 2.4375  C 9 3.2048611111111107  8.616629464285715 3.9861111111111107  7.849888392857142 4.78125  L 4.720982142857142 7.90625  Z " fill-rule="nonzero" fill="#ffffff" stroke="none" transform="matrix(1 0 0 1 145 10803 )" />
  </g>
</svg>