<?xml version="1.0" encoding="utf-8"?>
<svg version="1.1" xmlns:xlink="http://www.w3.org/1999/xlink" width="17px" height="19px" xmlns="http://www.w3.org/2000/svg">
  <g transform="matrix(1 0 0 1 -212 -13060 )">
    <path d="M 8.5 18.151785714285715  C 8.608974358974361 18.151785714285715  8.66346153846154 18.095238095238095  8.663461538461538 17.982142857142858  C 8.66346153846154 17.86904761904762  8.608974358974361 17.8125  8.5 17.8125  C 8.098157051282051 17.8125  7.752504006410258 17.66229538690476  7.463040865384616 17.361886160714285  C 7.173577724358975 17.06147693452381  7.028846153846153 16.702752976190474  7.028846153846153 16.28571428571429  C 7.028846153846153 16.172619047619047  6.974358974358975 16.116071428571427  6.865384615384616 16.116071428571427  C 6.756410256410257 16.116071428571427  6.701923076923077 16.172619047619047  6.701923076923077 16.28571428571429  C 6.701923076923077 16.80171130952381  6.877303685897436 17.241722470238095  7.228064903846153 17.605747767857142  C 7.578826121794872 17.96977306547619  8.002804487179487 18.151785714285715  8.5 18.151785714285715  Z M 16.0703125 13.995535714285714  C 16.349559294871796 14.320684523809526  16.659455128205128 14.631696428571429  17 14.928571428571429  C 17.000000000000004 15.296130952380953  16.87059294871795 15.614211309523812  16.611778846153847 15.8828125  C 16.352964743589745 16.15141369047619  16.04647435897436 16.28571428571429  15.692307692307693 16.28571428571429  L 11.115384615384615 16.28571428571429  C 11.115384615384615 17.03497023809524  10.859975961538462 17.674665178571427  10.349158653846153 18.204799107142858  C 9.838341346153847 18.734933035714285  9.22195512820513 19  8.5 19  C 7.778044871794872 19  7.161658653846153 18.734933035714285  6.650841346153847 18.204799107142858  C 6.140024038461539 17.674665178571427  5.884615384615384 17.03497023809524  5.884615384615384 16.28571428571429  L 1.3076923076923077 16.28571428571429  C 0.9535256410256412 16.28571428571429  0.6470352564102565 16.15141369047619  0.3882211538461538 15.8828125  C 0.12940705128205132 15.614211309523812  0 15.296130952380953  0 14.928571428571429  C 0.34054487179487186 14.631696428571429  0.6504407051282053 14.320684523809526  0.9296875 13.995535714285714  C 1.2089342948717952 13.670386904761903  1.498397435897436 13.248046875  1.7980769230769231 12.728515625  C 2.0977564102564106 12.208984375  2.3514623397435903 11.648809523809522  2.5591947115384617 11.047991071428571  C 2.7669270833333335 10.447172619047619  2.9371995192307696 9.719122023809526  3.0700120192307696 8.863839285714285  C 3.2028245192307696 8.008556547619047  3.2692307692307696 7.0896577380952355  3.2692307692307696 6.107142857142857  C 3.2692307692307696 5.032738095238094  3.6676682692307696 4.034319196428572  4.464543269230769 3.1118861607142847  C 5.261418269230769 2.189453125  6.3068910256410255 1.6292782738095224  7.600961538461539 1.4313616071428565  C 7.5464743589743595 1.29706101190476  7.519230769230769 1.1592261904761907  7.519230769230769 1.0178571428571435  C 7.519230769230769 0.7351190476190471  7.614583333333334 0.49479166666666596  7.805288461538461 0.296875  C 7.99599358974359 0.09895833333333404  8.227564102564102 0  8.5 0  C 8.772435897435898 0  9.004006410256412 0.09895833333333404  9.194711538461538 0.296875  C 9.385416666666668 0.49479166666666596  9.480769230769232 0.7351190476190471  9.480769230769232 1.0178571428571435  C 9.480769230769232 1.1592261904761907  9.453525641025642 1.29706101190476  9.399038461538462 1.4313616071428565  C 10.693108974358976 1.6292782738095224  11.738581730769232 2.189453125  12.535456730769232 3.1118861607142847  C 13.332331730769232 4.034319196428572  13.730769230769232 5.032738095238094  13.730769230769232 6.107142857142857  C 13.730769230769232 7.0896577380952355  13.797175480769232 8.008556547619047  13.929987980769232 8.863839285714285  C 14.062800480769232 9.719122023809526  14.233072916666668 10.447172619047619  14.440805288461538 11.047991071428571  C 14.648537660256412 11.648809523809522  14.90224358974359 12.208984375  15.201923076923078 12.728515625  C 15.501602564102566 13.248046875  15.79106570512821 13.670386904761903  16.0703125 13.995535714285714  Z " fill-rule="nonzero" fill="#ffffff" stroke="none" transform="matrix(1 0 0 1 212 13060 )" />
  </g>
</svg>