<?xml version="1.0" encoding="utf-8"?>
<svg version="1.1" xmlns:xlink="http://www.w3.org/1999/xlink" width="14px" height="21px" xmlns="http://www.w3.org/2000/svg">
  <g transform="matrix(1 0 0 1 -212 -13163 )">
    <path d="M 9.474609375 9.474609375  C 10.158203125 8.791015625  10.5 7.966145833333334  10.5 7.000000000000001  C 10.5 6.033854166666666  10.158203125 5.208984375  9.474609375 4.525390624999999  C 8.791015625 3.841796875000001  7.966145833333334 3.499999999999999  7 3.499999999999999  C 6.033854166666667 3.499999999999999  5.208984375 3.841796875000001  4.525390625 4.525390624999999  C 3.841796875 5.208984375  3.5 6.033854166666666  3.5 7.000000000000001  C 3.5 7.966145833333334  3.841796875 8.791015625  4.525390625 9.474609375  C 5.208984375 10.158203125  6.033854166666667 10.5  7 10.5  C 7.966145833333334 10.5  8.791015625 10.158203125  9.474609375 9.474609375  Z M 11.94921875 2.05078125  C 13.31640625 3.417968749999999  14 5.06770833333333  14 7.000000000000001  C 14 7.993489583333332  13.849609375 8.809244791666666  13.548828125 9.447265625  L 8.572265625 20.029296875  C 8.426432291666668 20.330078125  8.2099609375 20.567057291666664  7.9228515625 20.740234375  C 7.6357421875 20.913411458333336  7.328125 21  7 21  C 6.671875 21  6.3642578125 20.913411458333336  6.0771484375 20.740234375  C 5.7900390625 20.567057291666664  5.578125 20.330078125  5.44140625 20.029296875  L 0.451171875 9.447265625  C 0.150390625 8.809244791666666  0 7.993489583333332  0 7.000000000000001  C 0 5.06770833333333  0.68359375 3.417968749999999  2.05078125 2.05078125  C 3.4179687500000004 0.6835937500000008  5.067708333333334 0  7 0  C 8.932291666666668 0  10.58203125 0.6835937500000008  11.94921875 2.05078125  Z " fill-rule="nonzero" fill="#ffffff" stroke="none" transform="matrix(1 0 0 1 212 13163 )" />
  </g>
</svg>