<?xml version="1.0" encoding="utf-8"?>
<svg version="1.1" xmlns:xlink="http://www.w3.org/1999/xlink" width="9px" height="7px" xmlns="http://www.w3.org/2000/svg">
  <g transform="matrix(1 0 0 1 -145 -11004 )">
    <path d="M 3.6619897959183674 6.401171875  C 3.6581632653061225 6.421223958333334  3.6619897959183674 6.445833333333334  3.673469387755102 6.4750000000000005  C 3.673469387755102 6.489583333333334  3.6753826530612246 6.526041666666666  3.679209183673469 6.5843750000000005  C 3.683035714285715 6.642708333333333  3.683992346938776 6.6910156249999995  3.6820790816326534 6.729296875  C 3.6801658163265314 6.767578125  3.6744260204081636 6.810416666666667  3.664859693877551 6.8578125000000005  C 3.655293367346939 6.905208333333334  3.6361607142857144 6.940755208333334  3.6074617346938775 6.9644531249999995  C 3.578762755102041 6.988151041666667  3.5395408163265314 7  3.4897959183673466 7  L 1.653061224489796 7  C 1.1977040816326532 7  0.8083545918367347 6.845963541666666  0.48501275510204084 6.537890625  C 0.16167091836734693 6.229817708333334  0 5.858854166666666  0 5.425  L 0 1.5749999999999997  C 0 1.1411458333333322  0.16167091836734693 0.7701822916666664  0.48501275510204084 0.46210937500000016  C 0.8083545918367347 0.15403645833333235  1.1977040816326532 0  1.653061224489796 0  L 3.4897959183673466 0  C 3.5395408163265314 0  3.582589285714286 0.01731770833333235  3.6189413265306123 0.051953125000000155  C 3.655293367346939 0.08658854166666641  3.673469387755102 0.1276041666666664  3.673469387755102 0.17500000000000016  C 3.673469387755102 0.18958333333333266  3.6753826530612246 0.22604166666666625  3.679209183673469 0.28437500000000016  C 3.683035714285715 0.3427083333333325  3.683992346938776 0.3910156250000003  3.6820790816326534 0.4292968749999997  C 3.6801658163265314 0.46757812499999984  3.6744260204081636 0.5104166666666664  3.664859693877551 0.5578125000000002  C 3.655293367346939 0.6052083333333323  3.6361607142857144 0.6407552083333327  3.6074617346938775 0.6644531250000003  C 3.578762755102041 0.6881510416666664  3.5395408163265314 0.6999999999999998  3.4897959183673466 0.6999999999999998  L 1.653061224489796 0.6999999999999998  C 1.4005102040816326 0.6999999999999998  1.1843112244897962 0.7856770833333322  1.0044642857142858 0.95703125  C 0.8246173469387756 1.1283854166666663  0.7346938775510203 1.3343750000000003  0.7346938775510203 1.5749999999999997  L 0.7346938775510203 5.425  C 0.7346938775510203 5.6656249999999995  0.8246173469387756 5.871614583333332  1.0044642857142858 6.04296875  C 1.1843112244897962 6.214322916666666  1.4005102040816326 6.3  1.653061224489796 6.3  L 3.306122448979592 6.3  L 3.3692602040816326 6.3  L 3.443877551020408 6.3  C 3.443877551020408 6.3  3.4658801020408165 6.301822916666666  3.5098852040816326 6.30546875  C 3.553890306122449 6.309114583333334  3.5758928571428568 6.314583333333333  3.5758928571428568 6.3218749999999995  C 3.5758928571428568 6.329166666666666  3.591198979591837 6.339192708333334  3.6218112244897958 6.3519531250000005  C 3.6524234693877555 6.364713541666666  3.6658163265306127 6.381119791666666  3.6619897959183674 6.401171875  Z M 8.89094387755102 3.25390625  C 8.963647959183675 3.3231770833333334  9 3.4052083333333334  9 3.5  C 9 3.5947916666666657  8.963647959183675 3.6768229166666657  8.89094387755102 3.74609375  L 5.768494897959184 6.7210937500000005  C 5.6957908163265305 6.790364583333334  5.609693877551021 6.825  5.510204081632653 6.825  C 5.4107142857142865 6.825  5.324617346938776 6.790364583333334  5.251913265306122 6.7210937500000005  C 5.1792091836734695 6.651822916666666  5.142857142857142 6.569791666666666  5.142857142857142 6.4750000000000005  L 5.142857142857142 4.8999999999999995  L 2.571428571428571 4.8999999999999995  C 2.4719387755102042 4.8999999999999995  2.385841836734694 4.865364583333333  2.313137755102041 4.79609375  C 2.2404336734693877 4.726822916666666  2.204081632653061 4.644791666666666  2.204081632653061 4.55  L 2.204081632653061 2.4499999999999997  C 2.204081632653061 2.3552083333333322  2.2404336734693877 2.2731770833333322  2.313137755102041 2.2039062499999997  C 2.385841836734694 2.134635416666667  2.4719387755102042 2.1000000000000005  2.571428571428571 2.1000000000000005  L 5.142857142857142 2.1000000000000005  L 5.142857142857142 0.5249999999999997  C 5.142857142857142 0.4302083333333322  5.1792091836734695 0.3481770833333322  5.251913265306122 0.2789062499999997  C 5.324617346938776 0.2096354166666664  5.4107142857142865 0.17500000000000016  5.510204081632653 0.17500000000000016  C 5.609693877551021 0.17500000000000016  5.6957908163265305 0.2096354166666664  5.768494897959184 0.2789062499999997  L 8.89094387755102 3.25390625  Z " fill-rule="nonzero" fill="#ffffff" stroke="none" transform="matrix(1 0 0 1 145 11004 )" />
  </g>
</svg>