<?xml version="1.0" encoding="utf-8"?>
<svg version="1.1" xmlns:xlink="http://www.w3.org/1999/xlink" width="9px" height="9px" xmlns="http://www.w3.org/2000/svg">
  <g transform="matrix(1 0 0 1 -145 -10881 )">
    <path d="M 5.560546875 5.560546875000001  C 5.853515625 5.267578124999999  6 4.9140625  6 4.5  C 6 4.085937499999999  5.853515625 3.7324218749999996  5.560546875 3.4394531250000004  C 5.267578125 3.146484375  4.914062500000001 3.0000000000000004  4.5 3.0000000000000004  C 4.0859375 3.0000000000000004  3.732421875 3.146484375  3.439453125 3.4394531250000004  C 3.146484375 3.7324218749999996  3 4.085937499999999  3 4.5  C 3 4.9140625  3.146484375 5.267578124999999  3.439453125 5.560546875000001  C 3.732421875 5.853515625  4.0859375 6.000000000000001  4.5 6.000000000000001  C 4.914062500000001 6.000000000000001  5.267578125 5.853515625  5.560546875 5.560546875000001  Z M 8.953125 3.7236328124999996  C 8.984375 3.7646484375000004  9 3.810546875  9 3.8613281250000004  L 9 5.162109374999999  C 9 5.208984375000001  8.984375 5.25390625  8.953125 5.296875000000001  C 8.921875 5.339843749999999  8.8828125 5.365234374999999  8.8359375 5.373046874999999  L 7.751953125 5.537109375  C 7.677734375000001 5.748046875  7.601562500000001 5.92578125  7.5234375 6.070312500000001  C 7.660156250000001 6.265625  7.869140625 6.535156249999999  8.150390625 6.87890625  C 8.189453125 6.92578125  8.208984375 6.974609375  8.208984375 7.025390625  C 8.208984375 7.076171875000001  8.19140625 7.12109375  8.15625 7.16015625  C 8.05078125 7.304687500000001  7.857421875 7.515625000000001  7.576171875 7.79296875  C 7.294921875 8.0703125  7.111328125000001 8.208984375  7.025390625 8.208984375  C 6.978515625 8.208984375  6.927734375000001 8.19140625  6.873046875 8.15625  L 6.064453125 7.5234375  C 5.892578125 7.61328125  5.714843750000001 7.6875  5.53125 7.74609375  C 5.468750000000001 8.27734375  5.412109375 8.640625  5.361328125 8.8359375  C 5.333984375 8.9453125  5.263671875 9  5.150390625 9  L 3.849609375 9  C 3.7949218750000004 9  3.7470703125 8.9833984375  3.7060546875 8.9501953125  C 3.6650390625 8.9169921875  3.6425781250000004 8.875  3.638671875 8.82421875  L 3.474609375 7.74609375  C 3.2832031250000004 7.68359375  3.1074218750000004 7.611328125  2.947265625 7.529296875  L 2.12109375 8.15625  C 2.08203125 8.19140625  2.033203125 8.208984375  1.974609375 8.208984375  C 1.919921875 8.208984375  1.8710937500000002 8.1875  1.828125 8.14453125  C 1.3359375 7.69921875  1.013671875 7.37109375  0.861328125 7.16015625  C 0.8339843750000001 7.12109375  0.8203125 7.076171875000001  0.8203125 7.025390625  C 0.8203125 6.978515625  0.8359375000000001 6.933593749999999  0.8671875 6.890625  C 0.92578125 6.80859375  1.025390625 6.6787109375  1.166015625 6.500976562500001  C 1.306640625 6.323242187499999  1.412109375 6.185546874999998  1.482421875 6.087890625000001  C 1.376953125 5.892578124999999  1.2968750000000002 5.699218749999999  1.2421875 5.507812500000001  L 0.169921875 5.349609375000001  C 0.11914062500000001 5.341796875  0.078125 5.3173828125  0.046875 5.276367187499999  C 0.015625 5.235351562500001  0 5.189453124999999  0 5.138671875000001  L 0 3.8378906249999996  C 0 3.7910156250000004  0.015625 3.7460937499999996  0.046875 3.7031250000000004  C 0.078125 3.66015625  0.11523437500000001 3.634765625  0.158203125 3.6269531249999996  L 1.248046875 3.462890625  C 1.302734375 3.283203125  1.37890625 3.103515625  1.4765625 2.9238281249999996  C 1.3203125 2.7011718750000004  1.111328125 2.4316406249999996  0.849609375 2.1152343749999996  C 0.810546875 2.0683593750000004  0.791015625 2.021484375  0.791015625 1.9746093749999996  C 0.791015625 1.9355468749999996  0.80859375 1.8906249999999987  0.84375 1.8398437500000004  C 0.9453125 1.6992187500000004  1.1376953125 1.4892578124999991  1.4208984375 1.2099609374999996  C 1.7041015625000002 0.9306640624999992  1.8886718750000002 0.791015625  1.974609375 0.791015625  C 2.025390625 0.791015625  2.0761718750000004 0.8105468749999996  2.126953125 0.8496093749999997  L 2.935546875 1.4765625  C 3.1074218750000004 1.3867187499999996  3.2851562500000004 1.3125000000000004  3.46875 1.2539062499999996  C 3.5312500000000004 0.7226562499999996  3.587890625 0.3593749999999992  3.638671875 0.16406249999999967  C 3.6660156250000004 0.054687499999999556  3.7363281250000004 0  3.849609375 0  L 5.150390625 0  C 5.205078125000001 0  5.2529296875 0.016601562499999223  5.2939453125 0.04980468749999967  C 5.3349609375 0.08300781249999911  5.357421875 0.12499999999999956  5.361328125 0.17578125  L 5.525390625 1.2539062499999996  C 5.716796875 1.3164062499999996  5.892578125 1.388671875  6.052734375 1.4707031250000004  L 6.884765625 0.84375  C 6.919921875 0.80859375  6.966796875 0.791015625  7.025390625 0.791015625  C 7.076171875000001 0.791015625  7.125 0.8105468749999996  7.171875 0.8496093749999997  C 7.67578125 1.314453125  7.998046875 1.6464843750000004  8.138671875 1.845703125  C 8.166015625 1.876953125  8.1796875 1.9199218749999991  8.1796875 1.9746093749999996  C 8.1796875 2.021484375  8.164062500000002 2.0664062499999987  8.1328125 2.109375  C 8.07421875 2.1914062500000004  7.974609375 2.3212890624999987  7.833984375 2.4990234375000004  C 7.693359375 2.6767578125  7.587890625 2.8144531249999996  7.517578125 2.9121093750000004  C 7.619140625000001 3.107421875  7.69921875 3.298828124999999  7.7578125 3.4863281249999996  L 8.830078125 3.6503906250000004  C 8.880859375 3.6582031249999996  8.921875 3.682617187499999  8.953125 3.7236328124999996  Z " fill-rule="nonzero" fill="#ffffff" stroke="none" transform="matrix(1 0 0 1 145 10881 )" />
  </g>
</svg>