<?xml version="1.0" encoding="utf-8"?>
<svg version="1.1" xmlns:xlink="http://www.w3.org/1999/xlink" width="17px" height="17px" xmlns="http://www.w3.org/2000/svg">
  <g transform="matrix(1 0 0 1 -212 -13201 )">
    <path d="M 10.503255208333332 10.503255208333334  C 11.056640625 9.949869791666666  11.333333333333332 9.282118055555555  11.333333333333332 8.5  C 11.333333333333332 7.717881944444443  11.056640625 7.050130208333333  10.503255208333332 6.496744791666667  C 9.949869791666668 5.943359375  9.282118055555557 5.666666666666667  8.5 5.666666666666667  C 7.717881944444445 5.666666666666667  7.050130208333334 5.943359375  6.496744791666666 6.496744791666667  C 5.943359375 7.050130208333333  5.666666666666666 7.717881944444443  5.666666666666666 8.5  C 5.666666666666666 9.282118055555555  5.943359375 9.949869791666666  6.496744791666666 10.503255208333334  C 7.050130208333334 11.056640625  7.717881944444445 11.333333333333334  8.5 11.333333333333334  C 9.282118055555557 11.333333333333334  9.949869791666668 11.056640625  10.503255208333332 10.503255208333334  Z M 16.911458333333332 7.033528645833333  C 16.97048611111111 7.111002604166667  17 7.197699652777778  17 7.293619791666667  L 17 9.750651041666666  C 17 9.839192708333334  16.97048611111111 9.92404513888889  16.911458333333332 10.005208333333334  C 16.852430555555557 10.086371527777775  16.778645833333332 10.134331597222221  16.690104166666668 10.149088541666666  L 14.642578125 10.458984375  C 14.502387152777779 10.857421875  14.358506944444446 11.19314236111111  14.2109375 11.466145833333334  C 14.469184027777779 11.835069444444445  14.863932291666668 12.344184027777775  15.395182291666668 12.993489583333332  C 15.46896701388889 13.08203125  15.505859375 13.174262152777777  15.505859375 13.270182291666668  C 15.505859375 13.366102430555557  15.47265625 13.45095486111111  15.40625 13.524739583333332  C 15.20703125 13.797743055555557  14.841796875 14.196180555555557  14.310546875 14.720052083333332  C 13.779296875 15.24392361111111  13.432508680555557 15.505859375  13.270182291666668 15.505859375  C 13.181640625 15.505859375  13.085720486111112 15.47265625  12.982421875 15.40625  L 11.455078125 14.2109375  C 11.130425347222223 14.38064236111111  10.794704861111112 14.520833333333332  10.447916666666668 14.631510416666668  C 10.329861111111112 15.63498263888889  10.22287326388889 16.321180555555557  10.126953125 16.690104166666668  C 10.075303819444445 16.89670138888889  9.942491319444445 17  9.728515625 17  L 7.271484375 17  C 7.168185763888889 17  7.077799479166666 16.968641493055557  7.000325520833334 16.905924479166668  C 6.9228515625 16.84320746527778  6.880425347222223 16.76388888888889  6.873046875 16.66796875  L 6.563151041666666 14.631510416666668  C 6.201605902777779 14.51345486111111  5.869574652777779 14.376953125  5.567057291666666 14.222005208333332  L 4.006510416666667 15.40625  C 3.9327256944444446 15.47265625  3.840494791666667 15.505859375  3.729817708333333 15.505859375  C 3.6265190972222223 15.505859375  3.5342881944444446 15.465277777777777  3.453125 15.384114583333332  C 2.5234375 14.54296875  1.9147135416666665 13.923177083333332  1.626953125 13.524739583333332  C 1.5753038194444446 13.45095486111111  1.5494791666666665 13.366102430555557  1.5494791666666665 13.270182291666668  C 1.5494791666666665 13.181640625  1.5789930555555558 13.096788194444443  1.6380208333333335 13.015625  C 1.7486979166666665 12.860677083333332  1.9368489583333335 12.615342881944445  2.202473958333333 12.279622395833334  C 2.468098958333333 11.943901909722221  2.667317708333333 11.683810763888886  2.800130208333333 11.499348958333334  C 2.600911458333333 11.130425347222221  2.449652777777778 10.765190972222221  2.346354166666667 10.403645833333334  L 0.32096354166666663 10.104817708333334  C 0.2250434027777778 10.09006076388889  0.14756944444444445 10.0439453125  0.08854166666666666 9.966471354166666  C 0.029513888888888888 9.888997395833334  0 9.802300347222221  0 9.706380208333334  L 0 7.249348958333333  C 0 7.160807291666667  0.029513888888888888 7.075954861111111  0.08854166666666666 6.994791666666667  C 0.14756944444444445 6.913628472222222  0.21766493055555558 6.865668402777778  0.298828125 6.850911458333333  L 2.357421875 6.541015625  C 2.460720486111111 6.201605902777778  2.604600694444444 5.862196180555555  2.7890625 5.522786458333333  C 2.493923611111111 5.102213541666667  2.0991753472222223 4.593098958333333  1.6048177083333335 3.9954427083333326  C 1.5310329861111112 3.9069010416666674  1.494140625 3.818359375  1.494140625 3.7298177083333326  C 1.494140625 3.6560329861111103  1.52734375 3.571180555555553  1.59375 3.4752604166666674  C 1.785590277777778 3.2096354166666674  2.1489800347222223 2.8130425347222205  2.683919270833333 2.2854817708333326  C 3.2188585069444446 1.7579210069444429  3.5674913194444446 1.494140625  3.729817708333333 1.494140625  C 3.8257378472222223 1.494140625  3.9216579861111116 1.5310329861111103  4.017578125 1.6048177083333326  L 5.544921875 2.7890625  C 5.869574652777779 2.619357638888888  6.205295138888889 2.4791666666666674  6.552083333333334 2.3684895833333326  C 6.670138888888889 1.3650173611111103  6.777126736111112 0.678819444444443  6.873046875 0.3098958333333327  C 6.924696180555556 0.10329861111111027  7.057508680555556 0  7.271484375 0  L 9.728515625 0  C 9.831814236111112 0  9.922200520833332 0.031358506944442976  9.999674479166668 0.0940755208333327  C 10.0771484375 0.15679253472222054  10.119574652777777 0.23611111111111027  10.126953125 0.33203125  L 10.436848958333332 2.3684895833333326  C 10.798394097222223 2.486545138888888  11.130425347222223 2.623046875  11.432942708333332 2.7779947916666674  L 13.004557291666668 1.59375  C 13.070963541666668 1.52734375  13.159505208333332 1.494140625  13.270182291666668 1.494140625  C 13.366102430555557 1.494140625  13.458333333333332 1.5310329861111103  13.546875 1.6048177083333326  C 14.498697916666668 2.4828559027777777  15.107421875 3.1100260416666674  15.373046875 3.486328125  C 15.424696180555557 3.5453559027777777  15.450520833333332 3.6265190972222205  15.450520833333332 3.7298177083333326  C 15.450520833333332 3.818359375  15.421006944444446 3.903211805555553  15.361979166666668 3.984375  C 15.251302083333332 4.139322916666667  15.063151041666668 4.384657118055554  14.797526041666668 4.720377604166667  C 14.531901041666668 5.056098090277778  14.332682291666668 5.316189236111111  14.199869791666668 5.500651041666667  C 14.391710069444446 5.869574652777778  14.54296875 6.231119791666665  14.653645833333332 6.585286458333333  L 16.679036458333332 6.895182291666667  C 16.77495659722222 6.909939236111111  16.852430555555557 6.956054687499998  16.911458333333332 7.033528645833333  Z " fill-rule="nonzero" fill="#ffffff" stroke="none" transform="matrix(1 0 0 1 212 13201 )" />
  </g>
</svg>