<?xml version="1.0" encoding="utf-8"?>
<svg version="1.1" xmlns:xlink="http://www.w3.org/1999/xlink" width="17px" height="17px" xmlns="http://www.w3.org/2000/svg">
  <g transform="matrix(1 0 0 1 -212 -13235 )">
    <path d="M 9.817057291666668 14.067057291666668  C 9.883463541666668 14.000651041666668  9.916666666666668 13.91579861111111  9.916666666666668 13.8125  L 9.916666666666668 11.6875  C 9.916666666666668 11.584201388888886  9.883463541666668 11.499348958333334  9.817057291666668 11.432942708333334  C 9.750651041666668 11.366536458333334  9.665798611111112 11.333333333333334  9.5625 11.333333333333334  L 7.4375 11.333333333333334  C 7.334201388888889 11.333333333333334  7.249348958333334 11.366536458333334  7.182942708333334 11.432942708333334  C 7.116536458333334 11.499348958333334  7.083333333333334 11.584201388888886  7.083333333333334 11.6875  L 7.083333333333334 13.8125  C 7.083333333333334 13.91579861111111  7.116536458333334 14.000651041666668  7.182942708333334 14.067057291666668  C 7.249348958333334 14.133463541666668  7.334201388888889 14.166666666666668  7.4375 14.166666666666668  L 9.5625 14.166666666666668  C 9.665798611111112 14.166666666666668  9.750651041666668 14.133463541666668  9.817057291666668 14.067057291666668  Z M 12.611653645833332 7.271484375  C 12.703884548611112 6.998480902777778  12.75 6.699652777777778  12.75 6.375  C 12.75 5.725694444444443  12.545247395833332 5.124348958333333  12.1357421875 4.570963541666667  C 11.726236979166668 4.017578125  11.215277777777779 3.5896267361111103  10.602864583333332 3.287109375  C 9.99045138888889 2.984592013888888  9.36328125 2.8333333333333326  8.721354166666668 2.8333333333333326  C 6.928385416666666 2.8333333333333326  5.559678819444445 3.619140625  4.615234375 5.190755208333333  C 4.504557291666667 5.367838541666667  4.534071180555556 5.522786458333333  4.703776041666666 5.655598958333333  L 6.164713541666666 6.762369791666667  C 6.216362847222223 6.806640625  6.286458333333334 6.828776041666667  6.375 6.828776041666667  C 6.493055555555556 6.828776041666667  6.585286458333334 6.784505208333333  6.651692708333334 6.695963541666667  C 7.042751736111112 6.194227430555555  7.360026041666666 5.854817708333333  7.603515625 5.677734375  C 7.854383680555556 5.500651041666667  8.17165798611111 5.412109375  8.555338541666668 5.412109375  C 8.909505208333332 5.412109375  9.224934895833332 5.5080295138888875  9.501627604166668 5.699869791666667  C 9.7783203125 5.891710069444443  9.916666666666668 6.109374999999998  9.916666666666668 6.352864583333333  C 9.916666666666668 6.633246527777778  9.842881944444445 6.858289930555555  9.6953125 7.027994791666667  C 9.547743055555557 7.197699652777778  9.296875 7.363715277777778  8.942708333333332 7.526041666666667  C 8.477864583333334 7.7326388888888875  8.0517578125 8.0517578125  7.664388020833334 8.4833984375  C 7.277018229166666 8.9150390625  7.083333333333334 9.378038194444445  7.083333333333334 9.872395833333334  L 7.083333333333334 10.270833333333334  C 7.083333333333334 10.374131944444445  7.116536458333334 10.458984375  7.182942708333334 10.525390625  C 7.249348958333334 10.591796875  7.334201388888889 10.625  7.4375 10.625  L 9.5625 10.625  C 9.665798611111112 10.625  9.750651041666668 10.591796875  9.817057291666668 10.525390625  C 9.883463541666668 10.458984375  9.916666666666668 10.374131944444445  9.916666666666668 10.270833333333334  C 9.916666666666668 10.13064236111111  9.995985243055557 9.94802517361111  10.154622395833332 9.722981770833334  C 10.313259548611112 9.497938368055555  10.514322916666668 9.315321180555555  10.7578125 9.175130208333334  C 10.993923611111112 9.042317708333334  11.174696180555557 8.937174479166666  11.300130208333332 8.859700520833334  C 11.425564236111112 8.7822265625  11.595269097222223 8.65310329861111  11.809244791666668 8.472330729166668  C 12.023220486111112 8.291558159722223  12.187391493055557 8.114474826388888  12.3017578125 7.941080729166667  C 12.416124131944446 7.767686631944443  12.519422743055557 7.544487847222222  12.611653645833332 7.271484375  Z M 15.860026041666668 4.2333984375  C 16.620008680555554 5.5356987847222205  17 6.957899305555554  17 8.5  C 17 10.042100694444445  16.620008680555554 11.464301215277775  15.860026041666668 12.7666015625  C 15.100043402777779 14.068901909722223  14.068901909722223 15.100043402777777  12.7666015625 15.860026041666668  C 11.464301215277779 16.620008680555557  10.042100694444445 17  8.5 17  C 6.957899305555556 17  5.535698784722222 16.620008680555557  4.2333984375 15.860026041666668  C 2.931098090277778 15.100043402777777  1.8999565972222223 14.068901909722223  1.1399739583333335 12.7666015625  C 0.3799913194444444 11.464301215277775  0 10.042100694444445  0 8.5  C 0 6.957899305555554  0.3799913194444444 5.5356987847222205  1.1399739583333335 4.2333984375  C 1.8999565972222223 2.9310980902777777  2.931098090277778 1.8999565972222205  4.2333984375 1.1399739583333326  C 5.535698784722222 0.379991319444443  6.957899305555556 0  8.5 0  C 10.042100694444445 0  11.464301215277779 0.379991319444443  12.7666015625 1.1399739583333326  C 14.068901909722223 1.8999565972222205  15.100043402777779 2.9310980902777777  15.860026041666668 4.2333984375  Z " fill-rule="nonzero" fill="#ffffff" stroke="none" transform="matrix(1 0 0 1 212 13235 )" />
  </g>
</svg>