<?xml version="1.0" encoding="utf-8"?>
<svg version="1.1" xmlns:xlink="http://www.w3.org/1999/xlink" width="9px" height="9px" xmlns="http://www.w3.org/2000/svg">
  <g transform="matrix(1 0 0 1 -145 -10906 )">
    <path d="M 5.197265625 7.447265625  C 5.232421875 7.412109375  5.25 7.3671875  5.25 7.3125  L 5.25 6.1875  C 5.25 6.132812499999998  5.232421875 6.087890625000001  5.197265625 6.052734375000001  C 5.162109375 6.017578125000001  5.117187500000001 6.000000000000001  5.0625 6.000000000000001  L 3.9375 6.000000000000001  C 3.8828125000000004 6.000000000000001  3.837890625 6.017578125000001  3.802734375 6.052734375000001  C 3.767578125 6.087890625000001  3.75 6.132812499999998  3.75 6.1875  L 3.75 7.3125  C 3.75 7.3671875  3.767578125 7.412109375  3.802734375 7.447265625  C 3.837890625 7.482421875  3.8828125000000004 7.5  3.9375 7.5  L 5.0625 7.5  C 5.117187500000001 7.5  5.162109375 7.482421875  5.197265625 7.447265625  Z M 6.6767578125 3.849609375  C 6.725585937500001 3.705078125  6.75 3.546875  6.75 3.375  C 6.75 3.031249999999999  6.6416015625 2.7128906249999996  6.4248046875 2.4199218750000004  C 6.2080078125 2.126953125  5.937500000000001 1.9003906249999996  5.61328125 1.740234375  C 5.2890625 1.5800781249999996  4.95703125 1.4999999999999996  4.6171875 1.4999999999999996  C 3.66796875 1.4999999999999996  2.943359375 1.916015625  2.443359375 2.7480468749999996  C 2.3847656250000004 2.8417968750000004  2.4003906250000004 2.9238281249999996  2.490234375 2.9941406249999996  L 3.263671875 3.5800781250000004  C 3.2910156250000004 3.603515625  3.328125 3.6152343750000004  3.375 3.6152343750000004  C 3.4375000000000004 3.6152343750000004  3.486328125 3.5917968749999996  3.521484375 3.5449218750000004  C 3.728515625 3.279296875  3.896484375 3.0996093749999996  4.025390625 3.005859375  C 4.158203125 2.9121093750000004  4.326171875 2.865234375  4.529296875 2.865234375  C 4.716796875 2.865234375  4.8837890625 2.9160156249999996  5.0302734375 3.0175781250000004  C 5.1767578125 3.119140624999999  5.25 3.234374999999999  5.25 3.3632812499999996  C 5.25 3.51171875  5.2109375 3.630859375  5.1328125 3.7207031250000004  C 5.054687500000001 3.810546875  4.921875 3.8984375  4.734375 3.9843750000000004  C 4.48828125 4.093749999999999  4.2626953125 4.2626953125  4.0576171875 4.4912109375  C 3.8525390625 4.7197265625  3.75 4.96484375  3.75 5.226562500000001  L 3.75 5.437500000000001  C 3.75 5.4921875  3.767578125 5.537109375  3.802734375 5.572265625  C 3.837890625 5.607421875  3.8828125000000004 5.625  3.9375 5.625  L 5.0625 5.625  C 5.117187500000001 5.625  5.162109375 5.607421875  5.197265625 5.572265625  C 5.232421875 5.537109375  5.25 5.4921875  5.25 5.437500000000001  C 5.25 5.36328125  5.291992187500001 5.2666015625  5.3759765625 5.147460937500001  C 5.459960937500001 5.0283203125  5.56640625 4.931640625  5.6953125 4.857421875000001  C 5.820312500000001 4.787109375000001  5.916015625000001 4.731445312499999  5.982421875 4.690429687500001  C 6.048828125000001 4.6494140625  6.138671875 4.5810546875  6.251953125 4.4853515625  C 6.365234375000001 4.3896484375  6.452148437500001 4.295898437499999  6.5126953125 4.2041015625  C 6.573242187500001 4.112304687499999  6.627929687500001 3.994140625  6.6767578125 3.849609375  Z M 8.396484375 2.2412109375  C 8.798828124999998 2.930664062499999  9 3.6835937499999987  9 4.5  C 9 5.31640625  8.798828124999998 6.069335937499999  8.396484375 6.7587890625  C 7.994140625000001 7.4482421875  7.4482421875 7.994140625  6.7587890625 8.396484375  C 6.069335937500001 8.798828125  5.31640625 9  4.5 9  C 3.6835937500000004 9  2.9306640625 8.798828125  2.2412109375 8.396484375  C 1.5517578125000002 7.994140625  1.005859375 7.4482421875  0.603515625 6.7587890625  C 0.20117187499999997 6.069335937499999  0 5.31640625  0 4.5  C 0 3.6835937499999987  0.20117187499999997 2.930664062499999  0.603515625 2.2412109375  C 1.005859375 1.5517578125  1.5517578125000002 1.0058593749999991  2.2412109375 0.6035156249999997  C 2.9306640625 0.20117187499999922  3.6835937500000004 0  4.5 0  C 5.31640625 0  6.069335937500001 0.20117187499999922  6.7587890625 0.6035156249999997  C 7.4482421875 1.0058593749999991  7.994140625000001 1.5517578125  8.396484375 2.2412109375  Z " fill-rule="nonzero" fill="#ffffff" stroke="none" transform="matrix(1 0 0 1 145 10906 )" />
  </g>
</svg>