<?xml version="1.0" encoding="utf-8"?>
<svg version="1.1" xmlns:xlink="http://www.w3.org/1999/xlink" width="17px" height="14px" xmlns="http://www.w3.org/2000/svg">
  <g transform="matrix(1 0 0 1 -212 -13342 )">
    <path d="M 6.917091836734694 12.80234375  C 6.909863945578231 12.842447916666668  6.917091836734694 12.891666666666667  6.938775510204081 12.950000000000001  C 6.938775510204081 12.979166666666668  6.942389455782314 13.052083333333332  6.949617346938775 13.168750000000001  C 6.956845238095239 13.285416666666666  6.958652210884354 13.382031249999999  6.955038265306123 13.45859375  C 6.951424319727892 13.53515625  6.940582482993198 13.620833333333334  6.922512755102041 13.715625000000001  C 6.904443027210885 13.810416666666669  6.868303571428571 13.881510416666668  6.814094387755103 13.928906249999999  C 6.759885204081633 13.976302083333334  6.685799319727892 14  6.591836734693877 14  L 3.122448979591837 14  C 2.2623299319727894 14  1.5268920068027212 13.691927083333333  0.9161352040816326 13.07578125  C 0.3053784013605442 12.459635416666668  0 11.717708333333333  0 10.85  L 0 3.1499999999999995  C 0 2.2822916666666644  0.3053784013605442 1.5403645833333328  0.9161352040816326 0.9242187500000003  C 1.5268920068027212 0.3080729166666647  2.2623299319727894 0  3.122448979591837 0  L 6.591836734693877 0  C 6.685799319727892 0  6.767113095238096 0.0346354166666647  6.83577806122449 0.10390625000000031  C 6.904443027210885 0.17317708333333282  6.938775510204081 0.2552083333333328  6.938775510204081 0.3500000000000003  C 6.938775510204081 0.3791666666666653  6.942389455782314 0.4520833333333325  6.949617346938775 0.5687500000000003  C 6.956845238095239 0.685416666666665  6.958652210884354 0.7820312500000006  6.955038265306123 0.8585937499999994  C 6.951424319727892 0.9351562499999997  6.940582482993198 1.0208333333333328  6.922512755102041 1.1156250000000003  C 6.904443027210885 1.2104166666666647  6.868303571428571 1.2815104166666653  6.814094387755103 1.3289062500000006  C 6.759885204081633 1.3763020833333328  6.685799319727892 1.3999999999999997  6.591836734693877 1.3999999999999997  L 3.122448979591837 1.3999999999999997  C 2.6454081632653064 1.3999999999999997  2.2370323129251704 1.5713541666666644  1.8973214285714286 1.9140625  C 1.5576105442176873 2.2567708333333325  1.3877551020408163 2.6687500000000006  1.3877551020408163 3.1499999999999995  L 1.3877551020408163 10.85  C 1.3877551020408163 11.331249999999999  1.5576105442176873 11.743229166666664  1.8973214285714286 12.0859375  C 2.2370323129251704 12.428645833333333  2.6454081632653064 12.6  3.122448979591837 12.6  L 6.244897959183674 12.6  L 6.364158163265306 12.6  L 6.505102040816326 12.6  C 6.505102040816326 12.6  6.546662414965987 12.603645833333331  6.629783163265306 12.6109375  C 6.712903911564626 12.618229166666667  6.754464285714286 12.629166666666666  6.754464285714286 12.643749999999999  C 6.754464285714286 12.658333333333331  6.7833758503401365 12.678385416666668  6.841198979591836 12.703906250000001  C 6.899022108843538 12.729427083333333  6.924319727891157 12.762239583333333  6.917091836734694 12.80234375  Z M 16.794005102040817 6.5078125  C 16.931335034013607 6.646354166666667  17 6.810416666666667  17 7  C 17 7.189583333333331  16.931335034013607 7.353645833333331  16.794005102040817 7.4921875  L 10.896045918367347 13.442187500000001  C 10.758715986394558 13.580729166666668  10.596088435374151 13.65  10.408163265306122 13.65  C 10.220238095238097 13.65  10.057610544217688 13.580729166666668  9.920280612244898 13.442187500000001  C 9.78295068027211 13.303645833333333  9.714285714285714 13.139583333333333  9.714285714285714 12.950000000000001  L 9.714285714285714 9.799999999999999  L 4.857142857142857 9.799999999999999  C 4.66921768707483 9.799999999999999  4.506590136054422 9.730729166666666  4.369260204081633 9.5921875  C 4.231930272108843 9.453645833333333  4.163265306122449 9.289583333333333  4.163265306122449 9.1  L 4.163265306122449 4.8999999999999995  C 4.163265306122449 4.7104166666666645  4.231930272108843 4.5463541666666645  4.369260204081633 4.4078124999999995  C 4.506590136054422 4.269270833333334  4.66921768707483 4.200000000000001  4.857142857142857 4.200000000000001  L 9.714285714285714 4.200000000000001  L 9.714285714285714 1.0499999999999994  C 9.714285714285714 0.8604166666666644  9.78295068027211 0.6963541666666644  9.920280612244898 0.5578124999999994  C 10.057610544217688 0.4192708333333328  10.220238095238097 0.3500000000000003  10.408163265306122 0.3500000000000003  C 10.596088435374151 0.3500000000000003  10.758715986394558 0.4192708333333328  10.896045918367347 0.5578124999999994  L 16.794005102040817 6.5078125  Z " fill-rule="nonzero" fill="#ffffff" stroke="none" transform="matrix(1 0 0 1 212 13342 )" />
  </g>
</svg>