<?xml version="1.0" encoding="utf-8"?>
<svg version="1.1" xmlns:xlink="http://www.w3.org/1999/xlink" width="35px" height="35px" xmlns="http://www.w3.org/2000/svg">
  <g transform="matrix(1 0 0 1 -1120 -13566 )">
    <path d="M 1137.5 13566  C 1147.3 13566  1155 13573.7  1155 13583.5  C 1155 13593.3  1147.3 13601  1137.5 13601  C 1127.7 13601  1120 13593.3  1120 13583.5  C 1120 13573.7  1127.7 13566  1137.5 13566  Z " fill-rule="nonzero" fill="#b829fd" stroke="none" />
    <path d="M 1137.5 13566.5  C 1147.02 13566.5  1154.5 13573.98  1154.5 13583.5  C 1154.5 13593.02  1147.02 13600.5  1137.5 13600.5  C 1127.98 13600.5  1120.5 13593.02  1120.5 13583.5  C 1120.5 13573.98  1127.98 13566.5  1137.5 13566.5  Z " stroke-width="1" stroke="#b929fe" fill="none" />
  </g>
</svg>