<?xml version="1.0" encoding="utf-8"?>
<svg version="1.1" xmlns:xlink="http://www.w3.org/1999/xlink" width="12px" height="11px" xmlns="http://www.w3.org/2000/svg">
  <g transform="matrix(1 0 0 1 -948 -13521 )">
    <path d="M 9.883928571428571 5.901041666666666  C 10.723214285714286 5.003472222222221  11.142857142857142 4.153645833333333  11.142857142857142 3.3515625  C 11.142857142857142 2.96484375  11.094866071428573 2.6234809027777772  10.998883928571429 2.327473958333333  C 10.902901785714286 2.0314670138888875  10.78013392857143 1.7963324652777772  10.630580357142858 1.6220703125  C 10.481026785714288 1.4478081597222214  10.299107142857144 1.3057725694444442  10.084821428571429 1.195963541666667  C 9.870535714285715 1.0861545138888875  9.660714285714286 1.0121527777777772  9.455357142857142 0.9739583333333329  C 9.25 0.9357638888888874  9.03125 0.9166666666666671  8.799107142857142 0.9166666666666671  C 8.566964285714286 0.9166666666666671  8.316964285714285 0.9775390625  8.049107142857142 1.099283854166667  C 7.78125 1.221028645833333  7.534598214285714 1.3738064236111103  7.309151785714285 1.5576171875  C 7.0837053571428585 1.7414279513888875  6.890625 1.9133029513888875  6.729910714285715 2.0732421875  C 6.56919642857143 2.2331814236111103  6.435267857142858 2.379991319444444  6.328125 2.513671875  C 6.247767857142858 2.6187065972222214  6.138392857142858 2.671223958333333  6 2.671223958333333  C 5.861607142857143 2.671223958333333  5.752232142857142 2.6187065972222214  5.671875 2.513671875  C 5.564732142857142 2.379991319444444  5.430803571428571 2.2331814236111103  5.270089285714286 2.0732421875  C 5.109375 1.9133029513888875  4.916294642857143 1.7414279513888875  4.690848214285714 1.5576171875  C 4.4654017857142865 1.3738064236111103  4.21875 1.221028645833333  3.9508928571428577 1.099283854166667  C 3.6830357142857144 0.9775390625  3.4330357142857153 0.9166666666666671  3.2008928571428577 0.9166666666666671  C 2.96875 0.9166666666666671  2.7500000000000004 0.9357638888888874  2.544642857142857 0.9739583333333329  C 2.3392857142857144 1.0121527777777772  2.1294642857142856 1.0861545138888875  1.9151785714285712 1.195963541666667  C 1.7008928571428572 1.3057725694444442  1.5189732142857144 1.4478081597222214  1.3694196428571428 1.6220703125  C 1.2198660714285716 1.7963324652777772  1.0970982142857144 2.0314670138888875  1.0011160714285714 2.327473958333333  C 0.9051339285714288 2.6234809027777772  0.8571428571428571 2.96484375  0.8571428571428571 3.3515625  C 0.8571428571428571 4.153645833333333  1.2745535714285716 5.001085069444445  2.109375 5.893880208333334  L 6 9.904296875  L 9.883928571428571 5.901041666666666  Z M 11.149553571428571 0.8880208333333329  C 11.716517857142858 1.4800347222222214  12 2.3012152777777772  12 3.3515625  C 12 4.406684027777777  11.488839285714286 5.480902777777777  10.466517857142858 6.57421875  L 6.294642857142857 10.87109375  C 6.214285714285715 10.95703125  6.116071428571429 11  6 11  C 5.883928571428572 11  5.7857142857142865 10.95703125  5.705357142857142 10.87109375  L 1.5267857142857142 6.559895833333334  C 1.4821428571428572 6.521701388888888  1.4207589285714288 6.459635416666666  1.3426339285714286 6.373697916666666  C 1.2645089285714286 6.287760416666666  1.140625 6.131401909722223  0.9709821428571429 5.904622395833334  C 0.8013392857142857 5.677842881944443  0.6495535714285714 5.44509548611111  0.515625 5.206380208333333  C 0.38169642857142855 4.967664930555555  0.26227678571428575 4.678819444444445  0.15736607142857142 4.33984375  C 0.052455357142857144 4.0008680555555545  0 3.6714409722222214  0 3.3515625  C 0 2.3012152777777772  0.2834821428571428 1.4800347222222214  0.8504464285714286 0.8880208333333329  C 1.4174107142857144 0.2960069444444443  2.2008928571428568 0  3.2008928571428577 0  C 3.477678571428571 0  3.7600446428571423 0.051323784722221544  4.047991071428571 0.15397135416666707  C 4.3359375 0.25661892361111016  4.603794642857142 0.39507378472222154  4.8515625 0.5693359375  C 5.099330357142858 0.7435980902777772  5.312500000000001 0.9071180555555545  5.491071428571429 1.059895833333333  C 5.669642857142858 1.2126736111111103  5.839285714285714 1.375  6 1.546875  C 6.160714285714285 1.375  6.330357142857144 1.2126736111111103  6.508928571428571 1.059895833333333  C 6.687500000000001 0.9071180555555545  6.900669642857143 0.7435980902777772  7.1484375 0.5693359375  C 7.396205357142857 0.39507378472222154  7.6640625 0.25661892361111016  7.952008928571429 0.15397135416666707  C 8.239955357142858 0.051323784722221544  8.522321428571429 0  8.799107142857142 0  C 9.799107142857144 0  10.582589285714286 0.2960069444444443  11.149553571428571 0.8880208333333329  Z " fill-rule="nonzero" fill="#000000" stroke="none" transform="matrix(1 0 0 1 948 13521 )" />
  </g>
</svg>