<?xml version="1.0" encoding="utf-8"?>
<svg version="1.1" xmlns:xlink="http://www.w3.org/1999/xlink" width="8px" height="8px" xmlns="http://www.w3.org/2000/svg">
  <g transform="matrix(1 0 0 1 -980 -13591 )">
    <path d="M 7.730769230769231 2.86830497794581  C 7.910256410256411 2.8985507246376816  8 2.975845410628019  8 3.1001890359168245  C 8 3.174123083385843  7.958333333333334 3.2547784078974997  7.875 3.3421550094517958  L 6.1298076923076925 5.126654064272212  L 6.543269230769231 7.647132955261499  C 6.5464743589743595 7.6706574249107335  6.548076923076923 7.704263810123923  6.548076923076923 7.747952110901071  C 6.548076923076923 7.818525519848771  6.53125 7.878176853602184  6.497596153846154 7.92690611216131  C 6.4639423076923075 7.975635370720437  6.415064102564103 8  6.350961538461538 8  C 6.290064102564103 8  6.225961538461538 7.979836168872086  6.158653846153846 7.939508506616257  L 4 6.749842470069313  L 1.8413461538461537 7.939508506616257  C 1.7708333333333335 7.979836168872086  1.7067307692307692 8  1.6490384615384615 8  C 1.5817307692307692 8  1.53125 7.975635370720437  1.4975961538461537 7.92690611216131  C 1.4639423076923077 7.878176853602184  1.4471153846153846 7.818525519848771  1.4471153846153846 7.747952110901071  C 1.4471153846153846 7.727788279773157  1.450320512820513 7.694181894559966  1.4567307692307692 7.647132955261499  L 1.8701923076923077 5.126654064272212  L 0.1201923076923077 3.3421550094517958  C 0.04006410256410256 3.2514177693761814  0 3.1707624448645246  0 3.1001890359168245  C 0 2.975845410628019  0.08974358974358973 2.8985507246376816  0.2692307692307692 2.86830497794581  L 2.6826923076923075 2.5003150598613733  L 3.764423076923077 0.20667926906112122  C 3.825320512820513 0.06889308968704011  3.9038461538461537 0  4 0  C 4.096153846153846 0  4.174679487179487 0.06889308968704011  4.235576923076923 0.20667926906112122  L 5.3173076923076925 2.5003150598613733  L 7.730769230769231 2.86830497794581  Z " fill-rule="nonzero" fill="#b829fd" stroke="none" transform="matrix(1 0 0 1 980 13591 )" />
  </g>
</svg>