<?xml version="1.0" encoding="utf-8"?>
<svg version="1.1" xmlns:xlink="http://www.w3.org/1999/xlink" width="12px" height="11px" xmlns="http://www.w3.org/2000/svg">
  <g transform="matrix(1 0 0 1 -948 -13542 )">
    <path d="M 8.5546875 1.414388020833333  C 7.7622767857142865 1.0825737847222214  6.910714285714285 0.9166666666666671  6 0.9166666666666671  C 5.089285714285714 0.9166666666666671  4.237723214285714 1.0825737847222214  3.4453125 1.414388020833333  C 2.6529017857142856 1.7462022569444442  2.0234375 2.1937934027777772  1.5569196428571428 2.757161458333333  C 1.0904017857142858 3.3205295138888875  0.8571428571428571 3.9292534722222214  0.8571428571428571 4.583333333333333  C 0.8571428571428571 5.118055555555555  1.0167410714285716 5.627712673611112  1.3359375 6.1123046875  C 1.6551339285714286 6.596896701388888  2.1049107142857144 7.015842013888888  2.685267857142857 7.369140625  L 3.2678571428571423 7.727213541666666  L 3.0870535714285716 8.414713541666668  C 2.9799107142857144 8.849175347222223  2.8236607142857144 9.259765625  2.618303571428571 9.646484375  C 3.2968750000000004 9.345703125  3.9107142857142856 8.9375  4.459821428571429 8.421875  L 4.747767857142858 8.149739583333334  L 5.129464285714286 8.192708333333334  C 5.4375 8.230902777777777  5.727678571428571 8.25  6 8.25  C 6.910714285714285 8.25  7.7622767857142865 8.084092881944443  8.5546875 7.752278645833334  C 9.347098214285715 7.4204644097222205  9.9765625 6.972873263888888  10.443080357142858 6.409505208333334  C 10.909598214285715 5.846137152777777  11.142857142857142 5.237413194444445  11.142857142857142 4.583333333333333  C 11.142857142857142 3.9292534722222214  10.909598214285715 3.3205295138888875  10.443080357142858 2.757161458333333  C 9.9765625 2.1937934027777772  9.347098214285715 1.7462022569444442  8.5546875 1.414388020833333  Z M 11.196428571428571 2.280924479166667  C 11.732142857142858 2.9851345486111103  12 3.752604166666667  12 4.583333333333333  C 12 5.4140625  11.732142857142858 6.1815321180555545  11.196428571428571 6.8857421875  C 10.660714285714285 7.589952256944443  9.933035714285715 8.146158854166666  9.013392857142858 8.554361979166668  C 8.09375 8.962565104166668  7.089285714285714 9.166666666666668  6 9.166666666666668  C 5.6875 9.166666666666668  5.363839285714286 9.147569444444445  5.029017857142858 9.109375  C 4.145089285714286 9.944878472222223  3.118303571428572 10.522569444444445  1.9486607142857142 10.842447916666668  C 1.7299107142857146 10.909288194444445  1.4754464285714286 10.961805555555555  1.1852678571428572 11  L 1.1517857142857144 11  C 1.0848214285714286 11  1.0245535714285714 10.974934895833332  0.9709821428571429 10.9248046875  C 0.9174107142857144 10.874674479166668  0.8816964285714288 10.809027777777777  0.8638392857142856 10.727864583333332  L 0.8638392857142856 10.720703125  C 0.8504464285714287 10.701605902777779  0.8493303571428572 10.672960069444446  0.8604910714285714 10.634765625  C 0.8716517857142858 10.596571180555555  0.8761160714285716 10.572699652777777  0.8738839285714286 10.563151041666668  C 0.8716517857142858 10.553602430555555  0.8816964285714288 10.530924479166668  0.9040178571428571 10.4951171875  L 0.9441964285714286 10.4306640625  C 0.9441964285714286 10.4306640625  0.9598214285714286 10.41037326388889  0.9910714285714286 10.369791666666668  C 1.0223214285714288 10.329210069444445  1.0401785714285716 10.307725694444445  1.0446428571428572 10.305338541666668  C 1.0758928571428572 10.267144097222223  1.1450892857142856 10.18478732638889  1.2522321428571428 10.058268229166668  C 1.359375 9.931749131944445  1.4363839285714286 9.84103732638889  1.4832589285714286 9.7861328125  C 1.5301339285714288 9.73122829861111  1.5993303571428572 9.63693576388889  1.6908482142857142 9.503255208333332  C 1.7823660714285716 9.369574652777777  1.8549107142857142 9.24782986111111  1.9084821428571428 9.138020833333332  C 1.9620535714285712 9.028211805555555  2.022321428571429 8.887369791666668  2.0892857142857144 8.715494791666668  C 2.15625 8.543619791666668  2.2142857142857144 8.362196180555555  2.263392857142857 8.171223958333334  C 1.5625 7.746310763888888  1.0100446428571428 7.221137152777777  0.6060267857142857 6.595703125  C 0.20200892857142855 5.9702690972222205  0 5.299479166666667  0 4.583333333333333  C 0 3.752604166666667  0.26785714285714285 2.9851345486111103  0.8035714285714286 2.280924479166667  C 1.3392857142857144 1.5767144097222214  2.0669642857142856 1.0205078125  2.986607142857143 0.6123046875  C 3.9062500000000004 0.2041015625  4.9107142857142865 0  6 0  C 7.089285714285714 0  8.09375 0.2041015625  9.013392857142858 0.6123046875  C 9.933035714285715 1.0205078125  10.660714285714285 1.5767144097222214  11.196428571428571 2.280924479166667  Z " fill-rule="nonzero" fill="#000000" stroke="none" transform="matrix(1 0 0 1 948 13542 )" />
  </g>
</svg>