<?xml version="1.0" encoding="utf-8"?>
<svg version="1.1" xmlns:xlink="http://www.w3.org/1999/xlink" width="8px" height="7px" xmlns="http://www.w3.org/2000/svg">
  <g transform="matrix(1 0 0 1 -478 -11187 )">
    <path d="M 5.703125 0.9000651041666664  C 5.174851190476191 0.6889105902777773  4.607142857142857 0.5833333333333336  4 0.5833333333333336  C 3.392857142857143 0.5833333333333336  2.8251488095238098 0.6889105902777773  2.296875 0.9000651041666664  C 1.7686011904761905 1.1112196180555554  1.3489583333333335 1.3960503472222219  1.0379464285714286 1.7545572916666665  C 0.7269345238095238 2.1130642361111103  0.5714285714285714 2.5004340277777772  0.5714285714285714 2.9166666666666665  C 0.5714285714285714 3.2569444444444446  0.677827380952381 3.5812717013888893  0.890625 3.8896484375  C 1.103422619047619 4.198025173611111  1.4032738095238098 4.464626736111111  1.7901785714285714 4.689453125  L 2.1785714285714284 4.917317708333333  L 2.0580357142857144 5.354817708333334  C 1.9866071428571428 5.631293402777779  1.8824404761904763 5.892578125  1.7455357142857142 6.138671875  C 2.197916666666667 5.947265625  2.607142857142857 5.6875  2.9732142857142856 5.359375  L 3.1651785714285716 5.186197916666667  L 3.419642857142857 5.213541666666667  C 3.625 5.237847222222221  3.818452380952381 5.25  4 5.25  C 4.607142857142857 5.25  5.174851190476191 5.1444227430555545  5.703125 4.933268229166667  C 6.23139880952381 4.722113715277777  6.651041666666667 4.437282986111111  6.962053571428571 4.078776041666667  C 7.273065476190476 3.720269097222222  7.428571428571429 3.3328993055555554  7.428571428571429 2.9166666666666665  C 7.428571428571429 2.5004340277777772  7.273065476190476 2.1130642361111103  6.962053571428571 1.7545572916666665  C 6.651041666666667 1.3960503472222219  6.23139880952381 1.1112196180555554  5.703125 0.9000651041666664  Z M 7.464285714285714 1.4514973958333335  C 7.821428571428571 1.8996310763888884  8 2.3880208333333335  8 2.9166666666666665  C 8 3.4453125  7.821428571428571 3.9337022569444438  7.464285714285714 4.3818359375  C 7.107142857142857 4.8299696180555545  6.62202380952381 5.183919270833333  6.008928571428571 5.443684895833334  C 5.395833333333334 5.703450520833334  4.726190476190476 5.833333333333334  4 5.833333333333334  C 3.791666666666667 5.833333333333334  3.575892857142857 5.821180555555555  3.3526785714285716 5.796875  C 2.763392857142857 6.328559027777779  2.078869047619048 6.696180555555555  1.2991071428571428 6.899739583333334  C 1.1532738095238098 6.942274305555555  0.9836309523809524 6.975694444444445  0.7901785714285714 7  L 0.7678571428571429 7  C 0.7232142857142857 7  0.6830357142857143 6.984049479166666  0.6473214285714286 6.9521484375  C 0.6116071428571429 6.920247395833334  0.5877976190476192 6.878472222222221  0.5758928571428571 6.826822916666666  L 0.5758928571428571 6.822265625  C 0.5669642857142858 6.810112847222222  0.5662202380952381 6.791883680555556  0.5736607142857143 6.767578125  C 0.5811011904761906 6.743272569444445  0.584077380952381 6.728081597222221  0.5825892857142857 6.722005208333334  C 0.5811011904761906 6.715928819444445  0.5877976190476192 6.701497395833334  0.6026785714285714 6.6787109375  L 0.6294642857142857 6.6376953125  C 0.6294642857142857 6.6376953125  0.6398809523809524 6.624782986111112  0.6607142857142857 6.598958333333334  C 0.6815476190476192 6.573133680555555  0.693452380952381 6.559461805555555  0.6964285714285714 6.557942708333334  C 0.7172619047619049 6.533637152777779  0.7633928571428571 6.481228298611112  0.8348214285714286 6.400716145833334  C 0.90625 6.320203993055555  0.9575892857142857 6.262478298611112  0.9888392857142857 6.2275390625  C 1.0200892857142858 6.192599826388888  1.0662202380952381 6.132595486111112  1.1272321428571428 6.047526041666666  C 1.1882440476190477 5.962456597222221  1.2366071428571428 5.884982638888888  1.2723214285714286 5.815104166666666  C 1.3080357142857142 5.745225694444445  1.3482142857142858 5.655598958333334  1.3928571428571428 5.546223958333334  C 1.4375 5.436848958333334  1.4761904761904763 5.321397569444445  1.5089285714285714 5.199869791666667  C 1.0416666666666667 4.929470486111111  0.6733630952380952 4.595269097222221  0.40401785714285715 4.197265625  C 0.13467261904761904 3.799262152777777  0 3.3723958333333335  0 2.9166666666666665  C 0 2.3880208333333335  0.17857142857142858 1.8996310763888884  0.5357142857142857 1.4514973958333335  C 0.892857142857143 1.0033637152777772  1.3779761904761905 0.6494140625  1.9910714285714286 0.3896484375  C 2.604166666666667 0.1298828125  3.273809523809524 0  4 0  C 4.726190476190476 0  5.395833333333334 0.1298828125  6.008928571428571 0.3896484375  C 6.62202380952381 0.6494140625  7.107142857142857 1.0033637152777772  7.464285714285714 1.4514973958333335  Z " fill-rule="nonzero" fill="#000000" stroke="none" transform="matrix(1 0 0 1 478 11187 )" />
  </g>
</svg>