<?xml version="1.0" encoding="utf-8"?>
<svg version="1.1" xmlns:xlink="http://www.w3.org/1999/xlink" width="6px" height="6px" xmlns="http://www.w3.org/2000/svg">
  <g transform="matrix(1 0 0 1 -502 -11223 )">
    <path d="M 5.798076923076923 2.1512287334593574  C 5.932692307692308 2.173913043478261  6 2.2318840579710146  6 2.3251417769376186  C 6 2.380592312539382  5.96875 2.4410838059231246  5.90625 2.506616257088847  L 4.597355769230769 3.8449905482041586  L 4.907451923076923 5.735349716446125  C 4.90985576923077 5.75299306868305  4.9110576923076925 5.778197857592942  4.9110576923076925 5.810964083175803  C 4.9110576923076925 5.863894139886579  4.8984375 5.908632640201638  4.873197115384616 5.945179584120982  C 4.847956730769231 5.981726528040328  4.8112980769230775 6  4.763221153846153 6  C 4.7175480769230775 6  4.669471153846153 5.984877126654064  4.618990384615384 5.954631379962193  L 3 5.062381852551985  L 1.3810096153846154 5.954631379962193  C 1.328125 5.984877126654064  1.2800480769230769 6  1.236778846153846 6  C 1.1862980769230769 6  1.1484375 5.981726528040328  1.1231971153846154 5.945179584120982  C 1.0979567307692308 5.908632640201638  1.0853365384615383 5.863894139886579  1.0853365384615383 5.810964083175803  C 1.0853365384615383 5.7958412098298675  1.0877403846153848 5.770636420919974  1.0925480769230769 5.735349716446125  L 1.4026442307692308 3.8449905482041586  L 0.09014423076923077 2.506616257088847  C 0.03004807692307692 2.438563327032136  0 2.3780718336483933  0 2.3251417769376186  C 0 2.2318840579710146  0.06730769230769229 2.173913043478261  0.20192307692307693 2.1512287334593574  L 2.012019230769231 1.87523629489603  L 2.823317307692308 0.1550094517958409  C 2.868990384615385 0.05166981726528008  2.9278846153846154 0  3 0  C 3.072115384615384 0  3.1310096153846154 0.05166981726528008  3.1766826923076925 0.1550094517958409  L 3.987980769230769 1.87523629489603  L 5.798076923076923 2.1512287334593574  Z " fill-rule="nonzero" fill="#b829fd" stroke="none" transform="matrix(1 0 0 1 502 11223 )" />
  </g>
</svg>