<?xml version="1.0" encoding="utf-8"?>
<svg version="1.1" xmlns:xlink="http://www.w3.org/1999/xlink" width="8px" height="7px" xmlns="http://www.w3.org/2000/svg">
  <g transform="matrix(1 0 0 1 -478 -11172 )">
    <path d="M 6.589285714285714 3.755208333333333  C 7.148809523809525 3.1840277777777772  7.428571428571429 2.6432291666666665  7.428571428571429 2.1328125  C 7.428571428571429 1.88671875  7.396577380952381 1.6694878472222219  7.332589285714286 1.4811197916666665  C 7.268601190476191 1.2927517361111103  7.186755952380953 1.1431206597222219  7.087053571428571 1.0322265625  C 6.987351190476192 0.9213324652777773  6.86607142857143 0.8309461805555555  6.723214285714286 0.7610677083333336  C 6.580357142857143 0.6911892361111102  6.440476190476191 0.6440972222222219  6.303571428571429 0.6197916666666664  C 6.166666666666667 0.5954861111111102  6.020833333333334 0.5833333333333336  5.866071428571429 0.5833333333333336  C 5.711309523809525 0.5833333333333336  5.544642857142857 0.6220703125  5.366071428571429 0.6995442708333336  C 5.1875 0.7770182291666664  5.023065476190476 0.8742404513888883  4.872767857142857 0.9912109375  C 4.722470238095239 1.1081814236111103  4.59375 1.2175564236111103  4.486607142857143 1.3193359375  C 4.3794642857142865 1.4211154513888884  4.290178571428572 1.5145399305555554  4.21875 1.599609375  C 4.165178571428572 1.6664496527777772  4.092261904761905 1.6998697916666665  4 1.6998697916666665  C 3.9077380952380953 1.6998697916666665  3.8348214285714284 1.6664496527777772  3.78125 1.599609375  C 3.7098214285714284 1.5145399305555554  3.6205357142857144 1.4211154513888884  3.513392857142857 1.3193359375  C 3.40625 1.2175564236111103  3.2775297619047623 1.1081814236111103  3.127232142857143 0.9912109375  C 2.976934523809524 0.8742404513888883  2.8125 0.7770182291666664  2.6339285714285716 0.6995442708333336  C 2.455357142857143 0.6220703125  2.2886904761904767 0.5833333333333336  2.1339285714285716 0.5833333333333336  C 1.9791666666666667 0.5833333333333336  1.8333333333333337 0.5954861111111102  1.6964285714285714 0.6197916666666664  C 1.5595238095238098 0.6440972222222219  1.4196428571428572 0.6911892361111102  1.2767857142857142 0.7610677083333336  C 1.1339285714285714 0.8309461805555555  1.0126488095238095 0.9213324652777773  0.9129464285714286 1.0322265625  C 0.8132440476190477 1.1431206597222219  0.7313988095238095 1.2927517361111103  0.6674107142857143 1.4811197916666665  C 0.6034226190476192 1.6694878472222219  0.5714285714285714 1.88671875  0.5714285714285714 2.1328125  C 0.5714285714285714 2.6432291666666665  0.849702380952381 3.1825086805555554  1.40625 3.750651041666667  L 4 6.302734375  L 6.589285714285714 3.755208333333333  Z M 7.433035714285714 0.5651041666666664  C 7.811011904761905 0.9418402777777773  8 1.4644097222222219  8 2.1328125  C 8 2.804253472222222  7.659226190476191 3.487847222222222  6.977678571428571 4.18359375  L 4.196428571428571 6.91796875  C 4.142857142857143 6.97265625  4.0773809523809526 7  4 7  C 3.922619047619048 7  3.8571428571428577 6.97265625  3.8035714285714284 6.91796875  L 1.0178571428571428 4.174479166666667  C 0.9880952380952381 4.150173611111111  0.9471726190476192 4.110677083333333  0.8950892857142857 4.055989583333333  C 0.8430059523809524 4.001302083333333  0.7604166666666667 3.901801215277778  0.6473214285714286 3.757486979166667  C 0.5342261904761905 3.6131727430555545  0.4330357142857143 3.4650607638888884  0.34375 3.3131510416666665  C 0.2544642857142857 3.1612413194444446  0.1748511904761905 2.9774305555555554  0.10491071428571429 2.76171875  C 0.034970238095238096 2.5460069444444438  0 2.3363715277777772  0 2.1328125  C 0 1.4644097222222219  0.1889880952380952 0.9418402777777773  0.5669642857142857 0.5651041666666664  C 0.9449404761904763 0.18836805555555547  1.4672619047619047 0  2.1339285714285716 0  C 2.318452380952381 0  2.5066964285714284 0.032660590277777346  2.6986607142857144 0.09798177083333359  C 2.890625 0.16330295138888828  3.0691964285714284 0.25141059027777735  3.234375 0.3623046875  C 3.399553571428572 0.4731987847222219  3.5416666666666674 0.5772569444444438  3.6607142857142856 0.6744791666666664  C 3.779761904761905 0.7717013888888883  3.892857142857143 0.875  4 0.984375  C 4.107142857142857 0.875  4.220238095238096 0.7717013888888883  4.339285714285714 0.6744791666666664  C 4.458333333333334 0.5772569444444438  4.600446428571429 0.4731987847222219  4.765625 0.3623046875  C 4.930803571428571 0.25141059027777735  5.109375 0.16330295138888828  5.301339285714286 0.09798177083333359  C 5.493303571428571 0.032660590277777346  5.6815476190476195 0  5.866071428571429 0  C 6.532738095238096 0  7.055059523809525 0.18836805555555547  7.433035714285714 0.5651041666666664  Z " fill-rule="nonzero" fill="#000000" stroke="none" transform="matrix(1 0 0 1 478 11172 )" />
  </g>
</svg>