<?xml version="1.0" encoding="utf-8"?>
<svg version="1.1" xmlns:xlink="http://www.w3.org/1999/xlink" width="10px" height="10px" xmlns="http://www.w3.org/2000/svg">
  <g transform="matrix(1 0 0 1 -205 -14318 )">
    <path d="M 5.774739583333334 2.55859375  C 5.813802083333334 2.59765625  5.833333333333334 2.647569444444443  5.833333333333334 2.708333333333334  L 5.833333333333334 5.625  C 5.833333333333334 5.685763888888888  5.813802083333334 5.735677083333332  5.774739583333334 5.774739583333332  C 5.735677083333334 5.813802083333332  5.685763888888889 5.833333333333332  5.625 5.833333333333332  L 3.541666666666667 5.833333333333332  C 3.4809027777777786 5.833333333333332  3.430989583333333 5.813802083333332  3.391927083333333 5.774739583333332  C 3.352864583333333 5.735677083333332  3.333333333333333 5.685763888888888  3.333333333333333 5.625  L 3.333333333333333 5.208333333333332  C 3.333333333333333 5.147569444444445  3.352864583333333 5.09765625  3.391927083333333 5.05859375  C 3.430989583333333 5.01953125  3.4809027777777786 5  3.541666666666667 5  L 5 5  L 5 2.708333333333334  C 5 2.647569444444443  5.01953125 2.59765625  5.05859375 2.55859375  C 5.097656250000001 2.51953125  5.1475694444444455 2.5  5.208333333333334 2.5  L 5.625 2.5  C 5.685763888888889 2.5  5.735677083333334 2.51953125  5.774739583333334 2.55859375  Z M 8.06640625 6.77734375  C 8.383246527777779 6.234809027777777  8.541666666666666 5.642361111111112  8.541666666666666 5  C 8.541666666666666 4.357638888888888  8.383246527777779 3.7651909722222223  8.06640625 3.22265625  C 7.749565972222223 2.680121527777777  7.319878472222223 2.250434027777777  6.77734375 1.93359375  C 6.234809027777778 1.616753472222222  5.642361111111112 1.4583333333333337  5 1.4583333333333337  C 4.357638888888889 1.4583333333333337  3.7651909722222228 1.616753472222222  3.22265625 1.93359375  C 2.6801215277777777 2.250434027777777  2.2504340277777777 2.680121527777777  1.93359375 3.22265625  C 1.6167534722222223 3.7651909722222223  1.4583333333333335 4.357638888888888  1.4583333333333335 5  C 1.4583333333333335 5.642361111111112  1.6167534722222223 6.234809027777777  1.93359375 6.77734375  C 2.2504340277777777 7.319878472222221  2.6801215277777777 7.749565972222222  3.22265625 8.06640625  C 3.7651909722222228 8.383246527777779  4.357638888888889 8.541666666666666  5 8.541666666666666  C 5.642361111111112 8.541666666666666  6.234809027777778 8.383246527777779  6.77734375 8.06640625  C 7.319878472222223 7.749565972222222  7.749565972222223 7.319878472222221  8.06640625 6.77734375  Z M 9.329427083333334 2.490234375  C 9.776475694444443 3.256293402777777  10 4.092881944444443  10 5  C 10 5.907118055555555  9.776475694444443 6.743706597222221  9.329427083333334 7.509765625  C 8.882378472222223 8.275824652777779  8.275824652777779 8.882378472222221  7.509765625 9.329427083333334  C 6.743706597222223 9.776475694444445  5.907118055555555 10  5 10  C 4.092881944444445 10  3.2562934027777777 9.776475694444445  2.490234375 9.329427083333334  C 1.7241753472222223 8.882378472222221  1.117621527777778 8.275824652777779  0.6705729166666667 7.509765625  C 0.22352430555555552 6.743706597222221  0 5.907118055555555  0 5  C 0 4.092881944444443  0.22352430555555552 3.256293402777777  0.6705729166666667 2.490234375  C 1.117621527777778 1.724175347222222  1.7241753472222223 1.1176215277777768  2.490234375 0.6705729166666663  C 3.2562934027777777 0.2235243055555547  4.092881944444445 0  5 0  C 5.907118055555555 0  6.743706597222223 0.2235243055555547  7.509765625 0.6705729166666663  C 8.275824652777779 1.1176215277777768  8.882378472222223 1.724175347222222  9.329427083333334 2.490234375  Z " fill-rule="nonzero" fill="#000000" stroke="none" transform="matrix(1 0 0 1 205 14318 )" />
  </g>
</svg>