<?xml version="1.0" encoding="utf-8"?>
<svg version="1.1" xmlns:xlink="http://www.w3.org/1999/xlink" width="8px" height="8px" xmlns="http://www.w3.org/2000/svg">
  <g transform="matrix(1 0 0 1 -133 -11826 )">
    <path d="M 4.619791666666667 2.046875  C 4.651041666666667 2.078125  4.666666666666667 2.1180555555555545  4.666666666666667 2.166666666666667  L 4.666666666666667 4.5  C 4.666666666666667 4.548611111111111  4.651041666666667 4.588541666666666  4.619791666666667 4.619791666666666  C 4.588541666666667 4.651041666666666  4.548611111111112 4.666666666666666  4.5 4.666666666666666  L 2.8333333333333335 4.666666666666666  C 2.7847222222222228 4.666666666666666  2.7447916666666665 4.651041666666666  2.7135416666666665 4.619791666666666  C 2.6822916666666665 4.588541666666666  2.6666666666666665 4.548611111111111  2.6666666666666665 4.5  L 2.6666666666666665 4.166666666666666  C 2.6666666666666665 4.118055555555555  2.6822916666666665 4.078125  2.7135416666666665 4.046875  C 2.7447916666666665 4.015625  2.7847222222222228 4  2.8333333333333335 4  L 4 4  L 4 2.166666666666667  C 4 2.1180555555555545  4.015625 2.078125  4.046875 2.046875  C 4.078125000000001 2.015625  4.118055555555556 2  4.166666666666667 2  L 4.5 2  C 4.548611111111112 2  4.588541666666667 2.015625  4.619791666666667 2.046875  Z M 6.453125 5.421875  C 6.706597222222222 4.987847222222221  6.833333333333333 4.513888888888889  6.833333333333333 4  C 6.833333333333333 3.4861111111111107  6.706597222222222 3.0121527777777777  6.453125 2.578125  C 6.199652777777779 2.1440972222222214  5.855902777777779 1.8003472222222214  5.421875 1.546875  C 4.987847222222222 1.2934027777777777  4.513888888888889 1.166666666666667  4 1.166666666666667  C 3.486111111111111 1.166666666666667  3.012152777777778 1.2934027777777777  2.578125 1.546875  C 2.1440972222222223 1.8003472222222214  1.8003472222222223 2.1440972222222214  1.546875 2.578125  C 1.293402777777778 3.0121527777777777  1.1666666666666667 3.4861111111111107  1.1666666666666667 4  C 1.1666666666666667 4.513888888888889  1.293402777777778 4.987847222222221  1.546875 5.421875  C 1.8003472222222223 5.855902777777777  2.1440972222222223 6.199652777777778  2.578125 6.453125  C 3.012152777777778 6.706597222222222  3.486111111111111 6.833333333333333  4 6.833333333333333  C 4.513888888888889 6.833333333333333  4.987847222222222 6.706597222222222  5.421875 6.453125  C 5.855902777777779 6.199652777777778  6.199652777777779 5.855902777777777  6.453125 5.421875  Z M 7.463541666666667 1.9921875  C 7.8211805555555545 2.6050347222222214  8 3.2743055555555545  8 4  C 8 4.725694444444445  7.8211805555555545 5.394965277777777  7.463541666666667 6.0078125  C 7.105902777777779 6.620659722222222  6.620659722222222 7.105902777777778  6.0078125 7.463541666666667  C 5.394965277777779 7.821180555555556  4.725694444444445 8  4 8  C 3.274305555555556 8  2.6050347222222223 7.821180555555556  1.9921875 7.463541666666667  C 1.379340277777778 7.105902777777778  0.8940972222222223 6.620659722222222  0.5364583333333334 6.0078125  C 0.17881944444444442 5.394965277777777  0 4.725694444444445  0 4  C 0 3.2743055555555545  0.17881944444444442 2.6050347222222214  0.5364583333333334 1.9921875  C 0.8940972222222223 1.3793402777777777  1.379340277777778 0.8940972222222214  1.9921875 0.536458333333333  C 2.6050347222222223 0.17881944444444375  3.274305555555556 0  4 0  C 4.725694444444445 0  5.394965277777779 0.17881944444444375  6.0078125 0.536458333333333  C 6.620659722222222 0.8940972222222214  7.105902777777779 1.3793402777777777  7.463541666666667 1.9921875  Z " fill-rule="nonzero" fill="#000000" stroke="none" transform="matrix(1 0 0 1 133 11826 )" />
  </g>
</svg>