<?xml version="1.0" encoding="utf-8"?>
<svg version="1.1" xmlns:xlink="http://www.w3.org/1999/xlink" width="24px" height="24px" xmlns="http://www.w3.org/2000/svg">
  <defs>
    <mask fill="white" id="clip35">
      <path d="M 18.703125 13.703125000000002  C 18.901041666666668 13.505208333333332  19 13.270833333333332  19 13.000000000000002  L 19 11  C 19 10.729166666666664  18.901041666666668 10.494791666666664  18.703125 10.296875  C 18.505208333333336 10.098958333333334  18.270833333333336 10  18 10  L 14 10  L 14 6  C 14 5.729166666666664  13.901041666666668 5.494791666666664  13.703125 5.296875  C 13.505208333333336 5.098958333333333  13.270833333333336 5.000000000000001  13 5.000000000000001  L 11 5.000000000000001  C 10.729166666666668 5.000000000000001  10.494791666666668 5.098958333333333  10.296875 5.296875  C 10.098958333333334 5.494791666666664  10 5.729166666666664  10 6  L 10 10  L 6 10  C 5.729166666666667 10  5.494791666666667 10.098958333333334  5.296875 10.296875  C 5.098958333333334 10.494791666666664  5 10.729166666666664  5 11  L 5 13.000000000000002  C 5 13.270833333333332  5.098958333333334 13.505208333333332  5.296875 13.703125000000002  C 5.494791666666667 13.901041666666666  5.729166666666667 13.999999999999998  6 13.999999999999998  L 10 13.999999999999998  L 10 18  C 10 18.270833333333332  10.098958333333334 18.505208333333332  10.296875 18.703125  C 10.494791666666668 18.901041666666668  10.729166666666668 19  11 19  L 13 19  C 13.270833333333336 19  13.505208333333336 18.901041666666668  13.703125 18.703125  C 13.901041666666668 18.505208333333332  14 18.270833333333332  14 18  L 14 13.999999999999998  L 18 13.999999999999998  C 18.270833333333336 13.999999999999998  18.505208333333336 13.901041666666666  18.703125 13.703125000000002  Z M 22.390625 5.9765625  C 23.463541666666664 7.815104166666664  24 9.822916666666664  24 12  C 24 14.177083333333334  23.463541666666664 16.18489583333333  22.390625 18.0234375  C 21.317708333333336 19.861979166666668  19.861979166666668 21.317708333333332  18.0234375 22.390625  C 16.184895833333336 23.463541666666668  14.177083333333334 24  12 24  C 9.822916666666668 24  7.815104166666667 23.463541666666668  5.9765625 22.390625  C 4.138020833333334 21.317708333333332  2.682291666666667 19.861979166666668  1.609375 18.0234375  C 0.5364583333333333 16.18489583333333  0 14.177083333333334  0 12  C 0 9.822916666666664  0.5364583333333333 7.815104166666664  1.609375 5.9765625  C 2.682291666666667 4.138020833333333  4.138020833333334 2.6822916666666643  5.9765625 1.6093749999999991  C 7.815104166666667 0.5364583333333313  9.822916666666668 0  12 0  C 14.177083333333334 0  16.184895833333336 0.5364583333333313  18.0234375 1.6093749999999991  C 19.861979166666668 2.6822916666666643  21.317708333333336 4.138020833333333  22.390625 5.9765625  Z " fill-rule="evenodd" />
    </mask>
  </defs>
  <g transform="matrix(1 0 0 1 -410 -14195 )">
    <path d="M 18.703125 13.703125000000002  C 18.901041666666668 13.505208333333332  19 13.270833333333332  19 13.000000000000002  L 19 11  C 19 10.729166666666664  18.901041666666668 10.494791666666664  18.703125 10.296875  C 18.505208333333336 10.098958333333334  18.270833333333336 10  18 10  L 14 10  L 14 6  C 14 5.729166666666664  13.901041666666668 5.494791666666664  13.703125 5.296875  C 13.505208333333336 5.098958333333333  13.270833333333336 5.000000000000001  13 5.000000000000001  L 11 5.000000000000001  C 10.729166666666668 5.000000000000001  10.494791666666668 5.098958333333333  10.296875 5.296875  C 10.098958333333334 5.494791666666664  10 5.729166666666664  10 6  L 10 10  L 6 10  C 5.729166666666667 10  5.494791666666667 10.098958333333334  5.296875 10.296875  C 5.098958333333334 10.494791666666664  5 10.729166666666664  5 11  L 5 13.000000000000002  C 5 13.270833333333332  5.098958333333334 13.505208333333332  5.296875 13.703125000000002  C 5.494791666666667 13.901041666666666  5.729166666666667 13.999999999999998  6 13.999999999999998  L 10 13.999999999999998  L 10 18  C 10 18.270833333333332  10.098958333333334 18.505208333333332  10.296875 18.703125  C 10.494791666666668 18.901041666666668  10.729166666666668 19  11 19  L 13 19  C 13.270833333333336 19  13.505208333333336 18.901041666666668  13.703125 18.703125  C 13.901041666666668 18.505208333333332  14 18.270833333333332  14 18  L 14 13.999999999999998  L 18 13.999999999999998  C 18.270833333333336 13.999999999999998  18.505208333333336 13.901041666666666  18.703125 13.703125000000002  Z M 22.390625 5.9765625  C 23.463541666666664 7.815104166666664  24 9.822916666666664  24 12  C 24 14.177083333333334  23.463541666666664 16.18489583333333  22.390625 18.0234375  C 21.317708333333336 19.861979166666668  19.861979166666668 21.317708333333332  18.0234375 22.390625  C 16.184895833333336 23.463541666666668  14.177083333333334 24  12 24  C 9.822916666666668 24  7.815104166666667 23.463541666666668  5.9765625 22.390625  C 4.138020833333334 21.317708333333332  2.682291666666667 19.861979166666668  1.609375 18.0234375  C 0.5364583333333333 16.18489583333333  0 14.177083333333334  0 12  C 0 9.822916666666664  0.5364583333333333 7.815104166666664  1.609375 5.9765625  C 2.682291666666667 4.138020833333333  4.138020833333334 2.6822916666666643  5.9765625 1.6093749999999991  C 7.815104166666667 0.5364583333333313  9.822916666666668 0  12 0  C 14.177083333333334 0  16.184895833333336 0.5364583333333313  18.0234375 1.6093749999999991  C 19.861979166666668 2.6822916666666643  21.317708333333336 4.138020833333333  22.390625 5.9765625  Z " fill-rule="nonzero" fill="#ffffff" stroke="none" transform="matrix(1 0 0 1 410 14195 )" />
    <path d="M 18.703125 13.703125000000002  C 18.901041666666668 13.505208333333332  19 13.270833333333332  19 13.000000000000002  L 19 11  C 19 10.729166666666664  18.901041666666668 10.494791666666664  18.703125 10.296875  C 18.505208333333336 10.098958333333334  18.270833333333336 10  18 10  L 14 10  L 14 6  C 14 5.729166666666664  13.901041666666668 5.494791666666664  13.703125 5.296875  C 13.505208333333336 5.098958333333333  13.270833333333336 5.000000000000001  13 5.000000000000001  L 11 5.000000000000001  C 10.729166666666668 5.000000000000001  10.494791666666668 5.098958333333333  10.296875 5.296875  C 10.098958333333334 5.494791666666664  10 5.729166666666664  10 6  L 10 10  L 6 10  C 5.729166666666667 10  5.494791666666667 10.098958333333334  5.296875 10.296875  C 5.098958333333334 10.494791666666664  5 10.729166666666664  5 11  L 5 13.000000000000002  C 5 13.270833333333332  5.098958333333334 13.505208333333332  5.296875 13.703125000000002  C 5.494791666666667 13.901041666666666  5.729166666666667 13.999999999999998  6 13.999999999999998  L 10 13.999999999999998  L 10 18  C 10 18.270833333333332  10.098958333333334 18.505208333333332  10.296875 18.703125  C 10.494791666666668 18.901041666666668  10.729166666666668 19  11 19  L 13 19  C 13.270833333333336 19  13.505208333333336 18.901041666666668  13.703125 18.703125  C 13.901041666666668 18.505208333333332  14 18.270833333333332  14 18  L 14 13.999999999999998  L 18 13.999999999999998  C 18.270833333333336 13.999999999999998  18.505208333333336 13.901041666666666  18.703125 13.703125000000002  Z " stroke-width="2" stroke="#b929fe" fill="none" transform="matrix(1 0 0 1 410 14195 )" mask="url(#clip35)" />
    <path d="M 22.390625 5.9765625  C 23.463541666666664 7.815104166666664  24 9.822916666666664  24 12  C 24 14.177083333333334  23.463541666666664 16.18489583333333  22.390625 18.0234375  C 21.317708333333336 19.861979166666668  19.861979166666668 21.317708333333332  18.0234375 22.390625  C 16.184895833333336 23.463541666666668  14.177083333333334 24  12 24  C 9.822916666666668 24  7.815104166666667 23.463541666666668  5.9765625 22.390625  C 4.138020833333334 21.317708333333332  2.682291666666667 19.861979166666668  1.609375 18.0234375  C 0.5364583333333333 16.18489583333333  0 14.177083333333334  0 12  C 0 9.822916666666664  0.5364583333333333 7.815104166666664  1.609375 5.9765625  C 2.682291666666667 4.138020833333333  4.138020833333334 2.6822916666666643  5.9765625 1.6093749999999991  C 7.815104166666667 0.5364583333333313  9.822916666666668 0  12 0  C 14.177083333333334 0  16.184895833333336 0.5364583333333313  18.0234375 1.6093749999999991  C 19.861979166666668 2.6822916666666643  21.317708333333336 4.138020833333333  22.390625 5.9765625  Z " stroke-width="2" stroke="#b929fe" fill="none" transform="matrix(1 0 0 1 410 14195 )" mask="url(#clip35)" />
  </g>
</svg>