<?xml version="1.0" encoding="utf-8"?>
<svg version="1.1" xmlns:xlink="http://www.w3.org/1999/xlink" width="7px" height="10px" xmlns="http://www.w3.org/2000/svg">
  <g transform="matrix(1 0 0 1 -334 -14319 )">
    <path d="M 6.929844097995545 2.265625  C 6.976614699331848 2.3082386363636367  7 2.3626893939393936  7 2.428977272727273  L 7 3.153409090909091  C 7 3.219696969696969  6.976614699331848 3.274147727272727  6.929844097995545 3.3167613636363633  C 6.883073496659242 3.359375  6.823311061618412 3.3806818181818175  6.750556792873051 3.3806818181818175  L 5.440979955456569 3.3806818181818175  C 5.321455085374907 4.0625  4.98626577579807 4.616477272727273  4.435412026726057 5.042613636363637  C 3.8845582776540466 5.46875  3.1674090571640683 5.729166666666666  2.2839643652561246 5.823863636363637  C 3.1518188567186343 6.666666666666665  4.344469190794358 7.93560606060606  5.861915367483296 9.630681818181818  C 5.934669636228656 9.706439393939394  5.94506310319228 9.786931818181818  5.893095768374165 9.87215909090909  C 5.851521900519674 9.957386363636363  5.776169265033408 10  5.667037861915368 10  L 4.146993318485523 10  C 4.063845582776541 10  3.998886414253897 9.97159090909091  3.9521158129175946 9.914772727272727  C 2.361915367483296 8.177083333333332  1.0679287305122498 6.825284090909092  0.07015590200445435 5.859375  C 0.02338530066815145 5.816761363636363  0 5.764678030303029  0 5.703125  L 0 4.801136363636363  C 0 4.739583333333332  0.024684484038604307 4.686316287878788  0.0740534521158129 4.641335227272727  C 0.12342242019302153 4.596354166666666  0.18188567186340016 4.573863636363637  0.24944320712694876 4.573863636363637  L 1.1224944320712695 4.573863636363637  C 1.8084632516703787 4.573863636363637  2.3606161841128435 4.472064393939394  2.7789532293986636 4.268465909090909  C 3.1972902746844842 4.064867424242423  3.4636228656273205 3.7689393939393936  3.577951002227172 3.3806818181818175  L 0.24944320712694876 3.3806818181818175  C 0.17668893838158872 3.3806818181818175  0.11692650334075724 3.359375  0.07015590200445435 3.3167613636363633  C 0.02338530066815145 3.274147727272727  0 3.219696969696969  0 3.153409090909091  L 0 2.428977272727273  C 0 2.3626893939393936  0.02338530066815145 2.3082386363636367  0.07015590200445435 2.265625  C 0.11692650334075724 2.2230113636363633  0.17668893838158872 2.201704545454546  0.24944320712694876 2.201704545454546  L 3.4688195991091315 2.201704545454546  C 3.1726057906458798 1.6666666666666652  2.476243504083148 1.399147727272727  1.3797327394209353 1.399147727272727  L 0.24944320712694876 1.399147727272727  C 0.18188567186340016 1.399147727272727  0.12342242019302153 1.3766571969696961  0.0740534521158129 1.3316761363636365  C 0.024684484038604307 1.2866950757575746  0 1.2334280303030287  0 1.171875  L 0 0.22727272727272707  C 0 0.1609848484848475  0.02338530066815145 0.1065340909090906  0.07015590200445435 0.06392045454545414  C 0.11692650334075724 0.021306818181817677  0.17668893838158872 0  0.24944320712694876 0  L 6.734966592427617 0  C 6.807720861172977 0  6.867483296213808 0.021306818181817677  6.914253897550111 0.06392045454545414  C 6.961024498886414 0.1065340909090906  6.984409799554566 0.1609848484848475  6.984409799554566 0.22727272727272707  L 6.984409799554566 0.9517045454545459  C 6.984409799554566 1.0179924242424232  6.961024498886414 1.0724431818181823  6.914253897550111 1.1150568181818177  C 6.867483296213808 1.1576704545454541  6.807720861172977 1.178977272727273  6.734966592427617 1.178977272727273  L 4.918708240534521 1.178977272727273  C 5.162954714179659 1.4678030303030287  5.329250185597624 1.8087121212121204  5.417594654788418 2.201704545454546  L 6.750556792873051 2.201704545454546  C 6.823311061618412 2.201704545454546  6.883073496659242 2.2230113636363633  6.929844097995545 2.265625  Z " fill-rule="nonzero" fill="#000000" stroke="none" transform="matrix(1 0 0 1 334 14319 )" />
  </g>
</svg>