<?xml version="1.0" encoding="utf-8"?>
<svg version="1.1" xmlns:xlink="http://www.w3.org/1999/xlink" width="5px" height="8px" xmlns="http://www.w3.org/2000/svg">
  <g transform="matrix(1 0 0 1 -220 -11826 )">
    <path d="M 4.94988864142539 1.8125  C 4.983296213808463 1.8465909090909092  5 1.8901515151515147  5 1.9431818181818183  L 5 2.5227272727272725  C 5 2.5757575757575752  4.983296213808463 2.6193181818181817  4.94988864142539 2.653409090909091  C 4.916481069042316 2.6875  4.8737936154417225 2.704545454545454  4.821826280623608 2.704545454545454  L 3.88641425389755 2.704545454545454  C 3.8010393466963626 3.25  3.5616184112843357 3.6931818181818183  3.1681514476614696 4.034090909090909  C 2.774684484038605 4.375  2.2624350408314777 4.583333333333333  1.631403118040089 4.659090909090909  C 2.2512991833704534 5.333333333333332  3.103192279138827 6.348484848484848  4.187082405345212 7.704545454545454  C 4.239049740163326 7.765151515151516  4.246473645137343 7.829545454545454  4.20935412026726 7.8977272727272725  C 4.179658500371196 7.965909090909091  4.125835189309576 8  4.047884187082405 8  L 2.962138084632517 8  C 2.9027468448403866 8  2.856347438752784 7.9772727272727275  2.82293986636971 7.931818181818182  C 1.6870824053452116 6.541666666666666  0.7628062360801784 5.460227272727273  0.05011135857461025 4.6875  C 0.01670378619153675 4.653409090909091  0 4.611742424242424  0 4.5625  L 0 3.840909090909091  C 0 3.791666666666666  0.01763177431328879 3.7490530303030303  0.05289532293986637 3.7130681818181817  C 0.08815887156644395 3.677083333333333  0.12991833704528583 3.659090909090909  0.17817371937639198 3.659090909090909  L 0.801781737193764 3.659090909090909  C 1.291759465478842 3.659090909090909  1.6861544172234597 3.5776515151515147  1.984966592427617 3.4147727272727275  C 2.2837787676317745 3.2518939393939386  2.474016332590943 3.0151515151515147  2.5556792873051224 2.704545454545454  L 0.17817371937639198 2.704545454545454  C 0.12620638455827765 2.704545454545454  0.08351893095768376 2.6875  0.05011135857461025 2.653409090909091  C 0.01670378619153675 2.6193181818181817  0 2.5757575757575752  0 2.5227272727272725  L 0 1.9431818181818183  C 0 1.8901515151515147  0.01670378619153675 1.8465909090909092  0.05011135857461025 1.8125  C 0.08351893095768376 1.7784090909090908  0.12620638455827765 1.7613636363636367  0.17817371937639198 1.7613636363636367  L 2.477728285077951 1.7613636363636367  C 2.2661469933184857 1.3333333333333321  1.7687453600593914 1.1193181818181817  0.9855233853006682 1.1193181818181817  L 0.17817371937639198 1.1193181818181817  C 0.12991833704528583 1.1193181818181817  0.08815887156644395 1.101325757575757  0.05289532293986637 1.0653409090909092  C 0.01763177431328879 1.0293560606060597  0 0.986742424242423  0 0.9375  L 0 0.18181818181818166  C 0 0.128787878787878  0.01670378619153675 0.08522727272727249  0.05011135857461025 0.05113636363636331  C 0.08351893095768376 0.017045454545454142  0.12620638455827765 0  0.17817371937639198 0  L 4.810690423162583 0  C 4.862657757980698 0  4.905345211581292 0.017045454545454142  4.9387527839643655 0.05113636363636331  C 4.972160356347438 0.08522727272727249  4.988864142538976 0.128787878787878  4.988864142538976 0.18181818181818166  L 4.988864142538976 0.7613636363636367  C 4.988864142538976 0.8143939393939386  4.972160356347438 0.8579545454545459  4.9387527839643655 0.8920454545454541  C 4.905345211581292 0.9261363636363633  4.862657757980698 0.9431818181818183  4.810690423162583 0.9431818181818183  L 3.513363028953229 0.9431818181818183  C 3.6878247958426136 1.174242424242423  3.8066072754268747 1.4469696969696964  3.8697104677060135 1.7613636363636367  L 4.821826280623608 1.7613636363636367  C 4.8737936154417225 1.7613636363636367  4.916481069042316 1.7784090909090908  4.94988864142539 1.8125  Z " fill-rule="nonzero" fill="#000000" stroke="none" transform="matrix(1 0 0 1 220 11826 )" />
  </g>
</svg>