<?xml version="1.0" encoding="utf-8"?>
<svg version="1.1" xmlns:xlink="http://www.w3.org/1999/xlink" width="19px" height="19px" xmlns="http://www.w3.org/2000/svg">
  <defs>
    <mask fill="white" id="clip74">
      <path d="M 14.806640625 10.848307291666668  C 14.963324652777779 10.691623263888888  15.041666666666666 10.506076388888888  15.041666666666666 10.291666666666668  L 15.041666666666666 8.708333333333334  C 15.041666666666666 8.49392361111111  14.963324652777779 8.30837673611111  14.806640625 8.151692708333334  C 14.649956597222225 7.995008680555556  14.464409722222225 7.916666666666666  14.25 7.916666666666666  L 11.083333333333334 7.916666666666666  L 11.083333333333334 4.75  C 11.083333333333334 4.535590277777776  11.004991319444446 4.350043402777776  10.848307291666666 4.193359375  C 10.69162326388889 4.036675347222222  10.50607638888889 3.958333333333334  10.291666666666666 3.958333333333334  L 8.708333333333332 3.958333333333334  C 8.493923611111112 3.958333333333334  8.308376736111112 4.036675347222222  8.151692708333332 4.193359375  C 7.995008680555556 4.350043402777776  7.916666666666667 4.535590277777776  7.916666666666667 4.75  L 7.916666666666667 7.916666666666666  L 4.75 7.916666666666666  C 4.535590277777778 7.916666666666666  4.350043402777778 7.995008680555556  4.193359375 8.151692708333334  C 4.036675347222222 8.30837673611111  3.9583333333333335 8.49392361111111  3.9583333333333335 8.708333333333334  L 3.9583333333333335 10.291666666666668  C 3.9583333333333335 10.506076388888888  4.036675347222222 10.691623263888888  4.193359375 10.848307291666668  C 4.350043402777778 11.004991319444445  4.535590277777778 11.083333333333332  4.75 11.083333333333332  L 7.916666666666667 11.083333333333332  L 7.916666666666667 14.25  C 7.916666666666667 14.464409722222221  7.995008680555556 14.649956597222221  8.151692708333332 14.806640625  C 8.308376736111112 14.963324652777779  8.493923611111112 15.041666666666666  8.708333333333332 15.041666666666666  L 10.291666666666666 15.041666666666666  C 10.50607638888889 15.041666666666666  10.69162326388889 14.963324652777779  10.848307291666666 14.806640625  C 11.004991319444446 14.649956597222221  11.083333333333334 14.464409722222221  11.083333333333334 14.25  L 11.083333333333334 11.083333333333332  L 14.25 11.083333333333332  C 14.464409722222225 11.083333333333332  14.649956597222225 11.004991319444445  14.806640625 10.848307291666668  Z M 17.725911458333336 4.7314453125  C 18.575303819444443 6.186957465277776  19 7.776475694444442  19 9.5  C 19 11.223524305555555  18.575303819444443 12.81304253472222  17.725911458333336 14.2685546875  C 16.876519097222225 15.724066840277779  15.724066840277779 16.87651909722222  14.2685546875 17.725911458333336  C 12.813042534722225 18.575303819444446  11.223524305555555 19  9.5 19  C 7.776475694444445 19  6.186957465277778 18.575303819444446  4.7314453125 17.725911458333336  C 3.2759331597222223 16.87651909722222  2.123480902777778 15.724066840277779  1.2740885416666667 14.2685546875  C 0.42469618055555547 12.81304253472222  0 11.223524305555555  0 9.5  C 0 7.776475694444442  0.42469618055555547 6.186957465277776  1.2740885416666667 4.7314453125  C 2.123480902777778 3.275933159722222  3.2759331597222223 2.123480902777776  4.7314453125 1.274088541666666  C 6.186957465277778 0.4246961805555539  7.776475694444445 0  9.5 0  C 11.223524305555555 0  12.813042534722225 0.4246961805555539  14.2685546875 1.274088541666666  C 15.724066840277779 2.123480902777776  16.876519097222225 3.275933159722222  17.725911458333336 4.7314453125  Z " fill-rule="evenodd" />
    </mask>
  </defs>
  <g transform="matrix(1 0 0 1 -288 -11731 )">
    <path d="M 14.806640625 10.848307291666668  C 14.963324652777779 10.691623263888888  15.041666666666666 10.506076388888888  15.041666666666666 10.291666666666668  L 15.041666666666666 8.708333333333334  C 15.041666666666666 8.49392361111111  14.963324652777779 8.30837673611111  14.806640625 8.151692708333334  C 14.649956597222225 7.995008680555556  14.464409722222225 7.916666666666666  14.25 7.916666666666666  L 11.083333333333334 7.916666666666666  L 11.083333333333334 4.75  C 11.083333333333334 4.535590277777776  11.004991319444446 4.350043402777776  10.848307291666666 4.193359375  C 10.69162326388889 4.036675347222222  10.50607638888889 3.958333333333334  10.291666666666666 3.958333333333334  L 8.708333333333332 3.958333333333334  C 8.493923611111112 3.958333333333334  8.308376736111112 4.036675347222222  8.151692708333332 4.193359375  C 7.995008680555556 4.350043402777776  7.916666666666667 4.535590277777776  7.916666666666667 4.75  L 7.916666666666667 7.916666666666666  L 4.75 7.916666666666666  C 4.535590277777778 7.916666666666666  4.350043402777778 7.995008680555556  4.193359375 8.151692708333334  C 4.036675347222222 8.30837673611111  3.9583333333333335 8.49392361111111  3.9583333333333335 8.708333333333334  L 3.9583333333333335 10.291666666666668  C 3.9583333333333335 10.506076388888888  4.036675347222222 10.691623263888888  4.193359375 10.848307291666668  C 4.350043402777778 11.004991319444445  4.535590277777778 11.083333333333332  4.75 11.083333333333332  L 7.916666666666667 11.083333333333332  L 7.916666666666667 14.25  C 7.916666666666667 14.464409722222221  7.995008680555556 14.649956597222221  8.151692708333332 14.806640625  C 8.308376736111112 14.963324652777779  8.493923611111112 15.041666666666666  8.708333333333332 15.041666666666666  L 10.291666666666666 15.041666666666666  C 10.50607638888889 15.041666666666666  10.69162326388889 14.963324652777779  10.848307291666666 14.806640625  C 11.004991319444446 14.649956597222221  11.083333333333334 14.464409722222221  11.083333333333334 14.25  L 11.083333333333334 11.083333333333332  L 14.25 11.083333333333332  C 14.464409722222225 11.083333333333332  14.649956597222225 11.004991319444445  14.806640625 10.848307291666668  Z M 17.725911458333336 4.7314453125  C 18.575303819444443 6.186957465277776  19 7.776475694444442  19 9.5  C 19 11.223524305555555  18.575303819444443 12.81304253472222  17.725911458333336 14.2685546875  C 16.876519097222225 15.724066840277779  15.724066840277779 16.87651909722222  14.2685546875 17.725911458333336  C 12.813042534722225 18.575303819444446  11.223524305555555 19  9.5 19  C 7.776475694444445 19  6.186957465277778 18.575303819444446  4.7314453125 17.725911458333336  C 3.2759331597222223 16.87651909722222  2.123480902777778 15.724066840277779  1.2740885416666667 14.2685546875  C 0.42469618055555547 12.81304253472222  0 11.223524305555555  0 9.5  C 0 7.776475694444442  0.42469618055555547 6.186957465277776  1.2740885416666667 4.7314453125  C 2.123480902777778 3.275933159722222  3.2759331597222223 2.123480902777776  4.7314453125 1.274088541666666  C 6.186957465277778 0.4246961805555539  7.776475694444445 0  9.5 0  C 11.223524305555555 0  12.813042534722225 0.4246961805555539  14.2685546875 1.274088541666666  C 15.724066840277779 2.123480902777776  16.876519097222225 3.275933159722222  17.725911458333336 4.7314453125  Z " fill-rule="nonzero" fill="#ffffff" stroke="none" transform="matrix(1 0 0 1 288 11731 )" />
    <path d="M 14.806640625 10.848307291666668  C 14.963324652777779 10.691623263888888  15.041666666666666 10.506076388888888  15.041666666666666 10.291666666666668  L 15.041666666666666 8.708333333333334  C 15.041666666666666 8.49392361111111  14.963324652777779 8.30837673611111  14.806640625 8.151692708333334  C 14.649956597222225 7.995008680555556  14.464409722222225 7.916666666666666  14.25 7.916666666666666  L 11.083333333333334 7.916666666666666  L 11.083333333333334 4.75  C 11.083333333333334 4.535590277777776  11.004991319444446 4.350043402777776  10.848307291666666 4.193359375  C 10.69162326388889 4.036675347222222  10.50607638888889 3.958333333333334  10.291666666666666 3.958333333333334  L 8.708333333333332 3.958333333333334  C 8.493923611111112 3.958333333333334  8.308376736111112 4.036675347222222  8.151692708333332 4.193359375  C 7.995008680555556 4.350043402777776  7.916666666666667 4.535590277777776  7.916666666666667 4.75  L 7.916666666666667 7.916666666666666  L 4.75 7.916666666666666  C 4.535590277777778 7.916666666666666  4.350043402777778 7.995008680555556  4.193359375 8.151692708333334  C 4.036675347222222 8.30837673611111  3.9583333333333335 8.49392361111111  3.9583333333333335 8.708333333333334  L 3.9583333333333335 10.291666666666668  C 3.9583333333333335 10.506076388888888  4.036675347222222 10.691623263888888  4.193359375 10.848307291666668  C 4.350043402777778 11.004991319444445  4.535590277777778 11.083333333333332  4.75 11.083333333333332  L 7.916666666666667 11.083333333333332  L 7.916666666666667 14.25  C 7.916666666666667 14.464409722222221  7.995008680555556 14.649956597222221  8.151692708333332 14.806640625  C 8.308376736111112 14.963324652777779  8.493923611111112 15.041666666666666  8.708333333333332 15.041666666666666  L 10.291666666666666 15.041666666666666  C 10.50607638888889 15.041666666666666  10.69162326388889 14.963324652777779  10.848307291666666 14.806640625  C 11.004991319444446 14.649956597222221  11.083333333333334 14.464409722222221  11.083333333333334 14.25  L 11.083333333333334 11.083333333333332  L 14.25 11.083333333333332  C 14.464409722222225 11.083333333333332  14.649956597222225 11.004991319444445  14.806640625 10.848307291666668  Z " stroke-width="2" stroke="#b929fe" fill="none" transform="matrix(1 0 0 1 288 11731 )" mask="url(#clip74)" />
    <path d="M 17.725911458333336 4.7314453125  C 18.575303819444443 6.186957465277776  19 7.776475694444442  19 9.5  C 19 11.223524305555555  18.575303819444443 12.81304253472222  17.725911458333336 14.2685546875  C 16.876519097222225 15.724066840277779  15.724066840277779 16.87651909722222  14.2685546875 17.725911458333336  C 12.813042534722225 18.575303819444446  11.223524305555555 19  9.5 19  C 7.776475694444445 19  6.186957465277778 18.575303819444446  4.7314453125 17.725911458333336  C 3.2759331597222223 16.87651909722222  2.123480902777778 15.724066840277779  1.2740885416666667 14.2685546875  C 0.42469618055555547 12.81304253472222  0 11.223524305555555  0 9.5  C 0 7.776475694444442  0.42469618055555547 6.186957465277776  1.2740885416666667 4.7314453125  C 2.123480902777778 3.275933159722222  3.2759331597222223 2.123480902777776  4.7314453125 1.274088541666666  C 6.186957465277778 0.4246961805555539  7.776475694444445 0  9.5 0  C 11.223524305555555 0  12.813042534722225 0.4246961805555539  14.2685546875 1.274088541666666  C 15.724066840277779 2.123480902777776  16.876519097222225 3.275933159722222  17.725911458333336 4.7314453125  Z " stroke-width="2" stroke="#b929fe" fill="none" transform="matrix(1 0 0 1 288 11731 )" mask="url(#clip74)" />
  </g>
</svg>