<?xml version="1.0" encoding="utf-8"?>
<svg version="1.1" xmlns:xlink="http://www.w3.org/1999/xlink" width="15px" height="13px" xmlns="http://www.w3.org/2000/svg">
  <g transform="matrix(1 0 0 1 -290 -11815 )">
    <path d="M 0.9375 5.571428571428572  L 14.0625 5.571428571428572  C 14.321289062500002 5.571428571428572  14.542236328125 5.662109375  14.725341796875 5.843470982142858  C 14.908447265625 6.024832589285714  15 6.243675595238094  15 6.5  C 15 6.756324404761904  14.908447265625 6.975167410714286  14.725341796875 7.156529017857144  C 14.542236328125 7.337890625  14.321289062500002 7.428571428571428  14.0625 7.428571428571428  L 13.95263671875 7.428571428571428  L 13.1103515625 12.231026785714286  C 13.071289062500002 12.453497023809524  12.963867187500002 12.637276785714286  12.7880859375 12.782366071428571  C 12.612304687500002 12.927455357142858  12.412109375000002 13  12.1875 13  L 2.8125 13  C 2.5878906250000004 13  2.3876953125 12.927455357142858  2.2119140625 12.782366071428571  C 2.0361328125 12.637276785714286  1.9287109375000002 12.453497023809524  1.8896484375 12.231026785714286  L 1.04736328125 7.428571428571428  L 0.9375 7.428571428571428  C 0.6787109375 7.428571428571428  0.45776367187500006 7.337890625  0.274658203125 7.156529017857144  C 0.091552734375 6.975167410714286  0 6.756324404761904  0 6.5  C 0 6.243675595238094  0.091552734375 6.024832589285714  0.274658203125 5.843470982142858  C 0.45776367187500006 5.662109375  0.6787109375 5.571428571428572  0.9375 5.571428571428572  Z M 3.515625 11.375  L 3.55224609375 11.375  C 3.6791992187500004 11.365327380952381  3.7854003906250004 11.310918898809524  3.870849609375 11.211774553571429  C 3.9562988281250004 11.112630208333332  3.9941406250000004 11.000186011904761  3.984375 10.874441964285714  L 3.75 7.856584821428572  C 3.7402343750000004 7.730840773809523  3.6853027343750004 7.625651041666666  3.585205078125 7.541015625  C 3.4851074218750004 7.456380208333332  3.3715820312500004 7.418898809523808  3.24462890625 7.428571428571428  C 3.1176757812500004 7.4382440476190474  3.0114746093750004 7.492652529761904  2.926025390625 7.591796875  C 2.8405761718750004 7.690941220238094  2.802734375 7.803385416666664  2.8125 7.929129464285714  L 3.046875 10.946986607142856  C 3.0566406250000004 11.067894345238095  3.106689453125 11.169456845238095  3.197021484375 11.251674107142856  C 3.2873535156250004 11.333891369047619  3.3935546875000004 11.375  3.515625 11.375  Z M 6.42333984375 11.237165178571429  C 6.516113281250001 11.145275297619047  6.5625 11.036458333333332  6.5625 10.910714285714286  L 6.5625 7.892857142857144  C 6.5625 7.767113095238094  6.516113281250001 7.6582961309523805  6.42333984375 7.56640625  C 6.330566406250001 7.474516369047619  6.220703125000001 7.428571428571428  6.09375 7.428571428571428  C 5.966796875000001 7.428571428571428  5.856933593750001 7.474516369047619  5.76416015625 7.56640625  C 5.671386718749999 7.6582961309523805  5.625 7.767113095238094  5.625 7.892857142857144  L 5.625 10.910714285714286  C 5.625 11.036458333333332  5.671386718749999 11.145275297619047  5.76416015625 11.237165178571429  C 5.856933593750001 11.32905505952381  5.966796875000001 11.375  6.09375 11.375  C 6.220703125000001 11.375  6.330566406250001 11.32905505952381  6.42333984375 11.237165178571429  Z M 9.23583984375 11.237165178571429  C 9.32861328125 11.145275297619047  9.375 11.036458333333332  9.375 10.910714285714286  L 9.375 7.892857142857144  C 9.375 7.767113095238094  9.32861328125 7.6582961309523805  9.23583984375 7.56640625  C 9.143066406250002 7.474516369047619  9.033203125000002 7.428571428571428  8.90625 7.428571428571428  C 8.779296875 7.428571428571428  8.66943359375 7.474516369047619  8.57666015625 7.56640625  C 8.483886718750002 7.6582961309523805  8.4375 7.767113095238094  8.4375 7.892857142857144  L 8.4375 10.910714285714286  C 8.4375 11.036458333333332  8.483886718750002 11.145275297619047  8.57666015625 11.237165178571429  C 8.66943359375 11.32905505952381  8.779296875 11.375  8.90625 11.375  C 9.033203125000002 11.375  9.143066406250002 11.32905505952381  9.23583984375 11.237165178571429  Z M 11.802978515625 11.251674107142856  C 11.893310546875002 11.169456845238095  11.943359375 11.067894345238095  11.953125 10.946986607142856  L 12.1875 7.929129464285714  C 12.197265625000002 7.803385416666664  12.159423828125 7.690941220238094  12.073974609375 7.591796875  C 11.988525390625002 7.492652529761904  11.882324218750002 7.4382440476190474  11.75537109375 7.428571428571428  C 11.62841796875 7.418898809523808  11.514892578125 7.456380208333332  11.414794921875 7.541015625  C 11.314697265625002 7.625651041666666  11.259765625000002 7.730840773809523  11.25 7.856584821428572  L 11.015625 10.874441964285714  C 11.005859375 11.000186011904761  11.043701171875002 11.112630208333332  11.129150390625 11.211774553571429  C 11.214599609375 11.310918898809524  11.32080078125 11.365327380952381  11.44775390625 11.375  L 11.484375 11.375  C 11.606445312500002 11.375  11.712646484375002 11.333891369047619  11.802978515625 11.251674107142856  Z M 3.819580078125 1.5959821428571423  C 3.651123046875 1.7313988095238084  3.5400390625000004 1.9055059523809508  3.486328125 2.118303571428572  L 2.80517578125 5.107142857142858  L 1.83837890625 5.107142857142858  L 2.578125 1.9079241071428577  C 2.6708984375 1.4823288690476182  2.8881835937500004 1.135323660714286  3.22998046875 0.8669084821428578  C 3.57177734375 0.5984933035714282  3.96240234375 0.4642857142857141  4.40185546875 0.4642857142857141  L 5.625 0.4642857142857141  C 5.625 0.3385416666666662  5.671386718749999 0.22972470238095066  5.76416015625 0.13783482142857184  C 5.856933593750001 0.045944940476191576  5.966796875000001 0  6.09375 0  L 8.90625 0  C 9.033203125000002 0  9.143066406250002 0.045944940476191576  9.23583984375 0.13783482142857184  C 9.32861328125 0.22972470238095066  9.375 0.3385416666666662  9.375 0.4642857142857141  L 10.59814453125 0.4642857142857141  C 11.03759765625 0.4642857142857141  11.428222656250002 0.5984933035714282  11.77001953125 0.8669084821428578  C 12.111816406250002 1.135323660714286  12.329101562500002 1.4823288690476182  12.421875 1.9079241071428577  L 13.16162109375 5.107142857142858  L 12.19482421875 5.107142857142858  L 11.513671875 2.118303571428572  C 11.4599609375 1.9055059523809508  11.348876953125 1.7313988095238084  11.180419921875 1.5959821428571423  C 11.011962890625 1.460565476190476  10.81787109375 1.3928571428571423  10.59814453125 1.3928571428571423  L 9.375 1.3928571428571423  C 9.375 1.5186011904761902  9.32861328125 1.6274181547619042  9.23583984375 1.719308035714286  C 9.143066406250002 1.811197916666666  9.033203125000002 1.8571428571428577  8.90625 1.8571428571428577  L 6.09375 1.8571428571428577  C 5.966796875000001 1.8571428571428577  5.856933593750001 1.811197916666666  5.76416015625 1.719308035714286  C 5.671386718749999 1.6274181547619042  5.625 1.5186011904761902  5.625 1.3928571428571423  L 4.40185546875 1.3928571428571423  C 4.18212890625 1.3928571428571423  3.988037109375 1.460565476190476  3.819580078125 1.5959821428571423  Z " fill-rule="nonzero" fill="#ffffff" stroke="none" transform="matrix(1 0 0 1 290 11815 )" />
  </g>
</svg>