<?xml version="1.0" encoding="utf-8"?>
<svg version="1.1" xmlns:xlink="http://www.w3.org/1999/xlink" width="20px" height="18px" xmlns="http://www.w3.org/2000/svg">
  <g transform="matrix(1 0 0 1 -411 -14304 )">
    <path d="M 1.25 8  L 18.75 8  C 19.095052083333336 7.714285714285715  19.3896484375 7.83984375  19.6337890625 8.090959821428573  C 19.8779296875 8.342075892857142  20 8.645089285714285  20 9  C 20 9.354910714285714  19.8779296875 9.657924107142858  19.6337890625 9.90904017857143  C 19.3896484375 10.16015625  19.095052083333336 10.285714285714285  18.75 10.285714285714285  L 18.603515625 10.285714285714285  L 17.48046875 16.935267857142858  C 17.42838541666667 17.243303571428573  17.285156250000004 17.497767857142858  17.05078125 17.698660714285715  C 16.816406250000004 17.899553571428573  16.54947916666667 18  16.25 18  L 3.75 18  C 3.450520833333334 18  3.18359375 17.899553571428573  2.94921875 17.698660714285715  C 2.71484375 17.497767857142858  2.571614583333334 17.243303571428573  2.51953125 16.935267857142858  L 1.396484375 10.285714285714285  L 1.25 10.285714285714285  C 0.9049479166666667 10.285714285714285  0.6103515625000001 10.16015625  0.3662109375 9.90904017857143  C 0.1220703125 9.657924107142858  0 9.354910714285714  0 9  C 0 8.645089285714285  0.1220703125 8.342075892857142  0.3662109375 8.090959821428573  C 0.6103515625000001 7.83984375  0.9049479166666667 7.714285714285715  1.25 8  Z M 4.6875 15.75  L 4.736328125 15.75  C 4.905598958333334 15.736607142857144  5.047200520833334 15.661272321428571  5.1611328125 15.523995535714285  C 5.275065104166668 15.386718749999998  5.325520833333334 15.231026785714285  5.3125 15.056919642857142  L 5 10.878348214285715  C 4.986979166666668 10.70424107142857  4.913736979166668 10.55859375  4.7802734375 10.44140625  C 4.646809895833334 10.324218749999998  4.495442708333334 10.272321428571427  4.326171875 10.285714285714285  C 4.156901041666668 10.299107142857142  4.015299479166668 10.374441964285714  3.9013671875 10.51171875  C 3.787434895833334 10.648995535714285  3.736979166666667 10.804687499999996  3.75 10.978794642857142  L 4.0625 15.15736607142857  C 4.075520833333334 15.324776785714286  4.142252604166667 15.465401785714286  4.2626953125 15.57924107142857  C 4.383138020833334 15.693080357142856  4.524739583333334 15.75  4.6875 15.75  Z M 8.564453125 15.559151785714285  C 8.688151041666668 15.431919642857142  8.75 15.281249999999998  8.75 15.107142857142858  L 8.75 10.92857142857143  C 8.75 10.754464285714285  8.688151041666668 10.603794642857142  8.564453125 10.4765625  C 8.440755208333336 10.349330357142856  8.294270833333336 10.285714285714285  8.125 10.285714285714285  C 7.955729166666668 10.285714285714285  7.809244791666668 10.349330357142856  7.685546875 10.4765625  C 7.561848958333332 10.603794642857142  7.5 10.754464285714285  7.5 10.92857142857143  L 7.5 15.107142857142858  C 7.5 15.281249999999998  7.561848958333332 15.431919642857142  7.685546875 15.559151785714285  C 7.809244791666668 15.686383928571429  7.955729166666668 15.75  8.125 15.75  C 8.294270833333336 15.75  8.440755208333336 15.686383928571429  8.564453125 15.559151785714285  Z M 12.314453125 15.559151785714285  C 12.438151041666668 15.431919642857142  12.5 15.281249999999998  12.5 15.107142857142858  L 12.5 10.92857142857143  C 12.5 10.754464285714285  12.438151041666668 10.603794642857142  12.314453125 10.4765625  C 12.190755208333336 10.349330357142856  12.044270833333336 10.285714285714285  11.875 10.285714285714285  C 11.705729166666668 10.285714285714285  11.559244791666668 10.349330357142856  11.435546875 10.4765625  C 11.311848958333336 10.603794642857142  11.25 10.754464285714285  11.25 10.92857142857143  L 11.25 15.107142857142858  C 11.25 15.281249999999998  11.311848958333336 15.431919642857142  11.435546875 15.559151785714285  C 11.559244791666668 15.686383928571429  11.705729166666668 15.75  11.875 15.75  C 12.044270833333336 15.75  12.190755208333336 15.686383928571429  12.314453125 15.559151785714285  Z M 15.7373046875 15.57924107142857  C 15.857747395833336 15.465401785714286  15.924479166666668 15.324776785714286  15.9375 15.15736607142857  L 16.25 10.978794642857142  C 16.263020833333336 10.804687499999996  16.212565104166668 10.648995535714285  16.0986328125 10.51171875  C 15.984700520833336 10.374441964285714  15.843098958333336 10.299107142857142  15.673828125 10.285714285714285  C 15.504557291666668 10.272321428571427  15.353190104166668 10.324218749999998  15.2197265625 10.44140625  C 15.086263020833336 10.55859375  15.013020833333336 10.70424107142857  15 10.878348214285715  L 14.6875 15.056919642857142  C 14.674479166666668 15.231026785714285  14.724934895833336 15.386718749999998  14.8388671875 15.523995535714285  C 14.952799479166668 15.661272321428571  15.094401041666668 15.736607142857144  15.263671875 15.75  L 15.3125 15.75  C 15.47526041666667 15.75  15.61686197916667 15.693080357142856  15.7373046875 15.57924107142857  Z M 5.0927734375 2.209821428571428  C 4.8681640625 2.397321428571427  4.720052083333334 2.638392857142855  4.6484375 2.933035714285715  L 3.740234375 7.071428571428572  L 2.451171875 7.071428571428572  L 3.4375 2.641741071428572  C 3.561197916666667 2.052455357142856  3.850911458333334 1.5719866071428574  4.306640625 1.2003348214285723  C 4.762369791666667 0.8286830357142851  5.283203125 0.6428571428571426  5.869140625 0.6428571428571426  L 7.5 0.6428571428571426  C 7.5 0.46874999999999933  7.561848958333332 0.31808035714285476  7.685546875 0.19084821428571486  C 7.809244791666668 0.06361607142857295  7.955729166666668 0  8.125 0  L 11.875 0  C 12.044270833333336 0  12.190755208333336 0.06361607142857295  12.314453125 0.19084821428571486  C 12.438151041666668 0.31808035714285476  12.5 0.46874999999999933  12.5 0.6428571428571426  L 14.130859375 0.6428571428571426  C 14.716796875 0.6428571428571426  15.237630208333336 0.8286830357142851  15.693359375 1.2003348214285723  C 16.14908854166667 1.5719866071428574  16.438802083333336 2.052455357142856  16.5625 2.641741071428572  L 17.548828125 7.071428571428572  L 16.259765625 7.071428571428572  L 15.3515625 2.933035714285715  C 15.279947916666668 2.638392857142855  15.1318359375 2.397321428571427  14.9072265625 2.209821428571428  C 14.6826171875 2.0223214285714284  14.423828125 1.9285714285714277  14.130859375 1.9285714285714277  L 12.5 1.9285714285714277  C 12.5 2.102678571428571  12.438151041666668 2.2533482142857135  12.314453125 2.3805803571428577  C 12.190755208333336 2.507812499999999  12.044270833333336 2.571428571428572  11.875 2.571428571428572  L 8.125 2.571428571428572  C 7.955729166666668 2.571428571428572  7.809244791666668 2.507812499999999  7.685546875 2.3805803571428577  C 7.561848958333332 2.2533482142857135  7.5 2.102678571428571  7.5 1.9285714285714277  L 5.869140625 1.9285714285714277  C 5.576171875 1.9285714285714277  5.3173828125 2.0223214285714284  5.0927734375 2.209821428571428  Z " fill-rule="nonzero" fill="#ffffff" stroke="none" transform="matrix(1 0 0 1 411 14304 )" />
  </g>
</svg>