<?xml version="1.0" encoding="utf-8"?>
<svg version="1.1" xmlns:xlink="http://www.w3.org/1999/xlink" width="20px" height="20px" xmlns="http://www.w3.org/2000/svg">
  <defs>
    <mask fill="white" id="clip76">
      <path d="M 15.01953125 18.65885416666715  C 13.487413194444526 19.55295138888905  11.814236111111132 20  10 20  C 8.185763888888868 20  6.5125868055554745 19.55295138888905  4.98046875 18.65885416666715  C 3.4483506944445255 17.764756944443796  2.2352430555554745 16.551649305556204  1.3411458333333939 15.01953125  C 0.4470486111111313 13.487413194443798  0 11.814236111110949  0 10  C 0 8.185763888889051  0.4470486111111313 6.512586805556202  1.3411458333333939 4.98046875  C 2.2352430555554745 3.4483506944437976  3.4483506944445255 2.2352430555562024  4.98046875 1.3411458333328483  C 6.5125868055554745 0.44704861111094946  8.185763888888868 0  10 0  C 11.814236111111132 0  13.487413194444526 0.44704861111094946  15.01953125 1.3411458333328483  C 16.551649305555472 2.2352430555562024  17.764756944444528 3.4483506944437976  18.658854166666604 4.98046875  C 19.552951388888868 6.512586805556202  20 8.185763888889051  20 10  C 20 11.814236111110949  19.552951388888868 13.487413194443798  18.658854166666604 15.01953125  C 17.764756944444528 16.551649305556204  16.551649305555472 17.764756944443796  15.01953125 18.65885416666715  Z M 14.954882154882217 12.573737373737096  C 15.118294051627345 12.737149270482767  15.2 12.935578002245165  15.2 13.169023569024285  C 15.2 13.40246913580195  15.118294051627345 13.600897867564345  14.954882154882217 13.764309764310019  L 13.764309764309836 14.954882154881489  C 13.600897867564527 15.118294051627164  13.402469135802493 15.2  13.169023569023556 15.2  C 12.935578002244618 15.2  12.737149270482586 15.118294051627164  12.573737373737458 14.954882154881489  L 10 12.381144781144393  L 7.426262626262542 14.954882154881489  C 7.262850729517413 15.118294051627164  7.06442199775538 15.2  6.830976430976444 15.2  C 6.597530864197506 15.2  6.399102132435473 15.118294051627164  6.235690235690163 14.954882154881489  L 5.045117845117783 13.764309764310019  C 4.881705948372655 13.600897867564345  4.8 13.40246913580195  4.8 13.169023569024285  C 4.8 12.935578002245165  4.881705948372655 12.737149270482767  5.045117845117783 12.573737373737096  L 7.618855218855241 10  L 5.045117845117783 7.426262626262905  C 4.881705948372655 7.262850729517232  4.8 7.064421997754835  4.8 6.830976430975716  C 4.8 6.597530864198053  4.881705948372655 6.399102132435655  5.045117845117783 6.235690235689981  L 6.235690235690163 5.0451178451185115  C 6.399102132435473 4.881705948372837  6.597530864197506 4.8  6.830976430976444 4.8  C 7.06442199775538 4.8  7.262850729517413 4.881705948372837  7.426262626262542 5.0451178451185115  L 10 7.618855218855606  L 12.573737373737458 5.0451178451185115  C 12.737149270482586 4.881705948372837  12.935578002244618 4.8  13.169023569023556 4.8  C 13.402469135802493 4.8  13.600897867564527 4.881705948372837  13.764309764309836 5.0451178451185115  L 14.954882154882217 6.235690235689981  C 15.118294051627345 6.399102132435655  15.2 6.597530864198053  15.2 6.830976430975716  C 15.2 7.064421997754835  15.118294051627345 7.262850729517232  14.954882154882217 7.426262626262905  L 12.381144781144757 10  L 14.954882154882217 12.573737373737096  Z " fill-rule="evenodd" />
    </mask>
  </defs>
  <g transform="matrix(1 0 0 1 -630 -12142 )">
    <path d="M 15.01953125 18.65885416666715  C 13.487413194444526 19.55295138888905  11.814236111111132 20  10 20  C 8.185763888888868 20  6.5125868055554745 19.55295138888905  4.98046875 18.65885416666715  C 3.4483506944445255 17.764756944443796  2.2352430555554745 16.551649305556204  1.3411458333333939 15.01953125  C 0.4470486111111313 13.487413194443798  0 11.814236111110949  0 10  C 0 8.185763888889051  0.4470486111111313 6.512586805556202  1.3411458333333939 4.98046875  C 2.2352430555554745 3.4483506944437976  3.4483506944445255 2.2352430555562024  4.98046875 1.3411458333328483  C 6.5125868055554745 0.44704861111094946  8.185763888888868 0  10 0  C 11.814236111111132 0  13.487413194444526 0.44704861111094946  15.01953125 1.3411458333328483  C 16.551649305555472 2.2352430555562024  17.764756944444528 3.4483506944437976  18.658854166666604 4.98046875  C 19.552951388888868 6.512586805556202  20 8.185763888889051  20 10  C 20 11.814236111110949  19.552951388888868 13.487413194443798  18.658854166666604 15.01953125  C 17.764756944444528 16.551649305556204  16.551649305555472 17.764756944443796  15.01953125 18.65885416666715  Z M 14.954882154882217 12.573737373737096  C 15.118294051627345 12.737149270482767  15.2 12.935578002245165  15.2 13.169023569024285  C 15.2 13.40246913580195  15.118294051627345 13.600897867564345  14.954882154882217 13.764309764310019  L 13.764309764309836 14.954882154881489  C 13.600897867564527 15.118294051627164  13.402469135802493 15.2  13.169023569023556 15.2  C 12.935578002244618 15.2  12.737149270482586 15.118294051627164  12.573737373737458 14.954882154881489  L 10 12.381144781144393  L 7.426262626262542 14.954882154881489  C 7.262850729517413 15.118294051627164  7.06442199775538 15.2  6.830976430976444 15.2  C 6.597530864197506 15.2  6.399102132435473 15.118294051627164  6.235690235690163 14.954882154881489  L 5.045117845117783 13.764309764310019  C 4.881705948372655 13.600897867564345  4.8 13.40246913580195  4.8 13.169023569024285  C 4.8 12.935578002245165  4.881705948372655 12.737149270482767  5.045117845117783 12.573737373737096  L 7.618855218855241 10  L 5.045117845117783 7.426262626262905  C 4.881705948372655 7.262850729517232  4.8 7.064421997754835  4.8 6.830976430975716  C 4.8 6.597530864198053  4.881705948372655 6.399102132435655  5.045117845117783 6.235690235689981  L 6.235690235690163 5.0451178451185115  C 6.399102132435473 4.881705948372837  6.597530864197506 4.8  6.830976430976444 4.8  C 7.06442199775538 4.8  7.262850729517413 4.881705948372837  7.426262626262542 5.0451178451185115  L 10 7.618855218855606  L 12.573737373737458 5.0451178451185115  C 12.737149270482586 4.881705948372837  12.935578002244618 4.8  13.169023569023556 4.8  C 13.402469135802493 4.8  13.600897867564527 4.881705948372837  13.764309764309836 5.0451178451185115  L 14.954882154882217 6.235690235689981  C 15.118294051627345 6.399102132435655  15.2 6.597530864198053  15.2 6.830976430975716  C 15.2 7.064421997754835  15.118294051627345 7.262850729517232  14.954882154882217 7.426262626262905  L 12.381144781144757 10  L 14.954882154882217 12.573737373737096  Z " fill-rule="nonzero" fill="#000000" stroke="none" fill-opacity="0" transform="matrix(1 0 0 1 630 12142 )" />
    <path d="M 15.01953125 18.65885416666715  C 13.487413194444526 19.55295138888905  11.814236111111132 20  10 20  C 8.185763888888868 20  6.5125868055554745 19.55295138888905  4.98046875 18.65885416666715  C 3.4483506944445255 17.764756944443796  2.2352430555554745 16.551649305556204  1.3411458333333939 15.01953125  C 0.4470486111111313 13.487413194443798  0 11.814236111110949  0 10  C 0 8.185763888889051  0.4470486111111313 6.512586805556202  1.3411458333333939 4.98046875  C 2.2352430555554745 3.4483506944437976  3.4483506944445255 2.2352430555562024  4.98046875 1.3411458333328483  C 6.5125868055554745 0.44704861111094946  8.185763888888868 0  10 0  C 11.814236111111132 0  13.487413194444526 0.44704861111094946  15.01953125 1.3411458333328483  C 16.551649305555472 2.2352430555562024  17.764756944444528 3.4483506944437976  18.658854166666604 4.98046875  C 19.552951388888868 6.512586805556202  20 8.185763888889051  20 10  C 20 11.814236111110949  19.552951388888868 13.487413194443798  18.658854166666604 15.01953125  C 17.764756944444528 16.551649305556204  16.551649305555472 17.764756944443796  15.01953125 18.65885416666715  Z " stroke-width="2" stroke="#b929fe" fill="none" transform="matrix(1 0 0 1 630 12142 )" mask="url(#clip76)" />
    <path d="M 14.954882154882217 12.573737373737096  C 15.118294051627345 12.737149270482767  15.2 12.935578002245165  15.2 13.169023569024285  C 15.2 13.40246913580195  15.118294051627345 13.600897867564345  14.954882154882217 13.764309764310019  L 13.764309764309836 14.954882154881489  C 13.600897867564527 15.118294051627164  13.402469135802493 15.2  13.169023569023556 15.2  C 12.935578002244618 15.2  12.737149270482586 15.118294051627164  12.573737373737458 14.954882154881489  L 10 12.381144781144393  L 7.426262626262542 14.954882154881489  C 7.262850729517413 15.118294051627164  7.06442199775538 15.2  6.830976430976444 15.2  C 6.597530864197506 15.2  6.399102132435473 15.118294051627164  6.235690235690163 14.954882154881489  L 5.045117845117783 13.764309764310019  C 4.881705948372655 13.600897867564345  4.8 13.40246913580195  4.8 13.169023569024285  C 4.8 12.935578002245165  4.881705948372655 12.737149270482767  5.045117845117783 12.573737373737096  L 7.618855218855241 10  L 5.045117845117783 7.426262626262905  C 4.881705948372655 7.262850729517232  4.8 7.064421997754835  4.8 6.830976430975716  C 4.8 6.597530864198053  4.881705948372655 6.399102132435655  5.045117845117783 6.235690235689981  L 6.235690235690163 5.0451178451185115  C 6.399102132435473 4.881705948372837  6.597530864197506 4.8  6.830976430976444 4.8  C 7.06442199775538 4.8  7.262850729517413 4.881705948372837  7.426262626262542 5.0451178451185115  L 10 7.618855218855606  L 12.573737373737458 5.0451178451185115  C 12.737149270482586 4.881705948372837  12.935578002244618 4.8  13.169023569023556 4.8  C 13.402469135802493 4.8  13.600897867564527 4.881705948372837  13.764309764309836 5.0451178451185115  L 14.954882154882217 6.235690235689981  C 15.118294051627345 6.399102132435655  15.2 6.597530864198053  15.2 6.830976430975716  C 15.2 7.064421997754835  15.118294051627345 7.262850729517232  14.954882154882217 7.426262626262905  L 12.381144781144757 10  L 14.954882154882217 12.573737373737096  Z " stroke-width="2" stroke="#b929fe" fill="none" transform="matrix(1 0 0 1 630 12142 )" mask="url(#clip76)" />
  </g>
</svg>