<?xml version="1.0" encoding="utf-8"?>
<svg version="1.1" xmlns:xlink="http://www.w3.org/1999/xlink" width="25px" height="25px" xmlns="http://www.w3.org/2000/svg">
  <defs>
    <mask fill="white" id="clip37">
      <path d="M 18.7744140625 23.32356770833394  C 16.859266493055657 24.441189236111313  14.767795138888914 25  12.5 25  C 10.232204861111086 25  8.140733506944343 24.441189236111313  6.2255859375 23.32356770833394  C 4.310438368055657 22.205946180554747  2.7940538194443434 20.689561631945253  1.6764322916667425 18.7744140625  C 0.5588107638889142 16.859266493054747  0 14.767795138888687  0 12.5  C 0 10.232204861111313  0.5588107638889142 8.140733506945253  1.6764322916667425 6.2255859375  C 2.7940538194443434 4.310438368054747  4.310438368055657 2.794053819445253  6.2255859375 1.6764322916660603  C 8.140733506944343 0.5588107638886868  10.232204861111086 0  12.5 0  C 14.767795138888914 0  16.859266493055657 0.5588107638886868  18.7744140625 1.6764322916660603  C 20.689561631944343 2.794053819445253  22.205946180555657 4.310438368054747  23.323567708333258 6.2255859375  C 24.441189236111086 8.140733506945253  25 10.232204861111313  25 12.5  C 25 14.767795138888687  24.441189236111086 16.859266493054747  23.323567708333258 18.7744140625  C 22.205946180555657 20.689561631945253  20.689561631944343 22.205946180554747  18.7744140625 23.32356770833394  Z M 18.69360269360277 15.717171717171368  C 18.89786756453418 15.921436588103461  19 16.169472502806457  19 16.461279461280355  C 19 16.753086419752435  18.89786756453418 17.00112233445543  18.69360269360277 17.205387205387524  L 17.205387205387296 18.69360269360186  C 17.00112233445566 18.897867564533954  16.753086419753117 19  16.461279461279446 19  C 16.169472502805775 19  15.921436588103234 18.897867564533954  15.717171717171825 18.69360269360186  L 12.5 15.47643097643049  L 9.282828282828177 18.69360269360186  C 9.078563411896766 18.897867564533954  8.830527497194225 19  8.538720538720554 19  C 8.246913580246883 19  7.998877665544342 18.897867564533954  7.794612794612704 18.69360269360186  L 6.30639730639723 17.205387205387524  C 6.102132435465819 17.00112233445543  6 16.753086419752435  6 16.461279461280355  C 6 16.169472502806457  6.102132435465819 15.921436588103461  6.30639730639723 15.717171717171368  L 9.523569023569053 12.5  L 6.30639730639723 9.282828282828632  C 6.102132435465819 9.078563411896539  6 8.830527497193543  6 8.538720538719645  C 6 8.246913580247565  6.102132435465819 7.99887766554457  6.30639730639723 7.794612794612476  L 7.794612794612704 6.30639730639814  C 7.998877665544342 6.1021324354660464  8.246913580246883 6  8.538720538720554 6  C 8.830527497194225 6  9.078563411896766 6.1021324354660464  9.282828282828177 6.30639730639814  L 12.5 9.523569023569507  L 15.717171717171825 6.30639730639814  C 15.921436588103234 6.1021324354660464  16.169472502805775 6  16.461279461279446 6  C 16.753086419753117 6  17.00112233445566 6.1021324354660464  17.205387205387296 6.30639730639814  L 18.69360269360277 7.794612794612476  C 18.89786756453418 7.99887766554457  19 8.246913580247565  19 8.538720538719645  C 19 8.830527497193543  18.89786756453418 9.078563411896539  18.69360269360277 9.282828282828632  L 15.476430976430947 12.5  L 18.69360269360277 15.717171717171368  Z " fill-rule="evenodd" />
    </mask>
  </defs>
  <g transform="matrix(1 0 0 1 -1165 -14678 )">
    <path d="M 18.7744140625 23.32356770833394  C 16.859266493055657 24.441189236111313  14.767795138888914 25  12.5 25  C 10.232204861111086 25  8.140733506944343 24.441189236111313  6.2255859375 23.32356770833394  C 4.310438368055657 22.205946180554747  2.7940538194443434 20.689561631945253  1.6764322916667425 18.7744140625  C 0.5588107638889142 16.859266493054747  0 14.767795138888687  0 12.5  C 0 10.232204861111313  0.5588107638889142 8.140733506945253  1.6764322916667425 6.2255859375  C 2.7940538194443434 4.310438368054747  4.310438368055657 2.794053819445253  6.2255859375 1.6764322916660603  C 8.140733506944343 0.5588107638886868  10.232204861111086 0  12.5 0  C 14.767795138888914 0  16.859266493055657 0.5588107638886868  18.7744140625 1.6764322916660603  C 20.689561631944343 2.794053819445253  22.205946180555657 4.310438368054747  23.323567708333258 6.2255859375  C 24.441189236111086 8.140733506945253  25 10.232204861111313  25 12.5  C 25 14.767795138888687  24.441189236111086 16.859266493054747  23.323567708333258 18.7744140625  C 22.205946180555657 20.689561631945253  20.689561631944343 22.205946180554747  18.7744140625 23.32356770833394  Z M 18.69360269360277 15.717171717171368  C 18.89786756453418 15.921436588103461  19 16.169472502806457  19 16.461279461280355  C 19 16.753086419752435  18.89786756453418 17.00112233445543  18.69360269360277 17.205387205387524  L 17.205387205387296 18.69360269360186  C 17.00112233445566 18.897867564533954  16.753086419753117 19  16.461279461279446 19  C 16.169472502805775 19  15.921436588103234 18.897867564533954  15.717171717171825 18.69360269360186  L 12.5 15.47643097643049  L 9.282828282828177 18.69360269360186  C 9.078563411896766 18.897867564533954  8.830527497194225 19  8.538720538720554 19  C 8.246913580246883 19  7.998877665544342 18.897867564533954  7.794612794612704 18.69360269360186  L 6.30639730639723 17.205387205387524  C 6.102132435465819 17.00112233445543  6 16.753086419752435  6 16.461279461280355  C 6 16.169472502806457  6.102132435465819 15.921436588103461  6.30639730639723 15.717171717171368  L 9.523569023569053 12.5  L 6.30639730639723 9.282828282828632  C 6.102132435465819 9.078563411896539  6 8.830527497193543  6 8.538720538719645  C 6 8.246913580247565  6.102132435465819 7.99887766554457  6.30639730639723 7.794612794612476  L 7.794612794612704 6.30639730639814  C 7.998877665544342 6.1021324354660464  8.246913580246883 6  8.538720538720554 6  C 8.830527497194225 6  9.078563411896766 6.1021324354660464  9.282828282828177 6.30639730639814  L 12.5 9.523569023569507  L 15.717171717171825 6.30639730639814  C 15.921436588103234 6.1021324354660464  16.169472502805775 6  16.461279461279446 6  C 16.753086419753117 6  17.00112233445566 6.1021324354660464  17.205387205387296 6.30639730639814  L 18.69360269360277 7.794612794612476  C 18.89786756453418 7.99887766554457  19 8.246913580247565  19 8.538720538719645  C 19 8.830527497193543  18.89786756453418 9.078563411896539  18.69360269360277 9.282828282828632  L 15.476430976430947 12.5  L 18.69360269360277 15.717171717171368  Z " fill-rule="nonzero" fill="#000000" stroke="none" fill-opacity="0" transform="matrix(1 0 0 1 1165 14678 )" />
    <path d="M 18.7744140625 23.32356770833394  C 16.859266493055657 24.441189236111313  14.767795138888914 25  12.5 25  C 10.232204861111086 25  8.140733506944343 24.441189236111313  6.2255859375 23.32356770833394  C 4.310438368055657 22.205946180554747  2.7940538194443434 20.689561631945253  1.6764322916667425 18.7744140625  C 0.5588107638889142 16.859266493054747  0 14.767795138888687  0 12.5  C 0 10.232204861111313  0.5588107638889142 8.140733506945253  1.6764322916667425 6.2255859375  C 2.7940538194443434 4.310438368054747  4.310438368055657 2.794053819445253  6.2255859375 1.6764322916660603  C 8.140733506944343 0.5588107638886868  10.232204861111086 0  12.5 0  C 14.767795138888914 0  16.859266493055657 0.5588107638886868  18.7744140625 1.6764322916660603  C 20.689561631944343 2.794053819445253  22.205946180555657 4.310438368054747  23.323567708333258 6.2255859375  C 24.441189236111086 8.140733506945253  25 10.232204861111313  25 12.5  C 25 14.767795138888687  24.441189236111086 16.859266493054747  23.323567708333258 18.7744140625  C 22.205946180555657 20.689561631945253  20.689561631944343 22.205946180554747  18.7744140625 23.32356770833394  Z " stroke-width="2" stroke="#b929fe" fill="none" transform="matrix(1 0 0 1 1165 14678 )" mask="url(#clip37)" />
    <path d="M 18.69360269360277 15.717171717171368  C 18.89786756453418 15.921436588103461  19 16.169472502806457  19 16.461279461280355  C 19 16.753086419752435  18.89786756453418 17.00112233445543  18.69360269360277 17.205387205387524  L 17.205387205387296 18.69360269360186  C 17.00112233445566 18.897867564533954  16.753086419753117 19  16.461279461279446 19  C 16.169472502805775 19  15.921436588103234 18.897867564533954  15.717171717171825 18.69360269360186  L 12.5 15.47643097643049  L 9.282828282828177 18.69360269360186  C 9.078563411896766 18.897867564533954  8.830527497194225 19  8.538720538720554 19  C 8.246913580246883 19  7.998877665544342 18.897867564533954  7.794612794612704 18.69360269360186  L 6.30639730639723 17.205387205387524  C 6.102132435465819 17.00112233445543  6 16.753086419752435  6 16.461279461280355  C 6 16.169472502806457  6.102132435465819 15.921436588103461  6.30639730639723 15.717171717171368  L 9.523569023569053 12.5  L 6.30639730639723 9.282828282828632  C 6.102132435465819 9.078563411896539  6 8.830527497193543  6 8.538720538719645  C 6 8.246913580247565  6.102132435465819 7.99887766554457  6.30639730639723 7.794612794612476  L 7.794612794612704 6.30639730639814  C 7.998877665544342 6.1021324354660464  8.246913580246883 6  8.538720538720554 6  C 8.830527497194225 6  9.078563411896766 6.1021324354660464  9.282828282828177 6.30639730639814  L 12.5 9.523569023569507  L 15.717171717171825 6.30639730639814  C 15.921436588103234 6.1021324354660464  16.169472502805775 6  16.461279461279446 6  C 16.753086419753117 6  17.00112233445566 6.1021324354660464  17.205387205387296 6.30639730639814  L 18.69360269360277 7.794612794612476  C 18.89786756453418 7.99887766554457  19 8.246913580247565  19 8.538720538719645  C 19 8.830527497193543  18.89786756453418 9.078563411896539  18.69360269360277 9.282828282828632  L 15.476430976430947 12.5  L 18.69360269360277 15.717171717171368  Z " stroke-width="2" stroke="#b929fe" fill="none" transform="matrix(1 0 0 1 1165 14678 )" mask="url(#clip37)" />
  </g>
</svg>