<?xml version="1.0" encoding="utf-8"?>
<svg version="1.1" xmlns:xlink="http://www.w3.org/1999/xlink" width="50px" height="50px" xmlns="http://www.w3.org/2000/svg">
  <defs>
    <mask fill="white" id="clip38">
      <path d="M 46.647135416666686 12.451171875  C 48.88237847222223 16.281467013888687  50 20.464409722222626  50 25  C 50 29.535590277777374  48.88237847222223 33.71853298611131  46.647135416666686 37.548828125  C 44.411892361111086 41.37912326388869  41.379123263888914 44.41189236111131  37.548828125 46.64713541666606  C 33.718532986111086 48.882378472222626  29.535590277777775 50  25 50  C 20.46440972222223 50  16.281467013888914 48.882378472222626  12.451171875 46.64713541666606  C 8.620876736111086 44.41189236111131  5.588107638888914 41.37912326388869  3.352864583333314 37.548828125  C 1.1176215277777715 33.71853298611131  0 29.535590277777374  0 25  C 0 20.464409722222626  1.1176215277777715 16.281467013888687  3.352864583333314 12.451171875  C 5.588107638888914 8.620876736111313  8.620876736111086 5.588107638888687  12.451171875 3.352864583333939  C 16.281467013888914 1.1176215277773736  20.46440972222223 0  25 0  C 29.535590277777775 0  33.718532986111086 1.1176215277773736  37.548828125 3.352864583333939  C 41.379123263888914 5.588107638888687  44.411892361111086 8.620876736111313  46.647135416666686 12.451171875  Z " fill-rule="evenodd" />
    </mask>
  </defs>
  <g transform="matrix(1 0 0 1 -300 -14877 )">
    <path d="M 46.647135416666686 12.451171875  C 48.88237847222223 16.281467013888687  50 20.464409722222626  50 25  C 50 29.535590277777374  48.88237847222223 33.71853298611131  46.647135416666686 37.548828125  C 44.411892361111086 41.37912326388869  41.379123263888914 44.41189236111131  37.548828125 46.64713541666606  C 33.718532986111086 48.882378472222626  29.535590277777775 50  25 50  C 20.46440972222223 50  16.281467013888914 48.882378472222626  12.451171875 46.64713541666606  C 8.620876736111086 44.41189236111131  5.588107638888914 41.37912326388869  3.352864583333314 37.548828125  C 1.1176215277777715 33.71853298611131  0 29.535590277777374  0 25  C 0 20.464409722222626  1.1176215277777715 16.281467013888687  3.352864583333314 12.451171875  C 5.588107638888914 8.620876736111313  8.620876736111086 5.588107638888687  12.451171875 3.352864583333939  C 16.281467013888914 1.1176215277773736  20.46440972222223 0  25 0  C 29.535590277777775 0  33.718532986111086 1.1176215277773736  37.548828125 3.352864583333939  C 41.379123263888914 5.588107638888687  44.411892361111086 8.620876736111313  46.647135416666686 12.451171875  Z " fill-rule="nonzero" fill="#ffffff" stroke="none" transform="matrix(1 0 0 1 300 14877 )" />
    <path d="M 46.647135416666686 12.451171875  C 48.88237847222223 16.281467013888687  50 20.464409722222626  50 25  C 50 29.535590277777374  48.88237847222223 33.71853298611131  46.647135416666686 37.548828125  C 44.411892361111086 41.37912326388869  41.379123263888914 44.41189236111131  37.548828125 46.64713541666606  C 33.718532986111086 48.882378472222626  29.535590277777775 50  25 50  C 20.46440972222223 50  16.281467013888914 48.882378472222626  12.451171875 46.64713541666606  C 8.620876736111086 44.41189236111131  5.588107638888914 41.37912326388869  3.352864583333314 37.548828125  C 1.1176215277777715 33.71853298611131  0 29.535590277777374  0 25  C 0 20.464409722222626  1.1176215277777715 16.281467013888687  3.352864583333314 12.451171875  C 5.588107638888914 8.620876736111313  8.620876736111086 5.588107638888687  12.451171875 3.352864583333939  C 16.281467013888914 1.1176215277773736  20.46440972222223 0  25 0  C 29.535590277777775 0  33.718532986111086 1.1176215277773736  37.548828125 3.352864583333939  C 41.379123263888914 5.588107638888687  44.411892361111086 8.620876736111313  46.647135416666686 12.451171875  Z " stroke-width="2" stroke="#b929fe" fill="none" transform="matrix(1 0 0 1 300 14877 )" mask="url(#clip38)" />
  </g>
</svg>