<?xml version="1.0" encoding="utf-8"?>
<svg version="1.1" xmlns:xlink="http://www.w3.org/1999/xlink" width="235px" height="352px" xmlns="http://www.w3.org/2000/svg">
  <g transform="matrix(1 0 0 1 -207 -14903 )">
    <path d="M 235 344  C 235 348.47999999999956  231.48000000000002 352  227 352  L 8 352  C 3.5200000000000102 352  0 348.47999999999956  0 344  L 0 100.00000000000001  C 10.080000000000013 100.00000000000001  18 93.39999999999964  18 85  C 18 76.60000000000036  10.080000000000013 70  0 70.00065581872514  L 0 8  C 0 3.5200000000004366  3.5200000000000102 0  8 0  L 227 0  C 231.48000000000002 0  235 3.5200000000004366  235 8  L 235 344  Z M 0 70  L 0 100.0029049560435  L 0 70  Z M 235 70  C 224.92000000000002 70  217 76.60000000000036  217 85  C 217 93.39999999999964  224.92000000000002 100.00000000000001  235 100.00000000000001  L 235 70  Z " fill-rule="nonzero" fill="#ffffff" stroke="none" transform="matrix(1 0 0 1 207 14903 )" />
  </g>
</svg>