<?xml version="1.0" encoding="utf-8"?>
<svg version="1.1" xmlns:xlink="http://www.w3.org/1999/xlink" width="34px" height="26px" xmlns="http://www.w3.org/2000/svg">
  <defs>
    <mask fill="white" id="clip39">
      <path d="M 33.2109375 7.19140625  C 33.6015625 6.800781250000001  33.796875 6.3125  33.796875 5.7265625  C 33.796875 5.118923611111313  33.6015625 4.61979166666606  33.2109375 4.22916666666606  L 30.248697916666686 1.2994791666660603  C 29.83637152777777 0.8871527777773736  29.34809027777777 0.6809895833339397  28.783854166666686 0.6809895833339397  C 28.219618055555543 0.6809895833339397  27.731336805555543 0.8871527777773736  27.319010416666686 1.2994791666660603  L 14.037760416666686 14.54817708333394  L 6.680989583333314 7.19140625  C 6.268663194444457 6.779079861111313  5.780381944444457 6.57291666666606  5.216145833333314 6.57291666666606  C 4.6519097222222285 6.57291666666606  4.1636284722222285 6.779079861111313  3.7513020833333144 7.19140625  L 0.7890625 10.12109375  C 0.3984375 10.51171875  0.203125 11.010850694445253  0.203125 11.61848958333394  C 0.203125 12.20442708333394  0.3984375 12.69270833333394  0.7890625 13.08333333333394  L 12.572916666666686 24.8671875  C 12.985243055555543 25.279513888888687  13.473524305555543 25.48567708333394  14.037760416666686 25.48567708333394  C 14.623697916666686 25.48567708333394  15.122829861111086 25.279513888888687  15.53515625 24.8671875  L 33.2109375 7.19140625  Z " fill-rule="evenodd" />
    </mask>
  </defs>
  <g transform="matrix(1 0 0 1 -308 -14891 )">
    <path d="M 33.2109375 7.19140625  C 33.6015625 6.800781250000001  33.796875 6.3125  33.796875 5.7265625  C 33.796875 5.118923611111313  33.6015625 4.61979166666606  33.2109375 4.22916666666606  L 30.248697916666686 1.2994791666660603  C 29.83637152777777 0.8871527777773736  29.34809027777777 0.6809895833339397  28.783854166666686 0.6809895833339397  C 28.219618055555543 0.6809895833339397  27.731336805555543 0.8871527777773736  27.319010416666686 1.2994791666660603  L 14.037760416666686 14.54817708333394  L 6.680989583333314 7.19140625  C 6.268663194444457 6.779079861111313  5.780381944444457 6.57291666666606  5.216145833333314 6.57291666666606  C 4.6519097222222285 6.57291666666606  4.1636284722222285 6.779079861111313  3.7513020833333144 7.19140625  L 0.7890625 10.12109375  C 0.3984375 10.51171875  0.203125 11.010850694445253  0.203125 11.61848958333394  C 0.203125 12.20442708333394  0.3984375 12.69270833333394  0.7890625 13.08333333333394  L 12.572916666666686 24.8671875  C 12.985243055555543 25.279513888888687  13.473524305555543 25.48567708333394  14.037760416666686 25.48567708333394  C 14.623697916666686 25.48567708333394  15.122829861111086 25.279513888888687  15.53515625 24.8671875  L 33.2109375 7.19140625  Z " fill-rule="nonzero" fill="#b929fe" stroke="none" transform="matrix(1 0 0 1 308 14891 )" />
    <path d="M 33.2109375 7.19140625  C 33.6015625 6.800781250000001  33.796875 6.3125  33.796875 5.7265625  C 33.796875 5.118923611111313  33.6015625 4.61979166666606  33.2109375 4.22916666666606  L 30.248697916666686 1.2994791666660603  C 29.83637152777777 0.8871527777773736  29.34809027777777 0.6809895833339397  28.783854166666686 0.6809895833339397  C 28.219618055555543 0.6809895833339397  27.731336805555543 0.8871527777773736  27.319010416666686 1.2994791666660603  L 14.037760416666686 14.54817708333394  L 6.680989583333314 7.19140625  C 6.268663194444457 6.779079861111313  5.780381944444457 6.57291666666606  5.216145833333314 6.57291666666606  C 4.6519097222222285 6.57291666666606  4.1636284722222285 6.779079861111313  3.7513020833333144 7.19140625  L 0.7890625 10.12109375  C 0.3984375 10.51171875  0.203125 11.010850694445253  0.203125 11.61848958333394  C 0.203125 12.20442708333394  0.3984375 12.69270833333394  0.7890625 13.08333333333394  L 12.572916666666686 24.8671875  C 12.985243055555543 25.279513888888687  13.473524305555543 25.48567708333394  14.037760416666686 25.48567708333394  C 14.623697916666686 25.48567708333394  15.122829861111086 25.279513888888687  15.53515625 24.8671875  L 33.2109375 7.19140625  Z " stroke-width="2" stroke="#b929fe" fill="none" transform="matrix(1 0 0 1 308 14891 )" mask="url(#clip39)" />
  </g>
</svg>