<?xml version="1.0" encoding="utf-8"?>
<svg version="1.1" xmlns:xlink="http://www.w3.org/1999/xlink" width="24px" height="18px" xmlns="http://www.w3.org/2000/svg">
  <defs>
    <mask fill="white" id="clip78">
      <path d="M 23.443014705882355 4.978665865384615  C 23.71875 4.708233173076923  23.856617647058822 4.3701923076923075  23.856617647058822 3.964543269230769  C 23.856617647058822 3.5438701923078324  23.71875 3.1983173076918883  23.443014705882355 2.9278846153841958  L 21.352022058823543 0.8996394230765034  C 21.060968137254896 0.6141826923074125  20.71629901960784 0.47145432692349665  20.318014705882366 0.47145432692349665  C 19.919730392156854 0.47145432692349665  19.575061274509796 0.6141826923074125  19.284007352941188 0.8996394230765034  L 9.90900735294119 10.071814903846574  L 4.71599264705881 4.978665865384615  C 4.424938725490205 4.6932091346155245  4.080269607843146 4.550480769230349  3.6819852941176334 4.550480769230349  C 3.2837009803921617 4.550480769230349  2.9390318627451024 4.6932091346155245  2.6479779411764572 4.978665865384615  L 0.5569852941176471 7.006911057692308  C 0.28125 7.27734375  0.14338235294117646 7.622896634615945  0.14338235294117646 8.043569711538881  C 0.14338235294117646 8.44921875000042  0.28125 8.787259615385036  0.5569852941176471 9.057692307692728  L 8.875000000000014 17.215745192307693  C 9.166053921568619 17.501201923076785  9.510723039215677 17.64393028846196  9.90900735294119 17.64393028846196  C 10.322610294117661 17.64393028846196  10.674938725490179 17.501201923076785  10.965992647058822 17.215745192307693  L 23.443014705882355 4.978665865384615  Z " fill-rule="evenodd" />
    </mask>
  </defs>
  <g transform="matrix(1 0 0 1 -215 -12336 )">
    <path d="M 23.443014705882355 4.978665865384615  C 23.71875 4.708233173076923  23.856617647058822 4.3701923076923075  23.856617647058822 3.964543269230769  C 23.856617647058822 3.5438701923078324  23.71875 3.1983173076918883  23.443014705882355 2.9278846153841958  L 21.352022058823543 0.8996394230765034  C 21.060968137254896 0.6141826923074125  20.71629901960784 0.47145432692349665  20.318014705882366 0.47145432692349665  C 19.919730392156854 0.47145432692349665  19.575061274509796 0.6141826923074125  19.284007352941188 0.8996394230765034  L 9.90900735294119 10.071814903846574  L 4.71599264705881 4.978665865384615  C 4.424938725490205 4.6932091346155245  4.080269607843146 4.550480769230349  3.6819852941176334 4.550480769230349  C 3.2837009803921617 4.550480769230349  2.9390318627451024 4.6932091346155245  2.6479779411764572 4.978665865384615  L 0.5569852941176471 7.006911057692308  C 0.28125 7.27734375  0.14338235294117646 7.622896634615945  0.14338235294117646 8.043569711538881  C 0.14338235294117646 8.44921875000042  0.28125 8.787259615385036  0.5569852941176471 9.057692307692728  L 8.875000000000014 17.215745192307693  C 9.166053921568619 17.501201923076785  9.510723039215677 17.64393028846196  9.90900735294119 17.64393028846196  C 10.322610294117661 17.64393028846196  10.674938725490179 17.501201923076785  10.965992647058822 17.215745192307693  L 23.443014705882355 4.978665865384615  Z " fill-rule="nonzero" fill="#b929fe" stroke="none" transform="matrix(1 0 0 1 215 12336 )" />
    <path d="M 23.443014705882355 4.978665865384615  C 23.71875 4.708233173076923  23.856617647058822 4.3701923076923075  23.856617647058822 3.964543269230769  C 23.856617647058822 3.5438701923078324  23.71875 3.1983173076918883  23.443014705882355 2.9278846153841958  L 21.352022058823543 0.8996394230765034  C 21.060968137254896 0.6141826923074125  20.71629901960784 0.47145432692349665  20.318014705882366 0.47145432692349665  C 19.919730392156854 0.47145432692349665  19.575061274509796 0.6141826923074125  19.284007352941188 0.8996394230765034  L 9.90900735294119 10.071814903846574  L 4.71599264705881 4.978665865384615  C 4.424938725490205 4.6932091346155245  4.080269607843146 4.550480769230349  3.6819852941176334 4.550480769230349  C 3.2837009803921617 4.550480769230349  2.9390318627451024 4.6932091346155245  2.6479779411764572 4.978665865384615  L 0.5569852941176471 7.006911057692308  C 0.28125 7.27734375  0.14338235294117646 7.622896634615945  0.14338235294117646 8.043569711538881  C 0.14338235294117646 8.44921875000042  0.28125 8.787259615385036  0.5569852941176471 9.057692307692728  L 8.875000000000014 17.215745192307693  C 9.166053921568619 17.501201923076785  9.510723039215677 17.64393028846196  9.90900735294119 17.64393028846196  C 10.322610294117661 17.64393028846196  10.674938725490179 17.501201923076785  10.965992647058822 17.215745192307693  L 23.443014705882355 4.978665865384615  Z " stroke-width="2" stroke="#b929fe" fill="none" transform="matrix(1 0 0 1 215 12336 )" mask="url(#clip78)" />
  </g>
</svg>