<?xml version="1.0" encoding="utf-8"?>
<svg version="1.1" xmlns:xlink="http://www.w3.org/1999/xlink" width="35px" height="35px" xmlns="http://www.w3.org/2000/svg">
  <defs>
    <mask fill="white" id="clip77">
      <path d="M 32.65299479166668 8.7158203125  C 34.21766493055556 11.397026909722081  35 14.325086805555838  35 17.5  C 35 20.674913194444162  34.21766493055556 23.60297309027792  32.65299479166668 26.2841796875  C 31.08832465277776 28.96538628472208  28.96538628472224 31.08832465277792  26.2841796875 32.65299479166624  C 23.60297309027776 34.21766493055584  20.674913194444443 35  17.5 35  C 14.32508680555556 35  11.397026909722241 34.21766493055584  8.7158203125 32.65299479166624  C 6.03461371527776 31.08832465277792  3.91167534722224 28.96538628472208  2.3470052083333197 26.2841796875  C 0.78233506944444 23.60297309027792  0 20.674913194444162  0 17.5  C 0 14.325086805555838  0.78233506944444 11.397026909722081  2.3470052083333197 8.7158203125  C 3.91167534722224 6.034613715277919  6.03461371527776 3.9116753472220807  8.7158203125 2.3470052083337576  C 11.397026909722241 0.7823350694441615  14.32508680555556 0  17.5 0  C 20.674913194444443 0  23.60297309027776 0.7823350694441615  26.2841796875 2.3470052083337576  C 28.96538628472224 3.9116753472220807  31.08832465277776 6.034613715277919  32.65299479166668 8.7158203125  Z " fill-rule="evenodd" />
    </mask>
  </defs>
  <g transform="matrix(1 0 0 1 -209 -12326 )">
    <path d="M 32.65299479166668 8.7158203125  C 34.21766493055556 11.397026909722081  35 14.325086805555838  35 17.5  C 35 20.674913194444162  34.21766493055556 23.60297309027792  32.65299479166668 26.2841796875  C 31.08832465277776 28.96538628472208  28.96538628472224 31.08832465277792  26.2841796875 32.65299479166624  C 23.60297309027776 34.21766493055584  20.674913194444443 35  17.5 35  C 14.32508680555556 35  11.397026909722241 34.21766493055584  8.7158203125 32.65299479166624  C 6.03461371527776 31.08832465277792  3.91167534722224 28.96538628472208  2.3470052083333197 26.2841796875  C 0.78233506944444 23.60297309027792  0 20.674913194444162  0 17.5  C 0 14.325086805555838  0.78233506944444 11.397026909722081  2.3470052083333197 8.7158203125  C 3.91167534722224 6.034613715277919  6.03461371527776 3.9116753472220807  8.7158203125 2.3470052083337576  C 11.397026909722241 0.7823350694441615  14.32508680555556 0  17.5 0  C 20.674913194444443 0  23.60297309027776 0.7823350694441615  26.2841796875 2.3470052083337576  C 28.96538628472224 3.9116753472220807  31.08832465277776 6.034613715277919  32.65299479166668 8.7158203125  Z " fill-rule="nonzero" fill="#ffffff" stroke="none" transform="matrix(1 0 0 1 209 12326 )" />
    <path d="M 32.65299479166668 8.7158203125  C 34.21766493055556 11.397026909722081  35 14.325086805555838  35 17.5  C 35 20.674913194444162  34.21766493055556 23.60297309027792  32.65299479166668 26.2841796875  C 31.08832465277776 28.96538628472208  28.96538628472224 31.08832465277792  26.2841796875 32.65299479166624  C 23.60297309027776 34.21766493055584  20.674913194444443 35  17.5 35  C 14.32508680555556 35  11.397026909722241 34.21766493055584  8.7158203125 32.65299479166624  C 6.03461371527776 31.08832465277792  3.91167534722224 28.96538628472208  2.3470052083333197 26.2841796875  C 0.78233506944444 23.60297309027792  0 20.674913194444162  0 17.5  C 0 14.325086805555838  0.78233506944444 11.397026909722081  2.3470052083333197 8.7158203125  C 3.91167534722224 6.034613715277919  6.03461371527776 3.9116753472220807  8.7158203125 2.3470052083337576  C 11.397026909722241 0.7823350694441615  14.32508680555556 0  17.5 0  C 20.674913194444443 0  23.60297309027776 0.7823350694441615  26.2841796875 2.3470052083337576  C 28.96538628472224 3.9116753472220807  31.08832465277776 6.034613715277919  32.65299479166668 8.7158203125  Z " stroke-width="2" stroke="#b929fe" fill="none" transform="matrix(1 0 0 1 209 12326 )" mask="url(#clip77)" />
  </g>
</svg>