<?xml version="1.0" encoding="utf-8"?>
<svg version="1.1" xmlns:xlink="http://www.w3.org/1999/xlink" width="183px" height="285px" xmlns="http://www.w3.org/2000/svg">
  <g transform="matrix(1 0 0 1 -134 -12343 )">
    <path d="M 183 278.52272727272725  C 183 282.14999999999964  180.2588936170213 285  176.77021276595744 285  L 6.229787234042553 285  C 2.741106382978731 285  0 282.14999999999964  0 278.52272727272725  L 0 80.9659090909091  C 7.8495319148936264 80.9659090909091  14.017021276595745 75.6221590909088  14.017021276595745 68.82102272727273  C 14.017021276595745 62.01988636363666  7.8495319148936264 56.67613636363636  0 56.676667353229156  L 0 6.4772727272727275  C 0 2.8500000000003536  2.741106382978731 0  6.229787234042553 0  L 176.77021276595744 0  C 180.2588936170213 0  183 2.8500000000003536  183 6.4772727272727275  L 183 278.52272727272725  Z M 0 56.67613636363636  L 0 80.96826111497839  L 0 56.67613636363636  Z M 183 56.67613636363636  C 175.1504680851064 56.67613636363636  168.98297872340424 62.01988636363666  168.98297872340424 68.82102272727273  C 168.98297872340424 75.6221590909088  175.1504680851064 80.9659090909091  183 80.9659090909091  L 183 56.67613636363636  Z " fill-rule="nonzero" fill="#ffffff" stroke="none" transform="matrix(1 0 0 1 134 12343 )" />
  </g>
</svg>