<?xml version="1.0" encoding="utf-8"?>
<svg version="1.1" xmlns:xlink="http://www.w3.org/1999/xlink" width="30px" height="20px" xmlns="http://www.w3.org/2000/svg">
  <g transform="matrix(1 0 0 1 -163 -12537 )">
    <path d="M 12.259114583333334 6.223958333333332  C 12.671440972222223 4.852430555555554  13.44184027777778 3.702256944444444  14.5703125 2.7734375  C 13.45920138888889 2.035590277777777  12.239583333333334 1.6666666666666674  10.911458333333334 1.6666666666666674  C 10.01736111111111 1.6666666666666674  9.16015625 1.8424479166666674  8.33984375 2.1940104166666674  C 7.519531250000001 2.5455729166666674  6.814236111111112 3.0164930555555536  6.223958333333334 3.6067708333333326  C 5.633680555555555 4.197048611111109  5.162760416666667 4.900173611111109  4.811197916666667 5.716145833333332  C 4.459635416666667 6.532118055555554  4.283854166666667 7.387152777777777  4.283854166666667 8.28125  C 4.283854166666667 9.184027777777777  4.459635416666667 10.043402777777777  4.811197916666667 10.859375  C 5.162760416666667 11.675347222222223  5.633680555555555 12.378472222222218  6.223958333333334 12.96875  C 6.814236111111112 13.559027777777777  7.517361111111112 14.029947916666664  8.333333333333334 14.381510416666664  C 9.149305555555555 14.733072916666664  10.008680555555557 14.908854166666664  10.911458333333334 14.908854166666664  C 12.239583333333334 14.908854166666664  13.45920138888889 14.539930555555554  14.5703125 13.802083333333336  C 13.433159722222223 12.87326388888889  12.660590277777779 11.72092013888889  12.252604166666666 10.345052083333336  C 11.844618055555555 8.969184027777777  11.846788194444446 7.595486111111109  12.259114583333334 6.223958333333332  Z M 17.239583333333332 6.334635416666668  C 16.84027777777778 5.028211805555554  16.09375 3.9453125  15 3.0859375  C 13.90625 3.9453125  13.159722222222223 5.028211805555554  12.760416666666666 6.334635416666668  C 12.36111111111111 7.641059027777777  12.358940972222223 8.945312499999998  12.75390625 10.247395833333336  C 13.148871527777779 11.549479166666664  13.897569444444446 12.630208333333336  15 13.489583333333336  C 16.102430555555557 12.630208333333336  16.85112847222222 11.549479166666664  17.24609375 10.247395833333336  C 17.641059027777782 8.945312499999998  17.63888888888889 7.641059027777777  17.239583333333332 6.334635416666668  Z M 19.088541666666668 1.6666666666666674  C 17.760416666666664 1.6666666666666674  16.54079861111111 2.035590277777777  15.429687499999998 2.7734375  C 16.55815972222222 3.702256944444444  17.32855902777778 4.854600694444445  17.740885416666668 6.23046875  C 18.153211805555557 7.606336805555554  18.155381944444446 8.982204861111109  17.747395833333336 10.358072916666664  C 17.33940972222222 11.733940972222223  16.56684027777778 12.881944444444443  15.429687499999998 13.802083333333336  C 16.54079861111111 14.539930555555554  17.760416666666664 14.908854166666664  19.088541666666668 14.908854166666664  C 19.991319444444446 14.908854166666664  20.850694444444446 14.733072916666664  21.666666666666668 14.381510416666664  C 22.482638888888893 14.029947916666664  23.185763888888893 13.559027777777777  23.776041666666668 12.96875  C 24.366319444444446 12.378472222222218  24.837239583333336 11.675347222222223  25.188802083333336 10.859375  C 25.540364583333336 10.043402777777777  25.716145833333336 9.184027777777777  25.716145833333336 8.28125  C 25.716145833333336 7.387152777777777  25.540364583333336 6.532118055555554  25.188802083333336 5.716145833333332  C 24.837239583333336 4.900173611111109  24.366319444444446 4.197048611111109  23.776041666666668 3.6067708333333326  C 23.185763888888893 3.0164930555555536  22.480468750000004 2.5455729166666674  21.66015625 2.1940104166666674  C 20.839843750000004 1.8424479166666674  19.982638888888893 1.6666666666666674  19.088541666666668 1.6666666666666674  Z M 25.078125 12.395833333333336  L 25.078125 12.174479166666664  L 25.169270833333332 12.174479166666664  L 25.169270833333332 12.135416666666664  L 24.947916666666668 12.135416666666664  L 24.947916666666668 12.174479166666664  L 25.0390625 12.174479166666664  L 25.0390625 12.395833333333336  L 25.078125 12.395833333333336  Z M 25.455729166666668 12.200520833333336  L 25.455729166666668 12.395833333333336  L 25.5078125 12.395833333333336  L 25.5078125 12.135416666666664  L 25.442708333333332 12.135416666666664  L 25.364583333333336 12.3046875  L 25.286458333333332 12.135416666666664  L 25.221354166666668 12.135416666666664  L 25.221354166666668 12.395833333333336  L 25.260416666666664 12.395833333333336  L 25.260416666666664 12.200520833333336  L 25.338541666666668 12.369791666666664  L 25.390625 12.369791666666664  L 25.455729166666668 12.200520833333336  Z M 25.3515625 18.111979166666668  L 25.3515625 18.125  L 25.3515625 18.151041666666668  L 25.325520833333332 18.151041666666668  L 25.286458333333332 18.151041666666668  L 25.286458333333332 18.111979166666668  L 25.325520833333332 18.111979166666668  L 25.3515625 18.111979166666668  Z M 25.299479166666668 18.177083333333332  L 25.3515625 18.2421875  L 25.390625 18.2421875  L 25.338541666666668 18.177083333333332  L 25.364583333333336 18.177083333333332  L 25.377604166666664 18.1640625  C 25.38628472222223 18.155381944444443  25.390625000000004 18.14236111111111  25.390625 18.125  C 25.390625000000004 18.10763888888889  25.38628472222223 18.094618055555557  25.377604166666664 18.0859375  L 25.364583333333336 18.072916666666668  L 25.325520833333332 18.072916666666668  L 25.247395833333336 18.072916666666668  L 25.247395833333336 18.2421875  L 25.286458333333332 18.2421875  L 25.286458333333332 18.177083333333332  L 25.299479166666668 18.177083333333332  Z M 9.0625 17.760416666666668  C 8.967013888888891 17.65625  8.919270833333334 17.52170138888889  8.919270833333334 17.356770833333332  C 8.919270833333334 17.19184027777778  8.967013888888891 17.057291666666668  9.0625 16.953125  C 9.15798611111111 16.848958333333332  9.288194444444445 16.796875  9.453125 16.796875  C 9.609375 16.796875  9.735243055555555 16.85112847222222  9.830729166666666 16.959635416666668  C 9.926215277777779 17.06814236111111  9.973958333333334 17.200520833333332  9.973958333333334 17.356770833333332  C 9.973958333333334 17.52170138888889  9.926215277777779 17.65625  9.830729166666666 17.760416666666668  C 9.735243055555555 17.864583333333332  9.609375 17.916666666666668  9.453125 17.916666666666668  C 9.288194444444445 17.916666666666668  9.15798611111111 17.864583333333332  9.0625 17.760416666666668  Z M 14.622395833333332 17.200520833333332  C 14.665798611111112 16.922743055555557  14.817708333333334 16.783854166666668  15.078124999999998 16.783854166666668  C 15.338541666666666 16.783854166666668  15.49045138888889 16.922743055555557  15.533854166666664 17.200520833333332  L 14.622395833333332 17.200520833333332  Z M 19.856770833333336 17.760416666666668  C 19.761284722222225 17.65625  19.713541666666668 17.52170138888889  19.713541666666668 17.356770833333332  C 19.713541666666668 17.19184027777778  19.761284722222225 17.057291666666668  19.856770833333336 16.953125  C 19.952256944444443 16.848958333333332  20.078125 16.796875  20.234375 16.796875  C 20.390625000000004 16.796875  20.518663194444446 16.85112847222222  20.618489583333336 16.959635416666668  C 20.71831597222222 17.06814236111111  20.768229166666668 17.200520833333332  20.768229166666668 17.356770833333332  C 20.768229166666668 17.52170138888889  20.720486111111114 17.65625  20.625 17.760416666666668  C 20.52951388888889 17.864583333333332  20.399305555555557 17.916666666666668  20.234375 17.916666666666668  C 20.078125 17.916666666666668  19.952256944444443 17.864583333333332  19.856770833333336 17.760416666666668  Z M 23.404947916666668 17.75390625  C 23.30512152777778 17.645399305555557  23.255208333333336 17.513020833333332  23.255208333333336 17.356770833333332  C 23.255208333333336 17.200520833333332  23.30512152777778 17.06814236111111  23.404947916666668 16.959635416666668  C 23.50477430555556 16.85112847222222  23.632812500000004 16.796875  23.7890625 16.796875  C 23.945312500000004 16.796875  24.073350694444446 16.85112847222222  24.173177083333332 16.959635416666668  C 24.273003472222225 17.06814236111111  24.322916666666664 17.200520833333332  24.322916666666664 17.356770833333332  C 24.322916666666664 17.52170138888889  24.273003472222225 17.65625  24.173177083333332 17.760416666666668  C 24.073350694444446 17.864583333333332  23.945312500000004 17.916666666666668  23.7890625 17.916666666666668  C 23.632812500000004 17.916666666666668  23.50477430555556 17.862413194444443  23.404947916666668 17.75390625  Z M 25.364583333333336 18.28125  C 25.35590277777778 18.289930555555557  25.33854166666667 18.294270833333332  25.3125 18.294270833333332  C 25.29513888888889 18.294270833333332  25.27777777777778 18.289930555555557  25.260416666666664 18.28125  C 25.251736111111114 18.28125  25.23871527777778 18.272569444444443  25.221354166666668 18.255208333333332  C 25.20399305555556 18.23784722222222  25.195312500000004 18.22482638888889  25.1953125 18.216145833333332  C 25.186631944444446 18.19878472222222  25.182291666666668 18.18142361111111  25.182291666666668 18.1640625  C 25.182291666666668 18.138020833333332  25.186631944444446 18.12065972222222  25.1953125 18.111979166666668  C 25.195312500000004 18.094618055555557  25.20399305555556 18.077256944444443  25.221354166666668 18.059895833333332  L 25.234375 18.046875  C 25.251736111111114 18.046875  25.260416666666664 18.04253472222222  25.260416666666664 18.033854166666668  C 25.27777777777778 18.02517361111111  25.29513888888889 18.020833333333332  25.3125 18.020833333333332  C 25.33854166666667 18.020833333333332  25.35590277777778 18.02517361111111  25.364583333333336 18.033854166666668  L 25.416666666666668 18.059895833333332  L 25.442708333333332 18.111979166666668  L 25.442708333333332 18.125  C 25.45138888888889 18.14236111111111  25.455729166666668 18.155381944444443  25.455729166666668 18.1640625  L 25.442708333333332 18.177083333333332  L 25.442708333333332 18.216145833333332  C 25.442708333333332 18.216145833333332  25.438368055555557 18.22048611111111  25.4296875 18.229166666666668  L 25.416666666666668 18.255208333333332  C 25.399305555555557 18.272569444444443  25.381944444444446 18.28125  25.364583333333336 18.28125  Z M 7.799479166666667 17.265625  L 7.799479166666667 18.2421875  L 8.190104166666666 18.2421875  L 8.190104166666666 17.135416666666668  C 8.190104166666666 16.927083333333332  8.12717013888889 16.75998263888889  8.001302083333332 16.634114583333332  C 7.875434027777779 16.50824652777778  7.703993055555556 16.44097222222222  7.486979166666666 16.432291666666668  C 7.20920138888889 16.432291666666668  7.005208333333333 16.536458333333332  6.875 16.744791666666668  C 6.753472222222223 16.536458333333332  6.558159722222222 16.432291666666668  6.2890625 16.432291666666668  C 6.080729166666667 16.432291666666668  5.911458333333334 16.51909722222222  5.78125 16.692708333333332  L 5.78125 16.484375  L 5.390625 16.484375  L 5.390625 18.2421875  L 5.78125 18.2421875  L 5.78125 17.265625  C 5.781250000000001 16.953125  5.924479166666668 16.796875  6.2109375 16.796875  C 6.471354166666668 16.796875  6.601562500000001 16.953125  6.6015625 17.265625  L 6.6015625 18.2421875  L 6.979166666666667 18.2421875  L 6.979166666666667 17.265625  C 6.979166666666667 16.953125  7.122395833333333 16.796875  7.408854166666667 16.796875  C 7.669270833333333 16.796875  7.799479166666667 16.953125  7.799479166666667 17.265625  Z M 9.9609375 18.020833333333332  L 9.9609375 18.2421875  L 10.338541666666668 18.2421875  L 10.338541666666668 17.356770833333332  L 10.338541666666668 16.484375  L 9.9609375 16.484375  L 9.9609375 16.692708333333332  C 9.813368055555557 16.51909722222222  9.62673611111111 16.432291666666668  9.401041666666668 16.432291666666668  C 9.149305555555555 16.432291666666668  8.940972222222223 16.51909722222222  8.776041666666666 16.692708333333332  C 8.61111111111111 16.866319444444443  8.528645833333332 17.08767361111111  8.528645833333332 17.356770833333332  C 8.528645833333332 17.625868055555557  8.61111111111111 17.84722222222222  8.776041666666666 18.020833333333332  C 8.940972222222223 18.194444444444443  9.149305555555555 18.28125  9.401041666666668 18.28125  C 9.644097222222223 18.28125  9.830729166666666 18.194444444444443  9.9609375 18.020833333333332  Z M 12.063802083333334 18.125  C 12.20703125 18.020833333333332  12.278645833333332 17.881944444444443  12.278645833333332 17.708333333333332  C 12.278645833333332 17.413194444444443  12.074652777777779 17.239583333333332  11.666666666666666 17.1875  L 11.484375 17.161458333333332  C 11.284722222222223 17.12673611111111  11.184895833333334 17.06597222222222  11.184895833333334 16.979166666666668  C 11.184895833333334 16.848958333333332  11.293402777777779 16.783854166666668  11.510416666666668 16.783854166666668  C 11.710069444444445 16.783854166666668  11.896701388888891 16.83159722222222  12.0703125 16.927083333333332  L 12.2265625 16.614583333333332  C 12.035590277777779 16.493055555555557  11.796875 16.432291666666668  11.510416666666668 16.432291666666668  C 11.284722222222223 16.432291666666668  11.106770833333334 16.484375  10.9765625 16.588541666666668  C 10.846354166666668 16.692708333333332  10.781250000000002 16.83159722222222  10.78125 17.005208333333332  C 10.781250000000002 17.291666666666668  10.985243055555557 17.4609375  11.393229166666668 17.513020833333332  L 11.5625 17.5390625  C 11.770833333333336 17.57378472222222  11.875000000000002 17.63454861111111  11.875 17.721354166666668  C 11.875000000000002 17.86892361111111  11.74045138888889 17.942708333333332  11.471354166666666 17.942708333333332  C 11.254340277777779 17.942708333333332  11.059027777777779 17.881944444444443  10.885416666666666 17.760416666666668  L 10.716145833333334 18.059895833333332  C 10.933159722222223 18.20746527777778  11.184895833333334 18.28125  11.471354166666666 18.28125  C 11.723090277777779 18.28125  11.920572916666668 18.229166666666668  12.063802083333334 18.125  Z M 13.502604166666668 18.28125  C 13.684895833333332 18.28125  13.841145833333334 18.23784722222222  13.971354166666668 18.151041666666668  L 13.8671875 17.825520833333332  C 13.754340277777779 17.88628472222222  13.641493055555557 17.916666666666668  13.528645833333334 17.916666666666668  C 13.36371527777778 17.916666666666668  13.281250000000002 17.821180555555557  13.28125 17.630208333333332  L 13.28125 16.8359375  L 13.90625 16.8359375  L 13.90625 16.484375  L 13.28125 16.484375  L 13.28125 15.950520833333332  L 12.890625 15.950520833333332  L 12.890625 16.484375  L 12.526041666666666 16.484375  L 12.526041666666666 16.8359375  L 12.890625 16.8359375  L 12.890625 17.630208333333332  C 12.890625000000002 18.06423611111111  13.094618055555557 18.28125  13.502604166666668 18.28125  Z M 15.690104166666666 16.686197916666668  C 15.533854166666664 16.516927083333332  15.33420138888889 16.432291666666668  15.091145833333332 16.432291666666668  C 14.839409722222223 16.432291666666668  14.63107638888889 16.51909722222222  14.466145833333334 16.692708333333332  C 14.30121527777778 16.866319444444443  14.21875 17.08767361111111  14.21875 17.356770833333332  C 14.21875 17.63454861111111  14.303385416666666 17.858072916666668  14.47265625 18.02734375  C 14.641927083333334 18.196614583333332  14.856770833333332 18.28125  15.1171875 18.28125  C 15.403645833333336 18.28125  15.642361111111112 18.19878472222222  15.833333333333334 18.033854166666668  L 15.651041666666664 17.747395833333332  C 15.494791666666668 17.877604166666668  15.325520833333332 17.942708333333332  15.143229166666668 17.942708333333332  C 14.84809027777778 17.942708333333332  14.67013888888889 17.799479166666668  14.609375 17.513020833333332  L 15.924479166666666 17.513020833333332  L 15.924479166666666 17.356770833333332  C 15.924479166666666 17.078993055555557  15.846354166666668 16.85546875  15.690104166666666 16.686197916666668  Z M 17.434895833333332 16.484375  C 17.356770833333332 16.44965277777778  17.265625 16.432291666666668  17.161458333333336 16.432291666666668  C 16.961805555555557 16.432291666666668  16.809895833333336 16.51909722222222  16.705729166666664 16.692708333333332  L 16.705729166666664 16.484375  L 16.315104166666668 16.484375  L 16.315104166666668 18.2421875  L 16.705729166666664 18.2421875  L 16.705729166666664 17.252604166666668  C 16.705729166666664 16.94878472222222  16.831597222222225 16.796875  17.083333333333332 16.796875  C 17.17013888888889 16.796875  17.24826388888889 16.81423611111111  17.317708333333332 16.848958333333332  L 17.434895833333332 16.484375  Z M 17.805989583333336 16.692708333333332  C 17.63671875 16.866319444444443  17.552083333333332 17.08767361111111  17.552083333333332 17.356770833333332  C 17.552083333333332 17.625868055555557  17.63671875 17.84722222222222  17.805989583333336 18.020833333333332  C 17.975260416666668 18.194444444444443  18.203125 18.28125  18.489583333333332 18.28125  C 18.741319444444446 18.28125  18.94965277777778 18.211805555555557  19.114583333333332 18.072916666666668  L 18.932291666666664 17.760416666666668  C 18.776041666666668 17.87326388888889  18.624131944444446 17.92534722222222  18.4765625 17.916666666666668  C 18.3203125 17.916666666666668  18.192274305555557 17.864583333333332  18.092447916666668 17.760416666666668  C 17.992621527777782 17.65625  17.942708333333332 17.52170138888889  17.942708333333332 17.356770833333332  C 17.942708333333332 17.19184027777778  17.992621527777782 17.057291666666668  18.092447916666668 16.953125  C 18.192274305555557 16.848958333333332  18.3203125 16.796875  18.4765625 16.796875  C 18.641493055555557 16.796875  18.79340277777778 16.848958333333332  18.932291666666664 16.953125  L 19.114583333333332 16.640625  C 18.940972222222225 16.50173611111111  18.73263888888889 16.432291666666668  18.489583333333332 16.432291666666668  C 18.203125 16.432291666666668  17.975260416666668 16.51909722222222  17.805989583333336 16.692708333333332  Z M 20.7421875 18.020833333333332  L 20.7421875 18.2421875  L 21.1328125 18.2421875  L 21.1328125 17.356770833333332  L 21.1328125 16.484375  L 20.7421875 16.484375  L 20.7421875 16.692708333333332  C 20.61197916666667 16.51909722222222  20.429687500000004 16.432291666666668  20.1953125 16.432291666666668  C 19.94357638888889 16.432291666666668  19.733072916666668 16.51909722222222  19.563802083333336 16.692708333333332  C 19.39453125 16.866319444444443  19.309895833333332 17.08767361111111  19.309895833333332 17.356770833333332  C 19.309895833333332 17.625868055555557  19.39453125 17.84722222222222  19.563802083333336 18.020833333333332  C 19.733072916666668 18.194444444444443  19.94357638888889 18.28125  20.1953125 18.28125  C 20.438368055555557 18.28125  20.62065972222222 18.194444444444443  20.7421875 18.020833333333332  Z M 22.747395833333332 16.484375  C 22.67795138888889 16.44965277777778  22.586805555555557 16.432291666666668  22.473958333333332 16.432291666666668  C 22.274305555555557 16.432291666666668  22.122395833333332 16.51909722222222  22.018229166666668 16.692708333333332  L 22.018229166666668 16.484375  L 21.640625 16.484375  L 21.640625 18.2421875  L 22.018229166666668 18.2421875  L 22.018229166666668 17.252604166666668  C 22.018229166666668 16.94878472222222  22.14409722222222 16.796875  22.395833333333332 16.796875  C 22.48263888888889 16.796875  22.56076388888889 16.81423611111111  22.630208333333332 16.848958333333332  L 22.747395833333332 16.484375  Z M 24.296875 18.020833333333332  L 24.296875 18.2421875  L 24.674479166666664 18.2421875  L 24.674479166666664 17.356770833333332  L 24.674479166666664 15.768229166666668  L 24.296875 15.768229166666668  L 24.296875 16.692708333333332  C 24.16666666666667 16.51909722222222  23.98003472222223 16.432291666666668  23.736979166666664 16.432291666666668  C 23.493923611111114 16.432291666666668  23.287760416666668 16.52126736111111  23.118489583333332 16.69921875  C 22.94921875 16.87717013888889  22.864583333333332 17.096354166666668  22.864583333333332 17.356770833333332  C 22.864583333333332 17.6171875  22.94921875 17.83637152777778  23.118489583333332 18.014322916666668  C 23.287760416666668 18.192274305555557  23.493923611111114 18.28125  23.736979166666664 18.28125  C 23.98871527777778 18.28125  24.17534722222222 18.194444444444443  24.296875 18.020833333333332  Z M 25.3515625 17.98828125  C 25.33420138888889 17.98394097222222  25.321180555555557 17.981770833333332  25.3125 17.981770833333332  L 25.286458333333332 17.994791666666668  L 25.247395833333336 17.994791666666668  C 25.23003472222222 18.00347222222222  25.21267361111111 18.016493055555557  25.1953125 18.033854166666668  C 25.169270833333336 18.04253472222222  25.156250000000004 18.059895833333332  25.15625 18.0859375  C 25.147569444444446 18.10329861111111  25.143229166666664 18.12934027777778  25.143229166666664 18.1640625  C 25.143229166666664 18.190104166666668  25.147569444444446 18.211805555555557  25.15625 18.229166666666668  C 25.156250000000004 18.24652777777778  25.169270833333336 18.26388888888889  25.1953125 18.28125  C 25.21267361111111 18.29861111111111  25.23003472222222 18.311631944444443  25.247395833333336 18.3203125  C 25.264756944444446 18.328993055555557  25.286458333333336 18.333333333333332  25.3125 18.333333333333332  C 25.34722222222222 18.333333333333332  25.37326388888889 18.328993055555557  25.390625 18.3203125  C 25.390625000000004 18.311631944444443  25.399305555555557 18.30295138888889  25.416666666666668 18.294270833333332  L 25.442708333333332 18.28125  C 25.45138888888889 18.272569444444443  25.46440972222222 18.255208333333332  25.481770833333336 18.229166666666668  C 25.49045138888889 18.211805555555557  25.494791666666664 18.190104166666668  25.494791666666664 18.1640625  C 25.494791666666664 18.12934027777778  25.49045138888889 18.10329861111111  25.481770833333336 18.0859375  C 25.47309027777778 18.077256944444443  25.460069444444446 18.059895833333332  25.442708333333332 18.033854166666668  C 25.442708333333332 18.02517361111111  25.434027777777782 18.016493055555557  25.416666666666668 18.0078125  L 25.390625 17.994791666666668  C 25.381944444444446 17.994791666666668  25.368923611111114 17.99262152777778  25.3515625 17.98828125  Z M 29.505208333333332 0.4947916666666674  C 29.835069444444446 0.8246527777777768  30 1.2152777777777768  30 1.6666666666666674  L 30 18.333333333333332  C 30 18.78472222222222  29.835069444444446 19.17534722222222  29.505208333333332 19.505208333333332  C 29.175347222222225 19.835069444444443  28.78472222222223 20  28.333333333333332 20  L 1.6666666666666665 20  C 1.215277777777778 20  0.8246527777777778 19.835069444444443  0.4947916666666667 19.505208333333332  C 0.16493055555555555 19.17534722222222  0 18.78472222222222  0 18.333333333333332  L 0 1.6666666666666674  C 0 1.2152777777777768  0.16493055555555555 0.8246527777777768  0.4947916666666667 0.4947916666666674  C 0.8246527777777778 0.16493055555555358  1.215277777777778 0  1.6666666666666665 0  L 28.333333333333332 0  C 28.78472222222223 0  29.175347222222225 0.16493055555555358  29.505208333333332 0.4947916666666674  Z " fill-rule="nonzero" fill="#000000" stroke="none" transform="matrix(1 0 0 1 163 12537 )" />
  </g>
</svg>