<?xml version="1.0" encoding="utf-8"?>
<svg version="1.1" xmlns:xlink="http://www.w3.org/1999/xlink" width="40px" height="26px" xmlns="http://www.w3.org/2000/svg">
  <g transform="matrix(1 0 0 1 -251 -15129 )">
    <path d="M 16.34548611111111 8.091145833333332  C 16.89525462962963 6.30815972222222  17.922453703703706 4.812934027777778  19.427083333333332 3.60546875  C 17.945601851851855 2.64626736111111  16.319444444444443 2.166666666666668  14.54861111111111 2.166666666666668  C 13.356481481481481 2.166666666666668  12.213541666666668 2.395182291666668  11.119791666666668 2.852213541666668  C 10.026041666666668 3.309244791666668  9.085648148148149 3.9214409722222197  8.29861111111111 4.688802083333332  C 7.511574074074074 5.456163194444442  6.883680555555555 6.370225694444442  6.414930555555555 7.430989583333332  C 5.946180555555555 8.49175347222222  5.711805555555555 9.60329861111111  5.711805555555555 10.765625  C 5.711805555555555 11.93923611111111  5.946180555555555 13.05642361111111  6.414930555555555 14.1171875  C 6.883680555555555 15.17795138888889  7.511574074074074 16.092013888888886  8.29861111111111 16.859375  C 9.085648148148149 17.62673611111111  10.023148148148149 18.238932291666664  11.11111111111111 18.695963541666664  C 12.199074074074074 19.152994791666664  13.344907407407408 19.381510416666664  14.54861111111111 19.381510416666664  C 16.319444444444443 19.381510416666664  17.945601851851855 18.90190972222222  19.427083333333332 17.942708333333336  C 17.91087962962963 16.735243055555554  16.880787037037038 15.237196180555555  16.336805555555557 13.448567708333336  C 15.792824074074074 11.65993923611111  15.795717592592595 9.874131944444443  16.34548611111111 8.091145833333332  Z M 22.98611111111111 8.235026041666668  C 22.453703703703706 6.53667534722222  21.458333333333336 5.12890625  20 4.01171875  C 18.541666666666668 5.12890625  17.546296296296298 6.53667534722222  17.01388888888889 8.235026041666668  C 16.48148148148148 9.93337673611111  16.478587962962965 11.628906249999996  17.005208333333332 13.321614583333336  C 17.531828703703706 15.014322916666664  18.530092592592595 16.419270833333336  20 17.536458333333336  C 21.46990740740741 16.419270833333336  22.468171296296298 15.014322916666664  22.994791666666664 13.321614583333336  C 23.52141203703704 11.628906249999996  23.51851851851852 9.93337673611111  22.98611111111111 8.235026041666668  Z M 25.45138888888889 2.166666666666668  C 23.680555555555554 2.166666666666668  22.05439814814815 2.64626736111111  20.572916666666664 3.60546875  C 22.077546296296298 4.812934027777778  23.104745370370374 6.310980902777778  23.65451388888889 8.099609375  C 24.20428240740741 9.88823784722222  24.20717592592593 11.676866319444443  23.663194444444446 13.465494791666664  C 23.119212962962962 15.25412326388889  22.089120370370374 16.746527777777775  20.572916666666664 17.942708333333336  C 22.05439814814815 18.90190972222222  23.680555555555554 19.381510416666664  25.45138888888889 19.381510416666664  C 26.655092592592595 19.381510416666664  27.80092592592593 19.152994791666664  28.88888888888889 18.695963541666664  C 29.976851851851855 18.238932291666664  30.914351851851855 17.62673611111111  31.70138888888889 16.859375  C 32.48842592592593 16.092013888888886  33.11631944444444 15.17795138888889  33.58506944444444 14.1171875  C 34.05381944444444 13.05642361111111  34.28819444444444 11.93923611111111  34.28819444444444 10.765625  C 34.28819444444444 9.60329861111111  34.05381944444444 8.49175347222222  33.58506944444444 7.430989583333332  C 33.11631944444444 6.370225694444442  32.48842592592593 5.456163194444442  31.70138888888889 4.688802083333332  C 30.914351851851855 3.9214409722222197  29.97395833333334 3.309244791666668  28.880208333333336 2.852213541666668  C 27.78645833333334 2.395182291666668  26.643518518518526 2.166666666666668  25.45138888888889 2.166666666666668  Z M 33.4375 16.114583333333336  L 33.4375 15.826822916666664  L 33.55902777777778 15.826822916666664  L 33.55902777777778 15.776041666666664  L 33.263888888888886 15.776041666666664  L 33.263888888888886 15.826822916666664  L 33.385416666666664 15.826822916666664  L 33.385416666666664 16.114583333333336  L 33.4375 16.114583333333336  Z M 33.94097222222222 15.860677083333336  L 33.94097222222222 16.114583333333336  L 34.010416666666664 16.114583333333336  L 34.010416666666664 15.776041666666664  L 33.923611111111114 15.776041666666664  L 33.81944444444444 15.99609375  L 33.71527777777778 15.776041666666664  L 33.62847222222222 15.776041666666664  L 33.62847222222222 16.114583333333336  L 33.68055555555556 16.114583333333336  L 33.68055555555556 15.860677083333336  L 33.78472222222222 16.080729166666664  L 33.854166666666664 16.080729166666664  L 33.94097222222222 15.860677083333336  Z M 33.802083333333336 23.545572916666668  L 33.802083333333336 23.5625  L 33.802083333333336 23.596354166666668  L 33.767361111111114 23.596354166666668  L 33.71527777777778 23.596354166666668  L 33.71527777777778 23.545572916666668  L 33.767361111111114 23.545572916666668  L 33.802083333333336 23.545572916666668  Z M 33.732638888888886 23.630208333333332  L 33.802083333333336 23.71484375  L 33.854166666666664 23.71484375  L 33.78472222222222 23.630208333333332  L 33.81944444444444 23.630208333333332  L 33.83680555555556 23.61328125  C 33.84837962962963 23.60199652777778  33.85416666666667 23.585069444444443  33.854166666666664 23.5625  C 33.85416666666667 23.539930555555557  33.84837962962963 23.52300347222222  33.83680555555556 23.51171875  L 33.81944444444444 23.494791666666668  L 33.767361111111114 23.494791666666668  L 33.66319444444444 23.494791666666668  L 33.66319444444444 23.71484375  L 33.71527777777778 23.71484375  L 33.71527777777778 23.630208333333332  L 33.732638888888886 23.630208333333332  Z M 12.083333333333332 23.088541666666668  C 11.95601851851852 22.953125  11.89236111111111 22.778211805555557  11.89236111111111 22.563802083333332  C 11.89236111111111 22.34939236111111  11.95601851851852 22.174479166666668  12.083333333333332 22.0390625  C 12.210648148148149 21.903645833333332  12.38425925925926 21.8359375  12.604166666666668 21.8359375  C 12.8125 21.8359375  12.980324074074074 21.90646701388889  13.10763888888889 22.047526041666668  C 13.234953703703704 22.188585069444443  13.29861111111111 22.360677083333332  13.29861111111111 22.563802083333332  C 13.29861111111111 22.778211805555557  13.234953703703704 22.953125  13.10763888888889 23.088541666666668  C 12.980324074074074 23.223958333333332  12.8125 23.291666666666668  12.604166666666668 23.291666666666668  C 12.38425925925926 23.291666666666668  12.210648148148149 23.223958333333332  12.083333333333332 23.088541666666668  Z M 19.49652777777778 22.360677083333332  C 19.554398148148152 21.99956597222222  19.756944444444443 21.819010416666668  20.104166666666664 21.819010416666668  C 20.45138888888889 21.819010416666668  20.653935185185187 21.99956597222222  20.711805555555554 22.360677083333332  L 19.49652777777778 22.360677083333332  Z M 26.475694444444446 23.088541666666668  C 26.348379629629633 22.953125  26.28472222222222 22.778211805555557  26.28472222222222 22.563802083333332  C 26.28472222222222 22.34939236111111  26.348379629629633 22.174479166666668  26.475694444444446 22.0390625  C 26.603009259259256 21.903645833333332  26.770833333333336 21.8359375  26.979166666666664 21.8359375  C 27.187500000000004 21.8359375  27.358217592592595 21.90646701388889  27.491319444444446 22.047526041666668  C 27.624421296296298 22.188585069444443  27.69097222222222 22.360677083333332  27.69097222222222 22.563802083333332  C 27.69097222222222 22.778211805555557  27.627314814814817 22.953125  27.5 23.088541666666668  C 27.372685185185187 23.223958333333332  27.199074074074076 23.291666666666668  26.979166666666664 23.291666666666668  C 26.770833333333336 23.291666666666668  26.603009259259256 23.223958333333332  26.475694444444446 23.088541666666668  Z M 31.20659722222222 23.080078125  C 31.073495370370374 22.93901909722222  31.006944444444446 22.766927083333332  31.006944444444446 22.563802083333332  C 31.006944444444446 22.360677083333332  31.073495370370374 22.188585069444443  31.20659722222222 22.047526041666668  C 31.33969907407408 21.90646701388889  31.51041666666667 21.8359375  31.71875 21.8359375  C 31.92708333333334 21.8359375  32.09780092592593 21.90646701388889  32.23090277777778 22.047526041666668  C 32.36400462962963 22.188585069444443  32.43055555555556 22.360677083333332  32.43055555555556 22.563802083333332  C 32.43055555555556 22.778211805555557  32.36400462962963 22.953125  32.23090277777778 23.088541666666668  C 32.09780092592593 23.223958333333332  31.92708333333334 23.291666666666668  31.71875 23.291666666666668  C 31.51041666666667 23.291666666666668  31.33969907407408 23.22113715277778  31.20659722222222 23.080078125  Z M 33.81944444444444 23.765625  C 33.807870370370374 23.77690972222222  33.78472222222223 23.782552083333332  33.75 23.782552083333332  C 33.72685185185185 23.782552083333332  33.70370370370371 23.77690972222222  33.68055555555556 23.765625  C 33.66898148148148 23.765625  33.651620370370374 23.75434027777778  33.62847222222222 23.731770833333332  C 33.605324074074076 23.70920138888889  33.59375000000001 23.692274305555557  33.59375 23.680989583333332  C 33.58217592592593 23.65842013888889  33.576388888888886 23.635850694444443  33.576388888888886 23.61328125  C 33.576388888888886 23.579427083333332  33.58217592592593 23.55685763888889  33.59375 23.545572916666668  C 33.59375000000001 23.52300347222222  33.605324074074076 23.50043402777778  33.62847222222222 23.477864583333332  L 33.645833333333336 23.4609375  C 33.66898148148148 23.4609375  33.68055555555556 23.45529513888889  33.68055555555556 23.444010416666668  C 33.70370370370371 23.432725694444443  33.72685185185185 23.427083333333332  33.75 23.427083333333332  C 33.78472222222223 23.427083333333332  33.807870370370374 23.432725694444443  33.81944444444444 23.444010416666668  L 33.888888888888886 23.477864583333332  L 33.923611111111114 23.545572916666668  L 33.923611111111114 23.5625  C 33.93518518518518 23.585069444444443  33.94097222222222 23.60199652777778  33.94097222222222 23.61328125  L 33.923611111111114 23.630208333333332  L 33.923611111111114 23.680989583333332  C 33.923611111111114 23.680989583333332  33.917824074074076 23.686631944444443  33.90625 23.697916666666668  L 33.888888888888886 23.731770833333332  C 33.86574074074075 23.75434027777778  33.842592592592595 23.765625  33.81944444444444 23.765625  Z M 10.399305555555555 22.4453125  L 10.399305555555555 23.71484375  L 10.92013888888889 23.71484375  L 10.92013888888889 22.276041666666668  C 10.92013888888889 22.005208333333332  10.836226851851853 21.787977430555557  10.668402777777777 21.624348958333332  C 10.500578703703704 21.46072048611111  10.271990740740742 21.37326388888889  9.98263888888889 21.361979166666668  C 9.612268518518519 21.361979166666668  9.340277777777779 21.497395833333332  9.166666666666666 21.768229166666668  C 9.004629629629632 21.497395833333332  8.744212962962962 21.361979166666668  8.385416666666666 21.361979166666668  C 8.10763888888889 21.361979166666668  7.8819444444444455 21.47482638888889  7.708333333333334 21.700520833333332  L 7.708333333333334 21.4296875  L 7.1875 21.4296875  L 7.1875 23.71484375  L 7.708333333333334 23.71484375  L 7.708333333333334 22.4453125  C 7.708333333333335 22.0390625  7.899305555555557 21.8359375  8.28125 21.8359375  C 8.628472222222223 21.8359375  8.802083333333336 22.0390625  8.802083333333334 22.4453125  L 8.802083333333334 23.71484375  L 9.305555555555555 23.71484375  L 9.305555555555555 22.4453125  C 9.305555555555555 22.0390625  9.496527777777779 21.8359375  9.878472222222221 21.8359375  C 10.225694444444445 21.8359375  10.399305555555555 22.0390625  10.399305555555555 22.4453125  Z M 13.28125 23.427083333333332  L 13.28125 23.71484375  L 13.784722222222223 23.71484375  L 13.784722222222223 22.563802083333332  L 13.784722222222223 21.4296875  L 13.28125 21.4296875  L 13.28125 21.700520833333332  C 13.084490740740742 21.47482638888889  12.835648148148149 21.361979166666668  12.534722222222223 21.361979166666668  C 12.199074074074074 21.361979166666668  11.921296296296298 21.47482638888889  11.70138888888889 21.700520833333332  C 11.481481481481481 21.92621527777778  11.371527777777777 22.213975694444443  11.371527777777777 22.563802083333332  C 11.371527777777777 22.91362847222222  11.481481481481481 23.20138888888889  11.70138888888889 23.427083333333332  C 11.921296296296298 23.65277777777778  12.199074074074074 23.765625  12.534722222222223 23.765625  C 12.858796296296298 23.765625  13.10763888888889 23.65277777777778  13.28125 23.427083333333332  Z M 16.085069444444443 23.5625  C 16.276041666666668 23.427083333333332  16.37152777777778 23.24652777777778  16.37152777777778 23.020833333333332  C 16.37152777777778 22.63715277777778  16.099537037037038 22.411458333333332  15.555555555555555 22.34375  L 15.3125 22.309895833333332  C 15.046296296296298 22.264756944444443  14.913194444444445 22.18576388888889  14.913194444444445 22.072916666666668  C 14.913194444444445 21.903645833333332  15.057870370370372 21.819010416666668  15.347222222222223 21.819010416666668  C 15.613425925925926 21.819010416666668  15.86226851851852 21.88107638888889  16.09375 22.005208333333332  L 16.302083333333332 21.598958333333332  C 16.047453703703706 21.44097222222222  15.729166666666668 21.361979166666668  15.347222222222223 21.361979166666668  C 15.046296296296298 21.361979166666668  14.809027777777779 21.4296875  14.635416666666668 21.565104166666668  C 14.461805555555557 21.700520833333332  14.375000000000002 21.88107638888889  14.375 22.106770833333332  C 14.375000000000002 22.479166666666668  14.646990740740742 22.69921875  15.190972222222223 22.766927083333332  L 15.416666666666668 22.80078125  C 15.694444444444446 22.84592013888889  15.833333333333336 22.924913194444443  15.833333333333332 23.037760416666668  C 15.833333333333336 23.229600694444443  15.653935185185187 23.325520833333332  15.29513888888889 23.325520833333332  C 15.005787037037038 23.325520833333332  14.745370370370372 23.24652777777778  14.51388888888889 23.088541666666668  L 14.288194444444445 23.477864583333332  C 14.577546296296298 23.66970486111111  14.913194444444445 23.765625  15.29513888888889 23.765625  C 15.630787037037038 23.765625  15.894097222222223 23.697916666666668  16.085069444444443 23.5625  Z M 18.00347222222222 23.765625  C 18.24652777777778 23.765625  18.45486111111111 23.70920138888889  18.62847222222222 23.596354166666668  L 18.489583333333332 23.173177083333332  C 18.339120370370374 23.25217013888889  18.18865740740741 23.291666666666668  18.038194444444443 23.291666666666668  C 17.818287037037038 23.291666666666668  17.708333333333336 23.16753472222222  17.708333333333332 22.919270833333332  L 17.708333333333332 21.88671875  L 18.541666666666668 21.88671875  L 18.541666666666668 21.4296875  L 17.708333333333332 21.4296875  L 17.708333333333332 20.735677083333332  L 17.1875 20.735677083333332  L 17.1875 21.4296875  L 16.70138888888889 21.4296875  L 16.70138888888889 21.88671875  L 17.1875 21.88671875  L 17.1875 22.919270833333332  C 17.187500000000004 23.483506944444443  17.45949074074074 23.765625  18.00347222222222 23.765625  Z M 20.92013888888889 21.692057291666668  C 20.711805555555554 21.472005208333332  20.44560185185185 21.361979166666668  20.12152777777778 21.361979166666668  C 19.78587962962963 21.361979166666668  19.508101851851855 21.47482638888889  19.288194444444443 21.700520833333332  C 19.068287037037038 21.92621527777778  18.958333333333332 22.213975694444443  18.958333333333332 22.563802083333332  C 18.958333333333332 22.924913194444443  19.071180555555557 23.215494791666668  19.296875 23.435546875  C 19.522569444444443 23.655598958333332  19.80902777777778 23.765625  20.15625 23.765625  C 20.538194444444446 23.765625  20.856481481481485 23.65842013888889  21.11111111111111 23.444010416666668  L 20.868055555555554 23.071614583333332  C 20.65972222222222 23.240885416666668  20.43402777777778 23.325520833333332  20.19097222222222 23.325520833333332  C 19.797453703703706 23.325520833333332  19.560185185185187 23.139322916666668  19.479166666666668 22.766927083333332  L 21.23263888888889 22.766927083333332  L 21.23263888888889 22.563802083333332  C 21.23263888888889 22.20269097222222  21.12847222222222 21.912109375  20.92013888888889 21.692057291666668  Z M 23.24652777777778 21.4296875  C 23.14236111111111 21.38454861111111  23.020833333333336 21.361979166666668  22.881944444444446 21.361979166666668  C 22.615740740740744 21.361979166666668  22.413194444444446 21.47482638888889  22.274305555555554 21.700520833333332  L 22.274305555555554 21.4296875  L 21.75347222222222 21.4296875  L 21.75347222222222 23.71484375  L 22.274305555555554 23.71484375  L 22.274305555555554 22.428385416666668  C 22.274305555555554 22.03342013888889  22.442129629629633 21.8359375  22.77777777777778 21.8359375  C 22.89351851851852 21.8359375  22.997685185185187 21.858506944444443  23.09027777777778 21.903645833333332  L 23.24652777777778 21.4296875  Z M 23.741319444444446 21.700520833333332  C 23.515625 21.92621527777778  23.40277777777778 22.213975694444443  23.40277777777778 22.563802083333332  C 23.40277777777778 22.91362847222222  23.515625 23.20138888888889  23.741319444444446 23.427083333333332  C 23.96701388888889 23.65277777777778  24.270833333333336 23.765625  24.65277777777778 23.765625  C 24.98842592592593 23.765625  25.266203703703706 23.67534722222222  25.48611111111111 23.494791666666668  L 25.243055555555554 23.088541666666668  C 25.03472222222222 23.235243055555557  24.83217592592593 23.30295138888889  24.635416666666664 23.291666666666668  C 24.427083333333336 23.291666666666668  24.256365740740744 23.223958333333332  24.12326388888889 23.088541666666668  C 23.99016203703704 22.953125  23.92361111111111 22.778211805555557  23.92361111111111 22.563802083333332  C 23.92361111111111 22.34939236111111  23.99016203703704 22.174479166666668  24.12326388888889 22.0390625  C 24.256365740740744 21.903645833333332  24.427083333333336 21.8359375  24.635416666666664 21.8359375  C 24.855324074074076 21.8359375  25.057870370370374 21.903645833333332  25.243055555555554 22.0390625  L 25.48611111111111 21.6328125  C 25.254629629629633 21.452256944444443  24.97685185185185 21.361979166666668  24.65277777777778 21.361979166666668  C 24.270833333333336 21.361979166666668  23.96701388888889 21.47482638888889  23.741319444444446 21.700520833333332  Z M 27.65625 23.427083333333332  L 27.65625 23.71484375  L 28.177083333333336 23.71484375  L 28.177083333333336 22.563802083333332  L 28.177083333333336 21.4296875  L 27.65625 21.4296875  L 27.65625 21.700520833333332  C 27.482638888888893 21.47482638888889  27.23958333333334 21.361979166666668  26.927083333333336 21.361979166666668  C 26.591435185185187 21.361979166666668  26.31076388888889 21.47482638888889  26.085069444444446 21.700520833333332  C 25.859375 21.92621527777778  25.74652777777778 22.213975694444443  25.74652777777778 22.563802083333332  C 25.74652777777778 22.91362847222222  25.859375 23.20138888888889  26.085069444444446 23.427083333333332  C 26.31076388888889 23.65277777777778  26.591435185185187 23.765625  26.927083333333336 23.765625  C 27.25115740740741 23.765625  27.494212962962962 23.65277777777778  27.65625 23.427083333333332  Z M 30.32986111111111 21.4296875  C 30.23726851851852 21.38454861111111  30.115740740740744 21.361979166666668  29.96527777777778 21.361979166666668  C 29.699074074074076 21.361979166666668  29.49652777777778 21.47482638888889  29.35763888888889 21.700520833333332  L 29.35763888888889 21.4296875  L 28.854166666666664 21.4296875  L 28.854166666666664 23.71484375  L 29.35763888888889 23.71484375  L 29.35763888888889 22.428385416666668  C 29.35763888888889 22.03342013888889  29.525462962962962 21.8359375  29.86111111111111 21.8359375  C 29.97685185185185 21.8359375  30.08101851851852 21.858506944444443  30.17361111111111 21.903645833333332  L 30.32986111111111 21.4296875  Z M 32.395833333333336 23.427083333333332  L 32.395833333333336 23.71484375  L 32.89930555555556 23.71484375  L 32.89930555555556 22.563802083333332  L 32.89930555555556 20.498697916666668  L 32.395833333333336 20.498697916666668  L 32.395833333333336 21.700520833333332  C 32.22222222222223 21.47482638888889  31.973379629629637 21.361979166666668  31.649305555555554 21.361979166666668  C 31.325231481481485 21.361979166666668  31.05034722222222 21.477647569444443  30.82465277777778 21.708984375  C 30.598958333333336 21.940321180555557  30.48611111111111 22.225260416666668  30.48611111111111 22.563802083333332  C 30.48611111111111 22.90234375  30.598958333333336 23.18728298611111  30.82465277777778 23.418619791666668  C 31.05034722222222 23.64995659722222  31.325231481481485 23.765625  31.649305555555554 23.765625  C 31.984953703703706 23.765625  32.2337962962963 23.65277777777778  32.395833333333336 23.427083333333332  Z M 33.802083333333336 23.384765625  C 33.77893518518518 23.37912326388889  33.761574074074076 23.376302083333332  33.75 23.376302083333332  L 33.71527777777778 23.393229166666668  L 33.66319444444444 23.393229166666668  C 33.6400462962963 23.40451388888889  33.61689814814815 23.42144097222222  33.59375 23.444010416666668  C 33.55902777777778 23.45529513888889  33.54166666666667 23.477864583333332  33.541666666666664 23.51171875  C 33.530092592592595 23.534288194444443  33.52430555555556 23.56814236111111  33.52430555555556 23.61328125  C 33.52430555555556 23.647135416666668  33.530092592592595 23.67534722222222  33.541666666666664 23.697916666666668  C 33.54166666666667 23.72048611111111  33.55902777777778 23.743055555555557  33.59375 23.765625  C 33.61689814814815 23.788194444444443  33.6400462962963 23.80512152777778  33.66319444444444 23.81640625  C 33.686342592592595 23.82769097222222  33.71527777777778 23.833333333333332  33.75 23.833333333333332  C 33.7962962962963 23.833333333333332  33.83101851851852 23.82769097222222  33.854166666666664 23.81640625  C 33.85416666666667 23.80512152777778  33.86574074074075 23.793836805555557  33.888888888888886 23.782552083333332  L 33.923611111111114 23.765625  C 33.93518518518518 23.75434027777778  33.9525462962963 23.731770833333332  33.97569444444444 23.697916666666668  C 33.98726851851852 23.67534722222222  33.99305555555556 23.647135416666668  33.99305555555556 23.61328125  C 33.99305555555556 23.56814236111111  33.98726851851852 23.534288194444443  33.97569444444444 23.51171875  C 33.964120370370374 23.50043402777778  33.94675925925926 23.477864583333332  33.923611111111114 23.444010416666668  C 33.923611111111114 23.432725694444443  33.91203703703704 23.42144097222222  33.888888888888886 23.41015625  L 33.854166666666664 23.393229166666668  C 33.842592592592595 23.393229166666668  33.82523148148148 23.39040798611111  33.802083333333336 23.384765625  Z M 39.34027777777778 0.6432291666666676  C 39.780092592592595 1.0720486111111098  40 1.5798611111111098  40 2.166666666666668  L 40 23.833333333333332  C 40 24.42013888888889  39.780092592592595 24.92795138888889  39.34027777777778 25.356770833333332  C 38.90046296296297 25.78559027777778  38.37962962962963 26  37.77777777777778 26  L 2.2222222222222223 26  C 1.6203703703703707 26  1.099537037037037 25.78559027777778  0.6597222222222222 25.356770833333332  C 0.2199074074074074 24.92795138888889  0 24.42013888888889  0 23.833333333333332  L 0 2.166666666666668  C 0 1.5798611111111098  0.2199074074074074 1.0720486111111098  0.6597222222222222 0.6432291666666676  C 1.099537037037037 0.21440972222221966  1.6203703703703707 0  2.2222222222222223 0  L 37.77777777777778 0  C 38.37962962962963 0  38.90046296296297 0.21440972222221966  39.34027777777778 0.6432291666666676  Z " fill-rule="nonzero" fill="#000000" stroke="none" transform="matrix(1 0 0 1 251 15129 )" />
  </g>
</svg>