<?xml version="1.0" encoding="utf-8"?>
<svg version="1.1" xmlns:xlink="http://www.w3.org/1999/xlink" width="25px" height="25px" xmlns="http://www.w3.org/2000/svg">
  <g transform="matrix(1 0 0 1 -460 -3642 )">
    <path d="M 460 3642  L 485 3642  L 485 3667  L 460 3667  L 460 3642  " fill-rule="nonzero" fill="#cccccc" stroke="none" />
    <path d="M 462 3644  L 483 3644  L 483 3665  L 462 3665  L 462 3644  " fill-rule="nonzero" fill="#ffffff" stroke="none" />
    <path d="M 474.875 3649.5  C 473.825 3649.5  473 3648.675  473 3647.625  C 473 3646.575  473.825 3645.75  474.875 3645.75  C 475.925 3645.75  476.75 3646.575  476.75 3647.625  C 476.75 3648.675  475.925 3649.5  474.875 3649.5  " fill-rule="nonzero" fill="#cccccc" stroke="none" />
    <path d="M 463 3665  L 463 3654  L 468 3649  L 475 3653  L 479 3652  L 483 3653  L 483 3665  L 463 3665  " fill-rule="nonzero" fill="#169bd5" stroke="none" />
  </g>
</svg>