<?xml version="1.0" encoding="utf-8"?>
<svg version="1.1" xmlns:xlink="http://www.w3.org/1999/xlink" width="18px" height="18px" xmlns="http://www.w3.org/2000/svg">
  <defs>
    <mask fill="white" id="clip8">
      <path d="M 7.875 15.0703125  C 8.078125 15.0703125  8.25390625 14.996093750000002  8.40234375 14.84765625  L 13.72265625 9.52734375  C 13.871093750000002 9.378906249999998  13.9453125 9.203124999999998  13.9453125 9  C 13.9453125 8.796875  13.871093750000002 8.62109375  13.72265625 8.47265625  L 8.40234375 3.152343750000001  C 8.25390625 3.0039062499999982  8.078125 2.929687499999999  7.875 2.929687499999999  C 7.671875000000001 2.929687499999999  7.496093750000001 3.0039062499999982  7.34765625 3.152343750000001  L 6.15234375 4.347656250000001  C 6.003906250000001 4.496093749999999  5.9296875 4.671874999999999  5.9296875 4.875000000000001  C 5.9296875 5.078124999999998  6.003906250000001 5.253906249999998  6.15234375 5.402343750000001  L 9.75 9  L 6.15234375 12.597656250000002  C 6.003906250000001 12.74609375  5.9296875 12.921875  5.9296875 13.125000000000002  C 5.9296875 13.328125  6.003906250000001 13.50390625  6.15234375 13.65234375  L 7.34765625 14.84765625  C 7.496093750000001 14.996093750000002  7.671875000000001 15.0703125  7.875 15.0703125  Z M 16.79296875 4.482421875  C 17.597656249999996 5.861328124999998  18 7.367187499999997  18 9  C 18 10.6328125  17.597656249999996 12.138671874999998  16.79296875 13.517578125  C 15.988281250000002 14.896484375  14.896484375 15.98828125  13.517578125 16.79296875  C 12.138671875000002 17.59765625  10.6328125 18  9 18  C 7.367187500000001 18  5.861328125 17.59765625  4.482421875 16.79296875  C 3.1035156250000004 15.98828125  2.01171875 14.896484375  1.20703125 13.517578125  C 0.40234374999999994 12.138671874999998  0 10.6328125  0 9  C 0 7.367187499999997  0.40234374999999994 5.861328124999998  1.20703125 4.482421875  C 2.01171875 3.103515625  3.1035156250000004 2.0117187499999982  4.482421875 1.2070312499999993  C 5.861328125 0.40234374999999845  7.367187500000001 0  9 0  C 10.6328125 0  12.138671875000002 0.40234374999999845  13.517578125 1.2070312499999993  C 14.896484375 2.0117187499999982  15.988281250000002 3.103515625  16.79296875 4.482421875  Z " fill-rule="evenodd" />
    </mask>
  </defs>
  <g transform="matrix(1 0 0 1 -590 -3645 )">
    <path d="M 7.875 15.0703125  C 8.078125 15.0703125  8.25390625 14.996093750000002  8.40234375 14.84765625  L 13.72265625 9.52734375  C 13.871093750000002 9.378906249999998  13.9453125 9.203124999999998  13.9453125 9  C 13.9453125 8.796875  13.871093750000002 8.62109375  13.72265625 8.47265625  L 8.40234375 3.152343750000001  C 8.25390625 3.0039062499999982  8.078125 2.929687499999999  7.875 2.929687499999999  C 7.671875000000001 2.929687499999999  7.496093750000001 3.0039062499999982  7.34765625 3.152343750000001  L 6.15234375 4.347656250000001  C 6.003906250000001 4.496093749999999  5.9296875 4.671874999999999  5.9296875 4.875000000000001  C 5.9296875 5.078124999999998  6.003906250000001 5.253906249999998  6.15234375 5.402343750000001  L 9.75 9  L 6.15234375 12.597656250000002  C 6.003906250000001 12.74609375  5.9296875 12.921875  5.9296875 13.125000000000002  C 5.9296875 13.328125  6.003906250000001 13.50390625  6.15234375 13.65234375  L 7.34765625 14.84765625  C 7.496093750000001 14.996093750000002  7.671875000000001 15.0703125  7.875 15.0703125  Z M 16.79296875 4.482421875  C 17.597656249999996 5.861328124999998  18 7.367187499999997  18 9  C 18 10.6328125  17.597656249999996 12.138671874999998  16.79296875 13.517578125  C 15.988281250000002 14.896484375  14.896484375 15.98828125  13.517578125 16.79296875  C 12.138671875000002 17.59765625  10.6328125 18  9 18  C 7.367187500000001 18  5.861328125 17.59765625  4.482421875 16.79296875  C 3.1035156250000004 15.98828125  2.01171875 14.896484375  1.20703125 13.517578125  C 0.40234374999999994 12.138671874999998  0 10.6328125  0 9  C 0 7.367187499999997  0.40234374999999994 5.861328124999998  1.20703125 4.482421875  C 2.01171875 3.103515625  3.1035156250000004 2.0117187499999982  4.482421875 1.2070312499999993  C 5.861328125 0.40234374999999845  7.367187500000001 0  9 0  C 10.6328125 0  12.138671875000002 0.40234374999999845  13.517578125 1.2070312499999993  C 14.896484375 2.0117187499999982  15.988281250000002 3.103515625  16.79296875 4.482421875  Z " fill-rule="nonzero" fill="#000000" stroke="none" fill-opacity="0" transform="matrix(1 0 0 1 590 3645 )" />
    <path d="M 7.875 15.0703125  C 8.078125 15.0703125  8.25390625 14.996093750000002  8.40234375 14.84765625  L 13.72265625 9.52734375  C 13.871093750000002 9.378906249999998  13.9453125 9.203124999999998  13.9453125 9  C 13.9453125 8.796875  13.871093750000002 8.62109375  13.72265625 8.47265625  L 8.40234375 3.152343750000001  C 8.25390625 3.0039062499999982  8.078125 2.929687499999999  7.875 2.929687499999999  C 7.671875000000001 2.929687499999999  7.496093750000001 3.0039062499999982  7.34765625 3.152343750000001  L 6.15234375 4.347656250000001  C 6.003906250000001 4.496093749999999  5.9296875 4.671874999999999  5.9296875 4.875000000000001  C 5.9296875 5.078124999999998  6.003906250000001 5.253906249999998  6.15234375 5.402343750000001  L 9.75 9  L 6.15234375 12.597656250000002  C 6.003906250000001 12.74609375  5.9296875 12.921875  5.9296875 13.125000000000002  C 5.9296875 13.328125  6.003906250000001 13.50390625  6.15234375 13.65234375  L 7.34765625 14.84765625  C 7.496093750000001 14.996093750000002  7.671875000000001 15.0703125  7.875 15.0703125  Z " stroke-width="2" stroke="#797979" fill="none" transform="matrix(1 0 0 1 590 3645 )" mask="url(#clip8)" />
    <path d="M 16.79296875 4.482421875  C 17.597656249999996 5.861328124999998  18 7.367187499999997  18 9  C 18 10.6328125  17.597656249999996 12.138671874999998  16.79296875 13.517578125  C 15.988281250000002 14.896484375  14.896484375 15.98828125  13.517578125 16.79296875  C 12.138671875000002 17.59765625  10.6328125 18  9 18  C 7.367187500000001 18  5.861328125 17.59765625  4.482421875 16.79296875  C 3.1035156250000004 15.98828125  2.01171875 14.896484375  1.20703125 13.517578125  C 0.40234374999999994 12.138671874999998  0 10.6328125  0 9  C 0 7.367187499999997  0.40234374999999994 5.861328124999998  1.20703125 4.482421875  C 2.01171875 3.103515625  3.1035156250000004 2.0117187499999982  4.482421875 1.2070312499999993  C 5.861328125 0.40234374999999845  7.367187500000001 0  9 0  C 10.6328125 0  12.138671875000002 0.40234374999999845  13.517578125 1.2070312499999993  C 14.896484375 2.0117187499999982  15.988281250000002 3.103515625  16.79296875 4.482421875  Z " stroke-width="2" stroke="#797979" fill="none" transform="matrix(1 0 0 1 590 3645 )" mask="url(#clip8)" />
  </g>
</svg>