<?xml version="1.0" encoding="utf-8"?>
<svg version="1.1" xmlns:xlink="http://www.w3.org/1999/xlink" width="16px" height="16px" xmlns="http://www.w3.org/2000/svg">
  <defs>
    <mask fill="white" id="clip47">
      <path d="M 7 13.395833333333334  C 7.180555555555556 13.395833333333334  7.336805555555556 13.329861111111112  7.46875 13.197916666666666  L 12.197916666666666 8.46875  C 12.329861111111112 8.336805555555554  12.395833333333334 8.180555555555554  12.395833333333334 8  C 12.395833333333334 7.819444444444445  12.329861111111112 7.663194444444445  12.197916666666666 7.53125  L 7.46875 2.802083333333334  C 7.336805555555556 2.6701388888888875  7.180555555555556 2.604166666666666  7 2.604166666666666  C 6.8194444444444455 2.604166666666666  6.6631944444444455 2.6701388888888875  6.53125 2.802083333333334  L 5.46875 3.864583333333334  C 5.336805555555556 3.996527777777777  5.270833333333333 4.152777777777777  5.270833333333333 4.333333333333334  C 5.270833333333333 4.5138888888888875  5.336805555555556 4.6701388888888875  5.46875 4.802083333333334  L 8.666666666666666 8  L 5.46875 11.197916666666668  C 5.336805555555556 11.32986111111111  5.270833333333333 11.48611111111111  5.270833333333333 11.666666666666668  C 5.270833333333333 11.847222222222221  5.336805555555556 12.003472222222221  5.46875 12.135416666666666  L 6.53125 13.197916666666666  C 6.6631944444444455 13.329861111111112  6.8194444444444455 13.395833333333334  7 13.395833333333334  Z M 14.927083333333334 3.984375  C 15.642361111111109 5.210069444444443  16 6.548611111111109  16 8  C 16 9.45138888888889  15.642361111111109 10.789930555555554  14.927083333333334 12.015625  C 14.211805555555557 13.241319444444445  13.241319444444445 14.211805555555555  12.015625 14.927083333333334  C 10.789930555555557 15.642361111111112  9.45138888888889 16  8 16  C 6.548611111111112 16  5.210069444444445 15.642361111111112  3.984375 14.927083333333334  C 2.758680555555556 14.211805555555555  1.7881944444444446 13.241319444444445  1.0729166666666667 12.015625  C 0.35763888888888884 10.789930555555554  0 9.45138888888889  0 8  C 0 6.548611111111109  0.35763888888888884 5.210069444444443  1.0729166666666667 3.984375  C 1.7881944444444446 2.7586805555555554  2.758680555555556 1.7881944444444429  3.984375 1.072916666666666  C 5.210069444444445 0.3576388888888875  6.548611111111112 0  8 0  C 9.45138888888889 0  10.789930555555557 0.3576388888888875  12.015625 1.072916666666666  C 13.241319444444445 1.7881944444444429  14.211805555555557 2.7586805555555554  14.927083333333334 3.984375  Z " fill-rule="evenodd" />
    </mask>
  </defs>
  <g transform="matrix(1 0 0 1 -642 -2861 )">
    <path d="M 7 13.395833333333334  C 7.180555555555556 13.395833333333334  7.336805555555556 13.329861111111112  7.46875 13.197916666666666  L 12.197916666666666 8.46875  C 12.329861111111112 8.336805555555554  12.395833333333334 8.180555555555554  12.395833333333334 8  C 12.395833333333334 7.819444444444445  12.329861111111112 7.663194444444445  12.197916666666666 7.53125  L 7.46875 2.802083333333334  C 7.336805555555556 2.6701388888888875  7.180555555555556 2.604166666666666  7 2.604166666666666  C 6.8194444444444455 2.604166666666666  6.6631944444444455 2.6701388888888875  6.53125 2.802083333333334  L 5.46875 3.864583333333334  C 5.336805555555556 3.996527777777777  5.270833333333333 4.152777777777777  5.270833333333333 4.333333333333334  C 5.270833333333333 4.5138888888888875  5.336805555555556 4.6701388888888875  5.46875 4.802083333333334  L 8.666666666666666 8  L 5.46875 11.197916666666668  C 5.336805555555556 11.32986111111111  5.270833333333333 11.48611111111111  5.270833333333333 11.666666666666668  C 5.270833333333333 11.847222222222221  5.336805555555556 12.003472222222221  5.46875 12.135416666666666  L 6.53125 13.197916666666666  C 6.6631944444444455 13.329861111111112  6.8194444444444455 13.395833333333334  7 13.395833333333334  Z M 14.927083333333334 3.984375  C 15.642361111111109 5.210069444444443  16 6.548611111111109  16 8  C 16 9.45138888888889  15.642361111111109 10.789930555555554  14.927083333333334 12.015625  C 14.211805555555557 13.241319444444445  13.241319444444445 14.211805555555555  12.015625 14.927083333333334  C 10.789930555555557 15.642361111111112  9.45138888888889 16  8 16  C 6.548611111111112 16  5.210069444444445 15.642361111111112  3.984375 14.927083333333334  C 2.758680555555556 14.211805555555555  1.7881944444444446 13.241319444444445  1.0729166666666667 12.015625  C 0.35763888888888884 10.789930555555554  0 9.45138888888889  0 8  C 0 6.548611111111109  0.35763888888888884 5.210069444444443  1.0729166666666667 3.984375  C 1.7881944444444446 2.7586805555555554  2.758680555555556 1.7881944444444429  3.984375 1.072916666666666  C 5.210069444444445 0.3576388888888875  6.548611111111112 0  8 0  C 9.45138888888889 0  10.789930555555557 0.3576388888888875  12.015625 1.072916666666666  C 13.241319444444445 1.7881944444444429  14.211805555555557 2.7586805555555554  14.927083333333334 3.984375  Z " fill-rule="nonzero" fill="#000000" stroke="none" fill-opacity="0" transform="matrix(1 0 0 1 642 2861 )" />
    <path d="M 7 13.395833333333334  C 7.180555555555556 13.395833333333334  7.336805555555556 13.329861111111112  7.46875 13.197916666666666  L 12.197916666666666 8.46875  C 12.329861111111112 8.336805555555554  12.395833333333334 8.180555555555554  12.395833333333334 8  C 12.395833333333334 7.819444444444445  12.329861111111112 7.663194444444445  12.197916666666666 7.53125  L 7.46875 2.802083333333334  C 7.336805555555556 2.6701388888888875  7.180555555555556 2.604166666666666  7 2.604166666666666  C 6.8194444444444455 2.604166666666666  6.6631944444444455 2.6701388888888875  6.53125 2.802083333333334  L 5.46875 3.864583333333334  C 5.336805555555556 3.996527777777777  5.270833333333333 4.152777777777777  5.270833333333333 4.333333333333334  C 5.270833333333333 4.5138888888888875  5.336805555555556 4.6701388888888875  5.46875 4.802083333333334  L 8.666666666666666 8  L 5.46875 11.197916666666668  C 5.336805555555556 11.32986111111111  5.270833333333333 11.48611111111111  5.270833333333333 11.666666666666668  C 5.270833333333333 11.847222222222221  5.336805555555556 12.003472222222221  5.46875 12.135416666666666  L 6.53125 13.197916666666666  C 6.6631944444444455 13.329861111111112  6.8194444444444455 13.395833333333334  7 13.395833333333334  Z " stroke-width="2" stroke="#797979" fill="none" transform="matrix(1 0 0 1 642 2861 )" mask="url(#clip47)" />
    <path d="M 14.927083333333334 3.984375  C 15.642361111111109 5.210069444444443  16 6.548611111111109  16 8  C 16 9.45138888888889  15.642361111111109 10.789930555555554  14.927083333333334 12.015625  C 14.211805555555557 13.241319444444445  13.241319444444445 14.211805555555555  12.015625 14.927083333333334  C 10.789930555555557 15.642361111111112  9.45138888888889 16  8 16  C 6.548611111111112 16  5.210069444444445 15.642361111111112  3.984375 14.927083333333334  C 2.758680555555556 14.211805555555555  1.7881944444444446 13.241319444444445  1.0729166666666667 12.015625  C 0.35763888888888884 10.789930555555554  0 9.45138888888889  0 8  C 0 6.548611111111109  0.35763888888888884 5.210069444444443  1.0729166666666667 3.984375  C 1.7881944444444446 2.7586805555555554  2.758680555555556 1.7881944444444429  3.984375 1.072916666666666  C 5.210069444444445 0.3576388888888875  6.548611111111112 0  8 0  C 9.45138888888889 0  10.789930555555557 0.3576388888888875  12.015625 1.072916666666666  C 13.241319444444445 1.7881944444444429  14.211805555555557 2.7586805555555554  14.927083333333334 3.984375  Z " stroke-width="2" stroke="#797979" fill="none" transform="matrix(1 0 0 1 642 2861 )" mask="url(#clip47)" />
  </g>
</svg>