<?xml version="1.0" encoding="utf-8"?>
<svg version="1.1" xmlns:xlink="http://www.w3.org/1999/xlink" width="25px" height="25px" xmlns="http://www.w3.org/2000/svg">
  <defs>
    <mask fill="white" id="clip7">
      <path d="M 10.9375 20.930989583333336  C 11.219618055555557 20.930989583333336  11.463758680555557 20.827907986111114  11.669921875 20.621744791666664  L 19.059244791666664 13.232421875  C 19.265407986111114 13.026258680555552  19.368489583333336 12.782118055555552  19.368489583333336 12.5  C 19.368489583333336 12.217881944444445  19.265407986111114 11.973741319444445  19.059244791666664 11.767578125  L 11.669921875 4.378255208333334  C 11.463758680555557 4.172092013888887  11.219618055555557 4.069010416666666  10.9375 4.069010416666666  C 10.655381944444446 4.069010416666666  10.411241319444446 4.172092013888887  10.205078125 4.378255208333334  L 8.544921875 6.038411458333334  C 8.338758680555557 6.244574652777776  8.235677083333332 6.488715277777776  8.235677083333332 6.770833333333334  C 8.235677083333332 7.052951388888887  8.338758680555557 7.297092013888887  8.544921875 7.503255208333334  L 13.541666666666666 12.5  L 8.544921875 17.496744791666668  C 8.338758680555557 17.70290798611111  8.235677083333332 17.94704861111111  8.235677083333332 18.229166666666668  C 8.235677083333332 18.51128472222222  8.338758680555557 18.75542534722222  8.544921875 18.961588541666664  L 10.205078125 20.621744791666664  C 10.411241319444446 20.827907986111114  10.655381944444446 20.930989583333336  10.9375 20.930989583333336  Z M 23.323567708333336 6.2255859375  C 24.441189236111107 8.140733506944443  25 10.232204861111107  25 12.5  C 25 14.76779513888889  24.441189236111107 16.859266493055554  23.323567708333336 18.7744140625  C 22.205946180555557 20.689561631944446  20.689561631944446 22.205946180555554  18.7744140625 23.323567708333336  C 16.859266493055557 24.441189236111114  14.76779513888889 25  12.5 25  C 10.232204861111112 25  8.140733506944445 24.441189236111114  6.2255859375 23.323567708333336  C 4.310438368055556 22.205946180555554  2.7940538194444446 20.689561631944446  1.6764322916666667 18.7744140625  C 0.5588107638888888 16.859266493055554  0 14.76779513888889  0 12.5  C 0 10.232204861111107  0.5588107638888888 8.140733506944443  1.6764322916666667 6.2255859375  C 2.7940538194444446 4.310438368055555  4.310438368055556 2.794053819444442  6.2255859375 1.6764322916666656  C 8.140733506944445 0.5588107638888867  10.232204861111112 0  12.5 0  C 14.76779513888889 0  16.859266493055557 0.5588107638888867  18.7744140625 1.6764322916666656  C 20.689561631944446 2.794053819444442  22.205946180555557 4.310438368055555  23.323567708333336 6.2255859375  Z " fill-rule="evenodd" />
    </mask>
  </defs>
  <g transform="matrix(1 0 0 1 -459 -498 )">
    <path d="M 10.9375 20.930989583333336  C 11.219618055555557 20.930989583333336  11.463758680555557 20.827907986111114  11.669921875 20.621744791666664  L 19.059244791666664 13.232421875  C 19.265407986111114 13.026258680555552  19.368489583333336 12.782118055555552  19.368489583333336 12.5  C 19.368489583333336 12.217881944444445  19.265407986111114 11.973741319444445  19.059244791666664 11.767578125  L 11.669921875 4.378255208333334  C 11.463758680555557 4.172092013888887  11.219618055555557 4.069010416666666  10.9375 4.069010416666666  C 10.655381944444446 4.069010416666666  10.411241319444446 4.172092013888887  10.205078125 4.378255208333334  L 8.544921875 6.038411458333334  C 8.338758680555557 6.244574652777776  8.235677083333332 6.488715277777776  8.235677083333332 6.770833333333334  C 8.235677083333332 7.052951388888887  8.338758680555557 7.297092013888887  8.544921875 7.503255208333334  L 13.541666666666666 12.5  L 8.544921875 17.496744791666668  C 8.338758680555557 17.70290798611111  8.235677083333332 17.94704861111111  8.235677083333332 18.229166666666668  C 8.235677083333332 18.51128472222222  8.338758680555557 18.75542534722222  8.544921875 18.961588541666664  L 10.205078125 20.621744791666664  C 10.411241319444446 20.827907986111114  10.655381944444446 20.930989583333336  10.9375 20.930989583333336  Z M 23.323567708333336 6.2255859375  C 24.441189236111107 8.140733506944443  25 10.232204861111107  25 12.5  C 25 14.76779513888889  24.441189236111107 16.859266493055554  23.323567708333336 18.7744140625  C 22.205946180555557 20.689561631944446  20.689561631944446 22.205946180555554  18.7744140625 23.323567708333336  C 16.859266493055557 24.441189236111114  14.76779513888889 25  12.5 25  C 10.232204861111112 25  8.140733506944445 24.441189236111114  6.2255859375 23.323567708333336  C 4.310438368055556 22.205946180555554  2.7940538194444446 20.689561631944446  1.6764322916666667 18.7744140625  C 0.5588107638888888 16.859266493055554  0 14.76779513888889  0 12.5  C 0 10.232204861111107  0.5588107638888888 8.140733506944443  1.6764322916666667 6.2255859375  C 2.7940538194444446 4.310438368055555  4.310438368055556 2.794053819444442  6.2255859375 1.6764322916666656  C 8.140733506944445 0.5588107638888867  10.232204861111112 0  12.5 0  C 14.76779513888889 0  16.859266493055557 0.5588107638888867  18.7744140625 1.6764322916666656  C 20.689561631944446 2.794053819444442  22.205946180555557 4.310438368055555  23.323567708333336 6.2255859375  Z " fill-rule="nonzero" fill="#000000" stroke="none" fill-opacity="0" transform="matrix(1 0 0 1 459 498 )" />
    <path d="M 10.9375 20.930989583333336  C 11.219618055555557 20.930989583333336  11.463758680555557 20.827907986111114  11.669921875 20.621744791666664  L 19.059244791666664 13.232421875  C 19.265407986111114 13.026258680555552  19.368489583333336 12.782118055555552  19.368489583333336 12.5  C 19.368489583333336 12.217881944444445  19.265407986111114 11.973741319444445  19.059244791666664 11.767578125  L 11.669921875 4.378255208333334  C 11.463758680555557 4.172092013888887  11.219618055555557 4.069010416666666  10.9375 4.069010416666666  C 10.655381944444446 4.069010416666666  10.411241319444446 4.172092013888887  10.205078125 4.378255208333334  L 8.544921875 6.038411458333334  C 8.338758680555557 6.244574652777776  8.235677083333332 6.488715277777776  8.235677083333332 6.770833333333334  C 8.235677083333332 7.052951388888887  8.338758680555557 7.297092013888887  8.544921875 7.503255208333334  L 13.541666666666666 12.5  L 8.544921875 17.496744791666668  C 8.338758680555557 17.70290798611111  8.235677083333332 17.94704861111111  8.235677083333332 18.229166666666668  C 8.235677083333332 18.51128472222222  8.338758680555557 18.75542534722222  8.544921875 18.961588541666664  L 10.205078125 20.621744791666664  C 10.411241319444446 20.827907986111114  10.655381944444446 20.930989583333336  10.9375 20.930989583333336  Z " stroke-width="2" stroke="#b929fe" fill="none" transform="matrix(1 0 0 1 459 498 )" mask="url(#clip7)" />
    <path d="M 23.323567708333336 6.2255859375  C 24.441189236111107 8.140733506944443  25 10.232204861111107  25 12.5  C 25 14.76779513888889  24.441189236111107 16.859266493055554  23.323567708333336 18.7744140625  C 22.205946180555557 20.689561631944446  20.689561631944446 22.205946180555554  18.7744140625 23.323567708333336  C 16.859266493055557 24.441189236111114  14.76779513888889 25  12.5 25  C 10.232204861111112 25  8.140733506944445 24.441189236111114  6.2255859375 23.323567708333336  C 4.310438368055556 22.205946180555554  2.7940538194444446 20.689561631944446  1.6764322916666667 18.7744140625  C 0.5588107638888888 16.859266493055554  0 14.76779513888889  0 12.5  C 0 10.232204861111107  0.5588107638888888 8.140733506944443  1.6764322916666667 6.2255859375  C 2.7940538194444446 4.310438368055555  4.310438368055556 2.794053819444442  6.2255859375 1.6764322916666656  C 8.140733506944445 0.5588107638888867  10.232204861111112 0  12.5 0  C 14.76779513888889 0  16.859266493055557 0.5588107638888867  18.7744140625 1.6764322916666656  C 20.689561631944446 2.794053819444442  22.205946180555557 4.310438368055555  23.323567708333336 6.2255859375  Z " stroke-width="2" stroke="#b929fe" fill="none" transform="matrix(1 0 0 1 459 498 )" mask="url(#clip7)" />
  </g>
</svg>