<?xml version="1.0" encoding="utf-8"?>
<svg version="1.1" xmlns:xlink="http://www.w3.org/1999/xlink" width="4px" height="4px" xmlns="http://www.w3.org/2000/svg">
  <g transform="matrix(1 0 0 1 -355 -3225 )">
    <path d="M 3.8653846153846154 1.434152488972905  C 3.9551282051282053 1.4492753623188408  4 1.4879227053140096  4 1.5500945179584122  C 4 1.5870615416929215  3.979166666666667 1.6273892039487499  3.9375 1.6710775047258979  L 3.0649038461538463 2.563327032136106  L 3.2716346153846154 3.8235664776307496  C 3.2732371794871797 3.8353287124553668  3.2740384615384617 3.8521319050619613  3.2740384615384617 3.8739760554505356  C 3.2740384615384617 3.9092627599243857  3.265625 3.939088426801092  3.248798076923077 3.963453056080655  C 3.2319711538461537 3.9878176853602185  3.2075320512820515 4  3.175480769230769 4  C 3.1450320512820515 4  3.112980769230769 3.989918084436043  3.079326923076923 3.9697542533081287  L 2 3.3749212350346567  L 0.9206730769230769 3.9697542533081287  C 0.8854166666666667 3.989918084436043  0.8533653846153846 4  0.8245192307692307 4  C 0.7908653846153846 4  0.765625 3.9878176853602185  0.7487980769230769 3.963453056080655  C 0.7319711538461539 3.939088426801092  0.7235576923076923 3.9092627599243857  0.7235576923076923 3.8739760554505356  C 0.7235576923076923 3.8638941398865785  0.7251602564102565 3.847090947279983  0.7283653846153846 3.8235664776307496  L 0.9350961538461539 2.563327032136106  L 0.06009615384615385 1.6710775047258979  C 0.02003205128205128 1.6257088846880907  0 1.5853812224322623  0 1.5500945179584122  C 0 1.4879227053140096  0.044871794871794865 1.4492753623188408  0.1346153846153846 1.434152488972905  L 1.3413461538461537 1.2501575299306866  L 1.8822115384615385 0.10333963453056061  C 1.9126602564102566 0.034446544843520055  1.9519230769230769 0  2 0  C 2.048076923076923 0  2.0873397435897436 0.034446544843520055  2.1177884615384617 0.10333963453056061  L 2.6586538461538463 1.2501575299306866  L 3.8653846153846154 1.434152488972905  Z " fill-rule="nonzero" fill="#000000" stroke="none" transform="matrix(1 0 0 1 355 3225 )" />
  </g>
</svg>