<?xml version="1.0" encoding="utf-8"?>
<svg version="1.1" xmlns:xlink="http://www.w3.org/1999/xlink" width="18px" height="18px" xmlns="http://www.w3.org/2000/svg">
  <defs>
    <mask fill="white" id="clip9">
      <path d="M 14.02734375 10.277343750000002  C 14.17578125 10.12890625  14.25 9.953125  14.25 9.750000000000002  L 14.25 8.25  C 14.25 8.046874999999998  14.17578125 7.871093749999999  14.02734375 7.722656250000001  C 13.878906250000002 7.57421875  13.703125000000002 7.499999999999999  13.5 7.499999999999999  L 10.5 7.499999999999999  L 10.5 4.5  C 10.5 4.296874999999998  10.425781250000002 4.121093749999998  10.27734375 3.97265625  C 10.128906250000002 3.82421875  9.953125000000002 3.750000000000001  9.75 3.750000000000001  L 8.25 3.750000000000001  C 8.046875 3.750000000000001  7.871093750000001 3.82421875  7.72265625 3.97265625  C 7.57421875 4.121093749999998  7.5 4.296874999999998  7.5 4.5  L 7.5 7.499999999999999  L 4.5 7.499999999999999  C 4.296875 7.499999999999999  4.12109375 7.57421875  3.97265625 7.722656250000001  C 3.8242187500000004 7.871093749999999  3.75 8.046874999999998  3.75 8.25  L 3.75 9.750000000000002  C 3.75 9.953125  3.8242187500000004 10.12890625  3.97265625 10.277343750000002  C 4.12109375 10.42578125  4.296875 10.499999999999998  4.5 10.499999999999998  L 7.5 10.499999999999998  L 7.5 13.5  C 7.5 13.703125  7.57421875 13.87890625  7.72265625 14.02734375  C 7.871093750000001 14.17578125  8.046875 14.25  8.25 14.25  L 9.75 14.25  C 9.953125000000002 14.25  10.128906250000002 14.17578125  10.27734375 14.02734375  C 10.425781250000002 13.87890625  10.5 13.703125  10.5 13.5  L 10.5 10.499999999999998  L 13.5 10.499999999999998  C 13.703125000000002 10.499999999999998  13.878906250000002 10.42578125  14.02734375 10.277343750000002  Z M 16.79296875 4.482421875  C 17.597656249999996 5.861328124999998  18 7.367187499999997  18 9  C 18 10.6328125  17.597656249999996 12.138671874999998  16.79296875 13.517578125  C 15.988281250000002 14.896484375  14.896484375 15.98828125  13.517578125 16.79296875  C 12.138671875000002 17.59765625  10.6328125 18  9 18  C 7.367187500000001 18  5.861328125 17.59765625  4.482421875 16.79296875  C 3.1035156250000004 15.98828125  2.01171875 14.896484375  1.20703125 13.517578125  C 0.40234374999999994 12.138671874999998  0 10.6328125  0 9  C 0 7.367187499999997  0.40234374999999994 5.861328124999998  1.20703125 4.482421875  C 2.01171875 3.103515625  3.1035156250000004 2.0117187499999982  4.482421875 1.2070312499999993  C 5.861328125 0.40234374999999845  7.367187500000001 0  9 0  C 10.6328125 0  12.138671875000002 0.40234374999999845  13.517578125 1.2070312499999993  C 14.896484375 2.0117187499999982  15.988281250000002 3.103515625  16.79296875 4.482421875  Z " fill-rule="evenodd" />
    </mask>
  </defs>
  <g transform="matrix(1 0 0 1 -305 -4169 )">
    <path d="M 14.02734375 10.277343750000002  C 14.17578125 10.12890625  14.25 9.953125  14.25 9.750000000000002  L 14.25 8.25  C 14.25 8.046874999999998  14.17578125 7.871093749999999  14.02734375 7.722656250000001  C 13.878906250000002 7.57421875  13.703125000000002 7.499999999999999  13.5 7.499999999999999  L 10.5 7.499999999999999  L 10.5 4.5  C 10.5 4.296874999999998  10.425781250000002 4.121093749999998  10.27734375 3.97265625  C 10.128906250000002 3.82421875  9.953125000000002 3.750000000000001  9.75 3.750000000000001  L 8.25 3.750000000000001  C 8.046875 3.750000000000001  7.871093750000001 3.82421875  7.72265625 3.97265625  C 7.57421875 4.121093749999998  7.5 4.296874999999998  7.5 4.5  L 7.5 7.499999999999999  L 4.5 7.499999999999999  C 4.296875 7.499999999999999  4.12109375 7.57421875  3.97265625 7.722656250000001  C 3.8242187500000004 7.871093749999999  3.75 8.046874999999998  3.75 8.25  L 3.75 9.750000000000002  C 3.75 9.953125  3.8242187500000004 10.12890625  3.97265625 10.277343750000002  C 4.12109375 10.42578125  4.296875 10.499999999999998  4.5 10.499999999999998  L 7.5 10.499999999999998  L 7.5 13.5  C 7.5 13.703125  7.57421875 13.87890625  7.72265625 14.02734375  C 7.871093750000001 14.17578125  8.046875 14.25  8.25 14.25  L 9.75 14.25  C 9.953125000000002 14.25  10.128906250000002 14.17578125  10.27734375 14.02734375  C 10.425781250000002 13.87890625  10.5 13.703125  10.5 13.5  L 10.5 10.499999999999998  L 13.5 10.499999999999998  C 13.703125000000002 10.499999999999998  13.878906250000002 10.42578125  14.02734375 10.277343750000002  Z M 16.79296875 4.482421875  C 17.597656249999996 5.861328124999998  18 7.367187499999997  18 9  C 18 10.6328125  17.597656249999996 12.138671874999998  16.79296875 13.517578125  C 15.988281250000002 14.896484375  14.896484375 15.98828125  13.517578125 16.79296875  C 12.138671875000002 17.59765625  10.6328125 18  9 18  C 7.367187500000001 18  5.861328125 17.59765625  4.482421875 16.79296875  C 3.1035156250000004 15.98828125  2.01171875 14.896484375  1.20703125 13.517578125  C 0.40234374999999994 12.138671874999998  0 10.6328125  0 9  C 0 7.367187499999997  0.40234374999999994 5.861328124999998  1.20703125 4.482421875  C 2.01171875 3.103515625  3.1035156250000004 2.0117187499999982  4.482421875 1.2070312499999993  C 5.861328125 0.40234374999999845  7.367187500000001 0  9 0  C 10.6328125 0  12.138671875000002 0.40234374999999845  13.517578125 1.2070312499999993  C 14.896484375 2.0117187499999982  15.988281250000002 3.103515625  16.79296875 4.482421875  Z " fill-rule="nonzero" fill="#ffffff" stroke="none" transform="matrix(1 0 0 1 305 4169 )" />
    <path d="M 14.02734375 10.277343750000002  C 14.17578125 10.12890625  14.25 9.953125  14.25 9.750000000000002  L 14.25 8.25  C 14.25 8.046874999999998  14.17578125 7.871093749999999  14.02734375 7.722656250000001  C 13.878906250000002 7.57421875  13.703125000000002 7.499999999999999  13.5 7.499999999999999  L 10.5 7.499999999999999  L 10.5 4.5  C 10.5 4.296874999999998  10.425781250000002 4.121093749999998  10.27734375 3.97265625  C 10.128906250000002 3.82421875  9.953125000000002 3.750000000000001  9.75 3.750000000000001  L 8.25 3.750000000000001  C 8.046875 3.750000000000001  7.871093750000001 3.82421875  7.72265625 3.97265625  C 7.57421875 4.121093749999998  7.5 4.296874999999998  7.5 4.5  L 7.5 7.499999999999999  L 4.5 7.499999999999999  C 4.296875 7.499999999999999  4.12109375 7.57421875  3.97265625 7.722656250000001  C 3.8242187500000004 7.871093749999999  3.75 8.046874999999998  3.75 8.25  L 3.75 9.750000000000002  C 3.75 9.953125  3.8242187500000004 10.12890625  3.97265625 10.277343750000002  C 4.12109375 10.42578125  4.296875 10.499999999999998  4.5 10.499999999999998  L 7.5 10.499999999999998  L 7.5 13.5  C 7.5 13.703125  7.57421875 13.87890625  7.72265625 14.02734375  C 7.871093750000001 14.17578125  8.046875 14.25  8.25 14.25  L 9.75 14.25  C 9.953125000000002 14.25  10.128906250000002 14.17578125  10.27734375 14.02734375  C 10.425781250000002 13.87890625  10.5 13.703125  10.5 13.5  L 10.5 10.499999999999998  L 13.5 10.499999999999998  C 13.703125000000002 10.499999999999998  13.878906250000002 10.42578125  14.02734375 10.277343750000002  Z " stroke-width="2" stroke="#797979" fill="none" transform="matrix(1 0 0 1 305 4169 )" mask="url(#clip9)" />
    <path d="M 16.79296875 4.482421875  C 17.597656249999996 5.861328124999998  18 7.367187499999997  18 9  C 18 10.6328125  17.597656249999996 12.138671874999998  16.79296875 13.517578125  C 15.988281250000002 14.896484375  14.896484375 15.98828125  13.517578125 16.79296875  C 12.138671875000002 17.59765625  10.6328125 18  9 18  C 7.367187500000001 18  5.861328125 17.59765625  4.482421875 16.79296875  C 3.1035156250000004 15.98828125  2.01171875 14.896484375  1.20703125 13.517578125  C 0.40234374999999994 12.138671874999998  0 10.6328125  0 9  C 0 7.367187499999997  0.40234374999999994 5.861328124999998  1.20703125 4.482421875  C 2.01171875 3.103515625  3.1035156250000004 2.0117187499999982  4.482421875 1.2070312499999993  C 5.861328125 0.40234374999999845  7.367187500000001 0  9 0  C 10.6328125 0  12.138671875000002 0.40234374999999845  13.517578125 1.2070312499999993  C 14.896484375 2.0117187499999982  15.988281250000002 3.103515625  16.79296875 4.482421875  Z " stroke-width="2" stroke="#797979" fill="none" transform="matrix(1 0 0 1 305 4169 )" mask="url(#clip9)" />
  </g>
</svg>