<?xml version="1.0" encoding="utf-8"?>
<svg version="1.1" xmlns:xlink="http://www.w3.org/1999/xlink" width="14px" height="14px" xmlns="http://www.w3.org/2000/svg">
  <defs>
    <mask fill="white" id="clip49">
      <path d="M 10.91015625 7.993489583333334  C 11.02560763888889 7.878038194444444  11.083333333333332 7.741319444444444  11.083333333333332 7.583333333333334  L 11.083333333333332 6.416666666666667  C 11.083333333333332 6.2586805555555545  11.02560763888889 6.1219618055555545  10.91015625 6.006510416666667  C 10.794704861111112 5.891059027777779  10.657986111111112 5.833333333333333  10.5 5.833333333333333  L 8.166666666666668 5.833333333333333  L 8.166666666666668 3.5  C 8.166666666666668 3.3420138888888875  8.108940972222223 3.2052951388888875  7.993489583333333 3.08984375  C 7.8780381944444455 2.9743923611111107  7.7413194444444455 2.916666666666667  7.583333333333333 2.916666666666667  L 6.416666666666666 2.916666666666667  C 6.258680555555556 2.916666666666667  6.121961805555556 2.9743923611111107  6.006510416666666 3.08984375  C 5.891059027777779 3.2052951388888875  5.833333333333334 3.3420138888888875  5.833333333333334 3.5  L 5.833333333333334 5.833333333333333  L 3.5 5.833333333333333  C 3.3420138888888893 5.833333333333333  3.2052951388888893 5.891059027777779  3.08984375 6.006510416666667  C 2.974392361111111 6.1219618055555545  2.916666666666667 6.2586805555555545  2.916666666666667 6.416666666666667  L 2.916666666666667 7.583333333333334  C 2.916666666666667 7.741319444444444  2.974392361111111 7.878038194444444  3.08984375 7.993489583333334  C 3.2052951388888893 8.108940972222221  3.3420138888888893 8.166666666666666  3.5 8.166666666666666  L 5.833333333333334 8.166666666666666  L 5.833333333333334 10.5  C 5.833333333333334 10.65798611111111  5.891059027777779 10.79470486111111  6.006510416666666 10.91015625  C 6.121961805555556 11.02560763888889  6.258680555555556 11.083333333333332  6.416666666666666 11.083333333333332  L 7.583333333333333 11.083333333333332  C 7.7413194444444455 11.083333333333332  7.8780381944444455 11.02560763888889  7.993489583333333 10.91015625  C 8.108940972222223 10.79470486111111  8.166666666666668 10.65798611111111  8.166666666666668 10.5  L 8.166666666666668 8.166666666666666  L 10.5 8.166666666666666  C 10.657986111111112 8.166666666666666  10.794704861111112 8.108940972222221  10.91015625 7.993489583333334  Z M 13.061197916666668 3.486328125  C 13.68706597222222 4.5588107638888875  14 5.7300347222222205  14 7  C 14 8.269965277777779  13.68706597222222 9.441189236111109  13.061197916666668 10.513671875  C 12.435329861111112 11.58615451388889  11.58615451388889 12.43532986111111  10.513671875 13.061197916666668  C 9.441189236111112 13.687065972222223  8.269965277777779 14  7 14  C 5.730034722222222 14  4.558810763888889 13.687065972222223  3.486328125 13.061197916666668  C 2.413845486111111 12.43532986111111  1.564670138888889 11.58615451388889  0.9388020833333334 10.513671875  C 0.31293402777777773 9.441189236111109  0 8.269965277777779  0 7  C 0 5.7300347222222205  0.31293402777777773 4.5588107638888875  0.9388020833333334 3.486328125  C 1.564670138888889 2.4138454861111107  2.413845486111111 1.5646701388888875  3.486328125 0.9388020833333328  C 4.558810763888889 0.31293402777777657  5.730034722222222 0  7 0  C 8.269965277777779 0  9.441189236111112 0.31293402777777657  10.513671875 0.9388020833333328  C 11.58615451388889 1.5646701388888875  12.435329861111112 2.4138454861111107  13.061197916666668 3.486328125  Z " fill-rule="evenodd" />
    </mask>
  </defs>
  <g transform="matrix(1 0 0 1 -218 -3703 )">
    <path d="M 10.91015625 7.993489583333334  C 11.02560763888889 7.878038194444444  11.083333333333332 7.741319444444444  11.083333333333332 7.583333333333334  L 11.083333333333332 6.416666666666667  C 11.083333333333332 6.2586805555555545  11.02560763888889 6.1219618055555545  10.91015625 6.006510416666667  C 10.794704861111112 5.891059027777779  10.657986111111112 5.833333333333333  10.5 5.833333333333333  L 8.166666666666668 5.833333333333333  L 8.166666666666668 3.5  C 8.166666666666668 3.3420138888888875  8.108940972222223 3.2052951388888875  7.993489583333333 3.08984375  C 7.8780381944444455 2.9743923611111107  7.7413194444444455 2.916666666666667  7.583333333333333 2.916666666666667  L 6.416666666666666 2.916666666666667  C 6.258680555555556 2.916666666666667  6.121961805555556 2.9743923611111107  6.006510416666666 3.08984375  C 5.891059027777779 3.2052951388888875  5.833333333333334 3.3420138888888875  5.833333333333334 3.5  L 5.833333333333334 5.833333333333333  L 3.5 5.833333333333333  C 3.3420138888888893 5.833333333333333  3.2052951388888893 5.891059027777779  3.08984375 6.006510416666667  C 2.974392361111111 6.1219618055555545  2.916666666666667 6.2586805555555545  2.916666666666667 6.416666666666667  L 2.916666666666667 7.583333333333334  C 2.916666666666667 7.741319444444444  2.974392361111111 7.878038194444444  3.08984375 7.993489583333334  C 3.2052951388888893 8.108940972222221  3.3420138888888893 8.166666666666666  3.5 8.166666666666666  L 5.833333333333334 8.166666666666666  L 5.833333333333334 10.5  C 5.833333333333334 10.65798611111111  5.891059027777779 10.79470486111111  6.006510416666666 10.91015625  C 6.121961805555556 11.02560763888889  6.258680555555556 11.083333333333332  6.416666666666666 11.083333333333332  L 7.583333333333333 11.083333333333332  C 7.7413194444444455 11.083333333333332  7.8780381944444455 11.02560763888889  7.993489583333333 10.91015625  C 8.108940972222223 10.79470486111111  8.166666666666668 10.65798611111111  8.166666666666668 10.5  L 8.166666666666668 8.166666666666666  L 10.5 8.166666666666666  C 10.657986111111112 8.166666666666666  10.794704861111112 8.108940972222221  10.91015625 7.993489583333334  Z M 13.061197916666668 3.486328125  C 13.68706597222222 4.5588107638888875  14 5.7300347222222205  14 7  C 14 8.269965277777779  13.68706597222222 9.441189236111109  13.061197916666668 10.513671875  C 12.435329861111112 11.58615451388889  11.58615451388889 12.43532986111111  10.513671875 13.061197916666668  C 9.441189236111112 13.687065972222223  8.269965277777779 14  7 14  C 5.730034722222222 14  4.558810763888889 13.687065972222223  3.486328125 13.061197916666668  C 2.413845486111111 12.43532986111111  1.564670138888889 11.58615451388889  0.9388020833333334 10.513671875  C 0.31293402777777773 9.441189236111109  0 8.269965277777779  0 7  C 0 5.7300347222222205  0.31293402777777773 4.5588107638888875  0.9388020833333334 3.486328125  C 1.564670138888889 2.4138454861111107  2.413845486111111 1.5646701388888875  3.486328125 0.9388020833333328  C 4.558810763888889 0.31293402777777657  5.730034722222222 0  7 0  C 8.269965277777779 0  9.441189236111112 0.31293402777777657  10.513671875 0.9388020833333328  C 11.58615451388889 1.5646701388888875  12.435329861111112 2.4138454861111107  13.061197916666668 3.486328125  Z " fill-rule="nonzero" fill="#d7d7d7" stroke="none" fill-opacity="0" transform="matrix(1 0 0 1 218 3703 )" />
    <path d="M 10.91015625 7.993489583333334  C 11.02560763888889 7.878038194444444  11.083333333333332 7.741319444444444  11.083333333333332 7.583333333333334  L 11.083333333333332 6.416666666666667  C 11.083333333333332 6.2586805555555545  11.02560763888889 6.1219618055555545  10.91015625 6.006510416666667  C 10.794704861111112 5.891059027777779  10.657986111111112 5.833333333333333  10.5 5.833333333333333  L 8.166666666666668 5.833333333333333  L 8.166666666666668 3.5  C 8.166666666666668 3.3420138888888875  8.108940972222223 3.2052951388888875  7.993489583333333 3.08984375  C 7.8780381944444455 2.9743923611111107  7.7413194444444455 2.916666666666667  7.583333333333333 2.916666666666667  L 6.416666666666666 2.916666666666667  C 6.258680555555556 2.916666666666667  6.121961805555556 2.9743923611111107  6.006510416666666 3.08984375  C 5.891059027777779 3.2052951388888875  5.833333333333334 3.3420138888888875  5.833333333333334 3.5  L 5.833333333333334 5.833333333333333  L 3.5 5.833333333333333  C 3.3420138888888893 5.833333333333333  3.2052951388888893 5.891059027777779  3.08984375 6.006510416666667  C 2.974392361111111 6.1219618055555545  2.916666666666667 6.2586805555555545  2.916666666666667 6.416666666666667  L 2.916666666666667 7.583333333333334  C 2.916666666666667 7.741319444444444  2.974392361111111 7.878038194444444  3.08984375 7.993489583333334  C 3.2052951388888893 8.108940972222221  3.3420138888888893 8.166666666666666  3.5 8.166666666666666  L 5.833333333333334 8.166666666666666  L 5.833333333333334 10.5  C 5.833333333333334 10.65798611111111  5.891059027777779 10.79470486111111  6.006510416666666 10.91015625  C 6.121961805555556 11.02560763888889  6.258680555555556 11.083333333333332  6.416666666666666 11.083333333333332  L 7.583333333333333 11.083333333333332  C 7.7413194444444455 11.083333333333332  7.8780381944444455 11.02560763888889  7.993489583333333 10.91015625  C 8.108940972222223 10.79470486111111  8.166666666666668 10.65798611111111  8.166666666666668 10.5  L 8.166666666666668 8.166666666666666  L 10.5 8.166666666666666  C 10.657986111111112 8.166666666666666  10.794704861111112 8.108940972222221  10.91015625 7.993489583333334  Z " stroke-width="2" stroke="#555555" fill="none" transform="matrix(1 0 0 1 218 3703 )" mask="url(#clip49)" />
    <path d="M 13.061197916666668 3.486328125  C 13.68706597222222 4.5588107638888875  14 5.7300347222222205  14 7  C 14 8.269965277777779  13.68706597222222 9.441189236111109  13.061197916666668 10.513671875  C 12.435329861111112 11.58615451388889  11.58615451388889 12.43532986111111  10.513671875 13.061197916666668  C 9.441189236111112 13.687065972222223  8.269965277777779 14  7 14  C 5.730034722222222 14  4.558810763888889 13.687065972222223  3.486328125 13.061197916666668  C 2.413845486111111 12.43532986111111  1.564670138888889 11.58615451388889  0.9388020833333334 10.513671875  C 0.31293402777777773 9.441189236111109  0 8.269965277777779  0 7  C 0 5.7300347222222205  0.31293402777777773 4.5588107638888875  0.9388020833333334 3.486328125  C 1.564670138888889 2.4138454861111107  2.413845486111111 1.5646701388888875  3.486328125 0.9388020833333328  C 4.558810763888889 0.31293402777777657  5.730034722222222 0  7 0  C 8.269965277777779 0  9.441189236111112 0.31293402777777657  10.513671875 0.9388020833333328  C 11.58615451388889 1.5646701388888875  12.435329861111112 2.4138454861111107  13.061197916666668 3.486328125  Z " stroke-width="2" stroke="#555555" fill="none" transform="matrix(1 0 0 1 218 3703 )" mask="url(#clip49)" />
  </g>
</svg>