<?xml version="1.0" encoding="utf-8"?>
<svg version="1.1" xmlns:xlink="http://www.w3.org/1999/xlink" width="16px" height="16px" xmlns="http://www.w3.org/2000/svg">
  <defs>
    <mask fill="white" id="clip11">
      <path d="M 12.46875 9.135416666666668  C 12.600694444444445 9.003472222222221  12.666666666666666 8.847222222222221  12.666666666666666 8.666666666666668  L 12.666666666666666 7.333333333333334  C 12.666666666666666 7.152777777777777  12.600694444444445 6.996527777777777  12.46875 6.864583333333334  C 12.336805555555557 6.732638888888889  12.180555555555557 6.666666666666666  12 6.666666666666666  L 4 6.666666666666666  C 3.8194444444444446 6.666666666666666  3.6631944444444446 6.732638888888889  3.53125 6.864583333333334  C 3.399305555555556 6.996527777777777  3.3333333333333335 7.152777777777777  3.3333333333333335 7.333333333333334  L 3.3333333333333335 8.666666666666668  C 3.3333333333333335 8.847222222222221  3.399305555555556 9.003472222222221  3.53125 9.135416666666668  C 3.6631944444444446 9.26736111111111  3.8194444444444446 9.333333333333332  4 9.333333333333332  L 12 9.333333333333332  C 12.180555555555557 9.333333333333332  12.336805555555557 9.26736111111111  12.46875 9.135416666666668  Z M 14.927083333333334 3.984375  C 15.642361111111109 5.210069444444443  16 6.548611111111109  16 8  C 16 9.45138888888889  15.642361111111109 10.789930555555554  14.927083333333334 12.015625  C 14.211805555555557 13.241319444444445  13.241319444444445 14.211805555555555  12.015625 14.927083333333334  C 10.789930555555557 15.642361111111112  9.45138888888889 16  8 16  C 6.548611111111112 16  5.210069444444445 15.642361111111112  3.984375 14.927083333333334  C 2.758680555555556 14.211805555555555  1.7881944444444446 13.241319444444445  1.0729166666666667 12.015625  C 0.35763888888888884 10.789930555555554  0 9.45138888888889  0 8  C 0 6.548611111111109  0.35763888888888884 5.210069444444443  1.0729166666666667 3.984375  C 1.7881944444444446 2.7586805555555554  2.758680555555556 1.7881944444444429  3.984375 1.072916666666666  C 5.210069444444445 0.3576388888888875  6.548611111111112 0  8 0  C 9.45138888888889 0  10.789930555555557 0.3576388888888875  12.015625 1.072916666666666  C 13.241319444444445 1.7881944444444429  14.211805555555557 2.7586805555555554  14.927083333333334 3.984375  Z " fill-rule="evenodd" />
    </mask>
  </defs>
  <g transform="matrix(1 0 0 1 -581 -4307 )">
    <path d="M 12.46875 9.135416666666668  C 12.600694444444445 9.003472222222221  12.666666666666666 8.847222222222221  12.666666666666666 8.666666666666668  L 12.666666666666666 7.333333333333334  C 12.666666666666666 7.152777777777777  12.600694444444445 6.996527777777777  12.46875 6.864583333333334  C 12.336805555555557 6.732638888888889  12.180555555555557 6.666666666666666  12 6.666666666666666  L 4 6.666666666666666  C 3.8194444444444446 6.666666666666666  3.6631944444444446 6.732638888888889  3.53125 6.864583333333334  C 3.399305555555556 6.996527777777777  3.3333333333333335 7.152777777777777  3.3333333333333335 7.333333333333334  L 3.3333333333333335 8.666666666666668  C 3.3333333333333335 8.847222222222221  3.399305555555556 9.003472222222221  3.53125 9.135416666666668  C 3.6631944444444446 9.26736111111111  3.8194444444444446 9.333333333333332  4 9.333333333333332  L 12 9.333333333333332  C 12.180555555555557 9.333333333333332  12.336805555555557 9.26736111111111  12.46875 9.135416666666668  Z M 14.927083333333334 3.984375  C 15.642361111111109 5.210069444444443  16 6.548611111111109  16 8  C 16 9.45138888888889  15.642361111111109 10.789930555555554  14.927083333333334 12.015625  C 14.211805555555557 13.241319444444445  13.241319444444445 14.211805555555555  12.015625 14.927083333333334  C 10.789930555555557 15.642361111111112  9.45138888888889 16  8 16  C 6.548611111111112 16  5.210069444444445 15.642361111111112  3.984375 14.927083333333334  C 2.758680555555556 14.211805555555555  1.7881944444444446 13.241319444444445  1.0729166666666667 12.015625  C 0.35763888888888884 10.789930555555554  0 9.45138888888889  0 8  C 0 6.548611111111109  0.35763888888888884 5.210069444444443  1.0729166666666667 3.984375  C 1.7881944444444446 2.7586805555555554  2.758680555555556 1.7881944444444429  3.984375 1.072916666666666  C 5.210069444444445 0.3576388888888875  6.548611111111112 0  8 0  C 9.45138888888889 0  10.789930555555557 0.3576388888888875  12.015625 1.072916666666666  C 13.241319444444445 1.7881944444444429  14.211805555555557 2.7586805555555554  14.927083333333334 3.984375  Z " fill-rule="nonzero" fill="#ffffff" stroke="none" fill-opacity="0" transform="matrix(1 0 0 1 581 4307 )" />
    <path d="M 12.46875 9.135416666666668  C 12.600694444444445 9.003472222222221  12.666666666666666 8.847222222222221  12.666666666666666 8.666666666666668  L 12.666666666666666 7.333333333333334  C 12.666666666666666 7.152777777777777  12.600694444444445 6.996527777777777  12.46875 6.864583333333334  C 12.336805555555557 6.732638888888889  12.180555555555557 6.666666666666666  12 6.666666666666666  L 4 6.666666666666666  C 3.8194444444444446 6.666666666666666  3.6631944444444446 6.732638888888889  3.53125 6.864583333333334  C 3.399305555555556 6.996527777777777  3.3333333333333335 7.152777777777777  3.3333333333333335 7.333333333333334  L 3.3333333333333335 8.666666666666668  C 3.3333333333333335 8.847222222222221  3.399305555555556 9.003472222222221  3.53125 9.135416666666668  C 3.6631944444444446 9.26736111111111  3.8194444444444446 9.333333333333332  4 9.333333333333332  L 12 9.333333333333332  C 12.180555555555557 9.333333333333332  12.336805555555557 9.26736111111111  12.46875 9.135416666666668  Z " stroke-width="2" stroke="#555555" fill="none" transform="matrix(1 0 0 1 581 4307 )" mask="url(#clip11)" />
    <path d="M 14.927083333333334 3.984375  C 15.642361111111109 5.210069444444443  16 6.548611111111109  16 8  C 16 9.45138888888889  15.642361111111109 10.789930555555554  14.927083333333334 12.015625  C 14.211805555555557 13.241319444444445  13.241319444444445 14.211805555555555  12.015625 14.927083333333334  C 10.789930555555557 15.642361111111112  9.45138888888889 16  8 16  C 6.548611111111112 16  5.210069444444445 15.642361111111112  3.984375 14.927083333333334  C 2.758680555555556 14.211805555555555  1.7881944444444446 13.241319444444445  1.0729166666666667 12.015625  C 0.35763888888888884 10.789930555555554  0 9.45138888888889  0 8  C 0 6.548611111111109  0.35763888888888884 5.210069444444443  1.0729166666666667 3.984375  C 1.7881944444444446 2.7586805555555554  2.758680555555556 1.7881944444444429  3.984375 1.072916666666666  C 5.210069444444445 0.3576388888888875  6.548611111111112 0  8 0  C 9.45138888888889 0  10.789930555555557 0.3576388888888875  12.015625 1.072916666666666  C 13.241319444444445 1.7881944444444429  14.211805555555557 2.7586805555555554  14.927083333333334 3.984375  Z " stroke-width="2" stroke="#555555" fill="none" transform="matrix(1 0 0 1 581 4307 )" mask="url(#clip11)" />
  </g>
</svg>