<?xml version="1.0" encoding="utf-8"?>
<svg version="1.1" xmlns:xlink="http://www.w3.org/1999/xlink" width="14px" height="12px" xmlns="http://www.w3.org/2000/svg">
  <g transform="matrix(1 0 0 1 -582 -4342 )">
    <path d="M 0.875 5.142857142857143  L 13.125 5.142857142857143  C 13.366536458333334 5.142857142857143  13.57275390625 5.2265625  13.74365234375 5.393973214285715  C 13.91455078125 5.561383928571429  14 5.763392857142856  14 6  C 14 6.236607142857142  13.91455078125 6.438616071428571  13.74365234375 6.6060267857142865  C 13.57275390625 6.7734375  13.366536458333334 6.857142857142857  13.125 6.857142857142857  L 13.0224609375 6.857142857142857  L 12.236328125 11.290178571428571  C 12.199869791666668 11.495535714285715  12.099609375000002 11.665178571428571  11.935546875 11.799107142857142  C 11.771484375000002 11.933035714285715  11.584635416666668 12  11.375 12  L 2.625 12  C 2.4153645833333335 12  2.228515625 11.933035714285715  2.064453125 11.799107142857142  C 1.900390625 11.665178571428571  1.8001302083333335 11.495535714285715  1.763671875 11.290178571428571  L 0.9775390625 6.857142857142857  L 0.875 6.857142857142857  C 0.6334635416666667 6.857142857142857  0.42724609375000006 6.7734375  0.25634765625 6.6060267857142865  C 0.08544921875 6.438616071428571  0 6.236607142857142  0 6  C 0 5.763392857142856  0.08544921875 5.561383928571429  0.25634765625 5.393973214285715  C 0.42724609375000006 5.2265625  0.6334635416666667 5.142857142857143  0.875 5.142857142857143  Z M 3.28125 10.5  L 3.3154296875 10.5  C 3.4339192708333335 10.491071428571429  3.5330403645833335 10.440848214285715  3.61279296875 10.349330357142858  C 3.692545572916667 10.2578125  3.7278645833333335 10.154017857142856  3.71875 10.037946428571429  L 3.5 7.252232142857143  C 3.490885416666667 7.1361607142857135  3.439615885416667 7.0390625  3.34619140625 6.9609375  C 3.2527669270833335 6.882812499999999  3.1468098958333335 6.848214285714285  3.0283203125 6.857142857142857  C 2.909830729166667 6.866071428571429  2.810709635416667 6.916294642857142  2.73095703125 7.0078125  C 2.6512044270833335 7.099330357142856  2.615885416666667 7.203124999999998  2.625 7.319196428571429  L 2.84375 10.104910714285714  C 2.8528645833333335 10.216517857142858  2.899576822916667 10.310267857142858  2.98388671875 10.386160714285714  C 3.0681966145833335 10.462053571428571  3.1673177083333335 10.5  3.28125 10.5  Z M 5.9951171875 10.372767857142858  C 6.081705729166667 10.287946428571429  6.125 10.1875  6.125 10.071428571428571  L 6.125 7.2857142857142865  C 6.125 7.169642857142856  6.081705729166667 7.069196428571428  5.9951171875 6.984375  C 5.908528645833334 6.899553571428571  5.805989583333334 6.857142857142857  5.6875 6.857142857142857  C 5.569010416666667 6.857142857142857  5.466471354166667 6.899553571428571  5.3798828125 6.984375  C 5.293294270833333 7.069196428571428  5.25 7.169642857142856  5.25 7.2857142857142865  L 5.25 10.071428571428571  C 5.25 10.1875  5.293294270833333 10.287946428571429  5.3798828125 10.372767857142858  C 5.466471354166667 10.457589285714286  5.569010416666667 10.5  5.6875 10.5  C 5.805989583333334 10.5  5.908528645833334 10.457589285714286  5.9951171875 10.372767857142858  Z M 8.6201171875 10.372767857142858  C 8.706705729166668 10.287946428571429  8.75 10.1875  8.75 10.071428571428571  L 8.75 7.2857142857142865  C 8.75 7.169642857142856  8.706705729166668 7.069196428571428  8.6201171875 6.984375  C 8.533528645833334 6.899553571428571  8.430989583333334 6.857142857142857  8.3125 6.857142857142857  C 8.194010416666668 6.857142857142857  8.091471354166668 6.899553571428571  8.0048828125 6.984375  C 7.918294270833334 7.069196428571428  7.875 7.169642857142856  7.875 7.2857142857142865  L 7.875 10.071428571428571  C 7.875 10.1875  7.918294270833334 10.287946428571429  8.0048828125 10.372767857142858  C 8.091471354166668 10.457589285714286  8.194010416666668 10.5  8.3125 10.5  C 8.430989583333334 10.5  8.533528645833334 10.457589285714286  8.6201171875 10.372767857142858  Z M 11.01611328125 10.386160714285714  C 11.100423177083334 10.310267857142858  11.147135416666668 10.216517857142858  11.15625 10.104910714285714  L 11.375 7.319196428571429  C 11.384114583333334 7.203124999999998  11.348795572916668 7.099330357142856  11.26904296875 7.0078125  C 11.189290364583334 6.916294642857142  11.090169270833334 6.866071428571429  10.9716796875 6.857142857142857  C 10.853190104166668 6.848214285714285  10.747233072916668 6.882812499999999  10.65380859375 6.9609375  C 10.560384114583334 7.0390625  10.509114583333334 7.1361607142857135  10.5 7.252232142857143  L 10.28125 10.037946428571429  C 10.272135416666668 10.154017857142856  10.307454427083334 10.2578125  10.38720703125 10.349330357142858  C 10.466959635416668 10.440848214285715  10.566080729166668 10.491071428571429  10.6845703125 10.5  L 10.71875 10.5  C 10.832682291666668 10.5  10.931803385416668 10.462053571428571  11.01611328125 10.386160714285714  Z M 3.56494140625 1.4732142857142851  C 3.40771484375 1.5982142857142847  3.3040364583333335 1.7589285714285698  3.25390625 1.9553571428571432  L 2.6181640625 4.714285714285715  L 1.7158203125 4.714285714285715  L 2.40625 1.7611607142857149  C 2.492838541666667 1.3683035714285707  2.6956380208333335 1.0479910714285716  3.0146484375 0.8002232142857149  C 3.333658854166667 0.5524553571428568  3.6982421875 0.4285714285714284  4.1083984375 0.4285714285714284  L 5.25 0.4285714285714284  C 5.25 0.31249999999999956  5.293294270833333 0.21205357142856984  5.3798828125 0.12723214285714324  C 5.466471354166667 0.0424107142857153  5.569010416666667 0  5.6875 0  L 8.3125 0  C 8.430989583333334 0  8.533528645833334 0.0424107142857153  8.6201171875 0.12723214285714324  C 8.706705729166668 0.21205357142856984  8.75 0.31249999999999956  8.75 0.4285714285714284  L 9.8916015625 0.4285714285714284  C 10.3017578125 0.4285714285714284  10.666341145833334 0.5524553571428568  10.9853515625 0.8002232142857149  C 11.304361979166668 1.0479910714285716  11.507161458333334 1.3683035714285707  11.59375 1.7611607142857149  L 12.2841796875 4.714285714285715  L 11.3818359375 4.714285714285715  L 10.74609375 1.9553571428571432  C 10.695963541666668 1.7589285714285698  10.59228515625 1.5982142857142847  10.43505859375 1.4732142857142851  C 10.27783203125 1.3482142857142856  10.0966796875 1.2857142857142851  9.8916015625 1.2857142857142851  L 8.75 1.2857142857142851  C 8.75 1.401785714285714  8.706705729166668 1.5022321428571423  8.6201171875 1.5870535714285716  C 8.533528645833334 1.6718749999999996  8.430989583333334 1.7142857142857149  8.3125 1.7142857142857149  L 5.6875 1.7142857142857149  C 5.569010416666667 1.7142857142857149  5.466471354166667 1.6718749999999996  5.3798828125 1.5870535714285716  C 5.293294270833333 1.5022321428571423  5.25 1.401785714285714  5.25 1.2857142857142851  L 4.1083984375 1.2857142857142851  C 3.9033203125 1.2857142857142851  3.72216796875 1.3482142857142856  3.56494140625 1.4732142857142851  Z " fill-rule="nonzero" fill="#7f7f7f" stroke="none" transform="matrix(1 0 0 1 582 4342 )" />
  </g>
</svg>