<?xml version="1.0" encoding="utf-8"?>
<svg version="1.1" xmlns:xlink="http://www.w3.org/1999/xlink" width="9px" height="8px" xmlns="http://www.w3.org/2000/svg">
  <g transform="matrix(1 0 0 1 -221 -3760 )">
    <path d="M 0.5625 3.428571428571429  L 8.4375 3.428571428571429  C 8.5927734375 3.428571428571429  8.725341796875 3.484375  8.835205078125 3.5959821428571432  C 8.945068359375 3.7075892857142856  9 3.842261904761904  9 4  C 9 4.157738095238095  8.945068359375 4.292410714285714  8.835205078125 4.404017857142858  C 8.725341796875 4.515625  8.5927734375 4.571428571428571  8.4375 4.571428571428571  L 8.37158203125 4.571428571428571  L 7.8662109375 7.526785714285714  C 7.842773437500002 7.663690476190476  7.778320312500001 7.776785714285714  7.6728515625 7.866071428571429  C 7.567382812500001 7.955357142857143  7.447265625000002 8  7.3125 8  L 1.6875 8  C 1.5527343750000002 8  1.4326171875 7.955357142857143  1.3271484375 7.866071428571429  C 1.2216796875 7.776785714285714  1.1572265625000002 7.663690476190476  1.1337890625 7.526785714285714  L 0.62841796875 4.571428571428571  L 0.5625 4.571428571428571  C 0.4072265625 4.571428571428571  0.27465820312500006 4.515625  0.164794921875 4.404017857142858  C 0.054931640625 4.292410714285714  0 4.157738095238095  0 4  C 0 3.842261904761904  0.054931640625 3.7075892857142856  0.164794921875 3.5959821428571432  C 0.27465820312500006 3.484375  0.4072265625 3.428571428571429  0.5625 3.428571428571429  Z M 2.109375 7  L 2.13134765625 7  C 2.20751953125 6.9940476190476195  2.271240234375 6.960565476190476  2.322509765625 6.899553571428571  C 2.3737792968750004 6.838541666666666  2.396484375 6.769345238095237  2.390625 6.691964285714286  L 2.25 4.834821428571429  C 2.2441406250000004 4.757440476190475  2.2111816406250004 4.692708333333333  2.151123046875 4.640625  C 2.091064453125 4.588541666666666  2.02294921875 4.56547619047619  1.94677734375 4.571428571428571  C 1.8706054687500004 4.5773809523809526  1.8068847656250004 4.610863095238095  1.755615234375 4.671875  C 1.7043457031250002 4.732886904761904  1.681640625 4.802083333333332  1.6875 4.879464285714286  L 1.828125 6.736607142857142  C 1.8339843750000002 6.811011904761905  1.864013671875 6.873511904761905  1.918212890625 6.924107142857142  C 1.9724121093750002 6.9747023809523805  2.0361328125 7  2.109375 7  Z M 3.85400390625 6.915178571428571  C 3.9096679687500004 6.8586309523809526  3.9375 6.791666666666666  3.9375 6.714285714285714  L 3.9375 4.857142857142858  C 3.9375 4.779761904761904  3.9096679687500004 4.712797619047619  3.85400390625 4.65625  C 3.798339843750001 4.5997023809523805  3.732421875000001 4.571428571428571  3.65625 4.571428571428571  C 3.5800781250000004 4.571428571428571  3.5141601562500004 4.5997023809523805  3.45849609375 4.65625  C 3.4028320312499996 4.712797619047619  3.375 4.779761904761904  3.375 4.857142857142858  L 3.375 6.714285714285714  C 3.375 6.791666666666666  3.4028320312499996 6.8586309523809526  3.45849609375 6.915178571428571  C 3.5141601562500004 6.971726190476191  3.5800781250000004 7  3.65625 7  C 3.732421875000001 7  3.798339843750001 6.971726190476191  3.85400390625 6.915178571428571  Z M 5.54150390625 6.915178571428571  C 5.59716796875 6.8586309523809526  5.625 6.791666666666666  5.625 6.714285714285714  L 5.625 4.857142857142858  C 5.625 4.779761904761904  5.59716796875 4.712797619047619  5.54150390625 4.65625  C 5.485839843750001 4.5997023809523805  5.419921875000001 4.571428571428571  5.34375 4.571428571428571  C 5.267578125 4.571428571428571  5.20166015625 4.5997023809523805  5.14599609375 4.65625  C 5.090332031250001 4.712797619047619  5.0625 4.779761904761904  5.0625 4.857142857142858  L 5.0625 6.714285714285714  C 5.0625 6.791666666666666  5.090332031250001 6.8586309523809526  5.14599609375 6.915178571428571  C 5.20166015625 6.971726190476191  5.267578125 7  5.34375 7  C 5.419921875000001 7  5.485839843750001 6.971726190476191  5.54150390625 6.915178571428571  Z M 7.081787109375 6.924107142857142  C 7.135986328125001 6.873511904761905  7.166015625 6.811011904761905  7.171875 6.736607142857142  L 7.3125 4.879464285714286  C 7.318359375000001 4.802083333333332  7.295654296875 4.732886904761904  7.244384765625 4.671875  C 7.193115234375001 4.610863095238095  7.129394531250001 4.5773809523809526  7.05322265625 4.571428571428571  C 6.97705078125 4.56547619047619  6.908935546875 4.588541666666666  6.848876953125 4.640625  C 6.788818359375001 4.692708333333333  6.755859375000001 4.757440476190475  6.75 4.834821428571429  L 6.609375 6.691964285714286  C 6.603515625 6.769345238095237  6.626220703125001 6.838541666666666  6.677490234375 6.899553571428571  C 6.728759765625 6.960565476190476  6.79248046875 6.9940476190476195  6.86865234375 7  L 6.890625 7  C 6.963867187500002 7  7.027587890625002 6.9747023809523805  7.081787109375 6.924107142857142  Z M 2.291748046875 0.9821428571428568  C 2.190673828125 1.0654761904761898  2.1240234375 1.1726190476190466  2.091796875 1.3035714285714288  L 1.68310546875 3.1428571428571432  L 1.10302734375 3.1428571428571432  L 1.546875 1.1741071428571432  C 1.6025390625 0.9122023809523805  1.7329101562500002 0.6986607142857144  1.93798828125 0.5334821428571432  C 2.14306640625 0.3683035714285712  2.37744140625 0.2857142857142856  2.64111328125 0.2857142857142856  L 3.375 0.2857142857142856  C 3.375 0.20833333333333304  3.4028320312499996 0.14136904761904656  3.45849609375 0.08482142857142883  C 3.5141601562500004 0.0282738095238102  3.5800781250000004 0  3.65625 0  L 5.34375 0  C 5.419921875000001 0  5.485839843750001 0.0282738095238102  5.54150390625 0.08482142857142883  C 5.59716796875 0.14136904761904656  5.625 0.20833333333333304  5.625 0.2857142857142856  L 6.35888671875 0.2857142857142856  C 6.62255859375 0.2857142857142856  6.856933593750001 0.3683035714285712  7.06201171875 0.5334821428571432  C 7.267089843750002 0.6986607142857144  7.397460937500001 0.9122023809523805  7.453125 1.1741071428571432  L 7.89697265625 3.1428571428571432  L 7.31689453125 3.1428571428571432  L 6.908203125 1.3035714285714288  C 6.8759765625 1.1726190476190466  6.809326171875 1.0654761904761898  6.708251953125 0.9821428571428568  C 6.607177734375 0.8988095238095237  6.49072265625 0.8571428571428568  6.35888671875 0.8571428571428568  L 5.625 0.8571428571428568  C 5.625 0.9345238095238093  5.59716796875 1.001488095238095  5.54150390625 1.0580357142857144  C 5.485839843750001 1.114583333333333  5.419921875000001 1.1428571428571432  5.34375 1.1428571428571432  L 3.65625 1.1428571428571432  C 3.5800781250000004 1.1428571428571432  3.5141601562500004 1.114583333333333  3.45849609375 1.0580357142857144  C 3.4028320312499996 1.001488095238095  3.375 0.9345238095238093  3.375 0.8571428571428568  L 2.64111328125 0.8571428571428568  C 2.50927734375 0.8571428571428568  2.392822265625 0.8988095238095237  2.291748046875 0.9821428571428568  Z " fill-rule="nonzero" fill="#7f7f7f" stroke="none" transform="matrix(1 0 0 1 221 3760 )" />
  </g>
</svg>