<?xml version="1.0" encoding="utf-8"?>
<svg version="1.1" xmlns:xlink="http://www.w3.org/1999/xlink" width="16px" height="16px" xmlns="http://www.w3.org/2000/svg">
  <defs>
    <mask fill="white" id="clip51">
      <path d="M 12.015625 14.927083333333334  C 10.789930555555555 15.64236111111111  9.45138888888889 16  8 16  C 6.548611111111111 16  5.210069444444445 15.64236111111111  3.984375 14.927083333333334  C 2.7586805555555554 14.211805555555555  1.7881944444444444 13.241319444444445  1.0729166666666667 12.015625  C 0.3576388888888889 10.789930555555555  0 9.45138888888889  0 8  C 0 6.548611111111111  0.3576388888888889 5.210069444444445  1.0729166666666667 3.984375  C 1.7881944444444444 2.7586805555555554  2.7586805555555554 1.7881944444444444  3.984375 1.0729166666666667  C 5.210069444444445 0.3576388888888889  6.548611111111111 0  8 0  C 9.45138888888889 0  10.789930555555555 0.3576388888888889  12.015625 1.0729166666666667  C 13.241319444444445 1.7881944444444444  14.211805555555555 2.7586805555555554  14.927083333333334 3.984375  C 15.64236111111111 5.210069444444445  16 6.548611111111111  16 8  C 16 9.45138888888889  15.64236111111111 10.789930555555555  14.927083333333334 12.015625  C 14.211805555555555 13.241319444444445  13.241319444444445 14.211805555555555  12.015625 14.927083333333334  Z M 11.387953610175828 9.75982042648684  C 11.499688240428945 9.871555056739858  11.555555555555555 10.007232822047728  11.555555555555555 10.166853722409643  C 11.555555555555555 10.32647462277075  11.499688240428945 10.46215238807862  11.387953610175828 10.573887018331638  L 10.573887018331435 11.387953610175625  C 10.462152388078316 11.499688240428643  10.326474622770952 11.555555555555555  10.166853722409238 11.555555555555555  C 10.007232822047627 11.555555555555555  9.871555056740261 11.499688240428643  9.759820426487144 11.387953610175625  L 8 9.628133183688785  L 6.240179573512857 11.387953610175625  C 6.128444943259739 11.499688240428643  5.9927671779523735 11.555555555555555  5.833146277590761 11.555555555555555  C 5.673525377229049 11.555555555555555  5.537847611921683 11.499688240428643  5.426112981668565 11.387953610175625  L 4.612046389824172 10.573887018331638  C 4.500311759571054 10.46215238807862  4.444444444444445 10.32647462277075  4.444444444444445 10.166853722409643  C 4.444444444444445 10.007232822047728  4.500311759571054 9.871555056739858  4.612046389824172 9.75982042648684  L 6.371866816311215 8  L 4.612046389824172 6.24017957351316  C 4.500311759571054 6.128444943260143  4.444444444444445 5.992767177952272  4.444444444444445 5.833146277590357  C 4.444444444444445 5.67352537722925  4.500311759571054 5.53784761192138  4.612046389824172 5.426112981668363  L 5.426112981668565 4.612046389824375  C 5.537847611921683 4.500311759571357  5.673525377229049 4.444444444444445  5.833146277590761 4.444444444444445  C 5.9927671779523735 4.444444444444445  6.128444943259739 4.500311759571357  6.240179573512857 4.612046389824375  L 8 6.371866816311215  L 9.759820426487144 4.612046389824375  C 9.871555056740261 4.500311759571357  10.007232822047627 4.444444444444445  10.166853722409238 4.444444444444445  C 10.326474622770952 4.444444444444445  10.462152388078316 4.500311759571357  10.573887018331435 4.612046389824375  L 11.387953610175828 5.426112981668363  C 11.499688240428945 5.53784761192138  11.555555555555555 5.67352537722925  11.555555555555555 5.833146277590357  C 11.555555555555555 5.992767177952272  11.499688240428945 6.128444943260143  11.387953610175828 6.24017957351316  L 9.628133183688785 8  L 11.387953610175828 9.75982042648684  Z " fill-rule="evenodd" />
    </mask>
  </defs>
  <g transform="matrix(1 0 0 1 -432 -3704 )">
    <path d="M 12.015625 14.927083333333334  C 10.789930555555555 15.64236111111111  9.45138888888889 16  8 16  C 6.548611111111111 16  5.210069444444445 15.64236111111111  3.984375 14.927083333333334  C 2.7586805555555554 14.211805555555555  1.7881944444444444 13.241319444444445  1.0729166666666667 12.015625  C 0.3576388888888889 10.789930555555555  0 9.45138888888889  0 8  C 0 6.548611111111111  0.3576388888888889 5.210069444444445  1.0729166666666667 3.984375  C 1.7881944444444444 2.7586805555555554  2.7586805555555554 1.7881944444444444  3.984375 1.0729166666666667  C 5.210069444444445 0.3576388888888889  6.548611111111111 0  8 0  C 9.45138888888889 0  10.789930555555555 0.3576388888888889  12.015625 1.0729166666666667  C 13.241319444444445 1.7881944444444444  14.211805555555555 2.7586805555555554  14.927083333333334 3.984375  C 15.64236111111111 5.210069444444445  16 6.548611111111111  16 8  C 16 9.45138888888889  15.64236111111111 10.789930555555555  14.927083333333334 12.015625  C 14.211805555555555 13.241319444444445  13.241319444444445 14.211805555555555  12.015625 14.927083333333334  Z M 11.387953610175828 9.75982042648684  C 11.499688240428945 9.871555056739858  11.555555555555555 10.007232822047728  11.555555555555555 10.166853722409643  C 11.555555555555555 10.32647462277075  11.499688240428945 10.46215238807862  11.387953610175828 10.573887018331638  L 10.573887018331435 11.387953610175625  C 10.462152388078316 11.499688240428643  10.326474622770952 11.555555555555555  10.166853722409238 11.555555555555555  C 10.007232822047627 11.555555555555555  9.871555056740261 11.499688240428643  9.759820426487144 11.387953610175625  L 8 9.628133183688785  L 6.240179573512857 11.387953610175625  C 6.128444943259739 11.499688240428643  5.9927671779523735 11.555555555555555  5.833146277590761 11.555555555555555  C 5.673525377229049 11.555555555555555  5.537847611921683 11.499688240428643  5.426112981668565 11.387953610175625  L 4.612046389824172 10.573887018331638  C 4.500311759571054 10.46215238807862  4.444444444444445 10.32647462277075  4.444444444444445 10.166853722409643  C 4.444444444444445 10.007232822047728  4.500311759571054 9.871555056739858  4.612046389824172 9.75982042648684  L 6.371866816311215 8  L 4.612046389824172 6.24017957351316  C 4.500311759571054 6.128444943260143  4.444444444444445 5.992767177952272  4.444444444444445 5.833146277590357  C 4.444444444444445 5.67352537722925  4.500311759571054 5.53784761192138  4.612046389824172 5.426112981668363  L 5.426112981668565 4.612046389824375  C 5.537847611921683 4.500311759571357  5.673525377229049 4.444444444444445  5.833146277590761 4.444444444444445  C 5.9927671779523735 4.444444444444445  6.128444943259739 4.500311759571357  6.240179573512857 4.612046389824375  L 8 6.371866816311215  L 9.759820426487144 4.612046389824375  C 9.871555056740261 4.500311759571357  10.007232822047627 4.444444444444445  10.166853722409238 4.444444444444445  C 10.326474622770952 4.444444444444445  10.462152388078316 4.500311759571357  10.573887018331435 4.612046389824375  L 11.387953610175828 5.426112981668363  C 11.499688240428945 5.53784761192138  11.555555555555555 5.67352537722925  11.555555555555555 5.833146277590357  C 11.555555555555555 5.992767177952272  11.499688240428945 6.128444943260143  11.387953610175828 6.24017957351316  L 9.628133183688785 8  L 11.387953610175828 9.75982042648684  Z " fill-rule="nonzero" fill="#000000" stroke="none" fill-opacity="0" transform="matrix(1 0 0 1 432 3704 )" />
    <path d="M 12.015625 14.927083333333334  C 10.789930555555555 15.64236111111111  9.45138888888889 16  8 16  C 6.548611111111111 16  5.210069444444445 15.64236111111111  3.984375 14.927083333333334  C 2.7586805555555554 14.211805555555555  1.7881944444444444 13.241319444444445  1.0729166666666667 12.015625  C 0.3576388888888889 10.789930555555555  0 9.45138888888889  0 8  C 0 6.548611111111111  0.3576388888888889 5.210069444444445  1.0729166666666667 3.984375  C 1.7881944444444444 2.7586805555555554  2.7586805555555554 1.7881944444444444  3.984375 1.0729166666666667  C 5.210069444444445 0.3576388888888889  6.548611111111111 0  8 0  C 9.45138888888889 0  10.789930555555555 0.3576388888888889  12.015625 1.0729166666666667  C 13.241319444444445 1.7881944444444444  14.211805555555555 2.7586805555555554  14.927083333333334 3.984375  C 15.64236111111111 5.210069444444445  16 6.548611111111111  16 8  C 16 9.45138888888889  15.64236111111111 10.789930555555555  14.927083333333334 12.015625  C 14.211805555555555 13.241319444444445  13.241319444444445 14.211805555555555  12.015625 14.927083333333334  Z " stroke-width="2" stroke="#797979" fill="none" transform="matrix(1 0 0 1 432 3704 )" mask="url(#clip51)" />
    <path d="M 11.387953610175828 9.75982042648684  C 11.499688240428945 9.871555056739858  11.555555555555555 10.007232822047728  11.555555555555555 10.166853722409643  C 11.555555555555555 10.32647462277075  11.499688240428945 10.46215238807862  11.387953610175828 10.573887018331638  L 10.573887018331435 11.387953610175625  C 10.462152388078316 11.499688240428643  10.326474622770952 11.555555555555555  10.166853722409238 11.555555555555555  C 10.007232822047627 11.555555555555555  9.871555056740261 11.499688240428643  9.759820426487144 11.387953610175625  L 8 9.628133183688785  L 6.240179573512857 11.387953610175625  C 6.128444943259739 11.499688240428643  5.9927671779523735 11.555555555555555  5.833146277590761 11.555555555555555  C 5.673525377229049 11.555555555555555  5.537847611921683 11.499688240428643  5.426112981668565 11.387953610175625  L 4.612046389824172 10.573887018331638  C 4.500311759571054 10.46215238807862  4.444444444444445 10.32647462277075  4.444444444444445 10.166853722409643  C 4.444444444444445 10.007232822047728  4.500311759571054 9.871555056739858  4.612046389824172 9.75982042648684  L 6.371866816311215 8  L 4.612046389824172 6.24017957351316  C 4.500311759571054 6.128444943260143  4.444444444444445 5.992767177952272  4.444444444444445 5.833146277590357  C 4.444444444444445 5.67352537722925  4.500311759571054 5.53784761192138  4.612046389824172 5.426112981668363  L 5.426112981668565 4.612046389824375  C 5.537847611921683 4.500311759571357  5.673525377229049 4.444444444444445  5.833146277590761 4.444444444444445  C 5.9927671779523735 4.444444444444445  6.128444943259739 4.500311759571357  6.240179573512857 4.612046389824375  L 8 6.371866816311215  L 9.759820426487144 4.612046389824375  C 9.871555056740261 4.500311759571357  10.007232822047627 4.444444444444445  10.166853722409238 4.444444444444445  C 10.326474622770952 4.444444444444445  10.462152388078316 4.500311759571357  10.573887018331435 4.612046389824375  L 11.387953610175828 5.426112981668363  C 11.499688240428945 5.53784761192138  11.555555555555555 5.67352537722925  11.555555555555555 5.833146277590357  C 11.555555555555555 5.992767177952272  11.499688240428945 6.128444943260143  11.387953610175828 6.24017957351316  L 9.628133183688785 8  L 11.387953610175828 9.75982042648684  Z " stroke-width="2" stroke="#797979" fill="none" transform="matrix(1 0 0 1 432 3704 )" mask="url(#clip51)" />
  </g>
</svg>