<?xml version="1.0" encoding="utf-8"?>
<svg version="1.1" xmlns:xlink="http://www.w3.org/1999/xlink" width="18px" height="18px" xmlns="http://www.w3.org/2000/svg">
  <defs>
    <mask fill="white" id="clip12">
      <path d="M 13.517578125 16.79296875  C 12.138671875 17.59765625  10.6328125 18  9 18  C 7.3671875 18  5.861328125 17.59765625  4.482421875 16.79296875  C 3.103515625 15.98828125  2.01171875 14.896484375  1.20703125 13.517578125  C 0.40234375 12.138671875  0 10.6328125  0 9  C 0 7.3671875  0.40234375 5.861328125  1.20703125 4.482421875  C 2.01171875 3.103515625  3.103515625 2.01171875  4.482421875 1.20703125  C 5.861328125 0.40234375  7.3671875 0  9 0  C 10.6328125 0  12.138671875 0.40234375  13.517578125 1.20703125  C 14.896484375 2.01171875  15.98828125 3.103515625  16.79296875 4.482421875  C 17.59765625 5.861328125  18 7.3671875  18 9  C 18 10.6328125  17.59765625 12.138671875  16.79296875 13.517578125  C 15.98828125 14.896484375  14.896484375 15.98828125  13.517578125 16.79296875  Z M 12.811447811447806 10.979797979797695  C 12.937149270482564 11.10549943883234  13 11.258136924803694  13 11.437710437710848  C 13 11.617283950617093  12.937149270482564 11.769921436588447  12.811447811447806 11.895622895623092  L 11.895622895622864 12.811447811447579  C 11.769921436588106 12.937149270482223  11.61728395061732 13  11.437710437710393 13  C 11.25813692480358 13  11.105499438832794 12.937149270482223  10.979797979798036 12.811447811447579  L 9 10.831649831649884  L 7.020202020201964 12.811447811447579  C 6.894500561167206 12.937149270482223  6.74186307519642 13  6.562289562289607 13  C 6.38271604938268 13  6.230078563411894 12.937149270482223  6.104377104377136 12.811447811447579  L 5.188552188552194 11.895622895623092  C 5.062850729517436 11.769921436588447  5 11.617283950617093  5 11.437710437710848  C 5 11.258136924803694  5.062850729517436 11.10549943883234  5.188552188552194 10.979797979797695  L 7.168350168350116 9  L 5.188552188552194 7.020202020202305  C 5.062850729517436 6.894500561167661  5 6.7418630751963065  5 6.562289562289152  C 5 6.382716049382907  5.062850729517436 6.230078563411553  5.188552188552194 6.104377104376908  L 6.104377104377136 5.188552188552421  C 6.230078563411894 5.062850729517777  6.38271604938268 5  6.562289562289607 5  C 6.74186307519642 5  6.894500561167206 5.062850729517777  7.020202020201964 5.188552188552421  L 9 7.168350168350116  L 10.979797979798036 5.188552188552421  C 11.105499438832794 5.062850729517777  11.25813692480358 5  11.437710437710393 5  C 11.61728395061732 5  11.769921436588106 5.062850729517777  11.895622895622864 5.188552188552421  L 12.811447811447806 6.104377104376908  C 12.937149270482564 6.230078563411553  13 6.382716049382907  13 6.562289562289152  C 13 6.7418630751963065  12.937149270482564 6.894500561167661  12.811447811447806 7.020202020202305  L 10.831649831649884 9  L 12.811447811447806 10.979797979797695  Z " fill-rule="evenodd" />
    </mask>
  </defs>
  <g transform="matrix(1 0 0 1 -875 -4271 )">
    <path d="M 13.517578125 16.79296875  C 12.138671875 17.59765625  10.6328125 18  9 18  C 7.3671875 18  5.861328125 17.59765625  4.482421875 16.79296875  C 3.103515625 15.98828125  2.01171875 14.896484375  1.20703125 13.517578125  C 0.40234375 12.138671875  0 10.6328125  0 9  C 0 7.3671875  0.40234375 5.861328125  1.20703125 4.482421875  C 2.01171875 3.103515625  3.103515625 2.01171875  4.482421875 1.20703125  C 5.861328125 0.40234375  7.3671875 0  9 0  C 10.6328125 0  12.138671875 0.40234375  13.517578125 1.20703125  C 14.896484375 2.01171875  15.98828125 3.103515625  16.79296875 4.482421875  C 17.59765625 5.861328125  18 7.3671875  18 9  C 18 10.6328125  17.59765625 12.138671875  16.79296875 13.517578125  C 15.98828125 14.896484375  14.896484375 15.98828125  13.517578125 16.79296875  Z M 12.811447811447806 10.979797979797695  C 12.937149270482564 11.10549943883234  13 11.258136924803694  13 11.437710437710848  C 13 11.617283950617093  12.937149270482564 11.769921436588447  12.811447811447806 11.895622895623092  L 11.895622895622864 12.811447811447579  C 11.769921436588106 12.937149270482223  11.61728395061732 13  11.437710437710393 13  C 11.25813692480358 13  11.105499438832794 12.937149270482223  10.979797979798036 12.811447811447579  L 9 10.831649831649884  L 7.020202020201964 12.811447811447579  C 6.894500561167206 12.937149270482223  6.74186307519642 13  6.562289562289607 13  C 6.38271604938268 13  6.230078563411894 12.937149270482223  6.104377104377136 12.811447811447579  L 5.188552188552194 11.895622895623092  C 5.062850729517436 11.769921436588447  5 11.617283950617093  5 11.437710437710848  C 5 11.258136924803694  5.062850729517436 11.10549943883234  5.188552188552194 10.979797979797695  L 7.168350168350116 9  L 5.188552188552194 7.020202020202305  C 5.062850729517436 6.894500561167661  5 6.7418630751963065  5 6.562289562289152  C 5 6.382716049382907  5.062850729517436 6.230078563411553  5.188552188552194 6.104377104376908  L 6.104377104377136 5.188552188552421  C 6.230078563411894 5.062850729517777  6.38271604938268 5  6.562289562289607 5  C 6.74186307519642 5  6.894500561167206 5.062850729517777  7.020202020201964 5.188552188552421  L 9 7.168350168350116  L 10.979797979798036 5.188552188552421  C 11.105499438832794 5.062850729517777  11.25813692480358 5  11.437710437710393 5  C 11.61728395061732 5  11.769921436588106 5.062850729517777  11.895622895622864 5.188552188552421  L 12.811447811447806 6.104377104376908  C 12.937149270482564 6.230078563411553  13 6.382716049382907  13 6.562289562289152  C 13 6.7418630751963065  12.937149270482564 6.894500561167661  12.811447811447806 7.020202020202305  L 10.831649831649884 9  L 12.811447811447806 10.979797979797695  Z " fill-rule="nonzero" fill="#000000" stroke="none" fill-opacity="0" transform="matrix(1 0 0 1 875 4271 )" />
    <path d="M 13.517578125 16.79296875  C 12.138671875 17.59765625  10.6328125 18  9 18  C 7.3671875 18  5.861328125 17.59765625  4.482421875 16.79296875  C 3.103515625 15.98828125  2.01171875 14.896484375  1.20703125 13.517578125  C 0.40234375 12.138671875  0 10.6328125  0 9  C 0 7.3671875  0.40234375 5.861328125  1.20703125 4.482421875  C 2.01171875 3.103515625  3.103515625 2.01171875  4.482421875 1.20703125  C 5.861328125 0.40234375  7.3671875 0  9 0  C 10.6328125 0  12.138671875 0.40234375  13.517578125 1.20703125  C 14.896484375 2.01171875  15.98828125 3.103515625  16.79296875 4.482421875  C 17.59765625 5.861328125  18 7.3671875  18 9  C 18 10.6328125  17.59765625 12.138671875  16.79296875 13.517578125  C 15.98828125 14.896484375  14.896484375 15.98828125  13.517578125 16.79296875  Z " stroke-width="2" stroke="#797979" fill="none" transform="matrix(1 0 0 1 875 4271 )" mask="url(#clip12)" />
    <path d="M 12.811447811447806 10.979797979797695  C 12.937149270482564 11.10549943883234  13 11.258136924803694  13 11.437710437710848  C 13 11.617283950617093  12.937149270482564 11.769921436588447  12.811447811447806 11.895622895623092  L 11.895622895622864 12.811447811447579  C 11.769921436588106 12.937149270482223  11.61728395061732 13  11.437710437710393 13  C 11.25813692480358 13  11.105499438832794 12.937149270482223  10.979797979798036 12.811447811447579  L 9 10.831649831649884  L 7.020202020201964 12.811447811447579  C 6.894500561167206 12.937149270482223  6.74186307519642 13  6.562289562289607 13  C 6.38271604938268 13  6.230078563411894 12.937149270482223  6.104377104377136 12.811447811447579  L 5.188552188552194 11.895622895623092  C 5.062850729517436 11.769921436588447  5 11.617283950617093  5 11.437710437710848  C 5 11.258136924803694  5.062850729517436 11.10549943883234  5.188552188552194 10.979797979797695  L 7.168350168350116 9  L 5.188552188552194 7.020202020202305  C 5.062850729517436 6.894500561167661  5 6.7418630751963065  5 6.562289562289152  C 5 6.382716049382907  5.062850729517436 6.230078563411553  5.188552188552194 6.104377104376908  L 6.104377104377136 5.188552188552421  C 6.230078563411894 5.062850729517777  6.38271604938268 5  6.562289562289607 5  C 6.74186307519642 5  6.894500561167206 5.062850729517777  7.020202020201964 5.188552188552421  L 9 7.168350168350116  L 10.979797979798036 5.188552188552421  C 11.105499438832794 5.062850729517777  11.25813692480358 5  11.437710437710393 5  C 11.61728395061732 5  11.769921436588106 5.062850729517777  11.895622895622864 5.188552188552421  L 12.811447811447806 6.104377104376908  C 12.937149270482564 6.230078563411553  13 6.382716049382907  13 6.562289562289152  C 13 6.7418630751963065  12.937149270482564 6.894500561167661  12.811447811447806 7.020202020202305  L 10.831649831649884 9  L 12.811447811447806 10.979797979797695  Z " stroke-width="2" stroke="#797979" fill="none" transform="matrix(1 0 0 1 875 4271 )" mask="url(#clip12)" />
  </g>
</svg>