<?xml version="1.0" encoding="utf-8"?>
<svg version="1.1" xmlns:xlink="http://www.w3.org/1999/xlink" width="150px" height="240px" xmlns="http://www.w3.org/2000/svg">
  <g transform="matrix(1 0 0 1 -1028 -4093 )">
    <path d="M 150 230  C 150 235.60000000000036  145.5999999999999 240  140 240  L 10 240  C 4.400000000000091 240  0 235.60000000000036  0 230  L 0 63  C 5.039999999999964 63  9 59.69999999999982  9 55.5  C 9 51.30000000000018  5.039999999999964 48  0 48.00200736548413  L 0 10  C 0 4.400000000000091  4.400000000000091 0  10 0  L 140 0  C 145.5999999999999 0  150 4.400000000000091  150 10  L 150 230  Z M 0 48  L 0 63.00071558772742  L 0 48  Z M 150 48  C 144.96000000000004 48  141 51.30000000000018  141 55.5  C 141 59.69999999999982  144.96000000000004 63  150 63  L 150 48  Z " fill-rule="nonzero" fill="#7f7f7f" stroke="none" transform="matrix(1 0 0 1 1028 4093 )" />
  </g>
</svg>