<?xml version="1.0" encoding="utf-8"?>
<svg version="1.1" xmlns:xlink="http://www.w3.org/1999/xlink" width="120px" height="195px" xmlns="http://www.w3.org/2000/svg">
  <g transform="matrix(1 0 0 1 -535 -3555 )">
    <path d="M 120 186.875  C 120 191.4250000000003  116.47999999999992 195  112 195  L 8 195  C 3.520000000000073 195  0 191.4250000000003  0 186.875  L 0 51.1875  C 4.031999999999971 51.1875  7.199999999999999 48.50624999999985  7.199999999999999 45.09375  C 7.199999999999999 41.68125000000015  4.031999999999971 39  0 39.00163098445586  L 0 8.125  C 0 3.575000000000074  3.520000000000073 0  8 0  L 112 0  C 116.47999999999992 0  120 3.575000000000074  120 8.125  L 120 186.875  Z M 0 39  L 0 51.18808141502853  L 0 39  Z M 120 39  C 115.96800000000003 39  112.8 41.68125000000015  112.8 45.09375  C 112.8 48.50624999999985  115.96800000000003 51.1875  120 51.1875  L 120 39  Z " fill-rule="nonzero" fill="#7f7f7f" stroke="none" transform="matrix(1 0 0 1 535 3555 )" />
  </g>
</svg>