<?xml version="1.0" encoding="utf-8"?>
<svg version="1.1" xmlns:xlink="http://www.w3.org/1999/xlink" width="64px" height="101px" xmlns="http://www.w3.org/2000/svg">
  <defs>
    <linearGradient gradientUnits="userSpaceOnUse" x1="32" y1="59.589999999999996" x2="32" y2="101" id="LinearGradient4">
      <stop id="Stop5" stop-color="#a57594" offset="0" />
      <stop id="Stop6" stop-color="#ff4954" offset="1" />
    </linearGradient>
  </defs>
  <g transform="matrix(1 0 0 1 -73 -85 )">
    <path d="M 61.401765173300504 49.575366453897374  C 54.43860823951359 27.97305904416781  42.59613872269281 19.050045435587805  42 19.050045435587805  L 42 3.318024256251191  C 42.59613872269281 1.2430734896464866  40.94671592752365 -0.22791540418338857  38.909485699242786 0.0292914534140219  L 3.795536140412298 4.49275102126496  C 1.7572026192918688 4.7499578788623715  0.10971058659196121 6.644138532969112  1 8.719647232019799  L 1 25.155221225738917  C 0.10971058659196121 25.155221225738917  10.789861096917281 45.3498650742575  13.344259843750338 63.195892291417515  C 15.896176181694344 81.04219847480051  11.020725123598979 101  11.020725123598979 101  L 57.454735039710066 87.14570046761366  C 57.454735039710066 87.14570046761366  68.36685286955667 71.17823179607292  61.401765173300504 49.575366453897374  Z M 33.63409098680039 11.065195234925465  C 34.02024348065272 13.236389348461957  32.59120343018925 15.30966631772872  30.444747210790176 15.69770833390876  L 15.74226683057321 18.359604033685866  C 15.50643798611341 18.40284379824942  15.27198825770307 18.421534535189792  15.041675877441156 18.421534535189792  C 13.167457166207967 18.421534535189792  11.502036624864912 17.065200759009088  11.16222243027487 15.131964833683652  C 10.776897406052246 12.963560382377068  12.205937456515695 10.888051683326381  14.350738736655408 10.50056759959232  L 29.054046586502047 7.84034569715316  C 31.19746875059229 7.453140579642093  33.24959343220745 8.896232851172899  33.63409098680039 11.065195234925465  Z " fill-rule="nonzero" fill="url(#LinearGradient4)" stroke="none" transform="matrix(1 0 0 1 73 85 )" />
  </g>
</svg>