<?xml version="1.0" encoding="utf-8"?>
<svg version="1.1" xmlns:xlink="http://www.w3.org/1999/xlink" width="25px" height="25px" xmlns="http://www.w3.org/2000/svg">
  <g transform="matrix(1 0 0 1 -582 -3542 )">
    <path d="M 594.5 3542  C 601.5 3542  607 3547.5  607 3554.5  C 607 3561.5  601.5 3567  594.5 3567  C 587.5 3567  582 3561.5  582 3554.5  C 582 3547.5  587.5 3542  594.5 3542  Z " fill-rule="nonzero" fill="#ffffff" stroke="none" />
    <path d="M 594.5 3542.5  C 601.22 3542.5  606.5 3547.78  606.5 3554.5  C 606.5 3561.22  601.22 3566.5  594.5 3566.5  C 587.78 3566.5  582.5 3561.22  582.5 3554.5  C 582.5 3547.78  587.78 3542.5  594.5 3542.5  Z " stroke-width="1" stroke="#797979" fill="none" />
  </g>
</svg>