<?xml version="1.0" encoding="utf-8"?>
<svg version="1.1" xmlns:xlink="http://www.w3.org/1999/xlink" width="20px" height="20px" xmlns="http://www.w3.org/2000/svg">
  <defs>
    <mask fill="white" id="clip13">
      <path d="M 18.658854166666675 4.98046875  C 19.55295138888889 6.5125868055554745  20 8.185763888889051  20 10  C 20 11.814236111110949  19.55295138888889 13.487413194444526  18.658854166666675 15.01953125  C 17.764756944444436 16.551649305555472  16.551649305555564 17.764756944444528  15.01953125 18.658854166666423  C 13.487413194444436 19.55295138888905  11.814236111111109 20  10 20  C 8.185763888888891 20  6.512586805555566 19.55295138888905  4.98046875 18.658854166666423  C 3.448350694444434 17.764756944444528  2.235243055555566 16.551649305555472  1.3411458333333257 15.01953125  C 0.44704861111110855 13.487413194444526  0 11.814236111110949  0 10  C 0 8.185763888889051  0.44704861111110855 6.5125868055554745  1.3411458333333257 4.98046875  C 2.235243055555566 3.4483506944445255  3.448350694444434 2.2352430555554745  4.98046875 1.3411458333335757  C 6.512586805555566 0.44704861111094946  8.185763888888891 0  10 0  C 11.814236111111109 0  13.487413194444436 0.44704861111094946  15.01953125 1.3411458333335757  C 16.551649305555564 2.2352430555554745  17.764756944444436 3.4483506944445255  18.658854166666675 4.98046875  Z " fill-rule="evenodd" />
    </mask>
  </defs>
  <g transform="matrix(1 0 0 1 -1093 -4083 )">
    <path d="M 18.658854166666675 4.98046875  C 19.55295138888889 6.5125868055554745  20 8.185763888889051  20 10  C 20 11.814236111110949  19.55295138888889 13.487413194444526  18.658854166666675 15.01953125  C 17.764756944444436 16.551649305555472  16.551649305555564 17.764756944444528  15.01953125 18.658854166666423  C 13.487413194444436 19.55295138888905  11.814236111111109 20  10 20  C 8.185763888888891 20  6.512586805555566 19.55295138888905  4.98046875 18.658854166666423  C 3.448350694444434 17.764756944444528  2.235243055555566 16.551649305555472  1.3411458333333257 15.01953125  C 0.44704861111110855 13.487413194444526  0 11.814236111110949  0 10  C 0 8.185763888889051  0.44704861111110855 6.5125868055554745  1.3411458333333257 4.98046875  C 2.235243055555566 3.4483506944445255  3.448350694444434 2.2352430555554745  4.98046875 1.3411458333335757  C 6.512586805555566 0.44704861111094946  8.185763888888891 0  10 0  C 11.814236111111109 0  13.487413194444436 0.44704861111094946  15.01953125 1.3411458333335757  C 16.551649305555564 2.2352430555554745  17.764756944444436 3.4483506944445255  18.658854166666675 4.98046875  Z " fill-rule="nonzero" fill="#ffffff" stroke="none" transform="matrix(1 0 0 1 1093 4083 )" />
    <path d="M 18.658854166666675 4.98046875  C 19.55295138888889 6.5125868055554745  20 8.185763888889051  20 10  C 20 11.814236111110949  19.55295138888889 13.487413194444526  18.658854166666675 15.01953125  C 17.764756944444436 16.551649305555472  16.551649305555564 17.764756944444528  15.01953125 18.658854166666423  C 13.487413194444436 19.55295138888905  11.814236111111109 20  10 20  C 8.185763888888891 20  6.512586805555566 19.55295138888905  4.98046875 18.658854166666423  C 3.448350694444434 17.764756944444528  2.235243055555566 16.551649305555472  1.3411458333333257 15.01953125  C 0.44704861111110855 13.487413194444526  0 11.814236111110949  0 10  C 0 8.185763888889051  0.44704861111110855 6.5125868055554745  1.3411458333333257 4.98046875  C 2.235243055555566 3.4483506944445255  3.448350694444434 2.2352430555554745  4.98046875 1.3411458333335757  C 6.512586805555566 0.44704861111094946  8.185763888888891 0  10 0  C 11.814236111111109 0  13.487413194444436 0.44704861111094946  15.01953125 1.3411458333335757  C 16.551649305555564 2.2352430555554745  17.764756944444436 3.4483506944445255  18.658854166666675 4.98046875  Z " stroke-width="2" stroke="#797979" fill="none" transform="matrix(1 0 0 1 1093 4083 )" mask="url(#clip13)" />
  </g>
</svg>