<?xml version="1.0" encoding="utf-8"?>
<svg version="1.1" xmlns:xlink="http://www.w3.org/1999/xlink" width="19px" height="19px" xmlns="http://www.w3.org/2000/svg">
  <defs>
    <mask fill="white" id="clip52">
      <path d="M 17.72591145833334 4.7314453125  C 18.575303819444446 6.186957465277701  19 7.776475694444598  19 9.5  C 19 11.223524305555403  18.575303819444446 12.8130425347223  17.72591145833334 14.2685546875  C 16.876519097222214 15.7240668402777  15.724066840277786 16.8765190972223  14.2685546875 17.7259114583331  C 12.813042534722214 18.5753038194446  11.223524305555554 19  9.5 19  C 7.776475694444447 19  6.1869574652777874 18.5753038194446  4.7314453125 17.7259114583331  C 3.2759331597222126 16.8765190972223  2.1234809027777874 15.7240668402777  1.2740885416666594 14.2685546875  C 0.42469618055555314 12.8130425347223  0 11.223524305555403  0 9.5  C 0 7.776475694444598  0.42469618055555314 6.186957465277701  1.2740885416666594 4.7314453125  C 2.1234809027777874 3.275933159722299  3.2759331597222126 2.123480902777701  4.7314453125 1.274088541666897  C 6.1869574652777874 0.424696180555402  7.776475694444447 0  9.5 0  C 11.223524305555554 0  12.813042534722214 0.424696180555402  14.2685546875 1.274088541666897  C 15.724066840277786 2.123480902777701  16.876519097222214 3.275933159722299  17.72591145833334 4.7314453125  Z " fill-rule="evenodd" />
    </mask>
  </defs>
  <g transform="matrix(1 0 0 1 -585 -3545 )">
    <path d="M 17.72591145833334 4.7314453125  C 18.575303819444446 6.186957465277701  19 7.776475694444598  19 9.5  C 19 11.223524305555403  18.575303819444446 12.8130425347223  17.72591145833334 14.2685546875  C 16.876519097222214 15.7240668402777  15.724066840277786 16.8765190972223  14.2685546875 17.7259114583331  C 12.813042534722214 18.5753038194446  11.223524305555554 19  9.5 19  C 7.776475694444447 19  6.1869574652777874 18.5753038194446  4.7314453125 17.7259114583331  C 3.2759331597222126 16.8765190972223  2.1234809027777874 15.7240668402777  1.2740885416666594 14.2685546875  C 0.42469618055555314 12.8130425347223  0 11.223524305555403  0 9.5  C 0 7.776475694444598  0.42469618055555314 6.186957465277701  1.2740885416666594 4.7314453125  C 2.1234809027777874 3.275933159722299  3.2759331597222126 2.123480902777701  4.7314453125 1.274088541666897  C 6.1869574652777874 0.424696180555402  7.776475694444447 0  9.5 0  C 11.223524305555554 0  12.813042534722214 0.424696180555402  14.2685546875 1.274088541666897  C 15.724066840277786 2.123480902777701  16.876519097222214 3.275933159722299  17.72591145833334 4.7314453125  Z " fill-rule="nonzero" fill="#ffffff" stroke="none" transform="matrix(1 0 0 1 585 3545 )" />
    <path d="M 17.72591145833334 4.7314453125  C 18.575303819444446 6.186957465277701  19 7.776475694444598  19 9.5  C 19 11.223524305555403  18.575303819444446 12.8130425347223  17.72591145833334 14.2685546875  C 16.876519097222214 15.7240668402777  15.724066840277786 16.8765190972223  14.2685546875 17.7259114583331  C 12.813042534722214 18.5753038194446  11.223524305555554 19  9.5 19  C 7.776475694444447 19  6.1869574652777874 18.5753038194446  4.7314453125 17.7259114583331  C 3.2759331597222126 16.8765190972223  2.1234809027777874 15.7240668402777  1.2740885416666594 14.2685546875  C 0.42469618055555314 12.8130425347223  0 11.223524305555403  0 9.5  C 0 7.776475694444598  0.42469618055555314 6.186957465277701  1.2740885416666594 4.7314453125  C 2.1234809027777874 3.275933159722299  3.2759331597222126 2.123480902777701  4.7314453125 1.274088541666897  C 6.1869574652777874 0.424696180555402  7.776475694444447 0  9.5 0  C 11.223524305555554 0  12.813042534722214 0.424696180555402  14.2685546875 1.274088541666897  C 15.724066840277786 2.123480902777701  16.876519097222214 3.275933159722299  17.72591145833334 4.7314453125  Z " stroke-width="2" stroke="#797979" fill="none" transform="matrix(1 0 0 1 585 3545 )" mask="url(#clip52)" />
  </g>
</svg>