<?xml version="1.0" encoding="utf-8"?>
<svg version="1.1" xmlns:xlink="http://www.w3.org/1999/xlink" width="12px" height="9px" xmlns="http://www.w3.org/2000/svg">
  <defs>
    <mask fill="white" id="clip53">
      <path d="M 11.721507352941178 2.4893329326923075  C 11.859375 2.3541165865384617  11.928308823529411 2.1850961538461537  11.928308823529411 1.9822716346153846  C 11.928308823529411 1.7719350961539162  11.859375 1.5991586538459441  11.721507352941178 1.4639423076920979  L 10.676011029411772 0.4498197115382517  C 10.530484068627448 0.30709134615370626  10.35814950980392 0.23572716346174832  10.159007352941183 0.23572716346174832  C 9.959865196078427 0.23572716346174832  9.787530637254898 0.30709134615370626  9.642003676470594 0.4498197115382517  L 4.954503676470595 5.035907451923287  L 2.357996323529405 2.4893329326923075  C 2.2124693627451024 2.3466045673077622  2.040134803921573 2.2752403846151745  1.8409926470588167 2.2752403846151745  C 1.6418504901960809 2.2752403846151745  1.4695159313725512 2.3466045673077622  1.3239889705882286 2.4893329326923075  L 0.27849264705882354 3.503455528846154  C 0.140625 3.638671875  0.07169117647058823 3.8114483173079723  0.07169117647058823 4.0217848557694404  C 0.07169117647058823 4.22460937500021  0.140625 4.393629807692518  0.27849264705882354 4.528846153846364  L 4.437500000000007 8.607872596153847  C 4.583026960784309 8.750600961538392  4.755361519607838 8.82196514423098  4.954503676470595 8.82196514423098  C 5.1613051470588305 8.82196514423098  5.3374693627450895 8.750600961538392  5.482996323529411 8.607872596153847  L 11.721507352941178 2.4893329326923075  Z " fill-rule="evenodd" />
    </mask>
  </defs>
  <g transform="matrix(1 0 0 1 -589 -3550 )">
    <path d="M 11.721507352941178 2.4893329326923075  C 11.859375 2.3541165865384617  11.928308823529411 2.1850961538461537  11.928308823529411 1.9822716346153846  C 11.928308823529411 1.7719350961539162  11.859375 1.5991586538459441  11.721507352941178 1.4639423076920979  L 10.676011029411772 0.4498197115382517  C 10.530484068627448 0.30709134615370626  10.35814950980392 0.23572716346174832  10.159007352941183 0.23572716346174832  C 9.959865196078427 0.23572716346174832  9.787530637254898 0.30709134615370626  9.642003676470594 0.4498197115382517  L 4.954503676470595 5.035907451923287  L 2.357996323529405 2.4893329326923075  C 2.2124693627451024 2.3466045673077622  2.040134803921573 2.2752403846151745  1.8409926470588167 2.2752403846151745  C 1.6418504901960809 2.2752403846151745  1.4695159313725512 2.3466045673077622  1.3239889705882286 2.4893329326923075  L 0.27849264705882354 3.503455528846154  C 0.140625 3.638671875  0.07169117647058823 3.8114483173079723  0.07169117647058823 4.0217848557694404  C 0.07169117647058823 4.22460937500021  0.140625 4.393629807692518  0.27849264705882354 4.528846153846364  L 4.437500000000007 8.607872596153847  C 4.583026960784309 8.750600961538392  4.755361519607838 8.82196514423098  4.954503676470595 8.82196514423098  C 5.1613051470588305 8.82196514423098  5.3374693627450895 8.750600961538392  5.482996323529411 8.607872596153847  L 11.721507352941178 2.4893329326923075  Z " fill-rule="nonzero" fill="#b929fe" stroke="none" fill-opacity="0" transform="matrix(1 0 0 1 589 3550 )" />
    <path d="M 11.721507352941178 2.4893329326923075  C 11.859375 2.3541165865384617  11.928308823529411 2.1850961538461537  11.928308823529411 1.9822716346153846  C 11.928308823529411 1.7719350961539162  11.859375 1.5991586538459441  11.721507352941178 1.4639423076920979  L 10.676011029411772 0.4498197115382517  C 10.530484068627448 0.30709134615370626  10.35814950980392 0.23572716346174832  10.159007352941183 0.23572716346174832  C 9.959865196078427 0.23572716346174832  9.787530637254898 0.30709134615370626  9.642003676470594 0.4498197115382517  L 4.954503676470595 5.035907451923287  L 2.357996323529405 2.4893329326923075  C 2.2124693627451024 2.3466045673077622  2.040134803921573 2.2752403846151745  1.8409926470588167 2.2752403846151745  C 1.6418504901960809 2.2752403846151745  1.4695159313725512 2.3466045673077622  1.3239889705882286 2.4893329326923075  L 0.27849264705882354 3.503455528846154  C 0.140625 3.638671875  0.07169117647058823 3.8114483173079723  0.07169117647058823 4.0217848557694404  C 0.07169117647058823 4.22460937500021  0.140625 4.393629807692518  0.27849264705882354 4.528846153846364  L 4.437500000000007 8.607872596153847  C 4.583026960784309 8.750600961538392  4.755361519607838 8.82196514423098  4.954503676470595 8.82196514423098  C 5.1613051470588305 8.82196514423098  5.3374693627450895 8.750600961538392  5.482996323529411 8.607872596153847  L 11.721507352941178 2.4893329326923075  Z " stroke-width="2" stroke="#797979" fill="none" transform="matrix(1 0 0 1 589 3550 )" mask="url(#clip53)" />
  </g>
</svg>