<?xml version="1.0" encoding="utf-8"?>
<svg version="1.1" xmlns:xlink="http://www.w3.org/1999/xlink" width="14px" height="11px" xmlns="http://www.w3.org/2000/svg">
  <defs>
    <mask fill="white" id="clip14">
      <path d="M 13.675091911764707 3.0425180288461537  C 13.8359375 2.877253605769231  13.916360294117647 2.670673076923077  13.916360294117647 2.4227764423076925  C 13.916360294117647 2.1656984508547863  13.8359375 1.9545272435894872  13.675091911764707 1.789262820512564  L 12.455346200980399 0.5497796474356409  C 12.285564746732023 0.3753338675211965  12.084507761437907 0.28811097756435905  11.852175245098046 0.28811097756435905  C 11.619842728758165 0.28811097756435905  11.418785743464047 0.3753338675211965  11.249004289215694 0.5497796474356409  L 5.780254289215694 6.154997996795129  L 2.750995710784306 3.0425180288461537  C 2.5812142565359526 2.8680722489317096  2.3801572712418353 2.7808493589741023  2.147824754901953 2.7808493589741023  C 1.9154922385620943 2.7808493589741023  1.7144352532679763 2.8680722489317096  1.5446537990196 3.0425180288461537  L 0.32490808823529416 4.2820012019230775  C 0.1640625 4.447265625  0.08363970588235294 4.658436832265299  0.08363970588235294 4.915514823718206  C 0.08363970588235294 5.16341145833359  0.1640625 5.369991987179744  0.32490808823529416 5.535256410256666  L 5.177083333333341 10.520733173076923  C 5.346864787581694 10.695178952991368  5.547921772875812 10.782401842948975  5.780254289215694 10.782401842948975  C 6.021522671568635 10.782401842948975  6.2270475898692705 10.695178952991368  6.396829044117647 10.520733173076923  L 13.675091911764707 3.0425180288461537  Z " fill-rule="evenodd" />
    </mask>
  </defs>
  <g transform="matrix(1 0 0 1 -1096 -4088 )">
    <path d="M 13.675091911764707 3.0425180288461537  C 13.8359375 2.877253605769231  13.916360294117647 2.670673076923077  13.916360294117647 2.4227764423076925  C 13.916360294117647 2.1656984508547863  13.8359375 1.9545272435894872  13.675091911764707 1.789262820512564  L 12.455346200980399 0.5497796474356409  C 12.285564746732023 0.3753338675211965  12.084507761437907 0.28811097756435905  11.852175245098046 0.28811097756435905  C 11.619842728758165 0.28811097756435905  11.418785743464047 0.3753338675211965  11.249004289215694 0.5497796474356409  L 5.780254289215694 6.154997996795129  L 2.750995710784306 3.0425180288461537  C 2.5812142565359526 2.8680722489317096  2.3801572712418353 2.7808493589741023  2.147824754901953 2.7808493589741023  C 1.9154922385620943 2.7808493589741023  1.7144352532679763 2.8680722489317096  1.5446537990196 3.0425180288461537  L 0.32490808823529416 4.2820012019230775  C 0.1640625 4.447265625  0.08363970588235294 4.658436832265299  0.08363970588235294 4.915514823718206  C 0.08363970588235294 5.16341145833359  0.1640625 5.369991987179744  0.32490808823529416 5.535256410256666  L 5.177083333333341 10.520733173076923  C 5.346864787581694 10.695178952991368  5.547921772875812 10.782401842948975  5.780254289215694 10.782401842948975  C 6.021522671568635 10.782401842948975  6.2270475898692705 10.695178952991368  6.396829044117647 10.520733173076923  L 13.675091911764707 3.0425180288461537  Z " fill-rule="nonzero" fill="#b929fe" stroke="none" fill-opacity="0" transform="matrix(1 0 0 1 1096 4088 )" />
    <path d="M 13.675091911764707 3.0425180288461537  C 13.8359375 2.877253605769231  13.916360294117647 2.670673076923077  13.916360294117647 2.4227764423076925  C 13.916360294117647 2.1656984508547863  13.8359375 1.9545272435894872  13.675091911764707 1.789262820512564  L 12.455346200980399 0.5497796474356409  C 12.285564746732023 0.3753338675211965  12.084507761437907 0.28811097756435905  11.852175245098046 0.28811097756435905  C 11.619842728758165 0.28811097756435905  11.418785743464047 0.3753338675211965  11.249004289215694 0.5497796474356409  L 5.780254289215694 6.154997996795129  L 2.750995710784306 3.0425180288461537  C 2.5812142565359526 2.8680722489317096  2.3801572712418353 2.7808493589741023  2.147824754901953 2.7808493589741023  C 1.9154922385620943 2.7808493589741023  1.7144352532679763 2.8680722489317096  1.5446537990196 3.0425180288461537  L 0.32490808823529416 4.2820012019230775  C 0.1640625 4.447265625  0.08363970588235294 4.658436832265299  0.08363970588235294 4.915514823718206  C 0.08363970588235294 5.16341145833359  0.1640625 5.369991987179744  0.32490808823529416 5.535256410256666  L 5.177083333333341 10.520733173076923  C 5.346864787581694 10.695178952991368  5.547921772875812 10.782401842948975  5.780254289215694 10.782401842948975  C 6.021522671568635 10.782401842948975  6.2270475898692705 10.695178952991368  6.396829044117647 10.520733173076923  L 13.675091911764707 3.0425180288461537  Z " stroke-width="2" stroke="#797979" fill="none" transform="matrix(1 0 0 1 1096 4088 )" mask="url(#clip14)" />
  </g>
</svg>