<?xml version="1.0" encoding="utf-8"?>
<svg version="1.1" xmlns:xlink="http://www.w3.org/1999/xlink" width="260px" height="30px" xmlns="http://www.w3.org/2000/svg">
  <g transform="matrix(1 0 0 1 -193 -4962 )">
    <path d="M 157.93583947495802 5.6246172897196045  C 164.45408512454517 6.533622897196272  171.64426496938492 6.141346261682242  178.2553488813549 6.050356542056079  C 202.5189621654557 5.716414485981314  226.7817504341537 5.907905140186932  251.043713687449 6.624828504672899  C 253.13086488681282 6.68653598130842  255.29666488461817 6.7657892523364405  257.13981737812935 7.410716355140187  C 258.98296987164053 8.055643457943935  260.4014212565248 9.439150934579429  259.8971365989952 10.768288317757  C 250.42606230175326 11.095192990654207  240.94521037051013 11.196202336448573  231.4545808052658 11.071316355140164  C 229.38775862621412 12.252531308411182  227.11866029209943 14.031646261682207  228.38887563277163 15.624654672897165  C 229.26781740637264 16.726958411214927  231.43742368883215 17.055121962616784  233.33476767951583 17.057704205607454  C 236.7712059385105 17.0623836448598  240.2214660089514 16.404248130841108  243.6070552846335 16.79038177570092  C 246.99264456031565 17.17651542056073  250.37086396539516 19.254183644859793  249.37909853201938 21.4111023364486  C 248.6259587915626 23.04904626168224  245.76868374824718 23.859864953271032  243.16844105217595 24.004649999999994  C 240.56819835610472 24.14943504672896  237.9057238671206 23.84836401869159  235.36408209520442 24.23623878504673  C 232.94874697750407 24.604832242990664  230.85613385577983 25.56260607476637  228.59564291537174 26.231193925233633  C 225.02986546981683 27.28584532710278  221.077122959959 27.611712616822423  217.1881429269312 27.888923831775678  C 187.32615774462172 30.017521962616794  157.2165381817868 30.000632242990623  127.178555587456 29.981353738317722  C 115.01792787334614 29.973545327102787  102.69212566772154 29.952057476635467  90.94915359089637 27.880708878504638  C 84.25541995627448 26.699995794392475  77.8410589646227 24.866468691588736  71.0628733892361 23.91508177570092  C 62.966418129418244 22.778664953271008  54.59859928392342 22.932918224299037  46.318805576971556 22.966978037383157  C 31.78335420537903 23.026770560747643  17.260160319910856 22.699943457943917  2.74922392056705 21.986496728971957  C 1.6693756776686766 21.93337429906541  0.343889911913855 21.753452803738313  0.052468840120433145 21.06975280373831  C -0.287628941420335 20.2718453271028  1.0926274342605022 19.649233177570096  2.2593281724497905 19.330821028037384  C 8.870338160203556 17.545356820763747  15.592457090019996 16.375442841788182  22.36226142379808 15.832117289719632  C 25.79078674379893 15.550823831775704  29.32379505814861 15.407631308411219  32.47714329894587 14.481621028037384  C 35.63049153974312 13.55561074766355  38.38537175876292 11.613646261682247  38.355767322563715 9.34860700934578  C 38.346737008339964 8.657653738317755  38.09685826552478 7.918492990654198  38.59108174007018 7.308180841121486  C 39.247346249571535 6.49776028037383  40.86202794848987 6.311833177570092  42.25515216149593 6.223478971962596  C 57.698772478563754 5.24400700934576  73.22655878445573 4.835132242990631  88.7402637594932 4.999434112149506  C 94.19738020498 5.05723037383175  99.6769859295568 5.185184579439225  105.09545801279074 4.756299532710264  C 109.53519590108297 4.404884579439238  113.88379441793337 3.683384579439237  118.25929404381381 3.0776565420560535  C 124.13249939830595 2.2645892523364233  149.69254188626863 -1.9474079439252552  153.42116295457905 1.470234112149498  C 156.21234224934773 4.028620093457909  150.449718595298 4.580636915887801  157.93583947495802 5.6246172897196045  Z " fill-rule="nonzero" fill="#ccecef" stroke="none" transform="matrix(1 0 0 1 193 4962 )" />
  </g>
</svg>