<?xml version="1.0" encoding="utf-8"?>
<svg version="1.1" xmlns:xlink="http://www.w3.org/1999/xlink" width="200px" height="23px" xmlns="http://www.w3.org/2000/svg">
  <g transform="matrix(1 0 0 1 -125 -4229 )">
    <path d="M 121.48910728842924 4.31220658878503  C 126.5031424034963 5.0091108878504755  132.03404997644995 4.708365467289719  137.11949913950377 4.638606682242994  C 155.78381705035054 4.382584439252341  174.4475003339644 4.529393940809981  193.1105489903454 5.079035186915889  C 194.71604991293293 5.126344252336456  196.38204991124474 5.187105093457937  197.79985952163796 5.681549205607477  C 199.21766913203118 6.175993317757016  200.30878558194217 7.236682383177563  199.9208743069194 8.255687710280366  C 192.63543253981018 8.506314626168225  185.34246951577703 8.583755124610573  178.04198523481983 8.488009205607458  C 176.45212202016472 9.393607336448573  174.70666176315342 10.757595467289692  175.6837504867474 11.978901915887826  C 176.35985954336357 12.82400144859811  178.02878745294782 13.075593504672867  179.4882828303968 13.077573224299048  C 182.1316968757773 13.081160794392513  184.78574308380877 12.57659023364485  187.39004252664117 12.872626028037372  C 189.99434196947357 13.168661822429891  192.5929722810732 14.76154079439251  191.83007579386106 16.415178457943927  C 191.25073753197123 17.670935467289716  189.05283365249784 18.292563130841124  187.05264696321225 18.403564999999997  C 185.0524602739267 18.51456686915887  183.00440297470814 18.283745747663552  181.04929391938802 18.58111640186916  C 179.19134382884928 18.863704719626178  177.58164142752295 19.597997990654218  175.84280224259365 20.110582009345787  C 173.0998965152437 20.91914808411213  170.05932535381461 21.16897967289719  167.06780225148555 21.38150827102802  C 144.0970444189398 23.013433504672875  120.93579860137447 23.000484719626144  97.82965814419693 22.985704532710255  C 88.47532913334318 22.979718084112136  78.99394282132425 22.963244065420525  69.9608873776126 21.37521014018689  C 64.81186150482652 20.4699967757009  59.877737665094386 19.064292663551363  54.663748760950845 18.33489602803737  C 48.43570625339865 17.463643130841106  41.99892252609494 17.581903971962596  35.629850443824274 17.608016495327085  C 24.448734004137716 17.653857429906527  13.277046399931427 17.40328998442367  2.114787631205423 16.8563141588785  C 1.2841351366682128 16.815586962616813  0.26453070147219615 16.677647149532707  0.04036064624648704 16.153477149532705  C -0.22125303186179618 15.541748084112145  0.8404826417388479 15.064412102803741  1.7379447480383003 14.820296121495327  C 6.823337046310428 13.451440229252205  11.994197761553844 12.554506178704273  17.201739556767755 12.137956588785052  C 19.839066725999178 11.92229827102804  22.556765429345084 11.812517336448602  24.982417922266052 11.102576121495328  C 27.408070415187012 10.392634906542055  29.527209045202245 8.903795467289722  29.50443640197209 7.167265373831765  C 29.497490006415354 6.637534532710279  29.305275588865214 6.070844626168219  29.68544749236168 5.602938644859806  C 30.190266345824256 4.98161621495327  31.432329191146053 4.839072102803737  32.50396320115072 4.771333878504657  C 44.383671137356735 4.020405373831749  56.328122141889025 3.7069347196261506  68.2617413534563 3.832899485981288  C 72.45952323460001 3.8772099532710085  76.67460456119754 3.9753081775700725  80.84266000983902 3.6464963084112023  C 84.25784300083305 3.3770781775700827  87.60291878302567 2.8239281775700813  90.96868772601063 2.3595366822429744  C 95.48653799869689 1.7361850934579244  115.14810914328355 -1.4930127570093623  118.01627919583004 1.1271794859812818  C 120.16334019180594 3.0886087383177303  115.73055276561387 3.5118216355139813  121.48910728842924 4.31220658878503  Z " fill-rule="nonzero" fill="#ccecef" stroke="none" transform="matrix(1 0 0 1 125 4229 )" />
  </g>
</svg>