<?xml version="1.0" encoding="utf-8"?>
<svg version="1.1" xmlns:xlink="http://www.w3.org/1999/xlink" width="123px" height="33px" xmlns="http://www.w3.org/2000/svg">
  <g transform="matrix(1 0 0 1 -248 -4938 )">
    <path d="M 121.75463331081083 32.41138399159668  C 123.91950533783785 28.386801050420157  122.72590668918919 14.059540462184884  121.8171416891892 5.8414783613445245  C 121.45071881105603 2.525052153969851  118.55872822861258 0.07364509945688508  115.23060804054053 0.25837752100837974  C 91.17278871621622 1.587617521008378  1.2967718243243143 6.513680042016788  1.6875987837837794 5.898867857142847  C 2.460088648648644 4.683710798319313  1.9083089864864873 5.015116764705865  1.9083089864864873 5.015116764705865  C 1.9083089864864873 5.015116764705865  1.1200839864864849 7.530604159663855  0.4745999324324317 10.277599033613413  C 0.5660964189189226 10.268536512605001  0.6344777702702639 10.354758025210048  0.3364936486486433 10.87964105042015  C 0.30998216216216645 10.998093487394938  0.28386682432433014 11.116572731092441  0.2581476351351344 11.235078781512597  C 3.8578562162162218 11.591109957983178  90.18190459459458 6.859478445378141  113.68562831081084 5.560875756302527  C 117.0137484988829 5.376143334751032  119.9057390813263 7.827550389263966  120.27216195945947 11.143976596638673  C 120.94783087837838 17.25401533613448  121.78049932432435 26.740012310924403  121.27371439189191 32.859085840336164  C 121.46914949566417 32.75280634115598  121.63457893568166 32.598803112715245  121.75463331081083 32.41138399159668  Z " fill-rule="nonzero" fill="#000000" stroke="none" transform="matrix(1 0 0 1 248 4938 )" />
  </g>
</svg>