<?xml version="1.0" encoding="utf-8"?>
<svg version="1.1" xmlns:xlink="http://www.w3.org/1999/xlink" width="95px" height="25px" xmlns="http://www.w3.org/2000/svg">
  <g transform="matrix(1 0 0 1 -167 -4210 )">
    <path d="M 94.03813141891894 24.554078781512636  C 95.71018704954956 21.505152310924363  94.78830191441442 10.65116701680673  94.08641024774775 4.425362394957974  C 93.80340070772621 1.9129182984620086  91.56974944486338 0.055791742012791724  88.99925011261261 0.1957405462184695  C 70.41800754504504 1.2027405462184682  1.0015717342342265 4.934606092436961  1.3034299549549515 4.468839285714277  C 1.900068468468465 3.54826575630251  1.4738971846846853 3.7993308823529275  1.4738971846846853 3.7993308823529275  C 1.4738971846846853 3.7993308823529275  0.8651055180180168 5.705003151260496  0.3665609234234229 7.786059873949555  C 0.4372289414414443 7.779194327731062  0.49004380630630134 7.844513655462157  0.25989346846846434 8.242152310924356  C 0.23941711711712044 8.331889005602225  0.2192467342342387 8.421646008403364  0.19938231981981921 8.511423319327726  C 2.979645045045049 8.781143907563015  69.65269054054053 5.196574579831925  87.8059730855856 4.212784663865551  C 90.3764724178364 4.072835859659873  92.61012368069917 5.929962416109066  92.89313322072073 8.442406512605055  C 93.41499132882883 13.071223739495819  94.05810923423425 20.25758508403364  93.66668997747749 24.893246848739516  C 93.81763578933412 24.81273207663332  93.94540649503868 24.696062964178218  94.03813141891894 24.554078781512636  Z " fill-rule="nonzero" fill="#000000" stroke="none" transform="matrix(1 0 0 1 167 4210 )" />
  </g>
</svg>