<?xml version="1.0" encoding="utf-8"?>
<svg version="1.1" xmlns:xlink="http://www.w3.org/1999/xlink" width="112px" height="34px" xmlns="http://www.w3.org/2000/svg">
  <g transform="matrix(1 0 0 1 -160 -4189 )">
    <path d="M 18.924592524084662 12.451384580645124  C 19.753796069364167 12.08656677419355  18.372005240847788 11.344125225806454  17.771016262042394 11.1569124516129  C 16.875266589595377 10.877875548387092  15.741584894026975 10.51753477419355  15.84375953757226 9.92993361290323  C 15.898043930635845 9.617732451612907  16.309036454720626 9.374169612903225  16.606826974951833 9.112411290322582  C 17.18085394990367 8.607851290322577  17.335638381502893 7.8971569677419415  16.719053564547217 7.409844838709675  C 16.102468747591544 6.922532709677407  14.617331483622356 6.857371161290326  14.073350289017354 7.373048064516124  C 13.793514296724481 7.638320451612902  13.810374720616581 7.971009354838704  13.665903352601168 8.27062393548386  C 13.215179961464369 9.205338774193532  11.391535105973034 9.615751677419347  9.84234420038537 9.97889361290321  C 8.293153294797706 10.34203554838707  6.5598551059730354 11.017663806451594  6.705496107899819 11.984674258064501  C 6.864367784200397 13.039551677419333  9.254247090558774 13.975352322580632  8.292656955684015 14.874819032258047  C 7.9439593063583915 15.200988709677398  7.210447784200392 15.382985225806435  7.054364238921011 15.756105612903221  C 6.944543815028914 16.018627290322566  7.16513849710984 16.285599677419345  7.37927645472063 16.525404967741938  L 8.901144971098281 18.229688967741946  C 9.506646319845878 18.90776522580646  10.130538111753383 19.6455915483871  9.927742581888262 20.400378387096794  C 9.525776955684021 21.896459548387117  6.258544894026996 22.46881116129034  3.6688869364162047 22.300708580645182  C 2.720549055876711 22.23914883870971  1.6059267822736183 22.154879290322604  0.9542551059730455 22.55993993548389  C 0.45203545279385643 22.872103806451623  0.4528900192678462 23.358327935483896  0.6198196531792075 23.774507677419376  C 1.0494594219653384 24.845652451612917  2.423904431599249 25.773299677419367  4.1829259344894245 26.179336451612937  C 2.2114108670520496 26.57470819354841  1.437134797687887 28.24118200000003  2.798318921001944 29.159423290322614  C 2.0193730943532264 29.431820324333426  1.1772398430565822 29.456357141413122  0.38422258188826 29.229761612903253  C -0.2890053179190599 29.85974870967744  0.10677549132949704 30.7243072903226  0.9606233526011678 31.275425354838745  C 1.8144712138728383 31.826543419354884  3.0240992678227503 32.13661245161295  4.195362466281324 32.43101735483875  L 3.099232061657048 33.47282561290326  C 3.892474759152236 34.10252974193553  5.605457572254354 33.88056019354842  6.760615645472077 33.48255180645165  C 7.915773718689799 33.08454341935489  9.169243622350688 32.55013580645166  10.463493179190761 32.75838909677424  C 11.677320693641633 32.95370045161295  12.595431522158009 33.776682516129064  13.831367707129107 33.63576019354842  C 14.789183506743749 33.52655000000003  15.244980346820828 32.90087761290327  15.54339236994221 32.360836967741974  L 16.811935876685943 30.065119677419393  C 18.61766720616572 30.352288064516177  20.51627437379577 29.094588580645194  19.791097032755314 28.091625870967786  C 21.81174967244703 28.312202516129084  23.80067545279385 26.978351806451666  23.13733980732179 25.847505225806497  C 24.213463429672462 26.69117245161295  24.971142350674388 27.671252064516164  25.34182998073219 28.699072064516166  C 25.50745834296726 29.158322129032307  25.60827560693643 29.643905741935516  26.05942196531793 30.033067548387137  C 26.657268204208474 30.48514092470265  27.428706650537066 30.627000064122143  28.144477842003862 30.416486645161324  C 27.776010789980738 31.142820967741976  27.47755776493257 31.990013225806496  28.23476624277457 32.606286258064536  C 28.991974720616568 33.22255929032258  31.177008400770717 33.0477817419355  31.080545973025053 32.292624193548406  C 32.23523791907515 32.79700651612905  33.529183198458576 33.271023548387106  34.97227622350674 33.30865167741937  C 36.41536924855492 33.34627980645164  37.99468146435454 32.78804148387098  38.126068901734115 31.952097741935496  C 40.15976363042794 32.63388125846822  42.287330041744724 32.981977177418415  44.428777186897875 32.983298000000005  C 44.61095090558767 32.42387296774193  45.88309179190751 32.24297541935485  46.83421564547205 32.3796970967742  C 47.78533949903659 32.51641877419355  48.66760601156069 32.84491141935484  49.64739452793833 32.845472967741934  C 50.62718304431597 32.84603451612904  51.680874296724454 32.24663425806451  51.17925456647397 31.757562903225796  C 53.242413385323566 32.196282986584364  55.360305513892435 32.30492129613838  57.456433757225405 32.07955387096773  C 59.43373441233139 31.86618741935482  61.30764115606934 31.359054387096762  63.30991845857416 31.249686258064497  C 65.34103519002701 31.123977164711548  67.37466744833709 31.450456324444882  69.26880616570325 32.20632561290319  C 69.92521895953757 32.486086387096755  70.74108824662811 32.838225483870936  71.46222581888243 32.61877412903222  C 71.871269672447 32.49429683870965  72.07010312138726 32.2255147741935  72.34797749518302 32.01122483870964  C 73.54396053949901 31.08892548387092  75.98950319845854 31.265784709677376  77.87632123314062 31.628393612903178  C 79.7631392678227 31.991002516128972  81.95792924855486 32.427542774193505  83.61113556840073 31.786651548387038  C 84.23493456647392 31.544823806451557  84.69456832369937 31.171141870967674  85.35808955684004 30.96813554838705  C 87.73508994219651 30.240871161290276  90.58015105973021 32.104347548387054  93.10307298651247 31.568185096774137  C 93.92465017341036 31.393578645161224  94.59125302504813 30.97583709677413  95.46154697495179 30.924308451612834  C 97.00522851637761 30.83290767741928  98.02534782273597 31.89639477419347  99.5262557225433 32.12514896774187  C 101.08359522157988 32.36249090322574  102.77181502890166 31.39927967741928  102.3919451252408 30.49011748387091  C 103.88876573514143 30.52388499301663  105.3812049924754 30.31303131367141  106.81222905587663 29.86561425806446  L 106.10524793834291 28.572179677419314  C 107.86693672447008 28.543334516129  109.1629126782273 27.259623935483834  108.34667653179184 26.351959935483837  C 110.11333734104042 26.009957225806417  111.51025572254329 25.089533354838675  111.87337526011555 24.028231032258024  C 112.23649479768783 22.966928709677372  111.55170219653175 21.805997612903187  110.14453333333327 21.097308193548336  C 109.31403283236989 20.679044580645105  108.22337942196525 20.384911677419296  107.74864184971092 19.80893851612897  C 107.40676346820803 19.39415387096767  107.45658944123308 18.911621483870917  107.32362450867046 18.45825451612898  C 107.03259067437374 17.465930516128985  105.7711620809248 16.589757096774143  104.14168940269742 16.24812070967737  C 103.43397888246619 16.099742516128988  102.65956685934482 16.043359548387034  102.0187865895953 15.814236838709638  C 101.37800631984577 15.585114129032242  100.9151873603082 15.088793096774147  101.2849966859344 14.708056709677388  C 101.48072693641609 14.506550774193515  101.8577072832369 14.387879806451592  102.10145942196522 14.204913741935462  C 103.08983676300568 13.46302058064514  101.39512786127156 12.524028322580618  99.94835976878602 12.107523935483853  L 103.40325549132938 11.992660967741918  L 104.14511414258179 8.573594645161268  C 102.77818543352589 9.703653741935465  99.23238412331398 9.465971806451595  98.34412053949892 8.184742129032232  C 99.45394990366077 8.554923161290297  100.94246011560682 8.081572967741911  101.48508393063572 7.4081272903225495  C 102.0277077456646 6.734681612903188  101.89433710982645 5.951490516128997  101.74950104046229 5.21265735483868  C 101.72163876905329 4.839336082205821  101.50303365147977 4.508281808317  101.17368940269736 4.340651677419323  C 100.83553140655093 4.176923032258027  100.29677903660874 4.108574258064486  100.18584724470122 3.8610674193548125  C 100.07266034682068 3.608519806451587  100.51010990366076 3.385205612903196  100.57500947976867 3.126974516129001  C 100.69959491329467 2.6312523225806155  99.57855907514438 2.412774903225781  98.821551290944 2.173039806451584  C 97.03544909441221 1.6074026451612597  96.1705630828515 0.017860967741903405  94.13838242774554 0.06953219354835959  C 92.12198104046232 0.12080199999996812  91.55839660886308 1.6856750322580345  91.55701549132937 2.858523677419326  C 91.55563437379566 4.0313723225806175  90.87326951830433 5.599801096774168  88.85527552986501 5.578409612903194  C 88.04944739884381 5.569865741935452  87.34685348747581 5.275355548387061  86.7034490944122 4.993295935483832  L 80.92384123314054 2.4595830322580152  C 80.16018960260807 2.098446785664311  79.36569965956318 1.8089239898043248  78.55026127167618 1.5946186451612543  C 77.38449233140642 1.3180845806451242  76.09658944123302 1.285420451612866  74.83842157996136 1.2563581290322168  L 66.75337248554902 1.0696016129031887  C 66.3415752217683 1.0367282828035695  65.92726252068242 1.0729403212873267  65.52703075144498 1.17678716129028  C 65.1023371098265 1.3210195483870562  64.89595714836213 1.6050050967741563  64.64014396917136 1.84915799999996  C 63.51437564547195 2.923617225806417  60.86745957610779 3.344440709677381  58.95718628131009 2.752680580645115  C 58.450715375722424 2.5957848387096307  57.9968779961463 2.37949219354834  57.46018435452781 2.2612687096773776  C 55.769690019267706 1.8888765806451162  53.99577618497098 2.577841612903182  52.23936585741799 2.826747935483831  C 49.36006597302491 3.234783032258026  45.78205441233128 2.532474645161248  43.70632539499024 3.7617106451612545  C 43.01430134874747 4.171524709677382  42.64718088631971 4.731875419354809  42.00588053949891 5.168665741935449  C 41.36458019267811 5.6054560645160905  40.207382813101994 5.901635548387061  39.3985895953756 5.571824580645121  C 39.500183737957485 6.373369096774159  39.59269703275518 7.209793225806416  39.05887352601144 7.9512323225806085  C 38.5250500192677 8.6926714193548  37.15590720616558 9.297774903225767  35.8107505202311 9.110814387096742  C 35.0968638150288 8.91899077419352  35.153142196531675 8.309072451612877  35.490775799614525 7.896286129032231  C 35.82840940269738 7.483499806451585  36.346248631984466 7.061744064516102  36.177920616570205 6.615291161290294  C 36.01092624277445 6.172385225806419  35.24668701348734 5.914783677419327  34.675258265895835 5.606039548387069  C 34.10382951830434 5.2972954193548105  33.72267992292859 4.7121400645161  34.32960986512512 4.427193741935459  C 33.92062211946038 3.8928936129031957  32.45061888246617 3.9580419999999754  31.80397533718677 4.406107161290294  C 31.157331791907367 4.854172322580612  31.09274512524072 5.4851640645161055  31.02224123314054 6.068500967741903  C 30.95173734104036 6.651837870967698  30.79806211946039 7.29084045161287  30.048823121387173 7.681228451612875  C 28.77198643545269 8.34653167741933  26.320709980732072 8.001361483870939  25.473910134874654 8.867962258064482  C 25.204913757225327 9.143252580645125  25.189041695568292 9.475336064516096  25.035135568400662 9.779008709677385  C 24.348167707128987 11.134468064516097  21.382476763005677 11.485477483870936  18.958304739884284 11.596087161290294  C 18.90721923909507 11.87811841360677  18.89586809960706 12.166103053018375  18.924592524084662 12.451384580645124  Z " fill-rule="nonzero" fill="#61ab43" stroke="none" transform="matrix(1 0 0 1 160 4189 )" />
  </g>
</svg>