<?xml version="1.0" encoding="utf-8"?>
<svg version="1.1" xmlns:xlink="http://www.w3.org/1999/xlink" width="146px" height="44px" xmlns="http://www.w3.org/2000/svg">
  <g transform="matrix(1 0 0 1 -238 -4911 )">
    <path d="M 24.669558111753222 16.113556516128984  C 25.750484161849716 15.64143935483871  23.949221117533725 14.680632645161293  23.16578905587669 14.438357290322578  C 21.99811537572254 14.077250709677411  20.520280308285162 13.610927354838712  20.653472254335266 12.85050232258065  C 20.724235838150296 12.446477290322585  21.259993949903674 12.131278322580645  21.6481851637765 11.792532258064517  C 22.396470327553 11.139572258064511  22.598242890173413 10.219850193548394  21.794480539499048 9.589210967741932  C 20.99071818882469 8.958571741935469  19.054735684007714 8.874245032258068  18.34561734104048 9.541591612903218  C 17.980831136801555 9.884885290322579  18.0028099036609 10.315423870967734  17.81448115606938 10.70316038709676  C 17.226931021194623 11.912791354838689  14.849679691714847 12.443913935483861  12.830198689788071 12.913862322580623  C 10.810717687861295 13.383810709677386  8.55123969171485 14.258153161290299  8.74109314065512 15.509578451612883  C 8.948193718689803 16.874713935483843  12.063572100192687 18.085750064516112  10.810070674373804 19.24976580645159  C 10.355518381502902 19.671867741935458  9.399333718689796 19.90739264516127  9.19586766859346 20.39025432258064  C 9.052708901734121 20.7299882580645  9.340269826589612 21.075481935483857  9.619413949903679 21.385818193548392  L 11.603278265895975 23.591362193548402  C 12.392592524084804 24.4688726451613  13.205880038535659 25.423706709677425  12.941521579961485 26.40048967741938  C 12.417530674373815 28.33659470967745  8.158460308285191 29.077285032258086  4.782656184971124 28.859740516129058  C 3.5464300192678553 28.780074967741974  2.093440269749538 28.671020258064548  1.2439396917148628 29.195216387096796  C 0.58926050096342 29.599193161290334  0.5903744894027281 30.228424387096805  0.807979190751467 30.767009935483898  C 1.3680453179191017 32.1531972903226  3.1597325626204493 33.353681935483884  5.4527427360308565 33.87914129032262  C 2.8827320231214215 34.39079883870971  1.8734078612717098 36.54741200000004  3.647808593448963 37.73572425806456  C 2.632397069424741 38.088238066784434  1.5346162239844734 38.11999159476993  0.5008615799614817 37.82675032258068  C -0.37673907514448884 38.64202774193551  0.13918947976880863 39.76086825806454  1.2522411560693796 40.474079870967785  C 2.36529283236995 41.18729148387103  3.942129402697514 41.58855729032264  5.468954643545297 41.96955187096779  L 4.040070366088652 43.31777432258069  C 5.0741188824663075 44.13268554838716  7.30711433526014 43.84543083870972  8.812945394990386 43.33036116129038  C 10.31877645472063 42.815291483871036  11.952764007707145 42.12370516129038  13.6399107514451 42.39320941935489  C 15.222221618497128 42.64596529032264  16.419044662813118 43.711000903225845  18.030175761079015 43.528630838709724  C 19.278757071290958 43.38730000000004  19.87292080924858 42.5776063225807  20.26192219653181 41.87873019354844  L 21.915559267822747 38.90780193548392  C 24.269459036608882 39.27943161290329  26.744429094412343 37.65182051612908  25.799108631984605 36.35386877419361  C 28.433173680154162 36.63932090322587  31.02588050096341 34.91316116129039  30.16117510597305 33.44971264516135  C 31.563979113680173 34.54151729032264  32.55166770712911 35.80985561290327  33.03488551059732 37.13997561290327  C 33.250793911368035 37.73429922580652  33.38221641618499 38.362701548387136  33.97031791907516 38.86632270967747  C 34.74965319477176 39.45135884373284  35.75527831230725 39.63494125945219  36.68833718689789 39.362512129032304  C 36.2080140655106 40.30247419354844  35.818959229287096 41.39884064516135  36.80603456647399 42.196370451612935  C 37.793109903660884 42.993900258064514  40.64145737957611 42.76771754838712  40.51571171483623 41.7904548387097  C 42.020935144508684 42.443184903225834  43.70768524084779 43.05661870967743  45.58886007707129 43.10531393548389  C 47.470034913294796 43.15400916129036  49.528781194605024 42.43158309677421  49.70005410404626 41.34977354838711  C 52.35112044680785 42.23208162860594  55.124555232988655 42.68255870018854  57.91608454720616 42.68426800000001  C 58.15356100192679 41.96030619354838  59.81188751445086 41.726203483870975  61.051745394990355 41.90313741935485  C 62.29160327552984 42.08007135483872  63.441700693641614 42.50517948387097  64.71892500963389 42.50590619354839  C 65.99614932562618 42.506632903225814  67.36971113680153 41.7309384516129  66.71581398843928 41.09802258064515  C 69.4052888772968 41.66577798263859  72.1661125448955 41.80636873617908  74.89856543352597 41.51471677419353  C 77.4761180732177 41.238595483870945  79.91888936416181 40.58230567741934  82.52900084778418 40.44077045161288  C 85.1767065869995 40.27808809550906  87.82769149515372 40.70059053751691  90.29683660886317 41.67877432258061  C 91.15251757225434 42.04081767741933  92.21606146435451 42.49652709677416  93.1561157996146 42.2125312258064  C 93.68933368015412 42.0514429677419  93.94852728323696 41.703607354838645  94.3107563776493 41.42629096774188  C 95.8698057032755 40.232727096774134  99.05774524084774 40.461603741935434  101.51734732177259 40.93086232258058  C 103.97694940269744 41.40012090322573  106.83801491329473 41.965055354838654  108.99308743737951 41.135666709677345  C 109.80625398843922 40.82271316129025  110.40541942196525 40.33912477419346  111.27036674373791 40.07641070967736  C 114.36895653179188 39.135245032258005  118.07769691714832 41.546802709677365  121.36650585741805 40.85294541935477  C 122.43749040462423 40.626984129032174  123.30645483622345 40.086377419354754  124.44094516377643 40.01969329032249  C 126.45324431599224 39.90140993548377  127.7830426974951 41.27768735483861  129.73958335260107 41.573722193548306  C 131.76968662813093 41.88087058064507  133.97040173410394 40.634361935483774  133.47521418111745 39.45779909677412  C 135.4264267618808 39.501498226256814  137.37192793661973 39.22862875886888  139.23737001926776 38.64961845161284  L 138.3157696339113 36.97576193548382  C 140.61225680154135 36.93843290322576  142.30165402697486 35.27716038709673  141.23763190751438 34.10253638709673  C 143.54060046242768 33.65994464516125  145.3615833526011 32.468807870967694  145.83493560693634 31.09535780645156  C 146.30828786127162 29.72190774193542  145.41561179190748 28.2195263225806  143.58126666666658 27.30239883870961  C 142.49864994219647 26.76111651612896  141.07690531791897 26.380473935483792  140.45805098265888 25.635096903225726  C 140.01238809248545 25.098316774193457  140.0773398073217 24.473863096774124  139.90401052023114 23.88715290322574  C 139.52462712909434 22.602968903225747  137.88026485549125 21.469097419354775  135.7561308285163 21.02697974193542  C 134.83357961464344 20.834960903225745  133.82407822736022 20.76199470967734  132.98877537572244 20.465482967741885  C 132.15347252408466 20.16897122580643  131.55015495183034 19.52667341935478  132.0322278227359 19.033955741935443  C 132.28737618497098 18.773183354838668  132.77879699421953 18.619609161290295  133.09654531791895 18.38282954838707  C 134.38496578034668 17.422732516129003  132.17579167630043 16.207566064516094  130.2898261271675 15.66856038709675  L 134.79352947976864 15.519914193548365  L 135.76059522157982 11.095240129032229  C 133.97870601156055 12.557669548387073  129.35650073217715 12.250081161290298  128.19858570327537 10.592019225806418  C 129.64532755298637 11.071077032258032  131.58570693641605 10.458506193548356  132.29305583815014 9.586988258064476  C 133.0004047398842 8.715470322580597  132.8265465895952 7.7019289032257605  132.63774242774548 6.745791870967704  C 132.6014219668016 6.262670224031063  132.3164545813933 5.834247046057294  131.8871308285162 5.61731393548383  C 131.44631772639676 5.405429806451564  130.74401552986495 5.316978451612864  130.5994080154141 4.996675483870934  C 130.4518608092484 4.669849161290289  131.02210755298634 4.380854322580607  131.106708786127 4.046672903225766  C 131.2691147976877 3.405150064516091  129.80776450867035 3.1224145806451284  128.82095078998057 2.812169161290285  C 126.49263899807308 2.0801681290322187  125.36519830443143 0.023114193548345582  122.71610566473973 0.08998283870964181  C 120.08758242774552 0.15633199999995873  119.35290986512508 2.181461806451574  119.35110947976864 3.699265935483833  C 119.34930909441219 5.2170700645160935  118.45979776493243 7.246801419354806  115.82919845857403 7.219118322580603  C 114.77874393063568 7.208061548387055  113.86286258188811 6.826930709677374  113.02413899807306 6.461912387096724  L 105.4900073217725 3.182989806451549  C 104.49453287482838 2.7156370167420496  103.45885848478771 2.340960457393832  102.39587630057788 2.0636241290322115  C 100.87621321772623 1.7057565161289845  99.19733980732163 1.6634852903225326  97.55722813102105 1.6258752258063982  L 87.01778913294783 1.3841903225805972  C 86.48098198551938 1.34164836598109  85.9408957858896 1.3885110040188935  85.41916508670506 1.5229010322580097  C 84.86554658959525 1.7095547096773667  84.59651556840063 2.0770654193547906  84.26304481695553 2.393027999999948  C 82.79552539499022 3.7835046451612455  79.3450812331405 4.328099741935434  76.85490354527923 3.562292516128972  C 76.19468254335246 3.359250967741875  75.6030731021193 3.079342838709616  74.90345460500947 2.9263477419354302  C 72.69977448940254 2.444428516128974  70.38735109826574 3.3360303225805885  68.09774477841988 3.6581443870967223  C 64.34437171483604 4.186189806451563  59.680178073217554 3.2773201290322036  56.97431703275513 4.868096129032212  C 56.072214258188666 5.398443741935436  55.593646512523904 6.123603483870929  54.757665703275364 6.688861548387052  C 53.92168489402682 7.2541196129031755  52.413195452793666 7.637410709677372  51.35887572254319 7.210596516128979  C 51.49131094412315 8.247889419354795  51.611908631984434 9.330320645161244  50.91603156069348 10.289830064516082  C 50.22015448940254 11.249339483870918  48.4353790366087 12.03241458064511  46.68187121387269 11.790465677419313  C 45.751268901733965 11.542223354838676  45.824631791907365 10.752917290322547  46.264761310211796 10.218723225806416  C 46.70489082851623 9.684529161290286  47.37993125240832 9.13872761290319  47.16050366088616 8.560965032258027  C 46.942814566473835 7.987792645161249  45.94657414258171 7.654425935483835  45.20167595375707 7.254874709677383  C 44.45677776493244 6.855323483870931  43.95992204238906 6.098063612903188  44.751098574180965 5.729309548387064  C 44.217953834296566 5.037862322580606  42.301699614643404 5.122171999999968  41.45875356454704 5.702021032258027  C 40.61580751445068 6.281870064516086  40.53161418111737 7.098447612903196  40.43970732177249 7.853354193548345  C 40.347800462427614 8.608260774193493  40.147473834296584 9.435205290322537  39.17078728323685 9.940413290322544  C 37.506339460500826 10.801393935483839  34.310925510597166 10.354703096774156  33.20706142581874 11.476186451612858  C 32.85640543352587 11.832444516128987  32.835715067437235 12.262199612903181  32.63508743737943 12.655187741935439  C 31.739575761078857 14.409311612903185  27.873585780346687 14.863559096774154  24.71350439306344 15.006701032258029  C 24.646910793820357 15.37168265290288  24.632113772702063 15.74436865684731  24.669558111753222 16.113556516128984  Z " fill-rule="nonzero" fill="#61ab43" stroke="none" transform="matrix(1 0 0 1 238 4911 )" />
  </g>
</svg>