<?xml version="1.0" encoding="utf-8"?>
<svg version="1.1" xmlns:xlink="http://www.w3.org/1999/xlink" width="16px" height="12px" xmlns="http://www.w3.org/2000/svg">
  <g transform="matrix(1 0 0 1 -367 -4931 )">
    <path d="M 5.595759999999992 0.2924549999999561  C 5.30091142857142 0.23441045454545806  4.997251428571417 0.18782863636364378  4.693202857142849 0.1421549999999818  C 4.668140000000027 0.2505186363636188  4.643103809523836 0.35886590909090255  4.618094285714278 0.4671968181818019  C 3.0933571428571605 0.5147804545454474  1.56861809523811 0.5623831818181667  0.04387714285712718 0.6100049999999907  C 1.95938857142856 1.1278350000000046  4.203148571428561 2.2953040909090885  2.894539999999974 3.2177059090908893  C 2.5718171428571037 3.4452013636363494  2.072705714285673 3.59275499999998  1.8135599999999872 3.843284999999965  C 1.3239514285714253 4.316654999999958  1.936702857142856 4.933754999999957  2.7850857142857097 5.218613181818145  C 3.6334685714285633 5.503471363636333  4.658748571428565 5.57357318181814  5.595759999999992 5.758051363636324  C 7.753142857142848 6.182821363636332  9.423251428571414 7.2721704545454235  9.80857714285714 8.505950454545427  C 9.984622857142865 9.069631363636331  9.91865714285713 9.66956863636362  10.371297142857136 10.185274090909058  C 10.999842857142864 10.901393181818145  12.443831428571425 11.267104090909067  13.543399999999988 11.787129545454512  C 13.649322857142838 11.837229545454523  13.751234285714288 11.889650454545414  13.850905714285707 11.943265909090872  C 14.844922857142851 11.406636818181793  15.559477142857142 10.714550454545433  15.832354285714278 9.965603181818137  C 16.313117142857145 8.64605863636358  15.40645999999999 7.202660454545397  13.543399999999988 6.321535909090864  C 12.443831428571425 5.801507727272668  10.999842857142832 5.435799545454498  10.371297142857136 4.7196804545454105  C 9.91865714285713 4.203974999999942  9.984622857142865 3.604037727272684  9.80857714285714 3.04035681818178  C 9.423251428571414 1.8065740909090562  7.75314857142858 0.7172249999999643  5.595759999999992 0.2924549999999561  Z " fill-rule="nonzero" fill="#000000" stroke="none" transform="matrix(1 0 0 1 367 4931 )" />
  </g>
</svg>