<?xml version="1.0" encoding="utf-8"?>
<svg version="1.1" xmlns:xlink="http://www.w3.org/1999/xlink" width="12px" height="9px" xmlns="http://www.w3.org/2000/svg">
  <g transform="matrix(1 0 0 1 -259 -4205 )">
    <path d="M 4.196819999999994 0.2193412499999671  C 3.975683571428565 0.17580784090909354  3.7479385714285627 0.14087147727273283  3.5199021428571364 0.10661624999998634  C 3.5011050000000203 0.1878889772727141  3.4823278571428773 0.2691494318181769  3.4635707142857086 0.35039761363635147  C 2.3200178571428705 0.38608534090908553  1.1764635714285825 0.42178738636362506  0.03290785714284539 0.45750374999999305  C 1.46954142857142 0.8458762500000034  3.152361428571421 1.7214780681818165  2.1709049999999803 2.413279431818167  C 1.928862857142828 2.583901022727262  1.5545292857142545 2.6945662499999847  1.3601699999999903 2.8824637499999737  C 0.992963571428569 3.237491249999969  1.452527142857142 3.7003162499999678  2.088814285714282 3.913959886363609  C 2.7251014285714223 4.12760352272725  3.494061428571424 4.180179886363605  4.196819999999994 4.318538522727243  C 5.814857142857136 4.637116022727249  7.067438571428561 5.454127840909067  7.356432857142856 6.379462840909071  C 7.488467142857148 6.802223522727248  7.438992857142848 7.252176477272714  7.778472857142852 7.638955568181793  C 8.249882142857148 8.17604488636361  9.332873571428568 8.4503280681818  10.15754999999999 8.840347159090884  C 10.23699214285713 8.877922159090893  10.313425714285716 8.91723784090906  10.38817928571428 8.957449431818155  C 11.13369214285714 8.554977613636344  11.669607857142857 8.035912840909075  11.874265714285709 7.4742023863636025  C 12.234837857142859 6.484543977272685  11.554844999999993 5.401995340909048  10.15754999999999 4.741151931818147  C 9.332873571428568 4.351130795454501  8.249882142857125 4.076849659090874  7.778472857142852 3.5397603409090577  C 7.438992857142848 3.1529812499999563  7.488467142857148 2.703028295454513  7.356432857142856 2.2802676136363353  C 7.067438571428561 1.3549305681817922  5.814861428571435 0.5379187499999731  4.196819999999994 0.2193412499999671  Z " fill-rule="nonzero" fill="#000000" stroke="none" transform="matrix(1 0 0 1 259 4205 )" />
  </g>
</svg>