<?xml version="1.0" encoding="utf-8"?>
<svg version="1.1" xmlns:xlink="http://www.w3.org/1999/xlink" width="124px" height="20px" xmlns="http://www.w3.org/2000/svg">
  <g transform="matrix(1 0 0 1 -246 -4911 )">
    <path d="M 0.0204038914026611 14.766509459459453  C 0.22367972850678222 16.045490540540523  3.2323714027149313 17.182382432432416  2.137176470588234 18.27439054054053  C 2.7767901259973975 18.043808827890494  3.4320574000383557 17.85573471369804  4.098371131221712 17.711490540540538  C 6.112330316742072 17.26406891891893  8.483114932126682 16.758387837837837  9.069071040723976 15.606709459459458  C 9.256897375565606 15.2375635135135  9.23495891402715 14.827633783783776  9.598767058823519 14.500804054054047  C 10.305948597285056 13.865412162162151  12.23666506787329 13.945714864864856  13.038224072398176 14.54612297297297  C 13.839783076923062 15.146531081081068  13.6385860633484 16.022214864864864  12.892308054298624 16.643885135135122  C 12.505200814479625 16.966404054054035  11.970892669683238 17.26650405405403  11.900308054298623 17.651182432432414  C 11.767487782805416 18.375171621621607  13.241275475113103 18.81914999999997  14.405767330316719 19.162947297297276  C 14.953911143724126 19.33289407959653  15.46708675163814 19.59364262350379  15.922225610859705 19.93347162162161  C 15.931940814479614 19.856671621621597  15.941625158371014 19.780066216216213  15.949292398190018 19.704090540540534  C 19.100760814479607 19.56779864864864  22.956218190045217 19.135328378378368  23.849287511312184 17.465241891891893  C 24.049362352941138 17.091090540540538  24.069990678732996 16.681914864864858  24.419693122171918 16.34273108108109  C 25.520543800904946 15.274990540540545  28.707251221719435 15.700263513513534  30.367170769230746 14.880539189189205  C 31.341162714932103 14.399533783783802  31.54096262443436 13.612222972972992  31.632613212669646 12.893463513513536  C 31.724263800904936 12.174704054054082  31.80821628959273 11.397282432432458  32.64889701357463 10.84521486486488  C 33.489527239818976 10.293147297297319  35.40057203619907 10.212874324324346  35.932231855203575 10.871195945945967  C 35.143224343891376 11.22227702702704  35.63873619909499 11.943263513513537  36.381602805429836 12.32366621621624  C 37.12446941176468 12.704068918918942  38.117973122171904 13.021460810810835  38.33507411764702 13.567179729729752  C 38.553922895927556 14.117263513513532  37.880709502262405 14.63690945945949  37.44178877828051 15.145528378378408  C 37.002868054298624 15.654147297297328  36.92969122171943 16.405609459459477  37.85773583710405 16.64195000000002  C 39.60649493212667 16.872309459459494  41.38638307692304 16.12675810810813  42.08035945701354 15.213209459459481  C 42.774335837104054 14.299660810810828  42.654092307692274 13.269109459459479  42.521981809954724 12.281522972972994  C 43.57343447963798 12.68787702702705  45.07780696832576 12.322952702702729  45.91150217194566 11.784766216216232  C 46.74519737556558 11.246579729729731  47.222457104072355 10.556182432432454  48.12212760180992 10.051252702702719  C 50.8205976470588 8.536679729729745  55.472073303167384 9.40200945945948  59.215201266968286 8.899274324324345  C 61.498565882352906 8.59257972972975  63.80468533936648 7.743687837837862  66.00235248868775 8.202531081081105  C 66.70003764705878 8.348185135135164  67.29004479638006 8.614693243243263  67.9484567420814 8.808001351351383  C 70.4318709502262 9.537128378378409  73.87287936651579 9.018617567567592  75.33640760180991 7.694758108108132  C 75.66897447963795 7.393947297297322  75.9372605429864 7.0440418918919185  76.48935791855197 6.866333783783802  C 77.00966851770539 6.7383769509974725  77.54828622970382 6.693758602249979  78.08363321266962 6.734266216216232  C 81.58720552036192 6.810961711711727  85.09077782805423 6.887662612612628  88.59435013574657 6.964368918918938  C 90.22995782805425 7.00017702702705  91.90425800904974 7.040420270270285  93.41979049773752 7.3811500000000105  C 94.47987179865224 7.645200791136917  95.51272111886871 8.00192314892261  96.50548280542985 8.446877027027043  C 99.01001348416288 9.487477027027051  101.51454509803922 10.528087837837845  104.01907764705881 11.568709459459468  C 104.85550253393663 11.916233783783793  105.76887194570133 12.279114864864866  106.81647837104069 12.289633783783792  C 109.43991438914023 12.31599054054054  110.3269800904977 10.383506756756768  110.32878117647057 8.938414864864866  C 110.33058226244343 7.493322972972962  111.06324271493212 5.5652310810810866  113.68458027149319 5.502058108108111  C 116.32645357466063 5.438404054054055  117.45084742081448 7.396898648648658  119.77279230769231 8.093822972972983  C 120.75690904977375 8.389204054054067  122.21429619909502 8.658393243243252  122.05231067873302 9.269185135135142  C 121.97714199095023 9.552633783783795  121.51890307692307 9.802017567567571  121.52356850678734 10.073068918918949  C 122.17737728153013 9.92477591066731  122.77221512422865 9.59627892060496  123.23544180995472 9.127693243243261  C 123.94085031674206 8.297931081081106  123.76748597285064 7.332944594594606  123.57917149321264 6.422625675675673  C 123.54295386325006 5.962647579854508  123.25875856324717 5.554748064893654  122.8305986425339 5.348214864864875  C 122.3909877828054 5.146479729729739  121.69060941176467 5.062285135135152  121.54638226244339 4.757304054054061  C 121.39926552036194 4.446144594594597  121.96795140271489 4.1709905405405525  122.0523162895927 3.8528283783783825  C 122.2143018099547 3.2420364864864917  120.75691466063341 2.972850000000003  119.77279791855199 2.677468918918917  C 117.45085303167417 1.980544594594593  116.32646760180991 0.022041891891886562  113.68458588235288 0.08570945945945294  C 111.06325113122165 0.1488743243243107  110.33058787330312 2.0769770270270156  110.32878678733024 3.522060810810801  C 110.32698570135739 4.967144594594586  109.43991999999994 6.899628378378372  106.81648398190036 6.873277027027013  C 105.76887755656102 6.86275810810809  104.8555081447963 6.499877027027018  104.01908325791848 6.1523554054053875  C 101.51455070889887 5.111739189189172  99.01001909502257 4.071127477477464  96.50548841628952 3.0305202702702507  C 95.51272489664916 2.5855692925252187  94.4798760290081 2.2288452817409397  93.41979610859721 1.9647878378378123  C 91.90426361990941 1.6240635135134935  90.22996343891394 1.5838229729729545  88.59435574660624 1.5480148648648415  C 85.09078343891396 1.4713085585585484  81.58721113122162 1.3946067567567484  78.0836388235293 1.3179094594594412  C 77.54829216917088 1.2774055011818377  77.0096753805624 1.3220219472516819  76.48936352941166 1.4499716216216036  C 75.9372549321266 1.6276851351351125  75.66898009049764 1.9775824324324123  75.33641321266958 2.278404054054037  C 73.87288497737548 3.6022581081080896  70.43187656108589 4.120771621621602  67.94846235294109 3.391647297297288  C 67.29002796380082 3.198341891891877  66.70004606334831 2.9318283783783734  66.00235809954742 2.786174324324314  C 63.80469095022616 2.3273337837837813  61.49857149321259 3.1762229729729583  59.215206877827974 3.482917567567554  C 55.47207891402706 3.985652702702688  50.82060325791848 3.120322972972952  48.12213321266961 4.63489864864864  C 47.22246271493204 5.139825675675663  46.74520579185511 5.830244594594584  45.91150778280535 6.368412162162151  C 45.07780977375558 6.906579729729717  43.57343728506781 7.271517567567561  42.5219874208144 6.865168918918913  C 42.65409791855196 7.852755405405397  42.774366696832516 8.883317567567563  42.08036506787323 9.796852702702704  C 41.386363438913946 10.710387837837844  39.60650054298635 11.455955405405412  37.85774144796373 11.225595945945955  C 36.929705248868714 10.989255405405414  37.002870859728446 10.237758108108125  37.4417943891402 9.72917432432433  C 37.880717918551944 9.220590540540533  38.553928506787244 8.700909459459467  38.335079728506706 8.150825675675673  C 38.11797873303159 7.605114864864857  37.124449773755586 7.287720270270269  36.381608416289524 6.90731216216216  C 35.63876705882345 6.526904054054051  35.143229954751064 5.805928378378368  35.93223746606326 5.454844594594598  C 35.400577647058725 4.796522972972977  33.48953285067866 4.87679594594595  32.648902624434314 5.428863513513512  C 31.808221900452406 5.980931081081074  31.724294660633397 6.75838243243243  31.63261882352933 7.477112162162168  C 31.54094298642526 8.195841891891906  31.341168325791788 8.983179729729736  30.36717638009041 9.464185135135141  C 28.707256832579098 10.283914864864876  25.520563438913946 9.85863918918919  24.419698733031588 10.926377027027026  C 24.069996289592677 11.265566216216214  24.049367963800822 11.674739189189186  23.849293122171865 12.04889054054054  C 22.9562238009049 13.71897432432432  19.100766425339287 14.151444594594594  15.9492980090497 14.287736486486484  C 15.941630769230695 14.363712162162162  15.931946425339296 14.440317567567565  15.922231221719386 14.517120270270272  C 15.46709309754578 14.177289522885186  14.953917327323259 13.916539981901884  14.405772941176403 13.746593243243241  C 13.241281085972785 13.402809459459458  11.767493393665097 12.958817567567571  11.900313665158306 12.234831081081076  C 11.970898280542919 11.850160810810813  12.50520642533931 11.550060810810798  12.892313665158305 11.227533783783786  C 13.638594479637938 10.605860810810817  13.839788687782745 9.730209459459463  13.038229683257859 9.129771621621616  C 12.236670678732974 8.52933378378377  10.305957013574595 8.449060810810812  9.5987726696832 9.084449999999997  C 9.234964524886816 9.411282432432422  9.256902986425288 9.821206756756753  9.069076651583657 10.190358108108104  C 8.48312054298638 11.342036486486485  6.112335927601754 11.847714864864864  4.098376742081395 12.295136486486488  C 2.084417556561035 12.74255810810811  -0.16890932126701638 13.575022972972981  0.0204038914026611 14.766509459459453  Z " fill-rule="nonzero" fill="#000000" stroke="none" transform="matrix(1 0 0 1 246 4911 )" />
  </g>
</svg>