<?xml version="1.0" encoding="utf-8"?>
<svg version="1.1" xmlns:xlink="http://www.w3.org/1999/xlink" width="95px" height="15px" xmlns="http://www.w3.org/2000/svg">
  <g transform="matrix(1 0 0 1 -166 -4189 )">
    <path d="M 0.01563201357461939 11.07488209459459  C 0.17136753393664766 12.034117905405392  2.476413574660633 12.886786824324313  1.6373529411764693 13.705792905405398  C 2.127379532014135 13.53285662091787  2.6293988145455147 13.391801035273529  3.1398811085972795 13.283617905405404  C 4.682833710407232 12.948051689189198  6.499160633484152 12.568790878378378  6.948078619909498 11.705032094594593  C 7.091977828054295 11.428172635135125  7.075170135746607 11.120725337837833  7.353894117647051 10.875603040540534  C 7.895686425339357 10.399059121621613  9.374864366515828 10.459286148648642  9.988961990950216 10.909592229729729  C 10.603059615384606 11.359898310810802  10.448916742081435 12.01666114864865  9.877171493212655 12.482913851351343  C 9.580597398190037 12.724803040540525  9.171248416289577 12.949878040540524  9.117171493212654 13.23838682432431  C 9.01541402714931 13.781378716216205  10.144525565610845 14.114362499999977  11.03667658371039 14.372210472972956  C 11.456625473014451 14.4996705596974  11.84978420488406 14.69523196762784  12.198479298642516 14.950103716216208  C 12.205922398190028 14.892503716216199  12.213341855203598 14.83504966216216  12.219215950226223 14.7780679054054  C 14.633647398190021 14.675848986486482  17.58742522624432 14.351496283783776  18.271631561085947 13.098931418918921  C 18.424914705882326 12.818317905405404  18.440718665158343 12.511436148648643  18.708635859728485 12.257048310810818  C 19.55202952488685 11.456242905405409  21.993458597285052 11.77519763513515  23.265171153846136 11.160404391891904  C 24.011374660633464 10.799650337837852  24.164447171945678 10.209167229729744  24.23466334841626 9.670097635135152  C 24.304879524886847 9.131028040540562  24.369197963800882 8.547961824324343  25.013267873303143 8.13391114864866  C 25.657299095022605 7.7198604729729885  27.121405995475094 7.65965574324326  27.528726018099515 8.153396959459474  C 26.924244457013554 8.41670777027028  27.3038704751131 8.957447635135154  27.873002149321245 9.242749662162181  C 28.442133823529392 9.528051689189207  29.203285859728474 9.766095608108126  29.36961323529409 10.175384797297314  C 29.537279638009014 10.587947635135148  29.021511312217164 10.977682094594618  28.685241402714908 11.359146283783806  C 28.34897149321265 11.740610472972996  28.292908597285045 12.30420709459461  29.003910520361977 12.481462500000013  C 30.343685633484142 12.65423209459462  31.707309615384588 12.095068581081097  32.23898506787328 11.40990709459461  C 32.77066052036198 10.72474560810812  32.67853846153844 9.951832094594609  32.577324773755635 9.211142229729745  C 33.382873190045224 9.515907770270287  34.53541662895925 9.242214527027047  35.17413472850676 8.838574662162173  C 35.812852828054275 8.434934797297299  36.17849536199092 7.917136824324341  36.86775904977373 7.53843952702704  C 38.93513529411763 6.4025097972973075  42.498765837104045 7.0515070945946094  45.36648484162893 6.674455743243259  C 47.115836764705854 6.444434797297313  48.882621832579154 5.8077658783783965  50.566318438913996 6.15189831081083  C 51.10083529411761 6.261138851351373  51.55285690045247 6.461019932432446  52.05728540723978 6.606001013513538  C 53.959901131221685 7.1528462837838065  56.59615757918548 6.763963175675694  57.71740904977373 5.771068581081099  C 57.97219819004521 5.545460472972992  58.17773993212667 5.283031418918939  58.60071776018095 5.149750337837852  C 58.99934281598397 5.053782713248104  59.411993482434376 5.020318951687484  59.82213834841624 5.050699662162175  C 62.50632680995469 5.108221283783795  65.19051527149317 5.165746959459471  67.87470373303165 5.223276689189203  C 69.12779027149318 5.250132770270287  70.41052024886875 5.280315202702714  71.57161368778277 5.535862500000008  C 72.38377274896744 5.733900593352688  73.1750685991333 6.001442361691958  73.93565214932126 6.335157770270282  C 75.85444581447963 7.115607770270288  77.77324019607843 7.8960658783783835  79.69203529411763 8.6765320945946  C 80.3328446832579 8.937175337837845  81.03260350678731 9.20933614864865  81.83520520361988 9.217225337837844  C 83.84509570135742 9.236992905405405  84.52470248868775 7.7876300675675765  84.52608235294116 6.703811148648649  C 84.52746221719457 5.619992229729721  85.08877466063348 4.173923310810815  87.09705746606333 4.1265435810810835  C 89.12107330316742 4.078803040540541  89.9825040723982 5.547673986486493  91.76141346153847 6.070367229729737  C 92.51537386877827 6.291903040540551  93.63192047511312 6.493794932432439  93.50781866515835 6.951888851351357  C 93.45022975113123 7.164475337837847  93.09915961538461 7.351513175675678  93.10273393665159 7.554801689189211  C 93.60363582052712 7.443581933000483  94.0593583613042 7.197209190453719  94.41424977375564 6.845769932432446  C 94.95468371040722 6.22344831081083  94.82186425339364 5.499708445945954  94.6775910633484 4.816969256756755  C 94.64984368555447 4.471985684890881  94.43211341539099 4.16606104867024  94.10408766968322 4.0111611486486565  C 93.76728902714929 3.8598597972973043  93.23070882352938 3.7967138513513636  93.12021221719452 3.567978040540546  C 93.0075018099547 3.334608445945948  93.4431885746606 3.1282429054054144  93.50782296380086 2.8896212837837867  C 93.63192477375561 2.4315273648648685  92.51537816742076 2.229637500000002  91.76141776018096 2.008101689189188  C 89.9825083710407 1.4854084459459447  89.12108404977373 0.016531418918914922  87.09706176470584 0.06428209459458971  C 85.08878110859723 0.11165574324323302  84.52746651583706 1.5577327702702617  84.52608665158365 2.6415456081081006  C 84.52470678733025 3.7253584459459392  83.84509999999996 5.174721283783779  81.83520950226237 5.1549577702702605  C 81.0326078054298 5.147068581081068  80.3328489819004 4.874907770270263  79.69203959276012 4.614266554054041  C 77.77324449472091 3.8338043918918787  75.85445011312213 3.0533456081080987  73.93565644796375 2.272890202702688  C 73.17507149340057 1.939176969393914  72.38377598996588 1.6716339613057047  71.57161798642528 1.4735908783783591  C 70.41052454751124 1.2180476351351202  69.12779457013568 1.187867229729716  67.87470803167413 1.1610111486486312  C 65.19051957013569 1.1034814189189113  62.506331108597216 1.0459550675675613  59.82214264705874 0.9884320945945809  C 59.41199803283253 0.9580541258863783  58.99934807381796 0.9915164604387615  58.60072205882345 1.0874787162162027  C 58.1777356334841 1.2207638513513344  57.972202488687714 1.4831868243243091  57.717413348416216 1.708803040540528  C 56.59616187782798 2.7016935810810674  53.959905429864186 3.0905787162162013  52.05728970588228 2.543735472972966  C 51.55284400452483 2.3987564189189077  51.100841742081364 2.19887128378378  50.56632273755649 2.0896307432432355  C 48.882626131221656 1.745500337837836  47.115841063348356 2.3821672297297187  45.36648914027143 2.6121881756756653  C 42.49877013574654 2.989239527027016  38.93513959276012 2.340242229729714  36.86776334841623 3.4761739864864802  C 36.17849966063342 3.8548692567567473  35.81285927601803 4.372683445945937  35.17413902714926 4.776309121621613  C 34.53541877828049 5.179934797297288  33.382875339366464 5.453638175675671  32.57732907239813 5.148876689189185  C 32.67854276018094 5.889566554054048  32.77068416289588 6.662488175675672  32.23898936651578 7.347639527027028  C 31.707294570135684 8.032790878378384  30.34368993212664 8.591966554054059  29.00391481900447 8.419196959459466  C 28.292919343891352 8.24194155405406  28.348973642533892 7.6783185810810926  28.68524570135741 7.296880743243246  C 29.021517760180927 6.9154429054054  29.537283936651516 6.5256820945946  29.369617533936587 6.113119256756755  C 29.203290158370976 5.703836148648643  28.442118778280488 5.465790202702701  27.873006447963746 5.18048412162162  C 27.303894117646998 4.8951780405405385  26.924248755656055 4.354446283783776  27.528730316742013 4.091133445945949  C 27.12141029411757 3.5973922297297327  25.6573033936651 3.6575969594594624  25.013272171945644 4.071647635135134  C 24.369202262443377 4.485698310810806  24.30490316742075 5.068786824324323  24.23466764705876 5.607834121621626  C 24.164432126696774 6.146881418918929  24.011378959275966 6.737384797297302  23.26517545248862 7.098138851351356  C 21.993462895927536 7.712936148648657  19.552044570135685 7.393979391891893  18.708640158370972 8.194782770270269  C 18.44072296380084 8.44917466216216  18.424919004524824 8.756054391891888  18.271635859728445 9.036667905405405  C 17.58742952488682 10.28923074324324  14.63365169683252 10.613583445945945  12.219220248868721 10.715802364864864  C 12.213346153846098 10.772784121621623  12.205926696832526 10.830238175675673  12.198483597285014 10.887840202702703  C 11.849789066668137 10.632967142163888  11.456630210449271 10.437404986426413  11.03668088235289 10.309944932432431  C 10.144529864253343 10.052107094594595  9.015418325791808 9.719113175675679  9.117175791855153 9.176123310810807  C 9.171252714932075 8.88762060810811  9.580601696832534 8.662545608108099  9.877175791855153 8.42065033783784  C 10.448923190045194 7.954395608108112  10.603063914027103 7.297657094594597  9.988966289592714 6.847328716216213  C 9.374868665158328 6.397000337837827  7.895692873303117 6.336795608108109  7.353898416289549 6.813337499999997  C 7.075174434389093 7.058461824324318  7.091982126696793 7.365905067567565  6.948082918551996 7.642768581081078  C 6.4991649321266625 8.506527364864864  4.682838009049731 8.885786148648648  3.1398854072397784 9.221352364864867  C 1.596932805429825 9.556918581081083  -0.12940633484166578 10.181267229729736  0.01563201357461939 11.07488209459459  Z " fill-rule="nonzero" fill="#000000" stroke="none" transform="matrix(1 0 0 1 166 4189 )" />
  </g>
</svg>