<?xml version="1.0" encoding="utf-8"?>
<svg version="1.1" xmlns:xlink="http://www.w3.org/1999/xlink" width="9px" height="5px" xmlns="http://www.w3.org/2000/svg">
  <g transform="matrix(1 0 0 1 -160 -4210 )">
    <path d="M 0.17444999999999028 2.0399576086956634  C 0.5726139999999986 3.101522826086965  1.846442000000002 4.020870652173906  3.4766740000000143 4.423261956521757  C 3.0818740604765935 4.502417427431911  2.7046495168536464 4.662933262894121  2.3653379999999973 4.896155434782595  C 2.580427999999995 4.906405434782592  2.7945839999999977 4.9217054347825915  3.000277999999992 4.935992391304343  C 5.400321999999995 5.102583695652159  8.428343999999994 4.535355434782598  8.800889999999992 3.052664130434773  C 8.988843999999995 2.3046423913043257  8.410623999999997 1.5734184782608598  7.849461999999994 0.9013989130434775  C 7.623887333333334 0.6312844202898551  7.398326666666662 0.3611699275362328  7.172779999999989 0.09105543478261037  C 5.998519999999985 0.5247749999999917  4.393963999999994 0.6761010869565137  3.000277999999992 0.579359782608707  C 2.1213839999999893 0.5183445652174056  1.0883379999999874 0.4348271739130545  0.48438399999998866 0.8362619565217431  C 0.018939999999986412 1.145633695652167  0.019737999999983914 1.6274945652174002  0.17444999999999028 2.0399576086956634  Z " fill-rule="nonzero" fill="#000000" stroke="none" transform="matrix(1 0 0 1 160 4210 )" />
  </g>
</svg>