<?xml version="1.0" encoding="utf-8"?>
<svg version="1.1" xmlns:xlink="http://www.w3.org/1999/xlink" width="12px" height="7px" xmlns="http://www.w3.org/2000/svg">
  <g transform="matrix(1 0 0 1 -238 -4938 )">
    <path d="M 0.23259999999998704 2.855940652173929  C 0.7634853333333316 4.342131956521752  2.4619226666666694 5.629218913043469  4.635565333333353 6.192566739130459  C 4.109165413968792 6.303384398404675  3.606199355804862 6.52810656805177  3.1537839999999964 6.854617608695633  C 3.44057066666666 6.868967608695629  3.726111999999997 6.890387608695629  4.000370666666655 6.91038934782608  C 7.200429333333326 7.143617173913022  11.237791999999992 6.349497608695638  11.73451999999999 4.273729782608682  C 11.985125333333327 3.226499347826056  11.214165333333328 2.202785869565204  10.465949333333326 1.2619584782608686  C 10.165183111111112 0.8837981884057973  9.86443555555555 0.5056378985507258  9.563706666666652 0.12747760869565453  C 7.998026666666647 0.7346849999999884  5.858618666666659 0.9465415217391192  4.000370666666655 0.8111036956521898  C 2.8285119999999857 0.7256823913043678  1.4511173333333165 0.6087580434782763  0.6458453333333183 1.1707667391304402  C 0.02525333333331522 1.603887173913034  0.026317333333311883 2.2784923913043604  0.23259999999998704 2.855940652173929  Z " fill-rule="nonzero" fill="#000000" stroke="none" transform="matrix(1 0 0 1 238 4938 )" />
  </g>
</svg>