<?xml version="1.0" encoding="utf-8"?>
<svg version="1.1" xmlns:xlink="http://www.w3.org/1999/xlink" width="48px" height="76px" xmlns="http://www.w3.org/2000/svg">
  <defs>
    <linearGradient gradientUnits="userSpaceOnUse" x1="24" y1="44.839999999999996" x2="24" y2="76" id="LinearGradient43">
      <stop id="Stop44" stop-color="#a57594" offset="0" />
      <stop id="Stop45" stop-color="#ff4954" offset="1" />
    </linearGradient>
  </defs>
  <g transform="matrix(1 0 0 1 -43 -50 )">
    <path d="M 46.05132387997538 37.30423614352674  C 40.82895617963519 21.04903452828469  31.947104042019603 14.334687654501714  32 14.334687654501714  L 32 2.496731123515748  C 31.947104042019603 0.9353820318131977  30.710036945642734 -0.17150070017759933  29.182114274432088 0.022041093658075883  L 2.8466521053092233 3.380683936793435  C 1.3179019644689016 3.574225730629111  0.08228293994397091 4.999549787184678  0 6.56131870924262  L 0 18.928681318377798  C 0.08228293994397091 18.928681318377798  8.092395822687962 34.12465094696604  10.008194882812754 47.55334469453199  C 11.922132136270758 60.98224835727564  8.265543842699234 76  8.265543842699234 76  L 43.09105127978255 65.57498253008553  C 43.09105127978255 65.57498253008553  51.275139652167496 53.55985758912418  46.05132387997538 37.30423614352674  Z M 25.22556824010029 8.32628552331025  C 25.51518261048954 9.960055351317909  24.44340257264194 11.520144951954284  22.83356040809263 11.812136964129364  L 11.806700122929907 13.815147589704214  C 11.629828489585057 13.84768444224709  11.453991193277302 13.861748759152714  11.281256908080866 13.861748759152714  C 9.875592874655975 13.861748759152714  8.626527468648684 12.841141165194957  8.371666822706153 11.386428983761956  C 8.082673054539185 9.75475830753126  9.15445309238677 8.192989385473316  10.763054052491556 7.901417203653627  L 21.790534939876537 5.899666069144952  C 23.398101562944216 5.608303802502961  24.937195074155586 6.694195016724161  25.22556824010029 8.32628552331025  Z " fill-rule="nonzero" fill="url(#LinearGradient43)" stroke="none" transform="matrix(1 0 0 1 43 50 )" />
  </g>
</svg>