<?xml version="1.0" encoding="utf-8"?>
<svg version="1.1" xmlns:xlink="http://www.w3.org/1999/xlink" width="32px" height="63px" xmlns="http://www.w3.org/2000/svg">
  <g transform="matrix(1 0 0 1 -271 -4166 )">
    <path d="M 18.22934794520547 0.18093279661016531  L 3.6395726027397246 4.962596491525421  C 3.6395726027397246 4.962596491525421  -0.20682301369862677 13.49205116949152  0.19108164383561255 17.627544152542374  C 0.5889863013698519 21.763037135593226  3.6395726027397246 39.20964849152542  3.6395726027397246 39.20964849152542  C 3.6395726027397246 39.20964849152542  3.241670136986302 61.69639225423729  4.435379726027387 61.69639225423729  C 5.629089315068472 61.69639225423729  11.332363835616427 63.76413767796611  11.332363835616427 62.342562966101696  C 11.332363835616427 60.92098825423727  12.526073424657513 26.803169542372874  12.526073424657513 26.803169542372874  C 12.526073424657513 26.803169542372874  19.290421917808203 41.794331338983056  19.953593424657512 42.95743733898305  C 20.61676493150682 44.12054333898305  24.861063013698598 62.342560830508475  26.320041643835594 62.342560830508475  C 27.77902027397259 62.342560830508475  32.288585205479436 61.05021940677967  31.89068273972599 60.145579983050844  C 31.492780273972542 59.240940559322006  26.983213150684904 39.080413067796606  24.463160547945172 33.91104523728813  C 21.943107945205444 28.74167740677965  22.473643835616425 9.227324898305083  22.473643835616425 9.227324898305083  L 18.22934794520547 0.18093279661016531  Z " fill-rule="nonzero" fill="#3f3d56" stroke="none" transform="matrix(1 0 0 1 271 4166 )" />
  </g>
</svg>