<?xml version="1.0" encoding="utf-8"?>
<svg version="1.1" xmlns:xlink="http://www.w3.org/1999/xlink" width="41px" height="82px" xmlns="http://www.w3.org/2000/svg">
  <g transform="matrix(1 0 0 1 -383 -4881 )">
    <path d="M 23.356352054794506 0.23549983050846912  L 4.663202397260272 6.459252576271182  C 4.663202397260272 6.459252576271182  -0.26499198630136556 17.561082474576263  0.24482335616437859 22.943787627118642  C 0.7546386986301227 28.326492779661024  4.663202397260272 51.03478057627119  4.663202397260272 51.03478057627119  C 4.663202397260272 51.03478057627119  4.153389863013699 80.3032407118644  5.6828302739725896 80.3032407118644  C 7.21227068493148 80.3032407118644  14.519591164383547 82.99459189830509  14.519591164383547 81.14428830508474  C 14.519591164383547 79.29398471186438  16.04903157534244 34.88666511864406  16.04903157534244 34.88666511864406  C 16.04903157534244 34.88666511864406  24.71585308219176 54.39897094915255  25.565541575342436 55.91285494915254  C 26.415230068493116 57.426738949152536  31.85323698630133 81.14428552542373  33.722553356164354 81.14428552542373  C 35.59186972602738 81.14428552542373  41.36974979452053 79.46219033898306  40.859937260273924 78.28472315254237  C 40.35012472602732 77.10725596610166  34.572241849315034 50.86656938983051  31.34342445205475 44.13818586440677  C 28.114607054794476 37.409802338983035  28.794356164383544 12.010168915254235  28.794356164383544 12.010168915254235  L 23.356352054794506 0.23549983050846912  Z " fill-rule="nonzero" fill="#3f3d56" stroke="none" transform="matrix(1 0 0 1 383 4881 )" />
  </g>
</svg>