<?xml version="1.0" encoding="utf-8"?>
<svg version="1.1" xmlns:xlink="http://www.w3.org/1999/xlink" width="20px" height="17px" xmlns="http://www.w3.org/2000/svg">
  <g transform="matrix(1 0 0 1 -387 -4826 )">
    <path d="M 6.884894444444443 11.458263360655723  C 6.548705555555583 10.952323852459003  5.876313888888881 7.916672868852456  5.876313888888881 7.916672868852456  C 5.876313888888881 7.916672868852456  1.1696472222222256 7.57937893442623  0.8334472222222189 6.398851557377044  C 0.4972472222222121 5.2183241803278575  -0.17512777777776972 4.206445163934419  0.16106388888889317 4.206445163934419  C 0.49725555555555606 4.206445163934419  0.6653500000000021 3.3632117213114663  0.6653500000000021 3.3632117213114663  C 0.6653500000000021 3.3632117213114663  1.001541666666665 3.1945661475409732  1.1696388888888818 3.3632117213114663  C 1.3377361111110986 3.53185729508196  1.5058305555555447 2.1826871311475347  1.5058305555555447 2.1826871311475347  C 1.5058305555555447 2.1826871311475347  1.6739249999999906 1.6767476229508158  1.8420194444444369 2.014041557377041  C 2.010113888888883 2.3513354918032667  2.0101166666666535 2.1826871311475347  2.1782111111110996 1.6767476229508158  C 2.3463055555555457 1.1708081147540965  3.1867861111110884 0.833514180327863  3.1867861111110884 0.833514180327863  C 3.1867861111110884 0.833514180327863  6.38059999999999 1.0021597540983564  6.884888888888869 0.3275746721311439  C 7.389177777777749 -0.3470104098360687  13.104424999999967 0.15892631147540365  14.281091666666663 1.0021597540983564  C 15.457758333333357 1.845393196721309  20.668725000000006 4.8810358196721255  19.828247222222203 7.410736147540975  C 18.9877694444444 9.940436475409827  15.962049999999977 15.505776639344253  15.962049999999977 16.349010081967208  C 15.962049999999977 17.19224352459016  14.785383333333312 17.023597950819664  14.44918888888888 16.180364508196714  C 14.112994444444444 15.33713106557376  11.423469444444423 14.325249262295074  11.423469444444423 13.819315327868841  C 11.423469444444423 13.313381393442608  9.910608333333325 8.591269098360648  9.070136111111095 8.928560245901625  C 8.229663888888865 9.265851393442604  7.221083333333303 11.964202868852443  6.884894444444443 11.458263360655723  Z " fill-rule="nonzero" fill="#3f3d56" stroke="none" transform="matrix(1 0 0 1 387 4826 )" />
  </g>
</svg>