<?xml version="1.0" encoding="utf-8"?>
<svg version="1.1" xmlns:xlink="http://www.w3.org/1999/xlink" width="15px" height="13px" xmlns="http://www.w3.org/2000/svg">
  <g transform="matrix(1 0 0 1 -274 -4124 )">
    <path d="M 5.163670833333332 8.762201393442611  C 4.911529166666687 8.375306475409825  4.407235416666661 6.053926311475408  4.407235416666661 6.053926311475408  C 4.407235416666661 6.053926311475408  0.8772354166666693 5.7959956557377055  0.6250854166666642 4.893239426229504  C 0.3729354166666591 3.9904831967213026  -0.13134583333332728 3.216693360655732  0.12079791666666986 3.216693360655732  C 0.37294166666666706 3.216693360655732  0.4990125000000015 2.571867786885239  0.4990125000000015 2.571867786885239  C 0.4990125000000015 2.571867786885239  0.7511562499999986 2.442903524590156  0.8772291666666613 2.571867786885239  C 1.003302083333324 2.700832049180322  1.1293729166666584 1.6691136885245854  1.1293729166666584 1.6691136885245854  C 1.1293729166666584 1.6691136885245854  1.2554437499999929 1.2822187704918002  1.3815145833333276 1.5401494262295021  C 1.507585416666662 1.798080081967204  1.5075874999999903 1.6691136885245854  1.6336583333333248 1.2822187704918002  C 1.7597291666666592 0.895323852459015  2.3900895833333164 0.637393196721307  2.3900895833333164 0.637393196721307  C 2.3900895833333164 0.637393196721307  4.785449999999992 0.7663574590163902  5.163666666666652 0.25049827868852176  C 5.5418833333333115 -0.2653609016393466  9.828318749999974 0.1215318852458969  10.710818749999998 0.7663574590163902  C 11.593318750000018 1.4111830327868835  15.501543750000003 3.732556803278684  14.871185416666654 5.667033524590157  C 14.2408270833333 7.601510245901633  11.971537499999982 11.85735860655737  11.971537499999982 12.502184180327864  C 11.971537499999982 13.147009754098358  11.089037499999984 13.018045491803273  10.83689166666666 12.373219918032781  C 10.584745833333333 11.728394344262286  8.567602083333318 10.954602377049175  8.567602083333318 10.567711721311467  C 8.567602083333318 10.180821065573758  7.432956249999995 6.569794016393437  6.802602083333322 6.827722540983596  C 6.172247916666649 7.085651065573757  5.415812499999977 9.149096311475398  5.163670833333332 8.762201393442611  Z " fill-rule="nonzero" fill="#3f3d56" stroke="none" transform="matrix(1 0 0 1 274 4124 )" />
  </g>
</svg>