<?xml version="1.0" encoding="utf-8"?>
<svg version="1.1" xmlns:xlink="http://www.w3.org/1999/xlink" width="23px" height="39px" xmlns="http://www.w3.org/2000/svg">
  <g transform="matrix(1 0 0 1 -273 -4139 )">
    <path d="M 20.120045504587143 18.297238934426215  C 20.630807981651362 17.13655204918031  22.929229633027532 9.65657581967213  22.929229633027532 9.65657581967213  C 22.929229633027532 9.65657581967213  17.693902110091738 1.9186731967213058  16.161614678899078 1.5317718852459017  C 14.62932724770642 1.1448705737704976  11.181667339449527 0.11315647540983799  11.181667339449527 0.11315647540983799  C 11.181667339449527 0.11315647540983799  7.734011651376135 0.6290156557377063  6.7124930275229335 1.1448769672131165  C 5.690974403669731 1.6607382786885265  1.8602357798165017 2.56349237704918  1.7325456880733812 4.1110741803278685  C 1.6048555963302606 5.6586559836065575  2.7540727522935584 20.48964631147541  2.1156180733944803 21.908261721311472  C 1.4771633944954026 23.32687713114753  -0.6935829357798344 36.868218442622954  0.32794834862384237 36.61028778688524  C 1.3494796330275194 36.35235713114753  0.5833306422018212 32.99927139344261  5.052513394495391 32.87029860655738  C 9.521696146788962 32.741325819672134  11.947824770642178 30.0330656557377  13.607808623853193 33.25719352459016  C 15.26779247706421 36.48132139344262  19.992355412844024 38.9316594262295  19.992355412844 38.9316594262295  C 20.11110307432436 37.89193916448078  20.28157345591276 36.85891194537329  20.50311999999998 35.83649581967212  C 20.88619238532108 34.03098762295082  19.481590825688063 29.646170737704903  19.481590825688063 29.646170737704903  C 19.481590825688063 29.646170737704903  19.609283027522924 19.457925819672116  20.120045504587143 18.297238934426215  Z " fill-rule="nonzero" fill="#6c63ff" stroke="none" transform="matrix(1 0 0 1 273 4139 )" />
  </g>
</svg>