<?xml version="1.0" encoding="utf-8"?>
<svg version="1.1" xmlns:xlink="http://www.w3.org/1999/xlink" width="30px" height="51px" xmlns="http://www.w3.org/2000/svg">
  <g transform="matrix(1 0 0 1 -385 -4845 )">
    <path d="M 26.243537614678882 23.927158606557356  C 26.909749541284388 22.409337295081944  29.907690825688086 12.627829918032786  29.907690825688086 12.627829918032786  C 29.907690825688086 12.627829918032786  23.079002752293572 2.5090341803278613  21.08036697247706 2.00308631147541  C 19.08173119266055 1.4971384426229584  14.584783486238514 0.1479738524590189  14.584783486238514 0.1479738524590189  C 14.584783486238514 0.1479738524590189  10.087841284403654 0.8225589344262314  8.755425688073391 1.4971468032786908  C 7.423010091743127 2.17173467213115  2.4263944954128283 3.3522592622950818  2.259842201834845 5.376020081967213  C 2.0932899082568617 7.399780901639344  3.592268807339424 26.79415286885246  2.7595018348623657 28.64926532786885  C 1.9267348623853076 30.504377786885232  -0.9046733944954363 48.2122856557377  0.4277587155963162 47.87499172131146  C 1.7601908256880687 47.537697786885225  0.7608660550458537 43.15289336065572  6.590234862385293 42.98423663934426  C 12.419603669724733 42.81557991803279  15.584119266055014 39.27400893442622  17.749315596330252 43.49017614754098  C 19.914511926605492 47.70634336065574  26.0769853211009 50.91063155737704  26.076985321100867 50.91063155737704  C 26.23187357520569 49.55099736893641  26.45422624684273 48.200115620872765  26.743199999999973 46.86310991803278  C 27.242859633027496 44.50206073770491  25.410770642201822 38.76806942622949  25.410770642201822 38.76806942622949  C 25.410770642201822 38.76806942622949  25.57732568807338 25.444979918032768  26.243537614678882 23.927158606557356  Z " fill-rule="nonzero" fill="#6c63ff" stroke="none" transform="matrix(1 0 0 1 385 4845 )" />
  </g>
</svg>