<?xml version="1.0" encoding="utf-8"?>
<svg version="1.1" xmlns:xlink="http://www.w3.org/1999/xlink" width="250px" height="175px" xmlns="http://www.w3.org/2000/svg">
  <g transform="matrix(1 0 0 1 -904 -5308 )">
    <path d="M 162.1937343696087 8.94490244314659  C 157.829630147149 2.5925326641105646  151.1539456059436 2.4462872317761164  144.35869656549264 4.900551487134127  C 124.86398964089781 11.93362727849048  103.73238778615665 12.260685245347513  84.10388249335858 5.639755672388218  C 56.28520900224574 -3.7412240599010977  19.954681874372024 -6.142308158046575  6.492288614090342 36.84587192469754  C -16.484022657580937 110.29032804305442  30.521906188638372 136.5054865409683  30.521906188638372 136.5054865409683  C 30.521906188638372 136.5054865409683  63.339514457728505 143.37636285282645  81.51047156924848 155.7912705540903  C 107.32216953731235 173.42581068576337  138.93274571878152 179.3208311127717  168.70999957848684 171.05131666622415  C 187.75206947022383 165.7625500314386  204.07262361723053 157.08620738221524  208.73848586159545 142.88976441433186  C 221.78809692210115 103.18545903946112  213.50398518866493 79.32086349034078  237.12082056343695 68.85234954305535  C 260.7376559382089 58.383835595769916  247.59694811637345 19.602205948536483  230.80098274617632 18.722074346669206  C 214.00501737597926 17.84194274480193  174.4348616733116 26.837366337300438  162.1937343696087 8.94490244314659  Z " fill-rule="nonzero" fill="#ccecef" stroke="none" transform="matrix(1 0 0 1 904 5308 )" />
  </g>
</svg>