<?xml version="1.0" encoding="utf-8"?>
<svg version="1.1" xmlns:xlink="http://www.w3.org/1999/xlink" width="190px" height="140px" xmlns="http://www.w3.org/2000/svg">
  <g transform="matrix(1 0 0 1 -445 -4530 )">
    <path d="M 123.26723812090262 7.1559219545172725  C 119.95051891183326 2.0740261312884516  114.87699866051713 1.9570297854208931  109.7126093897744 3.9204411897073013  C 94.89663212708234 9.546901822792385  78.83661471747905 9.80854819627801  63.91895069495252 4.5118045379105745  C 42.776758841706766 -2.992979247920878  15.165558224522739 -4.9138465264372595  4.93413934670866 29.476697539758035  C -12.527857219761511 88.23226243444354  23.196648703365163 109.20438923277464  23.196648703365163 109.20438923277464  C 23.196648703365163 109.20438923277464  48.13803098787366 114.70109028226116  61.94795839262885 124.63301644327223  C 81.56484884835739 138.7406485486107  105.58888674627396 143.45666489021735  128.21959967965 136.8410533329793  C 142.6915727973701 132.61004002515088  155.0951939490952 125.66896590577218  158.64124925481255 114.3118115314655  C 168.55895366079687 82.54836723156889  162.26302874338535 63.45669079227263  180.21182362821207 55.081879634444284  C 198.16061851303877 46.70706847661593  188.1736805684438 15.681764758829187  175.40874688709403 14.977659477335365  C 162.64381320574424 14.273554195841545  132.57049487171682 21.46989306984035  123.26723812090262 7.1559219545172725  Z " fill-rule="nonzero" fill="#ccecef" stroke="none" transform="matrix(1 0 0 1 445 4530 )" />
  </g>
</svg>