<?xml version="1.0" encoding="utf-8"?>
<svg version="1.1" xmlns:xlink="http://www.w3.org/1999/xlink" width="16px" height="16px" xmlns="http://www.w3.org/2000/svg">
  <g transform="matrix(1 0 0 1 -1024 -5376 )">
    <path d="M 1032 5376  C 1036.48 5376  1040 5379.52  1040 5384  C 1040 5388.48  1036.48 5392  1032 5392  C 1027.52 5392  1024 5388.48  1024 5384  C 1024 5379.52  1027.52 5376  1032 5376  Z " fill-rule="nonzero" fill="#ffd77c" stroke="none" />
    <path d="M 1032 5376.499893477798  C 1036.2000596524333 5376.499893477798  1039.5001065222023 5379.799940347567  1039.5001065222023 5384  C 1039.5001065222023 5388.200059652433  1036.2000596524333 5391.500106522202  1032 5391.500106522202  C 1027.7999403475667 5391.500106522202  1024.4998934777977 5388.200059652433  1024.4998934777977 5384  C 1024.4998934777977 5379.799940347567  1027.7999403475667 5376.499893477798  1032 5376.499893477798  Z " stroke-width="0.9997869555954592" stroke="#ffab50" fill="none" />
  </g>
</svg>