<?xml version="1.0" encoding="utf-8"?>
<svg version="1.1" xmlns:xlink="http://www.w3.org/1999/xlink" width="13px" height="13px" xmlns="http://www.w3.org/2000/svg">
  <g transform="matrix(1 0 0 1 -1026 -5378 )">
    <path d="M 1032.5 5378  C 1036.14 5378  1039 5380.86  1039 5384.5  C 1039 5388.14  1036.14 5391  1032.5 5391  C 1028.86 5391  1026 5388.14  1026 5384.5  C 1026 5380.86  1028.86 5378  1032.5 5378  Z " fill-rule="nonzero" fill="#ffd77c" stroke="none" />
    <path d="M 1032.5 5378.499893477798  C 1035.8600596524334 5378.499893477798  1038.5001065222023 5381.139940347567  1038.5001065222023 5384.5  C 1038.5001065222023 5387.860059652433  1035.8600596524334 5390.500106522202  1032.5 5390.500106522202  C 1029.1399403475668 5390.500106522202  1026.4998934777977 5387.860059652433  1026.4998934777977 5384.5  C 1026.4998934777977 5381.139940347567  1029.1399403475668 5378.499893477798  1032.5 5378.499893477798  Z " stroke-width="0.9997869555954592" stroke="#ffab50" fill="none" />
  </g>
</svg>