<?xml version="1.0" encoding="utf-8"?>
<svg version="1.1" xmlns:xlink="http://www.w3.org/1999/xlink" width="10px" height="10px" xmlns="http://www.w3.org/2000/svg">
  <g transform="matrix(1 0 0 1 -538 -4581 )">
    <path d="M 543 4581  C 545.8 4581  548 4583.2  548 4586  C 548 4588.8  545.8 4591  543 4591  C 540.2 4591  538 4588.8  538 4586  C 538 4583.2  540.2 4581  543 4581  Z " fill-rule="nonzero" fill="#ffd77c" stroke="none" />
    <path d="M 543 4581.499893477798  C 545.5200596524332 4581.499893477798  547.5001065222023 4583.479940347566  547.5001065222023 4586  C 547.5001065222023 4588.520059652434  545.5200596524332 4590.500106522202  543 4590.500106522202  C 540.4799403475668 4590.500106522202  538.4998934777977 4588.520059652434  538.4998934777977 4586  C 538.4998934777977 4583.479940347566  540.4799403475668 4581.499893477798  543 4581.499893477798  Z " stroke-width="0.9997869555954592" stroke="#ffab50" fill="none" />
  </g>
</svg>