<?xml version="1.0" encoding="utf-8"?>
<svg version="1.1" xmlns:xlink="http://www.w3.org/1999/xlink" width="7px" height="7px" xmlns="http://www.w3.org/2000/svg">
  <g transform="matrix(1 0 0 1 -539 -4583 )">
    <path d="M 542.5 4583  C 544.46 4583  546 4584.54  546 4586.5  C 546 4588.46  544.46 4590  542.5 4590  C 540.54 4590  539 4588.46  539 4586.5  C 539 4584.54  540.54 4583  542.5 4583  Z " fill-rule="nonzero" fill="#ffd77c" stroke="none" />
    <path d="M 542.5 4583.499893477798  C 544.1800596524333 4583.499893477798  545.5001065222023 4584.819940347566  545.5001065222023 4586.5  C 545.5001065222023 4588.180059652434  544.1800596524333 4589.500106522202  542.5 4589.500106522202  C 540.8199403475668 4589.500106522202  539.4998934777977 4588.180059652434  539.4998934777977 4586.5  C 539.4998934777977 4584.819940347566  540.8199403475668 4583.499893477798  542.5 4583.499893477798  Z " stroke-width="0.9997869555954592" stroke="#ffab50" fill="none" />
  </g>
</svg>