<?xml version="1.0" encoding="utf-8"?>
<svg version="1.1" xmlns:xlink="http://www.w3.org/1999/xlink" width="9px" height="9px" xmlns="http://www.w3.org/2000/svg">
  <g transform="matrix(1 0 0 1 -1028 -5380 )">
    <path d="M 1032.5 5380  C 1035.02 5380  1037 5381.98  1037 5384.5  C 1037 5387.02  1035.02 5389  1032.5 5389  C 1029.98 5389  1028 5387.02  1028 5384.5  C 1028 5381.98  1029.98 5380  1032.5 5380  Z " fill-rule="nonzero" fill="#ffd77c" stroke="none" />
    <path d="M 1032.5 5380.499893477798  C 1034.7400596524333 5380.499893477798  1036.5001065222023 5382.259940347567  1036.5001065222023 5384.5  C 1036.5001065222023 5386.740059652433  1034.7400596524333 5388.500106522202  1032.5 5388.500106522202  C 1030.2599403475667 5388.500106522202  1028.4998934777977 5386.740059652433  1028.4998934777977 5384.5  C 1028.4998934777977 5382.259940347567  1030.2599403475667 5380.499893477798  1032.5 5380.499893477798  Z " stroke-width="0.9997869555954592" stroke="#ffab50" fill="none" />
  </g>
</svg>