<?xml version="1.0" encoding="utf-8"?>
<svg version="1.1" xmlns:xlink="http://www.w3.org/1999/xlink" width="5px" height="5px" xmlns="http://www.w3.org/2000/svg">
  <g transform="matrix(1 0 0 1 -540 -4584 )">
    <path d="M 542.5 4584  C 543.9 4584  545 4585.1  545 4586.5  C 545 4587.9  543.9 4589  542.5 4589  C 541.1 4589  540 4587.9  540 4586.5  C 540 4585.1  541.1 4584  542.5 4584  Z " fill-rule="nonzero" fill="#ffd77c" stroke="none" />
    <path d="M 542.5 4584.499893477798  C 543.6200596524333 4584.499893477798  544.5001065222023 4585.379940347567  544.5001065222023 4586.5  C 544.5001065222023 4587.620059652433  543.6200596524333 4588.500106522202  542.5 4588.500106522202  C 541.3799403475667 4588.500106522202  540.4998934777977 4587.620059652433  540.4998934777977 4586.5  C 540.4998934777977 4585.379940347567  541.3799403475667 4584.499893477798  542.5 4584.499893477798  Z " stroke-width="0.9997869555954592" stroke="#ffab50" fill="none" />
  </g>
</svg>