<?xml version="1.0" encoding="utf-8"?>
<svg version="1.1" xmlns:xlink="http://www.w3.org/1999/xlink" width="6px" height="6px" xmlns="http://www.w3.org/2000/svg">
  <g transform="matrix(1 0 0 1 -1029 -5382 )">
    <path d="M 1032 5382  C 1033.68 5382  1035 5383.32  1035 5385  C 1035 5386.68  1033.68 5388  1032 5388  C 1030.32 5388  1029 5386.68  1029 5385  C 1029 5383.32  1030.32 5382  1032 5382  Z " fill-rule="nonzero" fill="#ffd77c" stroke="none" />
    <path d="M 1032 5382.499893477798  C 1033.4000596524334 5382.499893477798  1034.5001065222023 5383.599940347567  1034.5001065222023 5385  C 1034.5001065222023 5386.400059652433  1033.4000596524334 5387.500106522202  1032 5387.500106522202  C 1030.5999403475666 5387.500106522202  1029.4998934777977 5386.400059652433  1029.4998934777977 5385  C 1029.4998934777977 5383.599940347567  1030.5999403475666 5382.499893477798  1032 5382.499893477798  Z " stroke-width="0.9997869555954592" stroke="#ffab50" fill="none" />
  </g>
</svg>