<?xml version="1.0" encoding="utf-8"?>
<svg version="1.1" xmlns:xlink="http://www.w3.org/1999/xlink" width="44px" height="97px" xmlns="http://www.w3.org/2000/svg">
  <defs>
    <linearGradient gradientUnits="userSpaceOnUse" x1="21.99456234749207" y1="96.91375545090747" x2="21.99456234749207" y2="0.16100798873851102" id="LinearGradient54">
      <stop id="Stop55" stop-color="#808080" stop-opacity="0.25098039215686274" offset="0" />
      <stop id="Stop56" stop-color="#808080" stop-opacity="0.12156862745098039" offset="0.54" />
      <stop id="Stop57" stop-color="#808080" stop-opacity="0.10196078431372549" offset="1" />
    </linearGradient>
  </defs>
  <g transform="matrix(1 0 0 1 -559 -4551 )">
    <path d="M 43.16901935880224 59.694536954102155  C 43.16901935880224 59.694536954102155  43.15314645249688 59.46115210659388  43.12140063988624 59.03290224077772  L 43.917313513196376 58.781390414822205  C 43.917313513196376 58.781390414822205  42.55677868702521 49.699774212752565  42.57038403528691 41.560760889939665  C 42.57038403528691 41.3341736593491  42.57038403528691 41.091725322617215  42.57038403528691 40.858340475108925  C 42.586256941592275 40.350785078586064  42.60439740594121 39.847761426675035  42.629340544420984 39.35606713629352  C 42.66108635703167 38.72615463525177  42.66788903116252 38.12569847418678  42.663353915075284 37.543369291569036  C 42.73818333051468 29.705716985441573  39.64750171706258 26.395277546513505  39.64750171706258 26.395277546513505  C 39.64750171706258 26.395277546513505  36.01940884727289 21.224556944436934  33.844820683442656 20.21850964061485  C 33.65661336582233 19.62938284107939  33.44119535167855 18.87258149090692  33.25072047601461 17.993423036215557  C 33.32101477536677 17.945839717791543  33.38904151667532 17.898256399367515  33.45480069994025 17.848407208637596  C 34.352894641935954 17.18271552109224  35.21218800843032 16.466287447850874  36.028479079447365 15.702626134944994  C 37.14411763690769 14.658059001922513  38.21440503349563 13.384638766003562  38.155448524361546 11.948075724059427  C 38.16157799268695 11.808204460180033  38.15702970338135 11.668069795704113  38.14184317609985 11.528889347466889  C 37.935495394130584 9.795497033449111  36.13278674945383 8.490354585247472  35.40490061745224 6.847597163465916  C 34.792659945675204 5.467680929169407  34.97633214720835 3.931419505765409  34.44118844891433 2.5311104207157555  C 33.90604475062036 1.1308013356660886  32.03757692267867 -0.17207524022963352  30.62715581954793 0.5643332591896895  C 30.107885027559274 0.8362379358983647  29.79496201753988 1.3166028647503503  29.361858431208756 1.68140830600115  C 28.28703591853353 2.587757228363384  26.554621573208934 2.6715945036818938  25.085243960944112 2.25920574400708  C 23.615866348679297 1.8468169843322664  23.180495204304506 0.1655397333503102  21.126087616786048 0.16100798873850303  C 21.308503640147137 0.22212881471079346  21.482858209255376 0.3050568482635561  21.645358408774758 0.4079880700822002  C 21.473750770781788 0.3790983053695  21.30010892997352 0.3639443531617515  21.126087616786048 0.3626706239640769  C 21.97977867139679 0.6325783649927529  22.594580890771848 1.3792030536063278  22.69523778297015 2.2682692332307073  C 22.692045656325288 2.3229293610177737  22.685990539914535 2.3773848955095995  22.677097318621165 2.43141203925592  C 21.85624130683125 2.8732571389075066  20.77688367806879 2.621745312951976  19.792763487138327 2.6058842068106385  C 18.808643296207865 2.5900231006693004  17.688469622660307 3.0862491356626367  17.78597461853592 3.890633804259119  C 17.769443275911506 3.9820389293757508  17.769443275911506 4.075665100462983  17.78597461853592 4.167070225579614  C 17.91522542702217 4.776589875868221  18.73154632272485 5.236561953967061  18.831318876644083 5.800764158137544  C 18.831318876644083 5.816625264278882  18.831318876644083 5.830220498114317  18.831318876644033 5.846081604255654  C 17.010135452415156 6.755452784411029  15.03991502371029 7.329577264257693  13.015032494762458 7.540954089073044  C 12.949273311497526 7.540954089073044  12.978751566064542 7.620259619779735  13.073989003896541 7.735819107380921  L 13.015032494762458 7.735819107380921  C 12.64542053365265 7.774338936581321  15.230436703377794 9.815889884202269  15.525219249048204 9.949576350250684  C 16.604576877810665 10.439004768326297  17.89481740462962 10.799278464965289  19.037666658613396 11.17541326774562  L 19.137439212532627 11.207135480028297  C 18.75237826389323 12.10100528829507  18.55407180540901 13.064042774525841  18.554676795322603 14.037209990104389  C 18.554676795322603 17.526653341199008  21.064863549608404 20.45869210504085  24.46393305699261 21.2880013690023  C 25.09884930920576 22.028941613033428  25.765511374029646 22.842389770853536  26.3732169297194 23.651306184061838  L 26.33013332689064 23.651306184061838  C 26.33013332689064 23.651306184061838  22.423130817735956 28.844685509197458  22.547846510135024 36.60076641231233  C 22.536763630737298 37.57286028278274  22.58826794563098 38.54465994622117  22.702040457101052 39.5101464530951  C 20.18958614477169 39.367396497823044  14.790530442915871 38.70576178449861  10.683982825922627 35.701215106867785  C 5.14433852536248 31.652101296214493  -1.0347571434980902 32.86660885217989  0.2532158252772485 35.29562396411068  C 1.5411887940525615 37.72463907604148  8.137515142939016 39.74806304521517  9.20099986539611 39.95199155274669  C 9.30077241931534 39.97011853119393  9.532063339764436 40.024499466535666  9.86312681413271 40.106070869548276  C 8.552478264921207 40.35305095089197  7.654525279648225 40.78583256131994  7.708946672695074 41.368161743937684  C 7.815521900745155 42.48070504613733  13.461741429355383 46.02452933257369  16.869881168914112 46.22619196779929  C 19.121566306227308 46.359878433847705  21.83129816835152 47.05323535945483  23.96960540348379 47.662755009743435  C 24.1759531854531 52.31912259837941  23.048976837774692 53.714899938817275  23.048976837774692 53.714899938817275  C 23.048976837774692 53.714899938817275  23.384575428230256 53.92109431865469  23.940127148916773 54.21339184611653  L 23.70203355433683 54.8931535378882  C 22.318823147729493 55.690740589566964  20.613619498928347 56.522315725834346  19.062609797093227 56.85766482710831  C 17.086156187664592 57.2634527111556  15.164928054185776 57.90237184139813  13.339293294999987 58.76099756406906  L 5.668144433438369 62.465698784224685  C 4.27538134279369 63.11140649108996  3.3150516344868075 64.43002139476667  3.128479424585543 65.95287626301341  C 2.9606801293577636 67.52312577100598  3.434599760474062 69.48537118792024  6.00147546585026 71.04202546207739  C 6.160204528903574 72.31771157030225  6.940244495908339 73.80638967528222  8.987849409295896 75.17044480343739  C 12.956075985628377 77.80792016751151  23.3845754282302 85.70901689820433  24.804066763535403 86.7875721158154  C 24.831277460058853 88.71582944814105  24.57731095917354 92.5836734743219  22.196375013374045 93.1863955076928  C 19.212268627972026 93.94319685786526  21.61361259616407 96.81179119714176  24.026294354574254 96.69849758184647  C 24.59882747311871 96.91492238968043  25.22193080961325 96.96057741684433  25.819932767076548 96.829918175589  C 28.377738240278298 96.2226643976063  37.75182319259744 92.97793525554948  38.39127456089788 88.12443677629969  C 38.41782676676687 87.9140289991048  38.42994868683849 87.70205310124969  38.42755548959574 87.48999253064615  C 38.464740136144606 86.66258623389773  38.25817614555845 85.84245930543182  37.83345528216769 85.13121946019842  C 37.933489932310664 85.35051579429792  38.01465926663313 85.57792418247806  38.07608399283487 85.8109811519701  C 37.30057914191733 84.04360075336375  35.41170329158304 82.93332332346999  33.94232567931822 82.30794256704006  C 33.94232567931822 82.2920814608987  33.94232567931822 82.27395448245147  33.94232567931822 82.25809337631013  C 33.71556987495636 82.16972435637982  33.4888140705945 82.09721644259082  33.30287431101779 82.03150614571956  C 33.30663043366836 81.90017401811829  33.29675154870897 81.76880658996967  33.27339605645072 81.63951023679788  L 18.572817259671535 71.51785864631759  C 18.572817259671535 71.51785864631759  24.965063384632334 66.25423727969888  31.57045996569319 67.0654195652131  C 38.1758565467541 67.8766018507273  39.22800347899316 66.67795540090322  39.22800347899316 66.67795540090322  C 39.22800347899316 66.67795540090322  42.61573519615934 63.45815085421134  42.95586890270213 59.75118376174979  L 43.16901935880224 59.694536954102155  Z " fill-rule="nonzero" fill="url(#LinearGradient54)" stroke="none" transform="matrix(1 0 0 1 559 4551 )" />
  </g>
</svg>