<?xml version="1.0" encoding="utf-8"?>
<svg version="1.1" xmlns:xlink="http://www.w3.org/1999/xlink" width="55px" height="122px" xmlns="http://www.w3.org/2000/svg">
  <defs>
    <linearGradient gradientUnits="userSpaceOnUse" x1="27.49320293436509" y1="121.89152747433724" x2="27.49320293436509" y2="0.20250489305256025" id="LinearGradient15">
      <stop id="Stop16" stop-color="#808080" stop-opacity="0.25098039215686274" offset="0" />
      <stop id="Stop17" stop-color="#808080" stop-opacity="0.12156862745098039" offset="0.54" />
      <stop id="Stop18" stop-color="#808080" stop-opacity="0.10196078431372549" offset="1" />
    </linearGradient>
  </defs>
  <g transform="matrix(1 0 0 1 -1053 -5340 )">
    <path d="M 53.9612741985028 75.07972689072642  C 53.9612741985028 75.07972689072642  53.94143306562109 74.78619130932427  53.9017507998578 74.24756776675136  L 54.89664189149547 73.9312333052403  C 54.89664189149547 73.9312333052403  53.19597335878151 62.50899437067848  53.212980044108626 52.272297201779786  C 53.212980044108626 51.98731120041846  53.212980044108626 51.68237617896185  53.212980044108626 51.38884059755968  C 53.23282117699034 50.75047195451031  53.255496757426506 50.11780303148819  53.28667568052624 49.499383408534115  C 53.32635794628959 48.70712232474965  53.33486128895315 47.95190942114213  53.32919239384411 47.21949539764353  C 53.42272916314335 37.36182961055538  49.55937714632823 33.19818413066647  49.55937714632823 33.19818413066647  C 49.55937714632823 33.19818413066647  45.02426105909112 26.694803579601093  42.30602585430332 25.429465733556825  C 42.07076670727791 24.688502130017376  41.80149418959819 23.73664888547056  41.56340059501826 22.630903200188637  C 41.65126846920846 22.571056139902765  41.73630189584415 22.511209079616876  41.81850087492531 22.448512159317392  C 42.941118302419945 21.6112504492088  44.01523501053789 20.710175965338212  45.0355988493092 19.749694726425663  C 46.43014704613461 18.435909260149966  47.76800629186954 16.834287932499326  47.694310655451936 15.027476683868558  C 47.70197249085869 14.851556125174886  47.69628712922668 14.675304279133009  47.67730397012481 14.500252581350107  C 47.41936924266323 12.320109670935997  45.165983436817285 10.678590303094758  44.2561257718153 8.612441793225173  C 43.49082493209401 6.8768770449347185  43.72041518401044 4.944671955704948  43.05148556114291 3.1834584672919815  C 42.382555938275445 1.4222449788789981  40.04697115334833 -0.21642452894861125  38.283944774434914 0.7097799754756919  C 37.63485628444909 1.0517631771092835  37.24370252192485 1.655933499995286  36.70232303901094 2.1147609621870136  C 35.35879489816691 3.254704967632297  33.19327696651117 3.36014978813599  31.35655495118014 2.8414752656583895  C 29.519832935849124 2.3228007431807884  28.975619005380633 0.2082046130797716  26.40760952098256 0.2025048930525502  C 26.63562955018392 0.2793785092238845  26.853572761569218 0.38367974730055515  27.056698010968447 0.5131396345363756  C 26.842188463477235 0.4768040541760722  26.625136162466895 0.45774444418282145  26.40760952098256 0.45614243426409673  C 27.474723339245987 0.7956140260733593  28.24322611346481 1.7346677581440413  28.369047228712688 2.8528747057128485  C 28.36505707040661 2.921622495300705  28.35748817489317 2.990112961362589  28.346371648276456 3.058064626693013  C 27.320301633539064 3.6137873293475855  25.971104597585988 3.297452867836506  24.74095435892291 3.2775038477412153  C 23.51080412025983 3.257554827645924  22.110587028325384 3.881674170627234  22.2324682731699 4.893374475459923  C 22.211804094889384 5.008337622513831  22.211804094889384 5.126094250066845  22.2324682731699 5.241057397120752  C 22.39403178377771 6.007669740782711  23.414432903406063 6.586191323546201  23.539148595805102 7.29580646693588  C 23.539148595805102 7.315755487031171  23.539148595805102 7.3328546471128515  23.539148595805038 7.352803667208142  C 21.262669315518945 8.49654886286748  18.799893779637863 9.218643569478747  16.268790618453075 9.484498957390839  C 16.18659163937191 9.484498957390839  16.223439457580678 9.584244057867295  16.342486254870675 9.729586918561571  L 16.268790618453075 9.729586918561571  C 15.806775667065812 9.778034538793001  19.038045879222242 12.345758411058524  19.406524061310254 12.513900151861685  C 20.755721097263333 13.129469914802147  22.36852175578702 13.582597656966652  23.797083323266744 14.05567441922645  L 23.921799015665783 14.095572459417033  C 23.440472829866536 15.219821084247407  23.19258975676126 16.431064108166524  23.193345994153255 17.655047616419953  C 23.193345994153255 22.043832037384316  26.331079437010505 25.73155089499983  30.579916321240763 26.77459965998227  C 31.3735616365072 27.706503884433797  32.20688921753706 28.729603629320945  32.96652116214925 29.74700365418087  L 32.9126666586133 29.74700365418087  C 32.9126666586133 29.74700365418087  28.028913522169944 36.27888280538237  28.184808137668778 46.03395363198046  C 28.170954538421622 47.25658715978861  28.235334932038725 48.478850654010124  28.377550571376315 49.69317388945982  C 25.23698268096461 49.51363270860218  18.48816305364484 48.68147358462711  13.354978532403283 44.90255920657598  C 6.4304231567031 39.809859362249156  -1.2934464293726127 41.337384329545834  0.31651978159656063 44.39243426413921  C 1.9264859925657016 47.44748419873258  10.17189392867377 49.992409190889184  11.501249831745136 50.2488965921144  C 11.625965524144176 50.27169547222329  11.915079174705545 50.34009211255002  12.328908517665889 50.4426870730401  C 10.690597831151509 50.75332181452392  9.56815659956028 51.29764507712405  9.636183340868842 52.03005910062265  C 9.769402375931444 53.42934036730675  16.827176786694228 57.88652142859784  21.08735146114264 58.14015896980941  C 23.90195788278414 58.30830071061258  27.2891227104394 59.180357874778245  29.962006754354736 59.9469702184402  C 30.219941481816374 65.80343254641534  28.811221047218364 67.55894631480112  28.811221047218364 67.55894631480112  C 28.811221047218364 67.55894631480112  29.23071928528782 67.81828357603992  29.925158936145966 68.18591551779605  L 29.627541942921034 69.04087352188  C 27.898528934661865 70.04402424667185  25.767024373660433 71.08992287166794  23.828262246366535 71.51170215368262  C 21.357695234580742 72.02207454392766  18.95616006773222 72.82566355309868  16.674116618749984 73.90558456511778  L 7.0851805417979605 78.56510568737538  C 5.344226678492112 79.37723290631932  4.143814543108509 81.03569701197458  3.9105992807319288 82.95104024832614  C 3.7008501616972045 84.9259932377601  4.293249700592577 87.39397200954917  7.501844332312825 89.35182583890146  C 7.700255661129467 90.95629702656571  8.675305619885425 92.8286550555096  11.234811761619868 94.54427078370476  C 16.19509498203547 97.86150783955057  29.23071928528775 107.79896970701988  31.005083454419253 109.15550307349977  C 31.039096825073564 111.58073394508462  30.721638698966927 116.44544498832238  27.745468766717554 117.2035077519435  C 24.015335784965032 118.15536099649033  27.01701574520509 121.76328377372468  30.032867943217816 121.62079077304402  C 30.74853434139839 121.8929951705259  31.52741351201656 121.95041695726813  32.27491595884568 121.78608265383359  C 35.47217280034787 121.02232017018524  47.1897789907468 116.9413206306911  47.989093201122344 110.83692048153156  C 48.02228345845859 110.5722838957813  48.03743585854812 110.30567503456147  48.03444436199468 110.03895967771989  C 48.080925170180755 108.99830433541776  47.82272018194807 107.96680448724415  47.29181910270961 107.07225540354854  C 47.41686241538833 107.348071411385  47.51832408329142 107.63409020888992  47.595104991043584 107.9272134076325  C 46.62572392739667 105.7043225970142  44.2646291144788 104.3078911903437  42.42790709914778 103.52132982658647  C 42.42790709914778 103.50138080649116  42.42790709914778 103.47858192638228  42.42790709914778 103.45863290628697  C 42.14446234369545 103.34748836575605  41.86101758824313 103.25629284532042  41.62859288877223 103.17364690492563  C 41.63328804208545 103.00846629082919  41.620939435886214 102.84324127810618  41.591745070563405 102.68062112257053  L 23.21602157458942 89.95029644176026  C 23.21602157458942 89.95029644176026  31.206329230790416 83.33007163013674  39.46307495711648 84.3503215150103  C 47.71982068344262 85.37057139988383  49.035004348741445 83.8629954526824  49.035004348741445 83.8629954526824  C 49.035004348741445 83.8629954526824  53.269668995199176 79.81334437333798  53.694836128377666 75.15097339106674  L 53.9612741985028 75.07972689072642  Z " fill-rule="nonzero" fill="url(#LinearGradient15)" stroke="none" transform="matrix(1 0 0 1 1053 5340 )" />
  </g>
</svg>