<?xml version="1.0" encoding="utf-8"?>
<svg version="1.1" xmlns:xlink="http://www.w3.org/1999/xlink" width="41px" height="38px" xmlns="http://www.w3.org/2000/svg">
  <g transform="matrix(1 0 0 1 -90 -126 )">
    <path d="M 23.0398860765687 20.70325719085477  C 24.33894280909842 18.539966315053164  26.17656329265498 16.3135758599564  27.880519453764954 16.020405506923453  C 30.13887637093098 17.25672581099395  34.48877375228864 16.87823619775164  37.79585714248927 13.49890317327697  C 41.076017624140235 10.148477306496497  42.3162662779948 5.2490376649161306  39.21506395317397 1.9761649562779282  L 39.217492293945114 1.974870605933412  C 39.20281666928471 1.9610642022585718  39.15002665252066 1.9072408004324348  39.136512408229066 1.8927872215853356  C 39.136512408229066 1.8927872215853356  39.136512408229066 1.8940815719298523  39.13408406745791 1.8940815719298523  C 35.932475130751854 -1.2727622709867223  31.13724116797268 -0.006456183934931183  27.855919305952913 3.3440775453742493  C 24.54873033571875 6.723410569848919  24.178249998068658 11.167346752688253  25.38777486216655 13.47441837925987  C 25.076208183225134 15.363630569610134  22.539331137611985 17.413342202680422  20.263870255014403 18.74361076925706  C 18.509024517743878 17.637696262396585  16.296067014994932 15.683227242176953  16.063579781166062 11.753795321282851  C 16.231663194542794 10.184179803499406  15.725618093842616 8.553082644351434  14.549878840473715 7.351817662111587  C 14.441976046208 7.241582157770281  14.13157074763539 6.973328048869275  14.13157074763539 6.973328048869275  L 5.559422245455552 0.1527489084405773  L 4.7785523174817355 0.9498529956052055  L 14.08004769127368 9.864583130932587  L 13.071124890879172 10.895317455282408  L 4.059763449222441 1.6884955922091798  L 3.2323327264627335 2.5331670545347826  L 12.242427207717128 11.740528230251561  L 11.3905019171789 12.610870974410071  L 2.3804074359245075 3.406098499382326  L 1.6265659965338843 4.16933375253211  L 10.58270908065542 13.319743513090172  L 9.556576734795833 14.371834618124511  L 0.8543536313093727 4.960073950502866  L 0 5.83548623351073  L 7.113560338989162 14.992691333377504  C 7.113560338989162 14.992691333377504  7.282910712768231 15.17001733057624  7.35459955553381 15.235166297916894  C 8.389917364310342 16.15944030643025  9.689607577041235 16.595528510003536  10.975783545480532 16.558639525184823  C 10.984969008397476 16.558639525184823  10.998483252689072 16.561120363345147  11.003339934231363 16.56241471368966  C 14.390241829779233 16.59693072287676  16.4830492543732 18.700465757773188  17.799315532368006 20.515144940785056  C 14.57870218962689 23.80721717953358  4.583545995555338 34.01964139776727  4.583545995555338 34.01964139776727  L 4.585974336326484 34.0221222359276  C 4.576155393208371 34.029672612937276  4.5632746291179425 34.03840947776276  4.55345568599983 34.04844069293277  C 3.7395392075317186 34.87930575158353  3.7395392075317186 36.2278030855121  4.55345568599983 37.061256844851904  C 4.5951597992434285 37.10256819334771  4.752157309099711 37.261773285723216  4.792066561773332 37.30437898456355  C 5.605983040241443 38.13653839355882  6.927845060013235 38.13653839355882  7.740494578079009 37.305673334908064  C 7.750313521197121 37.29564211973807  7.758865503912899 37.28313006640774  7.7668895864610334 37.27191236342193  L 7.769317927232178 37.275579689398064  C 7.769317927232178 37.275579689398064  17.0511754147879 27.792521890299312  20.609856024885985 24.158201847954935  C 23.996757920433854 27.617029556088646  33.38472334168531 37.20546904573677  33.38472334168531 37.20546904573677  L 33.38715168245646 37.202988207576446  C 33.394436704769895 37.21183293493064  33.39813200594338 37.22423712573225  33.41048486986617 37.236857041591286  C 34.21025362384151 38.052621346222686  35.5155395783494 38.052621346222686  36.31646971269355 37.23437620343096  C 37.11750542707124 36.41472884776601  37.11993376784238 35.08640180670614  36.31763109306237 34.26546010069668  C 36.30548938920663 34.25424239771087  36.29324210531737 34.25046720920603  36.283423162199256 34.23924950622022  L 36.285745922936876 34.236768668059895  C 36.285745922936876 34.236768668059895  25.91651967007527 23.644560486239378  23.0398860765687 20.70325719085477  Z M 26.776574623195163 11.059484223978563  C 26.73592631028684 10.726728322909159  26.727374327571063 10.253643271988448  26.77889738393278 9.692865985226756  C 26.827886519489812 9.13079434812055  26.938323234560208 8.484158488505942  27.12108227259735 7.799878606371653  C 27.218004743376138 7.459680190821283  27.332031179586487 7.109342697572201  27.470763343642407 6.755337878346991  C 27.62406555232521 6.3957242076288745  27.78486394338851 6.061026781042699  28.02030741815616 5.710797150322326  C 28.470500681119972 5.038490008874812  29.01877779523139 4.5157881947476435  29.56473214860518 4.077219153014033  C 30.104457280000826 3.63293339725881  30.65283997414576 3.2876654428590832  31.139775088777355 3.02577522315195  C 31.623120482268984 2.7588154645954615  32.056104199767724 2.585911831073824  32.365242537937995 2.486894029718326  C 32.67923755765056 2.3816202016976664  32.8619965956877 2.3678137980228255  32.8619965956877 2.3678137980228255  C 32.8619965956877 2.3678137980228255  32.71112272777605 2.484413191558004  32.4854981961265 2.6999225239199687  C 32.25733974367228 2.9167262066264508  31.932258820439266 3.2275860143677852  31.54097921618413 3.5997117384162243  C 30.790199597765824 4.347954100075361  29.720568278092653 5.319148308577432  28.962398057327388 6.375553914760164  C 28.779639019290247 6.616842391483746  28.616517867489332 6.935144713706049  28.47419598229345 7.226481403750927  C 28.319626813208313 7.52418198298968  28.182161609554726 7.831805914869722  28.057154849857465 8.136301833417185  C 27.797005647244227 8.741626344535979  27.582361439081605 9.328074913130578  27.397174060273326 9.833842310250327  C 27.216843363007328 10.340796195185883  27.075788438213795 10.76933402174949  26.992380211726594 11.073937802825663  C 26.901581382892427 11.379080896545384  26.91382866678169 11.560182082248955  26.928609871475622 11.560182082248955  C 26.921324849162183 11.571507647763475  26.809621173689454 11.396015313552804  26.776574623195163 11.059484223978563  Z " fill-rule="nonzero" fill="#ffffff" stroke="none" transform="matrix(1 0 0 1 90 126 )" />
  </g>
</svg>