<?xml version="1.0" encoding="utf-8"?>
<svg version="1.1" xmlns:xlink="http://www.w3.org/1999/xlink" width="35px" height="36px" xmlns="http://www.w3.org/2000/svg">
  <g transform="matrix(1 0 0 1 -568 -4603 )">
    <path d="M 34.59936757630172 6.002333214243008  C 32.99061947502537 1.348547818388484  17.927920091747442 0.12435008371538431  17.927920091747442 0.12435008371538431  L 15.517070182913812 7.421393884210467  C 15.517070182913812 7.421393884210467  1.9585957191908805 15.832595173565256  0.8520133387931785 16.946752662425013  C -0.006894545786570399 17.81331959820484  -1.1566495447213623 21.20393467232744  2.8606762223077196 24.03976350714125  C 6.87800198933675 26.875592341955088  17.925647848666546 35.795729768196445  17.925647848666546 35.795729768196445  C 17.925647848666546 35.795729768196445  26.362486408043694 33.961725671307946  25.760341991605486 30.522967989642034  L 11.899659198123024 20.390095354333145  C 11.899659198123024 20.390095354333145  17.925647848666546 15.117333575778755  24.15386613341008 15.931172893773002  C 30.382084418153568 16.745012211767275  31.386415859910866 15.525399487336445  31.386415859910866 15.525399487336445  C 31.386415859910866 15.525399487336445  36.20811567757807 10.656118610097533  34.59936757630172 6.002333214243008  Z " fill-rule="nonzero" fill="#758ac8" stroke="none" transform="matrix(1 0 0 1 568 4603 )" />
  </g>
</svg>