<?xml version="1.0" encoding="utf-8"?>
<svg version="1.1" xmlns:xlink="http://www.w3.org/1999/xlink" width="44px" height="45px" xmlns="http://www.w3.org/2000/svg">
  <g transform="matrix(1 0 0 1 -1063 -5405 )">
    <path d="M 43.49634781020787 7.502916517803761  C 41.47392162574618 1.685684772985605  22.53795668676821 0.1554376046442304  22.53795668676821 0.1554376046442304  L 19.50717394423451 9.276742355263083  C 19.50717394423451 9.276742355263083  2.462234618411393 19.79074396695657  1.0711024830542817 21.183440828031266  C -0.008667428988831358 22.266649497756045  -1.4540737133639985 26.5049183404093  3.5962786794725616 30.04970438392656  C 8.646631072309058 33.59449042744386  22.535100152609374 44.74466221024556  22.535100152609374 44.74466221024556  C 22.535100152609374 44.74466221024556  33.141411484397786 42.45215708913493  32.38442993230404 38.153709987052544  L 14.959571563354658 25.48761919291643  C 14.959571563354658 25.48761919291643  22.535100152609374 18.896666969723444  30.364860282001246 19.913966117216255  C 38.19462041139306 20.931265264709094  39.45720850960223 19.406749359170558  39.45720850960223 19.406749359170558  C 39.45720850960223 19.406749359170558  45.51877399466957 13.320148262621917  43.49634781020787 7.502916517803761  Z " fill-rule="nonzero" fill="#758ac8" stroke="none" transform="matrix(1 0 0 1 1063 5405 )" />
  </g>
</svg>