<?xml version="1.0" encoding="utf-8"?>
<svg version="1.1" xmlns:xlink="http://www.w3.org/1999/xlink" width="20px" height="40px" xmlns="http://www.w3.org/2000/svg">
  <g transform="matrix(1 0 0 1 -583 -4572 )">
    <path d="M 3.8210633399555376 3.7731329266648963  C 3.8210633399555376 3.7731329266648963  4.230171565463568 5.971521615311368  5.482778210979705 4.687223857495038  C 5.954076865973391 4.1924473844886965  6.450398781691819 3.7218434699141523  6.969817659876847 3.2772385966895463  C 8.009467959252326 2.4295340900345503  8.963231890430224 1.4827510114279774  9.817486712710847 0.4504123930973557  C 11.240172058719143 -1.3777694685629154  16.52180521724409 6.510835264501137  16.52180521724409 6.510835264501137  C 16.52180521724409 6.510835264501137  19.77168741313369 10.146631941878006  19.367175909260578 18.83506623941843  C 18.962664405387464 27.523500536958846  19.87511364991944 39.139311040482795  19.87511364991944 39.139311040482795  L 18.64549061257789 39.47980991221702  C 16.545656226469184 40.17652877244779  14.238523170947335 39.8506355865977  12.416932797259035 38.599997391292995  C 10.794290060131718 37.484806455680236  8.739555489321734 36.31477006421766  7.176670133448347 36.20964960717218  C 4.1290436894953295 36.00854960238958  1.3848008734470798 34.29005865242892  1.3848008734470798 34.29005865242892  C 1.3848008734470798 34.29005865242892  2.7063583434870324 31.1592972143357  0.6746073808516871 21.056307201335663  C -1.3571435817837105 10.953317188335625  3.8210633399555376 3.7731329266648963  3.8210633399555376 3.7731329266648963  Z " fill-rule="nonzero" fill="#000000" stroke="none" transform="matrix(1 0 0 1 583 4572 )" />
  </g>
</svg>