<?xml version="1.0" encoding="utf-8"?>
<svg version="1.1" xmlns:xlink="http://www.w3.org/1999/xlink" width="25px" height="50px" xmlns="http://www.w3.org/2000/svg">
  <g transform="matrix(1 0 0 1 -1082 -5367 )">
    <path d="M 4.776329174944422 4.71641615833112  C 4.776329174944422 4.71641615833112  5.28771445682946 7.46440201913921  6.853472763724631 5.8590298218687975  C 7.442596082466739 5.24055923061087  8.062998477114773 4.652304337392691  8.712272074846059 4.096548245861933  C 10.011834949065406 3.036917612543188  11.20403986303778 1.8534387642849717  12.271858390888559 0.5630154913716946  C 14.050215073398928 -1.7222118357036444  20.652256521555113 8.13854408062642  20.652256521555113 8.13854408062642  C 20.652256521555113 8.13854408062642  24.714609266417114 12.683289927347507  24.20896988657572 23.54383279927304  C 23.70333050673433 34.40437567119856  24.843892062399302 48.92413880060349  24.843892062399302 48.92413880060349  L 23.306863265722363 49.34976239027128  C 20.682070283086478 50.22066096555974  17.798153963684168 49.81329448324712  15.521165996573794 48.24999673911624  C 13.492862575164649 46.85600806960029  10.924444361652167 45.39346258027208  8.970837666810434 45.26206200896522  C 5.161304611869162 45.01068700298697  1.7310010918088499 42.862573315536146  1.7310010918088499 42.862573315536146  C 1.7310010918088499 42.862573315536146  3.3829479293587905 38.94912151791963  0.8432592260646089 26.320384001669577  C -1.696429477229638 13.69164648541953  4.776329174944422 4.71641615833112  4.776329174944422 4.71641615833112  Z " fill-rule="nonzero" fill="#000000" stroke="none" transform="matrix(1 0 0 1 1082 5367 )" />
  </g>
</svg>