<?xml version="1.0" encoding="utf-8"?>
<svg version="1.1" xmlns:xlink="http://www.w3.org/1999/xlink" width="26px" height="50px" xmlns="http://www.w3.org/2000/svg">
  <g transform="matrix(1 0 0 1 -1082 -5366 )">
    <path d="M 24.268765830382836 27.01763370985171  C 24.23121827582822 37.23959344550875  25.86886930909364 48.633717198070784  25.86886930909364 48.633717198070784  L 24.33808439263746 49.14222952893397  L 23.42827826304561 49.44388938622569  C 20.78952853094706 50.32025498460596  17.890019380103194 49.91051736516613  15.601057275128248 48.33780324282267  C 13.564824508898862 46.938676095193394  10.97981979148704 45.46485222099664  9.01579386093955 45.33269647399263  C 5.191719843226403 45.07700383305014  0.8593097023127131 42.28449543983523  0.8593097023127131 42.28449543983523  C 0.8593097023127131 42.28449543983523  3.4125434120245295 38.98347471575711  0.8593097023127131 26.28215824826425  C -1.6939240073990378 13.580841780771365  4.816244297680558 4.565521474281267  4.816244297680558 4.565521474281267  C 4.816244297680558 4.565521474281267  5.330356967735649 7.314935602168776  6.904465985600993 5.697464176880749  C 7.495485293106796 5.076115023740531  8.118249892427816 4.485421745196574  8.770290619621063 3.927726347435882  C 10.076784495836248 2.862005882891167  11.275347836016474 1.6717254320567543  12.348861396015788 0.37388593343707893  C 14.136702647499481 -1.9244748840237504  20.773954983379166 7.992952043319707  20.773954983379166 7.992952043319707  C 20.773954983379166 7.992952043319707  24.857973609547095 12.563817119044938  24.349637486346552 23.48677690402751  C 24.294760291228297 24.63595731275792  24.27165410381011 25.81961313375024  24.268765830382836 27.01763370985171  Z " fill-rule="nonzero" fill="#5e52ad" stroke="none" transform="matrix(1 0 0 1 1082 5366 )" />
  </g>
</svg>