<?xml version="1.0" encoding="utf-8"?>
<svg version="1.1" xmlns:xlink="http://www.w3.org/1999/xlink" width="21px" height="40px" xmlns="http://www.w3.org/2000/svg">
  <g transform="matrix(1 0 0 1 -583 -4572 )">
    <path d="M 19.601695478386137 21.61410696788137  C 19.571368607399716 29.791674756407  20.894086749652555 38.90697375845663  20.894086749652555 38.90697375845663  L 19.657683547899488 39.313783623147174  L 18.922840135536838 39.55511150898055  C 16.791542274995702 40.25620398768477  14.449631037775656 39.9284138921329  12.6008539529882 38.67024259425814  C 10.956204411033696 37.55094087615471  8.86831598543184 36.37188177679731  7.281987349220405 36.2661571791941  C 4.19331218106748 36.061603066440114  0.6940578364833452 33.82759635186819  0.6940578364833452 33.82759635186819  C 0.6940578364833452 33.82759635186819  2.756285063558274 31.18677977260569  0.6940578364833452 21.0257265986114  C -1.3681693905915304 10.864673424617093  3.8900434712035277 3.6524171794250138  3.8900434712035277 3.6524171794250138  C 3.8900434712035277 3.6524171794250138  4.305288320094178 5.851948481735021  5.57668406529311 4.557971341504599  C 6.054045813663182 4.0608920189924245  6.557047990037851 3.5883373961572596  7.083696269693935 3.142181077948706  C 8.138941323560047 2.2896047063129337  9.107011713705614 1.3373803456454034  9.974080358320444 0.29910874674966315  C 11.418105984518812 -1.5395799072190002  16.778963640421633 6.394361634655765  16.778963640421633 6.394361634655765  C 16.778963640421633 6.394361634655765  20.077594069249578 10.05105369523595  19.66701489281837 18.78942152322201  C 19.622691004453625 19.708765850206337  19.604028314615856 20.655690507000195  19.601695478386137 21.61410696788137  Z " fill-rule="nonzero" fill="#5e52ad" stroke="none" transform="matrix(1 0 0 1 583 4572 )" />
  </g>
</svg>