<?xml version="1.0" encoding="utf-8"?>
<svg version="1.1" xmlns:xlink="http://www.w3.org/1999/xlink" width="38px" height="16px" xmlns="http://www.w3.org/2000/svg">
  <g transform="matrix(1 0 0 1 -1064 -5387 )">
    <path d="M 37.74960976444299 0.16157107285328123  L 28.835903123821215 1.7345692163234903  L 29.089182485905432 7.496304412273612  C 29.089182485905432 7.496304412273612  15.60205645492267 8.28132231814856  12.804470773720094 5.401935886033647  C 10.006885092517521 2.5225494539187348  -0.11565486714237343 3.159450773779537  0.08293917812819941 5.401935886033647  C 0.20957885917030952 6.841629102091112  6.953141874661658 11.424356273368664  11.020002540854273 11.688003796473838  C 15.086863207046886 11.95165131957903  20.43163338193695 13.871242274322295  22.734173037247757 14.567390228588751  C 24.895682138670708 15.222065538771252  30.47646262823011 15.799720224226398  33.40356616504393 15.858966858632071  C 35.112020639258915 15.91556644502897  36.69204211963599 14.929379604244248  37.433010561837776 13.343947228111945  C 37.77420000145497 12.580394226231403  37.88450582051824 11.728910710655327  37.74960976444299 10.900023558878578  C 37.24017286570554 7.496304412273595  37.74960976444299 0.16157107285328123  37.74960976444299 0.16157107285328123  Z " fill-rule="nonzero" fill="#f8bdc5" stroke="none" transform="matrix(1 0 0 1 1064 5387 )" />
  </g>
</svg>