<?xml version="1.0" encoding="utf-8"?>
<svg version="1.1" xmlns:xlink="http://www.w3.org/1999/xlink" width="30px" height="13px" xmlns="http://www.w3.org/2000/svg">
  <g transform="matrix(1 0 0 1 -569 -4588 )">
    <path d="M 29.802323498244466 0.131276496693291  L 22.765186676700957 1.4093374882628358  L 22.96514406782008 6.09074733497231  C 22.96514406782008 6.09074733497231  12.317412990728423 6.728574383495705  10.108792716094811 4.389072907402339  C 7.900172441461201 2.049571431308972  -0.0913064740597685 2.5670537536958737  0.0654782985222627 4.389072907402339  C 0.1654569940818233 5.558823645449028  5.489322532627625 9.282289472112039  8.700002005937584 9.496503084634993  C 11.910681479247542 9.710716697157961  16.130236880476538 11.270384347886864  17.9480313451956 11.83600456072836  C 19.654485898950558 12.367928250251643  24.060365232813243 12.837272682183949  26.371236446087313 12.885410572638557  C 27.720016294151772 12.931397736586039  28.967401673396836 12.130120928448452  29.552376759345613 10.841957122840956  C 29.821736843253927 10.221570308813016  29.908820384619666 9.529739952407454  29.802323498244466 8.856269141588845  C 29.400136472925425 6.090747334972296  29.802323498244466 0.131276496693291  29.802323498244466 0.131276496693291  Z " fill-rule="nonzero" fill="#f8bdc5" stroke="none" transform="matrix(1 0 0 1 569 4588 )" />
  </g>
</svg>