<?xml version="1.0" encoding="utf-8"?>
<svg version="1.1" xmlns:xlink="http://www.w3.org/1999/xlink" width="30px" height="22px" xmlns="http://www.w3.org/2000/svg">
  <g transform="matrix(1 0 0 1 -1072 -5342 )">
    <path d="M 7.230881438614947 13.205464184461785  C 10.901527832729698 14.438872243858409  14.66072678576867 14.878778504320417  18.374221192266045 13.918223695083748  C 16.945954112843992 14.803604649684495  16.925958373732037 16.80545655647044  17.84576237287989 18.19199654197726  C 18.765566372027738 19.57853652748408  20.35094283018621 20.494543867306852  21.87633207100901 21.357651087200647  C 22.31909486562985 21.608230602653688  22.807562206792227 21.86716276862184  23.304599150431127 21.811478431854496  C 23.686728056395363 21.7388910900536  24.04072222839984 21.56444738822111  24.32723837929734 21.30753518411005  C 25.39470044390061 20.49573204987746  26.41331282928325 19.624686383151825  27.37801686094287 18.698724006560067  C 28.76629246214114 17.367868357820598  30.100293914321355 15.727964640022375  29.883197318249195 13.87089200883152  C 29.63753538058862 11.763239862187625  27.500847829773193 10.17623626431839  26.63817451380224 8.179952791209175  C 25.912614837455816 6.509422688188908  26.129711433527973 4.635644755967848  25.495560850264543 2.9289198340488087  C 24.861410267001183 1.2221949121297853  22.639026691420376 -0.3564560352243703  20.97652381097305 0.5372775698914841  C 20.362368966821577 0.8658151568187957  19.99101952617184 1.4532849097142555  19.47684337757989 1.8959753870146279  C 18.20282914273535 2.9929568213312585  16.14898108252646 3.1015412780275744  14.406495245631504 2.6003822471214972  C 12.664009408736547 2.0992232162154045  12.146976725985756 0.052823840015594786  9.71606615680938 0.0472554063388497  C 10.924380106000497 0.4621037152555599  11.74134887542992 1.6899433409754392  11.555674155105017 2.809198509999019  C 10.581596006939176 3.346552359803884  9.301868703777018 3.040288507583489  8.127833164492065 3.020798989714921  C 6.9537976252070495 3.0013094718463527  5.556952421532254 3.641679344670788  5.759766346810205 4.67183957486662  C 5.936871464658582 5.507104626376738  7.173750755438115 6.127984981332622  6.990932569272055 6.963250032842739  C 4.845110968820012 8.06504754921927  2.505952206031127 8.763951969131128  0.09525910982223909 9.023570493234388  C -0.341790616480921 9.070902179486634  2.7204140018000413 11.551639382471722  3.0689111691789805 11.715908175935379  C 4.345781938182362 12.311730579345948  5.879740781481684 12.748852622969576  7.230881438614947 13.205464184461785  Z " fill-rule="nonzero" fill="#000000" stroke="none" transform="matrix(1 0 0 1 1072 5342 )" />
  </g>
</svg>