<?xml version="1.0" encoding="utf-8"?>
<svg version="1.1" xmlns:xlink="http://www.w3.org/1999/xlink" width="24px" height="17px" xmlns="http://www.w3.org/2000/svg">
  <g transform="matrix(1 0 0 1 -575 -4552 )">
    <path d="M 5.784705150891958 10.204222324356834  C 8.721222266183759 11.157310370254226  11.728581428614936 11.497237935156686  14.699376953812836 10.75499103711017  C 13.556763290275196 11.439149047483472  13.540766698985628 12.986034611818067  14.27660989830391 14.057451873346064  C 15.012453097622192 15.128869134874062  16.280754264148968 15.836692988373477  17.501065656807206 16.50363947647323  C 17.855275892503883 16.697269102050576  18.24604976543378 16.89735304848051  18.6436793203449 16.854324242796658  C 18.949382445116292 16.798234024132327  19.232577782719872 16.66343661817086  19.46179070343787 16.464913551357768  C 20.31576035512049 15.837611129450764  21.1306502634266 15.164530386980955  21.9024134887543 14.449014005069142  C 23.013033969712914 13.420625549225008  24.080235131457087 12.153427221835472  23.906557854599356 10.718416552278901  C 23.710028304470896 9.089776257144983  22.000678263818553 7.86345529515512  21.31053961104179 6.320872611388909  C 20.730091869964653 5.030008440873248  20.903769146822377 3.582089129611519  20.396448680211634 2.2632562354013523  C 19.889128213600944 0.9444233411911978  18.1112213531363 -0.27544329994610434  16.78121904877844 0.4151690312797832  C 16.28989517345726 0.669038984814524  15.99281562093747 1.1229928847791975  15.581474702063911 1.4650718899658488  C 14.56226331418828 2.312739361937791  12.919184866021169 2.3966455330213075  11.525196196505204 2.0093862818666115  C 10.131207526989238 1.6221270307119033  9.717581380788605 0.040818421830232335  7.772852925447504 0.036515541261838404  C 8.739504084800396 0.357080143606569  9.393079100343936 1.3058653089355667  9.244539324084013 2.17074430318106  C 8.46527680555134 2.585972278030274  7.441494963021614 2.3493138467690597  6.502266531593652 2.3342537647797115  C 5.563038100165639 2.319193682790363  4.445561937225803 2.8140249481547  4.6078130774481645 3.610057853306025  C 4.7494971717268655 4.255489938563843  5.739000604350492 4.735261121938844  5.592746055417645 5.3806932071966616  C 3.876088775056009 6.232082197123982  2.0047617648249014 6.772144703419508  0.07620728785779128 6.9727590174993  C -0.27343249318473684 7.0093335023305805  2.176331201440033 8.926266795546331  2.4551289353431844 9.0532017723137  C 3.476625550545889 9.51360999313096  4.703792625185347 9.851386117749216  5.784705150891958 10.204222324356834  Z " fill-rule="nonzero" fill="#000000" stroke="none" transform="matrix(1 0 0 1 575 4552 )" />
  </g>
</svg>