<?xml version="1.0" encoding="utf-8"?>
<svg version="1.1" xmlns:xlink="http://www.w3.org/1999/xlink" width="24px" height="17px" xmlns="http://www.w3.org/2000/svg">
  <g transform="matrix(1 0 0 1 -575 -4552 )">
    <path d="M 5.784705150891958 10.22793401248141  C 8.721222266183759 11.183173498662981  11.728581428614936 11.516646742712858  14.699376953812836 10.778702725234746  C 13.556763290275196 11.462860735608036  13.540766698985628 13.00974629994263  14.27660989830391 14.081163561470628  C 15.012453097622192 15.152580822998628  16.280754264148968 15.860404676498042  17.501065656807206 16.527351164597803  C 17.855275892503883 16.72098079017514  18.24604976543378 16.921064736605075  18.6436793203449 16.87803593092122  C 18.949382445116292 16.82194571225689  19.232577782719872 16.687148306295434  19.46179070343787 16.488625239482335  C 20.31576035512049 15.861322817575328  21.1306502634266 15.188242075105519  21.9024134887543 14.472725693193718  C 23.013033969712914 13.444337237349586  24.080235131457087 12.177138909960037  23.906557854599356 10.742128240403478  C 23.710028304470896 9.11348794526956  22.000678263818553 7.887166983279685  21.31053961104179 6.344584299513473  C 20.730091869964653 5.053720128997812  20.903769146822377 3.6058008177360836  20.396448680211634 2.2869679235259293  C 19.889128213600944 0.968135029315762  18.1112213531363 -0.2517316118215399  16.78121904877844 0.43888071940434753  C 16.28989517345726 0.6927506729391005  15.99281562093747 1.1467045729037741  15.581474702063911 1.4887835780904133  C 14.56226331418828 2.3364510500623554  12.919184866021169 2.4203572211458724  11.525196196505204 2.033097969991176  C 10.131207526989238 1.64583871883648  9.717581380788605 0.06453010995480897  7.772852925447504 0.060227229386415025  C 8.739504084800396 0.3807918317311334  9.393079100343936 1.329576997060131  9.244539324084013 2.1944559913056363  C 8.46527680555134 2.609683966154838  7.441494963021614 2.3730255348936242  6.502266531593652 2.3579654529042764  C 5.563038100165639 2.342905370914928  4.445561937225803 2.837736636279277  4.6078130774481645 3.6337695414305893  C 4.7494971717268655 4.27920162668842  5.739000604350492 4.758972810063407  5.592746055417645 5.404404895321239  C 3.876088775056009 6.255793885248545  2.0047617648249014 6.795856391544085  0.07620728785779128 6.996470705623876  C -0.27343249318473684 7.033045190455158  2.176331201440033 8.949978483670897  2.4551289353431844 9.076913460438279  C 3.476625550545889 9.537321681255523  4.703792625185347 9.87509780587378  5.784705150891958 10.22793401248141  Z " fill-rule="nonzero" fill="#916168" stroke="none" transform="matrix(1 0 0 1 575 4552 )" />
  </g>
</svg>