<?xml version="1.0" encoding="utf-8"?>
<svg version="1.1" xmlns:xlink="http://www.w3.org/1999/xlink" width="30px" height="22px" xmlns="http://www.w3.org/2000/svg">
  <g transform="matrix(1 0 0 1 -1072 -5341 )">
    <path d="M 7.230881438614947 13.236149898505355  C 10.901527832729698 14.47234217474033  14.66072678576867 14.903895784687228  18.374221192266045 13.94890940912732  C 16.945954112843992 14.834290363728048  16.925958373732037 16.836142270513992  17.84576237287989 18.222682256020814  C 18.765566372027738 19.609222241527636  20.35094283018621 20.52522958135041  21.87633207100901 21.38833680124422  C 22.31909486562985 21.63891631669724  22.807562206792227 21.89784848266539  23.304599150431127 21.84216414589805  C 23.686728056395363 21.769576804097152  24.04072222839984 21.595133102264683  24.32723837929734 21.338220898153608  C 25.39470044390061 20.526417763921014  26.41331282928325 19.65537209719538  27.37801686094287 18.729409720603634  C 28.76629246214114 17.39855407186417  30.100293914321355 15.75865035406593  29.883197318249195 13.90157772287509  C 29.63753538058862 11.793925576231194  27.500847829773193 10.206921978361946  26.63817451380224 8.21063850525273  C 25.912614837455816 6.5401084022324625  26.129711433527973 4.6663304700114026  25.495560850264543 2.959605548092379  C 24.861410267001183 1.2528806261733392  22.639026691420376 -0.3257703211808164  20.97652381097305 0.567963283935038  C 20.362368966821577 0.8965008708623654  19.99101952617184 1.4839706237578252  19.47684337757989 1.9266611010581818  C 18.20282914273535 3.023642535374813  16.14898108252646 3.1322269920711285  14.406495245631504 2.6310679611650514  C 12.664009408736547 2.129908930258974  12.146976725985756 0.08350955405916455  9.71606615680938 0.07794112038241945  C 10.924380106000497 0.4927894292991138  11.74134887542992 1.720629055018993  11.555674155105017 2.8398842240425886  C 10.581596006939176 3.3772380738474377  9.301868703777018 3.0709742216270435  8.127833164492065 3.051484703758475  C 6.9537976252070495 3.031995185889907  5.556952421532254 3.672365058714358  5.759766346810205 4.702525288910174  C 5.936871464658582 5.537790340420308  7.173750755438115 6.158670695376175  6.990932569272055 6.993935746886309  C 4.845110968820012 8.095733263262824  2.505952206031127 8.794637683174699  0.09525910982223909 9.054256207277959  C -0.341790616480921 9.101587893530205  2.7204140018000413 11.582325096515277  3.0689111691789805 11.746593889978948  C 4.345781938182362 12.342416293389501  5.879740781481684 12.779538337013129  7.230881438614947 13.236149898505355  Z " fill-rule="nonzero" fill="#916168" stroke="none" transform="matrix(1 0 0 1 1072 5341 )" />
  </g>
</svg>