<?xml version="1.0" encoding="utf-8"?>
<svg version="1.1" xmlns:xlink="http://www.w3.org/1999/xlink" width="82px" height="116px" xmlns="http://www.w3.org/2000/svg">
  <defs>
    <linearGradient gradientUnits="userSpaceOnUse" x1="40.99181904147106" y1="115.89251210610433" x2="40.99181904147106" y2="0.2021768217708284" id="LinearGradient19">
      <stop id="Stop20" stop-color="#808080" stop-opacity="0.25098039215686274" offset="0" />
      <stop id="Stop21" stop-color="#808080" stop-opacity="0.12156862745098039" offset="0.54" />
      <stop id="Stop22" stop-color="#808080" stop-opacity="0.10196078431372549" offset="1" />
    </linearGradient>
  </defs>
  <g transform="matrix(1 0 0 1 -939 -5342 )">
    <path d="M 81.8363786402427 112.4759428448749  C 81.87431232717196 112.36460232128033  81.86709235467708 112.2430175864094  81.81624258015462 112.13685048283459  C 81.58899275915998 111.62963669759787  80.40959495399791 110.64085476795098  74.72259626910659 110.42714109439618  C 70.82770693205913 110.28181579637892  69.50160354625494 108.24441210848978  69.14203104468113 106.25545018660642  C 70.42210915028387 106.09017827905737  71.42315899466536 105.86221702726557  71.75108911610067 105.54592079040445  C 71.75108911610067 105.54592079040445  71.73382963602513 105.45473628968773  71.70506383589921 105.2923138977861  L 71.7510891161007 105.25811971001733  C 71.50235657040842 103.82347224676147  71.3724776219574 102.37107789974361  71.36275081440097 100.91545786338371  C 71.35527791336438 99.66987068672027  71.48842781273805 98.42736124925953  71.75971885613845 97.2110875217671  C 71.91810015756437 96.40702230562219  71.9846800223241 95.58786138111658  71.95820287700717 94.76905261194757  C 71.98984525714567 89.92487601137202  70.27252698962917 81.41052325694866  70.27252698962917 81.41052325694866  L 70.03664742859675 74.33517590446097  C 69.98839640036343 72.53692891924788  68.9523647912986 70.90842701924744  67.33553879677433 70.08939758983891  C 66.77061352794725 69.79980752010822  66.14496198549715 69.64559825451663  65.50891048877938 69.63917411755013  C 65.50891048877938 69.63917411755013  56.49370872932095 68.23151338773582  48.37887651380329 67.46499367858591  C 47.8035605112852 67.00622165935495  45.77557160240894 65.76953186838446  41.1270183020628 66.47906126458642  L 38.45179889035367 58.72267967237074  C 38.43018578532815 58.62879451935063  38.41481103866461 58.53360643792936  38.40577361015222 58.437728107631024  C 38.500700750567695 57.4517956936315  39.16519073347609 55.96719804133748  42.26326740703601 55.87316402497337  L 42.91049790986886 56.44306715445285  C 42.91049790986886 56.44306715445285  43.02556111037247 56.21795541830844  43.21829197121604 55.87316402497337  C 47.061402868036865 55.830421290262414  67.99715219967013 55.619557132355006  69.07586970439152 55.87316402497337  C 70.2638972495914 56.1581155897131  80.6713637351436 53.86140597791083  80.97052805645303 53.57645441317108  C 85.01499955415518 49.66976846058929  69.07586970439152 51.564696366108535  69.07586970439152 51.564696366108535  C 67.50813359752976 51.81830325872691  62.44247619535798 51.516254600102776  57.25312585264481 51.09737579993537  C 59.821911803888064 47.28187434807028  62.238239014464035 34.33082573064918  62.238239014464035 34.33082573064918  C 62.238239014464035 34.33082573064918  71.44329505475346 29.734556991397223  68.77958196309471 27.15004629920781  C 66.11586887143595 24.56553560701838  58.075827736245685 32.89466984436091  58.075827736245685 32.89466984436091  C 58.075827736245685 32.89466984436091  54.80515626193033 42.37500840325199  53.31796439542107 45.24732017582856  C 52.74264839290298 46.38712643478751  51.99761416964206 46.62078671787409  51.33312418673367 46.48970899809382  C 51.63516508805568 46.25034968371244  51.83077252891184 46.10787390134258  51.83077252891184 46.10787390134258  C 51.83077252891184 46.10787390134258  45.28942958028116 40.936003001316344  44.693977517674966 38.92709446990121  C 44.583083713263 38.59796317579837  44.436479694626684 38.28171730141484  44.25673735576119 37.983904790612655  C 43.94319013438885 36.16306429192574  43.393763351984056 34.370718949712774  42.0532770661169 33.17677189345328  C 41.828136112847105 32.937334022286215  41.57952827880116 32.72065565785152  41.311119422868565 32.52993184149408  C 40.94867034128219 32.27347543322832  40.53731939948174 32.05121321273133  40.19500637798349 31.771960679286373  C 40.38773723882706 30.89430985988798  40.61211047980909 29.982464852720838  40.84511346082892 29.099115002027634  C 45.70078052208159 28.529211872548164  49.47485349860026 24.539889966191826  49.47485349860026 19.695713365616285  C 49.474108066499554 18.965196868008864  49.38624287868367 18.237325403252083  49.213084717454514 17.527231957946874  C 50.68915892773321 17.62350062607103  52.108230959167145 16.946592061346234  52.95263873382209 15.743435162676127  C 53.93355251811545 14.295881213798264  53.901910137976955 12.324016385799277  53.07920825437608 10.796675998794276  C 52.739136002263855 10.17657030180479  52.293416666589174 9.61936091678162  51.76173460860968 9.149655954598611  C 50.91409344035182 8.303958236916959  49.88029441036568 7.664156745280749  48.74132559538969 7.280373689905921  C 47.75465865107116 6.941281327865625  46.664434826299384 6.738965716900428  45.88200506287481 6.075028571056829  C 45.53235059577006 5.622063691858263  45.21423241950515 5.146043820965508  44.929857078707364 4.65027074735814  C 44.60151499247286 4.163495508764209  44.21518968145856 3.7176610052229933  43.77922507367118 3.32239645567094  C 42.34093506737596 1.8548958972612963  40.3100695784871 0.9515994370363346  38.24180854943457 0.5526672464006829  C 35.72192445840534 0.06540007069574212  33.11861954701099 0.23922052518697384  30.555586755792902 0.4130409796782055  C 29.5976856116003 0.47857983956835193  28.47294282667742 0.6467012627647939  28.041455824788862 1.4730608005100458  C 27.716402283366133 2.094255211642674  27.929269204297835 2.8379787956133944  27.886120504108966 3.530411097930959  C 27.750921243517205 5.733086693369139  25.208024512387265 6.94982987480781  22.995934482705213 7.482689300871116  C 20.78384445302316 8.015548726934439  18.146020581477742 8.47717026181281  17.078809396806683 10.40914187074822  C 16.109401932563713 12.153045446955424  16.791151395547647 14.267386057324282  17.101822036907404 16.225003307086297  C 17.61925347108127 19.66228551911751  16.848767894265645 23.16830792132403  14.935757287426789 26.0814779314338  C 13.963473243171231 27.554677521138252  12.709284357681797 28.86545471894103  11.941237494320127 30.446935903246587  C 11.090368645909235 32.20993744691679  10.892815069458713 34.213288221484795  11.383180971877584 36.10607397897778  C 11.527009972507113 36.658880014572865  11.734123733413634 37.223084112757554  11.630566852960389 37.787288210942236  C 11.512853778232067 38.252526483674366  11.281726542393995 38.68205734794023  10.957447130014218 39.03822558014967  C 8.28335103738863 42.30920633788215  4.352566471095094 44.32634021318977  0.11274048254824322 44.60332963951676  C 0.2888699852916684 45.18183748660082  0.6330233123070331 45.69618361511434  1.1022840068793698 46.08222826051602  C 1.6984463573286113 46.66618936587727  2.3936676567844333 47.14170671231483  3.156162135868941 47.4870394746829  C 5.164923100148534 48.4849685714807  7.277230783564254 49.26365975989089  9.455872363441996 49.809394727311755  C 10.92292816986313 50.176982245826025  12.456145316573833 50.439137685386584  13.949090343108276 50.18838030841561  C 15.442035369642717 49.93762293144463  16.897584856013484 49.091316784167596  17.510296398695246 47.75204442989084  C 17.866992320256454 46.97697617379874  17.918770760483085 46.099325354400364  18.23519456186803 45.3100095200713  C 18.865165584625334 43.73137785141314  20.427148531461953 42.708401733997476  21.482853396082643 41.35488180148373  C 21.12735611709847 44.84277622902709  20.959318437570488 48.3469274201614  20.979451893879318 51.85249744649567  C 20.979451893879318 52.94956097074367  20.979451893879318 53.93834290039055  20.979451893879318 54.85588693885251  C 20.979451893879318 58.813864173087474  20.691793892620268 61.543700163294126  18.215058501779883 66.48760981152861  C 17.919889218598446 67.00730805956124  17.790518577394256 67.60337063970799  17.84397968015572 68.19731919996704  C 17.7344272686011 68.85014981754448  17.980407549780058 69.51183829713524  18.491210182988564 69.93837326052682  C 18.318586328730923 70.92448669621226  18.2348356136316 71.92385401152204  18.240947721893207 72.92466565899927  C 18.206428761742117 76.52645343730957  19.43472842711823 81.36208149094291  25.947305575623012 82.58737321932377  L 37.54279960637509 82.01747008984431  C 37.54279960637509 82.01747008984431  53.896156977951776 78.8573572368806  58.35485599746695 81.16261539562508  C 59.11310349222392 81.32237135040879  59.655934190252786 81.98473270302044  59.65794674317042 82.75264512687284  C 59.644149593091136 82.99222902710976  59.60657279241503 83.22988521621872  59.5457601226794 83.46217452307481  C 59.42154233990797 84.20871275255757  59.374315066856454 84.96583248411974  59.404807702062456 85.72184043146089  C 59.38467164197433 90.56601703203644  60.43749992658242 101.55944839969553  60.43749992658242 101.55944839969553  L 60.43749992658242 106.22125599883766  C 59.6953422833341 107.32686807002783  58.78058983933033 108.96249005163394  58.898529619846535 110.16783517048303  C 58.898529619846535 110.19348081130961  58.898529619846535 110.22197596778359  58.898529619846535 110.24762160861015  C 58.898529619846535 110.2732672494367  58.898529619846535 110.31885949979508  58.91578909992209 110.35305368756384  C 58.933048579997624 110.38724787533262  58.91578909992209 110.4157430318066  58.935925160010214 110.44708770392798  C 58.95606122009835 110.47843237604935  58.95318464008576 110.50692753252333  58.96181438012351 110.53827220464471  C 58.97044412016128 110.56961687676609  58.98482702022424 110.60666058018226  58.99920992028718 110.63800525230363  C 59.013592820350134 110.669349924425  59.01934598037531 110.68929653395676  59.03085230042568 110.71494217478332  C 59.042358620476044 110.7405878156099  59.06824784058935 110.78902958161565  59.088383900677485 110.82322376938443  L 59.12290286082857 110.88306359797978  C 59.15750014584551 110.93791265347089  59.195949435919076 110.99028301972959  59.23796606133218 111.03978695858662  C 60.72515792784145 112.74949634702506  68.15536410036258 116.05778401365345  70.53717235078746 115.92385677822574  C 73.06568618185447 115.78138099585587  81.53721431893331 116.20880834296548  81.8363786402427 112.4759428448749  Z " fill-rule="nonzero" fill="url(#LinearGradient19)" stroke="none" transform="matrix(1 0 0 1 939 5342 )" />
  </g>
</svg>