<?xml version="1.0" encoding="utf-8"?>
<svg version="1.1" xmlns:xlink="http://www.w3.org/1999/xlink" width="65px" height="93px" xmlns="http://www.w3.org/2000/svg">
  <defs>
    <linearGradient gradientUnits="userSpaceOnUse" x1="32.49351509384901" y1="92.91382436092847" x2="32.49351509384901" y2="0.1620900381438538" id="LinearGradient58">
      <stop id="Stop59" stop-color="#808080" stop-opacity="0.25098039215686274" offset="0" />
      <stop id="Stop60" stop-color="#808080" stop-opacity="0.12156862745098039" offset="0.54" />
      <stop id="Stop61" stop-color="#808080" stop-opacity="0.10196078431372549" offset="1" />
    </linearGradient>
  </defs>
  <g transform="matrix(1 0 0 1 -469 -4552 )">
    <path d="M 64.8703001416558 90.17467831528764  C 64.90036952763631 90.08541392999199  64.89464637870744 89.987936513242  64.85433863061037 89.90281978365186  C 64.67420157738292 89.49617424893623  63.73931307329102 88.70344390878829  59.23132631087717 88.53210449809349  C 56.14391403151028 88.41559369882103  55.09273451837282 86.7821579835306  54.807707535417975 85.18755920133101  C 55.82240359473722 85.05505672372702  56.61591871528352 84.87229468565258  56.87586332373834 84.61871235782426  C 56.87586332373834 84.61871235782426  56.86218202855651 84.54560754259448  56.83937986992011 84.41538959046643  L 56.87586332373836 84.38797528475527  C 56.678697281421314 83.23778378404153  56.57574445642964 82.07336417824273  56.56803418214711 80.90635845943694  C 56.562110541081516 79.90774115400849  56.66765619302406 78.9115913463891  56.882703971329256 77.93647534072707  C 57.00825012489858 77.29183684847297  57.061026846964225 76.63509576244691  57.04003886592031 75.97863700785452  C 57.065121240420346 72.0949436987724  55.70383236982801 65.2687815766916  55.70383236982801 65.2687815766916  L 55.516854669009625 59.59630481995577  C 55.47860690272711 58.15460680594874  54.657362334565974 56.84899752405183  53.37573197305282 56.192361860819126  C 52.92792535751916 55.96019051181089  52.43198206167457 55.83655722129351  51.927794899642194 55.83140683562209  C 51.927794899642194 55.83140683562209  44.78159838299832 54.70285125051233  38.34910943167334 54.08831389748698  C 37.89306625894559 53.720505295862154  36.28551407508025 52.72902123930823  32.600685239440025 53.29786808281497  L 30.480084486255958 47.07938973733171  C 30.46295214690646 47.00411974396214  30.450764847721945 46.927805161443366  30.44360103243773 46.850937189738666  C 30.518848155937807 46.06049137506663  31.045578020438363 44.87025360210678  33.50137050557733 44.79486426140107  L 34.01441907489605 45.2517693565872  C 34.01441907489605 45.2517693565872  34.10562770944159 45.07129184398867  34.258402172305395 44.79486426140107  C 37.304770566126784 44.76059637926211  53.90018162168973 44.591541494043234  54.75526257055426 44.79486426140107  C 55.69699172223708 45.023316808994124  63.94681271688212 43.181989275394024  64.18395516670057 42.95353672780095  C 67.38993867097666 39.82145230030003  54.75526257055426 41.340661741793916  54.75526257055426 41.340661741793916  C 53.51254492487115 41.54398450915174  49.497084789003274 41.30182480870309  45.38357537099893 40.96599956374129  C 47.419808137228344 37.90701995147014  49.33518946268491 27.523851663365292  49.33518946268491 27.523851663365292  C 49.33518946268491 27.523851663365292  56.63188022632896 23.838912070689155  54.52040033659947 21.766847464020053  C 52.40892044686996 19.69478285735094  46.03571710799962 26.37245082349625  46.03571710799962 26.37245082349625  C 46.03571710799962 26.37245082349625  43.44311167104233 33.97306708191754  42.26424006954109 36.27586876165566  C 41.808196896813335 37.18967895202792  41.2176209881309 37.37701004105423  40.690891123630344 37.271921869161424  C 40.93031378931243 37.08002172918325  41.085368468039874 36.965795455386726  41.085368468039874 36.965795455386726  C 41.085368468039874 36.965795455386726  35.90015759412531 32.819381716572586  35.428152910352104 31.208791256041486  C 35.3402492849036 30.94491875301076  35.22403878232603 30.69137680199638  35.08156009907899 30.452613323508423  C 34.83301656994238 28.992801544388744  34.397495339987366 27.555835020028347  33.334914747531684 26.598618845613405  C 33.156449357744656 26.40665572476395  32.95938217222044 26.23293944982924  32.74661905471289 26.080031562577155  C 32.45931185589442 25.874424269743397  32.13324098739406 25.696231282620804  31.861895299621057 25.47234778597959  C 32.014669762484864 24.76871393939295  32.19252659984867 24.037665787095154  32.377224084803416 23.329462889556638  C 36.22622846262565 22.87255779437051  39.21787167571972 19.674222128067584  39.21787167571972 15.79052881898547  C 39.21728078442038 15.204856109696763  39.14763155017608 14.62130398709003  39.01037203212858 14.052004931802236  C 40.1804308573495 14.129185846763843  41.3053050286081 13.586491911251724  41.97465265485897 12.621891983869654  C 42.752206264359806 11.461353042096885  42.72712388985978 9.880461412752869  42.074982152859086 8.655955757654032  C 41.805412684721354 8.158802052309014  41.45209857717434 7.71207383845423  41.03064328731255 7.335500032566127  C 40.35873260515693 6.657483758907562  39.53925776431426 6.144539459578532  38.63641663049182 5.836851320355609  C 37.854302589263725 5.564992788719855  36.99010077694464 5.4027914799287915  36.36988206203491 4.870497044036941  C 36.09271693567139 4.507344166748435  35.840550088632135 4.125707546118898  35.61513061117047 3.7282343060716117  C 35.35485944525288 3.337974847543719  35.04862596700983 2.9805385645322273  34.70304426571496 2.663645434287909  C 33.56293633389558 1.4871148141836255  31.953103934166602 0.7629202383136131  30.313628728210332 0.44308667168330607  C 28.316159631662767 0.05243281529917257  26.252564275069687 0.19178886933093595  24.220891940567544 0.3311449233626993  C 23.461580057975848 0.38368900930910976  22.57001565529308 0.5184760123890159  22.227983275747267 1.1809884004089162  C 21.970318883156082 1.6790149541617991  22.139054857065357 2.275276103379704  22.104851619110768 2.8304157940308547  C 21.997681473519737 4.596353986925258  19.981970650063076 5.571846365147641  18.228484650924862 5.999052629146671  C 16.474998651786652 6.4262588931457145  14.384040704829918 6.796352020246478  13.538080619419933 8.345260292927453  C 12.769647873373675 9.74338988419702  13.310059033056064 11.43850778733757  13.556322346329038 13.007976789301944  C 13.966481410003444 15.76372890756835  13.3557306478935 18.574591695544264  11.83931980100904 20.910150410546063  C 11.068606839099147 22.09125008160222  10.074432722552643 23.14213180053031  9.465615086961076 24.41004343967183  C 8.79114587785488 25.82348433244191  8.634548530668491 27.42961900515591  9.02325320941516 28.947111034870115  C 9.137264002597101 29.390308977200657  9.3014395447791 29.842645021434933  9.219351773688114 30.294981065669205  C 9.126042629086394 30.667973818807894  8.942832015312312 31.01233908067622  8.685781261596636 31.297887749602754  C 6.566070944271476 33.92031197778483  3.4502051295265987 35.537496895057316  0.08936745567848547 35.75956600409533  C 0.2289823054141274 36.22336970908514  0.501786771950697 36.63573341556581  0.8737617127702322 36.94523472610336  C 1.346329429589753 37.413410439884366  1.8974194840364411 37.79464417452827  2.5018358394083067 38.07150578573716  C 4.094146359873838 38.871569630583664  5.768536596727762 39.49586515232632  7.495508580777193 39.93339404862063  C 8.658418671232969 40.22809783501569  9.873773726552429 40.43827417880131  11.05720575978095 40.23723593691941  C 12.240637793009471 40.03619769503751  13.394427020010687 39.35769362868609  13.880112998965743 38.283966654998686  C 14.162859766056945 37.662575725545544  14.203903651602445 36.95894187895892  14.454727396602706 36.326128322126124  C 14.954094670739595 35.060501208460536  16.192251884695448 34.24035656260143  17.029091106650874 33.15520696153437  C 16.74729448306586 35.95153611465103  16.61409388344002 38.76089870754319  16.630053330514095 41.57139881486291  C 16.630053330514095 42.450941123096214  16.630053330514095 43.24367146324415  16.630053330514095 43.979288666493815  C 16.630053330514095 47.15249455256151  16.402031744150214 49.34106995850305  14.438765885557224 53.304721659242766  C 14.204790234254865 53.721376289130994  14.10224033573935 54.1992540473521  14.144618039147826 54.67543694480116  C 14.057777712915504 55.19882700889341  14.252762082142727 55.72931863477223  14.657666608466545 56.07128201059477  C 14.520830626433048 56.861872954721896  14.454442864464072 57.66308985406508  14.45928782832998 58.4654647093701  C 14.431925237966313 61.35310491094647  15.40557741174006 65.22994464360079  20.56798612701824 66.21229059825095  L 29.75953627334611 65.75538550306483  C 29.75953627334611 65.75538550306483  42.722563458132505 63.221846750257725  46.256898046772584 65.07002786028562  C 46.8579478901775 65.19810806541393  47.2882405166638 65.72913914983535  47.28983583300094 66.34479307585494  C 47.27889906769419 66.53687327173455  47.24911257935338 66.72740797507191  47.20090741431903 66.9136399193617  C 47.10244209870754 67.51215763782633  47.0650058456789 68.11915880192359  47.08917683700073 68.72526862177469  C 47.07321532595526 72.60896193085681  47.90777433204704 81.42266121699728  47.90777433204704 81.42266121699728  L 47.90777433204704 85.16014489561985  C 47.31947863922825 86.04654078028094  46.59436999459111 87.35785840346514  46.6878588450003 88.32421267978381  C 46.6878588450003 88.34477340906719  46.6878588450003 88.3676186638265  46.6878588450003 88.38817939310985  C 46.6878588450003 88.40874012239321  46.6878588450003 88.44529253000812  46.70154014018214 88.4727068357193  C 46.71522143536397 88.50012114143047  46.70154014018214 88.52296639618977  46.71750165122761 88.54809617642502  C 46.73346316227308 88.57322595666025  46.73118294640944 88.59607121141957  46.738023594000346 88.62120099165482  C 46.74486424159126 88.64633077189005  46.756265320909456 88.67602960307715  46.76766640022765 88.7011593833124  C 46.77906747954584 88.72628916354763  46.783627911273115 88.74228084187912  46.79274877472767 88.7628415711625  C 46.80186963818223 88.78340230044587  46.82239158095498 88.82223923353669  46.838353092000446 88.84965353924785  L 46.86571568236411 88.89762857424242  C 46.89314035951169 88.94160238597235  46.92361845530171 88.98358897271423  46.95692431690966 89.02327747541858  C 48.135795918410906 90.39399276097699  54.02559349418984 93.0463268385325  55.91361222928274 92.93895414116375  C 57.91792197342123 92.82472786736722  64.63315769183738 93.16740668875681  64.8703001416558 90.17467831528764  Z " fill-rule="nonzero" fill="url(#LinearGradient58)" stroke="none" transform="matrix(1 0 0 1 469 4552 )" />
  </g>
</svg>