<?xml version="1.0" encoding="utf-8"?>
<svg version="1.1" xmlns:xlink="http://www.w3.org/1999/xlink" width="41px" height="32px" xmlns="http://www.w3.org/2000/svg">
  <g transform="matrix(1 0 0 1 -484 -4606 )">
    <path d="M 15.159489673736038 0.2576081266040137  C 9.72418379359276 0.717941688892581  0.43660487089795447 1.4176487035711427  0.43660487089795447 1.4176487035711427  C 0.43660487089795447 1.4176487035711427  -2.2810480691736785 10.854486730486563  5.871910751041221 12.465654198496496  L 14.70428280627403 12.005320636207955  C 14.70428280627403 12.005320636207955  27.160192114935693 9.473486043620888  30.557258290025235 11.314820292775105  C 30.557258290025235 11.314820292775105  31.91608476006106 11.544987073919389  31.463142603382458 13.38632132307363  C 31.01020044670384 15.227655572227848  32.142555838400355 27.656661754018877  32.142555838400355 27.656661754018877  L 32.142555838400355 31.79966381461588  C 32.142555838400355 31.79966381461588  39.842572501936665 31.79966381461588  40.74845681529387 30.878996690038772  C 40.74845681529387 30.878996690038772  40.06904358027596 27.19632819173031  40.74845681529387 24.204160036854702  C 41.42787005031178 21.211991881979092  39.61610142359736 11.775153855063671  39.61610142359736 11.775153855063671  L 39.4371892717093 6.094637696422893  C 39.4101684024296 4.665455088215848  38.62544255064564 3.3626442163909003  37.3853613019552 2.688169335487584  C 36.956750707410514 2.457248111588381  36.479915119475464 2.3341206901966856  35.99482888095189 2.3291091569025144  C 35.99482888095189 2.3291091569025144  20.594795553879305 -0.2027254356845536  15.159489673736038 0.2576081266040137  Z " fill-rule="nonzero" fill="#000000" stroke="none" transform="matrix(1 0 0 1 484 4606 )" />
  </g>
</svg>