<?xml version="1.0" encoding="utf-8"?>
<svg version="1.1" xmlns:xlink="http://www.w3.org/1999/xlink" width="51px" height="40px" xmlns="http://www.w3.org/2000/svg">
  <g transform="matrix(1 0 0 1 -959 -5409 )">
    <path d="M 18.856926179525317 0.32201015825501716  C 12.09593593837148 0.8974271111157263  0.5430938637998945 1.7720608794639283  0.5430938637998945 1.7720608794639283  C 0.5430938637998945 1.7720608794639283  -2.8374012567770146 13.568108413108204  7.304084104953714 15.58206774812062  L 18.29069324682867 15.006650795259944  C 18.29069324682867 15.006650795259944  33.78462921613952 11.84185755452611  38.01024811686066 14.14352536596888  C 38.01024811686066 14.14352536596888  39.70049567714913 14.431233842399235  39.137079823719645 16.73290165384204  C 38.57366397029014 19.03456946528481  39.98220360386386 34.570827192523595  39.98220360386386 34.570827192523595  L 39.98220360386386 39.74957976826985  C 39.98220360386386 39.74957976826985  49.56027311216512 39.74957976826985  50.687104819024086 38.59874586254846  C 50.687104819024086 38.59874586254846  49.84198103887986 33.99541023966289  50.687104819024086 30.255200046068378  C 51.532228599168306 26.514989852473864  49.27856518545037 14.718942318829589  49.27856518545037 14.718942318829589  L 49.05601592334571 7.6182971205286165  C 49.022404598144135 5.831818860269809  48.04628219714458 4.203305270488626  46.50374210731013 3.3602116693594803  C 45.9705923433643 3.0715601394854763  45.377455392518264 2.917650862745857  44.774055437281625 2.911386446128143  C 44.774055437281625 2.911386446128143  25.617916420679137 -0.253406794605692  18.856926179525317 0.32201015825501716  Z " fill-rule="nonzero" fill="#000000" stroke="none" transform="matrix(1 0 0 1 959 5409 )" />
  </g>
</svg>