<?xml version="1.0" encoding="utf-8"?>
<svg version="1.1" xmlns:xlink="http://www.w3.org/1999/xlink" width="41px" height="32px" xmlns="http://www.w3.org/2000/svg">
  <g transform="matrix(1 0 0 1 -484 -4606 )">
    <path d="M 15.159489673736038 0.2576571727978596  C 9.72418379359276 0.7179907350864269  0.43660487089795447 1.4176977497649885  0.43660487089795447 1.4176977497649885  C 0.43660487089795447 1.4176977497649885  -2.2810480691736785 10.85453577668041  5.871910751041221 12.465703244690369  L 14.70428280627403 12.0053696824018  C 14.70428280627403 12.0053696824018  27.160192114935693 9.473535089814733  30.557258290025235 11.314869338968977  C 30.557258290025235 11.314869338968977  31.91608476006106 11.545036120113235  31.463142603382458 13.386370369267476  C 31.01020044670384 15.227704618421694  32.142555838400355 27.656710800212725  32.142555838400355 27.656710800212725  L 32.142555838400355 31.799712860809752  C 32.142555838400355 31.799712860809752  39.842572501936665 31.799712860809752  40.74845681529387 30.879045736232616  C 40.74845681529387 30.879045736232616  40.06904358027596 27.19637723792418  40.74845681529387 24.204209083048546  C 41.42787005031178 21.21204092817294  39.61610142359736 11.775202901257517  39.61610142359736 11.775202901257517  L 39.4371892717093 6.094686742616739  C 39.4101684024296 4.6655041344096935  38.62544255064564 3.3626932625847985  37.3853613019552 2.688218381681404  C 36.956750707410514 2.4572971577822007  36.479915119475464 2.3341697363905314  35.99482888095189 2.3291582030963602  C 35.99482888095189 2.3291582030963602  20.594795553879305 -0.20267638949068156  15.159489673736038 0.2576571727978596  Z " fill-rule="nonzero" fill="#8b9cd1" stroke="none" transform="matrix(1 0 0 1 484 4606 )" />
  </g>
</svg>