<?xml version="1.0" encoding="utf-8"?>
<svg version="1.1" xmlns:xlink="http://www.w3.org/1999/xlink" width="51px" height="40px" xmlns="http://www.w3.org/2000/svg">
  <g transform="matrix(1 0 0 1 -959 -5409 )">
    <path d="M 18.856926179525317 0.3220714659973245  C 12.09593593837148 0.8974884188580335  0.5430938637998945 1.7721221872062356  0.5430938637998945 1.7721221872062356  C 0.5430938637998945 1.7721221872062356  -2.8374012567770146 13.568169720850511  7.304084104953714 15.58212905586296  L 18.29069324682867 15.00671210300225  C 18.29069324682867 15.00671210300225  33.78462921613952 11.841918862268416  38.01024811686066 14.143586673711221  C 38.01024811686066 14.143586673711221  39.70049567714913 14.431295150141544  39.137079823719645 16.732962961584345  C 38.57366397029014 19.034630773027118  39.98220360386386 34.57088850026591  39.98220360386386 34.57088850026591  L 39.98220360386386 39.74964107601219  C 39.98220360386386 39.74964107601219  49.56027311216512 39.74964107601219  50.687104819024086 38.59880717029077  C 50.687104819024086 38.59880717029077  49.84198103887986 33.99547154740523  50.687104819024086 30.25526135381068  C 51.532228599168306 26.515051160216174  49.27856518545037 14.719003626571896  49.27856518545037 14.719003626571896  L 49.05601592334571 7.618358428270923  C 49.022404598144135 5.831880168012117  48.04628219714458 4.203366578230998  46.50374210731013 3.3602729771017548  C 45.9705923433643 3.0716214472277508  45.377455392518264 2.9177121704881643  44.774055437281625 2.9114477538704504  C 44.774055437281625 2.9114477538704504  25.617916420679137 -0.25334548686335195  18.856926179525317 0.3220714659973245  Z " fill-rule="nonzero" fill="#8b9cd1" stroke="none" transform="matrix(1 0 0 1 959 5409 )" />
  </g>
</svg>