<?xml version="1.0" encoding="utf-8"?>
<svg version="1.1" xmlns:xlink="http://www.w3.org/1999/xlink" width="24px" height="34px" xmlns="http://www.w3.org/2000/svg">
  <g transform="matrix(1 0 0 1 -484 -4576 )">
    <path d="M 18.210339794119516 5.593112309598051  C 17.05673946074014 4.899382585307322  14.980258860657255 0.7370042395629443  12.211618060546755 0.27451775670246215  C 12.211618060546755 0.27451775670246215  4.136415726891121 -1.8066714161697133  2.982815393511745 9.986733896772636  C 1.8292150601323685 21.780139209715  3.9056956602152537 23.167598658296473  0.4448946600771251 30.33613914263396  C -3.0159063400610036 37.50467962697148  23.9783414610164 31.26111210835493  23.9783414610164 31.26111210835493  C 23.9783414610164 31.26111210835493  22.59402106096114 29.64240941834325  18.210339794119516 30.33613914263396  L 16.13385919403663 24.092571624017435  C 16.13385919403663 24.092571624017435  15.441698994009002 21.31765272685452  19.363940127498893 21.31765272685452  C 23.28618126098877 21.31765272685452  21.440420727581767 13.224139276796036  21.440420727581767 13.224139276796036  C 21.440420727581767 13.224139276796036  19.363940127498893 6.286842033888781  18.210339794119516 5.593112309598051  Z " fill-rule="nonzero" fill="#000000" stroke="none" transform="matrix(1 0 0 1 484 4576 )" />
  </g>
</svg>