<?xml version="1.0" encoding="utf-8"?>
<svg version="1.1" xmlns:xlink="http://www.w3.org/1999/xlink" width="30px" height="42px" xmlns="http://www.w3.org/2000/svg">
  <g transform="matrix(1 0 0 1 -958 -5372 )">
    <path d="M 22.762924742649396 6.909138735385828  C 21.320924325925176 6.052178487732574  18.72532357582157 0.9104170018130487  15.264522575683444 0.33911017004421795  C 15.264522575683444 0.33911017004421795  5.170519658613902 -2.2317705729155284  3.728519241889681 12.336553637189727  C 2.286518825165461 26.904877847295  4.882119575269067 28.618798342601526  0.5561183250964064 37.47405423501842  C -3.7698829250762547 46.329310127435356  29.9729268262705 38.61666789855609  29.9729268262705 38.61666789855609  C 29.9729268262705 38.61666789855609  28.242526326201425 36.61709398736519  22.762924742649396 37.47405423501842  L 20.16732399254579 29.761412006139185  C 20.16732399254579 29.761412006139185  19.302123742511252 26.333571015526168  24.204925159373616 26.333571015526168  C 29.10772657623596 26.333571015526168  26.800525909477205 16.335701459571574  26.800525909477205 16.335701459571574  C 26.800525909477205 16.335701459571574  24.204925159373616 7.7660989830390825  22.762924742649396 6.909138735385828  Z " fill-rule="nonzero" fill="#000000" stroke="none" transform="matrix(1 0 0 1 958 5372 )" />
  </g>
</svg>