<?xml version="1.0" encoding="utf-8"?>
<svg version="1.1" xmlns:xlink="http://www.w3.org/1999/xlink" width="30px" height="42px" xmlns="http://www.w3.org/2000/svg">
  <g transform="matrix(1 0 0 1 -958 -5372 )">
    <path d="M 22.762924742649396 6.909260475045569  C 21.320924325925176 6.0523002273923145  18.72532357582157 0.9105387414727895  15.264522575683444 0.3392319097039587  C 15.264522575683444 0.3392319097039587  5.170519658613902 -2.231648833255788  3.728519241889681 12.336675376849469  C 2.286518825165461 26.904999586954727  4.882119575269067 28.618920082261248  0.5561183250964064 37.47417597467818  C -3.7698829250762547 46.329431867095074  29.9729268262705 38.61678963821584  29.9729268262705 38.61678963821584  C 29.9729268262705 38.61678963821584  28.242526326201425 36.617215727024906  22.762924742649396 37.47417597467818  L 20.16732399254579 29.76153374579891  C 20.16732399254579 29.76153374579891  19.302123742511252 26.333692755185908  24.204925159373616 26.333692755185908  C 29.10772657623596 26.333692755185908  26.800525909477205 16.335823199231317  26.800525909477205 16.335823199231317  C 26.800525909477205 16.335823199231317  24.204925159373616 7.766220722698807  22.762924742649396 6.909260475045569  Z " fill-rule="nonzero" fill="#eb6475" stroke="none" transform="matrix(1 0 0 1 958 5372 )" />
  </g>
</svg>