<?xml version="1.0" encoding="utf-8"?>
<svg version="1.1" xmlns:xlink="http://www.w3.org/1999/xlink" width="24px" height="34px" xmlns="http://www.w3.org/2000/svg">
  <g transform="matrix(1 0 0 1 -484 -4576 )">
    <path d="M 18.210339794119516 5.593210860751174  C 17.05673946074014 4.899481136460445  14.980258860657255 0.7371027907160677  12.211618060546755 0.2746163078555856  C 12.211618060546755 0.2746163078555856  4.136415726891121 -1.80657286501659  2.982815393511745 9.98683244792576  C 1.8292150601323685 21.78023776086811  3.9056956602152537 23.16769720944958  0.4448946600771251 30.336237693787098  C -3.0159063400610036 37.50477817812459  23.9783414610164 31.261210659508063  23.9783414610164 31.261210659508063  C 23.9783414610164 31.261210659508063  22.59402106096114 29.642507969496354  18.210339794119516 30.336237693787098  L 16.13385919403663 24.092670175170547  C 16.13385919403663 24.092670175170547  15.441698994009002 21.31775127800764  19.363940127498893 21.31775127800764  C 23.28618126098877 21.31775127800764  21.440420727581767 13.22423782794916  21.440420727581767 13.22423782794916  C 21.440420727581767 13.22423782794916  19.363940127498893 6.286940585041891  18.210339794119516 5.593210860751174  Z " fill-rule="nonzero" fill="#eb6475" stroke="none" transform="matrix(1 0 0 1 484 4576 )" />
  </g>
</svg>