<?xml version="1.0" encoding="utf-8"?>
<svg version="1.1" xmlns:xlink="http://www.w3.org/1999/xlink" width="51px" height="50px" xmlns="http://www.w3.org/2000/svg">
  <g transform="matrix(1 0 0 1 -941 -5343 )">
    <path d="M 42.128539453794744 15.57962858209329  C 43.11999485142688 14.884374434811388  44.64400343407289 16.562177831557786  45.56180785930953 16.927042611329696  C 47.14813649552101 17.561964787153244  49.091389074880034 16.80063276636935  50.0261898783618 15.355538402390845  C 50.96099068184354 13.910444038412342  50.932663384768325 11.942472588461523  50.14516452607765 10.408316742806411  C 49.35766566738698 8.874160897151299  47.90164259772144 7.759455900682806  46.29548485355735 7.17911979427394  C 45.3210258341703 6.828619769611165  44.23609035618997 6.62751319808334  43.48824971340456 5.903529540583186  C 43.01518385224864 5.446730328112859  42.7347436112041 4.829045858420255  42.38065239776403 4.271693360185992  C 41.057767624351975 2.18018501629665  38.69810377798744 0.9448160769114571  36.29878171571759 0.45928735422286354  C 33.89945965344775 -0.02624136846574645  31.417988429659815 0.14613569284382597  28.976175421777185 0.3185127541533821  C 28.064036455955577 0.38459062765538754  26.99326462651284 0.5512217869212966  26.579686089214867 1.3786316812071953  C 26.270918551095132 1.9991891019216235  26.472042360329084 2.743283416574559  26.432384144423807 3.4356646128346395  C 26.304911307585385 5.639218046575213  23.882927407655387 6.860222230851272  21.766878316137607 7.38884521886725  C 19.650829224619827 7.917468206883228  17.197685297907086 8.41448873365915  16.16657168436965 10.35660362441354  C 15.243101799717973 12.10048489466193  15.903127821570237 14.214976846725893  16.189233522029806 16.174329443611256  C 16.678489311035936 19.596839974073905  15.947210540458451 23.084077831114687  14.127006294954915 26.008440791321785  C 13.200703680595725 27.482264665518542  12.0081244737296 28.792330331471206  11.274447479481806 30.37532634449735  C 10.462855275804753 32.14430877765807  10.274853147424196 34.142302999474474  10.741894294467963 36.03503985749463  C 10.880698050136456 36.589519404707055  11.076156399955371 37.15261780498494  10.97984358989968 37.71571620526287  C 10.868826668672696 38.17851647611853  10.649195831248983 38.60725965172442  10.339646676000042 38.965449899757196  C 7.8290605389603725 42.22342997110463  4.075406528418306 44.25060284777302  0.008681432672901697 44.54472078414335  C 0.3316126193302305 45.777216772506726  1.507195447951229 46.55578649942157  2.6261236824218037 47.130376703786766  C 4.535433603097792 48.12634781355729  6.547597710898738 48.90487160322414  8.625845202950165 49.45172112942221  C 10.022380948757759 49.819458860215924  11.484069477838311 50.08089740320211  12.906099791013599 49.83095066430324  C 14.328130104188883 49.58100392540438  15.71333493116639 48.733483373965704  16.30537544003816 47.394688197794764  C 16.6453030049406 46.61899142190174  16.696292139675972 45.74274136024479  16.996561488673148 44.94980687822081  C 17.673583888770537 43.171450195710506  19.47803271246107 42.09696651354756  20.446826272433082 40.462257382128556  C 21.37312888679226 38.89937202625519  21.732885559647375 38.715503160858326  21.968002125371576 36.91128991915158  C 22.203118691095757 35.107076677444816  22.721508227572027 33.15921588464678  24.183196756652567 32.09909695759296  C 25.712870798713617 30.987264912146294  27.865745376429178 31.199863287761424  29.56538320094146 32.05312974124374  C 31.265021025453738 32.906396194726064  32.31596374694384 32.57313387619426  33.7351613304116 33.825740521710415  C 36.224800963068354 36.01920864260899  39.01119079994719 37.83996998715881  42.00956480607888 39.232634344786995  C 41.72629183532682 36.727421053754696  41.270222352416035 33.93203970951798  39.26464971949155 32.44097812919027  C 38.698103777987455 32.012908426938175  37.981423161984786 31.68539201045002  37.68115381298761 31.030359177473677  C 37.20242249241666 29.987477956550823  38.02108137789007 28.714760653881893  37.649993786204874 27.625912216609827  C 37.278906194519706 26.537063779337743  35.868206800174505 26.134850636282113  35.24217353481249 25.146555484773952  C 34.70962034979863 24.307653786400746  34.85408956488218 23.167092230735825  35.352649993405784 22.305206924188013  C 35.85121042192938 21.443321617640198  36.638709280620084 20.805526490794815  37.423375409603246 20.20220677621136  C 38.12022691765329 19.667837886151716  38.826520858061734 19.145918450519993  39.54225723082857 18.63644846931617  C 40.189018225731374 18.220203808083504  40.769732720140226 17.70680123449287  41.26455689300099 17.11378442774837  C 41.54782986375305 16.72019013775821  41.73479002444939 15.858304831210395  42.128539453794744 15.57962858209329  Z " fill-rule="nonzero" fill="#000000" stroke="none" transform="matrix(1 0 0 1 941 5343 )" />
  </g>
</svg>