<?xml version="1.0" encoding="utf-8"?>
<svg version="1.1" xmlns:xlink="http://www.w3.org/1999/xlink" width="41px" height="40px" xmlns="http://www.w3.org/2000/svg">
  <g transform="matrix(1 0 0 1 -470 -4553 )">
    <path d="M 33.86804152167812 12.463702865674634  C 34.66509390016671 11.90749954784911  35.89027727052919 13.24974226524623  36.62812004375865 13.541634089063756  C 37.90340384934042 14.049571829722593  39.465626511178066 13.44050621309548  40.21713303946733 12.284430721912676  C 40.968639567756576 11.128355230729873  40.94586664265689 9.553978070769219  40.31277932488595 8.32665339424513  C 39.67969200711502 7.099328717721038  38.50916365699175 6.2075647205462445  37.21793880384022 5.743295835419152  C 36.434550180411414 5.462895815688932  35.5623471490939 5.302010558466672  34.96114192646249 4.7228236324665485  C 34.58083407729792 4.357384262490288  34.35538211881114 3.863236686736204  34.0707205550652 3.4173546881487935  C 33.00722495291041 1.74414801303732  31.110240292107548 0.7558528615291658  29.18137353616512 0.3674298833782908  C 27.252506780222703 -0.020993094772597157  25.257598541491227 0.11690855427506078  23.294572397899305 0.25481020332270565  C 22.561284209689777 0.30767250212431  21.70046764092209 0.4409774295370373  21.367982934466852 1.1029053449657562  C 21.119758050880403 1.5993512815372988  21.281445819088088 2.194626733259647  21.249563723948548 2.7485316902677113  C 21.147085561000015 4.51137443726017  19.20000046497786 5.488177784681017  17.49886296003219 5.9110761750938  C 15.797725455086526 6.333974565506582  13.825590141454716 6.731590986927319  12.99665566782658 8.28528289953083  C 12.254258309577194 9.680387915729543  12.784867464399602 11.371981477380714  13.014874007906315 12.939463554889006  C 13.408197289264182 15.677471979259126  12.820306512917577 18.46726226489175  11.35700506065003 20.806752633057428  C 10.61233040989068 21.98581173241483  9.653590263194385 23.033864265176966  9.063771503112823 24.30026107559788  C 8.411315025646958 25.71544702212645  8.260176059693961 27.313842399579578  8.63564051123895 28.828031885995706  C 8.747227844227346 29.271615523765643  8.904361027415103 29.722094243987954  8.826933082076213 30.172572964210296  C 8.737684184619226 30.542813180894825  8.561118217278594 30.885807721379535  8.312264974823563 31.172359919805757  C 6.2939506293603 33.7787439768837  3.2763072091205983 35.40048227821841  0.006979190972332737 35.635776627314684  C 0.2665905371086167 36.621773418005375  1.2116669287451056 37.24462919953726  2.1111974701822347 37.70430136302941  C 3.646132896608029 38.50107825084583  5.263755022487221 39.12389728257931  6.934503006293269 39.56137690353777  C 8.057208213707217 39.85556708817274  9.232291148850408 40.064717922561684  10.375491988854069 39.86476053144259  C 11.51869282885773 39.66480314032351  12.632288866231804 38.98678669917256  13.108243000814989 37.915750558235814  C 13.381518102011071 37.295193137521395  13.422509367190486 36.59419308819584  13.66390237324704 35.95984550257665  C 14.208175283129256 34.537160156568405  15.658810611978508 33.67757321083805  16.43764465038738 32.36980590570285  C 17.182319301146716 31.119497621004154  17.471535449912597 30.97240252868666  17.660550728239894 29.529031935321264  C 17.849566006567176 28.085661341955852  18.266310535891236 26.52737270771742  19.441393471034417 25.67927756607437  C 20.671131426416828 24.789811929717036  22.401873733992083 24.95989063020914  23.768249239972548 25.642503792994987  C 25.134624745953005 26.32511695578085  25.979500267150925 26.05850710095541  27.12042381464462 27.06059241736833  C 29.121898813447107 28.815366914087193  31.361937701918325 30.27197598972705  33.77239523625949 31.386107475829593  C 33.54466598526274 29.381936843003757  33.17802189115799 27.145631767614383  31.56569879410105 25.952782503352214  C 31.110240292107562 25.61032674155054  30.534085287085805 25.348313608360016  30.292692281029254 24.82428734197894  C 29.907829846844763 23.989982365240657  30.56596738222535 22.971808523105516  30.267642063419608 22.10072977328786  C 29.96931674461388 21.229651023470197  28.835225074650094 20.90788050902569  28.331943429947295 20.117244387819163  C 27.90381243807341 19.446123029120596  28.01995435608175 18.53367378458866  28.420757837836025 17.84416553935041  C 28.821561319590284 17.15465729411216  29.45464863736124 16.644421192635853  30.08545866262222 16.161765420969086  C 30.645672620074215 15.734270308921374  31.213477552559432 15.316734760415995  31.788873460077866 14.909158775452937  C 32.30881857362718 14.576163046466803  32.77566748089704 14.165440987594293  33.17346730613805 13.691027542198697  C 33.4011965571348 13.376152110206567  33.55149786279265 12.686643864968318  33.86804152167812 12.463702865674634  Z " fill-rule="nonzero" fill="#000000" stroke="none" transform="matrix(1 0 0 1 470 4553 )" />
  </g>
</svg>