<?xml version="1.0" encoding="utf-8"?>
<svg version="1.1" xmlns:xlink="http://www.w3.org/1999/xlink" width="41px" height="40px" xmlns="http://www.w3.org/2000/svg">
  <g transform="matrix(1 0 0 1 -470 -4553 )">
    <path d="M 33.86809004845915 12.463751841399809  C 34.66514242694775 11.907548523574285  35.89032579731023 13.24979124097142  36.62816857053968 13.541683064788934  C 37.90345237612145 14.049620805447772  39.465675037959095 13.440555188820655  40.21718156624836 12.284479697637853  C 40.96868809453762 11.128404206455052  40.94591516943793 9.554027046494395  40.31282785166699 8.326702369970306  C 39.67974053389605 7.099377693446215  38.50921218377278 6.207613696271421  37.21798733062125 5.743344811144341  C 36.43459870719246 5.462944791414108  35.56239567587493 5.302059534191862  34.96119045324352 4.722872608191738  C 34.58088260407895 4.357433238215464  34.35543064559217 3.8632856624613803  34.070769081846244 3.4174036638739835  C 33.00727347969145 1.7441969887625095  31.110288818888577 0.7559018372543552  29.18142206294616 0.3674788591034673  C 27.252555307003732 -0.02094411904740757  25.257647068272266 0.11695753000025037  23.294620924680334 0.2548591790478822  C 22.561332736470806 0.30772147784948656  21.70051616770313 0.4410264052622138  21.36803146124788 1.1029543206909327  C 21.119806577661443 1.5994002572624753  21.28149434586913 2.194675708984824  21.249612250729587 2.7485806659928884  C 21.14713408778106 4.511423412985346  19.20004899175889 5.488226760406194  17.49891148681322 5.911125150818977  C 15.797773981867556 6.3340235412317725  13.825638668235758 6.731639962652496  12.99670419460761 8.285331875256007  C 12.254306836358236 9.680436891454733  12.784915991180645 11.372030453105904  13.014922534687344 12.939512530614184  C 13.408245816045211 15.677520954984317  12.820355039698619 18.46731124061694  11.357053587431059 20.806801608782607  C 10.612378936671721 21.985860708140006  9.653638789975414 23.03391324090214  9.063820029893852 24.30031005132306  C 8.411363552427987 25.71549599785163  8.260224586475003 27.31389137530474  8.63568903801998 28.828080861720878  C 8.747276371008388 29.27166449949082  8.904409554196144 29.722143219713146  8.826981608857256 30.17262193993549  C 8.737732711400243 30.54286215662  8.56116674405961 30.88585669710472  8.312313501604606 31.172408895530936  C 6.293999156141329 33.77879295260889  3.2763557359016273 35.4005312539436  0.007027717753368279 35.63582560303986  C 0.26663906388965225 36.621822393730554  1.2117154555261347 37.244678175262436  2.1112459969632766 37.70435033875461  C 3.646181423389071 38.50112722657102  5.26380354926825 39.1239462583045  6.934551533074298 39.56142587926295  C 8.057256740488246 39.85561606389793  9.232339675631437 40.06476689828687  10.375540515635098 39.86480950716778  C 11.51874135563876 39.664852116048685  12.632337393012833 38.98683567489774  13.108291527596018 37.91579953396099  C 13.381566628792115 37.29524211324657  13.422557893971529 36.594242063921016  13.66395090002807 35.95989447830184  C 14.208223809910285 34.53720913229358  15.658859138759547 33.677622186563234  16.43769317716841 32.369854881428026  C 17.182367827927756 31.11954659672933  17.471583976693626 30.97245150441184  17.660599255020923 29.529080911046435  C 17.84961453334822 28.085710317681027  18.266359062672265 26.527421683442597  19.441441997815456 25.679326541799558  C 20.67117995319787 24.78986090544221  22.401922260773127 24.959939605934316  23.768297766753577 25.64255276872018  C 25.134673272734048 26.325165931506042  25.979548793931954 26.058556076680585  27.12047234142565 27.060641393093494  C 29.12194734022816 28.815415889812396  31.36198622869934 30.272024965452214  33.77244376304052 31.386156451554786  C 33.54471451204378 29.381985818728932  33.17807041793902 27.145680743339557  31.56574732088208 25.952831479077393  C 31.11028881888859 25.61037571727573  30.534133813866834 25.348362584085194  30.292740807810297 24.82433631770412  C 29.907878373625792 23.99003134096585  30.566015909006378 22.971857498830687  30.267690590200647 22.10077874901304  C 29.96936527139491 21.229699999195386  28.835273601431123 20.90792948475087  28.331991956728324 20.11729336354434  C 27.90386096485445 19.446172004845785  28.02000288286279 18.533722760313836  28.420806364617054 17.84421451507559  C 28.821609846371313 17.154706269837348  29.45469716414227 16.64447016836104  30.08550718940325 16.161814396694265  C 30.64572114685523 15.734319284646553  31.213526079340447 15.316783736141186  31.788921986858906 14.909207751178142  C 32.30886710040822 14.576212022191994  32.7757160076781 14.165489963319494  33.17351583291908 13.691076517923886  C 33.40124508391583 13.376201085931745  33.55154638957369 12.686692840693507  33.86809004845915 12.463751841399809  Z " fill-rule="nonzero" fill="#916168" stroke="none" transform="matrix(1 0 0 1 470 4553 )" />
  </g>
</svg>