<?xml version="1.0" encoding="utf-8"?>
<svg version="1.1" xmlns:xlink="http://www.w3.org/1999/xlink" width="51px" height="50px" xmlns="http://www.w3.org/2000/svg">
  <g transform="matrix(1 0 0 1 -941 -5343 )">
    <path d="M 42.128599816376024 15.57968980174976  C 43.120055214008175 14.884435654467856  44.644063796654194 16.562239051214274  45.56186822189081 16.92710383098617  C 47.14819685810229 17.562026006809713  49.091449437461314 16.80069398602582  50.02625024094308 15.355599622047317  C 50.96105104442484 13.910505258068815  50.93272374734963 11.942533808117995  50.14522488865894 10.408377962462882  C 49.35772602996826 8.874222116807768  47.90170296030272 7.759517120339277  46.29554521613863 7.179181013930426  C 45.321086196751594 6.828680989267635  44.23615071877125 6.627574417739828  43.48831007598584 5.903590760239672  C 43.01524421482992 5.44679154776933  42.73480397378538 4.829107078076725  42.38071276034533 4.271754579842479  C 41.05782798693327 2.180246235953137  38.69816414056872 0.9448772965679441  36.29884207829888 0.45934857387933414  C 33.89952001602903 -0.026180148809259465  31.418048792241112 0.14619691250031297  28.976235784358465 0.3185739738098527  C 28.064096818536857 0.3846518473118582  26.993324989094138 0.5512830065777673  26.579746451796147 1.378692900863666  C 26.27097891367643 1.999250321578094  26.472102722910382 2.74334463623103  26.432444507005098 3.435725832491111  C 26.30497167016668 5.639279266231683  23.882987770236667 6.860283450507742  21.766938678718887 7.388906438523721  C 19.650889587201107 7.917529426539716  17.19774566048838 8.41454995331562  16.16663204695093 10.35666484407001  C 15.24316216229927 12.100546114318417  15.903188184151533 14.21503806638238  16.189293884611086 16.17439066326773  C 16.678549673617216 19.596901193730396  15.947270903039746 23.084139050771174  14.127066657536195 26.00850201097826  C 13.200764043177017 27.48232588517501  12.00818483631088 28.79239155112768  11.274507842063086 30.375387564153822  C 10.462915638386033 32.144369997314534  10.274913510005492 34.14236421913092  10.741954657049243 36.0351010771511  C 10.880758412717752 36.58958062436353  11.076216762536669 37.15267902464143  10.979903952480978 37.71577742491936  C 10.86888703125396 38.178577695775004  10.649256193830245 38.6073208713809  10.33970703858134 38.96551111941367  C 7.8291209015416525 42.223491190761116  4.075466890999586 44.250664067429504  0.00874179525418981 44.544782003799824  C 0.3316729819115186 45.77727799216319  1.5072558105325091 46.555847719078045  2.6261840450031 47.13043792344326  C 4.535493965679088 48.126409033213776  6.547658073480018 48.904932822880625  8.625905565531445 49.451782349078684  C 10.022441311339039 49.81952007987241  11.484129840419591 50.08095862285858  12.906160153594879 49.831011883959725  C 14.328190466770163 49.581065145060855  15.71339529374767 48.73354459362218  16.30543580261944 47.39474941745124  C 16.6453633675219 46.61905264155821  16.69635250225727 45.742802579901266  16.996621851254428 44.9498680978773  C 17.673644251351817 43.17151141536698  19.478093075042363 42.097027733204044  20.446886635014362 40.46231860178503  C 21.373189249373553 38.899433245911666  21.732945922228655 38.7155643805148  21.968062487952857 36.911351138808044  C 22.203179053677054 35.10713789710128  22.721568590153307 33.15927710430325  24.18325711923386 32.09915817724945  C 25.71293116129491 30.98732613180276  27.865805739010476 31.199924507417897  29.56544356352274 32.053190960900224  C 31.265081388035036 32.90645741438255  32.31602410952512 32.573195095850735  33.73522169299288 33.82580174136687  C 36.22486132564966 36.019269862265496  39.011251162528445 37.84003120681527  42.00962516866016 39.23269556444348  C 41.72635219790812 36.72748227341117  41.270282714997315 33.932100929174446  39.26471008207283 32.441039348846736  C 38.698164140568736 32.01296964659466  37.981483524566066 31.685453230106493  37.681214175568904 31.030420397130147  C 37.20248285499794 29.987539176207314  38.02114174047135 28.71482187353836  37.650054148786175 27.6259734362663  C 37.278966557100986 26.537124998994233  35.868267162755785 26.134911855938586  35.24223389739377 25.146616704430425  C 34.70968071237993 24.307715006057233  34.85414992746347 23.1671534503923  35.352710355987064 22.305268143844483  C 35.85127078451066 21.44338283729669  36.638769643201364 20.805587710451302  37.423435772184526 20.20226799586783  C 38.12028728023456 19.66789910580819  38.82658122064299 19.145979670176484  39.542317593409855 18.636509688972676  C 40.18907858831267 18.220265027739995  40.769793082721534 17.70686245414937  41.26461725558227 17.113845647404858  C 41.54789022633433 16.720251357414682  41.73485038703069 15.858366050866884  42.128599816376024 15.57968980174976  Z " fill-rule="nonzero" fill="#916168" stroke="none" transform="matrix(1 0 0 1 941 5343 )" />
  </g>
</svg>