<?xml version="1.0" encoding="utf-8"?>
<svg version="1.1" xmlns:xlink="http://www.w3.org/1999/xlink" width="200px" height="126px" xmlns="http://www.w3.org/2000/svg">
  <g transform="matrix(1 0 0 1 -125 -4936 )">
    <path d="M 195.401565497808 61.94321141305201  C 198.27067069907415 67.48708834948543  199.91985476508876 74.00878568542139  199.91985476508876 80.98899915895711  C 199.9232965238454 84.39810051357878  199.52046780922942 87.79490230920284  198.7202939269485 91.10414304297602  C 198.45108555403255 92.21917092304815  198.13832876785074 93.31104142243342  197.7820235684032 94.37975454113185  C 197.3460751765513 95.69888068287408  196.84085671283916 96.9929465527234  196.2685748164638 98.25630006811163  C 195.98013727405385 98.89544377506888  195.67529838119313 99.52185092264835  195.35405813788165 100.13552151085005  C 195.35932558746234 103.63143041975512  194.65622765760287 107.09046334327847  193.28918467251148 110.2940854836568  C 190.81804382042685 116.04190363081192  186.41153207649973 120.68942832425763  180.87279681747557 123.38958426207414  C 177.4097788139667 125.08092912842129  173.6252329824723 125.97041735320641  169.78831173180328 126  L 38.01646882752505 126  C 32.15368436699123 126.00757439427946  26.392138426618395 124.4309641292339  21.317631813414188 121.42525944531153  L 21.239584007820902 121.38010255297218  C 20.516793460370053 120.94705953412796  19.812100954795913 120.48854339652819  19.12550649109847 120.0045541401729  C 17.580694822809782 118.91211090911057  16.12933054609642 117.6873138322847  14.787066514967451 116.34337225358085  C 12.970317825448227 114.52603078919991  11.369445814028609 112.4955584667647  10.017666916647437 110.29408548365677  C 6.842801934614001 105.13370561126492  5.160928958093298 99.15826599687381  5.166826129882245 93.05978384198102  C 1.9515958777241376 87.28491203319619  0.0767518520593829 80.36722348751499  0.0767518520593829 72.93370428703406  C 0.0767518520593829 63.5549651088572  3.0561419960116987 54.99947081409809  7.9510967598513504 48.522930370501506  C 8.971601254632589 47.16984434441714  10.089438806528253 45.89669738946335  11.295275560380972 44.714120182030776  C 12.485055309605224 43.54389652376291  13.763867505964669 42.47238446802481  15.119618034451882 41.50971762948703  C 16.20431389766936 40.738687987074314  17.33794775186384 40.04242727378999  18.51300088633379 39.42555336766995  C 19.003344708430724 39.170243245597355  19.4953852219536 38.92882755193688  19.995909192606184 38.704779893791546  C 20.435352271924895 38.505047485367406  20.879885425521422 38.31920950535538  21.329508653395777 38.14379234665244  C 21.869056526845004 37.93421805143639  22.41539116599799 37.74143285721832  22.96851257085474 37.56543676399821  C 23.521633975711488 37.3894406707781  24.067403051055823 37.2354440892105  24.605819796887758 37.103447019295416  C 25.397609128993544 36.90545141442279  26.202971992506846 36.744507618649145  27.02190838742768 36.62061563197447  C 27.700584957804065 36.518144222435126  28.379261528180443 36.44693527682304  29.057938098556825 36.3930943667261  C 29.597485972006048 36.351411081489765  30.142123919733088 36.32883263532007  30.690155250312024 36.32188542111401  L 30.987076249851693 36.32188542111401  C 31.59109839748667 36.32188542111401  32.191727162269764 36.34620067083521  32.78726585277504 36.387883956071555  C 32.85004343553485 36.2593604932595  32.917911092572496 36.12910022689593  32.98068867533231 36.00231356763539  C 33.21822547496404 35.53858701938108  33.46424573172548 35.076597274678306  33.71196267991286 34.6250283512846  C 33.711405684597196 34.62099586413848  33.711405684597196 34.616903213570126  33.71196267991286 34.612870726424006  C 33.754379965561384 34.53297776305435  33.7967972512099 34.454821603236205  33.84091122828437 34.37840224696958  C 34.0411208165454 34.008463090497045  34.24981386193613 33.64199754112754  34.463596981604695 33.27900559886106  C 34.56200508430927 33.10532524370964  34.65871649558791 32.94206570986731  34.75882128971842 32.77880617602497  C 34.77999916388493 32.73823401563491  34.80321846799888 32.69881351921274  34.828385638182 32.660703534522  C 34.93018712373846 32.48702317937058  35.03368530072086 32.31334282421916  35.1388801691292 32.13966246906773  C 35.66259225593631 31.282839383654043  36.20723020366336 30.441068595686808  36.77279401231034 29.614350105166032  L 36.91701278351532 29.402460071881293  C 37.005240737664245 29.27393660906923  37.086681926109414 29.148886753360213  37.185090028813995 29.02036329054816  C 37.41923344559384 28.685160205105916  37.660163628077456 28.348220316112155  37.90279050198701 28.018227641324447  C 38.07245964458111 27.78202235831851  38.2421287871752 27.54755387886409  38.42537146117683 27.323506220718752  C 38.86651123192148 26.744571703547336  39.31896227883907 26.165637186375935  39.782724601929594 25.586702669204517  C 40.24648692502012 25.007768152033115  40.728347289987354 24.436359783584926  41.228305696831285 23.87247756385997  C 41.29617335386892 23.794321404041828  41.36404101090657 23.71790204777521  41.43530205079608 23.641482691508568  L 42.15978928967287 22.83213223650294  C 42.19541980961763 22.793922558369626  42.22596025528457 22.759186487339342  42.25989408380338 22.724450416309057  C 42.346425346526374 22.628926220975774  42.429563226397484 22.533402025642495  42.522881254824235 22.441351437412234  C 42.911423591364716 22.01930817439428  43.31014607646083 21.60594892913389  43.71056525298292 21.19432648742502  C 45.748376953037024 19.116668393864963  47.919305209632604 17.18046606822548  50.208893414336764 15.398613036022018  C 50.29881805991162 15.325667286858419  50.390439396912434 15.25619514479785  50.48036404248732 15.18672300273728  C 50.911323664676324 14.854993524398065  51.349070052569076 14.52673765316187  51.78681644046185 14.203692192580228  C 54.19460241601121 12.435536151425493  56.71151793704418 10.82853766340587  59.32182306306563 9.392746354885801  C 59.501672354215366 9.286801338243427  59.68491502821698 9.187803535807117  59.86985439364455 9.090542536922321  C 62.21003703570127 7.82321734062402  64.61677911759968 6.689096047565491  67.07909626246766 5.6933547901604795  C 68.42117918038697 5.149735278536525  69.7938025439732 4.639115034391339  71.17490936468913 4.171914879034008  C 72.09451611754912 3.862763846864475  73.01751625326101 3.569244046658569  73.95239322895448 3.2930922819678052  C 75.41381011049828 2.862365001192299  76.88540714059772 2.476215678238979  78.36718431925283 2.1346443131078456  C 82.73262925679776 1.1319615508084915  87.17372286168596 0.5125687929537543  91.64209803581484 0.28321172719366955  C 92.99945117656762 0.21258171609876006  94.37207454015386 0.17610884151696052  95.75996812657354 0.17379310344827584  C 102.45682070629263 0.16471762308595855  109.1275525530233 1.0284857410281223  115.61125781008272 2.744262359689339  C 115.74752073193369 2.9550813755595664  115.98029421300386 3.0791427287451993  116.22715679769927 3.07251823092553  L 116.79724511681545 3.07251823092553  C 117.04496206500284 3.1419903729861023  117.29098232176425 3.21146251504667  117.53869926995164 3.284408264210266  C 118.92206834590215 3.69197816429894  120.28564268855004 4.137178808003757  121.62942229789529 4.620010195324714  L 121.96876058308348 4.74506005103374  C 125.28540168429969 5.952302157964764  128.51243729617912 7.403421111060835  131.62463148811344 9.08706892981932  C 134.4300751540187 10.601132652567278  137.13126706874124 12.30948785725414  139.7093661327221 14.200218585477224  C 140.10639192639226 14.49200158213162  140.49776208197596 14.786100316854695  140.88347659947323 15.082514789646456  C 141.35176343303291 14.775679495545607  141.8279681599137 14.48158076082253  142.3120907801155 14.200218585477224  C 144.18168536486908 13.110265180796098  146.16738200359035 12.243711988987382  148.23015047379752 11.617591704375558  C 152.5427788805097 10.311200795295889  157.10593454092967 10.128514612269626  161.50506419035958 11.086129817612203  C 167.14656318161326 12.310576321429739  172.2536043736955 15.34998253657965  176.378261230158 19.672886576298577  C 178.05770426090567 21.441621889206775  179.55263468489602 23.384585022063554  180.83886298895672 25.47033683125309  C 180.93218101738347 25.61970193668331  181.02549904581025 25.77080384566505  181.11542369138513 25.923642558198306  C 182.2208903894577 27.769678892469837  183.1710645105766 29.70856270216691  183.95568513841033 31.7193560096013  C 183.9845288926513 31.794038562316413  184.0133726468923 31.863510704376978  184.0388230182814 31.93645645354058  C 184.7631689333114 33.81934440930574  185.34736562318258 35.75561272438997  185.78641518700059 37.72869629784056  C 185.80677548411185 37.829430903828374  185.83052916407502 37.92842870626468  185.85088946118634 38.02916331225253  C 186.2615300776723 39.93864738829287  186.5404755872402 41.875329368979365  186.68566164274932 43.824876763655524  C 186.68566164274932 43.894348905716086  186.68566164274932 43.96555785132817  186.6992351741568 44.03850360049177  C 186.77049621404635 45.04700752940437  186.80669229779977 46.065932279626054  186.80782342541707 47.09527785115683  C 186.80782342541707 48.01578373345937  186.7772829797501 48.929342401555864  186.72129216269408 49.835953855446284  C 186.72129216269408 49.93495165788259  186.70771863128658 50.03742306742194  186.6992351741568 50.139894476961274  C 186.6839649513234 50.40215181323993  186.66190796278613 50.66093554241555  186.6398509742489 50.92492968224571  C 187.93567441945856 51.994894793193716  189.14848595956244 53.16611714344282  190.2673772429107 54.42806244564992  C 190.76168001166815 54.98036597503145  191.2401469937835 55.55351114703115  191.70277818925675 56.14749796164902  C 193.11192877212358 57.95536013416135  194.35040297739826 59.895953364307786  195.401565497808 61.94321141305201  Z " fill-rule="nonzero" fill="#ccecef" stroke="none" transform="matrix(1 0 0 1 125 4936 )" />
  </g>
</svg>