<?xml version="1.0" encoding="utf-8"?>
<svg version="1.1" xmlns:xlink="http://www.w3.org/1999/xlink" width="260px" height="164px" xmlns="http://www.w3.org/2000/svg">
  <g transform="matrix(1 0 0 1 -193 -5798 )">
    <path d="M 254.0220351471504 80.62449739476611  C 257.7518719087964 87.84033721679056  259.89581119461536 96.32889565404054  259.89581119461536 105.41425287356324  C 259.900285480999 109.85149590656286  259.37660815199825 114.27272998975607  258.33638210503307 118.57999570673068  C 257.9864112202423 120.03130183634839  257.57982739820596 121.45246661332604  257.11663063892416 122.84349003766367  C 256.54989772951666 124.56044787294721  255.8931137266909 126.2447875765606  255.14914726140293 127.8891524696056  C 254.77417845627 128.7210538024706  254.37788789555105 129.53637739138358  253.96027557924614 130.33512323634451  C 253.96712326370104 134.88535387968128  253.05309595488373 139.38758720871166  251.27594007426492 143.55738110571204  C 248.06345696655492 151.03866821788216  242.33499169944963 157.08782734268453  235.13463586271823 160.60231602365207  C 230.63271245815673 162.80374902429438  225.71280287721402 163.96149560258613  220.72480525134426 164  L 49.42140947578257 164  C 41.7997896770886 164.00985873541137  34.30977995460391 161.95776283487587  27.712921357438447 158.04557578596103  L 27.611459210167173 157.986800148313  C 26.67183149848107 157.42315685394433  25.755731241234688 156.82635807167162  24.863158438428012 156.19640380149488  C 22.85490326965272 154.77449356423915  20.968129709925343 153.18031324202136  19.223186469457687 151.43105594910523  C 16.861413173082695 149.06562737641895  14.780279558237192 146.4227903853128  13.022966991641669 143.55738110571198  C 8.895642514998201 136.84069619244005  6.709207645521287 129.06313986894688  6.716873968846919 121.12543293718164  C 2.5370746410413787 113.60893312257281  0.09977740767719777 104.60495755517825  0.09977740767719777 94.92958335772688  C 0.09977740767719777 82.72233553851254  3.972984594815208 71.58661280565148  10.336425787806755 63.15683000604958  C 11.663081631022365 61.395670416542956  13.116270448486729 59.73855850692055  14.683858228495263 58.19933103057974  C 16.23057190248679 56.67618277696125  17.89302775775407 55.28151629171483  19.655503444787445 54.02852135901487  C 21.065608066970167 53.02495896730308  22.53933207742299 52.118714864298084  24.066901152233925 51.315799621411685  C 24.704348120959942 50.983491208555286  25.34400078853968 50.66926760728292  25.99468195038804 50.377650020490584  C 26.565957953502362 50.11768085397028  27.143851053177848 49.87579649903399  27.72836124941451 49.64747575278572  C 28.429773484898504 49.374696511393395  29.140008515797387 49.12376975066511  29.859066342111163 48.89469547060084  C 30.57812416842493 48.66562119053658  31.28762396637257 48.46518119548034  31.98756573595409 48.29337548543213  C 33.016891867691605 48.03566692035983  34.0638635902589 47.826184519511585  35.12848090365598 47.6649282828874  C 36.01076044514528 47.53155279745524  36.89303998663458 47.43886813808713  37.77531952812387 47.36878949319905  C 38.476731763607866 47.31453505844699  39.184761095653016 47.28514723962295  39.89720182540563 47.276104833830935  L 40.2831991248072 47.276104833830935  C 41.068427916732674 47.276104833830935  41.84924531095069 47.30775325410297  42.623445608607554 47.36200768885504  C 42.70505646619531 47.19472318170284  42.79328442034424 47.025178073102644  42.874895277932005 46.86015416739844  C 43.18369311745325 46.256573580781726  43.50351945124312 45.65525359561303  43.82555148388672 45.067497219132335  C 43.824827389976356 45.062248585069135  43.824827389976356 45.05692164305953  43.82555148388672 45.051673008996325  C 43.880693955229795 44.9476853423882  43.93583642657288 44.84595827722808  43.99318459676968 44.74649181351596  C 44.25345706150902 44.264983705091396  44.52475802051698 43.787996799562826  44.8026760760861 43.31553109693027  C 44.93060660960205 43.08947095213001  45.05633144426428 42.87697441601776  45.186467676633946 42.66447787990552  C 45.2139989130504 42.611669671143844  45.24418400839855 42.56036045357849  45.2769013296366 42.51075698144133  C 45.40924326086 42.284696836641075  45.543790890937125 42.05863669184081  45.68054421986796 41.83257654704053  C 46.3613699327172 40.71734649935923  47.06939926476236 39.62170833089394  47.80463221600344 38.545662041644675  L 47.992116618569916 38.26986866498835  C 48.10681295896352 38.10258415783614  48.21268650394224 37.93982085357996  48.340617037458195 37.77253634642776  C 48.64500347927199 37.33624026696326  48.9582127165007 36.89768358605074  49.273627652583116 36.468169310930236  C 49.49419753795544 36.16072751400187  49.71476742332776 35.85554631852151  49.952982899529886 35.56392873172917  C 50.52646460149792 34.81039491572828  51.114650962490785 34.056861099727406  51.71754198250847 33.30332728372652  C 52.320433002526165 32.54979346772564  52.94685147698356 31.80605559133276  53.59679740588067 31.0721136545479  C 53.685025360029606 30.970386589387772  53.77325331417853 30.870920125675667  53.8658926660349 30.771453661963534  L 54.80772607657473 29.718013387194304  C 54.85404575250292 29.66828015533824  54.893748331869936 29.62306812637819  54.937862308944396 29.577856097418135  C 55.05035295048428 29.453523017777993  55.158432194316724 29.32918993813785  55.2797456312715 29.209378061393704  C 55.78485066877413 28.660051909529063  56.30318989939908 28.122028764904428  56.82373482887779 27.5862662217278  C 59.47289003894813 24.88201283010995  62.29509677252239 22.361876469753803  65.27156143863779 20.042639189742943  C 65.38846347788511 19.94769392892683  65.50757121598616 19.857269871006725  65.62447325523351 19.76684581308662  C 66.18472076407922 19.335070936518118  66.75379106833981 18.907817262845608  67.3228613726004 18.48734539351712  C 70.45298314081457 16.185935943125244  73.72497331815742 14.09428711744891  77.11836998198531 12.225479382549773  C 77.35217406047997 12.087582694221602  77.59038953668207 11.958728411685453  77.83081071173791 11.832134730597307  C 80.87304814641165 10.182600348113803  84.00181285287958 8.706442474609052  87.20282514120797 7.4103982983041154  C 88.94753293450306 6.702830045079287  90.73194330716515 6.038213219366504  92.52738217409588 5.430111429853789  C 93.72287095281386 5.027724372109317  94.92277112923931 4.645682727396867  96.13811119764081 4.286247097164445  C 98.03795314364777 3.725617938059818  99.95102928277704 3.223010882787243  101.87733961502867 2.7784259313467197  C 107.55241803383709 1.4733467804174016  113.32583972019174 0.6671530320985374  119.1347274465593 0.3686247877758873  C 120.8992865295379 0.27669366222378294  122.68369690220001 0.2292210318157264  124.48795856454561 0.22620689655172413  C 133.19386691818042 0.21439436655632702  141.8658183189303 1.3386639803858098  150.29463515310755 3.571897039595648  C 150.4717769515138 3.8462963935854675  150.77438247690503 4.007773075509625  151.09530383700903 3.99915071326815  L 151.83641865186007 3.99915071326815  C 152.1584506845037 4.089574771188261  152.4782770182935 4.179998829108364  152.80030905093713 4.274944089924473  C 154.5986888496728 4.805431896389097  156.37133549511506 5.3848994008937785  158.11824898726388 6.013346603438516  L 158.55938875800854 6.17610990769471  C 162.8710221895896 7.747440904017631  167.06616848503285 9.636198906460134  171.11202093454747 11.827613527701338  C 174.75909770022432 13.798299643024077  178.27064718936361 16.021873084045072  181.6221759725387 18.482824190621148  C 182.13830950430994 18.8626052338856  182.64709070656875 19.245400412414046  183.14851957931518 19.6312097262065  C 183.7572924629428 19.23183680372603  184.3763586078878 18.84904162519758  185.00571801415015 18.482824190621148  C 187.4361909743298 17.06415467976635  190.01759660466743 15.93626004915818  192.6991956159368 15.121309837441203  C 198.3056125446626 13.420928019274015  204.23771490320857 13.183146003271577  209.95658344746744 14.429565794352392  C 217.29053213609723 16.023289815194264  223.92968568580417 19.97934234919891  229.29173959920539 25.60597935327751  C 231.47501553917735 27.90814277642787  233.41842509036482 30.437078917606534  235.09052188564374 33.151866986710374  C 235.21183532259852 33.3462787112386  235.33314875955332 33.54295103721483  235.45005079880067 33.741883964639065  C 236.887157506295 36.14466141559566  238.1223838637496 38.668287961550575  239.1423906799334 41.28551099662391  C 239.1798875604467 41.38271685888803  239.21738444095996 41.47314091680813  239.25046992376582 41.568086177624245  C 240.1921196133048 44.018829231159856  240.95157531013737 46.53905148253933  241.52233974310076 49.107192006713106  C 241.5488081293454 49.238306890697245  241.57968791329753 49.3671611732334  241.60615629954225 49.49827605721757  C 242.13998910097396 51.983636283174846  242.50261826341224 54.504396956449334  242.69136013557412 57.04190308920242  C 242.69136013557412 57.132327147122524  242.69136013557412 57.225011806490635  242.70900572640386 57.31995706730675  C 242.80164507826026 58.63261297478029  242.84869998713972 59.95883249094185  242.85017045304218 61.298615615791434  C 242.85017045304218 62.496734383232834  242.81046787367515 63.68581074488223  242.73767981150232 64.86584470073961  C 242.73767981150232 64.99469898327575  242.72003422067255 65.12807446870792  242.70900572640386 65.26144995414008  C 242.6891544367204 65.60280077278848  242.660480351622 65.93963038854088  242.6318062665236 66.28324180863727  C 244.31637674529614 67.67589481018864  245.89303174743117 69.20034294860812  247.3475904157839 70.84287492925863  C 247.99018401516858 71.56174618972348  248.61219109191856 72.30774466756435  249.21361164603377 73.08087036278127  C 251.04550740376064 75.43396080954335  252.65552387061774 77.95981231544823  254.0220351471504 80.62449739476611  Z " fill-rule="nonzero" fill="#ccecef" stroke="none" transform="matrix(1 0 0 1 193 5798 )" />
  </g>
</svg>