<?xml version="1.0" encoding="utf-8"?>
<svg version="1.1" xmlns:xlink="http://www.w3.org/1999/xlink" width="36px" height="36px" xmlns="http://www.w3.org/2000/svg">
  <g transform="matrix(1 0 0 1 -250 -5847 )">
    <path d="M 32.770084551898435 0.401485496461721  C 32.769807479041496 0.401485496461721  32.76953040617971 0.4014855342265031  32.76925333333333 1  L 3.0172044444444355 1  C 3.0169347786167386 0.40148553821072214  3.016665112749984 0.4014855024379996  3.0163954469125858 0.4014855024379996  C 1.352884325235588 0.4014855024379996  0.004342113579241413 1.7335820773668047  0.004342113579241413 3.3768064780477665  C 0.004342113579241413 3.377072855247844  0.0043421497935772395 3.377339232565563  0 3.377605609756082  L 0 32.76682463414633  C 0.004342149793905669 32.76709101092428  0.004342113579696161 32.767357387890925  0.004342113579696161 32.76762376467854  C 0.004342113579696161 34.41085059002424  1.3528863150815797 35.742949130532196  3.016399891357474 35.742949130532196  L 32.76925333333333 35.742949024390235  C 34.43359613832833 35.742949136476135  35.782142329675786 34.41084863038902  35.782142329675786 32.767619380378555  L 35.78214222222222 3.3776056097561074  C 35.78214232967624 1.7335840369696542  34.4335981281743 0.401485496461721  32.770084551898435 0.401485496461721  Z " fill-rule="nonzero" fill="#cccccc" stroke="none" transform="matrix(1 0 0 1 250 5847 )" />
  </g>
</svg>