<?xml version="1.0" encoding="utf-8"?>
<svg version="1.1" xmlns:xlink="http://www.w3.org/1999/xlink" width="28px" height="28px" xmlns="http://www.w3.org/2000/svg">
  <g transform="matrix(1 0 0 1 -168 -4973 )">
    <path d="M 25.487197037037035 0.31226658536584956  L 2.346714567901228 0.31226658536584956  C 1.052243364072124 0.3122665018962219  0.0033771994505210996 1.348341615729737  0.0033771994505210996 2.6264050384815962  C 0.0033771994505210996 2.6266122207483233  0.003377227617226742 2.626819403106549  0 2.627026585365842  L 0 25.48530804878048  C 0.0033772276174821865 25.48551523071889  0.0033771994508747915 25.485722412804055  0.0033771994508747915 25.485929594749976  C 0.0033771994508747915 26.763994903352184  1.0522449117301176 27.800071545969487  2.3460888043891464 27.800071545969487  L 25.487197037037035 27.80007146341463  C 26.781685885366482 27.80007155059255  27.830555145303386 26.76399337919146  27.830555145303386 25.48592618473888  L 27.83055506172839 2.627026585365861  C 27.83055514530374 1.3483431398652865  26.78168743302446 0.3122664972480052  25.487843540365446 0.3122664972480052  Z " fill-rule="nonzero" fill="#cccccc" stroke="none" transform="matrix(1 0 0 1 168 4973 )" />
  </g>
</svg>