<?xml version="1.0" encoding="utf-8"?>
<svg version="1.1" xmlns:xlink="http://www.w3.org/1999/xlink" width="20px" height="17px" xmlns="http://www.w3.org/2000/svg">
  <g transform="matrix(1 0 0 1 -296 -5834 )">
    <path d="M 19.841562681539344 4.986665115858408  C 19.841562681539344 5.243227534367238  19.794661182356727 5.497617515015575  19.703182608695652 5.737227564102568  L 15.921991304347834 15.640917564102574  C 15.611763480615329 16.453422092199503  14.833874080132901 16.989956438391165  13.966099666474944 16.989956438391165  C 13.606300112239357 16.989956438391165  13.252568419337452 16.897023254646342  12.93900869565218 16.720116794871817  L 3.7493391304347705 11.534563205128219  C 1.515008438766225 10.662280193486778  0.04358247933430942 8.504737515955016  0.04358247933430942 6.100835414718037  C 0.04358247933430942 2.880373964837339  2.6476053298369076 0.2696741326667609  5.859830305421234 0.2696741326667609  C 6.570741176101612 0.2696741326667609  7.2756288563161196 0.4003395482929929  7.939539130434785 0.6551908974359216  L 18.201365217391324 2.9369570512821057  C 19.15968791575665 3.150352679596022  19.841562681539344 4.002472157284558  19.841562681539344 4.986665115858408  Z " fill-rule="nonzero" fill="#6c63ff" stroke="none" transform="matrix(1 0 0 1 296 5834 )" />
  </g>
</svg>