<?xml version="1.0" encoding="utf-8"?>
<svg version="1.1" xmlns:xlink="http://www.w3.org/1999/xlink" width="16px" height="13px" xmlns="http://www.w3.org/2000/svg">
  <g transform="matrix(1 0 0 1 -204 -4964 )">
    <path d="M 15.873250145231475 3.8133321474211352  C 15.873250145231475 4.009526938045535  15.835728945885382 4.204060452658969  15.76254608695652 4.38729166666667  L 12.737593043478267 11.960701666666674  C 12.489410784492263 12.582028658740796  11.86709926410632 12.99231962935795  11.172879733179956 12.99231962935795  C 10.885040089791485 12.99231962935795  10.602054735469961 12.921253077082497  10.351206956521745 12.785971666666683  L 2.9994713043478165 8.820548333333344  C 1.21200675101298 8.153508383254595  0.034865983467447535 6.503622806318542  0.034865983467447535 4.665344728902028  C 0.034865983467447535 2.202638914287377  2.118084263869526 0.2062213955686995  4.687864244336987 0.2062213955686995  C 5.25659294088129 0.2062213955686995  5.820503085052896 0.30614200751817106  6.351631304347828 0.5010283333333518  L 14.561092173913059 2.245908333333375  C 15.32775033260532 2.4090932255734288  15.873250145231475 3.0607140026293678  15.873250145231475 3.8133321474211352  Z " fill-rule="nonzero" fill="#6c63ff" stroke="none" transform="matrix(1 0 0 1 204 4964 )" />
  </g>
</svg>