<?xml version="1.0" encoding="utf-8"?>
<svg version="1.1" xmlns:xlink="http://www.w3.org/1999/xlink" width="145px" height="83px" xmlns="http://www.w3.org/2000/svg">
  <g transform="matrix(1 0 0 1 -235 -5864 )">
    <path d="M 132.081332326284 59.591617026315774  C 146.53751253776437 53.475805710526316  144.72899018126887 35.5222722894737  144.72899018126887 35.5222722894737  C 144.2346672205438 -3.3996559736841947  122.00579048338368 0.18106886842107225  122.00579048338368 0.18106886842107225  C 122.00579048338368 0.18106886842107225  122.42160755287009 12.296155131578978  122.6213921450151 12.67292707894739  C 136.78646842900304 39.39873923684213  113.40873610271905 70.73090723684211  83.65099939577037 64.96679750000003  C 83.08994138972807 64.8581199210527  82.55091374622356 64.74786971052633  82.03391646525677 64.6360468684211  C 74.2083036740107 63.00678827315207  68.99918977856402 55.59399797587398  70.1345944108761 47.70280623684212  C 73.0659512084592 24.228824868421075  58.48613549848942 24.644226763157913  58.48613549848942 25  L 37.16698700906343 25  L 26.095579909365558 14.707859921052673  C 25.50459715427288 14.177464216674027  24.737652845579603 13.883983532920421  23.94256834191491 13.883983532920421  C 22.594190751502353 13.883983532920421  21.388753869601935 14.722156376304113  20.922593202416927 15.983853868421074  L 19.498237613293053 19.838985447368437  C 19.498237613293053 19.838985447368437  -1.528952719033231 22.023195973684224  0.22331314199395907 42.55477492105265  L 6.724149395770386 42.55477492105265  C 6.708452984071683 43.138139440312415  6.731892178623831 43.72189777991392  6.794310120845923 44.302143342105246  L 55.310574169184264 43.908793236842094  C 58.154444712990895 43.88573671052631  60.664732024169176 46.18372713157893  60.676450302114795 49.01971918421056  C 60.67648059805459 49.02690967949479  60.676495746074586 49.034100230306905  60.676495746074586 49.041290789058024  C 60.676495746074586 51.87685335929978  58.37137548291292 54.17553099958436  55.52786553459419 54.17553099958436  C 55.47069272082001 54.17553099958436  55.41352387290984 54.174581350459206  55.356382779456204 54.17268244736839  L 47.53450453172207 53.912669657894725  C 45.12513897280969 64.6153012368421  51.03903625377645 71.8231959736842  57.55527492447132 76.35543281578946  C 63.69039417876019 80.56076941211724  70.97040184503656 82.7904576591101  78.41497492447132 82  L 99.66441389728098 82  C 127.26260120845923 82.74424860526314  132.081332326284 59.591617026315774  132.081332326284 59.591617026315774  Z " fill-rule="nonzero" fill="#3f3d56" stroke="none" transform="matrix(1 0 0 1 235 5864 )" />
  </g>
</svg>