<?xml version="1.0" encoding="utf-8"?>
<svg version="1.1" xmlns:xlink="http://www.w3.org/1999/xlink" width="111px" height="63px" xmlns="http://www.w3.org/2000/svg">
  <g transform="matrix(1 0 0 1 -157 -4986 )">
    <path d="M 101.11053716012086 45.2321912368421  C 112.17699235649548 40.590069394736844  110.79253731117825 26.962688605263168  110.79253731117825 26.962688605263168  C 110.41412456193353 -2.580461763157883  93.397536163142 0.13743781578948858  93.397536163142 0.13743781578948858  C 93.397536163142 0.13743781578948858  93.71585129909366 9.333226184210549  93.8687898489426 9.619209710526333  C 104.71239996978852 29.905067131578967  86.81634280966767 53.68731513157895  64.03628229607249 49.31214750000002  C 63.60678271903321 49.22965728947374  63.19414776435045 49.145973394736856  62.79837743202415 49.061095815789514  C 56.80773591596681 47.82442965311542  52.82006941669383 42.19785388530194  53.689241238670675 36.20815413157896  C 55.933245407854976 18.390553815789488  44.77214510574018 18.705858868421068  44.77214510574018 19  L 28.451969365558906 19  L 19.976616344410875 11.163797289473717  C 19.52420885602958 10.76120777892125  18.937099764547142 10.538445332216705  18.328448868638308 10.538445332216705  C 17.296242575288005 10.538445332216705  16.373459858798725 11.174648815748906  16.016605830815713 12.13232281578949  L 14.926237069486406 15.058507026315802  C 14.926237069486406 15.058507026315802  -1.170439667673715 16.716401763157904  0.1709500604229618 32.3006122894737  L 5.147452296072503 32.3006122894737  C 5.135436422289357 32.74340704505641  5.15337952984307 33.186500724512975  5.201161540785499 33.62692807894736  L 42.34119815709968 33.32836113157894  C 44.518230090634404 33.310860394736835  46.43989830815709 35.055118184210514  46.448868851963745 37.20773865789476  C 46.44889204402799 37.213196503712915  46.44890364009847 37.21865439167873  46.44890364009847 37.22411228567055  C 46.44890364009847 39.37640676669742  44.68429433519541 41.121186180407406  42.507538443723824 41.121186180407406  C 42.46377166904152 41.121186180407406  42.4200079302965 41.12046536239675  42.376265438066476 41.11902402631576  L 36.388482779456204 40.921664921052624  C 34.54407190332328 49.045349131578945  39.07126223564956 54.51640176315789  44.059555287009076 57.95653334210525  C 48.75609485408539 61.14853581883598  54.32906623999351 62.84094978944501  60.02801528700908 62  L 76.29482719033234 62  C 97.42171540785499 62.80587544736841  101.11053716012086 45.2321912368421  101.11053716012086 45.2321912368421  Z " fill-rule="nonzero" fill="#3f3d56" stroke="none" transform="matrix(1 0 0 1 157 4986 )" />
  </g>
</svg>