<?xml version="1.0" encoding="utf-8"?>
<svg version="1.1" xmlns:xlink="http://www.w3.org/1999/xlink" width="26px" height="22px" xmlns="http://www.w3.org/2000/svg">
  <g transform="matrix(1 0 0 1 -237 -4973 )">
    <path d="M 20.40895324675322 16.01658953125003  L 4.593396363636365 21.947277343750006  L 0.5841558441558503 10.86150484375  C 0.3965759038776055 10.342824156602163  0.3005687564463418 9.794461502888225  0.3005687564463418 9.241744522397857  C 0.3005687564463418 7.277138123361384  1.5038056216020947 5.520900184248042  3.3148007792207816 4.84218796875  L 14.808826753246782 0.5345707812500198  C 15.705460502962133 0.1984383504901306  16.65342520862971 0.02639756733534604  17.608920209711858 0.02639756733534604  C 21.00430457508064 0.02639756733534604  24.03962290631719 2.1814381046966744  25.212878701298695 5.425119218750007  C 25.544419611947898 6.3375577948728825  25.713754026644988 7.302796413016596  25.712956623376616 8.275659218750011  C 25.704251388693134 10.777298408634156  24.589621131897783 13.141996891400147  22.67811844155843 14.714096718750037  C 21.996299566026316 15.27093628492267  21.229855370103678 15.71087254811624  20.40895324675322 16.01658953125003  Z " fill-rule="nonzero" fill="#3f3d56" stroke="none" transform="matrix(1 0 0 1 237 4973 )" />
  </g>
</svg>