<?xml version="1.0" encoding="utf-8"?>
<svg version="1.1" xmlns:xlink="http://www.w3.org/1999/xlink" width="34px" height="28px" xmlns="http://www.w3.org/2000/svg">
  <g transform="matrix(1 0 0 1 -339 -5845 )">
    <path d="M 26.688631168831133 20.38475031250004  L 6.006749090909092 27.932898437500008  L 0.763896103896112 13.8237334375  C 0.5185992589168688 13.163594381130025  0.39305145073752384 12.465678276403196  0.39305145073752384 11.762220301233636  C 0.39305145073752384 9.261812157005398  1.9665150436335086 7.026600234497508  4.334739480519484 6.1627846875  L 19.365388831168868 0.6803628125000252  C 20.537909888488944 0.25255790062380257  21.777556042054236 0.033596903881349505  23.027049505007813 0.033596903881349505  C 27.467167521259295 0.033596903881349505  31.43642995441479 2.7763757696139493  32.97068753246752 6.904697187500009  C 33.40424103100879 8.065982648020032  33.62567834253576 9.294468162021122  33.62463558441557 10.532657187500014  C 33.61325181598333 13.716561610988926  32.155658403250946 16.726177861782006  29.656001038961023 18.727032187500047  C 28.764391740188263 19.43573708990158  27.76211856090481 19.99565597032976  26.688631168831133 20.38475031250004  Z " fill-rule="nonzero" fill="#3f3d56" stroke="none" transform="matrix(1 0 0 1 339 5845 )" />
  </g>
</svg>