<?xml version="1.0" encoding="utf-8"?>
<svg version="1.1" xmlns:xlink="http://www.w3.org/1999/xlink" width="50px" height="51px" xmlns="http://www.w3.org/2000/svg">
  <g transform="matrix(1 0 0 1 -290 -5871 )">
    <path d="M 38.33664912280702 49.41899782051285  C 38.01982691899363 50.125824180484784  37.31426364523474 50.5812713894784  36.535684210526334 50.581536282051275  C 36.47304385964918 50.581536282051275  36.41015204678366 50.578556196581175  36.347008771929865 50.57259602564104  L 28.90553947368426 50.03411012820513  C 27.890527376638126 49.94051408827938  27.11422772652624 49.0940939587104  27.11422772652624 48.08099534719316  C 27.11422772652624 47.850692446429846  27.15503673964761 47.62218891555737  27.234785087719366 47.4059537179487  L 37.1937938596492 25.168802948717936  C 37.33763788706871 24.768011111425956  37.306426281496606 24.32571449532709  37.10770175438605 23.94880012820511  C 36.9094248278757 23.567245638114315  36.55651148202483 23.28810757828706  36.13788596491236 23.18172089743588  C 31.454881578947468 21.965131153846137  19.439640350877273 18.72569397435896  9.038596491228148 14.935413205128185  C 4.582495614035179 13.311442435897424  1.7759473684211151 10.964662179487153  0.6970175438597013 7.960204230769201  C -0.7254210526315219 3.999243461538436  1.378899122807092 0.3869221794871388  1.4691666666667098 0.2353693589743321  L 1.5397324561403918 0.11660474358970636  L 11.326881578947416 1.000744230769197  L 21.937039473684244 1.8976555128204728  L 45.188543859649144 14.289230128205087  C 49.22878310633647 16.460691885250124  50.91233399056052 21.352834272850632  49.056350877192976 25.528488076923033  L 38.33664912280702 49.41899782051285  Z " fill-rule="nonzero" fill="#2f2e41" stroke="none" transform="matrix(1 0 0 1 290 5871 )" />
  </g>
</svg>