<?xml version="1.0" encoding="utf-8"?>
<svg version="1.1" xmlns:xlink="http://www.w3.org/1999/xlink" width="38px" height="39px" xmlns="http://www.w3.org/2000/svg">
  <g transform="matrix(1 0 0 1 -200 -4993 )">
    <path d="M 29.13585333333333 37.790998333333356  C 28.895068458435162 38.33151260860601  28.358840370378402 38.67979576842466  27.767120000000016 38.67999833333332  C 27.719513333333374 38.67999833333332  27.67171555555558 38.67771944444443  27.6237266666667 38.67316166666668  L 21.968210000000038 38.26137833333333  C 21.196800806244976 38.18980489103717  20.606813072159945 37.542542439013836  20.606813072159945 36.767819971383005  C 20.606813072159945 36.59170598844636  20.637827922132182 36.41696799424975  20.69843666666672 36.25161166666665  L 28.267283333333392 19.246731666666655  C 28.37660479417222 18.940243791090438  28.352883973937423 18.602016967014833  28.2018533333334 18.31378833333332  C 28.05116286918553 18.02201137032271  27.782948726338873 17.808552853984224  27.464793333333393 17.72719833333332  C 23.905710000000077 16.796864999999986  14.774126666666726 14.319648333333323  6.869333333333392 11.421198333333317  C 3.482696666666736 10.179338333333325  1.3497200000000475 8.384741666666645  0.529733333333373 6.087214999999977  C -0.5513199999999566 3.0582449999999803  1.0479633333333898 0.29588166666663557  1.1165666666666993 0.17998833333331277  L 1.1701966666666976 0.08916833333330486  L 8.608430000000036 0.7652749999999742  L 16.672150000000027 1.4511483333333026  L 34.34329333333335 10.927058333333301  C 37.41387516081572 12.587587912250095  38.693373832826 16.328637973356365  37.282826666666665 19.521784999999966  L 29.13585333333333 37.790998333333356  Z " fill-rule="nonzero" fill="#2f2e41" stroke="none" transform="matrix(1 0 0 1 200 4993 )" />
  </g>
</svg>