<?xml version="1.0" encoding="utf-8"?>
<svg version="1.1" xmlns:xlink="http://www.w3.org/1999/xlink" width="24px" height="24px" xmlns="http://www.w3.org/2000/svg">
  <g transform="matrix(1 0 0 1 -197 -4938 )">
    <path d="M 13.565156268656681 22.806505530303024  L 13.647149552238794 22.72190734848485  C 12.447160597014904 20.8985265909091  11.500133880596989 18.370181893939407  12.821329402985052 16.63530234848485  C 14.125487761194016 14.922792045454553  16.697739104477584 15.175088106060606  18.695096865671623 14.417314772727268  C 21.47706701492537 13.361869166666672  23.09053074626863 10.044073863636353  22.587328507462683 7.072773560606049  C 22.084126268656735 4.101473257575744  19.73453552238807 1.6383544696969532  16.935490447761175 0.6305258333333249  C 14.136445373134281 -0.3773028030303034  10.98007298507461 -0.04953537878788845  8.239046268656695 1.11104113636363  C 4.864805522388051 2.539724469696958  1.9702932835820532 5.303411439393935  0.7565420895522046 8.804279772727272  C -0.4572091044776444 12.30514810606061  0.19163462686565624 16.508610681818173  2.7095819402984826 19.199453863636368  C 5.409098805970106 22.084329924242432  9.645818955223852 22.85315719696969  13.565156268656681 22.806505530303024  Z " fill-rule="nonzero" fill="#2f2e41" stroke="none" transform="matrix(1 0 0 1 197 4938 )" />
  </g>
</svg>