<?xml version="1.0" encoding="utf-8"?>
<svg version="1.1" xmlns:xlink="http://www.w3.org/1999/xlink" width="30px" height="30px" xmlns="http://www.w3.org/2000/svg">
  <g transform="matrix(1 0 0 1 -287 -5800 )">
    <path d="M 17.10389268656712 28.756028712121207  L 17.207275522388045 28.649361439393942  C 15.694245970149227 26.35031613636365  14.500168805970116 23.162403257575775  16.166024029850718 20.974946439393943  C 17.81039761194028 18.815694318181826  21.053671044776085 19.133806742424245  23.572078656716396 18.178353409090903  C 27.07978014925373 16.84757416666667  29.11414746268653 12.664267045454531  28.47967507462686 8.91784492424241  C 27.845202686567188 5.1714228030302865  24.88267522388061 2.065751287878767  21.353444477611916 0.7950108333333228  C 17.824213731343225 -0.47572962121212164  13.844439850746248 -0.06245765151516369  10.388362686567138 1.4008779545454466  C 6.133885223880585 3.2022612878787733  2.4842828358208497 6.68691007575757  0.9539008955223449 11.101048409090907  C -0.5764810447761604 15.515186742424246  0.241626268656697 20.81520477272726  3.4164294029850435 24.20800704545455  C 6.820168059701437 27.84545946969698  12.16211955223877 28.814850378787874  17.10389268656712 28.756028712121207  Z " fill-rule="nonzero" fill="#2f2e41" stroke="none" transform="matrix(1 0 0 1 287 5800 )" />
  </g>
</svg>