<?xml version="1.0" encoding="utf-8"?>
<svg version="1.1" xmlns:xlink="http://www.w3.org/1999/xlink" width="52px" height="23px" xmlns="http://www.w3.org/2000/svg">
  <g transform="matrix(1 0 0 1 -244 -5803 )">
    <path d="M 51.611573220338926 6.700831057692325  L 50.19667966101697 6.001856634615382  C 48.25556372881357 7.587914519230766  45.29401830508477 6.883455480769226  43.21034745762713 5.491491057692311  C 41.12667661016949 4.099526634615398  39.435909830508486 2.117457403846166  37.181432203389825 1.0261029807692306  C 33.20686067796609 -0.8979133653846061  28.40145694915251 0.3811077884615289  24.533221016949124 2.5122966346153905  C 20.664985084745737 4.643485480769252  17.235964067796573 7.58777740384617  13.149962711864388 9.260217980769236  C 9.063961355932202 10.932658557692301  3.849925762711849 11.015330288461538  0.7559654237287917 7.857390480769242  C 0.3451589501777508 9.052014744049675  0.13545222768268406 10.306970332438834  0.13545222768268406 11.570750232818721  C 0.13545222768268406 17.856557871296747  5.212330689567499 22.952211771280272  11.474977651411484 22.952211771280272  C 13.555934653996228 22.952211771280272  15.596765533548338 22.377466222821347  17.373975593220322 21.290916442307697  C 21.850999322033857 18.553743942307683  24.323929830508458 12.814664519230769  29.345397966101665 11.303905096153837  C 32.12409288135592 10.467908173076909  35.107844067796584 11.141237596153832  37.916218644067754 11.870527788461539  C 40.72459322033893 12.599817980769245  43.652889491525386 13.387824519230767  46.487017288135554 12.76697048076924  C 49.321145084745716 12.146116442307711  51.97213593220335 9.589821250000021  51.611573220338926 6.700831057692325  Z " fill-rule="nonzero" fill="#2f2e41" stroke="none" transform="matrix(1 0 0 1 244 5803 )" />
  </g>
</svg>