<?xml version="1.0" encoding="utf-8"?>
<svg version="1.1" xmlns:xlink="http://www.w3.org/1999/xlink" width="40px" height="17px" xmlns="http://www.w3.org/2000/svg">
  <g transform="matrix(1 0 0 1 -164 -4939 )">
    <path d="M 39.70121016949148 4.952788173076936  L 38.612830508474595 4.436154903846152  C 37.11966440677967 5.608458557692305  34.841552542372895 5.087771442307688  33.23872881355933 4.058928173076926  C 31.635905084745765 3.0300849038461632  30.335315254237297 1.5650772115384708  28.60110169491525 0.7584239423076921  C 25.543738983050837 -0.6636750961538392  21.84727457627116 0.2816883653846083  18.87170847457625 1.8569149038461583  C 15.896142372881336 3.432141442307708  13.258433898305055 5.608357211538473  10.115355932203375 6.844508942307695  C 6.972277966101695 8.080660673076919  2.9614813559321918 8.141765865384615  0.5815118644067628 5.8076364423077  C 0.265506884752116 6.69061959342802  0.10419402129437234 7.618195463106964  0.10419402129437234 8.552293650344273  C 0.10419402129437234 13.198325383132378  4.009485145821153 16.964678265728896  8.82690588570114 16.964678265728896  C 10.427642041535561 16.964678265728896  11.997511948883337 16.539866338607084  13.364596610169478 15.73676432692308  C 16.80846101694912 13.71363682692307  18.710715254237275 9.471708557692308  22.573383050847436 8.355060288461532  C 24.710840677966097 7.737149519230758  27.006033898305066 8.234827788461528  29.166322033898275 8.773868365384615  C 31.326610169491484 9.312908942307702  33.57914576271184 9.895348557692307  35.75924406779658 9.4364564423077  C 37.93934237288132 8.977564326923092  39.97856610169488 7.088128750000016  39.70121016949148 4.952788173076936  Z " fill-rule="nonzero" fill="#2f2e41" stroke="none" transform="matrix(1 0 0 1 164 4939 )" />
  </g>
</svg>