<?xml version="1.0" encoding="utf-8"?>
<svg version="1.1" xmlns:xlink="http://www.w3.org/1999/xlink" width="16px" height="12px" xmlns="http://www.w3.org/2000/svg">
  <g transform="matrix(1 0 0 1 -202 -4969 )">
    <path d="M 15.807001739130417 2.883781666666664  L 13.780219130434766 10.757001666666667  C 13.595600464755238 11.474119341162728  12.924293478114478 11.978023040391824  12.153558758079033 11.978023040391824  C 11.935688083110621 11.978023040391824  11.719908915343181 11.937300123736767  11.518306086956489 11.858135000000004  L 3.7122121739130307 8.792291666666662  C 1.645123013761369 8.292965441417474  0.19648879295116628 6.5113354642759305  0.19648879295116628 4.468413301184039  C 0.19648879295116628 2.0057074865693876  2.2797070733532445 0.009289967850709976  4.849487053820746 0.009289967850709976  C 5.226352857300418 0.009289967850709976  5.601822938583569 0.05316753670217622  5.967645217391296 0.1399583333333491  L 14.339026086956556 0.9008083333333541  C 15.198982457668258 0.9792221782689314  15.855761737092191 1.6713657643408435  15.855761737092191 2.4992126753961657  C 15.855761737092191 2.628814141634166  15.839388104793612 2.7579389175762117  15.806998260869557 2.8837683333333644  Z " fill-rule="nonzero" fill="#6c63ff" stroke="none" transform="matrix(1 0 0 1 202 4969 )" />
  </g>
</svg>