<?xml version="1.0" encoding="utf-8"?>
<svg version="1.1" xmlns:xlink="http://www.w3.org/1999/xlink" width="20px" height="16px" xmlns="http://www.w3.org/2000/svg">
  <g transform="matrix(1 0 0 1 -294 -5841 )">
    <path d="M 19.75875217391302 3.8450422222222187  L 17.22527391304346 14.34266888888889  C 16.99450058094405 15.298825788216972  16.155366847643098 15.970697387189098  15.19194844759879 15.970697387189098  C 14.919610103888276 15.970697387189098  14.649886144178977 15.916400164982356  14.39788260869561 15.810846666666672  L 4.640265217391288 11.723055555555549  C 2.0564037672017115 11.057287255223299  0.24561099118895785 8.681780619034575  0.24561099118895785 5.957884401578718  C 0.24561099118895785 2.674276648759183  2.8496338416915554 0.012386623800946635  6.061858817275932 0.012386623800946635  C 6.5329410716255225 0.012386623800946635  7.002278673229462 0.07089004893623496  7.45955652173912 0.18661111111113213  L 17.923782608695696 1.2010777777778054  C 18.99872807208532 1.305629571025242  19.81970217136524 2.2284876857877913  19.81970217136524 3.3322835671948874  C 19.81970217136524 3.505085522178888  19.799235130992013 3.6772518901016156  19.758747826086946 3.8450244444444857  Z " fill-rule="nonzero" fill="#6c63ff" stroke="none" transform="matrix(1 0 0 1 294 5841 )" />
  </g>
</svg>