<?xml version="1.0" encoding="utf-8"?>
<svg version="1.1" xmlns:xlink="http://www.w3.org/1999/xlink" width="31px" height="28px" xmlns="http://www.w3.org/2000/svg">
  <g transform="matrix(1 0 0 1 -56 -81 )">
    <path d="M 17.420401667649507 15.255031614314042  C 18.40261529468417 13.661027811091806  19.792035660300105 12.020529581020504  21.080392757724724 11.804509320890967  C 22.78793091460635 12.715482176521856  26.076877715145063 12.436595093080156  28.577355400418714 9.946560232940925  C 31.05747674020359 7.477825383734261  31.99522572238631 3.867711963622412  29.65041420849739 1.456121546731105  L 29.652250271031672 1.4551678148983036  C 29.641154067020143 1.4449946753484213  29.601239664100987 1.4053353266344257  29.591021576953683 1.394685321168142  C 29.591021576953683 1.394685321168142  29.591021576953683 1.3956390530009437  29.5891855144194 1.3956390530009437  C 27.16845680617823 -0.9378248312533745  23.54279210261349 -0.004757188162580871  21.0617926459644 2.4640571386968153  C 18.561235131884906 4.954091998836045  18.28111585219825 8.228571291454502  19.195634651882028 9.92851880577043  C 18.96005984585315 11.320569893396941  17.041933299170037 12.830883728290837  15.321462875742599 13.811081619452573  C 13.994628293903908 12.99619724597643  12.321416523532754 11.556062178446176  12.14563349307678 8.660691289366312  C 12.272720951971381 7.504132486789036  11.890101485588321 6.302271422153688  11.00112790377281 5.41712880366117  C 10.919542864206049 5.335902642567575  10.684846175041393 5.138241720219466  10.684846175041393 5.138241720219466  L 4.203465600222491 0.11255182727200433  L 3.613051752242288 0.6998916809722567  L 10.645889717792295 7.268640201739801  L 9.883045649201325 8.028128651260722  L 3.0695772420950163 1.2441546468909745  L 2.4439588907401153 1.866544145446682  L 9.256469352176365 8.650915538080097  L 8.612330717866973 9.292220717986368  L 1.799820256430725 2.5097567890185557  L 1.229842582745132 3.0721406597605023  L 8.001560524398 9.814547851750653  L 7.225704360455385 10.589772876512798  L 0.645974696843672 3.6547913319494802  L 0 4.299831961534222  L 5.3785456221625365 11.047246245646582  C 5.3785456221625365 11.047246245646582  5.506591026727199 11.177907506740388  5.560794785891418 11.225912008991395  C 6.343596055941966 11.906956015264392  7.326288655811666 12.228284165265762  8.29876316853406 12.201102808030921  C 8.305708274641994 12.201102808030921  8.315926361789298 12.202930794043791  8.31959848685786 12.20388452587659  C 10.880426749345274 12.229317374751297  12.46279333867242 13.77929055835919  13.458019061058735 15.116422587946882  C 11.022921167766674 17.542160027024742  3.4656079478589135 25.06710418782852  3.4656079478589135 25.06710418782852  L 3.4674440103931956 25.06893217384139  C 3.460019931450231 25.07449560953273  3.450280817137956 25.08093329940414  3.4428567381949935 25.088324721108357  C 2.8274564739873966 25.700541080114178  2.8274564739873966 26.694170694587864  3.4428567381949935 27.308294517259295  C 3.474389116501129 27.33873445825621  3.5930945507827077 27.45604347369079  3.6232698393895926 27.48743714652051  C 4.2386701035971885 28.100607237359135  5.238126752692934 28.100607237359135  5.85256907123047 27.488390878353314  C 5.859993150173434 27.4809994566491  5.866459283446338 27.471780048932022  5.872526272690049 27.463514373047744  L 5.87436233522433 27.46621661324068  C 5.87436233522433 27.46621661324068  12.892352142888413 20.478700340220545  15.583061872474769 17.800780309019427  C 18.14389013496218 20.349390199223212  25.242107892493767 27.414556138963935  25.242107892493767 27.414556138963935  L 25.243943955028058 27.412728152951065  C 25.249452142630897 27.41924532047521  25.252246150835237 27.428385250539552  25.261586121118324 27.437684135909368  C 25.866289325343583 28.038773623532506  26.853212851922716 28.038773623532506  27.458794173012194 27.435856149896498  C 28.06445532290752 26.831905466774952  28.0662913854418 25.853138173362424  27.459672289876423 25.248233758408077  C 27.450491977205015 25.2399680825238  27.441231835727766 25.237186364678127  27.4338077567848 25.22892068879385  L 27.435563990513245 25.227092702780975  C 27.435563990513245 25.227092702780975  19.595417311520325 17.422307726702698  17.420401667649507 15.255031614314042  Z M 20.24570276387927 8.149093638721046  C 20.214968673631514 7.903905080038327  20.20850254035861 7.555316095149383  20.247458997607712 7.142111778588136  C 20.284499563516686 6.727953730194089  20.368000494423573 6.25148520205701  20.506184157329702 5.747278973115955  C 20.579467001089274 5.4966064563946295  20.66568211139466 5.238463040316359  20.77057716226621 4.977617384045151  C 20.88648858834345 4.712638889831802  21.008067859635215 4.466019733399883  21.18608609665466 4.207955794974345  C 21.526476124749248 3.712571585486704  21.941027113467637 3.3274228803403685  22.353821868457576 3.0042667443261295  C 22.761906723903063 2.6768982927170177  23.176537541427283 2.4224903263172193  23.54470799395361 2.2295185854803843  C 23.910164267081427 2.032811394965077  24.237542199824375 1.905408717633344  24.471280943318973 1.8324482324240297  C 24.70869181188213 1.7548780433561753  24.84687547478826 1.7447049038062925  24.84687547478826 1.7447049038062925  C 24.84687547478826 1.7447049038062925  24.732800111245307 1.8306202464111607  24.562205953168817 1.9894165965726085  C 24.389695903752212 2.1491666785668584  24.14390301057603 2.3782212737446837  23.84805745613922 2.6524191756751128  C 23.280394817822938 3.2037556526871085  22.471649185874934 3.919372437899161  21.898398531149976 4.697776568770647  C 21.760214868243846 4.875568077935392  21.636879363223642 5.110106631151826  21.529270132953584 5.3247757711848935  C 21.412400761206285 5.544134092729238  21.308463656004793 5.770804358325059  21.21394634989223 5.99516977199161  C 21.017248172306612 6.441198359131774  20.85495621003731 6.873318357043583  20.714936484596905 7.245989070710768  C 20.578588884225052 7.619534038558019  20.471937599625065 7.935298752868045  20.40887284301279 8.15974364418733  C 20.340220069991837 8.384585923770283  20.349480211469082 8.518028902709757  20.360656244286446 8.518028902709757  C 20.3551480566836 8.526374056246771  20.27068918010666 8.397063915249435  20.24570276387927 8.149093638721046  Z " fill-rule="nonzero" fill="#ffffff" stroke="none" transform="matrix(1 0 0 1 56 81 )" />
  </g>
</svg>