<?xml version="1.0" encoding="utf-8"?>
<svg version="1.1" xmlns:xlink="http://www.w3.org/1999/xlink" width="33px" height="33px" xmlns="http://www.w3.org/2000/svg">
  <defs>
    <filter x="76px" y="3449px" width="33px" height="33px" filterUnits="userSpaceOnUse" id="filter84">
      <feOffset dx="2" dy="2" in="SourceAlpha" result="shadowOffsetInner" />
      <feGaussianBlur stdDeviation="2" in="shadowOffsetInner" result="shadowGaussian" />
      <feComposite in2="shadowGaussian" operator="atop" in="SourceAlpha" result="shadowComposite" />
      <feColorMatrix type="matrix" values="0 0 0 0 0  0 0 0 0 0  0 0 0 0 0  0 0 0 0.3137254901960784 0  " in="shadowComposite" />
    </filter>
    <g id="widget85">
      <path d="M 4.6875 0  L 20.3125 0  C 21.603732638888893 0  22.707790798611114 0.45844184027777624  23.624674479166664 1.3753255208333344  C 24.54155815972222 2.2922092013888866  25 3.3962673611111076  25 4.6875  L 25 20.3125  C 25 21.603732638888886  24.54155815972222 22.707790798611114  23.624674479166664 23.624674479166664  C 22.707790798611114 24.54155815972222  21.603732638888893 25  20.3125 25  L 4.6875 25  C 3.396267361111111 25  2.2922092013888893 24.54155815972222  1.3753255208333335 23.624674479166664  C 0.45844184027777773 22.707790798611114  0 21.603732638888886  0 20.3125  L 0 4.6875  C 0 3.3962673611111076  0.45844184027777773 2.2922092013888866  1.3753255208333335 1.3753255208333344  C 2.2922092013888893 0.45844184027777624  3.396267361111111 0  4.6875 0  Z M 9.700520833333332 6.111653645833334  C 9.244791666666668 6.019422743055555  8.718532986111112 5.973307291666666  8.121744791666668 5.973307291666666  L 2 5.973307291666666  L 2 18.782552083333336  L 8.30078125 18.782552083333336  C 9.5703125 18.782552083333336  10.639105902777779 18.470594618055554  11.507161458333332 17.8466796875  C 12.37521701388889 17.222764756944443  12.809244791666666 16.297743055555554  12.809244791666666 15.071614583333332  C 12.809244791666666 13.35720486111111  12.03342013888889 12.272135416666666  10.481770833333332 11.81640625  C 11.64279513888889 11.252170138888888  12.223307291666668 10.362413194444445  12.223307291666668 9.147135416666666  C 12.223307291666668 8.528645833333332  12.117513020833332 8.005099826388888  11.905924479166668 7.576497395833334  C 11.6943359375 7.147894965277776  11.387803819444446 6.819661458333334  10.986328125 6.591796875  C 10.584852430555557 6.363932291666666  10.15625 6.203884548611108  9.700520833333332 6.111653645833334  Z M 9.488932291666668 9.619140625  C 9.488932291666668 10.639105902777777  8.913845486111112 11.149088541666666  7.763671875 11.149088541666666  L 4.899088541666666 11.149088541666666  L 4.899088541666666 8.154296875  L 7.552083333333333 8.154296875  C 8.843315972222223 8.154296875  9.488932291666668 8.642578125  9.488932291666668 9.619140625  Z M 9.993489583333332 14.908854166666668  C 9.993489583333332 16.03732638888889  9.29904513888889 16.6015625  7.91015625 16.6015625  L 4.899088541666666 16.6015625  L 4.899088541666666 13.069661458333332  L 7.975260416666667 13.069661458333332  C 9.320746527777779 13.069661458333332  9.993489583333332 13.682725694444443  9.993489583333332 14.908854166666668  Z M 19.718424479166664 16.796875  C 19.322374131944446 17.01388888888889  18.912760416666664 17.122395833333332  18.489583333333336 17.122395833333332  C 17.751736111111114 17.122395833333332  17.1875 16.91623263888889  16.796875 16.50390625  C 16.406250000000004 16.09157986111111  16.210937500000004 15.511067708333332  16.2109375 14.762369791666668  L 22.900390625 14.762369791666668  C 22.911241319444446 14.653862847222221  22.916666666666664 14.491102430555552  22.916666666666664 14.274088541666668  C 22.916666666666664 12.841796875  22.512478298611114 11.6455078125  21.7041015625 10.685221354166666  C 20.895724826388893 9.724934895833332  19.791666666666664 9.244791666666666  18.391927083333336 9.244791666666666  C 17.003038194444446 9.244791666666666  15.863715277777779 9.711371527777777  14.973958333333334 10.64453125  C 14.08420138888889 11.577690972222221  13.639322916666666 12.749565972222221  13.639322916666666 14.16015625  C 13.639322916666666 15.625  14.067925347222223 16.80230034722222  14.925130208333334 17.692057291666668  C 15.782335069444445 18.58181423611111  16.93793402777778 19.026692708333336  18.391927083333336 19.026692708333336  C 20.616319444444446 19.026692708333336  22.06488715277778 17.99045138888889  22.737630208333336 15.91796875  L 20.491536458333336 15.91796875  C 20.372178819444446 16.28689236111111  20.114474826388893 16.57986111111111  19.718424479166664 16.796875  Z M 16.845703125 11.702473958333334  C 17.225477430555557 11.344401041666666  17.71918402777778 11.165364583333334  18.326822916666664 11.165364583333334  C 19.552951388888893 11.165364583333334  20.225694444444446 11.827256944444445  20.345052083333336 13.151041666666668  L 16.2109375 13.151041666666668  C 16.25434027777778 12.543402777777779  16.465928819444446 12.060546875  16.845703125 11.702473958333334  Z M 15.690104166666666 8.089192708333334  L 15.690104166666666 6.8359375  L 20.882161458333336 6.8359375  L 20.882161458333336 8.089192708333334  L 15.690104166666666 8.089192708333334  Z " fill-rule="nonzero" fill="#ffffff" stroke="none" transform="matrix(1 0 0 1 78 3451 )" />
    </g>
  </defs>
  <g transform="matrix(1 0 0 1 -76 -3449 )">
    <use xlink:href="#widget85" filter="url(#filter84)" />
    <use xlink:href="#widget85" />
  </g>
</svg>