<?xml version="1.0" encoding="utf-8"?>
<svg version="1.1" xmlns:xlink="http://www.w3.org/1999/xlink" width="48px" height="48px" xmlns="http://www.w3.org/2000/svg">
  <defs>
    <filter x="212px" y="3748px" width="48px" height="48px" filterUnits="userSpaceOnUse" id="filter56">
      <feOffset dx="2" dy="2" in="SourceAlpha" result="shadowOffsetInner" />
      <feGaussianBlur stdDeviation="2" in="shadowOffsetInner" result="shadowGaussian" />
      <feComposite in2="shadowGaussian" operator="atop" in="SourceAlpha" result="shadowComposite" />
      <feColorMatrix type="matrix" values="0 0 0 0 0  0 0 0 0 0  0 0 0 0 0  0 0 0 0.3137254901960784 0  " in="shadowComposite" />
    </filter>
    <g id="widget57">
      <path d="M 7.5 0  L 32.5 0  C 34.56597222222223 0  36.33246527777778 0.733506944444442  37.799479166666664 2.200520833333335  C 39.26649305555556 3.6675347222222188  40 5.434027777777772  40 7.5  L 40 32.5  C 40 34.56597222222222  39.26649305555556 36.33246527777778  37.799479166666664 37.799479166666664  C 36.33246527777778 39.26649305555556  34.56597222222223 40  32.5 40  L 7.5 40  C 5.434027777777778 40  3.6675347222222228 39.26649305555556  2.2005208333333335 37.799479166666664  C 0.7335069444444443 36.33246527777778  0 34.56597222222222  0 32.5  L 0 7.5  C 0 5.434027777777772  0.7335069444444443 3.6675347222222188  2.2005208333333335 2.200520833333335  C 3.6675347222222228 0.733506944444442  5.434027777777778 0  7.5 0  Z M 15.520833333333332 9.778645833333336  C 14.791666666666668 9.63107638888889  13.949652777777779 9.557291666666664  12.994791666666668 9.557291666666664  L 4 9.557291666666664  L 4 30.052083333333336  L 13.28125 30.052083333333336  C 15.3125 30.052083333333336  17.022569444444446 29.552951388888886  18.411458333333332 28.5546875  C 19.80034722222222 27.556423611111107  20.494791666666664 26.076388888888886  20.494791666666664 24.11458333333333  C 20.494791666666664 21.37152777777778  19.25347222222222 19.635416666666664  16.770833333333332 18.90625  C 18.62847222222222 18.003472222222218  19.557291666666668 16.57986111111111  19.557291666666668 14.635416666666664  C 19.557291666666668 13.64583333333333  19.388020833333332 12.808159722222218  19.049479166666668 12.122395833333336  C 18.7109375 11.436631944444443  18.220486111111114 10.911458333333336  17.578125 10.546875  C 16.93576388888889 10.182291666666664  16.25 9.926215277777771  15.520833333333332 9.778645833333336  Z M 15.182291666666668 15.390625  C 15.182291666666668 17.022569444444443  14.262152777777779 17.838541666666664  12.421875 17.838541666666664  L 7.838541666666666 17.838541666666664  L 7.838541666666666 13.046875  L 12.083333333333332 13.046875  C 14.149305555555555 13.046875  15.182291666666668 13.828125  15.182291666666668 15.390625  Z M 15.989583333333332 23.85416666666667  C 15.989583333333332 25.65972222222222  14.878472222222223 26.5625  12.65625 26.5625  L 7.838541666666666 26.5625  L 7.838541666666666 20.91145833333333  L 12.760416666666668 20.91145833333333  C 14.913194444444446 20.91145833333333  15.989583333333332 21.892361111111107  15.989583333333332 23.85416666666667  Z M 31.549479166666664 26.875  C 30.91579861111111 27.22222222222222  30.260416666666664 27.39583333333333  29.583333333333336 27.39583333333333  C 28.402777777777782 27.39583333333333  27.5 27.06597222222222  26.875 26.40625  C 26.250000000000004 25.74652777777778  25.937500000000004 24.81770833333333  25.9375 23  L 36.640625 23  C 36.657986111111114 23.446180555555554  36.666666666666664 23.185763888888886  36.666666666666664 22.83854166666667  C 36.666666666666664 20.546875  36.01996527777778 18.6328125  34.7265625 17.096354166666664  C 33.43315972222223 15.55989583333333  31.666666666666664 14.791666666666664  29.427083333333336 14.791666666666664  C 27.20486111111111 14.791666666666664  25.381944444444446 15.538194444444443  23.958333333333336 17.03125  C 22.53472222222222 18.524305555555554  21.822916666666664 20.399305555555554  21.822916666666664 22.65625  C 21.822916666666664 25  22.508680555555557 26.883680555555554  23.880208333333336 28.30729166666667  C 25.25173611111111 29.73090277777778  27.100694444444446 30.442708333333336  29.427083333333336 30.442708333333336  C 32.986111111111114 30.442708333333336  35.30381944444444 28.78472222222222  36.380208333333336 25.46875  L 32.786458333333336 25.46875  C 32.595486111111114 26.05902777777778  32.18315972222223 26.52777777777778  31.549479166666664 26.875  Z M 26.953125 18.723958333333336  C 27.560763888888893 18.151041666666664  28.350694444444446 17.864583333333336  29.322916666666664 17.864583333333336  C 31.28472222222223 17.864583333333336  32.361111111111114 18.92361111111111  32.552083333333336 21.04166666666667  L 25.9375 21.04166666666667  C 26.006944444444446 20.069444444444446  26.34548611111111 19.296875  26.953125 18.723958333333336  Z M 25.104166666666664 12.942708333333336  L 25.104166666666664 10.9375  L 33.411458333333336 10.9375  L 33.411458333333336 12.942708333333336  L 25.104166666666664 12.942708333333336  Z " fill-rule="nonzero" fill="#ffffff" stroke="none" transform="matrix(1 0 0 1 214 3750 )" />
    </g>
  </defs>
  <g transform="matrix(1 0 0 1 -212 -3748 )">
    <use xlink:href="#widget57" filter="url(#filter56)" />
    <use xlink:href="#widget57" />
  </g>
</svg>