<?xml version="1.0" encoding="utf-8"?>
<svg version="1.1" xmlns:xlink="http://www.w3.org/1999/xlink" width="58px" height="58px" xmlns="http://www.w3.org/2000/svg">
  <defs>
    <filter x="456px" y="4980px" width="58px" height="58px" filterUnits="userSpaceOnUse" id="filter19">
      <feOffset dx="2" dy="2" in="SourceAlpha" result="shadowOffsetInner" />
      <feGaussianBlur stdDeviation="2" in="shadowOffsetInner" result="shadowGaussian" />
      <feComposite in2="shadowGaussian" operator="atop" in="SourceAlpha" result="shadowComposite" />
      <feColorMatrix type="matrix" values="0 0 0 0 0  0 0 0 0 0  0 0 0 0 0  0 0 0 0.3137254901960784 0  " in="shadowComposite" />
    </filter>
    <g id="widget20">
      <path d="M 9.375 0  L 40.625 0  C 43.207465277777786 0  45.41558159722223 0.9168836805555525  47.24934895833333 2.7506510416666687  C 49.08311631944444 4.584418402777773  50 6.792534722222215  50 9.375  L 50 40.625  C 50 43.20746527777777  49.08311631944444 45.41558159722223  47.24934895833333 47.24934895833333  C 45.41558159722223 49.08311631944444  43.207465277777786 50  40.625 50  L 9.375 50  C 6.792534722222222 50  4.584418402777779 49.08311631944444  2.750651041666667 47.24934895833333  C 0.9168836805555555 45.41558159722223  0 43.20746527777777  0 40.625  L 0 9.375  C 0 6.792534722222215  0.9168836805555555 4.584418402777773  2.750651041666667 2.7506510416666687  C 4.584418402777779 0.9168836805555525  6.792534722222222 0  9.375 0  Z M 19.401041666666664 12.223307291666668  C 18.489583333333336 12.03884548611111  17.437065972222225 11.946614583333332  16.243489583333336 12  L 5 12  L 5 37  L 16.6015625 37  C 19.140625 37.56510416666667  21.278211805555557 36.94118923611111  23.014322916666664 35.693359375  C 24.75043402777778 34.445529513888886  25.618489583333332 32.59548611111111  25.618489583333332 30.143229166666664  C 25.618489583333332 26.71440972222222  24.06684027777778 24.544270833333332  20.963541666666664 23.6328125  C 23.28559027777778 22.504340277777775  24.446614583333336 20.72482638888889  24.446614583333336 18.294270833333332  C 24.446614583333336 17.057291666666664  24.235026041666664 16.010199652777775  23.811848958333336 15.152994791666668  C 23.388671875 14.295789930555552  22.775607638888893 13.639322916666668  21.97265625 13.18359375  C 21.169704861111114 12.727864583333332  20.3125 12.407769097222216  19.401041666666664 12.223307291666668  Z M 18.977864583333336 19.23828125  C 18.977864583333336 21.278211805555554  17.827690972222225 22.298177083333332  15.52734375 22.298177083333332  L 9.798177083333332 22.298177083333332  L 9.798177083333332 16.30859375  L 15.104166666666666 16.30859375  C 17.686631944444446 16.30859375  18.977864583333336 17.28515625  18.977864583333336 19.23828125  Z M 19.986979166666664 29.817708333333336  C 19.986979166666664 32.07465277777778  18.59809027777778 33.203125  15.8203125 33.203125  L 9.798177083333332 33.203125  L 9.798177083333332 26.139322916666664  L 15.950520833333334 26.139322916666664  C 18.641493055555557 26.139322916666664  19.986979166666664 27.365451388888886  19.986979166666664 29.817708333333336  Z M 39.43684895833333 33.59375  C 38.64474826388889 34.02777777777778  37.82552083333333 34.244791666666664  36.97916666666667 34.244791666666664  C 35.50347222222223 34.244791666666664  34.375 33.83246527777778  33.59375 33.0078125  C 32.81250000000001 32.18315972222222  32.42187500000001 31.022135416666664  32.421875 29  L 45.80078125 29  C 45.82248263888889 29.307725694444443  45.83333333333333 28.982204861111104  45.83333333333333 28.548177083333336  C 45.83333333333333 25.68359375  45.02495659722223 23.291015625  43.408203125 21.370442708333332  C 41.791449652777786 19.449869791666664  39.58333333333333 18.489583333333332  36.78385416666667 18.489583333333332  C 34.00607638888889 18.489583333333332  31.727430555555557 19.422743055555554  29.947916666666668 21.2890625  C 28.16840277777778 23.155381944444443  27.278645833333332 25.499131944444443  27.278645833333332 28.3203125  C 27.278645833333332 31.25  28.135850694444446 33.60460069444444  29.850260416666668 35.384114583333336  C 31.56467013888889 37.16362847222222  33.87586805555556 38.05338541666667  36.78385416666667 38.05338541666667  C 41.23263888888889 38.05338541666667  44.12977430555556 35.98090277777778  45.47526041666667 31.8359375  L 40.98307291666667 31.8359375  C 40.74435763888889 32.57378472222222  40.228949652777786 33.15972222222222  39.43684895833333 33.59375  Z M 33.69140625 23.404947916666668  C 34.450954861111114 22.688802083333332  35.43836805555556 22.330729166666668  36.65364583333333 22.330729166666668  C 39.105902777777786 22.330729166666668  40.45138888888889 23.65451388888889  40.69010416666667 26.302083333333336  L 32.421875 26.302083333333336  C 32.50868055555556 25.086805555555557  32.93185763888889 24.12109375  33.69140625 23.404947916666668  Z M 31.380208333333332 17  L 31.380208333333332 14  L 41.76432291666667 14  L 41.76432291666667 17  L 31.380208333333332 17  Z " fill-rule="nonzero" fill="#ffffff" stroke="none" transform="matrix(1 0 0 1 458 4982 )" />
    </g>
  </defs>
  <g transform="matrix(1 0 0 1 -456 -4980 )">
    <use xlink:href="#widget20" filter="url(#filter19)" />
    <use xlink:href="#widget20" />
  </g>
</svg>