<?xml version="1.0" encoding="utf-8"?>
<svg version="1.1" xmlns:xlink="http://www.w3.org/1999/xlink" width="48px" height="48px" xmlns="http://www.w3.org/2000/svg">
  <defs>
    <filter x="287px" y="3748px" width="48px" height="48px" filterUnits="userSpaceOnUse" id="filter58">
      <feOffset dx="2" dy="2" in="SourceAlpha" result="shadowOffsetInner" />
      <feGaussianBlur stdDeviation="2" in="shadowOffsetInner" result="shadowGaussian" />
      <feComposite in2="shadowGaussian" operator="atop" in="SourceAlpha" result="shadowComposite" />
      <feColorMatrix type="matrix" values="0 0 0 0 0  0 0 0 0 0  0 0 0 0 0  0 0 0 0.3137254901960784 0  " in="shadowComposite" />
    </filter>
    <g id="widget59">
      <path d="M 13.151041666666668 27.86458333333333  C 13.307291666666668 27.986111111111107  13.428819444444446 28.00347222222222  13.515625 27.91666666666667  C 13.585069444444446 27.8125  13.559027777777779 27.69965277777778  13.4375 27.578125  C 13.281250000000002 27.45659722222222  13.159722222222223 27.439236111111107  13.072916666666668 27.52604166666667  C 13.003472222222223 27.63020833333333  13.029513888888891 27.743055555555554  13.151041666666668 27.86458333333333  Z M 12.786458333333332 27.1875  C 12.890625 27.118055555555554  12.890625 27.00520833333333  12.786458333333332 26.84895833333333  C 12.699652777777779 26.727430555555564  12.595486111111114 26.69270833333333  12.473958333333332 26.74479166666667  C 12.369791666666668 26.814236111111107  12.369791666666668 26.91840277777778  12.473958333333332 27.05729166666667  C 12.595486111111114 27.196180555555554  12.699652777777779 27.23958333333333  12.786458333333332 27.1875  Z M 11.484375 25.859375  C 11.623263888888891 25.89409722222222  11.701388888888891 25.876736111111107  11.71875 25.80729166666667  C 11.753472222222223 25.73784722222222  11.710069444444445 25.66840277777778  11.588541666666668 25.59895833333333  C 11.467013888888891 25.564236111111107  11.397569444444446 25.58159722222222  11.380208333333332 25.65104166666667  C 11.328125 25.73784722222222  11.362847222222223 25.80729166666667  11.484375 25.859375  Z M 11.979166666666668 26.35416666666667  C 12.083333333333332 26.45833333333333  12.178819444444445 26.475694444444436  12.265625 26.40625  C 12.300347222222223 26.388888888888886  12.313368055555555 26.349826388888886  12.3046875 26.2890625  C 12.296006944444445 26.228298611111107  12.265625 26.180555555555554  12.213541666666668 26.14583333333333  C 12.109375 26.024305555555554  12.022569444444445 25.998263888888886  11.953125 26.06770833333333  C 11.883680555555555 26.13715277777778  11.89236111111111 26.232638888888886  11.979166666666668 26.35416666666667  Z M 14.166666666666668 28.46354166666667  C 14.322916666666668 28.515625  14.435763888888891 28.48090277777778  14.505208333333332 28.359375  C 14.539930555555555 28.23784722222222  14.461805555555555 28.142361111111107  14.270833333333332 28.07291666666667  C 14.114583333333332 28.02083333333333  14.001736111111114 28.055555555555554  13.932291666666668 28.17708333333333  C 13.897569444444446 28.298611111111107  13.975694444444446 28.39409722222222  14.166666666666668 28.46354166666667  Z M 15.3125 28.64583333333333  C 15.503472222222223 28.64583333333333  15.598958333333332 28.576388888888886  15.598958333333332 28.4375  C 15.598958333333332 28.298611111111107  15.494791666666668 28.22916666666667  15.286458333333332 28.22916666666667  C 15.112847222222223 28.22916666666667  15.026041666666668 28.298611111111107  15.026041666666668 28.4375  C 15.026041666666668 28.576388888888886  15.121527777777779 28.64583333333333  15.3125 28.64583333333333  Z M 16.354166666666668 28.515625  C 16.52777777777778 28.48090277777778  16.614583333333332 28.39409722222222  16.614583333333332 28.25520833333333  C 16.579861111111114 28.133680555555554  16.46701388888889 28.09027777777778  16.276041666666668 28.125  C 16.085069444444446 28.15972222222222  16.006944444444446 28.23784722222222  16.041666666666668 28.359375  C 16.07638888888889 28.498263888888886  16.180555555555557 28.55034722222222  16.354166666666668 28.515625  Z M 30.78125 27.82552083333333  C 32.48263888888889 25.5078125  33.333333333333336 22.899305555555554  33.333333333333336 20  C 33.333333333333336 16.319444444444443  32.03125 13.177083333333336  29.427083333333336 10.572916666666664  C 26.822916666666664 7.96875  23.680555555555557 6.666666666666665  20 6.666666666666665  C 16.319444444444446 6.666666666666665  13.177083333333332 7.96875  10.572916666666668 10.572916666666664  C 7.96875 13.177083333333336  6.666666666666666 16.319444444444443  6.666666666666666 20  C 6.666666666666666 22.899305555555554  7.517361111111112 25.5078125  9.21875 27.82552083333333  C 10.920138888888891 30.143229166666664  13.107638888888891 31.753472222222218  15.78125 32.65625  C 16.09375 32.708333333333336  16.32378472222222 32.66493055555556  16.471354166666668 32.526041666666664  C 16.618923611111114 32.38715277777778  16.692708333333332 32.213541666666664  16.692708333333332 32.005208333333336  C 16.692708333333332 31.102430555555554  16.68402777777778 30.27777777777777  16.666666666666668 29.53125  C 16.5625 29.548611111111107  16.42795138888889 29.5703125  16.263020833333332 29.59635416666667  C 16.09809027777778 29.62239583333333  15.789930555555555 29.639756944444436  15.338541666666668 29.6484375  C 14.887152777777779 29.657118055555554  14.470486111111114 29.62239583333333  14.088541666666668 29.54427083333333  C 13.706597222222223 29.46614583333333  13.328993055555555 29.29253472222222  12.955729166666668 29.0234375  C 12.582465277777779 28.75434027777778  12.326388888888891 28.39409722222222  12.1875 27.94270833333333  C 11.788194444444445 26.91840277777778  11.293402777777779 26.27604166666667  10.703125 26.015625  C 10.668402777777779 25.998263888888886  10.629340277777779 25.967881944444436  10.5859375 25.92447916666667  L 10.377604166666668 25.71614583333333  C 10.377604166666668 25.71614583333333  10.316840277777779 25.633680555555554  10.1953125 25.46875  C 10.073784722222223 25.303819444444436  10.108506944444445 25.23871527777778  10.299479166666668 25.2734375  C 10.490451388888891 25.30815972222222  10.659722222222223 25.27777777777778  10.807291666666668 25.18229166666667  C 10.911458333333332 25.18229166666667  11.041666666666668 25.19965277777778  11.197916666666668 25.234375  C 11.354166666666668 25.26909722222222  11.614583333333332 25.40364583333333  11.979166666666668 25.63802083333333  C 12.34375 25.87239583333333  12.630208333333332 26.180555555555554  12.838541666666668 26.5625  C 13.116319444444445 27.048611111111107  13.441840277777779 27.413194444444436  13.815104166666668 27.65625  C 14.188368055555555 27.899305555555554  14.565972222222223 28.02083333333333  14.947916666666668 28.02083333333333  C 15.329861111111114 28.02083333333333  15.659722222222223 27.990451388888886  15.9375 27.9296875  C 16.21527777777778 27.868923611111107  16.475694444444446 27.78645833333333  16.71875 27.68229166666667  C 16.84027777777778 26.866319444444436  17.126736111111114 26.267361111111107  17.578125 25.88541666666667  C 16.727430555555557 25.78125  15.980902777777779 25.62065972222222  15.338541666666668 25.40364583333333  C 14.696180555555555 25.186631944444436  14.0625 24.84809027777778  13.4375 24.38802083333333  C 12.812500000000002 23.927951388888886  12.330729166666668 23.26822916666667  11.9921875 22.40885416666667  C 11.653645833333336 21.54947916666667  11.484375000000002 20.51215277777778  11.484375 19.296875  C 11.484375000000002 17.925347222222218  11.944444444444446 16.73611111111111  12.864583333333332 15.729166666666664  C 12.447916666666668 14.652777777777777  12.491319444444445 13.472222222222218  12.994791666666668 12.1875  C 13.324652777777779 12.083333333333336  13.797743055555555 12.1484375  14.4140625 12.3828125  C 15.030381944444446 12.6171875  15.555555555555555 12.87326388888889  15.989583333333332 13.151041666666664  L 16.666666666666668 13.567708333333336  C 17.673611111111114 13.272569444444443  18.78472222222222 13.125  20 13.125  C 21.215277777777782 13.125  22.32638888888889 13.272569444444443  23.333333333333336 13.567708333333336  C 23.524305555555557 13.446180555555554  23.77170138888889 13.289930555555554  24.075520833333336 13.098958333333336  C 24.379340277777782 12.907986111111107  24.86111111111111 12.682291666666664  25.520833333333336 12.421875  C 26.180555555555557 12.161458333333336  26.67534722222223 12.083333333333336  27.005208333333336 12.1875  C 27.508680555555557 13.472222222222218  27.552083333333336 14.652777777777777  27.135416666666664 15.729166666666664  C 28.055555555555557 16.73611111111111  28.515625 17.925347222222218  28.515625 19.296875  C 28.515625 20.28645833333333  28.39409722222223 21.15885416666667  28.151041666666664 21.9140625  C 27.90798611111111 22.66927083333333  27.599826388888893 23.27690972222222  27.2265625 23.73697916666667  C 26.85329861111111 24.197048611111107  26.38888888888889 24.58333333333333  25.833333333333336 24.89583333333333  C 25.277777777777782 25.20833333333333  24.735243055555557 25.43402777777778  24.205729166666664 25.57291666666667  C 23.676215277777782 25.711805555555554  23.08159722222222 25.81597222222222  22.421875 25.88541666666667  C 23.02951388888889 26.423611111111107  23.333333333333336 27.248263888888886  23.333333333333336 28.359375  C 23.333333333333336 29.053819444444436  23.328993055555557 29.826388888888886  23.3203125 30.677083333333336  C 23.311631944444446 31.527777777777782  23.307291666666664 31.97048611111111  23.307291666666664 32.005208333333336  C 23.307291666666664 32.213541666666664  23.38107638888889 32.38715277777778  23.528645833333336 32.526041666666664  C 23.676215277777782 32.66493055555556  23.906250000000004 32.708333333333336  24.21875 32.65625  C 26.89236111111111 31.753472222222218  29.07986111111111 30.143229166666664  30.78125 27.82552083333333  Z M 37.799479166666664 2.200520833333335  C 39.26649305555556 3.6675347222222188  40 5.434027777777772  40 7.5  L 40 32.5  C 40 34.56597222222222  39.26649305555556 36.33246527777778  37.799479166666664 37.799479166666664  C 36.33246527777778 39.26649305555556  34.56597222222223 40  32.5 40  L 7.5 40  C 5.434027777777778 40  3.6675347222222228 39.26649305555556  2.2005208333333335 37.799479166666664  C 0.7335069444444443 36.33246527777778  0 34.56597222222222  0 32.5  L 0 7.5  C 0 5.434027777777772  0.7335069444444443 3.6675347222222188  2.2005208333333335 2.200520833333335  C 3.6675347222222228 0.733506944444442  5.434027777777778 0  7.5 0  L 32.5 0  C 34.56597222222223 0  36.33246527777778 0.733506944444442  37.799479166666664 2.200520833333335  Z " fill-rule="nonzero" fill="#ffffff" stroke="none" transform="matrix(1 0 0 1 289 3750 )" />
    </g>
  </defs>
  <g transform="matrix(1 0 0 1 -287 -3748 )">
    <use xlink:href="#widget59" filter="url(#filter58)" />
    <use xlink:href="#widget59" />
  </g>
</svg>