<?xml version="1.0" encoding="utf-8"?>
<svg version="1.1" xmlns:xlink="http://www.w3.org/1999/xlink" width="48px" height="48px" xmlns="http://www.w3.org/2000/svg">
  <defs>
    <filter x="512px" y="3748px" width="48px" height="48px" filterUnits="userSpaceOnUse" id="filter64">
      <feOffset dx="2" dy="2" in="SourceAlpha" result="shadowOffsetInner" />
      <feGaussianBlur stdDeviation="2" in="shadowOffsetInner" result="shadowGaussian" />
      <feComposite in2="shadowGaussian" operator="atop" in="SourceAlpha" result="shadowComposite" />
      <feColorMatrix type="matrix" values="0 0 0 0 0  0 0 0 0 0  0 0 0 0 0  0 0 0 0.3137254901960784 0  " in="shadowComposite" />
    </filter>
    <g id="widget65">
      <path d="M 6.171875 15.416666666666664  L 6.171875 33.489583333333336  L 12.1875 33.489583333333336  L 12.1875 15.416666666666664  L 6.171875 15.416666666666664  Z M 11.640625 12.0703125  C 12.265625000000002 11.471354166666664  12.578125000000002 10.729166666666664  12.578125 9.84375  C 12.560763888888891 8.940972222222218  12.248263888888891 8.194444444444443  11.640625 7.604166666666665  C 11.03298611111111 7.013888888888888  10.225694444444445 6.71875  9.21875 6.71875  C 8.211805555555557 6.71875  7.391493055555557 7.013888888888888  6.7578125 7.604166666666665  C 6.1241319444444455 8.194444444444443  5.807291666666666 8.940972222222218  5.807291666666666 9.84375  C 5.807291666666666 10.729166666666664  6.115451388888889 11.471354166666664  6.731770833333334 12.0703125  C 7.348090277777778 12.669270833333336  8.151041666666666 12.96875  9.140625 12.96875  L 9.166666666666666 12.96875  C 10.190972222222223 12.96875  11.015625000000002 12.669270833333336  11.640625 12.0703125  Z M 27.8125 23.828125  L 27.8125 33.489583333333336  L 33.828125 33.489583333333336  L 33.828125 23.125  C 33.828125 20.451388888888886  33.19444444444444 18.428819444444443  31.927083333333336 17.057291666666664  C 30.65972222222223 15.68576388888889  28.984375 15  26.901041666666664 15  C 24.539930555555557 15  22.725694444444446 16.015625  21.458333333333336 18.046875  L 21.510416666666664 18.046875  L 21.510416666666664 15.416666666666664  L 15.494791666666668 15.416666666666664  C 15.546875 16.5625  15.546875 22.586805555555554  15.494791666666668 33.489583333333336  L 21 33.489583333333336  L 21 23.38541666666667  C 21.510416666666664 22.725694444444446  21.571180555555557 22.23958333333333  21.692708333333336 21.92708333333333  C 21.953125 21.319444444444446  22.34375 20.802951388888886  22.864583333333336 20.37760416666667  C 23.385416666666664 19.952256944444443  24.027777777777782 19.739583333333336  24.791666666666664 19.739583333333336  C 26.805555555555557 19.739583333333336  27.8125 21.102430555555554  27.8125 23.828125  Z M 37.799479166666664 2.200520833333335  C 39.26649305555556 3.6675347222222188  40 5.434027777777772  40 7.5  L 40 32.5  C 40 34.56597222222222  39.26649305555556 36.33246527777778  37.799479166666664 37.799479166666664  C 36.33246527777778 39.26649305555556  34.56597222222223 40  32.5 40  L 7.5 40  C 5.434027777777778 40  3.6675347222222228 39.26649305555556  2.2005208333333335 37.799479166666664  C 0.7335069444444443 36.33246527777778  0 34.56597222222222  0 32.5  L 0 7.5  C 0 5.434027777777772  0.7335069444444443 3.6675347222222188  2.2005208333333335 2.200520833333335  C 3.6675347222222228 0.733506944444442  5.434027777777778 0  7.5 0  L 32.5 0  C 34.56597222222223 0  36.33246527777778 0.733506944444442  37.799479166666664 2.200520833333335  Z " fill-rule="nonzero" fill="#ffffff" stroke="none" transform="matrix(1 0 0 1 514 3750 )" />
    </g>
  </defs>
  <g transform="matrix(1 0 0 1 -512 -3748 )">
    <use xlink:href="#widget65" filter="url(#filter64)" />
    <use xlink:href="#widget65" />
  </g>
</svg>