<?xml version="1.0" encoding="utf-8"?>
<svg version="1.1" xmlns:xlink="http://www.w3.org/1999/xlink" width="137px" height="200px" xmlns="http://www.w3.org/2000/svg">
  <g transform="matrix(1 0 0 1 -572 -166 )">
    <path d="M 111.17441838736802 21.686078757626206  C 110.86380142639133 21.37548530227399  109.4438381762123 19.645036051026093  108.02387492603319 17.82584581253468  C 105.09520072253883 14.231835829173633  96.79729047930486 5.934553521907939  92.58177458033573 2.4292845257903712  C 89.83059578311376 0.1663893510815279  89.29810956429662 -0.14420410427064528  89.29810956429662 0.5213533000554789  C 89.29810956429662 0.6988352745424385  89.87496963468186 2.7398779811425444  90.58495125977139 5.047143649473128  C 93.29175620542527 14.009983361064895  95.11108411971722 21.730449251247947  95.77669189323866 27.010537992235186  C 95.86543959637484 27.72046589018305  96.2204304089196 30.33832501386579  96.6197950730325 32.77870216306156  C 97.4628982528263 38.50249584026624  97.4628982528263 49.06267332224073  96.6197950730325 53.89905712701055  C 95.59919648696629 59.6228508042152  95.51044878383009 60.15529672767611  95.02233641658103 62.063227953411015  C 93.82424242424241 66.72212978369387  90.85119436917996 74.17637271214643  88.94311875175184 77.10482529118138  C 88.27751097823042 78.12534664448145  87.39003394686848 79.5895729339989  86.94629543118752 80.43261231281197  C 86.50255691550656 81.23128119800332  85.9700706966894 82.11869107043816  85.74820143884894 82.42928452579038  C 85.52633218100843 82.6955074875208  83.5738827120122 85.09151414309486  81.44393783674359 87.79811425402107  C 79.35836681304306 90.46034387132558  75.67533713289107 94.67554076539103  73.36789685135008 97.11591791458682  C 68.48677317885952 102.21852468108708  60.49947989660218 111.22573488630061  58.2364134666293 114.19855795895731  C 57.39331028683546 115.30782029950085  56.55020710704164 116.37271214642264  56.32833784920114 116.6389351081531  C 54.81962689588589 118.54686633388798  48.65166152792052 129.59511924570162  48.87353078576099 130.08319467554077  C 48.9179046373291 130.12756516916252  48.60728767635244 130.8818635607321  48.25229686380765 131.76927343316694  C 47.897306051262895 132.65668330560177  47.58668909028621 133.67720465890184  47.58668909028621 134.03216860787578  C 47.58668909028621 134.3871325568497  47.36481983244573 135.05268996117584  47.14295057460526 135.54076539101501  C 46.432968949515704 136.78313921242375  45.101753402472816 144.68108707709376  44.87988414463235 148.40820854132005  C 44.52489333208758 155.55185801442045  45.01300569933664 166.02329450915144  45.81173502756237 168.7742651136994  C 46.07797813697095 169.6173044925125  46.344221246379526 171.30338325013867  46.477342801083815 172.45701608430397  C 46.69921205892429 174.76428175263453  49.05102619203338 184.7920133111481  50.02725092653149 187.6317249029395  C 50.33786788750817 188.60787576261788  51.358466473574374 191.7581808097615  52.2903173565044 194.64226289517478  C 53.17779438786632 197.48197448696615  54.06527141922826 199.8336106489185  54.24276682550065 199.8336106489185  C 54.37588838020492 199.8336106489185  54.908374599022075 198.2806433721575  55.44086081783922 196.37271214642266  C 58.32516116976548 185.501941209096  63.9606403189137 174.63117027176926  72.21417671057958 163.89351081530782  C 77.76090815659163 156.66112035496397  82.50891027437788 151.4697726012202  97.72914136223488 136.1619523017194  C 115.34556043476908 118.36938435940101  119.20608552119342 114.19855795895731  123.37722756859448 108.43039378813091  C 124.84156467034163 106.34498058790905  126.4833971783612 104.12645590682197  126.97150954561027 103.50526899611758  C 128.7908374599022 101.10926234054357  133.27259646827994 92.01331114808654  134.33756890591422 88.46367165834722  C 136.11252296863805 82.65113699389907  136.46751378118284 80.6544647809207  136.73375689059142 74.04326123128122  C 136.91125229686384 69.25124792013311  136.8225045937276 65.96783139212428  136.46751378118284 63.92678868552414  C 136.15689682020613 62.2850804215197  135.8019060076614 60.110926234054375  135.6687844529571 59.13477537437605  C 135.35816749198045 57.22684414864116  132.60698869475846 48.44148641153634  131.89700706966894 47.24348308374932  C 131.63076396026037 46.75540765391017  131.49764240555606 47.731558513588475  131.45326855398798 50.34941763727123  C 131.45326855398798 57.80366056572382  129.45644523342366 66.81087077093733  126.79401413933789 71.69162506932892  C 126.4390233267931 72.3128119800333  126.12840636581643 73.06711037160292  126.12840636581643 73.2889628397116  C 126.12840636581643 73.77703826955076  122.9778629044816 79.23460898502496  121.20290884175775 81.808097615086  C 116.89864523965245 88.06433721575154  108.24574418387368 97.38214087631725  99.9478339406397 104.5701608430394  C 91.64992369740571 111.80255130338325  78.51526363324925 124.18191902384916  75.80845868759536 127.33222407099281  C 74.34412158584821 129.018302828619  72.83541063253293 130.70438158624515  72.43604596842006 131.0593455352191  C 71.41544738235386 132.03549639489742  67.5549222959295 137.09373266777592  65.69122053006946 139.9334442595674  C 63.916266467345615 142.68441486411538  60.89884456071508 147.87576261785912  60.89884456071508 148.18635607321133  C 60.89884456071508 148.2750970604548  60.45510604503411 149.3399889073766  59.87824597464884 150.4936217415419  C 59.301385904263604 151.69162506932892  58.2807873181974 154.39822518025514  57.61517954467596 156.52800887409876  C 56.90519791958641 158.65779256794232  56.283963997633066 160.29950083194677  56.15084244292878 160.16638935108156  C 55.39648696627115 159.4564614531337  57.97017035722072 149.07376594564616  60.45510604503411 142.8175263449806  C 61.12071381855555 141.08707709373266  65.38060356909277 132.74542429284526  66.1793328973185 131.59179145868  C 66.62307141299948 130.9262340543539  67.5549222959295 129.50637825845814  68.26490392101903 128.39711591791462  C 69.77361487433431 126.0454797559623  73.90038307016724 120.32168607875764  74.74348624996108 119.47864669994456  C 75.05410321093777 119.1236827509706  76.11907564857205 117.8369384359401  77.09530038307018 116.6389351081531  C 79.1364975552026 114.0654464780921  91.51680214270141 100.53244592346093  97.99538447164346 93.78813089295622  C 103.36462051138311 88.19744869661676  108.77823040269084 81.85246810870773  112.19501697343422 77.14919578480311  C 113.21561555950045 75.72933998890738  115.92242050515432 71.5585135884637  115.92242050515432 71.38103161397673  C 115.92242050515432 71.29229062673322  116.49928057553954 70.22739877981144  117.16488834906099 69.07376594564614  C 121.7353950605749 61.308929561841396  123.42160142016257 50.83749306711039  121.46915195116631 42.318358291736004  C 120.58167491980444 38.325013865779255  118.09673923199102 32.0687742651137  116.32178516926719 29.450915141430944  C 115.92242050515432 28.82972823072656  114.72432651281571 26.96616749861346  113.65935407518141 25.280088740987257  C 112.59438163754713 23.594009983361097  111.48503534834471 21.99667221297837  111.17441838736802 21.686078757626206  Z M 69.1672077922078 87.56747011561828  C 69.38961038961038 87.34485596707819  60.0487012987013 87.16676464824614  46.66006493506492 88  L 23.70811688311689 88  L 21.88441558441558 88.45792670977858  C 20.905844155844154 89.21481481481484  19.971753246753238 90.19431706839114  19.79383116883117 90.68406819517934  C 19.526948051948054 91.53000195963159  19.26006493506494 91.57452478933962  17.125 91.35191064079955  C 15.612662337662336 91.17381932196749  13.611038961038957 91.30738781109153  11.387012987012985 91.79713893787968  C 6.093831168831164 92.9992553399961  3.02467532467533 95.04730550656477  0.9340909090909065 98.87626886145407  C -0.1334415584415635 100.79075053889869  -0.17792207792208045 100.79075053889869  4.04772727272727 101.14693317656283  C 9.207467532467527 101.636684303351  12.943831168831165 103.23950617283953  17.925649350649355 107.15751518714482  C 20.283116883116893 109.02747403488145  25.7987012987013 115.3942386831276  25.7987012987013 116.24017244757985  C 25.7987012987013 116.3737409367039  26.37694805194806 117.35324319028027  27.08863636363635 118.4217911032726  C 28.334090909090904 120.29174995100922  28.645454545454538 120.91506956692142  30.691558441558442 125.90162649421912  C 31.22532467532467 127.23731138545955  31.84805194805196 128.75108759553206  32.07045454545455 129.2408387223202  C 32.82662337662338 131.06627474034883  35.05064935064935 138.50158730158734  35.40649350649352 140.505114638448  C 35.53993506493505 141.0839114246522  35.89577922077922 142.6422104644327  36.25162337662338 143.93337252596515  C 36.56298701298701 145.2690574172056  37.00779220779221 147.27258475406626  37.1857142857143 148.38565549676662  C 37.63051948051949 151.41320791691163  37.941883116883126 150.52275132275133  38.03084415584416 145.84785420340978  C 38.25324675324675 138.63515579071137  40.566233766233765 127.3263570448756  43.1461038961039 121.22672937487755  C 43.457467532467525 120.46984126984128  43.857792207792215 119.49033901626495  44.03571428571429 119.00058788947676  C 44.65844155844155 117.17515187144818  47.81655844155844 111.12004703115817  48.3948051948052 110.67481873407803  C 48.6616883116883 110.40768175582994  48.92857142857143 110.00697628845779  48.92857142857143 109.78436213991769  C 48.92857142857143 109.02747403488145  52.97629870129871 103.55116598079562  56.44577922077921 99.6331569664903  C 58.26948051948052 97.5405839702136  61.78344155844155 94.06780325298844  64.22987012987012 91.88618459729571  C 66.72077922077922 89.74908877131101  68.90032467532467 87.79008426415834  69.1672077922078 87.56747011561828  Z M 98.39474913575634 30.560177481974506  C 98.17287987791586 27.498613422074314  97.19665514341773 22.351636161952328  95.3329533775577 14.364947310038852  C 95.11108411971722 13.433166943982252  93.29175620542527 6.777592900721023  92.98113924444861 5.757071547420992  C 92.62614843190384 4.603438713255703  97.32977669812202 8.685524126455915  102.29964807374878 13.921242373821416  C 118.89546856021676 31.314475873544094  123.73221838113923 47.19911259012758  117.51987916160577 63.83804769828066  C 114.14746644243048 72.93399889073766  105.62768694135602 83.76039933444261  84.86072440748698 105.54631170271772  C 82.28704101653744 108.2085413200222  79.1364975552026 111.7138103161398  77.8052820081597 113.26677759290074  C 76.51844031268492 114.81974486966169  75.18722476564201 116.41708264004438  74.83223395309726 116.72767609539656  C 74.52161699212057 117.08264004437048  73.27914914821389 118.59123682750973  72.1254290074434 120.09983361064893  C 70.97170886667288 121.60843039378815  69.9067364290386 122.9395452024404  69.72924102276619 123.07265668330561  C 69.46299791335763 123.29450915141432  68.7530162882681 124.35940099833611  65.69122053006946 129.018302828619  C 63.73877106107322 131.99112590127567  60.588227599738396 137.75929007210206  59.345759755831686 140.5990016638935  C 58.724525833878346 142.063227953411  58.01454420878882 143.6605657237937  57.79267495094833 144.14864115363287  C 56.68332866174593 146.7665002773156  54.864000747453964 153.42207432057683  54.50900993490921 156.57237936772046  C 54.33151452863684 157.7703826955075  54.109645270796335 159.41209095951194  53.976523716092046 160.12201885745984  C 53.79902830981968 161.18691070438157  53.976523716092046 161.7193566278425  54.864000747453964 162.5180255130338  L 56.017720888224495 163.58291735995564  L 57.038319474290695 162.6511369938991  C 57.57080569310785 162.16306156405992  58.36953502133359 160.4769828064337  58.857647388582635 158.9240155296728  C 59.301385904263604 157.3710482529118  60.05574138092123 155.28563505268997  60.49947989660218 154.26511369938993  C 60.98759226385126 153.2002218524681  61.342583076396025 152.26844148641155  61.342583076396025 152.13533000554634  C 61.342583076396025 151.73599556295065  64.36000498302657 145.61286744315032  65.55809897536517 143.70493621741542  C 66.1349590457504 142.7287853577371  67.02243607711235 141.22018857459787  67.5549222959295 140.37714919578482  C 68.70864243669996 138.42484747642817  71.81481204646673 134.12090959511923  72.30292441371577 133.76594564614533  C 72.48041981998816 133.6328341652801  73.81163536703106 132.07986688851915  75.18722476564201 130.39378813089297  C 78.11589896913638 126.75540765391015  85.792575290417 119.16805324459236  90.85119436917996 114.86411536328343  C 104.25209754274502 103.41652800887411  120.5373010682363 87.0438158624515  122.22350742782398 83.31669439822518  C 122.48975053723257 82.73987798114256  122.84474134977731 82.25180255130337  123.02223675604971 82.25180255130337  C 123.155358310754 82.25180255130337  123.77659223270734 81.40876317249031  124.3534523030926 80.34387132556851  C 124.93031237347783 79.32334997226846  125.55154629543121 78.39156960621189  125.72904170170357 78.25845812534665  C 126.17278021738453 77.90349417637273  129.98893145224082 69.87243483083749  130.7432869288984 67.56516916250695  C 131.1426515930113 66.45590682196341  131.80825936653275 63.971159179145864  132.2963717337818 62.01885745978926  C 133.09510106200756 58.73544093178038  133.1394749135756 58.60232945091515  133.58321342925663 59.711591791458694  C 134.9144289762995 63.08374930671107  135.22504593727618 77.90349417637273  134.02695194493757 82.02995008319469  C 133.80508268709707 82.73987798114256  133.22822261671183 84.86966167498615  132.74011024946276 86.68885191347758  C 131.85263321810083 90.01663893510818  127.37087420972311 99.73377703826955  125.55154629543121 102.39600665557408  C 118.22986078669533 112.91181364392682  115.47868198947334 116.06211869107045  99.06035690927777 132.43483083749308  C 81.71018094615216 149.78369384359402  72.48041981998816 159.94453688297284  67.73241770220187 166.99944536882973  C 67.15555763181663 167.84248474764283  66.1349590457504 169.35108153078207  65.46935127222898 170.32723239046035  C 63.51690180323273 173.0338325013866  59.833872123080766 179.42318358291737  58.63577813074217 182.08541320022186  C 56.77207636488212 186.12312811980033  56.017720888224495 187.9866888519135  55.13024385686257 190.648918469218  C 54.553383786477305 192.29062673322244  54.06527141922826 193.57737104825296  53.976523716092046 193.48863006100945  C 53.75465445825158 193.26677759290075  50.78160640318914 182.88408208541327  50.51536329378057 181.33111480865227  C 50.33786788750817 180.53244592346093  50.02725092653149 179.37881308929568  49.80538166869102 178.75762617859124  C 49.58351241085054 178.13643926788689  49.27289544987386 176.8053244592346  49.13977389516957 175.87354409317808  C 49.05102619203338 174.94176372712147  48.74040923105673 173.2556849694953  48.47416612164815 172.1907931225735  C 47.67543679342241 168.5524126455907  46.69921205892429 158.83527454242932  46.69921205892429 154.26511369938993  C 46.69921205892429 150.36051026067668  46.92108131676476 147.69828064337213  47.8085583481267 141.44204104270662  C 48.51853997321623 136.56128674431505  51.62470958298295 127.95341098169717  54.37588838020492 123.29450915141432  C 54.6865053411816 122.80643372157517  55.48523466940733 121.38657792567946  56.19521629449686 120.18857459789243  C 56.90519791958641 118.99057127010539  57.659553396244036 117.79256794231836  57.83704880251643 117.52634498058792  C 62.89566788127939 111.04825291181366  66.80056681927185 106.43372157515256  70.39484879628765 102.66222961730449  C 88.01126786882182 84.33721575152524  95.06671026814912 73.06711037160292  97.90663676850728 58.73544093178038  C 99.28222616711824 51.8136439267887  99.68159083123112 44.53688297282307  99.06035690927777 37.97004991680534  C 98.74973994830108 34.64226289517472  98.4834968388925 31.27010537992237  98.39474913575634 30.560177481974506  Z M 19.48246753246754 93.84518910444835  L 21.128246753246753 91.93070742700375  C 22.862987012987002 89.92718009014308  23.75259740259739 89.39290613364687  25.131493506493506 89.61552028218695  C 25.62077922077923 89.704565941603  34.51688311688313 89.79361160101902  44.92532467532468 90  L 63.82954545454545 90  L 58.44740259740259 95.26991965510486  C 52.97629870129871 100.83527336860669  50.57435064935065 103.77378012933569  47.19383116883118 108.98295120517345  C 45.459090909090904 111.65432098765436  42.078571428571436 118.28822261414855  41.32240259740259 120.33627278071724  C 41.18896103896105 120.8260239075054  40.74415584415583 122.02814030962182  40.343831168831166 123.00764256319812  C 39.498701298701306 125.27830687830689  38.20876623376622 129.77511267881638  37.941883116883126 131.24436605918092  C 37.85292207792209 131.86768567509313  37.49707792207793 133.3369390554576  37.1857142857143 134.583578287282  L 36.60746753246754 136.80971977268277  L 35.67337662337662 133.82669018224576  C 33.36038961038961 126.48042328042328  30.691558441558442 120.51436409954933  27.40000000000001 115.52780717225161  C 23.174350649350657 109.02747403488145  14.100324675324671 101.19145600627084  9.874675324675321 100.30099941211054  C 9.429870129870125 100.2119537526945  8.540259740259735 99.94481677444644  7.873051948051943 99.67767979619833  C 7.161363636363634 99.41054281795024  5.960389610389614 99.18792866941017  5.11525974025974 99.18792866941017  C 3.02467532467533 99.18792866941017  2.8912337662337664 98.65365471291399  4.581493506493512 96.96178718400942  C 6.805519480519486 94.8246913580247  10.0525974025974 93.84518910444835  15.167857142857141 93.84518910444835  L 19.48246753246754 93.84518910444835  Z " fill-rule="nonzero" fill="#ffffff" stroke="none" transform="matrix(1 0 0 1 572 166 )" />
  </g>
</svg>