<?xml version="1.0" encoding="utf-8"?>
<svg version="1.1" xmlns:xlink="http://www.w3.org/1999/xlink" width="154px" height="225px" xmlns="http://www.w3.org/2000/svg">
  <g transform="matrix(1 0 0 1 -606 -165 )">
    <path d="M 124.96978417266187 24.39683860232948  C 124.62062350119902 24.047420965058237  123.02446043165469 22.100665557404355  121.4282973621103 20.054076539101516  C 118.13621103117505 16.010815307820337  108.80863309352517 6.676372712146431  104.07002398081535 2.7329450915141678  C 100.97745803357314 0.18718801996671885  100.37889688249402 -0.16222961730447594  100.37889688249402 0.5865224625624137  C 100.37889688249402 0.7861896838602433  101.0273381294964 3.0823627287853625  101.82541966426857 5.678036605657269  C 104.86810551558754 15.761231281198008  106.91318944844124 24.44675540765394  107.66139088729017 30.38685524126458  C 107.76115107913668 31.18552412645593  108.16019184652276 34.13061564059902  108.60911270983216 36.87603993344426  C 109.5568345323741 43.31530782029952  109.5568345323741 55.195507487520814  108.60911270983216 60.63643926788687  C 107.46187050359714 67.0757071547421  107.3621103117506 67.67470881863562  106.81342925659473 69.82113144758739  C 105.46666666666667 75.0623960066556  102.12470023980813 83.44841930116473  99.9798561151079 86.74292845257906  C 99.23165467625901 87.89101497504163  98.23405275779376 89.53826955074877  97.73525179856117 90.48668885191347  C 97.23645083932854 91.38519134775373  96.6378896882494 92.38352745424294  96.3884892086331 92.73294509151418  C 96.13908872901678 93.0324459234609  93.94436450839328 95.72795341098171  91.55011990407672 98.77287853577371  C 89.20575539568345 101.76788685524127  85.06570743405274 106.50998336106491  82.47194244604316 109.25540765391017  C 76.98513189448443 114.99584026622296  68.00671462829735 125.12895174708818  65.46282973621103 128.47337770382697  C 64.51510791366906 129.72129783693845  63.567386091127105 130.91930116472548  63.31798561151077 131.21880199667225  C 61.622062350119904 133.36522462562397  54.68872901678657 145.79450915141433  54.938129496402865 146.34359400998338  C 54.988009592326144 146.39351081530785  54.638848920863325 147.24209650582364  54.23980815347721 148.24043261231282  C 53.84076738609113 149.23876871880202  53.49160671462829 150.38685524126458  53.49160671462829 150.78618968386024  C 53.49160671462829 151.18552412645593  53.24220623501199 151.9342762063228  52.992805755395686 152.48336106489188  C 52.19472422062349 153.88103161397672  50.69832134292565 162.76622296173048  50.448920863309354 166.95923460898504  C 50.049880095923264 174.99584026622298  50.59856115107914 186.7762063227954  51.49640287769785 189.87104825291183  C 51.795683453237416 190.81946755407654  52.094964028776985 192.71630615640598  52.24460431654677 194.01414309484196  C 52.49400479616307 196.60981697171383  55.137649880095914 207.89101497504163  56.235011990407656 211.08569051580696  C 56.5841726618705 212.1838602329451  57.7314148681055 215.72795341098168  58.778896882493996 218.9725457570716  C 59.77649880095922 222.16722129783693  60.77410071942447 224.8128119800333  60.973621103117516 224.8128119800333  C 61.12326139088728 224.8128119800333  61.72182254196642 223.0657237936772  62.32038369304555 220.91930116472548  C 65.56258992805755 208.689683860233  71.89736211031175 196.4600665557404  81.17505995203835 184.38019966722132  C 87.41007194244605 176.24376039933446  92.747242206235 170.40349417637273  109.85611510791367 153.1821963394343  C 129.65851318944846 133.16555740432614  133.99808153477215 128.47337770382697  138.68681055155875 121.98419301164728  C 140.33285371702635 119.63810316139768  142.17841726618704 117.14226289517471  142.72709832134294 116.44342762063228  C 144.77218225419665 113.7479201331115  149.81007194244606 103.51497504159735  151.0071942446043 99.52163061564062  C 153.00239808153475 92.98252911813645  153.40143884892086 90.7362728785358  153.70071942446043 83.29866888519138  C 153.90023980815351 77.90765391014975  153.80047961630692 74.21381031613981  153.40143884892086 71.91763727121466  C 153.052278177458 70.07071547420966  152.65323741007194 67.62479201331116  152.50359712230215 66.52662229617306  C 152.15443645083934 64.3801996672213  149.0618705035971 54.49667221297838  148.26378896882494 53.14891846921799  C 147.96450839328537 52.59983361064894  147.8148681055156 53.698003327787035  147.76498800959232 56.643094841930136  C 147.76498800959232 65.0291181364393  145.52038369304557 75.16222961730449  142.52757793764988 80.65307820299503  C 142.12853717026377 81.35191347753747  141.77937649880096 82.20049916805328  141.77937649880096 82.45008319467556  C 141.77937649880096 82.9991680532446  138.2378896882494 89.13893510815308  136.24268585131892 92.03410981697175  C 131.4043165467626 99.07237936772049  121.67769784172663 109.55490848585691  112.35011990407673 117.64143094841933  C 103.02254196642686 125.77787021630617  88.25803357314149 139.7046589018303  85.21534772182252 143.2487520798669  C 83.56930455635492 145.14559068219637  81.87338129496402 147.0424292845258  81.42446043165467 147.4417637271215  C 80.27721822541966 148.5399334442596  75.93764988009593 154.23044925124793  73.84268585131895 157.42512479201332  C 71.8474820143885 160.5199667221298  68.45563549160673 166.36023294509152  68.45563549160673 166.70965058236274  C 68.45563549160673 166.80948419301166  67.9568345323741 168.0074875207987  67.3083932853717 169.3053244592346  C 66.65995203836931 170.65307820299503  65.5127098321343 173.69800332778703  64.76450839328538 176.09400998336108  C 63.966426858513195 178.49001663893512  63.268105515587536 180.3369384359401  63.118465227817744 180.18718801996675  C 62.270503597122314 179.3885191347754  65.16354916067147 167.70798668885195  67.9568345323741 160.66971713810318  C 68.70503597122303 158.72296173044924  73.4935251798561 149.3386023294509  74.39136690647481 148.04076539101501  C 74.89016786570744 147.2920133111481  75.93764988009593 145.69467554076542  76.7357314148681 144.44675540765394  C 78.431654676259 141.8011647254576  83.0705035971223 135.36189683860235  84.01822541966428 134.41347753743764  C 84.36738609112712 134.01414309484193  85.56450839328537 132.56655574043262  86.66187050359713 131.21880199667225  C 88.95635491606714 128.3236272878536  102.87290167865706 113.09900166389355  110.15539568345324 105.51164725457573  C 116.19088729016786 99.22212978369384  122.27625899280577 92.0840266222962  126.11702637889687 86.79284525790351  C 127.2642685851319 85.19550748752081  130.30695443645084 80.50332778702165  130.30695443645084 80.30366056572382  C 130.30695443645084 80.20382695507487  130.95539568345322 79.00582362728787  131.70359712230214 77.70798668885192  C 136.84124700239806 68.97254575707157  138.73669064748202 57.19217970049918  136.5419664268585 47.608153078203  C 135.5443645083933 43.115640599001665  132.75107913669063 36.077371048252914  130.7558752997602 33.13227953410981  C 130.30695443645084 32.43344425956738  128.96019184652278 30.33693843594014  127.7630695443645 28.440099833610663  C 126.56594724220626 26.543261231281235  125.3189448441247 24.74625623960067  124.96978417266187 24.39683860232948  Z M 77.75 98.51340388007057  C 77.99999999999999 98.26296296296297  67.5 98.06261022927691  52.44999999999999 98  L 26.650000000000006 98  L 24.599999999999994 99.5151675485009  C 23.5 100.3666666666667  22.44999999999999 101.46860670194005  22.25 102.01957671957675  C 21.95 102.97125220458554  21.650000000000006 103.02134038800708  19.25 102.77089947089948  C 17.549999999999997 102.57054673721342  15.299999999999997 102.72081128747797  12.799999999999997 103.27178130511464  C 6.849999999999995 104.62416225749561  3.400000000000006 106.92821869488537  1.0499999999999972 111.23580246913582  C -0.15000000000000568 113.38959435626104  -0.20000000000000284 113.38959435626104  4.549999999999997 113.79029982363318  C 10.349999999999994 114.34126984126988  14.549999999999997 116.14444444444446  20.150000000000006 120.55220458553792  C 22.80000000000001 122.65590828924162  29 129.81851851851854  29 130.77019400352734  C 29 130.9204585537919  29.65000000000001 132.0223985890653  30.449999999999985 133.22451499118168  C 31.849999999999994 135.32821869488538  32.19999999999999 136.0294532627866  34.5 141.6393298059965  C 35.099999999999994 143.141975308642  35.80000000000001 144.84497354497356  36.05000000000001 145.39594356261026  C 36.900000000000006 147.44955908289245  39.400000000000006 155.81428571428575  39.80000000000001 158.068253968254  C 39.94999999999999 158.71940035273371  40.349999999999994 160.4724867724868  40.75 161.9250440917108  C 41.099999999999994 163.42768959435628  41.599999999999994 165.68165784832453  41.80000000000001 166.93386243386243  C 42.30000000000001 170.3398589065256  42.650000000000006 169.33809523809526  42.75 164.078835978836  C 43 155.9645502645503  45.6 143.24215167548505  48.5 136.38007054673724  C 48.849999999999994 135.52857142857144  49.30000000000001 134.42663139329807  49.50000000000001 133.87566137566137  C 50.19999999999999 131.8220458553792  53.75 125.01005291005293  54.40000000000001 124.50917107583778  C 54.69999999999999 124.20864197530868  55 123.75784832451501  55 123.5074074074074  C 55 122.65590828924162  59.55000000000001 116.49506172839506  63.44999999999999 112.0873015873016  C 65.5 109.7331569664903  69.44999999999999 105.826278659612  72.19999999999999 103.37195767195769  C 75 100.96772486772488  77.44999999999999 98.76384479717814  77.75 98.51340388007057  Z M 110.60431654676259 34.38019966722132  C 110.35491606714629 30.9359400998336  109.25755395683453 25.14559068219637  107.16258992805757 16.16056572379371  C 106.91318944844124 15.112312811980035  104.86810551558754 7.624792013311151  104.51894484412472 6.476705490848616  C 104.11990407673864 5.178868552412666  109.40719424460431 9.771214642262905  114.99376498800959 15.661397670549093  C 133.64892086330934 35.22878535773711  139.08585131894483 53.09900166389352  132.10263788968825 71.81780366056574  C 128.3117505995204 82.05074875207987  118.7347721822542 94.23044925124793  95.39088729016784 118.73960066555742  C 92.49784172661873 121.73460898502498  88.95635491606714 125.67803660565728  87.4599520383693 127.42512479201332  C 86.01342925659472 129.1722129783694  84.51702637889687 130.96921797004993  84.11798561151078 131.31863560732114  C 83.76882494004795 131.7179700499168  82.37218225419664 133.41514143094847  81.07529976019185 135.11231281198005  C 79.77841726618703 136.80948419301166  78.58129496402879 138.30698835274544  78.38177458033572 138.4567387687188  C 78.08249400479617 138.7063227953411  77.284412470024 139.90432612312813  73.84268585131895 145.14559068219637  C 71.64796163069545 148.49001663893512  68.10647482014389 154.9792013311148  66.70983213429255 158.1738768718802  C 66.0115107913669 159.82113144758736  65.21342925659474 161.6181364392679  64.96402877697841 162.16722129783696  C 63.71702637889689 165.11231281198005  61.67194244604315 172.59983361064891  61.272901678657064 176.14392678868552  C 61.07338129496404 177.49168053244594  60.82398081534771 179.33860232945094  60.674340527577925 180.1372712146423  C 60.4748201438849 181.3352745424293  60.674340527577925 181.9342762063228  61.67194244604315 182.83277870216304  L 62.96882494004797 184.0307820299501  L 64.11606714628297 182.98252911813645  C 64.71462829736211 182.4334442595674  65.61247002398082 180.53660565723794  66.16115107913669 178.7895174708819  C 66.65995203836931 177.04242928452578  67.50791366906475 174.6963394342762  68.00671462829735 173.54825291181368  C 68.55539568345324 172.3502495840266  68.95443645083932 171.301996672213  68.95443645083932 171.15224625623964  C 68.95443645083932 170.70299500831948  72.3462829736211 163.8144758735441  73.69304556354916 161.66805324459236  C 74.34148681055154 160.56988352745427  75.3390887290168 158.87271214642263  75.93764988009593 157.92429284525792  C 77.2345323741007 155.7279534109817  80.72613908872901 150.88602329450916  81.27482014388488 150.4866888519135  C 81.47434052757794 150.3369384359401  82.97074340527578 148.58985024958403  84.51702637889687 146.6930116472546  C 87.80911270983214 142.59983361064891  96.43836930455635 134.0640599001664  102.12470023980813 129.22212978369384  C 117.18848920863309 116.34359400998338  135.49448441247 97.92429284525792  137.38992805755396 93.73128119800333  C 137.68920863309353 93.08236272878537  138.0882494004796 92.5332778702163  138.28776978417267 92.5332778702163  C 138.43741007194245 92.5332778702163  139.1357314148681 91.58485856905159  139.7841726618705 90.38685524126458  C 140.4326139088729 89.23876871880202  141.13093525179858 88.19051580698837  141.3304556354916 88.04076539101499  C 141.8292565947242 87.64143094841933  146.1189448441247 78.60648918469218  146.96690647482012 76.01081530782031  C 147.41582733812947 74.76289517470883  148.1640287769784 71.9675540765391  148.7127098321343 69.77121464226292  C 149.610551558753 66.07737104825293  149.66043165467624 65.92762063227954  150.1592326139089 67.17554076539103  C 151.65563549160674 70.96921797004995  152.00479616306956 87.64143094841933  150.6580335731415 92.28369384359402  C 150.40863309352517 93.08236272878537  149.7601918465228 95.47836938435941  149.2115107913669 97.52495840266226  C 148.21390887290167 101.2687188019967  143.17601918465226 112.20049916805326  141.13093525179858 115.19550748752086  C 132.90071942446045 127.02579034941768  129.8081534772182 130.56988352745427  111.35251798561151 148.98918469217972  C 91.84940047961629 168.50665557404326  81.47434052757794 179.93760399334442  76.13717026378896 187.87437603993345  C 75.48872901678658 188.82279534109819  74.34148681055154 190.51996672212982  73.59328537170265 191.6181364392679  C 71.39856115107912 194.66306156405992  67.25851318944845 201.85108153078204  65.91175059952039 204.8460898502496  C 63.8167865707434 209.38851913477538  62.96882494004797 211.48502495840268  61.97122302158274 214.48003327787023  C 61.322781774580335 216.32695507487523  60.77410071942447 217.77454242928457  60.674340527577925 217.67470881863562  C 60.42494004796163 217.42512479201332  57.082973621103115 205.74459234608992  56.78369304556355 203.9975041597338  C 56.5841726618705 203.09900166389355  56.235011990407656 201.80116472545762  55.98561151079136 201.10232945091514  C 55.73621103117506 200.40349417637276  55.38705035971222 198.90599001663895  55.237410071942435 197.85773710482533  C 55.137649880095914 196.80948419301166  54.788489208633116 194.9126455906822  54.48920863309354 193.71464226289518  C 53.59136690647483 189.62146422628953  52.49400479616307 178.68968386023298  52.49400479616307 173.54825291181368  C 52.49400479616307 169.15557404326125  52.74340527577937 166.16056572379367  53.74100719424462 159.12229617304493  C 54.53908872901678 153.63144758735442  58.03069544364507 143.9475873544093  61.12326139088728 138.7063227953411  C 61.47242206235012 138.15723793677208  62.37026378896883 136.55990016638938  63.168345323741 135.212146422629  C 63.966426858513195 133.86439267886857  64.81438848920862 132.51663893510815  65.01390887290168 132.2171381031614  C 70.70023980815347 124.92928452579037  75.08968824940047 119.73793677204664  79.12997601918465 115.49500831946756  C 98.93237410071941 94.8793677204659  106.863309352518 82.20049916805328  110.05563549160672 66.07737104825293  C 111.60191846522781 58.29034941763729  112.05083932853717 50.10399334442596  111.35251798561151 42.716306156406006  C 111.00335731414867 38.97254575707156  110.7040767386091 35.178868552412666  110.60431654676259 34.38019966722132  Z M 21.900000000000006 105.5758377425044  L 23.75 103.42204585537922  C 25.69999999999999 101.16807760141097  26.69999999999999 100.56701940035273  28.25 100.81746031746033  C 28.80000000000001 100.91763668430337  38.80000000000001 101.01781305114639  50.50000000000001 101  L 71.75 101  L 65.69999999999999 107.17865961199297  C 59.55000000000001 113.43968253968254  56.849999999999994 116.74550264550265  53.05000000000001 122.60582010582013  C 51.099999999999994 125.61111111111114  47.30000000000001 133.07425044091713  46.44999999999999 135.3783068783069  C 46.30000000000001 135.9292768959436  45.79999999999998 137.28165784832453  45.349999999999994 138.38359788359787  C 44.400000000000006 140.93809523809526  42.94999999999999 145.99700176366844  42.650000000000006 147.6499118165785  C 42.55000000000001 148.35114638447976  42.150000000000006 150.0040564373898  41.80000000000001 151.40652557319225  L 41.150000000000006 153.9109347442681  L 40.099999999999994 150.55502645502648  C 37.5 142.2904761904762  34.5 135.57865961199298  30.80000000000001 129.96878306878307  C 26.05000000000001 122.65590828924162  15.849999999999994 113.8403880070547  11.099999999999994 112.83862433862437  C 10.599999999999994 112.73844797178131  9.599999999999994 112.43791887125224  8.849999999999994 112.13738977072313  C 8.049999999999997 111.83686067019403  6.700000000000004 111.58641975308643  5.75 111.58641975308643  C 3.400000000000006 111.58641975308643  3.25 110.98536155202825  5.150000000000006 109.08201058201061  C 7.650000000000006 106.67777777777778  11.299999999999997 105.5758377425044  17.049999999999997 105.5758377425044  L 21.900000000000006 105.5758377425044  Z " fill-rule="nonzero" fill="#ffffff" stroke="none" transform="matrix(1 0 0 1 606 165 )" />
  </g>
</svg>