<?xml version="1.0" encoding="utf-8"?>
<svg version="1.1" xmlns:xlink="http://www.w3.org/1999/xlink" width="103px" height="150px" xmlns="http://www.w3.org/2000/svg">
  <g transform="matrix(1 0 0 1 -333 -155 )">
    <path d="M 83.58368681678034 16.264559068219654  C 83.35015727677596 16.03161397670549  82.2825936653275 14.73377703826957  81.21503005387898 13.36938435940101  C 79.01318010526643 10.673876871880225  72.77460525086424 4.450915141430954  69.6052757793765 1.8219633943427784  C 67.53687128219502 0.12479201331114591  67.13653492790183 -0.10815307820298396  67.13653492790183 0.3910149750416091  C 67.13653492790183 0.5241264559068289  67.57023264505278 2.054908485856908  68.10401445077703 3.785357737104846  C 70.13905758510076 10.507487520798671  71.50687346226914 16.29783693843596  72.00729390513564 20.25790349417639  C 72.07401663085115 20.790349417637287  72.34090753371328 22.75374376039934  72.6411597994332 24.58402662229617  C 73.27502569373073 28.876871880199683  73.27502569373073 36.797004991680545  72.6411597994332 40.424292845257916  C 71.87384845370458 44.717138103161396  71.80712572798905 45.116472545757084  71.44015073655362 46.547420965058265  C 70.53939393939393 50.041597337770405  68.30418262792362 55.63227953410983  66.8696440250397 57.82861896838604  C 66.36922358217323 58.59400998336109  65.70199632501792 59.692179700499175  65.36838269644025 60.32445923460897  C 65.0347690678626 60.92346089850248  64.6344327135694 61.58901830282863  64.46762589928059 61.82196339434279  C 64.30081908499174 62.0216306156406  62.83291911925005 63.81863560732114  61.23157370207729 65.8485856905158  C 59.66358964776231 67.84525790349419  56.894596530567746 71.00665557404328  55.15980566196393 72.83693843594011  C 51.49005574760971 76.66389351081531  45.48501043321186 83.41930116472545  43.78358092746582 85.64891846921797  C 43.14971503316826 86.48086522462563  42.51584913887073 87.27953410981698  42.34904232458188 87.47920133111484  C 41.21475598741786 88.91014975041598  36.577526550188416 97.19633943427621  36.74433336447724 97.56239600665558  C 36.77769472733502 97.5956738768719  36.54416518733067 98.16139767054909  36.277274284468525 98.82695507487522  C 36.01038338160641 99.49251247920134  35.77685384160203 100.25790349417639  35.77685384160203 100.52412645590682  C 35.77685384160203 100.79034941763729  35.610047027313215 101.28951747088188  35.44324021302439 101.65557404326125  C 34.90945840730013 102.58735440931781  33.90861752156716 108.51081530782031  33.74181070727833 111.30615640599004  C 33.47491980441621 116.66389351081533  33.84189479585163 124.51747088186359  34.44239932729142 126.58069883527456  C 34.64256750443801 127.21297836938436  34.84273568158461 128.47753743760398  34.942819770157904 129.34276206322798  C 35.10962658444672 131.07321131447588  36.87777881590831 138.59400998336108  37.61172879877915 140.72379367720464  C 37.84525833878351 141.45590682196342  38.612569684512124 143.8186356073211  39.31315830452521 145.9816971713811  C 39.980385561680514 148.11148086522462  40.647612818835846 149.87520798668888  40.78105827026691 149.87520798668888  C 40.881142358840194 149.87520798668888  41.28147871313338 148.7104825291181  41.68181506742657 147.27953410981698  C 43.85030365318134 139.126455906822  48.0871967361176 130.97337770382694  54.29241022766202 122.92013311148088  C 58.46258058488275 117.49584026622297  62.03224641066367 113.60232945091516  73.47519387087732 102.12146422628955  C 86.71965492541034 88.77703826955076  89.62209349403592 85.64891846921797  92.75806160266592 81.32279534109819  C 93.85898657697217 79.75873544093179  95.09335700270951 78.09484193011647  95.46033199414495 77.62895174708818  C 96.82814787131333 75.83194675540767  100.19764551994768 69.00998336106491  100.99831822853405 66.34775374376042  C 102.33277274284467 61.9883527454243  102.59966364570681 60.49084858569053  102.7998318228534 55.53244592346091  C 102.93327727428449 51.93843594009983  102.86655454856891 49.475873544093204  102.59966364570681 47.9450915141431  C 102.36613410570241 46.71381031613978  102.09924320284031 45.08319467554078  101.99915911426702 44.35108153078203  C 101.76562957426268 42.92013311148087  99.69722507708117 36.33111480865225  99.16344327135694 35.43261231281199  C 98.96327509421035 35.06655574043263  98.86319100563705 35.798668885191354  98.82982964277927 37.762063227953426  C 98.82982964277927 43.35274542429286  97.32856831417983 50.108153078202996  95.32688654271388 53.76871880199669  C 95.05999563985175 54.23460898502498  94.8264660998474 54.800332778702185  94.8264660998474 54.966722129783705  C 94.8264660998474 55.33277870216307  92.45780933694603 59.42595673876872  91.12335482263539 61.356073211314495  C 87.88730262543213 66.04825291181366  81.38183686816781 73.03660565723794  75.14326201376561 78.42762063227956  C 68.90468715936342 83.85191347753744  59.02972375346476 93.13643926788687  56.99468061914104 95.4991680532446  C 55.89375564483479 96.76372712146424  54.75946930767074 98.02828618968387  54.45921704195084 98.29450915141435  C 53.69190569622224 99.02662229617307  50.78946712759663 102.82029950083195  49.388289887570465 104.95008319467554  C 48.053835373259844 107.01331114808654  45.785262698931774 110.90682196339435  45.785262698931774 111.1397670549085  C 45.785262698931774 111.20632279534111  45.45164907035411 112.00499168053246  45.017951353203145 112.87021630615641  C 44.5842536360522 113.76871880199668  43.816942290323595 115.79866888519136  43.31652184745711 117.39600665557406  C 42.78274004173285 118.99334442595675  42.31568096172413 120.22462562396008  42.21559687315083 120.12479201331116  C 41.648453704568816 119.59234608985028  43.583412750319226 111.80532445923463  45.45164907035411 107.11314475873544  C 45.9520695132206 105.81530782029948  49.154760347566096 99.55906821963394  49.75526487900588 98.69384359401  C 50.08887850758355 98.19467554076542  50.78946712759663 97.1297836938436  51.323248933320876 96.29783693843595  C 52.45753527048492 94.53410981697172  55.560142016257124 90.24126455906823  56.19400791055468 89.60898502495843  C 56.42753745055904 89.34276206322795  57.228210159145405 88.37770382695507  57.962160142016266 87.47920133111484  C 59.49678283347348 85.54908485856907  68.80460307079011 75.3993344425957  73.67536204802391 70.34109816971716  C 77.71208695381358 66.14808652246256  81.782173222461 61.3893510815308  84.35099816250894 57.861896838602334  C 85.11830950823757 56.79700499168054  87.15335264256127 53.66888519134777  87.15335264256127 53.535773710482545  C 87.15335264256127 53.46921797004992  87.58705035971221 52.67054908485858  88.08747080257871 51.80532445923461  C 91.52369117692857 45.98169717138105  92.79142296552368 38.12811980033279  91.32352299978197 31.738768718802003  C 90.6562957426267 28.74376039933444  88.78805942259179 24.051580698835277  87.45360490828116 22.08818635607321  C 87.15335264256127 21.62229617304492  86.25259584540159 20.224625623960094  85.45192313681522 18.960066555740443  C 84.65125042822886 17.69550748752082  83.81721635678471 16.49750415973378  83.58368681678034 16.264559068219654  Z M 52.00162337662338 65.67560258671371  C 52.16883116883116 65.50864197530865  45.146103896103895 65.3750734861846  35.08019480519479 66  L 17.824350649350652 66  L 16.45324675324675 66.34344503233393  C 15.717532467532466 66.91111111111114  15.015259740259733 67.64573780129336  14.881493506493507 68.0130511463845  C 14.680844155844156 68.6475014697237  14.480194805194808 68.68089359200471  12.875 68.51393298059965  C 11.737987012987011 68.38036449147562  10.23311688311688 68.48054085831865  8.56103896103896 68.84785420340977  C 4.581493506493503 69.74944150499708  2.274025974025978 71.28547912992357  0.7022727272727254 74.15720164609054  C -0.10032467532467912 75.59306290417402  -0.13376623376623567 75.59306290417402  3.043181818181816 75.86019988242212  C 6.922402597402594 76.22751322751326  9.731493506493504 77.42962962962964  13.476948051948055 80.36813639035861  C 15.249350649350657 81.77060552616108  19.396103896103895 86.5456790123457  19.396103896103895 87.18012933568488  C 19.396103896103895 87.28030570252793  19.83084415584416 88.0149323927102  20.36590909090908 88.81634332745445  C 21.302272727272726 90.21881246325691  21.536363636363628 90.68630217519106  23.074675324675322 94.42621987066434  C 23.475974025974022 95.42798353909467  23.94415584415585 96.56331569664903  24.11136363636364 96.93062904174016  C 24.67987012987013 98.29970605526164  26.351948051948057 103.87619047619049  26.61948051948053 105.378835978836  C 26.719805194805186 105.81293356848914  26.98733766233766 106.98165784832453  27.25487012987013 107.95002939447386  C 27.488961038961033 108.9517930629042  27.82337662337662 110.4544385655497  27.957142857142866 111.28924162257496  C 28.291558441558447 113.55990593768374  28.525649350649356 112.89206349206351  28.59253246753247 109.38589065255734  C 28.75974025974026 103.97636684303353  30.4987012987013 95.4947677836567  32.43831168831169 90.92004703115816  C 32.672402597402595 90.35238095238097  32.97337662337663 89.61775426219872  33.10714285714286 89.25044091710757  C 33.57532467532467 87.88136390358613  35.949675324675326 83.34003527336863  36.38441558441559 83.00611405055852  C 36.58506493506493 82.80576131687245  36.785714285714285 82.50523221634334  36.785714285714285 82.33827160493827  C 36.785714285714285 81.77060552616108  39.82889610389611 77.6633744855967  42.437337662337654 74.72486772486774  C 43.80844155844156 73.1554379776602  46.45032467532467 70.55085243974133  48.28961038961038 68.91463844797178  C 50.16233766233766 67.31181657848325  51.80097402597402 65.84256319811875  52.00162337662338 65.67560258671371  Z M 73.97561431374382 22.92013311148088  C 73.80880749945499 20.623960066555735  73.07485751658413 16.763727121464246  71.67368027655799 10.77371048252914  C 71.50687346226914 10.07487520798669  70.13905758510076 5.083194675540767  69.9055280450964 4.317803660565744  C 69.63863714223427 3.4525790349417775  73.17494160515743 6.514143094841937  76.91141424522719 10.440931780366062  C 89.38856395403158 23.485856905158073  93.02495250552803 35.39933444259568  88.35436170544084 47.878535773710496  C 85.81889812825065 54.70049916805325  79.41351645955963 62.82029950083195  63.800398642125245 79.15973377703828  C 61.86543959637486 81.15640599001665  59.49678283347348 83.78535773710486  58.4959419477405 84.95008319467556  C 57.5284624248653 86.11480865224627  56.52762153913232 87.31281198003329  56.260730636270196 87.54575707154741  C 56.027201096265834 87.81198003327786  55.0930829362484 88.9434276206323  54.2256875019465 90.0748752079867  C 53.35829206764458 91.20632279534111  52.557619359058215 92.2046589018303  52.424173907627136 92.3044925124792  C 52.224005730480556 92.47088186356073  51.6902239247563 93.26955074875208  49.388289887570465 96.76372712146424  C 47.92038992182878 98.99334442595675  45.551733158927405 103.31946755407654  44.61761499890996 105.44925124792012  C 44.15055591890124 106.54742096505825  43.616774113176994 107.74542429284527  43.44996729888816 108.11148086522465  C 42.615933227444025 110.0748752079867  41.248117350275606 115.06655574043262  40.98122644741349 117.42928452579035  C 40.84778099598244 118.32778702163063  40.6809741816936 119.55906821963396  40.580890093120296 120.09151414309487  C 40.44744464168925 120.89018302828619  40.580890093120296 121.28951747088188  41.248117350275606 121.88851913477535  L 42.11551278457754 122.68718801996674  L 42.88282413030614 121.98835274542431  C 43.283160484599335 121.62229617304494  43.883665016039124 120.35773710482529  44.25064000747454 119.1930116472546  C 44.5842536360522 118.02828618968387  45.15139680463421 116.46422628951748  45.48501043321186 115.69883527454245  C 45.851985424647296 114.90016638935109  46.11887632750942 114.20133111480865  46.11887632750942 114.10149750415975  C 46.11887632750942 113.801996672213  48.38744900183749 109.20965058236274  49.28820579899717 107.77870216306157  C 49.72190351614811 107.04658901830284  50.389130773303435 105.91514143094841  50.78946712759663 105.28286189683861  C 51.656862561898514 103.81863560732114  53.992157961942134 100.59068219633943  54.35913295337755 100.324459234609  C 54.49257840480862 100.22462562396007  55.493419290541596 99.05990016638935  56.52762153913232 97.79534109816973  C 58.72947148774487 95.06655574043262  64.50098726213834 89.37603993344428  68.30418262792362 86.14808652246256  C 78.37931421096889 77.56239600665558  90.6229343797689 65.28286189683861  91.89066616836402 62.48752079866888  C 92.09083434551061 62.05490848585691  92.35772524837273 61.688851913477535  92.49117069980379 61.688851913477535  C 92.59125478837709 61.688851913477535  93.05831386838581 61.05657237936773  93.49201158553677 60.25790349417639  C 93.92570930268771 59.492512479201345  94.39276838269646 58.79367720465891  94.5262138341275 58.69384359400999  C 94.85982746270516 58.42762063227955  97.72890466847302 52.40432612312812  98.29604783705501 50.67387687188021  C 98.59630010277492 49.841930116472554  99.0967205456414 47.9783693843594  99.46369553707683 46.51414309484194  C 100.06420006851663 44.05158069883529  100.09756143137437 43.95174708818636  100.43117505995205 44.78369384359402  C 101.43201594568502 47.3128119800333  101.66554548568938 58.42762063227955  100.76478868852969 61.522462562396015  C 100.59798187424086 62.05490848585691  100.16428415708992 63.65224625623961  99.79730916565448 65.01663893510818  C 99.13008190849916 67.51247920133113  95.76058425986483 74.80033277870217  94.39276838269646 76.79700499168057  C 88.8881435111651 84.68386023294511  86.81973901398361 87.04658901830284  74.47603475661029 99.3261231281198  C 61.431741879223885 112.33777038269552  54.49257840480862 119.95840266222963  50.92291257902768 125.2495840266223  C 50.48921486187674 125.88186356073211  49.72190351614811 127.01331114808654  49.22148307328165 127.74542429284526  C 47.75358310753993 129.77537437603993  44.98458999034539 134.56738768718805  44.08383319318572 136.5640599001664  C 42.68265595315955 139.59234608985025  42.11551278457754 140.99001663893512  41.44828552742222 142.9866888519135  C 41.01458781027126 144.21797004991683  40.647612818835846 145.1830282861897  40.580890093120296 145.1164725457571  C 40.41408327883148 144.95008319467556  38.178871967361175 137.16306156405994  37.97870379021459 135.9983361064892  C 37.84525833878351 135.39933444259572  37.61172879877915 134.53410981697175  37.44492198449033 134.06821963394341  C 37.2781151702015 133.60232945091516  37.04458563019713 132.60399334442596  36.944501541623836 131.90515806988356  C 36.87777881590831 131.2063227953411  36.64424927590397 129.94176372712147  36.44408109875737 129.14309484193012  C 35.843576567317584 126.41430948419301  35.10962658444672 119.12645590682199  35.10962658444672 115.69883527454245  C 35.10962658444672 112.77038269550751  35.27643339873555 110.7737104825291  35.94366065589088 106.08153078202996  C 36.47744246161512 102.42096505823629  38.81273786165872 95.96505823627288  40.881142358840194 92.47088186356073  C 41.114671898844556 92.10482529118138  41.715176430284345 91.0399334442596  42.24895823600859 90.14143094841933  C 42.78274004173285 89.24292845257905  43.349883210314864 88.34442595673877  43.48332866174593 88.14475873544093  C 47.286524027531215 83.28618968386024  50.2223239590146 79.82529118136442  52.92459435049363 76.99667221297837  C 66.16905540502661 63.252911813643934  71.4735120994114 54.800332778702185  73.60863932230839 44.05158069883529  C 74.64284157089912 38.860232945091525  74.94309383661901 33.402662229617306  74.47603475661029 28.477537437604003  C 74.24250521660592 25.98169717138104  74.04233703945933 23.452579034941778  73.97561431374382 22.92013311148088  Z M 14.647402597402602 70.38389182833627  L 15.88474025974026 68.94803057025281  C 17.18896103896103 67.44538506760732  17.8577922077922 67.04467960023516  18.894480519480517 67.21164021164022  C 19.262337662337668 67.27842445620225  25.95064935064936 67.34520870076426  33.77597402597403 68  L 47.98863636363636 68  L 43.94220779220779 71.45243974132865  C 39.82889610389611 75.62645502645502  38.02305194805194 77.83033509700176  35.481493506493514 81.73721340388009  C 34.17727272727272 83.74074074074076  31.635714285714293 88.71616696061142  31.067207792207785 90.25220458553792  C 30.966883116883125 90.61951793062906  30.63246753246752 91.52110523221636  30.331493506493505 92.25573192239858  C 29.6961038961039 93.95873015873018  28.726298701298692 97.33133450911228  28.525649350649356 98.43327454438568  C 28.45876623376624 98.90076425631985  28.19123376623377 100.0027042915932  27.957142857142866 100.9376837154615  L 27.5224025974026 102.60728982951208  L 26.820129870129865 100.37001763668431  C 25.08116883116883 94.86031746031746  23.074675324675322 90.38577307466198  20.60000000000001 86.64585537918872  C 17.423051948051956 81.77060552616108  10.600974025974022 75.89359200470314  7.42402597402597 75.22574955908291  C 7.089610389610386 75.15896531452087  6.420779220779218 74.95861258083482  5.91915584415584 74.75825984714875  C 5.384090909090907 74.55790711346268  4.481168831168834 74.39094650205762  3.8457792207792205 74.39094650205762  C 2.274025974025978 74.39094650205762  2.1737012987012987 73.9902410346855  3.4444805194805235 72.72134038800708  C 5.116558441558445 71.11851851851851  7.557792207792206 70.38389182833627  11.403571428571427 70.38389182833627  L 14.647402597402602 70.38389182833627  Z " fill-rule="nonzero" fill="#ffffff" stroke="none" transform="matrix(1 0 0 1 333 155 )" />
  </g>
</svg>