<?xml version="1.0" encoding="utf-8"?>
<svg version="1.1" xmlns:xlink="http://www.w3.org/1999/xlink" width="48px" height="48px" xmlns="http://www.w3.org/2000/svg">
  <defs>
    <filter x="437px" y="3748px" width="48px" height="48px" filterUnits="userSpaceOnUse" id="filter62">
      <feOffset dx="2" dy="2" in="SourceAlpha" result="shadowOffsetInner" />
      <feGaussianBlur stdDeviation="2" in="shadowOffsetInner" result="shadowGaussian" />
      <feComposite in2="shadowGaussian" operator="atop" in="SourceAlpha" result="shadowComposite" />
      <feColorMatrix type="matrix" values="0 0 0 0 0  0 0 0 0 0  0 0 0 0 0  0 0 0 0.3137254901960784 0  " in="shadowComposite" />
    </filter>
    <g id="widget63">
      <path d="M 30.598958333333336 15.390625  C 31.692708333333336 14.609375  32.604166666666664 13.663194444444443  33.333333333333336 12.552083333333336  C 32.361111111111114 12.986111111111107  31.310763888888893 13.28125  30.182291666666664 13.4375  C 31.36284722222223 12.743055555555554  32.17013888888889 11.727430555555554  32.604166666666664 10.390625  C 31.475694444444446 11.050347222222218  30.3125 11.493055555555554  29.114583333333336 11.71875  C 28.055555555555557 10.572916666666664  26.727430555555557 10  25.130208333333336 10  C 23.619791666666664 10  22.330729166666664 10.533854166666664  21.263020833333336 11.6015625  C 20.1953125 12.669270833333336  19.661458333333332 13.958333333333336  19.661458333333332 15.46875  C 19.661458333333332 15.972222222222218  19.704861111111114 16.38888888888889  19.791666666666668 16.71875  C 17.552083333333332 16.597222222222218  15.451388888888891 16.03298611111111  13.489583333333332 15.026041666666664  C 11.527777777777779 14.019097222222218  9.861111111111112 12.673611111111107  8.489583333333334 10.989583333333336  C 7.986111111111112 11.85763888888889  7.734375 12.777777777777771  7.734375 13.75  C 7.734375 15.729166666666664  8.524305555555557 17.24826388888889  10.104166666666668 18.307291666666664  C 9.288194444444445 18.289930555555554  8.42013888888889 18.06423611111111  7.5 17.630208333333336  L 7.5 17.682291666666664  C 7.5 18.984375  7.934027777777778 20.14322916666667  8.802083333333334 21.15885416666667  C 9.67013888888889 22.17447916666667  10.737847222222223 22.803819444444446  12.005208333333332 23.046875  C 11.501736111111114 23.185763888888886  11.059027777777779 23.25520833333333  10.677083333333332 23.25520833333333  C 10.451388888888891 23.25520833333333  10.112847222222223 23.220486111111107  9.661458333333334 23.15104166666667  C 10.026041666666668 24.24479166666667  10.672743055555555 25.147569444444436  11.6015625 25.859375  C 12.530381944444445 26.571180555555554  13.585069444444446 26.935763888888886  14.765625 26.953125  C 12.75173611111111 28.515625  10.48611111111111 29.296875  7.96875 29.296875  C 7.517361111111112 29.296875  7.083333333333334 29.27083333333333  6.666666666666666 29.21875  C 9.23611111111111 30.850694444444446  12.03125 31.666666666666664  15.052083333333332 31.666666666666664  C 16.99652777777778 31.666666666666664  18.819444444444446 31.358506944444446  20.520833333333336 30.7421875  C 22.22222222222222 30.125868055555554  23.680555555555557 29.30121527777778  24.895833333333336 28.26822916666667  C 26.11111111111111 27.235243055555554  27.157118055555557 26.046006944444436  28.033854166666664 24.70052083333333  C 28.910590277777782 23.35503472222222  29.561631944444446 21.94878472222222  29.986979166666664 20.48177083333333  C 30.412326388888893 19.014756944444443  30.625 17.552083333333336  30.625 16.09375  C 30.625 15.78125  30.616319444444446 15.546875  30.598958333333336 15.390625  Z M 37.799479166666664 2.200520833333335  C 39.26649305555556 3.6675347222222188  40 5.434027777777772  40 7.5  L 40 32.5  C 40 34.56597222222222  39.26649305555556 36.33246527777778  37.799479166666664 37.799479166666664  C 36.33246527777778 39.26649305555556  34.56597222222223 40  32.5 40  L 7.5 40  C 5.434027777777778 40  3.6675347222222228 39.26649305555556  2.2005208333333335 37.799479166666664  C 0.7335069444444443 36.33246527777778  0 34.56597222222222  0 32.5  L 0 7.5  C 0 5.434027777777772  0.7335069444444443 3.6675347222222188  2.2005208333333335 2.200520833333335  C 3.6675347222222228 0.733506944444442  5.434027777777778 0  7.5 0  L 32.5 0  C 34.56597222222223 0  36.33246527777778 0.733506944444442  37.799479166666664 2.200520833333335  Z " fill-rule="nonzero" fill="#ffffff" stroke="none" transform="matrix(1 0 0 1 439 3750 )" />
    </g>
  </defs>
  <g transform="matrix(1 0 0 1 -437 -3748 )">
    <use xlink:href="#widget63" filter="url(#filter62)" />
    <use xlink:href="#widget63" />
  </g>
</svg>