<?xml version="1.0" encoding="utf-8"?>
<svg version="1.1" xmlns:xlink="http://www.w3.org/1999/xlink" width="50px" height="50px" xmlns="http://www.w3.org/2000/svg">
  <g transform="matrix(1 0 0 1 -1247 -5191 )">
    <path d="M 18.049062499999998 49.259062500000006  C 31.0540625 43.5890625  33.4221875 44.4946875  31.999062500000004 32.0690625  C 31.999062500000004 32.0690625  51.8525 17.7421875  49.650312500000005 1.345312500000004  C 49.602500000000006 0.9881250000000042  49.484375 0.7462500000000039  49.33531250000001 0.5915625000000035  C 49.183437500000004 0.4368750000000039  48.95 0.31593750000000337  48.595625 0.2681250000000038  C 32.572812500000005 -1.9846875  18.575 18.33  18.575 18.33  C 6.430625000000001 16.8759375  7.313750000000001 19.2975  1.7731249999999996 32.606249999999996  C 0.7128124999999998 35.143125  2.43125 36.0178125  4.315625 35.3034375  C 6.2 34.5946875  10.356874999999999 33.0225  10.356874999999999 33.0225  L 17.64125 40.470000000000006  C 17.64125 40.470000000000006  16.105625 44.728125  15.4109375 46.654687500000016  C 14.713437499999998 48.584062500000016  15.565624999999997 50.341875000000016  18.049062499999998 49.259062500000006  Z M 40.92875 15.430312500000001  C 39.244062500000005 17.14875  36.5159375 17.14875  34.836875 15.4303125  C 33.155 13.706249999999997  33.155 10.919062499999999  34.836875 9.195  C 36.518750000000004 7.4765625  39.244062500000005 7.4765625  40.92875 9.195  C 42.610625 10.9134375  42.610625 13.703437499999998  40.92875 15.430312500000001  Z " fill-rule="nonzero" fill="#ffffff" stroke="none" transform="matrix(1 0 0 1 1247 5191 )" />
  </g>
</svg>