<?xml version="1.0" encoding="utf-8"?>
<svg version="1.1" xmlns:xlink="http://www.w3.org/1999/xlink" width="30px" height="30px" xmlns="http://www.w3.org/2000/svg">
  <g transform="matrix(1 0 0 1 -689 -3864 )">
    <path d="M 10.8294375 29.555437500000004  C 18.6324375 26.1534375  20.0533125 26.696812499999997  19.199437500000002 19.2414375  C 19.199437500000002 19.2414375  31.1115 10.645312500000001  29.790187500000002 0.8071875000000023  C 29.7615 0.5928750000000026  29.690625 0.4477500000000023  29.6011875 0.3549375000000021  C 29.510062500000004 0.2621250000000024  29.370000000000005 0.18956250000000202  29.157375 0.16087500000000227  C 19.5436875 -1.1908125  11.145 10.998  11.145 10.998  C 3.8583750000000006 10.1255625  4.38825 11.5785  1.063875 19.56375  C 0.42768749999999994 21.085874999999998  1.45875 21.610687499999997  2.589375 21.1820625  C 3.7199999999999998 20.7568125  6.214124999999999 19.813499999999998  6.214124999999999 19.813499999999998  L 10.58475 24.282000000000004  C 10.58475 24.282000000000004  9.663374999999998 26.836875000000003  9.2465625 27.992812500000007  C 8.8280625 29.15043750000001  9.339374999999999 30.20512500000001  10.8294375 29.555437500000004  Z M 24.557250000000003 9.2581875  C 23.546437500000003 10.289250000000001  21.9095625 10.289250000000001  20.902125 9.258187499999998  C 19.893 8.223749999999999  19.893 6.551437499999999  20.902125 5.517  C 21.911250000000003 4.4859375  23.546437500000003 4.4859375  24.557250000000003 5.517  C 25.566375 6.5480625  25.566375 8.2220625  24.557250000000003 9.2581875  Z " fill-rule="nonzero" fill="#ffffff" stroke="none" transform="matrix(1 0 0 1 689 3864 )" />
  </g>
</svg>