<?xml version="1.0" encoding="utf-8"?>
<svg version="1.1" xmlns:xlink="http://www.w3.org/1999/xlink" width="25px" height="25px" xmlns="http://www.w3.org/2000/svg">
  <g transform="matrix(1 0 0 1 -299 -3561 )">
    <path d="M 9.024531249999999 24.629531250000003  C 15.52703125 21.79453125  16.71109375 22.24734375  15.999531250000002 16.03453125  C 15.999531250000002 16.03453125  25.92625 8.87109375  24.825156250000003 0.672656250000002  C 24.801250000000003 0.4940625000000021  24.7421875 0.3731250000000019  24.667656250000004 0.29578125000000177  C 24.591718750000002 0.21843750000000195  24.475 0.15796875000000168  24.2978125 0.1340625000000019  C 16.286406250000002 -0.99234375  9.2875 9.165  9.2875 9.165  C 3.2153125000000005 8.43796875  3.6568750000000003 9.64875  0.8865624999999998 16.303124999999998  C 0.3564062499999999 17.5715625  1.215625 18.00890625  2.1578125 17.65171875  C 3.1 17.29734375  5.178437499999999 16.51125  5.178437499999999 16.51125  L 8.820625 20.235000000000003  C 8.820625 20.235000000000003  8.0528125 22.3640625  7.70546875 23.327343750000008  C 7.356718749999999 24.292031250000008  7.782812499999999 25.170937500000008  9.024531249999999 24.629531250000003  Z M 20.464375 7.715156250000001  C 19.622031250000003 8.574375  18.25796875 8.574375  17.4184375 7.71515625  C 16.5775 6.853124999999999  16.5775 5.4595312499999995  17.4184375 4.5975  C 18.259375000000002 3.73828125  19.622031250000003 3.73828125  20.464375 4.5975  C 21.3053125 5.45671875  21.3053125 6.851718749999999  20.464375 7.715156250000001  Z " fill-rule="nonzero" fill="#ffffff" stroke="none" transform="matrix(1 0 0 1 299 3561 )" />
  </g>
</svg>