<?xml version="1.0" encoding="utf-8"?>
<svg version="1.1" xmlns:xlink="http://www.w3.org/1999/xlink" width="9px" height="15px" xmlns="http://www.w3.org/2000/svg">
  <g transform="matrix(1 0 0 1 -379 -5311 )">
    <path d="M 8.30957703543757 12.736494738590508  L 2.8651467039248057 7.497948196855856  L 8.31384478597739 2.262919031939735  C 8.506218260389016 2.0774014075051253  8.614245194945038 1.8261112752586046  8.614245194945038 1.564133503991245  C 8.614245194945038 1.0175461909207395  8.153424767234375 0.5744496258143306  7.584973961641048 0.5744496258143306  C 7.311471360347007 0.5744496258143306  7.049214962054854 0.6791183147682355  6.85610313730471 0.8653479760427554  L 0.6831068207798825 6.794472833149322  C 0.29566247056066997 7.1684684346184016  0.28250498255763257 7.769282300063213  0.6532325670011438 8.158628809270244  L 6.851835386764892 14.13406579448749  C 7.044947211515036 14.32029545576201  7.307203609807189 14.424964144715913  7.580706211101231 14.424964144715913  C 8.149157016694557 14.424964144715913  8.60997744440522 13.981867579609506  8.60997744440522 13.435280266538998  C 8.60997744440522 13.173302495271638  8.501950509849193 12.922012363025116  8.30957703543757 12.736494738590508  Z " fill-rule="nonzero" fill="#ffffff" stroke="none" transform="matrix(1 0 0 1 379 5311 )" />
  </g>
</svg>