<?xml version="1.0" encoding="utf-8"?>
<svg version="1.1" xmlns:xlink="http://www.w3.org/1999/xlink" width="52px" height="47px" xmlns="http://www.w3.org/2000/svg">
  <g transform="matrix(1 0 0 1 -1267 -103 )">
    <path d="M 1293 103  C 1307.56 103  1319 113.34  1319 126.5  C 1319 139.66  1307.56 150  1293 150  C 1278.44 150  1267 139.66  1267 126.5  C 1267 113.34  1278.44 103  1293 103  Z " fill-rule="nonzero" fill="#ffffff" stroke="none" fill-opacity="0" />
    <path d="M 1293 103.5  C 1307.28 103.5  1318.5 113.62  1318.5 126.5  C 1318.5 139.38  1307.28 149.5  1293 149.5  C 1278.72 149.5  1267.5 139.38  1267.5 126.5  C 1267.5 113.62  1278.72 103.5  1293 103.5  Z " stroke-width="1" stroke="#aaaaaa" fill="none" />
  </g>
</svg>