<?xml version="1.0" encoding="utf-8"?>
<svg version="1.1" xmlns:xlink="http://www.w3.org/1999/xlink" width="33px" height="30px" xmlns="http://www.w3.org/2000/svg">
  <g transform="matrix(1 0 0 1 -596 -2751 )">
    <path d="M 596 2751  L 629 2751  L 629 2781  L 596 2781  L 596 2751  " fill-rule="nonzero" fill="#cccccc" stroke="none" />
    <path d="M 598 2753  L 627 2753  L 627 2779  L 598 2779  L 598 2753  " fill-rule="nonzero" fill="#ffffff" stroke="none" />
    <path d="M 615.41 2760  C 614.15 2760  613.16 2759.01  613.16 2757.75  C 613.16 2756.49  614.15 2755.5  615.41 2755.5  C 616.67 2755.5  617.66 2756.49  617.66 2757.75  C 617.66 2759.01  616.67 2760  615.41 2760  " fill-rule="nonzero" fill="#cccccc" stroke="none" />
    <path d="M 599 2778  L 599 2764.8  L 605.75 2758.8  L 615.2 2764.909090909091  L 620.6 2762.4  L 626 2764.909090909091  L 626 2778  L 599 2778  " fill-rule="nonzero" fill="#169bd5" stroke="none" />
  </g>
</svg>