<?xml version="1.0" encoding="utf-8"?>
<svg version="1.1" xmlns:xlink="http://www.w3.org/1999/xlink" width="260px" height="570px" xmlns="http://www.w3.org/2000/svg">
  <g transform="matrix(1 0 0 1 -545 -3871 )">
    <path d="M 259.74776305629905 23.72569102939283  C 259.74776305629905 23.72636418269411  259.7477630272405 23.727037336416505  259 23.72771048971528  L 259 545.701500861127  C 259.7451620324646 558.6522313462308  249.21730368084826 569.148899497811  236.23282967576645 569  L 23.766270776356922 569  C 10.781796771275019 569.148899497811  0.25393841965887387 558.6522313462308  1 545.701500861127  L 1 23.727710489715257  C 0.2513374248827695 23.727037336174572  0.2513373958242975 23.726364182936024  0.2513373958242975 23.72569102939283  C 0.2513373958242975 10.773617088910866  10.77842517805169 0.27388660341481  23.764246054282694 0.27388660341481  C 23.764920961662607 0.27388660341481  23.7655958689795 0.27388663239780275  23.766270776356922 1  L 55.559901854496786 1  L 55.559901854496786 4.346860104625468  C 55.56297041134488 15.01153448622753  64.23015636974434 23.656196572593807  74.92261781330998 24  L 182.97463708723657 24  C 193.66835805129563 23.659228800866494  202.33732461801705 15.012790733538829  202.33735304604977 4.346860104625493  L 202.33735304604977 1  L 236.23282967576645 1  C 236.23350458306314 0.27388663239780275  236.2341794905416 0.27388660341481  236.23485439784062 0.27388660341481  C 249.22067527407154 0.27388660341481  259.74776305629905 10.773617088910866  259.74776305629905 23.72569102939283  Z " fill-rule="nonzero" fill="#8080ff" stroke="none" transform="matrix(1 0 0 1 545 3871 )" />
  </g>
</svg>