<?xml version="1.0" encoding="utf-8"?>
<svg version="1.1" xmlns:xlink="http://www.w3.org/1999/xlink" width="8px" height="7px" xmlns="http://www.w3.org/2000/svg">
  <g transform="matrix(1 0 0 1 -750 -3878 )">
    <path d="M 1.1026785714285714 5.874348958333334  C 1.1294642857142858 5.901692708333334  1.1428571428571428 5.936631944444445  1.1428571428571428 5.979166666666666  L 1.1428571428571428 6.854166666666666  C 1.1428571428571428 6.896701388888888  1.1294642857142858 6.931640625  1.1026785714285714 6.958984375  C 1.0758928571428572 6.986328125  1.0416666666666667 7  1 7  L 0.14285714285714285 7  C 0.10119047619047619 7  0.06696428571428573 6.986328125  0.04017857142857143 6.958984375  C 0.013392857142857142 6.931640625  0 6.896701388888888  0 6.854166666666666  L 0 5.979166666666666  C 0 5.936631944444445  0.013392857142857142 5.901692708333334  0.04017857142857143 5.874348958333334  C 0.06696428571428573 5.847005208333334  0.10119047619047619 5.833333333333334  0.14285714285714285 5.833333333333334  L 1 5.833333333333334  C 1.0416666666666667 5.833333333333334  1.0758928571428572 5.847005208333334  1.1026785714285714 5.874348958333334  Z M 2.8169642857142856 5.291015625  C 2.84375 5.318359375  2.857142857142857 5.353298611111112  2.857142857142857 5.395833333333334  L 2.857142857142857 6.854166666666666  C 2.857142857142857 6.896701388888888  2.84375 6.931640625  2.8169642857142856 6.958984375  C 2.7901785714285716 6.986328125  2.755952380952381 7  2.7142857142857144 7  L 1.8571428571428572 7  C 1.815476190476191 7  1.7812500000000002 6.986328125  1.7544642857142858 6.958984375  C 1.7276785714285714 6.931640625  1.7142857142857142 6.896701388888888  1.7142857142857142 6.854166666666666  L 1.7142857142857142 5.395833333333334  C 1.7142857142857142 5.353298611111112  1.7276785714285714 5.318359375  1.7544642857142858 5.291015625  C 1.7812500000000002 5.263671875  1.815476190476191 5.25  1.8571428571428572 5.25  L 2.7142857142857144 5.25  C 2.755952380952381 5.25  2.7901785714285716 5.263671875  2.8169642857142856 5.291015625  Z M 4.53125 4.124348958333333  C 4.558035714285714 4.151692708333333  4.571428571428571 4.186631944444444  4.571428571428571 4.229166666666667  L 4.571428571428571 6.854166666666666  C 4.571428571428571 6.896701388888888  4.558035714285714 6.931640625  4.53125 6.958984375  C 4.504464285714286 6.986328125  4.470238095238096 7  4.428571428571429 7  L 3.5714285714285716 7  C 3.529761904761905 7  3.495535714285715 6.986328125  3.46875 6.958984375  C 3.4419642857142856 6.931640625  3.4285714285714284 6.896701388888888  3.4285714285714284 6.854166666666666  L 3.4285714285714284 4.229166666666667  C 3.4285714285714284 4.186631944444444  3.4419642857142856 4.151692708333333  3.46875 4.124348958333333  C 3.495535714285715 4.097005208333333  3.529761904761905 4.083333333333333  3.5714285714285716 4.083333333333333  L 4.428571428571429 4.083333333333333  C 4.470238095238096 4.083333333333333  4.504464285714286 4.097005208333333  4.53125 4.124348958333333  Z M 6.245535714285714 2.3743489583333335  C 6.272321428571429 2.4016927083333335  6.285714285714286 2.4366319444444446  6.285714285714286 2.4791666666666665  L 6.285714285714286 6.854166666666666  C 6.285714285714286 6.896701388888888  6.272321428571429 6.931640625  6.245535714285714 6.958984375  C 6.21875 6.986328125  6.18452380952381 7  6.142857142857143 7  L 5.285714285714286 7  C 5.2440476190476195 7  5.209821428571429 6.986328125  5.183035714285714 6.958984375  C 5.15625 6.931640625  5.142857142857143 6.896701388888888  5.142857142857143 6.854166666666666  L 5.142857142857143 2.4791666666666665  C 5.142857142857143 2.4366319444444446  5.15625 2.4016927083333335  5.183035714285714 2.3743489583333335  C 5.209821428571429 2.3470052083333335  5.2440476190476195 2.3333333333333335  5.285714285714286 2.3333333333333335  L 6.142857142857143 2.3333333333333335  C 6.18452380952381 2.3333333333333335  6.21875 2.3470052083333335  6.245535714285714 2.3743489583333335  Z M 7.959821428571429 0.041015625  C 7.986607142857143 0.068359375  8 0.10329861111111016  8 0.1458333333333336  L 8 6.854166666666666  C 8 6.896701388888888  7.986607142857143 6.931640625  7.959821428571429 6.958984375  C 7.933035714285714 6.986328125  7.898809523809525 7  7.857142857142857 7  L 7 7  C 6.958333333333335 7  6.924107142857144 6.986328125  6.897321428571429 6.958984375  C 6.870535714285714 6.931640625  6.857142857142857 6.896701388888888  6.857142857142857 6.854166666666666  L 6.857142857142857 0.1458333333333336  C 6.857142857142857 0.10329861111111016  6.870535714285714 0.068359375  6.897321428571429 0.041015625  C 6.924107142857144 0.013671875  6.958333333333335 0  7 0  L 7.857142857142857 0  C 7.898809523809525 0  7.933035714285714 0.013671875  7.959821428571429 0.041015625  Z " fill-rule="nonzero" fill="#ffffff" stroke="none" transform="matrix(1 0 0 1 750 3878 )" />
  </g>
</svg>