<?xml version="1.0" encoding="utf-8"?>
<svg version="1.1" xmlns:xlink="http://www.w3.org/1999/xlink" width="10px" height="7px" xmlns="http://www.w3.org/2000/svg">
  <g transform="matrix(1 0 0 1 -764 -3878 )">
    <path d="M 5.473523421588594 6.631182795698924  C 5.22572980312288 6.877060931899642  5.067888662593347 7  5 7  C 4.932111337406654 7  4.774270196877122 6.877060931899642  4.526476578411406 6.631182795698924  C 4.27868295994569 6.385304659498208  4.154786150712831 6.228912783751493  4.154786150712831 6.162007168458781  C 4.154786150712831 6.0549581839904425  4.260862186014936 5.964635603345281  4.473014256619145 5.891039426523298  C 4.685166327223354 5.817443249701314  4.860828241683639 5.780645161290322  5 5.780645161290322  C 5.139171758316362 5.780645161290322  5.314833672776647 5.817443249701314  5.526985743380855 5.891039426523298  C 5.739137813985065 5.964635603345281  5.845213849287169 6.0549581839904425  5.845213849287169 6.162007168458781  C 5.845213849287169 6.228912783751493  5.721317040054311 6.385304659498208  5.473523421588594 6.631182795698924  Z M 6.8508146639511205 5.263799283154122  C 6.5945349626612355 5.514695340501792  6.435845213849287 5.640143369175627  6.374745417515275 5.640143369175627  C 6.367956551255941 5.640143369175627  6.300067888662594 5.598327359617682  6.171079429735235 5.514695340501792  C 6.042090970807875 5.431063321385901  5.869823489477258 5.347431302270011  5.654276985743381 5.263799283154122  C 5.438730482009505 5.180167264038233  5.220638153428379 5.138351254480287  5 5.138351254480287  C 4.779361846571623 5.138351254480287  4.561269517990495 5.180167264038233  4.3457230142566186 5.263799283154122  C 4.130176510522743 5.347431302270011  3.958757637474542 5.431063321385901  3.8314663951120167 5.514695340501792  C 3.704175152749491 5.598327359617682  3.635437881873727 5.640143369175627  3.625254582484725 5.640143369175627  C 3.564154786150713 5.640143369175627  3.4054650373387645 5.514695340501792  3.1491853360488795 5.263799283154122  C 2.8929056347589954 5.012903225806451  2.7647657841140525 4.857347670250896  2.7647657841140525 4.797132616487456  C 2.7647657841140525 4.753643966547193  2.78173794976239 4.715173237753882  2.815682281059063 4.681720430107527  C 3.080448065173116 4.424133811230585  3.4131025118805165 4.221744324970131  3.8136456211812626 4.074551971326165  C 4.21418873048201 3.927359617682198  4.609640190088256 3.853763440860215  5 3.853763440860215  C 5.390359809911746 3.853763440860215  5.785811269517991 3.927359617682198  6.186354378818737 4.074551971326165  C 6.586897488119484 4.221744324970131  6.919551934826885 4.424133811230585  7.184317718940937 4.681720430107527  C 7.218262050237611 4.715173237753882  7.2352342158859475 4.753643966547193  7.2352342158859475 4.797132616487456  C 7.2352342158859475 4.857347670250896  7.1070943652410055 5.012903225806451  6.8508146639511205 5.263799283154122  Z M 8.233197556008147 3.8989247311827957  C 7.978615071283097 4.149820788530466  7.8224711473183985 4.275268817204301  7.7647657841140525 4.275268817204301  C 7.727427019687712 4.275268817204301  7.688391038696539 4.2618876941457575  7.647657841140529 4.235125448028674  C 7.186014935505771 3.8838709677419354  6.758316361167686 3.6254480286738353  6.364562118126273 3.459856630824373  C 5.970807875084861 3.2942652329749107  5.515953835709437 3.2114695340501793  5 3.2114695340501793  C 4.711473183978276 3.2114695340501793  4.422097759674135 3.2482676224611713  4.1318737270875765 3.3218637992831543  C 3.841649694501018 3.395459976105137  3.5887644263408007 3.4841099163679803  3.3732179226069245 3.5878136200716852  C 3.157671418873049 3.691517323775388  2.9650373387644264 3.795221027479091  2.795315682281059 3.8989247311827957  C 2.6255940257976924 4.002628434886499  2.491513917175832 4.091278375149342  2.3930753564154785 4.164874551971327  C 2.294636795655126 4.23847072879331  2.242023082145282 4.275268817204301  2.235234215885947 4.275268817204301  C 2.1775288526816023 4.275268817204301  2.021384928716904 4.149820788530466  1.7668024439918533 3.8989247311827957  C 1.5122199592668026 3.6480286738351255  1.384928716904277 3.4924731182795696  1.384928716904277 3.4322580645161294  C 1.384928716904277 3.3921146953405015  1.4019008825526138 3.35531660692951  1.4358452138492872 3.3218637992831543  C 1.883910386965377 2.8802867383512543  2.4270196877121526 2.537395459976105  3.0651731160896127 2.2931899641577056  C 3.703326544467074 2.048984468339307  4.34826883910387 1.9268817204301074  5 1.9268817204301074  C 5.651731160896131 1.9268817204301074  6.296673455532926 2.048984468339307  6.934826883910387 2.2931899641577056  C 7.572980312287849 2.537395459976105  8.116089613034623 2.8802867383512543  8.564154786150713 3.3218637992831543  C 8.598099117447388 3.35531660692951  8.615071283095725 3.3921146953405015  8.615071283095723 3.4322580645161294  C 8.615071283095725 3.4924731182795696  8.487780040733199 3.6480286738351255  8.233197556008147 3.8989247311827957  Z M 9.615580448065174 2.5390681003584232  C 9.359300746775288 2.7899641577060934  9.202308214528173 2.9154121863799283  9.144602851323828 2.9154121863799283  C 9.107264086897489 2.9154121863799283  9.069925322471148 2.9003584229390684  9.032586558044805 2.8702508960573474  C 8.424983027834351 2.345041816009558  7.794467073998643 1.9494623655913976  7.141038696537678 1.6835125448028676  C 6.4876103190767145 1.4175627240143367  5.773930753564155 1.2845878136200717  5 1.2845878136200717  C 4.226069246435845 1.2845878136200717  3.5123896809232855 1.4175627240143367  2.858961303462322 1.6835125448028676  C 2.205532926001358 1.9494623655913976  1.5750169721656484 2.345041816009558  0.9674134419551934 2.8702508960573474  C 0.9300746775288528 2.9003584229390684  0.892735913102512 2.9154121863799283  0.8553971486761711 2.9154121863799283  C 0.7976917854718263 2.9154121863799283  0.6406992532247114 2.7899641577060934  0.3844195519348269 2.5390681003584232  C 0.12813985064494232 2.2881720430107526  0 2.132616487455197  0 2.0724014336917564  C 0 2.028912783751493  0.01697216564833674 1.9904420549581836  0.05091649694501019 1.9569892473118278  C 0.6856754921928039 1.3347670250896053  1.4409368635437882 0.8530465949820791  2.3167006109979633 0.5118279569892473  C 3.1924643584521384 0.17060931899641552  4.086897488119484 0  5 0  C 5.913102511880517 0  6.807535641547862 0.17060931899641552  7.683299389002036 0.5118279569892473  C 8.559063136456214 0.8530465949820791  9.314324507807196 1.3347670250896053  9.94908350305499 1.9569892473118278  C 9.983027834351663 1.9904420549581836  10 2.028912783751493  10 2.0724014336917564  C 10 2.132616487455197  9.871860149355058 2.2881720430107526  9.615580448065174 2.5390681003584232  Z " fill-rule="nonzero" fill="#ffffff" stroke="none" transform="matrix(1 0 0 1 764 3878 )" />
  </g>
</svg>