<?xml version="1.0" encoding="utf-8"?>
<svg version="1.1" xmlns:xlink="http://www.w3.org/1999/xlink" width="13px" height="7px" xmlns="http://www.w3.org/2000/svg">
  <g transform="matrix(1 0 0 1 -780 -3878 )">
    <path d="M 8.666666666666666 5.6000000000000005  L 1.4444444444444444 5.6000000000000005  L 1.4444444444444444 1.3999999999999997  L 8.666666666666666 1.3999999999999997  L 8.666666666666666 5.6000000000000005  Z M 12.277777777777777 0.875  L 12.277777777777777 1.75  C 12.477141203703704 1.7499999999999991  12.647352430555555 1.8183593749999991  12.788411458333334 1.955078125  C 12.92947048611111 2.091796874999999  13 2.2567708333333325  13 2.4499999999999997  L 13 4.55  C 13 4.743229166666666  12.92947048611111 4.908203125  12.788411458333334 5.044921875  C 12.647352430555555 5.181640625  12.477141203703704 5.25  12.277777777777777 5.25  L 12.277777777777777 6.125  C 12.277777777777777 6.3656250000000005  12.189380787037038 6.571614583333334  12.012586805555555 6.74296875  C 11.835792824074076 6.914322916666666  11.62326388888889 7  11.375 7  L 0.9027777777777778 7  C 0.654513888888889 7  0.4419849537037037 6.914322916666666  0.2651909722222222 6.74296875  C 0.08839699074074074 6.571614583333334  0 6.3656250000000005  0 6.125  L 0 0.875  C 0 0.6343749999999997  0.08839699074074074 0.4283854166666664  0.2651909722222222 0.25703125000000016  C 0.4419849537037037 0.08567708333333235  0.654513888888889 0  0.9027777777777778 0  L 11.375 0  C 11.62326388888889 0  11.835792824074076 0.08567708333333235  12.012586805555555 0.25703125000000016  C 12.189380787037038 0.4283854166666664  12.277777777777777 0.6343749999999997  12.277777777777777 0.875  Z M 11.555555555555555 4.55  L 12.277777777777777 4.55  L 12.277777777777777 2.4499999999999997  L 11.555555555555555 2.4499999999999997  L 11.555555555555555 0.875  C 11.555555555555555 0.8239583333333323  11.538628472222223 0.7820312499999998  11.504774305555555 0.7492187500000002  C 11.47092013888889 0.7164062499999997  11.427662037037038 0.6999999999999998  11.375 0.6999999999999998  L 0.9027777777777778 0.6999999999999998  C 0.8501157407407409 0.6999999999999998  0.806857638888889 0.7164062499999997  0.7730034722222222 0.7492187500000002  C 0.7391493055555556 0.7820312499999998  0.7222222222222222 0.8239583333333323  0.7222222222222222 0.875  L 0.7222222222222222 6.125  C 0.7222222222222222 6.176041666666666  0.7391493055555556 6.21796875  0.7730034722222222 6.25078125  C 0.806857638888889 6.2835937500000005  0.8501157407407409 6.3  0.9027777777777778 6.3  L 11.375 6.3  C 11.427662037037038 6.3  11.47092013888889 6.2835937500000005  11.504774305555555 6.25078125  C 11.538628472222223 6.21796875  11.555555555555555 6.176041666666666  11.555555555555555 6.125  L 11.555555555555555 4.55  Z " fill-rule="nonzero" fill="#ffffff" stroke="none" transform="matrix(1 0 0 1 780 3878 )" />
  </g>
</svg>