<?xml version="1.0" encoding="utf-8"?>
<svg version="1.1" xmlns:xlink="http://www.w3.org/1999/xlink" width="21px" height="15px" xmlns="http://www.w3.org/2000/svg">
  <g transform="matrix(1 0 0 1 -766 -3913 )">
    <path d="M 13.447288503253796 12.462303980699637  C 13.73882863340564 12.754825090470446  13.884598698481561 13.10615199034982  13.884598698481561 13.516284680337757  C 13.884598698481561 13.926417370325693  13.73882863340564 14.276236429433052  13.447288503253796 14.56574185765983  C 13.155748373101952 14.85524728588661  12.803470715835141 15  12.39045553145336 15  C 11.977440347071584 15  11.623644251626898 14.85524728588661  11.329067245119306 14.56574185765983  C 11.034490238611715 14.276236429433052  10.887201735357918 13.926417370325693  10.887201735357918 13.516284680337757  C 10.887201735357918 13.10615199034982  11.034490238611715 12.754825090470446  11.329067245119306 12.462303980699637  C 11.623644251626898 12.169782870928831  11.977440347071584 12.023522316043426  12.39045553145336 12.023522316043426  C 12.803470715835141 12.023522316043426  13.155748373101952 12.169782870928831  13.447288503253796 12.462303980699637  Z M 6.6188720173535796 12.462303980699637  C 6.913449023861172 12.754825090470446  7.060737527114968 13.10615199034982  7.060737527114968 13.516284680337757  C 7.060737527114968 13.926417370325693  6.913449023861172 14.276236429433052  6.6188720173535796 14.56574185765983  C 6.324295010845987 14.85524728588661  5.970498915401302 15  5.5574837310195235 15  C 5.144468546637745 15  4.792190889370933 14.85524728588661  4.50065075921909 14.56574185765983  C 4.209110629067244 14.276236429433052  4.063340563991323 13.926417370325693  4.063340563991323 13.516284680337757  C 4.063340563991323 13.10615199034982  4.209110629067244 12.754825090470446  4.50065075921909 12.462303980699637  C 4.792190889370933 12.169782870928831  5.144468546637745 12.023522316043426  5.5574837310195235 12.023522316043426  C 5.970498915401302 12.023522316043426  6.324295010845987 12.169782870928831  6.6188720173535796 12.462303980699637  Z M 0.3325379609544468 0.5382991556091671  C 0.18980477223427333 0.2940289505428223  0.07895878524945771 0.11459589867309827  0 0  C 0.34620390455531463 0.36188178528347437  0.6817787418655099 0.6770205066344992  1.0067245119305857 0.9454161640530762  C 1.3316702819956616 1.2138118214716513  1.6991323210412146 1.461097708082026  2.1091106290672452 1.6872738238841978  C 2.5190889370932754 1.9134499396863696  2.9321041214750547 2.1034378769601925  3.3481561822125814 2.2572376357056694  C 3.7642082429501085 2.4110373944511467  4.268329718004338 2.548250904704462  4.860520607375271 2.668878166465621  C 5.452711496746204 2.789505428226779  6.060086767895879 2.884499396863691  6.6826464208242955 2.953860072376356  C 7.305206073752712 3.0232207478890216  8.064425162689806 3.0790108564535585  8.960303687635575 3.1212303980699634  C 9.856182212581347 3.1634499396863687  10.779392624728851 3.1920989143546437  11.72993492407809 3.2071773220747883  C 12.680477223427333 3.2222557297949317  13.811713665943602 3.229794933655006  15.123644251626898 3.229794933655006  C 15.967895878524946 3.229794933655006  16.710412147505423 3.244873341375149  17.35119305856833 3.2750301568154407  C 17.99197396963124 3.3051869722557288  18.541648590021694 3.354945717732206  19.000216919739696 3.424306393244873  C 19.4587852494577 3.493667068757538  19.8353579175705 3.5765983112183353  20.12993492407809 3.673100120627262  C 20.424511930585684 3.769601930036186  20.640130151843817 3.8887213510253305  20.776789587852495 4.030458383594692  C 20.913449023861173 4.172195416164052  20.98633405639913 4.327503015681544  20.995444685466378 4.496381182147166  C 21.004555314533626 4.665259348612785  20.945336225596527 4.858262967430639  20.817787418655097 5.075392038600723  C 20.690238611713667 5.292521109770808  20.518655097613884 5.523220747889023  20.303036876355748 5.7674909529553675  C 20.087418655097615 6.011761158021712  19.815618221258134 6.286188178528347  19.48763557483731 6.590772014475271  C 19.159652928416484 6.895355850422195  18.807375271149677 7.2104945717732205  18.430802603036877 7.536188178528348  C 18.05422993492408 7.861881785283474  17.632104121475056 8.220747889022919  17.164425162689803 8.612786489746684  C 16.040780911062907 9.559710494571773  15.172234273318873 10.304583835946923  14.558785249457701 10.847406513872135  C 14.734924078091108 10.53980699638118  14.96724511930586 10.211097708082026  15.255748373101952 9.861278648974668  C 15.54425162689805 9.511459589867307  15.829718004338396 9.193305186972253  16.112147505422993 8.906815440289506  C 16.394577006507596 8.620325693606754  16.681561822125815 8.323281061519904  16.97310195227766 8.01568154402895  C 17.264642082429503 7.708082026537998  17.51670281995662 7.432147165259348  17.729284164859003 7.1878769601930035  C 17.94186550976139 6.943606755126658  18.1058568329718 6.700844390832328  18.22125813449024 6.459589867310012  C 18.33665943600868 6.218335343787695  18.376138828633408 6.007237635705668  18.339696312364424 5.826296743063932  C 18.303253796095447 5.645355850422195  18.165075921908898 5.477985524728588  17.925162689804772 5.324185765983112  C 17.685249457700653 5.170386007237636  17.331453362255967 5.046743063932448  16.863774403470718 4.953256936067551  C 16.396095444685468 4.859770808202652  15.776572668112799 4.788902291917974  15.005206073752712 4.740651387213511  C 14.233839479392627 4.692400482509045  13.31062906724512 4.6773220747889015  12.235574837310194 4.695416164053076  C 11.215184381778743 4.707478890229192  10.261605206073755 4.6893848009650165  9.374837310195227 4.641133896260554  C 8.488069414316703 4.59288299155609  7.71062906724512 4.523522316043426  7.042516268980478 4.433051869722557  C 6.374403470715835 4.342581423401689  5.753362255965293 4.218938480096502  5.17939262472885 4.0621230398069965  C 4.605422993492408 3.9053075995174904  4.121041214750543 3.75  3.726247288503254 3.596200241254523  C 3.3314533622559654 3.4424004825090475  2.95943600867679 3.2539203860072363  2.6101952277657268 3.0307599517490957  C 2.2609544468546643 2.807599517490952  1.983080260303688 2.6070566948130267  1.7765726681127982 2.4291314837153193  C 1.5700650759219088 2.25120627261761  1.3635574837310198 2.035585042219542  1.1570498915401302 1.7822677925211101  C 0.9505422993492408 1.528950542822678  0.7971800433839479 1.319360675512666  0.6969631236442517 1.1534981905910735  C 0.5967462039045554 0.9876357056694796  0.4752711496746204 0.7825693606755119  0.3325379609544468 0.5382991556091671  Z " fill-rule="nonzero" fill="#ffffff" stroke="none" transform="matrix(1 0 0 1 766 3913 )" />
  </g>
</svg>