<?xml version="1.0" encoding="utf-8"?>
<svg version="1.1" xmlns:xlink="http://www.w3.org/1999/xlink" width="18px" height="15px" xmlns="http://www.w3.org/2000/svg">
  <g transform="matrix(1 0 0 1 -563 -3913 )">
    <path d="M 17.77734375 12.22265625  C 17.92578125 12.371093750000002  18 12.546875000000002  18 12.75  L 18 14.25  C 18 14.453125  17.92578125 14.62890625  17.77734375 14.77734375  C 17.628906250000004 14.92578125  17.453125000000004 15  17.25 15  L 0.75 15  C 0.546875 15  0.37109375 14.92578125  0.22265625 14.77734375  C 0.07421875 14.62890625  0 14.453125  0 14.25  L 0 12.75  C 0 12.546875000000002  0.07421875 12.371093750000002  0.22265625 12.22265625  C 0.37109375 12.07421875  0.546875 12  0.75 12  L 17.25 12  C 17.453125000000004 12  17.628906250000004 12.07421875  17.77734375 12.22265625  Z M 17.77734375 6.222656249999999  C 17.92578125 6.371093749999999  18 6.546874999999999  18 6.749999999999999  L 18 8.25  C 18 8.453125  17.92578125 8.62890625  17.77734375 8.77734375  C 17.628906250000004 8.925781249999998  17.453125000000004 9  17.25 9  L 0.75 9  C 0.546875 9  0.37109375 8.925781249999998  0.22265625 8.77734375  C 0.07421875 8.62890625  0 8.453125  0 8.25  L 0 6.749999999999999  C 0 6.546874999999999  0.07421875 6.371093749999999  0.22265625 6.222656249999999  C 0.37109375 6.074218750000001  0.546875 6  0.75 6  L 17.25 6  C 17.453125000000004 6  17.628906250000004 6.074218750000001  17.77734375 6.222656249999999  Z M 17.77734375 0.22265625000000067  C 17.92578125 0.3710937499999989  18 0.5468749999999989  18 0.7500000000000007  L 18 2.2500000000000004  C 18 2.4531249999999987  17.92578125 2.6289062499999987  17.77734375 2.7773437500000004  C 17.628906250000004 2.9257812499999987  17.453125000000004 2.999999999999999  17.25 3  L 0.75 3  C 0.546875 2.999999999999999  0.37109375 2.9257812499999987  0.22265625 2.7773437500000004  C 0.07421875 2.6289062499999987  0 2.4531249999999987  0 2.2500000000000004  L 0 0.7500000000000007  C 0 0.5468749999999989  0.07421875 0.3710937499999989  0.22265625 0.22265625000000067  C 0.37109375 0.07421874999999911  0.546875 0  0.75 0  L 17.25 0  C 17.453125000000004 0  17.628906250000004 0.07421874999999911  17.77734375 0.22265625000000067  Z " fill-rule="nonzero" fill="#ffffff" stroke="none" transform="matrix(1 0 0 1 563 3913 )" />
  </g>
</svg>