<?xml version="1.0" encoding="utf-8"?>
<svg version="1.1" xmlns:xlink="http://www.w3.org/1999/xlink" width="225px" height="494px" xmlns="http://www.w3.org/2000/svg">
  <g transform="matrix(1 0 0 1 -363 -5283 )">
    <path d="M 224.78171802948955 20.56226555880712  C 224.78171802948955 20.562848958334897  224.78171800434276 20.563432358227637  224 20.564015757753243  L 224 472.94130074631005  C 224.77946714347894 484.1652671667333  215.66882049304178 493.26237956476956  204.4322564501825 493  L 20.56696509492426 493  C 9.33040105206492 493.26237956476956  0.2197544016278716 484.1652671667333  1 472.94130074631005  L 1 20.56401575775322  C 0.21750354076393513 20.563432358017963  0.2175035156171805 20.562848958544553  0.2175035156171805 20.56226555880712  C 0.2175035156171805 9.337134810389417  9.327483327160115 0.23736838962616869  20.565212931590793 0.23736838962616869  C 20.565796986054178 0.23736838962616869  20.56638104046303 0.2373684147447624  20.56696509492426 1  L 48.08068429716068 1  L 48.08068429716068 3.7672787573420723  C 48.08333977904845 13.009996554730526  55.58378916612491 20.5020370295813  64.8368807999798 21  L 158.3434359408778 21  C 167.59761754439043 20.50466496075096  175.09960784251476 13.011085302400318  175.09963244369692 3.767278757342093  L 175.09963244369692 1  L 204.4322564501825 1  C 204.43284050457387 0.2373684147447624  204.43342455912253 0.23736838962616869  204.4340086135159 0.23736838962616869  C 215.67173821794654 0.23736838962616869  224.78171802948955 9.337134810389417  224.78171802948955 20.56226555880712  Z " fill-rule="nonzero" fill="#8080ff" stroke="none" transform="matrix(1 0 0 1 363 5283 )" />
  </g>
</svg>