<?xml version="1.0" encoding="utf-8"?>
<svg version="1.1" xmlns:xlink="http://www.w3.org/1999/xlink" width="7px" height="6px" xmlns="http://www.w3.org/2000/svg">
  <g transform="matrix(1 0 0 1 -541 -5289 )">
    <path d="M 0.96484375 5.03515625  C 0.9882812500000001 5.05859375  1 5.088541666666667  1 5.125  L 1 5.875  C 1 5.911458333333333  0.9882812500000001 5.94140625  0.96484375 5.96484375  C 0.94140625 5.98828125  0.9114583333333334 6  0.875 6  L 0.125 6  C 0.08854166666666667 6  0.058593750000000014 5.98828125  0.03515625 5.96484375  C 0.01171875 5.94140625  0 5.911458333333333  0 5.875  L 0 5.125  C 0 5.088541666666667  0.01171875 5.05859375  0.03515625 5.03515625  C 0.058593750000000014 5.01171875  0.08854166666666667 5  0.125 5  L 0.875 5  C 0.9114583333333334 5  0.94140625 5.01171875  0.96484375 5.03515625  Z M 2.46484375 4.53515625  C 2.48828125 4.55859375  2.5 4.588541666666667  2.5 4.625  L 2.5 5.875  C 2.5 5.911458333333333  2.48828125 5.94140625  2.46484375 5.96484375  C 2.44140625 5.98828125  2.4114583333333335 6  2.375 6  L 1.625 6  C 1.588541666666667 6  1.5585937500000002 5.98828125  1.53515625 5.96484375  C 1.51171875 5.94140625  1.5 5.911458333333333  1.5 5.875  L 1.5 4.625  C 1.5 4.588541666666667  1.51171875 4.55859375  1.53515625 4.53515625  C 1.5585937500000002 4.51171875  1.588541666666667 4.5  1.625 4.5  L 2.375 4.5  C 2.4114583333333335 4.5  2.44140625 4.51171875  2.46484375 4.53515625  Z M 3.96484375 3.5351562499999996  C 3.98828125 3.5585937499999996  4 3.588541666666666  4 3.6250000000000004  L 4 5.875  C 4 5.911458333333333  3.98828125 5.94140625  3.96484375 5.96484375  C 3.94140625 5.98828125  3.911458333333334 6  3.875 6  L 3.125 6  C 3.088541666666667 6  3.0585937500000004 5.98828125  3.03515625 5.96484375  C 3.01171875 5.94140625  3 5.911458333333333  3 5.875  L 3 3.6250000000000004  C 3 3.588541666666666  3.01171875 3.5585937499999996  3.03515625 3.5351562499999996  C 3.0585937500000004 3.5117187499999996  3.088541666666667 3.4999999999999996  3.125 3.4999999999999996  L 3.875 3.4999999999999996  C 3.911458333333334 3.4999999999999996  3.94140625 3.5117187499999996  3.96484375 3.5351562499999996  Z M 5.46484375 2.03515625  C 5.48828125 2.05859375  5.5 2.088541666666667  5.5 2.125  L 5.5 5.875  C 5.5 5.911458333333333  5.48828125 5.94140625  5.46484375 5.96484375  C 5.44140625 5.98828125  5.411458333333334 6  5.375 6  L 4.625 6  C 4.588541666666667 6  4.55859375 5.98828125  4.53515625 5.96484375  C 4.51171875 5.94140625  4.5 5.911458333333333  4.5 5.875  L 4.5 2.125  C 4.5 2.088541666666667  4.51171875 2.05859375  4.53515625 2.03515625  C 4.55859375 2.01171875  4.588541666666667 2  4.625 2  L 5.375 2  C 5.411458333333334 2  5.44140625 2.01171875  5.46484375 2.03515625  Z M 6.96484375 0.03515625  C 6.98828125 0.05859375  7 0.08854166666666585  7 0.12500000000000022  L 7 5.875  C 7 5.911458333333333  6.98828125 5.94140625  6.96484375 5.96484375  C 6.94140625 5.98828125  6.911458333333334 6  6.875 6  L 6.125 6  C 6.088541666666668 6  6.058593750000001 5.98828125  6.03515625 5.96484375  C 6.01171875 5.94140625  6 5.911458333333333  6 5.875  L 6 0.12500000000000022  C 6 0.08854166666666585  6.01171875 0.05859375  6.03515625 0.03515625  C 6.058593750000001 0.01171875  6.088541666666668 0  6.125 0  L 6.875 0  C 6.911458333333334 0  6.94140625 0.01171875  6.96484375 0.03515625  Z " fill-rule="nonzero" fill="#ffffff" stroke="none" transform="matrix(1 0 0 1 541 5289 )" />
  </g>
</svg>