<?xml version="1.0" encoding="utf-8"?>
<svg version="1.1" xmlns:xlink="http://www.w3.org/1999/xlink" width="9px" height="6px" xmlns="http://www.w3.org/2000/svg">
  <g transform="matrix(1 0 0 1 -553 -5289 )">
    <path d="M 4.926171079429735 5.683870967741935  C 4.703156822810591 5.894623655913978  4.5610997963340125 6  4.5 6  C 4.438900203665988 6  4.29684317718941 5.894623655913978  4.073828920570265 5.683870967741935  C 3.850814663951121 5.473118279569892  3.739307535641548 5.339068100358423  3.7393075356415477 5.2817204301075265  C 3.739307535641548 5.189964157706093  3.8347759674134427 5.112544802867384  4.02571283095723 5.049462365591398  C 4.216649694501019 4.9863799283154115  4.374745417515275 4.95483870967742  4.5 4.95483870967742  C 4.625254582484726 4.95483870967742  4.783350305498982 4.9863799283154115  4.97428716904277 5.049462365591398  C 5.165224032586558 5.112544802867384  5.260692464358452 5.189964157706093  5.260692464358452 5.2817204301075265  C 5.260692464358452 5.339068100358423  5.14918533604888 5.473118279569892  4.926171079429735 5.683870967741935  Z M 6.165733197556008 4.511827956989247  C 5.935081466395112 4.726881720430107  5.7922606924643585 4.834408602150537  5.737270875763747 4.834408602150537  C 5.731160896130347 4.834408602150537  5.670061099796334 4.798566308243727  5.553971486761711 4.726881720430107  C 5.437881873727088 4.655197132616487  5.282841140529532 4.583512544802867  5.088849287169042 4.511827956989247  C 4.894857433808554 4.440143369175628  4.698574338085541 4.404301075268817  4.5 4.404301075268817  C 4.301425661914461 4.404301075268817  4.105142566191446 4.440143369175628  3.911150712830957 4.511827956989247  C 3.7171588594704685 4.583512544802867  3.562881873727088 4.655197132616487  3.448319755600815 4.726881720430107  C 3.333757637474542 4.798566308243727  3.2718940936863543 4.834408602150537  3.2627291242362526 4.834408602150537  C 3.2077393075356415 4.834408602150537  3.0649185336048883 4.726881720430107  2.8342668024439917 4.511827956989247  C 2.603615071283096 4.296774193548387  2.4882892057026473 4.163440860215054  2.4882892057026473 4.111827956989248  C 2.4882892057026473 4.074551971326165  2.503564154786151 4.041577060931899  2.5341140529531567 4.012903225806451  C 2.772403258655804 3.792114695340502  3.071792260692465 3.6186379928315406  3.4322810590631363 3.49247311827957  C 3.7927698574338087 3.366308243727598  4.148676171079431 3.303225806451613  4.5 3.303225806451613  C 4.851323828920571 3.303225806451613  5.207230142566192 3.366308243727598  5.567718940936864 3.49247311827957  C 5.928207739307536 3.6186379928315406  6.227596741344196 3.792114695340502  6.465885947046843 4.012903225806451  C 6.496435845213849 4.041577060931899  6.511710794297352 4.074551971326165  6.511710794297352 4.111827956989248  C 6.511710794297352 4.163440860215054  6.3963849287169054 4.296774193548387  6.165733197556008 4.511827956989247  Z M 7.409877800407332 3.3419354838709676  C 7.180753564154788 3.556989247311828  7.040224032586559 3.6645161290322585  6.988289205702648 3.6645161290322585  C 6.954684317718941 3.6645161290322585  6.919551934826885 3.653046594982078  6.882892057026476 3.6301075268817202  C 6.467413441955194 3.329032258064516  6.082484725050917 3.1075268817204305  5.728105906313645 2.9655913978494626  C 5.373727087576375 2.8236559139784947  4.964358452138494 2.752688172043011  4.5 2.752688172043011  C 4.2403258655804485 2.752688172043011  3.9798879837067216 2.784229390681004  3.718686354378819 2.8473118279569896  C 3.457484725050916 2.9103942652329744  3.2298879837067207 2.9863799283154115  3.035896130346232 3.0752688172043015  C 2.8419042769857437 3.1641577060931896  2.6685336048879837 3.253046594982078  2.5157841140529533 3.3419354838709676  C 2.363034623217923 3.430824372759856  2.242362525458249 3.5068100358422933  2.153767820773931 3.56989247311828  C 2.065173116089613 3.6329749103942652  2.0178207739307537 3.6645161290322585  2.0117107942973522 3.6645161290322585  C 1.959775967413442 3.6645161290322585  1.8192464358452138 3.556989247311828  1.590122199592668 3.3419354838709676  C 1.3609979633401224 3.1268817204301076  1.2464358452138493 2.993548387096774  1.2464358452138493 2.941935483870968  C 1.2464358452138493 2.90752688172043  1.2617107942973524 2.875985663082437  1.2922606924643585 2.8473118279569896  C 1.6955193482688393 2.468817204301075  2.184317718940937 2.1749103942652326  2.7586558044806515 1.9655913978494621  C 3.332993890020367 1.7562724014336915  3.9134419551934827 1.6516129032258065  4.5 1.6516129032258065  C 5.086558044806518 1.6516129032258065  5.667006109979633 1.7562724014336915  6.241344195519348 1.9655913978494621  C 6.815682281059065 2.1749103942652326  7.3044806517311605 2.468817204301075  7.7077393075356415 2.8473118279569896  C 7.738289205702649 2.875985663082437  7.753564154786152 2.90752688172043  7.753564154786151 2.941935483870968  C 7.753564154786152 2.993548387096774  7.639002036659878 3.1268817204301076  7.409877800407332 3.3419354838709676  Z M 8.654022403258656 2.1763440860215058  C 8.423370672097759 2.3913978494623658  8.282077393075356 2.498924731182796  8.230142566191446 2.498924731182796  C 8.19653767820774 2.498924731182796  8.162932790224033 2.4860215053763444  8.129327902240325 2.4602150537634406  C 7.582484725050916 2.010035842293907  7.015020366598779 1.6709677419354836  6.42693482688391 1.4430107526881721  C 5.838849287169043 1.21505376344086  5.196537678207739 1.1010752688172043  4.5 1.1010752688172043  C 3.8034623217922605 1.1010752688172043  3.161150712830957 1.21505376344086  2.5730651731160896 1.4430107526881721  C 1.9849796334012224 1.6709677419354836  1.4175152749490836 2.010035842293907  0.8706720977596741 2.4602150537634406  C 0.8370672097759675 2.4860215053763444  0.8034623217922607 2.498924731182796  0.769857433808554 2.498924731182796  C 0.7179226069246436 2.498924731182796  0.5766293279022403 2.3913978494623658  0.3459775967413442 2.1763440860215058  C 0.11532586558044808 1.9612903225806453  0 1.8279569892473118  0 1.7763440860215056  C 0 1.7390681003584227  0.015274949083503067 1.7060931899641574  0.045824847250509164 1.6774193548387095  C 0.6171079429735236 1.144086021505376  1.2968431771894096 0.731182795698925  2.0850305498981667 0.43870967741935485  C 2.8732179226069245 0.14623655913978473  3.6782077393075356 0  4.5 0  C 5.321792260692465 0  6.1267820773930755 0.14623655913978473  6.914969450101832 0.43870967741935485  C 7.703156822810592 0.731182795698925  8.382892057026478 1.144086021505376  8.95417515274949 1.6774193548387095  C 8.984725050916497 1.7060931899641574  9 1.7390681003584227  9 1.7763440860215056  C 9 1.8279569892473118  8.884674134419553 1.9612903225806453  8.654022403258656 2.1763440860215058  Z " fill-rule="nonzero" fill="#ffffff" stroke="none" transform="matrix(1 0 0 1 553 5289 )" />
  </g>
</svg>