<?xml version="1.0" encoding="utf-8"?>
<svg version="1.1" xmlns:xlink="http://www.w3.org/1999/xlink" width="11px" height="6px" xmlns="http://www.w3.org/2000/svg">
  <g transform="matrix(1 0 0 1 -567 -5289 )">
    <path d="M 7.333333333333333 4.800000000000001  L 1.222222222222222 4.800000000000001  L 1.222222222222222 1.1999999999999997  L 7.333333333333333 1.1999999999999997  L 7.333333333333333 4.800000000000001  Z M 10.38888888888889 0.75  L 10.38888888888889 1.5  C 10.557581018518519 1.4999999999999993  10.701605902777777 1.5585937499999993  10.820963541666668 1.67578125  C 10.940321180555555 1.7929687499999993  11 1.9343749999999993  11 2.0999999999999996  L 11 3.9000000000000004  C 11 4.065624999999999  10.940321180555555 4.20703125  10.820963541666668 4.32421875  C 10.701605902777777 4.44140625  10.557581018518519 4.5  10.38888888888889 4.5  L 10.38888888888889 5.25  C 10.38888888888889 5.456250000000001  10.314091435185187 5.6328125  10.164496527777777 5.7796875  C 10.014901620370372 5.926562499999999  9.835069444444445 6  9.625 6  L 0.763888888888889 6  C 0.5538194444444444 6  0.37398726851851855 5.926562499999999  0.2243923611111111 5.7796875  C 0.0747974537037037 5.6328125  0 5.456250000000001  0 5.25  L 0 0.75  C 0 0.5437499999999997  0.0747974537037037 0.3671874999999998  0.2243923611111111 0.22031250000000013  C 0.37398726851851855 0.07343749999999916  0.5538194444444444 0  0.763888888888889 0  L 9.625 0  C 9.835069444444445 0  10.014901620370372 0.07343749999999916  10.164496527777777 0.22031250000000013  C 10.314091435185187 0.3671874999999998  10.38888888888889 0.5437499999999997  10.38888888888889 0.75  Z M 9.777777777777777 3.9000000000000004  L 10.38888888888889 3.9000000000000004  L 10.38888888888889 2.0999999999999996  L 9.777777777777777 2.0999999999999996  L 9.777777777777777 0.75  C 9.777777777777777 0.7062499999999992  9.76345486111111 0.6703124999999999  9.734809027777777 0.6421875000000001  C 9.706163194444445 0.6140624999999997  9.669560185185187 0.5999999999999999  9.625 0.5999999999999999  L 0.763888888888889 0.5999999999999999  C 0.7193287037037038 0.5999999999999999  0.6827256944444444 0.6140624999999997  0.654079861111111 0.6421875000000001  C 0.6254340277777778 0.6703124999999999  0.611111111111111 0.7062499999999992  0.611111111111111 0.75  L 0.611111111111111 5.25  C 0.611111111111111 5.293749999999999  0.6254340277777778 5.3296875  0.654079861111111 5.3578125  C 0.6827256944444444 5.385937500000001  0.7193287037037038 5.4  0.763888888888889 5.4  L 9.625 5.4  C 9.669560185185187 5.4  9.706163194444445 5.385937500000001  9.734809027777777 5.3578125  C 9.76345486111111 5.3296875  9.777777777777777 5.293749999999999  9.777777777777777 5.25  L 9.777777777777777 3.9000000000000004  Z " fill-rule="nonzero" fill="#ffffff" stroke="none" transform="matrix(1 0 0 1 567 5289 )" />
  </g>
</svg>