<?xml version="1.0" encoding="utf-8"?>
<svg version="1.1" xmlns:xlink="http://www.w3.org/1999/xlink" width="17px" height="15px" xmlns="http://www.w3.org/2000/svg">
  <g transform="matrix(1 0 0 1 -553 -5361 )">
    <path d="M 8.917410714285714 14.82421875  C 8.803571428571429 14.94140625  8.664434523809524 15  8.5 15  C 8.335565476190476 15  8.196428571428573 14.94140625  8.082589285714285 14.82421875  L 2.1629464285714284 8.945312500000002  C 2.099702380952381 8.893229166666666  2.0127418154761907 8.808593749999998  1.9020647321428572 8.691406249999998  C 1.791387648809524 8.574218749999998  1.6158854166666667 8.361002604166668  1.3755580357142858 8.051757812500002  C 1.1352306547619047 7.742513020833331  0.9202008928571429 7.425130208333332  0.73046875 7.099609374999999  C 0.5407366071428571 6.774088541666667  0.3715587797619048 6.380208333333333  0.22293526785714285 5.91796875  C 0.07431175595238096 5.455729166666665  0 5.006510416666666  0 4.5703125  C 0 3.1380208333333326  0.40159970238095233 2.0182291666666656  1.2047991071428572 1.2109374999999996  C 2.007998511904762 0.40364583333333315  3.1179315476190474 0  4.534598214285714 0  C 4.926711309523809 0  5.326729910714286 0.06998697916666574  5.734654017857143 0.20996093750000056  C 6.142578125 0.34993489583333204  6.522042410714286 0.5387369791666657  6.873046875 0.7763671875  C 7.224051339285715 1.0139973958333326  7.526041666666668 1.2369791666666652  7.779017857142857 1.4453124999999996  C 8.031994047619047 1.6536458333333321  8.272321428571429 1.875  8.5 2.109375  C 8.727678571428571 1.875  8.968005952380954 1.6536458333333321  9.220982142857142 1.4453124999999996  C 9.473958333333334 1.2369791666666652  9.775948660714286 1.0139973958333326  10.126953125 0.7763671875  C 10.477957589285714 0.5387369791666657  10.857421875 0.34993489583333204  11.265345982142858 0.20996093750000056  C 11.673270089285714 0.06998697916666574  12.073288690476192 0  12.465401785714286 0  C 13.882068452380954 0  14.992001488095239 0.40364583333333315  15.795200892857142 1.2109374999999996  C 16.598400297619047 2.0182291666666656  17 3.1380208333333326  17 4.5703125  C 17 6.009114583333332  16.275855654761905 7.473958333333332  14.827566964285714 8.96484375  L 8.917410714285714 14.82421875  Z " fill-rule="nonzero" fill="#d9001b" stroke="none" transform="matrix(1 0 0 1 553 5361 )" />
  </g>
</svg>