<?xml version="1.0" encoding="utf-8"?>
<svg version="1.1" xmlns:xlink="http://www.w3.org/1999/xlink" width="50px" height="75px" xmlns="http://www.w3.org/2000/svg">
  <defs>
    <mask fill="white" id="clip820">
      <path d="M 0 50  L 0 25  C 0 11  11 0  25 0  C 39 0  50 11  50 25  L 50 50  C 50 64  39 75  25 75  C 11 75  0 64  0 50  Z M 23 29.5  L 23 19.5  C 23 18.100000000000023  24.09999999999991 17  25.5 17  C 26.90000000000009 17  28.000000000000004 18.100000000000023  28 19.5  L 28 29.5  C 28.000000000000004 30.899999999999977  26.90000000000009 32  25.5 32  C 24.09999999999991 32  23 30.899999999999977  23 29.5  Z " fill-rule="evenodd" />
    </mask>
  </defs>
  <g transform="matrix(1 0 0 1 -1268 -594 )">
    <path d="M 0 50  L 0 25  C 0 11  11 0  25 0  C 39 0  50 11  50 25  L 50 50  C 50 64  39 75  25 75  C 11 75  0 64  0 50  Z M 23 29.5  L 23 19.5  C 23 18.100000000000023  24.09999999999991 17  25.5 17  C 26.90000000000009 17  28.000000000000004 18.100000000000023  28 19.5  L 28 29.5  C 28.000000000000004 30.899999999999977  26.90000000000009 32  25.5 32  C 24.09999999999991 32  23 30.899999999999977  23 29.5  Z " fill-rule="nonzero" fill="#ffffff" stroke="none" fill-opacity="0" transform="matrix(1 0 0 1 1268 594 )" />
    <path d="M 0 50  L 0 25  C 0 11  11 0  25 0  C 39 0  50 11  50 25  L 50 50  C 50 64  39 75  25 75  C 11 75  0 64  0 50  Z " stroke-width="4" stroke="#ffffff" fill="none" transform="matrix(1 0 0 1 1268 594 )" mask="url(#clip820)" />
    <path d="M 23 29.5  L 23 19.5  C 23 18.100000000000023  24.09999999999991 17  25.5 17  C 26.90000000000009 17  28.000000000000004 18.100000000000023  28 19.5  L 28 29.5  C 28.000000000000004 30.899999999999977  26.90000000000009 32  25.5 32  C 24.09999999999991 32  23 30.899999999999977  23 29.5  Z " stroke-width="4" stroke="#ffffff" fill="none" transform="matrix(1 0 0 1 1268 594 )" mask="url(#clip820)" />
  </g>
</svg>