<?xml version="1.0" encoding="utf-8"?>
<svg version="1.1" xmlns:xlink="http://www.w3.org/1999/xlink" width="52px" height="50px" xmlns="http://www.w3.org/2000/svg">
  <g transform="matrix(1 0 0 1 -912 -5520 )">
    <path d="M 938 5521  C 952 5521  963 5531.56  963 5545  C 963 5558.44  952 5569  938 5569  C 924 5569  913 5558.44  913 5545  C 913 5531.56  924 5521  938 5521  Z " fill-rule="nonzero" fill="#ffffff" stroke="none" fill-opacity="0" />
    <path d="M 938 5521  C 952 5521  963 5531.56  963 5545  C 963 5558.44  952 5569  938 5569  C 924 5569  913 5558.44  913 5545  C 913 5531.56  924 5521  938 5521  Z " stroke-width="2" stroke="#ff0000" fill="none" />
  </g>
</svg>