<?xml version="1.0" encoding="utf-8"?>
<svg version="1.1" xmlns:xlink="http://www.w3.org/1999/xlink" width="200px" height="200px" xmlns="http://www.w3.org/2000/svg">
  <defs>
    <linearGradient gradientUnits="userSpaceOnUse" x1="1015" y1="2044" x2="1203" y2="2044" id="LinearGradient821">
      <stop id="Stop822" stop-color="#d9001b" offset="0" />
      <stop id="Stop823" stop-color="#ee910b" offset="0.52" />
      <stop id="Stop824" stop-color="#ffff00" offset="1" />
    </linearGradient>
    <filter x="1015px" y="1948px" width="200px" height="200px" filterUnits="userSpaceOnUse" id="filter825">
      <feOffset dx="5" dy="5" in="SourceAlpha" result="shadowOffsetInner" />
      <feGaussianBlur stdDeviation="2.5" in="shadowOffsetInner" result="shadowGaussian" />
      <feComposite in2="shadowGaussian" operator="atop" in="SourceAlpha" result="shadowComposite" />
      <feColorMatrix type="matrix" values="0 0 0 0 0  0 0 0 0 0  0 0 0 0 0  0 0 0 0.34901960784313724 0  " in="shadowComposite" />
    </filter>
    <g id="widget826">
      <path d="M 1017.5 1973  A 22.5 22.5 0 0 1 1040 1950.5 L 1180 1950.5  A 22.5 22.5 0 0 1 1202.5 1973 L 1202.5 2113  A 22.5 22.5 0 0 1 1180 2135.5 L 1040 2135.5  A 22.5 22.5 0 0 1 1017.5 2113 L 1017.5 1973  Z " fill-rule="nonzero" fill="#333333" stroke="none" />
      <path d="M 1016.5 1973  A 23.5 23.5 0 0 1 1040 1949.5 L 1180 1949.5  A 23.5 23.5 0 0 1 1203.5 1973 L 1203.5 2113  A 23.5 23.5 0 0 1 1180 2136.5 L 1040 2136.5  A 23.5 23.5 0 0 1 1016.5 2113 L 1016.5 1973  Z " stroke-width="3" stroke="url(#LinearGradient821)" fill="none" />
    </g>
  </defs>
  <g transform="matrix(1 0 0 1 -1015 -1948 )">
    <use xlink:href="#widget826" filter="url(#filter825)" />
    <use xlink:href="#widget826" />
  </g>
</svg>