<?xml version="1.0" encoding="utf-8"?>
<svg version="1.1" xmlns:xlink="http://www.w3.org/1999/xlink" width="95px" height="78px" xmlns="http://www.w3.org/2000/svg">
  <g transform="matrix(1 0 0 1 -234 -2577 )">
    <path d="M 234 2577  L 329 2577  L 329 2655  L 234 2655  L 234 2577  " fill-rule="nonzero" fill="#cccccc" stroke="none" />
    <path d="M 239 2582  L 324 2582  L 324 2650  L 239 2650  L 239 2582  " fill-rule="nonzero" fill="#ffffff" stroke="none" />
    <path d="M 289.25 2600.3999999999996  C 285.974 2600.3999999999996  283.4 2597.8259999999996  283.4 2594.5499999999997  C 283.4 2591.274  285.974 2588.7  289.25 2588.7  C 292.52599999999995 2588.7  295.09999999999997 2591.274  295.09999999999997 2594.5499999999997  C 295.09999999999997 2597.8259999999996  292.52599999999995 2600.3999999999996  289.25 2600.3999999999996  " fill-rule="nonzero" fill="#cccccc" stroke="none" />
    <path d="M 241 2648  L 241 2612.8  L 261.25 2596.8  L 289.6 2616.4715789473685  L 305.8 2606.4  L 322 2616.4715789473685  L 322 2648  L 241 2648  " fill-rule="nonzero" fill="#169bd5" stroke="none" />
  </g>
</svg>