<?xml version="1.0" encoding="utf-8"?>
<svg version="1.1" xmlns:xlink="http://www.w3.org/1999/xlink" width="77px" height="60px" xmlns="http://www.w3.org/2000/svg">
  <g transform="matrix(1 0 0 1 -44 -2004 )">
    <path d="M 44 2004  L 121 2004  L 121 2064  L 44 2064  L 44 2004  " fill-rule="nonzero" fill="#cccccc" stroke="none" />
    <path d="M 48 2008  L 117 2008  L 117 2060  L 48 2060  L 48 2008  " fill-rule="nonzero" fill="#ffffff" stroke="none" />
    <path d="M 88.53999999999999 2022  C 86.02 2022  84.03999999999999 2020.02  84.03999999999999 2017.5  C 84.03999999999999 2014.98  86.02 2013  88.53999999999999 2013  C 91.05999999999999 2013  93.03999999999999 2014.98  93.03999999999999 2017.5  C 93.03999999999999 2020.02  91.05999999999999 2022  88.53999999999999 2022  " fill-rule="nonzero" fill="#cccccc" stroke="none" />
    <path d="M 50 2059  L 50 2032.05  L 66.5 2019.8  L 89.6 2036.090909090909  L 102.80000000000001 2027.15  L 116 2036.090909090909  L 116 2059  L 50 2059  " fill-rule="nonzero" fill="#169bd5" stroke="none" />
  </g>
</svg>