<?xml version="1.0" encoding="utf-8"?>
<svg version="1.1" xmlns:xlink="http://www.w3.org/1999/xlink" width="227px" height="145px" xmlns="http://www.w3.org/2000/svg">
  <g transform="matrix(1 0 0 1 -470 -5761 )">
    <path d="M 113.85579937304074 145  C 139.60513934221586 145  163.1121205587197 134.46311523792318  181.94666860355977 116.50360924038604  C 193.82998250846222 126.75754105671656  209.5535392353451 132.91666666666666  227 132.91666666666666  L 226.99696045693207 1.0984849399878498  C 226.99898570909397 0.7326806466927439  227 0.36651757765855736  227 0  L 0.7115987460815046 0  C 0.7115987460815046 0.36766768901442737  0.7126194125495596 0.7349786410578402  0.714657706688169 1.1019338672602679  C 0.4767641714478513 1.0996362802825648  0.23854313183818965 1.0984848484848486  0 1.0984848484848486  L 0 132.91666666666666  C 17.62958178808923 132.91666666666666  33.49990193836811 126.62756804568221  45.4262475722805 116.17937721267097  C 64.3173366606683 134.3362308130205  87.95188747735814 145  113.85579937304074 145  Z " fill-rule="nonzero" fill="#764ba2" stroke="none" transform="matrix(1 0 0 1 470 5761 )" />
  </g>
</svg>