<?xml version="1.0" encoding="utf-8"?>
<svg version="1.1" xmlns:xlink="http://www.w3.org/1999/xlink" width="294px" height="190px" xmlns="http://www.w3.org/2000/svg">
  <g transform="matrix(1 0 0 1 -948 -6798 )">
    <path d="M 147.46081504702192 190  C 180.81018046965403 190  211.25534556944316 176.19304755314073  235.64898929271618 152.65990176326446  C 251.03971302858105 166.0960882812148  271.4041433268346 174.16666666666666  294 174.16666666666666  L 293.996063323075 1.4393940592944239  C 293.9986863368882 0.9600642956663541  294 0.4802644121043166  294 0  L 0.9216300940438871 0  C 0.9216300940438871 0.481771454570629  0.9229520144915002 0.9630754606964802  0.9255919196754259 1.4439133433065579  C 0.6174831119192435 1.4409027120943951  0.3089501355084923 1.4393939393939394  0 1.4393939393939394  L 0 174.16666666666666  C 22.833026633031864 174.16666666666666  43.38753819330496 165.92577881848013  58.83399465308577 152.23504600281024  C 83.30086774553516 176.02678520326825  113.91125514688676 190  147.46081504702192 190  Z " fill-rule="nonzero" fill="#764ba2" stroke="none" transform="matrix(1 0 0 1 948 6798 )" />
  </g>
</svg>