<?xml version="1.0" encoding="utf-8"?>
<svg version="1.1" xmlns:xlink="http://www.w3.org/1999/xlink" width="226px" height="155px" xmlns="http://www.w3.org/2000/svg">
  <g transform="matrix(1 0 0 1 -487 -110 )">
    <path d="M 113.35423197492162 155  C 138.9901387283735 155  162.39356496154474 143.73643353019375  181.14514142909474 124.5383409121368  C 192.97610593353508 135.49944043993838  208.630395890696 142.08333333333331  226 142.08333333333331  L 225.99697384698965 1.1742425220559773  C 225.99899017733583 0.7832103464646573  226 0.3917946519798372  226 0  L 0.7084639498432601 0  C 0.7084639498432601 0.39302408136024997  0.709480119983262 0.7856668231997601  0.7115094348525383 1.1779293063816656  C 0.4746638887542485 1.175473265129638  0.23749228103714035 1.1742424242424243  0 1.1742424242424243  L 0 142.08333333333331  C 17.55191843219456 142.08333333333331  33.35232527784667 135.36050377297065  45.22613194420879 124.19174805492413  C 64.03400037581955 143.6007984552978  87.56443422855921 155  113.35423197492162 155  Z " fill-rule="nonzero" fill="#764ba2" stroke="none" transform="matrix(1 0 0 1 487 110 )" />
  </g>
</svg>