<?xml version="1.0" encoding="utf-8"?>
<svg version="1.1" xmlns:xlink="http://www.w3.org/1999/xlink" width="293px" height="200px" xmlns="http://www.w3.org/2000/svg">
  <g transform="matrix(1 0 0 1 -957 -124 )">
    <path d="M 146.95924764890282 200  C 180.19517985581166 200  210.5367899722682 185.4663658454113  234.84746211825114 160.69463343501522  C 250.1858364536539 174.83798766443664  270.48099998218555 183.33333333333331  293 183.33333333333331  L 292.9960767131326 1.5151516413625514  C 292.9986908051301 1.0105939954382674  293 0.5055414864255964  293 0  L 0.9184952978056427 0  C 0.9184952978056427 0.5071278469164515  0.9198127219252026 1.0137636428384003  0.9224436478397952 1.5199087824279556  C 0.6153828292256407 1.5167396969414686  0.30789928470744304 1.5151515151515151  0 1.5151515151515151  L 0 183.33333333333331  C 22.7553632771372 183.33333333333331  43.23996153278351 174.65871454576856  58.633879025014046 160.2474168450634  C 83.0175314606864 185.29135284554553  113.52380189808783 200  146.95924764890282 200  Z " fill-rule="nonzero" fill="#764ba2" stroke="none" transform="matrix(1 0 0 1 957 124 )" />
  </g>
</svg>