<?xml version="1.0" encoding="utf-8"?>
<svg version="1.1" xmlns:xlink="http://www.w3.org/1999/xlink" width="23px" height="20px" xmlns="http://www.w3.org/2000/svg">
  <defs>
    <mask fill="white" id="clip16">
      <path d="M 20.887418918918918 2.96875  C 22.04595524374357 2.9690949823173445  22.98504877434383 3.9132922821056546  22.985391891891894 5.078125  L 22.985391891891894 17.734375000000004  C 22.98504877434384 18.899207717894345  22.04595524374357 19.84340501768266  20.887418918918918 19.84375  L 2.7049864864864874 19.84375  C 1.546450161661845 19.843405017682656  0.6073566310615756 18.899207717894342  0.6070135135135144 17.734375  L 0.6070135135135144 5.078125  C 0.6073566310615756 3.9132922821056546  1.546450161661845 2.969094982317345  2.7049864864864874 2.96875  L 6.551581081081084 2.96875  L 7.089283783783783 1.5231249999999996  C 7.395883648138024 0.700855182577176  8.177713708743768 0.15612924066738948  9.051121621621624 0.15625  L 14.53631081081081 0.15625000000000028  C 15.409946167619811 0.15586858923067326  16.192090612411786 0.7006409578122421  16.49877027027027 1.5231249999999996  L 17.040824324324323 2.96875  L 20.887418918918918 2.96875  Z M 11.796202702702704 16.68  C 14.692218059447661 16.67793174688845  17.039388872580947 14.318004570640316  17.04144594594595 11.40625  C 17.04144594594595 8.493638300579851  14.69307055509896 6.132499999999999  11.796202702702704 6.132499999999999  C 8.899334850306449 6.132499999999999  6.550959459459459 8.493638300579851  6.550959459459459 11.40625  C 6.550959459459459 14.318861699420147  8.899334850306449 16.68  11.796202702702704 16.68  Z M 11.796202702702704 7.539375  C 13.918673693907012 7.543500659527225  15.638350913073472 9.272244535008376  15.6427972972973 11.40625  C 15.642797347525295 13.542836269970595  13.920618286306853 15.274375  11.796202752930698 15.274375  C 9.671787219554544 15.274375  7.949608158336102 13.542836269970593  7.949608158336102 11.406875000000001  C 7.949608158336102 9.270913730029406  9.671787219554535 7.5393750000000015  11.796202752930698 7.5393750000000015  Z " fill-rule="evenodd" />
    </mask>
  </defs>
  <g transform="matrix(1 0 0 1 -1161 -2249 )">
    <path d="M 20.887418918918918 2.96875  C 22.04595524374357 2.9690949823173445  22.98504877434383 3.9132922821056546  22.985391891891894 5.078125  L 22.985391891891894 17.734375000000004  C 22.98504877434384 18.899207717894345  22.04595524374357 19.84340501768266  20.887418918918918 19.84375  L 2.7049864864864874 19.84375  C 1.546450161661845 19.843405017682656  0.6073566310615756 18.899207717894342  0.6070135135135144 17.734375  L 0.6070135135135144 5.078125  C 0.6073566310615756 3.9132922821056546  1.546450161661845 2.969094982317345  2.7049864864864874 2.96875  L 6.551581081081084 2.96875  L 7.089283783783783 1.5231249999999996  C 7.395883648138024 0.700855182577176  8.177713708743768 0.15612924066738948  9.051121621621624 0.15625  L 14.53631081081081 0.15625000000000028  C 15.409946167619811 0.15586858923067326  16.192090612411786 0.7006409578122421  16.49877027027027 1.5231249999999996  L 17.040824324324323 2.96875  L 20.887418918918918 2.96875  Z M 11.796202702702704 16.68  C 14.692218059447661 16.67793174688845  17.039388872580947 14.318004570640316  17.04144594594595 11.40625  C 17.04144594594595 8.493638300579851  14.69307055509896 6.132499999999999  11.796202702702704 6.132499999999999  C 8.899334850306449 6.132499999999999  6.550959459459459 8.493638300579851  6.550959459459459 11.40625  C 6.550959459459459 14.318861699420147  8.899334850306449 16.68  11.796202702702704 16.68  Z M 11.796202702702704 7.539375  C 13.918673693907012 7.543500659527225  15.638350913073472 9.272244535008376  15.6427972972973 11.40625  C 15.642797347525295 13.542836269970595  13.920618286306853 15.274375  11.796202752930698 15.274375  C 9.671787219554544 15.274375  7.949608158336102 13.542836269970593  7.949608158336102 11.406875000000001  C 7.949608158336102 9.270913730029406  9.671787219554535 7.5393750000000015  11.796202752930698 7.5393750000000015  Z " fill-rule="nonzero" fill="#764ba2" stroke="none" fill-opacity="0" transform="matrix(1 0 0 1 1161 2249 )" />
    <path d="M 20.887418918918918 2.96875  C 22.04595524374357 2.9690949823173445  22.98504877434383 3.9132922821056546  22.985391891891894 5.078125  L 22.985391891891894 17.734375000000004  C 22.98504877434384 18.899207717894345  22.04595524374357 19.84340501768266  20.887418918918918 19.84375  L 2.7049864864864874 19.84375  C 1.546450161661845 19.843405017682656  0.6073566310615756 18.899207717894342  0.6070135135135144 17.734375  L 0.6070135135135144 5.078125  C 0.6073566310615756 3.9132922821056546  1.546450161661845 2.969094982317345  2.7049864864864874 2.96875  L 6.551581081081084 2.96875  L 7.089283783783783 1.5231249999999996  C 7.395883648138024 0.700855182577176  8.177713708743768 0.15612924066738948  9.051121621621624 0.15625  L 14.53631081081081 0.15625000000000028  C 15.409946167619811 0.15586858923067326  16.192090612411786 0.7006409578122421  16.49877027027027 1.5231249999999996  L 17.040824324324323 2.96875  L 20.887418918918918 2.96875  Z " stroke-width="2" stroke="#764ba2" fill="none" transform="matrix(1 0 0 1 1161 2249 )" mask="url(#clip16)" />
    <path d="M 11.796202702702704 16.68  C 14.692218059447661 16.67793174688845  17.039388872580947 14.318004570640316  17.04144594594595 11.40625  C 17.04144594594595 8.493638300579851  14.69307055509896 6.132499999999999  11.796202702702704 6.132499999999999  C 8.899334850306449 6.132499999999999  6.550959459459459 8.493638300579851  6.550959459459459 11.40625  C 6.550959459459459 14.318861699420147  8.899334850306449 16.68  11.796202702702704 16.68  Z " stroke-width="2" stroke="#764ba2" fill="none" transform="matrix(1 0 0 1 1161 2249 )" mask="url(#clip16)" />
    <path d="M 11.796202702702704 7.539375  C 13.918673693907012 7.543500659527225  15.638350913073472 9.272244535008376  15.6427972972973 11.40625  C 15.642797347525295 13.542836269970595  13.920618286306853 15.274375  11.796202752930698 15.274375  C 9.671787219554544 15.274375  7.949608158336102 13.542836269970593  7.949608158336102 11.406875000000001  C 7.949608158336102 9.270913730029406  9.671787219554535 7.5393750000000015  11.796202752930698 7.5393750000000015  Z " stroke-width="2" stroke="#764ba2" fill="none" transform="matrix(1 0 0 1 1161 2249 )" mask="url(#clip16)" />
  </g>
</svg>