<?xml version="1.0" encoding="utf-8"?>
<svg version="1.1" xmlns:xlink="http://www.w3.org/1999/xlink" width="26px" height="20px" xmlns="http://www.w3.org/2000/svg">
  <defs>
    <mask fill="white" id="clip17">
      <path d="M 25.329735294117647 3.9561538461538452  L 25.329735294117647 3.9538461538461527  C 25.364099988835108 4.120331384659849  25.325965822525006 4.293650536424707  25.224970588235294 4.429999999999999  L 22.257147058823527 8.87153846153846  C 22.131101095425908 9.041026570535006  21.932262217129374 9.13989134501854  21.721852941176472 9.137692307692305  C 21.631492176966447 9.136447201137681  21.541417069113535 9.127180463979602  21.452676470588234 9.109999999999998  L 19 8.52307692307692  L 19 19.046153846153842  C 19.074742380958927 19.053480929335283  19.074893031442326 19.060813491359546  19.074893031442326 19.0681468363621  C 19.074893031442326 19.362132257041264  18.837972655529256 19.60045452866979  18.54571656085409 19.60045452866979  C 18.538426353175055 19.60045452866979  18.53113692386863 19.600302986763417  18.52385294117647 19.599999999999998  L 6.9615 19.599999999999998  C 6.954216017307865 19.600302986763417  6.946926588001392 19.60045452866979  6.939636380322379 19.60045452866979  C 6.647380285647215 19.60045452866979  6.410459909734145 19.362132257041264  6.410459909734145 19.0681468363621  C 6.410459909734145 19.060813491359536  6.410610560217543 19.05348092933529  6.410911764705882 19.046153846153842  L 6.410911764705882 8.523076923076921  L 4.274323529411763 9.115384615384613  C 4.043225305546289 9.192454209334956  3.79042408838896 9.092031157707236  3.6740294117647045 8.876923076923077  L 0.7291470588235289 4.446923076923078  C 0.6377264709245435 4.311752671326571  0.6097787097854932 4.143073876286145  0.6526764705882347 3.9853846153846146  C 0.695342032463789 3.8263349237932442  0.8080394058012286 3.6956826582835522  0.9585588235294114 3.6307692307692294  L 6.9615 0.7692307692307696  L 9.714441176470588 0.7692307692307696  C 9.72279129033512 0.7688300986416565  9.731149711556759 0.7686296779842161  9.739509320121572 0.7686296779842161  C 10.03007607320902 0.7686296779842161  10.265626967180397 1.0055743642276118  10.265626967180397 1.297860447214985  C 10.265626967180397 1.3062695209192186  10.265427725468001 1.314677400254628  10.265029411764706 1.3230769230769233  C 10.265029411764706 2.4638461538461534  11.856382352941177 3.272307692307692  12.990441176470586 3.272307692307692  C 14.124499999999994 3.272307692307692  15.770911764705883 2.4692307692307685  15.770911764705879 1.3230769230769233  C 15.770610560217541 1.3157498398954846  15.770459909734143 1.308417277871223  15.770459909734143 1.3010839328686665  C 15.770459909734143 1.0070985121895057  16.007380285647212 0.7687762405609742  16.29963638032238 0.7687762405609742  C 16.306926588001414 0.7687762405609742  16.314216017307842 0.7689277824673502  16.321499999999997 0.7692307692307696  L 19.07444117647059 0.7692307692307696  L 25.02385294117647 3.57153846153846  C 25.176159290489434 3.6494002033291006  25.28765255953287 3.7895914439902256  25.329735294117647 3.9561538461538452  Z " fill-rule="evenodd" />
    </mask>
  </defs>
  <g transform="matrix(1 0 0 1 -1214 -2249 )">
    <path d="M 25.329735294117647 3.9561538461538452  L 25.329735294117647 3.9538461538461527  C 25.364099988835108 4.120331384659849  25.325965822525006 4.293650536424707  25.224970588235294 4.429999999999999  L 22.257147058823527 8.87153846153846  C 22.131101095425908 9.041026570535006  21.932262217129374 9.13989134501854  21.721852941176472 9.137692307692305  C 21.631492176966447 9.136447201137681  21.541417069113535 9.127180463979602  21.452676470588234 9.109999999999998  L 19 8.52307692307692  L 19 19.046153846153842  C 19.074742380958927 19.053480929335283  19.074893031442326 19.060813491359546  19.074893031442326 19.0681468363621  C 19.074893031442326 19.362132257041264  18.837972655529256 19.60045452866979  18.54571656085409 19.60045452866979  C 18.538426353175055 19.60045452866979  18.53113692386863 19.600302986763417  18.52385294117647 19.599999999999998  L 6.9615 19.599999999999998  C 6.954216017307865 19.600302986763417  6.946926588001392 19.60045452866979  6.939636380322379 19.60045452866979  C 6.647380285647215 19.60045452866979  6.410459909734145 19.362132257041264  6.410459909734145 19.0681468363621  C 6.410459909734145 19.060813491359536  6.410610560217543 19.05348092933529  6.410911764705882 19.046153846153842  L 6.410911764705882 8.523076923076921  L 4.274323529411763 9.115384615384613  C 4.043225305546289 9.192454209334956  3.79042408838896 9.092031157707236  3.6740294117647045 8.876923076923077  L 0.7291470588235289 4.446923076923078  C 0.6377264709245435 4.311752671326571  0.6097787097854932 4.143073876286145  0.6526764705882347 3.9853846153846146  C 0.695342032463789 3.8263349237932442  0.8080394058012286 3.6956826582835522  0.9585588235294114 3.6307692307692294  L 6.9615 0.7692307692307696  L 9.714441176470588 0.7692307692307696  C 9.72279129033512 0.7688300986416565  9.731149711556759 0.7686296779842161  9.739509320121572 0.7686296779842161  C 10.03007607320902 0.7686296779842161  10.265626967180397 1.0055743642276118  10.265626967180397 1.297860447214985  C 10.265626967180397 1.3062695209192186  10.265427725468001 1.314677400254628  10.265029411764706 1.3230769230769233  C 10.265029411764706 2.4638461538461534  11.856382352941177 3.272307692307692  12.990441176470586 3.272307692307692  C 14.124499999999994 3.272307692307692  15.770911764705883 2.4692307692307685  15.770911764705879 1.3230769230769233  C 15.770610560217541 1.3157498398954846  15.770459909734143 1.308417277871223  15.770459909734143 1.3010839328686665  C 15.770459909734143 1.0070985121895057  16.007380285647212 0.7687762405609742  16.29963638032238 0.7687762405609742  C 16.306926588001414 0.7687762405609742  16.314216017307842 0.7689277824673502  16.321499999999997 0.7692307692307696  L 19.07444117647059 0.7692307692307696  L 25.02385294117647 3.57153846153846  C 25.176159290489434 3.6494002033291006  25.28765255953287 3.7895914439902256  25.329735294117647 3.9561538461538452  Z " fill-rule="nonzero" fill="#764ba2" stroke="none" fill-opacity="0" transform="matrix(1 0 0 1 1214 2249 )" />
    <path d="M 25.329735294117647 3.9561538461538452  L 25.329735294117647 3.9538461538461527  C 25.364099988835108 4.120331384659849  25.325965822525006 4.293650536424707  25.224970588235294 4.429999999999999  L 22.257147058823527 8.87153846153846  C 22.131101095425908 9.041026570535006  21.932262217129374 9.13989134501854  21.721852941176472 9.137692307692305  C 21.631492176966447 9.136447201137681  21.541417069113535 9.127180463979602  21.452676470588234 9.109999999999998  L 19 8.52307692307692  L 19 19.046153846153842  C 19.074742380958927 19.053480929335283  19.074893031442326 19.060813491359546  19.074893031442326 19.0681468363621  C 19.074893031442326 19.362132257041264  18.837972655529256 19.60045452866979  18.54571656085409 19.60045452866979  C 18.538426353175055 19.60045452866979  18.53113692386863 19.600302986763417  18.52385294117647 19.599999999999998  L 6.9615 19.599999999999998  C 6.954216017307865 19.600302986763417  6.946926588001392 19.60045452866979  6.939636380322379 19.60045452866979  C 6.647380285647215 19.60045452866979  6.410459909734145 19.362132257041264  6.410459909734145 19.0681468363621  C 6.410459909734145 19.060813491359536  6.410610560217543 19.05348092933529  6.410911764705882 19.046153846153842  L 6.410911764705882 8.523076923076921  L 4.274323529411763 9.115384615384613  C 4.043225305546289 9.192454209334956  3.79042408838896 9.092031157707236  3.6740294117647045 8.876923076923077  L 0.7291470588235289 4.446923076923078  C 0.6377264709245435 4.311752671326571  0.6097787097854932 4.143073876286145  0.6526764705882347 3.9853846153846146  C 0.695342032463789 3.8263349237932442  0.8080394058012286 3.6956826582835522  0.9585588235294114 3.6307692307692294  L 6.9615 0.7692307692307696  L 9.714441176470588 0.7692307692307696  C 9.72279129033512 0.7688300986416565  9.731149711556759 0.7686296779842161  9.739509320121572 0.7686296779842161  C 10.03007607320902 0.7686296779842161  10.265626967180397 1.0055743642276118  10.265626967180397 1.297860447214985  C 10.265626967180397 1.3062695209192186  10.265427725468001 1.314677400254628  10.265029411764706 1.3230769230769233  C 10.265029411764706 2.4638461538461534  11.856382352941177 3.272307692307692  12.990441176470586 3.272307692307692  C 14.124499999999994 3.272307692307692  15.770911764705883 2.4692307692307685  15.770911764705879 1.3230769230769233  C 15.770610560217541 1.3157498398954846  15.770459909734143 1.308417277871223  15.770459909734143 1.3010839328686665  C 15.770459909734143 1.0070985121895057  16.007380285647212 0.7687762405609742  16.29963638032238 0.7687762405609742  C 16.306926588001414 0.7687762405609742  16.314216017307842 0.7689277824673502  16.321499999999997 0.7692307692307696  L 19.07444117647059 0.7692307692307696  L 25.02385294117647 3.57153846153846  C 25.176159290489434 3.6494002033291006  25.28765255953287 3.7895914439902256  25.329735294117647 3.9561538461538452  Z " stroke-width="2" stroke="#764ba2" fill="none" transform="matrix(1 0 0 1 1214 2249 )" mask="url(#clip17)" />
  </g>
</svg>