<?xml version="1.0" encoding="utf-8"?>
<svg version="1.1" xmlns:xlink="http://www.w3.org/1999/xlink" width="21px" height="27px" xmlns="http://www.w3.org/2000/svg">
  <defs>
    <mask fill="white" id="clip55">
      <path d="M 1.5 6  L 1.5000000000000018 23.999999999999996  C 1.504942201668113 25.654802799356357  2.8451972006436406 26.99505779833189  4.5 26.999999999999996  L 16.5 27  C 18.15480279935636 26.99505779833189  19.495057798331892 25.654802799356357  19.5 23.999999999999996  L 19.5 6  L 1.5 6  Z M 21 5  L 21 1.4999999999999998  L 15.75 1.4999999999999998  L 14.25 0  L 6.750000000000001 0  L 5.25 1.4999999999999998  L 0 1.4999999999999998  L 0 5  L 21 5  Z " fill-rule="evenodd" />
    </mask>
  </defs>
  <g transform="matrix(1 0 0 1 -1209 -10731 )">
    <path d="M 1.5 6  L 1.5000000000000018 23.999999999999996  C 1.504942201668113 25.654802799356357  2.8451972006436406 26.99505779833189  4.5 26.999999999999996  L 16.5 27  C 18.15480279935636 26.99505779833189  19.495057798331892 25.654802799356357  19.5 23.999999999999996  L 19.5 6  L 1.5 6  Z M 21 5  L 21 1.4999999999999998  L 15.75 1.4999999999999998  L 14.25 0  L 6.750000000000001 0  L 5.25 1.4999999999999998  L 0 1.4999999999999998  L 0 5  L 21 5  Z " fill-rule="nonzero" fill="#000000" stroke="none" fill-opacity="0" transform="matrix(1 0 0 1 1209 10731 )" />
    <path d="M 1.5 6  L 1.5000000000000018 23.999999999999996  C 1.504942201668113 25.654802799356357  2.8451972006436406 26.99505779833189  4.5 26.999999999999996  L 16.5 27  C 18.15480279935636 26.99505779833189  19.495057798331892 25.654802799356357  19.5 23.999999999999996  L 19.5 6  L 1.5 6  Z " stroke-width="4" stroke="#764ba2" fill="none" transform="matrix(1 0 0 1 1209 10731 )" mask="url(#clip55)" />
    <path d="M 21 5  L 21 1.4999999999999998  L 15.75 1.4999999999999998  L 14.25 0  L 6.750000000000001 0  L 5.25 1.4999999999999998  L 0 1.4999999999999998  L 0 5  L 21 5  Z " stroke-width="4" stroke="#764ba2" fill="none" transform="matrix(1 0 0 1 1209 10731 )" mask="url(#clip55)" />
  </g>
</svg>