<?xml version="1.0" encoding="utf-8"?>
<svg version="1.1" xmlns:xlink="http://www.w3.org/1999/xlink" width="18px" height="15px" xmlns="http://www.w3.org/2000/svg">
  <defs>
    <mask fill="white" id="clip80">
      <path d="M 16.346675675675677 2.2265625  C 17.25335627771236 2.2268212367380085  17.988299040790825 2.934969211579241  17.988567567567568 3.80859375  L 17.988567567567568 13.300781250000002  C 17.98829904079083 14.17440578842076  17.25335627771236 14.882553763261996  16.346675675675677 14.8828125  L 2.1169459459459468 14.8828125  C 1.2102653439092699 14.882553763261992  0.47532258083079826 14.174405788420756  0.47505405405405476 13.30078125  L 0.47505405405405476 3.80859375  C 0.47532258083079826 2.934969211579241  1.2102653439092699 2.226821236738009  2.1169459459459468 2.2265625  L 5.127324324324326 2.2265625  L 5.5481351351351345 1.1423437499999998  C 5.78808285506454 0.5256413869328821  6.3999498590168615 0.11709693050054211  7.083486486486488 0.1171875  L 11.376243243243243 0.11718750000000021  C 12.059957870311157 0.11690144192300495  12.672070914061399 0.5254807183591816  12.91208108108108 1.1423437499999998  L 13.336297297297296 2.2265625  L 16.346675675675677 2.2265625  Z M 9.231810810810812 12.51  C 11.498257611741648 12.508448810166337  13.335173900280742 10.738503427980236  13.336783783783787 8.5546875  C 13.336783783783787 6.370228725434889  11.49892478225136 4.599374999999999  9.231810810810812 4.599374999999999  C 6.964696839370265 4.599374999999999  5.126837837837837 6.370228725434889  5.126837837837837 8.5546875  C 5.126837837837837 10.73914627456511  6.964696839370265 12.51  9.231810810810812 12.51  Z M 9.231810810810812 5.65453125  C 10.892875064796792 5.657625494645418  12.238709410231412 6.954183401256282  12.24218918918919 8.5546875  C 12.242189228498058 10.157127202477946  10.894396919718407 11.45578125  9.231810850119677 11.45578125  C 7.569224780520948 11.45578125  6.221432471741297 10.157127202477945  6.221432471741297 8.555156250000001  C 6.221432471741297 6.9531852975220545  7.5692247805209405 5.654531250000002  9.231810850119677 5.654531250000002  Z " fill-rule="evenodd" />
    </mask>
  </defs>
  <g transform="matrix(1 0 0 1 -635 -1731 )">
    <path d="M 16.346675675675677 2.2265625  C 17.25335627771236 2.2268212367380085  17.988299040790825 2.934969211579241  17.988567567567568 3.80859375  L 17.988567567567568 13.300781250000002  C 17.98829904079083 14.17440578842076  17.25335627771236 14.882553763261996  16.346675675675677 14.8828125  L 2.1169459459459468 14.8828125  C 1.2102653439092699 14.882553763261992  0.47532258083079826 14.174405788420756  0.47505405405405476 13.30078125  L 0.47505405405405476 3.80859375  C 0.47532258083079826 2.934969211579241  1.2102653439092699 2.226821236738009  2.1169459459459468 2.2265625  L 5.127324324324326 2.2265625  L 5.5481351351351345 1.1423437499999998  C 5.78808285506454 0.5256413869328821  6.3999498590168615 0.11709693050054211  7.083486486486488 0.1171875  L 11.376243243243243 0.11718750000000021  C 12.059957870311157 0.11690144192300495  12.672070914061399 0.5254807183591816  12.91208108108108 1.1423437499999998  L 13.336297297297296 2.2265625  L 16.346675675675677 2.2265625  Z M 9.231810810810812 12.51  C 11.498257611741648 12.508448810166337  13.335173900280742 10.738503427980236  13.336783783783787 8.5546875  C 13.336783783783787 6.370228725434889  11.49892478225136 4.599374999999999  9.231810810810812 4.599374999999999  C 6.964696839370265 4.599374999999999  5.126837837837837 6.370228725434889  5.126837837837837 8.5546875  C 5.126837837837837 10.73914627456511  6.964696839370265 12.51  9.231810810810812 12.51  Z M 9.231810810810812 5.65453125  C 10.892875064796792 5.657625494645418  12.238709410231412 6.954183401256282  12.24218918918919 8.5546875  C 12.242189228498058 10.157127202477946  10.894396919718407 11.45578125  9.231810850119677 11.45578125  C 7.569224780520948 11.45578125  6.221432471741297 10.157127202477945  6.221432471741297 8.555156250000001  C 6.221432471741297 6.9531852975220545  7.5692247805209405 5.654531250000002  9.231810850119677 5.654531250000002  Z " fill-rule="nonzero" fill="#764ba2" stroke="none" fill-opacity="0" transform="matrix(1 0 0 1 635 1731 )" />
    <path d="M 16.346675675675677 2.2265625  C 17.25335627771236 2.2268212367380085  17.988299040790825 2.934969211579241  17.988567567567568 3.80859375  L 17.988567567567568 13.300781250000002  C 17.98829904079083 14.17440578842076  17.25335627771236 14.882553763261996  16.346675675675677 14.8828125  L 2.1169459459459468 14.8828125  C 1.2102653439092699 14.882553763261992  0.47532258083079826 14.174405788420756  0.47505405405405476 13.30078125  L 0.47505405405405476 3.80859375  C 0.47532258083079826 2.934969211579241  1.2102653439092699 2.226821236738009  2.1169459459459468 2.2265625  L 5.127324324324326 2.2265625  L 5.5481351351351345 1.1423437499999998  C 5.78808285506454 0.5256413869328821  6.3999498590168615 0.11709693050054211  7.083486486486488 0.1171875  L 11.376243243243243 0.11718750000000021  C 12.059957870311157 0.11690144192300495  12.672070914061399 0.5254807183591816  12.91208108108108 1.1423437499999998  L 13.336297297297296 2.2265625  L 16.346675675675677 2.2265625  Z " stroke-width="2" stroke="#764ba2" fill="none" transform="matrix(1 0 0 1 635 1731 )" mask="url(#clip80)" />
    <path d="M 9.231810810810812 12.51  C 11.498257611741648 12.508448810166337  13.335173900280742 10.738503427980236  13.336783783783787 8.5546875  C 13.336783783783787 6.370228725434889  11.49892478225136 4.599374999999999  9.231810810810812 4.599374999999999  C 6.964696839370265 4.599374999999999  5.126837837837837 6.370228725434889  5.126837837837837 8.5546875  C 5.126837837837837 10.73914627456511  6.964696839370265 12.51  9.231810810810812 12.51  Z " stroke-width="2" stroke="#764ba2" fill="none" transform="matrix(1 0 0 1 635 1731 )" mask="url(#clip80)" />
    <path d="M 9.231810810810812 5.65453125  C 10.892875064796792 5.657625494645418  12.238709410231412 6.954183401256282  12.24218918918919 8.5546875  C 12.242189228498058 10.157127202477946  10.894396919718407 11.45578125  9.231810850119677 11.45578125  C 7.569224780520948 11.45578125  6.221432471741297 10.157127202477945  6.221432471741297 8.555156250000001  C 6.221432471741297 6.9531852975220545  7.5692247805209405 5.654531250000002  9.231810850119677 5.654531250000002  Z " stroke-width="2" stroke="#764ba2" fill="none" transform="matrix(1 0 0 1 635 1731 )" mask="url(#clip80)" />
  </g>
</svg>