<?xml version="1.0" encoding="utf-8"?>
<svg version="1.1" xmlns:xlink="http://www.w3.org/1999/xlink" width="18px" height="15px" xmlns="http://www.w3.org/2000/svg">
  <defs>
    <mask fill="white" id="clip79">
      <path d="M 10.382707317073168 14.772161806959375  C 10.382707317073168 14.142333308073855  9.829789902998348 13.63175642897549  9.147731707317073 13.631756428975491  L 7.418853658536585 13.631756428975491  L 7.418853658536585 10.064188947191571  L 12.627878048780484 5.252837711531166  C 12.770557092032657 5.121147180650228  12.8507190484741 4.942498892953546  12.8507190484741 4.756216062171074  C 12.8507190484741 4.368422617425351  12.510280740199093 4.054053916892694  12.090328804571659 4.054053916892694  C 12.090243593290367 4.054053916892694  12.090158382008184 4.054053930119341  12.090073170731706 4  L 0.7720243902439021 4  C 0.7719391789660843 4.05405393011934  0.7718539676865817 4.054053916892694  0.7717687564039484 4.054053916892694  C 0.351816820776514 4.054053916892694  0.011378512501509511 4.368422617425351  0.011378512501509511 4.756216062171074  C 0.011378512501509511 4.942498892953547  0.09154046894295044 5.121147180650227  0.23421951219512174 5.252837711531166  L 5.443243902439024 10.062161920213285  L 5.443243902439024 13.629729401997208  L 3.7148048780487803 13.629729401997205  C 3.0329181383637502 13.629953244945016  2.480268249596267 14.140464567787555  2.480268292682927 14.770134779981092  C 2.4802617827335878 14.770810438986388  2.4802585277106095 14.771486121390705  2.4802585277106095 14.772161807137813  C 2.4802585277106095 14.897993167384405  2.5907240757767487 14.999999639497194  2.7269902350276825 14.999999639497194  L 10.135536585365852 14.999999639318757  C 10.27224176900734 15  10.382707317073477 14.89799352788721  10.382707317073477 14.77216216764062  Z M 13.354948993625488 0.40539646508173105  C 13.351860302169646 0.40539646508173105  13.3487716115558 0.40539944194186295  13.345682926829268 0.4054053956572637  C 11.468273756887768 0.4102564204510161  9.797651329231156 1.5063795729799283  9.174951219512195 3.1418918163437937  L 10.796707317073169 3.1418918163437937  C 11.326054356020403 2.295560634429313  12.304082032516154 1.7742332268564422  13.362480635501282 1.7742332268564422  C 14.99888687889017 1.7742332268564422  16.32545624525738 2.9992184231006123  16.32545624525738 4.510314242147316  C 16.32545624525738 6.021410061194018  14.99888687889017 7.246395257438188  13.362480635501282 7.246395257438188  C 12.938617946265982 7.246395257438188  12.519688643168891 7.162418676333758  12.133975609756096 7.000134966813972  L 11.045634146341465 8.005134942648327  C 11.74136220345828 8.396490444348785  12.540300650855297 8.603504376062917  13.354948993625488 8.603504376062917  C 15.806527527764626 8.603504376062917  17.793924603381583 6.76829540892337  17.793924603381583 4.504450420572325  C 17.793924603381583 2.240605432221278  15.806527527764626 0.40539646508173105  13.354948993625488 0.40539646508173105  Z " fill-rule="evenodd" />
    </mask>
  </defs>
  <g transform="matrix(1 0 0 1 -592 -1730 )">
    <path d="M 10.382707317073168 14.772161806959375  C 10.382707317073168 14.142333308073855  9.829789902998348 13.63175642897549  9.147731707317073 13.631756428975491  L 7.418853658536585 13.631756428975491  L 7.418853658536585 10.064188947191571  L 12.627878048780484 5.252837711531166  C 12.770557092032657 5.121147180650228  12.8507190484741 4.942498892953546  12.8507190484741 4.756216062171074  C 12.8507190484741 4.368422617425351  12.510280740199093 4.054053916892694  12.090328804571659 4.054053916892694  C 12.090243593290367 4.054053916892694  12.090158382008184 4.054053930119341  12.090073170731706 4  L 0.7720243902439021 4  C 0.7719391789660843 4.05405393011934  0.7718539676865817 4.054053916892694  0.7717687564039484 4.054053916892694  C 0.351816820776514 4.054053916892694  0.011378512501509511 4.368422617425351  0.011378512501509511 4.756216062171074  C 0.011378512501509511 4.942498892953547  0.09154046894295044 5.121147180650227  0.23421951219512174 5.252837711531166  L 5.443243902439024 10.062161920213285  L 5.443243902439024 13.629729401997208  L 3.7148048780487803 13.629729401997205  C 3.0329181383637502 13.629953244945016  2.480268249596267 14.140464567787555  2.480268292682927 14.770134779981092  C 2.4802617827335878 14.770810438986388  2.4802585277106095 14.771486121390705  2.4802585277106095 14.772161807137813  C 2.4802585277106095 14.897993167384405  2.5907240757767487 14.999999639497194  2.7269902350276825 14.999999639497194  L 10.135536585365852 14.999999639318757  C 10.27224176900734 15  10.382707317073477 14.89799352788721  10.382707317073477 14.77216216764062  Z M 13.354948993625488 0.40539646508173105  C 13.351860302169646 0.40539646508173105  13.3487716115558 0.40539944194186295  13.345682926829268 0.4054053956572637  C 11.468273756887768 0.4102564204510161  9.797651329231156 1.5063795729799283  9.174951219512195 3.1418918163437937  L 10.796707317073169 3.1418918163437937  C 11.326054356020403 2.295560634429313  12.304082032516154 1.7742332268564422  13.362480635501282 1.7742332268564422  C 14.99888687889017 1.7742332268564422  16.32545624525738 2.9992184231006123  16.32545624525738 4.510314242147316  C 16.32545624525738 6.021410061194018  14.99888687889017 7.246395257438188  13.362480635501282 7.246395257438188  C 12.938617946265982 7.246395257438188  12.519688643168891 7.162418676333758  12.133975609756096 7.000134966813972  L 11.045634146341465 8.005134942648327  C 11.74136220345828 8.396490444348785  12.540300650855297 8.603504376062917  13.354948993625488 8.603504376062917  C 15.806527527764626 8.603504376062917  17.793924603381583 6.76829540892337  17.793924603381583 4.504450420572325  C 17.793924603381583 2.240605432221278  15.806527527764626 0.40539646508173105  13.354948993625488 0.40539646508173105  Z " fill-rule="nonzero" fill="#764ba2" stroke="none" fill-opacity="0" transform="matrix(1 0 0 1 592 1730 )" />
    <path d="M 10.382707317073168 14.772161806959375  C 10.382707317073168 14.142333308073855  9.829789902998348 13.63175642897549  9.147731707317073 13.631756428975491  L 7.418853658536585 13.631756428975491  L 7.418853658536585 10.064188947191571  L 12.627878048780484 5.252837711531166  C 12.770557092032657 5.121147180650228  12.8507190484741 4.942498892953546  12.8507190484741 4.756216062171074  C 12.8507190484741 4.368422617425351  12.510280740199093 4.054053916892694  12.090328804571659 4.054053916892694  C 12.090243593290367 4.054053916892694  12.090158382008184 4.054053930119341  12.090073170731706 4  L 0.7720243902439021 4  C 0.7719391789660843 4.05405393011934  0.7718539676865817 4.054053916892694  0.7717687564039484 4.054053916892694  C 0.351816820776514 4.054053916892694  0.011378512501509511 4.368422617425351  0.011378512501509511 4.756216062171074  C 0.011378512501509511 4.942498892953547  0.09154046894295044 5.121147180650227  0.23421951219512174 5.252837711531166  L 5.443243902439024 10.062161920213285  L 5.443243902439024 13.629729401997208  L 3.7148048780487803 13.629729401997205  C 3.0329181383637502 13.629953244945016  2.480268249596267 14.140464567787555  2.480268292682927 14.770134779981092  C 2.4802617827335878 14.770810438986388  2.4802585277106095 14.771486121390705  2.4802585277106095 14.772161807137813  C 2.4802585277106095 14.897993167384405  2.5907240757767487 14.999999639497194  2.7269902350276825 14.999999639497194  L 10.135536585365852 14.999999639318757  C 10.27224176900734 15  10.382707317073477 14.89799352788721  10.382707317073477 14.77216216764062  Z " stroke-width="2" stroke="#764ba2" fill="none" transform="matrix(1 0 0 1 592 1730 )" mask="url(#clip79)" />
    <path d="M 13.354948993625488 0.40539646508173105  C 13.351860302169646 0.40539646508173105  13.3487716115558 0.40539944194186295  13.345682926829268 0.4054053956572637  C 11.468273756887768 0.4102564204510161  9.797651329231156 1.5063795729799283  9.174951219512195 3.1418918163437937  L 10.796707317073169 3.1418918163437937  C 11.326054356020403 2.295560634429313  12.304082032516154 1.7742332268564422  13.362480635501282 1.7742332268564422  C 14.99888687889017 1.7742332268564422  16.32545624525738 2.9992184231006123  16.32545624525738 4.510314242147316  C 16.32545624525738 6.021410061194018  14.99888687889017 7.246395257438188  13.362480635501282 7.246395257438188  C 12.938617946265982 7.246395257438188  12.519688643168891 7.162418676333758  12.133975609756096 7.000134966813972  L 11.045634146341465 8.005134942648327  C 11.74136220345828 8.396490444348785  12.540300650855297 8.603504376062917  13.354948993625488 8.603504376062917  C 15.806527527764626 8.603504376062917  17.793924603381583 6.76829540892337  17.793924603381583 4.504450420572325  C 17.793924603381583 2.240605432221278  15.806527527764626 0.40539646508173105  13.354948993625488 0.40539646508173105  Z " stroke-width="2" stroke="#764ba2" fill="none" transform="matrix(1 0 0 1 592 1730 )" mask="url(#clip79)" />
  </g>
</svg>