<?xml version="1.0" encoding="utf-8"?>
<svg version="1.1" xmlns:xlink="http://www.w3.org/1999/xlink" width="20px" height="15px" xmlns="http://www.w3.org/2000/svg">
  <defs>
    <mask fill="white" id="clip81">
      <path d="M 19.484411764705882 2.967115384615384  L 19.484411764705882 2.9653846153846146  C 19.510846145257776 3.0902485384948872  19.481512171173083 3.22023790231853  19.403823529411763 3.3224999999999993  L 17.120882352941173 6.653653846153845  C 17.023923919558392 6.780769927901255  16.870970936253364 6.854918508763905  16.709117647058825 6.85326923076923  C 16.639609366897268 6.852335400853261  16.57032082239503 6.845385347984702  16.50205882352941 6.832499999999998  L 14.672647058823529 6.392307692307689  L 14.672647058823529 14.284615384615382  C 14.672878754583792 14.290110697001461  14.67299463957102 14.295610118519658  14.67299463957102 14.301110127271576  C 14.67299463957102 14.521599192780947  14.490748196560968 14.700340896502343  14.265935816041608 14.700340896502343  C 14.26032796398081 14.700340896502343  14.254720710668176 14.700227240072563  14.249117647058824 14.699999999999998  L 5.3549999999999995 14.699999999999998  C 5.349396936390666 14.700227240072563  5.343789683077994 14.700340896502343  5.338181831017215 14.700340896502343  C 5.113369450497858 14.700340896502343  4.9311230074878045 14.521599192780947  4.9311230074878045 14.301110127271576  C 4.9311230074878045 14.295610118519653  4.931238892475033 14.290110697001468  4.931470588235294 14.284615384615384  L 4.931470588235294 6.392307692307692  L 3.2879411764705866 6.836538461538461  C 3.110173311958684 6.894340657001217  2.9157108372222766 6.819023368280427  2.8261764705882344 6.657692307692307  L 0.560882352941176 3.335192307692308  C 0.4905588237881104 3.233814503494928  0.4690605459888409 3.107305407214609  0.5020588235294113 2.989038461538461  C 0.5348784865106069 2.8697511928449333  0.6215687736932528 2.7717619937126643  0.7373529411764702 2.7230769230769223  L 5.3549999999999995 0.5769230769230772  L 7.472647058823529 0.5769230769230772  C 7.479070223334708 0.5766225739812424  7.485499778120584 0.5764722584881621  7.491930246247364 0.5764722584881621  C 7.7154431332377085 0.5764722584881621  7.896636128600305 0.7541807731707088  7.896636128600305 0.9733953354112389  C 7.896636128600305 0.9797021406894139  7.896482865744616 0.9860080501909709  7.896176470588236 0.9923076923076924  C 7.896176470588236 1.8478846153846151  9.12029411764706 2.454230769230769  9.992647058823527 2.454230769230769  C 10.864999999999995 2.454230769230769  12.131470588235294 1.8519230769230763  12.131470588235292 0.9923076923076924  C 12.131238892475032 0.9868123799216134  12.131123007487803 0.9813129584034173  12.131123007487803 0.9758129496514999  C 12.131123007487803 0.7553238841421293  12.313369450497856 0.5765821804207306  12.538181831017214 0.5765821804207306  C 12.54378968307801 0.5765821804207306  12.549396936390647 0.5766958368505126  12.554999999999998 0.5769230769230772  L 14.672647058823529 0.5769230769230772  L 19.249117647058824 2.6786538461538454  C 19.366276377299563 2.7370501524968254  19.4520404304099 2.842193582992669  19.484411764705882 2.967115384615384  Z " fill-rule="evenodd" />
    </mask>
  </defs>
  <g transform="matrix(1 0 0 1 -676 -1731 )">
    <path d="M 19.484411764705882 2.967115384615384  L 19.484411764705882 2.9653846153846146  C 19.510846145257776 3.0902485384948872  19.481512171173083 3.22023790231853  19.403823529411763 3.3224999999999993  L 17.120882352941173 6.653653846153845  C 17.023923919558392 6.780769927901255  16.870970936253364 6.854918508763905  16.709117647058825 6.85326923076923  C 16.639609366897268 6.852335400853261  16.57032082239503 6.845385347984702  16.50205882352941 6.832499999999998  L 14.672647058823529 6.392307692307689  L 14.672647058823529 14.284615384615382  C 14.672878754583792 14.290110697001461  14.67299463957102 14.295610118519658  14.67299463957102 14.301110127271576  C 14.67299463957102 14.521599192780947  14.490748196560968 14.700340896502343  14.265935816041608 14.700340896502343  C 14.26032796398081 14.700340896502343  14.254720710668176 14.700227240072563  14.249117647058824 14.699999999999998  L 5.3549999999999995 14.699999999999998  C 5.349396936390666 14.700227240072563  5.343789683077994 14.700340896502343  5.338181831017215 14.700340896502343  C 5.113369450497858 14.700340896502343  4.9311230074878045 14.521599192780947  4.9311230074878045 14.301110127271576  C 4.9311230074878045 14.295610118519653  4.931238892475033 14.290110697001468  4.931470588235294 14.284615384615384  L 4.931470588235294 6.392307692307692  L 3.2879411764705866 6.836538461538461  C 3.110173311958684 6.894340657001217  2.9157108372222766 6.819023368280427  2.8261764705882344 6.657692307692307  L 0.560882352941176 3.335192307692308  C 0.4905588237881104 3.233814503494928  0.4690605459888409 3.107305407214609  0.5020588235294113 2.989038461538461  C 0.5348784865106069 2.8697511928449333  0.6215687736932528 2.7717619937126643  0.7373529411764702 2.7230769230769223  L 5.3549999999999995 0.5769230769230772  L 7.472647058823529 0.5769230769230772  C 7.479070223334708 0.5766225739812424  7.485499778120584 0.5764722584881621  7.491930246247364 0.5764722584881621  C 7.7154431332377085 0.5764722584881621  7.896636128600305 0.7541807731707088  7.896636128600305 0.9733953354112389  C 7.896636128600305 0.9797021406894139  7.896482865744616 0.9860080501909709  7.896176470588236 0.9923076923076924  C 7.896176470588236 1.8478846153846151  9.12029411764706 2.454230769230769  9.992647058823527 2.454230769230769  C 10.864999999999995 2.454230769230769  12.131470588235294 1.8519230769230763  12.131470588235292 0.9923076923076924  C 12.131238892475032 0.9868123799216134  12.131123007487803 0.9813129584034173  12.131123007487803 0.9758129496514999  C 12.131123007487803 0.7553238841421293  12.313369450497856 0.5765821804207306  12.538181831017214 0.5765821804207306  C 12.54378968307801 0.5765821804207306  12.549396936390647 0.5766958368505126  12.554999999999998 0.5769230769230772  L 14.672647058823529 0.5769230769230772  L 19.249117647058824 2.6786538461538454  C 19.366276377299563 2.7370501524968254  19.4520404304099 2.842193582992669  19.484411764705882 2.967115384615384  Z " fill-rule="nonzero" fill="#764ba2" stroke="none" fill-opacity="0" transform="matrix(1 0 0 1 676 1731 )" />
    <path d="M 19.484411764705882 2.967115384615384  L 19.484411764705882 2.9653846153846146  C 19.510846145257776 3.0902485384948872  19.481512171173083 3.22023790231853  19.403823529411763 3.3224999999999993  L 17.120882352941173 6.653653846153845  C 17.023923919558392 6.780769927901255  16.870970936253364 6.854918508763905  16.709117647058825 6.85326923076923  C 16.639609366897268 6.852335400853261  16.57032082239503 6.845385347984702  16.50205882352941 6.832499999999998  L 14.672647058823529 6.392307692307689  L 14.672647058823529 14.284615384615382  C 14.672878754583792 14.290110697001461  14.67299463957102 14.295610118519658  14.67299463957102 14.301110127271576  C 14.67299463957102 14.521599192780947  14.490748196560968 14.700340896502343  14.265935816041608 14.700340896502343  C 14.26032796398081 14.700340896502343  14.254720710668176 14.700227240072563  14.249117647058824 14.699999999999998  L 5.3549999999999995 14.699999999999998  C 5.349396936390666 14.700227240072563  5.343789683077994 14.700340896502343  5.338181831017215 14.700340896502343  C 5.113369450497858 14.700340896502343  4.9311230074878045 14.521599192780947  4.9311230074878045 14.301110127271576  C 4.9311230074878045 14.295610118519653  4.931238892475033 14.290110697001468  4.931470588235294 14.284615384615384  L 4.931470588235294 6.392307692307692  L 3.2879411764705866 6.836538461538461  C 3.110173311958684 6.894340657001217  2.9157108372222766 6.819023368280427  2.8261764705882344 6.657692307692307  L 0.560882352941176 3.335192307692308  C 0.4905588237881104 3.233814503494928  0.4690605459888409 3.107305407214609  0.5020588235294113 2.989038461538461  C 0.5348784865106069 2.8697511928449333  0.6215687736932528 2.7717619937126643  0.7373529411764702 2.7230769230769223  L 5.3549999999999995 0.5769230769230772  L 7.472647058823529 0.5769230769230772  C 7.479070223334708 0.5766225739812424  7.485499778120584 0.5764722584881621  7.491930246247364 0.5764722584881621  C 7.7154431332377085 0.5764722584881621  7.896636128600305 0.7541807731707088  7.896636128600305 0.9733953354112389  C 7.896636128600305 0.9797021406894139  7.896482865744616 0.9860080501909709  7.896176470588236 0.9923076923076924  C 7.896176470588236 1.8478846153846151  9.12029411764706 2.454230769230769  9.992647058823527 2.454230769230769  C 10.864999999999995 2.454230769230769  12.131470588235294 1.8519230769230763  12.131470588235292 0.9923076923076924  C 12.131238892475032 0.9868123799216134  12.131123007487803 0.9813129584034173  12.131123007487803 0.9758129496514999  C 12.131123007487803 0.7553238841421293  12.313369450497856 0.5765821804207306  12.538181831017214 0.5765821804207306  C 12.54378968307801 0.5765821804207306  12.549396936390647 0.5766958368505126  12.554999999999998 0.5769230769230772  L 14.672647058823529 0.5769230769230772  L 19.249117647058824 2.6786538461538454  C 19.366276377299563 2.7370501524968254  19.4520404304099 2.842193582992669  19.484411764705882 2.967115384615384  Z " stroke-width="2" stroke="#764ba2" fill="none" transform="matrix(1 0 0 1 676 1731 )" mask="url(#clip81)" />
  </g>
</svg>