<?xml version="1.0" encoding="utf-8"?>
<svg version="1.1" xmlns:xlink="http://www.w3.org/1999/xlink" width="23px" height="20px" xmlns="http://www.w3.org/2000/svg">
  <defs>
    <mask fill="white" id="clip15">
      <path d="M 13.266792682926825 19.696215742612498  C 13.266792682926825 18.856444410765143  12.560287098275667 18.175675238633985  11.688768292682926 18.17567523863399  L 9.479646341463415 18.17567523863399  L 9.479646341463415 13.418918596255427  L 16.13562195121951 7.003783615374887  C 16.31793406204173 6.828196240866971  16.420363228605794 6.589998523938062  16.420363228605794 6.341621416228098  C 16.420363228605794 5.824563489900467  15.98535872358773 5.405405222523592  15.448753472508232 5.405405222523592  L 0.9864756097560972 5.405405275430182  C 0.4495437154366567 5.405405222523592  0.014539210418595487 5.824563489900467  0.014539210418595487 6.341621416228098  C 0.014539210418595487 6.589998523938063  0.1169683769826589 6.828196240866969  0.2992804878048778 7.003783615374887  L 6.955256097560976 13.416215893617714  L 6.955256097560976 18.172972535996276  L 4.74669512195122 18.172972535996273  C 3.875395399020347 18.17327099326002  3.1692316522618964 18.853952757050074  3.1692317073170733 19.69351303997479  C 3.1692233890484736 19.694413918648518  3.169219229852445 19.69531482852094  3.169219229852445 19.69621574285042  C 3.169219229852445 19.863990889845873  3.310369652381401 19.99999951932959  3.4844875225353724 19.99999951932959  L 12.950963414634144 19.999999519091677  C 13.125642260398267 20  13.266792682927221 19.86399137051628  13.266792682927221 19.696216223520825  Z M 17.064657047410346 0.5405286201089747  C 17.060710386105658 0.5405286201089747  17.056763725876856 0.5405325892558173  17.05281707317073 0.5405405275430183  C 14.653905356023259 0.5470085606013548  12.519221142906478 2.008506097306571  11.723548780487803 4.1891890884583916  L 13.795792682926827 4.1891890884583916  C 14.47218056602607 3.0607475125724175  15.721882597103974 2.3656443024752565  17.074280812029414 2.3656443024752565  C 19.165244345248553 2.3656443024752565  20.86030520227332 3.998957897467483  20.86030520227332 6.013752322863088  C 20.86030520227332 8.028546748258691  19.165244345248553 9.661860343250916  17.074280812029414 9.661860343250916  C 16.53267848689542 9.661860343250916  15.997379932938028 9.54989156844501  15.5045243902439 9.333513289085296  L 14.113865853658538 10.673513256864437  C 15.002851704418912 11.195320592465048  16.0237174983151 11.47133916808389  17.064657047410346 11.47133916808389  C 20.197229618810354 11.47133916808389  22.736681437654248 9.024393878564494  22.736681437654248 6.005933894096433  C 22.736681437654248 2.9874739096283704  20.197229618810354 0.5405286201089747  17.064657047410346 0.5405286201089747  Z " fill-rule="evenodd" />
    </mask>
  </defs>
  <g transform="matrix(1 0 0 1 -1106 -2246 )">
    <path d="M 13.266792682926825 19.696215742612498  C 13.266792682926825 18.856444410765143  12.560287098275667 18.175675238633985  11.688768292682926 18.17567523863399  L 9.479646341463415 18.17567523863399  L 9.479646341463415 13.418918596255427  L 16.13562195121951 7.003783615374887  C 16.31793406204173 6.828196240866971  16.420363228605794 6.589998523938062  16.420363228605794 6.341621416228098  C 16.420363228605794 5.824563489900467  15.98535872358773 5.405405222523592  15.448753472508232 5.405405222523592  L 0.9864756097560972 5.405405275430182  C 0.4495437154366567 5.405405222523592  0.014539210418595487 5.824563489900467  0.014539210418595487 6.341621416228098  C 0.014539210418595487 6.589998523938063  0.1169683769826589 6.828196240866969  0.2992804878048778 7.003783615374887  L 6.955256097560976 13.416215893617714  L 6.955256097560976 18.172972535996276  L 4.74669512195122 18.172972535996273  C 3.875395399020347 18.17327099326002  3.1692316522618964 18.853952757050074  3.1692317073170733 19.69351303997479  C 3.1692233890484736 19.694413918648518  3.169219229852445 19.69531482852094  3.169219229852445 19.69621574285042  C 3.169219229852445 19.863990889845873  3.310369652381401 19.99999951932959  3.4844875225353724 19.99999951932959  L 12.950963414634144 19.999999519091677  C 13.125642260398267 20  13.266792682927221 19.86399137051628  13.266792682927221 19.696216223520825  Z M 17.064657047410346 0.5405286201089747  C 17.060710386105658 0.5405286201089747  17.056763725876856 0.5405325892558173  17.05281707317073 0.5405405275430183  C 14.653905356023259 0.5470085606013548  12.519221142906478 2.008506097306571  11.723548780487803 4.1891890884583916  L 13.795792682926827 4.1891890884583916  C 14.47218056602607 3.0607475125724175  15.721882597103974 2.3656443024752565  17.074280812029414 2.3656443024752565  C 19.165244345248553 2.3656443024752565  20.86030520227332 3.998957897467483  20.86030520227332 6.013752322863088  C 20.86030520227332 8.028546748258691  19.165244345248553 9.661860343250916  17.074280812029414 9.661860343250916  C 16.53267848689542 9.661860343250916  15.997379932938028 9.54989156844501  15.5045243902439 9.333513289085296  L 14.113865853658538 10.673513256864437  C 15.002851704418912 11.195320592465048  16.0237174983151 11.47133916808389  17.064657047410346 11.47133916808389  C 20.197229618810354 11.47133916808389  22.736681437654248 9.024393878564494  22.736681437654248 6.005933894096433  C 22.736681437654248 2.9874739096283704  20.197229618810354 0.5405286201089747  17.064657047410346 0.5405286201089747  Z " fill-rule="nonzero" fill="#764ba2" stroke="none" fill-opacity="0" transform="matrix(1 0 0 1 1106 2246 )" />
    <path d="M 13.266792682926825 19.696215742612498  C 13.266792682926825 18.856444410765143  12.560287098275667 18.175675238633985  11.688768292682926 18.17567523863399  L 9.479646341463415 18.17567523863399  L 9.479646341463415 13.418918596255427  L 16.13562195121951 7.003783615374887  C 16.31793406204173 6.828196240866971  16.420363228605794 6.589998523938062  16.420363228605794 6.341621416228098  C 16.420363228605794 5.824563489900467  15.98535872358773 5.405405222523592  15.448753472508232 5.405405222523592  L 0.9864756097560972 5.405405275430182  C 0.4495437154366567 5.405405222523592  0.014539210418595487 5.824563489900467  0.014539210418595487 6.341621416228098  C 0.014539210418595487 6.589998523938063  0.1169683769826589 6.828196240866969  0.2992804878048778 7.003783615374887  L 6.955256097560976 13.416215893617714  L 6.955256097560976 18.172972535996276  L 4.74669512195122 18.172972535996273  C 3.875395399020347 18.17327099326002  3.1692316522618964 18.853952757050074  3.1692317073170733 19.69351303997479  C 3.1692233890484736 19.694413918648518  3.169219229852445 19.69531482852094  3.169219229852445 19.69621574285042  C 3.169219229852445 19.863990889845873  3.310369652381401 19.99999951932959  3.4844875225353724 19.99999951932959  L 12.950963414634144 19.999999519091677  C 13.125642260398267 20  13.266792682927221 19.86399137051628  13.266792682927221 19.696216223520825  Z " stroke-width="2" stroke="#764ba2" fill="none" transform="matrix(1 0 0 1 1106 2246 )" mask="url(#clip15)" />
    <path d="M 17.064657047410346 0.5405286201089747  C 17.060710386105658 0.5405286201089747  17.056763725876856 0.5405325892558173  17.05281707317073 0.5405405275430183  C 14.653905356023259 0.5470085606013548  12.519221142906478 2.008506097306571  11.723548780487803 4.1891890884583916  L 13.795792682926827 4.1891890884583916  C 14.47218056602607 3.0607475125724175  15.721882597103974 2.3656443024752565  17.074280812029414 2.3656443024752565  C 19.165244345248553 2.3656443024752565  20.86030520227332 3.998957897467483  20.86030520227332 6.013752322863088  C 20.86030520227332 8.028546748258691  19.165244345248553 9.661860343250916  17.074280812029414 9.661860343250916  C 16.53267848689542 9.661860343250916  15.997379932938028 9.54989156844501  15.5045243902439 9.333513289085296  L 14.113865853658538 10.673513256864437  C 15.002851704418912 11.195320592465048  16.0237174983151 11.47133916808389  17.064657047410346 11.47133916808389  C 20.197229618810354 11.47133916808389  22.736681437654248 9.024393878564494  22.736681437654248 6.005933894096433  C 22.736681437654248 2.9874739096283704  20.197229618810354 0.5405286201089747  17.064657047410346 0.5405286201089747  Z " stroke-width="2" stroke="#764ba2" fill="none" transform="matrix(1 0 0 1 1106 2246 )" mask="url(#clip15)" />
  </g>
</svg>