<?xml version="1.0" encoding="utf-8"?>
<svg version="1.1" xmlns:xlink="http://www.w3.org/1999/xlink" width="17px" height="22px" xmlns="http://www.w3.org/2000/svg">
  <defs>
    <mask fill="white" id="clip117">
      <path d="M 1.2142857142857142 5  L 1.2142857142857157 19.555555555555554  C 1.2182865442075201 20.90391339206814  2.303254876711519 21.995973020863023  3.642857142857143 21.999999999999996  L 13.357142857142858 22  C 14.696745123288483 21.995973020863023  15.781713455792485 20.90391339206814  15.785714285714286 19.555555555555554  L 15.785714285714286 5  L 1.2142857142857142 5  Z M 17 4  L 17 1.222222222222222  L 12.75 1.222222222222222  L 11.535714285714286 0  L 5.464285714285714 0  L 4.25 1.222222222222222  L 0 1.222222222222222  L 0 4  L 17 4  Z " fill-rule="evenodd" />
    </mask>
  </defs>
  <g transform="matrix(1 0 0 1 -664 -9703 )">
    <path d="M 1.2142857142857142 5  L 1.2142857142857157 19.555555555555554  C 1.2182865442075201 20.90391339206814  2.303254876711519 21.995973020863023  3.642857142857143 21.999999999999996  L 13.357142857142858 22  C 14.696745123288483 21.995973020863023  15.781713455792485 20.90391339206814  15.785714285714286 19.555555555555554  L 15.785714285714286 5  L 1.2142857142857142 5  Z M 17 4  L 17 1.222222222222222  L 12.75 1.222222222222222  L 11.535714285714286 0  L 5.464285714285714 0  L 4.25 1.222222222222222  L 0 1.222222222222222  L 0 4  L 17 4  Z " fill-rule="nonzero" fill="#000000" stroke="none" fill-opacity="0" transform="matrix(1 0 0 1 664 9703 )" />
    <path d="M 1.2142857142857142 5  L 1.2142857142857157 19.555555555555554  C 1.2182865442075201 20.90391339206814  2.303254876711519 21.995973020863023  3.642857142857143 21.999999999999996  L 13.357142857142858 22  C 14.696745123288483 21.995973020863023  15.781713455792485 20.90391339206814  15.785714285714286 19.555555555555554  L 15.785714285714286 5  L 1.2142857142857142 5  Z " stroke-width="4" stroke="#764ba2" fill="none" transform="matrix(1 0 0 1 664 9703 )" mask="url(#clip117)" />
    <path d="M 17 4  L 17 1.222222222222222  L 12.75 1.222222222222222  L 11.535714285714286 0  L 5.464285714285714 0  L 4.25 1.222222222222222  L 0 1.222222222222222  L 0 4  L 17 4  Z " stroke-width="4" stroke="#764ba2" fill="none" transform="matrix(1 0 0 1 664 9703 )" mask="url(#clip117)" />
  </g>
</svg>