<?xml version="1.0" encoding="utf-8"?>
<svg version="1.1" xmlns:xlink="http://www.w3.org/1999/xlink" width="25px" height="23px" xmlns="http://www.w3.org/2000/svg">
  <g transform="matrix(1 0 0 1 -794 -11125 )">
    <path d="M 1.2704061158565398 22.999997607252727  C 1.4515802376638294 22.999759263554886  1.6305711514813994 22.96076861802689  1.7951716066364092 22.88568558633651  C 1.7951716066364092 22.88568558633651  24.266225837282565 12.635444341063218  24.266225837282565 12.635444341063218  C 24.8984021272545 12.347074684495768  25.17518531915312 11.605017799109035  24.884437766629 10.978012991820277  C 24.75876332718117 10.706992373017862  24.53948129189015 10.489503748748048  24.266225837282565 10.364857145093929  C 24.266225837282565 10.364857145093929  1.7951716066364092 0.11461656085199583  1.7951716066364092 0.11461656085199583  C 1.1629961427269395 -0.17375221123689502  0.4148199564724075 0.10076682753462979  0.12407328633319442 0.7277719699942123  C 0.04837120450740004 0.8910261561644748  0.009058911902021018 1.0685532567496603  0.008817613659387501 1.2482454863824142  C 0.008817613659387501 1.2482454863824142  0 7.8138454797243355  0 7.8138454797243355  C -0.0007686759816293851 8.387115104478088  0.3918467088326511 8.88737528771258  0.9523588510977411 9.027314618878712  C 0.9523588510977411 9.027314618878712  10.857057286512608 11.500150147219331  10.857057286512608 11.500150147219331  L 0.9523588510977411 13.972986271419199  C 0.3918467088326511 14.112926198444578  -0.0007686759816293851 14.613185785819816  0 15.186456006432824  C 0 15.186456006432824  0.008817613659387501 21.752056223221956  0.008817613659387501 21.752056223221956  C 0.009744354243697769 22.4421947009104  0.5745767943831641 23.000917613926344  1.2704061158565398 22.999997607252727  Z " fill-rule="nonzero" fill="#764ba2" stroke="none" transform="matrix(1 0 0 1 794 11125 )" />
  </g>
</svg>