<?xml version="1.0" encoding="utf-8"?>
<svg version="1.1" xmlns:xlink="http://www.w3.org/1999/xlink" width="170px" height="347px" xmlns="http://www.w3.org/2000/svg">
  <g transform="matrix(1 0 0 1 -290 -3255 )">
    <path d="M 139.6457762221664 347  C 139.6457762221664 347  30.23021837984289 347  30.23021837984289 347  C 3.851118416456439 347  0.9753485046874473 327.6819715501267  0.9753485046874473 317.88799288671436  C 0.9753485046874473 317.88799288671436  0.9753485046874473 131.8628089544663  0.9753485046874473 131.8628089544663  C 1.1287237346084673 131.7061666330103  1.244559632094612 131.51298483588124  1.3086793823659544 131.29738774850108  C 1.3086793823659544 131.29738774850108  0.7820663550699228 131.29738774850108  0.7820663550699228 131.29738774850108  C 0.4580674619095468 131.29738774850108  0.1955165887674807 131.03419953032176  0.1955165887674807 130.71078026440293  C 0.1955165887674807 130.71078026440293  0.1955165887674807 106.09314756678486  0.1955165887674807 106.09314756678486  C 0.1955165887674807 105.76861273602019  0.4580674619095468 105.50653062874746  0.7820663550699228 105.50653062874746  C 0.7820663550699228 105.50653062874746  1.3652644071536362 105.50653062874746  1.3652644071536362 105.50653062874746  L 1.3652644071536362 99.64487077745382  C 1.3652644071536362 99.64487077745382  0.7820663550699228 99.64487077745382  0.7820663550699228 99.64487077745382  C 0.4580674619095468 99.64487077745382  0.1955165887674807 99.3827886701811  0.1955165887674807 99.05937885820171  C 0.1955165887674807 99.05937885820171  0.1955165887674807 74.63579299316515  0.1955165887674807 74.63579299316515  C 0.1955165887674807 74.31237372724638  0.4580674619095468 74.05029634694334  0.7820663550699228 74.05029634694334  C 0.7820663550699228 74.05029634694334  1.351535834252293 74.05029634694334  1.351535834252293 74.05029634694334  C 1.3097062395450558 73.75522471823174  1.1739866194127995 73.49034897187457  0.9753485046874473 73.28747688688914  C 0.9753485046874473 73.28747688688914  0.9753485046874473 58.02887073702257  0.9753485046874473 58.02887073702257  C 0.9753485046874473 58.02887073702257  0.5876670043753519 58.02887073702257  0.5876670043753519 58.02887073702257  C 0.26255085464413447 58.02887073702257  0 57.76567779187362  0 57.442258525954855  C 0 57.442258525954855  0 44.938275052748615  0 44.938275052748615  C 0 44.61374494895363  0.26255085464413447 44.3516628416809  0.5876670043753519 44.3516628416809  C 0.5876670043753519 44.3516628416809  0.9753485046874473 44.3516628416809  0.9753485046874473 44.3516628416809  C 0.9753485046874473 44.3516628416809  0.9753485046874473 29.11201893070987  0.9753485046874473 29.11201893070987  C 0.9753485046874473 12.009934782530514  9.753485194857927 0  30.23021837984289 0  C 30.23021837984289 0  140.23008592594772 0  140.23008592594772 0  C 153.64811732735396 0  169.09615021848344 5.820396360290557  169.09615021848344 29.11201893070987  C 169.09615021848344 29.11201893070987  169.09615021848344 73.28859245173504  169.09615021848344 73.28859245173504  C 168.91913833156113 73.46938013434729  168.792114071133 73.69877997321075  168.7369363689817 73.95520862473897  C 168.7369363689817 73.95520862473897  169.45703095359792 74.00902990158423  169.45703095359792 74.00902990158423  C 169.76315070796397 74.03245203637854  170 74.28672518972994  170 74.59341570992981  C 170 74.59341570992981  170 98.90547817916364  170 98.90547817916364  C 170 99.21216397239384  169.76315070796397 99.46755269059113  169.45703095359792 99.49097009841579  C 169.45703095359792 99.49097009841579  168.7369363689817 99.54479137526101  168.7369363689817 99.54479137526101  C 168.792133013015 99.80120111891051  168.91915727344312 100.03063877353146  169.09615021848344 100.21140754826494  C 169.09615021848344 100.21140754826494  169.09615021848344 317.88799288671436  169.09615021848344 317.88799288671436  C 169.09615021848344 327.57378066795275  166.3354656321279 347  139.6457762221664 347  Z " fill-rule="nonzero" fill="#000000" stroke="none" transform="matrix(1 0 0 1 290 3255 )" />
  </g>
</svg>