<?xml version="1.0" encoding="utf-8"?>
<svg version="1.1" xmlns:xlink="http://www.w3.org/1999/xlink" width="6px" height="5px" xmlns="http://www.w3.org/2000/svg">
  <g transform="matrix(1 0 0 1 -216 -9266 )">
    <path d="M 5.962641363059871 0.5852031334134403  C 5.962641363059871 0.5852031334134403  5.38476408800275 0.036385687173055244  5.38476408800275 0.036385687173055244  C 5.361780088717885 0.012128562781658057  5.325662906980139 0  5.2928291054003695 0  C 5.256711585483598 0  5.223877783903828 0.012128562781658057  5.2008941227979895 0.036385687173055244  C 5.2008941227979895 0.036385687173055244  1.1951549429204533 3.762886532987256  1.1951549429204533 3.762886532987256  C 1.1951549429204533 3.762886532987256  0.8077145624735583 3.4871419980820884  0.8077145624735583 3.4871419980820884  C 0.7814474366649868 3.462884888925637  0.748613550540461 3.4507563343474112  0.7157795798711784 3.4507563343474112  C 0.6829456937466527 3.4507563343474112  0.6501117653497487 3.462884888925637  0.6238445972687986 3.4871419980820884  C 0.6238445972687986 3.4871419980820884  0.03940071249107066 4.026863126829994  0.03940071249107066 4.026863126829994  C -0.013133570830356885 4.075377345142896  -0.013133570830356885 4.151180886259617  0.03940071249107066 4.19969510457252  C 0.03940071249107066 4.19969510457252  0.8077145624735583 4.827168022257474  0.8077145624735583 4.827168022257474  C 0.9259167554292671 4.936325013461504  1.0703859896487908 5  1.1918715627624763 5  C 1.3658913874933059 5  1.5169273820287827 4.881746367853867  1.5727450138039043 4.833232149540965  C 1.5727450138039043 4.833232149540965  5.965924405038822 0.7580351861587771  5.965924405038822 0.7580351861587771  C 6.011891727250499 0.7064887541985072  6.011891727250499 0.6306852880845971  5.962641363059871 0.5852031334134403  Z " fill-rule="nonzero" fill="#764ba2" stroke="none" transform="matrix(1 0 0 1 216 9266 )" />
  </g>
</svg>