<?xml version="1.0" encoding="utf-8"?>
<svg version="1.1" xmlns:xlink="http://www.w3.org/1999/xlink" width="8px" height="5px" xmlns="http://www.w3.org/2000/svg">
  <g transform="matrix(1 0 0 1 -210 -9266 )">
    <path d="M 7.957729451269198 0.5852031334134403  C 7.957729451269198 0.5852031334134403  7.303872517198358 0.036385687173055244  7.303872517198358 0.036385687173055244  C 7.277867348076943 0.012128562781658057  7.237001098376122 0  7.199850310141545 0  C 7.158984060440724 0  7.121833272206148 0.012128562781658057  7.095827337799157 0.036385687173055244  C 7.095827337799157 0.036385687173055244  2.5634141455768313 3.762886532987256  2.5634141455768313 3.762886532987256  C 2.5634141455768313 3.762886532987256  0.9139128343556588 2.4166160747704826  0.9139128343556588 2.4166160747704826  C 0.8841921081073016 2.3923589656140316  0.8470412242120287 2.3802304110358055  0.8098902446560585 2.3802304110358055  C 0.7727393607607856 2.3802304110358055  0.7355884290351643 2.3923589656140316  0.7058676549564581 2.4166160747704826  C 0.7058676549564581 2.4166160747704826  0.04458111627710761 2.9563372035183875  0.04458111627710761 2.9563372035183875  C -0.014860372092369201 3.0048514218312903  -0.014860372092369201 3.080654962948011  0.04458111627710761 3.1291691812609135  C 0.04458111627710761 3.1291691812609135  2.1250331225162897 4.827168022257474  2.1250331225162897 4.827168022257474  C 2.258776534124945 4.936325013461504  2.4222405763212613 5  2.5596990667533737 5  C 2.7565990096822017 5  2.9274932095254336 4.881746367853867  2.9906499321669995 4.833232149540965  C 2.9906499321669995 4.833232149540965  2.994365010990457 4.833232149540965  2.994365010990457 4.833232149540965  C 2.994365010990457 4.833232149540965  7.961444147449868 0.7580351861587771  7.961444147449868 0.7580351861587771  C 8.013455250978273 0.7064887541985072  8.013455250978273 0.6306852880845971  7.957729451269198 0.5852031334134403  Z " fill-rule="nonzero" fill="#764ba2" stroke="none" transform="matrix(1 0 0 1 210 9266 )" />
  </g>
</svg>