<?xml version="1.0" encoding="utf-8"?>
<svg version="1.1" xmlns:xlink="http://www.w3.org/1999/xlink" width="15px" height="14px" xmlns="http://www.w3.org/2000/svg">
  <g transform="matrix(1 0 0 1 -272 -9444 )">
    <path d="M 0.7622436695139239 13.999998543545138  C 0.8709481425982976 13.999853464772539  0.9783426908888396 13.976120028364193  1.0771029639818455 13.930417313422225  C 1.0771029639818455 13.930417313422225  14.55973550236954 7.691140033690655  14.55973550236954 7.691140033690655  C 14.939041276352699 7.515610677519163  15.105111191491872 7.063923877718542  14.9306626599774 6.682268777629734  C 14.855257996308703 6.51729970531522  14.723688775134091 6.384915325324898  14.55973550236954 6.309043479622391  C 14.55973550236954 6.309043479622391  1.0771029639818455 0.06976660225773659  1.0771029639818455 0.06976660225773659  C 0.6977976856361636 -0.10576221553550132  0.24889197388344447 0.061336329803687695  0.07444397179991664 0.44299163390952057  C 0.02902272270444002 0.5423637472305499  0.005435347141212611 0.6504237214997932  0.005290568195632501 0.7598016004066869  C 0.005290568195632501 0.7598016004066869  0 4.756253770266987  0 4.756253770266987  C -0.00046120558897763106 5.105200498377966  0.23510802529959068 5.409706696868526  0.5714153106586447 5.494887159317477  C 0.5714153106586447 5.494887159317477  6.514234371907565 7.000091393959593  6.514234371907565 7.000091393959593  L 0.5714153106586447 8.505295991298643  C 0.23510802529959068 8.590476816444525  -0.00046120558897763106 8.894982652238149  0 9.243929743046067  C 0 9.243929743046067  0.005290568195632501 13.240382048917713  0.005290568195632501 13.240382048917713  C 0.005846612546218661 13.660466339684591  0.3447460766298985 14.000558547607339  0.7622436695139239 13.999998543545138  Z " fill-rule="nonzero" fill="#764ba2" stroke="none" transform="matrix(1 0 0 1 272 9444 )" />
  </g>
</svg>