<?xml version="1.0" encoding="utf-8"?>
<svg version="1.1" xmlns:xlink="http://www.w3.org/1999/xlink" width="150px" height="306px" xmlns="http://www.w3.org/2000/svg">
  <g transform="matrix(1 0 0 1 -59 -2490 )">
    <path d="M 123.21686137249976 306  C 123.21686137249976 306  26.673722099861372 306  26.673722099861372 306  C 3.398045661579211 306  0.8606016217830417 288.96450517100516  0.8606016217830417 280.3277401248835  C 0.8606016217830417 280.3277401248835  0.8606016217830417 116.2824770607109  0.8606016217830417 116.2824770607109  C 0.9959327070074712 116.14434290980158  1.098140851848187 115.97398662760709  1.1547171020876068 115.78386354766953  C 1.1547171020876068 115.78386354766953  0.6900585485911084 115.78386354766953  0.6900585485911084 115.78386354766953  C 0.4041771722731295 115.78386354766953  0.1725146371477771 115.5517724964797  0.1725146371477771 115.26656703431499  C 0.1725146371477771 115.26656703431499  0.1725146371477771 93.55764598108406  0.1725146371477771 93.55764598108406  C 0.1725146371477771 93.27145676432905  0.4041771722731295 93.04034113082628  0.6900585485911084 93.04034113082628  C 0.6900585485911084 93.04034113082628  1.2046450651355614 93.04034113082628  1.2046450651355614 93.04034113082628  L 1.2046450651355614 87.87126933112643  C 1.2046450651355614 87.87126933112643  0.6900585485911084 87.87126933112643  0.6900585485911084 87.87126933112643  C 0.4041771722731295 87.87126933112643  0.1725146371477771 87.64015369762369  0.1725146371477771 87.35495657236231  C 0.1725146371477771 87.35495657236231  0.1725146371477771 65.8171546279785  0.1725146371477771 65.8171546279785  C 0.1725146371477771 65.53194916581381  0.4041771722731295 65.30083770076271  0.6900585485911084 65.30083770076271  C 0.6900585485911084 65.30083770076271  1.1925316184579056 65.30083770076271  1.1925316184579056 65.30083770076271  C 1.1556231525397551 65.04063044316689  1.0358705465407054 64.80705125473665  0.8606016217830417 64.62814964665152  C 0.8606016217830417 64.62814964665152  0.8606016217830417 51.17243356060204  0.8606016217830417 51.17243356060204  C 0.8606016217830417 51.17243356060204  0.5185297097429575 51.17243356060204  0.5185297097429575 51.17243356060204  C 0.23166251880364808 51.17243356060204  0 50.9403383409606  0 50.655132878795925  C 0 50.655132878795925  0 39.62856532029129  0 39.62856532029129  C 0 39.34238027198793  0.23166251880364808 39.111264638485174  0.5185297097429575 39.111264638485174  C 0.5185297097429575 39.111264638485174  0.8606016217830417 39.111264638485174  0.8606016217830417 39.111264638485174  C 0.8606016217830417 39.111264638485174  0.8606016217830417 25.67227029624559  0.8606016217830417 25.67227029624559  C 0.8606016217830417 10.590893496986563  8.606016348404053 0  26.673722099861372 0  C 26.673722099861372 0  123.73242875818916 0  123.73242875818916 0  C 135.5718682300182 0  149.20248548689716 5.13268382204297  149.20248548689716 25.67227029624559  C 149.20248548689716 25.67227029624559  149.20248548689716 64.62913340124186  149.20248548689716 64.62913340124186  C 149.04629852784805 64.78856000319962  148.93421829805854 64.99085496196682  148.88553209027796 65.21698512729144  C 148.88553209027796 65.21698512729144  149.52090966493935 65.26444711782355  149.52090966493935 65.26444711782355  C 149.79101533055646 65.28510179576898  150 65.50933114713936  150 65.77978445890065  C 150 65.77978445890065  150 87.21924012341232  150 87.21924012341232  C 150 87.48968926672194  149.79101533055646 87.71490237268267  149.52090966493935 87.73555288217645  C 149.52090966493935 87.73555288217645  148.88553209027796 87.78301487270856  148.88553209027796 87.78301487270856  C 148.93423501148382 88.00912836422656  149.04631524127333 88.21145667060699  149.20248548689716 88.37086659875813  C 149.20248548689716 88.37086659875813  149.20248548689716 280.3277401248835  149.20248548689716 280.3277401248835  C 149.20248548689716 288.86909764954913  146.7665873224658 306  123.21686137249976 306  Z " fill-rule="nonzero" fill="#000000" stroke="none" transform="matrix(1 0 0 1 59 2490 )" />
  </g>
</svg>