<?xml version="1.0" encoding="utf-8"?>
<svg version="1.1" xmlns:xlink="http://www.w3.org/1999/xlink" width="10px" height="8px" xmlns="http://www.w3.org/2000/svg">
  <g transform="matrix(1 0 0 1 -704 -10851 )">
    <path d="M 9.947161814086497 0.9363250134615045  C 9.947161814086497 0.9363250134615045  9.129840646497948 0.05821709947688839  9.129840646497948 0.05821709947688839  C 9.097334185096178 0.01940570045065289  9.046251372970152 0  8.999812887676931 0  C 8.948730075550905 0  8.902291590257684 0.01940570045065289  8.869784172248947 0.05821709947688839  C 8.869784172248947 0.05821709947688839  3.2042676819710394 6.02061845277961  3.2042676819710394 6.02061845277961  C 3.2042676819710394 6.02061845277961  1.1423910429445736 3.8665857196327718  1.1423910429445736 3.8665857196327718  C 1.105240135134127 3.8277743449824504  1.0588015302650358 3.808368657657289  1.012362805820073 3.808368657657289  C 0.9659242009509821 3.808368657657289  0.9194855362939554 3.8277743449824504  0.8823345686955726 3.8665857196327718  C 0.8823345686955726 3.8665857196327718  0.055726395346384516 4.73013952562942  0.055726395346384516 4.73013952562942  C -0.0185754651154615 4.807762274930065  -0.0185754651154615 4.929047940716818  0.055726395346384516 5.006670690017462  C 0.055726395346384516 5.006670690017462  2.656291403145362 7.72346883561196  2.656291403145362 7.72346883561196  C 2.823470667656181 7.898120021538407  3.0278007204015767 8  3.1996238334417173 8  C 3.445748762102752 8  3.659366511906792 7.810794188566187  3.7383124152087492 7.7331714392655435  C 3.7383124152087492 7.7331714392655435  3.7429562637380713 7.7331714392655435  3.7429562637380713 7.7331714392655435  C 3.7429562637380713 7.7331714392655435  9.951805184312335 1.2128562978540434  9.951805184312335 1.2128562978540434  C 10.016819063722842 1.1303820067176116  10.016819063722842 1.0090964609353554  9.947161814086497 0.9363250134615045  Z " fill-rule="nonzero" fill="#764ba2" stroke="none" transform="matrix(1 0 0 1 704 10851 )" />
  </g>
</svg>