<?xml version="1.0" encoding="utf-8"?>
<svg version="1.1" xmlns:xlink="http://www.w3.org/1999/xlink" width="8px" height="8px" xmlns="http://www.w3.org/2000/svg">
  <g transform="matrix(1 0 0 1 -710 -10851 )">
    <path d="M 7.950188484079828 0.9363250134615045  C 7.950188484079828 0.9363250134615045  7.179685450670333 0.05821709947688839  7.179685450670333 0.05821709947688839  C 7.149040118290514 0.01940570045065289  7.100883875973519 0  7.05710547386716 0  C 7.008948780644797 0  6.965170378538438 0.01940570045065289  6.934525497063986 0.05821709947688839  C 6.934525497063986 0.05821709947688839  1.5935399238939376 6.02061845277961  1.5935399238939376 6.02061845277961  C 1.5935399238939376 6.02061845277961  1.0769527499647444 5.579427196931341  1.0769527499647444 5.579427196931341  C 1.0419299155533157 5.540615822281019  0.9981514007206146 5.521210134955858  0.9543727731615712 5.521210134955858  C 0.9105942583288703 5.521210134955858  0.8668156871329983 5.540615822281019  0.8317927963583981 5.579427196931341  C 0.8317927963583981 5.579427196931341  0.05253428332142755 6.44298100292799  0.05253428332142755 6.44298100292799  C -0.01751142777380918 6.5206037522286335  -0.01751142777380918 6.641889418015388  0.05253428332142755 6.719512167316031  C 0.05253428332142755 6.719512167316031  1.0769527499647444 7.72346883561196  1.0769527499647444 7.72346883561196  C 1.2345556739056895 7.898120021538407  1.4271813195317211 8  1.5891620836833018 8  C 1.821188516657741 8  2.022569842705044 7.810794188566187  2.096993351738539 7.7331714392655435  C 2.096993351738539 7.7331714392655435  7.954565873385096 1.2128562978540434  7.954565873385096 1.2128562978540434  C 8.015855636333999 1.1303820067176116  8.015855636333999 1.0090964609353554  7.950188484079828 0.9363250134615045  Z " fill-rule="nonzero" fill="#764ba2" stroke="none" transform="matrix(1 0 0 1 710 10851 )" />
  </g>
</svg>