<?xml version="1.0" encoding="utf-8"?>
<svg version="1.1" xmlns:xlink="http://www.w3.org/1999/xlink" width="8px" height="14px" xmlns="http://www.w3.org/2000/svg">
  <g transform="matrix(1 0 0 1 -527 -10623 )">
    <path d="M 7.702148386957647 12.295389962880831  C 7.702148386957647 12.295389962880831  2.411633037656824 6.99817806743865  2.411633037656824 6.99817806743865  C 2.411633037656824 6.99817806743865  7.706314214995639 1.70513350215038  7.706314214995639 1.70513350215038  C 8.097895341537518 1.3133648798946704  8.097895341537518 0.6798666048252267  7.706314214995639 0.29226573006456763  C 7.3147326092373754 -0.09950291454870296  6.6815372902230274 -0.09533516705365264  6.289955684464763 0.29226573006456763  C 6.289955684464763 0.29226573006456763  0.2912612795556705 6.28966015859781  0.2912612795556705 6.28966015859781  C -0.08782288701515283 6.668925478748205  -0.096154408311529 7.277416970746532  0.26210096250611004 7.669185831482894  C 0.26210096250611004 7.669185831482894  6.285789856426771 13.708258092687617  6.285789856426771 13.708258092687617  C 6.4815804196977105 13.904142284575148  6.739857924322148 14.000000059620163  6.993969121692209 14.000000059620163  C 7.24808031906227 14.000000059620163  7.506357823686708 13.904142284575148  7.702148386957647 13.708258092687617  C 8.093729992715911 13.316488754989953  8.093729992715911 12.682990658780994  7.702148386957647 12.295389962880831  Z " fill-rule="nonzero" fill="#ffffff" stroke="none" transform="matrix(1 0 0 1 527 10623 )" />
  </g>
</svg>