<?xml version="1.0" encoding="utf-8"?>
<svg version="1.1" xmlns:xlink="http://www.w3.org/1999/xlink" width="6px" height="10px" xmlns="http://www.w3.org/2000/svg">
  <g transform="matrix(1 0 0 1 -80 -9082 )">
    <path d="M 5.776611290218235 8.782421402057736  C 5.776611290218235 8.782421402057736  1.8087247782426181 4.998698619599035  1.8087247782426181 4.998698619599035  C 1.8087247782426181 4.998698619599035  5.779735661246729 1.2179525015359858  5.779735661246729 1.2179525015359858  C 6.073421506153139 0.9381177713533361  6.073421506153139 0.4856190034465905  5.779735661246729 0.20876123576040545  C 5.486049456928032 -0.07107351039193069  5.011152967667271 -0.06809654789546617  4.717466763348572 0.20876123576040545  C 4.717466763348572 0.20876123576040545  0.21844595966675287 4.492614398998436  0.21844595966675287 4.492614398998436  C -0.06586716526136462 4.763518199105861  -0.07211580623364675 5.1981549791046655  0.19657572187958253 5.477989879630638  C 0.19657572187958253 5.477989879630638  4.714342392320078 9.791612923348298  4.714342392320078 9.791612923348298  C 4.861185314773283 9.931530203267961  5.054893443241611 10.00000004258583  5.245476841269157 10.00000004258583  C 5.436060239296703 10.00000004258583  5.629768367765031 9.931530203267961  5.776611290218235 9.791612923348298  C 6.070297494536933 9.51177768213568  6.070297494536933 9.059279041986425  5.776611290218235 8.782421402057736  Z " fill-rule="nonzero" fill="#ffffff" stroke="none" transform="matrix(1 0 0 1 80 9082 )" />
  </g>
</svg>