<?xml version="1.0" encoding="utf-8"?>
<svg version="1.1" xmlns:xlink="http://www.w3.org/1999/xlink" width="14px" height="14px" xmlns="http://www.w3.org/2000/svg">
  <g transform="matrix(1 0 0 1 -663 -7777 )">
    <path d="M 13.500278862242052 0  C 13.604387432608293 0  13.698085145937908 0.02864583333333459  13.781372002230897 0.08593750000000067  C 13.953151143335194 0.21093750000000022  14.023424428332406 0.3776041666666663  13.992191857222533 0.5859375000000004  L 11.993307306190742 12.5859375  C 11.967280163599183 12.736979166666666  11.883993307306191 12.854166666666666  11.743446737311768 12.9375  C 11.670570738055401 12.979166666666666  11.589886596021566 13  11.501394311210262 13  C 11.444134597508832 13  11.381669455289089 12.986979166666666  11.313998884551031 12.9609375  L 7.7769102063580595 11.515625  L 5.88733965421082 13.8203125  C 5.793641940881205 13.940104166666666  5.666108942182563 14  5.504740658114891 14  C 5.437070087376836 14  5.379810373675404 13.989583333333334  5.332961517010597 13.96875  C 5.23405837516267 13.932291666666666  5.154675590258413 13.87109375  5.094813162297825 13.78515625  C 5.0349507343372375 13.69921875  5.005019520356943 13.604166666666666  5.005019520356943 13.5  L 5.005019520356943 10.7734375  L 11.751254880089236 2.5000000000000004  L 3.404350250976018 9.7265625  L 0.32013385387618515 8.4609375  C 0.12753299869864287 8.388020833333332  0.023424428332403793 8.244791666666666  0.007808142777467931 8.03125  C -0.002602714259155978 7.822916666666666  0.08068414203383528 7.669270833333334  0.25766871165644173 7.570312500000001  L 13.250418293363078 0.07031249999999956  C 13.328499721137758 0.023437499999999334  13.41178657743075 0  13.500278862242052 0  Z " fill-rule="nonzero" fill="#764ba2" stroke="none" transform="matrix(1 0 0 1 663 7777 )" />
  </g>
</svg>