<?xml version="1.0" encoding="utf-8"?>
<svg version="1.1" xmlns:xlink="http://www.w3.org/1999/xlink" width="14px" height="14px" xmlns="http://www.w3.org/2000/svg">
  <g transform="matrix(1 0 0 1 -471 -7777 )">
    <path d="M 8.649739583333332 8.649739583333334  C 9.10546875 8.194010416666666  9.333333333333332 7.644097222222221  9.333333333333332 7  C 9.333333333333332 6.355902777777777  9.10546875 5.805989583333333  8.649739583333332 5.350260416666667  C 8.194010416666668 4.89453125  7.644097222222223 4.666666666666667  7 4.666666666666667  C 6.355902777777779 4.666666666666667  5.805989583333334 4.89453125  5.350260416666666 5.350260416666667  C 4.89453125 5.805989583333333  4.666666666666666 6.355902777777777  4.666666666666666 7  C 4.666666666666666 7.644097222222221  4.89453125 8.194010416666666  5.350260416666666 8.649739583333334  C 5.805989583333334 9.10546875  6.355902777777779 9.333333333333334  7 9.333333333333334  C 7.644097222222223 9.333333333333334  8.194010416666668 9.10546875  8.649739583333332 8.649739583333334  Z M 13.927083333333332 5.792317708333333  C 13.975694444444443 5.856119791666667  14 5.927517361111111  14 6.006510416666667  L 14 8.029947916666666  C 14 8.102864583333334  13.975694444444443 8.172743055555557  13.927083333333332 8.239583333333334  C 13.878472222222223 8.306423611111109  13.817708333333332 8.345920138888888  13.744791666666668 8.358072916666666  L 12.05859375 8.61328125  C 11.943142361111112 8.94140625  11.82465277777778 9.217881944444443  11.703125 9.442708333333334  C 11.915798611111112 9.746527777777779  12.240885416666668 10.165798611111109  12.678385416666668 10.700520833333332  C 12.739149305555557 10.7734375  12.76953125 10.84939236111111  12.76953125 10.928385416666668  C 12.76953125 11.007378472222223  12.7421875 11.077256944444443  12.6875 11.138020833333332  C 12.5234375 11.362847222222223  12.22265625 11.690972222222223  11.78515625 12.122395833333332  C 11.34765625 12.553819444444443  11.062065972222223 12.76953125  10.928385416666668 12.76953125  C 10.85546875 12.76953125  10.776475694444445 12.7421875  10.69140625 12.6875  L 9.43359375 11.703125  C 9.16623263888889 11.842881944444443  8.889756944444445 11.958333333333332  8.604166666666668 12.049479166666668  C 8.506944444444445 12.875868055555557  8.418836805555557 13.440972222222223  8.33984375 13.744791666666668  C 8.297309027777779 13.914930555555557  8.187934027777779 14  8.01171875 14  L 5.98828125 14  C 5.903211805555556 14  5.828776041666666 13.974175347222223  5.764973958333334 13.922526041666668  C 5.701171875 13.87087673611111  5.66623263888889 13.805555555555557  5.66015625 13.7265625  L 5.404947916666666 12.049479166666668  C 5.107204861111112 11.952256944444443  4.833767361111112 11.83984375  4.584635416666666 11.712239583333332  L 3.299479166666667 12.6875  C 3.238715277777778 12.7421875  3.162760416666667 12.76953125  3.071614583333333 12.76953125  C 2.9865451388888893 12.76953125  2.910590277777778 12.73611111111111  2.84375 12.669270833333332  C 2.078125 11.9765625  1.5768229166666665 11.466145833333332  1.33984375 11.138020833333332  C 1.297309027777778 11.077256944444443  1.2760416666666665 11.007378472222223  1.2760416666666665 10.928385416666668  C 1.2760416666666665 10.85546875  1.3003472222222225 10.785590277777777  1.3489583333333335 10.71875  C 1.4401041666666665 10.591145833333332  1.5950520833333335 10.389105902777779  1.8138020833333333 10.112630208333334  C 2.032552083333333 9.836154513888888  2.196614583333333 9.621961805555554  2.305989583333333 9.470052083333334  C 2.141927083333333 9.166232638888888  2.017361111111111 8.865451388888888  1.9322916666666667 8.567708333333334  L 0.26432291666666663 8.321614583333334  C 0.18532986111111113 8.309461805555557  0.12152777777777779 8.271484375  0.07291666666666666 8.207682291666666  C 0.024305555555555552 8.143880208333334  0 8.072482638888888  0 7.993489583333334  L 0 5.970052083333333  C 0 5.897135416666667  0.024305555555555552 5.827256944444444  0.07291666666666666 5.760416666666667  C 0.12152777777777779 5.693576388888889  0.17925347222222224 5.654079861111111  0.24609375 5.641927083333333  L 1.94140625 5.38671875  C 2.0264756944444446 5.107204861111111  2.1449652777777777 4.827690972222221  2.296875 4.548177083333333  C 2.0538194444444446 4.201822916666667  1.728732638888889 3.782552083333333  1.3216145833333335 3.290364583333333  C 1.2608506944444446 3.217447916666667  1.23046875 3.14453125  1.23046875 3.071614583333333  C 1.23046875 3.0108506944444438  1.2578125 2.9409722222222205  1.3125 2.861979166666667  C 1.4704861111111112 2.643229166666667  1.769748263888889 2.3166232638888875  2.210286458333333 1.8821614583333328  C 2.650824652777778 1.4476996527777766  2.937934027777778 1.23046875  3.071614583333333 1.23046875  C 3.1506076388888893 1.23046875  3.229600694444445 1.2608506944444438  3.30859375 1.3216145833333328  L 4.56640625 2.296875  C 4.833767361111112 2.1571180555555545  5.110243055555556 2.041666666666667  5.395833333333334 1.9505208333333328  C 5.493055555555556 1.1241319444444438  5.581163194444445 0.5590277777777766  5.66015625 0.2552083333333328  C 5.702690972222222 0.08506944444444375  5.812065972222222 0  5.98828125 0  L 8.01171875 0  C 8.096788194444445 0  8.171223958333332 0.02582465277777657  8.235026041666668 0.07747395833333282  C 8.298828125 0.1291232638888875  8.33376736111111 0.19444444444444375  8.33984375 0.2734375  L 8.595052083333332 1.9505208333333328  C 8.89279513888889 2.0477430555555545  9.16623263888889 2.16015625  9.415364583333332 2.287760416666667  L 10.709635416666668 1.3125  C 10.764322916666668 1.2578125  10.837239583333332 1.23046875  10.928385416666668 1.23046875  C 11.007378472222223 1.23046875  11.083333333333332 1.2608506944444438  11.15625 1.3216145833333328  C 11.940104166666668 2.0447048611111107  12.44140625 2.561197916666667  12.66015625 2.87109375  C 12.702690972222223 2.9197048611111107  12.723958333333332 2.9865451388888875  12.723958333333332 3.071614583333333  C 12.723958333333332 3.14453125  12.69965277777778 3.2144097222222205  12.651041666666668 3.28125  C 12.559895833333332 3.408854166666667  12.404947916666668 3.6108940972222205  12.186197916666668 3.887369791666667  C 11.967447916666668 4.163845486111111  11.803385416666668 4.378038194444444  11.694010416666668 4.529947916666667  C 11.85199652777778 4.833767361111111  11.9765625 5.131510416666666  12.067708333333332 5.423177083333333  L 13.735677083333332 5.678385416666667  C 13.81467013888889 5.690538194444444  13.878472222222223 5.728515624999998  13.927083333333332 5.792317708333333  Z " fill-rule="nonzero" fill="#764ba2" stroke="none" transform="matrix(1 0 0 1 471 7777 )" />
  </g>
</svg>