<?xml version="1.0" encoding="utf-8"?>
<svg version="1.1" xmlns:xlink="http://www.w3.org/1999/xlink" width="20px" height="20px" xmlns="http://www.w3.org/2000/svg">
  <g transform="matrix(1 0 0 1 -360 -9082 )">
    <path d="M 19.28611266034579 0  C 19.434839189440417 0  19.56869306562558 0.040922619047620845  19.68767428890128 0.1227678571428581  C 19.93307306190742 0.30133928571428603  20.033463469046296 0.5394345238095233  19.9888455103179 0.8370535714285721  L 17.13329615170106 17.979910714285715  C 17.096114519427402 18.195684523809522  16.9771332961517 18.363095238095237  16.776352481873957 18.482142857142858  C 16.672243911507717 18.541666666666664  16.55698085145938 18.571428571428573  16.430563301728945 18.571428571428573  C 16.3487637107269 18.571428571428573  16.259527793270124 18.55282738095238  16.162855549358618 18.515625  L 11.109871723368656 16.450892857142854  L 8.410485220301172 19.743303571428573  C 8.276631344116007 19.914434523809522  8.09444134597509 20  7.863915225878416 20  C 7.767242981966909 20  7.685443390964863 19.985119047619047  7.6185164528722815 19.955357142857142  C 7.477226250232386 19.90327380952381  7.3638222717977335 19.815848214285715  7.278304517568321 19.693080357142858  C 7.192786763338911 19.5703125  7.150027886224205 19.43452380952381  7.150027886224205 19.285714285714285  L 7.150027886224205 15.390625  L 16.787506971556052 3.571428571428572  L 4.8633575013943116 13.895089285714286  L 0.45733407696597883 12.087053571428573  C 0.18218999814091838 11.982886904761902  0.03346346904629113 11.77827380952381  0.011154489682097046 11.473214285714286  C -0.0037181632273656827 11.175595238095237  0.11526306004833611 10.95610119047619  0.3680981595092025 10.814732142857144  L 18.929168990518683 0.10044642857142794  C 19.040713887339656 0.033482142857141906  19.15969511061536 0  19.28611266034579 0  Z " fill-rule="nonzero" fill="#764ba2" stroke="none" transform="matrix(1 0 0 1 360 9082 )" />
  </g>
</svg>