<?xml version="1.0" encoding="utf-8"?>
<svg version="1.1" xmlns:xlink="http://www.w3.org/1999/xlink" width="20px" height="20px" xmlns="http://www.w3.org/2000/svg">
  <g transform="matrix(1 0 0 1 -126 -9082 )">
    <path d="M 12.356770833333332 12.356770833333336  C 13.0078125 11.705729166666664  13.333333333333332 10.92013888888889  13.333333333333332 10  C 13.333333333333332 9.079861111111109  13.0078125 8.294270833333332  12.356770833333332 7.643229166666668  C 11.705729166666668 6.9921875  10.920138888888891 6.666666666666668  10 6.666666666666668  C 9.07986111111111 6.666666666666668  8.294270833333334 6.9921875  7.643229166666666 7.643229166666668  C 6.9921875 8.294270833333332  6.666666666666666 9.079861111111109  6.666666666666666 10  C 6.666666666666666 10.92013888888889  6.9921875 11.705729166666664  7.643229166666666 12.356770833333336  C 8.294270833333334 13.0078125  9.07986111111111 13.333333333333336  10 13.333333333333336  C 10.920138888888891 13.333333333333336  11.705729166666668 13.0078125  12.356770833333332 12.356770833333336  Z M 19.895833333333332 8.274739583333332  C 19.96527777777778 8.365885416666668  20 8.467881944444445  20 8.580729166666668  L 20 11.471354166666664  C 20 11.575520833333336  19.96527777777778 11.675347222222223  19.895833333333332 11.770833333333336  C 19.82638888888889 11.866319444444443  19.739583333333332 11.922743055555554  19.635416666666668 11.940104166666664  L 17.2265625 12.3046875  C 17.061631944444446 12.7734375  16.892361111111114 13.168402777777777  16.71875 13.489583333333336  C 17.022569444444446 13.92361111111111  17.486979166666668 14.522569444444443  18.111979166666668 15.286458333333332  C 18.19878472222222 15.390625  18.2421875 15.499131944444445  18.2421875 15.611979166666668  C 18.2421875 15.724826388888891  18.203125 15.824652777777777  18.125 15.911458333333332  C 17.890625 16.23263888888889  17.4609375 16.70138888888889  16.8359375 17.317708333333332  C 16.2109375 17.93402777777778  15.802951388888891 18.2421875  15.611979166666668 18.2421875  C 15.5078125 18.2421875  15.394965277777779 18.203125  15.2734375 18.125  L 13.4765625 16.71875  C 13.094618055555555 16.91840277777778  12.699652777777779 17.083333333333332  12.291666666666668 17.213541666666668  C 12.152777777777779 18.39409722222222  12.026909722222223 19.20138888888889  11.9140625 19.635416666666668  C 11.85329861111111 19.87847222222222  11.69704861111111 20  11.4453125 20  L 8.5546875 20  C 8.433159722222223 20  8.326822916666666 19.96310763888889  8.235677083333334 19.889322916666668  C 8.14453125 19.815538194444443  8.094618055555557 19.72222222222222  8.0859375 19.609375  L 7.721354166666666 17.213541666666668  C 7.2960069444444455 17.07465277777778  6.9053819444444455 16.9140625  6.549479166666666 16.731770833333332  L 4.713541666666667 18.125  C 4.626736111111112 18.203125  4.518229166666667 18.2421875  4.388020833333333 18.2421875  C 4.266493055555555 18.2421875  4.157986111111112 18.194444444444443  4.0625 18.098958333333332  C 2.96875 17.109375  2.2526041666666665 16.380208333333332  1.9140625 15.911458333333332  C 1.8532986111111114 15.824652777777777  1.8229166666666665 15.724826388888891  1.8229166666666665 15.611979166666668  C 1.8229166666666665 15.5078125  1.8576388888888893 15.407986111111109  1.9270833333333335 15.3125  C 2.0572916666666665 15.130208333333332  2.2786458333333335 14.84157986111111  2.591145833333333 14.446614583333336  C 2.903645833333333 14.051649305555554  3.138020833333333 13.745659722222218  3.294270833333333 13.528645833333336  C 3.059895833333333 13.094618055555554  2.8819444444444446 12.664930555555554  2.760416666666667 12.239583333333336  L 0.37760416666666663 11.888020833333336  C 0.2647569444444445 11.870659722222223  0.1736111111111111 11.81640625  0.10416666666666666 11.725260416666664  C 0.034722222222222224 11.634114583333336  0 11.532118055555554  0 11.419270833333336  L 0 8.528645833333332  C 0 8.424479166666668  0.034722222222222224 8.324652777777777  0.10416666666666666 8.229166666666668  C 0.1736111111111111 8.133680555555555  0.2560763888888889 8.077256944444445  0.3515625 8.059895833333332  L 2.7734375 7.6953125  C 2.8949652777777777 7.296006944444445  3.064236111111111 6.896701388888888  3.28125 6.497395833333332  C 2.9340277777777777 6.002604166666668  2.469618055555556 5.403645833333332  1.8880208333333335 4.700520833333332  C 1.801215277777778 4.596354166666668  1.7578125 4.4921875  1.7578125 4.388020833333332  C 1.7578125 4.301215277777777  1.796875 4.201388888888886  1.875 4.088541666666668  C 2.1006944444444446 3.7760416666666674  2.528211805555556 3.3094618055555536  3.157552083333333 2.6888020833333326  C 3.7868923611111116 2.0681423611111094  4.197048611111112 1.7578125  4.388020833333333 1.7578125  C 4.500868055555555 1.7578125  4.613715277777779 1.8012152777777768  4.7265625 1.8880208333333326  L 6.5234375 3.28125  C 6.9053819444444455 3.081597222222221  7.300347222222223 2.9166666666666674  7.708333333333334 2.7864583333333326  C 7.847222222222223 1.6059027777777768  7.973090277777778 0.7986111111111094  8.0859375 0.3645833333333326  C 8.14670138888889 0.12152777777777679  8.30295138888889 0  8.5546875 0  L 11.4453125 0  C 11.566840277777779 0  11.673177083333332 0.036892361111109384  11.764322916666668 0.1106770833333326  C 11.85546875 0.18446180555555358  11.905381944444445 0.2777777777777768  11.9140625 0.390625  L 12.278645833333332 2.7864583333333326  C 12.703993055555555 2.925347222222221  13.094618055555555 3.0859375  13.450520833333332 3.2682291666666674  L 15.299479166666668 1.875  C 15.377604166666668 1.796875  15.481770833333332 1.7578125  15.611979166666668 1.7578125  C 15.724826388888891 1.7578125  15.833333333333332 1.8012152777777768  15.9375 1.8880208333333326  C 17.057291666666668 2.921006944444444  17.7734375 3.6588541666666674  18.0859375 4.1015625  C 18.14670138888889 4.171006944444445  18.177083333333332 4.266493055555554  18.177083333333332 4.388020833333332  C 18.177083333333332 4.4921875  18.142361111111114 4.592013888888886  18.072916666666668 4.6875  C 17.942708333333332 4.869791666666668  17.721354166666668 5.158420138888886  17.408854166666668 5.553385416666668  C 17.096354166666668 5.948350694444445  16.861979166666668 6.254340277777777  16.705729166666668 6.471354166666668  C 16.931423611111114 6.905381944444445  17.109375 7.330729166666665  17.239583333333332 7.747395833333332  L 19.622395833333332 8.111979166666668  C 19.735243055555557 8.129340277777777  19.82638888888889 8.183593749999998  19.895833333333332 8.274739583333332  Z " fill-rule="nonzero" fill="#764ba2" stroke="none" transform="matrix(1 0 0 1 126 9082 )" />
  </g>
</svg>