<?xml version="1.0" encoding="utf-8"?>
<svg version="1.1" xmlns:xlink="http://www.w3.org/1999/xlink" width="20px" height="17px" xmlns="http://www.w3.org/2000/svg">
  <g transform="matrix(1 0 0 1 -109 -200 )">
    <path d="M 6.724330357142857 6.081705729166667  C 7.0033482142857135 6.3583984375  7.142857142857143 6.692274305555555  7.142857142857143 7.083333333333333  C 7.142857142857143 7.474392361111111  7.0033482142857135 7.808268229166667  6.724330357142857 8.0849609375  C 6.4453125 8.361653645833332  6.1086309523809526 8.5  5.7142857142857135 8.5  C 5.319940476190476 8.5  4.983258928571429 8.361653645833332  4.704241071428571 8.0849609375  C 4.425223214285714 7.808268229166667  4.285714285714286 7.474392361111111  4.285714285714286 7.083333333333333  C 4.285714285714286 6.692274305555555  4.425223214285714 6.3583984375  4.704241071428571 6.081705729166667  C 4.983258928571429 5.805013020833333  5.319940476190476 5.666666666666667  5.7142857142857135 5.666666666666667  C 6.1086309523809526 5.666666666666667  6.4453125 5.805013020833333  6.724330357142857 6.081705729166667  Z M 11.010044642857142 6.081705729166667  C 11.2890625 6.3583984375  11.428571428571427 6.692274305555555  11.428571428571427 7.083333333333333  C 11.428571428571427 7.474392361111111  11.2890625 7.808268229166667  11.010044642857142 8.0849609375  C 10.731026785714286 8.361653645833332  10.394345238095239 8.5  10 8.5  C 9.605654761904763 8.5  9.268973214285715 8.361653645833332  8.989955357142858 8.0849609375  C 8.7109375 7.808268229166667  8.571428571428571 7.474392361111111  8.571428571428571 7.083333333333333  C 8.571428571428571 6.692274305555555  8.7109375 6.3583984375  8.989955357142858 6.081705729166667  C 9.268973214285715 5.805013020833333  9.605654761904763 5.666666666666667  10 5.666666666666667  C 10.394345238095239 5.666666666666667  10.731026785714286 5.805013020833333  11.010044642857142 6.081705729166667  Z M 15.295758928571427 6.081705729166667  C 15.574776785714286 6.3583984375  15.714285714285714 6.692274305555555  15.714285714285714 7.083333333333333  C 15.714285714285714 7.474392361111111  15.574776785714286 7.808268229166667  15.295758928571427 8.0849609375  C 15.016741071428573 8.361653645833332  14.680059523809526 8.5  14.285714285714286 8.5  C 13.89136904761905 8.5  13.5546875 8.361653645833332  13.275669642857142 8.0849609375  C 12.996651785714286 7.808268229166667  12.857142857142858 7.474392361111111  12.857142857142858 7.083333333333333  C 12.857142857142858 6.692274305555555  12.996651785714286 6.3583984375  13.275669642857142 6.081705729166667  C 13.5546875 5.805013020833333  13.89136904761905 5.666666666666667  14.285714285714286 5.666666666666667  C 14.680059523809526 5.666666666666667  15.016741071428573 5.805013020833333  15.295758928571427 6.081705729166667  Z M 14.2578125 2.1858723958333326  C 12.937127976190476 1.673068576388888  11.517857142857142 1.4166666666666674  10 1.4166666666666674  C 8.482142857142858 1.4166666666666674  7.062872023809525 1.673068576388888  5.7421875 2.1858723958333326  C 4.421502976190476 2.6986762152777777  3.372395833333334 3.3904079861111103  2.5948660714285716 4.261067708333333  C 1.8173363095238095 5.131727430555554  1.4285714285714284 6.0724826388888875  1.4285714285714284 7.083333333333333  C 1.4285714285714284 7.909722222222222  1.6945684523809526 8.697374131944445  2.2265625 9.4462890625  C 2.7585565476190474 10.195203993055555  3.5081845238095246 10.842664930555555  4.475446428571429 11.388671875  L 5.446428571428571 11.942057291666666  L 5.1450892857142865 13.004557291666668  C 4.966517857142857 13.67599826388889  4.706101190476191 14.310546875  4.363839285714286 14.908203125  C 5.494791666666668 14.443359375  6.517857142857143 13.8125  7.4330357142857135 13.015625  L 7.912946428571429 12.595052083333334  L 8.549107142857142 12.661458333333334  C 9.0625 12.72048611111111  9.546130952380953 12.75  10 12.75  C 11.517857142857142 12.75  12.937127976190476 12.493598090277775  14.2578125 11.980794270833334  C 15.578497023809526 11.467990451388886  16.627604166666668 10.776258680555555  17.405133928571427 9.905598958333334  C 18.18266369047619 9.03493923611111  18.571428571428573 8.094184027777777  18.571428571428573 7.083333333333333  C 18.571428571428573 6.0724826388888875  18.18266369047619 5.131727430555554  17.405133928571427 4.261067708333333  C 16.627604166666668 3.3904079861111103  15.578497023809526 2.6986762152777777  14.2578125 2.1858723958333326  Z M 19.207589285714285 4.3330078125  C 19.7358630952381 5.207356770833333  20 6.124131944444443  20 7.083333333333333  C 20 8.3671875  19.553571428571427 9.553276909722221  18.660714285714285 10.6416015625  C 17.767857142857142 11.729926215277775  16.555059523809526 12.589518229166666  15.022321428571427 13.220377604166668  C 13.489583333333336 13.851236979166668  11.81547619047619 14.166666666666668  10 14.166666666666668  C 9.479166666666668 14.166666666666668  8.939732142857142 14.137152777777777  8.381696428571429 14.078125  C 6.908482142857143 15.36935763888889  5.1971726190476195 16.26215277777778  3.2477678571428568 16.756510416666668  C 2.8831845238095246 16.85980902777778  2.459077380952381 16.94097222222222  1.9754464285714284 17  L 1.9196428571428572 17  C 1.8080357142857142 17  1.7075892857142858 16.961263020833332  1.6183035714285716 16.8837890625  C 1.5290178571428572 16.806315104166668  1.469494047619048 16.70486111111111  1.4397321428571428 16.579427083333332  L 1.4397321428571428 16.568359375  C 1.4174107142857144 16.53884548611111  1.4155505952380953 16.49457465277778  1.4341517857142858 16.435546875  C 1.4527529761904765 16.37651909722222  1.4601934523809526 16.33962673611111  1.4564732142857142 16.324869791666668  C 1.4527529761904765 16.31011284722222  1.469494047619048 16.275065104166668  1.5066964285714284 16.2197265625  L 1.5736607142857142 16.1201171875  C 1.5736607142857142 16.1201171875  1.5997023809523812 16.088758680555557  1.6517857142857142 16.026041666666668  C 1.703869047619048 15.963324652777777  1.7336309523809526 15.930121527777777  1.7410714285714284 15.926432291666668  C 1.7931547619047623 15.86740451388889  1.9084821428571428 15.740125868055557  2.0870535714285716 15.544596354166668  C 2.265625 15.349066840277777  2.3939732142857144 15.208875868055557  2.4720982142857144 15.1240234375  C 2.5502232142857144 15.039171006944443  2.6655505952380953 14.893446180555557  2.8180803571428568 14.686848958333332  C 2.970610119047619 14.48025173611111  3.0915178571428568 14.292100694444443  3.1808035714285716 14.122395833333332  C 3.2700892857142856 13.952690972222223  3.3705357142857144 13.735026041666668  3.4821428571428568 13.469401041666668  C 3.59375 13.203776041666668  3.6904761904761907 12.923394097222223  3.7723214285714284 12.628255208333334  C 2.604166666666667 11.971571180555555  1.6834077380952381 11.15993923611111  1.0100446428571428 10.193359375  C 0.3366815476190476 9.226779513888886  0 8.190104166666668  0 7.083333333333333  C 0 6.124131944444443  0.2641369047619047 5.207356770833333  0.7924107142857142 4.3330078125  C 1.3206845238095237 3.4586588541666674  2.03125 2.704210069444443  2.9241071428571432 2.0696614583333326  C 3.8169642857142856 1.4351128472222205  4.880952380952381 0.9315321180555532  6.116071428571429 0.5589192708333327  C 7.351190476190476 0.18630642361111027  8.645833333333334 0  10 0  C 11.354166666666668 0  12.648809523809526 0.18630642361111027  13.883928571428573 0.5589192708333327  C 15.11904761904762 0.9315321180555532  16.183035714285715 1.4351128472222205  17.075892857142858 2.0696614583333326  C 17.968750000000004 2.704210069444443  18.679315476190478 3.4586588541666674  19.207589285714285 4.3330078125  Z " fill-rule="nonzero" fill="#764ba2" stroke="none" transform="matrix(1 0 0 1 109 200 )" />
  </g>
</svg>