<?xml version="1.0" encoding="utf-8"?>
<svg version="1.1" xmlns:xlink="http://www.w3.org/1999/xlink" width="20px" height="17px" xmlns="http://www.w3.org/2000/svg">
  <g transform="matrix(1 0 0 1 -16 -200 )">
    <path d="M 10.491071428571427 16.80078125  C 10.357142857142858 16.93359375  10.193452380952381 17  10 17  C 9.80654761904762 17  9.642857142857144 16.93359375  9.508928571428571 16.80078125  L 2.5446428571428568 10.138020833333334  C 2.4702380952380953 10.078993055555555  2.367931547619048 9.983072916666666  2.2377232142857144 9.850260416666666  C 2.107514880952381 9.717447916666666  1.901041666666667 9.47580295138889  1.6183035714285716 9.125325520833334  C 1.3355654761904763 8.774848090277775  1.0825892857142858 8.415147569444443  0.859375 8.046223958333332  C 0.6361607142857142 7.677300347222222  0.4371279761904762 7.230902777777778  0.2622767857142857 6.70703125  C 0.08742559523809523 6.1831597222222205  0 5.6740451388888875  0 5.1796875  C 0 3.5564236111111103  0.472470238095238 2.287326388888888  1.4174107142857142 1.3723958333333326  C 2.3623511904761907 0.45746527777777757  3.668154761904762 0  5.334821428571429 0  C 5.7961309523809526 0  6.266741071428571 0.07931857638888784  6.7466517857142865 0.2379557291666673  C 7.2265625 0.396592881944443  7.672991071428571 0.6105685763888878  8.0859375 0.8798828125  C 8.49888392857143 1.1491970486111103  8.854166666666668 1.4019097222222205  9.151785714285714 1.6380208333333326  C 9.449404761904763 1.8741319444444429  9.732142857142858 2.125  10 2.390625  C 10.267857142857142 2.125  10.550595238095239 1.8741319444444429  10.848214285714286 1.6380208333333326  C 11.145833333333336 1.4019097222222205  11.501116071428573 1.1491970486111103  11.9140625 0.8798828125  C 12.327008928571427 0.6105685763888878  12.7734375 0.396592881944443  13.253348214285714 0.2379557291666673  C 13.733258928571427 0.07931857638888784  14.20386904761905 0  14.665178571428573 0  C 16.33184523809524 0  17.63764880952381 0.45746527777777757  18.582589285714285 1.3723958333333326  C 19.527529761904763 2.287326388888888  20 3.5564236111111103  20 5.1796875  C 20 6.810329861111111  19.148065476190478 8.47048611111111  17.444196428571427 10.16015625  L 10.491071428571427 16.80078125  Z " fill-rule="nonzero" fill="#d9001b" stroke="none" transform="matrix(1 0 0 1 16 200 )" />
  </g>
</svg>