<?xml version="1.0" encoding="utf-8"?>
<svg version="1.1" xmlns:xlink="http://www.w3.org/1999/xlink" width="12px" height="10px" xmlns="http://www.w3.org/2000/svg">
  <g transform="matrix(1 0 0 1 -11 -138 )">
    <path d="M 6.294642857142857 9.8828125  C 6.214285714285715 9.9609375  6.116071428571429 10  6 10  C 5.883928571428572 10  5.7857142857142865 9.9609375  5.705357142857142 9.8828125  L 1.5267857142857142 5.963541666666668  C 1.4821428571428572 5.928819444444445  1.4207589285714288 5.872395833333332  1.3426339285714286 5.794270833333332  C 1.2645089285714286 5.716145833333332  1.140625 5.574001736111112  0.9709821428571429 5.367838541666668  C 0.8013392857142857 5.161675347222221  0.6495535714285714 4.9500868055555545  0.515625 4.733072916666666  C 0.38169642857142855 4.516059027777778  0.26227678571428575 4.253472222222222  0.15736607142857142 3.9453125  C 0.052455357142857144 3.637152777777777  0 3.3376736111111107  0 3.046875  C 0 2.0920138888888884  0.2834821428571428 1.3454861111111105  0.8504464285714286 0.8072916666666663  C 1.4174107142857144 0.2690972222222221  2.2008928571428568 0  3.2008928571428577 0  C 3.477678571428571 0  3.7600446428571423 0.046657986111110494  4.047991071428571 0.1399739583333337  C 4.3359375 0.2332899305555547  4.603794642857142 0.3591579861111105  4.8515625 0.517578125  C 5.099330357142858 0.6759982638888884  5.312500000000001 0.8246527777777768  5.491071428571429 0.9635416666666663  C 5.669642857142858 1.1024305555555547  5.839285714285714 1.25  6 1.40625  C 6.160714285714285 1.25  6.330357142857144 1.1024305555555547  6.508928571428571 0.9635416666666663  C 6.687500000000001 0.8246527777777768  6.900669642857143 0.6759982638888884  7.1484375 0.517578125  C 7.396205357142857 0.3591579861111105  7.6640625 0.2332899305555547  7.952008928571429 0.1399739583333337  C 8.239955357142858 0.046657986111110494  8.522321428571429 0  8.799107142857142 0  C 9.799107142857144 0  10.582589285714286 0.2690972222222221  11.149553571428571 0.8072916666666663  C 11.716517857142858 1.3454861111111105  12 2.0920138888888884  12 3.046875  C 12 4.006076388888888  11.488839285714286 4.982638888888888  10.466517857142858 5.9765625  L 6.294642857142857 9.8828125  Z " fill-rule="nonzero" fill="#d9001b" stroke="none" transform="matrix(1 0 0 1 11 138 )" />
  </g>
</svg>