<?xml version="1.0" encoding="utf-8"?>
<svg version="1.1" xmlns:xlink="http://www.w3.org/1999/xlink" width="14px" height="17px" xmlns="http://www.w3.org/2000/svg">
  <g transform="matrix(1 0 0 1 -242 -200 )">
    <path d="M 12.6 15.393258426966293  L 12.6 1.4382022471910116  L 1.4000000000000001 1.4382022471910116  L 1.4000000000000001 15.393258426966293  L 6.0265625 10.831460674157304  L 7 9.87640449438202  L 7.973437500000001 10.831460674157304  L 12.6 15.393258426966293  Z M 1.26875 0  L 12.731250000000001 0  C 12.898958333333335 0  13.059375000000001 0.03370786516853963  13.2125 0.10112359550561889  C 13.453125 0.19850187265917363  13.64453125 0.35205992509363215  13.78671875 0.5617977528089888  C 13.928906249999999 0.7715355805243436  14 1.0037453183520588  14 1.2584269662921344  L 14 15.741573033707866  C 14 15.996254681647942  13.928906249999999 16.228464419475653  13.78671875 16.43820224719101  C 13.64453125 16.64794007490637  13.453125 16.80149812734082  13.2125 16.89887640449438  C 13.073958333333335 16.95880149812734  12.913541666666667 16.98876404494382  12.731250000000001 16.98876404494382  C 12.38125 16.98876404494382  12.078645833333335 16.868913857677903  11.823437499999999 16.629213483146067  L 7 11.865168539325841  L 2.1765624999999997 16.629213483146067  C 1.9140625 16.876404494382022  1.6114583333333334 17  1.26875 17  C 1.1010416666666667 17  0.9406249999999999 16.96629213483146  0.7875 16.89887640449438  C 0.546875 16.80149812734082  0.35546875 16.64794007490637  0.21328125 16.43820224719101  C 0.07109375 16.228464419475653  0 15.996254681647942  0 15.741573033707866  L 0 1.2584269662921344  C 0 1.0037453183520588  0.07109375 0.7715355805243436  0.21328125 0.5617977528089888  C 0.35546875 0.35205992509363215  0.546875 0.19850187265917363  0.7875 0.10112359550561889  C 0.9406249999999999 0.03370786516853963  1.1010416666666667 0  1.26875 0  Z " fill-rule="nonzero" fill="#764ba2" stroke="none" transform="matrix(1 0 0 1 242 200 )" />
  </g>
</svg>