<?xml version="1.0" encoding="utf-8"?>
<svg version="1.1" xmlns:xlink="http://www.w3.org/1999/xlink" width="11px" height="13px" xmlns="http://www.w3.org/2000/svg">
  <g transform="matrix(1 0 0 1 -190 -136 )">
    <path d="M 10 11.771315267680105  L 10 1.0998017184401854  L 1.1 1.0998017184401854  L 1.1 11.771315267680105  L 4.73515625 8.282881692002645  L 5.5 7.552544613350957  L 6.264843750000001 8.282881692002645  L 10 11.771315267680105  Z M 0.996875 0  L 10.003125 0  C 10.134895833333335 0  10.2609375 0.02577660277594207  10.38125 0.07732980832782621  C 10.5703125 0.15179554968054454  10.720703125 0.26922229565983635  10.832421875 0.4296100462656973  C 10.944140625 0.5899977968715568  11 0.7675699493280449  11 0.9623265036351615  L 11 12.037673496364839  C 11 12.232430050671955  10.944140625 12.410002203128442  10.832421875 12.570389953734303  C 10.720703125 12.730777704340163  10.5703125 12.848204450319452  10.38125 12.922670191672173  C 10.272395833333334 12.968495263273848  10.146354166666667 12.991407799074686  10.003125 12.991407799074686  C 9.728125 12.991407799074686  9.490364583333335 12.899757655871337  9.28984375 12.71645736946464  L 5.5 9.073364177131527  L 1.7101562499999998 12.71645736946464  C 1.50390625 12.905485789821547  1.2661458333333333 13  0.996875 13  C 0.8651041666666667 13  0.7390625 12.974223397224058  0.61875 12.922670191672173  C 0.4296875 12.848204450319452  0.279296875 12.730777704340163  0.167578125 12.570389953734303  C 0.055859375 12.410002203128442  0 12.232430050671955  0 12.037673496364839  L 0 0.9623265036351615  C 0 0.7675699493280449  0.055859375 0.5899977968715568  0.167578125 0.4296100462656973  C 0.279296875 0.26922229565983635  0.4296875 0.15179554968054454  0.61875 0.07732980832782621  C 0.7390625 0.02577660277594207  0.8651041666666667 0  0.996875 0  Z " fill-rule="nonzero" fill="#764ba2" stroke="none" transform="matrix(1 0 0 1 190 136 )" />
  </g>
</svg>