<?xml version="1.0" encoding="utf-8"?>
<svg version="1.1" xmlns:xlink="http://www.w3.org/1999/xlink" width="15px" height="13px" xmlns="http://www.w3.org/2000/svg">
  <g transform="matrix(1 0 0 1 -78 -136 )">
    <path d="M 5.043247767857142 4.650716145833334  C 5.252511160714286 4.8623046875  5.357142857142858 5.117621527777778  5.357142857142858 5.416666666666666  C 5.357142857142858 5.715711805555555  5.252511160714286 5.971028645833334  5.043247767857142 6.1826171875  C 4.833984375 6.394205729166666  4.581473214285714 6.5  4.285714285714286 6.5  C 3.9899553571428577 6.5  3.7374441964285716 6.394205729166666  3.528180803571429 6.1826171875  C 3.318917410714286 5.971028645833334  3.214285714285714 5.715711805555555  3.214285714285714 5.416666666666666  C 3.214285714285714 5.117621527777778  3.318917410714286 4.8623046875  3.528180803571429 4.650716145833334  C 3.7374441964285716 4.439127604166666  3.9899553571428577 4.333333333333334  4.285714285714286 4.333333333333334  C 4.581473214285714 4.333333333333334  4.833984375 4.439127604166666  5.043247767857142 4.650716145833334  Z M 8.257533482142856 4.650716145833334  C 8.466796875 4.8623046875  8.571428571428571 5.117621527777778  8.571428571428571 5.416666666666666  C 8.571428571428571 5.715711805555555  8.466796875 5.971028645833334  8.257533482142856 6.1826171875  C 8.048270089285715 6.394205729166666  7.79575892857143 6.5  7.5 6.5  C 7.204241071428572 6.5  6.9517299107142865 6.394205729166666  6.742466517857142 6.1826171875  C 6.533203125 5.971028645833334  6.428571428571428 5.715711805555555  6.428571428571428 5.416666666666666  C 6.428571428571428 5.117621527777778  6.533203125 4.8623046875  6.742466517857142 4.650716145833334  C 6.9517299107142865 4.439127604166666  7.204241071428572 4.333333333333334  7.5 4.333333333333334  C 7.79575892857143 4.333333333333334  8.048270089285715 4.439127604166666  8.257533482142856 4.650716145833334  Z M 11.471819196428571 4.650716145833334  C 11.681082589285715 4.8623046875  11.785714285714285 5.117621527777778  11.785714285714285 5.416666666666666  C 11.785714285714285 5.715711805555555  11.681082589285715 5.971028645833334  11.471819196428571 6.1826171875  C 11.262555803571429 6.394205729166666  11.010044642857144 6.5  10.714285714285715 6.5  C 10.418526785714286 6.5  10.166015625 6.394205729166666  9.956752232142856 6.1826171875  C 9.747488839285715 5.971028645833334  9.642857142857144 5.715711805555555  9.642857142857144 5.416666666666666  C 9.642857142857144 5.117621527777778  9.747488839285715 4.8623046875  9.956752232142856 4.650716145833334  C 10.166015625 4.439127604166666  10.418526785714286 4.333333333333334  10.714285714285715 4.333333333333334  C 11.010044642857144 4.333333333333334  11.262555803571429 4.439127604166666  11.471819196428571 4.650716145833334  Z M 10.693359375 1.671549479166666  C 9.702845982142858 1.2794053819444438  8.638392857142856 1.083333333333334  7.5 1.083333333333334  C 6.361607142857142 1.083333333333334  5.297154017857143 1.2794053819444438  4.306640625 1.671549479166666  C 3.316127232142857 2.063693576388889  2.5292968750000004 2.592664930555555  1.9461495535714286 3.258463541666666  C 1.3630022321428572 3.924262152777776  1.0714285714285714 4.643663194444444  1.0714285714285714 5.416666666666666  C 1.0714285714285714 6.048611111111112  1.2709263392857144 6.650933159722222  1.669921875 7.2236328125  C 2.0689174107142856 7.796332465277778  2.6311383928571432 8.291449652777777  3.356584821428571 8.708984375  L 4.084821428571428 9.132161458333332  L 3.8588169642857144 9.944661458333334  C 3.724888392857143 10.458116319444445  3.5295758928571432 10.943359375  3.272879464285714 11.400390625  C 4.121093750000001 11.044921875  4.888392857142858 10.5625  5.574776785714286 9.953125  L 5.934709821428572 9.631510416666668  L 6.411830357142858 9.682291666666668  C 6.796875 9.727430555555555  7.159598214285714 9.75  7.5 9.75  C 8.638392857142856 9.75  9.702845982142858 9.553927951388888  10.693359375 9.161783854166668  C 11.683872767857144 8.769639756944443  12.470703125 8.240668402777777  13.053850446428571 7.574869791666668  C 13.636997767857142 6.909071180555555  13.928571428571429 6.189670138888888  13.928571428571429 5.416666666666666  C 13.928571428571429 4.643663194444444  13.636997767857142 3.924262152777776  13.053850446428571 3.258463541666666  C 12.470703125 2.592664930555555  11.683872767857144 2.063693576388889  10.693359375 1.671549479166666  Z M 14.405691964285715 3.3134765625  C 14.801897321428573 3.982096354166666  15 4.683159722222221  15 5.416666666666666  C 15 6.3984375  14.665178571428571 7.30544704861111  13.995535714285715 8.1376953125  C 13.325892857142856 8.969943576388888  12.416294642857144 9.627278645833332  11.266741071428571 10.109700520833334  C 10.117187500000002 10.592122395833334  8.861607142857142 10.833333333333334  7.5 10.833333333333334  C 7.109375000000001 10.833333333333334  6.704799107142858 10.81076388888889  6.286272321428572 10.765625  C 5.181361607142858 11.753038194444445  3.897879464285715 12.43576388888889  2.435825892857143 12.813802083333334  C 2.1623883928571432 12.89279513888889  1.8443080357142858 12.95486111111111  1.4815848214285714 13  L 1.439732142857143 13  C 1.3560267857142856 13  1.2806919642857144 12.970377604166666  1.2137276785714286 12.9111328125  C 1.146763392857143 12.851888020833334  1.102120535714286 12.774305555555555  1.079799107142857 12.678385416666666  L 1.079799107142857 12.669921875  C 1.0630580357142858 12.647352430555557  1.0616629464285716 12.61349826388889  1.0756138392857144 12.568359375  C 1.0895647321428574 12.52322048611111  1.0951450892857144 12.495008680555555  1.0923549107142856 12.483723958333334  C 1.0895647321428574 12.47243923611111  1.102120535714286 12.445638020833334  1.1300223214285714 12.4033203125  L 1.1802455357142856 12.3271484375  C 1.1802455357142856 12.3271484375  1.1997767857142858 12.303168402777779  1.2388392857142856 12.255208333333334  C 1.277901785714286 12.20724826388889  1.3002232142857144 12.18185763888889  1.3058035714285714 12.179036458333334  C 1.3448660714285716 12.133897569444445  1.431361607142857 12.036566840277779  1.5652901785714286 11.887044270833334  C 1.69921875 11.73752170138889  1.7954799107142856 11.630316840277779  1.8540736607142856 11.5654296875  C 1.9126674107142858 11.500542534722221  1.9991629464285716 11.389105902777779  2.113560267857143 11.231119791666666  C 2.2279575892857144 11.073133680555555  2.318638392857143 10.929253472222221  2.385602678571429 10.799479166666666  C 2.452566964285714 10.66970486111111  2.527901785714286 10.503255208333334  2.611607142857143 10.300130208333334  C 2.6953125 10.097005208333334  2.7678571428571432 9.88259548611111  2.829241071428571 9.656901041666668  C 1.9531250000000002 9.154730902777777  1.2625558035714286 8.534071180555555  0.7575334821428572 7.794921875  C 0.2525111607142857 7.055772569444442  0 6.263020833333334  0 5.416666666666666  C 0 4.683159722222221  0.19810267857142855 3.982096354166666  0.5943080357142857 3.3134765625  C 0.9905133928571429 2.644856770833334  1.5234375 2.067925347222221  2.193080357142857 1.582682291666666  C 2.862723214285714 1.0974392361111098  3.660714285714286 0.712348090277776  4.587053571428572 0.4274088541666662  C 5.513392857142858 0.14246961805555491  6.484375 0  7.5 0  C 8.515625 0  9.486607142857144 0.14246961805555491  10.412946428571429 0.4274088541666662  C 11.339285714285715 0.712348090277776  12.137276785714285 1.0974392361111098  12.806919642857144 1.582682291666666  C 13.476562500000002 2.067925347222221  14.00948660714286 2.644856770833334  14.405691964285715 3.3134765625  Z " fill-rule="nonzero" fill="#764ba2" stroke="none" transform="matrix(1 0 0 1 78 136 )" />
  </g>
</svg>