<?xml version="1.0" encoding="utf-8"?>
<svg version="1.1" xmlns:xlink="http://www.w3.org/1999/xlink" width="20px" height="24px" xmlns="http://www.w3.org/2000/svg">
  <defs>
    <mask fill="white" id="clip46">
      <path d="M 19.8671875 17.3515625  C 19.955729166666668 18.138020833333332  20 18.973958333333332  20 19.859375  C 20 20.994791666666668  19.674479166666668 21.96875  19.0234375 22.78125  C 18.372395833333336 23.59375  17.588541666666668 24  16.671875 24  L 3.328125 24  C 2.4114583333333335 24  1.627604166666667 23.59375  0.9765625000000001 22.78125  C 0.3255208333333334 21.96875  0 20.994791666666668  0 19.859375  C 0 18.973958333333332  0.04427083333333344 18.138020833333332  0.1328125000000001 17.3515625  C 0.2213541666666668 16.565104166666664  0.38541666666666674 15.7734375  0.6250000000000001 14.9765625  C 0.8645833333333336 14.1796875  1.1692708333333335 13.497395833333334  1.5390625 12.929687500000002  C 1.908854166666667 12.361979166666664  2.3984375 11.8984375  3.0078125 11.5390625  C 3.6171875 11.1796875  4.317708333333334 11  5.109375 11  C 6.473958333333334 12.333333333333332  8.104166666666668 13.000000000000002  10 13.000000000000002  C 11.895833333333336 13.000000000000002  13.526041666666668 12.333333333333332  14.890625 11  C 15.682291666666668 11  16.3828125 11.1796875  16.9921875 11.5390625  C 17.6015625 11.8984375  18.091145833333336 12.361979166666664  18.4609375 12.929687500000002  C 18.830729166666668 13.497395833333334  19.135416666666668 14.1796875  19.375 14.9765625  C 19.614583333333336 15.7734375  19.778645833333336 16.565104166666664  19.8671875 17.3515625  Z M 14.2421875 1.7578125  C 15.4140625 2.9296875  16 4.343750000000001  16 6  C 16 7.656249999999999  15.4140625 9.0703125  14.2421875 10.2421875  C 13.0703125 11.4140625  11.65625 12  10 12  C 8.34375 12  6.9296875 11.4140625  5.7578125 10.2421875  C 4.5859375 9.0703125  4 7.656249999999999  4 6  C 4 4.343750000000001  4.5859375 2.9296875  5.7578125 1.7578125  C 6.9296875 0.5859375  8.34375 0  10 0  C 11.65625 0  13.0703125 0.5859375  14.2421875 1.7578125  Z " fill-rule="evenodd" />
    </mask>
  </defs>
  <g transform="matrix(1 0 0 1 -366 -9493 )">
    <path d="M 19.8671875 17.3515625  C 19.955729166666668 18.138020833333332  20 18.973958333333332  20 19.859375  C 20 20.994791666666668  19.674479166666668 21.96875  19.0234375 22.78125  C 18.372395833333336 23.59375  17.588541666666668 24  16.671875 24  L 3.328125 24  C 2.4114583333333335 24  1.627604166666667 23.59375  0.9765625000000001 22.78125  C 0.3255208333333334 21.96875  0 20.994791666666668  0 19.859375  C 0 18.973958333333332  0.04427083333333344 18.138020833333332  0.1328125000000001 17.3515625  C 0.2213541666666668 16.565104166666664  0.38541666666666674 15.7734375  0.6250000000000001 14.9765625  C 0.8645833333333336 14.1796875  1.1692708333333335 13.497395833333334  1.5390625 12.929687500000002  C 1.908854166666667 12.361979166666664  2.3984375 11.8984375  3.0078125 11.5390625  C 3.6171875 11.1796875  4.317708333333334 11  5.109375 11  C 6.473958333333334 12.333333333333332  8.104166666666668 13.000000000000002  10 13.000000000000002  C 11.895833333333336 13.000000000000002  13.526041666666668 12.333333333333332  14.890625 11  C 15.682291666666668 11  16.3828125 11.1796875  16.9921875 11.5390625  C 17.6015625 11.8984375  18.091145833333336 12.361979166666664  18.4609375 12.929687500000002  C 18.830729166666668 13.497395833333334  19.135416666666668 14.1796875  19.375 14.9765625  C 19.614583333333336 15.7734375  19.778645833333336 16.565104166666664  19.8671875 17.3515625  Z M 14.2421875 1.7578125  C 15.4140625 2.9296875  16 4.343750000000001  16 6  C 16 7.656249999999999  15.4140625 9.0703125  14.2421875 10.2421875  C 13.0703125 11.4140625  11.65625 12  10 12  C 8.34375 12  6.9296875 11.4140625  5.7578125 10.2421875  C 4.5859375 9.0703125  4 7.656249999999999  4 6  C 4 4.343750000000001  4.5859375 2.9296875  5.7578125 1.7578125  C 6.9296875 0.5859375  8.34375 0  10 0  C 11.65625 0  13.0703125 0.5859375  14.2421875 1.7578125  Z " fill-rule="nonzero" fill="#ffffff" stroke="none" fill-opacity="0" transform="matrix(1 0 0 1 366 9493 )" />
    <path d="M 19.8671875 17.3515625  C 19.955729166666668 18.138020833333332  20 18.973958333333332  20 19.859375  C 20 20.994791666666668  19.674479166666668 21.96875  19.0234375 22.78125  C 18.372395833333336 23.59375  17.588541666666668 24  16.671875 24  L 3.328125 24  C 2.4114583333333335 24  1.627604166666667 23.59375  0.9765625000000001 22.78125  C 0.3255208333333334 21.96875  0 20.994791666666668  0 19.859375  C 0 18.973958333333332  0.04427083333333344 18.138020833333332  0.1328125000000001 17.3515625  C 0.2213541666666668 16.565104166666664  0.38541666666666674 15.7734375  0.6250000000000001 14.9765625  C 0.8645833333333336 14.1796875  1.1692708333333335 13.497395833333334  1.5390625 12.929687500000002  C 1.908854166666667 12.361979166666664  2.3984375 11.8984375  3.0078125 11.5390625  C 3.6171875 11.1796875  4.317708333333334 11  5.109375 11  C 6.473958333333334 12.333333333333332  8.104166666666668 13.000000000000002  10 13.000000000000002  C 11.895833333333336 13.000000000000002  13.526041666666668 12.333333333333332  14.890625 11  C 15.682291666666668 11  16.3828125 11.1796875  16.9921875 11.5390625  C 17.6015625 11.8984375  18.091145833333336 12.361979166666664  18.4609375 12.929687500000002  C 18.830729166666668 13.497395833333334  19.135416666666668 14.1796875  19.375 14.9765625  C 19.614583333333336 15.7734375  19.778645833333336 16.565104166666664  19.8671875 17.3515625  Z " stroke-width="2" stroke="#ffffff" fill="none" transform="matrix(1 0 0 1 366 9493 )" mask="url(#clip46)" />
    <path d="M 14.2421875 1.7578125  C 15.4140625 2.9296875  16 4.343750000000001  16 6  C 16 7.656249999999999  15.4140625 9.0703125  14.2421875 10.2421875  C 13.0703125 11.4140625  11.65625 12  10 12  C 8.34375 12  6.9296875 11.4140625  5.7578125 10.2421875  C 4.5859375 9.0703125  4 7.656249999999999  4 6  C 4 4.343750000000001  4.5859375 2.9296875  5.7578125 1.7578125  C 6.9296875 0.5859375  8.34375 0  10 0  C 11.65625 0  13.0703125 0.5859375  14.2421875 1.7578125  Z " stroke-width="2" stroke="#ffffff" fill="none" transform="matrix(1 0 0 1 366 9493 )" mask="url(#clip46)" />
  </g>
</svg>