<?xml version="1.0" encoding="utf-8"?>
<svg version="1.1" xmlns:xlink="http://www.w3.org/1999/xlink" width="30px" height="24px" xmlns="http://www.w3.org/2000/svg">
  <g transform="matrix(1 0 0 1 -121 -9493 )">
    <path d="M 25.687732342007436 13.7116134060795  C 25.700123915737297 13.736554949337489  25.706319702602233 13.773967264224474  25.706319702602233 13.823850350740452  L 25.706319702602233 22.802805923616525  C 25.706319702602233 23.12704598597038  25.588599752168527 23.407638347622758  25.353159851301115 23.644583008573655  C 25.11771995043371 23.88152766952455  24.838909541511775 24  24.516728624535315 24  L 17.37918215613383 24  L 17.37918215613383 16.81683554169914  L 12.62081784386617 16.81683554169914  L 12.62081784386617 24  L 5.483271375464684 24  C 5.1610904584882284 24  4.882280049566296 23.88152766952455  4.646840148698884 23.644583008573655  C 4.411400247831475 23.407638347622758  4.293680297397769 23.12704598597038  4.293680297397769 22.802805923616525  L 4.293680297397769 13.823850350740452  C 4.293680297397769 13.811379579111456  4.296778190830236 13.792673421667965  4.302973977695167 13.767731878409975  C 4.3091697645600995 13.742790335151987  4.312267657992566 13.724084177708496  4.312267657992566 13.7116134060795  L 15 4.84489477786438  L 25.687732342007436 13.7116134060795  Z M 29.981412639405203 12.09353078721746  C 29.99380421313507 12.261886204208885  29.95043370508055 12.40841777084957  29.851301115241633 12.533125487139518  L 28.69888475836431 13.917381137957912  C 28.599752168525406 14.029618082618864  28.469640644361835 14.098207326578333  28.308550185873607 14.12314886983632  L 28.25278810408922 14.12314886983632  C 28.09169764560099 14.12314886983632  27.961586121437428 14.07950116913484  27.86245353159851 13.992205767731877  L 15 3.1987529228371008  L 2.137546468401487 13.992205767731877  C 1.9888475836431228 14.091971940763832  1.8401486988847584 14.135619641465315  1.691449814126394 14.12314886983632  C 1.5303593556381663 14.098207326578333  1.4002478314745974 14.029618082618864  1.3011152416356877 13.917381137957912  L 0.14869888475836432 12.533125487139518  C 0.049566294919454794 12.40841777084957  0.006195786864931891 12.261886204208885  0.01858736059479554 12.09353078721746  C 0.030978934324659323 11.925175370226032  0.09913258983890959 11.79111457521434  0.22304832713754646 11.691348402182385  L 13.58736059479554 0.4863600935307879  C 13.983890954151178 0.16212003117692664  14.454770755885999 0  15 0  C 15.545229244114005 0  16.016109045848825 0.16212003117692664  16.412639405204462 0.4863600935307879  L 20.947955390334574 4.302416212003116  L 20.947955390334574 0.6547155105222124  C 20.947955390334574 0.48012470771628735  21.003717472118957 0.33671083398285173  21.11524163568773 0.22447388932190293  C 21.226765799256505 0.11223694466095147  21.369268897149936 0.05611847233047573  21.54275092936803 0.05611847233047573  L 25.111524163568774 0.05611847233047573  C 25.285006195786867 0.05611847233047573  25.427509293680295 0.11223694466095147  25.53903345724907 0.22447388932190293  C 25.650557620817843 0.33671083398285173  25.706319702602233 0.48012470771628735  25.706319702602233 0.6547155105222124  L 25.706319702602233 8.286827747466875  L 29.776951672862452 11.691348402182385  C 29.900867410161094 11.79111457521434  29.969021065675346 11.925175370226032  29.981412639405203 12.09353078721746  Z " fill-rule="nonzero" fill="#ffffff" stroke="none" transform="matrix(1 0 0 1 121 9493 )" />
  </g>
</svg>