<?xml version="1.0" encoding="utf-8"?>
<svg version="1.1" xmlns:xlink="http://www.w3.org/1999/xlink" width="16px" height="14px" xmlns="http://www.w3.org/2000/svg">
  <defs>
    <mask fill="white" id="clip111">
      <path d="M 9.663461538461538 6.826822916666667  C 9.78525641025641 6.711371527777777  9.846153846153847 6.574652777777777  9.846153846153847 6.416666666666667  C 9.846153846153847 6.2586805555555545  9.78525641025641 6.1219618055555545  9.663461538461538 6.006510416666667  C 9.541666666666668 5.891059027777779  9.3974358974359 5.833333333333333  9.23076923076923 5.833333333333333  L 6.769230769230769 5.833333333333333  C 6.602564102564103 5.833333333333333  6.458333333333334 5.891059027777779  6.336538461538462 6.006510416666667  C 6.21474358974359 6.1219618055555545  6.153846153846154 6.2586805555555545  6.153846153846154 6.416666666666667  C 6.153846153846154 6.574652777777777  6.21474358974359 6.711371527777777  6.336538461538462 6.826822916666667  C 6.458333333333334 6.9422743055555545  6.602564102564103 7  6.769230769230769 7  L 9.23076923076923 7  C 9.3974358974359 7  9.541666666666668 6.9422743055555545  9.663461538461538 6.826822916666667  Z M 15.201923076923077 4.256510416666667  C 15.323717948717949 4.3719618055555545  15.384615384615385 4.5086805555555545  15.384615384615385 4.666666666666667  L 15.384615384615385 13.416666666666668  C 15.384615384615385 13.574652777777777  15.323717948717949 13.711371527777777  15.201923076923077 13.826822916666668  C 15.080128205128206 13.942274305555557  14.935897435897438 14  14.76923076923077 14  L 1.2307692307692308 14  C 1.0641025641025643 14  0.919871794871795 13.942274305555557  0.7980769230769231 13.826822916666668  C 0.6762820512820513 13.711371527777777  0.6153846153846154 13.574652777777777  0.6153846153846154 13.416666666666668  L 0.6153846153846154 4.666666666666667  C 0.6153846153846154 4.5086805555555545  0.6762820512820513 4.3719618055555545  0.7980769230769231 4.256510416666667  C 0.919871794871795 4.141059027777777  1.0641025641025643 4.083333333333333  1.2307692307692308 4  L 14.76923076923077 4  C 14.935897435897438 4.083333333333333  15.080128205128206 4.141059027777777  15.201923076923077 4.256510416666667  Z M 15.817307692307692 0.17317708333333282  C 15.939102564102567 0.2886284722222203  16.000000000000004 0.4253472222222203  16 0.5833333333333328  L 16 2.916666666666667  C 16.000000000000004 3.074652777777777  15.939102564102567 3.211371527777777  15.817307692307692 3.326822916666667  C 15.695512820512821 3.4422743055555545  15.551282051282053 3.5  15.384615384615385 3.5  L 0.6153846153846154 3.5  C 0.4487179487179489 3.5  0.3044871794871797 3.4422743055555545  0.18269230769230768 3.326822916666667  C 0.060897435897435986 3.211371527777777  0 3.074652777777777  0 2.916666666666667  L 0 0.5833333333333328  C 0 0.4253472222222203  0.060897435897435986 0.2886284722222203  0.18269230769230768 0.17317708333333282  C 0.3044871794871797 0.057725694444443754  0.4487179487179489 0  0.6153846153846154 0  L 15.384615384615385 0  C 15.551282051282053 0  15.695512820512821 0.057725694444443754  15.817307692307692 0.17317708333333282  Z " fill-rule="evenodd" />
    </mask>
  </defs>
  <g transform="matrix(1 0 0 1 -471 -8486 )">
    <path d="M 9.663461538461538 6.826822916666667  C 9.78525641025641 6.711371527777777  9.846153846153847 6.574652777777777  9.846153846153847 6.416666666666667  C 9.846153846153847 6.2586805555555545  9.78525641025641 6.1219618055555545  9.663461538461538 6.006510416666667  C 9.541666666666668 5.891059027777779  9.3974358974359 5.833333333333333  9.23076923076923 5.833333333333333  L 6.769230769230769 5.833333333333333  C 6.602564102564103 5.833333333333333  6.458333333333334 5.891059027777779  6.336538461538462 6.006510416666667  C 6.21474358974359 6.1219618055555545  6.153846153846154 6.2586805555555545  6.153846153846154 6.416666666666667  C 6.153846153846154 6.574652777777777  6.21474358974359 6.711371527777777  6.336538461538462 6.826822916666667  C 6.458333333333334 6.9422743055555545  6.602564102564103 7  6.769230769230769 7  L 9.23076923076923 7  C 9.3974358974359 7  9.541666666666668 6.9422743055555545  9.663461538461538 6.826822916666667  Z M 15.201923076923077 4.256510416666667  C 15.323717948717949 4.3719618055555545  15.384615384615385 4.5086805555555545  15.384615384615385 4.666666666666667  L 15.384615384615385 13.416666666666668  C 15.384615384615385 13.574652777777777  15.323717948717949 13.711371527777777  15.201923076923077 13.826822916666668  C 15.080128205128206 13.942274305555557  14.935897435897438 14  14.76923076923077 14  L 1.2307692307692308 14  C 1.0641025641025643 14  0.919871794871795 13.942274305555557  0.7980769230769231 13.826822916666668  C 0.6762820512820513 13.711371527777777  0.6153846153846154 13.574652777777777  0.6153846153846154 13.416666666666668  L 0.6153846153846154 4.666666666666667  C 0.6153846153846154 4.5086805555555545  0.6762820512820513 4.3719618055555545  0.7980769230769231 4.256510416666667  C 0.919871794871795 4.141059027777777  1.0641025641025643 4.083333333333333  1.2307692307692308 4  L 14.76923076923077 4  C 14.935897435897438 4.083333333333333  15.080128205128206 4.141059027777777  15.201923076923077 4.256510416666667  Z M 15.817307692307692 0.17317708333333282  C 15.939102564102567 0.2886284722222203  16.000000000000004 0.4253472222222203  16 0.5833333333333328  L 16 2.916666666666667  C 16.000000000000004 3.074652777777777  15.939102564102567 3.211371527777777  15.817307692307692 3.326822916666667  C 15.695512820512821 3.4422743055555545  15.551282051282053 3.5  15.384615384615385 3.5  L 0.6153846153846154 3.5  C 0.4487179487179489 3.5  0.3044871794871797 3.4422743055555545  0.18269230769230768 3.326822916666667  C 0.060897435897435986 3.211371527777777  0 3.074652777777777  0 2.916666666666667  L 0 0.5833333333333328  C 0 0.4253472222222203  0.060897435897435986 0.2886284722222203  0.18269230769230768 0.17317708333333282  C 0.3044871794871797 0.057725694444443754  0.4487179487179489 0  0.6153846153846154 0  L 15.384615384615385 0  C 15.551282051282053 0  15.695512820512821 0.057725694444443754  15.817307692307692 0.17317708333333282  Z " fill-rule="nonzero" fill="#764ba2" stroke="none" transform="matrix(1 0 0 1 471 8486 )" />
    <path d="M 9.663461538461538 6.826822916666667  C 9.78525641025641 6.711371527777777  9.846153846153847 6.574652777777777  9.846153846153847 6.416666666666667  C 9.846153846153847 6.2586805555555545  9.78525641025641 6.1219618055555545  9.663461538461538 6.006510416666667  C 9.541666666666668 5.891059027777779  9.3974358974359 5.833333333333333  9.23076923076923 5.833333333333333  L 6.769230769230769 5.833333333333333  C 6.602564102564103 5.833333333333333  6.458333333333334 5.891059027777779  6.336538461538462 6.006510416666667  C 6.21474358974359 6.1219618055555545  6.153846153846154 6.2586805555555545  6.153846153846154 6.416666666666667  C 6.153846153846154 6.574652777777777  6.21474358974359 6.711371527777777  6.336538461538462 6.826822916666667  C 6.458333333333334 6.9422743055555545  6.602564102564103 7  6.769230769230769 7  L 9.23076923076923 7  C 9.3974358974359 7  9.541666666666668 6.9422743055555545  9.663461538461538 6.826822916666667  Z " stroke-width="2" stroke="#764ba2" fill="none" transform="matrix(1 0 0 1 471 8486 )" mask="url(#clip111)" />
    <path d="M 15.201923076923077 4.256510416666667  C 15.323717948717949 4.3719618055555545  15.384615384615385 4.5086805555555545  15.384615384615385 4.666666666666667  L 15.384615384615385 13.416666666666668  C 15.384615384615385 13.574652777777777  15.323717948717949 13.711371527777777  15.201923076923077 13.826822916666668  C 15.080128205128206 13.942274305555557  14.935897435897438 14  14.76923076923077 14  L 1.2307692307692308 14  C 1.0641025641025643 14  0.919871794871795 13.942274305555557  0.7980769230769231 13.826822916666668  C 0.6762820512820513 13.711371527777777  0.6153846153846154 13.574652777777777  0.6153846153846154 13.416666666666668  L 0.6153846153846154 4.666666666666667  C 0.6153846153846154 4.5086805555555545  0.6762820512820513 4.3719618055555545  0.7980769230769231 4.256510416666667  C 0.919871794871795 4.141059027777777  1.0641025641025643 4.083333333333333  1.2307692307692308 4  L 14.76923076923077 4  C 14.935897435897438 4.083333333333333  15.080128205128206 4.141059027777777  15.201923076923077 4.256510416666667  Z " stroke-width="2" stroke="#764ba2" fill="none" transform="matrix(1 0 0 1 471 8486 )" mask="url(#clip111)" />
    <path d="M 15.817307692307692 0.17317708333333282  C 15.939102564102567 0.2886284722222203  16.000000000000004 0.4253472222222203  16 0.5833333333333328  L 16 2.916666666666667  C 16.000000000000004 3.074652777777777  15.939102564102567 3.211371527777777  15.817307692307692 3.326822916666667  C 15.695512820512821 3.4422743055555545  15.551282051282053 3.5  15.384615384615385 3.5  L 0.6153846153846154 3.5  C 0.4487179487179489 3.5  0.3044871794871797 3.4422743055555545  0.18269230769230768 3.326822916666667  C 0.060897435897435986 3.211371527777777  0 3.074652777777777  0 2.916666666666667  L 0 0.5833333333333328  C 0 0.4253472222222203  0.060897435897435986 0.2886284722222203  0.18269230769230768 0.17317708333333282  C 0.3044871794871797 0.057725694444443754  0.4487179487179489 0  0.6153846153846154 0  L 15.384615384615385 0  C 15.551282051282053 0  15.695512820512821 0.057725694444443754  15.817307692307692 0.17317708333333282  Z " stroke-width="2" stroke="#764ba2" fill="none" transform="matrix(1 0 0 1 471 8486 )" mask="url(#clip111)" />
  </g>
</svg>