<?xml version="1.0" encoding="utf-8"?>
<svg version="1.1" xmlns:xlink="http://www.w3.org/1999/xlink" width="22px" height="20px" xmlns="http://www.w3.org/2000/svg">
  <defs>
    <mask fill="white" id="clip47">
      <path d="M 13.287259615384615 9.752604166666668  C 13.454727564102564 9.587673611111109  13.53846153846154 9.392361111111109  13.53846153846154 9.166666666666668  C 13.53846153846154 8.940972222222221  13.454727564102564 8.745659722222221  13.287259615384615 8.580729166666668  C 13.119791666666668 8.41579861111111  12.921474358974361 8.333333333333332  12.692307692307692 8.333333333333332  L 9.307692307692308 8.333333333333332  C 9.078525641025642 8.333333333333332  8.880208333333334 8.41579861111111  8.712740384615385 8.580729166666668  C 8.545272435897436 8.745659722222221  8.461538461538462 8.940972222222221  8.461538461538462 9.166666666666668  C 8.461538461538462 9.392361111111109  8.545272435897436 9.587673611111109  8.712740384615385 9.752604166666668  C 8.880208333333334 9.917534722222221  9.078525641025642 10  9.307692307692308 10  L 12.692307692307692 10  C 12.921474358974361 10  13.119791666666668 9.917534722222221  13.287259615384615 9.752604166666668  Z M 20.90264423076923 6.080729166666668  C 21.07011217948718 6.245659722222221  21.153846153846153 6.440972222222221  21.153846153846153 6.666666666666668  L 21.153846153846153 19.166666666666668  C 21.153846153846153 19.39236111111111  21.07011217948718 19.58767361111111  20.90264423076923 19.752604166666668  C 20.735176282051285 19.91753472222222  20.536858974358978 20  20.30769230769231 20  L 1.6923076923076925 20  C 1.463141025641026 20  1.2648237179487183 19.91753472222222  1.0973557692307694 19.752604166666668  C 0.9298878205128206 19.58767361111111  0.8461538461538463 19.39236111111111  0.8461538461538463 19.166666666666668  L 0.8461538461538463 6.666666666666668  C 0.8461538461538463 6.440972222222221  0.9298878205128206 6.245659722222221  1.0973557692307694 6.080729166666668  C 1.2648237179487183 5.915798611111109  1.463141025641026 5.833333333333332  1.6923076923076925 6  L 20.30769230769231 6  C 20.536858974358978 5.833333333333332  20.735176282051285 5.915798611111109  20.90264423076923 6.080729166666668  Z M 21.748798076923077 0.2473958333333326  C 21.91626602564103 0.4123263888888862  22.000000000000004 0.6076388888888862  22 0.8333333333333326  L 22 4.166666666666668  C 22.000000000000004 4.392361111111109  21.91626602564103 4.587673611111109  21.748798076923077 4.752604166666668  C 21.581330128205128 4.917534722222221  21.38301282051282 5  21.153846153846153 5  L 0.8461538461538463 5  C 0.6169871794871797 5  0.4186698717948721 4.917534722222221  0.2512019230769231 4.752604166666668  C 0.08373397435897448 4.587673611111109  0 4.392361111111109  0 4.166666666666668  L 0 0.8333333333333326  C 0 0.6076388888888862  0.08373397435897448 0.4123263888888862  0.2512019230769231 0.2473958333333326  C 0.4186698717948721 0.08246527777777679  0.6169871794871797 0  0.8461538461538463 0  L 21.153846153846153 0  C 21.38301282051282 0  21.581330128205128 0.08246527777777679  21.748798076923077 0.2473958333333326  Z " fill-rule="evenodd" />
    </mask>
  </defs>
  <g transform="matrix(1 0 0 1 -972 -9544 )">
    <path d="M 13.287259615384615 9.752604166666668  C 13.454727564102564 9.587673611111109  13.53846153846154 9.392361111111109  13.53846153846154 9.166666666666668  C 13.53846153846154 8.940972222222221  13.454727564102564 8.745659722222221  13.287259615384615 8.580729166666668  C 13.119791666666668 8.41579861111111  12.921474358974361 8.333333333333332  12.692307692307692 8.333333333333332  L 9.307692307692308 8.333333333333332  C 9.078525641025642 8.333333333333332  8.880208333333334 8.41579861111111  8.712740384615385 8.580729166666668  C 8.545272435897436 8.745659722222221  8.461538461538462 8.940972222222221  8.461538461538462 9.166666666666668  C 8.461538461538462 9.392361111111109  8.545272435897436 9.587673611111109  8.712740384615385 9.752604166666668  C 8.880208333333334 9.917534722222221  9.078525641025642 10  9.307692307692308 10  L 12.692307692307692 10  C 12.921474358974361 10  13.119791666666668 9.917534722222221  13.287259615384615 9.752604166666668  Z M 20.90264423076923 6.080729166666668  C 21.07011217948718 6.245659722222221  21.153846153846153 6.440972222222221  21.153846153846153 6.666666666666668  L 21.153846153846153 19.166666666666668  C 21.153846153846153 19.39236111111111  21.07011217948718 19.58767361111111  20.90264423076923 19.752604166666668  C 20.735176282051285 19.91753472222222  20.536858974358978 20  20.30769230769231 20  L 1.6923076923076925 20  C 1.463141025641026 20  1.2648237179487183 19.91753472222222  1.0973557692307694 19.752604166666668  C 0.9298878205128206 19.58767361111111  0.8461538461538463 19.39236111111111  0.8461538461538463 19.166666666666668  L 0.8461538461538463 6.666666666666668  C 0.8461538461538463 6.440972222222221  0.9298878205128206 6.245659722222221  1.0973557692307694 6.080729166666668  C 1.2648237179487183 5.915798611111109  1.463141025641026 5.833333333333332  1.6923076923076925 6  L 20.30769230769231 6  C 20.536858974358978 5.833333333333332  20.735176282051285 5.915798611111109  20.90264423076923 6.080729166666668  Z M 21.748798076923077 0.2473958333333326  C 21.91626602564103 0.4123263888888862  22.000000000000004 0.6076388888888862  22 0.8333333333333326  L 22 4.166666666666668  C 22.000000000000004 4.392361111111109  21.91626602564103 4.587673611111109  21.748798076923077 4.752604166666668  C 21.581330128205128 4.917534722222221  21.38301282051282 5  21.153846153846153 5  L 0.8461538461538463 5  C 0.6169871794871797 5  0.4186698717948721 4.917534722222221  0.2512019230769231 4.752604166666668  C 0.08373397435897448 4.587673611111109  0 4.392361111111109  0 4.166666666666668  L 0 0.8333333333333326  C 0 0.6076388888888862  0.08373397435897448 0.4123263888888862  0.2512019230769231 0.2473958333333326  C 0.4186698717948721 0.08246527777777679  0.6169871794871797 0  0.8461538461538463 0  L 21.153846153846153 0  C 21.38301282051282 0  21.581330128205128 0.08246527777777679  21.748798076923077 0.2473958333333326  Z " fill-rule="nonzero" fill="#764ba2" stroke="none" transform="matrix(1 0 0 1 972 9544 )" />
    <path d="M 13.287259615384615 9.752604166666668  C 13.454727564102564 9.587673611111109  13.53846153846154 9.392361111111109  13.53846153846154 9.166666666666668  C 13.53846153846154 8.940972222222221  13.454727564102564 8.745659722222221  13.287259615384615 8.580729166666668  C 13.119791666666668 8.41579861111111  12.921474358974361 8.333333333333332  12.692307692307692 8.333333333333332  L 9.307692307692308 8.333333333333332  C 9.078525641025642 8.333333333333332  8.880208333333334 8.41579861111111  8.712740384615385 8.580729166666668  C 8.545272435897436 8.745659722222221  8.461538461538462 8.940972222222221  8.461538461538462 9.166666666666668  C 8.461538461538462 9.392361111111109  8.545272435897436 9.587673611111109  8.712740384615385 9.752604166666668  C 8.880208333333334 9.917534722222221  9.078525641025642 10  9.307692307692308 10  L 12.692307692307692 10  C 12.921474358974361 10  13.119791666666668 9.917534722222221  13.287259615384615 9.752604166666668  Z " stroke-width="2" stroke="#764ba2" fill="none" transform="matrix(1 0 0 1 972 9544 )" mask="url(#clip47)" />
    <path d="M 20.90264423076923 6.080729166666668  C 21.07011217948718 6.245659722222221  21.153846153846153 6.440972222222221  21.153846153846153 6.666666666666668  L 21.153846153846153 19.166666666666668  C 21.153846153846153 19.39236111111111  21.07011217948718 19.58767361111111  20.90264423076923 19.752604166666668  C 20.735176282051285 19.91753472222222  20.536858974358978 20  20.30769230769231 20  L 1.6923076923076925 20  C 1.463141025641026 20  1.2648237179487183 19.91753472222222  1.0973557692307694 19.752604166666668  C 0.9298878205128206 19.58767361111111  0.8461538461538463 19.39236111111111  0.8461538461538463 19.166666666666668  L 0.8461538461538463 6.666666666666668  C 0.8461538461538463 6.440972222222221  0.9298878205128206 6.245659722222221  1.0973557692307694 6.080729166666668  C 1.2648237179487183 5.915798611111109  1.463141025641026 5.833333333333332  1.6923076923076925 6  L 20.30769230769231 6  C 20.536858974358978 5.833333333333332  20.735176282051285 5.915798611111109  20.90264423076923 6.080729166666668  Z " stroke-width="2" stroke="#764ba2" fill="none" transform="matrix(1 0 0 1 972 9544 )" mask="url(#clip47)" />
    <path d="M 21.748798076923077 0.2473958333333326  C 21.91626602564103 0.4123263888888862  22.000000000000004 0.6076388888888862  22 0.8333333333333326  L 22 4.166666666666668  C 22.000000000000004 4.392361111111109  21.91626602564103 4.587673611111109  21.748798076923077 4.752604166666668  C 21.581330128205128 4.917534722222221  21.38301282051282 5  21.153846153846153 5  L 0.8461538461538463 5  C 0.6169871794871797 5  0.4186698717948721 4.917534722222221  0.2512019230769231 4.752604166666668  C 0.08373397435897448 4.587673611111109  0 4.392361111111109  0 4.166666666666668  L 0 0.8333333333333326  C 0 0.6076388888888862  0.08373397435897448 0.4123263888888862  0.2512019230769231 0.2473958333333326  C 0.4186698717948721 0.08246527777777679  0.6169871794871797 0  0.8461538461538463 0  L 21.153846153846153 0  C 21.38301282051282 0  21.581330128205128 0.08246527777777679  21.748798076923077 0.2473958333333326  Z " stroke-width="2" stroke="#764ba2" fill="none" transform="matrix(1 0 0 1 972 9544 )" mask="url(#clip47)" />
  </g>
</svg>