<?xml version="1.0" encoding="utf-8"?>
<svg version="1.1" xmlns:xlink="http://www.w3.org/1999/xlink" width="10px" height="9px" xmlns="http://www.w3.org/2000/svg">
  <g transform="matrix(1 0 0 1 -1012 -9864 )">
    <path d="M 5.2455357142857135 8.89453125  C 5.178571428571429 8.96484375  5.096726190476191 9  5 9  C 4.90327380952381 9  4.821428571428572 8.96484375  4.754464285714286 8.89453125  L 1.2723214285714284 5.367187500000001  C 1.2351190476190477 5.3359375  1.183965773809524 5.285156249999999  1.1188616071428572 5.214843749999999  C 1.0537574404761905 5.144531249999999  0.9505208333333335 5.0166015625  0.8091517857142858 4.831054687500001  C 0.6677827380952381 4.645507812499999  0.5412946428571429 4.455078124999999  0.4296875 4.259765625  C 0.3180803571428571 4.064453125  0.2185639880952381 3.828125  0.13113839285714285 3.55078125  C 0.043712797619047616 3.273437499999999  0 3.0039062499999996  0 2.7421875  C 0 1.8828124999999996  0.236235119047619 1.2109374999999996  0.7087053571428571 0.7265624999999997  C 1.1811755952380953 0.2421874999999999  1.834077380952381 0  2.6674107142857144 0  C 2.8980654761904763 0  3.1333705357142856 0.041992187499999445  3.3733258928571432 0.12597656250000033  C 3.61328125 0.20996093749999922  3.8364955357142856 0.32324218749999944  4.04296875 0.4658203125  C 4.249441964285715 0.6083984374999996  4.427083333333334 0.7421874999999991  4.575892857142857 0.8671874999999997  C 4.724702380952381 0.9921874999999992  4.866071428571429 1.125  5 1.265625  C 5.133928571428571 1.125  5.2752976190476195 0.9921874999999992  5.424107142857143 0.8671874999999997  C 5.572916666666668 0.7421874999999991  5.7505580357142865 0.6083984374999996  5.95703125 0.4658203125  C 6.1635044642857135 0.32324218749999944  6.38671875 0.20996093749999922  6.626674107142857 0.12597656250000033  C 6.8666294642857135 0.041992187499999445  7.101934523809525 0  7.3325892857142865 0  C 8.16592261904762 0  8.818824404761905 0.2421874999999999  9.291294642857142 0.7265624999999997  C 9.763764880952381 1.2109374999999996  10 1.8828124999999996  10 2.7421875  C 10 3.6054687499999996  9.574032738095239 4.484375  8.722098214285714 5.37890625  L 5.2455357142857135 8.89453125  Z " fill-rule="nonzero" fill="#d9001b" stroke="none" transform="matrix(1 0 0 1 1012 9864 )" />
  </g>
</svg>