<?xml version="1.0" encoding="utf-8"?>
<svg version="1.1" xmlns:xlink="http://www.w3.org/1999/xlink" width="8px" height="7px" xmlns="http://www.w3.org/2000/svg">
  <g transform="matrix(1 0 0 1 -534 -8747 )">
    <path d="M 2.689732142857143 2.5042317708333335  C 2.8013392857142856 2.6181640625  2.857142857142857 2.7556423611111107  2.857142857142857 2.9166666666666665  C 2.857142857142857 3.077690972222222  2.8013392857142856 3.2151692708333335  2.689732142857143 3.3291015625  C 2.578125 3.4430338541666665  2.443452380952381 3.5  2.2857142857142856 3.5  C 2.1279761904761907 3.5  1.9933035714285716 3.4430338541666665  1.8816964285714286 3.3291015625  C 1.7700892857142858 3.2151692708333335  1.7142857142857142 3.077690972222222  1.7142857142857142 2.9166666666666665  C 1.7142857142857142 2.7556423611111107  1.7700892857142858 2.6181640625  1.8816964285714286 2.5042317708333335  C 1.9933035714285716 2.3902994791666665  2.1279761904761907 2.3333333333333335  2.2857142857142856 2.3333333333333335  C 2.443452380952381 2.3333333333333335  2.578125 2.3902994791666665  2.689732142857143 2.5042317708333335  Z M 4.404017857142857 2.5042317708333335  C 4.515625 2.6181640625  4.571428571428571 2.7556423611111107  4.571428571428571 2.9166666666666665  C 4.571428571428571 3.077690972222222  4.515625 3.2151692708333335  4.404017857142857 3.3291015625  C 4.292410714285714 3.4430338541666665  4.157738095238096 3.5  4 3.5  C 3.842261904761905 3.5  3.707589285714286 3.4430338541666665  3.595982142857143 3.3291015625  C 3.484375 3.2151692708333335  3.4285714285714284 3.077690972222222  3.4285714285714284 2.9166666666666665  C 3.4285714285714284 2.7556423611111107  3.484375 2.6181640625  3.595982142857143 2.5042317708333335  C 3.707589285714286 2.3902994791666665  3.842261904761905 2.3333333333333335  4 2.3333333333333335  C 4.157738095238096 2.3333333333333335  4.292410714285714 2.3902994791666665  4.404017857142857 2.5042317708333335  Z M 6.118303571428571 2.5042317708333335  C 6.229910714285714 2.6181640625  6.285714285714286 2.7556423611111107  6.285714285714286 2.9166666666666665  C 6.285714285714286 3.077690972222222  6.229910714285714 3.2151692708333335  6.118303571428571 3.3291015625  C 6.006696428571429 3.4430338541666665  5.87202380952381 3.5  5.714285714285714 3.5  C 5.5565476190476195 3.5  5.421875 3.4430338541666665  5.310267857142857 3.3291015625  C 5.198660714285714 3.2151692708333335  5.142857142857143 3.077690972222222  5.142857142857143 2.9166666666666665  C 5.142857142857143 2.7556423611111107  5.198660714285714 2.6181640625  5.310267857142857 2.5042317708333335  C 5.421875 2.3902994791666665  5.5565476190476195 2.3333333333333335  5.714285714285714 2.3333333333333335  C 5.87202380952381 2.3333333333333335  6.006696428571429 2.3902994791666665  6.118303571428571 2.5042317708333335  Z M 5.703125 0.9000651041666664  C 5.174851190476191 0.6889105902777773  4.607142857142857 0.5833333333333336  4 0.5833333333333336  C 3.392857142857143 0.5833333333333336  2.8251488095238098 0.6889105902777773  2.296875 0.9000651041666664  C 1.7686011904761905 1.1112196180555554  1.3489583333333335 1.3960503472222219  1.0379464285714286 1.7545572916666665  C 0.7269345238095238 2.1130642361111103  0.5714285714285714 2.5004340277777772  0.5714285714285714 2.9166666666666665  C 0.5714285714285714 3.2569444444444446  0.677827380952381 3.5812717013888893  0.890625 3.8896484375  C 1.103422619047619 4.198025173611111  1.4032738095238098 4.464626736111111  1.7901785714285714 4.689453125  L 2.1785714285714284 4.917317708333333  L 2.0580357142857144 5.354817708333334  C 1.9866071428571428 5.631293402777779  1.8824404761904763 5.892578125  1.7455357142857142 6.138671875  C 2.197916666666667 5.947265625  2.607142857142857 5.6875  2.9732142857142856 5.359375  L 3.1651785714285716 5.186197916666667  L 3.419642857142857 5.213541666666667  C 3.625 5.237847222222221  3.818452380952381 5.25  4 5.25  C 4.607142857142857 5.25  5.174851190476191 5.1444227430555545  5.703125 4.933268229166667  C 6.23139880952381 4.722113715277777  6.651041666666667 4.437282986111111  6.962053571428571 4.078776041666667  C 7.273065476190476 3.720269097222222  7.428571428571429 3.3328993055555554  7.428571428571429 2.9166666666666665  C 7.428571428571429 2.5004340277777772  7.273065476190476 2.1130642361111103  6.962053571428571 1.7545572916666665  C 6.651041666666667 1.3960503472222219  6.23139880952381 1.1112196180555554  5.703125 0.9000651041666664  Z M 7.683035714285714 1.7841796875  C 7.894345238095239 2.1442057291666665  8 2.5217013888888884  8 2.9166666666666665  C 8 3.4453125  7.821428571428571 3.9337022569444438  7.464285714285714 4.3818359375  C 7.107142857142857 4.8299696180555545  6.62202380952381 5.183919270833333  6.008928571428571 5.443684895833334  C 5.395833333333334 5.703450520833334  4.726190476190476 5.833333333333334  4 5.833333333333334  C 3.791666666666667 5.833333333333334  3.575892857142857 5.821180555555555  3.3526785714285716 5.796875  C 2.763392857142857 6.328559027777779  2.078869047619048 6.696180555555555  1.2991071428571428 6.899739583333334  C 1.1532738095238098 6.942274305555555  0.9836309523809524 6.975694444444445  0.7901785714285714 7  L 0.7678571428571429 7  C 0.7232142857142857 7  0.6830357142857143 6.984049479166666  0.6473214285714286 6.9521484375  C 0.6116071428571429 6.920247395833334  0.5877976190476192 6.878472222222221  0.5758928571428571 6.826822916666666  L 0.5758928571428571 6.822265625  C 0.5669642857142858 6.810112847222222  0.5662202380952381 6.791883680555556  0.5736607142857143 6.767578125  C 0.5811011904761906 6.743272569444445  0.584077380952381 6.728081597222221  0.5825892857142857 6.722005208333334  C 0.5811011904761906 6.715928819444445  0.5877976190476192 6.701497395833334  0.6026785714285714 6.6787109375  L 0.6294642857142857 6.6376953125  C 0.6294642857142857 6.6376953125  0.6398809523809524 6.624782986111112  0.6607142857142857 6.598958333333334  C 0.6815476190476192 6.573133680555555  0.693452380952381 6.559461805555555  0.6964285714285714 6.557942708333334  C 0.7172619047619049 6.533637152777779  0.7633928571428571 6.481228298611112  0.8348214285714286 6.400716145833334  C 0.90625 6.320203993055555  0.9575892857142857 6.262478298611112  0.9888392857142857 6.2275390625  C 1.0200892857142858 6.192599826388888  1.0662202380952381 6.132595486111112  1.1272321428571428 6.047526041666666  C 1.1882440476190477 5.962456597222221  1.2366071428571428 5.884982638888888  1.2723214285714286 5.815104166666666  C 1.3080357142857142 5.745225694444445  1.3482142857142858 5.655598958333334  1.3928571428571428 5.546223958333334  C 1.4375 5.436848958333334  1.4761904761904763 5.321397569444445  1.5089285714285714 5.199869791666667  C 1.0416666666666667 4.929470486111111  0.6733630952380952 4.595269097222221  0.40401785714285715 4.197265625  C 0.13467261904761904 3.799262152777777  0 3.3723958333333335  0 2.9166666666666665  C 0 2.5217013888888884  0.10565476190476189 2.1442057291666665  0.3169642857142857 1.7841796875  C 0.5282738095238095 1.4241536458333335  0.8125 1.1134982638888884  1.1696428571428572 0.8522135416666664  C 1.5267857142857142 0.5909288194444438  1.9523809523809526 0.38357204861111016  2.4464285714285716 0.2301432291666664  C 2.9404761904761907 0.07671440972222188  3.4583333333333335 0  4 0  C 4.541666666666667 0  5.05952380952381 0.07671440972222188  5.553571428571429 0.2301432291666664  C 6.047619047619048 0.38357204861111016  6.473214285714286 0.5909288194444438  6.830357142857143 0.8522135416666664  C 7.187500000000001 1.1134982638888884  7.471726190476192 1.4241536458333335  7.683035714285714 1.7841796875  Z " fill-rule="nonzero" fill="#764ba2" stroke="none" transform="matrix(1 0 0 1 534 8747 )" />
  </g>
</svg>