<?xml version="1.0" encoding="utf-8"?>
<svg version="1.1" xmlns:xlink="http://www.w3.org/1999/xlink" width="10px" height="9px" xmlns="http://www.w3.org/2000/svg">
  <g transform="matrix(1 0 0 1 -1037 -9864 )">
    <path d="M 3.3621651785714284 3.2197265625000004  C 3.5016741071428568 3.3662109375  3.5714285714285716 3.54296875  3.5714285714285716 3.7499999999999996  C 3.5714285714285716 3.9570312499999996  3.5016741071428568 4.1337890625  3.3621651785714284 4.2802734375  C 3.22265625 4.4267578125  3.0543154761904763 4.5  2.8571428571428568 4.5  C 2.659970238095238 4.5  2.4916294642857144 4.4267578125  2.3521205357142856 4.2802734375  C 2.212611607142857 4.1337890625  2.142857142857143 3.9570312499999996  2.142857142857143 3.7499999999999996  C 2.142857142857143 3.54296875  2.212611607142857 3.3662109375  2.3521205357142856 3.2197265625000004  C 2.4916294642857144 3.0732421874999996  2.659970238095238 3.0000000000000004  2.8571428571428568 3.0000000000000004  C 3.0543154761904763 3.0000000000000004  3.22265625 3.0732421874999996  3.3621651785714284 3.2197265625000004  Z M 5.505022321428571 3.2197265625000004  C 5.64453125 3.3662109375  5.7142857142857135 3.54296875  5.7142857142857135 3.7499999999999996  C 5.7142857142857135 3.9570312499999996  5.64453125 4.1337890625  5.505022321428571 4.2802734375  C 5.365513392857143 4.4267578125  5.1971726190476195 4.5  5 4.5  C 4.802827380952381 4.5  4.634486607142858 4.4267578125  4.494977678571429 4.2802734375  C 4.35546875 4.1337890625  4.285714285714286 3.9570312499999996  4.285714285714286 3.7499999999999996  C 4.285714285714286 3.54296875  4.35546875 3.3662109375  4.494977678571429 3.2197265625000004  C 4.634486607142858 3.0732421874999996  4.802827380952381 3.0000000000000004  5 3.0000000000000004  C 5.1971726190476195 3.0000000000000004  5.365513392857143 3.0732421874999996  5.505022321428571 3.2197265625000004  Z M 7.6478794642857135 3.2197265625000004  C 7.787388392857143 3.3662109375  7.857142857142857 3.54296875  7.857142857142857 3.7499999999999996  C 7.857142857142857 3.9570312499999996  7.787388392857143 4.1337890625  7.6478794642857135 4.2802734375  C 7.5083705357142865 4.4267578125  7.340029761904763 4.5  7.142857142857143 4.5  C 6.945684523809525 4.5  6.77734375 4.4267578125  6.637834821428571 4.2802734375  C 6.498325892857143 4.1337890625  6.428571428571429 3.9570312499999996  6.428571428571429 3.7499999999999996  C 6.428571428571429 3.54296875  6.498325892857143 3.3662109375  6.637834821428571 3.2197265625000004  C 6.77734375 3.0732421874999996  6.945684523809525 3.0000000000000004  7.142857142857143 3.0000000000000004  C 7.340029761904763 3.0000000000000004  7.5083705357142865 3.0732421874999996  7.6478794642857135 3.2197265625000004  Z M 7.12890625 1.1572265624999996  C 6.468563988095238 0.8857421874999994  5.758928571428571 0.7500000000000003  5 0.7500000000000003  C 4.241071428571429 0.7500000000000003  3.5314360119047623 0.8857421874999994  2.87109375 1.1572265624999996  C 2.210751488095238 1.4287109375  1.686197916666667 1.7949218749999996  1.2974330357142858 2.2558593749999996  C 0.9086681547619048 2.7167968749999987  0.7142857142857142 3.2148437499999996  0.7142857142857142 3.7499999999999996  C 0.7142857142857142 4.1875  0.8472842261904763 4.6044921875  1.11328125 5.0009765625  C 1.3792782738095237 5.3974609375  1.7540922619047623 5.740234375  2.2377232142857144 6.029296875  L 2.7232142857142856 6.322265624999999  L 2.5725446428571432 6.884765625  C 2.4832589285714284 7.240234375  2.3530505952380953 7.576171875  2.181919642857143 7.892578125  C 2.747395833333334 7.646484375  3.2589285714285716 7.3125  3.7165178571428568 6.890625  L 3.9564732142857144 6.667968750000001  L 4.274553571428571 6.703125000000001  C 4.53125 6.734375  4.773065476190476 6.75  5 6.75  C 5.758928571428571 6.75  6.468563988095238 6.614257812499999  7.12890625 6.342773437500001  C 7.789248511904763 6.071289062499998  8.313802083333334 5.705078125  8.702566964285714 5.244140625000001  C 9.091331845238095 4.783203125  9.285714285714286 4.28515625  9.285714285714286 3.7499999999999996  C 9.285714285714286 3.2148437499999996  9.091331845238095 2.7167968749999987  8.702566964285714 2.2558593749999996  C 8.313802083333334 1.7949218749999996  7.789248511904763 1.4287109375  7.12890625 1.1572265624999996  Z M 9.603794642857142 2.2939453125  C 9.86793154761905 2.7568359374999996  10 3.242187499999999  10 3.7499999999999996  C 10 4.4296875  9.776785714285714 5.057617187499999  9.330357142857142 5.6337890625  C 8.883928571428571 6.209960937499999  8.277529761904763 6.665039062499999  7.5111607142857135 6.9990234375  C 6.744791666666668 7.3330078125  5.907738095238095 7.5  5 7.5  C 4.739583333333334 7.5  4.469866071428571 7.484375  4.190848214285714 7.453125  C 3.4542410714285716 8.13671875  2.5985863095238098 8.609375  1.6238839285714284 8.87109375  C 1.4415922619047623 8.92578125  1.2295386904761905 8.96875  0.9877232142857142 9  L 0.9598214285714286 9  C 0.9040178571428571 9  0.8537946428571429 8.9794921875  0.8091517857142858 8.9384765625  C 0.7645089285714286 8.8974609375  0.734747023809524 8.84375  0.7198660714285714 8.77734375  L 0.7198660714285714 8.771484375  C 0.7087053571428572 8.755859375  0.7077752976190477 8.732421875  0.7170758928571429 8.701171875  C 0.7263764880952382 8.669921875  0.7300967261904763 8.650390625  0.7282366071428571 8.642578125  C 0.7263764880952382 8.634765625  0.734747023809524 8.6162109375  0.7533482142857142 8.5869140625  L 0.7868303571428571 8.5341796875  C 0.7868303571428571 8.5341796875  0.7998511904761906 8.517578125  0.8258928571428571 8.484375  C 0.851934523809524 8.451171875  0.8668154761904763 8.43359375  0.8705357142857142 8.431640625  C 0.8965773809523812 8.400390625  0.9542410714285714 8.3330078125  1.0435267857142858 8.2294921875  C 1.1328125 8.1259765625  1.1969866071428572 8.0517578125  1.2360491071428572 8.0068359375  C 1.2751116071428572 7.961914062499999  1.3327752976190477 7.884765625000001  1.4090401785714284 7.775390625  C 1.4853050595238095 7.666015625  1.5457589285714284 7.566406249999999  1.5904017857142858 7.4765625  C 1.6350446428571428 7.38671875  1.6852678571428572 7.271484375  1.7410714285714284 7.130859375  C 1.796875 6.990234375  1.8452380952380953 6.841796875  1.8861607142857142 6.685546875000001  C 1.3020833333333335 6.337890625  0.8417038690476191 5.908203125  0.5050223214285714 5.396484375  C 0.1683407738095238 4.884765624999998  0 4.3359375  0 3.7499999999999996  C 0 3.242187499999999  0.13206845238095236 2.7568359374999996  0.3962053571428571 2.2939453125  C 0.6603422619047619 1.8310546875000004  1.015625 1.4316406249999991  1.4620535714285716 1.0957031249999996  C 1.9084821428571428 0.7597656249999991  2.4404761904761907 0.4931640624999988  3.0580357142857144 0.29589843749999967  C 3.675595238095238 0.09863281249999956  4.322916666666667 0  5 0  C 5.677083333333334 0  6.324404761904763 0.09863281249999956  6.9419642857142865 0.29589843749999967  C 7.55952380952381 0.4931640624999988  8.091517857142858 0.7597656249999991  8.537946428571429 1.0957031249999996  C 8.984375000000002 1.4316406249999991  9.339657738095239 1.8310546875000004  9.603794642857142 2.2939453125  Z " fill-rule="nonzero" fill="#764ba2" stroke="none" transform="matrix(1 0 0 1 1037 9864 )" />
  </g>
</svg>