<?xml version="1.0" encoding="utf-8"?>
<svg version="1.1" xmlns:xlink="http://www.w3.org/1999/xlink" width="8px" height="7px" xmlns="http://www.w3.org/2000/svg">
  <g transform="matrix(1 0 0 1 -515 -8747 )">
    <path d="M 4.196428571428571 6.91796875  C 4.142857142857143 6.97265625  4.0773809523809526 7  4 7  C 3.922619047619048 7  3.8571428571428577 6.97265625  3.8035714285714284 6.91796875  L 1.0178571428571428 4.174479166666667  C 0.9880952380952381 4.150173611111111  0.9471726190476192 4.110677083333333  0.8950892857142857 4.055989583333333  C 0.8430059523809524 4.001302083333333  0.7604166666666667 3.901801215277778  0.6473214285714286 3.757486979166667  C 0.5342261904761905 3.6131727430555545  0.4330357142857143 3.4650607638888884  0.34375 3.3131510416666665  C 0.2544642857142857 3.1612413194444446  0.1748511904761905 2.9774305555555554  0.10491071428571429 2.76171875  C 0.034970238095238096 2.5460069444444438  0 2.3363715277777772  0 2.1328125  C 0 1.4644097222222219  0.1889880952380952 0.9418402777777773  0.5669642857142857 0.5651041666666664  C 0.9449404761904763 0.18836805555555547  1.4672619047619047 0  2.1339285714285716 0  C 2.318452380952381 0  2.5066964285714284 0.032660590277777346  2.6986607142857144 0.09798177083333359  C 2.890625 0.16330295138888828  3.0691964285714284 0.25141059027777735  3.234375 0.3623046875  C 3.399553571428572 0.4731987847222219  3.5416666666666674 0.5772569444444438  3.6607142857142856 0.6744791666666664  C 3.779761904761905 0.7717013888888883  3.892857142857143 0.875  4 0.984375  C 4.107142857142857 0.875  4.220238095238096 0.7717013888888883  4.339285714285714 0.6744791666666664  C 4.458333333333334 0.5772569444444438  4.600446428571429 0.4731987847222219  4.765625 0.3623046875  C 4.930803571428571 0.25141059027777735  5.109375 0.16330295138888828  5.301339285714286 0.09798177083333359  C 5.493303571428571 0.032660590277777346  5.6815476190476195 0  5.866071428571429 0  C 6.532738095238096 0  7.055059523809525 0.18836805555555547  7.433035714285714 0.5651041666666664  C 7.811011904761905 0.9418402777777773  8 1.4644097222222219  8 2.1328125  C 8 2.804253472222222  7.659226190476191 3.487847222222222  6.977678571428571 4.18359375  L 4.196428571428571 6.91796875  Z " fill-rule="nonzero" fill="#d9001b" stroke="none" transform="matrix(1 0 0 1 515 8747 )" />
  </g>
</svg>