<?xml version="1.0" encoding="utf-8"?>
<svg version="1.1" xmlns:xlink="http://www.w3.org/1999/xlink" width="22px" height="24px" xmlns="http://www.w3.org/2000/svg">
  <g transform="matrix(1 0 0 1 -1146 -9955 )">
    <path d="M 11 22.92857142857143  C 11.141025641025642 22.92857142857143  11.211538461538463 22.857142857142858  11.21153846153846 22.714285714285715  C 11.211538461538463 22.57142857142857  11.141025641025642 22.5  11 22.5  C 10.479967948717949 22.5  10.032652243589746 22.310267857142854  9.658052884615385 21.93080357142857  C 9.283453525641027 21.551339285714285  9.096153846153845 21.098214285714285  9.096153846153845 20.571428571428573  C 9.096153846153845 20.428571428571427  9.025641025641027 20.357142857142858  8.884615384615385 20.357142857142858  C 8.743589743589745 20.357142857142858  8.673076923076923 20.428571428571427  8.673076923076923 20.571428571428573  C 8.673076923076923 21.223214285714285  8.900040064102564 21.779017857142858  9.353966346153845 22.238839285714285  C 9.80789262820513 22.698660714285715  10.356570512820515 22.92857142857143  11 22.92857142857143  Z M 20.796875 17.678571428571427  C 21.158253205128208 18.089285714285715  21.559294871794872 18.482142857142858  22 18.857142857142858  C 22.000000000000004 19.321428571428573  21.832532051282055 19.72321428571429  21.497596153846153 20.0625  C 21.16266025641026 20.40178571428571  20.766025641025642 20.571428571428573  20.30769230769231 20.571428571428573  L 14.384615384615385 20.571428571428573  C 14.384615384615385 21.517857142857146  14.05408653846154 22.325892857142858  13.393028846153845 22.995535714285715  C 12.731971153846155 23.66517857142857  11.934294871794874 24  11 24  C 10.06570512820513 24  9.268028846153845 23.66517857142857  8.606971153846155 22.995535714285715  C 7.945913461538462 22.325892857142858  7.615384615384615 21.517857142857146  7.615384615384615 20.571428571428573  L 1.6923076923076925 20.571428571428573  C 1.2339743589743593 20.571428571428573  0.8373397435897436 20.40178571428571  0.5024038461538461 20.0625  C 0.16746794871794876 19.72321428571429  0 19.321428571428573  0 18.857142857142858  C 0.4407051282051283 18.482142857142858  0.841746794871795 18.089285714285715  1.203125 17.678571428571427  C 1.5645032051282053 17.267857142857142  1.9391025641025643 16.734375  2.326923076923077 16.078125  C 2.7147435897435903 15.421875  3.0430689102564106 14.714285714285712  3.3118990384615388 13.955357142857142  C 3.580729166666667 13.196428571428571  3.801081730769231 12.276785714285715  3.972956730769231 11.19642857142857  C 4.144831730769231 10.116071428571427  4.230769230769231 8.955357142857139  4.230769230769231 7.7142857142857135  C 4.230769230769231 6.357142857142856  4.746394230769231 5.095982142857143  5.77764423076923 3.9308035714285703  C 6.80889423076923 2.765625  8.161858974358974 2.0580357142857126  9.836538461538462 1.8080357142857135  C 9.766025641025642 1.638392857142855  9.73076923076923 1.4642857142857144  9.73076923076923 1.2857142857142865  C 9.73076923076923 0.9285714285714279  9.854166666666668 0.6249999999999991  10.100961538461538 0.375  C 10.34775641025641 0.1250000000000009  10.647435897435898 0  11 0  C 11.352564102564104 0  11.652243589743593 0.1250000000000009  11.89903846153846 0.375  C 12.145833333333334 0.6249999999999991  12.26923076923077 0.9285714285714279  12.26923076923077 1.2857142857142865  C 12.26923076923077 1.4642857142857144  12.23397435897436 1.638392857142855  12.16346153846154 1.8080357142857135  C 13.838141025641027 2.0580357142857126  15.19110576923077 2.765625  16.22235576923077 3.9308035714285703  C 17.25360576923077 5.095982142857143  17.76923076923077 6.357142857142856  17.76923076923077 7.7142857142857135  C 17.76923076923077 8.955357142857139  17.85516826923077 10.116071428571427  18.02704326923077 11.19642857142857  C 18.19891826923077 12.276785714285715  18.419270833333336 13.196428571428571  18.68810096153846 13.955357142857142  C 18.95693108974359 14.714285714285712  19.28525641025641 15.421875  19.673076923076923 16.078125  C 20.060897435897438 16.734375  20.4354967948718 17.267857142857142  20.796875 17.678571428571427  Z " fill-rule="nonzero" fill="#ffffff" stroke="none" transform="matrix(1 0 0 1 1146 9955 )" />
  </g>
</svg>