<?xml version="1.0" encoding="utf-8"?>
<svg version="1.1" xmlns:xlink="http://www.w3.org/1999/xlink" width="17px" height="14px" xmlns="http://www.w3.org/2000/svg">
  <g transform="matrix(1 0 0 1 -80 -8132 )">
    <path d="M 8.097412109375 5.974609375  C 7.474853515625 6.658203125  6.7236328125 7  5.84375 7  C 4.9638671875 7  4.212646484375 6.658203125  3.590087890625 5.974609375  C 2.967529296875 5.291015625  2.65625 4.466145833333333  2.65625 3.5  C 2.65625 2.533854166666667  2.967529296875 1.708984375  3.590087890625 1.025390625  C 4.212646484375 0.341796875  4.9638671875 0  5.84375 0  C 6.7236328125 0  7.474853515625 0.341796875  8.097412109375 1.025390625  C 8.719970703125 1.708984375  9.03125 2.533854166666667  9.03125 3.5  C 9.03125 4.466145833333333  8.719970703125 5.291015625  8.097412109375 5.974609375  Z M 13.8125 4.958333333333333  L 13.8125 8.166666666666666  L 16.734375 8.166666666666666  C 16.806315104166668 8.166666666666666  16.868570963541668 8.195529513888888  16.921142578125 8.253255208333334  C 16.973714192708336 8.310980902777779  17 8.379340277777779  17 8.458333333333334  L 17 10.208333333333334  C 17 10.287326388888888  16.973714192708336 10.355685763888888  16.921142578125 10.413411458333334  C 16.868570963541668 10.471137152777779  16.806315104166668 10.5  16.734375 10.5  L 13.8125 10.5  L 13.8125 13.708333333333332  C 13.8125 13.78732638888889  13.786214192708334 13.85568576388889  13.733642578125 13.913411458333332  C 13.681070963541668 13.971137152777777  13.618815104166668 14  13.546875 14  L 11.953125 14  C 11.881184895833334 14  11.818929036458334 13.971137152777777  11.766357421875 13.913411458333332  C 11.713785807291668 13.85568576388889  11.6875 13.78732638888889  11.6875 13.708333333333332  L 11.6875 10.5  L 8.765625 10.5  C 8.693684895833334 10.5  8.631429036458334 10.471137152777779  8.578857421875 10.413411458333334  C 8.526285807291668 10.355685763888888  8.5 10.287326388888888  8.5 10.208333333333334  L 8.5 8.458333333333334  C 8.5 8.379340277777779  8.526285807291668 8.310980902777779  8.578857421875 8.253255208333334  C 8.631429036458334 8.195529513888888  8.693684895833334 8.166666666666666  8.765625 8.166666666666666  L 11.6875 8.166666666666666  L 11.6875 4.958333333333333  C 11.6875 4.879340277777777  11.713785807291668 4.810980902777777  11.766357421875 4.753255208333333  C 11.818929036458334 4.695529513888889  11.881184895833334 4.666666666666667  11.953125 4.666666666666667  L 13.546875 4.666666666666667  C 13.618815104166668 4.666666666666667  13.681070963541668 4.695529513888889  13.733642578125 4.753255208333333  C 13.786214192708334 4.810980902777777  13.8125 4.879340277777777  13.8125 4.958333333333333  Z M 7.703125 8.458333333333334  L 7.703125 10.208333333333334  C 7.703125 10.524305555555557  7.808268229166667 10.797743055555557  8.0185546875 11.028645833333332  C 8.228841145833334 11.25954861111111  8.477864583333334 11.375  8.765625 11.375  L 10.890625 11.375  L 10.890625 13.544270833333332  C 10.514322916666668 13.848090277777777  10.041178385416668 14  9.47119140625 14  L 2.21630859375 14  C 1.5467122395833335 14  1.0099283854166667 13.790364583333332  0.60595703125 13.37109375  C 0.20198567708333331 12.951822916666668  0 12.374565972222223  0 11.639322916666668  C 0 11.317274305555557  0.009684244791666666 11.002821180555557  0.029052734375 10.695963541666668  C 0.048421223958333336 10.389105902777779  0.087158203125 10.057942708333334  0.145263671875 9.702473958333334  C 0.203369140625 9.347005208333334  0.27669270833333337 9.017361111111109  0.365234375 8.713541666666666  C 0.4537760416666667 8.409722222222221  0.57275390625 8.113498263888888  0.72216796875 7.824869791666666  C 0.8715820312500001 7.536241319444444  1.0431315104166667 7.290147569444444  1.23681640625 7.086588541666666  C 1.4305013020833335 6.883029513888889  1.6670735677083335 6.720486111111111  1.946533203125 6.598958333333333  C 2.225992838541667 6.4774305555555545  2.5345052083333335 6.416666666666667  2.8720703125 6.416666666666667  C 2.977213541666667 6.416666666666667  3.085123697916667 6.468315972222221  3.19580078125 6.571614583333333  C 3.632975260416667 6.9422743055555545  4.060465494791667 7.220269097222221  4.478271484375 7.405598958333334  C 4.896077473958334 7.590928819444444  5.351236979166667 7.68359375  5.84375 7.68359375  C 6.336263020833334 7.68359375  6.791422526041667 7.590928819444444  7.209228515625 7.405598958333334  C 7.627034505208334 7.220269097222221  8.054524739583334 6.9422743055555545  8.49169921875 6.571614583333333  C 8.602376302083334 6.468315972222221  8.710286458333334 6.416666666666667  8.8154296875 6.416666666666667  C 9.5458984375 6.416666666666667  10.146321614583334 6.708333333333333  10.61669921875 7.291666666666666  L 8.765625 7.291666666666666  C 8.477864583333334 7.291666666666666  8.228841145833334 7.407118055555556  8.0185546875 7.638020833333334  C 7.808268229166667 7.868923611111109  7.703125 8.142361111111109  7.703125 8.458333333333334  Z " fill-rule="nonzero" fill="#764ba2" stroke="none" transform="matrix(1 0 0 1 80 8132 )" />
  </g>
</svg>