<?xml version="1.0" encoding="utf-8"?>
<svg version="1.1" xmlns:xlink="http://www.w3.org/1999/xlink" width="25px" height="20px" xmlns="http://www.w3.org/2000/svg">
  <g transform="matrix(1 0 0 1 -548 -9313 )">
    <path d="M 11.907958984375 8.53515625  C 10.992431640625 9.51171875  9.8876953125 10  8.59375 10  C 7.2998046875 10  6.195068359375 9.51171875  5.279541015625 8.53515625  C 4.364013671875 7.55859375  3.90625 6.380208333333332  3.90625 5  C 3.90625 3.6197916666666674  4.364013671875 2.44140625  5.279541015625 1.46484375  C 6.195068359375 0.48828125  7.2998046875 0  8.59375 0  C 9.8876953125 0  10.992431640625 0.48828125  11.907958984375 1.46484375  C 12.823486328125 2.44140625  13.28125 3.6197916666666674  13.28125 5  C 13.28125 6.380208333333332  12.823486328125 7.55859375  11.907958984375 8.53515625  Z M 20.3125 7.083333333333332  L 20.3125 11.666666666666664  L 24.609375 11.666666666666664  C 24.715169270833336 11.666666666666664  24.806722005208336 11.707899305555554  24.884033203125 11.790364583333336  C 24.961344401041668 11.87282986111111  25 11.97048611111111  25 12.083333333333336  L 25 14.583333333333336  C 25 14.696180555555554  24.961344401041668 14.793836805555554  24.884033203125 14.876302083333336  C 24.806722005208336 14.95876736111111  24.715169270833336 15  24.609375 15  L 20.3125 15  L 20.3125 19.583333333333332  C 20.3125 19.696180555555557  20.273844401041668 19.793836805555557  20.196533203125 19.876302083333332  C 20.119222005208336 19.95876736111111  20.027669270833336 20  19.921875 20  L 17.578125 20  C 17.472330729166668 20  17.380777994791668 19.95876736111111  17.303466796875 19.876302083333332  C 17.226155598958336 19.793836805555557  17.1875 19.696180555555557  17.1875 19.583333333333332  L 17.1875 15  L 12.890625 15  C 12.784830729166668 15  12.693277994791668 14.95876736111111  12.615966796875 14.876302083333336  C 12.538655598958334 14.793836805555554  12.5 14.696180555555554  12.5 14.583333333333336  L 12.5 12.083333333333336  C 12.5 11.97048611111111  12.538655598958334 11.87282986111111  12.615966796875 11.790364583333336  C 12.693277994791668 11.707899305555554  12.784830729166668 11.666666666666664  12.890625 11.666666666666664  L 17.1875 11.666666666666664  L 17.1875 7.083333333333332  C 17.1875 6.970486111111109  17.226155598958336 6.872829861111109  17.303466796875 6.790364583333332  C 17.380777994791668 6.707899305555555  17.472330729166668 6.666666666666668  17.578125 6.666666666666668  L 19.921875 6.666666666666668  C 20.027669270833336 6.666666666666668  20.119222005208336 6.707899305555555  20.196533203125 6.790364583333332  C 20.273844401041668 6.872829861111109  20.3125 6.970486111111109  20.3125 7.083333333333332  Z M 11.328125 12.083333333333336  L 11.328125 14.583333333333336  C 11.328125 15.034722222222223  11.482747395833334 15.425347222222223  11.7919921875 15.755208333333332  C 12.101236979166668 16.085069444444443  12.467447916666668 16.25  12.890625 16.25  L 16.015625 16.25  L 16.015625 19.348958333333332  C 15.462239583333334 19.78298611111111  14.766438802083334 20  13.92822265625 20  L 3.25927734375 20  C 2.274576822916667 20  1.4851888020833335 19.700520833333332  0.89111328125 19.1015625  C 0.29703776041666663 18.502604166666668  0 17.67795138888889  0 16.627604166666668  C 0 16.16753472222222  0.014241536458333332 15.718315972222223  0.042724609375 15.279947916666668  C 0.07120768229166667 14.84157986111111  0.128173828125 14.368489583333336  0.213623046875 13.860677083333336  C 0.299072265625 13.352864583333336  0.4069010416666667 12.881944444444443  0.537109375 12.447916666666664  C 0.6673177083333334 12.01388888888889  0.84228515625 11.590711805555554  1.06201171875 11.178385416666664  C 1.2817382812500002 10.766059027777777  1.5340169270833335 10.414496527777777  1.81884765625 10.123697916666664  C 2.103678385416667 9.832899305555555  2.451578776041667 9.600694444444445  2.862548828125 9.427083333333332  C 3.2735188802083335 9.253472222222221  3.727213541666667 9.166666666666668  4.2236328125 9.166666666666668  C 4.378255208333334 9.166666666666668  4.536946614583334 9.24045138888889  4.69970703125 9.388020833333332  C 5.342610677083334 9.917534722222221  5.971272786458334 10.31467013888889  6.585693359375 10.579427083333336  C 7.200113932291667 10.844184027777777  7.869466145833334 10.9765625  8.59375 10.9765625  C 9.318033854166668 10.9765625  9.987386067708334 10.844184027777777  10.601806640625 10.579427083333336  C 11.216227213541668 10.31467013888889  11.844889322916668 9.917534722222221  12.48779296875 9.388020833333332  C 12.650553385416668 9.24045138888889  12.809244791666668 9.166666666666668  12.9638671875 9.166666666666668  C 14.0380859375 9.166666666666668  14.921061197916668 9.583333333333332  15.61279296875 10.416666666666664  L 12.890625 10.416666666666664  C 12.467447916666668 10.416666666666664  12.101236979166668 10.581597222222223  11.7919921875 10.911458333333336  C 11.482747395833334 11.241319444444443  11.328125 11.631944444444443  11.328125 12.083333333333336  Z " fill-rule="nonzero" fill="#764ba2" stroke="none" transform="matrix(1 0 0 1 548 9313 )" />
  </g>
</svg>