<?xml version="1.0" encoding="utf-8"?>
<svg version="1.1" xmlns:xlink="http://www.w3.org/1999/xlink" width="264px" height="35px" xmlns="http://www.w3.org/2000/svg">
  <g transform="matrix(1 0 0 1 -963 -10471 )">
    <path d="M 963.5 10486  A 14.5 14.5 0 0 1 978 10471.5 L 1212 10471.5  A 14.5 14.5 0 0 1 1226.5 10486 L 1226.5 10491  A 14.5 14.5 0 0 1 1212 10505.5 L 978 10505.5  A 14.5 14.5 0 0 1 963.5 10491 L 963.5 10486  Z " fill-rule="nonzero" fill="#ffffff" stroke="none" />
    <path d="M 963.5 10486  A 14.5 14.5 0 0 1 978 10471.5 L 1212 10471.5  A 14.5 14.5 0 0 1 1226.5 10486 L 1226.5 10491  A 14.5 14.5 0 0 1 1212 10505.5 L 978 10505.5  A 14.5 14.5 0 0 1 963.5 10491 L 963.5 10486  Z " stroke-width="1" stroke="#c280ff" fill="none" />
  </g>
</svg>