<?xml version="1.0" encoding="utf-8"?>
<svg version="1.1" xmlns:xlink="http://www.w3.org/1999/xlink" width="6px" height="8px" xmlns="http://www.w3.org/2000/svg">
  <g transform="matrix(1 0 0 1 -659 -9629 )">
    <path d="M 2.453125 3.6490384615384617  C 2.4843750000000004 3.6201923076923075  2.5000000000000004 3.583333333333333  2.5 3.5384615384615383  L 2.5 1.384615384615385  C 2.5000000000000004 1.3397435897435894  2.4843750000000004 1.302884615384615  2.453125 1.2740384615384617  C 2.421875 1.2451923076923075  2.3819444444444446 1.2307692307692308  2.3333333333333335 1.2307692307692308  C 2.2847222222222223 1.2307692307692308  2.2447916666666665 1.2451923076923075  2.2135416666666665 1.2740384615384617  C 2.182291666666667 1.302884615384615  2.1666666666666665 1.3397435897435894  2.1666666666666665 1.384615384615385  L 2.1666666666666665 3.5384615384615383  C 2.1666666666666665 3.583333333333333  2.182291666666667 3.6201923076923075  2.2135416666666665 3.6490384615384617  C 2.2447916666666665 3.677884615384615  2.2847222222222223 3.6923076923076925  2.3333333333333335 3.6923076923076925  C 2.3819444444444446 3.6923076923076925  2.421875 3.677884615384615  2.453125 3.6490384615384617  Z M 5.591145833333333 4.165865384615385  C 5.863715277777779 4.481570512820512  6 4.836538461538462  6 5.230769230769231  C 6 5.314102564102564  5.967013888888889 5.386217948717949  5.901041666666666 5.447115384615385  C 5.835069444444445 5.508012820512819  5.7569444444444455 5.538461538461538  5.666666666666666 5.538461538461538  L 3.432291666666667 5.538461538461538  L 3.166666666666667 7.860576923076923  C 3.1597222222222228 7.899038461538462  3.1414930555555562 7.9318910256410255  3.1119791666666665 7.959134615384615  C 3.082465277777778 7.986378205128205  3.046875 8  3.0052083333333335 8  L 3 8  C 2.90625 8  2.8506944444444446 7.956730769230769  2.833333333333333 7.8701923076923075  L 2.4375 5.538461538461538  L 0.3333333333333333 5.538461538461538  C 0.24305555555555558 5.538461538461538  0.16493055555555555 5.508012820512819  0.09895833333333334 5.447115384615385  C 0.03298611111111111 5.386217948717949  0 5.314102564102564  0 5.230769230769231  C 0 4.836538461538462  0.1362847222222222 4.481570512820512  0.40885416666666663 4.165865384615385  C 0.6814236111111112 3.8501602564102564  0.9895833333333333 3.6923076923076925  1.3333333333333333 3.6923076923076925  L 1.3333333333333333 1.2307692307692308  C 1.152777777777778 1.2307692307692308  0.9965277777777779 1.1698717948717947  0.8645833333333333 1.0480769230769234  C 0.732638888888889 0.9262820512820502  0.6666666666666666 0.782051282051281  0.6666666666666666 0.615384615384615  C 0.6666666666666666 0.448717948717948  0.732638888888889 0.30448717948717885  0.8645833333333333 0.1826923076923075  C 0.9965277777777779 0.06089743589743524  1.152777777777778 0  1.3333333333333333 0  L 4.666666666666667 0  C 4.847222222222223 0  5.003472222222222 0.06089743589743524  5.135416666666667 0.1826923076923075  C 5.267361111111112 0.30448717948717885  5.333333333333333 0.448717948717948  5.333333333333333 0.615384615384615  C 5.333333333333333 0.782051282051281  5.267361111111112 0.9262820512820502  5.135416666666667 1.0480769230769234  C 5.003472222222222 1.1698717948717947  4.847222222222223 1.2307692307692308  4.666666666666667 1.2307692307692308  L 4.666666666666667 3.6923076923076925  C 5.010416666666666 3.6923076923076925  5.318576388888889 3.8501602564102564  5.591145833333333 4.165865384615385  Z " fill-rule="nonzero" fill="#764ba2" stroke="none" transform="matrix(1 0 0 1 659 9629 )" />
  </g>
</svg>