<?xml version="1.0" encoding="utf-8"?>
<svg version="1.1" xmlns:xlink="http://www.w3.org/1999/xlink" width="7px" height="10px" xmlns="http://www.w3.org/2000/svg">
  <g transform="matrix(1 0 0 1 -1211 -10630 )">
    <path d="M 2.861979166666667 4.561298076923077  C 2.8984375000000004 4.525240384615384  2.916666666666667 4.479166666666666  2.916666666666667 4.423076923076923  L 2.916666666666667 1.7307692307692313  C 2.916666666666667 1.6746794871794868  2.8984375000000004 1.6286057692307687  2.861979166666667 1.592548076923077  C 2.8255208333333335 1.5564903846153844  2.778935185185185 1.5384615384615385  2.7222222222222223 1.5384615384615385  C 2.665509259259259 1.5384615384615385  2.6189236111111107 1.5564903846153844  2.5824652777777777 1.592548076923077  C 2.5460069444444446 1.6286057692307687  2.5277777777777777 1.6746794871794868  2.5277777777777777 1.7307692307692313  L 2.5277777777777777 4.423076923076923  C 2.5277777777777777 4.479166666666666  2.5460069444444446 4.525240384615384  2.5824652777777777 4.561298076923077  C 2.6189236111111107 4.597355769230768  2.665509259259259 4.615384615384616  2.7222222222222223 4.615384615384616  C 2.778935185185185 4.615384615384616  2.8255208333333335 4.597355769230768  2.861979166666667 4.561298076923077  Z M 6.523003472222221 5.207331730769232  C 6.841001157407408 5.60196314102564  7 6.045673076923077  7 6.538461538461538  C 7 6.642628205128204  6.961516203703704 6.732772435897436  6.884548611111111 6.808894230769232  C 6.807581018518519 6.885016025641024  6.716435185185187 6.923076923076923  6.611111111111111 6.923076923076923  L 4.004340277777779 6.923076923076923  L 3.6944444444444446 9.825721153846153  C 3.6863425925925934 9.873798076923077  3.6650752314814823 9.914863782051281  3.6306423611111107 9.948918269230768  C 3.5962094907407414 9.982972756410257  3.5546875 10  3.5060763888888893 10  L 3.5 10  C 3.390625 10  3.325810185185185 9.945913461538462  3.3055555555555554 9.837740384615385  L 2.84375 6.923076923076923  L 0.38888888888888884 6.923076923076923  C 0.2835648148148149 6.923076923076923  0.19241898148148148 6.885016025641024  0.1154513888888889 6.808894230769232  C 0.038483796296296294 6.732772435897436  0 6.642628205128204  0 6.538461538461538  C 0 6.045673076923077  0.15899884259259256 5.60196314102564  0.47699652777777773 5.207331730769232  C 0.794994212962963 4.81270032051282  1.1545138888888888 4.615384615384616  1.5555555555555554 4.615384615384616  L 1.5555555555555554 1.5384615384615385  C 1.3449074074074074 1.5384615384615385  1.162615740740741 1.4623397435897434  1.0086805555555554 1.3100961538461542  C 0.8547453703703705 1.1578525641025628  0.7777777777777777 0.9775641025641013  0.7777777777777777 0.7692307692307687  C 0.7777777777777777 0.560897435897435  0.8547453703703705 0.38060897435897356  1.0086805555555554 0.22836538461538436  C 1.162615740740741 0.07612179487179405  1.3449074074074074 0  1.5555555555555554 0  L 5.444444444444445 0  C 5.6550925925925934 0  5.8373842592592595 0.07612179487179405  5.991319444444445 0.22836538461538436  C 6.14525462962963 0.38060897435897356  6.222222222222221 0.560897435897435  6.222222222222221 0.7692307692307687  C 6.222222222222221 0.9775641025641013  6.14525462962963 1.1578525641025628  5.991319444444445 1.3100961538461542  C 5.8373842592592595 1.4623397435897434  5.6550925925925934 1.5384615384615385  5.444444444444445 1.5384615384615385  L 5.444444444444445 4.615384615384616  C 5.845486111111111 4.615384615384616  6.205005787037038 4.81270032051282  6.523003472222221 5.207331730769232  Z " fill-rule="nonzero" fill="#764ba2" stroke="none" transform="matrix(1 0 0 1 1211 10630 )" />
  </g>
</svg>