<?xml version="1.0" encoding="utf-8"?>
<svg version="1.1" xmlns:xlink="http://www.w3.org/1999/xlink" width="146px" height="70px" xmlns="http://www.w3.org/2000/svg">
  <g transform="matrix(1 0 0 1 -602 -3726 )">
    <path d="M 73.22884012539184 70  C 89.79008962098465 70  104.9091171875466 64.91322804589396  117.02296747189307 56.24312170225533  C 124.66597993936338 61.19329568255282  134.77892831876824 64.16666666666666  146 64.16666666666666  L 145.99804505159508 0.530303074476893  C 145.999347636686 0.3537078984033936  146 0.17693952024895873  146 0  L 0.45768025078369906 0  C 0.45768025078369906 0.17749474642075805  0.4583367146794525 0.35481727499344007  0.4596476880020822 0.5319680738497845  C 0.3066412732660189 0.530858893929514  0.15342421695319686 0.5303030303030303  0 0.5303030303030303  L 0 64.16666666666666  C 11.338849960621266 64.16666666666666  21.546192436131033 61.130550091018996  29.216881698471163 56.08659589577219  C 41.36709758791882 64.85197349594094  56.568174324644446 70  73.22884012539184 70  Z " fill-rule="nonzero" fill="#7f7f7f" stroke="none" transform="matrix(1 0 0 1 602 3726 )" />
  </g>
</svg>