<?xml version="1.0" encoding="utf-8"?>
<svg version="1.1" xmlns:xlink="http://www.w3.org/1999/xlink" width="129px" height="65px" xmlns="http://www.w3.org/2000/svg">
  <g transform="matrix(1 0 0 1 -320 -2894 )">
    <path d="M 64.70219435736676 65  C 79.33507918566451 65  92.693672035572 60.27656889975867  103.3970055059877 52.22575586637995  C 110.15007816560188 56.822345990941905  119.08549145973356 59.58333333333333  129 59.58333333333333  L 128.99827268257374 0.49242428344282924  C 128.9994235967979 0.32844304851743694  129 0.16430098308831884  129 0  L 0.4043887147335423 0  C 0.4043887147335423 0.16481655024784675  0.40496874105239294 0.3294731839224801  0.40612706679636035 0.4939703542890856  C 0.2709364674747701 0.4929404015059773  0.13555975333535888 0.49242424242424243  0 0.49242424242424243  L 0 59.58333333333333  C 10.01857291041194 59.58333333333333  19.03738920726646 56.76408222737478  25.814916021251918 52.08041047464561  C 36.55038074548992 60.2196896748023  49.98146909506256 65  64.70219435736676 65  Z " fill-rule="nonzero" fill="#7f7f7f" stroke="none" transform="matrix(1 0 0 1 320 2894 )" />
  </g>
</svg>