<?xml version="1.0" encoding="utf-8"?>
<svg version="1.1" xmlns:xlink="http://www.w3.org/1999/xlink" width="25px" height="27px" xmlns="http://www.w3.org/2000/svg">
  <g transform="matrix(1 0 0 1 -1162 -10731 )">
    <path d="M 12.5 25.794642857142858  C 12.660256410256412 25.794642857142858  12.740384615384617 25.714285714285715  12.740384615384615 25.553571428571427  C 12.740384615384617 25.392857142857142  12.660256410256412 25.3125  12.5 25.3125  C 11.909054487179487 25.3125  11.400741185897438 25.09905133928571  10.975060096153847 24.672154017857142  C 10.549379006410257 24.245256696428573  10.336538461538462 23.73549107142857  10.336538461538462 23.142857142857146  C 10.336538461538462 22.982142857142858  10.256410256410257 22.901785714285715  10.096153846153847 22.901785714285715  C 9.935897435897436 22.901785714285715  9.85576923076923 22.982142857142858  9.85576923076923 23.142857142857146  C 9.85576923076923 23.876116071428573  10.113681891025642 24.501395089285715  10.629507211538462 25.018694196428573  C 11.145332532051283 25.535993303571427  11.76883012820513 25.794642857142858  12.5 25.794642857142858  Z M 6.730769230769231 8.678571428571427  C 6.730769230769231 14.02232142857143  5.398637820512821 18.200892857142854  2.734375 21  L 22.265625 21  C 19.601362179487182 18.200892857142854  18.269230769230766 14.02232142857143  18.269230769230766 8.678571428571427  C 18.269230769230766 8.166294642857142  18.14903846153846 7.6389508928571415  17.908653846153847 7.096540178571428  C 17.668269230769234 6.5541294642857135  17.322716346153847 6.036830357142854  16.871995192307693 5.5446428571428585  C 16.42127403846154 5.052455357142857  15.812800480769232 4.6481584821428585  15.046574519230768 4.3317522321428585  C 14.280348557692307 4.0153459821428585  13.431490384615385 3.8571428571428585  12.5 3.8571428571428585  C 11.568509615384617 3.8571428571428585  10.719651442307693 4.0153459821428585  9.95342548076923 4.3317522321428585  C 9.18719951923077 4.6481584821428585  8.578725961538462 5.052455357142857  8.128004807692307 5.5446428571428585  C 7.677283653846153 6.036830357142854  7.331730769230769 6.5541294642857135  7.091346153846153 7.096540178571428  C 6.850961538461539 7.6389508928571415  6.730769230769231 8.166294642857142  6.730769230769231 8.678571428571427  Z M 23.6328125 19.888392857142854  C 24.043469551282055 20.35044642857143  24.49919871794872 20.792410714285715  25 21.214285714285715  C 25.000000000000007 21.736607142857142  24.809695512820515 22.188616071428573  24.42908653846154 22.5703125  C 24.048477564102566 22.952008928571427  23.597756410256412 23.142857142857146  23.076923076923077 23.142857142857146  L 16.346153846153847 23.142857142857146  C 16.346153846153847 24.20758928571429  15.970552884615385 25.116629464285715  15.219350961538462 25.869977678571427  C 14.468149038461538 26.623325892857142  13.561698717948719 27  12.5 27  C 11.438301282051283 27  10.531850961538462 26.623325892857142  9.780649038461538 25.869977678571427  C 9.029447115384617 25.116629464285715  8.653846153846153 24.20758928571429  8.653846153846153 23.142857142857146  L 1.9230769230769231 23.142857142857146  C 1.4022435897435899 23.142857142857146  0.951522435897436 22.952008928571427  0.5709134615384615 22.5703125  C 0.19030448717948725 22.188616071428573  0 21.736607142857142  0 21.214285714285715  C 0.5008012820512822 20.792410714285715  0.956530448717949 20.35044642857143  1.3671875 19.888392857142854  C 1.7778445512820515 19.426339285714285  2.203525641025641 18.826171875  2.644230769230769 18.087890625  C 3.084935897435898 17.349609375  3.458032852564103 16.553571428571427  3.7635216346153846 15.699776785714286  C 4.069010416666667 14.845982142857142  4.319411057692308 13.81138392857143  4.514723557692308 12.595982142857142  C 4.710036057692308 11.380580357142856  4.807692307692308 10.074776785714283  4.807692307692308 8.678571428571427  C 4.807692307692308 7.151785714285713  5.393629807692308 5.7329799107142865  6.5655048076923075 4.4221540178571415  C 7.7373798076923075 3.111328125  9.274839743589745 2.3152901785714266  11.177884615384617 2.034040178571428  C 11.09775641025641 1.8431919642857117  11.057692307692307 1.6473214285714288  11.057692307692307 1.4464285714285723  C 11.057692307692307 1.0446428571428563  11.197916666666668 0.703124999999999  11.478365384615383 0.421875  C 11.758814102564104 0.140625000000001  12.099358974358974 0  12.5 0  C 12.900641025641027 0  13.2411858974359 0.140625000000001  13.521634615384615 0.421875  C 13.802083333333334 0.703124999999999  13.942307692307693 1.0446428571428563  13.942307692307693 1.4464285714285723  C 13.942307692307693 1.6473214285714288  13.902243589743591 1.8431919642857117  13.822115384615385 2.034040178571428  C 15.725160256410259 2.3152901785714266  17.262620192307693 3.111328125  18.434495192307693 4.4221540178571415  C 19.606370192307693 5.7329799107142865  20.192307692307693 7.151785714285713  20.192307692307693 8.678571428571427  C 20.192307692307693 10.074776785714283  20.289963942307693 11.380580357142856  20.485276442307693 12.595982142857142  C 20.680588942307693 13.81138392857143  20.930989583333336 14.845982142857142  21.236478365384613 15.699776785714286  C 21.5419671474359 16.553571428571427  21.915064102564102 17.349609375  22.355769230769234 18.087890625  C 22.79647435897436 18.826171875  23.222155448717956 19.426339285714285  23.6328125 19.888392857142854  Z " fill-rule="nonzero" fill="#ffffff" stroke="none" transform="matrix(1 0 0 1 1162 10731 )" />
  </g>
</svg>