<?xml version="1.0" encoding="utf-8"?>
<svg version="1.1" xmlns:xlink="http://www.w3.org/1999/xlink" width="20px" height="22px" xmlns="http://www.w3.org/2000/svg">
  <g transform="matrix(1 0 0 1 -630 -9703 )">
    <path d="M 10 21.017857142857142  C 10.12820512820513 21.017857142857142  10.192307692307693 20.952380952380953  10.192307692307692 20.82142857142857  C 10.192307692307693 20.69047619047619  10.12820512820513 20.625  10 20.625  C 9.527243589743591 20.625  9.12059294871795 20.451078869047617  8.780048076923077 20.103236607142858  C 8.439503205128206 19.755394345238095  8.269230769230768 19.34002976190476  8.269230769230768 18.857142857142858  C 8.269230769230768 18.726190476190474  8.205128205128206 18.660714285714285  8.076923076923077 18.660714285714285  C 7.948717948717949 18.660714285714285  7.884615384615384 18.726190476190474  7.884615384615384 18.857142857142858  C 7.884615384615384 19.454613095238095  8.090945512820513 19.964099702380953  8.503605769230768 20.38560267857143  C 8.916266025641026 20.807105654761905  9.415064102564104 21.017857142857142  10 21.017857142857142  Z M 5.384615384615384 7.071428571428571  C 5.384615384615384 11.425595238095239  4.318910256410256 14.830357142857142  2.1875 17  L 17.8125 17  C 15.681089743589745 14.830357142857142  14.615384615384615 11.425595238095239  14.615384615384615 7.071428571428571  C 14.615384615384615 6.654017857142856  14.519230769230768 6.224330357142856  14.326923076923077 5.782366071428571  C 14.134615384615385 5.340401785714286  13.858173076923077 4.9188988095238075  13.497596153846153 4.517857142857144  C 13.137019230769232 4.116815476190475  12.650240384615385 3.787388392857144  12.037259615384615 3.529575892857144  C 11.424278846153847 3.271763392857144  10.745192307692308 3.142857142857144  10 3.142857142857144  C 9.254807692307693 3.142857142857144  8.575721153846153 3.271763392857144  7.962740384615384 3.529575892857144  C 7.349759615384616 3.787388392857144  6.862980769230768 4.116815476190475  6.502403846153846 4.517857142857144  C 6.141826923076923 4.9188988095238075  5.865384615384616 5.340401785714286  5.673076923076923 5.782366071428571  C 5.480769230769232 6.224330357142856  5.384615384615384 6.654017857142856  5.384615384615384 7.071428571428571  Z M 18.90625 16.205357142857142  C 19.234775641025642 16.58184523809524  19.599358974358974 16.941964285714285  20 17.285714285714285  C 20.000000000000004 17.711309523809526  19.847756410256412 18.0796130952381  19.54326923076923 18.390625  C 19.23878205128205 18.7016369047619  18.87820512820513 18.857142857142858  18.461538461538463 18.857142857142858  L 13.076923076923077 18.857142857142858  C 13.076923076923077 19.724702380952383  12.776442307692308 20.465401785714285  12.175480769230768 21.07924107142857  C 11.574519230769232 21.693080357142858  10.849358974358976 22  10 22  C 9.150641025641026 22  8.425480769230768 21.693080357142858  7.824519230769232 21.07924107142857  C 7.2235576923076925 20.465401785714285  6.923076923076923 19.724702380952383  6.923076923076923 18.857142857142858  L 1.5384615384615385 18.857142857142858  C 1.121794871794872 18.857142857142858  0.7612179487179488 18.7016369047619  0.4567307692307692 18.390625  C 0.15224358974358979 18.0796130952381  0 17.711309523809526  0 17.285714285714285  C 0.40064102564102577 16.941964285714285  0.7652243589743591 16.58184523809524  1.09375 16.205357142857142  C 1.4222756410256412 15.828869047619046  1.762820512820513 15.33984375  2.1153846153846154 14.73828125  C 2.4679487179487185 14.13671875  2.7664262820512824 13.488095238095237  3.010817307692308 12.792410714285715  C 3.255208333333334 12.09672619047619  3.4555288461538463 11.253720238095239  3.6117788461538463 10.263392857142856  C 3.7680288461538463 9.273065476190476  3.8461538461538463 8.209077380952378  3.8461538461538463 7.071428571428571  C 3.8461538461538463 5.827380952380951  4.314903846153847 4.671316964285714  5.252403846153846 3.603236607142856  C 6.189903846153846 2.53515625  7.419871794871796 1.8865327380952366  8.942307692307693 1.6573660714285707  C 8.87820512820513 1.501860119047617  8.846153846153847 1.3422619047619049  8.846153846153847 1.1785714285714293  C 8.846153846153847 0.8511904761904756  8.958333333333334 0.5729166666666659  9.182692307692307 0.34375  C 9.407051282051283 0.11458333333333415  9.679487179487179 0  10 0  C 10.320512820512821 0  10.59294871794872 0.11458333333333415  10.817307692307692 0.34375  C 11.041666666666668 0.5729166666666659  11.153846153846153 0.8511904761904756  11.153846153846153 1.1785714285714293  C 11.153846153846153 1.3422619047619049  11.121794871794872 1.501860119047617  11.057692307692308 1.6573660714285707  C 12.580128205128208 1.8865327380952366  13.810096153846153 2.53515625  14.747596153846153 3.603236607142856  C 15.685096153846153 4.671316964285714  16.153846153846153 5.827380952380951  16.153846153846153 7.071428571428571  C 16.153846153846153 8.209077380952378  16.231971153846153 9.273065476190476  16.388221153846153 10.263392857142856  C 16.544471153846153 11.253720238095239  16.744791666666668 12.09672619047619  16.989182692307693 12.792410714285715  C 17.23357371794872 13.488095238095237  17.53205128205128 14.13671875  17.884615384615387 14.73828125  C 18.23717948717949 15.33984375  18.577724358974365 15.828869047619046  18.90625 16.205357142857142  Z " fill-rule="nonzero" fill="#ffffff" stroke="none" transform="matrix(1 0 0 1 630 9703 )" />
  </g>
</svg>