<?xml version="1.0" encoding="utf-8"?>
<svg version="1.1" xmlns:xlink="http://www.w3.org/1999/xlink" width="6px" height="10px" xmlns="http://www.w3.org/2000/svg">
  <g transform="matrix(1 0 0 1 -276 -9889 )">
    <path d="M 5.896907216494845 0.6012024048096187  C 5.965635738831616 0.6680026720106869  6 0.7448229792919159  6 0.8316633266533069  C 6 0.9185036740146957  5.965635738831616 0.9953239812959247  5.896907216494845 1.062124248496994  L 1.8453608247422681 5  L 5.896907216494845 8.937875751503006  C 5.965635738831616 9.004676018704075  6 9.081496325985302  6 9.168336673346694  C 6 9.255177020708082  5.965635738831616 9.331997327989312  5.896907216494845 9.39879759519038  L 5.381443298969073 9.899799599198397  C 5.312714776632303 9.966599866399466  5.233676975945018 10  5.144329896907216 10  C 5.0549828178694165 10  4.975945017182132 9.966599866399466  4.907216494845361 9.899799599198397  L 0.10309278350515465 5.230460921843687  C 0.0343642611683849 5.163660654642618  0 5.086840347361389  0 5  C 0 4.91315965263861  0.0343642611683849 4.836339345357381  0.10309278350515465 4.769539078156313  L 4.907216494845361 0.1002004008016033  C 4.975945017182132 0.033400133600534065  5.0549828178694165 0  5.144329896907216 0  C 5.233676975945018 0  5.312714776632303 0.033400133600534065  5.381443298969073 0.1002004008016033  L 5.896907216494845 0.6012024048096187  Z " fill-rule="nonzero" fill="#764ba2" stroke="none" transform="matrix(1 0 0 1 276 9889 )" />
  </g>
</svg>