<?xml version="1.0" encoding="utf-8"?>
<svg version="1.1" xmlns:xlink="http://www.w3.org/1999/xlink" width="20px" height="20px" xmlns="http://www.w3.org/2000/svg">
  <g transform="matrix(1 0 0 1 -360 -10887 )">
    <path d="M 13.176470588235297 15.294117647058822  L 19.529411764705884 10  L 13.176470588235297 4.705882352941177  L 13.176470588235297 7.88235294117647  L 5.764705882352942 7.88235294117647  L 5.764705882352942 12.11764705882353  L 13.176470588235297 12.11764705882353  L 13.176470588235297 15.294117647058822  Z M 2.588235294117647 17.411764705882355  L 2.588235294117647 2.588235294117647  L 11.058823529411764 2.588235294117647  L 11.058823529411764 0.47058823529411764  L 2.588235294117647 0.47058823529411764  C 1.4235294117647057 0.47058823529411764  0.47058823529411764 1.4235294117647057  0.47058823529411764 2.588235294117647  L 0.47058823529411764 17.411764705882355  C 0.47058823529411764 18.576470588235296  1.4235294117647057 19.529411764705884  2.588235294117647 19.529411764705884  L 11.058823529411764 19.529411764705884  L 11.058823529411764 17.411764705882355  L 2.588235294117647 17.411764705882355  Z " fill-rule="nonzero" fill="#764ba2" stroke="none" transform="matrix(1 0 0 1 360 10887 )" />
  </g>
</svg>