<?xml version="1.0" encoding="utf-8"?>
<svg version="1.1" xmlns:xlink="http://www.w3.org/1999/xlink" width="14px" height="14px" xmlns="http://www.w3.org/2000/svg">
  <g transform="matrix(1 0 0 1 -272 -9826 )">
    <path d="M 9.223529411764707 10.705882352941176  L 13.670588235294119 7  L 9.223529411764707 3.2941176470588234  L 9.223529411764707 5.517647058823529  L 4.03529411764706 5.517647058823529  L 4.03529411764706 8.482352941176472  L 9.223529411764707 8.482352941176472  L 9.223529411764707 10.705882352941176  Z M 2 12.188235294117646  L 2 1.8117647058823532  L 7.741176470588236 1.8117647058823532  L 7.741176470588236 0.32941176470588235  L 1.8117647058823532 0.32941176470588235  C 0.996470588235294 0.32941176470588235  0.32941176470588235 0.996470588235294  0.32941176470588235 1.8117647058823532  L 0.32941176470588235 12.188235294117646  C 0.32941176470588235 13.003529411764708  0.996470588235294 13.670588235294119  1.8117647058823532 13.670588235294119  L 7.741176470588236 13.670588235294119  L 7.741176470588236 12.188235294117646  L 2 12.188235294117646  Z " fill-rule="nonzero" fill="#764ba2" stroke="none" transform="matrix(1 0 0 1 272 9826 )" />
  </g>
</svg>