<?xml version="1.0" encoding="utf-8"?>
<svg version="1.1" xmlns:xlink="http://www.w3.org/1999/xlink" width="20px" height="20px" xmlns="http://www.w3.org/2000/svg">
  <defs>
    <mask fill="white" id="clip57">
      <path d="M 19.957386363636363 15.497159090909092  C 19.985795454545453 15.563446969696969  20 15.662878787878785  20 15.795454545454547  C 20 16.051136363636363  19.952651515151516 16.38494318181818  19.857954545454547 16.796875  C 19.763257575757578 17.20880681818182  19.663825757575758 17.533143939393938  19.559659090909093 17.769886363636363  C 19.360795454545453 18.24337121212121  18.78314393939394 18.745265151515152  17.826704545454547 19.27556818181818  C 16.93655303030303 19.758522727272727  16.055871212121215 20  15.184659090909092 20  C 14.928977272727273 20  14.678030303030305 19.98342803030303  14.431818181818182 19.950284090909093  C 14.185606060606062 19.917140151515152  13.913352272727275 19.857954545454547  13.615056818181818 19.772727272727273  C 13.316761363636365 19.6875  13.094223484848486 19.618844696969695  12.947443181818182 19.566761363636363  C 12.80066287878788 19.51467803030303  12.537878787878789 19.417613636363637  12.159090909090908 19.27556818181818  C 11.780303030303031 19.133522727272727  11.548295454545457 19.048295454545453  11.463068181818182 19.019886363636363  C 10.53503787878788 18.68844696969697  9.706439393939394 18.295454545454547  8.977272727272727 17.840909090909093  C 7.774621212121212 17.09280303030303  6.524621212121212 16.070075757575758  5.227272727272727 14.772727272727273  C 3.9299242424242427 13.475378787878785  2.90719696969697 12.225378787878789  2.159090909090909 11.022727272727273  C 1.7045454545454544 10.293560606060606  1.3115530303030303 9.46496212121212  0.9801136363636364 8.536931818181818  C 0.9517045454545454 8.451704545454543  0.8664772727272728 8.219696969696969  0.7244318181818182 7.840909090909092  C 0.5823863636363636 7.462121212121211  0.4853219696969697 7.199337121212119  0.4332386363636364 7.052556818181818  C 0.38115530303030304 6.905776515151514  0.3125 6.683238636363635  0.2272727272727273 6.384943181818182  C 0.14204545454545453 6.086647727272725  0.0828598484848485 5.814393939393938  0.04971590909090909 5.568181818181818  C 0.016571969696969696 5.3219696969696955  0 5.071022727272727  0 4.815340909090908  C 0 3.9441287878787867  0.2414772727272727 3.063446969696968  0.7244318181818182 2.173295454545454  C 1.2547348484848486 1.2168560606060574  1.7566287878787878 0.6392045454545459  2.2301136363636367 0.4403409090909083  C 2.4668560606060606 0.3361742424242409  2.7911931818181817 0.2367424242424221  3.203125 0.14204545454545414  C 3.6150568181818183 0.047348484848483974  3.9488636363636367 0  4.204545454545455 0  C 4.337121212121213 0  4.436553030303031 0.014204545454545858  4.502840909090909 0.042613636363635354  C 4.673295454545455 0.09943181818181879  4.924242424242424 0.45928030303030276  5.2556818181818175 1.1221590909090917  C 5.359848484848485 1.3020833333333304  5.50189393939394 1.5577651515151492  5.6818181818181825 1.8892045454545459  C 5.861742424242424 2.220643939393938  6.027462121212121 2.521306818181819  6.178977272727273 2.791193181818181  C 6.330492424242424 3.061079545454546  6.477272727272727 3.314393939393938  6.6193181818181825 3.5511363636363646  C 6.647727272727273 3.589015151515149  6.730587121212121 3.7073863636363646  6.867897727272727 3.90625  C 7.005208333333335 4.105113636363635  7.107007575757577 4.273200757575757  7.173295454545454 4.410511363636365  C 7.239583333333334 4.547821969696968  7.272727272727273 4.682765151515149  7.272727272727273 4.815340909090908  C 7.272727272727273 5.004734848484846  7.137784090909091 5.241477272727273  6.867897727272727 5.525568181818182  C 6.598011363636363 5.809659090909092  6.304450757575758 6.070075757575757  5.987215909090909 6.306818181818182  C 5.6699810606060606 6.543560606060604  5.376420454545454 6.794507575757576  5.106534090909091 7.059659090909092  C 4.836647727272727 7.3248106060606055  4.701704545454545 7.542613636363635  4.701704545454545 7.713068181818182  C 4.701704545454545 7.798295454545454  4.725378787878788 7.904829545454546  4.772727272727273 8.032670454545453  C 4.820075757575758 8.160511363636365  4.860321969696971 8.257575757575758  4.893465909090909 8.323863636363635  C 4.9266098484848495 8.390151515151514  4.992897727272727 8.503787878787879  5.092329545454546 8.664772727272727  C 5.191761363636363 8.825757575757576  5.246212121212121 8.915719696969697  5.2556818181818175 8.934659090909092  C 5.975378787878788 10.232007575757574  6.799242424242424 11.344696969696969  7.727272727272727 12.272727272727273  C 8.655303030303031 13.200757575757574  9.767992424242426 14.024621212121211  11.065340909090908 14.744318181818183  C 11.084280303030303 14.753787878787875  11.174242424242424 14.808238636363637  11.335227272727273 14.907670454545453  C 11.496212121212121 15.007102272727273  11.609848484848486 15.073390151515149  11.676136363636365 15.106534090909092  C 11.742424242424242 15.13967803030303  11.839488636363635 15.17992424242424  11.967329545454547 15.227272727272727  C 12.095170454545453 15.274621212121211  12.201704545454547 15.298295454545453  12.286931818181818 15.298295454545453  C 12.457386363636365 15.298295454545453  12.675189393939394 15.163352272727273  12.940340909090908 14.893465909090908  C 13.205492424242424 14.623579545454547  13.456439393939396 14.330018939393938  13.693181818181818 14.012784090909092  C 13.929924242424242 13.695549242424239  14.190340909090908 13.401988636363637  14.474431818181818 13.132102272727273  C 14.758522727272727 12.862215909090908  14.995265151515154 12.727272727272727  15.184659090909092 12.727272727272727  C 15.317234848484851 12.727272727272727  15.452178030303031 12.760416666666664  15.589488636363635 12.826704545454547  C 15.726799242424242 12.892992424242422  15.894886363636365 12.994791666666664  16.09375 13.132102272727273  C 16.292613636363637 13.269412878787875  16.41098484848485 13.352272727272727  16.448863636363637 13.380681818181817  C 16.685606060606062 13.522727272727273  16.938920454545453 13.669507575757574  17.20880681818182 13.821022727272727  C 17.47869318181818 13.972537878787875  17.779356060606062 14.138257575757574  18.110795454545453 14.318181818181817  C 18.44223484848485 14.498106060606059  18.69791666666667 14.640151515151514  18.877840909090907 14.744318181818183  C 19.540719696969695 15.075757575757574  19.90056818181818 15.326704545454547  19.957386363636363 15.497159090909092  Z " fill-rule="evenodd" />
    </mask>
  </defs>
  <g transform="matrix(1 0 0 1 -731 -10620 )">
    <path d="M 19.957386363636363 15.497159090909092  C 19.985795454545453 15.563446969696969  20 15.662878787878785  20 15.795454545454547  C 20 16.051136363636363  19.952651515151516 16.38494318181818  19.857954545454547 16.796875  C 19.763257575757578 17.20880681818182  19.663825757575758 17.533143939393938  19.559659090909093 17.769886363636363  C 19.360795454545453 18.24337121212121  18.78314393939394 18.745265151515152  17.826704545454547 19.27556818181818  C 16.93655303030303 19.758522727272727  16.055871212121215 20  15.184659090909092 20  C 14.928977272727273 20  14.678030303030305 19.98342803030303  14.431818181818182 19.950284090909093  C 14.185606060606062 19.917140151515152  13.913352272727275 19.857954545454547  13.615056818181818 19.772727272727273  C 13.316761363636365 19.6875  13.094223484848486 19.618844696969695  12.947443181818182 19.566761363636363  C 12.80066287878788 19.51467803030303  12.537878787878789 19.417613636363637  12.159090909090908 19.27556818181818  C 11.780303030303031 19.133522727272727  11.548295454545457 19.048295454545453  11.463068181818182 19.019886363636363  C 10.53503787878788 18.68844696969697  9.706439393939394 18.295454545454547  8.977272727272727 17.840909090909093  C 7.774621212121212 17.09280303030303  6.524621212121212 16.070075757575758  5.227272727272727 14.772727272727273  C 3.9299242424242427 13.475378787878785  2.90719696969697 12.225378787878789  2.159090909090909 11.022727272727273  C 1.7045454545454544 10.293560606060606  1.3115530303030303 9.46496212121212  0.9801136363636364 8.536931818181818  C 0.9517045454545454 8.451704545454543  0.8664772727272728 8.219696969696969  0.7244318181818182 7.840909090909092  C 0.5823863636363636 7.462121212121211  0.4853219696969697 7.199337121212119  0.4332386363636364 7.052556818181818  C 0.38115530303030304 6.905776515151514  0.3125 6.683238636363635  0.2272727272727273 6.384943181818182  C 0.14204545454545453 6.086647727272725  0.0828598484848485 5.814393939393938  0.04971590909090909 5.568181818181818  C 0.016571969696969696 5.3219696969696955  0 5.071022727272727  0 4.815340909090908  C 0 3.9441287878787867  0.2414772727272727 3.063446969696968  0.7244318181818182 2.173295454545454  C 1.2547348484848486 1.2168560606060574  1.7566287878787878 0.6392045454545459  2.2301136363636367 0.4403409090909083  C 2.4668560606060606 0.3361742424242409  2.7911931818181817 0.2367424242424221  3.203125 0.14204545454545414  C 3.6150568181818183 0.047348484848483974  3.9488636363636367 0  4.204545454545455 0  C 4.337121212121213 0  4.436553030303031 0.014204545454545858  4.502840909090909 0.042613636363635354  C 4.673295454545455 0.09943181818181879  4.924242424242424 0.45928030303030276  5.2556818181818175 1.1221590909090917  C 5.359848484848485 1.3020833333333304  5.50189393939394 1.5577651515151492  5.6818181818181825 1.8892045454545459  C 5.861742424242424 2.220643939393938  6.027462121212121 2.521306818181819  6.178977272727273 2.791193181818181  C 6.330492424242424 3.061079545454546  6.477272727272727 3.314393939393938  6.6193181818181825 3.5511363636363646  C 6.647727272727273 3.589015151515149  6.730587121212121 3.7073863636363646  6.867897727272727 3.90625  C 7.005208333333335 4.105113636363635  7.107007575757577 4.273200757575757  7.173295454545454 4.410511363636365  C 7.239583333333334 4.547821969696968  7.272727272727273 4.682765151515149  7.272727272727273 4.815340909090908  C 7.272727272727273 5.004734848484846  7.137784090909091 5.241477272727273  6.867897727272727 5.525568181818182  C 6.598011363636363 5.809659090909092  6.304450757575758 6.070075757575757  5.987215909090909 6.306818181818182  C 5.6699810606060606 6.543560606060604  5.376420454545454 6.794507575757576  5.106534090909091 7.059659090909092  C 4.836647727272727 7.3248106060606055  4.701704545454545 7.542613636363635  4.701704545454545 7.713068181818182  C 4.701704545454545 7.798295454545454  4.725378787878788 7.904829545454546  4.772727272727273 8.032670454545453  C 4.820075757575758 8.160511363636365  4.860321969696971 8.257575757575758  4.893465909090909 8.323863636363635  C 4.9266098484848495 8.390151515151514  4.992897727272727 8.503787878787879  5.092329545454546 8.664772727272727  C 5.191761363636363 8.825757575757576  5.246212121212121 8.915719696969697  5.2556818181818175 8.934659090909092  C 5.975378787878788 10.232007575757574  6.799242424242424 11.344696969696969  7.727272727272727 12.272727272727273  C 8.655303030303031 13.200757575757574  9.767992424242426 14.024621212121211  11.065340909090908 14.744318181818183  C 11.084280303030303 14.753787878787875  11.174242424242424 14.808238636363637  11.335227272727273 14.907670454545453  C 11.496212121212121 15.007102272727273  11.609848484848486 15.073390151515149  11.676136363636365 15.106534090909092  C 11.742424242424242 15.13967803030303  11.839488636363635 15.17992424242424  11.967329545454547 15.227272727272727  C 12.095170454545453 15.274621212121211  12.201704545454547 15.298295454545453  12.286931818181818 15.298295454545453  C 12.457386363636365 15.298295454545453  12.675189393939394 15.163352272727273  12.940340909090908 14.893465909090908  C 13.205492424242424 14.623579545454547  13.456439393939396 14.330018939393938  13.693181818181818 14.012784090909092  C 13.929924242424242 13.695549242424239  14.190340909090908 13.401988636363637  14.474431818181818 13.132102272727273  C 14.758522727272727 12.862215909090908  14.995265151515154 12.727272727272727  15.184659090909092 12.727272727272727  C 15.317234848484851 12.727272727272727  15.452178030303031 12.760416666666664  15.589488636363635 12.826704545454547  C 15.726799242424242 12.892992424242422  15.894886363636365 12.994791666666664  16.09375 13.132102272727273  C 16.292613636363637 13.269412878787875  16.41098484848485 13.352272727272727  16.448863636363637 13.380681818181817  C 16.685606060606062 13.522727272727273  16.938920454545453 13.669507575757574  17.20880681818182 13.821022727272727  C 17.47869318181818 13.972537878787875  17.779356060606062 14.138257575757574  18.110795454545453 14.318181818181817  C 18.44223484848485 14.498106060606059  18.69791666666667 14.640151515151514  18.877840909090907 14.744318181818183  C 19.540719696969695 15.075757575757574  19.90056818181818 15.326704545454547  19.957386363636363 15.497159090909092  Z " fill-rule="nonzero" fill="#000000" stroke="none" fill-opacity="0" transform="matrix(1 0 0 1 731 10620 )" />
    <path d="M 19.957386363636363 15.497159090909092  C 19.985795454545453 15.563446969696969  20 15.662878787878785  20 15.795454545454547  C 20 16.051136363636363  19.952651515151516 16.38494318181818  19.857954545454547 16.796875  C 19.763257575757578 17.20880681818182  19.663825757575758 17.533143939393938  19.559659090909093 17.769886363636363  C 19.360795454545453 18.24337121212121  18.78314393939394 18.745265151515152  17.826704545454547 19.27556818181818  C 16.93655303030303 19.758522727272727  16.055871212121215 20  15.184659090909092 20  C 14.928977272727273 20  14.678030303030305 19.98342803030303  14.431818181818182 19.950284090909093  C 14.185606060606062 19.917140151515152  13.913352272727275 19.857954545454547  13.615056818181818 19.772727272727273  C 13.316761363636365 19.6875  13.094223484848486 19.618844696969695  12.947443181818182 19.566761363636363  C 12.80066287878788 19.51467803030303  12.537878787878789 19.417613636363637  12.159090909090908 19.27556818181818  C 11.780303030303031 19.133522727272727  11.548295454545457 19.048295454545453  11.463068181818182 19.019886363636363  C 10.53503787878788 18.68844696969697  9.706439393939394 18.295454545454547  8.977272727272727 17.840909090909093  C 7.774621212121212 17.09280303030303  6.524621212121212 16.070075757575758  5.227272727272727 14.772727272727273  C 3.9299242424242427 13.475378787878785  2.90719696969697 12.225378787878789  2.159090909090909 11.022727272727273  C 1.7045454545454544 10.293560606060606  1.3115530303030303 9.46496212121212  0.9801136363636364 8.536931818181818  C 0.9517045454545454 8.451704545454543  0.8664772727272728 8.219696969696969  0.7244318181818182 7.840909090909092  C 0.5823863636363636 7.462121212121211  0.4853219696969697 7.199337121212119  0.4332386363636364 7.052556818181818  C 0.38115530303030304 6.905776515151514  0.3125 6.683238636363635  0.2272727272727273 6.384943181818182  C 0.14204545454545453 6.086647727272725  0.0828598484848485 5.814393939393938  0.04971590909090909 5.568181818181818  C 0.016571969696969696 5.3219696969696955  0 5.071022727272727  0 4.815340909090908  C 0 3.9441287878787867  0.2414772727272727 3.063446969696968  0.7244318181818182 2.173295454545454  C 1.2547348484848486 1.2168560606060574  1.7566287878787878 0.6392045454545459  2.2301136363636367 0.4403409090909083  C 2.4668560606060606 0.3361742424242409  2.7911931818181817 0.2367424242424221  3.203125 0.14204545454545414  C 3.6150568181818183 0.047348484848483974  3.9488636363636367 0  4.204545454545455 0  C 4.337121212121213 0  4.436553030303031 0.014204545454545858  4.502840909090909 0.042613636363635354  C 4.673295454545455 0.09943181818181879  4.924242424242424 0.45928030303030276  5.2556818181818175 1.1221590909090917  C 5.359848484848485 1.3020833333333304  5.50189393939394 1.5577651515151492  5.6818181818181825 1.8892045454545459  C 5.861742424242424 2.220643939393938  6.027462121212121 2.521306818181819  6.178977272727273 2.791193181818181  C 6.330492424242424 3.061079545454546  6.477272727272727 3.314393939393938  6.6193181818181825 3.5511363636363646  C 6.647727272727273 3.589015151515149  6.730587121212121 3.7073863636363646  6.867897727272727 3.90625  C 7.005208333333335 4.105113636363635  7.107007575757577 4.273200757575757  7.173295454545454 4.410511363636365  C 7.239583333333334 4.547821969696968  7.272727272727273 4.682765151515149  7.272727272727273 4.815340909090908  C 7.272727272727273 5.004734848484846  7.137784090909091 5.241477272727273  6.867897727272727 5.525568181818182  C 6.598011363636363 5.809659090909092  6.304450757575758 6.070075757575757  5.987215909090909 6.306818181818182  C 5.6699810606060606 6.543560606060604  5.376420454545454 6.794507575757576  5.106534090909091 7.059659090909092  C 4.836647727272727 7.3248106060606055  4.701704545454545 7.542613636363635  4.701704545454545 7.713068181818182  C 4.701704545454545 7.798295454545454  4.725378787878788 7.904829545454546  4.772727272727273 8.032670454545453  C 4.820075757575758 8.160511363636365  4.860321969696971 8.257575757575758  4.893465909090909 8.323863636363635  C 4.9266098484848495 8.390151515151514  4.992897727272727 8.503787878787879  5.092329545454546 8.664772727272727  C 5.191761363636363 8.825757575757576  5.246212121212121 8.915719696969697  5.2556818181818175 8.934659090909092  C 5.975378787878788 10.232007575757574  6.799242424242424 11.344696969696969  7.727272727272727 12.272727272727273  C 8.655303030303031 13.200757575757574  9.767992424242426 14.024621212121211  11.065340909090908 14.744318181818183  C 11.084280303030303 14.753787878787875  11.174242424242424 14.808238636363637  11.335227272727273 14.907670454545453  C 11.496212121212121 15.007102272727273  11.609848484848486 15.073390151515149  11.676136363636365 15.106534090909092  C 11.742424242424242 15.13967803030303  11.839488636363635 15.17992424242424  11.967329545454547 15.227272727272727  C 12.095170454545453 15.274621212121211  12.201704545454547 15.298295454545453  12.286931818181818 15.298295454545453  C 12.457386363636365 15.298295454545453  12.675189393939394 15.163352272727273  12.940340909090908 14.893465909090908  C 13.205492424242424 14.623579545454547  13.456439393939396 14.330018939393938  13.693181818181818 14.012784090909092  C 13.929924242424242 13.695549242424239  14.190340909090908 13.401988636363637  14.474431818181818 13.132102272727273  C 14.758522727272727 12.862215909090908  14.995265151515154 12.727272727272727  15.184659090909092 12.727272727272727  C 15.317234848484851 12.727272727272727  15.452178030303031 12.760416666666664  15.589488636363635 12.826704545454547  C 15.726799242424242 12.892992424242422  15.894886363636365 12.994791666666664  16.09375 13.132102272727273  C 16.292613636363637 13.269412878787875  16.41098484848485 13.352272727272727  16.448863636363637 13.380681818181817  C 16.685606060606062 13.522727272727273  16.938920454545453 13.669507575757574  17.20880681818182 13.821022727272727  C 17.47869318181818 13.972537878787875  17.779356060606062 14.138257575757574  18.110795454545453 14.318181818181817  C 18.44223484848485 14.498106060606059  18.69791666666667 14.640151515151514  18.877840909090907 14.744318181818183  C 19.540719696969695 15.075757575757574  19.90056818181818 15.326704545454547  19.957386363636363 15.497159090909092  Z " stroke-width="2" stroke="#ffffff" fill="none" transform="matrix(1 0 0 1 731 10620 )" mask="url(#clip57)" />
  </g>
</svg>