<?xml version="1.0" encoding="utf-8"?>
<svg version="1.1" xmlns:xlink="http://www.w3.org/1999/xlink" width="23px" height="18px" xmlns="http://www.w3.org/2000/svg">
  <defs>
    <mask fill="white" id="clip59">
      <path d="M 22.49944196428571 0.5203125000000004  C 22.83314732142857 0.6796874999999993  23 0.9562499999999996  23 1.3499999999999992  L 23 16.650000000000002  C 23 17.04375  22.83314732142857 17.3203125  22.49944196428571 17.4796875  C 22.388206845238095 17.526562499999997  22.281250000000004 17.55  22.17857142857143 17.55  C 21.947544642857146 17.55  21.755022321428573 17.4609375  21.60100446428571 17.282812500000002  L 16.42857142857143 11.615625  L 16.42857142857143 13.950000000000001  C 16.42857142857143 15.065624999999999  16.067057291666668 16.01953125  15.344029017857142 16.81171875  C 14.621000744047619 17.603906249999998  13.750372023809526 18  12.732142857142858 18  L 3.6964285714285716 18  C 2.678199404761905 18  1.8075706845238098 17.603906249999998  1.0845424107142856 16.81171875  C 0.3615141369047619 16.01953125  0 15.065624999999999  0 13.950000000000001  L 0 4.05  C 0 2.934374999999997  0.3615141369047619 1.9804687499999993  1.0845424107142856 1.1882812500000004  C 1.8075706845238098 0.39609374999999747  2.678199404761905 0  3.6964285714285716 0  L 12.732142857142858 0  C 13.750372023809526 0  14.621000744047619 0.39609374999999747  15.344029017857142 1.1882812500000004  C 16.067057291666668 1.9804687499999993  16.42857142857143 2.934374999999997  16.42857142857143 4.05  L 16.42857142857143 6.3703125  L 21.60100446428571 0.7171874999999992  C 21.755022321428573 0.5390624999999993  21.947544642857146 0.4500000000000004  22.17857142857143 0.4500000000000004  C 22.281250000000004 0.4500000000000004  22.388206845238095 0.47343749999999707  22.49944196428571 0.5203125000000004  Z " fill-rule="evenodd" />
    </mask>
  </defs>
  <g transform="matrix(1 0 0 1 -794 -10621 )">
    <path d="M 22.49944196428571 0.5203125000000004  C 22.83314732142857 0.6796874999999993  23 0.9562499999999996  23 1.3499999999999992  L 23 16.650000000000002  C 23 17.04375  22.83314732142857 17.3203125  22.49944196428571 17.4796875  C 22.388206845238095 17.526562499999997  22.281250000000004 17.55  22.17857142857143 17.55  C 21.947544642857146 17.55  21.755022321428573 17.4609375  21.60100446428571 17.282812500000002  L 16.42857142857143 11.615625  L 16.42857142857143 13.950000000000001  C 16.42857142857143 15.065624999999999  16.067057291666668 16.01953125  15.344029017857142 16.81171875  C 14.621000744047619 17.603906249999998  13.750372023809526 18  12.732142857142858 18  L 3.6964285714285716 18  C 2.678199404761905 18  1.8075706845238098 17.603906249999998  1.0845424107142856 16.81171875  C 0.3615141369047619 16.01953125  0 15.065624999999999  0 13.950000000000001  L 0 4.05  C 0 2.934374999999997  0.3615141369047619 1.9804687499999993  1.0845424107142856 1.1882812500000004  C 1.8075706845238098 0.39609374999999747  2.678199404761905 0  3.6964285714285716 0  L 12.732142857142858 0  C 13.750372023809526 0  14.621000744047619 0.39609374999999747  15.344029017857142 1.1882812500000004  C 16.067057291666668 1.9804687499999993  16.42857142857143 2.934374999999997  16.42857142857143 4.05  L 16.42857142857143 6.3703125  L 21.60100446428571 0.7171874999999992  C 21.755022321428573 0.5390624999999993  21.947544642857146 0.4500000000000004  22.17857142857143 0.4500000000000004  C 22.281250000000004 0.4500000000000004  22.388206845238095 0.47343749999999707  22.49944196428571 0.5203125000000004  Z " fill-rule="nonzero" fill="#000000" stroke="none" fill-opacity="0" transform="matrix(1 0 0 1 794 10621 )" />
    <path d="M 22.49944196428571 0.5203125000000004  C 22.83314732142857 0.6796874999999993  23 0.9562499999999996  23 1.3499999999999992  L 23 16.650000000000002  C 23 17.04375  22.83314732142857 17.3203125  22.49944196428571 17.4796875  C 22.388206845238095 17.526562499999997  22.281250000000004 17.55  22.17857142857143 17.55  C 21.947544642857146 17.55  21.755022321428573 17.4609375  21.60100446428571 17.282812500000002  L 16.42857142857143 11.615625  L 16.42857142857143 13.950000000000001  C 16.42857142857143 15.065624999999999  16.067057291666668 16.01953125  15.344029017857142 16.81171875  C 14.621000744047619 17.603906249999998  13.750372023809526 18  12.732142857142858 18  L 3.6964285714285716 18  C 2.678199404761905 18  1.8075706845238098 17.603906249999998  1.0845424107142856 16.81171875  C 0.3615141369047619 16.01953125  0 15.065624999999999  0 13.950000000000001  L 0 4.05  C 0 2.934374999999997  0.3615141369047619 1.9804687499999993  1.0845424107142856 1.1882812500000004  C 1.8075706845238098 0.39609374999999747  2.678199404761905 0  3.6964285714285716 0  L 12.732142857142858 0  C 13.750372023809526 0  14.621000744047619 0.39609374999999747  15.344029017857142 1.1882812500000004  C 16.067057291666668 1.9804687499999993  16.42857142857143 2.934374999999997  16.42857142857143 4.05  L 16.42857142857143 6.3703125  L 21.60100446428571 0.7171874999999992  C 21.755022321428573 0.5390624999999993  21.947544642857146 0.4500000000000004  22.17857142857143 0.4500000000000004  C 22.281250000000004 0.4500000000000004  22.388206845238095 0.47343749999999707  22.49944196428571 0.5203125000000004  Z " stroke-width="2" stroke="#ffffff" fill="none" transform="matrix(1 0 0 1 794 10621 )" mask="url(#clip59)" />
  </g>
</svg>