<?xml version="1.0" encoding="utf-8"?>
<svg version="1.1" xmlns:xlink="http://www.w3.org/1999/xlink" width="19px" height="20px" xmlns="http://www.w3.org/2000/svg">
  <defs>
    <mask fill="white" id="clip58">
      <path d="M 9.5 19.107142857142858  C 9.621794871794874 19.107142857142858  9.682692307692308 19.047619047619047  9.682692307692307 18.928571428571427  C 9.682692307692308 18.80952380952381  9.621794871794874 18.75  9.5 18.75  C 9.05088141025641 18.75  8.664563301282053 18.59188988095238  8.341045673076923 18.275669642857142  C 8.017528044871796 17.959449404761905  7.85576923076923 17.581845238095237  7.85576923076923 17.142857142857146  C 7.85576923076923 17.023809523809522  7.794871794871796 16.964285714285715  7.673076923076923 16.964285714285715  C 7.551282051282052 16.964285714285715  7.490384615384615 17.023809523809522  7.490384615384615 17.142857142857146  C 7.490384615384615 17.686011904761905  7.686398237179487 18.149181547619047  8.07842548076923 18.532366071428573  C 8.470452724358974 18.915550595238095  8.944310897435898 19.107142857142858  9.5 19.107142857142858  Z M 17.9609375 14.732142857142856  C 18.27303685897436 15.074404761904763  18.619391025641026 15.401785714285714  19 15.714285714285714  C 19.000000000000004 16.101190476190478  18.85536858974359 16.436011904761905  18.56610576923077 16.71875  C 18.27684294871795 17.001488095238095  17.934294871794872 17.142857142857146  17.53846153846154 17.142857142857146  L 12.423076923076923 17.142857142857146  C 12.423076923076923 17.93154761904762  12.137620192307693 18.604910714285715  11.56670673076923 19.162946428571427  C 10.99579326923077 19.720982142857142  10.306891025641027 20  9.5 20  C 8.693108974358974 20  8.00420673076923 19.720982142857142  7.43329326923077 19.162946428571427  C 6.862379807692308 18.604910714285715  6.576923076923077 17.93154761904762  6.576923076923077 17.142857142857146  L 1.4615384615384617 17.142857142857146  C 1.0657051282051284 17.142857142857146  0.7231570512820513 17.001488095238095  0.4338942307692307 16.71875  C 0.1446314102564103 16.436011904761905  0 16.101190476190478  0 15.714285714285714  C 0.38060897435897445 15.401785714285714  0.7269631410256412 15.074404761904763  1.0390625 14.732142857142856  C 1.3511618589743593 14.38988095238095  1.6746794871794872 13.9453125  2.0096153846153846 13.3984375  C 2.3445512820512824 12.8515625  2.6281049679487185 12.261904761904761  2.8602764423076925 11.629464285714286  C 3.092447916666667 10.99702380952381  3.282752403846154 10.230654761904763  3.431189903846154 9.330357142857142  C 3.579627403846154 8.430059523809524  3.653846153846154 7.462797619047617  3.653846153846154 6.428571428571428  C 3.653846153846154 5.297619047619047  4.099158653846154 4.2466517857142865  4.989783653846153 3.275669642857142  C 5.880408653846153 2.3046875  7.048878205128205 1.7150297619047605  8.495192307692308 1.506696428571428  C 8.434294871794872 1.3653273809523792  8.403846153846153 1.2202380952380953  8.403846153846153 1.071428571428572  C 8.403846153846153 0.7738095238095233  8.510416666666668 0.5208333333333326  8.723557692307692 0.3125  C 8.936698717948719 0.1041666666666674  9.195512820512821 0  9.5 0  C 9.80448717948718 0  10.063301282051285 0.1041666666666674  10.276442307692307 0.3125  C 10.489583333333334 0.5208333333333326  10.596153846153847 0.7738095238095233  10.596153846153847 1.071428571428572  C 10.596153846153847 1.2202380952380953  10.565705128205128 1.3653273809523792  10.504807692307693 1.506696428571428  C 11.951121794871797 1.7150297619047605  13.119591346153847 2.3046875  14.010216346153847 3.275669642857142  C 14.900841346153847 4.2466517857142865  15.346153846153847 5.297619047619047  15.346153846153847 6.428571428571428  C 15.346153846153847 7.462797619047617  15.420372596153847 8.430059523809524  15.568810096153847 9.330357142857142  C 15.717247596153847 10.230654761904763  15.907552083333334 10.99702380952381  16.139723557692307 11.629464285714286  C 16.371895032051285 12.261904761904761  16.65544871794872 12.8515625  16.990384615384617 13.3984375  C 17.325320512820515 13.9453125  17.648838141025646 14.38988095238095  17.9609375 14.732142857142856  Z " fill-rule="evenodd" />
    </mask>
  </defs>
  <g transform="matrix(1 0 0 1 -763 -10620 )">
    <path d="M 9.5 19.107142857142858  C 9.621794871794874 19.107142857142858  9.682692307692308 19.047619047619047  9.682692307692307 18.928571428571427  C 9.682692307692308 18.80952380952381  9.621794871794874 18.75  9.5 18.75  C 9.05088141025641 18.75  8.664563301282053 18.59188988095238  8.341045673076923 18.275669642857142  C 8.017528044871796 17.959449404761905  7.85576923076923 17.581845238095237  7.85576923076923 17.142857142857146  C 7.85576923076923 17.023809523809522  7.794871794871796 16.964285714285715  7.673076923076923 16.964285714285715  C 7.551282051282052 16.964285714285715  7.490384615384615 17.023809523809522  7.490384615384615 17.142857142857146  C 7.490384615384615 17.686011904761905  7.686398237179487 18.149181547619047  8.07842548076923 18.532366071428573  C 8.470452724358974 18.915550595238095  8.944310897435898 19.107142857142858  9.5 19.107142857142858  Z M 17.9609375 14.732142857142856  C 18.27303685897436 15.074404761904763  18.619391025641026 15.401785714285714  19 15.714285714285714  C 19.000000000000004 16.101190476190478  18.85536858974359 16.436011904761905  18.56610576923077 16.71875  C 18.27684294871795 17.001488095238095  17.934294871794872 17.142857142857146  17.53846153846154 17.142857142857146  L 12.423076923076923 17.142857142857146  C 12.423076923076923 17.93154761904762  12.137620192307693 18.604910714285715  11.56670673076923 19.162946428571427  C 10.99579326923077 19.720982142857142  10.306891025641027 20  9.5 20  C 8.693108974358974 20  8.00420673076923 19.720982142857142  7.43329326923077 19.162946428571427  C 6.862379807692308 18.604910714285715  6.576923076923077 17.93154761904762  6.576923076923077 17.142857142857146  L 1.4615384615384617 17.142857142857146  C 1.0657051282051284 17.142857142857146  0.7231570512820513 17.001488095238095  0.4338942307692307 16.71875  C 0.1446314102564103 16.436011904761905  0 16.101190476190478  0 15.714285714285714  C 0.38060897435897445 15.401785714285714  0.7269631410256412 15.074404761904763  1.0390625 14.732142857142856  C 1.3511618589743593 14.38988095238095  1.6746794871794872 13.9453125  2.0096153846153846 13.3984375  C 2.3445512820512824 12.8515625  2.6281049679487185 12.261904761904761  2.8602764423076925 11.629464285714286  C 3.092447916666667 10.99702380952381  3.282752403846154 10.230654761904763  3.431189903846154 9.330357142857142  C 3.579627403846154 8.430059523809524  3.653846153846154 7.462797619047617  3.653846153846154 6.428571428571428  C 3.653846153846154 5.297619047619047  4.099158653846154 4.2466517857142865  4.989783653846153 3.275669642857142  C 5.880408653846153 2.3046875  7.048878205128205 1.7150297619047605  8.495192307692308 1.506696428571428  C 8.434294871794872 1.3653273809523792  8.403846153846153 1.2202380952380953  8.403846153846153 1.071428571428572  C 8.403846153846153 0.7738095238095233  8.510416666666668 0.5208333333333326  8.723557692307692 0.3125  C 8.936698717948719 0.1041666666666674  9.195512820512821 0  9.5 0  C 9.80448717948718 0  10.063301282051285 0.1041666666666674  10.276442307692307 0.3125  C 10.489583333333334 0.5208333333333326  10.596153846153847 0.7738095238095233  10.596153846153847 1.071428571428572  C 10.596153846153847 1.2202380952380953  10.565705128205128 1.3653273809523792  10.504807692307693 1.506696428571428  C 11.951121794871797 1.7150297619047605  13.119591346153847 2.3046875  14.010216346153847 3.275669642857142  C 14.900841346153847 4.2466517857142865  15.346153846153847 5.297619047619047  15.346153846153847 6.428571428571428  C 15.346153846153847 7.462797619047617  15.420372596153847 8.430059523809524  15.568810096153847 9.330357142857142  C 15.717247596153847 10.230654761904763  15.907552083333334 10.99702380952381  16.139723557692307 11.629464285714286  C 16.371895032051285 12.261904761904761  16.65544871794872 12.8515625  16.990384615384617 13.3984375  C 17.325320512820515 13.9453125  17.648838141025646 14.38988095238095  17.9609375 14.732142857142856  Z " fill-rule="nonzero" fill="#000000" stroke="none" fill-opacity="0" transform="matrix(1 0 0 1 763 10620 )" />
    <path d="M 9.5 19.107142857142858  C 9.621794871794874 19.107142857142858  9.682692307692308 19.047619047619047  9.682692307692307 18.928571428571427  C 9.682692307692308 18.80952380952381  9.621794871794874 18.75  9.5 18.75  C 9.05088141025641 18.75  8.664563301282053 18.59188988095238  8.341045673076923 18.275669642857142  C 8.017528044871796 17.959449404761905  7.85576923076923 17.581845238095237  7.85576923076923 17.142857142857146  C 7.85576923076923 17.023809523809522  7.794871794871796 16.964285714285715  7.673076923076923 16.964285714285715  C 7.551282051282052 16.964285714285715  7.490384615384615 17.023809523809522  7.490384615384615 17.142857142857146  C 7.490384615384615 17.686011904761905  7.686398237179487 18.149181547619047  8.07842548076923 18.532366071428573  C 8.470452724358974 18.915550595238095  8.944310897435898 19.107142857142858  9.5 19.107142857142858  Z " stroke-width="2" stroke="#ffffff" fill="none" transform="matrix(1 0 0 1 763 10620 )" mask="url(#clip58)" />
    <path d="M 17.9609375 14.732142857142856  C 18.27303685897436 15.074404761904763  18.619391025641026 15.401785714285714  19 15.714285714285714  C 19.000000000000004 16.101190476190478  18.85536858974359 16.436011904761905  18.56610576923077 16.71875  C 18.27684294871795 17.001488095238095  17.934294871794872 17.142857142857146  17.53846153846154 17.142857142857146  L 12.423076923076923 17.142857142857146  C 12.423076923076923 17.93154761904762  12.137620192307693 18.604910714285715  11.56670673076923 19.162946428571427  C 10.99579326923077 19.720982142857142  10.306891025641027 20  9.5 20  C 8.693108974358974 20  8.00420673076923 19.720982142857142  7.43329326923077 19.162946428571427  C 6.862379807692308 18.604910714285715  6.576923076923077 17.93154761904762  6.576923076923077 17.142857142857146  L 1.4615384615384617 17.142857142857146  C 1.0657051282051284 17.142857142857146  0.7231570512820513 17.001488095238095  0.4338942307692307 16.71875  C 0.1446314102564103 16.436011904761905  0 16.101190476190478  0 15.714285714285714  C 0.38060897435897445 15.401785714285714  0.7269631410256412 15.074404761904763  1.0390625 14.732142857142856  C 1.3511618589743593 14.38988095238095  1.6746794871794872 13.9453125  2.0096153846153846 13.3984375  C 2.3445512820512824 12.8515625  2.6281049679487185 12.261904761904761  2.8602764423076925 11.629464285714286  C 3.092447916666667 10.99702380952381  3.282752403846154 10.230654761904763  3.431189903846154 9.330357142857142  C 3.579627403846154 8.430059523809524  3.653846153846154 7.462797619047617  3.653846153846154 6.428571428571428  C 3.653846153846154 5.297619047619047  4.099158653846154 4.2466517857142865  4.989783653846153 3.275669642857142  C 5.880408653846153 2.3046875  7.048878205128205 1.7150297619047605  8.495192307692308 1.506696428571428  C 8.434294871794872 1.3653273809523792  8.403846153846153 1.2202380952380953  8.403846153846153 1.071428571428572  C 8.403846153846153 0.7738095238095233  8.510416666666668 0.5208333333333326  8.723557692307692 0.3125  C 8.936698717948719 0.1041666666666674  9.195512820512821 0  9.5 0  C 9.80448717948718 0  10.063301282051285 0.1041666666666674  10.276442307692307 0.3125  C 10.489583333333334 0.5208333333333326  10.596153846153847 0.7738095238095233  10.596153846153847 1.071428571428572  C 10.596153846153847 1.2202380952380953  10.565705128205128 1.3653273809523792  10.504807692307693 1.506696428571428  C 11.951121794871797 1.7150297619047605  13.119591346153847 2.3046875  14.010216346153847 3.275669642857142  C 14.900841346153847 4.2466517857142865  15.346153846153847 5.297619047619047  15.346153846153847 6.428571428571428  C 15.346153846153847 7.462797619047617  15.420372596153847 8.430059523809524  15.568810096153847 9.330357142857142  C 15.717247596153847 10.230654761904763  15.907552083333334 10.99702380952381  16.139723557692307 11.629464285714286  C 16.371895032051285 12.261904761904761  16.65544871794872 12.8515625  16.990384615384617 13.3984375  C 17.325320512820515 13.9453125  17.648838141025646 14.38988095238095  17.9609375 14.732142857142856  Z " stroke-width="2" stroke="#ffffff" fill="none" transform="matrix(1 0 0 1 763 10620 )" mask="url(#clip58)" />
  </g>
</svg>