<?xml version="1.0" encoding="utf-8"?>
<svg version="1.1" xmlns:xlink="http://www.w3.org/1999/xlink" width="18px" height="13px" xmlns="http://www.w3.org/2000/svg">
  <defs>
    <mask fill="white" id="clip121">
      <path d="M 17.608258928571427 0.3757812500000003  C 17.869419642857142 0.4908854166666662  18 0.6906249999999997  18 0.9749999999999994  L 18 12.025  C 18 12.309375000000001  17.869419642857142 12.509114583333334  17.608258928571427 12.624218749999999  C 17.521205357142858 12.658072916666665  17.437500000000004 12.674999999999999  17.357142857142858 12.674999999999999  C 17.17633928571429 12.674999999999999  17.025669642857146 12.610677083333334  16.905133928571427 12.48203125  L 12.857142857142858 8.3890625  L 12.857142857142858 10.075000000000001  C 12.857142857142858 10.880729166666665  12.57421875 11.569661458333334  12.008370535714285 12.141796874999999  C 11.442522321428571 12.713932291666666  10.761160714285715 13  9.964285714285715 13  L 2.8928571428571432 13  C 2.0959821428571432 13  1.4146205357142858 12.713932291666666  0.8487723214285714 12.141796874999999  C 0.28292410714285715 11.569661458333334  0 10.880729166666665  0 10.075000000000001  L 0 2.925  C 0 2.1192708333333314  0.28292410714285715 1.430338541666666  0.8487723214285714 0.8582031250000003  C 1.4146205357142858 0.2860677083333315  2.0959821428571432 0  2.8928571428571432 0  L 9.964285714285715 0  C 10.761160714285715 0  11.442522321428571 0.2860677083333315  12.008370535714285 0.8582031250000003  C 12.57421875 1.430338541666666  12.857142857142858 2.1192708333333314  12.857142857142858 2.925  L 12.857142857142858 4.60078125  L 16.905133928571427 0.5179687499999994  C 17.025669642857146 0.3893229166666662  17.17633928571429 0.3250000000000003  17.357142857142858 0.3250000000000003  C 17.437500000000004 0.3250000000000003  17.521205357142858 0.3419270833333312  17.608258928571427 0.3757812500000003  Z " fill-rule="evenodd" />
    </mask>
  </defs>
  <g transform="matrix(1 0 0 1 -267 -9081 )">
    <path d="M 17.608258928571427 0.3757812500000003  C 17.869419642857142 0.4908854166666662  18 0.6906249999999997  18 0.9749999999999994  L 18 12.025  C 18 12.309375000000001  17.869419642857142 12.509114583333334  17.608258928571427 12.624218749999999  C 17.521205357142858 12.658072916666665  17.437500000000004 12.674999999999999  17.357142857142858 12.674999999999999  C 17.17633928571429 12.674999999999999  17.025669642857146 12.610677083333334  16.905133928571427 12.48203125  L 12.857142857142858 8.3890625  L 12.857142857142858 10.075000000000001  C 12.857142857142858 10.880729166666665  12.57421875 11.569661458333334  12.008370535714285 12.141796874999999  C 11.442522321428571 12.713932291666666  10.761160714285715 13  9.964285714285715 13  L 2.8928571428571432 13  C 2.0959821428571432 13  1.4146205357142858 12.713932291666666  0.8487723214285714 12.141796874999999  C 0.28292410714285715 11.569661458333334  0 10.880729166666665  0 10.075000000000001  L 0 2.925  C 0 2.1192708333333314  0.28292410714285715 1.430338541666666  0.8487723214285714 0.8582031250000003  C 1.4146205357142858 0.2860677083333315  2.0959821428571432 0  2.8928571428571432 0  L 9.964285714285715 0  C 10.761160714285715 0  11.442522321428571 0.2860677083333315  12.008370535714285 0.8582031250000003  C 12.57421875 1.430338541666666  12.857142857142858 2.1192708333333314  12.857142857142858 2.925  L 12.857142857142858 4.60078125  L 16.905133928571427 0.5179687499999994  C 17.025669642857146 0.3893229166666662  17.17633928571429 0.3250000000000003  17.357142857142858 0.3250000000000003  C 17.437500000000004 0.3250000000000003  17.521205357142858 0.3419270833333312  17.608258928571427 0.3757812500000003  Z " fill-rule="nonzero" fill="#000000" stroke="none" fill-opacity="0" transform="matrix(1 0 0 1 267 9081 )" />
    <path d="M 17.608258928571427 0.3757812500000003  C 17.869419642857142 0.4908854166666662  18 0.6906249999999997  18 0.9749999999999994  L 18 12.025  C 18 12.309375000000001  17.869419642857142 12.509114583333334  17.608258928571427 12.624218749999999  C 17.521205357142858 12.658072916666665  17.437500000000004 12.674999999999999  17.357142857142858 12.674999999999999  C 17.17633928571429 12.674999999999999  17.025669642857146 12.610677083333334  16.905133928571427 12.48203125  L 12.857142857142858 8.3890625  L 12.857142857142858 10.075000000000001  C 12.857142857142858 10.880729166666665  12.57421875 11.569661458333334  12.008370535714285 12.141796874999999  C 11.442522321428571 12.713932291666666  10.761160714285715 13  9.964285714285715 13  L 2.8928571428571432 13  C 2.0959821428571432 13  1.4146205357142858 12.713932291666666  0.8487723214285714 12.141796874999999  C 0.28292410714285715 11.569661458333334  0 10.880729166666665  0 10.075000000000001  L 0 2.925  C 0 2.1192708333333314  0.28292410714285715 1.430338541666666  0.8487723214285714 0.8582031250000003  C 1.4146205357142858 0.2860677083333315  2.0959821428571432 0  2.8928571428571432 0  L 9.964285714285715 0  C 10.761160714285715 0  11.442522321428571 0.2860677083333315  12.008370535714285 0.8582031250000003  C 12.57421875 1.430338541666666  12.857142857142858 2.1192708333333314  12.857142857142858 2.925  L 12.857142857142858 4.60078125  L 16.905133928571427 0.5179687499999994  C 17.025669642857146 0.3893229166666662  17.17633928571429 0.3250000000000003  17.357142857142858 0.3250000000000003  C 17.437500000000004 0.3250000000000003  17.521205357142858 0.3419270833333312  17.608258928571427 0.3757812500000003  Z " stroke-width="2" stroke="#ffffff" fill="none" transform="matrix(1 0 0 1 267 9081 )" mask="url(#clip121)" />
  </g>
</svg>