<?xml version="1.0" encoding="utf-8"?>
<svg version="1.1" xmlns:xlink="http://www.w3.org/1999/xlink" width="15px" height="15px" xmlns="http://www.w3.org/2000/svg">
  <defs>
    <mask fill="white" id="clip119">
      <path d="M 14.968039772727273 11.622869318181818  C 14.98934659090909 11.672585227272727  15 11.747159090909088  15 11.84659090909091  C 15 12.038352272727272  14.964488636363637 12.288707386363637  14.89346590909091 12.59765625  C 14.822443181818183 12.906605113636363  14.74786931818182 13.149857954545453  14.669744318181818 13.327414772727272  C 14.52059659090909 13.682528409090908  14.087357954545457 14.058948863636363  13.37002840909091 14.456676136363637  C 12.702414772727273 14.818892045454545  12.04190340909091 15  11.388494318181818 15  C 11.196732954545455 15  11.008522727272728 14.987571022727272  10.823863636363637 14.962713068181818  C 10.639204545454547 14.937855113636365  10.435014204545457 14.89346590909091  10.211292613636363 14.829545454545455  C 9.987571022727273 14.765625  9.820667613636365 14.714133522727273  9.710582386363637 14.675071022727273  C 9.60049715909091 14.636008522727272  9.403409090909092 14.563210227272727  9.119318181818182 14.456676136363637  C 8.835227272727273 14.350142045454545  8.661221590909092 14.28622159090909  8.597301136363637 14.264914772727273  C 7.90127840909091 14.016335227272728  7.279829545454546 13.72159090909091  6.732954545454545 13.380681818181818  C 5.830965909090909 12.819602272727272  4.893465909090909 12.052556818181818  3.9204545454545454 11.079545454545455  C 2.947443181818182 10.106534090909088  2.1803977272727275 9.169034090909092  1.6193181818181819 8.267045454545455  C 1.2784090909090908 7.720170454545454  0.9836647727272728 7.09872159090909  0.7350852272727273 6.402698863636364  C 0.7137784090909091 6.338778409090907  0.6498579545454546 6.164772727272726  0.5433238636363636 5.880681818181818  C 0.4367897727272727 5.596590909090908  0.3639914772727273 5.39950284090909  0.3249289772727273 5.289417613636364  C 0.2858664772727273 5.179332386363635  0.234375 5.012428977272727  0.17045454545454547 4.788707386363636  C 0.10653409090909091 4.564985795454543  0.062144886363636374 4.360795454545453  0.037286931818181816 4.176136363636364  C 0.012428977272727272 3.991477272727271  0 3.8032670454545454  0 3.611505681818181  C 0 2.95809659090909  0.18110795454545453 2.2975852272727257  0.5433238636363636 1.6299715909090906  C 0.9410511363636365 0.9126420454545431  1.3174715909090908 0.4794034090909094  1.6725852272727273 0.3302556818181812  C 1.8501420454545456 0.25213068181818066  2.0933948863636362 0.17755681818181657  2.40234375 0.1065340909090906  C 2.7112926136363638 0.03551136363636298  2.9616477272727275 0  3.153409090909091 0  C 3.2528409090909096 0  3.3274147727272734 0.010653409090909394  3.3771306818181817 0.031960227272726516  C 3.504971590909091 0.07457386363636409  3.6931818181818183 0.34446022727272707  3.9417613636363633 0.8416193181818188  C 4.019886363636364 0.9765624999999978  4.126420454545455 1.168323863636362  4.261363636363637 1.4169034090909094  C 4.396306818181818 1.6654829545454537  4.520596590909091 1.8909801136363642  4.634232954545455 2.093394886363636  C 4.747869318181818 2.295809659090909  4.857954545454545 2.4857954545454537  4.964488636363637 2.6633522727272734  C 4.985795454545455 2.691761363636362  5.047940340909091 2.7805397727272734  5.150923295454545 2.9296875  C 5.253906250000001 3.0788352272727266  5.3302556818181825 3.2049005681818175  5.379971590909091 3.3078835227272734  C 5.4296875 3.4108664772727257  5.454545454545455 3.512073863636362  5.454545454545455 3.611505681818181  C 5.454545454545455 3.753551136363635  5.353338068181818 3.9311079545454546  5.150923295454545 4.144176136363636  C 4.9485085227272725 4.357244318181818  4.728338068181818 4.5525568181818175  4.490411931818182 4.730113636363636  C 4.252485795454546 4.907670454545452  4.032315340909091 5.095880681818182  3.829900568181818 5.294744318181818  C 3.6274857954545454 5.493607954545454  3.526278409090909 5.656960227272727  3.526278409090909 5.784801136363636  C 3.526278409090909 5.848721590909091  3.5440340909090913 5.928622159090909  3.5795454545454546 6.024502840909091  C 3.6150568181818183 6.120383522727273  3.6452414772727275 6.1931818181818175  3.6700994318181817 6.242897727272727  C 3.6949573863636367 6.292613636363635  3.7446732954545454 6.377840909090909  3.819247159090909 6.498579545454545  C 3.8938210227272725 6.619318181818182  3.9346590909090913 6.686789772727273  3.9417613636363633 6.700994318181818  C 4.481534090909091 7.67400568181818  5.099431818181818 8.508522727272727  5.795454545454545 9.204545454545455  C 6.491477272727273 9.90056818181818  7.325994318181819 10.518465909090908  8.299005681818182 11.058238636363637  C 8.313210227272727 11.065340909090907  8.380681818181818 11.106178977272728  8.501420454545455 11.18075284090909  C 8.622159090909092 11.255326704545455  8.707386363636365 11.305042613636362  8.757102272727273 11.329900568181818  C 8.806818181818182 11.354758522727272  8.879616477272727 11.38494318181818  8.97549715909091 11.420454545454545  C 9.07137784090909 11.455965909090908  9.15127840909091 11.47372159090909  9.215198863636363 11.47372159090909  C 9.343039772727273 11.47372159090909  9.506392045454547 11.372514204545455  9.705255681818182 11.170099431818182  C 9.904119318181818 10.96768465909091  10.092329545454547 10.747514204545453  10.269886363636363 10.509588068181818  C 10.447443181818182 10.27166193181818  10.642755681818182 10.051491477272728  10.855823863636363 9.849076704545455  C 11.068892045454545 9.646661931818182  11.246448863636365 9.545454545454545  11.388494318181818 9.545454545454545  C 11.487926136363638 9.545454545454545  11.589133522727273 9.570312499999998  11.692116477272727 9.62002840909091  C 11.795099431818182 9.669744318181817  11.921164772727273 9.746093749999998  12.0703125 9.849076704545455  C 12.219460227272727 9.952059659090907  12.308238636363638 10.014204545454545  12.336647727272727 10.035511363636363  C 12.514204545454547 10.142045454545455  12.70419034090909 10.25213068181818  12.906605113636363 10.365767045454545  C 13.109019886363637 10.479403409090907  13.334517045454547 10.60369318181818  13.58309659090909 10.738636363636363  C 13.831676136363638 10.873579545454545  14.023437500000002 10.980113636363635  14.158380681818182 11.058238636363637  C 14.655539772727273 11.30681818181818  14.925426136363637 11.49502840909091  14.968039772727273 11.622869318181818  Z " fill-rule="evenodd" />
    </mask>
  </defs>
  <g transform="matrix(1 0 0 1 -218 -9080 )">
    <path d="M 14.968039772727273 11.622869318181818  C 14.98934659090909 11.672585227272727  15 11.747159090909088  15 11.84659090909091  C 15 12.038352272727272  14.964488636363637 12.288707386363637  14.89346590909091 12.59765625  C 14.822443181818183 12.906605113636363  14.74786931818182 13.149857954545453  14.669744318181818 13.327414772727272  C 14.52059659090909 13.682528409090908  14.087357954545457 14.058948863636363  13.37002840909091 14.456676136363637  C 12.702414772727273 14.818892045454545  12.04190340909091 15  11.388494318181818 15  C 11.196732954545455 15  11.008522727272728 14.987571022727272  10.823863636363637 14.962713068181818  C 10.639204545454547 14.937855113636365  10.435014204545457 14.89346590909091  10.211292613636363 14.829545454545455  C 9.987571022727273 14.765625  9.820667613636365 14.714133522727273  9.710582386363637 14.675071022727273  C 9.60049715909091 14.636008522727272  9.403409090909092 14.563210227272727  9.119318181818182 14.456676136363637  C 8.835227272727273 14.350142045454545  8.661221590909092 14.28622159090909  8.597301136363637 14.264914772727273  C 7.90127840909091 14.016335227272728  7.279829545454546 13.72159090909091  6.732954545454545 13.380681818181818  C 5.830965909090909 12.819602272727272  4.893465909090909 12.052556818181818  3.9204545454545454 11.079545454545455  C 2.947443181818182 10.106534090909088  2.1803977272727275 9.169034090909092  1.6193181818181819 8.267045454545455  C 1.2784090909090908 7.720170454545454  0.9836647727272728 7.09872159090909  0.7350852272727273 6.402698863636364  C 0.7137784090909091 6.338778409090907  0.6498579545454546 6.164772727272726  0.5433238636363636 5.880681818181818  C 0.4367897727272727 5.596590909090908  0.3639914772727273 5.39950284090909  0.3249289772727273 5.289417613636364  C 0.2858664772727273 5.179332386363635  0.234375 5.012428977272727  0.17045454545454547 4.788707386363636  C 0.10653409090909091 4.564985795454543  0.062144886363636374 4.360795454545453  0.037286931818181816 4.176136363636364  C 0.012428977272727272 3.991477272727271  0 3.8032670454545454  0 3.611505681818181  C 0 2.95809659090909  0.18110795454545453 2.2975852272727257  0.5433238636363636 1.6299715909090906  C 0.9410511363636365 0.9126420454545431  1.3174715909090908 0.4794034090909094  1.6725852272727273 0.3302556818181812  C 1.8501420454545456 0.25213068181818066  2.0933948863636362 0.17755681818181657  2.40234375 0.1065340909090906  C 2.7112926136363638 0.03551136363636298  2.9616477272727275 0  3.153409090909091 0  C 3.2528409090909096 0  3.3274147727272734 0.010653409090909394  3.3771306818181817 0.031960227272726516  C 3.504971590909091 0.07457386363636409  3.6931818181818183 0.34446022727272707  3.9417613636363633 0.8416193181818188  C 4.019886363636364 0.9765624999999978  4.126420454545455 1.168323863636362  4.261363636363637 1.4169034090909094  C 4.396306818181818 1.6654829545454537  4.520596590909091 1.8909801136363642  4.634232954545455 2.093394886363636  C 4.747869318181818 2.295809659090909  4.857954545454545 2.4857954545454537  4.964488636363637 2.6633522727272734  C 4.985795454545455 2.691761363636362  5.047940340909091 2.7805397727272734  5.150923295454545 2.9296875  C 5.253906250000001 3.0788352272727266  5.3302556818181825 3.2049005681818175  5.379971590909091 3.3078835227272734  C 5.4296875 3.4108664772727257  5.454545454545455 3.512073863636362  5.454545454545455 3.611505681818181  C 5.454545454545455 3.753551136363635  5.353338068181818 3.9311079545454546  5.150923295454545 4.144176136363636  C 4.9485085227272725 4.357244318181818  4.728338068181818 4.5525568181818175  4.490411931818182 4.730113636363636  C 4.252485795454546 4.907670454545452  4.032315340909091 5.095880681818182  3.829900568181818 5.294744318181818  C 3.6274857954545454 5.493607954545454  3.526278409090909 5.656960227272727  3.526278409090909 5.784801136363636  C 3.526278409090909 5.848721590909091  3.5440340909090913 5.928622159090909  3.5795454545454546 6.024502840909091  C 3.6150568181818183 6.120383522727273  3.6452414772727275 6.1931818181818175  3.6700994318181817 6.242897727272727  C 3.6949573863636367 6.292613636363635  3.7446732954545454 6.377840909090909  3.819247159090909 6.498579545454545  C 3.8938210227272725 6.619318181818182  3.9346590909090913 6.686789772727273  3.9417613636363633 6.700994318181818  C 4.481534090909091 7.67400568181818  5.099431818181818 8.508522727272727  5.795454545454545 9.204545454545455  C 6.491477272727273 9.90056818181818  7.325994318181819 10.518465909090908  8.299005681818182 11.058238636363637  C 8.313210227272727 11.065340909090907  8.380681818181818 11.106178977272728  8.501420454545455 11.18075284090909  C 8.622159090909092 11.255326704545455  8.707386363636365 11.305042613636362  8.757102272727273 11.329900568181818  C 8.806818181818182 11.354758522727272  8.879616477272727 11.38494318181818  8.97549715909091 11.420454545454545  C 9.07137784090909 11.455965909090908  9.15127840909091 11.47372159090909  9.215198863636363 11.47372159090909  C 9.343039772727273 11.47372159090909  9.506392045454547 11.372514204545455  9.705255681818182 11.170099431818182  C 9.904119318181818 10.96768465909091  10.092329545454547 10.747514204545453  10.269886363636363 10.509588068181818  C 10.447443181818182 10.27166193181818  10.642755681818182 10.051491477272728  10.855823863636363 9.849076704545455  C 11.068892045454545 9.646661931818182  11.246448863636365 9.545454545454545  11.388494318181818 9.545454545454545  C 11.487926136363638 9.545454545454545  11.589133522727273 9.570312499999998  11.692116477272727 9.62002840909091  C 11.795099431818182 9.669744318181817  11.921164772727273 9.746093749999998  12.0703125 9.849076704545455  C 12.219460227272727 9.952059659090907  12.308238636363638 10.014204545454545  12.336647727272727 10.035511363636363  C 12.514204545454547 10.142045454545455  12.70419034090909 10.25213068181818  12.906605113636363 10.365767045454545  C 13.109019886363637 10.479403409090907  13.334517045454547 10.60369318181818  13.58309659090909 10.738636363636363  C 13.831676136363638 10.873579545454545  14.023437500000002 10.980113636363635  14.158380681818182 11.058238636363637  C 14.655539772727273 11.30681818181818  14.925426136363637 11.49502840909091  14.968039772727273 11.622869318181818  Z " fill-rule="nonzero" fill="#000000" stroke="none" fill-opacity="0" transform="matrix(1 0 0 1 218 9080 )" />
    <path d="M 14.968039772727273 11.622869318181818  C 14.98934659090909 11.672585227272727  15 11.747159090909088  15 11.84659090909091  C 15 12.038352272727272  14.964488636363637 12.288707386363637  14.89346590909091 12.59765625  C 14.822443181818183 12.906605113636363  14.74786931818182 13.149857954545453  14.669744318181818 13.327414772727272  C 14.52059659090909 13.682528409090908  14.087357954545457 14.058948863636363  13.37002840909091 14.456676136363637  C 12.702414772727273 14.818892045454545  12.04190340909091 15  11.388494318181818 15  C 11.196732954545455 15  11.008522727272728 14.987571022727272  10.823863636363637 14.962713068181818  C 10.639204545454547 14.937855113636365  10.435014204545457 14.89346590909091  10.211292613636363 14.829545454545455  C 9.987571022727273 14.765625  9.820667613636365 14.714133522727273  9.710582386363637 14.675071022727273  C 9.60049715909091 14.636008522727272  9.403409090909092 14.563210227272727  9.119318181818182 14.456676136363637  C 8.835227272727273 14.350142045454545  8.661221590909092 14.28622159090909  8.597301136363637 14.264914772727273  C 7.90127840909091 14.016335227272728  7.279829545454546 13.72159090909091  6.732954545454545 13.380681818181818  C 5.830965909090909 12.819602272727272  4.893465909090909 12.052556818181818  3.9204545454545454 11.079545454545455  C 2.947443181818182 10.106534090909088  2.1803977272727275 9.169034090909092  1.6193181818181819 8.267045454545455  C 1.2784090909090908 7.720170454545454  0.9836647727272728 7.09872159090909  0.7350852272727273 6.402698863636364  C 0.7137784090909091 6.338778409090907  0.6498579545454546 6.164772727272726  0.5433238636363636 5.880681818181818  C 0.4367897727272727 5.596590909090908  0.3639914772727273 5.39950284090909  0.3249289772727273 5.289417613636364  C 0.2858664772727273 5.179332386363635  0.234375 5.012428977272727  0.17045454545454547 4.788707386363636  C 0.10653409090909091 4.564985795454543  0.062144886363636374 4.360795454545453  0.037286931818181816 4.176136363636364  C 0.012428977272727272 3.991477272727271  0 3.8032670454545454  0 3.611505681818181  C 0 2.95809659090909  0.18110795454545453 2.2975852272727257  0.5433238636363636 1.6299715909090906  C 0.9410511363636365 0.9126420454545431  1.3174715909090908 0.4794034090909094  1.6725852272727273 0.3302556818181812  C 1.8501420454545456 0.25213068181818066  2.0933948863636362 0.17755681818181657  2.40234375 0.1065340909090906  C 2.7112926136363638 0.03551136363636298  2.9616477272727275 0  3.153409090909091 0  C 3.2528409090909096 0  3.3274147727272734 0.010653409090909394  3.3771306818181817 0.031960227272726516  C 3.504971590909091 0.07457386363636409  3.6931818181818183 0.34446022727272707  3.9417613636363633 0.8416193181818188  C 4.019886363636364 0.9765624999999978  4.126420454545455 1.168323863636362  4.261363636363637 1.4169034090909094  C 4.396306818181818 1.6654829545454537  4.520596590909091 1.8909801136363642  4.634232954545455 2.093394886363636  C 4.747869318181818 2.295809659090909  4.857954545454545 2.4857954545454537  4.964488636363637 2.6633522727272734  C 4.985795454545455 2.691761363636362  5.047940340909091 2.7805397727272734  5.150923295454545 2.9296875  C 5.253906250000001 3.0788352272727266  5.3302556818181825 3.2049005681818175  5.379971590909091 3.3078835227272734  C 5.4296875 3.4108664772727257  5.454545454545455 3.512073863636362  5.454545454545455 3.611505681818181  C 5.454545454545455 3.753551136363635  5.353338068181818 3.9311079545454546  5.150923295454545 4.144176136363636  C 4.9485085227272725 4.357244318181818  4.728338068181818 4.5525568181818175  4.490411931818182 4.730113636363636  C 4.252485795454546 4.907670454545452  4.032315340909091 5.095880681818182  3.829900568181818 5.294744318181818  C 3.6274857954545454 5.493607954545454  3.526278409090909 5.656960227272727  3.526278409090909 5.784801136363636  C 3.526278409090909 5.848721590909091  3.5440340909090913 5.928622159090909  3.5795454545454546 6.024502840909091  C 3.6150568181818183 6.120383522727273  3.6452414772727275 6.1931818181818175  3.6700994318181817 6.242897727272727  C 3.6949573863636367 6.292613636363635  3.7446732954545454 6.377840909090909  3.819247159090909 6.498579545454545  C 3.8938210227272725 6.619318181818182  3.9346590909090913 6.686789772727273  3.9417613636363633 6.700994318181818  C 4.481534090909091 7.67400568181818  5.099431818181818 8.508522727272727  5.795454545454545 9.204545454545455  C 6.491477272727273 9.90056818181818  7.325994318181819 10.518465909090908  8.299005681818182 11.058238636363637  C 8.313210227272727 11.065340909090907  8.380681818181818 11.106178977272728  8.501420454545455 11.18075284090909  C 8.622159090909092 11.255326704545455  8.707386363636365 11.305042613636362  8.757102272727273 11.329900568181818  C 8.806818181818182 11.354758522727272  8.879616477272727 11.38494318181818  8.97549715909091 11.420454545454545  C 9.07137784090909 11.455965909090908  9.15127840909091 11.47372159090909  9.215198863636363 11.47372159090909  C 9.343039772727273 11.47372159090909  9.506392045454547 11.372514204545455  9.705255681818182 11.170099431818182  C 9.904119318181818 10.96768465909091  10.092329545454547 10.747514204545453  10.269886363636363 10.509588068181818  C 10.447443181818182 10.27166193181818  10.642755681818182 10.051491477272728  10.855823863636363 9.849076704545455  C 11.068892045454545 9.646661931818182  11.246448863636365 9.545454545454545  11.388494318181818 9.545454545454545  C 11.487926136363638 9.545454545454545  11.589133522727273 9.570312499999998  11.692116477272727 9.62002840909091  C 11.795099431818182 9.669744318181817  11.921164772727273 9.746093749999998  12.0703125 9.849076704545455  C 12.219460227272727 9.952059659090907  12.308238636363638 10.014204545454545  12.336647727272727 10.035511363636363  C 12.514204545454547 10.142045454545455  12.70419034090909 10.25213068181818  12.906605113636363 10.365767045454545  C 13.109019886363637 10.479403409090907  13.334517045454547 10.60369318181818  13.58309659090909 10.738636363636363  C 13.831676136363638 10.873579545454545  14.023437500000002 10.980113636363635  14.158380681818182 11.058238636363637  C 14.655539772727273 11.30681818181818  14.925426136363637 11.49502840909091  14.968039772727273 11.622869318181818  Z " stroke-width="2" stroke="#ffffff" fill="none" transform="matrix(1 0 0 1 218 9080 )" mask="url(#clip119)" />
  </g>
</svg>