<?xml version="1.0" encoding="utf-8"?>
<svg version="1.1" xmlns:xlink="http://www.w3.org/1999/xlink" width="15px" height="15px" xmlns="http://www.w3.org/2000/svg">
  <g transform="matrix(1 0 0 1 -78 -9443 )">
    <path d="M 14.701704545454545 5.752840909090909  C 14.900568181818182 5.951704545454543  15 6.1931818181818175  15 6.477272727272727  L 15 8.522727272727272  C 15 8.806818181818182  14.900568181818182 9.048295454545453  14.701704545454545 9.24715909090909  C 14.50284090909091 9.446022727272727  14.261363636363637 9.545454545454545  13.977272727272727 9.545454545454545  L 9.545454545454545 9.545454545454545  L 9.545454545454545 13.977272727272728  C 9.545454545454545 14.261363636363637  9.446022727272728 14.502840909090908  9.24715909090909 14.701704545454545  C 9.048295454545457 14.900568181818182  8.806818181818182 15  8.522727272727273 15  L 6.4772727272727275 15  C 6.193181818181818 15  5.951704545454547 14.900568181818182  5.752840909090909 14.701704545454545  C 5.553977272727273 14.502840909090908  5.454545454545455 14.261363636363637  5.454545454545455 13.977272727272728  L 5.454545454545455 9.545454545454545  L 1.0227272727272727 9.545454545454545  C 0.7386363636363638 9.545454545454545  0.497159090909091 9.446022727272727  0.29829545454545453 9.24715909090909  C 0.09943181818181818 9.048295454545453  0 8.806818181818182  0 8.522727272727272  L 0 6.477272727272727  C 0 6.1931818181818175  0.09943181818181818 5.951704545454543  0.29829545454545453 5.752840909090909  C 0.497159090909091 5.5539772727272725  0.7386363636363638 5.454545454545455  1.0227272727272727 5.454545454545455  L 5.454545454545455 5.454545454545455  L 5.454545454545455 1.0227272727272734  C 5.454545454545455 0.738636363636363  5.553977272727273 0.49715909090909005  5.752840909090909 0.2982954545454547  C 5.951704545454547 0.09943181818181768  6.193181818181818 0  6.4772727272727275 0  L 8.522727272727273 0  C 8.806818181818182 0  9.048295454545457 0.09943181818181768  9.24715909090909 0.2982954545454547  C 9.446022727272728 0.49715909090909005  9.545454545454545 0.738636363636363  9.545454545454545 1.0227272727272734  L 9.545454545454545 5.454545454545455  L 13.977272727272727 5.454545454545455  C 14.261363636363637 5.454545454545455  14.50284090909091 5.5539772727272725  14.701704545454545 5.752840909090909  Z " fill-rule="nonzero" fill="#764ba2" stroke="none" transform="matrix(1 0 0 1 78 9443 )" />
  </g>
</svg>