<?xml version="1.0" encoding="utf-8"?>
<svg version="1.1" xmlns:xlink="http://www.w3.org/1999/xlink" width="25px" height="25px" xmlns="http://www.w3.org/2000/svg">
  <g transform="matrix(1 0 0 1 -759 -11124 )">
    <path d="M 18.391927083333336 14.6240234375  C 18.522135416666664 14.879014756944443  18.543836805555557 15.142144097222221  18.45703125 15.413411458333332  C 18.055555555555557 16.72634548611111  17.306857638888893 17.784288194444443  16.2109375 18.587239583333332  C 15.115017361111112 19.39019097222222  13.878038194444445 19.791666666666664  12.5 19.791666666666664  C 11.121961805555557 19.791666666666664  9.88498263888889 19.39019097222222  8.7890625 18.587239583333332  C 7.693142361111112 17.784288194444443  6.944444444444445 16.72634548611111  6.54296875 15.413411458333332  C 6.456163194444445 15.142144097222221  6.477864583333333 14.879014756944443  6.608072916666667 14.6240234375  C 6.73828125 14.369032118055552  6.944444444444445 14.198133680555552  7.2265625 14.111328125  C 7.497829861111112 14.024522569444443  7.760959201388889 14.046223958333332  8.015950520833332 14.176432291666668  C 8.270941840277779 14.306640625  8.441840277777779 14.512803819444443  8.528645833333332 14.794921875  C 8.799913194444446 15.662977430555552  9.3017578125 16.365559895833332  10.0341796875 16.902669270833332  C 10.7666015625 17.439778645833332  11.588541666666668 17.708333333333332  12.5 17.708333333333332  C 13.411458333333334 17.708333333333332  14.233398437500004 17.439778645833332  14.9658203125 16.902669270833332  C 15.698242187500004 16.365559895833332  16.200086805555557 15.662977430555552  16.471354166666664 14.794921875  C 16.558159722222225 14.512803819444443  16.731770833333336 14.306640625  16.9921875 14.176432291666668  C 17.252604166666664 14.046223958333332  17.518446180555557 14.024522569444443  17.789713541666664 14.111328125  C 18.06098090277778 14.198133680555552  18.26171875 14.369032118055552  18.391927083333336 14.6240234375  Z M 9.806315104166668 6.8603515625  C 10.213216145833332 7.267252604166666  10.416666666666668 7.758246527777776  10.416666666666668 8.333333333333334  C 10.416666666666668 8.908420138888888  10.213216145833332 9.399414062499996  9.806315104166668 9.806315104166666  C 9.3994140625 10.213216145833334  8.90842013888889 10.416666666666666  8.333333333333332 10.416666666666666  C 7.758246527777779 10.416666666666666  7.267252604166667 10.213216145833334  6.8603515625 9.806315104166666  C 6.453450520833333 9.399414062499996  6.25 8.908420138888888  6.25 8.333333333333334  C 6.25 7.758246527777776  6.453450520833333 7.267252604166666  6.8603515625 6.8603515625  C 7.267252604166667 6.453450520833334  7.758246527777779 6.25  8.333333333333332 6.25  C 8.90842013888889 6.25  9.3994140625 6.453450520833334  9.806315104166668 6.8603515625  Z M 18.1396484375 6.8603515625  C 18.546549479166664 7.267252604166666  18.75 7.758246527777776  18.75 8.333333333333334  C 18.75 8.908420138888888  18.546549479166664 9.399414062499996  18.1396484375 9.806315104166666  C 17.732747395833336 10.213216145833334  17.241753472222225 10.416666666666666  16.666666666666664 10.416666666666666  C 16.091579861111114 10.416666666666666  15.6005859375 10.213216145833334  15.193684895833334 9.806315104166666  C 14.786783854166666 9.399414062499996  14.583333333333334 8.908420138888888  14.583333333333334 8.333333333333334  C 14.583333333333334 7.758246527777776  14.786783854166666 7.267252604166666  15.193684895833334 6.8603515625  C 15.6005859375 6.453450520833334  16.091579861111114 6.25  16.666666666666664 6.25  C 17.241753472222225 6.25  17.732747395833336 6.453450520833334  18.1396484375 6.8603515625  Z M 22.086588541666664 16.544596354166668  C 22.639973958333336 15.2587890625  22.916666666666664 13.910590277777779  22.916666666666664 12.5  C 22.916666666666664 11.089409722222221  22.639973958333336 9.7412109375  22.086588541666664 8.455403645833334  C 21.533203125 7.169596354166666  20.792643229166664 6.062825520833334  19.864908854166664 5.135091145833334  C 18.937174479166664 4.207356770833334  17.830403645833336 3.466796875  16.544596354166664 2.9134114583333344  C 15.2587890625 2.3600260416666656  13.910590277777779 2.0833333333333344  12.5 2.0833333333333344  C 11.089409722222223 2.0833333333333344  9.7412109375 2.3600260416666656  8.455403645833332 2.9134114583333344  C 7.169596354166667 3.466796875  6.062825520833334 4.207356770833334  5.135091145833334 5.135091145833334  C 4.207356770833334 6.062825520833334  3.466796875 7.169596354166666  2.913411458333333 8.455403645833334  C 2.360026041666667 9.7412109375  2.083333333333333 11.089409722222221  2.083333333333333 12.5  C 2.083333333333333 13.910590277777779  2.360026041666667 15.2587890625  2.913411458333333 16.544596354166668  C 3.466796875 17.830403645833332  4.207356770833334 18.937174479166664  5.135091145833334 19.864908854166664  C 6.062825520833334 20.792643229166664  7.169596354166667 21.533203125  8.455403645833332 22.086588541666664  C 9.7412109375 22.639973958333336  11.089409722222223 22.916666666666664  12.5 22.916666666666664  C 13.910590277777779 22.916666666666664  15.2587890625 22.639973958333336  16.544596354166664 22.086588541666664  C 17.830403645833336 21.533203125  18.937174479166664 20.792643229166664  19.864908854166664 19.864908854166664  C 20.792643229166664 18.937174479166664  21.533203125 17.830403645833332  22.086588541666664 16.544596354166668  Z M 23.323567708333336 6.2255859375  C 24.441189236111107 8.140733506944443  25 10.232204861111107  25 12.5  C 25 14.76779513888889  24.441189236111107 16.859266493055554  23.323567708333336 18.7744140625  C 22.205946180555557 20.689561631944446  20.689561631944446 22.205946180555554  18.7744140625 23.323567708333336  C 16.859266493055557 24.441189236111114  14.76779513888889 25  12.5 25  C 10.232204861111112 25  8.140733506944445 24.441189236111114  6.2255859375 23.323567708333336  C 4.310438368055556 22.205946180555554  2.7940538194444446 20.689561631944446  1.6764322916666667 18.7744140625  C 0.5588107638888888 16.859266493055554  0 14.76779513888889  0 12.5  C 0 10.232204861111107  0.5588107638888888 8.140733506944443  1.6764322916666667 6.2255859375  C 2.7940538194444446 4.310438368055555  4.310438368055556 2.794053819444442  6.2255859375 1.6764322916666656  C 8.140733506944445 0.5588107638888867  10.232204861111112 0  12.5 0  C 14.76779513888889 0  16.859266493055557 0.5588107638888867  18.7744140625 1.6764322916666656  C 20.689561631944446 2.794053819444442  22.205946180555557 4.310438368055555  23.323567708333336 6.2255859375  Z " fill-rule="nonzero" fill="#764ba2" stroke="none" transform="matrix(1 0 0 1 759 11124 )" />
  </g>
</svg>