<?xml version="1.0" encoding="utf-8"?>
<svg version="1.1" xmlns:xlink="http://www.w3.org/1999/xlink" width="15px" height="15px" xmlns="http://www.w3.org/2000/svg">
  <g transform="matrix(1 0 0 1 -249 -9443 )">
    <path d="M 11.03515625 8.7744140625  C 11.11328125 8.927408854166664  11.126302083333336 9.085286458333332  11.07421875 9.248046874999998  C 10.833333333333336 10.035807291666666  10.384114583333336 10.670572916666664  9.7265625 11.152343749999998  C 9.069010416666668 11.634114583333332  8.326822916666666 11.875  7.5 11.875  C 6.673177083333334 11.875  5.930989583333334 11.634114583333332  5.2734375 11.152343749999998  C 4.615885416666667 10.670572916666664  4.166666666666667 10.035807291666666  3.92578125 9.248046874999998  C 3.873697916666667 9.085286458333332  3.8867187499999996 8.927408854166664  3.9648437500000004 8.7744140625  C 4.04296875 8.621419270833332  4.166666666666667 8.518880208333332  4.3359375 8.466796875  C 4.498697916666667 8.414713541666664  4.656575520833334 8.427734374999998  4.8095703125 8.505859375000002  C 4.962565104166668 8.583984375  5.065104166666668 8.707682291666664  5.1171875 8.876953125  C 5.279947916666668 9.397786458333332  5.5810546875 9.819335937499998  6.0205078125 10.141601562499998  C 6.4599609375 10.463867187499998  6.953125 10.624999999999998  7.5 10.624999999999998  C 8.046875 10.624999999999998  8.540039062500002 10.463867187499998  8.9794921875 10.141601562499998  C 9.418945312500002 9.819335937499998  9.720052083333336 9.397786458333332  9.8828125 8.876953125  C 9.934895833333334 8.707682291666664  10.0390625 8.583984375  10.1953125 8.505859375000002  C 10.3515625 8.427734374999998  10.511067708333336 8.414713541666664  10.673828125 8.466796875  C 10.836588541666668 8.518880208333332  10.95703125 8.621419270833332  11.03515625 8.7744140625  Z M 5.8837890625 4.1162109375  C 6.1279296875 4.360351562499999  6.25 4.654947916666666  6.25 5.000000000000001  C 6.25 5.345052083333332  6.1279296875 5.639648437499998  5.8837890625 5.883789062499999  C 5.6396484375 6.127929687500001  5.345052083333334 6.249999999999999  5 6.249999999999999  C 4.654947916666668 6.249999999999999  4.3603515625 6.127929687500001  4.1162109375 5.883789062499999  C 3.8720703124999996 5.639648437499998  3.75 5.345052083333332  3.75 5.000000000000001  C 3.75 4.654947916666666  3.8720703124999996 4.360351562499999  4.1162109375 4.1162109375  C 4.3603515625 3.8720703125000004  4.654947916666668 3.75  5 3.75  C 5.345052083333334 3.75  5.6396484375 3.8720703125000004  5.8837890625 4.1162109375  Z M 10.8837890625 4.1162109375  C 11.1279296875 4.360351562499999  11.25 4.654947916666666  11.25 5.000000000000001  C 11.25 5.345052083333332  11.1279296875 5.639648437499998  10.8837890625 5.883789062499999  C 10.6396484375 6.127929687500001  10.345052083333334 6.249999999999999  10 6.249999999999999  C 9.654947916666668 6.249999999999999  9.3603515625 6.127929687500001  9.1162109375 5.883789062499999  C 8.8720703125 5.639648437499998  8.75 5.345052083333332  8.75 5.000000000000001  C 8.75 4.654947916666666  8.8720703125 4.360351562499999  9.1162109375 4.1162109375  C 9.3603515625 3.8720703125000004  9.654947916666668 3.75  10 3.75  C 10.345052083333334 3.75  10.6396484375 3.8720703125000004  10.8837890625 4.1162109375  Z M 13.251953125 9.926757812500002  C 13.583984375 9.1552734375  13.75 8.346354166666668  13.75 7.5  C 13.75 6.653645833333332  13.583984375 5.8447265625  13.251953125 5.073242187500001  C 12.919921875 4.301757812499999  12.4755859375 3.6376953125000004  11.9189453125 3.0810546875000004  C 11.3623046875 2.5244140625000004  10.6982421875 2.080078125  9.9267578125 1.7480468750000004  C 9.1552734375 1.4160156249999996  8.346354166666668 1.2500000000000004  7.5 1.2500000000000004  C 6.653645833333333 1.2500000000000004  5.8447265625 1.4160156249999996  5.0732421875 1.7480468750000004  C 4.3017578125 2.080078125  3.6376953125 2.5244140625000004  3.0810546875 3.0810546875000004  C 2.5244140625 3.6376953125000004  2.080078125 4.301757812499999  1.748046875 5.073242187500001  C 1.416015625 5.8447265625  1.25 6.653645833333332  1.25 7.5  C 1.25 8.346354166666668  1.416015625 9.1552734375  1.748046875 9.926757812500002  C 2.080078125 10.698242187499998  2.5244140625 11.3623046875  3.0810546875 11.9189453125  C 3.6376953125 12.4755859375  4.3017578125 12.919921875  5.0732421875 13.251953125  C 5.8447265625 13.583984375  6.653645833333333 13.75  7.5 13.75  C 8.346354166666668 13.75  9.1552734375 13.583984375  9.9267578125 13.251953125  C 10.6982421875 12.919921875  11.3623046875 12.4755859375  11.9189453125 11.9189453125  C 12.4755859375 11.3623046875  12.919921875 10.698242187499998  13.251953125 9.926757812500002  Z M 13.994140625 3.7353515625  C 14.664713541666664 4.884440104166665  15 6.139322916666664  15 7.5  C 15 8.860677083333334  14.664713541666664 10.115559895833332  13.994140625 11.2646484375  C 13.323567708333336 12.413736979166666  12.413736979166666 13.323567708333334  11.2646484375 13.994140625  C 10.115559895833336 14.664713541666668  8.860677083333334 15  7.5 15  C 6.139322916666667 15  4.884440104166667 14.664713541666668  3.7353515625 13.994140625  C 2.5862630208333335 13.323567708333334  1.676432291666667 12.413736979166666  1.005859375 11.2646484375  C 0.33528645833333326 10.115559895833332  0 8.860677083333334  0 7.5  C 0 6.139322916666664  0.33528645833333326 4.884440104166665  1.005859375 3.7353515625  C 1.676432291666667 2.586263020833333  2.5862630208333335 1.6764322916666652  3.7353515625 1.0058593749999996  C 4.884440104166667 0.33528645833333204  6.139322916666667 0  7.5 0  C 8.860677083333334 0  10.115559895833336 0.33528645833333204  11.2646484375 1.0058593749999996  C 12.413736979166666 1.6764322916666652  13.323567708333336 2.586263020833333  13.994140625 3.7353515625  Z " fill-rule="nonzero" fill="#764ba2" stroke="none" transform="matrix(1 0 0 1 249 9443 )" />
  </g>
</svg>