<?xml version="1.0" encoding="utf-8"?>
<svg version="1.1" xmlns:xlink="http://www.w3.org/1999/xlink" width="19px" height="34px" xmlns="http://www.w3.org/2000/svg">
  <g transform="matrix(1 0 0 1 -1010 -497 )">
    <path d="M 13.986111111111112 0  C 16.141203703703706 0  17.8125 0.08173076923076894  19 0.24519230769230682  L 19 5.639423076923076  L 15.547453703703704 5.639423076923076  C 14.286651234567904 5.639423076923076  13.436342592592593 5.884615384615387  12.996527777777779 6.375  C 12.556712962962964 6.865384615384613  12.336805555555555 7.600961538461538  12.336805555555555 8.581730769230768  L 12.336805555555555 12.443509615384613  L 18.78009259259259 12.443509615384613  L 17.922453703703706 18.491586538461537  L 12 18.491586538461537  L 12 34  L 5.607638888888889 34  L 5.607638888888889 18.491586538461537  L 0 18.491586538461537  L 0 12.443509615384613  L 5.607638888888889 12.443509615384613  L 5.607638888888889 7.989182692307693  C 5.607638888888889 5.455528846153845  6.369984567901235 3.4905849358974343  7.894675925925926 2.094350961538462  C 9.419367283950619 0.6981169871794899  11.449845679012347 0  13.986111111111112 0  Z " fill-rule="nonzero" fill="#ffffff" stroke="none" transform="matrix(1 0 0 1 1010 497 )" />
  </g>
</svg>