<?xml version="1.0" encoding="utf-8"?>
<svg version="1.1" xmlns:xlink="http://www.w3.org/1999/xlink" width="11px" height="22px" xmlns="http://www.w3.org/2000/svg">
  <g transform="matrix(1 0 0 1 -535 -404 )">
    <path d="M 8.097222222222223 0  C 9.344907407407408 0  10.3125 0.0528846153846152  11 0.1586538461538456  L 11 3.649038461538461  L 9.001157407407408 3.649038461538461  C 8.27121913580247 3.649038461538461  7.778935185185185 3.807692307692309  7.524305555555555 4.125  C 7.2696759259259265 4.442307692307692  7.142361111111112 4.91826923076923  7.142361111111112 5.552884615384615  L 7.142361111111112 8.051682692307692  L 10.872685185185185 8.051682692307692  L 10.376157407407408 11.96514423076923  L 7 11.96514423076923  L 7 22  L 3.2465277777777777 22  L 3.2465277777777777 11.96514423076923  L 0 11.96514423076923  L 0 8.051682692307692  L 3.2465277777777777 8.051682692307692  L 3.2465277777777777 5.169471153846154  C 3.2465277777777777 3.5300480769230758  3.687885802469136 2.258613782051281  4.570601851851852 1.3551682692307696  C 5.453317901234569 0.45172275641025816  6.628858024691358 0  8.097222222222223 0  Z " fill-rule="nonzero" fill="#ffffff" stroke="none" transform="matrix(1 0 0 1 535 404 )" />
  </g>
</svg>