<?xml version="1.0" encoding="utf-8"?>
<svg version="1.1" xmlns:xlink="http://www.w3.org/1999/xlink" width="10px" height="10px" xmlns="http://www.w3.org/2000/svg">
  <g transform="matrix(1 0 0 1 -319 -4799 )">
    <path d="M 324 4799  C 326.8 4799  329 4801.2  329 4804  C 329 4806.8  326.8 4809  324 4809  C 321.2 4809  319 4806.8  319 4804  C 319 4801.2  321.2 4799  324 4799  Z " fill-rule="nonzero" fill="#ffffff" stroke="none" />
    <path d="M 324 4799.5  C 326.52 4799.5  328.5 4801.48  328.5 4804  C 328.5 4806.52  326.52 4808.5  324 4808.5  C 321.48 4808.5  319.5 4806.52  319.5 4804  C 319.5 4801.48  321.48 4799.5  324 4799.5  Z " stroke-width="1" stroke="#797979" fill="none" />
  </g>
</svg>