<?xml version="1.0" encoding="utf-8"?>
<svg version="1.1" xmlns:xlink="http://www.w3.org/1999/xlink" width="29px" height="30px" xmlns="http://www.w3.org/2000/svg">
  <g transform="matrix(1 0 0 1 -1005 -549 )">
    <path d="M 14.798671096345513 18.007812500000004  L 14.798671096345513 13  L 28.7687707641196 13  C 28.922923588039865 13.723958333333334  29 14.557291666666664  29 15.3515625  C 29 18.17708333333333  28.415503875968994 20.699869791666664  27.246511627906976 22.919921875  C 26.077519379844965 25.139973958333336  24.41074197120709 26.875  22.246179401993356 28.125  C 20.081616832779623 29.375  17.599114064230342 30  14.798671096345513 30  C 12.78183831672204 30  10.861351052048727 29.606119791666668  9.037209302325582 28.818359375  C 7.213067552602437 28.030598958333336  5.639424141749724 26.966145833333332  4.316279069767441 25.625  C 2.99313399778516 24.283854166666664  1.94296788482835 22.688802083333332  1.16578073089701 20.839843749999996  C 0.38859357696567 18.990885416666664  0 17.044270833333336  0 15  C 0 12.955729166666664  0.38859357696567 11.009114583333332  1.16578073089701 9.160156249999998  C 1.94296788482835 7.311197916666666  2.99313399778516 5.7161458333333295  4.316279069767441 4.375000000000001  C 5.639424141749724 3.033854166666666  7.213067552602437 1.9694010416666652  9.037209302325582 1.181640625000001  C 10.861351052048727 0.3938802083333304  12.78183831672204 0  14.798671096345513 0  C 18.65249169435216 0  21.960354374307865 1.308593749999999  24.722259136212624 3.92578125  L 20.69501661129568 7.8515625  C 19.11495016611296 6.3020833333333295  17.14950166112957 5.527343749999999  14.798671096345513 5.527343749999999  C 13.141528239202657 5.527343749999999  11.609634551495017 5.9505208333333295  10.20299003322259 6.796875  C 8.796345514950167 7.643229166666664  7.681949058693246 8.792317708333329  6.859800664451828 10.244140624999998  C 6.03765227021041 11.695963541666664  5.626578073089701 13.281250000000002  5.626578073089701 15  C 5.626578073089701 16.718750000000004  6.03765227021041 18.30403645833333  6.859800664451828 19.755859374999996  C 7.681949058693246 21.207682291666668  8.796345514950167 22.356770833333332  10.20299003322259 23.203125  C 11.609634551495017 24.049479166666664  13.141528239202657 24.47265625  14.798671096345513 24.47265625  C 15.916279069767443 24.47265625  16.943964562569217 24.31640625  17.88172757475083 24.00390625  C 18.819490586932446 23.69140625  19.590254706533777 23.30078125  20.19401993355482 22.83203125  C 20.79778516057586 22.363281249999996  21.324473975636767 21.829427083333332  21.774086378737543 21.230468750000004  C 22.22369878183832 20.631510416666664  22.554485049833886 20.065104166666668  22.76644518272425 19.531250000000004  C 22.97840531561462 18.99739583333333  23.122923588039868 18.489583333333332  23.200000000000003 18.007812500000004  L 14.798671096345513 18.007812500000004  Z " fill-rule="nonzero" fill="#ffffff" stroke="none" transform="matrix(1 0 0 1 1005 549 )" />
  </g>
</svg>