<?xml version="1.0" encoding="utf-8"?>
<svg version="1.1" xmlns:xlink="http://www.w3.org/1999/xlink" width="19px" height="20px" xmlns="http://www.w3.org/2000/svg">
  <g transform="matrix(1 0 0 1 -531 -445 )">
    <path d="M 9.695681063122922 12.005208333333336  L 9.695681063122922 8.567708333333332  L 18.848504983388704 8.567708333333332  C 18.949501661129567 9.149305555555555  19 9.704861111111109  19 10.234375  C 19 12.118055555555554  18.617054263565894 13.799913194444443  17.851162790697675 15.279947916666668  C 17.08527131782946 16.75998263888889  15.99324473975637 17.916666666666668  14.575083056478405 18.75  C 13.156921373200444 19.583333333333332  11.53045404208195 20  9.695681063122922 20  C 8.374307862679956 20  7.116057585825028 19.737413194444443  5.92093023255814 19.212239583333332  C 4.725802879291252 18.68706597222222  3.694795127353267 17.977430555555557  2.827906976744186 17.083333333333332  C 1.961018826135105 16.18923611111111  1.2729789590254708 15.125868055555555  0.7637873754152824 13.893229166666664  C 0.2545957918050941 12.660590277777777  0 11.362847222222223  0 10  C 0 8.637152777777777  0.2545957918050941 7.339409722222221  0.7637873754152824 6.106770833333332  C 1.2729789590254708 4.874131944444445  1.961018826135105 3.810763888888886  2.827906976744186 2.9166666666666674  C 3.694795127353267 2.022569444444444  4.725802879291252 1.3129340277777768  5.92093023255814 0.7877604166666674  C 7.116057585825028 0.2625868055555536  8.374307862679956 0  9.695681063122922 0  C 12.220598006644519 0  14.387818383167222 0.8723958333333326  16.19734219269103 2.6171875  L 13.558803986710965 5.234375  C 12.52358803986711 4.201388888888886  11.235880398671098 3.6848958333333326  9.695681063122922 3.6848958333333326  C 8.609966777408637 3.6848958333333326  7.606312292358805 3.967013888888886  6.684717607973422 4.53125  C 5.76312292358804 5.095486111111109  5.033001107419713 5.861545138888886  4.494352159468439 6.829427083333332  C 3.9557032115171653 7.797309027777777  3.6863787375415282 8.854166666666668  3.6863787375415282 10  C 3.6863787375415282 11.145833333333336  3.9557032115171653 12.202690972222218  4.494352159468439 13.170572916666664  C 5.033001107419713 14.13845486111111  5.76312292358804 14.90451388888889  6.684717607973422 15.46875  C 7.606312292358805 16.03298611111111  8.609966777408637 16.315104166666668  9.695681063122922 16.315104166666668  C 10.427906976744186 16.315104166666668  11.10121816168328 16.2109375  11.715614617940199 16.002604166666668  C 12.33001107419712 15.794270833333332  12.834994462901442 15.533854166666668  13.230564784053158 15.221354166666668  C 13.626135105204874 14.908854166666664  13.971207087486157 14.55295138888889  14.26578073089701 14.153645833333336  C 14.560354374307863 13.754340277777777  14.777076411960133 13.37673611111111  14.91594684385382 13.020833333333336  C 15.054817275747508 12.664930555555554  15.149501661129568 12.32638888888889  15.200000000000001 12.005208333333336  L 9.695681063122922 12.005208333333336  Z " fill-rule="nonzero" fill="#ffffff" stroke="none" transform="matrix(1 0 0 1 531 445 )" />
  </g>
</svg>