<?xml version="1.0" encoding="utf-8"?>
<svg version="1.1" xmlns:xlink="http://www.w3.org/1999/xlink" width="35px" height="35px" xmlns="http://www.w3.org/2000/svg">
  <defs>
    <filter x="1087px" y="198px" width="35px" height="35px" filterUnits="userSpaceOnUse" id="filter9">
      <feOffset dx="5" dy="5" in="SourceAlpha" result="shadowOffsetInner" />
      <feGaussianBlur stdDeviation="2.5" in="shadowOffsetInner" result="shadowGaussian" />
      <feComposite in2="shadowGaussian" operator="atop" in="SourceAlpha" result="shadowComposite" />
      <feColorMatrix type="matrix" values="0 0 0 0 0  0 0 0 0 0  0 0 0 0 0  0 0 0 0.34901960784313724 0  " in="shadowComposite" />
    </filter>
    <g id="widget10">
      <path d="M 12.820870535714285 11.832682291666666  C 12.904575892857142 11.735026041666666  12.946428571428573 11.610243055555555  12.946428571428573 11.458333333333334  C 12.946428571428573 11.30642361111111  12.904575892857142 11.181640625  12.820870535714285 11.083984375  C 12.737165178571427 10.986328125  12.630208333333334 10.9375  12.5 10.9375  C 11.886160714285714 10.9375  11.360677083333334 11.192491319444445  10.923549107142858 11.702473958333334  C 10.486421130952381 12.212456597222221  10.267857142857142 12.825520833333332  10.267857142857142 13.541666666666668  C 10.267857142857142 13.69357638888889  10.309709821428571 13.818359375  10.393415178571429 13.916015625  C 10.477120535714286 14.013671875  10.584077380952381 14.0625  10.714285714285714 14.0625  C 10.844494047619047 14.0625  10.951450892857142 14.013671875  11.03515625 13.916015625  C 11.118861607142858 13.818359375  11.160714285714286 13.69357638888889  11.160714285714286 13.541666666666668  C 11.160714285714286 13.10763888888889  11.290922619047619 12.738715277777779  11.551339285714286 12.434895833333334  C 11.811755952380953 12.131076388888888  12.12797619047619 11.979166666666666  12.5 11.979166666666666  C 12.630208333333334 11.979166666666666  12.737165178571427 11.930338541666666  12.820870535714285 11.832682291666666  Z M 15.025111607142858 10.628255208333334  C 15.72265625 11.442057291666666  16.071428571428573 12.424045138888888  16.071428571428573 13.57421875  C 16.071428571428573 14.72439236111111  15.72265625 15.706380208333332  15.025111607142858 16.520182291666668  C 14.327566964285715 17.333984375  13.485863095238097 17.740885416666668  12.5 17.740885416666668  C 11.514136904761905 17.740885416666668  10.672433035714286 17.333984375  9.974888392857142 16.520182291666668  C 9.27734375 15.706380208333332  8.928571428571429 14.72439236111111  8.928571428571429 13.57421875  C 8.928571428571429 12.424045138888888  9.27734375 11.442057291666666  9.974888392857142 10.628255208333334  C 10.672433035714286 9.814453125  11.514136904761905 9.407552083333334  12.5 9.407552083333334  C 13.485863095238097 9.407552083333334  14.327566964285715 9.814453125  15.025111607142858 10.628255208333334  Z M 1.7857142857142856 20.833333333333336  L 1.7857142857142856 23  L 23.214285714285715 23  L 23.214285714285715 20.833333333333336  L 1.7857142857142856 20.833333333333336  Z M 16.287667410714285 17.9931640625  C 17.333984375 16.7724609375  17.857142857142858 15.299479166666668  17.857142857142858 13.57421875  C 17.857142857142858 11.848958333333334  17.333984375 10.3759765625  16.287667410714285 9.1552734375  C 15.241350446428573 7.9345703125  13.978794642857142 7.32421875  12.5 7.32421875  C 11.021205357142858 7.32421875  9.758649553571429 7.9345703125  8.712332589285714 9.1552734375  C 7.666015625 10.3759765625  7.142857142857142 11.848958333333334  7.142857142857142 13.57421875  C 7.142857142857142 15.299479166666668  7.666015625 16.7724609375  8.712332589285714 17.9931640625  C 9.758649553571429 19.2138671875  11.021205357142858 19.82421875  12.5 19.82421875  C 13.978794642857142 19.82421875  15.241350446428573 19.2138671875  16.287667410714285 17.9931640625  Z M 3.571428571428571 1.0416666666666656  L 3.571428571428571 3.125  L 8.928571428571429 3.125  L 8.928571428571429 1.0416666666666656  L 3.571428571428571 1.0416666666666656  Z M 1.7857142857142856 4.166666666666666  L 1.7857142857142856 6.25  L 23.214285714285715 6.25  L 23.214285714285715 4.329427083333334  L 23.214285714285715 2  L 11.662946428571429 2  L 10.770089285714286 4.166666666666666  L 1.7857142857142856 4.166666666666666  Z M 24.476841517857142 0.6103515625  C 24.825613839285715 1.0172526041666656  25 1.5082465277777763  25 2.0833333333333344  L 25 22.916666666666664  C 25 23.49175347222222  24.825613839285715 23.982747395833336  24.476841517857142 24.3896484375  C 24.128069196428573 24.796549479166664  23.707217261904763 25  23.214285714285715 25  L 1.7857142857142856 25  C 1.2927827380952381 25  0.8719308035714286 24.796549479166664  0.5231584821428571 24.3896484375  C 0.17438616071428573 23.982747395833336  0 23.49175347222222  0 22.916666666666664  L 0 2.0833333333333344  C 0 1.5082465277777763  0.17438616071428573 1.0172526041666656  0.5231584821428571 0.6103515625  C 0.8719308035714286 0.20345052083333426  1.2927827380952381 0  1.7857142857142856 0  L 23.214285714285715 0  C 23.707217261904763 0  24.128069196428573 0.20345052083333426  24.476841517857142 0.6103515625  Z " fill-rule="nonzero" fill="#1be44c" stroke="none" transform="matrix(1 0 0 1 1087 198 )" />
    </g>
  </defs>
  <g transform="matrix(1 0 0 1 -1087 -198 )">
    <use xlink:href="#widget10" filter="url(#filter9)" />
    <use xlink:href="#widget10" />
  </g>
</svg>