<?xml version="1.0" encoding="utf-8"?>
<svg version="1.1" xmlns:xlink="http://www.w3.org/1999/xlink" width="28px" height="28px" xmlns="http://www.w3.org/2000/svg">
  <defs>
    <filter x="585px" y="163px" width="28px" height="28px" filterUnits="userSpaceOnUse" id="filter73">
      <feOffset dx="5" dy="5" in="SourceAlpha" result="shadowOffsetInner" />
      <feGaussianBlur stdDeviation="2.5" in="shadowOffsetInner" result="shadowGaussian" />
      <feComposite in2="shadowGaussian" operator="atop" in="SourceAlpha" result="shadowComposite" />
      <feColorMatrix type="matrix" values="0 0 0 0 0  0 0 0 0 0  0 0 0 0 0  0 0 0 0.34901960784313724 0  " in="shadowComposite" />
    </filter>
    <g id="widget74">
      <path d="M 9.231026785714285 8.51953125  C 9.291294642857142 8.44921875  9.321428571428573 8.359375  9.321428571428573 8.25  C 9.321428571428573 8.140625  9.291294642857142 8.05078125  9.231026785714285 7.98046875  C 9.170758928571427 7.91015625  9.09375 7.875  9 7.875  C 8.558035714285714 7.875  8.1796875 8.05859375  7.864955357142858 8.42578125  C 7.550223214285715 8.79296875  7.392857142857142 9.234374999999998  7.392857142857142 9.750000000000002  C 7.392857142857142 9.859375  7.422991071428571 9.94921875  7.483258928571429 10.01953125  C 7.5435267857142865 10.08984375  7.620535714285715 10.125  7.7142857142857135 10.125  C 7.808035714285714 10.125  7.885044642857142 10.08984375  7.9453125 10.01953125  C 8.005580357142858 9.94921875  8.035714285714286 9.859375  8.035714285714286 9.750000000000002  C 8.035714285714286 9.4375  8.129464285714286 9.171875  8.316964285714286 8.953125  C 8.504464285714286 8.734374999999998  8.732142857142858 8.625  9 8.625  C 9.09375 8.625  9.170758928571427 8.58984375  9.231026785714285 8.51953125  Z M 10.818080357142858 7.652343750000001  C 11.3203125 8.23828125  11.571428571428573 8.945312499999998  11.571428571428573 9.7734375  C 11.571428571428573 10.6015625  11.3203125 11.308593749999998  10.818080357142858 11.894531250000002  C 10.315848214285715 12.48046875  9.709821428571429 12.773437500000002  9 12.773437500000002  C 8.290178571428571 12.773437500000002  7.6841517857142865 12.48046875  7.181919642857142 11.894531250000002  C 6.6796875 11.308593749999998  6.428571428571429 10.6015625  6.428571428571429 9.7734375  C 6.428571428571429 8.945312499999998  6.6796875 8.23828125  7.181919642857142 7.652343750000001  C 7.6841517857142865 7.06640625  8.290178571428571 6.773437500000001  9 6.773437500000001  C 9.709821428571429 6.773437500000001  10.315848214285715 7.06640625  10.818080357142858 7.652343750000001  Z M 1.2857142857142856 15  L 1.2857142857142856 16.5  L 16.714285714285715 16.5  L 16.714285714285715 15  L 1.2857142857142856 15  Z M 11.727120535714285 12.955078125  C 12.48046875 12.076171875  12.857142857142858 11.015625000000002  12.857142857142858 9.7734375  C 12.857142857142858 8.53125  12.48046875 7.470703125  11.727120535714285 6.591796875  C 10.973772321428573 5.712890625  10.064732142857142 5.2734375  9 5.2734375  C 7.935267857142858 5.2734375  7.026227678571429 5.712890625  6.2728794642857135 6.591796875  C 5.51953125 7.470703125  5.142857142857142 8.53125  5.142857142857142 9.7734375  C 5.142857142857142 11.015625000000002  5.51953125 12.076171875  6.2728794642857135 12.955078125  C 7.026227678571429 13.833984375  7.935267857142858 14.2734375  9 14.2734375  C 10.064732142857142 14.2734375  10.973772321428573 13.833984375  11.727120535714285 12.955078125  Z M 2.571428571428571 0.7499999999999993  L 2.571428571428571 2.25  L 6.428571428571429 2.25  L 6.428571428571429 0.7499999999999993  L 2.571428571428571 0.7499999999999993  Z M 1.2857142857142856 2.999999999999999  L 1.2857142857142856 4.5  L 16.714285714285715 4.5  L 16.714285714285715 3.117187500000001  L 16.714285714285715 1.5000000000000007  L 8.397321428571429 1.5000000000000007  L 7.7544642857142865 2.999999999999999  L 1.2857142857142856 2.999999999999999  Z M 17.623325892857142 0.439453125  C 17.874441964285715 0.7324218749999993  18 1.085937499999999  18 1.5000000000000007  L 18 16.5  C 18 16.9140625  17.874441964285715 17.267578125  17.623325892857142 17.560546875  C 17.372209821428573 17.853515625  17.06919642857143 18  16.714285714285715 18  L 1.2857142857142856 18  C 0.9308035714285715 18  0.6277901785714286 17.853515625  0.3766741071428571 17.560546875  C 0.12555803571428573 17.267578125  0 16.9140625  0 16.5  L 0 1.5000000000000007  C 0 1.085937499999999  0.12555803571428573 0.7324218749999993  0.3766741071428571 0.439453125  C 0.6277901785714286 0.14648437500000067  0.9308035714285715 0  1.2857142857142856 0  L 16.714285714285715 0  C 17.06919642857143 0  17.372209821428573 0.14648437500000067  17.623325892857142 0.439453125  Z " fill-rule="nonzero" fill="#1be44c" stroke="none" transform="matrix(1 0 0 1 585 163 )" />
    </g>
  </defs>
  <g transform="matrix(1 0 0 1 -585 -163 )">
    <use xlink:href="#widget74" filter="url(#filter73)" />
    <use xlink:href="#widget74" />
  </g>
</svg>