<?xml version="1.0" encoding="utf-8"?>
<svg version="1.1" xmlns:xlink="http://www.w3.org/1999/xlink" width="146px" height="80px" xmlns="http://www.w3.org/2000/svg">
  <g transform="matrix(1 0 0 1 -302 -3298 )">
    <path d="M 73.22884012539184 80  C 89.79008962098465 80  104.9091171875466 74.18654633816452  117.02296747189307 64.27785337400609  C 124.66597993936338 69.93519506577465  134.77892831876824 73.33333333333333  146 73.33333333333333  L 145.99804505159508 0.6060606565450206  C 145.999347636686 0.404237598175307  146 0.20221659457023855  146 0  L 0.45768025078369906 0  C 0.45768025078369906 0.20285113876658062  0.4583367146794525 0.40550545713536007  0.4596476880020822 0.6079635129711822  C 0.3066412732660189 0.6066958787765874  0.15342421695319686 0.6060606060606061  0 0.6060606060606061  L 0 73.33333333333333  C 11.338849960621266 73.33333333333333  21.546192436131033 69.86348581830742  29.216881698471163 64.09896673802537  C 41.36709758791882 74.11654113821821  56.568174324644446 80  73.22884012539184 80  Z " fill-rule="nonzero" fill="#7f7f7f" stroke="none" transform="matrix(1 0 0 1 302 3298 )" />
  </g>
</svg>