<?xml version="1.0" encoding="utf-8"?>
<svg version="1.1" xmlns:xlink="http://www.w3.org/1999/xlink" width="129px" height="75px" xmlns="http://www.w3.org/2000/svg">
  <g transform="matrix(1 0 0 1 -70 -2528 )">
    <path d="M 64.70219435736676 75  C 79.33507918566451 75  92.693672035572 69.54988719202923  103.3970055059877 60.26048753813071  C 110.15007816560188 65.56424537416373  119.08549145973356 68.75  129 68.75  L 128.99827268257374 0.5681818655109568  C 128.9994235967979 0.3789727482893503  129 0.18957805740959865  129 0  L 0.4043887147335423 0  C 0.4043887147335423 0.19017294259366935  0.40496874105239294 0.3801613660644001  0.40612706679636035 0.5699657934104834  C 0.2709364674747701 0.5687773863530508  0.13555975333535888 0.5681818181818182  0 0.5681818181818182  L 0 68.75  C 10.01857291041194 68.75  19.03738920726646 65.4970179546632  25.814916021251918 60.09278131689878  C 36.55038074548992 69.48425731707957  49.98146909506256 75  64.70219435736676 75  Z " fill-rule="nonzero" fill="#7f7f7f" stroke="none" transform="matrix(1 0 0 1 70 2528 )" />
  </g>
</svg>