<?xml version="1.0" encoding="utf-8"?>
<svg version="1.1" xmlns:xlink="http://www.w3.org/1999/xlink" width="20px" height="20px" xmlns="http://www.w3.org/2000/svg">
  <g transform="matrix(1 0 0 1 -132 -189 )">
    <path d="M 10.256696428571427 9.466145833333332  C 10.323660714285714 9.388020833333332  10.357142857142858 9.288194444444445  10.357142857142858 9.166666666666668  C 10.357142857142858 9.04513888888889  10.323660714285714 8.9453125  10.256696428571427 8.8671875  C 10.189732142857142 8.7890625  10.104166666666668 8.75  10 8.75  C 9.508928571428571 8.75  9.088541666666668 8.953993055555555  8.738839285714286 9.361979166666668  C 8.389136904761905 9.769965277777777  8.214285714285714 10.260416666666664  8.214285714285714 10.833333333333336  C 8.214285714285714 10.95486111111111  8.247767857142858 11.0546875  8.314732142857142 11.1328125  C 8.381696428571429 11.2109375  8.467261904761905 11.25  8.571428571428571 11.25  C 8.675595238095239 11.25  8.761160714285714 11.2109375  8.828125 11.1328125  C 8.895089285714286 11.0546875  8.928571428571429 10.95486111111111  8.928571428571429 10.833333333333336  C 8.928571428571429 10.48611111111111  9.032738095238095 10.190972222222223  9.241071428571429 9.947916666666668  C 9.449404761904763 9.704861111111109  9.702380952380953 9.583333333333332  10 9.583333333333332  C 10.104166666666668 9.583333333333332  10.189732142857142 9.544270833333332  10.256696428571427 9.466145833333332  Z M 12.020089285714286 8.502604166666668  C 12.578125 9.153645833333332  12.857142857142858 9.939236111111109  12.857142857142858 10.859375  C 12.857142857142858 11.77951388888889  12.578125 12.565104166666664  12.020089285714286 13.216145833333336  C 11.462053571428573 13.8671875  10.788690476190476 14.192708333333336  10 14.192708333333336  C 9.211309523809524 14.192708333333336  8.537946428571429 13.8671875  7.9799107142857135 13.216145833333336  C 7.421875 12.565104166666664  7.142857142857143 11.77951388888889  7.142857142857143 10.859375  C 7.142857142857143 9.939236111111109  7.421875 9.153645833333332  7.9799107142857135 8.502604166666668  C 8.537946428571429 7.8515625  9.211309523809524 7.526041666666668  10 7.526041666666668  C 10.788690476190476 7.526041666666668  11.462053571428573 7.8515625  12.020089285714286 8.502604166666668  Z M 1.4285714285714284 16.666666666666668  L 1.4285714285714284 18  L 18.571428571428573 18  L 18.571428571428573 16.666666666666668  L 1.4285714285714284 16.666666666666668  Z M 13.030133928571427 14.39453125  C 13.8671875 13.41796875  14.285714285714286 12.239583333333336  14.285714285714286 10.859375  C 14.285714285714286 9.479166666666668  13.8671875 8.30078125  13.030133928571427 7.32421875  C 12.193080357142858 6.34765625  11.183035714285714 5.859375  10 5.859375  C 8.816964285714286 5.859375  7.806919642857143 6.34765625  6.969866071428571 7.32421875  C 6.1328125 8.30078125  5.7142857142857135 9.479166666666668  5.7142857142857135 10.859375  C 5.7142857142857135 12.239583333333336  6.1328125 13.41796875  6.969866071428571 14.39453125  C 7.806919642857143 15.37109375  8.816964285714286 15.859375  10 15.859375  C 11.183035714285714 15.859375  12.193080357142858 15.37109375  13.030133928571427 14.39453125  Z M 2.8571428571428568 0.8333333333333326  L 2.8571428571428568 2.5  L 7.142857142857143 2.5  L 7.142857142857143 0.8333333333333326  L 2.8571428571428568 0.8333333333333326  Z M 1.4285714285714284 3.3333333333333326  L 1.4285714285714284 5  L 18.571428571428573 5  L 18.571428571428573 3.4635416666666674  L 18.571428571428573 1.6666666666666674  L 9.330357142857142 1.6666666666666674  L 8.616071428571429 3.3333333333333326  L 1.4285714285714284 3.3333333333333326  Z M 19.581473214285715 0.48828125  C 19.860491071428573 0.8138020833333326  20 1.206597222222221  20 1.6666666666666674  L 20 18.333333333333332  C 20 18.79340277777778  19.860491071428573 19.186197916666668  19.581473214285715 19.51171875  C 19.302455357142858 19.837239583333332  18.96577380952381 20  18.571428571428573 20  L 1.4285714285714284 20  C 1.0342261904761905 20  0.6975446428571429 19.837239583333332  0.4185267857142857 19.51171875  C 0.13950892857142858 19.186197916666668  0 18.79340277777778  0 18.333333333333332  L 0 1.6666666666666674  C 0 1.206597222222221  0.13950892857142858 0.8138020833333326  0.4185267857142857 0.48828125  C 0.6975446428571429 0.1627604166666674  1.0342261904761905 0  1.4285714285714284 0  L 18.571428571428573 0  C 18.96577380952381 0  19.302455357142858 0.1627604166666674  19.581473214285715 0.48828125  Z " fill-rule="nonzero" fill="#1be44c" stroke="none" transform="matrix(1 0 0 1 132 189 )" />
  </g>
</svg>