<?xml version="1.0" encoding="utf-8"?>
<svg version="1.1" xmlns:xlink="http://www.w3.org/1999/xlink" width="20px" height="20px" xmlns="http://www.w3.org/2000/svg">
  <g transform="matrix(1 0 0 1 -320 -5514 )">
    <path d="M 330 5514  C 335.6 5514  340 5518.4  340 5524  C 340 5529.6  335.6 5534  330 5534  C 324.4 5534  320 5529.6  320 5524  C 320 5518.4  324.4 5514  330 5514  Z " fill-rule="nonzero" fill="#ffffff" stroke="none" />
    <path d="M 330 5514.5  C 335.32 5514.5  339.5 5518.68  339.5 5524  C 339.5 5529.32  335.32 5533.5  330 5533.5  C 324.68 5533.5  320.5 5529.32  320.5 5524  C 320.5 5518.68  324.68 5514.5  330 5514.5  Z " stroke-width="1" stroke="#797979" fill="none" />
  </g>
</svg>