<?xml version="1.0" encoding="utf-8"?>
<svg version="1.1" xmlns:xlink="http://www.w3.org/1999/xlink" width="20px" height="15px" xmlns="http://www.w3.org/2000/svg">
  <defs>
    <mask fill="white" id="clip78">
      <path d="M 13.264 14.350800000000001  C 13.263 14.3508  12.840999999999998 15.0393  12.496 14.172600000000001  C 12.102 13.186200000000001  10.690999999999999 9.875100000000002  10.106 8.505300000000002  C 9.003 9.168600000000001  7.772000000000001 9.796800000000001  6.593999999999999 10.240500000000003  C 6.228 11.392500000000002  5.499999999999999 13.578600000000002  5.148 13.870200000000002  C 4.544 14.371500000000001  4.316 14.306700000000003  4.223 13.619100000000003  C 4.130000000000001 12.931500000000003  3.7379999999999995 10.706700000000003  3.7379999999999995 10.706700000000003  C 3.7379999999999995 10.706700000000003  1.576 9.609600000000002  0.8980000000000001 9.295500000000002  C 0.2200000000000002 8.981400000000002  0.2310000000000001 8.763600000000004  0.9550000000000002 8.418900000000002  C 1.3770000000000004 8.218200000000001  3.8820000000000006 8.342400000000001  5.196999999999999 8.423400000000003  C 6.058 7.567500000000003  7.128000000000001 6.729600000000003  8.19 6.012300000000003  C 6.975 5.0439  4.04 2.7047999999999996  3.1560000000000006 2.0307  C 2.38 1.4385000000000003  3.2349999999999994 1.3134000000000001  3.2349999999999994 1.3134000000000001  C 3.6250000000000004 1.2504  4.457000000000001 1.1945999999999999  4.8629999999999995 1.3053  C 7.3870000000000005 1.992  11.305 3.166500000000001  12.225999999999999 3.4437000000000006  C 12.579 3.2196000000000007  12.962999999999997 2.9757000000000007  13.388 2.7048000000000005  C 18.09 -0.29219999999999957  19.275 0.37110000000000065  19.499 0.6618000000000004  C 19.723 0.9525000000000007  20.002 2.1927000000000008  15.3 5.190600000000001  C 14.874999999999998 5.461500000000001  14.492 5.7063000000000015  14.139999999999999 5.931300000000001  C 14.111 6.813300000000002  13.982999999999999 10.567200000000001  13.829 12.961200000000002  C 13.803999999999998 13.346400000000003  13.462 14.039400000000002  13.264 14.350800000000001  Z " fill-rule="evenodd" />
    </mask>
  </defs>
  <g transform="matrix(1 0 0 1 -548 -1731 )">
    <path d="M 13.264 14.350800000000001  C 13.263 14.3508  12.840999999999998 15.0393  12.496 14.172600000000001  C 12.102 13.186200000000001  10.690999999999999 9.875100000000002  10.106 8.505300000000002  C 9.003 9.168600000000001  7.772000000000001 9.796800000000001  6.593999999999999 10.240500000000003  C 6.228 11.392500000000002  5.499999999999999 13.578600000000002  5.148 13.870200000000002  C 4.544 14.371500000000001  4.316 14.306700000000003  4.223 13.619100000000003  C 4.130000000000001 12.931500000000003  3.7379999999999995 10.706700000000003  3.7379999999999995 10.706700000000003  C 3.7379999999999995 10.706700000000003  1.576 9.609600000000002  0.8980000000000001 9.295500000000002  C 0.2200000000000002 8.981400000000002  0.2310000000000001 8.763600000000004  0.9550000000000002 8.418900000000002  C 1.3770000000000004 8.218200000000001  3.8820000000000006 8.342400000000001  5.196999999999999 8.423400000000003  C 6.058 7.567500000000003  7.128000000000001 6.729600000000003  8.19 6.012300000000003  C 6.975 5.0439  4.04 2.7047999999999996  3.1560000000000006 2.0307  C 2.38 1.4385000000000003  3.2349999999999994 1.3134000000000001  3.2349999999999994 1.3134000000000001  C 3.6250000000000004 1.2504  4.457000000000001 1.1945999999999999  4.8629999999999995 1.3053  C 7.3870000000000005 1.992  11.305 3.166500000000001  12.225999999999999 3.4437000000000006  C 12.579 3.2196000000000007  12.962999999999997 2.9757000000000007  13.388 2.7048000000000005  C 18.09 -0.29219999999999957  19.275 0.37110000000000065  19.499 0.6618000000000004  C 19.723 0.9525000000000007  20.002 2.1927000000000008  15.3 5.190600000000001  C 14.874999999999998 5.461500000000001  14.492 5.7063000000000015  14.139999999999999 5.931300000000001  C 14.111 6.813300000000002  13.982999999999999 10.567200000000001  13.829 12.961200000000002  C 13.803999999999998 13.346400000000003  13.462 14.039400000000002  13.264 14.350800000000001  Z " fill-rule="nonzero" fill="#764ba2" stroke="none" fill-opacity="0" transform="matrix(1 0 0 1 548 1731 )" />
    <path d="M 13.264 14.350800000000001  C 13.263 14.3508  12.840999999999998 15.0393  12.496 14.172600000000001  C 12.102 13.186200000000001  10.690999999999999 9.875100000000002  10.106 8.505300000000002  C 9.003 9.168600000000001  7.772000000000001 9.796800000000001  6.593999999999999 10.240500000000003  C 6.228 11.392500000000002  5.499999999999999 13.578600000000002  5.148 13.870200000000002  C 4.544 14.371500000000001  4.316 14.306700000000003  4.223 13.619100000000003  C 4.130000000000001 12.931500000000003  3.7379999999999995 10.706700000000003  3.7379999999999995 10.706700000000003  C 3.7379999999999995 10.706700000000003  1.576 9.609600000000002  0.8980000000000001 9.295500000000002  C 0.2200000000000002 8.981400000000002  0.2310000000000001 8.763600000000004  0.9550000000000002 8.418900000000002  C 1.3770000000000004 8.218200000000001  3.8820000000000006 8.342400000000001  5.196999999999999 8.423400000000003  C 6.058 7.567500000000003  7.128000000000001 6.729600000000003  8.19 6.012300000000003  C 6.975 5.0439  4.04 2.7047999999999996  3.1560000000000006 2.0307  C 2.38 1.4385000000000003  3.2349999999999994 1.3134000000000001  3.2349999999999994 1.3134000000000001  C 3.6250000000000004 1.2504  4.457000000000001 1.1945999999999999  4.8629999999999995 1.3053  C 7.3870000000000005 1.992  11.305 3.166500000000001  12.225999999999999 3.4437000000000006  C 12.579 3.2196000000000007  12.962999999999997 2.9757000000000007  13.388 2.7048000000000005  C 18.09 -0.29219999999999957  19.275 0.37110000000000065  19.499 0.6618000000000004  C 19.723 0.9525000000000007  20.002 2.1927000000000008  15.3 5.190600000000001  C 14.874999999999998 5.461500000000001  14.492 5.7063000000000015  14.139999999999999 5.931300000000001  C 14.111 6.813300000000002  13.982999999999999 10.567200000000001  13.829 12.961200000000002  C 13.803999999999998 13.346400000000003  13.462 14.039400000000002  13.264 14.350800000000001  Z " stroke-width="2" stroke="#764ba2" fill="none" transform="matrix(1 0 0 1 548 1731 )" mask="url(#clip78)" />
  </g>
</svg>