<?xml version="1.0" encoding="utf-8"?>
<svg version="1.1" xmlns:xlink="http://www.w3.org/1999/xlink" width="24px" height="20px" xmlns="http://www.w3.org/2000/svg">
  <defs>
    <mask fill="white" id="clip14">
      <path d="M 15.9168 19.134400000000003  C 15.915600000000001 19.1344  15.409199999999998 20.052400000000002  14.9952 18.8968  C 14.5224 17.5816  12.8292 13.166800000000002  12.127199999999998 11.340400000000002  C 10.803600000000001 12.224800000000002  9.326400000000001 13.0624  7.9128 13.654000000000003  C 7.4736 15.190000000000003  6.6 18.104800000000004  6.177599999999999 18.493600000000004  C 5.4528 19.162000000000003  5.1792 19.075600000000005  5.0676000000000005 18.158800000000003  C 4.956 17.242000000000004  4.4856 14.275600000000004  4.4856 14.275600000000004  C 4.4856 14.275600000000004  1.8912000000000002 12.812800000000003  1.0776000000000003 12.394000000000002  C 0.26400000000000023 11.975200000000005  0.2772000000000001 11.684800000000005  1.1460000000000001 11.225200000000005  C 1.6524000000000005 10.957600000000001  4.6584 11.123200000000002  6.2364 11.231200000000003  C 7.2696000000000005 10.090000000000003  8.553600000000001 8.972800000000005  9.828 8.016400000000004  C 8.370000000000001 6.7252  4.848000000000001 3.6064  3.7872000000000003 2.7076000000000002  C 2.856 1.9180000000000006  3.8819999999999997 1.7512000000000003  3.8819999999999997 1.7512000000000003  C 4.3500000000000005 1.6672  5.348400000000001 1.5927999999999998  5.8355999999999995 1.7404  C 8.8644 2.656  13.566 4.222000000000001  14.671199999999999 4.591600000000001  C 15.0948 4.2928000000000015  15.555599999999998 3.967600000000001  16.0656 3.6064000000000007  C 21.708 -0.38959999999999945  23.13 0.49480000000000085  23.3988 0.8824000000000005  C 23.667599999999997 1.270000000000001  24.0024 2.9236000000000013  18.36 6.920800000000002  C 17.849999999999998 7.282000000000001  17.3904 7.608400000000001  16.968 7.908400000000001  C 16.9332 9.084400000000002  16.7796 14.089600000000003  16.5948 17.2816  C 16.564799999999998 17.795200000000005  16.154400000000003 18.7192  15.9168 19.134400000000003  Z " fill-rule="evenodd" />
    </mask>
  </defs>
  <g transform="matrix(1 0 0 1 -1050 -2249 )">
    <path d="M 15.9168 19.134400000000003  C 15.915600000000001 19.1344  15.409199999999998 20.052400000000002  14.9952 18.8968  C 14.5224 17.5816  12.8292 13.166800000000002  12.127199999999998 11.340400000000002  C 10.803600000000001 12.224800000000002  9.326400000000001 13.0624  7.9128 13.654000000000003  C 7.4736 15.190000000000003  6.6 18.104800000000004  6.177599999999999 18.493600000000004  C 5.4528 19.162000000000003  5.1792 19.075600000000005  5.0676000000000005 18.158800000000003  C 4.956 17.242000000000004  4.4856 14.275600000000004  4.4856 14.275600000000004  C 4.4856 14.275600000000004  1.8912000000000002 12.812800000000003  1.0776000000000003 12.394000000000002  C 0.26400000000000023 11.975200000000005  0.2772000000000001 11.684800000000005  1.1460000000000001 11.225200000000005  C 1.6524000000000005 10.957600000000001  4.6584 11.123200000000002  6.2364 11.231200000000003  C 7.2696000000000005 10.090000000000003  8.553600000000001 8.972800000000005  9.828 8.016400000000004  C 8.370000000000001 6.7252  4.848000000000001 3.6064  3.7872000000000003 2.7076000000000002  C 2.856 1.9180000000000006  3.8819999999999997 1.7512000000000003  3.8819999999999997 1.7512000000000003  C 4.3500000000000005 1.6672  5.348400000000001 1.5927999999999998  5.8355999999999995 1.7404  C 8.8644 2.656  13.566 4.222000000000001  14.671199999999999 4.591600000000001  C 15.0948 4.2928000000000015  15.555599999999998 3.967600000000001  16.0656 3.6064000000000007  C 21.708 -0.38959999999999945  23.13 0.49480000000000085  23.3988 0.8824000000000005  C 23.667599999999997 1.270000000000001  24.0024 2.9236000000000013  18.36 6.920800000000002  C 17.849999999999998 7.282000000000001  17.3904 7.608400000000001  16.968 7.908400000000001  C 16.9332 9.084400000000002  16.7796 14.089600000000003  16.5948 17.2816  C 16.564799999999998 17.795200000000005  16.154400000000003 18.7192  15.9168 19.134400000000003  Z " fill-rule="nonzero" fill="#764ba2" stroke="none" fill-opacity="0" transform="matrix(1 0 0 1 1050 2249 )" />
    <path d="M 15.9168 19.134400000000003  C 15.915600000000001 19.1344  15.409199999999998 20.052400000000002  14.9952 18.8968  C 14.5224 17.5816  12.8292 13.166800000000002  12.127199999999998 11.340400000000002  C 10.803600000000001 12.224800000000002  9.326400000000001 13.0624  7.9128 13.654000000000003  C 7.4736 15.190000000000003  6.6 18.104800000000004  6.177599999999999 18.493600000000004  C 5.4528 19.162000000000003  5.1792 19.075600000000005  5.0676000000000005 18.158800000000003  C 4.956 17.242000000000004  4.4856 14.275600000000004  4.4856 14.275600000000004  C 4.4856 14.275600000000004  1.8912000000000002 12.812800000000003  1.0776000000000003 12.394000000000002  C 0.26400000000000023 11.975200000000005  0.2772000000000001 11.684800000000005  1.1460000000000001 11.225200000000005  C 1.6524000000000005 10.957600000000001  4.6584 11.123200000000002  6.2364 11.231200000000003  C 7.2696000000000005 10.090000000000003  8.553600000000001 8.972800000000005  9.828 8.016400000000004  C 8.370000000000001 6.7252  4.848000000000001 3.6064  3.7872000000000003 2.7076000000000002  C 2.856 1.9180000000000006  3.8819999999999997 1.7512000000000003  3.8819999999999997 1.7512000000000003  C 4.3500000000000005 1.6672  5.348400000000001 1.5927999999999998  5.8355999999999995 1.7404  C 8.8644 2.656  13.566 4.222000000000001  14.671199999999999 4.591600000000001  C 15.0948 4.2928000000000015  15.555599999999998 3.967600000000001  16.0656 3.6064000000000007  C 21.708 -0.38959999999999945  23.13 0.49480000000000085  23.3988 0.8824000000000005  C 23.667599999999997 1.270000000000001  24.0024 2.9236000000000013  18.36 6.920800000000002  C 17.849999999999998 7.282000000000001  17.3904 7.608400000000001  16.968 7.908400000000001  C 16.9332 9.084400000000002  16.7796 14.089600000000003  16.5948 17.2816  C 16.564799999999998 17.795200000000005  16.154400000000003 18.7192  15.9168 19.134400000000003  Z " stroke-width="2" stroke="#764ba2" fill="none" transform="matrix(1 0 0 1 1050 2249 )" mask="url(#clip14)" />
  </g>
</svg>