<?xml version="1.0" encoding="utf-8"?>
<svg version="1.1" xmlns:xlink="http://www.w3.org/1999/xlink" width="11px" height="11px" xmlns="http://www.w3.org/2000/svg">
  <defs>
    <mask fill="white" id="clip82">
      <path d="M 5.133333333333334 1.4666666666666666  L 5.133333333333334 3.6666666666666665  C 5.133333333333334 4.48799999999992  4.488000000000003 5.133333333333334  3.6666666666666665 5.133333333333334  L 1.4666666666666666 5.133333333333334  C 0.64533333333333 5.133333333333334  0 4.48799999999992  0 3.6666666666666665  L 0 1.4666666666666666  C 0 0.6453333333334134  0.64533333333333 0  1.4666666666666666 0  L 3.6666666666666665 0  C 4.488000000000003 0  5.133333333333334 0.6453333333334134  5.133333333333334 1.4666666666666666  Z M 5.133333333333334 7.333333333333333  L 5.133333333333334 9.533333333333333  C 5.133333333333334 10.354666666666587  4.488000000000003 11  3.6666666666666665 11  L 1.4666666666666666 11  C 0.64533333333333 11  0 10.354666666666587  0 9.533333333333333  L 0 7.333333333333333  C 0 6.51200000000008  0.64533333333333 5.866666666666666  1.4666666666666666 5.866666666666666  L 3.6666666666666665 5.866666666666666  C 4.488000000000003 5.866666666666666  5.133333333333334 6.51200000000008  5.133333333333334 7.333333333333333  Z M 11 3.6666666666666665  C 11 4.48799999999992  10.35466666666667 5.133333333333334  9.533333333333333 5.133333333333334  L 7.333333333333333 5.133333333333334  C 6.511999999999997 5.133333333333334  5.866666666666666 4.48799999999992  5.866666666666666 3.6666666666666665  L 5.866666666666666 1.4666666666666666  C 5.866666666666666 0.6453333333334134  6.511999999999997 0  7.333333333333333 0  L 9.533333333333333 0  C 10.35466666666667 0  11 0.6453333333334134  11 1.4666666666666666  L 11 3.6666666666666665  Z M 9.533333333333333 11  L 7.333333333333333 11  C 6.511999999999997 11  5.866666666666666 10.354666666666587  5.866666666666666 9.533333333333333  L 5.866666666666666 7.333333333333333  C 5.866666666666666 6.51200000000008  6.511999999999997 5.866666666666666  7.333333333333333 5.866666666666666  L 9.533333333333333 5.866666666666666  C 10.35466666666667 5.866666666666666  11 6.51200000000008  11 7.333333333333333  L 11 9.533333333333333  C 11 10.354666666666587  10.35466666666667 11  9.533333333333333 11  Z " fill-rule="evenodd" />
    </mask>
  </defs>
  <g transform="matrix(1 0 0 1 -515 -1783 )">
    <path d="M 5.133333333333334 1.4666666666666666  L 5.133333333333334 3.6666666666666665  C 5.133333333333334 4.48799999999992  4.488000000000003 5.133333333333334  3.6666666666666665 5.133333333333334  L 1.4666666666666666 5.133333333333334  C 0.64533333333333 5.133333333333334  0 4.48799999999992  0 3.6666666666666665  L 0 1.4666666666666666  C 0 0.6453333333334134  0.64533333333333 0  1.4666666666666666 0  L 3.6666666666666665 0  C 4.488000000000003 0  5.133333333333334 0.6453333333334134  5.133333333333334 1.4666666666666666  Z M 5.133333333333334 7.333333333333333  L 5.133333333333334 9.533333333333333  C 5.133333333333334 10.354666666666587  4.488000000000003 11  3.6666666666666665 11  L 1.4666666666666666 11  C 0.64533333333333 11  0 10.354666666666587  0 9.533333333333333  L 0 7.333333333333333  C 0 6.51200000000008  0.64533333333333 5.866666666666666  1.4666666666666666 5.866666666666666  L 3.6666666666666665 5.866666666666666  C 4.488000000000003 5.866666666666666  5.133333333333334 6.51200000000008  5.133333333333334 7.333333333333333  Z M 11 3.6666666666666665  C 11 4.48799999999992  10.35466666666667 5.133333333333334  9.533333333333333 5.133333333333334  L 7.333333333333333 5.133333333333334  C 6.511999999999997 5.133333333333334  5.866666666666666 4.48799999999992  5.866666666666666 3.6666666666666665  L 5.866666666666666 1.4666666666666666  C 5.866666666666666 0.6453333333334134  6.511999999999997 0  7.333333333333333 0  L 9.533333333333333 0  C 10.35466666666667 0  11 0.6453333333334134  11 1.4666666666666666  L 11 3.6666666666666665  Z M 9.533333333333333 11  L 7.333333333333333 11  C 6.511999999999997 11  5.866666666666666 10.354666666666587  5.866666666666666 9.533333333333333  L 5.866666666666666 7.333333333333333  C 5.866666666666666 6.51200000000008  6.511999999999997 5.866666666666666  7.333333333333333 5.866666666666666  L 9.533333333333333 5.866666666666666  C 10.35466666666667 5.866666666666666  11 6.51200000000008  11 7.333333333333333  L 11 9.533333333333333  C 11 10.354666666666587  10.35466666666667 11  9.533333333333333 11  Z " fill-rule="nonzero" fill="#ffffff" stroke="none" transform="matrix(1 0 0 1 515 1783 )" />
    <path d="M 5.133333333333334 1.4666666666666666  L 5.133333333333334 3.6666666666666665  C 5.133333333333334 4.48799999999992  4.488000000000003 5.133333333333334  3.6666666666666665 5.133333333333334  L 1.4666666666666666 5.133333333333334  C 0.64533333333333 5.133333333333334  0 4.48799999999992  0 3.6666666666666665  L 0 1.4666666666666666  C 0 0.6453333333334134  0.64533333333333 0  1.4666666666666666 0  L 3.6666666666666665 0  C 4.488000000000003 0  5.133333333333334 0.6453333333334134  5.133333333333334 1.4666666666666666  Z " stroke-width="2" stroke="#764ba2" fill="none" transform="matrix(1 0 0 1 515 1783 )" mask="url(#clip82)" />
    <path d="M 5.133333333333334 7.333333333333333  L 5.133333333333334 9.533333333333333  C 5.133333333333334 10.354666666666587  4.488000000000003 11  3.6666666666666665 11  L 1.4666666666666666 11  C 0.64533333333333 11  0 10.354666666666587  0 9.533333333333333  L 0 7.333333333333333  C 0 6.51200000000008  0.64533333333333 5.866666666666666  1.4666666666666666 5.866666666666666  L 3.6666666666666665 5.866666666666666  C 4.488000000000003 5.866666666666666  5.133333333333334 6.51200000000008  5.133333333333334 7.333333333333333  Z " stroke-width="2" stroke="#764ba2" fill="none" transform="matrix(1 0 0 1 515 1783 )" mask="url(#clip82)" />
    <path d="M 11 3.6666666666666665  C 11 4.48799999999992  10.35466666666667 5.133333333333334  9.533333333333333 5.133333333333334  L 7.333333333333333 5.133333333333334  C 6.511999999999997 5.133333333333334  5.866666666666666 4.48799999999992  5.866666666666666 3.6666666666666665  L 5.866666666666666 1.4666666666666666  C 5.866666666666666 0.6453333333334134  6.511999999999997 0  7.333333333333333 0  L 9.533333333333333 0  C 10.35466666666667 0  11 0.6453333333334134  11 1.4666666666666666  L 11 3.6666666666666665  Z " stroke-width="2" stroke="#764ba2" fill="none" transform="matrix(1 0 0 1 515 1783 )" mask="url(#clip82)" />
    <path d="M 9.533333333333333 11  L 7.333333333333333 11  C 6.511999999999997 11  5.866666666666666 10.354666666666587  5.866666666666666 9.533333333333333  L 5.866666666666666 7.333333333333333  C 5.866666666666666 6.51200000000008  6.511999999999997 5.866666666666666  7.333333333333333 5.866666666666666  L 9.533333333333333 5.866666666666666  C 10.35466666666667 5.866666666666666  11 6.51200000000008  11 7.333333333333333  L 11 9.533333333333333  C 11 10.354666666666587  10.35466666666667 11  9.533333333333333 11  Z " stroke-width="2" stroke="#764ba2" fill="none" transform="matrix(1 0 0 1 515 1783 )" mask="url(#clip82)" />
  </g>
</svg>