<?xml version="1.0" encoding="utf-8"?>
<svg version="1.1" xmlns:xlink="http://www.w3.org/1999/xlink" width="15px" height="15px" xmlns="http://www.w3.org/2000/svg">
  <defs>
    <mask fill="white" id="clip18">
      <path d="M 7 2  L 7 5  C 7 6.119999999999891  6.1200000000000045 7  5 7  L 2 7  C 0.8799999999999955 7  0 6.119999999999891  0 5  L 0 2  C 0 0.8800000000001091  0.8799999999999955 0  2 0  L 5 0  C 6.1200000000000045 0  7 0.8800000000001091  7 2  Z M 7 10  L 7 13  C 7 14.11999999999989  6.1200000000000045 15  5 15  L 2 15  C 0.8799999999999955 15  0 14.11999999999989  0 13  L 0 10  C 0 8.88000000000011  0.8799999999999955 8  2 8  L 5 8  C 6.1200000000000045 8  7 8.88000000000011  7 10  Z M 15 5  C 15 6.119999999999891  14.120000000000005 7  13 7  L 10 7  C 8.879999999999995 7  8 6.119999999999891  8 5  L 8 2  C 8 0.8800000000001091  8.879999999999995 0  10 0  L 13 0  C 14.120000000000005 0  15 0.8800000000001091  15 2  L 15 5  Z M 13 15  L 10 15  C 8.879999999999995 15  8 14.11999999999989  8 13  L 8 10  C 8 8.88000000000011  8.879999999999995 8  10 8  L 13 8  C 14.120000000000005 8  15 8.88000000000011  15 10  L 15 13  C 15 14.11999999999989  14.120000000000005 15  13 15  Z " fill-rule="evenodd" />
    </mask>
  </defs>
  <g transform="matrix(1 0 0 1 -991 -2321 )">
    <path d="M 7 2  L 7 5  C 7 6.119999999999891  6.1200000000000045 7  5 7  L 2 7  C 0.8799999999999955 7  0 6.119999999999891  0 5  L 0 2  C 0 0.8800000000001091  0.8799999999999955 0  2 0  L 5 0  C 6.1200000000000045 0  7 0.8800000000001091  7 2  Z M 7 10  L 7 13  C 7 14.11999999999989  6.1200000000000045 15  5 15  L 2 15  C 0.8799999999999955 15  0 14.11999999999989  0 13  L 0 10  C 0 8.88000000000011  0.8799999999999955 8  2 8  L 5 8  C 6.1200000000000045 8  7 8.88000000000011  7 10  Z M 15 5  C 15 6.119999999999891  14.120000000000005 7  13 7  L 10 7  C 8.879999999999995 7  8 6.119999999999891  8 5  L 8 2  C 8 0.8800000000001091  8.879999999999995 0  10 0  L 13 0  C 14.120000000000005 0  15 0.8800000000001091  15 2  L 15 5  Z M 13 15  L 10 15  C 8.879999999999995 15  8 14.11999999999989  8 13  L 8 10  C 8 8.88000000000011  8.879999999999995 8  10 8  L 13 8  C 14.120000000000005 8  15 8.88000000000011  15 10  L 15 13  C 15 14.11999999999989  14.120000000000005 15  13 15  Z " fill-rule="nonzero" fill="#ffffff" stroke="none" transform="matrix(1 0 0 1 991 2321 )" />
    <path d="M 7 2  L 7 5  C 7 6.119999999999891  6.1200000000000045 7  5 7  L 2 7  C 0.8799999999999955 7  0 6.119999999999891  0 5  L 0 2  C 0 0.8800000000001091  0.8799999999999955 0  2 0  L 5 0  C 6.1200000000000045 0  7 0.8800000000001091  7 2  Z " stroke-width="2" stroke="#764ba2" fill="none" transform="matrix(1 0 0 1 991 2321 )" mask="url(#clip18)" />
    <path d="M 7 10  L 7 13  C 7 14.11999999999989  6.1200000000000045 15  5 15  L 2 15  C 0.8799999999999955 15  0 14.11999999999989  0 13  L 0 10  C 0 8.88000000000011  0.8799999999999955 8  2 8  L 5 8  C 6.1200000000000045 8  7 8.88000000000011  7 10  Z " stroke-width="2" stroke="#764ba2" fill="none" transform="matrix(1 0 0 1 991 2321 )" mask="url(#clip18)" />
    <path d="M 15 5  C 15 6.119999999999891  14.120000000000005 7  13 7  L 10 7  C 8.879999999999995 7  8 6.119999999999891  8 5  L 8 2  C 8 0.8800000000001091  8.879999999999995 0  10 0  L 13 0  C 14.120000000000005 0  15 0.8800000000001091  15 2  L 15 5  Z " stroke-width="2" stroke="#764ba2" fill="none" transform="matrix(1 0 0 1 991 2321 )" mask="url(#clip18)" />
    <path d="M 13 15  L 10 15  C 8.879999999999995 15  8 14.11999999999989  8 13  L 8 10  C 8 8.88000000000011  8.879999999999995 8  10 8  L 13 8  C 14.120000000000005 8  15 8.88000000000011  15 10  L 15 13  C 15 14.11999999999989  14.120000000000005 15  13 15  Z " stroke-width="2" stroke="#764ba2" fill="none" transform="matrix(1 0 0 1 991 2321 )" mask="url(#clip18)" />
  </g>
</svg>