<?xml version="1.0" encoding="utf-8"?>
<svg version="1.1" xmlns:xlink="http://www.w3.org/1999/xlink" width="21px" height="15px" xmlns="http://www.w3.org/2000/svg">
  <defs>
    <mask fill="white" id="clip19">
      <path d="M 20.54296875 0.43359375000000033  C 20.84765625 0.5664062499999994  21 0.7968749999999997  21 1.1249999999999993  L 21 13.875  C 21 14.203125  20.84765625 14.43359375  20.54296875 14.56640625  C 20.44140625 14.60546875  20.343750000000004 14.625  20.25 14.625  C 20.0390625 14.625  19.863281250000004 14.55078125  19.72265625 14.40234375  L 15 9.6796875  L 15 11.625  C 15 12.5546875  14.669921875 13.349609375  14.009765625 14.009765625  C 13.349609375 14.669921874999998  12.554687500000002 15  11.625 15  L 3.3750000000000004 15  C 2.4453125000000004 15  1.650390625 14.669921874999998  0.990234375 14.009765625  C 0.330078125 13.349609375  0 12.5546875  0 11.625  L 0 3.3749999999999996  C 0 2.4453124999999973  0.330078125 1.6503906249999996  0.990234375 0.9902343750000003  C 1.650390625 0.3300781249999979  2.4453125000000004 0  3.3750000000000004 0  L 11.625 0  C 12.554687500000002 0  13.349609375 0.3300781249999979  14.009765625 0.9902343750000003  C 14.669921875 1.6503906249999996  15 2.4453124999999973  15 3.3749999999999996  L 15 5.30859375  L 19.72265625 0.5976562499999993  C 19.863281250000004 0.44921874999999944  20.0390625 0.37500000000000033  20.25 0.37500000000000033  C 20.343750000000004 0.37500000000000033  20.44140625 0.39453124999999756  20.54296875 0.43359375000000033  Z " fill-rule="evenodd" />
    </mask>
  </defs>
  <g transform="matrix(1 0 0 1 -1036 -2321 )">
    <path d="M 20.54296875 0.43359375000000033  C 20.84765625 0.5664062499999994  21 0.7968749999999997  21 1.1249999999999993  L 21 13.875  C 21 14.203125  20.84765625 14.43359375  20.54296875 14.56640625  C 20.44140625 14.60546875  20.343750000000004 14.625  20.25 14.625  C 20.0390625 14.625  19.863281250000004 14.55078125  19.72265625 14.40234375  L 15 9.6796875  L 15 11.625  C 15 12.5546875  14.669921875 13.349609375  14.009765625 14.009765625  C 13.349609375 14.669921874999998  12.554687500000002 15  11.625 15  L 3.3750000000000004 15  C 2.4453125000000004 15  1.650390625 14.669921874999998  0.990234375 14.009765625  C 0.330078125 13.349609375  0 12.5546875  0 11.625  L 0 3.3749999999999996  C 0 2.4453124999999973  0.330078125 1.6503906249999996  0.990234375 0.9902343750000003  C 1.650390625 0.3300781249999979  2.4453125000000004 0  3.3750000000000004 0  L 11.625 0  C 12.554687500000002 0  13.349609375 0.3300781249999979  14.009765625 0.9902343750000003  C 14.669921875 1.6503906249999996  15 2.4453124999999973  15 3.3749999999999996  L 15 5.30859375  L 19.72265625 0.5976562499999993  C 19.863281250000004 0.44921874999999944  20.0390625 0.37500000000000033  20.25 0.37500000000000033  C 20.343750000000004 0.37500000000000033  20.44140625 0.39453124999999756  20.54296875 0.43359375000000033  Z " fill-rule="nonzero" fill="#000000" stroke="none" fill-opacity="0" transform="matrix(1 0 0 1 1036 2321 )" />
    <path d="M 20.54296875 0.43359375000000033  C 20.84765625 0.5664062499999994  21 0.7968749999999997  21 1.1249999999999993  L 21 13.875  C 21 14.203125  20.84765625 14.43359375  20.54296875 14.56640625  C 20.44140625 14.60546875  20.343750000000004 14.625  20.25 14.625  C 20.0390625 14.625  19.863281250000004 14.55078125  19.72265625 14.40234375  L 15 9.6796875  L 15 11.625  C 15 12.5546875  14.669921875 13.349609375  14.009765625 14.009765625  C 13.349609375 14.669921874999998  12.554687500000002 15  11.625 15  L 3.3750000000000004 15  C 2.4453125000000004 15  1.650390625 14.669921874999998  0.990234375 14.009765625  C 0.330078125 13.349609375  0 12.5546875  0 11.625  L 0 3.3749999999999996  C 0 2.4453124999999973  0.330078125 1.6503906249999996  0.990234375 0.9902343750000003  C 1.650390625 0.3300781249999979  2.4453125000000004 0  3.3750000000000004 0  L 11.625 0  C 12.554687500000002 0  13.349609375 0.3300781249999979  14.009765625 0.9902343750000003  C 14.669921875 1.6503906249999996  15 2.4453124999999973  15 3.3749999999999996  L 15 5.30859375  L 19.72265625 0.5976562499999993  C 19.863281250000004 0.44921874999999944  20.0390625 0.37500000000000033  20.25 0.37500000000000033  C 20.343750000000004 0.37500000000000033  20.44140625 0.39453124999999756  20.54296875 0.43359375000000033  Z " stroke-width="2" stroke="#764ba2" fill="none" transform="matrix(1 0 0 1 1036 2321 )" mask="url(#clip19)" />
  </g>
</svg>