<?xml version="1.0" encoding="utf-8"?>
<svg version="1.1" xmlns:xlink="http://www.w3.org/1999/xlink" width="15px" height="11px" xmlns="http://www.w3.org/2000/svg">
  <defs>
    <mask fill="white" id="clip83">
      <path d="M 14.673549107142856 0.31796875000000024  C 14.891183035714285 0.4153645833333329  15 0.5843749999999998  15 0.8249999999999995  L 15 10.175  C 15 10.415625  14.891183035714285 10.584635416666668  14.673549107142856 10.68203125  C 14.601004464285715 10.710677083333334  14.531250000000002 10.725  14.464285714285715 10.725  C 14.313616071428573 10.725  14.188058035714286 10.670572916666668  14.087611607142856 10.56171875  L 10.714285714285715 7.098437499999999  L 10.714285714285715 8.525  C 10.714285714285715 9.206770833333334  10.478515625 9.789713541666668  10.006975446428571 10.273828125  C 9.535435267857142 10.757942708333333  8.967633928571429 11  8.303571428571429 11  L 2.410714285714286 11  C 1.746651785714286 11  1.1788504464285716 10.757942708333333  0.7073102678571428 10.273828125  C 0.23577008928571427 9.789713541666668  0 9.206770833333334  0 8.525  L 0 2.4749999999999996  C 0 1.7932291666666649  0.23577008928571427 1.210286458333333  0.7073102678571428 0.7261718750000002  C 1.1788504464285716 0.24205729166666512  1.746651785714286 0  2.410714285714286 0  L 8.303571428571429 0  C 8.967633928571429 0  9.535435267857142 0.24205729166666512  10.006975446428571 0.7261718750000002  C 10.478515625 1.210286458333333  10.714285714285715 1.7932291666666649  10.714285714285715 2.4749999999999996  L 10.714285714285715 3.8929687499999996  L 14.087611607142856 0.4382812499999995  C 14.188058035714286 0.3294270833333329  14.313616071428573 0.27500000000000024  14.464285714285715 0.27500000000000024  C 14.531250000000002 0.27500000000000024  14.601004464285715 0.2893229166666649  14.673549107142856 0.31796875000000024  Z " fill-rule="evenodd" />
    </mask>
  </defs>
  <g transform="matrix(1 0 0 1 -547 -1783 )">
    <path d="M 14.673549107142856 0.31796875000000024  C 14.891183035714285 0.4153645833333329  15 0.5843749999999998  15 0.8249999999999995  L 15 10.175  C 15 10.415625  14.891183035714285 10.584635416666668  14.673549107142856 10.68203125  C 14.601004464285715 10.710677083333334  14.531250000000002 10.725  14.464285714285715 10.725  C 14.313616071428573 10.725  14.188058035714286 10.670572916666668  14.087611607142856 10.56171875  L 10.714285714285715 7.098437499999999  L 10.714285714285715 8.525  C 10.714285714285715 9.206770833333334  10.478515625 9.789713541666668  10.006975446428571 10.273828125  C 9.535435267857142 10.757942708333333  8.967633928571429 11  8.303571428571429 11  L 2.410714285714286 11  C 1.746651785714286 11  1.1788504464285716 10.757942708333333  0.7073102678571428 10.273828125  C 0.23577008928571427 9.789713541666668  0 9.206770833333334  0 8.525  L 0 2.4749999999999996  C 0 1.7932291666666649  0.23577008928571427 1.210286458333333  0.7073102678571428 0.7261718750000002  C 1.1788504464285716 0.24205729166666512  1.746651785714286 0  2.410714285714286 0  L 8.303571428571429 0  C 8.967633928571429 0  9.535435267857142 0.24205729166666512  10.006975446428571 0.7261718750000002  C 10.478515625 1.210286458333333  10.714285714285715 1.7932291666666649  10.714285714285715 2.4749999999999996  L 10.714285714285715 3.8929687499999996  L 14.087611607142856 0.4382812499999995  C 14.188058035714286 0.3294270833333329  14.313616071428573 0.27500000000000024  14.464285714285715 0.27500000000000024  C 14.531250000000002 0.27500000000000024  14.601004464285715 0.2893229166666649  14.673549107142856 0.31796875000000024  Z " fill-rule="nonzero" fill="#000000" stroke="none" fill-opacity="0" transform="matrix(1 0 0 1 547 1783 )" />
    <path d="M 14.673549107142856 0.31796875000000024  C 14.891183035714285 0.4153645833333329  15 0.5843749999999998  15 0.8249999999999995  L 15 10.175  C 15 10.415625  14.891183035714285 10.584635416666668  14.673549107142856 10.68203125  C 14.601004464285715 10.710677083333334  14.531250000000002 10.725  14.464285714285715 10.725  C 14.313616071428573 10.725  14.188058035714286 10.670572916666668  14.087611607142856 10.56171875  L 10.714285714285715 7.098437499999999  L 10.714285714285715 8.525  C 10.714285714285715 9.206770833333334  10.478515625 9.789713541666668  10.006975446428571 10.273828125  C 9.535435267857142 10.757942708333333  8.967633928571429 11  8.303571428571429 11  L 2.410714285714286 11  C 1.746651785714286 11  1.1788504464285716 10.757942708333333  0.7073102678571428 10.273828125  C 0.23577008928571427 9.789713541666668  0 9.206770833333334  0 8.525  L 0 2.4749999999999996  C 0 1.7932291666666649  0.23577008928571427 1.210286458333333  0.7073102678571428 0.7261718750000002  C 1.1788504464285716 0.24205729166666512  1.746651785714286 0  2.410714285714286 0  L 8.303571428571429 0  C 8.967633928571429 0  9.535435267857142 0.24205729166666512  10.006975446428571 0.7261718750000002  C 10.478515625 1.210286458333333  10.714285714285715 1.7932291666666649  10.714285714285715 2.4749999999999996  L 10.714285714285715 3.8929687499999996  L 14.087611607142856 0.4382812499999995  C 14.188058035714286 0.3294270833333329  14.313616071428573 0.27500000000000024  14.464285714285715 0.27500000000000024  C 14.531250000000002 0.27500000000000024  14.601004464285715 0.2893229166666649  14.673549107142856 0.31796875000000024  Z " stroke-width="2" stroke="#764ba2" fill="none" transform="matrix(1 0 0 1 547 1783 )" mask="url(#clip83)" />
  </g>
</svg>