<?xml version="1.0" encoding="utf-8"?>
<svg version="1.1" xmlns:xlink="http://www.w3.org/1999/xlink" width="11px" height="11px" xmlns="http://www.w3.org/2000/svg">
  <defs>
    <mask fill="white" id="clip84">
      <path d="M 9.517156862745098 8.539828431372548  C 9.64297385620915 8.414011437908496  9.705882352941176 8.263480392156863  9.705882352941176 8.088235294117649  C 9.705882352941176 7.908496732026142  9.64297385620915 7.7557189542483655  9.517156862745098 7.629901960784314  L 8.115196078431373 6.227941176470588  C 7.989379084967322 6.102124183006536  7.836601307189543 6.0392156862745106  7.656862745098039 6.0392156862745106  C 7.468137254901961 6.0392156862745106  7.306372549019607 6.111111111111112  7.171568627450981 6.254901960784314  C 7.185049019607844 6.268382352941176  7.2277369281045765 6.3099468954248366  7.299632352941176 6.379595588235294  C 7.371527777777779 6.449244281045751  7.41983251633987 6.497549019607844  7.444546568627451 6.5245098039215685  C 7.469260620915033 6.551470588235294  7.502961601307191 6.594158496732026  7.545649509803921 6.6525735294117645  C 7.588337418300654 6.710988562091503  7.617544934640524 6.76828022875817  7.63327205882353 6.8244485294117645  C 7.648999183006538 6.8806168300653585  7.656862745098039 6.942401960784314  7.656862745098039 7.009803921568627  C 7.656862745098039 7.18954248366013  7.593954248366014 7.342320261437908  7.468137254901961 7.468137254901961  C 7.3423202614379095 7.593954248366013  7.189542483660131 7.656862745098039  7.009803921568627 7.656862745098039  C 6.942401960784314 7.656862745098039  6.88061683006536 7.648999183006536  6.8244485294117645 7.633272058823529  C 6.7682802287581705 7.617544934640522  6.7109885620915035 7.588337418300653  6.6525735294117645 7.545649509803923  C 6.594158496732027 7.502961601307189  6.551470588235295 7.469260620915032  6.5245098039215685 7.444546568627451  C 6.4975490196078445 7.419832516339868  6.449244281045752 7.371527777777777  6.379595588235294 7.299632352941176  C 6.3099468954248366 7.227736928104575  6.268382352941176 7.185049019607844  6.254901960784314 7.171568627450981  C 6.106617647058824 7.310866013071894  6.032475490196079 7.474877450980391  6.032475490196079 7.663602941176471  C 6.032475490196079 7.843341503267973  6.095383986928105 7.996119281045751  6.221200980392156 8.121936274509803  L 7.609681372549019 9.517156862745098  C 7.731004901960784 9.638480392156863  7.883782679738562 9.699142156862745  8.068014705882351 9.699142156862745  C 8.247753267973856 9.699142156862745  8.400531045751634 9.640727124183007  8.526348039215687 9.523897058823529  L 9.517156862745098 8.539828431372548  Z M 4.745098039215686 3.8284313725490193  C 4.893382352941176 3.6891339869281037  4.967524509803922 3.5251225490196076  4.967524509803922 3.33639705882353  C 4.967524509803922 3.156658496732026  4.904616013071895 3.0038807189542474  4.778799019607844 2.8780637254901955  L 3.3903186274509807 1.4828431372549016  C 3.264501633986928 1.3570261437908497  3.1117238562091503 1.2941176470588238  2.931985294117647 1.2941176470588238  C 2.7567401960784315 1.2941176470588238  2.603962418300654 1.354779411764706  2.4736519607843137 1.4761029411764701  L 1.4828431372549018 2.460171568627451  C 1.3570261437908497 2.5859885620915026  1.2941176470588236 2.736519607843137  1.2941176470588236 2.9117647058823524  C 1.2941176470588236 3.091503267973855  1.3570261437908497 3.2442810457516336  1.4828431372549018 3.3700980392156863  L 2.8848039215686274 4.772058823529412  C 3.0061274509803924 4.893382352941176  3.1589052287581705 4.954044117647058  3.3431372549019605 4.954044117647058  C 3.5318627450980395 4.954044117647058  3.693627450980392 4.884395424836601  3.8284313725490193 4.745098039215686  C 3.814950980392157 4.7316176470588225  3.7722630718954253 4.6900531045751634  3.700367647058824 4.620404411764706  C 3.6284722222222228 4.550755718954249  3.5801674836601314 4.502450980392156  3.555453431372549 4.4754901960784315  C 3.5307393790849675 4.448529411764706  3.497038398692811 4.405841503267974  3.454350490196078 4.3474264705882355  C 3.411662581699347 4.2890114379084965  3.382455065359477 4.2317197712418295  3.366727941176471 4.1755514705882355  C 3.3510008169934644 4.11938316993464  3.3431372549019605 4.057598039215686  3.3431372549019605 3.990196078431373  C 3.3431372549019605 3.810457516339869  3.406045751633987 3.6576797385620905  3.5318627450980395 3.5318627450980387  C 3.657679738562092 3.406045751633986  3.81045751633987 3.3431372549019613  3.9901960784313726 3.3431372549019613  C 4.057598039215686 3.3431372549019613  4.1193831699346415 3.3510008169934626  4.1755514705882355 3.36672794117647  C 4.23171977124183 3.3824550653594767  4.2890114379084965 3.4116625816993458  4.3474264705882355 3.454350490196079  C 4.405841503267974 3.4970383986928097  4.448529411764706 3.5307393790849666  4.4754901960784315 3.555453431372549  C 4.502450980392156 3.5801674836601296  4.550755718954249 3.6284722222222214  4.620404411764706 3.700367647058824  C 4.6900531045751634 3.7722630718954235  4.731617647058824 3.814950980392157  4.745098039215686 3.8284313725490193  Z M 10.433823529411764 6.713235294117648  C 10.811274509803921 7.090686274509803  11 7.549019607843137  11 8.088235294117649  C 11 8.627450980392156  10.809027777777779 9.083537581699346  10.427083333333332 9.456495098039214  L 9.436274509803921 10.440563725490195  C 9.063316993464053 10.813521241830065  8.607230392156863 11  8.068014705882351 11  C 7.524305555555557 11  7.065972222222223 10.809027777777779  6.693014705882352 10.427083333333332  L 5.30453431372549 9.031862745098039  C 4.931576797385622 8.65890522875817  4.745098039215686 8.20281862745098  4.745098039215686 7.663602941176471  C 4.745098039215686 7.110906862745098  4.94281045751634 6.641339869281046  5.338235294117647 6.254901960784314  L 4.745098039215686 5.661764705882352  C 4.358660130718954 6.057189542483661  3.891339869281046 6.254901960784314  3.3431372549019605 6.254901960784314  C 2.803921568627451 6.254901960784314  2.3455882352941178 6.0661764705882355  1.968137254901961 5.688725490196077  L 0.5661764705882353 4.286764705882352  C 0.18872549019607845 3.9093137254901955  0 3.450980392156863  0 2.9117647058823524  C 0 2.372549019607843  0.19097222222222218 1.916462418300653  0.5729166666666667 1.5435049019607838  L 1.5637254901960784 0.5594362745098044  C 1.936683006535948 0.18647875816993398  2.392769607843137 0  2.931985294117647 0  C 3.475694444444445 0  3.9340277777777786 0.19097222222222154  4.306985294117647 0.5729166666666671  L 5.6954656862745106 1.9681372549019611  C 6.06842320261438 2.341094771241829  6.254901960784314 2.7971813725490193  6.254901960784314 3.33639705882353  C 6.254901960784314 3.8890931372549016  6.057189542483661 4.358660130718953  5.661764705882352 4.745098039215686  L 6.254901960784314 5.338235294117648  C 6.641339869281047 4.942810457516339  7.108660130718954 4.745098039215685  7.656862745098039 4.745098039215686  C 8.196078431372548 4.745098039215685  8.654411764705882 4.9338235294117645  9.031862745098039 5.311274509803921  L 10.433823529411764 6.713235294117648  Z " fill-rule="evenodd" />
    </mask>
  </defs>
  <g transform="matrix(1 0 0 1 -583 -1783 )">
    <path d="M 9.517156862745098 8.539828431372548  C 9.64297385620915 8.414011437908496  9.705882352941176 8.263480392156863  9.705882352941176 8.088235294117649  C 9.705882352941176 7.908496732026142  9.64297385620915 7.7557189542483655  9.517156862745098 7.629901960784314  L 8.115196078431373 6.227941176470588  C 7.989379084967322 6.102124183006536  7.836601307189543 6.0392156862745106  7.656862745098039 6.0392156862745106  C 7.468137254901961 6.0392156862745106  7.306372549019607 6.111111111111112  7.171568627450981 6.254901960784314  C 7.185049019607844 6.268382352941176  7.2277369281045765 6.3099468954248366  7.299632352941176 6.379595588235294  C 7.371527777777779 6.449244281045751  7.41983251633987 6.497549019607844  7.444546568627451 6.5245098039215685  C 7.469260620915033 6.551470588235294  7.502961601307191 6.594158496732026  7.545649509803921 6.6525735294117645  C 7.588337418300654 6.710988562091503  7.617544934640524 6.76828022875817  7.63327205882353 6.8244485294117645  C 7.648999183006538 6.8806168300653585  7.656862745098039 6.942401960784314  7.656862745098039 7.009803921568627  C 7.656862745098039 7.18954248366013  7.593954248366014 7.342320261437908  7.468137254901961 7.468137254901961  C 7.3423202614379095 7.593954248366013  7.189542483660131 7.656862745098039  7.009803921568627 7.656862745098039  C 6.942401960784314 7.656862745098039  6.88061683006536 7.648999183006536  6.8244485294117645 7.633272058823529  C 6.7682802287581705 7.617544934640522  6.7109885620915035 7.588337418300653  6.6525735294117645 7.545649509803923  C 6.594158496732027 7.502961601307189  6.551470588235295 7.469260620915032  6.5245098039215685 7.444546568627451  C 6.4975490196078445 7.419832516339868  6.449244281045752 7.371527777777777  6.379595588235294 7.299632352941176  C 6.3099468954248366 7.227736928104575  6.268382352941176 7.185049019607844  6.254901960784314 7.171568627450981  C 6.106617647058824 7.310866013071894  6.032475490196079 7.474877450980391  6.032475490196079 7.663602941176471  C 6.032475490196079 7.843341503267973  6.095383986928105 7.996119281045751  6.221200980392156 8.121936274509803  L 7.609681372549019 9.517156862745098  C 7.731004901960784 9.638480392156863  7.883782679738562 9.699142156862745  8.068014705882351 9.699142156862745  C 8.247753267973856 9.699142156862745  8.400531045751634 9.640727124183007  8.526348039215687 9.523897058823529  L 9.517156862745098 8.539828431372548  Z M 4.745098039215686 3.8284313725490193  C 4.893382352941176 3.6891339869281037  4.967524509803922 3.5251225490196076  4.967524509803922 3.33639705882353  C 4.967524509803922 3.156658496732026  4.904616013071895 3.0038807189542474  4.778799019607844 2.8780637254901955  L 3.3903186274509807 1.4828431372549016  C 3.264501633986928 1.3570261437908497  3.1117238562091503 1.2941176470588238  2.931985294117647 1.2941176470588238  C 2.7567401960784315 1.2941176470588238  2.603962418300654 1.354779411764706  2.4736519607843137 1.4761029411764701  L 1.4828431372549018 2.460171568627451  C 1.3570261437908497 2.5859885620915026  1.2941176470588236 2.736519607843137  1.2941176470588236 2.9117647058823524  C 1.2941176470588236 3.091503267973855  1.3570261437908497 3.2442810457516336  1.4828431372549018 3.3700980392156863  L 2.8848039215686274 4.772058823529412  C 3.0061274509803924 4.893382352941176  3.1589052287581705 4.954044117647058  3.3431372549019605 4.954044117647058  C 3.5318627450980395 4.954044117647058  3.693627450980392 4.884395424836601  3.8284313725490193 4.745098039215686  C 3.814950980392157 4.7316176470588225  3.7722630718954253 4.6900531045751634  3.700367647058824 4.620404411764706  C 3.6284722222222228 4.550755718954249  3.5801674836601314 4.502450980392156  3.555453431372549 4.4754901960784315  C 3.5307393790849675 4.448529411764706  3.497038398692811 4.405841503267974  3.454350490196078 4.3474264705882355  C 3.411662581699347 4.2890114379084965  3.382455065359477 4.2317197712418295  3.366727941176471 4.1755514705882355  C 3.3510008169934644 4.11938316993464  3.3431372549019605 4.057598039215686  3.3431372549019605 3.990196078431373  C 3.3431372549019605 3.810457516339869  3.406045751633987 3.6576797385620905  3.5318627450980395 3.5318627450980387  C 3.657679738562092 3.406045751633986  3.81045751633987 3.3431372549019613  3.9901960784313726 3.3431372549019613  C 4.057598039215686 3.3431372549019613  4.1193831699346415 3.3510008169934626  4.1755514705882355 3.36672794117647  C 4.23171977124183 3.3824550653594767  4.2890114379084965 3.4116625816993458  4.3474264705882355 3.454350490196079  C 4.405841503267974 3.4970383986928097  4.448529411764706 3.5307393790849666  4.4754901960784315 3.555453431372549  C 4.502450980392156 3.5801674836601296  4.550755718954249 3.6284722222222214  4.620404411764706 3.700367647058824  C 4.6900531045751634 3.7722630718954235  4.731617647058824 3.814950980392157  4.745098039215686 3.8284313725490193  Z M 10.433823529411764 6.713235294117648  C 10.811274509803921 7.090686274509803  11 7.549019607843137  11 8.088235294117649  C 11 8.627450980392156  10.809027777777779 9.083537581699346  10.427083333333332 9.456495098039214  L 9.436274509803921 10.440563725490195  C 9.063316993464053 10.813521241830065  8.607230392156863 11  8.068014705882351 11  C 7.524305555555557 11  7.065972222222223 10.809027777777779  6.693014705882352 10.427083333333332  L 5.30453431372549 9.031862745098039  C 4.931576797385622 8.65890522875817  4.745098039215686 8.20281862745098  4.745098039215686 7.663602941176471  C 4.745098039215686 7.110906862745098  4.94281045751634 6.641339869281046  5.338235294117647 6.254901960784314  L 4.745098039215686 5.661764705882352  C 4.358660130718954 6.057189542483661  3.891339869281046 6.254901960784314  3.3431372549019605 6.254901960784314  C 2.803921568627451 6.254901960784314  2.3455882352941178 6.0661764705882355  1.968137254901961 5.688725490196077  L 0.5661764705882353 4.286764705882352  C 0.18872549019607845 3.9093137254901955  0 3.450980392156863  0 2.9117647058823524  C 0 2.372549019607843  0.19097222222222218 1.916462418300653  0.5729166666666667 1.5435049019607838  L 1.5637254901960784 0.5594362745098044  C 1.936683006535948 0.18647875816993398  2.392769607843137 0  2.931985294117647 0  C 3.475694444444445 0  3.9340277777777786 0.19097222222222154  4.306985294117647 0.5729166666666671  L 5.6954656862745106 1.9681372549019611  C 6.06842320261438 2.341094771241829  6.254901960784314 2.7971813725490193  6.254901960784314 3.33639705882353  C 6.254901960784314 3.8890931372549016  6.057189542483661 4.358660130718953  5.661764705882352 4.745098039215686  L 6.254901960784314 5.338235294117648  C 6.641339869281047 4.942810457516339  7.108660130718954 4.745098039215685  7.656862745098039 4.745098039215686  C 8.196078431372548 4.745098039215685  8.654411764705882 4.9338235294117645  9.031862745098039 5.311274509803921  L 10.433823529411764 6.713235294117648  Z " fill-rule="nonzero" fill="#000000" stroke="none" fill-opacity="0" transform="matrix(1 0 0 1 583 1783 )" />
    <path d="M 9.517156862745098 8.539828431372548  C 9.64297385620915 8.414011437908496  9.705882352941176 8.263480392156863  9.705882352941176 8.088235294117649  C 9.705882352941176 7.908496732026142  9.64297385620915 7.7557189542483655  9.517156862745098 7.629901960784314  L 8.115196078431373 6.227941176470588  C 7.989379084967322 6.102124183006536  7.836601307189543 6.0392156862745106  7.656862745098039 6.0392156862745106  C 7.468137254901961 6.0392156862745106  7.306372549019607 6.111111111111112  7.171568627450981 6.254901960784314  C 7.185049019607844 6.268382352941176  7.2277369281045765 6.3099468954248366  7.299632352941176 6.379595588235294  C 7.371527777777779 6.449244281045751  7.41983251633987 6.497549019607844  7.444546568627451 6.5245098039215685  C 7.469260620915033 6.551470588235294  7.502961601307191 6.594158496732026  7.545649509803921 6.6525735294117645  C 7.588337418300654 6.710988562091503  7.617544934640524 6.76828022875817  7.63327205882353 6.8244485294117645  C 7.648999183006538 6.8806168300653585  7.656862745098039 6.942401960784314  7.656862745098039 7.009803921568627  C 7.656862745098039 7.18954248366013  7.593954248366014 7.342320261437908  7.468137254901961 7.468137254901961  C 7.3423202614379095 7.593954248366013  7.189542483660131 7.656862745098039  7.009803921568627 7.656862745098039  C 6.942401960784314 7.656862745098039  6.88061683006536 7.648999183006536  6.8244485294117645 7.633272058823529  C 6.7682802287581705 7.617544934640522  6.7109885620915035 7.588337418300653  6.6525735294117645 7.545649509803923  C 6.594158496732027 7.502961601307189  6.551470588235295 7.469260620915032  6.5245098039215685 7.444546568627451  C 6.4975490196078445 7.419832516339868  6.449244281045752 7.371527777777777  6.379595588235294 7.299632352941176  C 6.3099468954248366 7.227736928104575  6.268382352941176 7.185049019607844  6.254901960784314 7.171568627450981  C 6.106617647058824 7.310866013071894  6.032475490196079 7.474877450980391  6.032475490196079 7.663602941176471  C 6.032475490196079 7.843341503267973  6.095383986928105 7.996119281045751  6.221200980392156 8.121936274509803  L 7.609681372549019 9.517156862745098  C 7.731004901960784 9.638480392156863  7.883782679738562 9.699142156862745  8.068014705882351 9.699142156862745  C 8.247753267973856 9.699142156862745  8.400531045751634 9.640727124183007  8.526348039215687 9.523897058823529  L 9.517156862745098 8.539828431372548  Z " stroke-width="2" stroke="#764ba2" fill="none" transform="matrix(1 0 0 1 583 1783 )" mask="url(#clip84)" />
    <path d="M 4.745098039215686 3.8284313725490193  C 4.893382352941176 3.6891339869281037  4.967524509803922 3.5251225490196076  4.967524509803922 3.33639705882353  C 4.967524509803922 3.156658496732026  4.904616013071895 3.0038807189542474  4.778799019607844 2.8780637254901955  L 3.3903186274509807 1.4828431372549016  C 3.264501633986928 1.3570261437908497  3.1117238562091503 1.2941176470588238  2.931985294117647 1.2941176470588238  C 2.7567401960784315 1.2941176470588238  2.603962418300654 1.354779411764706  2.4736519607843137 1.4761029411764701  L 1.4828431372549018 2.460171568627451  C 1.3570261437908497 2.5859885620915026  1.2941176470588236 2.736519607843137  1.2941176470588236 2.9117647058823524  C 1.2941176470588236 3.091503267973855  1.3570261437908497 3.2442810457516336  1.4828431372549018 3.3700980392156863  L 2.8848039215686274 4.772058823529412  C 3.0061274509803924 4.893382352941176  3.1589052287581705 4.954044117647058  3.3431372549019605 4.954044117647058  C 3.5318627450980395 4.954044117647058  3.693627450980392 4.884395424836601  3.8284313725490193 4.745098039215686  C 3.814950980392157 4.7316176470588225  3.7722630718954253 4.6900531045751634  3.700367647058824 4.620404411764706  C 3.6284722222222228 4.550755718954249  3.5801674836601314 4.502450980392156  3.555453431372549 4.4754901960784315  C 3.5307393790849675 4.448529411764706  3.497038398692811 4.405841503267974  3.454350490196078 4.3474264705882355  C 3.411662581699347 4.2890114379084965  3.382455065359477 4.2317197712418295  3.366727941176471 4.1755514705882355  C 3.3510008169934644 4.11938316993464  3.3431372549019605 4.057598039215686  3.3431372549019605 3.990196078431373  C 3.3431372549019605 3.810457516339869  3.406045751633987 3.6576797385620905  3.5318627450980395 3.5318627450980387  C 3.657679738562092 3.406045751633986  3.81045751633987 3.3431372549019613  3.9901960784313726 3.3431372549019613  C 4.057598039215686 3.3431372549019613  4.1193831699346415 3.3510008169934626  4.1755514705882355 3.36672794117647  C 4.23171977124183 3.3824550653594767  4.2890114379084965 3.4116625816993458  4.3474264705882355 3.454350490196079  C 4.405841503267974 3.4970383986928097  4.448529411764706 3.5307393790849666  4.4754901960784315 3.555453431372549  C 4.502450980392156 3.5801674836601296  4.550755718954249 3.6284722222222214  4.620404411764706 3.700367647058824  C 4.6900531045751634 3.7722630718954235  4.731617647058824 3.814950980392157  4.745098039215686 3.8284313725490193  Z " stroke-width="2" stroke="#764ba2" fill="none" transform="matrix(1 0 0 1 583 1783 )" mask="url(#clip84)" />
    <path d="M 10.433823529411764 6.713235294117648  C 10.811274509803921 7.090686274509803  11 7.549019607843137  11 8.088235294117649  C 11 8.627450980392156  10.809027777777779 9.083537581699346  10.427083333333332 9.456495098039214  L 9.436274509803921 10.440563725490195  C 9.063316993464053 10.813521241830065  8.607230392156863 11  8.068014705882351 11  C 7.524305555555557 11  7.065972222222223 10.809027777777779  6.693014705882352 10.427083333333332  L 5.30453431372549 9.031862745098039  C 4.931576797385622 8.65890522875817  4.745098039215686 8.20281862745098  4.745098039215686 7.663602941176471  C 4.745098039215686 7.110906862745098  4.94281045751634 6.641339869281046  5.338235294117647 6.254901960784314  L 4.745098039215686 5.661764705882352  C 4.358660130718954 6.057189542483661  3.891339869281046 6.254901960784314  3.3431372549019605 6.254901960784314  C 2.803921568627451 6.254901960784314  2.3455882352941178 6.0661764705882355  1.968137254901961 5.688725490196077  L 0.5661764705882353 4.286764705882352  C 0.18872549019607845 3.9093137254901955  0 3.450980392156863  0 2.9117647058823524  C 0 2.372549019607843  0.19097222222222218 1.916462418300653  0.5729166666666667 1.5435049019607838  L 1.5637254901960784 0.5594362745098044  C 1.936683006535948 0.18647875816993398  2.392769607843137 0  2.931985294117647 0  C 3.475694444444445 0  3.9340277777777786 0.19097222222222154  4.306985294117647 0.5729166666666671  L 5.6954656862745106 1.9681372549019611  C 6.06842320261438 2.341094771241829  6.254901960784314 2.7971813725490193  6.254901960784314 3.33639705882353  C 6.254901960784314 3.8890931372549016  6.057189542483661 4.358660130718953  5.661764705882352 4.745098039215686  L 6.254901960784314 5.338235294117648  C 6.641339869281047 4.942810457516339  7.108660130718954 4.745098039215685  7.656862745098039 4.745098039215686  C 8.196078431372548 4.745098039215685  8.654411764705882 4.9338235294117645  9.031862745098039 5.311274509803921  L 10.433823529411764 6.713235294117648  Z " stroke-width="2" stroke="#764ba2" fill="none" transform="matrix(1 0 0 1 583 1783 )" mask="url(#clip84)" />
  </g>
</svg>