<?xml version="1.0" encoding="utf-8"?>
<svg version="1.1" xmlns:xlink="http://www.w3.org/1999/xlink" width="15px" height="15px" xmlns="http://www.w3.org/2000/svg">
  <defs>
    <mask fill="white" id="clip20">
      <path d="M 12.977941176470589 11.645220588235293  C 13.149509803921568 11.473651960784313  13.235294117647058 11.268382352941176  13.235294117647058 11.029411764705884  C 13.235294117647058 10.784313725490195  13.149509803921568 10.575980392156861  12.977941176470589 10.404411764705882  L 11.066176470588236 8.492647058823529  C 10.894607843137257 8.32107843137255  10.686274509803923 8.23529411764706  10.441176470588236 8.23529411764706  C 10.183823529411764 8.23529411764706  9.963235294117647 8.333333333333334  9.779411764705882 8.529411764705882  C 9.79779411764706 8.547794117647058  9.856004901960786 8.604473039215687  9.954044117647058 8.699448529411764  C 10.052083333333334 8.794424019607842  10.11795343137255 8.86029411764706  10.151654411764707 8.897058823529411  C 10.185355392156865 8.933823529411764  10.231311274509805 8.99203431372549  10.289522058823529 9.071691176470587  C 10.347732843137255 9.151348039215685  10.387561274509805 9.229473039215685  10.409007352941178 9.306066176470587  C 10.430453431372552 9.382659313725489  10.441176470588236 9.466911764705882  10.441176470588236 9.558823529411764  C 10.441176470588236 9.80392156862745  10.355392156862747 10.012254901960784  10.183823529411764 10.183823529411764  C 10.012254901960786 10.355392156862745  9.803921568627452 10.441176470588236  9.558823529411764 10.441176470588236  C 9.466911764705882 10.441176470588236  9.38265931372549 10.43045343137255  9.306066176470587 10.409007352941176  C 9.229473039215687 10.387561274509803  9.151348039215687 10.347732843137255  9.071691176470587 10.28952205882353  C 8.992034313725492 10.231311274509803  8.933823529411766 10.185355392156861  8.897058823529411 10.151654411764707  C 8.860294117647062 10.117953431372547  8.794424019607844 10.052083333333332  8.699448529411764 9.954044117647058  C 8.604473039215687 9.856004901960784  8.547794117647058 9.79779411764706  8.529411764705882 9.779411764705882  C 8.327205882352942 9.969362745098037  8.226102941176471 10.193014705882351  8.226102941176471 10.450367647058824  C 8.226102941176471 10.695465686274508  8.311887254901961 10.903799019607842  8.48345588235294 11.075367647058822  L 10.376838235294118 12.977941176470589  C 10.542279411764705 13.143382352941176  10.750612745098039 13.226102941176471  11.001838235294116 13.226102941176471  C 11.246936274509803 13.226102941176471  11.455269607843139 13.146446078431373  11.626838235294118 12.987132352941178  L 12.977941176470589 11.645220588235293  Z M 6.470588235294118 5.220588235294118  C 6.672794117647058 5.03063725490196  6.77389705882353 4.806985294117647  6.77389705882353 4.549632352941177  C 6.77389705882353 4.30453431372549  6.6881127450980395 4.0962009803921555  6.516544117647059 3.9246323529411757  L 4.623161764705882 2.0220588235294112  C 4.451593137254902 1.8504901960784315  4.2432598039215685 1.7647058823529416  3.9981617647058822 1.7647058823529416  C 3.7591911764705883 1.7647058823529416  3.5508578431372553 1.8474264705882355  3.3731617647058822 2.012867647058823  L 2.0220588235294117 3.3547794117647056  C 1.8504901960784315 3.5263480392156854  1.7647058823529411 3.7316176470588234  1.7647058823529411 3.970588235294117  C 1.7647058823529411 4.215686274509802  1.8504901960784315 4.424019607843136  2.0220588235294117 4.595588235294118  L 3.933823529411765 6.507352941176471  C 4.099264705882353 6.672794117647058  4.307598039215687 6.755514705882352  4.5588235294117645 6.755514705882352  C 4.8161764705882355 6.755514705882352  5.036764705882352 6.660539215686274  5.220588235294118 6.470588235294118  C 5.202205882352941 6.45220588235294  5.143995098039216 6.395526960784314  5.045955882352942 6.3005514705882355  C 4.947916666666668 6.205575980392157  4.882046568627452 6.139705882352941  4.848345588235294 6.102941176470588  C 4.814644607843138 6.0661764705882355  4.768688725490197 6.00796568627451  4.71047794117647 5.928308823529412  C 4.652267156862746 5.848651960784313  4.612438725490196 5.770526960784313  4.590992647058824 5.693933823529412  C 4.569546568627452 5.617340686274509  4.5588235294117645 5.533088235294118  4.5588235294117645 5.4411764705882355  C 4.5588235294117645 5.196078431372549  4.644607843137255 4.987745098039214  4.8161764705882355 4.816176470588235  C 4.987745098039216 4.644607843137253  5.19607843137255 4.558823529411765  5.4411764705882355 4.558823529411765  C 5.533088235294118 4.558823529411765  5.6173406862745106 4.569546568627449  5.693933823529411 4.590992647058823  C 5.770526960784314 4.612438725490195  5.848651960784314 4.652267156862744  5.928308823529411 4.710477941176471  C 6.00796568627451 4.768688725490195  6.0661764705882355 4.814644607843136  6.102941176470588 4.848345588235294  C 6.139705882352941 4.88204656862745  6.205575980392157 4.947916666666666  6.3005514705882355 5.045955882352942  C 6.395526960784315 5.143995098039214  6.452205882352942 5.202205882352941  6.470588235294118 5.220588235294118  Z M 14.227941176470587 9.154411764705884  C 14.742647058823529 9.669117647058822  15 10.294117647058824  15 11.029411764705884  C 15 11.76470588235294  14.739583333333334 12.386642156862745  14.21875 12.895220588235293  L 12.867647058823529 14.237132352941176  C 12.35906862745098 14.745710784313724  11.737132352941176 15  11.001838235294116 15  C 10.260416666666668 15  9.635416666666668 14.739583333333334  9.126838235294116 14.21875  L 7.233455882352941 12.316176470588236  C 6.724877450980394 11.807598039215687  6.470588235294118 11.185661764705882  6.470588235294118 10.450367647058824  C 6.470588235294118 9.696691176470589  6.740196078431373 9.056372549019608  7.279411764705882 8.529411764705882  L 6.470588235294118 7.720588235294117  C 5.943627450980393 8.259803921568627  5.306372549019608 8.529411764705882  4.5588235294117645 8.529411764705882  C 3.8235294117647056 8.529411764705882  3.1985294117647056 8.272058823529413  2.683823529411765 7.757352941176469  L 0.7720588235294117 5.845588235294117  C 0.2573529411764706 5.330882352941176  0 4.705882352941177  0 3.970588235294117  C 0 3.235294117647059  0.26041666666666663 2.613357843137254  0.78125 2.104779411764705  L 2.1323529411764706 0.7628676470588241  C 2.6409313725490198 0.2542892156862736  3.2628676470588234 0  3.9981617647058822 0  C 4.739583333333334 0  5.364583333333334 0.26041666666666574  5.873161764705882 0.7812500000000006  L 7.76654411764706 2.6838235294117654  C 8.275122549019608 3.1924019607843124  8.529411764705882 3.8143382352941173  8.529411764705882 4.549632352941177  C 8.529411764705882 5.303308823529411  8.259803921568627 5.943627450980391  7.720588235294117 6.470588235294118  L 8.529411764705882 7.279411764705883  C 9.05637254901961 6.740196078431372  9.693627450980392 6.470588235294116  10.441176470588236 6.470588235294118  C 11.176470588235293 6.470588235294116  11.801470588235293 6.727941176470588  12.316176470588236 7.242647058823529  L 14.227941176470587 9.154411764705884  Z " fill-rule="evenodd" />
    </mask>
  </defs>
  <g transform="matrix(1 0 0 1 -1087 -2321 )">
    <path d="M 12.977941176470589 11.645220588235293  C 13.149509803921568 11.473651960784313  13.235294117647058 11.268382352941176  13.235294117647058 11.029411764705884  C 13.235294117647058 10.784313725490195  13.149509803921568 10.575980392156861  12.977941176470589 10.404411764705882  L 11.066176470588236 8.492647058823529  C 10.894607843137257 8.32107843137255  10.686274509803923 8.23529411764706  10.441176470588236 8.23529411764706  C 10.183823529411764 8.23529411764706  9.963235294117647 8.333333333333334  9.779411764705882 8.529411764705882  C 9.79779411764706 8.547794117647058  9.856004901960786 8.604473039215687  9.954044117647058 8.699448529411764  C 10.052083333333334 8.794424019607842  10.11795343137255 8.86029411764706  10.151654411764707 8.897058823529411  C 10.185355392156865 8.933823529411764  10.231311274509805 8.99203431372549  10.289522058823529 9.071691176470587  C 10.347732843137255 9.151348039215685  10.387561274509805 9.229473039215685  10.409007352941178 9.306066176470587  C 10.430453431372552 9.382659313725489  10.441176470588236 9.466911764705882  10.441176470588236 9.558823529411764  C 10.441176470588236 9.80392156862745  10.355392156862747 10.012254901960784  10.183823529411764 10.183823529411764  C 10.012254901960786 10.355392156862745  9.803921568627452 10.441176470588236  9.558823529411764 10.441176470588236  C 9.466911764705882 10.441176470588236  9.38265931372549 10.43045343137255  9.306066176470587 10.409007352941176  C 9.229473039215687 10.387561274509803  9.151348039215687 10.347732843137255  9.071691176470587 10.28952205882353  C 8.992034313725492 10.231311274509803  8.933823529411766 10.185355392156861  8.897058823529411 10.151654411764707  C 8.860294117647062 10.117953431372547  8.794424019607844 10.052083333333332  8.699448529411764 9.954044117647058  C 8.604473039215687 9.856004901960784  8.547794117647058 9.79779411764706  8.529411764705882 9.779411764705882  C 8.327205882352942 9.969362745098037  8.226102941176471 10.193014705882351  8.226102941176471 10.450367647058824  C 8.226102941176471 10.695465686274508  8.311887254901961 10.903799019607842  8.48345588235294 11.075367647058822  L 10.376838235294118 12.977941176470589  C 10.542279411764705 13.143382352941176  10.750612745098039 13.226102941176471  11.001838235294116 13.226102941176471  C 11.246936274509803 13.226102941176471  11.455269607843139 13.146446078431373  11.626838235294118 12.987132352941178  L 12.977941176470589 11.645220588235293  Z M 6.470588235294118 5.220588235294118  C 6.672794117647058 5.03063725490196  6.77389705882353 4.806985294117647  6.77389705882353 4.549632352941177  C 6.77389705882353 4.30453431372549  6.6881127450980395 4.0962009803921555  6.516544117647059 3.9246323529411757  L 4.623161764705882 2.0220588235294112  C 4.451593137254902 1.8504901960784315  4.2432598039215685 1.7647058823529416  3.9981617647058822 1.7647058823529416  C 3.7591911764705883 1.7647058823529416  3.5508578431372553 1.8474264705882355  3.3731617647058822 2.012867647058823  L 2.0220588235294117 3.3547794117647056  C 1.8504901960784315 3.5263480392156854  1.7647058823529411 3.7316176470588234  1.7647058823529411 3.970588235294117  C 1.7647058823529411 4.215686274509802  1.8504901960784315 4.424019607843136  2.0220588235294117 4.595588235294118  L 3.933823529411765 6.507352941176471  C 4.099264705882353 6.672794117647058  4.307598039215687 6.755514705882352  4.5588235294117645 6.755514705882352  C 4.8161764705882355 6.755514705882352  5.036764705882352 6.660539215686274  5.220588235294118 6.470588235294118  C 5.202205882352941 6.45220588235294  5.143995098039216 6.395526960784314  5.045955882352942 6.3005514705882355  C 4.947916666666668 6.205575980392157  4.882046568627452 6.139705882352941  4.848345588235294 6.102941176470588  C 4.814644607843138 6.0661764705882355  4.768688725490197 6.00796568627451  4.71047794117647 5.928308823529412  C 4.652267156862746 5.848651960784313  4.612438725490196 5.770526960784313  4.590992647058824 5.693933823529412  C 4.569546568627452 5.617340686274509  4.5588235294117645 5.533088235294118  4.5588235294117645 5.4411764705882355  C 4.5588235294117645 5.196078431372549  4.644607843137255 4.987745098039214  4.8161764705882355 4.816176470588235  C 4.987745098039216 4.644607843137253  5.19607843137255 4.558823529411765  5.4411764705882355 4.558823529411765  C 5.533088235294118 4.558823529411765  5.6173406862745106 4.569546568627449  5.693933823529411 4.590992647058823  C 5.770526960784314 4.612438725490195  5.848651960784314 4.652267156862744  5.928308823529411 4.710477941176471  C 6.00796568627451 4.768688725490195  6.0661764705882355 4.814644607843136  6.102941176470588 4.848345588235294  C 6.139705882352941 4.88204656862745  6.205575980392157 4.947916666666666  6.3005514705882355 5.045955882352942  C 6.395526960784315 5.143995098039214  6.452205882352942 5.202205882352941  6.470588235294118 5.220588235294118  Z M 14.227941176470587 9.154411764705884  C 14.742647058823529 9.669117647058822  15 10.294117647058824  15 11.029411764705884  C 15 11.76470588235294  14.739583333333334 12.386642156862745  14.21875 12.895220588235293  L 12.867647058823529 14.237132352941176  C 12.35906862745098 14.745710784313724  11.737132352941176 15  11.001838235294116 15  C 10.260416666666668 15  9.635416666666668 14.739583333333334  9.126838235294116 14.21875  L 7.233455882352941 12.316176470588236  C 6.724877450980394 11.807598039215687  6.470588235294118 11.185661764705882  6.470588235294118 10.450367647058824  C 6.470588235294118 9.696691176470589  6.740196078431373 9.056372549019608  7.279411764705882 8.529411764705882  L 6.470588235294118 7.720588235294117  C 5.943627450980393 8.259803921568627  5.306372549019608 8.529411764705882  4.5588235294117645 8.529411764705882  C 3.8235294117647056 8.529411764705882  3.1985294117647056 8.272058823529413  2.683823529411765 7.757352941176469  L 0.7720588235294117 5.845588235294117  C 0.2573529411764706 5.330882352941176  0 4.705882352941177  0 3.970588235294117  C 0 3.235294117647059  0.26041666666666663 2.613357843137254  0.78125 2.104779411764705  L 2.1323529411764706 0.7628676470588241  C 2.6409313725490198 0.2542892156862736  3.2628676470588234 0  3.9981617647058822 0  C 4.739583333333334 0  5.364583333333334 0.26041666666666574  5.873161764705882 0.7812500000000006  L 7.76654411764706 2.6838235294117654  C 8.275122549019608 3.1924019607843124  8.529411764705882 3.8143382352941173  8.529411764705882 4.549632352941177  C 8.529411764705882 5.303308823529411  8.259803921568627 5.943627450980391  7.720588235294117 6.470588235294118  L 8.529411764705882 7.279411764705883  C 9.05637254901961 6.740196078431372  9.693627450980392 6.470588235294116  10.441176470588236 6.470588235294118  C 11.176470588235293 6.470588235294116  11.801470588235293 6.727941176470588  12.316176470588236 7.242647058823529  L 14.227941176470587 9.154411764705884  Z " fill-rule="nonzero" fill="#000000" stroke="none" fill-opacity="0" transform="matrix(1 0 0 1 1087 2321 )" />
    <path d="M 12.977941176470589 11.645220588235293  C 13.149509803921568 11.473651960784313  13.235294117647058 11.268382352941176  13.235294117647058 11.029411764705884  C 13.235294117647058 10.784313725490195  13.149509803921568 10.575980392156861  12.977941176470589 10.404411764705882  L 11.066176470588236 8.492647058823529  C 10.894607843137257 8.32107843137255  10.686274509803923 8.23529411764706  10.441176470588236 8.23529411764706  C 10.183823529411764 8.23529411764706  9.963235294117647 8.333333333333334  9.779411764705882 8.529411764705882  C 9.79779411764706 8.547794117647058  9.856004901960786 8.604473039215687  9.954044117647058 8.699448529411764  C 10.052083333333334 8.794424019607842  10.11795343137255 8.86029411764706  10.151654411764707 8.897058823529411  C 10.185355392156865 8.933823529411764  10.231311274509805 8.99203431372549  10.289522058823529 9.071691176470587  C 10.347732843137255 9.151348039215685  10.387561274509805 9.229473039215685  10.409007352941178 9.306066176470587  C 10.430453431372552 9.382659313725489  10.441176470588236 9.466911764705882  10.441176470588236 9.558823529411764  C 10.441176470588236 9.80392156862745  10.355392156862747 10.012254901960784  10.183823529411764 10.183823529411764  C 10.012254901960786 10.355392156862745  9.803921568627452 10.441176470588236  9.558823529411764 10.441176470588236  C 9.466911764705882 10.441176470588236  9.38265931372549 10.43045343137255  9.306066176470587 10.409007352941176  C 9.229473039215687 10.387561274509803  9.151348039215687 10.347732843137255  9.071691176470587 10.28952205882353  C 8.992034313725492 10.231311274509803  8.933823529411766 10.185355392156861  8.897058823529411 10.151654411764707  C 8.860294117647062 10.117953431372547  8.794424019607844 10.052083333333332  8.699448529411764 9.954044117647058  C 8.604473039215687 9.856004901960784  8.547794117647058 9.79779411764706  8.529411764705882 9.779411764705882  C 8.327205882352942 9.969362745098037  8.226102941176471 10.193014705882351  8.226102941176471 10.450367647058824  C 8.226102941176471 10.695465686274508  8.311887254901961 10.903799019607842  8.48345588235294 11.075367647058822  L 10.376838235294118 12.977941176470589  C 10.542279411764705 13.143382352941176  10.750612745098039 13.226102941176471  11.001838235294116 13.226102941176471  C 11.246936274509803 13.226102941176471  11.455269607843139 13.146446078431373  11.626838235294118 12.987132352941178  L 12.977941176470589 11.645220588235293  Z " stroke-width="2" stroke="#764ba2" fill="none" transform="matrix(1 0 0 1 1087 2321 )" mask="url(#clip20)" />
    <path d="M 6.470588235294118 5.220588235294118  C 6.672794117647058 5.03063725490196  6.77389705882353 4.806985294117647  6.77389705882353 4.549632352941177  C 6.77389705882353 4.30453431372549  6.6881127450980395 4.0962009803921555  6.516544117647059 3.9246323529411757  L 4.623161764705882 2.0220588235294112  C 4.451593137254902 1.8504901960784315  4.2432598039215685 1.7647058823529416  3.9981617647058822 1.7647058823529416  C 3.7591911764705883 1.7647058823529416  3.5508578431372553 1.8474264705882355  3.3731617647058822 2.012867647058823  L 2.0220588235294117 3.3547794117647056  C 1.8504901960784315 3.5263480392156854  1.7647058823529411 3.7316176470588234  1.7647058823529411 3.970588235294117  C 1.7647058823529411 4.215686274509802  1.8504901960784315 4.424019607843136  2.0220588235294117 4.595588235294118  L 3.933823529411765 6.507352941176471  C 4.099264705882353 6.672794117647058  4.307598039215687 6.755514705882352  4.5588235294117645 6.755514705882352  C 4.8161764705882355 6.755514705882352  5.036764705882352 6.660539215686274  5.220588235294118 6.470588235294118  C 5.202205882352941 6.45220588235294  5.143995098039216 6.395526960784314  5.045955882352942 6.3005514705882355  C 4.947916666666668 6.205575980392157  4.882046568627452 6.139705882352941  4.848345588235294 6.102941176470588  C 4.814644607843138 6.0661764705882355  4.768688725490197 6.00796568627451  4.71047794117647 5.928308823529412  C 4.652267156862746 5.848651960784313  4.612438725490196 5.770526960784313  4.590992647058824 5.693933823529412  C 4.569546568627452 5.617340686274509  4.5588235294117645 5.533088235294118  4.5588235294117645 5.4411764705882355  C 4.5588235294117645 5.196078431372549  4.644607843137255 4.987745098039214  4.8161764705882355 4.816176470588235  C 4.987745098039216 4.644607843137253  5.19607843137255 4.558823529411765  5.4411764705882355 4.558823529411765  C 5.533088235294118 4.558823529411765  5.6173406862745106 4.569546568627449  5.693933823529411 4.590992647058823  C 5.770526960784314 4.612438725490195  5.848651960784314 4.652267156862744  5.928308823529411 4.710477941176471  C 6.00796568627451 4.768688725490195  6.0661764705882355 4.814644607843136  6.102941176470588 4.848345588235294  C 6.139705882352941 4.88204656862745  6.205575980392157 4.947916666666666  6.3005514705882355 5.045955882352942  C 6.395526960784315 5.143995098039214  6.452205882352942 5.202205882352941  6.470588235294118 5.220588235294118  Z " stroke-width="2" stroke="#764ba2" fill="none" transform="matrix(1 0 0 1 1087 2321 )" mask="url(#clip20)" />
    <path d="M 14.227941176470587 9.154411764705884  C 14.742647058823529 9.669117647058822  15 10.294117647058824  15 11.029411764705884  C 15 11.76470588235294  14.739583333333334 12.386642156862745  14.21875 12.895220588235293  L 12.867647058823529 14.237132352941176  C 12.35906862745098 14.745710784313724  11.737132352941176 15  11.001838235294116 15  C 10.260416666666668 15  9.635416666666668 14.739583333333334  9.126838235294116 14.21875  L 7.233455882352941 12.316176470588236  C 6.724877450980394 11.807598039215687  6.470588235294118 11.185661764705882  6.470588235294118 10.450367647058824  C 6.470588235294118 9.696691176470589  6.740196078431373 9.056372549019608  7.279411764705882 8.529411764705882  L 6.470588235294118 7.720588235294117  C 5.943627450980393 8.259803921568627  5.306372549019608 8.529411764705882  4.5588235294117645 8.529411764705882  C 3.8235294117647056 8.529411764705882  3.1985294117647056 8.272058823529413  2.683823529411765 7.757352941176469  L 0.7720588235294117 5.845588235294117  C 0.2573529411764706 5.330882352941176  0 4.705882352941177  0 3.970588235294117  C 0 3.235294117647059  0.26041666666666663 2.613357843137254  0.78125 2.104779411764705  L 2.1323529411764706 0.7628676470588241  C 2.6409313725490198 0.2542892156862736  3.2628676470588234 0  3.9981617647058822 0  C 4.739583333333334 0  5.364583333333334 0.26041666666666574  5.873161764705882 0.7812500000000006  L 7.76654411764706 2.6838235294117654  C 8.275122549019608 3.1924019607843124  8.529411764705882 3.8143382352941173  8.529411764705882 4.549632352941177  C 8.529411764705882 5.303308823529411  8.259803921568627 5.943627450980391  7.720588235294117 6.470588235294118  L 8.529411764705882 7.279411764705883  C 9.05637254901961 6.740196078431372  9.693627450980392 6.470588235294116  10.441176470588236 6.470588235294118  C 11.176470588235293 6.470588235294116  11.801470588235293 6.727941176470588  12.316176470588236 7.242647058823529  L 14.227941176470587 9.154411764705884  Z " stroke-width="2" stroke="#764ba2" fill="none" transform="matrix(1 0 0 1 1087 2321 )" mask="url(#clip20)" />
  </g>
</svg>