<?xml version="1.0" encoding="utf-8"?>
<svg version="1.1" xmlns:xlink="http://www.w3.org/1999/xlink" width="7px" height="7px" xmlns="http://www.w3.org/2000/svg">
  <defs>
    <mask fill="white" id="clip21">
      <path d="M 5.833333333333334 2  C 5.833333333333334 2.3828125  5.713324652777779 2.736979166666666  5.473307291666666 3.0625  C 5.616102430555556 3.098958333333333  5.752061631944445 3.1484375  5.881184895833334 3.2109374999999996  C 6.010308159722222 3.2734375  6.1455078125 3.368489583333333  6.286783854166666 3.49609375  C 6.428059895833334 3.6236979166666665  6.548828125 3.7740885416666665  6.649088541666666 3.947265625  C 6.749348958333334 4.120442708333333  6.832899305555556 4.344401041666666  6.899739583333334 4.619140625  C 6.96657986111111 4.893880208333334  7 5.201822916666667  7 5.54296875  C 7 5.944010416666668  6.848090277777778 6.287109375  6.544270833333334 6.572265625  C 6.24045138888889 6.857421875  5.874348958333334 7  5.445963541666666 7  L 1.5540364583333335 7  C 1.1256510416666665 7  0.7595486111111113 6.857421875  0.4557291666666667 6.572265625  C 0.15190972222222218 6.287109375  0 5.944010416666668  0 5.54296875  C 0 5.201822916666667  0.03342013888888889 4.893880208333334  0.10026041666666666 4.619140625  C 0.16710069444444445 4.344401041666666  0.25065104166666663 4.120442708333333  0.35091145833333337 3.947265625  C 0.451171875 3.7740885416666665  0.5719401041666667 3.6236979166666665  0.7132161458333333 3.49609375  C 0.8544921875 3.368489583333333  0.9896918402777779 3.2734375  1.1188151041666665 3.2109374999999996  C 1.2479383680555556 3.1484375  1.3838975694444446 3.098958333333333  1.5266927083333335 3.0625  C 1.2866753472222225 2.736979166666666  1.1666666666666665 2.3828125  1.1666666666666665 2  C 1.1666666666666665 1.729166666666666  1.2281901041666665 1.4707031249999998  1.3512369791666665 1.2246093749999998  C 1.4742838541666665 0.9785156249999998  1.640625 0.765625  1.8502604166666667 0.5859374999999997  C 2.059895833333333 0.4062500000000001  2.308268229166667 0.2636718749999999  2.595377604166667 0.15820312499999978  C 2.882486979166667 0.05273437499999967  3.184027777777778 0  3.5 0  C 3.8159722222222228 0  4.117513020833334 0.05273437499999967  4.404622395833334 0.15820312499999978  C 4.691731770833334 0.2636718749999999  4.940104166666666 0.4062500000000001  5.149739583333334 0.5859374999999997  C 5.359375 0.765625  5.525716145833334 0.9785156249999998  5.648763020833334 1.2246093749999998  C 5.771809895833334 1.4707031249999998  5.833333333333334 1.729166666666666  5.833333333333334 2  Z M 4.7373046875 0.9394531250000001  C 4.395507812500001 0.6464843749999999  3.983072916666667 0.4999999999999998  3.5 0.4999999999999998  C 3.016927083333333 0.4999999999999998  2.6044921875 0.6464843749999999  2.2626953125 0.9394531250000001  C 1.9208984375 1.2324218750000004  1.75 1.5859375  1.75 2  C 1.75 2.4140625  1.9208984375 2.767578125  2.2626953125 3.0605468749999996  C 2.6044921875 3.353515625  3.016927083333333 3.5  3.5 3.5  C 3.983072916666667 3.5  4.395507812500001 3.353515625  4.7373046875 3.0605468749999996  C 5.0791015625 2.767578125  5.25 2.4140625  5.25 2  C 5.25 1.5859375  5.0791015625 1.2324218750000004  4.7373046875 0.9394531250000001  Z M 1.5540364583333335 6.5  L 5.445963541666666 6.5  C 5.713324652777779 6.5  5.941948784722222 6.406901041666667  6.1318359375 6.220703125  C 6.321723090277779 6.034505208333333  6.416666666666666 5.80859375  6.416666666666666 5.54296875  C 6.416666666666666 4.920572916666666  6.297417534722222 4.4296875  6.058919270833334 4.0703125  C 5.820421006944445 3.7109375  5.477864583333334 3.522135416666666  5.03125 3.50390625  C 4.590711805555555 3.834635416666667  4.080295138888889 4  3.5 4  C 2.919704861111111 4  2.409288194444445 3.834635416666667  1.96875 3.50390625  C 1.5221354166666665 3.522135416666666  1.1795789930555556 3.7109375  0.9410807291666666 4.0703125  C 0.7025824652777778 4.4296875  0.5833333333333333 4.920572916666666  0.5833333333333333 5.54296875  C 0.5833333333333333 5.80859375  0.6782769097222223 6.034505208333333  0.8681640625 6.220703125  C 1.058051215277778 6.406901041666667  1.2866753472222225 6.5  1.5540364583333335 6.5  Z " fill-rule="evenodd" />
    </mask>
  </defs>
  <g transform="matrix(1 0 0 1 -1136 -2327 )">
    <path d="M 5.833333333333334 2  C 5.833333333333334 2.3828125  5.713324652777779 2.736979166666666  5.473307291666666 3.0625  C 5.616102430555556 3.098958333333333  5.752061631944445 3.1484375  5.881184895833334 3.2109374999999996  C 6.010308159722222 3.2734375  6.1455078125 3.368489583333333  6.286783854166666 3.49609375  C 6.428059895833334 3.6236979166666665  6.548828125 3.7740885416666665  6.649088541666666 3.947265625  C 6.749348958333334 4.120442708333333  6.832899305555556 4.344401041666666  6.899739583333334 4.619140625  C 6.96657986111111 4.893880208333334  7 5.201822916666667  7 5.54296875  C 7 5.944010416666668  6.848090277777778 6.287109375  6.544270833333334 6.572265625  C 6.24045138888889 6.857421875  5.874348958333334 7  5.445963541666666 7  L 1.5540364583333335 7  C 1.1256510416666665 7  0.7595486111111113 6.857421875  0.4557291666666667 6.572265625  C 0.15190972222222218 6.287109375  0 5.944010416666668  0 5.54296875  C 0 5.201822916666667  0.03342013888888889 4.893880208333334  0.10026041666666666 4.619140625  C 0.16710069444444445 4.344401041666666  0.25065104166666663 4.120442708333333  0.35091145833333337 3.947265625  C 0.451171875 3.7740885416666665  0.5719401041666667 3.6236979166666665  0.7132161458333333 3.49609375  C 0.8544921875 3.368489583333333  0.9896918402777779 3.2734375  1.1188151041666665 3.2109374999999996  C 1.2479383680555556 3.1484375  1.3838975694444446 3.098958333333333  1.5266927083333335 3.0625  C 1.2866753472222225 2.736979166666666  1.1666666666666665 2.3828125  1.1666666666666665 2  C 1.1666666666666665 1.729166666666666  1.2281901041666665 1.4707031249999998  1.3512369791666665 1.2246093749999998  C 1.4742838541666665 0.9785156249999998  1.640625 0.765625  1.8502604166666667 0.5859374999999997  C 2.059895833333333 0.4062500000000001  2.308268229166667 0.2636718749999999  2.595377604166667 0.15820312499999978  C 2.882486979166667 0.05273437499999967  3.184027777777778 0  3.5 0  C 3.8159722222222228 0  4.117513020833334 0.05273437499999967  4.404622395833334 0.15820312499999978  C 4.691731770833334 0.2636718749999999  4.940104166666666 0.4062500000000001  5.149739583333334 0.5859374999999997  C 5.359375 0.765625  5.525716145833334 0.9785156249999998  5.648763020833334 1.2246093749999998  C 5.771809895833334 1.4707031249999998  5.833333333333334 1.729166666666666  5.833333333333334 2  Z M 4.7373046875 0.9394531250000001  C 4.395507812500001 0.6464843749999999  3.983072916666667 0.4999999999999998  3.5 0.4999999999999998  C 3.016927083333333 0.4999999999999998  2.6044921875 0.6464843749999999  2.2626953125 0.9394531250000001  C 1.9208984375 1.2324218750000004  1.75 1.5859375  1.75 2  C 1.75 2.4140625  1.9208984375 2.767578125  2.2626953125 3.0605468749999996  C 2.6044921875 3.353515625  3.016927083333333 3.5  3.5 3.5  C 3.983072916666667 3.5  4.395507812500001 3.353515625  4.7373046875 3.0605468749999996  C 5.0791015625 2.767578125  5.25 2.4140625  5.25 2  C 5.25 1.5859375  5.0791015625 1.2324218750000004  4.7373046875 0.9394531250000001  Z M 1.5540364583333335 6.5  L 5.445963541666666 6.5  C 5.713324652777779 6.5  5.941948784722222 6.406901041666667  6.1318359375 6.220703125  C 6.321723090277779 6.034505208333333  6.416666666666666 5.80859375  6.416666666666666 5.54296875  C 6.416666666666666 4.920572916666666  6.297417534722222 4.4296875  6.058919270833334 4.0703125  C 5.820421006944445 3.7109375  5.477864583333334 3.522135416666666  5.03125 3.50390625  C 4.590711805555555 3.834635416666667  4.080295138888889 4  3.5 4  C 2.919704861111111 4  2.409288194444445 3.834635416666667  1.96875 3.50390625  C 1.5221354166666665 3.522135416666666  1.1795789930555556 3.7109375  0.9410807291666666 4.0703125  C 0.7025824652777778 4.4296875  0.5833333333333333 4.920572916666666  0.5833333333333333 5.54296875  C 0.5833333333333333 5.80859375  0.6782769097222223 6.034505208333333  0.8681640625 6.220703125  C 1.058051215277778 6.406901041666667  1.2866753472222225 6.5  1.5540364583333335 6.5  Z " fill-rule="nonzero" fill="#797979" stroke="none" fill-opacity="0.00784313725490196" transform="matrix(1 0 0 1 1136 2327 )" />
    <path d="M 5.833333333333334 2  C 5.833333333333334 2.3828125  5.713324652777779 2.736979166666666  5.473307291666666 3.0625  C 5.616102430555556 3.098958333333333  5.752061631944445 3.1484375  5.881184895833334 3.2109374999999996  C 6.010308159722222 3.2734375  6.1455078125 3.368489583333333  6.286783854166666 3.49609375  C 6.428059895833334 3.6236979166666665  6.548828125 3.7740885416666665  6.649088541666666 3.947265625  C 6.749348958333334 4.120442708333333  6.832899305555556 4.344401041666666  6.899739583333334 4.619140625  C 6.96657986111111 4.893880208333334  7 5.201822916666667  7 5.54296875  C 7 5.944010416666668  6.848090277777778 6.287109375  6.544270833333334 6.572265625  C 6.24045138888889 6.857421875  5.874348958333334 7  5.445963541666666 7  L 1.5540364583333335 7  C 1.1256510416666665 7  0.7595486111111113 6.857421875  0.4557291666666667 6.572265625  C 0.15190972222222218 6.287109375  0 5.944010416666668  0 5.54296875  C 0 5.201822916666667  0.03342013888888889 4.893880208333334  0.10026041666666666 4.619140625  C 0.16710069444444445 4.344401041666666  0.25065104166666663 4.120442708333333  0.35091145833333337 3.947265625  C 0.451171875 3.7740885416666665  0.5719401041666667 3.6236979166666665  0.7132161458333333 3.49609375  C 0.8544921875 3.368489583333333  0.9896918402777779 3.2734375  1.1188151041666665 3.2109374999999996  C 1.2479383680555556 3.1484375  1.3838975694444446 3.098958333333333  1.5266927083333335 3.0625  C 1.2866753472222225 2.736979166666666  1.1666666666666665 2.3828125  1.1666666666666665 2  C 1.1666666666666665 1.729166666666666  1.2281901041666665 1.4707031249999998  1.3512369791666665 1.2246093749999998  C 1.4742838541666665 0.9785156249999998  1.640625 0.765625  1.8502604166666667 0.5859374999999997  C 2.059895833333333 0.4062500000000001  2.308268229166667 0.2636718749999999  2.595377604166667 0.15820312499999978  C 2.882486979166667 0.05273437499999967  3.184027777777778 0  3.5 0  C 3.8159722222222228 0  4.117513020833334 0.05273437499999967  4.404622395833334 0.15820312499999978  C 4.691731770833334 0.2636718749999999  4.940104166666666 0.4062500000000001  5.149739583333334 0.5859374999999997  C 5.359375 0.765625  5.525716145833334 0.9785156249999998  5.648763020833334 1.2246093749999998  C 5.771809895833334 1.4707031249999998  5.833333333333334 1.729166666666666  5.833333333333334 2  Z " stroke-width="2" stroke="#764ba2" fill="none" transform="matrix(1 0 0 1 1136 2327 )" mask="url(#clip21)" />
    <path d="M 4.7373046875 0.9394531250000001  C 4.395507812500001 0.6464843749999999  3.983072916666667 0.4999999999999998  3.5 0.4999999999999998  C 3.016927083333333 0.4999999999999998  2.6044921875 0.6464843749999999  2.2626953125 0.9394531250000001  C 1.9208984375 1.2324218750000004  1.75 1.5859375  1.75 2  C 1.75 2.4140625  1.9208984375 2.767578125  2.2626953125 3.0605468749999996  C 2.6044921875 3.353515625  3.016927083333333 3.5  3.5 3.5  C 3.983072916666667 3.5  4.395507812500001 3.353515625  4.7373046875 3.0605468749999996  C 5.0791015625 2.767578125  5.25 2.4140625  5.25 2  C 5.25 1.5859375  5.0791015625 1.2324218750000004  4.7373046875 0.9394531250000001  Z " stroke-width="2" stroke="#764ba2" fill="none" transform="matrix(1 0 0 1 1136 2327 )" mask="url(#clip21)" />
    <path d="M 1.5540364583333335 6.5  L 5.445963541666666 6.5  C 5.713324652777779 6.5  5.941948784722222 6.406901041666667  6.1318359375 6.220703125  C 6.321723090277779 6.034505208333333  6.416666666666666 5.80859375  6.416666666666666 5.54296875  C 6.416666666666666 4.920572916666666  6.297417534722222 4.4296875  6.058919270833334 4.0703125  C 5.820421006944445 3.7109375  5.477864583333334 3.522135416666666  5.03125 3.50390625  C 4.590711805555555 3.834635416666667  4.080295138888889 4  3.5 4  C 2.919704861111111 4  2.409288194444445 3.834635416666667  1.96875 3.50390625  C 1.5221354166666665 3.522135416666666  1.1795789930555556 3.7109375  0.9410807291666666 4.0703125  C 0.7025824652777778 4.4296875  0.5833333333333333 4.920572916666666  0.5833333333333333 5.54296875  C 0.5833333333333333 5.80859375  0.6782769097222223 6.034505208333333  0.8681640625 6.220703125  C 1.058051215277778 6.406901041666667  1.2866753472222225 6.5  1.5540364583333335 6.5  Z " stroke-width="2" stroke="#764ba2" fill="none" transform="matrix(1 0 0 1 1136 2327 )" mask="url(#clip21)" />
  </g>
</svg>