<?xml version="1.0" encoding="utf-8"?>
<svg version="1.1" xmlns:xlink="http://www.w3.org/1999/xlink" width="5px" height="5px" xmlns="http://www.w3.org/2000/svg">
  <defs>
    <mask fill="white" id="clip85">
      <path d="M 4.166666666666667 1.4285714285714284  C 4.166666666666667 1.7020089285714284  4.080946180555555 1.9549851190476186  3.909505208333333 2.1875  C 4.011501736111112 2.213541666666666  4.108615451388889 2.2488839285714284  4.200846354166667 2.2935267857142856  C 4.293077256944445 2.3381696428571432  4.3896484375 2.4060639880952377  4.490559895833333 2.4972098214285716  C 4.591471354166667 2.5883556547619047  4.677734375 2.6957775297619047  4.749348958333333 2.8194754464285716  C 4.820963541666667 2.9431733630952377  4.880642361111112 3.1031436011904754  4.928385416666667 3.299386160714286  C 4.976128472222221 3.4956287202380953  5 3.7155877976190474  5 3.9592633928571432  C 5 4.245721726190476  4.891493055555555 4.490792410714286  4.674479166666667 4.694475446428571  C 4.457465277777779 4.898158482142857  4.195963541666667 5  3.889973958333333 5  L 1.1100260416666667 5  C 0.8040364583333333 5  0.5425347222222223 4.898158482142857  0.32552083333333337 4.694475446428571  C 0.10850694444444442 4.490792410714286  0 4.245721726190476  0 3.9592633928571432  C 0 3.7155877976190474  0.023871527777777776 3.4956287202380953  0.07161458333333333 3.299386160714286  C 0.1193576388888889 3.1031436011904754  0.17903645833333331 2.9431733630952377  0.2506510416666667 2.8194754464285716  C 0.322265625 2.6957775297619047  0.40852864583333337 2.5883556547619047  0.5094401041666666 2.4972098214285716  C 0.6103515625 2.4060639880952377  0.7069227430555557 2.3381696428571432  0.7991536458333333 2.2935267857142856  C 0.8913845486111112 2.2488839285714284  0.988498263888889 2.213541666666666  1.0904947916666667 2.1875  C 0.9190538194444446 1.9549851190476186  0.8333333333333333 1.7020089285714284  0.8333333333333333 1.4285714285714284  C 0.8333333333333333 1.235119047619047  0.8772786458333333 1.050502232142857  0.9651692708333333 0.874720982142857  C 1.0530598958333333 0.698939732142857  1.171875 0.546875  1.3216145833333335 0.4185267857142855  C 1.4713541666666665 0.2901785714285715  1.6487630208333335 0.1883370535714285  1.8538411458333335 0.11300223214285698  C 2.0589192708333335 0.037667410714285476  2.274305555555556 0  2.5 0  C 2.7256944444444446 0  2.941080729166667 0.037667410714285476  3.146158854166667 0.11300223214285698  C 3.351236979166667 0.1883370535714285  3.528645833333333 0.2901785714285715  3.678385416666667 0.4185267857142855  C 3.828125 0.546875  3.946940104166667 0.698939732142857  4.034830729166667 0.874720982142857  C 4.122721354166667 1.050502232142857  4.166666666666667 1.235119047619047  4.166666666666667 1.4285714285714284  Z M 3.3837890625 0.6710379464285715  C 3.1396484375000004 0.4617745535714285  2.845052083333334 0.357142857142857  2.5 0.357142857142857  C 2.1549479166666665 0.357142857142857  1.8603515625 0.4617745535714285  1.6162109375 0.6710379464285715  C 1.3720703125 0.8803013392857145  1.25 1.1328125  1.25 1.4285714285714284  C 1.25 1.724330357142857  1.3720703125 1.976841517857143  1.6162109375 2.1861049107142856  C 1.8603515625 2.3953683035714284  2.1549479166666665 2.5  2.5 2.5  C 2.845052083333334 2.5  3.1396484375000004 2.3953683035714284  3.3837890625 2.1861049107142856  C 3.6279296875 1.976841517857143  3.75 1.724330357142857  3.75 1.4285714285714284  C 3.75 1.1328125  3.6279296875 0.8803013392857145  3.3837890625 0.6710379464285715  Z M 1.1100260416666667 4.642857142857143  L 3.889973958333333 4.642857142857143  C 4.080946180555555 4.642857142857143  4.244249131944445 4.576357886904762  4.3798828125 4.443359375  C 4.515516493055555 4.310360863095238  4.583333333333333 4.1489955357142865  4.583333333333333 3.9592633928571432  C 4.583333333333333 3.5146949404761902  4.498155381944445 3.1640625  4.327799479166667 2.9073660714285716  C 4.157443576388889 2.6506696428571432  3.912760416666667 2.515811011904762  3.59375 2.5027901785714284  C 3.279079861111111 2.7390252976190474  2.9144965277777777 2.8571428571428568  2.5 2.8571428571428568  C 2.0855034722222223 2.8571428571428568  1.7209201388888893 2.7390252976190474  1.40625 2.5027901785714284  C 1.0872395833333333 2.515811011904762  0.8425564236111112 2.6506696428571432  0.6722005208333333 2.9073660714285716  C 0.5018446180555556 3.1640625  0.41666666666666663 3.5146949404761902  0.41666666666666663 3.9592633928571432  C 0.41666666666666663 4.1489955357142865  0.4844835069444445 4.310360863095238  0.6201171875 4.443359375  C 0.7557508680555557 4.576357886904762  0.9190538194444446 4.642857142857143  1.1100260416666667 4.642857142857143  Z " fill-rule="evenodd" />
    </mask>
  </defs>
  <g transform="matrix(1 0 0 1 -618 -1787 )">
    <path d="M 4.166666666666667 1.4285714285714284  C 4.166666666666667 1.7020089285714284  4.080946180555555 1.9549851190476186  3.909505208333333 2.1875  C 4.011501736111112 2.213541666666666  4.108615451388889 2.2488839285714284  4.200846354166667 2.2935267857142856  C 4.293077256944445 2.3381696428571432  4.3896484375 2.4060639880952377  4.490559895833333 2.4972098214285716  C 4.591471354166667 2.5883556547619047  4.677734375 2.6957775297619047  4.749348958333333 2.8194754464285716  C 4.820963541666667 2.9431733630952377  4.880642361111112 3.1031436011904754  4.928385416666667 3.299386160714286  C 4.976128472222221 3.4956287202380953  5 3.7155877976190474  5 3.9592633928571432  C 5 4.245721726190476  4.891493055555555 4.490792410714286  4.674479166666667 4.694475446428571  C 4.457465277777779 4.898158482142857  4.195963541666667 5  3.889973958333333 5  L 1.1100260416666667 5  C 0.8040364583333333 5  0.5425347222222223 4.898158482142857  0.32552083333333337 4.694475446428571  C 0.10850694444444442 4.490792410714286  0 4.245721726190476  0 3.9592633928571432  C 0 3.7155877976190474  0.023871527777777776 3.4956287202380953  0.07161458333333333 3.299386160714286  C 0.1193576388888889 3.1031436011904754  0.17903645833333331 2.9431733630952377  0.2506510416666667 2.8194754464285716  C 0.322265625 2.6957775297619047  0.40852864583333337 2.5883556547619047  0.5094401041666666 2.4972098214285716  C 0.6103515625 2.4060639880952377  0.7069227430555557 2.3381696428571432  0.7991536458333333 2.2935267857142856  C 0.8913845486111112 2.2488839285714284  0.988498263888889 2.213541666666666  1.0904947916666667 2.1875  C 0.9190538194444446 1.9549851190476186  0.8333333333333333 1.7020089285714284  0.8333333333333333 1.4285714285714284  C 0.8333333333333333 1.235119047619047  0.8772786458333333 1.050502232142857  0.9651692708333333 0.874720982142857  C 1.0530598958333333 0.698939732142857  1.171875 0.546875  1.3216145833333335 0.4185267857142855  C 1.4713541666666665 0.2901785714285715  1.6487630208333335 0.1883370535714285  1.8538411458333335 0.11300223214285698  C 2.0589192708333335 0.037667410714285476  2.274305555555556 0  2.5 0  C 2.7256944444444446 0  2.941080729166667 0.037667410714285476  3.146158854166667 0.11300223214285698  C 3.351236979166667 0.1883370535714285  3.528645833333333 0.2901785714285715  3.678385416666667 0.4185267857142855  C 3.828125 0.546875  3.946940104166667 0.698939732142857  4.034830729166667 0.874720982142857  C 4.122721354166667 1.050502232142857  4.166666666666667 1.235119047619047  4.166666666666667 1.4285714285714284  Z M 3.3837890625 0.6710379464285715  C 3.1396484375000004 0.4617745535714285  2.845052083333334 0.357142857142857  2.5 0.357142857142857  C 2.1549479166666665 0.357142857142857  1.8603515625 0.4617745535714285  1.6162109375 0.6710379464285715  C 1.3720703125 0.8803013392857145  1.25 1.1328125  1.25 1.4285714285714284  C 1.25 1.724330357142857  1.3720703125 1.976841517857143  1.6162109375 2.1861049107142856  C 1.8603515625 2.3953683035714284  2.1549479166666665 2.5  2.5 2.5  C 2.845052083333334 2.5  3.1396484375000004 2.3953683035714284  3.3837890625 2.1861049107142856  C 3.6279296875 1.976841517857143  3.75 1.724330357142857  3.75 1.4285714285714284  C 3.75 1.1328125  3.6279296875 0.8803013392857145  3.3837890625 0.6710379464285715  Z M 1.1100260416666667 4.642857142857143  L 3.889973958333333 4.642857142857143  C 4.080946180555555 4.642857142857143  4.244249131944445 4.576357886904762  4.3798828125 4.443359375  C 4.515516493055555 4.310360863095238  4.583333333333333 4.1489955357142865  4.583333333333333 3.9592633928571432  C 4.583333333333333 3.5146949404761902  4.498155381944445 3.1640625  4.327799479166667 2.9073660714285716  C 4.157443576388889 2.6506696428571432  3.912760416666667 2.515811011904762  3.59375 2.5027901785714284  C 3.279079861111111 2.7390252976190474  2.9144965277777777 2.8571428571428568  2.5 2.8571428571428568  C 2.0855034722222223 2.8571428571428568  1.7209201388888893 2.7390252976190474  1.40625 2.5027901785714284  C 1.0872395833333333 2.515811011904762  0.8425564236111112 2.6506696428571432  0.6722005208333333 2.9073660714285716  C 0.5018446180555556 3.1640625  0.41666666666666663 3.5146949404761902  0.41666666666666663 3.9592633928571432  C 0.41666666666666663 4.1489955357142865  0.4844835069444445 4.310360863095238  0.6201171875 4.443359375  C 0.7557508680555557 4.576357886904762  0.9190538194444446 4.642857142857143  1.1100260416666667 4.642857142857143  Z " fill-rule="nonzero" fill="#797979" stroke="none" fill-opacity="0.00784313725490196" transform="matrix(1 0 0 1 618 1787 )" />
    <path d="M 4.166666666666667 1.4285714285714284  C 4.166666666666667 1.7020089285714284  4.080946180555555 1.9549851190476186  3.909505208333333 2.1875  C 4.011501736111112 2.213541666666666  4.108615451388889 2.2488839285714284  4.200846354166667 2.2935267857142856  C 4.293077256944445 2.3381696428571432  4.3896484375 2.4060639880952377  4.490559895833333 2.4972098214285716  C 4.591471354166667 2.5883556547619047  4.677734375 2.6957775297619047  4.749348958333333 2.8194754464285716  C 4.820963541666667 2.9431733630952377  4.880642361111112 3.1031436011904754  4.928385416666667 3.299386160714286  C 4.976128472222221 3.4956287202380953  5 3.7155877976190474  5 3.9592633928571432  C 5 4.245721726190476  4.891493055555555 4.490792410714286  4.674479166666667 4.694475446428571  C 4.457465277777779 4.898158482142857  4.195963541666667 5  3.889973958333333 5  L 1.1100260416666667 5  C 0.8040364583333333 5  0.5425347222222223 4.898158482142857  0.32552083333333337 4.694475446428571  C 0.10850694444444442 4.490792410714286  0 4.245721726190476  0 3.9592633928571432  C 0 3.7155877976190474  0.023871527777777776 3.4956287202380953  0.07161458333333333 3.299386160714286  C 0.1193576388888889 3.1031436011904754  0.17903645833333331 2.9431733630952377  0.2506510416666667 2.8194754464285716  C 0.322265625 2.6957775297619047  0.40852864583333337 2.5883556547619047  0.5094401041666666 2.4972098214285716  C 0.6103515625 2.4060639880952377  0.7069227430555557 2.3381696428571432  0.7991536458333333 2.2935267857142856  C 0.8913845486111112 2.2488839285714284  0.988498263888889 2.213541666666666  1.0904947916666667 2.1875  C 0.9190538194444446 1.9549851190476186  0.8333333333333333 1.7020089285714284  0.8333333333333333 1.4285714285714284  C 0.8333333333333333 1.235119047619047  0.8772786458333333 1.050502232142857  0.9651692708333333 0.874720982142857  C 1.0530598958333333 0.698939732142857  1.171875 0.546875  1.3216145833333335 0.4185267857142855  C 1.4713541666666665 0.2901785714285715  1.6487630208333335 0.1883370535714285  1.8538411458333335 0.11300223214285698  C 2.0589192708333335 0.037667410714285476  2.274305555555556 0  2.5 0  C 2.7256944444444446 0  2.941080729166667 0.037667410714285476  3.146158854166667 0.11300223214285698  C 3.351236979166667 0.1883370535714285  3.528645833333333 0.2901785714285715  3.678385416666667 0.4185267857142855  C 3.828125 0.546875  3.946940104166667 0.698939732142857  4.034830729166667 0.874720982142857  C 4.122721354166667 1.050502232142857  4.166666666666667 1.235119047619047  4.166666666666667 1.4285714285714284  Z " stroke-width="2" stroke="#764ba2" fill="none" transform="matrix(1 0 0 1 618 1787 )" mask="url(#clip85)" />
    <path d="M 3.3837890625 0.6710379464285715  C 3.1396484375000004 0.4617745535714285  2.845052083333334 0.357142857142857  2.5 0.357142857142857  C 2.1549479166666665 0.357142857142857  1.8603515625 0.4617745535714285  1.6162109375 0.6710379464285715  C 1.3720703125 0.8803013392857145  1.25 1.1328125  1.25 1.4285714285714284  C 1.25 1.724330357142857  1.3720703125 1.976841517857143  1.6162109375 2.1861049107142856  C 1.8603515625 2.3953683035714284  2.1549479166666665 2.5  2.5 2.5  C 2.845052083333334 2.5  3.1396484375000004 2.3953683035714284  3.3837890625 2.1861049107142856  C 3.6279296875 1.976841517857143  3.75 1.724330357142857  3.75 1.4285714285714284  C 3.75 1.1328125  3.6279296875 0.8803013392857145  3.3837890625 0.6710379464285715  Z " stroke-width="2" stroke="#764ba2" fill="none" transform="matrix(1 0 0 1 618 1787 )" mask="url(#clip85)" />
    <path d="M 1.1100260416666667 4.642857142857143  L 3.889973958333333 4.642857142857143  C 4.080946180555555 4.642857142857143  4.244249131944445 4.576357886904762  4.3798828125 4.443359375  C 4.515516493055555 4.310360863095238  4.583333333333333 4.1489955357142865  4.583333333333333 3.9592633928571432  C 4.583333333333333 3.5146949404761902  4.498155381944445 3.1640625  4.327799479166667 2.9073660714285716  C 4.157443576388889 2.6506696428571432  3.912760416666667 2.515811011904762  3.59375 2.5027901785714284  C 3.279079861111111 2.7390252976190474  2.9144965277777777 2.8571428571428568  2.5 2.8571428571428568  C 2.0855034722222223 2.8571428571428568  1.7209201388888893 2.7390252976190474  1.40625 2.5027901785714284  C 1.0872395833333333 2.515811011904762  0.8425564236111112 2.6506696428571432  0.6722005208333333 2.9073660714285716  C 0.5018446180555556 3.1640625  0.41666666666666663 3.5146949404761902  0.41666666666666663 3.9592633928571432  C 0.41666666666666663 4.1489955357142865  0.4844835069444445 4.310360863095238  0.6201171875 4.443359375  C 0.7557508680555557 4.576357886904762  0.9190538194444446 4.642857142857143  1.1100260416666667 4.642857142857143  Z " stroke-width="2" stroke="#764ba2" fill="none" transform="matrix(1 0 0 1 618 1787 )" mask="url(#clip85)" />
  </g>
</svg>