<?xml version="1.0" encoding="utf-8"?>
<svg version="1.1" xmlns:xlink="http://www.w3.org/1999/xlink" width="13px" height="15px" xmlns="http://www.w3.org/2000/svg">
  <defs>
    <mask fill="white" id="clip22">
      <path d="M 1.1781249999999999 0  L 11.821875 0  C 11.97760416666667 0  12.1265625 0.02974223397224085  12.268749999999999 0.08922670191672255  C 12.4921875 0.17514871116985908  12.669921875 0.31064111037673425  12.801953124999999 0.49570389953734306  C 12.933984375 0.6807666886979502  13 0.8856576338400518  13 1.1103767349636477  L 13 13.889623265036352  C 13 14.114342366159947  12.933984375 14.319233311302048  12.801953124999999 14.504296100462657  C 12.669921875 14.689358889623266  12.4921875 14.824851288830137  12.268749999999999 14.910773298083278  C 12.140104166666667 14.963648380700594  11.991145833333334 14.990085922009253  11.821875 14.990085922009253  C 11.496875000000001 14.990085922009253  11.21588541666667 14.88433575677462  10.97890625 14.672835426305355  L 6.5 10.469266358228685  L 2.02109375 14.672835426305355  C 1.77734375 14.890945142101785  1.4963541666666669 15  1.1781249999999999 15  C 1.0223958333333334 15  0.8734375 14.970257766027759  0.7312500000000001 14.910773298083278  C 0.5078125 14.824851288830137  0.330078125 14.689358889623266  0.19804687499999998 14.504296100462657  C 0.06601562500000001 14.319233311302048  0 14.114342366159947  0 13.889623265036352  L 0 1.1103767349636477  C 0 0.8856576338400518  0.06601562500000001 0.6807666886979502  0.19804687499999998 0.49570389953734306  C 0.330078125 0.31064111037673425  0.5078125 0.17514871116985908  0.7312500000000001 0.08922670191672255  C 0.8734375 0.02974223397224085  1.0223958333333334 0  1.1781249999999999 0  Z " fill-rule="evenodd" />
    </mask>
  </defs>
  <g transform="matrix(1 0 0 1 -1180 -2321 )">
    <path d="M 1.1781249999999999 0  L 11.821875 0  C 11.97760416666667 0  12.1265625 0.02974223397224085  12.268749999999999 0.08922670191672255  C 12.4921875 0.17514871116985908  12.669921875 0.31064111037673425  12.801953124999999 0.49570389953734306  C 12.933984375 0.6807666886979502  13 0.8856576338400518  13 1.1103767349636477  L 13 13.889623265036352  C 13 14.114342366159947  12.933984375 14.319233311302048  12.801953124999999 14.504296100462657  C 12.669921875 14.689358889623266  12.4921875 14.824851288830137  12.268749999999999 14.910773298083278  C 12.140104166666667 14.963648380700594  11.991145833333334 14.990085922009253  11.821875 14.990085922009253  C 11.496875000000001 14.990085922009253  11.21588541666667 14.88433575677462  10.97890625 14.672835426305355  L 6.5 10.469266358228685  L 2.02109375 14.672835426305355  C 1.77734375 14.890945142101785  1.4963541666666669 15  1.1781249999999999 15  C 1.0223958333333334 15  0.8734375 14.970257766027759  0.7312500000000001 14.910773298083278  C 0.5078125 14.824851288830137  0.330078125 14.689358889623266  0.19804687499999998 14.504296100462657  C 0.06601562500000001 14.319233311302048  0 14.114342366159947  0 13.889623265036352  L 0 1.1103767349636477  C 0 0.8856576338400518  0.06601562500000001 0.6807666886979502  0.19804687499999998 0.49570389953734306  C 0.330078125 0.31064111037673425  0.5078125 0.17514871116985908  0.7312500000000001 0.08922670191672255  C 0.8734375 0.02974223397224085  1.0223958333333334 0  1.1781249999999999 0  Z " fill-rule="nonzero" fill="#000000" stroke="none" fill-opacity="0" transform="matrix(1 0 0 1 1180 2321 )" />
    <path d="M 1.1781249999999999 0  L 11.821875 0  C 11.97760416666667 0  12.1265625 0.02974223397224085  12.268749999999999 0.08922670191672255  C 12.4921875 0.17514871116985908  12.669921875 0.31064111037673425  12.801953124999999 0.49570389953734306  C 12.933984375 0.6807666886979502  13 0.8856576338400518  13 1.1103767349636477  L 13 13.889623265036352  C 13 14.114342366159947  12.933984375 14.319233311302048  12.801953124999999 14.504296100462657  C 12.669921875 14.689358889623266  12.4921875 14.824851288830137  12.268749999999999 14.910773298083278  C 12.140104166666667 14.963648380700594  11.991145833333334 14.990085922009253  11.821875 14.990085922009253  C 11.496875000000001 14.990085922009253  11.21588541666667 14.88433575677462  10.97890625 14.672835426305355  L 6.5 10.469266358228685  L 2.02109375 14.672835426305355  C 1.77734375 14.890945142101785  1.4963541666666669 15  1.1781249999999999 15  C 1.0223958333333334 15  0.8734375 14.970257766027759  0.7312500000000001 14.910773298083278  C 0.5078125 14.824851288830137  0.330078125 14.689358889623266  0.19804687499999998 14.504296100462657  C 0.06601562500000001 14.319233311302048  0 14.114342366159947  0 13.889623265036352  L 0 1.1103767349636477  C 0 0.8856576338400518  0.06601562500000001 0.6807666886979502  0.19804687499999998 0.49570389953734306  C 0.330078125 0.31064111037673425  0.5078125 0.17514871116985908  0.7312500000000001 0.08922670191672255  C 0.8734375 0.02974223397224085  1.0223958333333334 0  1.1781249999999999 0  Z " stroke-width="2" stroke="#764ba2" fill="none" transform="matrix(1 0 0 1 1180 2321 )" mask="url(#clip22)" />
  </g>
</svg>