<?xml version="1.0" encoding="utf-8"?>
<svg version="1.1" xmlns:xlink="http://www.w3.org/1999/xlink" width="9px" height="11px" xmlns="http://www.w3.org/2000/svg">
  <defs>
    <mask fill="white" id="clip86">
      <path d="M 0.8156249999999999 0  L 8.184375000000001 0  C 8.2921875 0  8.395312500000001 0.02181097157964329  8.49375 0.06543291473892987  C 8.6484375 0.12844238819123  8.771484375 0.22780348094293845  8.862890625 0.3635161929940516  C 8.954296874999999 0.4992289050451635  9 0.649482264816038  9 0.8142762723066751  L 9 10.185723727693325  C 9 10.350517735183962  8.954296874999999 10.500771094954835  8.862890625 10.636483807005948  C 8.771484375 10.772196519057061  8.6484375 10.871557611808768  8.49375 10.93456708526107  C 8.404687500000001 10.973342145847102  8.301562500000001 10.992729676140119  8.184375000000001 10.992729676140119  C 7.9593750000000005 10.992729676140119  7.764843750000002 10.915179554968054  7.60078125 10.760079312623926  L 4.5 7.677461996034369  L 1.39921875 10.760079312623926  C 1.23046875 10.920026437541308  1.0359375000000002 11  0.8156249999999999 11  C 0.7078125 11  0.6046874999999999 10.978189028420356  0.50625 10.93456708526107  C 0.3515625 10.871557611808768  0.228515625 10.772196519057061  0.137109375 10.636483807005948  C 0.045703125000000004 10.500771094954835  0 10.350517735183962  0 10.185723727693325  L 0 0.8142762723066751  C 0 0.649482264816038  0.045703125000000004 0.4992289050451635  0.137109375 0.3635161929940516  C 0.228515625 0.22780348094293845  0.3515625 0.12844238819123  0.50625 0.06543291473892987  C 0.6046874999999999 0.02181097157964329  0.7078125 0  0.8156249999999999 0  Z " fill-rule="evenodd" />
    </mask>
  </defs>
  <g transform="matrix(1 0 0 1 -649 -1783 )">
    <path d="M 0.8156249999999999 0  L 8.184375000000001 0  C 8.2921875 0  8.395312500000001 0.02181097157964329  8.49375 0.06543291473892987  C 8.6484375 0.12844238819123  8.771484375 0.22780348094293845  8.862890625 0.3635161929940516  C 8.954296874999999 0.4992289050451635  9 0.649482264816038  9 0.8142762723066751  L 9 10.185723727693325  C 9 10.350517735183962  8.954296874999999 10.500771094954835  8.862890625 10.636483807005948  C 8.771484375 10.772196519057061  8.6484375 10.871557611808768  8.49375 10.93456708526107  C 8.404687500000001 10.973342145847102  8.301562500000001 10.992729676140119  8.184375000000001 10.992729676140119  C 7.9593750000000005 10.992729676140119  7.764843750000002 10.915179554968054  7.60078125 10.760079312623926  L 4.5 7.677461996034369  L 1.39921875 10.760079312623926  C 1.23046875 10.920026437541308  1.0359375000000002 11  0.8156249999999999 11  C 0.7078125 11  0.6046874999999999 10.978189028420356  0.50625 10.93456708526107  C 0.3515625 10.871557611808768  0.228515625 10.772196519057061  0.137109375 10.636483807005948  C 0.045703125000000004 10.500771094954835  0 10.350517735183962  0 10.185723727693325  L 0 0.8142762723066751  C 0 0.649482264816038  0.045703125000000004 0.4992289050451635  0.137109375 0.3635161929940516  C 0.228515625 0.22780348094293845  0.3515625 0.12844238819123  0.50625 0.06543291473892987  C 0.6046874999999999 0.02181097157964329  0.7078125 0  0.8156249999999999 0  Z " fill-rule="nonzero" fill="#000000" stroke="none" fill-opacity="0" transform="matrix(1 0 0 1 649 1783 )" />
    <path d="M 0.8156249999999999 0  L 8.184375000000001 0  C 8.2921875 0  8.395312500000001 0.02181097157964329  8.49375 0.06543291473892987  C 8.6484375 0.12844238819123  8.771484375 0.22780348094293845  8.862890625 0.3635161929940516  C 8.954296874999999 0.4992289050451635  9 0.649482264816038  9 0.8142762723066751  L 9 10.185723727693325  C 9 10.350517735183962  8.954296874999999 10.500771094954835  8.862890625 10.636483807005948  C 8.771484375 10.772196519057061  8.6484375 10.871557611808768  8.49375 10.93456708526107  C 8.404687500000001 10.973342145847102  8.301562500000001 10.992729676140119  8.184375000000001 10.992729676140119  C 7.9593750000000005 10.992729676140119  7.764843750000002 10.915179554968054  7.60078125 10.760079312623926  L 4.5 7.677461996034369  L 1.39921875 10.760079312623926  C 1.23046875 10.920026437541308  1.0359375000000002 11  0.8156249999999999 11  C 0.7078125 11  0.6046874999999999 10.978189028420356  0.50625 10.93456708526107  C 0.3515625 10.871557611808768  0.228515625 10.772196519057061  0.137109375 10.636483807005948  C 0.045703125000000004 10.500771094954835  0 10.350517735183962  0 10.185723727693325  L 0 0.8142762723066751  C 0 0.649482264816038  0.045703125000000004 0.4992289050451635  0.137109375 0.3635161929940516  C 0.228515625 0.22780348094293845  0.3515625 0.12844238819123  0.50625 0.06543291473892987  C 0.6046874999999999 0.02181097157964329  0.7078125 0  0.8156249999999999 0  Z " stroke-width="2" stroke="#764ba2" fill="none" transform="matrix(1 0 0 1 649 1783 )" mask="url(#clip86)" />
  </g>
</svg>