<?xml version="1.0" encoding="utf-8"?>
<svg version="1.1" xmlns:xlink="http://www.w3.org/1999/xlink" width="18px" height="15px" xmlns="http://www.w3.org/2000/svg">
  <defs>
    <mask fill="white" id="clip23">
      <path d="M 4.8779296875 4.177158273381296  C 5.024414062500001 4.030275779376497  5.09765625 3.8339328537170254  5.09765625 3.588129496402877  C 5.09765625 3.342326139088727  5.024414062500001 3.1444844124700233  4.8779296875 2.9946043165467624  C 4.7314453125 2.844724220623501  4.5380859375 2.76978417266187  4.2978515625 2.76978417266187  C 4.0458984375 2.76978417266187  3.8232421875 2.8462230215827344  3.6298828125 2.99910071942446  C 3.4365234375 3.1519784172661875  3.33984375 3.348321342925658  3.33984375 3.588129496402877  C 3.33984375 3.821942446043165  3.4365234375 4.015287769784173  3.6298828125 4.1681654676259  C 3.8232421875 4.321043165467626  4.0458984375 4.397482014388489  4.2978515625 4.397482014388489  C 4.5380859375 4.397482014388489  4.7314453125 4.324040767386091  4.8779296875 4.177158273381296  Z M 11.40380859375 8.606115107913668  C 11.55322265625 8.474220623501198  11.6279296875 8.321342925659472  11.6279296875 8.147482014388489  C 11.6279296875 7.979616306954434  11.55322265625 7.829736211031175  11.40380859375 7.697841726618703  C 11.25439453125 7.565947242206234  11.0625 7.5  10.828125 7.5  C 10.669921875 7.5  10.52490234375 7.567446043165469  10.39306640625 7.702338129496403  C 10.26123046875 7.837230215827338  10.1953125 7.985611510791367  10.1953125 8.147482014388489  C 10.1953125 8.315347721822542  10.26123046875 8.466726618705035  10.39306640625 8.601618705035971  C 10.52490234375 8.736510791366907  10.669921875 8.803956834532375  10.828125 8.803956834532375  C 11.0625 8.803956834532375  11.25439453125 8.738009592326138  11.40380859375 8.606115107913668  Z M 9.33837890625 4.177158273381296  C 9.481933593750002 4.030275779376497  9.5537109375 3.8339328537170254  9.5537109375 3.588129496402877  C 9.5537109375 3.342326139088727  9.481933593750002 3.1444844124700233  9.33837890625 2.9946043165467624  C 9.19482421875 2.844724220623501  9.002929687500002 2.76978417266187  8.7626953125 2.76978417266187  C 8.510742187500002 2.76978417266187  8.288085937500002 2.8462230215827344  8.0947265625 2.99910071942446  C 7.901367187500001 3.1519784172661875  7.804687500000001 3.348321342925658  7.8046875 3.588129496402877  C 7.804687500000001 3.821942446043165  7.901367187500001 4.015287769784173  8.0947265625 4.1681654676259  C 8.288085937500002 4.321043165467626  8.510742187500002 4.397482014388489  8.7626953125 4.397482014388489  C 9.002929687500002 4.397482014388489  9.19482421875 4.324040767386091  9.33837890625 4.177158273381296  Z M 14.90625 8.606115107913668  C 15.058593750000002 8.474220623501198  15.134765625000002 8.321342925659472  15.134765625 8.147482014388489  C 15.134765625000002 7.979616306954434  15.058593750000002 7.829736211031175  14.90625 7.697841726618703  C 14.75390625 7.565947242206234  14.5634765625 7.5  14.3349609375 7.5  C 14.1767578125 7.5  14.03173828125 7.567446043165469  13.89990234375 7.702338129496403  C 13.76806640625 7.837230215827338  13.7021484375 7.985611510791367  13.7021484375 8.147482014388489  C 13.7021484375 8.315347721822542  13.76806640625 8.466726618705035  13.89990234375 8.601618705035971  C 14.03173828125 8.736510791366907  14.1767578125 8.803956834532375  14.3349609375 8.803956834532375  C 14.5634765625 8.803956834532375  14.75390625 8.738009592326138  14.90625 8.606115107913668  Z M 11.59716796875 2.234712230215827  C 12.215332031250002 2.9331534772182244  12.615234375000002 3.7140287769784175  12.796875 4.577338129496403  C 12.615234375000002 4.5533573141486805  12.41015625 4.5413669064748206  12.181640625 4.5413669064748206  C 11.191406250000002 4.5413669064748206  10.2802734375 4.772182254196641  9.4482421875 5.2338129496402885  C 8.616210937500002 5.695443645083932  7.961425781250002 6.320443645083933  7.48388671875 7.1088129496402885  C 7.006347656250001 7.897182254196642  6.767578125 8.758992805755394  6.767578125 9.694244604316546  C 6.767578125 10.161870503597122  6.834960937500001 10.617505995203837  6.9697265625 11.061151079136692  C 6.764648437500001 11.079136690647482  6.5654296875 11.088129496402878  6.3720703125 11.088129496402878  C 6.219726562500001 11.088129496402878  6.0732421875 11.08363309352518  5.9326171875 11.074640287769784  C 5.7919921875 11.065647482014388  5.630859375000001 11.046163069544363  5.44921875 11.016187050359711  C 5.267578125 10.98621103117506  5.13720703125 10.965227817745802  5.05810546875 10.953237410071942  C 4.97900390625 10.941247002398079  4.8193359375 10.909772182254196  4.5791015625 10.858812949640289  C 4.338867187500001 10.807853717026378  4.192382812500001 10.776378896882493  4.1396484375 10.764388489208633  L 1.916015625 11.906474820143885  L 2.548828125 9.946043165467625  C 0.8496093749999999 8.729016786570742  0 7.2601918465227815  0 5.539568345323741  C 0 4.526378896882494  0.28564453125 3.5941247002398065  0.85693359375 2.742805755395683  C 1.4282226562500002 1.891486810551558  2.2016601562500004 1.2215227817745788  3.17724609375 0.7329136690647486  C 4.152832031250001 0.2443045563549151  5.217773437500001 0  6.3720703125 0  C 7.4033203125 0  8.37744140625 0.19784172661870547  9.29443359375 0.5935251798561147  C 10.211425781250002 0.9892086330935257  10.97900390625 1.5362709832134291  11.59716796875 2.234712230215827  Z M 17.24853515625 7.252697841726619  C 17.74951171875 7.981115107913669  18 8.770983213429256  18 9.622302158273381  C 18 10.323741007194243  17.79931640625 10.993705035971223  17.39794921875 11.632194244604316  C 16.99658203125 12.27068345323741  16.453125000000004 12.850719424460431  15.767578125 13.372302158273381  L 16.2509765625 15  L 14.501953125 14.01978417266187  C 13.623046875 14.241606714628297  12.984375000000002 14.352517985611511  12.5859375 14.352517985611511  C 11.595703125000002 14.352517985611511  10.6845703125 14.141187050359713  9.8525390625 13.718525179856115  C 9.020507812500002 13.29586330935252  8.36572265625 12.721822541966427  7.88818359375 11.996402877697841  C 7.410644531250001 11.270983213429256  7.171875000000001 10.479616306954435  7.171875 9.622302158273381  C 7.171875000000001 8.764988009592326  7.410644531250001 7.973621103117505  7.88818359375 7.248201438848921  C 8.36572265625 6.522781774580334  9.020507812500002 5.948741007194244  9.8525390625 5.526079136690648  C 10.6845703125 5.1034172661870505  11.595703125000002 4.892086330935252  12.5859375 4.892086330935252  C 13.529296875000002 4.892086330935252  14.416992187500002 5.1034172661870505  15.2490234375 5.526079136690648  C 16.0810546875 5.948741007194244  16.74755859375 6.524280575539568  17.24853515625 7.252697841726619  Z " fill-rule="evenodd" />
    </mask>
  </defs>
  <g transform="matrix(1 0 0 1 -1225 -2321 )">
    <path d="M 4.8779296875 4.177158273381296  C 5.024414062500001 4.030275779376497  5.09765625 3.8339328537170254  5.09765625 3.588129496402877  C 5.09765625 3.342326139088727  5.024414062500001 3.1444844124700233  4.8779296875 2.9946043165467624  C 4.7314453125 2.844724220623501  4.5380859375 2.76978417266187  4.2978515625 2.76978417266187  C 4.0458984375 2.76978417266187  3.8232421875 2.8462230215827344  3.6298828125 2.99910071942446  C 3.4365234375 3.1519784172661875  3.33984375 3.348321342925658  3.33984375 3.588129496402877  C 3.33984375 3.821942446043165  3.4365234375 4.015287769784173  3.6298828125 4.1681654676259  C 3.8232421875 4.321043165467626  4.0458984375 4.397482014388489  4.2978515625 4.397482014388489  C 4.5380859375 4.397482014388489  4.7314453125 4.324040767386091  4.8779296875 4.177158273381296  Z M 11.40380859375 8.606115107913668  C 11.55322265625 8.474220623501198  11.6279296875 8.321342925659472  11.6279296875 8.147482014388489  C 11.6279296875 7.979616306954434  11.55322265625 7.829736211031175  11.40380859375 7.697841726618703  C 11.25439453125 7.565947242206234  11.0625 7.5  10.828125 7.5  C 10.669921875 7.5  10.52490234375 7.567446043165469  10.39306640625 7.702338129496403  C 10.26123046875 7.837230215827338  10.1953125 7.985611510791367  10.1953125 8.147482014388489  C 10.1953125 8.315347721822542  10.26123046875 8.466726618705035  10.39306640625 8.601618705035971  C 10.52490234375 8.736510791366907  10.669921875 8.803956834532375  10.828125 8.803956834532375  C 11.0625 8.803956834532375  11.25439453125 8.738009592326138  11.40380859375 8.606115107913668  Z M 9.33837890625 4.177158273381296  C 9.481933593750002 4.030275779376497  9.5537109375 3.8339328537170254  9.5537109375 3.588129496402877  C 9.5537109375 3.342326139088727  9.481933593750002 3.1444844124700233  9.33837890625 2.9946043165467624  C 9.19482421875 2.844724220623501  9.002929687500002 2.76978417266187  8.7626953125 2.76978417266187  C 8.510742187500002 2.76978417266187  8.288085937500002 2.8462230215827344  8.0947265625 2.99910071942446  C 7.901367187500001 3.1519784172661875  7.804687500000001 3.348321342925658  7.8046875 3.588129496402877  C 7.804687500000001 3.821942446043165  7.901367187500001 4.015287769784173  8.0947265625 4.1681654676259  C 8.288085937500002 4.321043165467626  8.510742187500002 4.397482014388489  8.7626953125 4.397482014388489  C 9.002929687500002 4.397482014388489  9.19482421875 4.324040767386091  9.33837890625 4.177158273381296  Z M 14.90625 8.606115107913668  C 15.058593750000002 8.474220623501198  15.134765625000002 8.321342925659472  15.134765625 8.147482014388489  C 15.134765625000002 7.979616306954434  15.058593750000002 7.829736211031175  14.90625 7.697841726618703  C 14.75390625 7.565947242206234  14.5634765625 7.5  14.3349609375 7.5  C 14.1767578125 7.5  14.03173828125 7.567446043165469  13.89990234375 7.702338129496403  C 13.76806640625 7.837230215827338  13.7021484375 7.985611510791367  13.7021484375 8.147482014388489  C 13.7021484375 8.315347721822542  13.76806640625 8.466726618705035  13.89990234375 8.601618705035971  C 14.03173828125 8.736510791366907  14.1767578125 8.803956834532375  14.3349609375 8.803956834532375  C 14.5634765625 8.803956834532375  14.75390625 8.738009592326138  14.90625 8.606115107913668  Z M 11.59716796875 2.234712230215827  C 12.215332031250002 2.9331534772182244  12.615234375000002 3.7140287769784175  12.796875 4.577338129496403  C 12.615234375000002 4.5533573141486805  12.41015625 4.5413669064748206  12.181640625 4.5413669064748206  C 11.191406250000002 4.5413669064748206  10.2802734375 4.772182254196641  9.4482421875 5.2338129496402885  C 8.616210937500002 5.695443645083932  7.961425781250002 6.320443645083933  7.48388671875 7.1088129496402885  C 7.006347656250001 7.897182254196642  6.767578125 8.758992805755394  6.767578125 9.694244604316546  C 6.767578125 10.161870503597122  6.834960937500001 10.617505995203837  6.9697265625 11.061151079136692  C 6.764648437500001 11.079136690647482  6.5654296875 11.088129496402878  6.3720703125 11.088129496402878  C 6.219726562500001 11.088129496402878  6.0732421875 11.08363309352518  5.9326171875 11.074640287769784  C 5.7919921875 11.065647482014388  5.630859375000001 11.046163069544363  5.44921875 11.016187050359711  C 5.267578125 10.98621103117506  5.13720703125 10.965227817745802  5.05810546875 10.953237410071942  C 4.97900390625 10.941247002398079  4.8193359375 10.909772182254196  4.5791015625 10.858812949640289  C 4.338867187500001 10.807853717026378  4.192382812500001 10.776378896882493  4.1396484375 10.764388489208633  L 1.916015625 11.906474820143885  L 2.548828125 9.946043165467625  C 0.8496093749999999 8.729016786570742  0 7.2601918465227815  0 5.539568345323741  C 0 4.526378896882494  0.28564453125 3.5941247002398065  0.85693359375 2.742805755395683  C 1.4282226562500002 1.891486810551558  2.2016601562500004 1.2215227817745788  3.17724609375 0.7329136690647486  C 4.152832031250001 0.2443045563549151  5.217773437500001 0  6.3720703125 0  C 7.4033203125 0  8.37744140625 0.19784172661870547  9.29443359375 0.5935251798561147  C 10.211425781250002 0.9892086330935257  10.97900390625 1.5362709832134291  11.59716796875 2.234712230215827  Z M 17.24853515625 7.252697841726619  C 17.74951171875 7.981115107913669  18 8.770983213429256  18 9.622302158273381  C 18 10.323741007194243  17.79931640625 10.993705035971223  17.39794921875 11.632194244604316  C 16.99658203125 12.27068345323741  16.453125000000004 12.850719424460431  15.767578125 13.372302158273381  L 16.2509765625 15  L 14.501953125 14.01978417266187  C 13.623046875 14.241606714628297  12.984375000000002 14.352517985611511  12.5859375 14.352517985611511  C 11.595703125000002 14.352517985611511  10.6845703125 14.141187050359713  9.8525390625 13.718525179856115  C 9.020507812500002 13.29586330935252  8.36572265625 12.721822541966427  7.88818359375 11.996402877697841  C 7.410644531250001 11.270983213429256  7.171875000000001 10.479616306954435  7.171875 9.622302158273381  C 7.171875000000001 8.764988009592326  7.410644531250001 7.973621103117505  7.88818359375 7.248201438848921  C 8.36572265625 6.522781774580334  9.020507812500002 5.948741007194244  9.8525390625 5.526079136690648  C 10.6845703125 5.1034172661870505  11.595703125000002 4.892086330935252  12.5859375 4.892086330935252  C 13.529296875000002 4.892086330935252  14.416992187500002 5.1034172661870505  15.2490234375 5.526079136690648  C 16.0810546875 5.948741007194244  16.74755859375 6.524280575539568  17.24853515625 7.252697841726619  Z " fill-rule="nonzero" fill="#000000" stroke="none" fill-opacity="0" transform="matrix(1 0 0 1 1225 2321 )" />
    <path d="M 4.8779296875 4.177158273381296  C 5.024414062500001 4.030275779376497  5.09765625 3.8339328537170254  5.09765625 3.588129496402877  C 5.09765625 3.342326139088727  5.024414062500001 3.1444844124700233  4.8779296875 2.9946043165467624  C 4.7314453125 2.844724220623501  4.5380859375 2.76978417266187  4.2978515625 2.76978417266187  C 4.0458984375 2.76978417266187  3.8232421875 2.8462230215827344  3.6298828125 2.99910071942446  C 3.4365234375 3.1519784172661875  3.33984375 3.348321342925658  3.33984375 3.588129496402877  C 3.33984375 3.821942446043165  3.4365234375 4.015287769784173  3.6298828125 4.1681654676259  C 3.8232421875 4.321043165467626  4.0458984375 4.397482014388489  4.2978515625 4.397482014388489  C 4.5380859375 4.397482014388489  4.7314453125 4.324040767386091  4.8779296875 4.177158273381296  Z " stroke-width="2" stroke="#764ba2" fill="none" transform="matrix(1 0 0 1 1225 2321 )" mask="url(#clip23)" />
    <path d="M 11.40380859375 8.606115107913668  C 11.55322265625 8.474220623501198  11.6279296875 8.321342925659472  11.6279296875 8.147482014388489  C 11.6279296875 7.979616306954434  11.55322265625 7.829736211031175  11.40380859375 7.697841726618703  C 11.25439453125 7.565947242206234  11.0625 7.5  10.828125 7.5  C 10.669921875 7.5  10.52490234375 7.567446043165469  10.39306640625 7.702338129496403  C 10.26123046875 7.837230215827338  10.1953125 7.985611510791367  10.1953125 8.147482014388489  C 10.1953125 8.315347721822542  10.26123046875 8.466726618705035  10.39306640625 8.601618705035971  C 10.52490234375 8.736510791366907  10.669921875 8.803956834532375  10.828125 8.803956834532375  C 11.0625 8.803956834532375  11.25439453125 8.738009592326138  11.40380859375 8.606115107913668  Z " stroke-width="2" stroke="#764ba2" fill="none" transform="matrix(1 0 0 1 1225 2321 )" mask="url(#clip23)" />
    <path d="M 9.33837890625 4.177158273381296  C 9.481933593750002 4.030275779376497  9.5537109375 3.8339328537170254  9.5537109375 3.588129496402877  C 9.5537109375 3.342326139088727  9.481933593750002 3.1444844124700233  9.33837890625 2.9946043165467624  C 9.19482421875 2.844724220623501  9.002929687500002 2.76978417266187  8.7626953125 2.76978417266187  C 8.510742187500002 2.76978417266187  8.288085937500002 2.8462230215827344  8.0947265625 2.99910071942446  C 7.901367187500001 3.1519784172661875  7.804687500000001 3.348321342925658  7.8046875 3.588129496402877  C 7.804687500000001 3.821942446043165  7.901367187500001 4.015287769784173  8.0947265625 4.1681654676259  C 8.288085937500002 4.321043165467626  8.510742187500002 4.397482014388489  8.7626953125 4.397482014388489  C 9.002929687500002 4.397482014388489  9.19482421875 4.324040767386091  9.33837890625 4.177158273381296  Z " stroke-width="2" stroke="#764ba2" fill="none" transform="matrix(1 0 0 1 1225 2321 )" mask="url(#clip23)" />
    <path d="M 14.90625 8.606115107913668  C 15.058593750000002 8.474220623501198  15.134765625000002 8.321342925659472  15.134765625 8.147482014388489  C 15.134765625000002 7.979616306954434  15.058593750000002 7.829736211031175  14.90625 7.697841726618703  C 14.75390625 7.565947242206234  14.5634765625 7.5  14.3349609375 7.5  C 14.1767578125 7.5  14.03173828125 7.567446043165469  13.89990234375 7.702338129496403  C 13.76806640625 7.837230215827338  13.7021484375 7.985611510791367  13.7021484375 8.147482014388489  C 13.7021484375 8.315347721822542  13.76806640625 8.466726618705035  13.89990234375 8.601618705035971  C 14.03173828125 8.736510791366907  14.1767578125 8.803956834532375  14.3349609375 8.803956834532375  C 14.5634765625 8.803956834532375  14.75390625 8.738009592326138  14.90625 8.606115107913668  Z " stroke-width="2" stroke="#764ba2" fill="none" transform="matrix(1 0 0 1 1225 2321 )" mask="url(#clip23)" />
    <path d="M 11.59716796875 2.234712230215827  C 12.215332031250002 2.9331534772182244  12.615234375000002 3.7140287769784175  12.796875 4.577338129496403  C 12.615234375000002 4.5533573141486805  12.41015625 4.5413669064748206  12.181640625 4.5413669064748206  C 11.191406250000002 4.5413669064748206  10.2802734375 4.772182254196641  9.4482421875 5.2338129496402885  C 8.616210937500002 5.695443645083932  7.961425781250002 6.320443645083933  7.48388671875 7.1088129496402885  C 7.006347656250001 7.897182254196642  6.767578125 8.758992805755394  6.767578125 9.694244604316546  C 6.767578125 10.161870503597122  6.834960937500001 10.617505995203837  6.9697265625 11.061151079136692  C 6.764648437500001 11.079136690647482  6.5654296875 11.088129496402878  6.3720703125 11.088129496402878  C 6.219726562500001 11.088129496402878  6.0732421875 11.08363309352518  5.9326171875 11.074640287769784  C 5.7919921875 11.065647482014388  5.630859375000001 11.046163069544363  5.44921875 11.016187050359711  C 5.267578125 10.98621103117506  5.13720703125 10.965227817745802  5.05810546875 10.953237410071942  C 4.97900390625 10.941247002398079  4.8193359375 10.909772182254196  4.5791015625 10.858812949640289  C 4.338867187500001 10.807853717026378  4.192382812500001 10.776378896882493  4.1396484375 10.764388489208633  L 1.916015625 11.906474820143885  L 2.548828125 9.946043165467625  C 0.8496093749999999 8.729016786570742  0 7.2601918465227815  0 5.539568345323741  C 0 4.526378896882494  0.28564453125 3.5941247002398065  0.85693359375 2.742805755395683  C 1.4282226562500002 1.891486810551558  2.2016601562500004 1.2215227817745788  3.17724609375 0.7329136690647486  C 4.152832031250001 0.2443045563549151  5.217773437500001 0  6.3720703125 0  C 7.4033203125 0  8.37744140625 0.19784172661870547  9.29443359375 0.5935251798561147  C 10.211425781250002 0.9892086330935257  10.97900390625 1.5362709832134291  11.59716796875 2.234712230215827  Z " stroke-width="2" stroke="#764ba2" fill="none" transform="matrix(1 0 0 1 1225 2321 )" mask="url(#clip23)" />
    <path d="M 17.24853515625 7.252697841726619  C 17.74951171875 7.981115107913669  18 8.770983213429256  18 9.622302158273381  C 18 10.323741007194243  17.79931640625 10.993705035971223  17.39794921875 11.632194244604316  C 16.99658203125 12.27068345323741  16.453125000000004 12.850719424460431  15.767578125 13.372302158273381  L 16.2509765625 15  L 14.501953125 14.01978417266187  C 13.623046875 14.241606714628297  12.984375000000002 14.352517985611511  12.5859375 14.352517985611511  C 11.595703125000002 14.352517985611511  10.6845703125 14.141187050359713  9.8525390625 13.718525179856115  C 9.020507812500002 13.29586330935252  8.36572265625 12.721822541966427  7.88818359375 11.996402877697841  C 7.410644531250001 11.270983213429256  7.171875000000001 10.479616306954435  7.171875 9.622302158273381  C 7.171875000000001 8.764988009592326  7.410644531250001 7.973621103117505  7.88818359375 7.248201438848921  C 8.36572265625 6.522781774580334  9.020507812500002 5.948741007194244  9.8525390625 5.526079136690648  C 10.6845703125 5.1034172661870505  11.595703125000002 4.892086330935252  12.5859375 4.892086330935252  C 13.529296875000002 4.892086330935252  14.416992187500002 5.1034172661870505  15.2490234375 5.526079136690648  C 16.0810546875 5.948741007194244  16.74755859375 6.524280575539568  17.24853515625 7.252697841726619  Z " stroke-width="2" stroke="#764ba2" fill="none" transform="matrix(1 0 0 1 1225 2321 )" mask="url(#clip23)" />
  </g>
</svg>