<?xml version="1.0" encoding="utf-8"?>
<svg version="1.1" xmlns:xlink="http://www.w3.org/1999/xlink" width="13px" height="11px" xmlns="http://www.w3.org/2000/svg">
  <defs>
    <mask fill="white" id="clip87">
      <path d="M 3.52294921875 3.063249400479617  C 3.628743489583334 2.955535571542765  3.681640625 2.8115507593924853  3.681640625 2.6312949640287764  C 3.681640625 2.4510391686650665  3.628743489583334 2.3059552358113504  3.52294921875 2.196043165467626  C 3.417154947916667 2.0861310951239007  3.277506510416667 2.031175059952038  3.10400390625 2.031175059952038  C 2.922037760416667 2.031175059952038  2.76123046875 2.0872302158273386  2.62158203125 2.199340527577937  C 2.48193359375 2.3114508393285376  2.412109375 2.455435651478816  2.412109375 2.6312949640287764  C 2.412109375 2.8027577937649877  2.48193359375 2.9445443645083933  2.62158203125 3.0566546762589932  C 2.76123046875 3.1687649880095923  2.922037760416667 3.224820143884892  3.10400390625 3.224820143884892  C 3.277506510416667 3.224820143884892  3.417154947916667 3.1709632294164662  3.52294921875 3.063249400479617  Z M 8.236083984375 6.311151079136691  C 8.343994140625 6.214428457234211  8.39794921875 6.102318145483613  8.39794921875 5.974820143884892  C 8.39794921875 5.8517186250999185  8.343994140625 5.741806554756195  8.236083984375 5.645083932853716  C 8.128173828125 5.548361310951238  7.989583333333334 5.5  7.8203125 5.5  C 7.7060546875 5.5  7.601318359375 5.549460431654677  7.506103515625 5.648381294964029  C 7.410888671875 5.747302158273381  7.36328125 5.856115107913669  7.36328125 5.974820143884892  C 7.36328125 6.097921662669864  7.410888671875 6.208932853717026  7.506103515625 6.307853717026378  C 7.601318359375 6.406774580335732  7.7060546875 6.456235011990408  7.8203125 6.456235011990408  C 7.989583333333334 6.456235011990408  8.128173828125 6.407873701039168  8.236083984375 6.311151079136691  Z M 6.744384765625 3.063249400479617  C 6.848063151041668 2.955535571542765  6.89990234375 2.8115507593924853  6.89990234375 2.6312949640287764  C 6.89990234375 2.4510391686650665  6.848063151041668 2.3059552358113504  6.744384765625 2.196043165467626  C 6.640706380208334 2.0861310951239007  6.502115885416668 2.031175059952038  6.32861328125 2.031175059952038  C 6.146647135416668 2.031175059952038  5.985839843750001 2.0872302158273386  5.84619140625 2.199340527577937  C 5.706542968750001 2.3114508393285376  5.636718750000001 2.455435651478816  5.63671875 2.6312949640287764  C 5.636718750000001 2.8027577937649877  5.706542968750001 2.9445443645083933  5.84619140625 3.0566546762589932  C 5.985839843750001 3.1687649880095923  6.146647135416668 3.224820143884892  6.32861328125 3.224820143884892  C 6.502115885416668 3.224820143884892  6.640706380208334 3.1709632294164662  6.744384765625 3.063249400479617  Z M 10.765625 6.311151079136691  C 10.875651041666668 6.214428457234211  10.930664062500002 6.102318145483613  10.9306640625 5.974820143884892  C 10.930664062500002 5.8517186250999185  10.875651041666668 5.741806554756195  10.765625 5.645083932853716  C 10.655598958333334 5.548361310951238  10.51806640625 5.5  10.35302734375 5.5  C 10.23876953125 5.5  10.134033203125 5.549460431654677  10.038818359375 5.648381294964029  C 9.943603515625 5.747302158273381  9.89599609375 5.856115107913669  9.89599609375 5.974820143884892  C 9.89599609375 6.097921662669864  9.943603515625 6.208932853717026  10.038818359375 6.307853717026378  C 10.134033203125 6.406774580335732  10.23876953125 6.456235011990408  10.35302734375 6.456235011990408  C 10.51806640625 6.456235011990408  10.655598958333334 6.407873701039168  10.765625 6.311151079136691  Z M 8.375732421875 1.6387889688249397  C 8.822184244791668 2.150979216626698  9.111002604166668 2.723621103117506  9.2421875 3.356714628297362  C 9.111002604166668 3.3391286970423657  8.962890625 3.330335731414868  8.7978515625 3.330335731414868  C 8.082682291666668 3.330335731414868  7.424641927083334 3.499600319744204  6.82373046875 3.8381294964028783  C 6.222819010416668 4.17665867306155  5.749918619791668 4.634992006394884  5.405029296875 5.213129496402878  C 5.060139973958334 5.7912669864108715  4.8876953125 6.423261390887289  4.8876953125 7.109112709832134  C 4.8876953125 7.452038369304557  4.936360677083334 7.78617106314948  5.03369140625 8.111510791366907  C 4.885579427083334 8.124700239808154  4.74169921875 8.131294964028777  4.60205078125 8.131294964028777  C 4.492024739583334 8.131294964028777  4.38623046875 8.127997601918464  4.28466796875 8.121402877697841  C 4.18310546875 8.114808153477219  4.066731770833334 8.100519584332533  3.935546875 8.07853717026379  C 3.804361979166667 8.056554756195045  3.710205078125 8.041167066346922  3.653076171875 8.032374100719425  C 3.595947265625 8.023581135091925  3.480631510416667 8.000499600319744  3.30712890625 7.963129496402878  C 3.133626302083334 7.92575939248601  3.0278320312500004 7.902677857713829  2.98974609375 7.893884892086331  L 1.3837890625 8.731414868105515  L 1.8408203125 7.293764988009592  C 0.6136067708333333 6.401278976818545  0 5.32414068745004  0 4.062350119904077  C 0 3.3193445243804955  0.206298828125 2.6356914468425248  0.618896484375 2.0113908872901676  C 1.0314941406250002 1.3870903277378093  1.5900878906250002 0.8957833733013578  2.294677734375 0.5374700239808157  C 2.9992675781250004 0.17915667466027108  3.768391927083334 0  4.60205078125 0  C 5.346842447916667 0  6.050374348958334 0.14508393285371735  6.712646484375 0.4352517985611508  C 7.374918619791668 0.7254196642685855  7.929280598958334 1.1265987210231814  8.375732421875 1.6387889688249397  Z M 12.457275390625 5.318645083932854  C 12.819091796875 5.852817745803358  13 6.432054356514788  13 7.056354916067146  C 13 7.5707434052757785  12.855061848958334 8.06205035971223  12.565185546875 8.530275779376499  C 12.275309244791668 8.998501199040767  11.882812500000002 9.423860911270983  11.3876953125 9.806354916067146  L 11.73681640625 11  L 10.4736328125 10.281175059952037  C 9.8388671875 10.443844924060752  9.377604166666668 10.525179856115109  9.08984375 10.525179856115109  C 8.374674479166668 10.525179856115109  7.716634114583334 10.370203836930456  7.11572265625 10.06025179856115  C 6.514811197916668 9.750299760191847  6.041910807291667 9.329336530775379  5.697021484375 8.79736211031175  C 5.352132161458334 8.26538768984812  5.179687500000001 7.685051958433252  5.1796875 7.056354916067146  C 5.179687500000001 6.427657873701039  5.352132161458334 5.8473221422861705  5.697021484375 5.315347721822542  C 6.041910807291667 4.783373301358912  6.514811197916668 4.3624100719424455  7.11572265625 4.052458033573142  C 7.716634114583334 3.742505995203837  8.374674479166668 3.5875299760191846  9.08984375 3.5875299760191846  C 9.771158854166668 3.5875299760191846  10.412272135416668 3.742505995203837  11.01318359375 4.052458033573142  C 11.614095052083334 4.3624100719424455  12.095458984375 4.78447242206235  12.457275390625 5.318645083932854  Z " fill-rule="evenodd" />
    </mask>
  </defs>
  <g transform="matrix(1 0 0 1 -681 -1783 )">
    <path d="M 3.52294921875 3.063249400479617  C 3.628743489583334 2.955535571542765  3.681640625 2.8115507593924853  3.681640625 2.6312949640287764  C 3.681640625 2.4510391686650665  3.628743489583334 2.3059552358113504  3.52294921875 2.196043165467626  C 3.417154947916667 2.0861310951239007  3.277506510416667 2.031175059952038  3.10400390625 2.031175059952038  C 2.922037760416667 2.031175059952038  2.76123046875 2.0872302158273386  2.62158203125 2.199340527577937  C 2.48193359375 2.3114508393285376  2.412109375 2.455435651478816  2.412109375 2.6312949640287764  C 2.412109375 2.8027577937649877  2.48193359375 2.9445443645083933  2.62158203125 3.0566546762589932  C 2.76123046875 3.1687649880095923  2.922037760416667 3.224820143884892  3.10400390625 3.224820143884892  C 3.277506510416667 3.224820143884892  3.417154947916667 3.1709632294164662  3.52294921875 3.063249400479617  Z M 8.236083984375 6.311151079136691  C 8.343994140625 6.214428457234211  8.39794921875 6.102318145483613  8.39794921875 5.974820143884892  C 8.39794921875 5.8517186250999185  8.343994140625 5.741806554756195  8.236083984375 5.645083932853716  C 8.128173828125 5.548361310951238  7.989583333333334 5.5  7.8203125 5.5  C 7.7060546875 5.5  7.601318359375 5.549460431654677  7.506103515625 5.648381294964029  C 7.410888671875 5.747302158273381  7.36328125 5.856115107913669  7.36328125 5.974820143884892  C 7.36328125 6.097921662669864  7.410888671875 6.208932853717026  7.506103515625 6.307853717026378  C 7.601318359375 6.406774580335732  7.7060546875 6.456235011990408  7.8203125 6.456235011990408  C 7.989583333333334 6.456235011990408  8.128173828125 6.407873701039168  8.236083984375 6.311151079136691  Z M 6.744384765625 3.063249400479617  C 6.848063151041668 2.955535571542765  6.89990234375 2.8115507593924853  6.89990234375 2.6312949640287764  C 6.89990234375 2.4510391686650665  6.848063151041668 2.3059552358113504  6.744384765625 2.196043165467626  C 6.640706380208334 2.0861310951239007  6.502115885416668 2.031175059952038  6.32861328125 2.031175059952038  C 6.146647135416668 2.031175059952038  5.985839843750001 2.0872302158273386  5.84619140625 2.199340527577937  C 5.706542968750001 2.3114508393285376  5.636718750000001 2.455435651478816  5.63671875 2.6312949640287764  C 5.636718750000001 2.8027577937649877  5.706542968750001 2.9445443645083933  5.84619140625 3.0566546762589932  C 5.985839843750001 3.1687649880095923  6.146647135416668 3.224820143884892  6.32861328125 3.224820143884892  C 6.502115885416668 3.224820143884892  6.640706380208334 3.1709632294164662  6.744384765625 3.063249400479617  Z M 10.765625 6.311151079136691  C 10.875651041666668 6.214428457234211  10.930664062500002 6.102318145483613  10.9306640625 5.974820143884892  C 10.930664062500002 5.8517186250999185  10.875651041666668 5.741806554756195  10.765625 5.645083932853716  C 10.655598958333334 5.548361310951238  10.51806640625 5.5  10.35302734375 5.5  C 10.23876953125 5.5  10.134033203125 5.549460431654677  10.038818359375 5.648381294964029  C 9.943603515625 5.747302158273381  9.89599609375 5.856115107913669  9.89599609375 5.974820143884892  C 9.89599609375 6.097921662669864  9.943603515625 6.208932853717026  10.038818359375 6.307853717026378  C 10.134033203125 6.406774580335732  10.23876953125 6.456235011990408  10.35302734375 6.456235011990408  C 10.51806640625 6.456235011990408  10.655598958333334 6.407873701039168  10.765625 6.311151079136691  Z M 8.375732421875 1.6387889688249397  C 8.822184244791668 2.150979216626698  9.111002604166668 2.723621103117506  9.2421875 3.356714628297362  C 9.111002604166668 3.3391286970423657  8.962890625 3.330335731414868  8.7978515625 3.330335731414868  C 8.082682291666668 3.330335731414868  7.424641927083334 3.499600319744204  6.82373046875 3.8381294964028783  C 6.222819010416668 4.17665867306155  5.749918619791668 4.634992006394884  5.405029296875 5.213129496402878  C 5.060139973958334 5.7912669864108715  4.8876953125 6.423261390887289  4.8876953125 7.109112709832134  C 4.8876953125 7.452038369304557  4.936360677083334 7.78617106314948  5.03369140625 8.111510791366907  C 4.885579427083334 8.124700239808154  4.74169921875 8.131294964028777  4.60205078125 8.131294964028777  C 4.492024739583334 8.131294964028777  4.38623046875 8.127997601918464  4.28466796875 8.121402877697841  C 4.18310546875 8.114808153477219  4.066731770833334 8.100519584332533  3.935546875 8.07853717026379  C 3.804361979166667 8.056554756195045  3.710205078125 8.041167066346922  3.653076171875 8.032374100719425  C 3.595947265625 8.023581135091925  3.480631510416667 8.000499600319744  3.30712890625 7.963129496402878  C 3.133626302083334 7.92575939248601  3.0278320312500004 7.902677857713829  2.98974609375 7.893884892086331  L 1.3837890625 8.731414868105515  L 1.8408203125 7.293764988009592  C 0.6136067708333333 6.401278976818545  0 5.32414068745004  0 4.062350119904077  C 0 3.3193445243804955  0.206298828125 2.6356914468425248  0.618896484375 2.0113908872901676  C 1.0314941406250002 1.3870903277378093  1.5900878906250002 0.8957833733013578  2.294677734375 0.5374700239808157  C 2.9992675781250004 0.17915667466027108  3.768391927083334 0  4.60205078125 0  C 5.346842447916667 0  6.050374348958334 0.14508393285371735  6.712646484375 0.4352517985611508  C 7.374918619791668 0.7254196642685855  7.929280598958334 1.1265987210231814  8.375732421875 1.6387889688249397  Z M 12.457275390625 5.318645083932854  C 12.819091796875 5.852817745803358  13 6.432054356514788  13 7.056354916067146  C 13 7.5707434052757785  12.855061848958334 8.06205035971223  12.565185546875 8.530275779376499  C 12.275309244791668 8.998501199040767  11.882812500000002 9.423860911270983  11.3876953125 9.806354916067146  L 11.73681640625 11  L 10.4736328125 10.281175059952037  C 9.8388671875 10.443844924060752  9.377604166666668 10.525179856115109  9.08984375 10.525179856115109  C 8.374674479166668 10.525179856115109  7.716634114583334 10.370203836930456  7.11572265625 10.06025179856115  C 6.514811197916668 9.750299760191847  6.041910807291667 9.329336530775379  5.697021484375 8.79736211031175  C 5.352132161458334 8.26538768984812  5.179687500000001 7.685051958433252  5.1796875 7.056354916067146  C 5.179687500000001 6.427657873701039  5.352132161458334 5.8473221422861705  5.697021484375 5.315347721822542  C 6.041910807291667 4.783373301358912  6.514811197916668 4.3624100719424455  7.11572265625 4.052458033573142  C 7.716634114583334 3.742505995203837  8.374674479166668 3.5875299760191846  9.08984375 3.5875299760191846  C 9.771158854166668 3.5875299760191846  10.412272135416668 3.742505995203837  11.01318359375 4.052458033573142  C 11.614095052083334 4.3624100719424455  12.095458984375 4.78447242206235  12.457275390625 5.318645083932854  Z " fill-rule="nonzero" fill="#000000" stroke="none" fill-opacity="0" transform="matrix(1 0 0 1 681 1783 )" />
    <path d="M 3.52294921875 3.063249400479617  C 3.628743489583334 2.955535571542765  3.681640625 2.8115507593924853  3.681640625 2.6312949640287764  C 3.681640625 2.4510391686650665  3.628743489583334 2.3059552358113504  3.52294921875 2.196043165467626  C 3.417154947916667 2.0861310951239007  3.277506510416667 2.031175059952038  3.10400390625 2.031175059952038  C 2.922037760416667 2.031175059952038  2.76123046875 2.0872302158273386  2.62158203125 2.199340527577937  C 2.48193359375 2.3114508393285376  2.412109375 2.455435651478816  2.412109375 2.6312949640287764  C 2.412109375 2.8027577937649877  2.48193359375 2.9445443645083933  2.62158203125 3.0566546762589932  C 2.76123046875 3.1687649880095923  2.922037760416667 3.224820143884892  3.10400390625 3.224820143884892  C 3.277506510416667 3.224820143884892  3.417154947916667 3.1709632294164662  3.52294921875 3.063249400479617  Z " stroke-width="2" stroke="#764ba2" fill="none" transform="matrix(1 0 0 1 681 1783 )" mask="url(#clip87)" />
    <path d="M 8.236083984375 6.311151079136691  C 8.343994140625 6.214428457234211  8.39794921875 6.102318145483613  8.39794921875 5.974820143884892  C 8.39794921875 5.8517186250999185  8.343994140625 5.741806554756195  8.236083984375 5.645083932853716  C 8.128173828125 5.548361310951238  7.989583333333334 5.5  7.8203125 5.5  C 7.7060546875 5.5  7.601318359375 5.549460431654677  7.506103515625 5.648381294964029  C 7.410888671875 5.747302158273381  7.36328125 5.856115107913669  7.36328125 5.974820143884892  C 7.36328125 6.097921662669864  7.410888671875 6.208932853717026  7.506103515625 6.307853717026378  C 7.601318359375 6.406774580335732  7.7060546875 6.456235011990408  7.8203125 6.456235011990408  C 7.989583333333334 6.456235011990408  8.128173828125 6.407873701039168  8.236083984375 6.311151079136691  Z " stroke-width="2" stroke="#764ba2" fill="none" transform="matrix(1 0 0 1 681 1783 )" mask="url(#clip87)" />
    <path d="M 6.744384765625 3.063249400479617  C 6.848063151041668 2.955535571542765  6.89990234375 2.8115507593924853  6.89990234375 2.6312949640287764  C 6.89990234375 2.4510391686650665  6.848063151041668 2.3059552358113504  6.744384765625 2.196043165467626  C 6.640706380208334 2.0861310951239007  6.502115885416668 2.031175059952038  6.32861328125 2.031175059952038  C 6.146647135416668 2.031175059952038  5.985839843750001 2.0872302158273386  5.84619140625 2.199340527577937  C 5.706542968750001 2.3114508393285376  5.636718750000001 2.455435651478816  5.63671875 2.6312949640287764  C 5.636718750000001 2.8027577937649877  5.706542968750001 2.9445443645083933  5.84619140625 3.0566546762589932  C 5.985839843750001 3.1687649880095923  6.146647135416668 3.224820143884892  6.32861328125 3.224820143884892  C 6.502115885416668 3.224820143884892  6.640706380208334 3.1709632294164662  6.744384765625 3.063249400479617  Z " stroke-width="2" stroke="#764ba2" fill="none" transform="matrix(1 0 0 1 681 1783 )" mask="url(#clip87)" />
    <path d="M 10.765625 6.311151079136691  C 10.875651041666668 6.214428457234211  10.930664062500002 6.102318145483613  10.9306640625 5.974820143884892  C 10.930664062500002 5.8517186250999185  10.875651041666668 5.741806554756195  10.765625 5.645083932853716  C 10.655598958333334 5.548361310951238  10.51806640625 5.5  10.35302734375 5.5  C 10.23876953125 5.5  10.134033203125 5.549460431654677  10.038818359375 5.648381294964029  C 9.943603515625 5.747302158273381  9.89599609375 5.856115107913669  9.89599609375 5.974820143884892  C 9.89599609375 6.097921662669864  9.943603515625 6.208932853717026  10.038818359375 6.307853717026378  C 10.134033203125 6.406774580335732  10.23876953125 6.456235011990408  10.35302734375 6.456235011990408  C 10.51806640625 6.456235011990408  10.655598958333334 6.407873701039168  10.765625 6.311151079136691  Z " stroke-width="2" stroke="#764ba2" fill="none" transform="matrix(1 0 0 1 681 1783 )" mask="url(#clip87)" />
    <path d="M 8.375732421875 1.6387889688249397  C 8.822184244791668 2.150979216626698  9.111002604166668 2.723621103117506  9.2421875 3.356714628297362  C 9.111002604166668 3.3391286970423657  8.962890625 3.330335731414868  8.7978515625 3.330335731414868  C 8.082682291666668 3.330335731414868  7.424641927083334 3.499600319744204  6.82373046875 3.8381294964028783  C 6.222819010416668 4.17665867306155  5.749918619791668 4.634992006394884  5.405029296875 5.213129496402878  C 5.060139973958334 5.7912669864108715  4.8876953125 6.423261390887289  4.8876953125 7.109112709832134  C 4.8876953125 7.452038369304557  4.936360677083334 7.78617106314948  5.03369140625 8.111510791366907  C 4.885579427083334 8.124700239808154  4.74169921875 8.131294964028777  4.60205078125 8.131294964028777  C 4.492024739583334 8.131294964028777  4.38623046875 8.127997601918464  4.28466796875 8.121402877697841  C 4.18310546875 8.114808153477219  4.066731770833334 8.100519584332533  3.935546875 8.07853717026379  C 3.804361979166667 8.056554756195045  3.710205078125 8.041167066346922  3.653076171875 8.032374100719425  C 3.595947265625 8.023581135091925  3.480631510416667 8.000499600319744  3.30712890625 7.963129496402878  C 3.133626302083334 7.92575939248601  3.0278320312500004 7.902677857713829  2.98974609375 7.893884892086331  L 1.3837890625 8.731414868105515  L 1.8408203125 7.293764988009592  C 0.6136067708333333 6.401278976818545  0 5.32414068745004  0 4.062350119904077  C 0 3.3193445243804955  0.206298828125 2.6356914468425248  0.618896484375 2.0113908872901676  C 1.0314941406250002 1.3870903277378093  1.5900878906250002 0.8957833733013578  2.294677734375 0.5374700239808157  C 2.9992675781250004 0.17915667466027108  3.768391927083334 0  4.60205078125 0  C 5.346842447916667 0  6.050374348958334 0.14508393285371735  6.712646484375 0.4352517985611508  C 7.374918619791668 0.7254196642685855  7.929280598958334 1.1265987210231814  8.375732421875 1.6387889688249397  Z " stroke-width="2" stroke="#764ba2" fill="none" transform="matrix(1 0 0 1 681 1783 )" mask="url(#clip87)" />
    <path d="M 12.457275390625 5.318645083932854  C 12.819091796875 5.852817745803358  13 6.432054356514788  13 7.056354916067146  C 13 7.5707434052757785  12.855061848958334 8.06205035971223  12.565185546875 8.530275779376499  C 12.275309244791668 8.998501199040767  11.882812500000002 9.423860911270983  11.3876953125 9.806354916067146  L 11.73681640625 11  L 10.4736328125 10.281175059952037  C 9.8388671875 10.443844924060752  9.377604166666668 10.525179856115109  9.08984375 10.525179856115109  C 8.374674479166668 10.525179856115109  7.716634114583334 10.370203836930456  7.11572265625 10.06025179856115  C 6.514811197916668 9.750299760191847  6.041910807291667 9.329336530775379  5.697021484375 8.79736211031175  C 5.352132161458334 8.26538768984812  5.179687500000001 7.685051958433252  5.1796875 7.056354916067146  C 5.179687500000001 6.427657873701039  5.352132161458334 5.8473221422861705  5.697021484375 5.315347721822542  C 6.041910807291667 4.783373301358912  6.514811197916668 4.3624100719424455  7.11572265625 4.052458033573142  C 7.716634114583334 3.742505995203837  8.374674479166668 3.5875299760191846  9.08984375 3.5875299760191846  C 9.771158854166668 3.5875299760191846  10.412272135416668 3.742505995203837  11.01318359375 4.052458033573142  C 11.614095052083334 4.3624100719424455  12.095458984375 4.78447242206235  12.457275390625 5.318645083932854  Z " stroke-width="2" stroke="#764ba2" fill="none" transform="matrix(1 0 0 1 681 1783 )" mask="url(#clip87)" />
  </g>
</svg>