<?xml version="1.0" encoding="utf-8"?>
<svg version="1.1" xmlns:xlink="http://www.w3.org/1999/xlink" width="17px" height="17px" xmlns="http://www.w3.org/2000/svg">
  <defs>
    <mask fill="white" id="clip91">
      <path d="M 10.42578125 10.42578125  C 11.321414262820515 9.530148237179485  11.769230769230768 8.452323717948717  11.769230769230768 7.192307692307693  C 11.769230769230768 5.932291666666665  11.321414262820515 4.854467147435896  10.42578125 3.9588341346153846  C 9.530148237179487 3.0632011217948705  8.452323717948719 2.6153846153846154  7.1923076923076925 2.6153846153846154  C 5.932291666666667 2.6153846153846154  4.854467147435899 3.0632011217948705  3.9588341346153846 3.9588341346153846  C 3.063201121794872 4.854467147435896  2.6153846153846154 5.932291666666665  2.6153846153846154 7.192307692307693  C 2.6153846153846154 8.452323717948717  3.063201121794872 9.530148237179485  3.9588341346153846 10.42578125  C 4.854467147435899 11.321414262820511  5.932291666666667 11.769230769230768  7.1923076923076925 11.769230769230768  C 8.452323717948719 11.769230769230768  9.530148237179487 11.321414262820511  10.42578125 10.42578125  Z M 16.621995192307693 14.772836538461538  C 16.873998397435898 15.024839743589745  17 15.33133012820513  17 15.692307692307693  C 17 16.04647435897436  16.87059294871795 16.352964743589745  16.611778846153847 16.611778846153847  C 16.352964743589745 16.87059294871795  16.04647435897436 17  15.692307692307693 17  C 15.324519230769232 17  15.018028846153847 16.87059294871795  14.772836538461538 16.611778846153847  L 11.268629807692307 13.117788461538462  C 10.049479166666668 13.962339743589745  8.69070512820513 14.384615384615385  7.1923076923076925 14.384615384615385  C 6.2183493589743595 14.384615384615385  5.286959134615384 14.195612980769232  4.398137019230769 13.817608173076923  C 3.5093149038461537 13.439603365384615  2.743088942307692 12.928786057692307  2.0994591346153846 12.28515625  C 1.4558293269230769 11.641526442307693  0.9450120192307694 10.875300480769232  0.5670072115384616 9.986478365384615  C 0.18900240384615385 9.09765625  0 8.166266025641024  0 7.192307692307693  C 0 6.218349358974357  0.18900240384615385 5.286959134615384  0.5670072115384616 4.398137019230769  C 0.9450120192307694 3.5093149038461533  1.4558293269230769 2.7430889423076934  2.0994591346153846 2.0994591346153846  C 2.743088942307692 1.4558293269230775  3.5093149038461537 0.9450120192307689  4.398137019230769 0.5670072115384621  C 5.286959134615384 0.1890024038461534  6.2183493589743595 0  7.1923076923076925 0  C 8.166266025641026 0  9.09765625 0.1890024038461534  9.986478365384615 0.5670072115384621  C 10.875300480769232 0.9450120192307689  11.641526442307693 1.4558293269230775  12.28515625 2.0994591346153846  C 12.928786057692307 2.7430889423076934  13.439603365384615 3.5093149038461533  13.817608173076922 4.398137019230769  C 14.195612980769232 5.286959134615384  14.384615384615385 6.218349358974357  14.384615384615385 7.192307692307693  C 14.384615384615385 8.690705128205128  13.962339743589745 10.049479166666666  13.117788461538462 11.268629807692307  L 16.621995192307693 14.772836538461538  Z " fill-rule="evenodd" />
    </mask>
  </defs>
  <g transform="matrix(1 0 0 1 -552 -1997 )">
    <path d="M 10.42578125 10.42578125  C 11.321414262820515 9.530148237179485  11.769230769230768 8.452323717948717  11.769230769230768 7.192307692307693  C 11.769230769230768 5.932291666666665  11.321414262820515 4.854467147435896  10.42578125 3.9588341346153846  C 9.530148237179487 3.0632011217948705  8.452323717948719 2.6153846153846154  7.1923076923076925 2.6153846153846154  C 5.932291666666667 2.6153846153846154  4.854467147435899 3.0632011217948705  3.9588341346153846 3.9588341346153846  C 3.063201121794872 4.854467147435896  2.6153846153846154 5.932291666666665  2.6153846153846154 7.192307692307693  C 2.6153846153846154 8.452323717948717  3.063201121794872 9.530148237179485  3.9588341346153846 10.42578125  C 4.854467147435899 11.321414262820511  5.932291666666667 11.769230769230768  7.1923076923076925 11.769230769230768  C 8.452323717948719 11.769230769230768  9.530148237179487 11.321414262820511  10.42578125 10.42578125  Z M 16.621995192307693 14.772836538461538  C 16.873998397435898 15.024839743589745  17 15.33133012820513  17 15.692307692307693  C 17 16.04647435897436  16.87059294871795 16.352964743589745  16.611778846153847 16.611778846153847  C 16.352964743589745 16.87059294871795  16.04647435897436 17  15.692307692307693 17  C 15.324519230769232 17  15.018028846153847 16.87059294871795  14.772836538461538 16.611778846153847  L 11.268629807692307 13.117788461538462  C 10.049479166666668 13.962339743589745  8.69070512820513 14.384615384615385  7.1923076923076925 14.384615384615385  C 6.2183493589743595 14.384615384615385  5.286959134615384 14.195612980769232  4.398137019230769 13.817608173076923  C 3.5093149038461537 13.439603365384615  2.743088942307692 12.928786057692307  2.0994591346153846 12.28515625  C 1.4558293269230769 11.641526442307693  0.9450120192307694 10.875300480769232  0.5670072115384616 9.986478365384615  C 0.18900240384615385 9.09765625  0 8.166266025641024  0 7.192307692307693  C 0 6.218349358974357  0.18900240384615385 5.286959134615384  0.5670072115384616 4.398137019230769  C 0.9450120192307694 3.5093149038461533  1.4558293269230769 2.7430889423076934  2.0994591346153846 2.0994591346153846  C 2.743088942307692 1.4558293269230775  3.5093149038461537 0.9450120192307689  4.398137019230769 0.5670072115384621  C 5.286959134615384 0.1890024038461534  6.2183493589743595 0  7.1923076923076925 0  C 8.166266025641026 0  9.09765625 0.1890024038461534  9.986478365384615 0.5670072115384621  C 10.875300480769232 0.9450120192307689  11.641526442307693 1.4558293269230775  12.28515625 2.0994591346153846  C 12.928786057692307 2.7430889423076934  13.439603365384615 3.5093149038461533  13.817608173076922 4.398137019230769  C 14.195612980769232 5.286959134615384  14.384615384615385 6.218349358974357  14.384615384615385 7.192307692307693  C 14.384615384615385 8.690705128205128  13.962339743589745 10.049479166666666  13.117788461538462 11.268629807692307  L 16.621995192307693 14.772836538461538  Z " fill-rule="nonzero" fill="#000000" stroke="none" fill-opacity="0" transform="matrix(1 0 0 1 552 1997 )" />
    <path d="M 10.42578125 10.42578125  C 11.321414262820515 9.530148237179485  11.769230769230768 8.452323717948717  11.769230769230768 7.192307692307693  C 11.769230769230768 5.932291666666665  11.321414262820515 4.854467147435896  10.42578125 3.9588341346153846  C 9.530148237179487 3.0632011217948705  8.452323717948719 2.6153846153846154  7.1923076923076925 2.6153846153846154  C 5.932291666666667 2.6153846153846154  4.854467147435899 3.0632011217948705  3.9588341346153846 3.9588341346153846  C 3.063201121794872 4.854467147435896  2.6153846153846154 5.932291666666665  2.6153846153846154 7.192307692307693  C 2.6153846153846154 8.452323717948717  3.063201121794872 9.530148237179485  3.9588341346153846 10.42578125  C 4.854467147435899 11.321414262820511  5.932291666666667 11.769230769230768  7.1923076923076925 11.769230769230768  C 8.452323717948719 11.769230769230768  9.530148237179487 11.321414262820511  10.42578125 10.42578125  Z " stroke-width="2" stroke="#ffffff" fill="none" transform="matrix(1 0 0 1 552 1997 )" mask="url(#clip91)" />
    <path d="M 16.621995192307693 14.772836538461538  C 16.873998397435898 15.024839743589745  17 15.33133012820513  17 15.692307692307693  C 17 16.04647435897436  16.87059294871795 16.352964743589745  16.611778846153847 16.611778846153847  C 16.352964743589745 16.87059294871795  16.04647435897436 17  15.692307692307693 17  C 15.324519230769232 17  15.018028846153847 16.87059294871795  14.772836538461538 16.611778846153847  L 11.268629807692307 13.117788461538462  C 10.049479166666668 13.962339743589745  8.69070512820513 14.384615384615385  7.1923076923076925 14.384615384615385  C 6.2183493589743595 14.384615384615385  5.286959134615384 14.195612980769232  4.398137019230769 13.817608173076923  C 3.5093149038461537 13.439603365384615  2.743088942307692 12.928786057692307  2.0994591346153846 12.28515625  C 1.4558293269230769 11.641526442307693  0.9450120192307694 10.875300480769232  0.5670072115384616 9.986478365384615  C 0.18900240384615385 9.09765625  0 8.166266025641024  0 7.192307692307693  C 0 6.218349358974357  0.18900240384615385 5.286959134615384  0.5670072115384616 4.398137019230769  C 0.9450120192307694 3.5093149038461533  1.4558293269230769 2.7430889423076934  2.0994591346153846 2.0994591346153846  C 2.743088942307692 1.4558293269230775  3.5093149038461537 0.9450120192307689  4.398137019230769 0.5670072115384621  C 5.286959134615384 0.1890024038461534  6.2183493589743595 0  7.1923076923076925 0  C 8.166266025641026 0  9.09765625 0.1890024038461534  9.986478365384615 0.5670072115384621  C 10.875300480769232 0.9450120192307689  11.641526442307693 1.4558293269230775  12.28515625 2.0994591346153846  C 12.928786057692307 2.7430889423076934  13.439603365384615 3.5093149038461533  13.817608173076922 4.398137019230769  C 14.195612980769232 5.286959134615384  14.384615384615385 6.218349358974357  14.384615384615385 7.192307692307693  C 14.384615384615385 8.690705128205128  13.962339743589745 10.049479166666666  13.117788461538462 11.268629807692307  L 16.621995192307693 14.772836538461538  Z " stroke-width="2" stroke="#ffffff" fill="none" transform="matrix(1 0 0 1 552 1997 )" mask="url(#clip91)" />
  </g>
</svg>