<?xml version="1.0" encoding="utf-8"?>
<svg version="1.1" xmlns:xlink="http://www.w3.org/1999/xlink" width="16px" height="17px" xmlns="http://www.w3.org/2000/svg">
  <defs>
    <mask fill="white" id="clip92">
      <path d="M 8 16.24107142857143  C 8.102564102564104 16.24107142857143  8.153846153846155 16.19047619047619  8.153846153846153 16.089285714285715  C 8.153846153846155 15.988095238095237  8.102564102564104 15.9375  8 15.9375  C 7.621794871794872 15.9375  7.29647435897436 15.803106398809522  7.024038461538462 15.534319196428571  C 6.751602564102565 15.265531994047619  6.615384615384615 14.944568452380953  6.615384615384615 14.571428571428573  C 6.615384615384615 14.470238095238095  6.564102564102565 14.419642857142858  6.461538461538462 14.419642857142858  C 6.3589743589743595 14.419642857142858  6.3076923076923075 14.470238095238095  6.3076923076923075 14.571428571428573  C 6.3076923076923075 15.033110119047619  6.472756410256411 15.426804315476192  6.802884615384615 15.752511160714286  C 7.133012820512821 16.07821800595238  7.532051282051283 16.24107142857143  8 16.24107142857143  Z M 15.125 12.522321428571427  C 15.387820512820515 12.813244047619047  15.67948717948718 13.091517857142858  16 13.357142857142858  C 16.000000000000004 13.686011904761905  15.87820512820513 13.97061011904762  15.634615384615385 14.2109375  C 15.391025641025642 14.45126488095238  15.102564102564104 14.571428571428573  14.76923076923077 14.571428571428573  L 10.461538461538462 14.571428571428573  C 10.461538461538462 15.241815476190478  10.221153846153847 15.814174107142858  9.740384615384615 16.288504464285715  C 9.259615384615385 16.76283482142857  8.67948717948718 17  8 17  C 7.320512820512821 17  6.740384615384615 16.76283482142857  6.259615384615385 16.288504464285715  C 5.778846153846154 15.814174107142858  5.538461538461538 15.241815476190478  5.538461538461538 14.571428571428573  L 1.2307692307692308 14.571428571428573  C 0.8974358974358976 14.571428571428573  0.608974358974359 14.45126488095238  0.36538461538461536 14.2109375  C 0.12179487179487183 13.97061011904762  0 13.686011904761905  0 13.357142857142858  C 0.3205128205128206 13.091517857142858  0.6121794871794873 12.813244047619047  0.875 12.522321428571427  C 1.137820512820513 12.231398809523808  1.4102564102564104 11.853515625  1.6923076923076923 11.388671875  C 1.9743589743589747 10.923828125  2.213141025641026 10.422619047619046  2.4086538461538463 9.885044642857142  C 2.604166666666667 9.347470238095237  2.764423076923077 8.696056547619047  2.889423076923077 7.93080357142857  C 3.014423076923077 7.165550595238095  3.076923076923077 6.343377976190474  3.076923076923077 5.4642857142857135  C 3.076923076923077 4.50297619047619  3.451923076923077 3.6096540178571432  4.201923076923077 2.7843191964285707  C 4.951923076923077 1.958984375  5.935897435897436 1.4577752976190466  7.153846153846154 1.2806919642857137  C 7.102564102564103 1.1605282738095224  7.076923076923077 1.037202380952381  7.076923076923077 0.9107142857142863  C 7.076923076923077 0.6577380952380948  7.166666666666667 0.4427083333333327  7.346153846153846 0.265625  C 7.525641025641026 0.0885416666666673  7.743589743589744 0  8 0  C 8.256410256410257 0  8.474358974358976 0.0885416666666673  8.653846153846153 0.265625  C 8.833333333333334 0.4427083333333327  8.923076923076923 0.6577380952380948  8.923076923076923 0.9107142857142863  C 8.923076923076923 1.037202380952381  8.897435897435898 1.1605282738095224  8.846153846153847 1.2806919642857137  C 10.064102564102566 1.4577752976190466  11.048076923076923 1.958984375  11.798076923076923 2.7843191964285707  C 12.548076923076923 3.6096540178571432  12.923076923076923 4.50297619047619  12.923076923076923 5.4642857142857135  C 12.923076923076923 6.343377976190474  12.985576923076923 7.165550595238095  13.110576923076923 7.93080357142857  C 13.235576923076923 8.696056547619047  13.395833333333334 9.347470238095237  13.591346153846153 9.885044642857142  C 13.786858974358976 10.422619047619046  14.025641025641026 10.923828125  14.307692307692308 11.388671875  C 14.589743589743591 11.853515625  14.86217948717949 12.231398809523808  15.125 12.522321428571427  Z " fill-rule="evenodd" />
    </mask>
  </defs>
  <g transform="matrix(1 0 0 1 -638 -1997 )">
    <path d="M 8 16.24107142857143  C 8.102564102564104 16.24107142857143  8.153846153846155 16.19047619047619  8.153846153846153 16.089285714285715  C 8.153846153846155 15.988095238095237  8.102564102564104 15.9375  8 15.9375  C 7.621794871794872 15.9375  7.29647435897436 15.803106398809522  7.024038461538462 15.534319196428571  C 6.751602564102565 15.265531994047619  6.615384615384615 14.944568452380953  6.615384615384615 14.571428571428573  C 6.615384615384615 14.470238095238095  6.564102564102565 14.419642857142858  6.461538461538462 14.419642857142858  C 6.3589743589743595 14.419642857142858  6.3076923076923075 14.470238095238095  6.3076923076923075 14.571428571428573  C 6.3076923076923075 15.033110119047619  6.472756410256411 15.426804315476192  6.802884615384615 15.752511160714286  C 7.133012820512821 16.07821800595238  7.532051282051283 16.24107142857143  8 16.24107142857143  Z M 15.125 12.522321428571427  C 15.387820512820515 12.813244047619047  15.67948717948718 13.091517857142858  16 13.357142857142858  C 16.000000000000004 13.686011904761905  15.87820512820513 13.97061011904762  15.634615384615385 14.2109375  C 15.391025641025642 14.45126488095238  15.102564102564104 14.571428571428573  14.76923076923077 14.571428571428573  L 10.461538461538462 14.571428571428573  C 10.461538461538462 15.241815476190478  10.221153846153847 15.814174107142858  9.740384615384615 16.288504464285715  C 9.259615384615385 16.76283482142857  8.67948717948718 17  8 17  C 7.320512820512821 17  6.740384615384615 16.76283482142857  6.259615384615385 16.288504464285715  C 5.778846153846154 15.814174107142858  5.538461538461538 15.241815476190478  5.538461538461538 14.571428571428573  L 1.2307692307692308 14.571428571428573  C 0.8974358974358976 14.571428571428573  0.608974358974359 14.45126488095238  0.36538461538461536 14.2109375  C 0.12179487179487183 13.97061011904762  0 13.686011904761905  0 13.357142857142858  C 0.3205128205128206 13.091517857142858  0.6121794871794873 12.813244047619047  0.875 12.522321428571427  C 1.137820512820513 12.231398809523808  1.4102564102564104 11.853515625  1.6923076923076923 11.388671875  C 1.9743589743589747 10.923828125  2.213141025641026 10.422619047619046  2.4086538461538463 9.885044642857142  C 2.604166666666667 9.347470238095237  2.764423076923077 8.696056547619047  2.889423076923077 7.93080357142857  C 3.014423076923077 7.165550595238095  3.076923076923077 6.343377976190474  3.076923076923077 5.4642857142857135  C 3.076923076923077 4.50297619047619  3.451923076923077 3.6096540178571432  4.201923076923077 2.7843191964285707  C 4.951923076923077 1.958984375  5.935897435897436 1.4577752976190466  7.153846153846154 1.2806919642857137  C 7.102564102564103 1.1605282738095224  7.076923076923077 1.037202380952381  7.076923076923077 0.9107142857142863  C 7.076923076923077 0.6577380952380948  7.166666666666667 0.4427083333333327  7.346153846153846 0.265625  C 7.525641025641026 0.0885416666666673  7.743589743589744 0  8 0  C 8.256410256410257 0  8.474358974358976 0.0885416666666673  8.653846153846153 0.265625  C 8.833333333333334 0.4427083333333327  8.923076923076923 0.6577380952380948  8.923076923076923 0.9107142857142863  C 8.923076923076923 1.037202380952381  8.897435897435898 1.1605282738095224  8.846153846153847 1.2806919642857137  C 10.064102564102566 1.4577752976190466  11.048076923076923 1.958984375  11.798076923076923 2.7843191964285707  C 12.548076923076923 3.6096540178571432  12.923076923076923 4.50297619047619  12.923076923076923 5.4642857142857135  C 12.923076923076923 6.343377976190474  12.985576923076923 7.165550595238095  13.110576923076923 7.93080357142857  C 13.235576923076923 8.696056547619047  13.395833333333334 9.347470238095237  13.591346153846153 9.885044642857142  C 13.786858974358976 10.422619047619046  14.025641025641026 10.923828125  14.307692307692308 11.388671875  C 14.589743589743591 11.853515625  14.86217948717949 12.231398809523808  15.125 12.522321428571427  Z " fill-rule="nonzero" fill="#000000" stroke="none" fill-opacity="0" transform="matrix(1 0 0 1 638 1997 )" />
    <path d="M 8 16.24107142857143  C 8.102564102564104 16.24107142857143  8.153846153846155 16.19047619047619  8.153846153846153 16.089285714285715  C 8.153846153846155 15.988095238095237  8.102564102564104 15.9375  8 15.9375  C 7.621794871794872 15.9375  7.29647435897436 15.803106398809522  7.024038461538462 15.534319196428571  C 6.751602564102565 15.265531994047619  6.615384615384615 14.944568452380953  6.615384615384615 14.571428571428573  C 6.615384615384615 14.470238095238095  6.564102564102565 14.419642857142858  6.461538461538462 14.419642857142858  C 6.3589743589743595 14.419642857142858  6.3076923076923075 14.470238095238095  6.3076923076923075 14.571428571428573  C 6.3076923076923075 15.033110119047619  6.472756410256411 15.426804315476192  6.802884615384615 15.752511160714286  C 7.133012820512821 16.07821800595238  7.532051282051283 16.24107142857143  8 16.24107142857143  Z " stroke-width="2" stroke="#ffffff" fill="none" transform="matrix(1 0 0 1 638 1997 )" mask="url(#clip92)" />
    <path d="M 15.125 12.522321428571427  C 15.387820512820515 12.813244047619047  15.67948717948718 13.091517857142858  16 13.357142857142858  C 16.000000000000004 13.686011904761905  15.87820512820513 13.97061011904762  15.634615384615385 14.2109375  C 15.391025641025642 14.45126488095238  15.102564102564104 14.571428571428573  14.76923076923077 14.571428571428573  L 10.461538461538462 14.571428571428573  C 10.461538461538462 15.241815476190478  10.221153846153847 15.814174107142858  9.740384615384615 16.288504464285715  C 9.259615384615385 16.76283482142857  8.67948717948718 17  8 17  C 7.320512820512821 17  6.740384615384615 16.76283482142857  6.259615384615385 16.288504464285715  C 5.778846153846154 15.814174107142858  5.538461538461538 15.241815476190478  5.538461538461538 14.571428571428573  L 1.2307692307692308 14.571428571428573  C 0.8974358974358976 14.571428571428573  0.608974358974359 14.45126488095238  0.36538461538461536 14.2109375  C 0.12179487179487183 13.97061011904762  0 13.686011904761905  0 13.357142857142858  C 0.3205128205128206 13.091517857142858  0.6121794871794873 12.813244047619047  0.875 12.522321428571427  C 1.137820512820513 12.231398809523808  1.4102564102564104 11.853515625  1.6923076923076923 11.388671875  C 1.9743589743589747 10.923828125  2.213141025641026 10.422619047619046  2.4086538461538463 9.885044642857142  C 2.604166666666667 9.347470238095237  2.764423076923077 8.696056547619047  2.889423076923077 7.93080357142857  C 3.014423076923077 7.165550595238095  3.076923076923077 6.343377976190474  3.076923076923077 5.4642857142857135  C 3.076923076923077 4.50297619047619  3.451923076923077 3.6096540178571432  4.201923076923077 2.7843191964285707  C 4.951923076923077 1.958984375  5.935897435897436 1.4577752976190466  7.153846153846154 1.2806919642857137  C 7.102564102564103 1.1605282738095224  7.076923076923077 1.037202380952381  7.076923076923077 0.9107142857142863  C 7.076923076923077 0.6577380952380948  7.166666666666667 0.4427083333333327  7.346153846153846 0.265625  C 7.525641025641026 0.0885416666666673  7.743589743589744 0  8 0  C 8.256410256410257 0  8.474358974358976 0.0885416666666673  8.653846153846153 0.265625  C 8.833333333333334 0.4427083333333327  8.923076923076923 0.6577380952380948  8.923076923076923 0.9107142857142863  C 8.923076923076923 1.037202380952381  8.897435897435898 1.1605282738095224  8.846153846153847 1.2806919642857137  C 10.064102564102566 1.4577752976190466  11.048076923076923 1.958984375  11.798076923076923 2.7843191964285707  C 12.548076923076923 3.6096540178571432  12.923076923076923 4.50297619047619  12.923076923076923 5.4642857142857135  C 12.923076923076923 6.343377976190474  12.985576923076923 7.165550595238095  13.110576923076923 7.93080357142857  C 13.235576923076923 8.696056547619047  13.395833333333334 9.347470238095237  13.591346153846153 9.885044642857142  C 13.786858974358976 10.422619047619046  14.025641025641026 10.923828125  14.307692307692308 11.388671875  C 14.589743589743591 11.853515625  14.86217948717949 12.231398809523808  15.125 12.522321428571427  Z " stroke-width="2" stroke="#ffffff" fill="none" transform="matrix(1 0 0 1 638 1997 )" mask="url(#clip92)" />
  </g>
</svg>