<?xml version="1.0" encoding="utf-8"?>
<svg version="1.1" xmlns:xlink="http://www.w3.org/1999/xlink" width="17px" height="20px" xmlns="http://www.w3.org/2000/svg">
  <g transform="matrix(1 0 0 1 -989 -7058 )">
    <path d="M 16.887109375 14.459635416666664  C 16.962369791666667 15.115017361111109  17 15.811631944444445  17 16.549479166666668  C 17 17.49565972222222  16.723307291666668 18.307291666666668  16.169921875 18.984375  C 15.616536458333334 19.661458333333332  14.950260416666667 20  14.17109375 20  L 2.82890625 20  C 2.0497395833333334 20  1.3834635416666667 19.661458333333332  0.8300781250000001 18.984375  C 0.2766927083333334 18.307291666666668  0 17.49565972222222  0 16.549479166666668  C 0 15.811631944444445  0.03763020833333342 15.115017361111109  0.1128906250000001 14.459635416666664  C 0.18815104166666677 13.804253472222218  0.32760416666666675 13.14453125  0.5312500000000001 12.48046875  C 0.7348958333333335 11.81640625  0.9938802083333335 11.24782986111111  1.308203125 10.774739583333336  C 1.622526041666667 10.301649305555554  2.038671875 9.915364583333332  2.556640625 9.615885416666668  C 3.0746093749999996 9.31640625  3.6700520833333337 9.166666666666668  4.342968750000001 9.166666666666668  C 5.502864583333334 10.277777777777777  6.888541666666668 10.833333333333336  8.5 10.833333333333336  C 10.111458333333337 10.833333333333336  11.497135416666667 10.277777777777777  12.65703125 9.166666666666668  C 13.329947916666669 9.166666666666668  13.925390624999999 9.31640625  14.443359375 9.615885416666668  C 14.961328125000001 9.915364583333332  15.377473958333335 10.301649305555554  15.691796875000001 10.774739583333336  C 16.00611979166667 11.24782986111111  16.265104166666667 11.81640625  16.46875 12.48046875  C 16.672395833333336 13.14453125  16.811848958333336 13.804253472222218  16.887109375 14.459635416666664  Z M 12.105859375000001 1.46484375  C 13.101953125000001 2.44140625  13.600000000000001 3.6197916666666674  13.600000000000001 5  C 13.600000000000001 6.380208333333332  13.101953125000001 7.55859375  12.105859375000001 8.53515625  C 11.109765625000001 9.51171875  9.907812499999999 10  8.5 10  C 7.0921875 10  5.890234375 9.51171875  4.894140625 8.53515625  C 3.8980468750000004 7.55859375  3.4000000000000004 6.380208333333332  3.4000000000000004 5  C 3.4000000000000004 3.6197916666666674  3.8980468750000004 2.44140625  4.894140625 1.46484375  C 5.890234375 0.48828125  7.0921875 0  8.5 0  C 9.907812499999999 0  11.109765625000001 0.48828125  12.105859375000001 1.46484375  Z " fill-rule="nonzero" fill="#764ba2" stroke="none" transform="matrix(1 0 0 1 989 7058 )" />
  </g>
</svg>