<?xml version="1.0" encoding="utf-8"?>
<svg version="1.1" xmlns:xlink="http://www.w3.org/1999/xlink" width="13px" height="15px" xmlns="http://www.w3.org/2000/svg">
  <g transform="matrix(1 0 0 1 -509 -5965 )">
    <path d="M 12.913671875 10.844726562499998  C 12.971223958333333 11.336263020833332  13 11.858723958333334  13 12.412109375  C 13 13.121744791666668  12.788411458333334 13.73046875  12.365234375 14.23828125  C 11.942057291666668 14.74609375  11.432552083333334 15  10.836718750000001 15  L 2.1632812500000003 15  C 1.5674479166666666 15  1.0579427083333335 14.74609375  0.6347656250000001 14.23828125  C 0.21158854166666674 13.73046875  0 13.121744791666668  0 12.412109375  C 0 11.858723958333334  0.028776041666666734 11.336263020833332  0.08632812500000007 10.844726562499998  C 0.1438802083333334 10.353190104166664  0.2505208333333334 9.8583984375  0.4062500000000001 9.3603515625  C 0.5619791666666668 8.8623046875  0.7600260416666668 8.435872395833334  1.0003906249999999 8.081054687500002  C 1.2407552083333335 7.726236979166665  1.5589843749999999 7.436523437499999  1.955078125 7.211914062500001  C 2.351171875 6.9873046875  2.806510416666667 6.875000000000001  3.32109375 6.875000000000001  C 4.2080729166666675 7.708333333333332  5.267708333333334 8.125000000000002  6.5 8.125000000000002  C 7.732291666666669 8.125000000000002  8.791927083333334 7.708333333333332  9.678906249999999 6.875000000000001  C 10.193489583333335 6.875000000000001  10.648828125 6.9873046875  11.044921875 7.211914062500001  C 11.441015625 7.436523437499999  11.759244791666667 7.726236979166665  11.999609375 8.081054687500002  C 12.239973958333335 8.435872395833334  12.438020833333333 8.8623046875  12.59375 9.3603515625  C 12.749479166666667 9.8583984375  12.856119791666668 10.353190104166664  12.913671875 10.844726562499998  Z M 9.257421875 1.0986328125  C 10.019140625 1.8310546875  10.4 2.7148437500000004  10.4 3.75  C 10.4 4.785156249999999  10.019140625 5.6689453125  9.257421875 6.4013671875  C 8.495703125 7.1337890625  7.5765625 7.5  6.5 7.5  C 5.4234374999999995 7.5  4.5042968750000005 7.1337890625  3.742578125 6.4013671875  C 2.980859375 5.6689453125  2.6 4.785156249999999  2.6 3.75  C 2.6 2.7148437500000004  2.980859375 1.8310546875  3.742578125 1.0986328125  C 4.5042968750000005 0.3662109375  5.4234374999999995 0  6.5 0  C 7.5765625 0  8.495703125 0.3662109375  9.257421875 1.0986328125  Z " fill-rule="nonzero" fill="#764ba2" stroke="none" transform="matrix(1 0 0 1 509 5965 )" />
  </g>
</svg>