<?xml version="1.0" encoding="utf-8"?>
<svg version="1.1" xmlns:xlink="http://www.w3.org/1999/xlink" width="21px" height="15px" xmlns="http://www.w3.org/2000/svg">
  <g transform="matrix(1 0 0 1 -987 -7111 )">
    <path d="M 19.828125 5.763494318181818  C 20.273437500000004 5.486505681818182  20.6640625 5.177556818181818  21 4.836647727272727  L 21 13.295454545454545  C 21 13.764204545454545  20.816406250000004 14.165482954545455  20.44921875 14.499289772727273  C 20.082031250000004 14.83309659090909  19.640625000000004 15  19.125 15  L 1.875 15  C 1.3593750000000002 15  0.9179687500000001 14.83309659090909  0.5507812500000001 14.499289772727273  C 0.18359375000000008 14.165482954545455  0 13.764204545454545  0 13.295454545454545  L 0 4.836647727272727  C 0.3437500000000001 5.18465909090909  0.7382812500000001 5.493607954545452  1.18359375 5.763494318181818  C 4.011718750000001 7.510653409090909  5.953125 8.735795454545455  7.0078125 9.438920454545455  C 7.453125 9.73721590909091  7.814453125000001 9.96981534090909  8.091796875 10.13671875  C 8.369140625 10.303622159090907  8.73828125 10.474076704545453  9.19921875 10.648082386363637  C 9.660156250000002 10.822088068181818  10.08984375 10.90909090909091  10.48828125 10.90909090909091  L 10.5 10.90909090909091  L 10.51171875 10.90909090909091  C 10.910156250000002 10.90909090909091  11.33984375 10.822088068181818  11.80078125 10.648082386363637  C 12.261718750000004 10.474076704545453  12.630859375000004 10.303622159090907  12.908203125 10.13671875  C 13.185546875 9.96981534090909  13.546875 9.73721590909091  13.992187500000002 9.438920454545455  C 15.320312500000002 8.56534090909091  17.265625000000004 7.340198863636364  19.828125 5.763494318181818  Z M 20.443359375 0.5007102272727265  C 20.814453125 0.8345170454545442  21 1.2357954545454546  21 1.7045454545454546  C 21 2.265624999999998  20.80859375 2.801846590909091  20.42578125 3.3132102272727266  C 20.04296875 3.824573863636364  19.566406250000004 4.261363636363636  18.99609375 4.623579545454545  C 16.058593750000004 6.477272727272727  14.230468750000004 7.631392045454546  13.51171875 8.0859375  C 13.433593750000002 8.135653409090908  13.267578125 8.243963068181818  13.013671875 8.410866477272728  C 12.759765625000002 8.577769886363635  12.548828125000004 8.712713068181818  12.380859374999998 8.815696022727272  C 12.212890625 8.918678977272727  12.009765625000002 9.03409090909091  11.771484375 9.161931818181818  C 11.533203125 9.289772727272728  11.30859375 9.38565340909091  11.09765625 9.449573863636363  C 10.88671875 9.513494318181818  10.69140625 9.545454545454545  10.51171875 9.545454545454545  L 10.5 9.545454545454545  L 10.48828125 9.545454545454545  C 10.30859375 9.545454545454545  10.11328125 9.513494318181818  9.90234375 9.449573863636363  C 9.69140625 9.38565340909091  9.466796875 9.289772727272728  9.228515625 9.161931818181818  C 8.990234375 9.03409090909091  8.787109375 8.918678977272727  8.619140625 8.815696022727272  C 8.451171875 8.712713068181818  8.240234375 8.577769886363635  7.986328125 8.410866477272728  C 7.732421875000001 8.243963068181818  7.566406250000002 8.135653409090908  7.488281250000001 8.0859375  C 6.77734375 7.631392045454546  5.75390625 6.983309659090909  4.41796875 6.141690340909091  C 3.08203125 5.300071022727272  2.2812500000000004 4.794034090909089  2.015625 4.623579545454545  C 1.53125 4.325284090909089  1.0742187500000002 3.915127840909091  0.6445312500000001 3.3931107954545454  C 0.21484375000000008 2.87109375  0 2.386363636363636  0 1.9389204545454546  C 0 1.3849431818181812  0.16210937500000006 0.9232954545454525  0.4863281250000001 0.5539772727272735  C 0.8105468750000002 0.1846590909090895  1.2734375000000002 0  1.875 0  L 19.125 0  C 19.6328125 0  20.072265625 0.16690340909090717  20.443359375 0.5007102272727265  Z " fill-rule="nonzero" fill="#764ba2" stroke="none" transform="matrix(1 0 0 1 987 7111 )" />
  </g>
</svg>