<?xml version="1.0" encoding="utf-8"?>
<svg version="1.1" xmlns:xlink="http://www.w3.org/1999/xlink" width="13px" height="9px" xmlns="http://www.w3.org/2000/svg">
  <g transform="matrix(1 0 0 1 -509 -6008 )">
    <path d="M 12.274553571428571 3.4580965909090913  C 12.550223214285715 3.2919034090909087  12.792038690476192 3.1065340909090913  13 2.901988636363636  L 13 7.9772727272727275  C 13 8.258522727272727  12.886346726190478 8.499289772727273  12.659040178571429 8.699573863636363  C 12.431733630952383 8.899857954545453  12.158482142857146 9  11.839285714285714 9  L 1.1607142857142858 9  C 0.8415178571428572 9  0.5682663690476191 8.899857954545453  0.3409598214285715 8.699573863636363  C 0.11365327380952386 8.499289772727273  0 8.258522727272727  0 7.9772727272727275  L 0 2.901988636363636  C 0.2127976190476191 3.110795454545454  0.4570312500000001 3.2961647727272716  0.7327008928571429 3.4580965909090913  C 2.4834449404761907 4.506392045454546  3.685267857142857 5.2414772727272725  4.338169642857143 5.6633522727272725  C 4.613839285714286 5.842329545454546  4.837518601190477 5.981889204545453  5.009207589285714 6.08203125  C 5.1808965773809526 6.182173295454544  5.4094122023809526 6.2844460227272725  5.694754464285714 6.3888494318181825  C 5.980096726190477 6.493252840909091  6.24609375 6.545454545454546  6.492745535714286 6.545454545454546  L 6.5 6.545454545454546  L 6.507254464285714 6.545454545454546  C 6.753906250000002 6.545454545454546  7.019903273809524 6.493252840909091  7.305245535714286 6.3888494318181825  C 7.590587797619049 6.2844460227272725  7.819103422619049 6.182173295454544  7.990792410714286 6.08203125  C 8.162481398809524 5.981889204545453  8.386160714285714 5.842329545454546  8.661830357142858 5.6633522727272725  C 9.484002976190478 5.139204545454546  10.68824404761905 4.404119318181818  12.274553571428571 3.4580965909090913  Z M 12.655412946428571 0.3004261363636359  C 12.885137648809524 0.5007102272727265  13 0.7414772727272728  13 1.022727272727273  C 13 1.3593749999999987  12.881510416666668 1.6811079545454544  12.64453125 1.9879261363636358  C 12.407552083333334 2.2947443181818183  12.112537202380954 2.5568181818181817  11.759486607142858 2.774147727272727  C 9.941034226190478 3.886363636363636  8.80933779761905 4.5788352272727275  8.364397321428571 4.8515625  C 8.316034226190478 4.881392045454545  8.213262648809524 4.946377840909091  8.056082589285714 5.046519886363637  C 7.898902529761906 5.146661931818182  7.768322172619049 5.227627840909091  7.664341517857142 5.289417613636363  C 7.560360863095238 5.351207386363636  7.434616815476192 5.420454545454546  7.287109375 5.497159090909092  C 7.13960193452381 5.573863636363637  7.000558035714286 5.631392045454546  6.869977678571428 5.6697443181818175  C 6.739397321428572 5.708096590909092  6.618489583333334 5.7272727272727275  6.507254464285714 5.7272727272727275  L 6.5 5.7272727272727275  L 6.492745535714286 5.7272727272727275  C 6.381510416666667 5.7272727272727275  6.260602678571429 5.708096590909092  6.130022321428571 5.6697443181818175  C 5.999441964285714 5.631392045454546  5.860398065476191 5.573863636363637  5.712890625 5.497159090909092  C 5.56538318452381 5.420454545454546  5.439639136904762 5.351207386363636  5.335658482142857 5.289417613636363  C 5.2316778273809526 5.227627840909091  5.101097470238096 5.146661931818182  4.943917410714286 5.046519886363637  C 4.786737351190477 4.946377840909091  4.683965773809525 4.881392045454545  4.635602678571429 4.8515625  C 4.195498511904762 4.5788352272727275  3.561941964285714 4.189985795454546  2.7349330357142856 3.685014204545454  C 1.907924107142857 3.1800426136363633  1.4122023809523812 2.8764204545454533  1.2477678571428572 2.774147727272727  C 0.9479166666666667 2.5951704545454533  0.6649925595238096 2.349076704545454  0.3989955357142858 2.035866477272727  C 0.13299851190476195 1.72265625  0 1.4318181818181817  0 1.163352272727273  C 0 0.8309659090909087  0.10035342261904766 0.5539772727272715  0.3010602678571429 0.3323863636363641  C 0.5017671130952382 0.1107954545454537  0.7883184523809526 0  1.1607142857142858 0  L 11.839285714285714 0  C 12.153645833333334 0  12.42568824404762 0.1001420454545443  12.655412946428571 0.3004261363636359  Z " fill-rule="nonzero" fill="#764ba2" stroke="none" transform="matrix(1 0 0 1 509 6008 )" />
  </g>
</svg>