<?xml version="1.0" encoding="utf-8"?>
<svg version="1.1" xmlns:xlink="http://www.w3.org/1999/xlink" width="20px" height="15px" xmlns="http://www.w3.org/2000/svg">
  <g transform="matrix(1 0 0 1 -1178 -7161 )">
    <path d="M 1.4285714285714284 7.5  C 2.6711309523809526 9.419642857142858  4.2596726190476195 10.814732142857142  6.194196428571429 11.685267857142858  L 7.064732142857143 10.111607142857142  C 6.4174107142857135 9.642857142857142  5.911458333333334 9.051339285714286  5.546875 8.337053571428571  C 5.182291666666668 7.622767857142858  5 6.867559523809523  5 6.071428571428571  C 5 5.1711309523809526  5.226934523809525 4.33407738095238  5.680803571428571 3.5602678571428568  C 3.9769345238095246 4.430803571428571  2.5595238095238098 5.744047619047619  1.4285714285714284 7.5  Z M 10.379464285714286 3.5937500000000004  C 10.483630952380953 3.489583333333331  10.535714285714286 3.3630952380952377  10.535714285714286 3.2142857142857144  C 10.535714285714286 3.06547619047619  10.483630952380953 2.938988095238095  10.379464285714286 2.8348214285714284  C 10.27529761904762 2.7306547619047605  10.148809523809524 2.678571428571429  10 2.678571428571429  C 9.069940476190476 2.678571428571429  8.271949404761905 3.0115327380952377  7.6060267857142865 3.6774553571428568  C 6.940104166666668 4.343377976190476  6.607142857142857 5.1413690476190474  6.607142857142857 6.071428571428571  C 6.607142857142857 6.220238095238095  6.659226190476192 6.34672619047619  6.763392857142857 6.450892857142858  C 6.867559523809525 6.555059523809522  6.9940476190476195 6.607142857142857  7.142857142857143 6.607142857142857  C 7.291666666666668 6.607142857142857  7.418154761904763 6.555059523809522  7.522321428571429 6.450892857142858  C 7.626488095238095 6.34672619047619  7.678571428571429 6.220238095238095  7.678571428571429 6.071428571428571  C 7.678571428571429 5.431547619047618  7.9055059523809526 4.8846726190476195  8.359375 4.430803571428571  C 8.81324404761905 3.976934523809522  9.36011904761905 3.7499999999999982  10 3.75  C 10.148809523809524 3.7499999999999982  10.27529761904762 3.697916666666665  10.379464285714286 3.5937500000000004  Z M 14.408482142857142 0.7812500000000006  C 14.527529761904763 0.8556547619047605  14.587053571428573 0.9561011904761896  14.587053571428573 1.082589285714286  C 14.587053571428573 1.1346726190476175  14.583333333333336 1.1681547619047594  14.575892857142858 1.183035714285715  C 13.787202380952383 2.5892857142857153  12.611607142857142 4.698660714285715  11.049107142857142 7.511160714285715  C 9.486607142857144 10.323660714285715  8.314732142857144 12.429315476190478  7.533482142857143 13.828125  L 6.986607142857143 14.821428571428573  C 6.912202380952381 14.94047619047619  6.8080357142857135 15  6.674107142857143 15  C 6.584821428571429 15  6.086309523809525 14.739583333333334  5.178571428571429 14.21875  C 5.05952380952381 14.144345238095237  5 14.040178571428571  5 13.90625  C 5 13.816964285714285  5.163690476190476 13.493303571428571  5.491071428571429 12.935267857142858  C 4.427083333333334 12.451636904761905  3.446800595238096 11.808035714285714  2.5502232142857144 11.004464285714285  C 1.6536458333333335 10.200892857142858  0.8779761904761907 9.289434523809524  0.22321428571428573 8.270089285714285  C 0.0744047619047619 8.039434523809522  0 7.782738095238094  0 7.5  C 0 7.217261904761904  0.0744047619047619 6.960565476190475  0.22321428571428573 6.729910714285714  C 1.361607142857143 4.981398809523809  2.775297619047619 3.601190476190475  4.464285714285714 2.5892857142857153  C 6.15327380952381 1.5773809523809517  7.998511904761906 1.071428571428571  10 1.071428571428571  C 10.662202380952381 1.071428571428571  11.331845238095239 1.1346726190476175  12.008928571428573 1.261160714285714  L 12.611607142857142 0.17857142857142794  C 12.686011904761905 0.05952380952380931  12.790178571428573 0  12.924107142857142 0  C 12.961309523809526 0  13.028273809523812 0.022321428571428492  13.125 0.06696428571428548  C 13.22172619047619 0.11160714285714246  13.337053571428573 0.16927083333333148  13.470982142857142 0.23995535714285754  C 13.604910714285714 0.31063988095238027  13.727678571428573 0.37946428571428603  13.839285714285714 0.4464285714285715  C 13.950892857142858 0.513392857142857  14.068080357142858 0.5822172619047594  14.190848214285714 0.6529017857142855  C 14.313616071428573 0.7235863095238082  14.386160714285714 0.7663690476190466  14.408482142857142 0.7812500000000006  Z M 14.910714285714286 5.133928571428571  C 14.970238095238098 5.468750000000001  15 5.781249999999999  15 6.071428571428571  C 15 7.105654761904762  14.70610119047619 8.048735119047617  14.118303571428573 8.900669642857142  C 13.530505952380953 9.752604166666666  12.75297619047619 10.364583333333332  11.785714285714286 10.736607142857142  L 14.910714285714286 5.133928571428571  Z M 19.776785714285715 6.729910714285714  C 19.92559523809524 6.982886904761904  20 7.239583333333332  20 7.5  C 20 7.760416666666666  19.92559523809524 8.017113095238095  19.776785714285715 8.270089285714285  C 19.486607142857142 8.74627976190476  19.08110119047619 9.285714285714286  18.560267857142858 9.888392857142858  C 17.444196428571427 11.168154761904765  16.15141369047619 12.161458333333334  14.681919642857142 12.868303571428571  C 13.212425595238098 13.575148809523808  11.651785714285714 13.928571428571429  10 13.928571428571429  L 10.825892857142858 12.455357142857142  C 12.403273809523812 12.321428571428571  13.863467261904763 11.81175595238095  15.206473214285714 10.926339285714286  C 16.549479166666668 10.040922619047617  17.671130952380953 8.898809523809522  18.571428571428573 7.5  C 17.71577380952381 6.168154761904762  16.666666666666668 5.074404761904762  15.424107142857142 4.21875  L 16.127232142857142 2.9687499999999996  C 16.834077380952383 3.444940476190474  17.513020833333336 4.014136904761903  18.1640625 4.676339285714285  C 18.815104166666668 5.338541666666665  19.352678571428573 6.023065476190475  19.776785714285715 6.729910714285714  Z " fill-rule="nonzero" fill="#764ba2" stroke="none" transform="matrix(1 0 0 1 1178 7161 )" />
  </g>
</svg>