<?xml version="1.0" encoding="utf-8"?>
<svg version="1.1" xmlns:xlink="http://www.w3.org/1999/xlink" width="13px" height="10px" xmlns="http://www.w3.org/2000/svg">
  <g transform="matrix(1 0 0 1 -646 -6047 )">
    <path d="M 0.9285714285714285 5  C 1.736235119047619 6.279761904761905  2.7687872023809526 7.209821428571428  4.026227678571429 7.790178571428572  L 4.592075892857143 6.741071428571428  C 4.171316964285714 6.428571428571428  3.842447916666667 6.034226190476191  3.60546875 5.5580357142857135  C 3.368489583333334 5.081845238095238  3.25 4.578373015873015  3.25 4.0476190476190474  C 3.25 3.447420634920635  3.3975074404761907 2.88938492063492  3.692522321428571 2.3735119047619047  C 2.5850074404761907 2.9538690476190474  1.6636904761904765 3.829365079365079  0.9285714285714285 5  Z M 6.746651785714286 2.395833333333334  C 6.8143601190476195 2.3263888888888875  6.848214285714286 2.242063492063492  6.848214285714286 2.1428571428571432  C 6.848214285714286 2.043650793650793  6.8143601190476195 1.9593253968253965  6.746651785714286 1.8898809523809523  C 6.678943452380953 1.820436507936507  6.59672619047619 1.785714285714286  6.5 1.785714285714286  C 5.89546130952381 1.785714285714286  5.376767113095239 2.007688492063492  4.943917410714286 2.4516369047619047  C 4.511067708333334 2.895585317460317  4.294642857142857 3.427579365079365  4.294642857142857 4.0476190476190474  C 4.294642857142857 4.146825396825396  4.328497023809525 4.231150793650793  4.396205357142857 4.300595238095238  C 4.463913690476191 4.370039682539682  4.5461309523809526 4.404761904761905  4.642857142857143 4.404761904761905  C 4.739583333333334 4.404761904761905  4.821800595238096 4.370039682539682  4.889508928571429 4.300595238095238  C 4.957217261904762 4.231150793650793  4.991071428571429 4.146825396825396  4.991071428571429 4.0476190476190474  C 4.991071428571429 3.621031746031745  5.138578869047619 3.256448412698413  5.43359375 2.9538690476190474  C 5.728608630952381 2.6512896825396814  6.084077380952381 2.499999999999999  6.5 2.5  C 6.59672619047619 2.499999999999999  6.678943452380953 2.465277777777777  6.746651785714286 2.395833333333334  Z M 9.365513392857142 0.5208333333333337  C 9.442894345238095 0.570436507936507  9.481584821428571 0.637400793650793  9.481584821428571 0.7217261904761907  C 9.481584821428571 0.7564484126984117  9.479166666666668 0.7787698412698396  9.474330357142858 0.7886904761904767  C 8.96168154761905 1.7261904761904767  8.197544642857142 3.1324404761904767  7.181919642857142 5.007440476190476  C 6.166294642857144 6.882440476190476  5.404575892857144 8.286210317460318  4.896763392857143 9.21875  L 4.541294642857143 9.880952380952381  C 4.4929315476190474 9.96031746031746  4.425223214285714 10  4.338169642857143 10  C 4.280133928571429 10  3.9561011904761907 9.82638888888889  3.366071428571429 9.479166666666666  C 3.2886904761904767 9.429563492063492  3.25 9.360119047619047  3.25 9.270833333333334  C 3.25 9.211309523809524  3.3563988095238098 8.995535714285714  3.569196428571429 8.623511904761905  C 2.877604166666667 8.301091269841269  2.2404203869047623 7.872023809523809  1.6576450892857144 7.336309523809524  C 1.0748697916666667 6.800595238095238  0.570684523809524 6.192956349206349  0.14508928571428573 5.513392857142857  C 0.04836309523809523 5.359623015873015  0 5.188492063492063  0 5  C 0 4.811507936507936  0.04836309523809523 4.640376984126984  0.14508928571428573 4.486607142857143  C 0.885044642857143 3.3209325396825395  1.8039434523809526 2.4007936507936503  2.9017857142857144 1.7261904761904767  C 3.9996279761904767 1.0515873015873012  5.199032738095239 0.714285714285714  6.5 0.714285714285714  C 6.9304315476190474 0.714285714285714  7.365699404761906 0.7564484126984117  7.805803571428572 0.8407738095238093  L 8.197544642857142 0.11904761904761862  C 8.245907738095237 0.03968253968253954  8.313616071428571 0  8.400669642857142 0  C 8.424851190476192 0  8.468377976190478 0.014880952380952328  8.53125 0.044642857142856984  C 8.594122023809524 0.07440476190476164  8.669084821428571 0.11284722222222099  8.756138392857142 0.15997023809523836  C 8.843191964285714 0.2070932539682535  8.922991071428571 0.2529761904761907  8.995535714285714 0.29761904761904767  C 9.068080357142858 0.34226190476190466  9.144252232142858 0.3881448412698396  9.224051339285714 0.435267857142857  C 9.303850446428571 0.48239087301587213  9.351004464285714 0.5109126984126977  9.365513392857142 0.5208333333333337  Z M 9.691964285714286 3.4226190476190474  C 9.730654761904763 3.645833333333334  9.75 3.854166666666666  9.75 4.0476190476190474  C 9.75 4.737103174603174  9.558965773809524 5.365823412698411  9.176897321428571 5.933779761904762  C 8.79482886904762 6.501736111111111  8.289434523809524 6.909722222222221  7.660714285714286 7.157738095238095  L 9.691964285714286 3.4226190476190474  Z M 12.854910714285714 4.486607142857143  C 12.951636904761905 4.655257936507936  13 4.826388888888888  13 5  C 13 5.173611111111111  12.951636904761905 5.344742063492063  12.854910714285714 5.513392857142857  C 12.666294642857142 5.830853174603173  12.402715773809524 6.190476190476191  12.064174107142858 6.592261904761905  C 11.338727678571429 7.44543650793651  10.498418898809524 8.10763888888889  9.543247767857142 8.578869047619047  C 8.588076636904763 9.050099206349206  7.573660714285714 9.285714285714286  6.5 9.285714285714286  L 7.036830357142858 8.303571428571427  C 8.062127976190478 8.214285714285714  9.011253720238095 7.8745039682539675  9.884207589285714 7.284226190476191  C 10.757161458333334 6.693948412698411  11.48623511904762 5.932539682539682  12.071428571428571 5  C 11.515252976190478 4.112103174603174  10.833333333333334 3.382936507936508  10.025669642857142 2.8125  L 10.482700892857142 1.9791666666666663  C 10.94215029761905 2.2966269841269824  11.383463541666668 2.676091269841269  11.806640625 3.1175595238095233  C 12.229817708333334 3.559027777777777  12.579241071428571 4.015376984126984  12.854910714285714 4.486607142857143  Z " fill-rule="nonzero" fill="#764ba2" stroke="none" transform="matrix(1 0 0 1 646 6047 )" />
  </g>
</svg>