<?xml version="1.0" encoding="utf-8"?>
<svg version="1.1" xmlns:xlink="http://www.w3.org/1999/xlink" width="17px" height="20px" xmlns="http://www.w3.org/2000/svg">
  <g transform="matrix(1 0 0 1 -565 -6887 )">
    <path d="M 4.722222222222222 6.363636363636365  L 4.722222222222222 9.090909090909092  L 12.277777777777777 9.090909090909092  L 12.277777777777777 6.363636363636365  C 12.277777777777777 5.359848484848484  11.908854166666668 4.502840909090908  11.171006944444445 3.7926136363636354  C 10.433159722222223 3.0823863636363646  9.542824074074076 2.727272727272727  8.5 2.727272727272727  C 7.4571759259259265 2.727272727272727  6.566840277777778 3.0823863636363646  5.828993055555555 3.7926136363636354  C 5.091145833333334 4.502840909090908  4.722222222222222 5.359848484848484  4.722222222222222 6.363636363636365  Z M 16.586805555555554 9.488636363636365  C 16.86226851851852 9.753787878787879  17 10.075757575757574  17 10.454545454545453  L 17 18.636363636363637  C 17 19.015151515151516  16.86226851851852 19.33712121212121  16.586805555555554 19.602272727272727  C 16.311342592592595 19.867424242424242  15.976851851851853 20  15.583333333333332 20  L 1.4166666666666665 20  C 1.0231481481481484 20  0.6886574074074076 19.867424242424242  0.4131944444444445 19.602272727272727  C 0.13773148148148148 19.33712121212121  0 19.015151515151516  0 18.636363636363637  L 0 10.454545454545453  C 0 10.075757575757574  0.13773148148148148 9.753787878787879  0.4131944444444445 9.488636363636365  C 0.6886574074074076 9.223484848484848  1.0231481481481484 9.090909090909092  1.4166666666666665 9.090909090909092  L 1.8888888888888888 9.090909090909092  L 1.8888888888888888 6.363636363636365  C 1.8888888888888888 4.621212121212119  2.538194444444444 3.125  3.836805555555556 1.875  C 5.135416666666666 0.625  6.689814814814815 0  8.5 0  C 10.310185185185185 0  11.864583333333332 0.625  13.163194444444445 1.875  C 14.461805555555555 3.125  15.11111111111111 4.621212121212119  15.11111111111111 6.363636363636365  L 15.11111111111111 9.090909090909092  L 15.583333333333332 9.090909090909092  C 15.976851851851853 9.090909090909092  16.311342592592595 9.223484848484848  16.586805555555554 9.488636363636365  Z " fill-rule="nonzero" fill="#764ba2" stroke="none" transform="matrix(1 0 0 1 565 6887 )" />
  </g>
</svg>