<?xml version="1.0" encoding="utf-8"?>
<svg version="1.1" xmlns:xlink="http://www.w3.org/1999/xlink" width="12px" height="20px" xmlns="http://www.w3.org/2000/svg">
  <g transform="matrix(1 0 0 1 -126 -8202 )">
    <path d="M 11.79381443298969 1.2024048096192375  C 11.931271477663232 1.3360053440213737  12 1.4896459585838318  12 1.6633266533066138  C 12 1.8370073480293914  11.931271477663232 1.9906479625918494  11.79381443298969 2.124248496993988  L 3.6907216494845363 10  L 11.79381443298969 17.87575150300601  C 11.931271477663232 18.00935203740815  12 18.162992651970605  12 18.336673346693388  C 12 18.510354041416164  11.931271477663232 18.663994655978623  11.79381443298969 18.79759519038076  L 10.762886597938145 19.799599198396795  C 10.625429553264606 19.933199732798933  10.467353951890036 20  10.288659793814432 20  C 10.109965635738833 20  9.951890034364263 19.933199732798933  9.814432989690722 19.799599198396795  L 0.2061855670103093 10.460921843687373  C 0.0687285223367698 10.327321309285235  0 10.173680694722778  0 10  C 0 9.82631930527722  0.0687285223367698 9.672678690714761  0.2061855670103093 9.539078156312627  L 9.814432989690722 0.2004008016032066  C 9.951890034364263 0.06680026720106813  10.109965635738833 0  10.288659793814432 0  C 10.467353951890036 0  10.625429553264606 0.06680026720106813  10.762886597938145 0.2004008016032066  L 11.79381443298969 1.2024048096192375  Z " fill-rule="nonzero" fill="#764ba2" stroke="none" transform="matrix(1 0 0 1 126 8202 )" />
  </g>
</svg>