<?xml version="1.0" encoding="utf-8"?>
<svg version="1.1" xmlns:xlink="http://www.w3.org/1999/xlink" width="9px" height="14px" xmlns="http://www.w3.org/2000/svg">
  <g transform="matrix(1 0 0 1 -80 -7148 )">
    <path d="M 8.845360824742267 0.8416833667334662  C 8.948453608247425 0.9352037408149616  9 1.0427521710086822  9 1.1643286573146296  C 9 1.285905143620574  8.948453608247425 1.3934535738142946  8.845360824742267 1.4869739478957915  L 2.768041237113402 7  L 8.845360824742267 12.513026052104209  C 8.948453608247425 12.606546426185705  9 12.714094856379425  9 12.83567134268537  C 9 12.957247828991317  8.948453608247425 13.064796259185036  8.845360824742267 13.158316633266534  L 8.072164948453608 13.859719438877756  C 7.969072164948455 13.953239812959252  7.850515463917527 14  7.716494845360824 14  C 7.582474226804125 14  7.463917525773198 13.953239812959252  7.360824742268041 13.859719438877756  L 0.15463917525773196 7.322645290581162  C 0.05154639175257736 7.229124916499665  0 7.121576486305944  0 7  C 0 6.878423513694054  0.05154639175257736 6.770875083500334  0.15463917525773196 6.677354709418838  L 7.360824742268041 0.14028056112224463  C 7.463917525773198 0.04676018704074769  7.582474226804125 0  7.716494845360824 0  C 7.850515463917527 0  7.969072164948455 0.04676018704074769  8.072164948453608 0.14028056112224463  L 8.845360824742267 0.8416833667334662  Z " fill-rule="nonzero" fill="#764ba2" stroke="none" transform="matrix(1 0 0 1 80 7148 )" />
  </g>
</svg>