<?xml version="1.0" encoding="utf-8"?>
<svg version="1.1" xmlns:xlink="http://www.w3.org/1999/xlink" width="20px" height="18px" xmlns="http://www.w3.org/2000/svg">
  <g transform="matrix(1 0 0 1 -360 -8203 )">
    <path d="M 0 14.727272727272727  L 4.583333333333333 14.727272727272727  L 4.583333333333333 16.363636363636363  L 0 16.363636363636363  L 0 14.727272727272727  Z M 5.833333333333334 13.090909090909092  L 9.166666666666666 13.090909090909092  C 9.39236111111111 13.090909090909092  9.58767361111111 13.171874999999998  9.752604166666666 13.333806818181817  C 9.917534722222221 13.495738636363637  10 13.687500000000002  10 13.909090909090908  L 10 17.181818181818183  C 10 17.40340909090909  9.917534722222221 17.595170454545453  9.752604166666666 17.757102272727273  C 9.58767361111111 17.919034090909093  9.39236111111111 18  9.166666666666666 18  L 5.833333333333334 18  C 5.607638888888889 18  5.412326388888889 17.919034090909093  5.247395833333334 17.757102272727273  C 5.082465277777778 17.595170454545453  5 17.40340909090909  5 17.181818181818183  L 5 13.909090909090908  C 5 13.687500000000002  5.082465277777778 13.495738636363637  5.247395833333334 13.333806818181817  C 5.412326388888889 13.171874999999998  5.607638888888889 13.090909090909092  5.833333333333334 13.090909090909092  Z M 0 8.181818181818183  L 11.25 8.181818181818183  L 11.25 9.818181818181817  L 0 9.818181818181817  L 0 8.181818181818183  Z M 0 1.636363636363637  L 2.916666666666667 1.636363636363637  L 2.916666666666667 3.2727272727272716  L 0 3.2727272727272716  L 0 1.636363636363637  Z M 10.416666666666668 14.727272727272727  L 20 14.727272727272727  L 20 16.363636363636363  L 10.416666666666668 16.363636363636363  L 10.416666666666668 14.727272727272727  Z M 4.166666666666667 0  L 7.5 0  C 7.7256944444444455 0  7.9210069444444455 0.0809659090909074  8.0859375 0.24289772727272818  C 8.250868055555557 0.40482954545454297  8.333333333333334 0.5965909090909081  8.333333333333334 0.8181818181818175  L 8.333333333333334 4.090909090909092  C 8.333333333333334 4.312499999999998  8.250868055555557 4.5042613636363615  8.0859375 4.6661931818181825  C 7.9210069444444455 4.828124999999997  7.7256944444444455 4.909090909090908  7.5 4.909090909090908  L 4.166666666666667 4.909090909090908  C 3.9409722222222228 4.909090909090908  3.7456597222222228 4.828124999999997  3.580729166666667 4.6661931818181825  C 3.4157986111111116 4.5042613636363615  3.333333333333333 4.312499999999998  3.333333333333333 4.090909090909092  L 3.333333333333333 0.8181818181818175  C 3.333333333333333 0.5965909090909081  3.4157986111111116 0.40482954545454297  3.580729166666667 0.24289772727272818  C 3.7456597222222228 0.0809659090909074  3.9409722222222228 0  4.166666666666667 0  Z M 12.5 6.545454545454546  L 15.833333333333332 6.545454545454546  C 16.05902777777778 6.545454545454546  16.25434027777778 6.626420454545455  16.419270833333332 6.788352272727272  C 16.58420138888889 6.950284090909091  16.666666666666668 7.142045454545453  16.666666666666668 7.363636363636363  L 16.666666666666668 10.636363636363635  C 16.666666666666668 10.857954545454545  16.58420138888889 11.049715909090907  16.419270833333332 11.211647727272727  C 16.25434027777778 11.373579545454545  16.05902777777778 11.454545454545455  15.833333333333332 11.454545454545455  L 12.5 11.454545454545455  C 12.274305555555555 11.454545454545455  12.078993055555555 11.373579545454545  11.9140625 11.211647727272727  C 11.749131944444445 11.049715909090907  11.666666666666668 10.857954545454545  11.666666666666668 10.636363636363635  L 11.666666666666668 7.363636363636363  C 11.666666666666668 7.142045454545453  11.749131944444445 6.950284090909091  11.9140625 6.788352272727272  C 12.078993055555555 6.626420454545455  12.274305555555555 6.545454545454546  12.5 6.545454545454546  Z M 17.083333333333332 8.181818181818183  L 20 8.181818181818183  L 20 9.818181818181817  L 17.083333333333332 9.818181818181817  L 17.083333333333332 8.181818181818183  Z M 8.75 1.636363636363637  L 20 1.636363636363637  L 20 3.2727272727272716  L 8.75 3.2727272727272716  L 8.75 1.636363636363637  Z " fill-rule="nonzero" fill="#764ba2" stroke="none" transform="matrix(1 0 0 1 360 8203 )" />
  </g>
</svg>