<?xml version="1.0" encoding="utf-8"?>
<svg version="1.1" xmlns:xlink="http://www.w3.org/1999/xlink" width="14px" height="13px" xmlns="http://www.w3.org/2000/svg">
  <g transform="matrix(1 0 0 1 -272 -7149 )">
    <path d="M 0 10.636363636363635  L 3.208333333333333 10.636363636363635  L 3.208333333333333 11.818181818181818  L 0 11.818181818181818  L 0 10.636363636363635  Z M 4.083333333333334 9.454545454545455  L 6.416666666666666 9.454545454545455  C 6.574652777777779 9.454545454545455  6.711371527777779 9.513020833333332  6.826822916666666 9.62997159090909  C 6.942274305555555 9.746922348484848  7 9.885416666666668  7 10.045454545454545  L 7 12.40909090909091  C 7 12.569128787878787  6.942274305555555 12.707623106060606  6.826822916666666 12.824573863636363  C 6.711371527777779 12.941524621212123  6.574652777777779 13  6.416666666666666 13  L 4.083333333333334 13  C 3.9253472222222228 13  3.7886284722222228 12.941524621212123  3.6731770833333335 12.824573863636363  C 3.5577256944444446 12.707623106060606  3.5 12.569128787878787  3.5 12.40909090909091  L 3.5 10.045454545454545  C 3.5 9.885416666666668  3.5577256944444446 9.746922348484848  3.6731770833333335 9.62997159090909  C 3.7886284722222228 9.513020833333332  3.9253472222222228 9.454545454545455  4.083333333333334 9.454545454545455  Z M 0 5.90909090909091  L 7.875 5.90909090909091  L 7.875 7.09090909090909  L 0 7.09090909090909  L 0 5.90909090909091  Z M 0 1.181818181818182  L 2.041666666666667 1.181818181818182  L 2.041666666666667 2.363636363636363  L 0 2.363636363636363  L 0 1.181818181818182  Z M 7.291666666666667 10.636363636363635  L 14 10.636363636363635  L 14 11.818181818181818  L 7.291666666666667 11.818181818181818  L 7.291666666666667 10.636363636363635  Z M 2.916666666666667 0  L 5.25 0  C 5.407986111111112 0  5.544704861111112 0.05847537878787756  5.66015625 0.17542613636363702  C 5.77560763888889 0.29237689393939215  5.833333333333334 0.4308712121212114  5.833333333333334 0.5909090909090904  L 5.833333333333334 2.954545454545455  C 5.833333333333334 3.114583333333332  5.77560763888889 3.25307765151515  5.66015625 3.3700284090909096  C 5.544704861111112 3.4869791666666647  5.407986111111112 3.545454545454545  5.25 3.545454545454545  L 2.916666666666667 3.545454545454545  C 2.758680555555556 3.545454545454545  2.621961805555556 3.4869791666666647  2.506510416666667 3.3700284090909096  C 2.391059027777778 3.25307765151515  2.333333333333333 3.114583333333332  2.333333333333333 2.954545454545455  L 2.333333333333333 0.5909090909090904  C 2.333333333333333 0.4308712121212114  2.391059027777778 0.29237689393939215  2.506510416666667 0.17542613636363702  C 2.621961805555556 0.05847537878787756  2.758680555555556 0  2.916666666666667 0  Z M 8.75 4.7272727272727275  L 11.083333333333332 4.7272727272727275  C 11.241319444444445 4.7272727272727275  11.378038194444445 4.785748106060606  11.493489583333332 4.902698863636363  C 11.608940972222223 5.019649621212121  11.666666666666668 5.158143939393939  11.666666666666668 5.3181818181818175  L 11.666666666666668 7.681818181818181  C 11.666666666666668 7.84185606060606  11.608940972222223 7.980350378787877  11.493489583333332 8.097301136363635  C 11.378038194444445 8.214251893939394  11.241319444444445 8.272727272727273  11.083333333333332 8.272727272727273  L 8.75 8.272727272727273  C 8.59201388888889 8.272727272727273  8.45529513888889 8.214251893939394  8.33984375 8.097301136363635  C 8.22439236111111 7.980350378787877  8.166666666666668 7.84185606060606  8.166666666666668 7.681818181818181  L 8.166666666666668 5.3181818181818175  C 8.166666666666668 5.158143939393939  8.22439236111111 5.019649621212121  8.33984375 4.902698863636363  C 8.45529513888889 4.785748106060606  8.59201388888889 4.7272727272727275  8.75 4.7272727272727275  Z M 11.958333333333332 5.90909090909091  L 14 5.90909090909091  L 14 7.09090909090909  L 11.958333333333332 7.09090909090909  L 11.958333333333332 5.90909090909091  Z M 6.125 1.181818181818182  L 14 1.181818181818182  L 14 2.363636363636363  L 6.125 2.363636363636363  L 6.125 1.181818181818182  Z " fill-rule="nonzero" fill="#764ba2" stroke="none" transform="matrix(1 0 0 1 272 7149 )" />
  </g>
</svg>