<?xml version="1.0" encoding="utf-8"?>
<svg version="1.1" xmlns:xlink="http://www.w3.org/1999/xlink" width="264px" height="35px" xmlns="http://www.w3.org/2000/svg">
  <g transform="matrix(1 0 0 1 -121 -8288 )">
    <path d="M 121.5 8303  A 14.5 14.5 0 0 1 136 8288.5 L 370 8288.5  A 14.5 14.5 0 0 1 384.5 8303 L 384.5 8308  A 14.5 14.5 0 0 1 370 8322.5 L 136 8322.5  A 14.5 14.5 0 0 1 121.5 8308 L 121.5 8303  Z " fill-rule="nonzero" fill="#ffffff" stroke="none" />
    <path d="M 121.5 8303  A 14.5 14.5 0 0 1 136 8288.5 L 370 8288.5  A 14.5 14.5 0 0 1 384.5 8303 L 384.5 8308  A 14.5 14.5 0 0 1 370 8322.5 L 136 8322.5  A 14.5 14.5 0 0 1 121.5 8308 L 121.5 8303  Z " stroke-width="1" stroke="#764ba2" fill="none" />
  </g>
</svg>