<?xml version="1.0" encoding="utf-8"?>
<svg version="1.1" xmlns:xlink="http://www.w3.org/1999/xlink" width="24px" height="24px" xmlns="http://www.w3.org/2000/svg">
  <g transform="matrix(1 0 0 1 -241 -8608 )">
    <path d="M 23.522727272727273 9.204545454545455  C 23.840909090909093 9.52272727272727  24 9.909090909090908  24 10.363636363636363  L 24 13.636363636363635  C 24 14.090909090909092  23.840909090909093 14.477272727272727  23.522727272727273 14.795454545454545  C 23.204545454545457 15.113636363636362  22.81818181818182 15.272727272727273  22.363636363636363 15.272727272727273  L 15.272727272727273 15.272727272727273  L 15.272727272727273 22.363636363636367  C 15.272727272727273 22.81818181818182  15.113636363636363 23.204545454545453  14.795454545454545 23.522727272727273  C 14.47727272727273 23.840909090909093  14.090909090909092 24  13.636363636363637 24  L 10.363636363636363 24  C 9.90909090909091 24  9.522727272727273 23.840909090909093  9.204545454545455 23.522727272727273  C 8.886363636363637 23.204545454545453  8.727272727272727 22.81818181818182  8.727272727272727 22.363636363636367  L 8.727272727272727 15.272727272727273  L 1.6363636363636362 15.272727272727273  C 1.1818181818181819 15.272727272727273  0.7954545454545456 15.113636363636362  0.4772727272727273 14.795454545454545  C 0.15909090909090906 14.477272727272727  0 14.090909090909092  0 13.636363636363635  L 0 10.363636363636363  C 0 9.909090909090908  0.15909090909090906 9.52272727272727  0.4772727272727273 9.204545454545455  C 0.7954545454545456 8.886363636363637  1.1818181818181819 8.727272727272727  1.6363636363636362 8.727272727272727  L 8.727272727272727 8.727272727272727  L 8.727272727272727 1.6363636363636376  C 8.727272727272727 1.1818181818181808  8.886363636363637 0.7954545454545441  9.204545454545455 0.4772727272727275  C 9.522727272727273 0.15909090909090828  9.90909090909091 0  10.363636363636363 0  L 13.636363636363637 0  C 14.090909090909092 0  14.47727272727273 0.15909090909090828  14.795454545454545 0.4772727272727275  C 15.113636363636363 0.7954545454545441  15.272727272727273 1.1818181818181808  15.272727272727273 1.6363636363636376  L 15.272727272727273 8.727272727272727  L 22.363636363636363 8.727272727272727  C 22.81818181818182 8.727272727272727  23.204545454545457 8.886363636363637  23.522727272727273 9.204545454545455  Z " fill-rule="nonzero" fill="#764ba2" stroke="none" transform="matrix(1 0 0 1 241 8608 )" />
  </g>
</svg>