<?xml version="1.0" encoding="utf-8"?>
<svg version="1.1" xmlns:xlink="http://www.w3.org/1999/xlink" width="17px" height="17px" xmlns="http://www.w3.org/2000/svg">
  <g transform="matrix(1 0 0 1 -175 -7467 )">
    <path d="M 16.661931818181817 6.519886363636364  C 16.887310606060606 6.745265151515149  17 7.018939393939394  17 7.34090909090909  L 17 9.659090909090908  C 17 9.981060606060607  16.887310606060606 10.254734848484848  16.661931818181817 10.480113636363637  C 16.43655303030303 10.705492424242422  16.16287878787879 10.818181818181818  15.84090909090909 10.818181818181818  L 10.818181818181818 10.818181818181818  L 10.818181818181818 15.840909090909092  C 10.818181818181818 16.16287878787879  10.705492424242424 16.43655303030303  10.480113636363637 16.661931818181817  C 10.254734848484851 16.887310606060606  9.981060606060607 17  9.65909090909091 17  L 7.340909090909091 17  C 7.0189393939393945 17  6.745265151515152 16.887310606060606  6.519886363636364 16.661931818181817  C 6.294507575757576 16.43655303030303  6.181818181818182 16.16287878787879  6.181818181818182 15.840909090909092  L 6.181818181818182 10.818181818181818  L 1.159090909090909 10.818181818181818  C 0.8371212121212122 10.818181818181818  0.5634469696969698 10.705492424242422  0.3380681818181818 10.480113636363637  C 0.11268939393939392 10.254734848484848  0 9.981060606060607  0 9.659090909090908  L 0 7.34090909090909  C 0 7.018939393939394  0.11268939393939392 6.745265151515149  0.3380681818181818 6.519886363636364  C 0.5634469696969698 6.294507575757575  0.8371212121212122 6.181818181818182  1.159090909090909 6.181818181818182  L 6.181818181818182 6.181818181818182  L 6.181818181818182 1.15909090909091  C 6.181818181818182 0.8371212121212114  6.294507575757576 0.5634469696969687  6.519886363636364 0.338068181818182  C 6.745265151515152 0.11268939393939337  7.0189393939393945 0  7.340909090909091 0  L 9.65909090909091 0  C 9.981060606060607 0  10.254734848484851 0.11268939393939337  10.480113636363637 0.338068181818182  C 10.705492424242424 0.5634469696969687  10.818181818181818 0.8371212121212114  10.818181818181818 1.15909090909091  L 10.818181818181818 6.181818181818182  L 15.84090909090909 6.181818181818182  C 16.16287878787879 6.181818181818182  16.43655303030303 6.294507575757575  16.661931818181817 6.519886363636364  Z " fill-rule="nonzero" fill="#764ba2" stroke="none" transform="matrix(1 0 0 1 175 7467 )" />
  </g>
</svg>