<?xml version="1.0" encoding="utf-8"?>
<svg version="1.1" xmlns:xlink="http://www.w3.org/1999/xlink" width="21px" height="17px" xmlns="http://www.w3.org/2000/svg">
  <defs>
    <mask fill="white" id="clip98">
      <path d="M 17.981412639405203 9.712392829306314  C 17.99008674101611 9.730059755780722  17.99442379182156 9.756560145492337  17.99442379182156 9.791893998441154  L 17.99442379182156 16.15198752922837  C 17.99442379182156 16.381657573395685  17.91201982651797 16.580410496232787  17.74721189591078 16.748246297739673  C 17.582403965303595 16.91608209924656  17.387236679058244 17  17.16171003717472 17  L 12.165427509293679 17  L 12.165427509293679 11.911925175370227  L 8.83457249070632 11.911925175370227  L 8.83457249070632 17  L 3.8382899628252787 17  C 3.61276332094176 17  3.4175960346964067 16.91608209924656  3.2527881040892193 16.748246297739673  C 3.0879801734820327 16.580410496232787  3.0055762081784385 16.381657573395685  3.0055762081784385 16.15198752922837  L 3.0055762081784385 9.791893998441154  C 3.0055762081784385 9.783060535203948  3.007744733581165 9.769810340348142  3.0120817843866172 9.752143413873734  C 3.0164188351920695 9.734476487399323  3.018587360594796 9.721226292543518  3.018587360594796 9.712392829306314  L 10.5 3.431800467653936  L 17.981412639405203 9.712392829306314  Z M 20.986988847583643 8.566250974279034  C 20.99566294919455 8.685502727981294  20.965303593556385 8.789295921018446  20.895910780669144 8.877630553390492  L 20.08921933085502 9.858144972720188  C 20.019826517967783 9.937646141855028  19.928748451053284 9.986230189659652  19.815985130111525 10.00389711613406  L 19.776951672862452 10.00389711613406  C 19.664188351920696 10.00389711613406  19.573110285006198 9.972979994803845  19.503717472118957 9.911145752143412  L 10.5 2.2657833203429463  L 1.4962825278810408 9.911145752143412  C 1.3921933085501859 9.981813458041048  1.288104089219331 10.012730579371265  1.1840148698884758 10.00389711613406  C 1.0712515489467163 9.986230189659652  0.9801734820322182 9.937646141855028  0.9107806691449813 9.858144972720188  L 0.10408921933085502 8.877630553390492  C 0.034696406443618356 8.789295921018446  0.004337050805452323 8.685502727981294  0.013011152416356878 8.566250974279034  C 0.021685254027261524 8.446999220576773  0.06939281288723671 8.352039490776825  0.15613382899628253 8.28137178487919  L 9.511152416356877 0.34450506625097477  C 9.788723667905824 0.11483502208365637  10.118339529120199 0  10.5 0  C 10.881660470879803 0  11.211276332094178 0.11483502208365637  11.488847583643123 0.34450506625097477  L 14.663568773234202 3.047544816835541  L 14.663568773234202 0.4637568199532338  C 14.663568773234202 0.3400883346323702  14.70260223048327 0.23850350740451998  14.780669144981411 0.15900233826968124  C 14.858736059479554 0.07950116913484062  14.958488228004956 0.03975058456742031  15.079925650557621 0.03975058456742031  L 17.57806691449814 0.03975058456742031  C 17.699504337050808 0.03975058456742031  17.799256505576206 0.07950116913484062  17.877323420074347 0.15900233826968124  C 17.955390334572492 0.23850350740451998  17.99442379182156 0.3400883346323702  17.99442379182156 0.4637568199532338  L 17.99442379182156 5.86983632112237  L 20.843866171003718 8.28137178487919  C 20.930607187112766 8.352039490776825  20.978314745972742 8.446999220576773  20.986988847583643 8.566250974279034  Z " fill-rule="evenodd" />
    </mask>
  </defs>
  <g transform="matrix(1 0 0 1 -88 -7471 )">
    <path d="M 17.981412639405203 9.712392829306314  C 17.99008674101611 9.730059755780722  17.99442379182156 9.756560145492337  17.99442379182156 9.791893998441154  L 17.99442379182156 16.15198752922837  C 17.99442379182156 16.381657573395685  17.91201982651797 16.580410496232787  17.74721189591078 16.748246297739673  C 17.582403965303595 16.91608209924656  17.387236679058244 17  17.16171003717472 17  L 12.165427509293679 17  L 12.165427509293679 11.911925175370227  L 8.83457249070632 11.911925175370227  L 8.83457249070632 17  L 3.8382899628252787 17  C 3.61276332094176 17  3.4175960346964067 16.91608209924656  3.2527881040892193 16.748246297739673  C 3.0879801734820327 16.580410496232787  3.0055762081784385 16.381657573395685  3.0055762081784385 16.15198752922837  L 3.0055762081784385 9.791893998441154  C 3.0055762081784385 9.783060535203948  3.007744733581165 9.769810340348142  3.0120817843866172 9.752143413873734  C 3.0164188351920695 9.734476487399323  3.018587360594796 9.721226292543518  3.018587360594796 9.712392829306314  L 10.5 3.431800467653936  L 17.981412639405203 9.712392829306314  Z M 20.986988847583643 8.566250974279034  C 20.99566294919455 8.685502727981294  20.965303593556385 8.789295921018446  20.895910780669144 8.877630553390492  L 20.08921933085502 9.858144972720188  C 20.019826517967783 9.937646141855028  19.928748451053284 9.986230189659652  19.815985130111525 10.00389711613406  L 19.776951672862452 10.00389711613406  C 19.664188351920696 10.00389711613406  19.573110285006198 9.972979994803845  19.503717472118957 9.911145752143412  L 10.5 2.2657833203429463  L 1.4962825278810408 9.911145752143412  C 1.3921933085501859 9.981813458041048  1.288104089219331 10.012730579371265  1.1840148698884758 10.00389711613406  C 1.0712515489467163 9.986230189659652  0.9801734820322182 9.937646141855028  0.9107806691449813 9.858144972720188  L 0.10408921933085502 8.877630553390492  C 0.034696406443618356 8.789295921018446  0.004337050805452323 8.685502727981294  0.013011152416356878 8.566250974279034  C 0.021685254027261524 8.446999220576773  0.06939281288723671 8.352039490776825  0.15613382899628253 8.28137178487919  L 9.511152416356877 0.34450506625097477  C 9.788723667905824 0.11483502208365637  10.118339529120199 0  10.5 0  C 10.881660470879803 0  11.211276332094178 0.11483502208365637  11.488847583643123 0.34450506625097477  L 14.663568773234202 3.047544816835541  L 14.663568773234202 0.4637568199532338  C 14.663568773234202 0.3400883346323702  14.70260223048327 0.23850350740451998  14.780669144981411 0.15900233826968124  C 14.858736059479554 0.07950116913484062  14.958488228004956 0.03975058456742031  15.079925650557621 0.03975058456742031  L 17.57806691449814 0.03975058456742031  C 17.699504337050808 0.03975058456742031  17.799256505576206 0.07950116913484062  17.877323420074347 0.15900233826968124  C 17.955390334572492 0.23850350740451998  17.99442379182156 0.3400883346323702  17.99442379182156 0.4637568199532338  L 17.99442379182156 5.86983632112237  L 20.843866171003718 8.28137178487919  C 20.930607187112766 8.352039490776825  20.978314745972742 8.446999220576773  20.986988847583643 8.566250974279034  Z " fill-rule="nonzero" fill="#000000" stroke="none" fill-opacity="0" transform="matrix(1 0 0 1 88 7471 )" />
    <path d="M 17.981412639405203 9.712392829306314  C 17.99008674101611 9.730059755780722  17.99442379182156 9.756560145492337  17.99442379182156 9.791893998441154  L 17.99442379182156 16.15198752922837  C 17.99442379182156 16.381657573395685  17.91201982651797 16.580410496232787  17.74721189591078 16.748246297739673  C 17.582403965303595 16.91608209924656  17.387236679058244 17  17.16171003717472 17  L 12.165427509293679 17  L 12.165427509293679 11.911925175370227  L 8.83457249070632 11.911925175370227  L 8.83457249070632 17  L 3.8382899628252787 17  C 3.61276332094176 17  3.4175960346964067 16.91608209924656  3.2527881040892193 16.748246297739673  C 3.0879801734820327 16.580410496232787  3.0055762081784385 16.381657573395685  3.0055762081784385 16.15198752922837  L 3.0055762081784385 9.791893998441154  C 3.0055762081784385 9.783060535203948  3.007744733581165 9.769810340348142  3.0120817843866172 9.752143413873734  C 3.0164188351920695 9.734476487399323  3.018587360594796 9.721226292543518  3.018587360594796 9.712392829306314  L 10.5 3.431800467653936  L 17.981412639405203 9.712392829306314  Z " stroke-width="2" stroke="#ffffff" fill="none" transform="matrix(1 0 0 1 88 7471 )" mask="url(#clip98)" />
    <path d="M 20.986988847583643 8.566250974279034  C 20.99566294919455 8.685502727981294  20.965303593556385 8.789295921018446  20.895910780669144 8.877630553390492  L 20.08921933085502 9.858144972720188  C 20.019826517967783 9.937646141855028  19.928748451053284 9.986230189659652  19.815985130111525 10.00389711613406  L 19.776951672862452 10.00389711613406  C 19.664188351920696 10.00389711613406  19.573110285006198 9.972979994803845  19.503717472118957 9.911145752143412  L 10.5 2.2657833203429463  L 1.4962825278810408 9.911145752143412  C 1.3921933085501859 9.981813458041048  1.288104089219331 10.012730579371265  1.1840148698884758 10.00389711613406  C 1.0712515489467163 9.986230189659652  0.9801734820322182 9.937646141855028  0.9107806691449813 9.858144972720188  L 0.10408921933085502 8.877630553390492  C 0.034696406443618356 8.789295921018446  0.004337050805452323 8.685502727981294  0.013011152416356878 8.566250974279034  C 0.021685254027261524 8.446999220576773  0.06939281288723671 8.352039490776825  0.15613382899628253 8.28137178487919  L 9.511152416356877 0.34450506625097477  C 9.788723667905824 0.11483502208365637  10.118339529120199 0  10.5 0  C 10.881660470879803 0  11.211276332094178 0.11483502208365637  11.488847583643123 0.34450506625097477  L 14.663568773234202 3.047544816835541  L 14.663568773234202 0.4637568199532338  C 14.663568773234202 0.3400883346323702  14.70260223048327 0.23850350740451998  14.780669144981411 0.15900233826968124  C 14.858736059479554 0.07950116913484062  14.958488228004956 0.03975058456742031  15.079925650557621 0.03975058456742031  L 17.57806691449814 0.03975058456742031  C 17.699504337050808 0.03975058456742031  17.799256505576206 0.07950116913484062  17.877323420074347 0.15900233826968124  C 17.955390334572492 0.23850350740451998  17.99442379182156 0.3400883346323702  17.99442379182156 0.4637568199532338  L 17.99442379182156 5.86983632112237  L 20.843866171003718 8.28137178487919  C 20.930607187112766 8.352039490776825  20.978314745972742 8.446999220576773  20.986988847583643 8.566250974279034  Z " stroke-width="2" stroke="#ffffff" fill="none" transform="matrix(1 0 0 1 88 7471 )" mask="url(#clip98)" />
  </g>
</svg>