<?xml version="1.0" encoding="utf-8"?>
<svg version="1.1" xmlns:xlink="http://www.w3.org/1999/xlink" width="14px" height="17px" xmlns="http://www.w3.org/2000/svg">
  <g transform="matrix(1 0 0 1 -262 -7471 )">
    <path d="M 13.907031250000001 12.290690104166666  C 13.969010416666666 12.847764756944443  14 13.439887152777777  14 14.067057291666668  C 14 14.87131076388889  13.772135416666668 15.561197916666668  13.31640625 16.13671875  C 12.860677083333334 16.712239583333332  12.311979166666667 17  11.6703125 17  L 2.3296875 17  C 1.6880208333333333 17  1.1393229166666667 16.712239583333332  0.6835937500000001 16.13671875  C 0.2278645833333334 15.561197916666668  0 14.87131076388889  0 14.067057291666668  C 0 13.439887152777777  0.030989583333333404 12.847764756944443  0.09296875000000009 12.290690104166666  C 0.15494791666666674 11.733615451388886  0.2697916666666667 11.1728515625  0.4375000000000001 10.6083984375  C 0.6052083333333336 10.0439453125  0.8184895833333334 9.560655381944445  1.07734375 9.158528645833334  C 1.3361979166666669 8.756401909722221  1.67890625 8.428059895833332  2.10546875 8.173502604166668  C 2.5320312499999997 7.9189453125  3.022395833333334 7.791666666666667  3.5765625000000005 7.791666666666667  C 4.531770833333334 8.73611111111111  5.6729166666666675 9.208333333333334  7 9.208333333333334  C 8.327083333333336 9.208333333333334  9.468229166666667 8.73611111111111  10.4234375 7.791666666666667  C 10.977604166666667 7.791666666666667  11.467968749999999 7.9189453125  11.89453125 8.173502604166668  C 12.321093750000001 8.428059895833332  12.663802083333335 8.756401909722221  12.922656250000001 9.158528645833334  C 13.181510416666669 9.560655381944445  13.394791666666666 10.0439453125  13.5625 10.6083984375  C 13.730208333333335 11.1728515625  13.845052083333334 11.733615451388886  13.907031250000001 12.290690104166666  Z M 9.969531250000001 1.2451171875  C 10.789843750000001 2.0751953125  11.200000000000001 3.0768229166666674  11.200000000000001 4.25  C 11.200000000000001 5.423177083333333  10.789843750000001 6.4248046875  9.969531250000001 7.2548828125  C 9.149218750000001 8.0849609375  8.159374999999999 8.5  7 8.5  C 5.840625 8.5  4.85078125 8.0849609375  4.03046875 7.2548828125  C 3.2101562500000003 6.4248046875  2.8000000000000003 5.423177083333333  2.8000000000000003 4.25  C 2.8000000000000003 3.0768229166666674  3.2101562500000003 2.0751953125  4.03046875 1.2451171875  C 4.85078125 0.4150390625  5.840625 0  7 0  C 8.159374999999999 0  9.149218750000001 0.4150390625  9.969531250000001 1.2451171875  Z " fill-rule="nonzero" fill="#ffffff" stroke="none" transform="matrix(1 0 0 1 262 7471 )" />
  </g>
</svg>