<?xml version="1.0" encoding="utf-8"?>
<svg version="1.1" xmlns:xlink="http://www.w3.org/1999/xlink" width="284px" height="260px" xmlns="http://www.w3.org/2000/svg">
  <g>
    <path d="M 1 10.000000000000002  A 9 9 0 0 1 9.999999999999998 1 L 274 1  A 9 9 0 0 1 283 10 L 283 250  A 9 9 0 0 1 274 259 L 10 259  A 9 9 0 0 1 1 250 L 1 10  Z " fill-rule="nonzero" fill="#ffffff" stroke="none" />
    <path d="M 0.5 10.000000000000002  A 9.5 9.5 0 0 1 9.999999999999998 0.5 L 274 0.5  A 9.5 9.5 0 0 1 283.5 10 L 283.5 250  A 9.5 9.5 0 0 1 274 259.5 L 10 259.5  A 9.5 9.5 0 0 1 0.5 250 L 0.5 10  Z " stroke-width="1" stroke="#764ba2" fill="none" stroke-opacity="0.596078431372549" />
  </g>
</svg>