<?xml version="1.0" encoding="utf-8"?>
<svg version="1.1" xmlns:xlink="http://www.w3.org/1999/xlink" width="220px" height="175px" xmlns="http://www.w3.org/2000/svg">
  <g>
    <path d="M 1 10.000000000000002  A 9 9 0 0 1 9.999999999999998 1 L 210 1  A 9 9 0 0 1 219 10 L 219 165  A 9 9 0 0 1 210 174 L 10 174  A 9 9 0 0 1 1 165 L 1 10  Z " fill-rule="nonzero" fill="#ffffff" stroke="none" />
    <path d="M 0.5 10.000000000000002  A 9.5 9.5 0 0 1 9.999999999999998 0.5 L 210 0.5  A 9.5 9.5 0 0 1 219.5 10 L 219.5 165  A 9.5 9.5 0 0 1 210 174.5 L 10 174.5  A 9.5 9.5 0 0 1 0.5 165 L 0.5 10  Z " stroke-width="1" stroke="#764ba2" fill="none" stroke-opacity="0.596078431372549" />
  </g>
</svg>