<?xml version="1.0" encoding="utf-8"?>
<svg version="1.1" xmlns:xlink="http://www.w3.org/1999/xlink" width="58px" height="58px" xmlns="http://www.w3.org/2000/svg">
  <defs>
    <filter x="556px" y="6247px" width="58px" height="58px" filterUnits="userSpaceOnUse" id="filter93">
      <feOffset dx="2" dy="2" in="SourceAlpha" result="shadowOffsetInner" />
      <feGaussianBlur stdDeviation="2" in="shadowOffsetInner" result="shadowGaussian" />
      <feComposite in2="shadowGaussian" operator="atop" in="SourceAlpha" result="shadowComposite" />
      <feColorMatrix type="matrix" values="0 0 0 0 0  0 0 0 0 0  0 0 0 0 0  0 0 0 0.3137254901960784 0  " in="shadowComposite" />
    </filter>
    <g id="widget94">
      <path d="M 16.438802083333336 34.830729166666664  C 16.634114583333336 34.982638888888886  16.786024305555557 35.00434027777778  16.89453125 34.895833333333336  C 16.981336805555557 34.765625  16.948784722222225 34.62456597222222  16.796875 34.47265625  C 16.601562500000004 34.32074652777778  16.44965277777778 34.299045138888886  16.341145833333336 34.407552083333336  C 16.25434027777778 34.537760416666664  16.286892361111114 34.67881944444444  16.438802083333336 34.830729166666664  Z M 15.983072916666666 33.984375  C 16.11328125 33.89756944444444  16.11328125 33.756510416666664  15.983072916666666 33.561197916666664  C 15.874565972222223 33.40928819444445  15.744357638888893 33.365885416666664  15.592447916666666 33.430989583333336  C 15.462239583333334 33.517795138888886  15.462239583333334 33.64800347222222  15.592447916666666 33.821614583333336  C 15.744357638888893 33.99522569444444  15.874565972222223 34.049479166666664  15.983072916666666 33.984375  Z M 14.35546875 32.32421875  C 14.529079861111112 32.36762152777778  14.626736111111112 32.345920138888886  14.6484375 32.259114583333336  C 14.691840277777779 32.17230902777778  14.637586805555555 32.08550347222222  14.485677083333334 31.998697916666664  C 14.333767361111112 31.955295138888886  14.246961805555557 31.97699652777778  14.225260416666666 32.063802083333336  C 14.16015625 32.17230902777778  14.203559027777779 32.259114583333336  14.35546875 32.32421875  Z M 14.973958333333334 32.942708333333336  C 15.104166666666666 33.072916666666664  15.223524305555555 33.09461805555555  15.33203125 33.0078125  C 15.375434027777779 32.98611111111111  15.391710069444445 32.93728298611111  15.380859375 32.861328125  C 15.370008680555555 32.785373263888886  15.33203125 32.72569444444444  15.266927083333334 32.682291666666664  C 15.13671875 32.53038194444444  15.028211805555555 32.49782986111111  14.94140625 32.584635416666664  C 14.854600694444445 32.67144097222222  14.86545138888889 32.79079861111111  14.973958333333334 32.942708333333336  Z M 17.708333333333336 35.579427083333336  C 17.903645833333336 35.64453125  18.044704861111114 35.60112847222222  18.131510416666664 35.44921875  C 18.174913194444446 35.29730902777778  18.077256944444446 35.177951388888886  17.838541666666664 35.091145833333336  C 17.643229166666664 35.026041666666664  17.502170138888893 35.06944444444444  17.415364583333336 35.221354166666664  C 17.371961805555557 35.373263888888886  17.469618055555557 35.49262152777778  17.708333333333336 35.579427083333336  Z M 19.140625 35.807291666666664  C 19.37934027777778 35.807291666666664  19.498697916666664 35.72048611111111  19.498697916666664 35.546875  C 19.498697916666664 35.373263888888886  19.368489583333336 35.286458333333336  19.108072916666664 35.286458333333336  C 18.89105902777778 35.286458333333336  18.782552083333336 35.373263888888886  18.782552083333336 35.546875  C 18.782552083333336 35.72048611111111  18.901909722222225 35.807291666666664  19.140625 35.807291666666664  Z M 20.442708333333336 35.64453125  C 20.659722222222225 35.60112847222222  20.768229166666664 35.49262152777778  20.768229166666664 35.319010416666664  C 20.724826388888893 35.16710069444444  20.583767361111114 35.11284722222222  20.345052083333336 35.15625  C 20.106336805555557 35.19965277777778  20.008680555555557 35.29730902777778  20.052083333333336 35.44921875  C 20.095486111111114 35.62282986111111  20.225694444444446 35.68793402777778  20.442708333333336 35.64453125  Z M 38.4765625 34.781901041666664  C 40.603298611111114 31.884765625  41.66666666666667 28.624131944444443  41.66666666666667 25  C 41.66666666666667 20.399305555555554  40.0390625 16.471354166666668  36.78385416666667 13.216145833333332  C 33.52864583333333 9.9609375  29.600694444444446 8.333333333333332  25 8.333333333333332  C 20.399305555555557 8.333333333333332  16.471354166666664 9.9609375  13.216145833333334 13.216145833333332  C 9.9609375 16.471354166666668  8.333333333333332 20.399305555555554  8.333333333333332 25  C 8.333333333333332 28.624131944444443  9.39670138888889 31.884765625  11.5234375 34.781901041666664  C 13.650173611111112 37.67903645833333  16.384548611111114 39.69184027777777  19.7265625 40.8203125  C 20.1171875 40.88541666666667  20.40473090277778 40.83116319444444  20.589192708333336 40.65755208333333  C 20.773654513888893 40.48394097222223  20.865885416666664 40.26692708333333  20.865885416666664 40.00651041666667  C 20.865885416666664 38.87803819444444  20.855034722222225 37.847222222222214  20.833333333333336 36.9140625  C 20.703125 36.935763888888886  20.534939236111114 36.962890625  20.328776041666664 36.995442708333336  C 20.122612847222225 37.027994791666664  19.737413194444446 37.04969618055555  19.173177083333336 37.060546875  C 18.608940972222225 37.07139756944444  18.088107638888893 37.027994791666664  17.610677083333336 36.930338541666664  C 17.13324652777778 36.832682291666664  16.661241319444446 36.61566840277778  16.194661458333336 36.279296875  C 15.728081597222223 35.94292534722222  15.407986111111112 35.49262152777778  15.234375 34.928385416666664  C 14.735243055555555 33.64800347222222  14.116753472222223 32.845052083333336  13.37890625 32.51953125  C 13.335503472222223 32.49782986111111  13.286675347222223 32.45985243055555  13.232421875 32.405598958333336  L 12.972005208333334 32.145182291666664  C 12.972005208333334 32.145182291666664  12.896050347222223 32.04210069444444  12.744140625 31.8359375  C 12.592230902777779 31.629774305555546  12.635633680555555 31.54839409722222  12.874348958333334 31.591796875  C 13.113064236111112 31.63519965277778  13.324652777777779 31.59722222222222  13.509114583333334 31.477864583333336  C 13.639322916666666 31.477864583333336  13.802083333333334 31.49956597222222  13.997395833333334 31.54296875  C 14.192708333333334 31.58637152777778  14.518229166666666 31.754557291666664  14.973958333333334 32.047526041666664  C 15.4296875 32.340494791666664  15.787760416666666 32.72569444444444  16.048177083333336 33.203125  C 16.395399305555554 33.810763888888886  16.802300347222225 34.26649305555555  17.268880208333336 34.5703125  C 17.735460069444446 34.87413194444444  18.20746527777778 35.026041666666664  18.684895833333336 35.026041666666664  C 19.162326388888893 35.026041666666664  19.57465277777778 34.98806423611111  19.921875 34.912109375  C 20.269097222222225 34.836154513888886  20.594618055555557 34.733072916666664  20.8984375 34.602864583333336  C 21.050347222222225 33.58289930555555  21.408420138888893 32.834201388888886  21.97265625 32.356770833333336  C 20.909288194444446 32.2265625  19.976128472222225 32.02582465277778  19.173177083333336 31.754557291666664  C 18.370225694444446 31.483289930555546  17.578125 31.06011284722222  16.796875 30.485026041666664  C 16.015625000000004 29.909939236111104  15.413411458333334 29.085286458333336  14.990234375 28.011067708333336  C 14.567057291666668 26.936848958333336  14.355468750000004 25.64019097222222  14.35546875 24.12109375  C 14.355468750000004 22.406684027777775  14.930555555555557 20.92013888888889  16.080729166666664 19.661458333333332  C 15.559895833333334 18.31597222222222  15.614149305555555 16.840277777777775  16.243489583333336 15.234375  C 16.655815972222225 15.104166666666668  17.247178819444446 15.185546875  18.017578125 15.478515625  C 18.787977430555557 15.771484375  19.444444444444446 16.09157986111111  19.986979166666664 16.438802083333332  L 20.833333333333336 16.959635416666668  C 22.092013888888893 16.590711805555554  23.48090277777778 16.40625  25 16.40625  C 26.519097222222225 16.40625  27.90798611111111 16.590711805555554  29.166666666666668 16.959635416666668  C 29.405381944444446 16.807725694444443  29.71462673611111 16.612413194444443  30.094401041666668 16.373697916666668  C 30.474175347222225 16.134982638888886  31.07638888888889 15.852864583333332  31.901041666666668 15.52734375  C 32.72569444444445 15.201822916666668  33.344184027777786 15.104166666666668  33.75651041666667 15.234375  C 34.38585069444445 16.840277777777775  34.44010416666667 18.31597222222222  33.91927083333333 19.661458333333332  C 35.06944444444445 20.92013888888889  35.64453125 22.406684027777775  35.64453125 24.12109375  C 35.64453125 25.358072916666664  35.492621527777786 26.448567708333336  35.18880208333333 27.392578125  C 34.88498263888889 28.336588541666664  34.499782986111114 29.09613715277778  34.033203125 29.671223958333336  C 33.56662326388889 30.246310763888886  32.98611111111111 30.729166666666664  32.29166666666667 31.119791666666664  C 31.597222222222225 31.510416666666664  30.919053819444446 31.79253472222222  30.257161458333332 31.966145833333336  C 29.595269097222225 32.13975694444444  28.85199652777778 32.26996527777778  28.02734375 32.356770833333336  C 28.78689236111111 33.029513888888886  29.166666666666668 34.06032986111111  29.166666666666668 35.44921875  C 29.166666666666668 36.31727430555555  29.161241319444446 37.28298611111111  29.150390625 38.34635416666667  C 29.139539930555557 39.40972222222223  29.134114583333332 39.96310763888889  29.134114583333332 40.00651041666667  C 29.134114583333332 40.26692708333333  29.22634548611111 40.48394097222223  29.410807291666668 40.65755208333333  C 29.595269097222225 40.83116319444444  29.882812500000007 40.88541666666667  30.2734375 40.8203125  C 33.61545138888889 39.69184027777777  36.34982638888889 37.67903645833333  38.4765625 34.781901041666664  Z M 47.24934895833333 2.7506510416666687  C 49.08311631944444 4.584418402777773  50 6.792534722222215  50 9.375  L 50 40.625  C 50 43.20746527777777  49.08311631944444 45.41558159722223  47.24934895833333 47.24934895833333  C 45.41558159722223 49.08311631944444  43.207465277777786 50  40.625 50  L 9.375 50  C 6.792534722222222 50  4.584418402777779 49.08311631944444  2.750651041666667 47.24934895833333  C 0.9168836805555555 45.41558159722223  0 43.20746527777777  0 40.625  L 0 9.375  C 0 6.792534722222215  0.9168836805555555 4.584418402777773  2.750651041666667 2.7506510416666687  C 4.584418402777779 0.9168836805555525  6.792534722222222 0  9.375 0  L 40.625 0  C 43.207465277777786 0  45.41558159722223 0.9168836805555525  47.24934895833333 2.7506510416666687  Z " fill-rule="nonzero" fill="#ffffff" stroke="none" transform="matrix(1 0 0 1 558 6249 )" />
    </g>
  </defs>
  <g transform="matrix(1 0 0 1 -556 -6247 )">
    <use xlink:href="#widget94" filter="url(#filter93)" />
    <use xlink:href="#widget94" />
  </g>
</svg>