<?xml version="1.0" encoding="utf-8"?>
<svg version="1.1" xmlns:xlink="http://www.w3.org/1999/xlink" width="33px" height="33px" xmlns="http://www.w3.org/2000/svg">
  <defs>
    <filter x="116px" y="4342px" width="33px" height="33px" filterUnits="userSpaceOnUse" id="filter113">
      <feOffset dx="2" dy="2" in="SourceAlpha" result="shadowOffsetInner" />
      <feGaussianBlur stdDeviation="2" in="shadowOffsetInner" result="shadowGaussian" />
      <feComposite in2="shadowGaussian" operator="atop" in="SourceAlpha" result="shadowComposite" />
      <feColorMatrix type="matrix" values="0 0 0 0 0  0 0 0 0 0  0 0 0 0 0  0 0 0 0.3137254901960784 0  " in="shadowComposite" />
    </filter>
    <g id="widget114">
      <path d="M 8.219401041666668 17.415364583333332  C 8.317057291666668 17.491319444444443  8.393012152777779 17.50217013888889  8.447265625 17.447916666666668  C 8.490668402777779 17.3828125  8.474392361111112 17.31228298611111  8.3984375 17.236328125  C 8.300781250000002 17.16037326388889  8.22482638888889 17.149522569444443  8.170572916666668 17.203776041666668  C 8.12717013888889 17.268880208333332  8.143446180555557 17.33940972222222  8.219401041666668 17.415364583333332  Z M 7.991536458333333 16.9921875  C 8.056640625 16.94878472222222  8.056640625 16.878255208333332  7.991536458333333 16.780598958333332  C 7.937282986111112 16.704644097222225  7.872178819444446 16.682942708333332  7.796223958333333 16.715494791666668  C 7.731119791666667 16.758897569444443  7.731119791666667 16.82400173611111  7.796223958333333 16.910807291666668  C 7.872178819444446 16.99761284722222  7.937282986111112 17.024739583333332  7.991536458333333 16.9921875  Z M 7.177734375 16.162109375  C 7.264539930555556 16.18381076388889  7.313368055555556 16.172960069444443  7.32421875 16.129557291666668  C 7.345920138888889 16.08615451388889  7.318793402777778 16.04275173611111  7.242838541666667 15.999348958333332  C 7.166883680555556 15.977647569444443  7.123480902777779 15.98849826388889  7.112630208333333 16.031901041666668  C 7.080078125 16.08615451388889  7.101779513888889 16.129557291666668  7.177734375 16.162109375  Z M 7.486979166666667 16.471354166666668  C 7.552083333333333 16.536458333333332  7.611762152777778 16.547309027777775  7.666015625 16.50390625  C 7.687717013888889 16.493055555555554  7.695855034722222 16.468641493055554  7.6904296875 16.4306640625  C 7.685004340277778 16.392686631944443  7.666015625 16.36284722222222  7.633463541666667 16.341145833333332  C 7.568359375 16.26519097222222  7.514105902777778 16.248914930555554  7.470703125 16.292317708333332  C 7.427300347222222 16.33572048611111  7.432725694444445 16.395399305555554  7.486979166666667 16.471354166666668  Z M 8.854166666666668 17.789713541666668  C 8.951822916666668 17.822265625  9.022352430555557 17.80056423611111  9.065755208333332 17.724609375  C 9.087456597222223 17.64865451388889  9.038628472222223 17.588975694444443  8.919270833333332 17.545572916666668  C 8.821614583333332 17.513020833333332  8.751085069444446 17.53472222222222  8.707682291666668 17.610677083333332  C 8.685980902777779 17.686631944444443  8.734809027777779 17.74631076388889  8.854166666666668 17.789713541666668  Z M 9.5703125 17.903645833333332  C 9.68967013888889 17.903645833333332  9.749348958333332 17.860243055555554  9.749348958333332 17.7734375  C 9.749348958333332 17.686631944444443  9.684244791666668 17.643229166666668  9.554036458333332 17.643229166666668  C 9.44552951388889 17.643229166666668  9.391276041666668 17.686631944444443  9.391276041666668 17.7734375  C 9.391276041666668 17.860243055555554  9.450954861111112 17.903645833333332  9.5703125 17.903645833333332  Z M 10.221354166666668 17.822265625  C 10.329861111111112 17.80056423611111  10.384114583333332 17.74631076388889  10.384114583333332 17.659505208333332  C 10.362413194444446 17.58355034722222  10.291883680555557 17.55642361111111  10.172526041666668 17.578125  C 10.053168402777779 17.59982638888889  10.004340277777779 17.64865451388889  10.026041666666668 17.724609375  C 10.047743055555557 17.811414930555554  10.112847222222223 17.84396701388889  10.221354166666668 17.822265625  Z M 19.23828125 17.390950520833332  C 20.301649305555557 15.9423828125  20.833333333333336 14.312065972222221  20.833333333333336 12.5  C 20.833333333333336 10.199652777777777  20.01953125 8.235677083333334  18.391927083333336 6.608072916666666  C 16.764322916666664 4.98046875  14.800347222222223 4.166666666666666  12.5 4.166666666666666  C 10.199652777777779 4.166666666666666  8.235677083333332 4.98046875  6.608072916666667 6.608072916666666  C 4.98046875 8.235677083333334  4.166666666666666 10.199652777777777  4.166666666666666 12.5  C 4.166666666666666 14.312065972222221  4.698350694444445 15.9423828125  5.76171875 17.390950520833332  C 6.825086805555556 18.839518229166664  8.192274305555557 19.845920138888886  9.86328125 20.41015625  C 10.05859375 20.442708333333336  10.20236545138889 20.41558159722222  10.294596354166668 20.328776041666664  C 10.386827256944446 20.241970486111114  10.432942708333332 20.133463541666664  10.432942708333332 20.003255208333336  C 10.432942708333332 19.43901909722222  10.427517361111112 18.923611111111107  10.416666666666668 18.45703125  C 10.3515625 18.467881944444443  10.267469618055557 18.4814453125  10.164388020833332 18.497721354166668  C 10.061306423611112 18.513997395833332  9.868706597222223 18.524848090277775  9.586588541666668 18.5302734375  C 9.304470486111112 18.53569878472222  9.044053819444446 18.513997395833332  8.805338541666668 18.465169270833332  C 8.56662326388889 18.416341145833332  8.330620659722223 18.30783420138889  8.097330729166668 18.1396484375  C 7.864040798611112 17.97146267361111  7.703993055555556 17.74631076388889  7.6171875 17.464192708333332  C 7.367621527777778 16.82400173611111  7.058376736111112 16.422526041666668  6.689453125 16.259765625  C 6.667751736111112 16.248914930555554  6.643337673611112 16.229926215277775  6.6162109375 16.202799479166668  L 6.486002604166667 16.072591145833332  C 6.486002604166667 16.072591145833332  6.448025173611112 16.02105034722222  6.3720703125 15.91796875  C 6.296115451388889 15.814887152777773  6.317816840277778 15.77419704861111  6.437174479166667 15.7958984375  C 6.556532118055556 15.81759982638889  6.662326388888889 15.79861111111111  6.754557291666667 15.738932291666668  C 6.819661458333333 15.738932291666668  6.901041666666667 15.74978298611111  6.998697916666667 15.771484375  C 7.096354166666667 15.79318576388889  7.259114583333333 15.877278645833332  7.486979166666667 16.023763020833332  C 7.71484375 16.170247395833332  7.893880208333333 16.36284722222222  8.024088541666668 16.6015625  C 8.197699652777777 16.905381944444443  8.401150173611112 17.133246527777775  8.634440104166668 17.28515625  C 8.867730034722223 17.43706597222222  9.10373263888889 17.513020833333332  9.342447916666668 17.513020833333332  C 9.581163194444446 17.513020833333332  9.78732638888889 17.494032118055554  9.9609375 17.4560546875  C 10.134548611111112 17.418077256944443  10.297309027777779 17.366536458333332  10.44921875 17.301432291666668  C 10.525173611111112 16.791449652777775  10.704210069444446 16.417100694444443  10.986328125 16.178385416666668  C 10.454644097222223 16.11328125  9.988064236111112 16.01291232638889  9.586588541666668 15.877278645833332  C 9.185112847222223 15.741644965277773  8.7890625 15.53005642361111  8.3984375 15.242513020833332  C 8.007812500000002 14.954969618055552  7.706705729166667 14.542643229166668  7.4951171875 14.005533854166668  C 7.283528645833334 13.468424479166668  7.177734375000002 12.82009548611111  7.177734375 12.060546875  C 7.177734375000002 11.203342013888888  7.465277777777779 10.460069444444445  8.040364583333332 9.830729166666666  C 7.779947916666667 9.15798611111111  7.807074652777778 8.420138888888888  8.121744791666668 7.6171875  C 8.327907986111112 7.552083333333334  8.623589409722223 7.5927734375  9.0087890625 7.7392578125  C 9.393988715277779 7.8857421875  9.722222222222223 8.045789930555555  9.993489583333332 8.219401041666666  L 10.416666666666668 8.479817708333334  C 11.046006944444446 8.295355902777777  11.74045138888889 8.203125  12.5 8.203125  C 13.259548611111112 8.203125  13.953993055555555 8.295355902777777  14.583333333333334 8.479817708333334  C 14.702690972222223 8.403862847222221  14.857313368055555 8.306206597222221  15.047200520833334 8.186848958333334  C 15.237087673611112 8.067491319444443  15.538194444444445 7.926432291666666  15.950520833333334 7.763671875  C 16.362847222222225 7.600911458333334  16.672092013888893 7.552083333333334  16.878255208333336 7.6171875  C 17.192925347222225 8.420138888888888  17.220052083333336 9.15798611111111  16.959635416666664 9.830729166666666  C 17.534722222222225 10.460069444444445  17.822265625 11.203342013888888  17.822265625 12.060546875  C 17.822265625 12.679036458333332  17.746310763888893 13.224283854166668  17.594401041666664 13.6962890625  C 17.442491319444446 14.168294270833332  17.249891493055557 14.54806857638889  17.0166015625 14.835611979166668  C 16.783311631944446 15.123155381944443  16.493055555555554 15.364583333333332  16.145833333333336 15.559895833333332  C 15.798611111111112 15.755208333333332  15.459526909722223 15.89626736111111  15.128580729166666 15.983072916666668  C 14.797634548611112 16.06987847222222  14.42599826388889 16.13498263888889  14.013671875 16.178385416666668  C 14.393446180555555 16.514756944444443  14.583333333333334 17.030164930555554  14.583333333333334 17.724609375  C 14.583333333333334 18.158637152777775  14.580620659722223 18.641493055555554  14.5751953125 19.173177083333336  C 14.569769965277779 19.704861111111114  14.567057291666666 19.981553819444446  14.567057291666666 20.003255208333336  C 14.567057291666666 20.133463541666664  14.613172743055555 20.241970486111114  14.705403645833334 20.328776041666664  C 14.797634548611112 20.41558159722222  14.941406250000004 20.442708333333336  15.13671875 20.41015625  C 16.807725694444446 19.845920138888886  18.174913194444446 18.839518229166664  19.23828125 17.390950520833332  Z M 23.624674479166664 1.3753255208333344  C 24.54155815972222 2.2922092013888866  25 3.3962673611111076  25 4.6875  L 25 20.3125  C 25 21.603732638888886  24.54155815972222 22.707790798611114  23.624674479166664 23.624674479166664  C 22.707790798611114 24.54155815972222  21.603732638888893 25  20.3125 25  L 4.6875 25  C 3.396267361111111 25  2.2922092013888893 24.54155815972222  1.3753255208333335 23.624674479166664  C 0.45844184027777773 22.707790798611114  0 21.603732638888886  0 20.3125  L 0 4.6875  C 0 3.3962673611111076  0.45844184027777773 2.2922092013888866  1.3753255208333335 1.3753255208333344  C 2.2922092013888893 0.45844184027777624  3.396267361111111 0  4.6875 0  L 20.3125 0  C 21.603732638888893 0  22.707790798611114 0.45844184027777624  23.624674479166664 1.3753255208333344  Z " fill-rule="nonzero" fill="#ffffff" stroke="none" transform="matrix(1 0 0 1 118 4344 )" />
    </g>
  </defs>
  <g transform="matrix(1 0 0 1 -116 -4342 )">
    <use xlink:href="#widget114" filter="url(#filter113)" />
    <use xlink:href="#widget114" />
  </g>
</svg>