<?xml version="1.0" encoding="utf-8"?>
<svg version="1.1" xmlns:xlink="http://www.w3.org/1999/xlink" width="33px" height="33px" xmlns="http://www.w3.org/2000/svg">
  <defs>
    <filter x="166px" y="4342px" width="33px" height="33px" filterUnits="userSpaceOnUse" id="filter115">
      <feOffset dx="2" dy="2" in="SourceAlpha" result="shadowOffsetInner" />
      <feGaussianBlur stdDeviation="2" in="shadowOffsetInner" result="shadowGaussian" />
      <feComposite in2="shadowGaussian" operator="atop" in="SourceAlpha" result="shadowComposite" />
      <feColorMatrix type="matrix" values="0 0 0 0 0  0 0 0 0 0  0 0 0 0 0  0 0 0 0.3137254901960784 0  " in="shadowComposite" />
    </filter>
    <g id="widget116">
      <path d="M 15.445963541666666 15.445963541666668  C 16.259765625 14.632161458333332  16.666666666666664 13.65017361111111  16.666666666666664 12.5  C 16.666666666666664 11.349826388888888  16.259765625 10.367838541666666  15.445963541666666 9.554036458333334  C 14.632161458333334 8.740234375  13.650173611111112 8.333333333333334  12.5 8.333333333333334  C 11.34982638888889 8.333333333333334  10.367838541666668 8.740234375  9.554036458333332 9.554036458333334  C 8.740234375 10.367838541666666  8.333333333333332 11.349826388888888  8.333333333333332 12.5  C 8.333333333333332 13.65017361111111  8.740234375 14.632161458333332  9.554036458333332 15.445963541666668  C 10.367838541666668 16.259765625  11.34982638888889 16.666666666666668  12.5 16.666666666666668  C 13.650173611111112 16.666666666666668  14.632161458333334 16.259765625  15.445963541666666 15.445963541666668  Z M 17.041015625 7.958984375  C 18.288845486111114 9.206814236111107  18.912760416666664 10.720486111111107  18.912760416666664 12.5  C 18.912760416666664 14.27951388888889  18.288845486111114 15.79318576388889  17.041015625 17.041015625  C 15.79318576388889 18.28884548611111  14.27951388888889 18.912760416666664  12.5 18.912760416666664  C 10.720486111111112 18.912760416666664  9.206814236111112 18.28884548611111  7.958984375 17.041015625  C 6.711154513888889 15.79318576388889  6.087239583333334 14.27951388888889  6.087239583333334 12.5  C 6.087239583333334 10.720486111111107  6.711154513888889 9.206814236111107  7.958984375 7.958984375  C 9.206814236111112 6.711154513888887  10.720486111111112 6.087239583333334  12.5 6.087239583333334  C 14.27951388888889 6.087239583333334  15.79318576388889 6.711154513888887  17.041015625 7.958984375  Z M 20.231119791666664 4.768880208333334  C 20.524088541666664 5.061848958333334  20.670572916666664 5.414496527777776  20.670572916666664 5.826822916666666  C 20.670572916666664 6.239149305555555  20.524088541666664 6.591796875  20.231119791666664 6.884765625  C 19.938151041666664 7.177734375  19.585503472222225 7.32421875  19.173177083333336 7.32421875  C 18.760850694444446 7.32421875  18.408203125 7.177734375  18.115234375 6.884765625  C 17.822265625 6.591796875  17.67578125 6.239149305555555  17.67578125 5.826822916666666  C 17.67578125 5.414496527777776  17.822265625 5.061848958333334  18.115234375 4.768880208333334  C 18.408203125 4.475911458333334  18.760850694444446 4.329427083333334  19.173177083333336 4.329427083333334  C 19.585503472222225 4.329427083333334  19.938151041666664 4.475911458333334  20.231119791666664 4.768880208333334  Z M 13.7451171875 2.2379557291666656  C 12.990993923611112 2.2433810763888866  12.575954861111112 2.24609375  12.5 2.24609375  C 12.42404513888889 2.24609375  12.00900607638889 2.2433810763888866  11.2548828125 2.2379557291666656  C 10.500759548611112 2.232530381944442  9.928385416666668 2.232530381944442  9.537760416666668 2.2379557291666656  C 9.147135416666668 2.2433810763888866  8.623589409722223 2.2596571180555554  7.967122395833333 2.2867838541666656  C 7.310655381944446 2.3139105902777763  6.751844618055556 2.3681640625  6.290690104166667 2.4495442708333344  C 5.829535590277779 2.5309244791666656  5.441623263888889 2.6312934027777763  5.126953125 2.7506510416666656  C 4.584418402777779 2.9676649305555554  4.106987847222222 3.282335069444442  3.6946614583333335 3.6946614583333344  C 3.2823350694444446 4.106987847222221  2.967664930555556 4.584418402777776  2.750651041666667 5.126953125  C 2.631293402777778 5.441623263888887  2.530924479166667 5.829535590277776  2.449544270833333 6.290690104166666  C 2.3681640625 6.751844618055555  2.313910590277778 7.310655381944442  2.286783854166667 7.967122395833334  C 2.259657118055556 8.623589409722221  2.2433810763888893 9.147135416666666  2.237955729166667 9.537760416666666  C 2.2325303819444446 9.928385416666666  2.2325303819444446 10.500759548611107  2.237955729166667 11.2548828125  C 2.2433810763888893 12.009006076388888  2.24609375 12.424045138888888  2.24609375 12.5  C 2.24609375 12.57595486111111  2.2433810763888893 12.99099392361111  2.237955729166667 13.7451171875  C 2.2325303819444446 14.49924045138889  2.2325303819444446 15.071614583333332  2.237955729166667 15.462239583333332  C 2.2433810763888893 15.852864583333332  2.259657118055556 16.376410590277775  2.286783854166667 17.032877604166668  C 2.313910590277778 17.689344618055554  2.3681640625 18.248155381944443  2.449544270833333 18.709309895833332  C 2.530924479166667 19.17046440972222  2.631293402777778 19.558376736111107  2.750651041666667 19.873046875  C 2.967664930555556 20.41558159722222  3.2823350694444446 20.89301215277778  3.6946614583333335 21.305338541666664  C 4.106987847222222 21.717664930555554  4.584418402777779 22.032335069444446  5.126953125 22.249348958333336  C 5.441623263888889 22.36870659722222  5.829535590277779 22.469075520833336  6.290690104166667 22.550455729166664  C 6.751844618055556 22.6318359375  7.310655381944446 22.68608940972222  7.967122395833333 22.713216145833336  C 8.623589409722223 22.740342881944446  9.147135416666668 22.756618923611114  9.537760416666668 22.762044270833336  C 9.928385416666668 22.767469618055554  10.500759548611112 22.767469618055554  11.2548828125 22.762044270833336  C 12.00900607638889 22.756618923611114  12.42404513888889 22.75390625  12.5 22.75390625  C 12.575954861111112 22.75390625  12.990993923611112 22.756618923611114  13.7451171875 22.762044270833336  C 14.49924045138889 22.767469618055554  15.071614583333334 22.767469618055554  15.462239583333334 22.762044270833336  C 15.852864583333334 22.756618923611114  16.37641059027778 22.740342881944446  17.032877604166664 22.713216145833336  C 17.689344618055557 22.68608940972222  18.248155381944446 22.6318359375  18.709309895833336 22.550455729166664  C 19.170464409722225 22.469075520833336  19.558376736111114 22.36870659722222  19.873046875 22.249348958333336  C 20.415581597222225 22.032335069444446  20.89301215277778 21.717664930555554  21.305338541666664 21.305338541666664  C 21.717664930555557 20.89301215277778  22.032335069444446 20.41558159722222  22.249348958333336 19.873046875  C 22.368706597222225 19.558376736111107  22.469075520833336 19.17046440972222  22.550455729166664 18.709309895833332  C 22.6318359375 18.248155381944443  22.686089409722225 17.689344618055554  22.713216145833336 17.032877604166668  C 22.740342881944446 16.376410590277775  22.756618923611114 15.852864583333332  22.762044270833336 15.462239583333332  C 22.767469618055557 15.071614583333332  22.767469618055557 14.49924045138889  22.762044270833336 13.7451171875  C 22.756618923611114 12.99099392361111  22.75390625 12.57595486111111  22.75390625 12.5  C 22.75390625 12.424045138888888  22.756618923611114 12.009006076388888  22.762044270833336 11.2548828125  C 22.767469618055557 10.500759548611107  22.767469618055557 9.928385416666666  22.762044270833336 9.537760416666666  C 22.756618923611114 9.147135416666666  22.740342881944446 8.623589409722221  22.713216145833336 7.967122395833334  C 22.686089409722225 7.310655381944442  22.6318359375 6.751844618055555  22.550455729166664 6.290690104166666  C 22.469075520833336 5.829535590277776  22.368706597222225 5.441623263888887  22.249348958333336 5.126953125  C 22.032335069444446 4.584418402777776  21.717664930555557 4.106987847222221  21.305338541666664 3.6946614583333344  C 20.89301215277778 3.282335069444442  20.415581597222225 2.9676649305555554  19.873046875 2.7506510416666656  C 19.558376736111114 2.6312934027777763  19.170464409722225 2.5309244791666656  18.709309895833336 2.4495442708333344  C 18.248155381944446 2.3681640625  17.689344618055557 2.3139105902777763  17.032877604166664 2.2867838541666656  C 16.37641059027778 2.2596571180555554  15.852864583333334 2.2433810763888866  15.462239583333334 2.2379557291666656  C 15.071614583333334 2.232530381944442  14.49924045138889 2.232530381944442  13.7451171875 2.2379557291666656  Z M 24.918619791666664 7.340494791666666  C 24.972873263888886 8.295355902777777  25 10.015190972222221  25 12.5  C 25 14.984809027777779  24.972873263888886 16.70464409722222  24.918619791666664 17.659505208333332  C 24.810112847222225 19.91644965277778  24.137369791666664 21.663411458333336  22.900390625 22.900390625  C 21.663411458333336 24.137369791666664  19.91644965277778 24.81011284722222  17.659505208333336 24.918619791666664  C 16.704644097222225 24.972873263888886  14.984809027777779 25  12.5 25  C 10.015190972222223 25  8.295355902777777 24.972873263888886  7.340494791666667 24.918619791666664  C 5.083550347222223 24.81011284722222  3.336588541666667 24.137369791666664  2.099609375 22.900390625  C 0.8626302083333334 21.663411458333336  0.1898871527777778 19.91644965277778  0.08138020833333334 17.659505208333332  C 0.02712673611111111 16.70464409722222  0 14.984809027777779  0 12.5  C 0 10.015190972222221  0.02712673611111111 8.295355902777777  0.08138020833333334 7.340494791666666  C 0.1898871527777778 5.083550347222221  0.8626302083333334 3.3365885416666656  2.099609375 2.099609375  C 3.336588541666667 0.8626302083333343  5.083550347222223 0.18988715277777624  7.340494791666667 0.08138020833333426  C 8.295355902777777 0.02712673611110772  10.015190972222223 0  12.5 0  C 14.984809027777779 0  16.704644097222225 0.02712673611110772  17.659505208333336 0.08138020833333426  C 19.91644965277778 0.18988715277777624  21.663411458333336 0.8626302083333343  22.900390625 2.099609375  C 24.137369791666664 3.3365885416666656  24.810112847222225 5.083550347222221  24.918619791666664 7.340494791666666  Z " fill-rule="nonzero" fill="#ffffff" stroke="none" transform="matrix(1 0 0 1 168 4344 )" />
    </g>
  </defs>
  <g transform="matrix(1 0 0 1 -166 -4342 )">
    <use xlink:href="#widget116" filter="url(#filter115)" />
    <use xlink:href="#widget116" />
  </g>
</svg>