<?xml version="1.0" encoding="utf-8"?>
<svg version="1.1" xmlns:xlink="http://www.w3.org/1999/xlink" width="33px" height="33px" xmlns="http://www.w3.org/2000/svg">
  <defs>
    <filter x="266px" y="4342px" width="33px" height="33px" filterUnits="userSpaceOnUse" id="filter119">
      <feOffset dx="2" dy="2" in="SourceAlpha" result="shadowOffsetInner" />
      <feGaussianBlur stdDeviation="2" in="shadowOffsetInner" result="shadowGaussian" />
      <feComposite in2="shadowGaussian" operator="atop" in="SourceAlpha" result="shadowComposite" />
      <feColorMatrix type="matrix" values="0 0 0 0 0  0 0 0 0 0  0 0 0 0 0  0 0 0 0.3137254901960784 0  " in="shadowComposite" />
    </filter>
    <g id="widget120">
      <path d="M 4 9.635416666666666  L 4 20.930989583333336  L 8 20.930989583333336  L 8 9.635416666666666  L 4 9.635416666666666  Z M 7.275390625 7.5439453125  C 7.666015625000002 7.169596354166666  7.861328125000002 6.705729166666666  7.861328125 6.15234375  C 7.850477430555556 5.588107638888887  7.655164930555556 5.121527777777776  7.275390625 4.752604166666666  C 6.895616319444445 4.383680555555555  6.391059027777778 4.19921875  5.76171875 4.19921875  C 5.132378472222223 4.19921875  4.619683159722223 4.383680555555555  4.2236328125 4.752604166666666  C 3.827582465277778 5.121527777777776  3.6295572916666665 5.588107638888887  3.6295572916666665 6.15234375  C 3.6295572916666665 6.705729166666666  3.822157118055556 7.169596354166666  4.207356770833334 7.5439453125  C 4.592556423611112 7.918294270833334  5.094401041666666 8.10546875  5.712890625 8.10546875  L 5.729166666666666 8.10546875  C 6.369357638888889 8.10546875  6.884765625000002 7.918294270833334  7.275390625 7.5439453125  Z M 17.3828125 14.892578125  L 17.3828125 20.930989583333336  L 21.142578125 20.930989583333336  L 21.142578125 14.453125  C 21.142578125 12.782118055555552  20.74652777777778 11.518012152777777  19.954427083333336 10.660807291666666  C 19.162326388888893 9.803602430555555  18.115234375 9.375  16.813151041666664 9.375  C 15.337456597222223 9.375  14.203559027777779 10.009765625  13.411458333333334 11.279296875  L 13.444010416666666 11.279296875  L 13.444010416666666 9.635416666666666  L 9.684244791666668 9.635416666666666  C 9.716796875 10.3515625  9.716796875 14.116753472222221  9.684244791666668 20.930989583333336  L 13.444010416666666 20.930989583333336  L 13.444010416666666 14.615885416666668  C 13.444010416666666 14.203559027777779  13.481987847222223 13.899739583333332  13.557942708333334 13.704427083333332  C 13.720703125 13.324652777777779  13.96484375 13.001844618055552  14.290364583333334 12.736002604166668  C 14.615885416666666 12.470160590277777  15.017361111111112 12.337239583333334  15.494791666666666 12.337239583333334  C 16.753472222222225 12.337239583333334  17.3828125 13.189019097222221  17.3828125 14.892578125  Z M 23.624674479166664 1.3753255208333344  C 24.54155815972222 2.2922092013888866  25 3.3962673611111076  25 4.6875  L 25 20.3125  C 25 21.603732638888886  24.54155815972222 22.707790798611114  23.624674479166664 23.624674479166664  C 22.707790798611114 24.54155815972222  21.603732638888893 25  20.3125 25  L 4.6875 25  C 3.396267361111111 25  2.2922092013888893 24.54155815972222  1.3753255208333335 23.624674479166664  C 0.45844184027777773 22.707790798611114  0 21.603732638888886  0 20.3125  L 0 4.6875  C 0 3.3962673611111076  0.45844184027777773 2.2922092013888866  1.3753255208333335 1.3753255208333344  C 2.2922092013888893 0.45844184027777624  3.396267361111111 0  4.6875 0  L 20.3125 0  C 21.603732638888893 0  22.707790798611114 0.45844184027777624  23.624674479166664 1.3753255208333344  Z " fill-rule="nonzero" fill="#ffffff" stroke="none" transform="matrix(1 0 0 1 268 4344 )" />
    </g>
  </defs>
  <g transform="matrix(1 0 0 1 -266 -4342 )">
    <use xlink:href="#widget120" filter="url(#filter119)" />
    <use xlink:href="#widget120" />
  </g>
</svg>