<?xml version="1.0" encoding="utf-8"?>
<svg version="1.1" xmlns:xlink="http://www.w3.org/1999/xlink" width="58px" height="58px" xmlns="http://www.w3.org/2000/svg">
  <defs>
    <filter x="856px" y="6247px" width="58px" height="58px" filterUnits="userSpaceOnUse" id="filter99">
      <feOffset dx="2" dy="2" in="SourceAlpha" result="shadowOffsetInner" />
      <feGaussianBlur stdDeviation="2" in="shadowOffsetInner" result="shadowGaussian" />
      <feComposite in2="shadowGaussian" operator="atop" in="SourceAlpha" result="shadowComposite" />
      <feColorMatrix type="matrix" values="0 0 0 0 0  0 0 0 0 0  0 0 0 0 0  0 0 0 0.3137254901960784 0  " in="shadowComposite" />
    </filter>
    <g id="widget100">
      <path d="M 8 19.270833333333332  L 8 41.86197916666667  L 16 41.86197916666667  L 16 19.270833333333332  L 8 19.270833333333332  Z M 14.55078125 15.087890625  C 15.332031250000004 14.339192708333332  15.722656250000004 13.411458333333332  15.72265625 12.3046875  C 15.700954861111112 11.176215277777773  15.310329861111112 10.243055555555552  14.55078125 9.505208333333332  C 13.79123263888889 8.76736111111111  12.782118055555555 8.3984375  11.5234375 8.3984375  C 10.264756944444446 8.3984375  9.239366319444446 8.76736111111111  8.447265625 9.505208333333332  C 7.655164930555556 10.243055555555552  7.259114583333333 11.176215277777773  7.259114583333333 12.3046875  C 7.259114583333333 13.411458333333332  7.644314236111112 14.339192708333332  8.414713541666668 15.087890625  C 9.185112847222223 15.836588541666668  10.188802083333332 16.2109375  11.42578125 16.2109375  L 11.458333333333332 16.2109375  C 12.738715277777779 16.2109375  13.769531250000004 15.836588541666668  14.55078125 15.087890625  Z M 34 29.78515625  L 34 41.86197916666667  L 42 41.86197916666667  L 42 28.90625  C 42.28515625 25.564236111111104  41.49305555555556 23.036024305555554  39.90885416666667 21.321614583333332  C 38.324652777777786 19.60720486111111  36.23046875 18.75  33.62630208333333 18.75  C 30.674913194444446 18.75  28.407118055555557 20.01953125  26.822916666666668 22.55859375  L 26.888020833333332 22.55859375  L 26.888020833333332 19.270833333333332  L 19.368489583333336 19.270833333333332  C 19.43359375 20.703125  19.43359375 28.233506944444443  19.368489583333336 41.86197916666667  L 26 41.86197916666667  L 26 29.231770833333336  C 26.888020833333332 28.407118055555557  26.963975694444446 27.799479166666664  27.115885416666668 27.408854166666664  C 27.44140625 26.649305555555557  27.9296875 26.003689236111104  28.580729166666668 25.472005208333336  C 29.231770833333332 24.940321180555554  30.034722222222225 24.674479166666668  30.989583333333332 24.674479166666668  C 33.50694444444445 24.674479166666668  34.765625 26.378038194444443  34 29.78515625  Z M 47.24934895833333 2.7506510416666687  C 49.08311631944444 4.584418402777773  50 6.792534722222215  50 9.375  L 50 40.625  C 50 43.20746527777777  49.08311631944444 45.41558159722223  47.24934895833333 47.24934895833333  C 45.41558159722223 49.08311631944444  43.207465277777786 50  40.625 50  L 9.375 50  C 6.792534722222222 50  4.584418402777779 49.08311631944444  2.750651041666667 47.24934895833333  C 0.9168836805555555 45.41558159722223  0 43.20746527777777  0 40.625  L 0 9.375  C 0 6.792534722222215  0.9168836805555555 4.584418402777773  2.750651041666667 2.7506510416666687  C 4.584418402777779 0.9168836805555525  6.792534722222222 0  9.375 0  L 40.625 0  C 43.207465277777786 0  45.41558159722223 0.9168836805555525  47.24934895833333 2.7506510416666687  Z " fill-rule="nonzero" fill="#ffffff" stroke="none" transform="matrix(1 0 0 1 858 6249 )" />
    </g>
  </defs>
  <g transform="matrix(1 0 0 1 -856 -6247 )">
    <use xlink:href="#widget100" filter="url(#filter99)" />
    <use xlink:href="#widget100" />
  </g>
</svg>