<?xml version="1.0" encoding="utf-8"?>
<svg version="1.1" xmlns:xlink="http://www.w3.org/1999/xlink" width="33px" height="33px" xmlns="http://www.w3.org/2000/svg">
  <defs>
    <filter x="216px" y="4342px" width="33px" height="33px" filterUnits="userSpaceOnUse" id="filter117">
      <feOffset dx="2" dy="2" in="SourceAlpha" result="shadowOffsetInner" />
      <feGaussianBlur stdDeviation="2" in="shadowOffsetInner" result="shadowGaussian" />
      <feComposite in2="shadowGaussian" operator="atop" in="SourceAlpha" result="shadowComposite" />
      <feColorMatrix type="matrix" values="0 0 0 0 0  0 0 0 0 0  0 0 0 0 0  0 0 0 0.3137254901960784 0  " in="shadowComposite" />
    </filter>
    <g id="widget118">
      <path d="M 19.124348958333336 9.619140625  C 19.807942708333336 9.130859375  20.377604166666664 8.539496527777777  20.833333333333336 7.845052083333334  C 20.225694444444446 8.116319444444443  19.569227430555557 8.30078125  18.863932291666664 8.3984375  C 19.601779513888893 7.964409722222221  20.106336805555557 7.329644097222221  20.377604166666664 6.494140625  C 19.67230902777778 6.906467013888887  18.9453125 7.183159722222221  18.196614583333336 7.32421875  C 17.534722222222225 6.608072916666666  16.704644097222225 6.25  15.706380208333334 6.25  C 14.762369791666666 6.25  13.956705729166666 6.583658854166666  13.289388020833334 7.2509765625  C 12.6220703125 7.918294270833334  12.288411458333332 8.723958333333334  12.288411458333332 9.66796875  C 12.288411458333332 9.982638888888888  12.315538194444446 10.243055555555555  12.369791666666668 10.44921875  C 10.970052083333332 10.373263888888888  9.657118055555557 10.020616319444445  8.430989583333332 9.391276041666666  C 7.204861111111112 8.761935763888888  6.1631944444444455 7.921006944444442  5.305989583333334 6.868489583333334  C 4.991319444444445 7.411024305555555  4.833984375 7.986111111111108  4.833984375 8.59375  C 4.833984375 9.830729166666666  5.327690972222223 10.780164930555555  6.315104166666667 11.442057291666666  C 5.805121527777779 11.431206597222221  5.262586805555556 11.290147569444445  4.6875 11.018880208333334  L 4.6875 11.051432291666666  C 4.6875 11.865234375  4.958767361111112 12.589518229166668  5.501302083333334 13.224283854166668  C 6.043836805555556 13.859049479166668  6.711154513888889 14.252387152777779  7.503255208333333 14.404296875  C 7.188585069444446 14.491102430555552  6.911892361111112 14.534505208333332  6.673177083333333 14.534505208333332  C 6.532118055555556 14.534505208333332  6.320529513888889 14.512803819444443  6.038411458333334 14.469401041666668  C 6.266276041666667 15.152994791666668  6.670464409722222 15.717230902777773  7.2509765625 16.162109375  C 7.831488715277778 16.60698784722222  8.490668402777779 16.834852430555554  9.228515625 16.845703125  C 7.969835069444445 17.822265625  6.553819444444445 18.310546875  4.98046875 18.310546875  C 4.698350694444445 18.310546875  4.427083333333334 18.294270833333332  4.166666666666666 18.26171875  C 5.772569444444445 19.28168402777778  7.51953125 19.791666666666664  9.407552083333332 19.791666666666664  C 10.622829861111112 19.791666666666664  11.762152777777779 19.59906684027778  12.825520833333334 19.2138671875  C 13.88888888888889 18.82866753472222  14.800347222222223 18.31325954861111  15.559895833333334 17.667643229166668  C 16.319444444444446 17.02202690972222  16.973198784722225 16.278754340277775  17.521158854166664 15.437825520833332  C 18.069118923611114 14.59689670138889  18.47601996527778 13.71799045138889  18.741861979166664 12.801106770833332  C 19.007703993055557 11.884223090277777  19.140625 10.970052083333334  19.140625 10.05859375  C 19.140625 9.86328125  19.13519965277778 9.716796875  19.124348958333336 9.619140625  Z M 23.624674479166664 1.3753255208333344  C 24.54155815972222 2.2922092013888866  25 3.3962673611111076  25 4.6875  L 25 20.3125  C 25 21.603732638888886  24.54155815972222 22.707790798611114  23.624674479166664 23.624674479166664  C 22.707790798611114 24.54155815972222  21.603732638888893 25  20.3125 25  L 4.6875 25  C 3.396267361111111 25  2.2922092013888893 24.54155815972222  1.3753255208333335 23.624674479166664  C 0.45844184027777773 22.707790798611114  0 21.603732638888886  0 20.3125  L 0 4.6875  C 0 3.3962673611111076  0.45844184027777773 2.2922092013888866  1.3753255208333335 1.3753255208333344  C 2.2922092013888893 0.45844184027777624  3.396267361111111 0  4.6875 0  L 20.3125 0  C 21.603732638888893 0  22.707790798611114 0.45844184027777624  23.624674479166664 1.3753255208333344  Z " fill-rule="nonzero" fill="#ffffff" stroke="none" transform="matrix(1 0 0 1 218 4344 )" />
    </g>
  </defs>
  <g transform="matrix(1 0 0 1 -216 -4342 )">
    <use xlink:href="#widget118" filter="url(#filter117)" />
    <use xlink:href="#widget118" />
  </g>
</svg>