<?xml version="1.0" encoding="utf-8"?>
<svg version="1.1" xmlns:xlink="http://www.w3.org/1999/xlink" width="58px" height="58px" xmlns="http://www.w3.org/2000/svg">
  <defs>
    <filter x="756px" y="6247px" width="58px" height="58px" filterUnits="userSpaceOnUse" id="filter97">
      <feOffset dx="2" dy="2" in="SourceAlpha" result="shadowOffsetInner" />
      <feGaussianBlur stdDeviation="2" in="shadowOffsetInner" result="shadowGaussian" />
      <feComposite in2="shadowGaussian" operator="atop" in="SourceAlpha" result="shadowComposite" />
      <feColorMatrix type="matrix" values="0 0 0 0 0  0 0 0 0 0  0 0 0 0 0  0 0 0 0.3137254901960784 0  " in="shadowComposite" />
    </filter>
    <g id="widget98">
      <path d="M 38.24869791666667 19.23828125  C 39.61588541666667 18.26171875  40.75520833333333 17.078993055555554  41.66666666666667 15.690104166666668  C 40.45138888888889 16.232638888888886  39.138454861111114 16.6015625  37.72786458333333 16.796875  C 39.203559027777786 15.928819444444443  40.212673611111114 14.659288194444443  40.75520833333333 12.98828125  C 39.34461805555556 13.812934027777773  37.890625 14.366319444444443  36.39322916666667 14.6484375  C 35.06944444444445 13.216145833333332  33.40928819444445 12.5  31.412760416666668 12.5  C 29.524739583333332 12.5  27.913411458333332 13.167317708333332  26.578776041666668 14.501953125  C 25.244140625 15.836588541666668  24.576822916666664 17.447916666666668  24.576822916666664 19.3359375  C 24.576822916666664 19.965277777777775  24.631076388888893 20.48611111111111  24.739583333333336 20.8984375  C 21.940104166666664 20.746527777777775  19.314236111111114 20.04123263888889  16.861979166666664 18.782552083333332  C 14.409722222222223 17.523871527777775  12.326388888888891 15.842013888888884  10.611979166666668 13.736979166666668  C 9.98263888888889 14.82204861111111  9.66796875 15.972222222222216  9.66796875 17.1875  C 9.66796875 19.661458333333332  10.655381944444446 21.56032986111111  12.630208333333334 22.884114583333332  C 11.610243055555557 22.862413194444443  10.525173611111112 22.58029513888889  9.375 22.037760416666668  L 9.375 22.102864583333332  C 9.375 23.73046875  9.917534722222223 25.179036458333336  11.002604166666668 26.448567708333336  C 12.087673611111112 27.718098958333336  13.422309027777779 28.504774305555557  15.006510416666666 28.80859375  C 14.377170138888893 28.982204861111104  13.823784722222223 29.069010416666664  13.346354166666666 29.069010416666664  C 13.064236111111112 29.069010416666664  12.641059027777779 29.025607638888886  12.076822916666668 28.938802083333336  C 12.532552083333334 30.305989583333336  13.340928819444445 31.434461805555546  14.501953125 32.32421875  C 15.662977430555555 33.21397569444444  16.981336805555557 33.66970486111111  18.45703125 33.69140625  C 15.93967013888889 35.64453125  13.10763888888889 36.62109375  9.9609375 36.62109375  C 9.39670138888889 36.62109375  8.854166666666668 36.588541666666664  8.333333333333332 36.5234375  C 11.54513888888889 38.56336805555556  15.0390625 39.58333333333333  18.815104166666664 39.58333333333333  C 21.245659722222225 39.58333333333333  23.524305555555557 39.19813368055556  25.651041666666668 38.427734375  C 27.77777777777778 37.65733506944444  29.600694444444446 36.62651909722222  31.119791666666668 35.335286458333336  C 32.63888888888889 34.04405381944444  33.94639756944445 32.55750868055555  35.04231770833333 30.875651041666664  C 36.13823784722223 29.19379340277778  36.95203993055556 27.43598090277778  37.48372395833333 25.602213541666664  C 38.015407986111114 23.768446180555554  38.28125 21.940104166666668  38.28125 20.1171875  C 38.28125 19.7265625  38.27039930555556 19.43359375  38.24869791666667 19.23828125  Z M 47.24934895833333 2.7506510416666687  C 49.08311631944444 4.584418402777773  50 6.792534722222215  50 9.375  L 50 40.625  C 50 43.20746527777777  49.08311631944444 45.41558159722223  47.24934895833333 47.24934895833333  C 45.41558159722223 49.08311631944444  43.207465277777786 50  40.625 50  L 9.375 50  C 6.792534722222222 50  4.584418402777779 49.08311631944444  2.750651041666667 47.24934895833333  C 0.9168836805555555 45.41558159722223  0 43.20746527777777  0 40.625  L 0 9.375  C 0 6.792534722222215  0.9168836805555555 4.584418402777773  2.750651041666667 2.7506510416666687  C 4.584418402777779 0.9168836805555525  6.792534722222222 0  9.375 0  L 40.625 0  C 43.207465277777786 0  45.41558159722223 0.9168836805555525  47.24934895833333 2.7506510416666687  Z " fill-rule="nonzero" fill="#ffffff" stroke="none" transform="matrix(1 0 0 1 758 6249 )" />
    </g>
  </defs>
  <g transform="matrix(1 0 0 1 -756 -6247 )">
    <use xlink:href="#widget98" filter="url(#filter97)" />
    <use xlink:href="#widget98" />
  </g>
</svg>